<?xml version="1.0" encoding="UTF-8" standalone="no"?>
<!DOCTYPE svg PUBLIC "-//W3C//DTD SVG 1.1//EN"
 "http://www.w3.org/Graphics/SVG/1.1/DTD/svg11.dtd">
<!-- Generated by graphviz version 7.0.5 (20221223.1930)
 -->
<!-- Title: libs/Runtime.PPCEABI.H/__init_cpp_exceptions.cpp Pages: 1 -->
<svg width="510pt" height="236pt"
 viewBox="0.00 0.00 509.50 236.00" xmlns="http://www.w3.org/2000/svg" xmlns:xlink="http://www.w3.org/1999/xlink">
<g id="graph0" class="graph" transform="scale(1 1) rotate(0) translate(4 232)">
<title>libs/Runtime.PPCEABI.H/__init_cpp_exceptions.cpp</title>
<!-- Node1 -->
<g id="node1" class="node">
<title>Node1</title>
<g id="a_node1"><a xlink:title=" ">
<polygon fill="#999999" stroke="#666666" points="300,-228 166,-228 166,-198 300,-198 300,-228"/>
<text text-anchor="start" x="174" y="-216" font-family="Helvetica,sans-Serif" font-size="10.00">libs/Runtime.PPCEABI.H</text>
<text text-anchor="middle" x="233" y="-205" font-family="Helvetica,sans-Serif" font-size="10.00">/__init_cpp_exceptions.cpp</text>
</a>
</g>
</g>
<!-- Node2 -->
<g id="node2" class="node">
<title>Node2</title>
<g id="a_node2"><a xlink:href="____init__cpp__exceptions_8h.html" target="_top" xlink:title=" ">
<polygon fill="white" stroke="#666666" points="128,-156.5 8,-156.5 8,-126.5 128,-126.5 128,-156.5"/>
<text text-anchor="start" x="16" y="-144.5" font-family="Helvetica,sans-Serif" font-size="10.00">Runtime.PPCEABI.H/</text>
<text text-anchor="middle" x="68" y="-133.5" font-family="Helvetica,sans-Serif" font-size="10.00">__init_cpp_exceptions.h</text>
</a>
</g>
</g>
<!-- Node1&#45;&gt;Node2 -->
<g id="edge1" class="edge">
<title>Node1&#45;&gt;Node2</title>
<path fill="none" stroke="#63b8ff" d="M198.81,-197.6C173.81,-187.07 139.67,-172.69 112.54,-161.26"/>
<polygon fill="#63b8ff" stroke="#63b8ff" points="114.11,-158.13 103.54,-157.47 111.4,-164.58 114.11,-158.13"/>
</g>
<!-- Node5 -->
<g id="node5" class="node">
<title>Node5</title>
<g id="a_node5"><a xlink:href="dol2asm_8h.html" target="_top" xlink:title=" ">
<polygon fill="white" stroke="#666666" points="207.5,-151 146.5,-151 146.5,-132 207.5,-132 207.5,-151"/>
<text text-anchor="middle" x="177" y="-139" font-family="Helvetica,sans-Serif" font-size="10.00">dol2asm.h</text>
</a>
</g>
</g>
<!-- Node1&#45;&gt;Node5 -->
<g id="edge4" class="edge">
<title>Node1&#45;&gt;Node5</title>
<path fill="none" stroke="#63b8ff" d="M221.4,-197.6C212.59,-186.67 200.43,-171.58 191.07,-159.96"/>
<polygon fill="#63b8ff" stroke="#63b8ff" points="193.94,-157.95 184.94,-152.36 188.49,-162.34 193.94,-157.95"/>
</g>
<!-- Node6 -->
<g id="node6" class="node">
<title>Node6</title>
<g id="a_node6"><a xlink:title=" ">
<polygon fill="#e0e0e0" stroke="#999999" points="354.5,-162 225.5,-162 225.5,-121 354.5,-121 354.5,-162"/>
<text text-anchor="start" x="233.5" y="-150" font-family="Helvetica,sans-Serif" font-size="10.00">asm/Runtime.PPCEABI.H</text>
<text text-anchor="start" x="233.5" y="-139" font-family="Helvetica,sans-Serif" font-size="10.00">/__init_cpp_exceptions</text>
<text text-anchor="middle" x="290" y="-128" font-family="Helvetica,sans-Serif" font-size="10.00">/__fini_cpp_exceptions.s</text>
</a>
</g>
</g>
<!-- Node1&#45;&gt;Node6 -->
<g id="edge5" class="edge">
<title>Node1&#45;&gt;Node6</title>
<path fill="none" stroke="#63b8ff" d="M244.81,-197.6C251.07,-189.97 258.99,-180.31 266.45,-171.22"/>
<polygon fill="#63b8ff" stroke="#63b8ff" points="269.07,-173.54 272.71,-163.59 263.66,-169.1 269.07,-173.54"/>
</g>
<!-- Node7 -->
<g id="node7" class="node">
<title>Node7</title>
<g id="a_node7"><a xlink:title=" ">
<polygon fill="#e0e0e0" stroke="#999999" points="501.5,-162 372.5,-162 372.5,-121 501.5,-121 501.5,-162"/>
<text text-anchor="start" x="380.5" y="-150" font-family="Helvetica,sans-Serif" font-size="10.00">asm/Runtime.PPCEABI.H</text>
<text text-anchor="start" x="380.5" y="-139" font-family="Helvetica,sans-Serif" font-size="10.00">/__init_cpp_exceptions</text>
<text text-anchor="middle" x="437" y="-128" font-family="Helvetica,sans-Serif" font-size="10.00">/__init_cpp_exceptions.s</text>
</a>
</g>
</g>
<!-- Node1&#45;&gt;Node7 -->
<g id="edge6" class="edge">
<title>Node1&#45;&gt;Node7</title>
<path fill="none" stroke="#63b8ff" d="M275.27,-197.6C301.99,-188.49 337.17,-176.51 367.88,-166.05"/>
<polygon fill="#63b8ff" stroke="#63b8ff" points="368.77,-169.44 377.11,-162.9 366.51,-162.82 368.77,-169.44"/>
</g>
<!-- Node3 -->
<g id="node3" class="node">
<title>Node3</title>
<g id="a_node3"><a xlink:href="types_8h.html" target="_top" xlink:title=" ">
<polygon fill="white" stroke="#666666" points="108.5,-85 27.5,-85 27.5,-66 108.5,-66 108.5,-85"/>
<text text-anchor="middle" x="68" y="-73" font-family="Helvetica,sans-Serif" font-size="10.00">dolphin/types.h</text>
</a>
</g>
</g>
<!-- Node2&#45;&gt;Node3 -->
<g id="edge2" class="edge">
<title>Node2&#45;&gt;Node3</title>
<path fill="none" stroke="#63b8ff" d="M68,-126.3C68,-117.59 68,-106.31 68,-96.68"/>
<polygon fill="#63b8ff" stroke="#63b8ff" points="71.5,-96.86 68,-86.86 64.5,-96.86 71.5,-96.86"/>
</g>
<!-- Node4 -->
<g id="node4" class="node">
<title>Node4</title>
<g id="a_node4"><a xlink:href="stddef_8h.html" target="_top" xlink:title=" ">
<polygon fill="white" stroke="#666666" points="136,-30 0,-30 0,0 136,0 136,-30"/>
<text text-anchor="start" x="8" y="-18" font-family="Helvetica,sans-Serif" font-size="10.00">MSL_C/MSL_Common/Src</text>
<text text-anchor="middle" x="68" y="-7" font-family="Helvetica,sans-Serif" font-size="10.00">/stddef.h</text>
</a>
</g>
</g>
<!-- Node3&#45;&gt;Node4 -->
<g id="edge3" class="edge">
<title>Node3&#45;&gt;Node4</title>
<path fill="none" stroke="#63b8ff" d="M68,-65.87C68,-59.4 68,-50.2 68,-41.45"/>
<polygon fill="#63b8ff" stroke="#63b8ff" points="71.5,-41.63 68,-31.63 64.5,-41.63 71.5,-41.63"/>
</g>
</g>
</svg>
