<?xml version="1.0" encoding="UTF-8" standalone="no"?>
<!DOCTYPE svg PUBLIC "-//W3C//DTD SVG 1.1//EN"
 "http://www.w3.org/Graphics/SVG/1.1/DTD/svg11.dtd">
<!-- Generated by graphviz version 7.0.5 (20221223.1930)
 -->
<!-- Title: src/__start.c Pages: 1 -->
<svg width="644pt" height="346pt"
 viewBox="0.00 0.00 643.50 346.00" xmlns="http://www.w3.org/2000/svg" xmlns:xlink="http://www.w3.org/1999/xlink">
<g id="graph0" class="graph" transform="scale(1 1) rotate(0) translate(4 342)">
<title>src/__start.c</title>
<!-- Node1 -->
<g id="node1" class="node">
<title>Node1</title>
<g id="a_node1"><a xlink:title=" ">
<polygon fill="#999999" stroke="#666666" points="547.5,-338 476.5,-338 476.5,-319 547.5,-319 547.5,-338"/>
<text text-anchor="middle" x="512" y="-326" font-family="Helvetica,sans-Serif" font-size="10.00">src/__start.c</text>
</a>
</g>
</g>
<!-- Node2 -->
<g id="node2" class="node">
<title>Node2</title>
<g id="a_node2"><a xlink:href="stdlib_8h.html" target="_top" xlink:title=" ">
<polygon fill="white" stroke="#666666" points="417.5,-283 334.5,-283 334.5,-264 417.5,-264 417.5,-283"/>
<text text-anchor="middle" x="376" y="-271" font-family="Helvetica,sans-Serif" font-size="10.00">MSL_C/stdlib.h</text>
</a>
</g>
</g>
<!-- Node1&#45;&gt;Node2 -->
<g id="edge1" class="edge">
<title>Node1&#45;&gt;Node2</title>
<path fill="none" stroke="#63b8ff" d="M488.93,-318.51C467.11,-310.01 434.12,-297.15 409.42,-287.53"/>
<polygon fill="#63b8ff" stroke="#63b8ff" points="410.73,-284.28 400.14,-283.91 408.19,-290.8 410.73,-284.28"/>
</g>
<!-- Node10 -->
<g id="node10" class="node">
<title>Node10</title>
<g id="a_node10"><a xlink:href="dol2asm_8h.html" target="_top" xlink:title=" ">
<polygon fill="white" stroke="#666666" points="542.5,-283 481.5,-283 481.5,-264 542.5,-264 542.5,-283"/>
<text text-anchor="middle" x="512" y="-271" font-family="Helvetica,sans-Serif" font-size="10.00">dol2asm.h</text>
</a>
</g>
</g>
<!-- Node1&#45;&gt;Node10 -->
<g id="edge9" class="edge">
<title>Node1&#45;&gt;Node10</title>
<path fill="none" stroke="#63b8ff" d="M512,-318.75C512,-312.27 512,-303.16 512,-294.9"/>
<polygon fill="#63b8ff" stroke="#63b8ff" points="515.5,-294.96 512,-284.96 508.5,-294.96 515.5,-294.96"/>
</g>
<!-- Node11 -->
<g id="node11" class="node">
<title>Node11</title>
<g id="a_node11"><a xlink:href="init_8h.html" target="_top" xlink:title=" ">
<polygon fill="white" stroke="#666666" points="620.5,-283 583.5,-283 583.5,-264 620.5,-264 620.5,-283"/>
<text text-anchor="middle" x="602" y="-271" font-family="Helvetica,sans-Serif" font-size="10.00">init.h</text>
</a>
</g>
</g>
<!-- Node1&#45;&gt;Node11 -->
<g id="edge10" class="edge">
<title>Node1&#45;&gt;Node11</title>
<path fill="none" stroke="#63b8ff" d="M527.27,-318.51C540.93,-310.47 561.2,-298.53 577.18,-289.11"/>
<polygon fill="#63b8ff" stroke="#63b8ff" points="578.81,-292.22 585.65,-284.13 575.26,-286.18 578.81,-292.22"/>
</g>
<!-- Node3 -->
<g id="node3" class="node">
<title>Node3</title>
<g id="a_node3"><a xlink:href="abort__exit_8h.html" target="_top" xlink:title=" ">
<polygon fill="white" stroke="#666666" points="136,-228 0,-228 0,-198 136,-198 136,-228"/>
<text text-anchor="start" x="8" y="-216" font-family="Helvetica,sans-Serif" font-size="10.00">MSL_C/MSL_Common/Src</text>
<text text-anchor="middle" x="68" y="-205" font-family="Helvetica,sans-Serif" font-size="10.00">/abort_exit.h</text>
</a>
</g>
</g>
<!-- Node2&#45;&gt;Node3 -->
<g id="edge2" class="edge">
<title>Node2&#45;&gt;Node3</title>
<path fill="none" stroke="#63b8ff" d="M334.14,-264.55C286.39,-255.48 207.24,-240.45 147.63,-229.13"/>
<polygon fill="#63b8ff" stroke="#63b8ff" points="148.33,-225.7 137.85,-227.27 147.03,-232.57 148.33,-225.7"/>
</g>
<!-- Node4 -->
<g id="node4" class="node">
<title>Node4</title>
<g id="a_node4"><a xlink:href="arith_8h.html" target="_top" xlink:title=" ">
<polygon fill="white" stroke="#666666" points="290,-228 154,-228 154,-198 290,-198 290,-228"/>
<text text-anchor="start" x="162" y="-216" font-family="Helvetica,sans-Serif" font-size="10.00">MSL_C/MSL_Common/Src</text>
<text text-anchor="middle" x="222" y="-205" font-family="Helvetica,sans-Serif" font-size="10.00">/arith.h</text>
</a>
</g>
</g>
<!-- Node2&#45;&gt;Node4 -->
<g id="edge3" class="edge">
<title>Node2&#45;&gt;Node4</title>
<path fill="none" stroke="#63b8ff" d="M352.61,-263.62C330.92,-255.38 297.96,-242.86 270.58,-232.45"/>
<polygon fill="#63b8ff" stroke="#63b8ff" points="272.02,-229.26 261.43,-228.98 269.53,-235.8 272.02,-229.26"/>
</g>
<!-- Node5 -->
<g id="node5" class="node">
<title>Node5</title>
<g id="a_node5"><a xlink:href="mbstring_8h.html" target="_top" xlink:title=" ">
<polygon fill="white" stroke="#666666" points="444,-228 308,-228 308,-198 444,-198 444,-228"/>
<text text-anchor="start" x="316" y="-216" font-family="Helvetica,sans-Serif" font-size="10.00">MSL_C/MSL_Common/Src</text>
<text text-anchor="middle" x="376" y="-205" font-family="Helvetica,sans-Serif" font-size="10.00">/mbstring.h</text>
</a>
</g>
</g>
<!-- Node2&#45;&gt;Node5 -->
<g id="edge4" class="edge">
<title>Node2&#45;&gt;Node5</title>
<path fill="none" stroke="#63b8ff" d="M376,-263.87C376,-257.4 376,-248.2 376,-239.45"/>
<polygon fill="#63b8ff" stroke="#63b8ff" points="379.5,-239.63 376,-229.63 372.5,-239.63 379.5,-239.63"/>
</g>
<!-- Node9 -->
<g id="node9" class="node">
<title>Node9</title>
<g id="a_node9"><a xlink:href="strtoul_8h.html" target="_top" xlink:title=" ">
<polygon fill="white" stroke="#666666" points="598,-228 462,-228 462,-198 598,-198 598,-228"/>
<text text-anchor="start" x="470" y="-216" font-family="Helvetica,sans-Serif" font-size="10.00">MSL_C/MSL_Common/Src</text>
<text text-anchor="middle" x="530" y="-205" font-family="Helvetica,sans-Serif" font-size="10.00">/strtoul.h</text>
</a>
</g>
</g>
<!-- Node2&#45;&gt;Node9 -->
<g id="edge8" class="edge">
<title>Node2&#45;&gt;Node9</title>
<path fill="none" stroke="#63b8ff" d="M399.39,-263.62C421.08,-255.38 454.04,-242.86 481.42,-232.45"/>
<polygon fill="#63b8ff" stroke="#63b8ff" points="482.47,-235.8 490.57,-228.98 479.98,-229.26 482.47,-235.8"/>
</g>
<!-- Node6 -->
<g id="node6" class="node">
<title>Node6</title>
<g id="a_node6"><a xlink:href="wchar__io_8h.html" target="_top" xlink:title=" ">
<polygon fill="white" stroke="#666666" points="505,-162 369,-162 369,-132 505,-132 505,-162"/>
<text text-anchor="start" x="377" y="-150" font-family="Helvetica,sans-Serif" font-size="10.00">MSL_C/MSL_Common/Src</text>
<text text-anchor="middle" x="437" y="-139" font-family="Helvetica,sans-Serif" font-size="10.00">/wchar_io.h</text>
</a>
</g>
</g>
<!-- Node5&#45;&gt;Node6 -->
<g id="edge5" class="edge">
<title>Node5&#45;&gt;Node6</title>
<path fill="none" stroke="#63b8ff" d="M389.54,-197.8C397.2,-189.76 406.95,-179.53 415.62,-170.43"/>
<polygon fill="#63b8ff" stroke="#63b8ff" points="418.09,-172.91 422.46,-163.26 413.02,-168.08 418.09,-172.91"/>
</g>
<!-- Node7 -->
<g id="node7" class="node">
<title>Node7</title>
<g id="a_node7"><a xlink:href="ansi__files_8h.html" target="_top" xlink:title=" ">
<polygon fill="white" stroke="#666666" points="520,-96 384,-96 384,-66 520,-66 520,-96"/>
<text text-anchor="start" x="392" y="-84" font-family="Helvetica,sans-Serif" font-size="10.00">MSL_C/MSL_Common/Src</text>
<text text-anchor="middle" x="452" y="-73" font-family="Helvetica,sans-Serif" font-size="10.00">/ansi_files.h</text>
</a>
</g>
</g>
<!-- Node6&#45;&gt;Node7 -->
<g id="edge6" class="edge">
<title>Node6&#45;&gt;Node7</title>
<path fill="none" stroke="#63b8ff" d="M440.33,-131.8C442.02,-124.59 444.12,-115.61 446.08,-107.27"/>
<polygon fill="#63b8ff" stroke="#63b8ff" points="449.46,-108.17 448.33,-97.64 442.65,-106.58 449.46,-108.17"/>
</g>
<!-- Node8 -->
<g id="node8" class="node">
<title>Node8</title>
<g id="a_node8"><a xlink:href="stddef_8h.html" target="_top" xlink:title=" ">
<polygon fill="white" stroke="#666666" points="568,-30 432,-30 432,0 568,0 568,-30"/>
<text text-anchor="start" x="440" y="-18" font-family="Helvetica,sans-Serif" font-size="10.00">MSL_C/MSL_Common/Src</text>
<text text-anchor="middle" x="500" y="-7" font-family="Helvetica,sans-Serif" font-size="10.00">/stddef.h</text>
</a>
</g>
</g>
<!-- Node7&#45;&gt;Node8 -->
<g id="edge7" class="edge">
<title>Node7&#45;&gt;Node8</title>
<path fill="none" stroke="#63b8ff" d="M462.65,-65.8C468.49,-58.01 475.88,-48.16 482.54,-39.28"/>
<polygon fill="#63b8ff" stroke="#63b8ff" points="485.27,-41.47 488.47,-31.37 479.67,-37.27 485.27,-41.47"/>
</g>
<!-- Node12 -->
<g id="node12" class="node">
<title>Node12</title>
<g id="a_node12"><a xlink:href="types_8h.html" target="_top" xlink:title=" ">
<polygon fill="white" stroke="#666666" points="635.5,-156.5 554.5,-156.5 554.5,-137.5 635.5,-137.5 635.5,-156.5"/>
<text text-anchor="middle" x="595" y="-144.5" font-family="Helvetica,sans-Serif" font-size="10.00">dolphin/types.h</text>
</a>
</g>
</g>
<!-- Node11&#45;&gt;Node12 -->
<g id="edge11" class="edge">
<title>Node11&#45;&gt;Node12</title>
<path fill="none" stroke="#63b8ff" d="M603.29,-263.66C604.53,-254.7 606.3,-240.42 607,-228 607.75,-214.69 608.57,-211.24 607,-198 605.8,-187.88 603.29,-176.85 600.87,-167.73"/>
<polygon fill="#63b8ff" stroke="#63b8ff" points="604.26,-166.86 598.17,-158.19 597.53,-168.77 604.26,-166.86"/>
</g>
<!-- Node12&#45;&gt;Node8 -->
<g id="edge12" class="edge">
<title>Node12&#45;&gt;Node8</title>
<path fill="none" stroke="#63b8ff" d="M588.47,-137.06C573.93,-117.17 538.5,-68.68 517.15,-39.47"/>
<polygon fill="#63b8ff" stroke="#63b8ff" points="520.12,-37.59 511.39,-31.59 514.46,-41.73 520.12,-37.59"/>
</g>
</g>
</svg>
