<?xml version="1.0" encoding="UTF-8" standalone="no"?>
<!DOCTYPE svg PUBLIC "-//W3C//DTD SVG 1.1//EN"
 "http://www.w3.org/Graphics/SVG/1.1/DTD/svg11.dtd">
<!-- Generated by graphviz version 7.0.5 (20221223.1930)
 -->
<!-- Title: libs/amcstubs/AmcExi2Stubs.c Pages: 1 -->
<svg width="160pt" height="203pt"
 viewBox="0.00 0.00 160.00 203.00" xmlns="http://www.w3.org/2000/svg" xmlns:xlink="http://www.w3.org/1999/xlink">
<g id="graph0" class="graph" transform="scale(1 1) rotate(0) translate(4 199)">
<title>libs/amcstubs/AmcExi2Stubs.c</title>
<!-- Node1 -->
<g id="node1" class="node">
<title>Node1</title>
<g id="a_node1"><a xlink:title=" ">
<polygon fill="#999999" stroke="#666666" points="152,-195 0,-195 0,-176 152,-176 152,-195"/>
<text text-anchor="middle" x="76" y="-183" font-family="Helvetica,sans-Serif" font-size="10.00">libs/amcstubs/AmcExi2Stubs.c</text>
</a>
</g>
</g>
<!-- Node2 -->
<g id="node2" class="node">
<title>Node2</title>
<g id="a_node2"><a xlink:href="AmcExi2Stubs_8h.html" target="_top" xlink:title=" ">
<polygon fill="white" stroke="#666666" points="143,-140 9,-140 9,-121 143,-121 143,-140"/>
<text text-anchor="middle" x="76" y="-128" font-family="Helvetica,sans-Serif" font-size="10.00">amcstubs/AmcExi2Stubs.h</text>
</a>
</g>
</g>
<!-- Node1&#45;&gt;Node2 -->
<g id="edge1" class="edge">
<title>Node1&#45;&gt;Node2</title>
<path fill="none" stroke="#63b8ff" d="M76,-175.75C76,-169.27 76,-160.16 76,-151.9"/>
<polygon fill="#63b8ff" stroke="#63b8ff" points="79.5,-151.96 76,-141.96 72.5,-151.96 79.5,-151.96"/>
</g>
<!-- Node3 -->
<g id="node3" class="node">
<title>Node3</title>
<g id="a_node3"><a xlink:href="types_8h.html" target="_top" xlink:title=" ">
<polygon fill="white" stroke="#666666" points="116.5,-85 35.5,-85 35.5,-66 116.5,-66 116.5,-85"/>
<text text-anchor="middle" x="76" y="-73" font-family="Helvetica,sans-Serif" font-size="10.00">dolphin/types.h</text>
</a>
</g>
</g>
<!-- Node2&#45;&gt;Node3 -->
<g id="edge2" class="edge">
<title>Node2&#45;&gt;Node3</title>
<path fill="none" stroke="#63b8ff" d="M76,-120.75C76,-114.27 76,-105.16 76,-96.9"/>
<polygon fill="#63b8ff" stroke="#63b8ff" points="79.5,-96.96 76,-86.96 72.5,-96.96 79.5,-96.96"/>
</g>
<!-- Node4 -->
<g id="node4" class="node">
<title>Node4</title>
<g id="a_node4"><a xlink:href="stddef_8h.html" target="_top" xlink:title=" ">
<polygon fill="white" stroke="#666666" points="144,-30 8,-30 8,0 144,0 144,-30"/>
<text text-anchor="start" x="16" y="-18" font-family="Helvetica,sans-Serif" font-size="10.00">MSL_C/MSL_Common/Src</text>
<text text-anchor="middle" x="76" y="-7" font-family="Helvetica,sans-Serif" font-size="10.00">/stddef.h</text>
</a>
</g>
</g>
<!-- Node3&#45;&gt;Node4 -->
<g id="edge3" class="edge">
<title>Node3&#45;&gt;Node4</title>
<path fill="none" stroke="#63b8ff" d="M76,-65.87C76,-59.4 76,-50.2 76,-41.45"/>
<polygon fill="#63b8ff" stroke="#63b8ff" points="79.5,-41.63 76,-31.63 72.5,-41.63 79.5,-41.63"/>
</g>
</g>
</svg>
