<?xml version="1.0" encoding="UTF-8" standalone="no"?>
<!DOCTYPE svg PUBLIC "-//W3C//DTD SVG 1.1//EN"
 "http://www.w3.org/Graphics/SVG/1.1/DTD/svg11.dtd">
<!-- Generated by graphviz version 7.0.5 (20221223.1930)
 -->
<!-- Title: include/MSL_C/MSL_Common/Src/ansi_files.h Pages: 1 -->
<svg width="3438pt" height="236pt"
 viewBox="0.00 0.00 3438.00 236.00" xmlns="http://www.w3.org/2000/svg" xmlns:xlink="http://www.w3.org/1999/xlink">
<g id="graph0" class="graph" transform="scale(1 1) rotate(0) translate(4 232)">
<title>include/MSL_C/MSL_Common/Src/ansi_files.h</title>
<!-- Node1 -->
<g id="node1" class="node">
<title>Node1</title>
<g id="a_node1"><a xlink:title=" ">
<polygon fill="#999999" stroke="#666666" points="1868,-228 1716,-228 1716,-198 1868,-198 1868,-228"/>
<text text-anchor="start" x="1724" y="-216" font-family="Helvetica,sans-Serif" font-size="10.00">include/MSL_C/MSL_Common</text>
<text text-anchor="middle" x="1792" y="-205" font-family="Helvetica,sans-Serif" font-size="10.00">/Src/ansi_files.h</text>
</a>
</g>
</g>
<!-- Node2 -->
<g id="node2" class="node">
<title>Node2</title>
<g id="a_node2"><a xlink:href="FILE__POS_8h.html" target="_top" xlink:title=" ">
<polygon fill="white" stroke="#666666" points="1168,-162 1016,-162 1016,-132 1168,-132 1168,-162"/>
<text text-anchor="start" x="1024" y="-150" font-family="Helvetica,sans-Serif" font-size="10.00">include/MSL_C/MSL_Common</text>
<text text-anchor="middle" x="1092" y="-139" font-family="Helvetica,sans-Serif" font-size="10.00">/Src/FILE_POS.h</text>
</a>
</g>
</g>
<!-- Node1&#45;&gt;Node2 -->
<g id="edge1" class="edge">
<title>Node1&#45;&gt;Node2</title>
<path fill="none" stroke="#63b8ff" d="M1704.33,-207.14C1584.82,-200.01 1364.21,-184.99 1177,-162 1174.18,-161.65 1171.31,-161.28 1168.41,-160.89"/>
<polygon fill="#63b8ff" stroke="#63b8ff" points="1703.87,-210.62 1714.06,-207.72 1704.29,-203.64 1703.87,-210.62"/>
</g>
<!-- Node5 -->
<g id="node5" class="node">
<title>Node5</title>
<g id="a_node5"><a xlink:href="alloc_8h.html" target="_top" xlink:title=" ">
<polygon fill="white" stroke="#666666" points="937,-162 785,-162 785,-132 937,-132 937,-162"/>
<text text-anchor="start" x="793" y="-150" font-family="Helvetica,sans-Serif" font-size="10.00">include/MSL_C/MSL_Common</text>
<text text-anchor="middle" x="861" y="-139" font-family="Helvetica,sans-Serif" font-size="10.00">/Src/alloc.h</text>
</a>
</g>
</g>
<!-- Node1&#45;&gt;Node5 -->
<g id="edge4" class="edge">
<title>Node1&#45;&gt;Node5</title>
<path fill="none" stroke="#63b8ff" d="M1704.16,-207.32C1558.96,-199.39 1259.82,-182.17 1007,-162 984.41,-160.2 959.88,-157.96 937.49,-155.8"/>
<polygon fill="#63b8ff" stroke="#63b8ff" points="1703.92,-210.82 1714.1,-207.87 1704.31,-203.83 1703.92,-210.82"/>
</g>
<!-- Node7 -->
<g id="node7" class="node">
<title>Node7</title>
<g id="a_node7"><a xlink:href="buffer__io_8h.html" target="_top" xlink:title=" ">
<polygon fill="white" stroke="#666666" points="1338,-162 1186,-162 1186,-132 1338,-132 1338,-162"/>
<text text-anchor="start" x="1194" y="-150" font-family="Helvetica,sans-Serif" font-size="10.00">include/MSL_C/MSL_Common</text>
<text text-anchor="middle" x="1262" y="-139" font-family="Helvetica,sans-Serif" font-size="10.00">/Src/buffer_io.h</text>
</a>
</g>
</g>
<!-- Node1&#45;&gt;Node7 -->
<g id="edge6" class="edge">
<title>Node1&#45;&gt;Node7</title>
<path fill="none" stroke="#63b8ff" d="M1704.58,-201.44C1602.45,-189.11 1435.15,-168.91 1338.14,-157.19"/>
<polygon fill="#63b8ff" stroke="#63b8ff" points="1703.93,-204.89 1714.28,-202.61 1704.77,-197.94 1703.93,-204.89"/>
</g>
<!-- Node10 -->
<g id="node10" class="node">
<title>Node10</title>
<g id="a_node10"><a xlink:href="char__io_8h.html" target="_top" xlink:title=" ">
<polygon fill="white" stroke="#666666" points="1574,-162 1422,-162 1422,-132 1574,-132 1574,-162"/>
<text text-anchor="start" x="1430" y="-150" font-family="Helvetica,sans-Serif" font-size="10.00">include/MSL_C/MSL_Common</text>
<text text-anchor="middle" x="1498" y="-139" font-family="Helvetica,sans-Serif" font-size="10.00">/Src/char_io.h</text>
</a>
</g>
</g>
<!-- Node1&#45;&gt;Node10 -->
<g id="edge11" class="edge">
<title>Node1&#45;&gt;Node10</title>
<path fill="none" stroke="#63b8ff" d="M1714.66,-195.16C1667.93,-184.99 1608.97,-172.16 1564.36,-162.45"/>
<polygon fill="#63b8ff" stroke="#63b8ff" points="1713.66,-198.53 1724.18,-197.24 1715.15,-191.69 1713.66,-198.53"/>
</g>
<!-- Node49 -->
<g id="node37" class="node">
<title>Node49</title>
<g id="a_node37"><a xlink:href="direct__io_8h.html" target="_top" xlink:title=" ">
<polygon fill="white" stroke="#666666" points="2336,-162 2184,-162 2184,-132 2336,-132 2336,-162"/>
<text text-anchor="start" x="2192" y="-150" font-family="Helvetica,sans-Serif" font-size="10.00">include/MSL_C/MSL_Common</text>
<text text-anchor="middle" x="2260" y="-139" font-family="Helvetica,sans-Serif" font-size="10.00">/Src/direct_io.h</text>
</a>
</g>
</g>
<!-- Node1&#45;&gt;Node49 -->
<g id="edge39" class="edge">
<title>Node1&#45;&gt;Node49</title>
<path fill="none" stroke="#63b8ff" d="M1879.58,-201.41C1957.29,-191.82 2073.83,-176.93 2175,-162 2177.81,-161.59 2180.67,-161.15 2183.56,-160.71"/>
<polygon fill="#63b8ff" stroke="#63b8ff" points="1879.4,-197.91 1869.91,-202.6 1880.26,-204.85 1879.4,-197.91"/>
</g>
<!-- Node51 -->
<g id="node39" class="node">
<title>Node51</title>
<g id="a_node39"><a xlink:href="file__io_8h.html" target="_top" xlink:title=" ">
<polygon fill="white" stroke="#666666" points="1744,-162 1592,-162 1592,-132 1744,-132 1744,-162"/>
<text text-anchor="start" x="1600" y="-150" font-family="Helvetica,sans-Serif" font-size="10.00">include/MSL_C/MSL_Common</text>
<text text-anchor="middle" x="1668" y="-139" font-family="Helvetica,sans-Serif" font-size="10.00">/Src/file_io.h</text>
</a>
</g>
</g>
<!-- Node1&#45;&gt;Node51 -->
<g id="edge41" class="edge">
<title>Node1&#45;&gt;Node51</title>
<path fill="none" stroke="#63b8ff" d="M1754.13,-192.45C1735.3,-182.73 1712.95,-171.2 1695.74,-162.31"/>
<polygon fill="#63b8ff" stroke="#63b8ff" points="1752.34,-195.47 1762.83,-196.94 1755.55,-189.25 1752.34,-195.47"/>
</g>
<!-- Node52 -->
<g id="node40" class="node">
<title>Node52</title>
<g id="a_node40"><a xlink:href="ansi__files_8c.html" target="_top" xlink:title=" ">
<polygon fill="white" stroke="#666666" points="1860,-96 1724,-96 1724,-66 1860,-66 1860,-96"/>
<text text-anchor="start" x="1732" y="-84" font-family="Helvetica,sans-Serif" font-size="10.00">libs/MSL_C/MSL_Common</text>
<text text-anchor="middle" x="1792" y="-73" font-family="Helvetica,sans-Serif" font-size="10.00">/Src/ansi_files.c</text>
</a>
</g>
</g>
<!-- Node1&#45;&gt;Node52 -->
<g id="edge58" class="edge">
<title>Node1&#45;&gt;Node52</title>
<path fill="none" stroke="#63b8ff" d="M1792,-186.38C1792,-159.49 1792,-118.18 1792,-96.47"/>
<polygon fill="#63b8ff" stroke="#63b8ff" points="1788.5,-186.08 1792,-196.08 1795.5,-186.08 1788.5,-186.08"/>
</g>
<!-- Node54 -->
<g id="node42" class="node">
<title>Node54</title>
<g id="a_node42"><a xlink:href="printf_8h.html" target="_top" xlink:title=" ">
<polygon fill="white" stroke="#666666" points="1984,-162 1832,-162 1832,-132 1984,-132 1984,-162"/>
<text text-anchor="start" x="1840" y="-150" font-family="Helvetica,sans-Serif" font-size="10.00">include/MSL_C/MSL_Common</text>
<text text-anchor="middle" x="1908" y="-139" font-family="Helvetica,sans-Serif" font-size="10.00">/Src/printf.h</text>
</a>
</g>
</g>
<!-- Node1&#45;&gt;Node54 -->
<g id="edge46" class="edge">
<title>Node1&#45;&gt;Node54</title>
<path fill="none" stroke="#63b8ff" d="M1827.92,-192.18C1845.43,-182.52 1866.1,-171.12 1882.05,-162.31"/>
<polygon fill="#63b8ff" stroke="#63b8ff" points="1826.42,-189.01 1819.36,-196.91 1829.8,-195.14 1826.42,-189.01"/>
</g>
<!-- Node57 -->
<g id="node45" class="node">
<title>Node57</title>
<g id="a_node45"><a xlink:href="wchar__io_8h.html" target="_top" xlink:title=" ">
<polygon fill="white" stroke="#666666" points="2166,-162 2014,-162 2014,-132 2166,-132 2166,-162"/>
<text text-anchor="start" x="2022" y="-150" font-family="Helvetica,sans-Serif" font-size="10.00">include/MSL_C/MSL_Common</text>
<text text-anchor="middle" x="2090" y="-139" font-family="Helvetica,sans-Serif" font-size="10.00">/Src/wchar_io.h</text>
</a>
</g>
</g>
<!-- Node1&#45;&gt;Node57 -->
<g id="edge50" class="edge">
<title>Node1&#45;&gt;Node57</title>
<path fill="none" stroke="#63b8ff" d="M1870.39,-195.16C1917.76,-184.99 1977.52,-172.16 2022.74,-162.45"/>
<polygon fill="#63b8ff" stroke="#63b8ff" points="1869.77,-191.72 1860.73,-197.24 1871.24,-198.56 1869.77,-191.72"/>
</g>
<!-- Node64 -->
<g id="node48" class="node">
<title>Node64</title>
<g id="a_node48"><a xlink:href="uart__console__io__gcn_8h.html" target="_top" xlink:title=" ">
<polygon fill="white" stroke="#666666" points="2488,-162 2354,-162 2354,-132 2488,-132 2488,-162"/>
<text text-anchor="start" x="2362" y="-150" font-family="Helvetica,sans-Serif" font-size="10.00">include/MSL_C/PPC_EABI</text>
<text text-anchor="middle" x="2421" y="-139" font-family="Helvetica,sans-Serif" font-size="10.00">/Src/uart_console_io_gcn.h</text>
</a>
</g>
</g>
<!-- Node1&#45;&gt;Node64 -->
<g id="edge56" class="edge">
<title>Node1&#45;&gt;Node64</title>
<path fill="none" stroke="#63b8ff" d="M1879.57,-206.58C1988.84,-199.24 2181.27,-184.43 2345,-162 2347.79,-161.62 2350.64,-161.2 2353.51,-160.77"/>
<polygon fill="#63b8ff" stroke="#63b8ff" points="1879.54,-203.07 1869.79,-207.23 1880,-210.06 1879.54,-203.07"/>
</g>
<!-- Node66 -->
<g id="node50" class="node">
<title>Node66</title>
<g id="a_node50"><a xlink:href="misc__io_8c.html" target="_top" xlink:title=" ">
<polygon fill="white" stroke="#666666" points="2642,-162 2506,-162 2506,-132 2642,-132 2642,-162"/>
<text text-anchor="start" x="2514" y="-150" font-family="Helvetica,sans-Serif" font-size="10.00">libs/MSL_C/MSL_Common</text>
<text text-anchor="middle" x="2574" y="-139" font-family="Helvetica,sans-Serif" font-size="10.00">/Src/misc_io.c</text>
</a>
</g>
</g>
<!-- Node1&#45;&gt;Node66 -->
<g id="edge59" class="edge">
<title>Node1&#45;&gt;Node66</title>
<path fill="none" stroke="#63b8ff" d="M1879.78,-208.85C2013.43,-203.37 2275.79,-189.87 2497,-162 2499.83,-161.64 2502.72,-161.25 2505.63,-160.83"/>
<polygon fill="#63b8ff" stroke="#63b8ff" points="1879.79,-205.35 1869.94,-209.25 1880.07,-212.34 1879.79,-205.35"/>
</g>
<!-- Node3 -->
<g id="node3" class="node">
<title>Node3</title>
<g id="a_node3"><a xlink:href="FILE__POS_8c.html" target="_top" xlink:title=" ">
<polygon fill="white" stroke="#666666" points="956,-96 820,-96 820,-66 956,-66 956,-96"/>
<text text-anchor="start" x="828" y="-84" font-family="Helvetica,sans-Serif" font-size="10.00">libs/MSL_C/MSL_Common</text>
<text text-anchor="middle" x="888" y="-73" font-family="Helvetica,sans-Serif" font-size="10.00">/Src/FILE_POS.c</text>
</a>
</g>
</g>
<!-- Node2&#45;&gt;Node3 -->
<g id="edge2" class="edge">
<title>Node2&#45;&gt;Node3</title>
<path fill="none" stroke="#63b8ff" d="M1035.01,-128.12C1003.08,-118.1 963.79,-105.78 933.87,-96.39"/>
<polygon fill="#63b8ff" stroke="#63b8ff" points="1033.93,-131.45 1044.52,-131.1 1036.03,-124.77 1033.93,-131.45"/>
</g>
<!-- Node4 -->
<g id="node4" class="node">
<title>Node4</title>
<g id="a_node4"><a xlink:href="char__io_8c.html" target="_top" xlink:title=" ">
<polygon fill="white" stroke="#666666" points="1264,-96 1128,-96 1128,-66 1264,-66 1264,-96"/>
<text text-anchor="start" x="1136" y="-84" font-family="Helvetica,sans-Serif" font-size="10.00">libs/MSL_C/MSL_Common</text>
<text text-anchor="middle" x="1196" y="-73" font-family="Helvetica,sans-Serif" font-size="10.00">/Src/char_io.c</text>
</a>
</g>
</g>
<!-- Node2&#45;&gt;Node4 -->
<g id="edge3" class="edge">
<title>Node2&#45;&gt;Node4</title>
<path fill="none" stroke="#63b8ff" d="M1125.09,-125.64C1140.6,-116.09 1158.7,-104.95 1172.74,-96.31"/>
<polygon fill="#63b8ff" stroke="#63b8ff" points="1123.31,-122.62 1116.63,-130.84 1126.98,-128.58 1123.31,-122.62"/>
</g>
<!-- Node6 -->
<g id="node6" class="node">
<title>Node6</title>
<g id="a_node6"><a xlink:href="alloc_8c.html" target="_top" xlink:title=" ">
<polygon fill="white" stroke="#666666" points="802,-96 666,-96 666,-66 802,-66 802,-96"/>
<text text-anchor="start" x="674" y="-84" font-family="Helvetica,sans-Serif" font-size="10.00">libs/MSL_C/MSL_Common</text>
<text text-anchor="middle" x="734" y="-73" font-family="Helvetica,sans-Serif" font-size="10.00">/Src/alloc.c</text>
</a>
</g>
</g>
<!-- Node5&#45;&gt;Node6 -->
<g id="edge5" class="edge">
<title>Node5&#45;&gt;Node6</title>
<path fill="none" stroke="#63b8ff" d="M822.48,-126.59C803.14,-116.84 780.12,-105.24 762.41,-96.31"/>
<polygon fill="#63b8ff" stroke="#63b8ff" points="820.64,-129.58 831.15,-130.96 823.79,-123.33 820.64,-129.58"/>
</g>
<!-- Node7&#45;&gt;Node3 -->
<g id="edge7" class="edge">
<title>Node7&#45;&gt;Node3</title>
<path fill="none" stroke="#63b8ff" d="M1174.48,-131.57C1115.3,-121.74 1035.4,-108.33 965,-96 962.19,-95.51 959.32,-95 956.43,-94.49"/>
<polygon fill="#63b8ff" stroke="#63b8ff" points="1173.72,-135 1184.16,-133.18 1174.87,-128.09 1173.72,-135"/>
</g>
<!-- Node7&#45;&gt;Node4 -->
<g id="edge9" class="edge">
<title>Node7&#45;&gt;Node4</title>
<path fill="none" stroke="#63b8ff" d="M1239.11,-123.81C1229.66,-114.64 1218.97,-104.28 1210.61,-96.16"/>
<polygon fill="#63b8ff" stroke="#63b8ff" points="1236.65,-126.29 1246.27,-130.74 1241.52,-121.27 1236.65,-126.29"/>
</g>
<!-- Node8 -->
<g id="node8" class="node">
<title>Node8</title>
<g id="a_node8"><a xlink:href="buffer__io_8c.html" target="_top" xlink:title=" ">
<polygon fill="white" stroke="#666666" points="1110,-96 974,-96 974,-66 1110,-66 1110,-96"/>
<text text-anchor="start" x="982" y="-84" font-family="Helvetica,sans-Serif" font-size="10.00">libs/MSL_C/MSL_Common</text>
<text text-anchor="middle" x="1042" y="-73" font-family="Helvetica,sans-Serif" font-size="10.00">/Src/buffer_io.c</text>
</a>
</g>
</g>
<!-- Node7&#45;&gt;Node8 -->
<g id="edge8" class="edge">
<title>Node7&#45;&gt;Node8</title>
<path fill="none" stroke="#63b8ff" d="M1201.44,-128.38C1166.84,-118.32 1124.02,-105.86 1091.47,-96.39"/>
<polygon fill="#63b8ff" stroke="#63b8ff" points="1200.32,-131.7 1210.9,-131.13 1202.28,-124.98 1200.32,-131.7"/>
</g>
<!-- Node9 -->
<g id="node9" class="node">
<title>Node9</title>
<g id="a_node9"><a xlink:href="file__io_8c.html" target="_top" xlink:title=" ">
<polygon fill="white" stroke="#666666" points="1418,-96 1282,-96 1282,-66 1418,-66 1418,-96"/>
<text text-anchor="start" x="1290" y="-84" font-family="Helvetica,sans-Serif" font-size="10.00">libs/MSL_C/MSL_Common</text>
<text text-anchor="middle" x="1350" y="-73" font-family="Helvetica,sans-Serif" font-size="10.00">/Src/file_io.c</text>
</a>
</g>
</g>
<!-- Node7&#45;&gt;Node9 -->
<g id="edge10" class="edge">
<title>Node7&#45;&gt;Node9</title>
<path fill="none" stroke="#63b8ff" d="M1290.53,-125.25C1303.5,-115.82 1318.52,-104.9 1330.22,-96.39"/>
<polygon fill="#63b8ff" stroke="#63b8ff" points="1288.78,-122.19 1282.75,-130.91 1292.9,-127.85 1288.78,-122.19"/>
</g>
<!-- Node10&#45;&gt;Node4 -->
<g id="edge38" class="edge">
<title>Node10&#45;&gt;Node4</title>
<path fill="none" stroke="#63b8ff" d="M1418.86,-129.23C1370.81,-119.04 1310.08,-106.18 1264.16,-96.45"/>
<polygon fill="#63b8ff" stroke="#63b8ff" points="1417.86,-132.59 1428.37,-131.24 1419.31,-125.75 1417.86,-132.59"/>
</g>
<!-- Node11 -->
<g id="node11" class="node">
<title>Node11</title>
<g id="a_node11"><a xlink:href="stdio_8h.html" target="_top" xlink:title=" ">
<polygon fill="#fff0f0" stroke="red" points="1705.5,-90.5 1590.5,-90.5 1590.5,-71.5 1705.5,-71.5 1705.5,-90.5"/>
<text text-anchor="middle" x="1648" y="-78.5" font-family="Helvetica,sans-Serif" font-size="10.00">include/MSL_C/stdio.h</text>
</a>
</g>
</g>
<!-- Node10&#45;&gt;Node11 -->
<g id="edge12" class="edge">
<title>Node10&#45;&gt;Node11</title>
<path fill="none" stroke="#63b8ff" d="M1542.01,-127.22C1570.01,-115.27 1605.01,-100.34 1626.94,-90.99"/>
<polygon fill="#63b8ff" stroke="#63b8ff" points="1540.88,-123.9 1533.06,-131.04 1543.63,-130.34 1540.88,-123.9"/>
</g>
<!-- Node12 -->
<g id="node12" class="node">
<title>Node12</title>
<g id="a_node12"><a xlink:href="bitset_8h.html" target="_top" xlink:title=" ">
<polygon fill="#fff0f0" stroke="red" points="118,-24.5 0,-24.5 0,-5.5 118,-5.5 118,-24.5"/>
<text text-anchor="middle" x="59" y="-12.5" font-family="Helvetica,sans-Serif" font-size="10.00">include/MSL_C/bitset.h</text>
</a>
</g>
</g>
<!-- Node11&#45;&gt;Node12 -->
<g id="edge13" class="edge">
<title>Node11&#45;&gt;Node12</title>
<path fill="none" stroke="#63b8ff" d="M1599.82,-68.85C1593.52,-67.71 1587.12,-66.71 1581,-66 938.88,8.41 769.23,-103.47 127,-30 117.06,-28.86 106.42,-26.99 96.57,-24.98"/>
<polygon fill="#63b8ff" stroke="#63b8ff" points="1599.01,-72.25 1609.5,-70.73 1600.35,-65.38 1599.01,-72.25"/>
</g>
<!-- Node18 -->
<g id="node13" class="node">
<title>Node18</title>
<g id="a_node13"><a xlink:href="J2DPrint_8cpp.html" target="_top" xlink:title=" ">
<polygon fill="white" stroke="#666666" points="255.5,-30 136.5,-30 136.5,0 255.5,0 255.5,-30"/>
<text text-anchor="start" x="144.5" y="-18" font-family="Helvetica,sans-Serif" font-size="10.00">libs/JSystem/J2DGraph</text>
<text text-anchor="middle" x="196" y="-7" font-family="Helvetica,sans-Serif" font-size="10.00">/J2DPrint.cpp</text>
</a>
</g>
</g>
<!-- Node11&#45;&gt;Node18 -->
<g id="edge14" class="edge">
<title>Node11&#45;&gt;Node18</title>
<path fill="none" stroke="#63b8ff" d="M1599.82,-68.86C1593.51,-67.72 1587.12,-66.72 1581,-66 999.43,2.16 845.67,-97.3 264,-30 261.37,-29.7 258.68,-29.34 255.98,-28.94"/>
<polygon fill="#63b8ff" stroke="#63b8ff" points="1599.01,-72.27 1609.5,-70.74 1600.35,-65.4 1599.01,-72.27"/>
</g>
<!-- Node19 -->
<g id="node14" class="node">
<title>Node19</title>
<g id="a_node14"><a xlink:href="JASReport_8cpp.html" target="_top" xlink:title=" ">
<polygon fill="white" stroke="#666666" points="384.5,-30 273.5,-30 273.5,0 384.5,0 384.5,-30"/>
<text text-anchor="start" x="281.5" y="-18" font-family="Helvetica,sans-Serif" font-size="10.00">libs/JSystem/JAudio2</text>
<text text-anchor="middle" x="329" y="-7" font-family="Helvetica,sans-Serif" font-size="10.00">/JASReport.cpp</text>
</a>
</g>
</g>
<!-- Node11&#45;&gt;Node19 -->
<g id="edge15" class="edge">
<title>Node11&#45;&gt;Node19</title>
<path fill="none" stroke="#63b8ff" d="M1599.81,-68.88C1593.51,-67.73 1587.12,-66.73 1581,-66 1056.44,-3.74 917.26,-94.72 393,-30 390.29,-29.67 387.53,-29.27 384.74,-28.83"/>
<polygon fill="#63b8ff" stroke="#63b8ff" points="1599.01,-72.29 1609.49,-70.76 1600.35,-65.42 1599.01,-72.29"/>
</g>
<!-- Node20 -->
<g id="node15" class="node">
<title>Node20</title>
<g id="a_node15"><a xlink:href="JKRThread_8cpp.html" target="_top" xlink:title=" ">
<polygon fill="white" stroke="#666666" points="511.5,-30 402.5,-30 402.5,0 511.5,0 511.5,-30"/>
<text text-anchor="start" x="410.5" y="-18" font-family="Helvetica,sans-Serif" font-size="10.00">libs/JSystem/JKernel</text>
<text text-anchor="middle" x="457" y="-7" font-family="Helvetica,sans-Serif" font-size="10.00">/JKRThread.cpp</text>
</a>
</g>
</g>
<!-- Node11&#45;&gt;Node20 -->
<g id="edge16" class="edge">
<title>Node11&#45;&gt;Node20</title>
<path fill="none" stroke="#63b8ff" d="M1599.58,-68.86C1593.36,-67.73 1587.05,-66.73 1581,-66 1113.01,-9.58 988.73,-88.61 521,-30 517.95,-29.62 514.84,-29.16 511.7,-28.65"/>
<polygon fill="#63b8ff" stroke="#63b8ff" points="1598.66,-72.24 1609.14,-70.72 1599.99,-65.37 1598.66,-72.24"/>
</g>
<!-- Node21 -->
<g id="node16" class="node">
<title>Node21</title>
<g id="a_node16"><a xlink:href="JUTAssert_8cpp.html" target="_top" xlink:title=" ">
<polygon fill="white" stroke="#666666" points="636,-30 530,-30 530,0 636,0 636,-30"/>
<text text-anchor="start" x="538" y="-18" font-family="Helvetica,sans-Serif" font-size="10.00">libs/JSystem/JUtility</text>
<text text-anchor="middle" x="583" y="-7" font-family="Helvetica,sans-Serif" font-size="10.00">/JUTAssert.cpp</text>
</a>
</g>
</g>
<!-- Node11&#45;&gt;Node21 -->
<g id="edge17" class="edge">
<title>Node11&#45;&gt;Node21</title>
<path fill="none" stroke="#63b8ff" d="M1599.58,-68.88C1593.35,-67.75 1587.04,-66.74 1581,-66 1167.8,-15.25 1057.78,-84.08 645,-30 642.16,-29.63 639.25,-29.19 636.32,-28.69"/>
<polygon fill="#63b8ff" stroke="#63b8ff" points="1598.65,-72.27 1609.14,-70.75 1599.99,-65.4 1598.65,-72.27"/>
</g>
<!-- Node22 -->
<g id="node17" class="node">
<title>Node22</title>
<g id="a_node17"><a xlink:href="JUTConsole_8cpp.html" target="_top" xlink:title=" ">
<polygon fill="white" stroke="#666666" points="760,-30 654,-30 654,0 760,0 760,-30"/>
<text text-anchor="start" x="662" y="-18" font-family="Helvetica,sans-Serif" font-size="10.00">libs/JSystem/JUtility</text>
<text text-anchor="middle" x="707" y="-7" font-family="Helvetica,sans-Serif" font-size="10.00">/JUTConsole.cpp</text>
</a>
</g>
</g>
<!-- Node11&#45;&gt;Node22 -->
<g id="edge18" class="edge">
<title>Node11&#45;&gt;Node22</title>
<path fill="none" stroke="#63b8ff" d="M1599.35,-68.88C1593.2,-67.75 1586.97,-66.75 1581,-66 1222.58,-20.91 1127.04,-77.97 769,-30 766.16,-29.62 763.25,-29.17 760.33,-28.67"/>
<polygon fill="#63b8ff" stroke="#63b8ff" points="1598.3,-72.24 1608.78,-70.71 1599.63,-65.37 1598.3,-72.24"/>
</g>
<!-- Node23 -->
<g id="node18" class="node">
<title>Node23</title>
<g id="a_node18"><a xlink:href="JUTDbPrint_8cpp.html" target="_top" xlink:title=" ">
<polygon fill="white" stroke="#666666" points="884,-30 778,-30 778,0 884,0 884,-30"/>
<text text-anchor="start" x="786" y="-18" font-family="Helvetica,sans-Serif" font-size="10.00">libs/JSystem/JUtility</text>
<text text-anchor="middle" x="831" y="-7" font-family="Helvetica,sans-Serif" font-size="10.00">/JUTDbPrint.cpp</text>
</a>
</g>
</g>
<!-- Node11&#45;&gt;Node23 -->
<g id="edge19" class="edge">
<title>Node11&#45;&gt;Node23</title>
<path fill="none" stroke="#63b8ff" d="M1599.34,-68.92C1593.19,-67.79 1586.97,-66.77 1581,-66 1277.35,-26.57 1196.32,-71.87 893,-30 890.16,-29.61 887.25,-29.15 884.33,-28.65"/>
<polygon fill="#63b8ff" stroke="#63b8ff" points="1598.29,-72.28 1608.77,-70.77 1599.63,-65.41 1598.29,-72.28"/>
</g>
<!-- Node24 -->
<g id="node19" class="node">
<title>Node24</title>
<g id="a_node19"><a xlink:href="JUTDirectPrint_8cpp.html" target="_top" xlink:title=" ">
<polygon fill="white" stroke="#666666" points="1008,-30 902,-30 902,0 1008,0 1008,-30"/>
<text text-anchor="start" x="910" y="-18" font-family="Helvetica,sans-Serif" font-size="10.00">libs/JSystem/JUtility</text>
<text text-anchor="middle" x="955" y="-7" font-family="Helvetica,sans-Serif" font-size="10.00">/JUTDirectPrint.cpp</text>
</a>
</g>
</g>
<!-- Node11&#45;&gt;Node24 -->
<g id="edge20" class="edge">
<title>Node11&#45;&gt;Node24</title>
<path fill="none" stroke="#63b8ff" d="M1598.65,-68.86C1592.72,-67.77 1586.74,-66.78 1581,-66 1332.1,-32.23 1265.62,-65.77 1017,-30 1014.16,-29.59 1011.26,-29.12 1008.33,-28.61"/>
<polygon fill="#63b8ff" stroke="#63b8ff" points="1597.93,-72.29 1608.41,-70.77 1599.27,-65.42 1597.93,-72.29"/>
</g>
<!-- Node25 -->
<g id="node20" class="node">
<title>Node25</title>
<g id="a_node20"><a xlink:href="JUTException_8cpp.html" target="_top" xlink:title=" ">
<polygon fill="white" stroke="#666666" points="1132,-30 1026,-30 1026,0 1132,0 1132,-30"/>
<text text-anchor="start" x="1034" y="-18" font-family="Helvetica,sans-Serif" font-size="10.00">libs/JSystem/JUtility</text>
<text text-anchor="middle" x="1079" y="-7" font-family="Helvetica,sans-Serif" font-size="10.00">/JUTException.cpp</text>
</a>
</g>
</g>
<!-- Node11&#45;&gt;Node25 -->
<g id="edge21" class="edge">
<title>Node11&#45;&gt;Node25</title>
<path fill="none" stroke="#63b8ff" d="M1598.19,-68.88C1592.41,-67.8 1586.59,-66.81 1581,-66 1386.82,-37.88 1334.95,-59.68 1141,-30 1138.16,-29.57 1135.26,-29.08 1132.34,-28.55"/>
<polygon fill="#63b8ff" stroke="#63b8ff" points="1597.2,-72.25 1607.69,-70.74 1598.55,-65.38 1597.2,-72.25"/>
</g>
<!-- Node16 -->
<g id="node21" class="node">
<title>Node16</title>
<g id="a_node21"><a xlink:href="Z2AudioMgr_8cpp.html" target="_top" xlink:title=" ">
<polygon fill="white" stroke="#666666" points="1308,-24.5 1150,-24.5 1150,-5.5 1308,-5.5 1308,-24.5"/>
<text text-anchor="middle" x="1229" y="-12.5" font-family="Helvetica,sans-Serif" font-size="10.00">libs/Z2AudioLib/Z2AudioMgr.cpp</text>
</a>
</g>
</g>
<!-- Node11&#45;&gt;Node16 -->
<g id="edge22" class="edge">
<title>Node11&#45;&gt;Node16</title>
<path fill="none" stroke="#63b8ff" d="M1596.2,-68.8C1591.08,-67.81 1585.94,-66.85 1581,-66 1464.74,-45.92 1434.72,-47.17 1318,-30 1307.32,-28.43 1295.93,-26.69 1285,-24.98"/>
<polygon fill="#63b8ff" stroke="#63b8ff" points="1595.37,-72.2 1605.86,-70.73 1596.74,-65.34 1595.37,-72.2"/>
</g>
<!-- Node26 -->
<g id="node22" class="node">
<title>Node26</title>
<g id="a_node22"><a xlink:href="DynamicLink_8cpp.html" target="_top" xlink:title=" ">
<polygon fill="white" stroke="#666666" points="1433.5,-24.5 1326.5,-24.5 1326.5,-5.5 1433.5,-5.5 1433.5,-24.5"/>
<text text-anchor="middle" x="1380" y="-12.5" font-family="Helvetica,sans-Serif" font-size="10.00">src/DynamicLink.cpp</text>
</a>
</g>
</g>
<!-- Node11&#45;&gt;Node26 -->
<g id="edge23" class="edge">
<title>Node11&#45;&gt;Node26</title>
<path fill="none" stroke="#63b8ff" d="M1599.43,-68.4C1547.06,-55.89 1464.81,-36.25 1417.29,-24.91"/>
<polygon fill="#63b8ff" stroke="#63b8ff" points="1598.44,-71.76 1608.98,-70.68 1600.07,-64.96 1598.44,-71.76"/>
</g>
<!-- Node27 -->
<g id="node23" class="node">
<title>Node27</title>
<g id="a_node23"><a xlink:href="d__com__inf__game_8cpp.html" target="_top" xlink:title=" ">
<polygon fill="white" stroke="#666666" points="1560,-30 1452,-30 1452,0 1560,0 1560,-30"/>
<text text-anchor="start" x="1460" y="-18" font-family="Helvetica,sans-Serif" font-size="10.00">src/d/com/d_com_inf</text>
<text text-anchor="middle" x="1506" y="-7" font-family="Helvetica,sans-Serif" font-size="10.00">_game.cpp</text>
</a>
</g>
</g>
<!-- Node11&#45;&gt;Node27 -->
<g id="edge24" class="edge">
<title>Node11&#45;&gt;Node27</title>
<path fill="none" stroke="#63b8ff" d="M1617.87,-66.42C1594.45,-55.87 1562.03,-41.26 1538.12,-30.48"/>
<polygon fill="#63b8ff" stroke="#63b8ff" points="1616.32,-69.56 1626.88,-70.48 1619.2,-63.18 1616.32,-69.56"/>
</g>
<!-- Node28 -->
<g id="node24" class="node">
<title>Node28</title>
<g id="a_node24"><a xlink:href="d__com__static_8cpp.html" target="_top" xlink:title=" ">
<polygon fill="white" stroke="#666666" points="1718,-24.5 1578,-24.5 1578,-5.5 1718,-5.5 1718,-24.5"/>
<text text-anchor="middle" x="1648" y="-12.5" font-family="Helvetica,sans-Serif" font-size="10.00">src/d/com/d_com_static.cpp</text>
</a>
</g>
</g>
<!-- Node11&#45;&gt;Node28 -->
<g id="edge25" class="edge">
<title>Node11&#45;&gt;Node28</title>
<path fill="none" stroke="#63b8ff" d="M1648,-59.68C1648,-47.94 1648,-33.77 1648,-24.82"/>
<polygon fill="#63b8ff" stroke="#63b8ff" points="1644.5,-59.59 1648,-69.59 1651.5,-59.59 1644.5,-59.59"/>
</g>
<!-- Node29 -->
<g id="node25" class="node">
<title>Node29</title>
<g id="a_node25"><a xlink:href="d__name_8cpp.html" target="_top" xlink:title=" ">
<polygon fill="white" stroke="#666666" points="1830,-24.5 1736,-24.5 1736,-5.5 1830,-5.5 1830,-24.5"/>
<text text-anchor="middle" x="1783" y="-12.5" font-family="Helvetica,sans-Serif" font-size="10.00">src/d/d_name.cpp</text>
</a>
</g>
</g>
<!-- Node11&#45;&gt;Node29 -->
<g id="edge26" class="edge">
<title>Node11&#45;&gt;Node29</title>
<path fill="none" stroke="#63b8ff" d="M1676.96,-66.27C1703.43,-53.72 1741.79,-35.54 1764.39,-24.82"/>
<polygon fill="#63b8ff" stroke="#63b8ff" points="1675.68,-63.01 1668.14,-70.45 1678.67,-69.33 1675.68,-63.01"/>
</g>
<!-- Node30 -->
<g id="node26" class="node">
<title>Node30</title>
<g id="a_node26"><a xlink:href="d__resorce_8cpp.html" target="_top" xlink:title=" ">
<polygon fill="white" stroke="#666666" points="1950,-24.5 1848,-24.5 1848,-5.5 1950,-5.5 1950,-24.5"/>
<text text-anchor="middle" x="1899" y="-12.5" font-family="Helvetica,sans-Serif" font-size="10.00">src/d/d_resorce.cpp</text>
</a>
</g>
</g>
<!-- Node11&#45;&gt;Node30 -->
<g id="edge27" class="edge">
<title>Node11&#45;&gt;Node30</title>
<path fill="none" stroke="#63b8ff" d="M1694.11,-68.24C1743.19,-55.73 1819.75,-36.21 1864.07,-24.91"/>
<polygon fill="#63b8ff" stroke="#63b8ff" points="1693.46,-64.8 1684.63,-70.66 1695.19,-71.58 1693.46,-64.8"/>
</g>
<!-- Node31 -->
<g id="node27" class="node">
<title>Node31</title>
<g id="a_node27"><a xlink:href="d__stage_8cpp.html" target="_top" xlink:title=" ">
<polygon fill="white" stroke="#666666" points="2062,-24.5 1968,-24.5 1968,-5.5 2062,-5.5 2062,-24.5"/>
<text text-anchor="middle" x="2015" y="-12.5" font-family="Helvetica,sans-Serif" font-size="10.00">src/d/d_stage.cpp</text>
</a>
</g>
</g>
<!-- Node11&#45;&gt;Node31 -->
<g id="edge28" class="edge">
<title>Node11&#45;&gt;Node31</title>
<path fill="none" stroke="#63b8ff" d="M1700.02,-68.81C1705.07,-67.82 1710.13,-66.87 1715,-66 1822.92,-46.78 1851.47,-51.32 1959,-30 1966.27,-28.56 1974.02,-26.78 1981.36,-24.98"/>
<polygon fill="#63b8ff" stroke="#63b8ff" points="1699.62,-65.32 1690.51,-70.73 1701,-72.19 1699.62,-65.32"/>
</g>
<!-- Node32 -->
<g id="node28" class="node">
<title>Node32</title>
<g id="a_node28"><a xlink:href="d__event__manager_8cpp.html" target="_top" xlink:title=" ">
<polygon fill="white" stroke="#666666" points="2183.5,-30 2080.5,-30 2080.5,0 2183.5,0 2183.5,-30"/>
<text text-anchor="start" x="2088.5" y="-18" font-family="Helvetica,sans-Serif" font-size="10.00">src/d/event/d_event</text>
<text text-anchor="middle" x="2132" y="-7" font-family="Helvetica,sans-Serif" font-size="10.00">_manager.cpp</text>
</a>
</g>
</g>
<!-- Node11&#45;&gt;Node32 -->
<g id="edge29" class="edge">
<title>Node11&#45;&gt;Node32</title>
<path fill="none" stroke="#63b8ff" d="M1698.7,-68.82C1704.19,-67.78 1709.7,-66.82 1715,-66 1872.16,-41.7 1914.08,-55.84 2071,-30 2074,-29.51 2077.08,-28.95 2080.17,-28.36"/>
<polygon fill="#63b8ff" stroke="#63b8ff" points="1698.17,-65.36 1689.04,-70.72 1699.53,-72.22 1698.17,-65.36"/>
</g>
<!-- Node33 -->
<g id="node29" class="node">
<title>Node33</title>
<g id="a_node29"><a xlink:href="d__file__sel__info_8cpp.html" target="_top" xlink:title=" ">
<polygon fill="white" stroke="#666666" points="2298.5,-30 2201.5,-30 2201.5,0 2298.5,0 2298.5,-30"/>
<text text-anchor="start" x="2209.5" y="-18" font-family="Helvetica,sans-Serif" font-size="10.00">src/d/file/d_file_sel</text>
<text text-anchor="middle" x="2250" y="-7" font-family="Helvetica,sans-Serif" font-size="10.00">_info.cpp</text>
</a>
</g>
</g>
<!-- Node11&#45;&gt;Node33 -->
<g id="edge30" class="edge">
<title>Node11&#45;&gt;Node33</title>
<path fill="none" stroke="#63b8ff" d="M1697.58,-68.88C1703.43,-67.8 1709.34,-66.8 1715,-66 1925.94,-36.15 1982.61,-63.52 2193,-30 2195.72,-29.57 2198.49,-29.07 2201.29,-28.53"/>
<polygon fill="#63b8ff" stroke="#63b8ff" points="1697.09,-65.41 1687.95,-70.77 1698.44,-72.28 1697.09,-65.41"/>
</g>
<!-- Node34 -->
<g id="node30" class="node">
<title>Node34</title>
<g id="a_node30"><a xlink:href="d__menu__fmap_8cpp.html" target="_top" xlink:title=" ">
<polygon fill="white" stroke="#666666" points="2465,-24.5 2317,-24.5 2317,-5.5 2465,-5.5 2465,-24.5"/>
<text text-anchor="middle" x="2391" y="-12.5" font-family="Helvetica,sans-Serif" font-size="10.00">src/d/menu/d_menu_fmap.cpp</text>
</a>
</g>
</g>
<!-- Node11&#45;&gt;Node34 -->
<g id="edge31" class="edge">
<title>Node11&#45;&gt;Node34</title>
<path fill="none" stroke="#63b8ff" d="M1697.35,-68.84C1703.27,-67.75 1709.26,-66.77 1715,-66 1976.7,-30.9 2045.67,-60 2308,-30 2319.47,-28.69 2331.76,-26.85 2343.28,-24.94"/>
<polygon fill="#63b8ff" stroke="#63b8ff" points="1696.73,-65.4 1687.59,-70.75 1698.07,-72.27 1696.73,-65.4"/>
</g>
<!-- Node35 -->
<g id="node31" class="node">
<title>Node35</title>
<g id="a_node31"><a xlink:href="d__menu__insect_8cpp.html" target="_top" xlink:title=" ">
<polygon fill="white" stroke="#666666" points="2635,-24.5 2483,-24.5 2483,-5.5 2635,-5.5 2635,-24.5"/>
<text text-anchor="middle" x="2559" y="-12.5" font-family="Helvetica,sans-Serif" font-size="10.00">src/d/menu/d_menu_insect.cpp</text>
</a>
</g>
</g>
<!-- Node11&#45;&gt;Node35 -->
<g id="edge32" class="edge">
<title>Node11&#45;&gt;Node35</title>
<path fill="none" stroke="#63b8ff" d="M1696.65,-68.89C1702.8,-67.77 1709.03,-66.76 1715,-66 2050.01,-23.33 2138.16,-65.5 2474,-30 2485.9,-28.74 2498.66,-26.9 2510.59,-24.97"/>
<polygon fill="#63b8ff" stroke="#63b8ff" points="1696.37,-65.38 1687.22,-70.73 1697.71,-72.25 1696.37,-65.38"/>
</g>
<!-- Node36 -->
<g id="node32" class="node">
<title>Node36</title>
<g id="a_node32"><a xlink:href="d__menu__item__explain_8cpp.html" target="_top" xlink:title=" ">
<polygon fill="white" stroke="#666666" points="2780.5,-30 2653.5,-30 2653.5,0 2780.5,0 2780.5,-30"/>
<text text-anchor="start" x="2661.5" y="-18" font-family="Helvetica,sans-Serif" font-size="10.00">src/d/menu/d_menu_item</text>
<text text-anchor="middle" x="2717" y="-7" font-family="Helvetica,sans-Serif" font-size="10.00">_explain.cpp</text>
</a>
</g>
</g>
<!-- Node11&#45;&gt;Node36 -->
<g id="edge33" class="edge">
<title>Node11&#45;&gt;Node36</title>
<path fill="none" stroke="#63b8ff" d="M1696.42,-68.89C1702.65,-67.75 1708.96,-66.74 1715,-66 2125.11,-15.57 2233.49,-77.05 2644,-30 2647.08,-29.65 2650.22,-29.24 2653.39,-28.79"/>
<polygon fill="#63b8ff" stroke="#63b8ff" points="1696.01,-65.4 1686.86,-70.75 1697.35,-72.27 1696.01,-65.4"/>
</g>
<!-- Node37 -->
<g id="node33" class="node">
<title>Node37</title>
<g id="a_node33"><a xlink:href="d__menu__letter_8cpp.html" target="_top" xlink:title=" ">
<polygon fill="white" stroke="#666666" points="2947,-24.5 2799,-24.5 2799,-5.5 2947,-5.5 2947,-24.5"/>
<text text-anchor="middle" x="2873" y="-12.5" font-family="Helvetica,sans-Serif" font-size="10.00">src/d/menu/d_menu_letter.cpp</text>
</a>
</g>
</g>
<!-- Node11&#45;&gt;Node37 -->
<g id="edge34" class="edge">
<title>Node11&#45;&gt;Node37</title>
<path fill="none" stroke="#63b8ff" d="M1696.42,-68.85C1702.64,-67.72 1708.95,-66.73 1715,-66 2189.62,-8.9 2314.36,-77.86 2790,-30 2801.92,-28.8 2814.72,-26.93 2826.62,-24.95"/>
<polygon fill="#63b8ff" stroke="#63b8ff" points="1696.01,-65.37 1686.86,-70.71 1697.34,-72.24 1696.01,-65.37"/>
</g>
<!-- Node38 -->
<g id="node34" class="node">
<title>Node38</title>
<g id="a_node34"><a xlink:href="d__menu__save_8cpp.html" target="_top" xlink:title=" ">
<polygon fill="white" stroke="#666666" points="3112.5,-24.5 2965.5,-24.5 2965.5,-5.5 3112.5,-5.5 3112.5,-24.5"/>
<text text-anchor="middle" x="3039" y="-12.5" font-family="Helvetica,sans-Serif" font-size="10.00">src/d/menu/d_menu_save.cpp</text>
</a>
</g>
</g>
<!-- Node11&#45;&gt;Node38 -->
<g id="edge35" class="edge">
<title>Node11&#45;&gt;Node38</title>
<path fill="none" stroke="#63b8ff" d="M1696.18,-68.87C1702.49,-67.73 1708.88,-66.72 1715,-66 2262.98,-1.32 2406.86,-84.02 2956,-30 2967.93,-28.83 2980.73,-26.97 2992.62,-24.99"/>
<polygon fill="#63b8ff" stroke="#63b8ff" points="1695.65,-65.41 1686.5,-70.76 1696.99,-72.28 1695.65,-65.41"/>
</g>
<!-- Node39 -->
<g id="node35" class="node">
<title>Node39</title>
<g id="a_node35"><a xlink:href="d__msg__class_8cpp.html" target="_top" xlink:title=" ">
<polygon fill="white" stroke="#666666" points="3269.5,-24.5 3130.5,-24.5 3130.5,-5.5 3269.5,-5.5 3269.5,-24.5"/>
<text text-anchor="middle" x="3200" y="-12.5" font-family="Helvetica,sans-Serif" font-size="10.00">src/d/msg/d_msg_class.cpp</text>
</a>
</g>
</g>
<!-- Node11&#45;&gt;Node39 -->
<g id="edge36" class="edge">
<title>Node11&#45;&gt;Node39</title>
<path fill="none" stroke="#63b8ff" d="M1696.18,-68.85C1702.48,-67.71 1708.88,-66.71 1715,-66 2336.35,6.27 2499.69,-93.44 3122,-30 3133.36,-28.84 3145.55,-26.96 3156.85,-24.95"/>
<polygon fill="#63b8ff" stroke="#63b8ff" points="1695.65,-65.39 1686.5,-70.73 1696.99,-72.26 1695.65,-65.39"/>
</g>
<!-- Node40 -->
<g id="node36" class="node">
<title>Node40</title>
<g id="a_node36"><a xlink:href="d__msg__object_8cpp.html" target="_top" xlink:title=" ">
<polygon fill="white" stroke="#666666" points="3430,-24.5 3288,-24.5 3288,-5.5 3430,-5.5 3430,-24.5"/>
<text text-anchor="middle" x="3359" y="-12.5" font-family="Helvetica,sans-Serif" font-size="10.00">src/d/msg/d_msg_object.cpp</text>
</a>
</g>
</g>
<!-- Node11&#45;&gt;Node40 -->
<g id="edge37" class="edge">
<title>Node11&#45;&gt;Node40</title>
<path fill="none" stroke="#63b8ff" d="M1696.18,-68.83C1702.48,-67.7 1708.88,-66.7 1715,-66 2405.74,13.44 2587.05,-98.12 3279,-30 3290.65,-28.85 3303.15,-26.98 3314.73,-24.97"/>
<polygon fill="#63b8ff" stroke="#63b8ff" points="1695.65,-65.37 1686.5,-70.72 1696.98,-72.24 1695.65,-65.37"/>
</g>
<!-- Node50 -->
<g id="node38" class="node">
<title>Node50</title>
<g id="a_node38"><a xlink:href="direct__io_8c.html" target="_top" xlink:title=" ">
<polygon fill="white" stroke="#666666" points="2636,-96 2500,-96 2500,-66 2636,-66 2636,-96"/>
<text text-anchor="start" x="2508" y="-84" font-family="Helvetica,sans-Serif" font-size="10.00">libs/MSL_C/MSL_Common</text>
<text text-anchor="middle" x="2568" y="-73" font-family="Helvetica,sans-Serif" font-size="10.00">/Src/direct_io.c</text>
</a>
</g>
</g>
<!-- Node49&#45;&gt;Node50 -->
<g id="edge40" class="edge">
<title>Node49&#45;&gt;Node50</title>
<path fill="none" stroke="#63b8ff" d="M2340.48,-129.28C2389.9,-119.01 2452.52,-106 2499.54,-96.22"/>
<polygon fill="#63b8ff" stroke="#63b8ff" points="2340.07,-125.79 2330.99,-131.25 2341.49,-132.64 2340.07,-125.79"/>
</g>
<!-- Node51&#45;&gt;Node9 -->
<g id="edge45" class="edge">
<title>Node51&#45;&gt;Node9</title>
<path fill="none" stroke="#63b8ff" d="M1585.05,-129.31C1533.15,-118.86 1467.09,-105.57 1418.23,-95.73"/>
<polygon fill="#63b8ff" stroke="#63b8ff" points="1584.26,-132.72 1594.75,-131.26 1585.64,-125.85 1584.26,-132.72"/>
</g>
<!-- Node51&#45;&gt;Node11 -->
<g id="edge42" class="edge">
<title>Node51&#45;&gt;Node11</title>
<path fill="none" stroke="#63b8ff" d="M1660.16,-120.93C1656.85,-110.31 1653.19,-98.61 1650.76,-90.84"/>
<polygon fill="#63b8ff" stroke="#63b8ff" points="1656.79,-121.85 1663.11,-130.35 1663.47,-119.76 1656.79,-121.85"/>
</g>
<!-- Node51&#45;&gt;Node52 -->
<g id="edge43" class="edge">
<title>Node51&#45;&gt;Node52</title>
<path fill="none" stroke="#63b8ff" d="M1705.87,-126.45C1724.7,-116.73 1747.05,-105.2 1764.26,-96.31"/>
<polygon fill="#63b8ff" stroke="#63b8ff" points="1704.45,-123.25 1697.17,-130.94 1707.66,-129.47 1704.45,-123.25"/>
</g>
<!-- Node53 -->
<g id="node41" class="node">
<title>Node53</title>
<g id="a_node41"><a xlink:href="extras_8c.html" target="_top" xlink:title=" ">
<polygon fill="white" stroke="#666666" points="1572,-96 1436,-96 1436,-66 1572,-66 1572,-96"/>
<text text-anchor="start" x="1444" y="-84" font-family="Helvetica,sans-Serif" font-size="10.00">libs/MSL_C/MSL_Common</text>
<text text-anchor="middle" x="1504" y="-73" font-family="Helvetica,sans-Serif" font-size="10.00">/Src/extras.c</text>
</a>
</g>
</g>
<!-- Node51&#45;&gt;Node53 -->
<g id="edge44" class="edge">
<title>Node51&#45;&gt;Node53</title>
<path fill="none" stroke="#63b8ff" d="M1620.7,-127.54C1595.34,-117.64 1564.55,-105.63 1540.97,-96.43"/>
<polygon fill="#63b8ff" stroke="#63b8ff" points="1619.2,-130.71 1629.79,-131.09 1621.74,-124.19 1619.2,-130.71"/>
</g>
<!-- Node54&#45;&gt;Node11 -->
<g id="edge47" class="edge">
<title>Node54&#45;&gt;Node11</title>
<path fill="none" stroke="#63b8ff" d="M1838.36,-128.86C1788.79,-116.66 1724.17,-100.75 1684.41,-90.96"/>
<polygon fill="#63b8ff" stroke="#63b8ff" points="1837.31,-132.2 1847.86,-131.2 1838.98,-125.41 1837.31,-132.2"/>
</g>
<!-- Node55 -->
<g id="node43" class="node">
<title>Node55</title>
<g id="a_node43"><a xlink:href="printf_8c.html" target="_top" xlink:title=" ">
<polygon fill="white" stroke="#666666" points="2158,-96 2022,-96 2022,-66 2158,-66 2158,-96"/>
<text text-anchor="start" x="2030" y="-84" font-family="Helvetica,sans-Serif" font-size="10.00">libs/MSL_C/MSL_Common</text>
<text text-anchor="middle" x="2090" y="-73" font-family="Helvetica,sans-Serif" font-size="10.00">/Src/printf.c</text>
</a>
</g>
</g>
<!-- Node54&#45;&gt;Node55 -->
<g id="edge48" class="edge">
<title>Node54&#45;&gt;Node55</title>
<path fill="none" stroke="#63b8ff" d="M1959.37,-127.94C1987.72,-117.97 2022.46,-105.75 2048.98,-96.43"/>
<polygon fill="#63b8ff" stroke="#63b8ff" points="1958.54,-124.52 1950.27,-131.14 1960.87,-131.12 1958.54,-124.52"/>
</g>
<!-- Node56 -->
<g id="node44" class="node">
<title>Node56</title>
<g id="a_node44"><a xlink:href="OSExec_8c.html" target="_top" xlink:title=" ">
<polygon fill="white" stroke="#666666" points="2003.5,-90.5 1878.5,-90.5 1878.5,-71.5 2003.5,-71.5 2003.5,-90.5"/>
<text text-anchor="middle" x="1941" y="-78.5" font-family="Helvetica,sans-Serif" font-size="10.00">libs/dolphin/os/OSExec.c</text>
</a>
</g>
</g>
<!-- Node54&#45;&gt;Node56 -->
<g id="edge49" class="edge">
<title>Node54&#45;&gt;Node56</title>
<path fill="none" stroke="#63b8ff" d="M1920.58,-121.6C1926.15,-110.8 1932.35,-98.78 1936.44,-90.84"/>
<polygon fill="#63b8ff" stroke="#63b8ff" points="1917.49,-119.96 1916.02,-130.45 1923.71,-123.17 1917.49,-119.96"/>
</g>
<!-- Node57&#45;&gt;Node4 -->
<g id="edge52" class="edge">
<title>Node57&#45;&gt;Node4</title>
<path fill="none" stroke="#63b8ff" d="M2002.22,-132.96C1999.11,-132.62 1996.03,-132.29 1993,-132 1674.1,-101.08 1591.29,-132.73 1273,-96 1270.17,-95.67 1267.28,-95.31 1264.36,-94.91"/>
<polygon fill="#63b8ff" stroke="#63b8ff" points="2001.73,-136.42 2012.07,-134.11 2002.54,-129.47 2001.73,-136.42"/>
</g>
<!-- Node57&#45;&gt;Node50 -->
<g id="edge53" class="edge">
<title>Node57&#45;&gt;Node50</title>
<path fill="none" stroke="#63b8ff" d="M2177.53,-131.7C2316.91,-112.7 2354.71,-116.13 2491,-96 2493.82,-95.58 2496.7,-95.14 2499.61,-94.68"/>
<polygon fill="#63b8ff" stroke="#63b8ff" points="2177.36,-128.19 2167.93,-133.02 2178.31,-135.12 2177.36,-128.19"/>
</g>
<!-- Node57&#45;&gt;Node55 -->
<g id="edge54" class="edge">
<title>Node57&#45;&gt;Node55</title>
<path fill="none" stroke="#63b8ff" d="M2090,-120.39C2090,-112.13 2090,-103.28 2090,-96.16"/>
<polygon fill="#63b8ff" stroke="#63b8ff" points="2086.5,-120.28 2090,-130.28 2093.5,-120.28 2086.5,-120.28"/>
</g>
<!-- Node58 -->
<g id="node46" class="node">
<title>Node58</title>
<g id="a_node46"><a xlink:href="mbstring_8h.html" target="_top" xlink:title=" ">
<polygon fill="#fff0f0" stroke="red" points="2328,-96 2176,-96 2176,-66 2328,-66 2328,-96"/>
<text text-anchor="start" x="2184" y="-84" font-family="Helvetica,sans-Serif" font-size="10.00">include/MSL_C/MSL_Common</text>
<text text-anchor="middle" x="2252" y="-73" font-family="Helvetica,sans-Serif" font-size="10.00">/Src/mbstring.h</text>
</a>
</g>
</g>
<!-- Node57&#45;&gt;Node58 -->
<g id="edge51" class="edge">
<title>Node57&#45;&gt;Node58</title>
<path fill="none" stroke="#63b8ff" d="M2137.06,-127.41C2162.05,-117.54 2192.29,-105.59 2215.49,-96.43"/>
<polygon fill="#63b8ff" stroke="#63b8ff" points="2135.78,-124.15 2127.76,-131.08 2138.35,-130.66 2135.78,-124.15"/>
</g>
<!-- Node63 -->
<g id="node47" class="node">
<title>Node63</title>
<g id="a_node47"><a xlink:href="wchar__io_8c.html" target="_top" xlink:title=" ">
<polygon fill="white" stroke="#666666" points="2482,-96 2346,-96 2346,-66 2482,-66 2482,-96"/>
<text text-anchor="start" x="2354" y="-84" font-family="Helvetica,sans-Serif" font-size="10.00">libs/MSL_C/MSL_Common</text>
<text text-anchor="middle" x="2414" y="-73" font-family="Helvetica,sans-Serif" font-size="10.00">/Src/wchar_io.c</text>
</a>
</g>
</g>
<!-- Node57&#45;&gt;Node63 -->
<g id="edge55" class="edge">
<title>Node57&#45;&gt;Node63</title>
<path fill="none" stroke="#63b8ff" d="M2174.26,-129.36C2227.57,-118.83 2295.61,-105.38 2345.58,-95.52"/>
<polygon fill="#63b8ff" stroke="#63b8ff" points="2173.73,-125.89 2164.6,-131.26 2175.09,-132.76 2173.73,-125.89"/>
</g>
<!-- Node65 -->
<g id="node49" class="node">
<title>Node65</title>
<g id="a_node49"><a xlink:href="uart__console__io__gcn_8c.html" target="_top" xlink:title=" ">
<polygon fill="white" stroke="#666666" points="2788,-96 2654,-96 2654,-66 2788,-66 2788,-96"/>
<text text-anchor="start" x="2662" y="-84" font-family="Helvetica,sans-Serif" font-size="10.00">libs/MSL_C/PPC_EABI</text>
<text text-anchor="middle" x="2721" y="-73" font-family="Helvetica,sans-Serif" font-size="10.00">/Src/uart_console_io_gcn.c</text>
</a>
</g>
</g>
<!-- Node64&#45;&gt;Node65 -->
<g id="edge57" class="edge">
<title>Node64&#45;&gt;Node65</title>
<path fill="none" stroke="#63b8ff" d="M2499.58,-129.24C2547.45,-119.02 2607.97,-106.11 2653.64,-96.37"/>
<polygon fill="#63b8ff" stroke="#63b8ff" points="2498.86,-125.81 2489.81,-131.32 2500.32,-132.66 2498.86,-125.81"/>
</g>
</g>
</svg>
