<?xml version="1.0" encoding="UTF-8" standalone="no"?>
<!DOCTYPE svg PUBLIC "-//W3C//DTD SVG 1.1//EN"
 "http://www.w3.org/Graphics/SVG/1.1/DTD/svg11.dtd">
<!-- Generated by graphviz version 7.0.5 (20221223.1930)
 -->
<!-- Title: include/MSL_C/bitset.h Pages: 1 -->
<svg width="443pt" height="159pt"
 viewBox="0.00 0.00 442.50 159.00" xmlns="http://www.w3.org/2000/svg" xmlns:xlink="http://www.w3.org/1999/xlink">
<g id="graph0" class="graph" transform="scale(1 1) rotate(0) translate(4 155)">
<title>include/MSL_C/bitset.h</title>
<!-- Node1 -->
<g id="node1" class="node">
<title>Node1</title>
<g id="a_node1"><a xlink:title=" ">
<polygon fill="#999999" stroke="#666666" points="336.5,-151 218.5,-151 218.5,-132 336.5,-132 336.5,-151"/>
<text text-anchor="middle" x="277.5" y="-139" font-family="Helvetica,sans-Serif" font-size="10.00">include/MSL_C/bitset.h</text>
</a>
</g>
</g>
<!-- Node2 -->
<g id="node2" class="node">
<title>Node2</title>
<g id="a_node2"><a xlink:href="JAUSectionHeap_8h.html" target="_top" xlink:title=" ">
<polygon fill="white" stroke="#666666" points="269,-96 142,-96 142,-66 269,-66 269,-96"/>
<text text-anchor="start" x="150" y="-84" font-family="Helvetica,sans-Serif" font-size="10.00">include/JSystem/JAudio2</text>
<text text-anchor="middle" x="205.5" y="-73" font-family="Helvetica,sans-Serif" font-size="10.00">/JAUSectionHeap.h</text>
</a>
</g>
</g>
<!-- Node1&#45;&gt;Node2 -->
<g id="edge1" class="edge">
<title>Node1&#45;&gt;Node2</title>
<path fill="none" stroke="#63b8ff" d="M257.85,-124.53C247.05,-115.76 233.76,-104.96 223.27,-96.44"/>
<polygon fill="#63b8ff" stroke="#63b8ff" points="255.42,-127.07 265.39,-130.66 259.84,-121.64 255.42,-127.07"/>
</g>
<!-- Node6 -->
<g id="node6" class="node">
<title>Node6</title>
<g id="a_node6"><a xlink:href="JAUStreamAramMgr_8h.html" target="_top" xlink:title=" ">
<polygon fill="white" stroke="#666666" points="416,-96 289,-96 289,-66 416,-66 416,-96"/>
<text text-anchor="start" x="297" y="-84" font-family="Helvetica,sans-Serif" font-size="10.00">include/JSystem/JAudio2</text>
<text text-anchor="middle" x="352.5" y="-73" font-family="Helvetica,sans-Serif" font-size="10.00">/JAUStreamAramMgr.h</text>
</a>
</g>
</g>
<!-- Node1&#45;&gt;Node6 -->
<g id="edge5" class="edge">
<title>Node1&#45;&gt;Node6</title>
<path fill="none" stroke="#63b8ff" d="M297.63,-124.8C308.94,-115.98 322.95,-105.05 333.99,-96.44"/>
<polygon fill="#63b8ff" stroke="#63b8ff" points="295.82,-121.77 290.08,-130.68 300.12,-127.29 295.82,-121.77"/>
</g>
<!-- Node3 -->
<g id="node3" class="node">
<title>Node3</title>
<g id="a_node3"><a xlink:href="JAUAudioArcLoader_8cpp.html" target="_top" xlink:title=" ">
<polygon fill="white" stroke="#666666" points="127,-30 0,-30 0,0 127,0 127,-30"/>
<text text-anchor="start" x="8" y="-18" font-family="Helvetica,sans-Serif" font-size="10.00">libs/JSystem/JAudio2</text>
<text text-anchor="middle" x="63.5" y="-7" font-family="Helvetica,sans-Serif" font-size="10.00">/JAUAudioArcLoader.cpp</text>
</a>
</g>
</g>
<!-- Node2&#45;&gt;Node3 -->
<g id="edge2" class="edge">
<title>Node2&#45;&gt;Node3</title>
<path fill="none" stroke="#63b8ff" d="M163.32,-60.99C141.52,-51.16 115.34,-39.36 95.26,-30.31"/>
<polygon fill="#63b8ff" stroke="#63b8ff" points="161.7,-64.1 172.25,-65.02 164.57,-57.72 161.7,-64.1"/>
</g>
<!-- Node4 -->
<g id="node4" class="node">
<title>Node4</title>
<g id="a_node4"><a xlink:href="JAUSectionHeap_8cpp.html" target="_top" xlink:title=" ">
<polygon fill="white" stroke="#666666" points="258,-30 145,-30 145,0 258,0 258,-30"/>
<text text-anchor="start" x="153" y="-18" font-family="Helvetica,sans-Serif" font-size="10.00">libs/JSystem/JAudio2</text>
<text text-anchor="middle" x="201.5" y="-7" font-family="Helvetica,sans-Serif" font-size="10.00">/JAUSectionHeap.cpp</text>
</a>
</g>
</g>
<!-- Node2&#45;&gt;Node4 -->
<g id="edge3" class="edge">
<title>Node2&#45;&gt;Node4</title>
<path fill="none" stroke="#63b8ff" d="M203.9,-54.39C203.38,-46.13 202.83,-37.28 202.39,-30.16"/>
<polygon fill="#63b8ff" stroke="#63b8ff" points="200.4,-54.52 204.52,-64.29 207.39,-54.09 200.4,-54.52"/>
</g>
<!-- Node5 -->
<g id="node5" class="node">
<title>Node5</title>
<g id="a_node5"><a xlink:href="Z2AudioMgr_8cpp.html" target="_top" xlink:title=" ">
<polygon fill="white" stroke="#666666" points="434.5,-24.5 276.5,-24.5 276.5,-5.5 434.5,-5.5 434.5,-24.5"/>
<text text-anchor="middle" x="355.5" y="-12.5" font-family="Helvetica,sans-Serif" font-size="10.00">libs/Z2AudioLib/Z2AudioMgr.cpp</text>
</a>
</g>
</g>
<!-- Node2&#45;&gt;Node5 -->
<g id="edge4" class="edge">
<title>Node2&#45;&gt;Node5</title>
<path fill="none" stroke="#63b8ff" d="M249.51,-61.22C277.51,-49.27 312.51,-34.34 334.44,-24.99"/>
<polygon fill="#63b8ff" stroke="#63b8ff" points="248.38,-57.9 240.56,-65.04 251.13,-64.34 248.38,-57.9"/>
</g>
<!-- Node6&#45;&gt;Node5 -->
<g id="edge6" class="edge">
<title>Node6&#45;&gt;Node5</title>
<path fill="none" stroke="#63b8ff" d="M353.69,-54.59C354.18,-44.06 354.73,-32.53 355.09,-24.84"/>
<polygon fill="#63b8ff" stroke="#63b8ff" points="350.21,-54.13 353.24,-64.28 357.2,-54.46 350.21,-54.13"/>
</g>
</g>
</svg>
