<?xml version="1.0" encoding="UTF-8" standalone="no"?>
<!DOCTYPE svg PUBLIC "-//W3C//DTD SVG 1.1//EN"
 "http://www.w3.org/Graphics/SVG/1.1/DTD/svg11.dtd">
<!-- Generated by graphviz version 7.0.5 (20221223.1930)
 -->
<!-- Title: include/SSystem/SComponent/c_bg_s_shdw_draw.h Pages: 1 -->
<svg width="433pt" height="423pt"
 viewBox="0.00 0.00 433.00 423.00" xmlns="http://www.w3.org/2000/svg" xmlns:xlink="http://www.w3.org/1999/xlink">
<g id="graph0" class="graph" transform="scale(1 1) rotate(0) translate(4 419)">
<title>include/SSystem/SComponent/c_bg_s_shdw_draw.h</title>
<!-- Node1 -->
<g id="node1" class="node">
<title>Node1</title>
<g id="a_node1"><a xlink:title=" ">
<polygon fill="#999999" stroke="#666666" points="317.5,-415 168.5,-415 168.5,-385 317.5,-385 317.5,-415"/>
<text text-anchor="start" x="176.5" y="-403" font-family="Helvetica,sans-Serif" font-size="10.00">include/SSystem/SComponent</text>
<text text-anchor="middle" x="243" y="-392" font-family="Helvetica,sans-Serif" font-size="10.00">/c_bg_s_shdw_draw.h</text>
</a>
</g>
</g>
<!-- Node2 -->
<g id="node2" class="node">
<title>Node2</title>
<g id="a_node2"><a xlink:href="c__bg__s__chk_8h.html" target="_top" xlink:title=" ">
<polygon fill="white" stroke="#666666" points="116,-283 0,-283 0,-253 116,-253 116,-283"/>
<text text-anchor="start" x="8" y="-271" font-family="Helvetica,sans-Serif" font-size="10.00">SSystem/SComponent</text>
<text text-anchor="middle" x="58" y="-260" font-family="Helvetica,sans-Serif" font-size="10.00">/c_bg_s_chk.h</text>
</a>
</g>
</g>
<!-- Node1&#45;&gt;Node2 -->
<g id="edge1" class="edge">
<title>Node1&#45;&gt;Node2</title>
<path fill="none" stroke="#63b8ff" d="M222.49,-384.59C189.71,-361.55 125.36,-316.33 87.59,-289.79"/>
<polygon fill="#63b8ff" stroke="#63b8ff" points="90.03,-287.23 79.84,-284.34 86,-292.96 90.03,-287.23"/>
</g>
<!-- Node4 -->
<g id="node4" class="node">
<title>Node4</title>
<g id="a_node4"><a xlink:href="types_8h.html" target="_top" xlink:title=" ">
<polygon fill="white" stroke="#666666" points="246.5,-90.5 165.5,-90.5 165.5,-71.5 246.5,-71.5 246.5,-90.5"/>
<text text-anchor="middle" x="206" y="-78.5" font-family="Helvetica,sans-Serif" font-size="10.00">dolphin/types.h</text>
</a>
</g>
</g>
<!-- Node1&#45;&gt;Node4 -->
<g id="edge20" class="edge">
<title>Node1&#45;&gt;Node4</title>
<path fill="none" stroke="#63b8ff" d="M299.09,-384.57C352.57,-367.04 425,-331.71 425,-269 425,-269 425,-269 425,-201 425,-154.72 386.88,-155.5 347,-132 329.64,-121.77 281.5,-105.56 246.29,-94.39"/>
<polygon fill="#63b8ff" stroke="#63b8ff" points="247.4,-91.07 236.81,-91.41 245.3,-97.75 247.4,-91.07"/>
</g>
<!-- Node6 -->
<g id="node6" class="node">
<title>Node6</title>
<g id="a_node6"><a xlink:href="c__m3d__g__aab_8h.html" target="_top" xlink:title=" ">
<polygon fill="white" stroke="#666666" points="301,-349 185,-349 185,-319 301,-319 301,-349"/>
<text text-anchor="start" x="193" y="-337" font-family="Helvetica,sans-Serif" font-size="10.00">SSystem/SComponent</text>
<text text-anchor="middle" x="243" y="-326" font-family="Helvetica,sans-Serif" font-size="10.00">/c_m3d_g_aab.h</text>
</a>
</g>
</g>
<!-- Node1&#45;&gt;Node6 -->
<g id="edge5" class="edge">
<title>Node1&#45;&gt;Node6</title>
<path fill="none" stroke="#63b8ff" d="M243,-384.8C243,-377.67 243,-368.82 243,-360.56"/>
<polygon fill="#63b8ff" stroke="#63b8ff" points="246.5,-360.68 243,-350.68 239.5,-360.68 246.5,-360.68"/>
</g>
<!-- Node3 -->
<g id="node3" class="node">
<title>Node3</title>
<g id="a_node3"><a xlink:href="vec_8h.html" target="_top" xlink:title=" ">
<polygon fill="white" stroke="#666666" points="178,-151 86,-151 86,-132 178,-132 178,-151"/>
<text text-anchor="middle" x="132" y="-139" font-family="Helvetica,sans-Serif" font-size="10.00">dolphin/mtx/vec.h</text>
</a>
</g>
</g>
<!-- Node2&#45;&gt;Node3 -->
<g id="edge2" class="edge">
<title>Node2&#45;&gt;Node3</title>
<path fill="none" stroke="#63b8ff" d="M56.93,-252.58C56.36,-235.63 57.62,-207.25 70,-187 77.72,-174.37 90.51,-164.29 102.47,-156.94"/>
<polygon fill="#63b8ff" stroke="#63b8ff" points="103.92,-160.14 110.88,-152.16 100.46,-154.05 103.92,-160.14"/>
</g>
<!-- Node3&#45;&gt;Node4 -->
<g id="edge3" class="edge">
<title>Node3&#45;&gt;Node4</title>
<path fill="none" stroke="#63b8ff" d="M143.24,-131.62C154.54,-122.68 172.21,-108.72 185.92,-97.87"/>
<polygon fill="#63b8ff" stroke="#63b8ff" points="187.79,-100.85 193.47,-91.91 183.45,-95.36 187.79,-100.85"/>
</g>
<!-- Node5 -->
<g id="node5" class="node">
<title>Node5</title>
<g id="a_node5"><a xlink:href="stddef_8h.html" target="_top" xlink:title=" ">
<polygon fill="white" stroke="#666666" points="274,-30 138,-30 138,0 274,0 274,-30"/>
<text text-anchor="start" x="146" y="-18" font-family="Helvetica,sans-Serif" font-size="10.00">MSL_C/MSL_Common/Src</text>
<text text-anchor="middle" x="206" y="-7" font-family="Helvetica,sans-Serif" font-size="10.00">/stddef.h</text>
</a>
</g>
</g>
<!-- Node4&#45;&gt;Node5 -->
<g id="edge4" class="edge">
<title>Node4&#45;&gt;Node5</title>
<path fill="none" stroke="#63b8ff" d="M206,-71.1C206,-63.41 206,-51.92 206,-41.42"/>
<polygon fill="#63b8ff" stroke="#63b8ff" points="209.5,-41.75 206,-31.75 202.5,-41.75 209.5,-41.75"/>
</g>
<!-- Node7 -->
<g id="node7" class="node">
<title>Node7</title>
<g id="a_node7"><a xlink:href="c__xyz_8h.html" target="_top" xlink:title=" ">
<polygon fill="white" stroke="#666666" points="329,-217 213,-217 213,-187 329,-187 329,-217"/>
<text text-anchor="start" x="221" y="-205" font-family="Helvetica,sans-Serif" font-size="10.00">SSystem/SComponent</text>
<text text-anchor="middle" x="271" y="-194" font-family="Helvetica,sans-Serif" font-size="10.00">/c_xyz.h</text>
</a>
</g>
</g>
<!-- Node6&#45;&gt;Node7 -->
<g id="edge6" class="edge">
<title>Node6&#45;&gt;Node7</title>
<path fill="none" stroke="#63b8ff" d="M232.69,-318.5C222.46,-302.21 209.57,-275.15 219,-253 223.64,-242.11 231.94,-232.45 240.56,-224.59"/>
<polygon fill="#63b8ff" stroke="#63b8ff" points="242.61,-227.44 248.01,-218.33 238.11,-222.08 242.61,-227.44"/>
</g>
<!-- Node11 -->
<g id="node11" class="node">
<title>Node11</title>
<g id="a_node11"><a xlink:href="c__m3d__g__lin_8h.html" target="_top" xlink:title=" ">
<polygon fill="white" stroke="#666666" points="344,-283 228,-283 228,-253 344,-253 344,-283"/>
<text text-anchor="start" x="236" y="-271" font-family="Helvetica,sans-Serif" font-size="10.00">SSystem/SComponent</text>
<text text-anchor="middle" x="286" y="-260" font-family="Helvetica,sans-Serif" font-size="10.00">/c_m3d_g_lin.h</text>
</a>
</g>
</g>
<!-- Node6&#45;&gt;Node11 -->
<g id="edge11" class="edge">
<title>Node6&#45;&gt;Node11</title>
<path fill="none" stroke="#63b8ff" d="M252.54,-318.8C257.72,-311.09 264.25,-301.37 270.17,-292.56"/>
<polygon fill="#63b8ff" stroke="#63b8ff" points="272.97,-294.67 275.64,-284.42 267.16,-290.77 272.97,-294.67"/>
</g>
<!-- Node12 -->
<g id="node12" class="node">
<title>Node12</title>
<g id="a_node12"><a xlink:href="global_8h.html" target="_top" xlink:title=" ">
<polygon fill="white" stroke="#666666" points="397,-211.5 347,-211.5 347,-192.5 397,-192.5 397,-211.5"/>
<text text-anchor="middle" x="372" y="-199.5" font-family="Helvetica,sans-Serif" font-size="10.00">global.h</text>
</a>
</g>
</g>
<!-- Node6&#45;&gt;Node12 -->
<g id="edge19" class="edge">
<title>Node6&#45;&gt;Node12</title>
<path fill="none" stroke="#63b8ff" d="M299.48,-318.53C318.98,-310.92 339.34,-299.6 353,-283 366.88,-266.14 370.95,-240.87 371.99,-223.26"/>
<polygon fill="#63b8ff" stroke="#63b8ff" points="375.49,-223.39 372.26,-213.29 368.49,-223.2 375.49,-223.39"/>
</g>
<!-- Node13 -->
<g id="node13" class="node">
<title>Node13</title>
<g id="a_node13"><a xlink:href="c__m3d_8h.html" target="_top" xlink:title=" ">
<polygon fill="white" stroke="#666666" points="195,-217 79,-217 79,-187 195,-187 195,-217"/>
<text text-anchor="start" x="87" y="-205" font-family="Helvetica,sans-Serif" font-size="10.00">SSystem/SComponent</text>
<text text-anchor="middle" x="137" y="-194" font-family="Helvetica,sans-Serif" font-size="10.00">/c_m3d.h</text>
</a>
</g>
</g>
<!-- Node6&#45;&gt;Node13 -->
<g id="edge15" class="edge">
<title>Node6&#45;&gt;Node13</title>
<path fill="none" stroke="#63b8ff" d="M231.25,-318.59C213.02,-296.24 177.76,-252.99 155.92,-226.2"/>
<polygon fill="#63b8ff" stroke="#63b8ff" points="158.79,-224.18 149.76,-218.65 153.36,-228.61 158.79,-224.18"/>
</g>
<!-- Node7&#45;&gt;Node3 -->
<g id="edge10" class="edge">
<title>Node7&#45;&gt;Node3</title>
<path fill="none" stroke="#63b8ff" d="M236.64,-186.54C214.22,-177.1 185.18,-164.88 163.38,-155.71"/>
<polygon fill="#63b8ff" stroke="#63b8ff" points="164.99,-152.59 154.41,-151.93 162.27,-159.04 164.99,-152.59"/>
</g>
<!-- Node8 -->
<g id="node8" class="node">
<title>Node8</title>
<g id="a_node8"><a xlink:href="math_8h.html" target="_top" xlink:title=" ">
<polygon fill="white" stroke="#666666" points="316,-151 234,-151 234,-132 316,-132 316,-151"/>
<text text-anchor="middle" x="275" y="-139" font-family="Helvetica,sans-Serif" font-size="10.00">MSL_C/math.h</text>
</a>
</g>
</g>
<!-- Node7&#45;&gt;Node8 -->
<g id="edge7" class="edge">
<title>Node7&#45;&gt;Node8</title>
<path fill="none" stroke="#63b8ff" d="M271.99,-186.54C272.49,-179.26 273.1,-170.31 273.64,-162.39"/>
<polygon fill="#63b8ff" stroke="#63b8ff" points="277.11,-162.9 274.3,-152.69 270.13,-162.42 277.11,-162.9"/>
</g>
<!-- Node9 -->
<g id="node9" class="node">
<title>Node9</title>
<g id="a_node9"><a xlink:href="MSL__Common_2Src_2float_8h.html" target="_top" xlink:title=" ">
<polygon fill="white" stroke="#666666" points="401,-96 265,-96 265,-66 401,-66 401,-96"/>
<text text-anchor="start" x="273" y="-84" font-family="Helvetica,sans-Serif" font-size="10.00">MSL_C/MSL_Common/Src</text>
<text text-anchor="middle" x="333" y="-73" font-family="Helvetica,sans-Serif" font-size="10.00">/float.h</text>
</a>
</g>
</g>
<!-- Node8&#45;&gt;Node9 -->
<g id="edge8" class="edge">
<title>Node8&#45;&gt;Node9</title>
<path fill="none" stroke="#63b8ff" d="M283.56,-131.87C290.77,-124.59 301.42,-113.85 310.99,-104.2"/>
<polygon fill="#63b8ff" stroke="#63b8ff" points="313.39,-106.76 317.94,-97.19 308.41,-101.83 313.39,-106.76"/>
</g>
<!-- Node10 -->
<g id="node10" class="node">
<title>Node10</title>
<g id="a_node10"><a xlink:href="fdlibm_8h.html" target="_top" xlink:title=" ">
<polygon fill="white" stroke="#666666" points="358,-24.5 308,-24.5 308,-5.5 358,-5.5 358,-24.5"/>
<text text-anchor="middle" x="333" y="-12.5" font-family="Helvetica,sans-Serif" font-size="10.00">fdlibm.h</text>
</a>
</g>
</g>
<!-- Node9&#45;&gt;Node10 -->
<g id="edge9" class="edge">
<title>Node9&#45;&gt;Node10</title>
<path fill="none" stroke="#63b8ff" d="M333,-65.8C333,-57.09 333,-45.81 333,-36.18"/>
<polygon fill="#63b8ff" stroke="#63b8ff" points="336.5,-36.36 333,-26.36 329.5,-36.36 336.5,-36.36"/>
</g>
<!-- Node11&#45;&gt;Node7 -->
<g id="edge12" class="edge">
<title>Node11&#45;&gt;Node7</title>
<path fill="none" stroke="#63b8ff" d="M282.67,-252.8C280.98,-245.59 278.88,-236.61 276.92,-228.27"/>
<polygon fill="#63b8ff" stroke="#63b8ff" points="280.35,-227.58 274.67,-218.64 273.54,-229.17 280.35,-227.58"/>
</g>
<!-- Node11&#45;&gt;Node12 -->
<g id="edge13" class="edge">
<title>Node11&#45;&gt;Node12</title>
<path fill="none" stroke="#63b8ff" d="M305.09,-252.8C318.76,-242.62 337.15,-228.93 351.2,-218.48"/>
<polygon fill="#63b8ff" stroke="#63b8ff" points="352.97,-221.53 358.9,-212.75 348.79,-215.91 352.97,-221.53"/>
</g>
<!-- Node12&#45;&gt;Node4 -->
<g id="edge14" class="edge">
<title>Node12&#45;&gt;Node4</title>
<path fill="none" stroke="#63b8ff" d="M368.06,-192.17C361.23,-177.76 345.87,-149.06 325,-132 311.83,-121.23 272.41,-105.65 242.52,-94.75"/>
<polygon fill="#63b8ff" stroke="#63b8ff" points="244.02,-91.57 233.43,-91.47 241.65,-98.15 244.02,-91.57"/>
</g>
<!-- Node13&#45;&gt;Node3 -->
<g id="edge18" class="edge">
<title>Node13&#45;&gt;Node3</title>
<path fill="none" stroke="#63b8ff" d="M135.76,-186.54C135.14,-179.26 134.38,-170.31 133.7,-162.39"/>
<polygon fill="#63b8ff" stroke="#63b8ff" points="137.21,-162.35 132.87,-152.68 130.23,-162.94 137.21,-162.35"/>
</g>
<!-- Node13&#45;&gt;Node4 -->
<g id="edge17" class="edge">
<title>Node13&#45;&gt;Node4</title>
<path fill="none" stroke="#63b8ff" d="M155.58,-186.61C166.2,-177.47 178.97,-164.79 187,-151 195.89,-135.72 200.77,-116.1 203.35,-101.7"/>
<polygon fill="#63b8ff" stroke="#63b8ff" points="206.76,-102.53 204.83,-92.11 199.84,-101.46 206.76,-102.53"/>
</g>
<!-- Node13&#45;&gt;Node8 -->
<g id="edge16" class="edge">
<title>Node13&#45;&gt;Node8</title>
<path fill="none" stroke="#63b8ff" d="M171.11,-186.54C193.27,-177.15 221.94,-164.99 243.55,-155.83"/>
<polygon fill="#63b8ff" stroke="#63b8ff" points="244.9,-159.06 252.74,-151.94 242.17,-152.62 244.9,-159.06"/>
</g>
</g>
</svg>
