<?xml version="1.0" encoding="UTF-8" standalone="no"?>
<!DOCTYPE svg PUBLIC "-//W3C//DTD SVG 1.1//EN"
 "http://www.w3.org/Graphics/SVG/1.1/DTD/svg11.dtd">
<!-- Generated by graphviz version 7.0.5 (20221223.1930)
 -->
<!-- Title: include/SSystem/SComponent/c_m3d_g_sph.h Pages: 1 -->
<svg width="5409pt" height="313pt"
 viewBox="0.00 0.00 5409.00 313.00" xmlns="http://www.w3.org/2000/svg" xmlns:xlink="http://www.w3.org/1999/xlink">
<g id="graph0" class="graph" transform="scale(1 1) rotate(0) translate(4 309)">
<title>include/SSystem/SComponent/c_m3d_g_sph.h</title>
<!-- Node1 -->
<g id="node1" class="node">
<title>Node1</title>
<g id="a_node1"><a xlink:title=" ">
<polygon fill="#999999" stroke="#666666" points="5187.5,-305 5038.5,-305 5038.5,-275 5187.5,-275 5187.5,-305"/>
<text text-anchor="start" x="5046.5" y="-293" font-family="Helvetica,sans-Serif" font-size="10.00">include/SSystem/SComponent</text>
<text text-anchor="middle" x="5113" y="-282" font-family="Helvetica,sans-Serif" font-size="10.00">/c_m3d_g_sph.h</text>
</a>
</g>
</g>
<!-- Node2 -->
<g id="node2" class="node">
<title>Node2</title>
<g id="a_node2"><a xlink:href="c__cc__d_8h.html" target="_top" xlink:title=" ">
<polygon fill="white" stroke="#666666" points="2541.5,-239 2392.5,-239 2392.5,-209 2541.5,-209 2541.5,-239"/>
<text text-anchor="start" x="2400.5" y="-227" font-family="Helvetica,sans-Serif" font-size="10.00">include/SSystem/SComponent</text>
<text text-anchor="middle" x="2467" y="-216" font-family="Helvetica,sans-Serif" font-size="10.00">/c_cc_d.h</text>
</a>
</g>
</g>
<!-- Node1&#45;&gt;Node2 -->
<g id="edge1" class="edge">
<title>Node1&#45;&gt;Node2</title>
<path fill="none" stroke="#63b8ff" d="M5026.78,-286.91C4622.77,-277.14 2920.66,-235.97 2541.9,-226.81"/>
<polygon fill="#63b8ff" stroke="#63b8ff" points="5026.48,-290.41 5036.56,-287.15 5026.65,-283.41 5026.48,-290.41"/>
</g>
<!-- Node278 -->
<g id="node46" class="node">
<title>Node278</title>
<g id="a_node46"><a xlink:href="d__bg__s__sph__chk_8h.html" target="_top" xlink:title=" ">
<polygon fill="white" stroke="#666666" points="5097,-239 4993,-239 4993,-209 5097,-209 5097,-239"/>
<text text-anchor="start" x="5001" y="-227" font-family="Helvetica,sans-Serif" font-size="10.00">include/d/bg/d_bg_s</text>
<text text-anchor="middle" x="5045" y="-216" font-family="Helvetica,sans-Serif" font-size="10.00">_sph_chk.h</text>
</a>
</g>
</g>
<!-- Node1&#45;&gt;Node278 -->
<g id="edge47" class="edge">
<title>Node1&#45;&gt;Node278</title>
<path fill="none" stroke="#63b8ff" d="M5089.72,-267.09C5079.9,-257.85 5068.76,-247.36 5060.05,-239.16"/>
<polygon fill="#63b8ff" stroke="#63b8ff" points="5087.13,-269.45 5096.81,-273.76 5091.92,-264.36 5087.13,-269.45"/>
</g>
<!-- Node280 -->
<g id="node49" class="node">
<title>Node280</title>
<g id="a_node49"><a xlink:href="c__m3d_8cpp.html" target="_top" xlink:title=" ">
<polygon fill="white" stroke="#666666" points="5249,-239 5115,-239 5115,-209 5249,-209 5249,-239"/>
<text text-anchor="start" x="5123" y="-227" font-family="Helvetica,sans-Serif" font-size="10.00">libs/SSystem/SComponent</text>
<text text-anchor="middle" x="5182" y="-216" font-family="Helvetica,sans-Serif" font-size="10.00">/c_m3d.cpp</text>
</a>
</g>
</g>
<!-- Node1&#45;&gt;Node280 -->
<g id="edge51" class="edge">
<title>Node1&#45;&gt;Node280</title>
<path fill="none" stroke="#63b8ff" d="M5136.62,-267.09C5146.59,-257.85 5157.89,-247.36 5166.73,-239.16"/>
<polygon fill="#63b8ff" stroke="#63b8ff" points="5134.37,-264.4 5129.42,-273.77 5139.13,-269.53 5134.37,-264.4"/>
</g>
<!-- Node281 -->
<g id="node50" class="node">
<title>Node281</title>
<g id="a_node50"><a xlink:href="c__m3d__g__sph_8cpp.html" target="_top" xlink:title=" ">
<polygon fill="white" stroke="#666666" points="5401,-239 5267,-239 5267,-209 5401,-209 5401,-239"/>
<text text-anchor="start" x="5275" y="-227" font-family="Helvetica,sans-Serif" font-size="10.00">libs/SSystem/SComponent</text>
<text text-anchor="middle" x="5334" y="-216" font-family="Helvetica,sans-Serif" font-size="10.00">/c_m3d_g_sph.cpp</text>
</a>
</g>
</g>
<!-- Node1&#45;&gt;Node281 -->
<g id="edge52" class="edge">
<title>Node1&#45;&gt;Node281</title>
<path fill="none" stroke="#63b8ff" d="M5173.84,-271.38C5208.59,-261.32 5251.61,-248.86 5284.31,-239.39"/>
<polygon fill="#63b8ff" stroke="#63b8ff" points="5172.96,-267.99 5164.33,-274.14 5174.91,-274.72 5172.96,-267.99"/>
</g>
<!-- Node3 -->
<g id="node3" class="node">
<title>Node3</title>
<g id="a_node3"><a xlink:href="c__cc__s_8h.html" target="_top" xlink:title=" ">
<polygon fill="white" stroke="#666666" points="282.5,-173 133.5,-173 133.5,-143 282.5,-143 282.5,-173"/>
<text text-anchor="start" x="141.5" y="-161" font-family="Helvetica,sans-Serif" font-size="10.00">include/SSystem/SComponent</text>
<text text-anchor="middle" x="208" y="-150" font-family="Helvetica,sans-Serif" font-size="10.00">/c_cc_s.h</text>
</a>
</g>
</g>
<!-- Node2&#45;&gt;Node3 -->
<g id="edge2" class="edge">
<title>Node2&#45;&gt;Node3</title>
<path fill="none" stroke="#63b8ff" d="M2380.73,-220.56C2018.37,-210.29 622.72,-170.75 282.91,-161.12"/>
<polygon fill="#63b8ff" stroke="#63b8ff" points="2380.55,-224.05 2390.65,-220.84 2380.75,-217.05 2380.55,-224.05"/>
</g>
<!-- Node241 -->
<g id="node6" class="node">
<title>Node241</title>
<g id="a_node6"><a xlink:href="d__cc__d_8h.html" target="_top" xlink:title=" ">
<polygon fill="#fff0f0" stroke="red" points="2522.5,-167.5 2411.5,-167.5 2411.5,-148.5 2522.5,-148.5 2522.5,-167.5"/>
<text text-anchor="middle" x="2467" y="-155.5" font-family="Helvetica,sans-Serif" font-size="10.00">include/d/cc/d_cc_d.h</text>
</a>
</g>
</g>
<!-- Node2&#45;&gt;Node241 -->
<g id="edge5" class="edge">
<title>Node2&#45;&gt;Node241</title>
<path fill="none" stroke="#63b8ff" d="M2467,-197.59C2467,-187.06 2467,-175.53 2467,-167.84"/>
<polygon fill="#63b8ff" stroke="#63b8ff" points="2463.5,-197.28 2467,-207.28 2470.5,-197.28 2463.5,-197.28"/>
</g>
<!-- Node276 -->
<g id="node44" class="node">
<title>Node276</title>
<g id="a_node44"><a xlink:href="d__cc__mass__s_8h.html" target="_top" xlink:title=" ">
<polygon fill="#fff0f0" stroke="red" points="1417,-167.5 1277,-167.5 1277,-148.5 1417,-148.5 1417,-167.5"/>
<text text-anchor="middle" x="1347" y="-155.5" font-family="Helvetica,sans-Serif" font-size="10.00">include/d/cc/d_cc_mass_s.h</text>
</a>
</g>
</g>
<!-- Node2&#45;&gt;Node276 -->
<g id="edge44" class="edge">
<title>Node2&#45;&gt;Node276</title>
<path fill="none" stroke="#63b8ff" d="M2380.73,-218.07C2166.51,-205.83 1613.42,-174.22 1417.27,-163.02"/>
<polygon fill="#63b8ff" stroke="#63b8ff" points="2380.52,-221.56 2390.7,-218.64 2380.92,-214.58 2380.52,-221.56"/>
</g>
<!-- Node277 -->
<g id="node45" class="node">
<title>Node277</title>
<g id="a_node45"><a xlink:href="c__cc__d_8cpp.html" target="_top" xlink:title=" ">
<polygon fill="white" stroke="#666666" points="2675,-173 2541,-173 2541,-143 2675,-143 2675,-173"/>
<text text-anchor="start" x="2549" y="-161" font-family="Helvetica,sans-Serif" font-size="10.00">libs/SSystem/SComponent</text>
<text text-anchor="middle" x="2608" y="-150" font-family="Helvetica,sans-Serif" font-size="10.00">/c_cc_d.cpp</text>
</a>
</g>
</g>
<!-- Node2&#45;&gt;Node277 -->
<g id="edge46" class="edge">
<title>Node2&#45;&gt;Node277</title>
<path fill="none" stroke="#63b8ff" d="M2508.88,-203.99C2530.53,-194.16 2556.53,-182.36 2576.46,-173.31"/>
<polygon fill="#63b8ff" stroke="#63b8ff" points="2507.68,-200.69 2500.02,-208.01 2510.57,-207.07 2507.68,-200.69"/>
</g>
<!-- Node4 -->
<g id="node4" class="node">
<title>Node4</title>
<g id="a_node4"><a xlink:href="d__cc__s_8h.html" target="_top" xlink:title=" ">
<polygon fill="#fff0f0" stroke="red" points="263.5,-96 152.5,-96 152.5,-77 263.5,-77 263.5,-96"/>
<text text-anchor="middle" x="208" y="-84" font-family="Helvetica,sans-Serif" font-size="10.00">include/d/cc/d_cc_s.h</text>
</a>
</g>
</g>
<!-- Node3&#45;&gt;Node4 -->
<g id="edge3" class="edge">
<title>Node3&#45;&gt;Node4</title>
<path fill="none" stroke="#63b8ff" d="M208,-131.46C208,-119.07 208,-104.99 208,-96.18"/>
<polygon fill="#63b8ff" stroke="#63b8ff" points="204.5,-131.09 208,-141.09 211.5,-131.09 204.5,-131.09"/>
</g>
<!-- Node240 -->
<g id="node5" class="node">
<title>Node240</title>
<g id="a_node5"><a xlink:href="c__cc__s_8cpp.html" target="_top" xlink:title=" ">
<polygon fill="white" stroke="#666666" points="134,-101.5 0,-101.5 0,-71.5 134,-71.5 134,-101.5"/>
<text text-anchor="start" x="8" y="-89.5" font-family="Helvetica,sans-Serif" font-size="10.00">libs/SSystem/SComponent</text>
<text text-anchor="middle" x="67" y="-78.5" font-family="Helvetica,sans-Serif" font-size="10.00">/c_cc_s.cpp</text>
</a>
</g>
</g>
<!-- Node3&#45;&gt;Node240 -->
<g id="edge4" class="edge">
<title>Node3&#45;&gt;Node240</title>
<path fill="none" stroke="#63b8ff" d="M168.66,-137.61C145.67,-126.28 117.15,-112.22 96.18,-101.88"/>
<polygon fill="#63b8ff" stroke="#63b8ff" points="166.91,-140.65 177.43,-141.93 170,-134.37 166.91,-140.65"/>
</g>
<!-- Node72 -->
<g id="node7" class="node">
<title>Node72</title>
<g id="a_node7"><a xlink:href="d__a__alink_8h.html" target="_top" xlink:title=" ">
<polygon fill="#fff0f0" stroke="red" points="398,-96 282,-96 282,-77 398,-77 398,-96"/>
<text text-anchor="middle" x="340" y="-84" font-family="Helvetica,sans-Serif" font-size="10.00">include/d/a/d_a_alink.h</text>
</a>
</g>
</g>
<!-- Node241&#45;&gt;Node72 -->
<g id="edge6" class="edge">
<title>Node241&#45;&gt;Node72</title>
<path fill="none" stroke="#63b8ff" d="M2399.67,-156.32C2067.58,-152.85 612.03,-136.09 412,-107 396.88,-104.8 380.4,-100.49 367.03,-96.47"/>
<polygon fill="#63b8ff" stroke="#63b8ff" points="2399.46,-159.82 2409.49,-156.42 2399.53,-152.82 2399.46,-159.82"/>
</g>
<!-- Node242 -->
<g id="node8" class="node">
<title>Node242</title>
<g id="a_node8"><a xlink:href="d__a__item__static_8h.html" target="_top" xlink:title=" ">
<polygon fill="#fff0f0" stroke="red" points="527.5,-30 420.5,-30 420.5,0 527.5,0 527.5,-30"/>
<text text-anchor="start" x="428.5" y="-18" font-family="Helvetica,sans-Serif" font-size="10.00">include/d/a/d_a_item</text>
<text text-anchor="middle" x="474" y="-7" font-family="Helvetica,sans-Serif" font-size="10.00">_static.h</text>
</a>
</g>
</g>
<!-- Node241&#45;&gt;Node242 -->
<g id="edge7" class="edge">
<title>Node241&#45;&gt;Node242</title>
<path fill="none" stroke="#63b8ff" d="M2399.66,-155.97C2050.6,-150.54 462.46,-124.9 445,-107 424.39,-85.87 446.46,-50.13 461.82,-30.31"/>
<polygon fill="#63b8ff" stroke="#63b8ff" points="2399.51,-159.47 2409.56,-156.12 2399.61,-152.47 2399.51,-159.47"/>
</g>
<!-- Node246 -->
<g id="node9" class="node">
<title>Node246</title>
<g id="a_node9"><a xlink:href="d__a__itembase_8h.html" target="_top" xlink:title=" ">
<polygon fill="#fff0f0" stroke="red" points="589.5,-96 454.5,-96 454.5,-77 589.5,-77 589.5,-96"/>
<text text-anchor="middle" x="522" y="-84" font-family="Helvetica,sans-Serif" font-size="10.00">include/d/a/d_a_itembase.h</text>
</a>
</g>
</g>
<!-- Node241&#45;&gt;Node246 -->
<g id="edge8" class="edge">
<title>Node241&#45;&gt;Node246</title>
<path fill="none" stroke="#63b8ff" d="M2400.28,-156.1C2088.07,-151.79 779,-132.31 598,-107 582.08,-104.77 564.69,-100.46 550.57,-96.45"/>
<polygon fill="#63b8ff" stroke="#63b8ff" points="2399.83,-159.6 2409.88,-156.24 2399.93,-152.6 2399.83,-159.6"/>
</g>
<!-- Node253 -->
<g id="node10" class="node">
<title>Node253</title>
<g id="a_node10"><a xlink:href="d__bomb_8h.html" target="_top" xlink:title=" ">
<polygon fill="#fff0f0" stroke="red" points="708.5,-96 607.5,-96 607.5,-77 708.5,-77 708.5,-96"/>
<text text-anchor="middle" x="658" y="-84" font-family="Helvetica,sans-Serif" font-size="10.00">include/d/d_bomb.h</text>
</a>
</g>
</g>
<!-- Node241&#45;&gt;Node253 -->
<g id="edge10" class="edge">
<title>Node241&#45;&gt;Node253</title>
<path fill="none" stroke="#63b8ff" d="M2400.18,-156.22C2100.26,-152.55 885.71,-136.03 718,-107 705.26,-104.8 691.52,-100.48 680.41,-96.47"/>
<polygon fill="#63b8ff" stroke="#63b8ff" points="2399.74,-159.71 2409.78,-156.33 2399.82,-152.71 2399.74,-159.71"/>
</g>
<!-- Node23 -->
<g id="node11" class="node">
<title>Node23</title>
<g id="a_node11"><a xlink:href="d__a__b__gnd_8h.html" target="_top" xlink:title=" ">
<polygon fill="white" stroke="#666666" points="843,-101.5 727,-101.5 727,-71.5 843,-71.5 843,-101.5"/>
<text text-anchor="start" x="735" y="-89.5" font-family="Helvetica,sans-Serif" font-size="10.00">include/rel/d/a/b/d</text>
<text text-anchor="middle" x="785" y="-78.5" font-family="Helvetica,sans-Serif" font-size="10.00">_a_b_gnd/d_a_b_gnd.h</text>
</a>
</g>
</g>
<!-- Node241&#45;&gt;Node23 -->
<g id="edge11" class="edge">
<title>Node241&#45;&gt;Node23</title>
<path fill="none" stroke="#63b8ff" d="M2399.82,-155.92C2113.94,-151.19 1006.23,-131.43 852,-107 844.34,-105.79 836.33,-103.96 828.61,-101.91"/>
<polygon fill="#63b8ff" stroke="#63b8ff" points="2399.66,-159.42 2409.72,-156.08 2399.78,-152.42 2399.66,-159.42"/>
</g>
<!-- Node255 -->
<g id="node12" class="node">
<title>Node255</title>
<g id="a_node12"><a xlink:href="d__a__arrow_8h.html" target="_top" xlink:title=" ">
<polygon fill="white" stroke="#666666" points="962.5,-101.5 861.5,-101.5 861.5,-71.5 962.5,-71.5 962.5,-101.5"/>
<text text-anchor="start" x="869.5" y="-89.5" font-family="Helvetica,sans-Serif" font-size="10.00">include/rel/d/a/d_a</text>
<text text-anchor="middle" x="912" y="-78.5" font-family="Helvetica,sans-Serif" font-size="10.00">_arrow/d_a_arrow.h</text>
</a>
</g>
</g>
<!-- Node241&#45;&gt;Node255 -->
<g id="edge12" class="edge">
<title>Node241&#45;&gt;Node255</title>
<path fill="none" stroke="#63b8ff" d="M2399.92,-157.25C2147.11,-157.81 1252.09,-156.19 972,-107 965.1,-105.79 957.89,-103.96 950.97,-101.91"/>
<polygon fill="#63b8ff" stroke="#63b8ff" points="2399.61,-160.75 2409.61,-157.23 2399.6,-153.75 2399.61,-160.75"/>
</g>
<!-- Node256 -->
<g id="node13" class="node">
<title>Node256</title>
<g id="a_node13"><a xlink:href="d__a__bg__obj_8h.html" target="_top" xlink:title=" ">
<polygon fill="white" stroke="#666666" points="1091,-101.5 981,-101.5 981,-71.5 1091,-71.5 1091,-101.5"/>
<text text-anchor="start" x="989" y="-89.5" font-family="Helvetica,sans-Serif" font-size="10.00">include/rel/d/a/d_a</text>
<text text-anchor="middle" x="1036" y="-78.5" font-family="Helvetica,sans-Serif" font-size="10.00">_bg_obj/d_a_bg_obj.h</text>
</a>
</g>
</g>
<!-- Node241&#45;&gt;Node256 -->
<g id="edge13" class="edge">
<title>Node241&#45;&gt;Node256</title>
<path fill="none" stroke="#63b8ff" d="M2399.82,-156.84C2161.08,-155.92 1354.35,-149.65 1100,-107 1092.78,-105.79 1085.24,-103.99 1077.97,-101.97"/>
<polygon fill="#63b8ff" stroke="#63b8ff" points="2399.56,-160.34 2409.57,-156.88 2399.59,-153.34 2399.56,-160.34"/>
</g>
<!-- Node77 -->
<g id="node14" class="node">
<title>Node77</title>
<g id="a_node14"><a xlink:href="d__a__boomerang_8h.html" target="_top" xlink:title=" ">
<polygon fill="#fff0f0" stroke="red" points="1258.5,-101.5 1109.5,-101.5 1109.5,-71.5 1258.5,-71.5 1258.5,-101.5"/>
<text text-anchor="start" x="1117.5" y="-89.5" font-family="Helvetica,sans-Serif" font-size="10.00">include/rel/d/a/d_a</text>
<text text-anchor="middle" x="1184" y="-78.5" font-family="Helvetica,sans-Serif" font-size="10.00">_boomerang/d_a_boomerang.h</text>
</a>
</g>
</g>
<!-- Node241&#45;&gt;Node77 -->
<g id="edge14" class="edge">
<title>Node241&#45;&gt;Node77</title>
<path fill="none" stroke="#63b8ff" d="M2399.88,-155.85C2181,-151.83 1489.33,-137.04 1268,-107 1258.8,-105.75 1249.13,-103.96 1239.76,-101.97"/>
<polygon fill="#63b8ff" stroke="#63b8ff" points="2399.59,-159.34 2409.66,-156.03 2399.72,-152.34 2399.59,-159.34"/>
</g>
<!-- Node257 -->
<g id="node15" class="node">
<title>Node257</title>
<g id="a_node15"><a xlink:href="d__a__canoe_8h.html" target="_top" xlink:title=" ">
<polygon fill="white" stroke="#666666" points="1383,-101.5 1277,-101.5 1277,-71.5 1383,-71.5 1383,-101.5"/>
<text text-anchor="start" x="1285" y="-89.5" font-family="Helvetica,sans-Serif" font-size="10.00">include/rel/d/a/d_a</text>
<text text-anchor="middle" x="1330" y="-78.5" font-family="Helvetica,sans-Serif" font-size="10.00">_canoe/d_a_canoe.h</text>
</a>
</g>
</g>
<!-- Node241&#45;&gt;Node257 -->
<g id="edge15" class="edge">
<title>Node241&#45;&gt;Node257</title>
<path fill="none" stroke="#63b8ff" d="M2399.6,-156.14C2195.6,-153.17 1586.89,-141.58 1392,-107 1385,-105.76 1377.69,-103.95 1370.65,-101.92"/>
<polygon fill="#63b8ff" stroke="#63b8ff" points="2399.46,-159.64 2409.5,-156.28 2399.56,-152.64 2399.46,-159.64"/>
</g>
<!-- Node258 -->
<g id="node16" class="node">
<title>Node258</title>
<g id="a_node16"><a xlink:href="d__a__crod_8h.html" target="_top" xlink:title=" ">
<polygon fill="#fff0f0" stroke="red" points="1497,-101.5 1401,-101.5 1401,-71.5 1497,-71.5 1497,-101.5"/>
<text text-anchor="start" x="1409" y="-89.5" font-family="Helvetica,sans-Serif" font-size="10.00">include/rel/d/a/d_a</text>
<text text-anchor="middle" x="1449" y="-78.5" font-family="Helvetica,sans-Serif" font-size="10.00">_crod/d_a_crod.h</text>
</a>
</g>
</g>
<!-- Node241&#45;&gt;Node258 -->
<g id="edge16" class="edge">
<title>Node241&#45;&gt;Node258</title>
<path fill="none" stroke="#63b8ff" d="M2399.71,-155.92C2210.71,-152.51 1677.62,-140.15 1506,-107 1499.53,-105.75 1492.79,-103.93 1486.31,-101.91"/>
<polygon fill="#63b8ff" stroke="#63b8ff" points="2399.55,-159.42 2409.61,-156.1 2399.68,-152.42 2399.55,-159.42"/>
</g>
<!-- Node79 -->
<g id="node17" class="node">
<title>Node79</title>
<g id="a_node17"><a xlink:href="d__a__cstatue_8h.html" target="_top" xlink:title=" ">
<polygon fill="white" stroke="#666666" points="1633,-101.5 1515,-101.5 1515,-71.5 1633,-71.5 1633,-101.5"/>
<text text-anchor="start" x="1523" y="-89.5" font-family="Helvetica,sans-Serif" font-size="10.00">include/rel/d/a/d_a</text>
<text text-anchor="middle" x="1574" y="-78.5" font-family="Helvetica,sans-Serif" font-size="10.00">_cstatue/d_a_cstatue.h</text>
</a>
</g>
</g>
<!-- Node241&#45;&gt;Node79 -->
<g id="edge17" class="edge">
<title>Node241&#45;&gt;Node79</title>
<path fill="none" stroke="#63b8ff" d="M2400.05,-157.87C2258.84,-158.64 1920.56,-154.79 1642,-107 1634.5,-105.71 1626.64,-103.9 1619.04,-101.9"/>
<polygon fill="#63b8ff" stroke="#63b8ff" points="2400,-161.37 2409.98,-157.81 2399.95,-154.37 2400,-161.37"/>
</g>
<!-- Node259 -->
<g id="node18" class="node">
<title>Node259</title>
<g id="a_node18"><a xlink:href="d__a__horse_8h.html" target="_top" xlink:title=" ">
<polygon fill="#fff0f0" stroke="red" points="1752.5,-101.5 1651.5,-101.5 1651.5,-71.5 1752.5,-71.5 1752.5,-101.5"/>
<text text-anchor="start" x="1659.5" y="-89.5" font-family="Helvetica,sans-Serif" font-size="10.00">include/rel/d/a/d_a</text>
<text text-anchor="middle" x="1702" y="-78.5" font-family="Helvetica,sans-Serif" font-size="10.00">_horse/d_a_horse.h</text>
</a>
</g>
</g>
<!-- Node241&#45;&gt;Node259 -->
<g id="edge18" class="edge">
<title>Node241&#45;&gt;Node259</title>
<path fill="none" stroke="#63b8ff" d="M2399.73,-157.64C2273.49,-157.65 1992.95,-152.02 1762,-107 1755.44,-105.72 1748.6,-103.95 1741.99,-101.98"/>
<polygon fill="#63b8ff" stroke="#63b8ff" points="2399.59,-161.14 2409.59,-157.63 2399.58,-154.14 2399.59,-161.14"/>
</g>
<!-- Node260 -->
<g id="node20" class="node">
<title>Node260</title>
<g id="a_node20"><a xlink:href="d__a__myna_8h.html" target="_top" xlink:title=" ">
<polygon fill="white" stroke="#666666" points="1871,-101.5 1771,-101.5 1771,-71.5 1871,-71.5 1871,-101.5"/>
<text text-anchor="start" x="1779" y="-89.5" font-family="Helvetica,sans-Serif" font-size="10.00">include/rel/d/a/d_a</text>
<text text-anchor="middle" x="1821" y="-78.5" font-family="Helvetica,sans-Serif" font-size="10.00">_myna/d_a_myna.h</text>
</a>
</g>
</g>
<!-- Node241&#45;&gt;Node260 -->
<g id="edge20" class="edge">
<title>Node241&#45;&gt;Node260</title>
<path fill="none" stroke="#63b8ff" d="M2400.14,-156.37C2290.43,-154.22 2065.8,-145.07 1880,-107 1873.55,-105.68 1866.83,-103.88 1860.33,-101.91"/>
<polygon fill="#63b8ff" stroke="#63b8ff" points="2399.78,-159.87 2409.84,-156.55 2399.9,-152.87 2399.78,-159.87"/>
</g>
<!-- Node261 -->
<g id="node21" class="node">
<title>Node261</title>
<g id="a_node21"><a xlink:href="d__a__tbox_8h.html" target="_top" xlink:title=" ">
<polygon fill="#fff0f0" stroke="red" points="1985,-101.5 1889,-101.5 1889,-71.5 1985,-71.5 1985,-101.5"/>
<text text-anchor="start" x="1897" y="-89.5" font-family="Helvetica,sans-Serif" font-size="10.00">include/rel/d/a/d_a</text>
<text text-anchor="middle" x="1937" y="-78.5" font-family="Helvetica,sans-Serif" font-size="10.00">_tbox/d_a_tbox.h</text>
</a>
</g>
</g>
<!-- Node241&#45;&gt;Node261 -->
<g id="edge21" class="edge">
<title>Node241&#45;&gt;Node261</title>
<path fill="none" stroke="#63b8ff" d="M2399.58,-154.62C2307.14,-150.29 2136.28,-138.44 1994,-107 1987.87,-105.65 1981.49,-103.86 1975.3,-101.91"/>
<polygon fill="#63b8ff" stroke="#63b8ff" points="2399.35,-158.12 2409.5,-155.07 2399.66,-151.12 2399.35,-158.12"/>
</g>
<!-- Node262 -->
<g id="node22" class="node">
<title>Node262</title>
<g id="a_node22"><a xlink:href="d__a__e__sm2_8h.html" target="_top" xlink:title=" ">
<polygon fill="white" stroke="#666666" points="2125,-101.5 2003,-101.5 2003,-71.5 2125,-71.5 2125,-101.5"/>
<text text-anchor="start" x="2011" y="-89.5" font-family="Helvetica,sans-Serif" font-size="10.00">include/rel/d/a/e/d</text>
<text text-anchor="middle" x="2064" y="-78.5" font-family="Helvetica,sans-Serif" font-size="10.00">_a_e_sm2/d_a_e_sm2.h</text>
</a>
</g>
</g>
<!-- Node241&#45;&gt;Node262 -->
<g id="edge22" class="edge">
<title>Node241&#45;&gt;Node262</title>
<path fill="none" stroke="#63b8ff" d="M2399.92,-149.38C2332.36,-141.14 2225.34,-126.5 2134,-107 2127.09,-105.52 2119.86,-103.76 2112.77,-101.91"/>
<polygon fill="#63b8ff" stroke="#63b8ff" points="2399.39,-152.84 2409.74,-150.57 2400.23,-145.89 2399.39,-152.84"/>
</g>
<!-- Node263 -->
<g id="node23" class="node">
<title>Node263</title>
<g id="a_node23"><a xlink:href="d__a__obj__barDesk_8h.html" target="_top" xlink:title=" ">
<polygon fill="white" stroke="#666666" points="2256.5,-107 2143.5,-107 2143.5,-66 2256.5,-66 2256.5,-107"/>
<text text-anchor="start" x="2151.5" y="-95" font-family="Helvetica,sans-Serif" font-size="10.00">include/rel/d/a/obj</text>
<text text-anchor="start" x="2151.5" y="-84" font-family="Helvetica,sans-Serif" font-size="10.00">/d_a_obj_barDesk/d_a</text>
<text text-anchor="middle" x="2200" y="-73" font-family="Helvetica,sans-Serif" font-size="10.00">_obj_barDesk.h</text>
</a>
</g>
</g>
<!-- Node241&#45;&gt;Node263 -->
<g id="edge23" class="edge">
<title>Node241&#45;&gt;Node263</title>
<path fill="none" stroke="#63b8ff" d="M2418.1,-145.46C2377.3,-135.69 2317.7,-121.06 2266,-107 2263,-106.18 2259.93,-105.33 2256.84,-104.46"/>
<polygon fill="#63b8ff" stroke="#63b8ff" points="2417.07,-148.82 2427.61,-147.74 2418.7,-142.01 2417.07,-148.82"/>
</g>
<!-- Node102 -->
<g id="node24" class="node">
<title>Node102</title>
<g id="a_node24"><a xlink:href="d__a__obj__bbox_8h.html" target="_top" xlink:title=" ">
<polygon fill="white" stroke="#666666" points="2391,-107 2275,-107 2275,-66 2391,-66 2391,-107"/>
<text text-anchor="start" x="2283" y="-95" font-family="Helvetica,sans-Serif" font-size="10.00">include/rel/d/a/obj</text>
<text text-anchor="start" x="2283" y="-84" font-family="Helvetica,sans-Serif" font-size="10.00">/d_a_obj_bbox/d_a_obj</text>
<text text-anchor="middle" x="2333" y="-73" font-family="Helvetica,sans-Serif" font-size="10.00">_bbox.h</text>
</a>
</g>
</g>
<!-- Node241&#45;&gt;Node102 -->
<g id="edge24" class="edge">
<title>Node241&#45;&gt;Node102</title>
<path fill="none" stroke="#63b8ff" d="M2439.66,-142.82C2420.05,-132.65 2393.34,-118.8 2371.56,-107.5"/>
<polygon fill="#63b8ff" stroke="#63b8ff" points="2437.92,-145.86 2448.41,-147.36 2441.15,-139.65 2437.92,-145.86"/>
</g>
<!-- Node104 -->
<g id="node25" class="node">
<title>Node104</title>
<g id="a_node25"><a xlink:href="d__a__obj__carry_8h.html" target="_top" xlink:title=" ">
<polygon fill="#fff0f0" stroke="red" points="2525,-107 2409,-107 2409,-66 2525,-66 2525,-107"/>
<text text-anchor="start" x="2417" y="-95" font-family="Helvetica,sans-Serif" font-size="10.00">include/rel/d/a/obj</text>
<text text-anchor="start" x="2417" y="-84" font-family="Helvetica,sans-Serif" font-size="10.00">/d_a_obj_carry/d_a_obj</text>
<text text-anchor="middle" x="2467" y="-73" font-family="Helvetica,sans-Serif" font-size="10.00">_carry.h</text>
</a>
</g>
</g>
<!-- Node241&#45;&gt;Node104 -->
<g id="edge25" class="edge">
<title>Node241&#45;&gt;Node104</title>
<path fill="none" stroke="#63b8ff" d="M2467,-136.89C2467,-127.59 2467,-116.56 2467,-107.29"/>
<polygon fill="#63b8ff" stroke="#63b8ff" points="2463.5,-136.68 2467,-146.68 2470.5,-136.68 2463.5,-136.68"/>
</g>
<!-- Node264 -->
<g id="node26" class="node">
<title>Node264</title>
<g id="a_node26"><a xlink:href="d__a__obj__crope_8h.html" target="_top" xlink:title=" ">
<polygon fill="white" stroke="#666666" points="2662.5,-107 2543.5,-107 2543.5,-66 2662.5,-66 2662.5,-107"/>
<text text-anchor="start" x="2551.5" y="-95" font-family="Helvetica,sans-Serif" font-size="10.00">include/rel/d/a/obj</text>
<text text-anchor="start" x="2551.5" y="-84" font-family="Helvetica,sans-Serif" font-size="10.00">/d_a_obj_crope/d_a_obj</text>
<text text-anchor="middle" x="2603" y="-73" font-family="Helvetica,sans-Serif" font-size="10.00">_crope.h</text>
</a>
</g>
</g>
<!-- Node241&#45;&gt;Node264 -->
<g id="edge26" class="edge">
<title>Node241&#45;&gt;Node264</title>
<path fill="none" stroke="#63b8ff" d="M2494.74,-142.82C2514.66,-132.65 2541.76,-118.8 2563.87,-107.5"/>
<polygon fill="#63b8ff" stroke="#63b8ff" points="2493.16,-139.7 2485.85,-147.37 2496.35,-145.93 2493.16,-139.7"/>
</g>
<!-- Node112 -->
<g id="node27" class="node">
<title>Node112</title>
<g id="a_node27"><a xlink:href="d__a__obj__fireWood_8h.html" target="_top" xlink:title=" ">
<polygon fill="white" stroke="#666666" points="2785,-107 2681,-107 2681,-66 2785,-66 2785,-107"/>
<text text-anchor="start" x="2689" y="-95" font-family="Helvetica,sans-Serif" font-size="10.00">include/rel/d/a/obj</text>
<text text-anchor="start" x="2689" y="-84" font-family="Helvetica,sans-Serif" font-size="10.00">/d_a_obj_fireWood/d</text>
<text text-anchor="middle" x="2733" y="-73" font-family="Helvetica,sans-Serif" font-size="10.00">_a_obj_fireWood.h</text>
</a>
</g>
</g>
<!-- Node241&#45;&gt;Node112 -->
<g id="edge27" class="edge">
<title>Node241&#45;&gt;Node112</title>
<path fill="none" stroke="#63b8ff" d="M2517.85,-145.49C2559.27,-135.89 2619.16,-121.49 2671,-107 2674.15,-106.12 2677.38,-105.19 2680.64,-104.23"/>
<polygon fill="#63b8ff" stroke="#63b8ff" points="2517.12,-142.07 2508.16,-147.73 2518.69,-148.89 2517.12,-142.07"/>
</g>
<!-- Node115 -->
<g id="node28" class="node">
<title>Node115</title>
<g id="a_node28"><a xlink:href="d__a__obj__graWall_8h.html" target="_top" xlink:title=" ">
<polygon fill="white" stroke="#666666" points="2913,-107 2803,-107 2803,-66 2913,-66 2913,-107"/>
<text text-anchor="start" x="2811" y="-95" font-family="Helvetica,sans-Serif" font-size="10.00">include/rel/d/a/obj</text>
<text text-anchor="start" x="2811" y="-84" font-family="Helvetica,sans-Serif" font-size="10.00">/d_a_obj_graWall/d_a</text>
<text text-anchor="middle" x="2858" y="-73" font-family="Helvetica,sans-Serif" font-size="10.00">_obj_graWall.h</text>
</a>
</g>
</g>
<!-- Node241&#45;&gt;Node115 -->
<g id="edge28" class="edge">
<title>Node241&#45;&gt;Node115</title>
<path fill="none" stroke="#63b8ff" d="M2517.65,-145.7C2522.49,-144.74 2527.33,-143.82 2532,-143 2647.76,-122.61 2679.2,-132.21 2794,-107 2796.84,-106.38 2799.73,-105.69 2802.64,-104.96"/>
<polygon fill="#63b8ff" stroke="#63b8ff" points="2517.01,-142.26 2507.92,-147.7 2518.42,-149.12 2517.01,-142.26"/>
</g>
<!-- Node84 -->
<g id="node29" class="node">
<title>Node84</title>
<g id="a_node29"><a xlink:href="d__a__obj__grave__stone_8h.html" target="_top" xlink:title=" ">
<polygon fill="white" stroke="#666666" points="3050.5,-107 2931.5,-107 2931.5,-66 3050.5,-66 3050.5,-107"/>
<text text-anchor="start" x="2939.5" y="-95" font-family="Helvetica,sans-Serif" font-size="10.00">include/rel/d/a/obj</text>
<text text-anchor="start" x="2939.5" y="-84" font-family="Helvetica,sans-Serif" font-size="10.00">/d_a_obj_grave_stone</text>
<text text-anchor="middle" x="2991" y="-73" font-family="Helvetica,sans-Serif" font-size="10.00">/d_a_obj_grave_stone.h</text>
</a>
</g>
</g>
<!-- Node241&#45;&gt;Node84 -->
<g id="edge29" class="edge">
<title>Node241&#45;&gt;Node84</title>
<path fill="none" stroke="#63b8ff" d="M2515.96,-145.8C2521.36,-144.76 2526.78,-143.8 2532,-143 2704.06,-116.63 2750.86,-138.8 2922,-107 2925.06,-106.43 2928.18,-105.79 2931.32,-105.09"/>
<polygon fill="#63b8ff" stroke="#63b8ff" points="2515.6,-142.3 2506.49,-147.71 2516.99,-149.16 2515.6,-142.3"/>
</g>
<!-- Node265 -->
<g id="node30" class="node">
<title>Node265</title>
<g id="a_node30"><a xlink:href="d__a__obj__hbombkoya_8h.html" target="_top" xlink:title=" ">
<polygon fill="white" stroke="#666666" points="3185,-107 3069,-107 3069,-66 3185,-66 3185,-107"/>
<text text-anchor="start" x="3077" y="-95" font-family="Helvetica,sans-Serif" font-size="10.00">include/rel/d/a/obj</text>
<text text-anchor="start" x="3077" y="-84" font-family="Helvetica,sans-Serif" font-size="10.00">/d_a_obj_hbombkoya/d</text>
<text text-anchor="middle" x="3127" y="-73" font-family="Helvetica,sans-Serif" font-size="10.00">_a_obj_hbombkoya.h</text>
</a>
</g>
</g>
<!-- Node241&#45;&gt;Node265 -->
<g id="edge30" class="edge">
<title>Node241&#45;&gt;Node265</title>
<path fill="none" stroke="#63b8ff" d="M2515.52,-145.75C2521.06,-144.71 2526.64,-143.76 2532,-143 2764.47,-110.2 2827.77,-147.58 3059,-107 3062.15,-106.45 3065.35,-105.81 3068.58,-105.1"/>
<polygon fill="#63b8ff" stroke="#63b8ff" points="2514.9,-142.31 2505.78,-147.71 2516.28,-149.17 2514.9,-142.31"/>
</g>
<!-- Node266 -->
<g id="node31" class="node">
<title>Node266</title>
<g id="a_node31"><a xlink:href="d__a__obj__iceleaf_8h.html" target="_top" xlink:title=" ">
<polygon fill="white" stroke="#666666" points="3309,-107 3203,-107 3203,-66 3309,-66 3309,-107"/>
<text text-anchor="start" x="3211" y="-95" font-family="Helvetica,sans-Serif" font-size="10.00">include/rel/d/a/obj</text>
<text text-anchor="start" x="3211" y="-84" font-family="Helvetica,sans-Serif" font-size="10.00">/d_a_obj_iceleaf/d_a</text>
<text text-anchor="middle" x="3256" y="-73" font-family="Helvetica,sans-Serif" font-size="10.00">_obj_iceleaf.h</text>
</a>
</g>
</g>
<!-- Node241&#45;&gt;Node266 -->
<g id="edge31" class="edge">
<title>Node241&#45;&gt;Node266</title>
<path fill="none" stroke="#63b8ff" d="M2514.64,-145.84C2520.47,-144.74 2526.35,-143.76 2532,-143 2824.05,-103.86 2904.08,-159.61 3194,-107 3196.89,-106.48 3199.83,-105.86 3202.78,-105.17"/>
<polygon fill="#63b8ff" stroke="#63b8ff" points="2514.2,-142.36 2505.09,-147.76 2515.58,-149.22 2514.2,-142.36"/>
</g>
<!-- Node267 -->
<g id="node32" class="node">
<title>Node267</title>
<g id="a_node32"><a xlink:href="d__a__obj__lv1Candle00_8h.html" target="_top" xlink:title=" ">
<polygon fill="white" stroke="#666666" points="3446.5,-107 3327.5,-107 3327.5,-66 3446.5,-66 3446.5,-107"/>
<text text-anchor="start" x="3335.5" y="-95" font-family="Helvetica,sans-Serif" font-size="10.00">include/rel/d/a/obj</text>
<text text-anchor="start" x="3335.5" y="-84" font-family="Helvetica,sans-Serif" font-size="10.00">/d_a_obj_lv1Candle00</text>
<text text-anchor="middle" x="3387" y="-73" font-family="Helvetica,sans-Serif" font-size="10.00">/d_a_obj_lv1Candle00.h</text>
</a>
</g>
</g>
<!-- Node241&#45;&gt;Node267 -->
<g id="edge32" class="edge">
<title>Node241&#45;&gt;Node267</title>
<path fill="none" stroke="#63b8ff" d="M2514.64,-145.79C2520.46,-144.7 2526.35,-143.73 2532,-143 2878.8,-98.03 2972.8,-162.92 3318,-107 3321.07,-106.5 3324.2,-105.92 3327.35,-105.26"/>
<polygon fill="#63b8ff" stroke="#63b8ff" points="2514.2,-142.31 2505.08,-147.71 2515.57,-149.18 2514.2,-142.31"/>
</g>
<!-- Node268 -->
<g id="node33" class="node">
<title>Node268</title>
<g id="a_node33"><a xlink:href="d__a__obj__lv1Candle01_8h.html" target="_top" xlink:title=" ">
<polygon fill="white" stroke="#666666" points="3583.5,-107 3464.5,-107 3464.5,-66 3583.5,-66 3583.5,-107"/>
<text text-anchor="start" x="3472.5" y="-95" font-family="Helvetica,sans-Serif" font-size="10.00">include/rel/d/a/obj</text>
<text text-anchor="start" x="3472.5" y="-84" font-family="Helvetica,sans-Serif" font-size="10.00">/d_a_obj_lv1Candle01</text>
<text text-anchor="middle" x="3524" y="-73" font-family="Helvetica,sans-Serif" font-size="10.00">/d_a_obj_lv1Candle01.h</text>
</a>
</g>
</g>
<!-- Node241&#45;&gt;Node268 -->
<g id="edge33" class="edge">
<title>Node241&#45;&gt;Node268</title>
<path fill="none" stroke="#63b8ff" d="M2514.42,-145.8C2520.31,-144.7 2526.28,-143.72 2532,-143 2939.3,-91.59 3049.53,-171.27 3455,-107 3458.07,-106.51 3461.21,-105.93 3464.35,-105.29"/>
<polygon fill="#63b8ff" stroke="#63b8ff" points="2513.85,-142.34 2504.73,-147.73 2515.23,-149.2 2513.85,-142.34"/>
</g>
<!-- Node269 -->
<g id="node34" class="node">
<title>Node269</title>
<g id="a_node34"><a xlink:href="d__a__obj__lv2Candle_8h.html" target="_top" xlink:title=" ">
<polygon fill="white" stroke="#666666" points="3712,-107 3602,-107 3602,-66 3712,-66 3712,-107"/>
<text text-anchor="start" x="3610" y="-95" font-family="Helvetica,sans-Serif" font-size="10.00">include/rel/d/a/obj</text>
<text text-anchor="start" x="3610" y="-84" font-family="Helvetica,sans-Serif" font-size="10.00">/d_a_obj_lv2Candle/d</text>
<text text-anchor="middle" x="3657" y="-73" font-family="Helvetica,sans-Serif" font-size="10.00">_a_obj_lv2Candle.h</text>
</a>
</g>
</g>
<!-- Node241&#45;&gt;Node269 -->
<g id="edge34" class="edge">
<title>Node241&#45;&gt;Node269</title>
<path fill="none" stroke="#63b8ff" d="M2513.74,-145.89C2519.85,-144.75 2526.06,-143.73 2532,-143 2999.82,-85.14 3126.84,-183.36 3592,-107 3595.14,-106.48 3598.34,-105.86 3601.55,-105.16"/>
<polygon fill="#63b8ff" stroke="#63b8ff" points="2513.5,-142.37 2504.39,-147.77 2514.88,-149.23 2513.5,-142.37"/>
</g>
<!-- Node270 -->
<g id="node35" class="node">
<title>Node270</title>
<g id="a_node35"><a xlink:href="d__a__obj__ss__item_8h.html" target="_top" xlink:title=" ">
<polygon fill="white" stroke="#666666" points="3842,-107 3730,-107 3730,-66 3842,-66 3842,-107"/>
<text text-anchor="start" x="3738" y="-95" font-family="Helvetica,sans-Serif" font-size="10.00">include/rel/d/a/obj</text>
<text text-anchor="start" x="3738" y="-84" font-family="Helvetica,sans-Serif" font-size="10.00">/d_a_obj_ss_item/d_a</text>
<text text-anchor="middle" x="3786" y="-73" font-family="Helvetica,sans-Serif" font-size="10.00">_obj_ss_item.h</text>
</a>
</g>
</g>
<!-- Node241&#45;&gt;Node270 -->
<g id="edge35" class="edge">
<title>Node241&#45;&gt;Node270</title>
<path fill="none" stroke="#63b8ff" d="M2513.74,-145.87C2519.85,-144.73 2526.06,-143.72 2532,-143 3056.81,-79.08 3199.14,-191.68 3721,-107 3723.91,-106.53 3726.87,-105.96 3729.84,-105.33"/>
<polygon fill="#63b8ff" stroke="#63b8ff" points="2513.5,-142.35 2504.39,-147.75 2514.88,-149.21 2513.5,-142.35"/>
</g>
<!-- Node271 -->
<g id="node36" class="node">
<title>Node271</title>
<g id="a_node36"><a xlink:href="d__a__obj__swhang_8h.html" target="_top" xlink:title=" ">
<polygon fill="white" stroke="#666666" points="3971.5,-107 3860.5,-107 3860.5,-66 3971.5,-66 3971.5,-107"/>
<text text-anchor="start" x="3868.5" y="-95" font-family="Helvetica,sans-Serif" font-size="10.00">include/rel/d/a/obj</text>
<text text-anchor="start" x="3868.5" y="-84" font-family="Helvetica,sans-Serif" font-size="10.00">/d_a_obj_swhang/d_a</text>
<text text-anchor="middle" x="3916" y="-73" font-family="Helvetica,sans-Serif" font-size="10.00">_obj_swhang.h</text>
</a>
</g>
</g>
<!-- Node241&#45;&gt;Node271 -->
<g id="edge36" class="edge">
<title>Node241&#45;&gt;Node271</title>
<path fill="none" stroke="#63b8ff" d="M2513.73,-145.86C2519.85,-144.72 2526.05,-143.72 2532,-143 3114.24,-72.96 3271.99,-200.07 3851,-107 3854.02,-106.51 3857.1,-105.93 3860.2,-105.26"/>
<polygon fill="#63b8ff" stroke="#63b8ff" points="2513.5,-142.33 2504.38,-147.73 2514.88,-149.2 2513.5,-142.33"/>
</g>
<!-- Node272 -->
<g id="node37" class="node">
<title>Node272</title>
<g id="a_node37"><a xlink:href="d__a__obj__swpropeller_8h.html" target="_top" xlink:title=" ">
<polygon fill="white" stroke="#666666" points="4106,-107 3990,-107 3990,-66 4106,-66 4106,-107"/>
<text text-anchor="start" x="3998" y="-95" font-family="Helvetica,sans-Serif" font-size="10.00">include/rel/d/a/obj</text>
<text text-anchor="start" x="3998" y="-84" font-family="Helvetica,sans-Serif" font-size="10.00">/d_a_obj_swpropeller</text>
<text text-anchor="middle" x="4048" y="-73" font-family="Helvetica,sans-Serif" font-size="10.00">/d_a_obj_swpropeller.h</text>
</a>
</g>
</g>
<!-- Node241&#45;&gt;Node272 -->
<g id="edge37" class="edge">
<title>Node241&#45;&gt;Node272</title>
<path fill="none" stroke="#63b8ff" d="M2513.73,-145.84C2519.85,-144.7 2526.05,-143.71 2532,-143 2851.62,-104.95 3661.84,-155.76 3980,-107 3983.16,-106.52 3986.37,-105.93 3989.6,-105.27"/>
<polygon fill="#63b8ff" stroke="#63b8ff" points="2513.5,-142.32 2504.38,-147.72 2514.87,-149.18 2513.5,-142.32"/>
</g>
<!-- Node131 -->
<g id="node38" class="node">
<title>Node131</title>
<g id="a_node38"><a xlink:href="d__a__obj__tornado_8h.html" target="_top" xlink:title=" ">
<polygon fill="white" stroke="#666666" points="4234,-107 4124,-107 4124,-66 4234,-66 4234,-107"/>
<text text-anchor="start" x="4132" y="-95" font-family="Helvetica,sans-Serif" font-size="10.00">include/rel/d/a/obj</text>
<text text-anchor="start" x="4132" y="-84" font-family="Helvetica,sans-Serif" font-size="10.00">/d_a_obj_tornado/d_a</text>
<text text-anchor="middle" x="4179" y="-73" font-family="Helvetica,sans-Serif" font-size="10.00">_obj_tornado.h</text>
</a>
</g>
</g>
<!-- Node241&#45;&gt;Node131 -->
<g id="edge38" class="edge">
<title>Node241&#45;&gt;Node131</title>
<path fill="none" stroke="#63b8ff" d="M2513.51,-145.87C2519.7,-144.72 2525.98,-143.71 2532,-143 2881.44,-101.77 3767.58,-162.8 4115,-107 4117.87,-106.54 4120.78,-105.98 4123.72,-105.35"/>
<polygon fill="#63b8ff" stroke="#63b8ff" points="2513.16,-142.37 2504.04,-147.77 2514.53,-149.24 2513.16,-142.37"/>
</g>
<!-- Node136 -->
<g id="node39" class="node">
<title>Node136</title>
<g id="a_node39"><a xlink:href="d__a__obj__window_8h.html" target="_top" xlink:title=" ">
<polygon fill="white" stroke="#666666" points="4362,-107 4252,-107 4252,-66 4362,-66 4362,-107"/>
<text text-anchor="start" x="4260" y="-95" font-family="Helvetica,sans-Serif" font-size="10.00">include/rel/d/a/obj</text>
<text text-anchor="start" x="4260" y="-84" font-family="Helvetica,sans-Serif" font-size="10.00">/d_a_obj_window/d_a</text>
<text text-anchor="middle" x="4307" y="-73" font-family="Helvetica,sans-Serif" font-size="10.00">_obj_window.h</text>
</a>
</g>
</g>
<!-- Node241&#45;&gt;Node136 -->
<g id="edge39" class="edge">
<title>Node241&#45;&gt;Node136</title>
<path fill="none" stroke="#63b8ff" d="M2513.51,-145.86C2519.7,-144.71 2525.98,-143.7 2532,-143 2909.72,-98.76 3867.45,-166.99 4243,-107 4245.87,-106.54 4248.79,-105.99 4251.72,-105.36"/>
<polygon fill="#63b8ff" stroke="#63b8ff" points="2513.15,-142.36 2504.04,-147.76 2514.53,-149.23 2513.15,-142.36"/>
</g>
<!-- Node137 -->
<g id="node40" class="node">
<title>Node137</title>
<g id="a_node40"><a xlink:href="d__a__obj__wood__pendulum_8h.html" target="_top" xlink:title=" ">
<polygon fill="white" stroke="#666666" points="4517.5,-107 4380.5,-107 4380.5,-66 4517.5,-66 4517.5,-107"/>
<text text-anchor="start" x="4388.5" y="-95" font-family="Helvetica,sans-Serif" font-size="10.00">include/rel/d/a/obj</text>
<text text-anchor="start" x="4388.5" y="-84" font-family="Helvetica,sans-Serif" font-size="10.00">/d_a_obj_wood_pendulum</text>
<text text-anchor="middle" x="4449" y="-73" font-family="Helvetica,sans-Serif" font-size="10.00">/d_a_obj_wood_pendulum.h</text>
</a>
</g>
</g>
<!-- Node241&#45;&gt;Node137 -->
<g id="edge40" class="edge">
<title>Node241&#45;&gt;Node137</title>
<path fill="none" stroke="#63b8ff" d="M2513.51,-145.85C2519.7,-144.7 2525.98,-143.7 2532,-143 2938,-95.75 3965.83,-160.91 4371,-107 4374.04,-106.59 4377.14,-106.12 4380.26,-105.58"/>
<polygon fill="#63b8ff" stroke="#63b8ff" points="2513.15,-142.35 2504.04,-147.75 2514.53,-149.22 2513.15,-142.35"/>
</g>
<!-- Node139 -->
<g id="node41" class="node">
<title>Node139</title>
<g id="a_node41"><a xlink:href="d__a__obj__zdoor_8h.html" target="_top" xlink:title=" ">
<polygon fill="white" stroke="#666666" points="4654.5,-107 4535.5,-107 4535.5,-66 4654.5,-66 4654.5,-107"/>
<text text-anchor="start" x="4543.5" y="-95" font-family="Helvetica,sans-Serif" font-size="10.00">include/rel/d/a/obj</text>
<text text-anchor="start" x="4543.5" y="-84" font-family="Helvetica,sans-Serif" font-size="10.00">/d_a_obj_zdoor/d_a_obj</text>
<text text-anchor="middle" x="4595" y="-73" font-family="Helvetica,sans-Serif" font-size="10.00">_zdoor.h</text>
</a>
</g>
</g>
<!-- Node241&#45;&gt;Node139 -->
<g id="edge41" class="edge">
<title>Node241&#45;&gt;Node139</title>
<path fill="none" stroke="#63b8ff" d="M2513.51,-145.84C2519.7,-144.7 2525.98,-143.7 2532,-143 2972.25,-92.1 4087.58,-171.8 4526,-107 4529.08,-106.54 4532.21,-105.99 4535.37,-105.37"/>
<polygon fill="#63b8ff" stroke="#63b8ff" points="2513.15,-142.35 2504.04,-147.74 2514.53,-149.21 2513.15,-142.35"/>
</g>
<!-- Node273 -->
<g id="node42" class="node">
<title>Node273</title>
<g id="a_node42"><a xlink:href="d__a__tag__pachi_8h.html" target="_top" xlink:title=" ">
<polygon fill="white" stroke="#666666" points="4793,-107 4673,-107 4673,-66 4793,-66 4793,-107"/>
<text text-anchor="start" x="4681" y="-95" font-family="Helvetica,sans-Serif" font-size="10.00">include/rel/d/a/tag</text>
<text text-anchor="start" x="4681" y="-84" font-family="Helvetica,sans-Serif" font-size="10.00">/d_a_tag_pachi/d_a_tag</text>
<text text-anchor="middle" x="4733" y="-73" font-family="Helvetica,sans-Serif" font-size="10.00">_pachi.h</text>
</a>
</g>
</g>
<!-- Node241&#45;&gt;Node273 -->
<g id="edge42" class="edge">
<title>Node241&#45;&gt;Node273</title>
<path fill="none" stroke="#63b8ff" d="M2513.51,-145.84C2519.69,-144.69 2525.98,-143.69 2532,-143 3002.52,-88.88 4194.3,-175.1 4663,-107 4666.25,-106.53 4669.55,-105.95 4672.88,-105.3"/>
<polygon fill="#63b8ff" stroke="#63b8ff" points="2513.15,-142.34 2504.04,-147.74 2514.53,-149.2 2513.15,-142.34"/>
</g>
<!-- Node274 -->
<g id="node43" class="node">
<title>Node274</title>
<g id="a_node43"><a xlink:href="d__cc__d__nonmatching_8cpp.html" target="_top" xlink:title=" ">
<polygon fill="white" stroke="#666666" points="4976.5,-96 4811.5,-96 4811.5,-77 4976.5,-77 4976.5,-96"/>
<text text-anchor="middle" x="4894" y="-84" font-family="Helvetica,sans-Serif" font-size="10.00">src/d/cc/d_cc_d_nonmatching.cpp</text>
</a>
</g>
</g>
<!-- Node241&#45;&gt;Node274 -->
<g id="edge43" class="edge">
<title>Node241&#45;&gt;Node274</title>
<path fill="none" stroke="#63b8ff" d="M2513.51,-145.83C2519.69,-144.68 2525.98,-143.69 2532,-143 3033.23,-85.61 4300.67,-163.57 4802,-107 4821.31,-104.82 4842.54,-100.45 4859.74,-96.4"/>
<polygon fill="#63b8ff" stroke="#63b8ff" points="2513.15,-142.33 2504.04,-147.73 2514.53,-149.2 2513.15,-142.33"/>
</g>
<!-- Node246&#45;&gt;Node242 -->
<g id="edge9" class="edge">
<title>Node246&#45;&gt;Node242</title>
<path fill="none" stroke="#63b8ff" d="M509.59,-67.54C501.59,-55.94 491.31,-41.06 483.86,-30.27"/>
<polygon fill="#63b8ff" stroke="#63b8ff" points="506.5,-69.21 515.06,-75.45 512.26,-65.24 506.5,-69.21"/>
</g>
<!-- Node180 -->
<g id="node19" class="node">
<title>Node180</title>
<g id="a_node19"><a xlink:href="d__bg__w_8cpp.html" target="_top" xlink:title=" ">
<polygon fill="white" stroke="#666666" points="3406.5,-24.5 3299.5,-24.5 3299.5,-5.5 3406.5,-5.5 3406.5,-24.5"/>
<text text-anchor="middle" x="3353" y="-12.5" font-family="Helvetica,sans-Serif" font-size="10.00">src/d/bg/d_bg_w.cpp</text>
</a>
</g>
</g>
<!-- Node259&#45;&gt;Node180 -->
<g id="edge19" class="edge">
<title>Node259&#45;&gt;Node180</title>
<path fill="none" stroke="#63b8ff" d="M1751.82,-68.14C1755.24,-67.31 1758.66,-66.58 1762,-66 2067.07,-12.74 3057.44,-14.41 3299.33,-15.66"/>
<polygon fill="#63b8ff" stroke="#63b8ff" points="1751.17,-64.69 1742.43,-70.69 1753,-71.45 1751.17,-64.69"/>
</g>
<!-- Node276&#45;&gt;Node4 -->
<g id="edge45" class="edge">
<title>Node276&#45;&gt;Node4</title>
<path fill="none" stroke="#63b8ff" d="M1265.48,-155.79C1049.06,-152.15 463.6,-139.52 273,-107 259.41,-104.68 244.67,-100.41 232.66,-96.45"/>
<polygon fill="#63b8ff" stroke="#63b8ff" points="1265.17,-159.28 1275.22,-155.95 1265.28,-152.28 1265.17,-159.28"/>
</g>
<!-- Node278&#45;&gt;Node180 -->
<g id="edge50" class="edge">
<title>Node278&#45;&gt;Node180</title>
<path fill="none" stroke="#63b8ff" d="M5034.27,-198.12C5030.9,-190.13 5027.22,-181.22 5024,-173 5005.53,-125.88 5026.02,-95.65 4985,-66 4919.67,-18.77 3681.6,-16 3406.75,-15.97"/>
<polygon fill="#63b8ff" stroke="#63b8ff" points="5031.02,-199.41 5038.16,-207.24 5037.46,-196.67 5031.02,-199.41"/>
</g>
<!-- Node178 -->
<g id="node47" class="node">
<title>Node178</title>
<g id="a_node47"><a xlink:href="d__bg__s_8cpp.html" target="_top" xlink:title=" ">
<polygon fill="white" stroke="#666666" points="5137,-167.5 5033,-167.5 5033,-148.5 5137,-148.5 5137,-167.5"/>
<text text-anchor="middle" x="5085" y="-155.5" font-family="Helvetica,sans-Serif" font-size="10.00">src/d/bg/d_bg_s.cpp</text>
</a>
</g>
</g>
<!-- Node278&#45;&gt;Node178 -->
<g id="edge48" class="edge">
<title>Node278&#45;&gt;Node178</title>
<path fill="none" stroke="#63b8ff" d="M5059.83,-199.28C5066.68,-188.31 5074.41,-175.94 5079.47,-167.84"/>
<polygon fill="#63b8ff" stroke="#63b8ff" points="5057.01,-197.18 5054.68,-207.51 5062.95,-200.89 5057.01,-197.18"/>
</g>
<!-- Node279 -->
<g id="node48" class="node">
<title>Node279</title>
<g id="a_node48"><a xlink:href="d__bg__s__sph__chk_8cpp.html" target="_top" xlink:title=" ">
<polygon fill="white" stroke="#666666" points="5262.5,-173 5155.5,-173 5155.5,-143 5262.5,-143 5262.5,-173"/>
<text text-anchor="start" x="5163.5" y="-161" font-family="Helvetica,sans-Serif" font-size="10.00">src/d/bg/d_bg_s_sph</text>
<text text-anchor="middle" x="5209" y="-150" font-family="Helvetica,sans-Serif" font-size="10.00">_chk.cpp</text>
</a>
</g>
</g>
<!-- Node278&#45;&gt;Node279 -->
<g id="edge49" class="edge">
<title>Node278&#45;&gt;Node279</title>
<path fill="none" stroke="#63b8ff" d="M5092.3,-204.54C5117.66,-194.64 5148.45,-182.63 5172.03,-173.43"/>
<polygon fill="#63b8ff" stroke="#63b8ff" points="5091.26,-201.19 5083.21,-208.09 5093.8,-207.71 5091.26,-201.19"/>
</g>
</g>
</svg>
