<?xml version="1.0" encoding="UTF-8" standalone="no"?>
<!DOCTYPE svg PUBLIC "-//W3C//DTD SVG 1.1//EN"
 "http://www.w3.org/Graphics/SVG/1.1/DTD/svg11.dtd">
<!-- Generated by graphviz version 7.0.5 (20221223.1930)
 -->
<!-- Title: include/SSystem/SComponent/c_m3d_g_lin.h Pages: 1 -->
<svg width="297pt" height="291pt"
 viewBox="0.00 0.00 297.00 291.00" xmlns="http://www.w3.org/2000/svg" xmlns:xlink="http://www.w3.org/1999/xlink">
<g id="graph0" class="graph" transform="scale(1 1) rotate(0) translate(4 287)">
<title>include/SSystem/SComponent/c_m3d_g_lin.h</title>
<!-- Node1 -->
<g id="node1" class="node">
<title>Node1</title>
<g id="a_node1"><a xlink:title=" ">
<polygon fill="#999999" stroke="#666666" points="270.5,-283 121.5,-283 121.5,-253 270.5,-253 270.5,-283"/>
<text text-anchor="start" x="129.5" y="-271" font-family="Helvetica,sans-Serif" font-size="10.00">include/SSystem/SComponent</text>
<text text-anchor="middle" x="196" y="-260" font-family="Helvetica,sans-Serif" font-size="10.00">/c_m3d_g_lin.h</text>
</a>
</g>
</g>
<!-- Node2 -->
<g id="node2" class="node">
<title>Node2</title>
<g id="a_node2"><a xlink:href="c__xyz_8h.html" target="_top" xlink:title=" ">
<polygon fill="white" stroke="#666666" points="204,-217 88,-217 88,-187 204,-187 204,-217"/>
<text text-anchor="start" x="96" y="-205" font-family="Helvetica,sans-Serif" font-size="10.00">SSystem/SComponent</text>
<text text-anchor="middle" x="146" y="-194" font-family="Helvetica,sans-Serif" font-size="10.00">/c_xyz.h</text>
</a>
</g>
</g>
<!-- Node1&#45;&gt;Node2 -->
<g id="edge1" class="edge">
<title>Node1&#45;&gt;Node2</title>
<path fill="none" stroke="#63b8ff" d="M184.9,-252.8C178.75,-244.92 170.96,-234.95 163.96,-225.99"/>
<polygon fill="#63b8ff" stroke="#63b8ff" points="166.91,-224.08 158,-218.36 161.4,-228.39 166.91,-224.08"/>
</g>
<!-- Node9 -->
<g id="node9" class="node">
<title>Node9</title>
<g id="a_node9"><a xlink:href="global_8h.html" target="_top" xlink:title=" ">
<polygon fill="white" stroke="#666666" points="272,-211.5 222,-211.5 222,-192.5 272,-192.5 272,-211.5"/>
<text text-anchor="middle" x="247" y="-199.5" font-family="Helvetica,sans-Serif" font-size="10.00">global.h</text>
</a>
</g>
</g>
<!-- Node1&#45;&gt;Node9 -->
<g id="edge8" class="edge">
<title>Node1&#45;&gt;Node9</title>
<path fill="none" stroke="#63b8ff" d="M207.32,-252.8C214.88,-243.31 224.88,-230.76 232.95,-220.63"/>
<polygon fill="#63b8ff" stroke="#63b8ff" points="235.51,-223.03 239.01,-213.03 230.04,-218.67 235.51,-223.03"/>
</g>
<!-- Node3 -->
<g id="node3" class="node">
<title>Node3</title>
<g id="a_node3"><a xlink:href="math_8h.html" target="_top" xlink:title=" ">
<polygon fill="white" stroke="#666666" points="109,-151 27,-151 27,-132 109,-132 109,-151"/>
<text text-anchor="middle" x="68" y="-139" font-family="Helvetica,sans-Serif" font-size="10.00">MSL_C/math.h</text>
</a>
</g>
</g>
<!-- Node2&#45;&gt;Node3 -->
<g id="edge2" class="edge">
<title>Node2&#45;&gt;Node3</title>
<path fill="none" stroke="#63b8ff" d="M126.72,-186.54C115.16,-177.87 100.46,-166.85 88.66,-158"/>
<polygon fill="#63b8ff" stroke="#63b8ff" points="90.88,-155.28 80.78,-152.08 86.68,-160.88 90.88,-155.28"/>
</g>
<!-- Node6 -->
<g id="node6" class="node">
<title>Node6</title>
<g id="a_node6"><a xlink:href="vec_8h.html" target="_top" xlink:title=" ">
<polygon fill="white" stroke="#666666" points="219,-151 127,-151 127,-132 219,-132 219,-151"/>
<text text-anchor="middle" x="173" y="-139" font-family="Helvetica,sans-Serif" font-size="10.00">dolphin/mtx/vec.h</text>
</a>
</g>
</g>
<!-- Node2&#45;&gt;Node6 -->
<g id="edge5" class="edge">
<title>Node2&#45;&gt;Node6</title>
<path fill="none" stroke="#63b8ff" d="M152.67,-186.54C156.16,-179 160.46,-169.67 164.21,-161.55"/>
<polygon fill="#63b8ff" stroke="#63b8ff" points="167.35,-163.1 168.36,-152.55 160.99,-160.16 167.35,-163.1"/>
</g>
<!-- Node4 -->
<g id="node4" class="node">
<title>Node4</title>
<g id="a_node4"><a xlink:href="MSL__Common_2Src_2float_8h.html" target="_top" xlink:title=" ">
<polygon fill="white" stroke="#666666" points="136,-96 0,-96 0,-66 136,-66 136,-96"/>
<text text-anchor="start" x="8" y="-84" font-family="Helvetica,sans-Serif" font-size="10.00">MSL_C/MSL_Common/Src</text>
<text text-anchor="middle" x="68" y="-73" font-family="Helvetica,sans-Serif" font-size="10.00">/float.h</text>
</a>
</g>
</g>
<!-- Node3&#45;&gt;Node4 -->
<g id="edge3" class="edge">
<title>Node3&#45;&gt;Node4</title>
<path fill="none" stroke="#63b8ff" d="M68,-131.87C68,-125.4 68,-116.2 68,-107.45"/>
<polygon fill="#63b8ff" stroke="#63b8ff" points="71.5,-107.63 68,-97.63 64.5,-107.63 71.5,-107.63"/>
</g>
<!-- Node5 -->
<g id="node5" class="node">
<title>Node5</title>
<g id="a_node5"><a xlink:href="fdlibm_8h.html" target="_top" xlink:title=" ">
<polygon fill="white" stroke="#666666" points="93,-24.5 43,-24.5 43,-5.5 93,-5.5 93,-24.5"/>
<text text-anchor="middle" x="68" y="-12.5" font-family="Helvetica,sans-Serif" font-size="10.00">fdlibm.h</text>
</a>
</g>
</g>
<!-- Node4&#45;&gt;Node5 -->
<g id="edge4" class="edge">
<title>Node4&#45;&gt;Node5</title>
<path fill="none" stroke="#63b8ff" d="M68,-65.8C68,-57.09 68,-45.81 68,-36.18"/>
<polygon fill="#63b8ff" stroke="#63b8ff" points="71.5,-36.36 68,-26.36 64.5,-36.36 71.5,-36.36"/>
</g>
<!-- Node7 -->
<g id="node7" class="node">
<title>Node7</title>
<g id="a_node7"><a xlink:href="types_8h.html" target="_top" xlink:title=" ">
<polygon fill="white" stroke="#666666" points="261.5,-90.5 180.5,-90.5 180.5,-71.5 261.5,-71.5 261.5,-90.5"/>
<text text-anchor="middle" x="221" y="-78.5" font-family="Helvetica,sans-Serif" font-size="10.00">dolphin/types.h</text>
</a>
</g>
</g>
<!-- Node6&#45;&gt;Node7 -->
<g id="edge6" class="edge">
<title>Node6&#45;&gt;Node7</title>
<path fill="none" stroke="#63b8ff" d="M180.08,-131.87C187.03,-123.4 197.83,-110.24 206.59,-99.57"/>
<polygon fill="#63b8ff" stroke="#63b8ff" points="209.29,-101.79 212.93,-91.84 203.88,-97.35 209.29,-101.79"/>
</g>
<!-- Node8 -->
<g id="node8" class="node">
<title>Node8</title>
<g id="a_node8"><a xlink:href="stddef_8h.html" target="_top" xlink:title=" ">
<polygon fill="white" stroke="#666666" points="289,-30 153,-30 153,0 289,0 289,-30"/>
<text text-anchor="start" x="161" y="-18" font-family="Helvetica,sans-Serif" font-size="10.00">MSL_C/MSL_Common/Src</text>
<text text-anchor="middle" x="221" y="-7" font-family="Helvetica,sans-Serif" font-size="10.00">/stddef.h</text>
</a>
</g>
</g>
<!-- Node7&#45;&gt;Node8 -->
<g id="edge7" class="edge">
<title>Node7&#45;&gt;Node8</title>
<path fill="none" stroke="#63b8ff" d="M221,-71.1C221,-63.41 221,-51.92 221,-41.42"/>
<polygon fill="#63b8ff" stroke="#63b8ff" points="224.5,-41.75 221,-31.75 217.5,-41.75 224.5,-41.75"/>
</g>
<!-- Node9&#45;&gt;Node7 -->
<g id="edge9" class="edge">
<title>Node9&#45;&gt;Node7</title>
<path fill="none" stroke="#63b8ff" d="M245.05,-192.06C240.88,-173.01 231.06,-128.06 225.34,-101.87"/>
<polygon fill="#63b8ff" stroke="#63b8ff" points="228.78,-101.23 223.23,-92.2 221.94,-102.72 228.78,-101.23"/>
</g>
</g>
</svg>
