<?xml version="1.0" encoding="UTF-8" standalone="no"?>
<!DOCTYPE svg PUBLIC "-//W3C//DTD SVG 1.1//EN"
 "http://www.w3.org/Graphics/SVG/1.1/DTD/svg11.dtd">
<!-- Generated by graphviz version 7.0.5 (20221223.1930)
 -->
<!-- Title: include/SSystem/SComponent/c_m3d_g_cps.h Pages: 1 -->
<svg width="327pt" height="357pt"
 viewBox="0.00 0.00 327.00 357.00" xmlns="http://www.w3.org/2000/svg" xmlns:xlink="http://www.w3.org/1999/xlink">
<g id="graph0" class="graph" transform="scale(1 1) rotate(0) translate(4 353)">
<title>include/SSystem/SComponent/c_m3d_g_cps.h</title>
<!-- Node1 -->
<g id="node1" class="node">
<title>Node1</title>
<g id="a_node1"><a xlink:title=" ">
<polygon fill="#999999" stroke="#666666" points="283.5,-349 134.5,-349 134.5,-319 283.5,-319 283.5,-349"/>
<text text-anchor="start" x="142.5" y="-337" font-family="Helvetica,sans-Serif" font-size="10.00">include/SSystem/SComponent</text>
<text text-anchor="middle" x="209" y="-326" font-family="Helvetica,sans-Serif" font-size="10.00">/c_m3d_g_cps.h</text>
</a>
</g>
</g>
<!-- Node2 -->
<g id="node2" class="node">
<title>Node2</title>
<g id="a_node2"><a xlink:href="c__m3d_8h.html" target="_top" xlink:title=" ">
<polygon fill="white" stroke="#666666" points="251,-217 135,-217 135,-187 251,-187 251,-217"/>
<text text-anchor="start" x="143" y="-205" font-family="Helvetica,sans-Serif" font-size="10.00">SSystem/SComponent</text>
<text text-anchor="middle" x="193" y="-194" font-family="Helvetica,sans-Serif" font-size="10.00">/c_m3d.h</text>
</a>
</g>
</g>
<!-- Node1&#45;&gt;Node2 -->
<g id="edge1" class="edge">
<title>Node1&#45;&gt;Node2</title>
<path fill="none" stroke="#63b8ff" d="M207.23,-318.59C204.56,-296.92 199.48,-255.62 196.16,-228.7"/>
<polygon fill="#63b8ff" stroke="#63b8ff" points="199.66,-228.47 194.97,-218.98 192.71,-229.33 199.66,-228.47"/>
</g>
<!-- Node9 -->
<g id="node9" class="node">
<title>Node9</title>
<g id="a_node9"><a xlink:href="c__m3d__g__lin_8h.html" target="_top" xlink:title=" ">
<polygon fill="white" stroke="#666666" points="181,-283 65,-283 65,-253 181,-253 181,-283"/>
<text text-anchor="start" x="73" y="-271" font-family="Helvetica,sans-Serif" font-size="10.00">SSystem/SComponent</text>
<text text-anchor="middle" x="123" y="-260" font-family="Helvetica,sans-Serif" font-size="10.00">/c_m3d_g_lin.h</text>
</a>
</g>
</g>
<!-- Node1&#45;&gt;Node9 -->
<g id="edge9" class="edge">
<title>Node1&#45;&gt;Node9</title>
<path fill="none" stroke="#63b8ff" d="M189.91,-318.8C178.64,-310.4 164.14,-299.62 151.53,-290.23"/>
<polygon fill="#63b8ff" stroke="#63b8ff" points="153.66,-287.45 143.54,-284.29 149.48,-293.07 153.66,-287.45"/>
</g>
<!-- Node11 -->
<g id="node11" class="node">
<title>Node11</title>
<g id="a_node11"><a xlink:href="global_8h.html" target="_top" xlink:title=" ">
<polygon fill="white" stroke="#666666" points="319,-211.5 269,-211.5 269,-192.5 319,-192.5 319,-211.5"/>
<text text-anchor="middle" x="294" y="-199.5" font-family="Helvetica,sans-Serif" font-size="10.00">global.h</text>
</a>
</g>
</g>
<!-- Node1&#45;&gt;Node11 -->
<g id="edge15" class="edge">
<title>Node1&#45;&gt;Node11</title>
<path fill="none" stroke="#63b8ff" d="M218.42,-318.59C234,-294.77 265.09,-247.22 282.14,-221.15"/>
<polygon fill="#63b8ff" stroke="#63b8ff" points="284.94,-223.26 287.48,-212.97 279.08,-219.43 284.94,-223.26"/>
</g>
<!-- Node3 -->
<g id="node3" class="node">
<title>Node3</title>
<g id="a_node3"><a xlink:href="math_8h.html" target="_top" xlink:title=" ">
<polygon fill="white" stroke="#666666" points="109,-151 27,-151 27,-132 109,-132 109,-151"/>
<text text-anchor="middle" x="68" y="-139" font-family="Helvetica,sans-Serif" font-size="10.00">MSL_C/math.h</text>
</a>
</g>
</g>
<!-- Node2&#45;&gt;Node3 -->
<g id="edge2" class="edge">
<title>Node2&#45;&gt;Node3</title>
<path fill="none" stroke="#63b8ff" d="M162.1,-186.54C142.31,-177.28 116.77,-165.33 97.3,-156.21"/>
<polygon fill="#63b8ff" stroke="#63b8ff" points="98.81,-153.06 88.27,-151.99 95.85,-159.4 98.81,-153.06"/>
</g>
<!-- Node6 -->
<g id="node6" class="node">
<title>Node6</title>
<g id="a_node6"><a xlink:href="types_8h.html" target="_top" xlink:title=" ">
<polygon fill="white" stroke="#666666" points="291.5,-90.5 210.5,-90.5 210.5,-71.5 291.5,-71.5 291.5,-90.5"/>
<text text-anchor="middle" x="251" y="-78.5" font-family="Helvetica,sans-Serif" font-size="10.00">dolphin/types.h</text>
</a>
</g>
</g>
<!-- Node2&#45;&gt;Node6 -->
<g id="edge5" class="edge">
<title>Node2&#45;&gt;Node6</title>
<path fill="none" stroke="#63b8ff" d="M206.62,-186.74C215,-177.26 225.38,-164.18 232,-151 239.85,-135.37 244.81,-116.07 247.69,-101.86"/>
<polygon fill="#63b8ff" stroke="#63b8ff" points="251.06,-102.85 249.43,-92.39 244.18,-101.59 251.06,-102.85"/>
</g>
<!-- Node8 -->
<g id="node8" class="node">
<title>Node8</title>
<g id="a_node8"><a xlink:href="vec_8h.html" target="_top" xlink:title=" ">
<polygon fill="white" stroke="#666666" points="223,-151 131,-151 131,-132 223,-132 223,-151"/>
<text text-anchor="middle" x="177" y="-139" font-family="Helvetica,sans-Serif" font-size="10.00">dolphin/mtx/vec.h</text>
</a>
</g>
</g>
<!-- Node2&#45;&gt;Node8 -->
<g id="edge7" class="edge">
<title>Node2&#45;&gt;Node8</title>
<path fill="none" stroke="#63b8ff" d="M189.04,-186.54C187.03,-179.17 184.55,-170.1 182.36,-162.11"/>
<polygon fill="#63b8ff" stroke="#63b8ff" points="185.79,-161.36 179.77,-152.64 179.03,-163.2 185.79,-161.36"/>
</g>
<!-- Node4 -->
<g id="node4" class="node">
<title>Node4</title>
<g id="a_node4"><a xlink:href="MSL__Common_2Src_2float_8h.html" target="_top" xlink:title=" ">
<polygon fill="white" stroke="#666666" points="136,-96 0,-96 0,-66 136,-66 136,-96"/>
<text text-anchor="start" x="8" y="-84" font-family="Helvetica,sans-Serif" font-size="10.00">MSL_C/MSL_Common/Src</text>
<text text-anchor="middle" x="68" y="-73" font-family="Helvetica,sans-Serif" font-size="10.00">/float.h</text>
</a>
</g>
</g>
<!-- Node3&#45;&gt;Node4 -->
<g id="edge3" class="edge">
<title>Node3&#45;&gt;Node4</title>
<path fill="none" stroke="#63b8ff" d="M68,-131.87C68,-125.4 68,-116.2 68,-107.45"/>
<polygon fill="#63b8ff" stroke="#63b8ff" points="71.5,-107.63 68,-97.63 64.5,-107.63 71.5,-107.63"/>
</g>
<!-- Node5 -->
<g id="node5" class="node">
<title>Node5</title>
<g id="a_node5"><a xlink:href="fdlibm_8h.html" target="_top" xlink:title=" ">
<polygon fill="white" stroke="#666666" points="93,-24.5 43,-24.5 43,-5.5 93,-5.5 93,-24.5"/>
<text text-anchor="middle" x="68" y="-12.5" font-family="Helvetica,sans-Serif" font-size="10.00">fdlibm.h</text>
</a>
</g>
</g>
<!-- Node4&#45;&gt;Node5 -->
<g id="edge4" class="edge">
<title>Node4&#45;&gt;Node5</title>
<path fill="none" stroke="#63b8ff" d="M68,-65.8C68,-57.09 68,-45.81 68,-36.18"/>
<polygon fill="#63b8ff" stroke="#63b8ff" points="71.5,-36.36 68,-26.36 64.5,-36.36 71.5,-36.36"/>
</g>
<!-- Node7 -->
<g id="node7" class="node">
<title>Node7</title>
<g id="a_node7"><a xlink:href="stddef_8h.html" target="_top" xlink:title=" ">
<polygon fill="white" stroke="#666666" points="319,-30 183,-30 183,0 319,0 319,-30"/>
<text text-anchor="start" x="191" y="-18" font-family="Helvetica,sans-Serif" font-size="10.00">MSL_C/MSL_Common/Src</text>
<text text-anchor="middle" x="251" y="-7" font-family="Helvetica,sans-Serif" font-size="10.00">/stddef.h</text>
</a>
</g>
</g>
<!-- Node6&#45;&gt;Node7 -->
<g id="edge6" class="edge">
<title>Node6&#45;&gt;Node7</title>
<path fill="none" stroke="#63b8ff" d="M251,-71.1C251,-63.41 251,-51.92 251,-41.42"/>
<polygon fill="#63b8ff" stroke="#63b8ff" points="254.5,-41.75 251,-31.75 247.5,-41.75 254.5,-41.75"/>
</g>
<!-- Node8&#45;&gt;Node6 -->
<g id="edge8" class="edge">
<title>Node8&#45;&gt;Node6</title>
<path fill="none" stroke="#63b8ff" d="M188.24,-131.62C199.54,-122.68 217.21,-108.72 230.92,-97.87"/>
<polygon fill="#63b8ff" stroke="#63b8ff" points="232.79,-100.85 238.47,-91.91 228.45,-95.36 232.79,-100.85"/>
</g>
<!-- Node10 -->
<g id="node10" class="node">
<title>Node10</title>
<g id="a_node10"><a xlink:href="c__xyz_8h.html" target="_top" xlink:title=" ">
<polygon fill="white" stroke="#666666" points="117,-217 1,-217 1,-187 117,-187 117,-217"/>
<text text-anchor="start" x="9" y="-205" font-family="Helvetica,sans-Serif" font-size="10.00">SSystem/SComponent</text>
<text text-anchor="middle" x="59" y="-194" font-family="Helvetica,sans-Serif" font-size="10.00">/c_xyz.h</text>
</a>
</g>
</g>
<!-- Node9&#45;&gt;Node10 -->
<g id="edge10" class="edge">
<title>Node9&#45;&gt;Node10</title>
<path fill="none" stroke="#63b8ff" d="M108.8,-252.8C100.68,-244.68 90.31,-234.31 81.15,-225.15"/>
<polygon fill="#63b8ff" stroke="#63b8ff" points="83.78,-222.83 74.23,-218.23 78.83,-227.78 83.78,-222.83"/>
</g>
<!-- Node9&#45;&gt;Node11 -->
<g id="edge13" class="edge">
<title>Node9&#45;&gt;Node11</title>
<path fill="none" stroke="#63b8ff" d="M163.93,-252.55C191.24,-242.79 227.9,-229.46 260,-217 260.78,-216.7 261.57,-216.39 262.37,-216.07"/>
<polygon fill="#63b8ff" stroke="#63b8ff" points="263.45,-219.41 271.43,-212.44 260.84,-212.91 263.45,-219.41"/>
</g>
<!-- Node10&#45;&gt;Node3 -->
<g id="edge11" class="edge">
<title>Node10&#45;&gt;Node3</title>
<path fill="none" stroke="#63b8ff" d="M61.22,-186.54C62.35,-179.26 63.72,-170.31 64.94,-162.39"/>
<polygon fill="#63b8ff" stroke="#63b8ff" points="68.37,-163.09 66.44,-152.67 61.46,-162.02 68.37,-163.09"/>
</g>
<!-- Node10&#45;&gt;Node8 -->
<g id="edge12" class="edge">
<title>Node10&#45;&gt;Node8</title>
<path fill="none" stroke="#63b8ff" d="M88.17,-186.54C106.77,-177.32 130.73,-165.44 149.08,-156.34"/>
<polygon fill="#63b8ff" stroke="#63b8ff" points="150.4,-159.6 157.8,-152.02 147.29,-153.32 150.4,-159.6"/>
</g>
<!-- Node11&#45;&gt;Node6 -->
<g id="edge14" class="edge">
<title>Node11&#45;&gt;Node6</title>
<path fill="none" stroke="#63b8ff" d="M290.77,-192.06C283.85,-172.92 267.49,-127.65 258.05,-101.52"/>
<polygon fill="#63b8ff" stroke="#63b8ff" points="261.36,-100.36 254.67,-92.15 254.77,-102.74 261.36,-100.36"/>
</g>
</g>
</svg>
