<?xml version="1.0" encoding="UTF-8" standalone="no"?>
<!DOCTYPE svg PUBLIC "-//W3C//DTD SVG 1.1//EN"
 "http://www.w3.org/Graphics/SVG/1.1/DTD/svg11.dtd">
<!-- Generated by graphviz version 7.0.5 (20221223.1930)
 -->
<!-- Title: include/SSystem/SComponent/c_phase.h Pages: 1 -->
<svg width="4394pt" height="324pt"
 viewBox="0.00 0.00 4394.13 324.00" xmlns="http://www.w3.org/2000/svg" xmlns:xlink="http://www.w3.org/1999/xlink">
<g id="graph0" class="graph" transform="scale(1 1) rotate(0) translate(4 320)">
<title>include/SSystem/SComponent/c_phase.h</title>
<!-- Node1 -->
<g id="node1" class="node">
<title>Node1</title>
<g id="a_node1"><a xlink:title=" ">
<polygon fill="#999999" stroke="#666666" points="2643.13,-316 2494.13,-316 2494.13,-286 2643.13,-286 2643.13,-316"/>
<text text-anchor="start" x="2502.13" y="-304" font-family="Helvetica,sans-Serif" font-size="10.00">include/SSystem/SComponent</text>
<text text-anchor="middle" x="2568.63" y="-293" font-family="Helvetica,sans-Serif" font-size="10.00">/c_phase.h</text>
</a>
</g>
</g>
<!-- Node2 -->
<g id="node2" class="node">
<title>Node2</title>
<g id="a_node2"><a xlink:href="d__a__itembase_8h.html" target="_top" xlink:title=" ">
<polygon fill="white" stroke="#666666" points="443.13,-239 308.13,-239 308.13,-220 443.13,-220 443.13,-239"/>
<text text-anchor="middle" x="375.63" y="-227" font-family="Helvetica,sans-Serif" font-size="10.00">include/d/a/d_a_itembase.h</text>
</a>
</g>
</g>
<!-- Node1&#45;&gt;Node2 -->
<g id="edge1" class="edge">
<title>Node1&#45;&gt;Node2</title>
<path fill="none" stroke="#63b8ff" d="M2482.74,-297.88C2231.32,-291.58 1475.02,-272.07 847.63,-250 703.78,-244.94 535.34,-237.65 443.62,-233.57"/>
<polygon fill="#63b8ff" stroke="#63b8ff" points="2482.38,-301.37 2492.46,-298.12 2482.55,-294.37 2482.38,-301.37"/>
</g>
<!-- Node100 -->
<g id="node7" class="node">
<title>Node100</title>
<g id="a_node7"><a xlink:href="d__a__midna_8h.html" target="_top" xlink:title=" ">
<polygon fill="#fff0f0" stroke="red" points="123.63,-30 17.63,-30 17.63,0 123.63,0 123.63,-30"/>
<text text-anchor="start" x="25.63" y="-18" font-family="Helvetica,sans-Serif" font-size="10.00">include/rel/d/a/d_a</text>
<text text-anchor="middle" x="70.63" y="-7" font-family="Helvetica,sans-Serif" font-size="10.00">_midna/d_a_midna.h</text>
</a>
</g>
</g>
<!-- Node1&#45;&gt;Node100 -->
<g id="edge39" class="edge">
<title>Node1&#45;&gt;Node100</title>
<path fill="none" stroke="#63b8ff" d="M2482.22,-299.32C2093.63,-296.12 517.32,-281.28 298.63,-250 167.89,-231.3 92.01,-277.79 11.63,-173 -23.11,-127.72 29.93,-59.74 56.7,-30.37"/>
<polygon fill="#63b8ff" stroke="#63b8ff" points="2482.1,-302.82 2492.13,-299.41 2482.16,-295.82 2482.1,-302.82"/>
</g>
<!-- Node248 -->
<g id="node12" class="node">
<title>Node248</title>
<g id="a_node12"><a xlink:href="d__gameover_8h.html" target="_top" xlink:title=" ">
<polygon fill="white" stroke="#666666" points="1423.13,-239 1304.13,-239 1304.13,-220 1423.13,-220 1423.13,-239"/>
<text text-anchor="middle" x="1363.63" y="-227" font-family="Helvetica,sans-Serif" font-size="10.00">include/d/d_gameover.h</text>
</a>
</g>
</g>
<!-- Node1&#45;&gt;Node248 -->
<g id="edge12" class="edge">
<title>Node1&#45;&gt;Node248</title>
<path fill="none" stroke="#63b8ff" d="M2482.71,-298.79C2254.1,-295.16 1634.6,-282.53 1432.63,-250 1418.25,-247.68 1402.6,-243.41 1389.85,-239.46"/>
<polygon fill="#63b8ff" stroke="#63b8ff" points="2482.38,-302.29 2492.44,-298.94 2482.49,-295.29 2482.38,-302.29"/>
</g>
<!-- Node249 -->
<g id="node14" class="node">
<title>Node249</title>
<g id="a_node14"><a xlink:href="f__op__camera__mng_8h.html" target="_top" xlink:title=" ">
<polygon fill="white" stroke="#666666" points="841.63,-167.5 713.63,-167.5 713.63,-137.5 841.63,-137.5 841.63,-167.5"/>
<text text-anchor="start" x="721.63" y="-155.5" font-family="Helvetica,sans-Serif" font-size="10.00">include/f_op/f_op_camera</text>
<text text-anchor="middle" x="777.63" y="-144.5" font-family="Helvetica,sans-Serif" font-size="10.00">_mng.h</text>
</a>
</g>
</g>
<!-- Node1&#45;&gt;Node249 -->
<g id="edge15" class="edge">
<title>Node1&#45;&gt;Node249</title>
<path fill="none" stroke="#63b8ff" d="M2482.32,-298.84C2179.42,-294.53 1175.47,-278.24 1033.63,-250 947.68,-232.89 852.65,-190.32 806.27,-167.87"/>
<polygon fill="#63b8ff" stroke="#63b8ff" points="2482.09,-302.33 2492.14,-298.98 2482.19,-295.33 2482.09,-302.33"/>
</g>
<!-- Node253 -->
<g id="node18" class="node">
<title>Node253</title>
<g id="a_node18"><a xlink:href="f__op__overlap__req_8h.html" target="_top" xlink:title=" ">
<polygon fill="white" stroke="#666666" points="1569.63,-244.5 1441.63,-244.5 1441.63,-214.5 1569.63,-214.5 1569.63,-244.5"/>
<text text-anchor="start" x="1449.63" y="-232.5" font-family="Helvetica,sans-Serif" font-size="10.00">include/f_op/f_op_overlap</text>
<text text-anchor="middle" x="1505.63" y="-221.5" font-family="Helvetica,sans-Serif" font-size="10.00">_req.h</text>
</a>
</g>
</g>
<!-- Node1&#45;&gt;Node253 -->
<g id="edge20" class="edge">
<title>Node1&#45;&gt;Node253</title>
<path fill="none" stroke="#63b8ff" d="M2482.42,-297.93C2274.99,-292.59 1752.4,-276.83 1579.63,-250 1571.49,-248.74 1562.95,-246.94 1554.69,-244.94"/>
<polygon fill="#63b8ff" stroke="#63b8ff" points="2482.25,-301.43 2492.33,-298.19 2482.43,-294.43 2482.25,-301.43"/>
</g>
<!-- Node256 -->
<g id="node21" class="node">
<title>Node256</title>
<g id="a_node21"><a xlink:href="f__op__scene__tag_8h.html" target="_top" xlink:title=" ">
<polygon fill="white" stroke="#666666" points="1164.63,-244.5 1042.63,-244.5 1042.63,-214.5 1164.63,-214.5 1164.63,-244.5"/>
<text text-anchor="start" x="1050.63" y="-232.5" font-family="Helvetica,sans-Serif" font-size="10.00">include/f_op/f_op_scene</text>
<text text-anchor="middle" x="1103.63" y="-221.5" font-family="Helvetica,sans-Serif" font-size="10.00">_tag.h</text>
</a>
</g>
</g>
<!-- Node1&#45;&gt;Node256 -->
<g id="edge23" class="edge">
<title>Node1&#45;&gt;Node256</title>
<path fill="none" stroke="#63b8ff" d="M2482.56,-298.48C2276.95,-294.44 1741.04,-281.52 1294.63,-250 1251.24,-246.94 1202.45,-241.93 1165.05,-237.76"/>
<polygon fill="#63b8ff" stroke="#63b8ff" points="2482.29,-301.97 2492.36,-298.67 2482.43,-294.97 2482.29,-301.97"/>
</g>
<!-- Node271 -->
<g id="node25" class="node">
<title>Node271</title>
<g id="a_node25"><a xlink:href="f__pc__create__req_8h.html" target="_top" xlink:title=" ">
<polygon fill="white" stroke="#666666" points="1711.13,-244.5 1588.13,-244.5 1588.13,-214.5 1711.13,-214.5 1711.13,-244.5"/>
<text text-anchor="start" x="1596.13" y="-232.5" font-family="Helvetica,sans-Serif" font-size="10.00">include/f_pc/f_pc_create</text>
<text text-anchor="middle" x="1649.63" y="-221.5" font-family="Helvetica,sans-Serif" font-size="10.00">_req.h</text>
</a>
</g>
</g>
<!-- Node1&#45;&gt;Node271 -->
<g id="edge28" class="edge">
<title>Node1&#45;&gt;Node271</title>
<path fill="none" stroke="#63b8ff" d="M2482.53,-300.84C2328.57,-301.03 1996.39,-295.48 1720.63,-250 1712.94,-248.73 1704.88,-246.96 1697.06,-245"/>
<polygon fill="#63b8ff" stroke="#63b8ff" points="2482.25,-304.34 2492.24,-300.82 2482.23,-297.34 2482.25,-304.34"/>
</g>
<!-- Node392 -->
<g id="node31" class="node">
<title>Node392</title>
<g id="a_node31"><a xlink:href="f__pc__node__req_8h.html" target="_top" xlink:title=" ">
<polygon fill="#fff0f0" stroke="red" points="1846.13,-244.5 1729.13,-244.5 1729.13,-214.5 1846.13,-214.5 1846.13,-244.5"/>
<text text-anchor="start" x="1737.13" y="-232.5" font-family="Helvetica,sans-Serif" font-size="10.00">include/f_pc/f_pc_node</text>
<text text-anchor="middle" x="1787.63" y="-221.5" font-family="Helvetica,sans-Serif" font-size="10.00">_req.h</text>
</a>
</g>
</g>
<!-- Node1&#45;&gt;Node392 -->
<g id="edge36" class="edge">
<title>Node1&#45;&gt;Node392</title>
<path fill="none" stroke="#63b8ff" d="M2482.4,-299.75C2347.63,-298.06 2079.31,-289.47 1855.63,-250 1848.25,-248.7 1840.53,-246.91 1833.04,-244.94"/>
<polygon fill="#63b8ff" stroke="#63b8ff" points="2482.29,-303.25 2492.33,-299.86 2482.37,-296.25 2482.29,-303.25"/>
</g>
<!-- Node284 -->
<g id="node32" class="node">
<title>Node284</title>
<g id="a_node32"><a xlink:href="d__a__canoe_8h.html" target="_top" xlink:title=" ">
<polygon fill="white" stroke="#666666" points="1970.63,-244.5 1864.63,-244.5 1864.63,-214.5 1970.63,-214.5 1970.63,-244.5"/>
<text text-anchor="start" x="1872.63" y="-232.5" font-family="Helvetica,sans-Serif" font-size="10.00">include/rel/d/a/d_a</text>
<text text-anchor="middle" x="1917.63" y="-221.5" font-family="Helvetica,sans-Serif" font-size="10.00">_canoe/d_a_canoe.h</text>
</a>
</g>
</g>
<!-- Node1&#45;&gt;Node284 -->
<g id="edge37" class="edge">
<title>Node1&#45;&gt;Node284</title>
<path fill="none" stroke="#63b8ff" d="M2482.77,-298.61C2367.35,-295.4 2156.24,-284.83 1979.63,-250 1972.99,-248.69 1966.05,-246.92 1959.33,-244.99"/>
<polygon fill="#63b8ff" stroke="#63b8ff" points="2482.38,-302.1 2492.47,-298.87 2482.56,-295.1 2482.38,-302.1"/>
</g>
<!-- Node86 -->
<g id="node33" class="node">
<title>Node86</title>
<g id="a_node33"><a xlink:href="d__a__cstatue_8h.html" target="_top" xlink:title=" ">
<polygon fill="white" stroke="#666666" points="2106.63,-244.5 1988.63,-244.5 1988.63,-214.5 2106.63,-214.5 2106.63,-244.5"/>
<text text-anchor="start" x="1996.63" y="-232.5" font-family="Helvetica,sans-Serif" font-size="10.00">include/rel/d/a/d_a</text>
<text text-anchor="middle" x="2047.63" y="-221.5" font-family="Helvetica,sans-Serif" font-size="10.00">_cstatue/d_a_cstatue.h</text>
</a>
</g>
</g>
<!-- Node1&#45;&gt;Node86 -->
<g id="edge38" class="edge">
<title>Node1&#45;&gt;Node86</title>
<path fill="none" stroke="#63b8ff" d="M2482.45,-294.85C2390.83,-288.36 2242,-274.91 2115.63,-250 2108.64,-248.62 2101.33,-246.87 2094.2,-244.98"/>
<polygon fill="#63b8ff" stroke="#63b8ff" points="2482.16,-298.34 2492.38,-295.54 2482.65,-291.35 2482.16,-298.34"/>
</g>
<!-- Node299 -->
<g id="node34" class="node">
<title>Node299</title>
<g id="a_node34"><a xlink:href="d__a__tbox_8h.html" target="_top" xlink:title=" ">
<polygon fill="#fff0f0" stroke="red" points="2220.63,-244.5 2124.63,-244.5 2124.63,-214.5 2220.63,-214.5 2220.63,-244.5"/>
<text text-anchor="start" x="2132.63" y="-232.5" font-family="Helvetica,sans-Serif" font-size="10.00">include/rel/d/a/d_a</text>
<text text-anchor="middle" x="2172.63" y="-221.5" font-family="Helvetica,sans-Serif" font-size="10.00">_tbox/d_a_tbox.h</text>
</a>
</g>
</g>
<!-- Node1&#45;&gt;Node299 -->
<g id="edge40" class="edge">
<title>Node1&#45;&gt;Node299</title>
<path fill="none" stroke="#63b8ff" d="M2482.57,-291.71C2413.54,-284.01 2314.51,-270.6 2229.63,-250 2223.84,-248.59 2217.8,-246.85 2211.91,-244.98"/>
<polygon fill="#63b8ff" stroke="#63b8ff" points="2481.98,-295.17 2492.31,-292.78 2482.75,-288.21 2481.98,-295.17"/>
</g>
<!-- Node34 -->
<g id="node35" class="node">
<title>Node34</title>
<g id="a_node35"><a xlink:href="d__a__e__wb_8h.html" target="_top" xlink:title=" ">
<polygon fill="#fff0f0" stroke="red" points="2348.63,-244.5 2238.63,-244.5 2238.63,-214.5 2348.63,-214.5 2348.63,-244.5"/>
<text text-anchor="start" x="2246.63" y="-232.5" font-family="Helvetica,sans-Serif" font-size="10.00">include/rel/d/a/e/d</text>
<text text-anchor="middle" x="2293.63" y="-221.5" font-family="Helvetica,sans-Serif" font-size="10.00">_a_e_wb/d_a_e_wb.h</text>
</a>
</g>
</g>
<!-- Node1&#45;&gt;Node34 -->
<g id="edge41" class="edge">
<title>Node1&#45;&gt;Node34</title>
<path fill="none" stroke="#63b8ff" d="M2492.57,-283.01C2452.57,-273.79 2402.79,-261.87 2358.63,-250 2352.83,-248.44 2346.76,-246.73 2340.75,-244.99"/>
<polygon fill="#63b8ff" stroke="#63b8ff" points="2491.58,-286.37 2502.11,-285.19 2493.14,-279.55 2491.58,-286.37"/>
</g>
<!-- Node394 -->
<g id="node36" class="node">
<title>Node394</title>
<g id="a_node36"><a xlink:href="d__a__obj__barDesk_8h.html" target="_top" xlink:title=" ">
<polygon fill="white" stroke="#666666" points="2480.13,-250 2367.13,-250 2367.13,-209 2480.13,-209 2480.13,-250"/>
<text text-anchor="start" x="2375.13" y="-238" font-family="Helvetica,sans-Serif" font-size="10.00">include/rel/d/a/obj</text>
<text text-anchor="start" x="2375.13" y="-227" font-family="Helvetica,sans-Serif" font-size="10.00">/d_a_obj_barDesk/d_a</text>
<text text-anchor="middle" x="2423.63" y="-216" font-family="Helvetica,sans-Serif" font-size="10.00">_obj_barDesk.h</text>
</a>
</g>
</g>
<!-- Node1&#45;&gt;Node394 -->
<g id="edge42" class="edge">
<title>Node1&#45;&gt;Node394</title>
<path fill="none" stroke="#63b8ff" d="M2528.4,-280.72C2508.72,-271.28 2485.04,-259.94 2465.18,-250.42"/>
<polygon fill="#63b8ff" stroke="#63b8ff" points="2526.69,-283.78 2537.22,-284.95 2529.72,-277.47 2526.69,-283.78"/>
</g>
<!-- Node395 -->
<g id="node37" class="node">
<title>Node395</title>
<g id="a_node37"><a xlink:href="d__a__obj__bed_8h.html" target="_top" xlink:title=" ">
<polygon fill="white" stroke="#666666" points="2638.63,-244.5 2498.63,-244.5 2498.63,-214.5 2638.63,-214.5 2638.63,-244.5"/>
<text text-anchor="start" x="2506.63" y="-232.5" font-family="Helvetica,sans-Serif" font-size="10.00">include/rel/d/a/obj</text>
<text text-anchor="middle" x="2568.63" y="-221.5" font-family="Helvetica,sans-Serif" font-size="10.00">/d_a_obj_bed/d_a_obj_bed.h</text>
</a>
</g>
</g>
<!-- Node1&#45;&gt;Node395 -->
<g id="edge43" class="edge">
<title>Node1&#45;&gt;Node395</title>
<path fill="none" stroke="#63b8ff" d="M2568.63,-274.26C2568.63,-264.33 2568.63,-253.36 2568.63,-244.88"/>
<polygon fill="#63b8ff" stroke="#63b8ff" points="2565.13,-274.09 2568.63,-284.09 2572.13,-274.09 2565.13,-274.09"/>
</g>
<!-- Node91 -->
<g id="node38" class="node">
<title>Node91</title>
<g id="a_node38"><a xlink:href="d__a__obj__grave__stone_8h.html" target="_top" xlink:title=" ">
<polygon fill="white" stroke="#666666" points="2776.13,-250 2657.13,-250 2657.13,-209 2776.13,-209 2776.13,-250"/>
<text text-anchor="start" x="2665.13" y="-238" font-family="Helvetica,sans-Serif" font-size="10.00">include/rel/d/a/obj</text>
<text text-anchor="start" x="2665.13" y="-227" font-family="Helvetica,sans-Serif" font-size="10.00">/d_a_obj_grave_stone</text>
<text text-anchor="middle" x="2716.63" y="-216" font-family="Helvetica,sans-Serif" font-size="10.00">/d_a_obj_grave_stone.h</text>
</a>
</g>
</g>
<!-- Node1&#45;&gt;Node91 -->
<g id="edge44" class="edge">
<title>Node1&#45;&gt;Node91</title>
<path fill="none" stroke="#63b8ff" d="M2609.69,-280.72C2629.78,-271.28 2653.95,-259.94 2674.22,-250.42"/>
<polygon fill="#63b8ff" stroke="#63b8ff" points="2608.23,-277.54 2600.66,-284.96 2611.2,-283.87 2608.23,-277.54"/>
</g>
<!-- Node396 -->
<g id="node39" class="node">
<title>Node396</title>
<g id="a_node39"><a xlink:href="d__a__obj__lv1Candle00_8h.html" target="_top" xlink:title=" ">
<polygon fill="white" stroke="#666666" points="2913.13,-250 2794.13,-250 2794.13,-209 2913.13,-209 2913.13,-250"/>
<text text-anchor="start" x="2802.13" y="-238" font-family="Helvetica,sans-Serif" font-size="10.00">include/rel/d/a/obj</text>
<text text-anchor="start" x="2802.13" y="-227" font-family="Helvetica,sans-Serif" font-size="10.00">/d_a_obj_lv1Candle00</text>
<text text-anchor="middle" x="2853.63" y="-216" font-family="Helvetica,sans-Serif" font-size="10.00">/d_a_obj_lv1Candle00.h</text>
</a>
</g>
</g>
<!-- Node1&#45;&gt;Node396 -->
<g id="edge45" class="edge">
<title>Node1&#45;&gt;Node396</title>
<path fill="none" stroke="#63b8ff" d="M2646.46,-283.11C2687.91,-273.85 2739.68,-261.87 2785.63,-250 2788.36,-249.29 2791.16,-248.56 2793.97,-247.8"/>
<polygon fill="#63b8ff" stroke="#63b8ff" points="2645.81,-279.67 2636.81,-285.26 2647.33,-286.5 2645.81,-279.67"/>
</g>
<!-- Node397 -->
<g id="node40" class="node">
<title>Node397</title>
<g id="a_node40"><a xlink:href="d__a__obj__lv1Candle01_8h.html" target="_top" xlink:title=" ">
<polygon fill="white" stroke="#666666" points="3050.13,-250 2931.13,-250 2931.13,-209 3050.13,-209 3050.13,-250"/>
<text text-anchor="start" x="2939.13" y="-238" font-family="Helvetica,sans-Serif" font-size="10.00">include/rel/d/a/obj</text>
<text text-anchor="start" x="2939.13" y="-227" font-family="Helvetica,sans-Serif" font-size="10.00">/d_a_obj_lv1Candle01</text>
<text text-anchor="middle" x="2990.63" y="-216" font-family="Helvetica,sans-Serif" font-size="10.00">/d_a_obj_lv1Candle01.h</text>
</a>
</g>
</g>
<!-- Node1&#45;&gt;Node397 -->
<g id="edge46" class="edge">
<title>Node1&#45;&gt;Node397</title>
<path fill="none" stroke="#63b8ff" d="M2654.67,-291.23C2726.72,-283.09 2832.01,-269.29 2922.63,-250 2925.27,-249.44 2927.96,-248.83 2930.67,-248.18"/>
<polygon fill="#63b8ff" stroke="#63b8ff" points="2654.45,-287.74 2644.9,-292.33 2655.23,-294.69 2654.45,-287.74"/>
</g>
<!-- Node330 -->
<g id="node41" class="node">
<title>Node330</title>
<g id="a_node41"><a xlink:href="d__a__obj__lv2Candle_8h.html" target="_top" xlink:title=" ">
<polygon fill="white" stroke="#666666" points="3178.63,-250 3068.63,-250 3068.63,-209 3178.63,-209 3178.63,-250"/>
<text text-anchor="start" x="3076.63" y="-238" font-family="Helvetica,sans-Serif" font-size="10.00">include/rel/d/a/obj</text>
<text text-anchor="start" x="3076.63" y="-227" font-family="Helvetica,sans-Serif" font-size="10.00">/d_a_obj_lv2Candle/d</text>
<text text-anchor="middle" x="3123.63" y="-216" font-family="Helvetica,sans-Serif" font-size="10.00">_a_obj_lv2Candle.h</text>
</a>
</g>
</g>
<!-- Node1&#45;&gt;Node330 -->
<g id="edge47" class="edge">
<title>Node1&#45;&gt;Node330</title>
<path fill="none" stroke="#63b8ff" d="M2654.73,-296.3C2753.36,-290.89 2919.44,-278.22 3059.63,-250 3062.48,-249.43 3065.38,-248.78 3068.29,-248.08"/>
<polygon fill="#63b8ff" stroke="#63b8ff" points="2654.64,-292.8 2644.85,-296.83 2655.02,-299.79 2654.64,-292.8"/>
</g>
<!-- Node398 -->
<g id="node42" class="node">
<title>Node398</title>
<g id="a_node42"><a xlink:href="d__a__obj__snow__soup_8h.html" target="_top" xlink:title=" ">
<polygon fill="white" stroke="#666666" points="3312.63,-250 3196.63,-250 3196.63,-209 3312.63,-209 3312.63,-250"/>
<text text-anchor="start" x="3204.63" y="-238" font-family="Helvetica,sans-Serif" font-size="10.00">include/rel/d/a/obj</text>
<text text-anchor="start" x="3204.63" y="-227" font-family="Helvetica,sans-Serif" font-size="10.00">/d_a_obj_snow_soup/d</text>
<text text-anchor="middle" x="3254.63" y="-216" font-family="Helvetica,sans-Serif" font-size="10.00">_a_obj_snow_soup.h</text>
</a>
</g>
</g>
<!-- Node1&#45;&gt;Node398 -->
<g id="edge48" class="edge">
<title>Node1&#45;&gt;Node398</title>
<path fill="none" stroke="#63b8ff" d="M2654.9,-298.53C2775.17,-295.24 2999.65,-284.58 3187.63,-250 3190.49,-249.47 3193.4,-248.88 3196.33,-248.22"/>
<polygon fill="#63b8ff" stroke="#63b8ff" points="2655.01,-295.03 2645.1,-298.79 2655.19,-302.03 2655.01,-295.03"/>
</g>
<!-- Node399 -->
<g id="node43" class="node">
<title>Node399</title>
<g id="a_node43"><a xlink:href="d__a__obj__ss__item_8h.html" target="_top" xlink:title=" ">
<polygon fill="white" stroke="#666666" points="3442.63,-250 3330.63,-250 3330.63,-209 3442.63,-209 3442.63,-250"/>
<text text-anchor="start" x="3338.63" y="-238" font-family="Helvetica,sans-Serif" font-size="10.00">include/rel/d/a/obj</text>
<text text-anchor="start" x="3338.63" y="-227" font-family="Helvetica,sans-Serif" font-size="10.00">/d_a_obj_ss_item/d_a</text>
<text text-anchor="middle" x="3386.63" y="-216" font-family="Helvetica,sans-Serif" font-size="10.00">_obj_ss_item.h</text>
</a>
</g>
</g>
<!-- Node1&#45;&gt;Node399 -->
<g id="edge49" class="edge">
<title>Node1&#45;&gt;Node399</title>
<path fill="none" stroke="#63b8ff" d="M2654.69,-300.55C2795.36,-300.05 3082.81,-293.18 3321.63,-250 3324.53,-249.48 3327.48,-248.87 3330.45,-248.2"/>
<polygon fill="#63b8ff" stroke="#63b8ff" points="2655.09,-297.05 2645.1,-300.57 2655.11,-304.05 2655.09,-297.05"/>
</g>
<!-- Node400 -->
<g id="node44" class="node">
<title>Node400</title>
<g id="a_node44"><a xlink:href="d__a__obj__swhang_8h.html" target="_top" xlink:title=" ">
<polygon fill="white" stroke="#666666" points="3572.13,-250 3461.13,-250 3461.13,-209 3572.13,-209 3572.13,-250"/>
<text text-anchor="start" x="3469.13" y="-238" font-family="Helvetica,sans-Serif" font-size="10.00">include/rel/d/a/obj</text>
<text text-anchor="start" x="3469.13" y="-227" font-family="Helvetica,sans-Serif" font-size="10.00">/d_a_obj_swhang/d_a</text>
<text text-anchor="middle" x="3516.63" y="-216" font-family="Helvetica,sans-Serif" font-size="10.00">_obj_swhang.h</text>
</a>
</g>
</g>
<!-- Node1&#45;&gt;Node400 -->
<g id="edge50" class="edge">
<title>Node1&#45;&gt;Node400</title>
<path fill="none" stroke="#63b8ff" d="M2654.73,-297.7C2845.8,-292.17 3300.28,-276.61 3451.63,-250 3454.65,-249.47 3457.72,-248.85 3460.81,-248.15"/>
<polygon fill="#63b8ff" stroke="#63b8ff" points="2654.77,-294.2 2644.87,-297.98 2654.97,-301.19 2654.77,-294.2"/>
</g>
<!-- Node401 -->
<g id="node45" class="node">
<title>Node401</title>
<g id="a_node45"><a xlink:href="d__a__obj__zra__rock_8h.html" target="_top" xlink:title=" ">
<polygon fill="white" stroke="#666666" points="3694.63,-250 3590.63,-250 3590.63,-209 3694.63,-209 3694.63,-250"/>
<text text-anchor="start" x="3598.63" y="-238" font-family="Helvetica,sans-Serif" font-size="10.00">include/rel/d/a/obj</text>
<text text-anchor="start" x="3598.63" y="-227" font-family="Helvetica,sans-Serif" font-size="10.00">/d_a_obj_zra_rock/d</text>
<text text-anchor="middle" x="3642.63" y="-216" font-family="Helvetica,sans-Serif" font-size="10.00">_a_obj_zra_rock.h</text>
</a>
</g>
</g>
<!-- Node1&#45;&gt;Node401 -->
<g id="edge51" class="edge">
<title>Node1&#45;&gt;Node401</title>
<path fill="none" stroke="#63b8ff" d="M2654.79,-298.62C2865.94,-294.78 3404.8,-282.06 3581.63,-250 3584.47,-249.48 3587.37,-248.87 3590.28,-248.19"/>
<polygon fill="#63b8ff" stroke="#63b8ff" points="2654.92,-295.12 2644.99,-298.8 2655.05,-302.12 2654.92,-295.12"/>
</g>
<!-- Node402 -->
<g id="node46" class="node">
<title>Node402</title>
<g id="a_node46"><a xlink:href="d__a__tag__evt_8h.html" target="_top" xlink:title=" ">
<polygon fill="white" stroke="#666666" points="3850.13,-244.5 3713.13,-244.5 3713.13,-214.5 3850.13,-214.5 3850.13,-244.5"/>
<text text-anchor="start" x="3721.13" y="-232.5" font-family="Helvetica,sans-Serif" font-size="10.00">include/rel/d/a/tag</text>
<text text-anchor="middle" x="3781.63" y="-221.5" font-family="Helvetica,sans-Serif" font-size="10.00">/d_a_tag_evt/d_a_tag_evt.h</text>
</a>
</g>
</g>
<!-- Node1&#45;&gt;Node402 -->
<g id="edge52" class="edge">
<title>Node1&#45;&gt;Node402</title>
<path fill="none" stroke="#63b8ff" d="M2654.83,-298.45C2883.44,-293.96 3501.49,-279.41 3703.63,-250 3712.19,-248.75 3721.18,-246.97 3729.89,-244.98"/>
<polygon fill="#63b8ff" stroke="#63b8ff" points="2655.03,-294.94 2645.1,-298.63 2655.17,-301.94 2655.03,-294.94"/>
</g>
<!-- Node403 -->
<g id="node47" class="node">
<title>Node403</title>
<g id="a_node47"><a xlink:href="c__phase_8cpp.html" target="_top" xlink:title=" ">
<polygon fill="white" stroke="#666666" points="4002.63,-244.5 3868.63,-244.5 3868.63,-214.5 4002.63,-214.5 4002.63,-244.5"/>
<text text-anchor="start" x="3876.63" y="-232.5" font-family="Helvetica,sans-Serif" font-size="10.00">libs/SSystem/SComponent</text>
<text text-anchor="middle" x="3935.63" y="-221.5" font-family="Helvetica,sans-Serif" font-size="10.00">/c_phase.cpp</text>
</a>
</g>
</g>
<!-- Node1&#45;&gt;Node403 -->
<g id="edge53" class="edge">
<title>Node1&#45;&gt;Node403</title>
<path fill="none" stroke="#63b8ff" d="M2654.73,-299.05C2904.46,-295.91 3626.15,-284.08 3859.63,-250 3868.12,-248.76 3877.04,-246.95 3885.65,-244.92"/>
<polygon fill="#63b8ff" stroke="#63b8ff" points="2655.02,-295.55 2645.06,-299.17 2655.11,-302.54 2655.02,-295.55"/>
</g>
<!-- Node404 -->
<g id="node48" class="node">
<title>Node404</title>
<g id="a_node48"><a xlink:href="d__kyeff2_8cpp.html" target="_top" xlink:title=" ">
<polygon fill="white" stroke="#666666" points="4116.13,-239 4021.13,-239 4021.13,-220 4116.13,-220 4116.13,-239"/>
<text text-anchor="middle" x="4068.63" y="-227" font-family="Helvetica,sans-Serif" font-size="10.00">src/d/d_kyeff2.cpp</text>
</a>
</g>
</g>
<!-- Node1&#45;&gt;Node404 -->
<g id="edge54" class="edge">
<title>Node1&#45;&gt;Node404</title>
<path fill="none" stroke="#63b8ff" d="M2654.62,-300.33C2923.97,-300.86 3749,-298.37 4011.63,-250 4023.77,-247.76 4036.83,-243.45 4047.38,-239.44"/>
<polygon fill="#63b8ff" stroke="#63b8ff" points="2654.88,-296.83 2644.88,-300.31 2654.87,-303.83 2654.88,-296.83"/>
</g>
<!-- Node405 -->
<g id="node49" class="node">
<title>Node405</title>
<g id="a_node49"><a xlink:href="f__pc__base_8cpp.html" target="_top" xlink:title=" ">
<polygon fill="white" stroke="#666666" points="4252.63,-239 4134.63,-239 4134.63,-220 4252.63,-220 4252.63,-239"/>
<text text-anchor="middle" x="4193.63" y="-227" font-family="Helvetica,sans-Serif" font-size="10.00">src/f_pc/f_pc_base.cpp</text>
</a>
</g>
</g>
<!-- Node1&#45;&gt;Node405 -->
<g id="edge55" class="edge">
<title>Node1&#45;&gt;Node405</title>
<path fill="none" stroke="#63b8ff" d="M2654.93,-300.03C2938.36,-299.69 3838.88,-295.01 4125.63,-250 4139.95,-247.75 4155.51,-243.43 4168.13,-239.43"/>
<polygon fill="#63b8ff" stroke="#63b8ff" points="2655.01,-296.53 2645.02,-300.04 2655.02,-303.53 2655.01,-296.53"/>
</g>
<!-- Node406 -->
<g id="node50" class="node">
<title>Node406</title>
<g id="a_node50"><a xlink:href="f__pc__load_8cpp.html" target="_top" xlink:title=" ">
<polygon fill="white" stroke="#666666" points="4386.13,-239 4271.13,-239 4271.13,-220 4386.13,-220 4386.13,-239"/>
<text text-anchor="middle" x="4328.63" y="-227" font-family="Helvetica,sans-Serif" font-size="10.00">src/f_pc/f_pc_load.cpp</text>
</a>
</g>
</g>
<!-- Node1&#45;&gt;Node406 -->
<g id="edge56" class="edge">
<title>Node1&#45;&gt;Node406</title>
<path fill="none" stroke="#63b8ff" d="M2654.79,-300.34C2954.05,-301.06 3947.25,-299.56 4261.63,-250 4275.75,-247.77 4291.09,-243.46 4303.52,-239.45"/>
<polygon fill="#63b8ff" stroke="#63b8ff" points="2655.12,-296.84 2645.11,-300.31 2655.1,-303.84 2655.12,-296.84"/>
</g>
<!-- Node3 -->
<g id="node3" class="node">
<title>Node3</title>
<g id="a_node3"><a xlink:href="d__a__item__static_8h.html" target="_top" xlink:title=" ">
<polygon fill="#fff0f0" stroke="red" points="128.13,-167.5 21.13,-167.5 21.13,-137.5 128.13,-137.5 128.13,-167.5"/>
<text text-anchor="start" x="29.13" y="-155.5" font-family="Helvetica,sans-Serif" font-size="10.00">include/d/a/d_a_item</text>
<text text-anchor="middle" x="74.63" y="-144.5" font-family="Helvetica,sans-Serif" font-size="10.00">_static.h</text>
</a>
</g>
</g>
<!-- Node2&#45;&gt;Node3 -->
<g id="edge2" class="edge">
<title>Node2&#45;&gt;Node3</title>
<path fill="none" stroke="#63b8ff" d="M321.43,-217.15C272.8,-206.68 199.59,-190.18 136.63,-173 130.97,-171.46 125.05,-169.73 119.21,-167.97"/>
<polygon fill="#63b8ff" stroke="#63b8ff" points="320.65,-220.57 331.16,-219.24 322.11,-213.72 320.65,-220.57"/>
</g>
<!-- Node8 -->
<g id="node4" class="node">
<title>Node8</title>
<g id="a_node4"><a xlink:href="d__a__shop__item__static_8h.html" target="_top" xlink:title=" ">
<polygon fill="#fff0f0" stroke="red" points="255.13,-167.5 146.13,-167.5 146.13,-137.5 255.13,-137.5 255.13,-167.5"/>
<text text-anchor="start" x="154.13" y="-155.5" font-family="Helvetica,sans-Serif" font-size="10.00">include/d/a/d_a_shop</text>
<text text-anchor="middle" x="200.63" y="-144.5" font-family="Helvetica,sans-Serif" font-size="10.00">_item_static.h</text>
</a>
</g>
</g>
<!-- Node2&#45;&gt;Node8 -->
<g id="edge3" class="edge">
<title>Node2&#45;&gt;Node8</title>
<path fill="none" stroke="#63b8ff" d="M344.65,-215.22C313.66,-201.94 266.13,-181.57 234.24,-167.9"/>
<polygon fill="#63b8ff" stroke="#63b8ff" points="342.91,-218.28 353.48,-219.01 345.66,-211.85 342.91,-218.28"/>
</g>
<!-- Node12 -->
<g id="node5" class="node">
<title>Node12</title>
<g id="a_node5"><a xlink:href="d__event_8h.html" target="_top" xlink:title=" ">
<polygon fill="#fff0f0" stroke="red" points="439.63,-162 311.63,-162 311.63,-143 439.63,-143 439.63,-162"/>
<text text-anchor="middle" x="375.63" y="-150" font-family="Helvetica,sans-Serif" font-size="10.00">include/d/event/d_event.h</text>
</a>
</g>
</g>
<!-- Node2&#45;&gt;Node12 -->
<g id="edge4" class="edge">
<title>Node2&#45;&gt;Node12</title>
<path fill="none" stroke="#63b8ff" d="M375.63,-208.42C375.63,-193.43 375.63,-173.66 375.63,-162.39"/>
<polygon fill="#63b8ff" stroke="#63b8ff" points="372.13,-208.09 375.63,-218.09 379.13,-208.09 372.13,-208.09"/>
</g>
<!-- Node182 -->
<g id="node8" class="node">
<title>Node182</title>
<g id="a_node8"><a xlink:href="d__a__itembase_8cpp.html" target="_top" xlink:title=" ">
<polygon fill="white" stroke="#666666" points="393.63,-24.5 265.63,-24.5 265.63,-5.5 393.63,-5.5 393.63,-24.5"/>
<text text-anchor="middle" x="329.63" y="-12.5" font-family="Helvetica,sans-Serif" font-size="10.00">src/d/a/d_a_itembase.cpp</text>
</a>
</g>
</g>
<!-- Node2&#45;&gt;Node182 -->
<g id="edge10" class="edge">
<title>Node2&#45;&gt;Node182</title>
<path fill="none" stroke="#63b8ff" d="M345.29,-214.08C329.46,-204.77 311.56,-191.02 302.63,-173 276.95,-121.21 311.2,-49.34 324.64,-24.7"/>
<polygon fill="#63b8ff" stroke="#63b8ff" points="343.51,-217.09 353.96,-218.82 346.87,-210.95 343.51,-217.09"/>
</g>
<!-- Node246 -->
<g id="node10" class="node">
<title>Node246</title>
<g id="a_node10"><a xlink:href="d__a__obj__kantera_8h.html" target="_top" xlink:title=" ">
<polygon fill="white" stroke="#666666" points="567.63,-173 457.63,-173 457.63,-132 567.63,-132 567.63,-173"/>
<text text-anchor="start" x="465.63" y="-161" font-family="Helvetica,sans-Serif" font-size="10.00">include/rel/d/a/obj</text>
<text text-anchor="start" x="465.63" y="-150" font-family="Helvetica,sans-Serif" font-size="10.00">/d_a_obj_kantera/d_a</text>
<text text-anchor="middle" x="512.63" y="-139" font-family="Helvetica,sans-Serif" font-size="10.00">_obj_kantera.h</text>
</a>
</g>
</g>
<!-- Node2&#45;&gt;Node246 -->
<g id="edge9" class="edge">
<title>Node2&#45;&gt;Node246</title>
<path fill="none" stroke="#63b8ff" d="M401.76,-214.19C422.9,-202.62 452.91,-186.19 476.37,-173.35"/>
<polygon fill="#63b8ff" stroke="#63b8ff" points="400.3,-211 393.21,-218.88 403.66,-217.14 400.3,-211"/>
</g>
<!-- Node247 -->
<g id="node11" class="node">
<title>Node247</title>
<g id="a_node11"><a xlink:href="d__a__itembase__static_8cpp.html" target="_top" xlink:title=" ">
<polygon fill="white" stroke="#666666" points="695.63,-167.5 585.63,-167.5 585.63,-137.5 695.63,-137.5 695.63,-167.5"/>
<text text-anchor="start" x="593.63" y="-155.5" font-family="Helvetica,sans-Serif" font-size="10.00">src/d/a/d_a_itembase</text>
<text text-anchor="middle" x="640.63" y="-144.5" font-family="Helvetica,sans-Serif" font-size="10.00">_static.cpp</text>
</a>
</g>
</g>
<!-- Node2&#45;&gt;Node247 -->
<g id="edge11" class="edge">
<title>Node2&#45;&gt;Node247</title>
<path fill="none" stroke="#63b8ff" d="M420.05,-216.59C460.84,-205.58 522.92,-188.59 576.63,-173 582.21,-171.38 588.05,-169.65 593.83,-167.91"/>
<polygon fill="#63b8ff" stroke="#63b8ff" points="419.34,-213.16 410.6,-219.14 421.16,-219.92 419.34,-213.16"/>
</g>
<!-- Node13 -->
<g id="node6" class="node">
<title>Node13</title>
<g id="a_node6"><a xlink:href="d__com__inf__game_8h.html" target="_top" xlink:title=" ">
<polygon fill="#fff0f0" stroke="red" points="430.63,-96 320.63,-96 320.63,-66 430.63,-66 430.63,-96"/>
<text text-anchor="start" x="328.63" y="-84" font-family="Helvetica,sans-Serif" font-size="10.00">include/d/com/d_com</text>
<text text-anchor="middle" x="375.63" y="-73" font-family="Helvetica,sans-Serif" font-size="10.00">_inf_game.h</text>
</a>
</g>
</g>
<!-- Node12&#45;&gt;Node13 -->
<g id="edge5" class="edge">
<title>Node12&#45;&gt;Node13</title>
<path fill="none" stroke="#63b8ff" d="M375.63,-131.39C375.63,-120.15 375.63,-106.41 375.63,-96.27"/>
<polygon fill="#63b8ff" stroke="#63b8ff" points="372.13,-131.18 375.63,-141.18 379.13,-131.18 372.13,-131.18"/>
</g>
<!-- Node13&#45;&gt;Node100 -->
<g id="edge6" class="edge">
<title>Node13&#45;&gt;Node100</title>
<path fill="none" stroke="#63b8ff" d="M309.25,-66.07C253.7,-54.41 175.45,-38 123.92,-27.18"/>
<polygon fill="#63b8ff" stroke="#63b8ff" points="308.41,-69.47 318.91,-68.1 309.85,-62.62 308.41,-69.47"/>
</g>
<!-- Node13&#45;&gt;Node182 -->
<g id="edge7" class="edge">
<title>Node13&#45;&gt;Node182</title>
<path fill="none" stroke="#63b8ff" d="M358.82,-56.61C350.88,-45.56 341.87,-33.03 335.99,-24.84"/>
<polygon fill="#63b8ff" stroke="#63b8ff" points="355.86,-58.49 364.54,-64.57 361.54,-54.4 355.86,-58.49"/>
</g>
<!-- Node194 -->
<g id="node9" class="node">
<title>Node194</title>
<g id="a_node9"><a xlink:href="d__gameover_8cpp.html" target="_top" xlink:title=" ">
<polygon fill="white" stroke="#666666" points="961.13,-24.5 848.13,-24.5 848.13,-5.5 961.13,-5.5 961.13,-24.5"/>
<text text-anchor="middle" x="904.63" y="-12.5" font-family="Helvetica,sans-Serif" font-size="10.00">src/d/d_gameover.cpp</text>
</a>
</g>
</g>
<!-- Node13&#45;&gt;Node194 -->
<g id="edge8" class="edge">
<title>Node13&#45;&gt;Node194</title>
<path fill="none" stroke="#63b8ff" d="M442.12,-71.96C546.99,-59.27 749.01,-34.83 847.64,-22.89"/>
<polygon fill="#63b8ff" stroke="#63b8ff" points="441.75,-68.47 432.25,-73.15 442.59,-75.42 441.75,-68.47"/>
</g>
<!-- Node248&#45;&gt;Node194 -->
<g id="edge13" class="edge">
<title>Node248&#45;&gt;Node194</title>
<path fill="none" stroke="#63b8ff" d="M1369.11,-208.43C1373.56,-188.33 1377.6,-156.89 1367.63,-132 1352.55,-94.36 1340.85,-84.24 1304.63,-66 1245.79,-36.37 1057.19,-23.28 961.48,-18.43"/>
<polygon fill="#63b8ff" stroke="#63b8ff" points="1365.72,-207.56 1366.71,-218.11 1372.52,-209.24 1365.72,-207.56"/>
</g>
<!-- Node63 -->
<g id="node13" class="node">
<title>Node63</title>
<g id="a_node13"><a xlink:href="d__event__data_8cpp.html" target="_top" xlink:title=" ">
<polygon fill="white" stroke="#666666" points="1358.13,-167.5 1255.13,-167.5 1255.13,-137.5 1358.13,-137.5 1358.13,-167.5"/>
<text text-anchor="start" x="1263.13" y="-155.5" font-family="Helvetica,sans-Serif" font-size="10.00">src/d/event/d_event</text>
<text text-anchor="middle" x="1306.63" y="-144.5" font-family="Helvetica,sans-Serif" font-size="10.00">_data.cpp</text>
</a>
</g>
</g>
<!-- Node248&#45;&gt;Node63 -->
<g id="edge14" class="edge">
<title>Node248&#45;&gt;Node63</title>
<path fill="none" stroke="#63b8ff" d="M1350.03,-210.61C1340.07,-197.5 1326.72,-179.94 1317.47,-167.77"/>
<polygon fill="#63b8ff" stroke="#63b8ff" points="1347.11,-212.55 1355.95,-218.4 1352.69,-208.32 1347.11,-212.55"/>
</g>
<!-- Node249&#45;&gt;Node13 -->
<g id="edge16" class="edge">
<title>Node249&#45;&gt;Node13</title>
<path fill="none" stroke="#63b8ff" d="M715.42,-134.39C711.78,-133.54 708.16,-132.74 704.63,-132 609.2,-112.07 496.62,-96.69 430.97,-88.52"/>
<polygon fill="#63b8ff" stroke="#63b8ff" points="714.34,-137.73 724.88,-136.69 715.99,-130.93 714.34,-137.73"/>
</g>
<!-- Node250 -->
<g id="node15" class="node">
<title>Node250</title>
<g id="a_node15"><a xlink:href="d__s__name_8h.html" target="_top" xlink:title=" ">
<polygon fill="#fff0f0" stroke="red" points="1039.13,-90.5 920.13,-90.5 920.13,-71.5 1039.13,-71.5 1039.13,-90.5"/>
<text text-anchor="middle" x="979.63" y="-78.5" font-family="Helvetica,sans-Serif" font-size="10.00">include/d/s/d_s_name.h</text>
</a>
</g>
</g>
<!-- Node249&#45;&gt;Node250 -->
<g id="edge17" class="edge">
<title>Node249&#45;&gt;Node250</title>
<path fill="none" stroke="#63b8ff" d="M830.28,-133.38C869.89,-119.76 922.49,-101.66 953.53,-90.98"/>
<polygon fill="#63b8ff" stroke="#63b8ff" points="829.23,-130.04 820.91,-136.61 831.51,-136.66 829.23,-130.04"/>
</g>
<!-- Node251 -->
<g id="node16" class="node">
<title>Node251</title>
<g id="a_node16"><a xlink:href="f__ap__game_8cpp.html" target="_top" xlink:title=" ">
<polygon fill="white" stroke="#666666" points="838.13,-90.5 717.13,-90.5 717.13,-71.5 838.13,-71.5 838.13,-90.5"/>
<text text-anchor="middle" x="777.63" y="-78.5" font-family="Helvetica,sans-Serif" font-size="10.00">src/f_ap/f_ap_game.cpp</text>
</a>
</g>
</g>
<!-- Node249&#45;&gt;Node251 -->
<g id="edge18" class="edge">
<title>Node249&#45;&gt;Node251</title>
<path fill="none" stroke="#63b8ff" d="M777.63,-125.96C777.63,-113.57 777.63,-99.49 777.63,-90.68"/>
<polygon fill="#63b8ff" stroke="#63b8ff" points="774.13,-125.59 777.63,-135.59 781.13,-125.59 774.13,-125.59"/>
</g>
<!-- Node252 -->
<g id="node17" class="node">
<title>Node252</title>
<g id="a_node17"><a xlink:href="f__op__camera__mng_8cpp.html" target="_top" xlink:title=" ">
<polygon fill="white" stroke="#666666" points="1295.13,-96 1184.13,-96 1184.13,-66 1295.13,-66 1295.13,-96"/>
<text text-anchor="start" x="1192.13" y="-84" font-family="Helvetica,sans-Serif" font-size="10.00">src/f_op/f_op_camera</text>
<text text-anchor="middle" x="1239.63" y="-73" font-family="Helvetica,sans-Serif" font-size="10.00">_mng.cpp</text>
</a>
</g>
</g>
<!-- Node249&#45;&gt;Node252 -->
<g id="edge19" class="edge">
<title>Node249&#45;&gt;Node252</title>
<path fill="none" stroke="#63b8ff" d="M839.07,-134.46C842.97,-133.58 846.85,-132.74 850.63,-132 968.21,-108.85 1107.98,-93.9 1183.85,-86.81"/>
<polygon fill="#63b8ff" stroke="#63b8ff" points="838.47,-131.01 829.56,-136.74 840.1,-137.82 838.47,-131.01"/>
</g>
<!-- Node254 -->
<g id="node19" class="node">
<title>Node254</title>
<g id="a_node19"><a xlink:href="f__op__overlap__mng_8cpp.html" target="_top" xlink:title=" ">
<polygon fill="white" stroke="#666666" points="1524.63,-167.5 1414.63,-167.5 1414.63,-137.5 1524.63,-137.5 1524.63,-167.5"/>
<text text-anchor="start" x="1422.63" y="-155.5" font-family="Helvetica,sans-Serif" font-size="10.00">src/f_op/f_op_overlap</text>
<text text-anchor="middle" x="1469.63" y="-144.5" font-family="Helvetica,sans-Serif" font-size="10.00">_mng.cpp</text>
</a>
</g>
</g>
<!-- Node253&#45;&gt;Node254 -->
<g id="edge21" class="edge">
<title>Node253&#45;&gt;Node254</title>
<path fill="none" stroke="#63b8ff" d="M1493.79,-203.83C1488.07,-191.93 1481.42,-178.07 1476.55,-167.92"/>
<polygon fill="#63b8ff" stroke="#63b8ff" points="1490.55,-205.17 1498.03,-212.67 1496.86,-202.14 1490.55,-205.17"/>
</g>
<!-- Node255 -->
<g id="node20" class="node">
<title>Node255</title>
<g id="a_node20"><a xlink:href="f__op__overlap__req_8cpp.html" target="_top" xlink:title=" ">
<polygon fill="white" stroke="#666666" points="1655.63,-96 1545.63,-96 1545.63,-66 1655.63,-66 1655.63,-96"/>
<text text-anchor="start" x="1553.63" y="-84" font-family="Helvetica,sans-Serif" font-size="10.00">src/f_op/f_op_overlap</text>
<text text-anchor="middle" x="1600.63" y="-73" font-family="Helvetica,sans-Serif" font-size="10.00">_req.cpp</text>
</a>
</g>
</g>
<!-- Node253&#45;&gt;Node255 -->
<g id="edge22" class="edge">
<title>Node253&#45;&gt;Node255</title>
<path fill="none" stroke="#63b8ff" d="M1521.09,-204.65C1541.06,-173.86 1575.16,-121.27 1591.45,-96.16"/>
<polygon fill="#63b8ff" stroke="#63b8ff" points="1518.24,-202.62 1515.73,-212.92 1524.11,-206.43 1518.24,-202.62"/>
</g>
<!-- Node257 -->
<g id="node22" class="node">
<title>Node257</title>
<g id="a_node22"><a xlink:href="f__op__scene_8h.html" target="_top" xlink:title=" ">
<polygon fill="#fff0f0" stroke="red" points="1236.63,-162 1106.63,-162 1106.63,-143 1236.63,-143 1236.63,-162"/>
<text text-anchor="middle" x="1171.63" y="-150" font-family="Helvetica,sans-Serif" font-size="10.00">include/f_op/f_op_scene.h</text>
</a>
</g>
</g>
<!-- Node256&#45;&gt;Node257 -->
<g id="edge24" class="edge">
<title>Node256&#45;&gt;Node257</title>
<path fill="none" stroke="#63b8ff" d="M1124.11,-205.91C1137.42,-191.23 1154.02,-172.92 1163.66,-162.29"/>
<polygon fill="#63b8ff" stroke="#63b8ff" points="1121.88,-203.16 1117.76,-212.92 1127.07,-207.86 1121.88,-203.16"/>
</g>
<!-- Node269 -->
<g id="node23" class="node">
<title>Node269</title>
<g id="a_node23"><a xlink:href="f__op__scene__iter_8cpp.html" target="_top" xlink:title=" ">
<polygon fill="white" stroke="#666666" points="1088.13,-167.5 983.13,-167.5 983.13,-137.5 1088.13,-137.5 1088.13,-167.5"/>
<text text-anchor="start" x="991.13" y="-155.5" font-family="Helvetica,sans-Serif" font-size="10.00">src/f_op/f_op_scene</text>
<text text-anchor="middle" x="1035.63" y="-144.5" font-family="Helvetica,sans-Serif" font-size="10.00">_iter.cpp</text>
</a>
</g>
</g>
<!-- Node256&#45;&gt;Node269 -->
<g id="edge26" class="edge">
<title>Node256&#45;&gt;Node269</title>
<path fill="none" stroke="#63b8ff" d="M1082.89,-205.63C1071.76,-193.35 1058.38,-178.59 1048.7,-167.92"/>
<polygon fill="#63b8ff" stroke="#63b8ff" points="1080.19,-207.86 1089.5,-212.92 1085.38,-203.16 1080.19,-207.86"/>
</g>
<!-- Node270 -->
<g id="node24" class="node">
<title>Node270</title>
<g id="a_node24"><a xlink:href="f__op__scene__tag_8cpp.html" target="_top" xlink:title=" ">
<polygon fill="white" stroke="#666666" points="965.13,-167.5 860.13,-167.5 860.13,-137.5 965.13,-137.5 965.13,-167.5"/>
<text text-anchor="start" x="868.13" y="-155.5" font-family="Helvetica,sans-Serif" font-size="10.00">src/f_op/f_op_scene</text>
<text text-anchor="middle" x="912.63" y="-144.5" font-family="Helvetica,sans-Serif" font-size="10.00">_tag.cpp</text>
</a>
</g>
</g>
<!-- Node256&#45;&gt;Node270 -->
<g id="edge27" class="edge">
<title>Node256&#45;&gt;Node270</title>
<path fill="none" stroke="#63b8ff" d="M1056.46,-209.98C1023.4,-197 979.83,-179.89 949.34,-167.92"/>
<polygon fill="#63b8ff" stroke="#63b8ff" points="1054.81,-213.09 1065.39,-213.49 1057.36,-206.57 1054.81,-213.09"/>
</g>
<!-- Node257&#45;&gt;Node250 -->
<g id="edge25" class="edge">
<title>Node257&#45;&gt;Node250</title>
<path fill="none" stroke="#63b8ff" d="M1136.25,-138.69C1097.92,-124.82 1037.75,-103.04 1004.24,-90.91"/>
<polygon fill="#63b8ff" stroke="#63b8ff" points="1134.9,-141.93 1145.5,-142.04 1137.29,-135.35 1134.9,-141.93"/>
</g>
<!-- Node272 -->
<g id="node26" class="node">
<title>Node272</title>
<g id="a_node26"><a xlink:href="f__pc__fstcreate__req_8h.html" target="_top" xlink:title=" ">
<polygon fill="#fff0f0" stroke="red" points="1870.63,-167.5 1736.63,-167.5 1736.63,-137.5 1870.63,-137.5 1870.63,-167.5"/>
<text text-anchor="start" x="1744.63" y="-155.5" font-family="Helvetica,sans-Serif" font-size="10.00">include/f_pc/f_pc_fstcreate</text>
<text text-anchor="middle" x="1803.63" y="-144.5" font-family="Helvetica,sans-Serif" font-size="10.00">_req.h</text>
</a>
</g>
</g>
<!-- Node271&#45;&gt;Node272 -->
<g id="edge29" class="edge">
<title>Node271&#45;&gt;Node272</title>
<path fill="none" stroke="#63b8ff" d="M1689.4,-209.13C1715.83,-196.26 1749.98,-179.63 1774.03,-167.92"/>
<polygon fill="#63b8ff" stroke="#63b8ff" points="1688.14,-205.85 1680.68,-213.38 1691.21,-212.14 1688.14,-205.85"/>
</g>
<!-- Node274 -->
<g id="node27" class="node">
<title>Node274</title>
<g id="a_node27"><a xlink:href="f__pc__stdcreate__req_8h.html" target="_top" xlink:title=" ">
<polygon fill="#fff0f0" stroke="red" points="1718.13,-167.5 1581.13,-167.5 1581.13,-137.5 1718.13,-137.5 1718.13,-167.5"/>
<text text-anchor="start" x="1589.13" y="-155.5" font-family="Helvetica,sans-Serif" font-size="10.00">include/f_pc/f_pc_stdcreate</text>
<text text-anchor="middle" x="1649.63" y="-144.5" font-family="Helvetica,sans-Serif" font-size="10.00">_req.h</text>
</a>
</g>
</g>
<!-- Node271&#45;&gt;Node274 -->
<g id="edge30" class="edge">
<title>Node271&#45;&gt;Node274</title>
<path fill="none" stroke="#63b8ff" d="M1649.63,-202.73C1649.63,-191.08 1649.63,-177.76 1649.63,-167.92"/>
<polygon fill="#63b8ff" stroke="#63b8ff" points="1646.13,-202.53 1649.63,-212.53 1653.13,-202.53 1646.13,-202.53"/>
</g>
<!-- Node389 -->
<g id="node28" class="node">
<title>Node389</title>
<g id="a_node28"><a xlink:href="f__pc__create__iter_8cpp.html" target="_top" xlink:title=" ">
<polygon fill="white" stroke="#666666" points="1994.63,-167.5 1888.63,-167.5 1888.63,-137.5 1994.63,-137.5 1994.63,-167.5"/>
<text text-anchor="start" x="1896.63" y="-155.5" font-family="Helvetica,sans-Serif" font-size="10.00">src/f_pc/f_pc_create</text>
<text text-anchor="middle" x="1941.63" y="-144.5" font-family="Helvetica,sans-Serif" font-size="10.00">_iter.cpp</text>
</a>
</g>
</g>
<!-- Node271&#45;&gt;Node389 -->
<g id="edge33" class="edge">
<title>Node271&#45;&gt;Node389</title>
<path fill="none" stroke="#63b8ff" d="M1712.19,-211.15C1715.04,-210.41 1717.86,-209.69 1720.63,-209 1790.91,-191.4 1809.68,-191.89 1879.63,-173 1885.29,-171.47 1891.22,-169.76 1897.06,-168"/>
<polygon fill="#63b8ff" stroke="#63b8ff" points="1711.38,-207.74 1702.6,-213.67 1713.16,-214.51 1711.38,-207.74"/>
</g>
<!-- Node390 -->
<g id="node29" class="node">
<title>Node390</title>
<g id="a_node29"><a xlink:href="f__pc__create__req_8cpp.html" target="_top" xlink:title=" ">
<polygon fill="white" stroke="#666666" points="2118.63,-167.5 2012.63,-167.5 2012.63,-137.5 2118.63,-137.5 2118.63,-167.5"/>
<text text-anchor="start" x="2020.63" y="-155.5" font-family="Helvetica,sans-Serif" font-size="10.00">src/f_pc/f_pc_create</text>
<text text-anchor="middle" x="2065.63" y="-144.5" font-family="Helvetica,sans-Serif" font-size="10.00">_req.cpp</text>
</a>
</g>
</g>
<!-- Node271&#45;&gt;Node390 -->
<g id="edge34" class="edge">
<title>Node271&#45;&gt;Node390</title>
<path fill="none" stroke="#63b8ff" d="M1709.72,-211.36C1713.4,-210.51 1717.06,-209.71 1720.63,-209 1844.96,-184.15 1879.77,-200.13 2003.63,-173 2010.02,-171.6 2016.7,-169.83 2023.21,-167.94"/>
<polygon fill="#63b8ff" stroke="#63b8ff" points="1709.04,-207.93 1700.15,-213.7 1710.7,-214.73 1709.04,-207.93"/>
</g>
<!-- Node391 -->
<g id="node30" class="node">
<title>Node391</title>
<g id="a_node30"><a xlink:href="f__pc__creator_8cpp.html" target="_top" xlink:title=" ">
<polygon fill="white" stroke="#666666" points="2264.13,-162 2137.13,-162 2137.13,-143 2264.13,-143 2264.13,-162"/>
<text text-anchor="middle" x="2200.63" y="-150" font-family="Helvetica,sans-Serif" font-size="10.00">src/f_pc/f_pc_creator.cpp</text>
</a>
</g>
</g>
<!-- Node271&#45;&gt;Node391 -->
<g id="edge35" class="edge">
<title>Node271&#45;&gt;Node391</title>
<path fill="none" stroke="#63b8ff" d="M1708.94,-211.37C1712.88,-210.49 1716.8,-209.69 1720.63,-209 1899.35,-176.82 1948.8,-204.55 2127.63,-173 2142.36,-170.4 2158.44,-166.25 2171.76,-162.45"/>
<polygon fill="#63b8ff" stroke="#63b8ff" points="1708.26,-207.93 1699.34,-213.65 1709.88,-214.74 1708.26,-207.93"/>
</g>
<!-- Node274&#45;&gt;Node252 -->
<g id="edge31" class="edge">
<title>Node274&#45;&gt;Node252</title>
<path fill="none" stroke="#63b8ff" d="M1569.91,-137.99C1489.22,-124.31 1366.54,-103.51 1295.61,-91.49"/>
<polygon fill="#63b8ff" stroke="#63b8ff" points="1569.07,-141.39 1579.51,-139.61 1570.24,-134.49 1569.07,-141.39"/>
</g>
<!-- Node274&#45;&gt;Node255 -->
<g id="edge32" class="edge">
<title>Node274&#45;&gt;Node255</title>
<path fill="none" stroke="#63b8ff" d="M1632.85,-127.7C1625.51,-117.29 1617.14,-105.42 1610.77,-96.38"/>
<polygon fill="#63b8ff" stroke="#63b8ff" points="1629.98,-129.71 1638.6,-135.86 1635.7,-125.67 1629.98,-129.71"/>
</g>
</g>
</svg>
