<?xml version="1.0" encoding="UTF-8" standalone="no"?>
<!DOCTYPE svg PUBLIC "-//W3C//DTD SVG 1.1//EN"
 "http://www.w3.org/Graphics/SVG/1.1/DTD/svg11.dtd">
<!-- Generated by graphviz version 7.0.5 (20221223.1930)
 -->
<!-- Title: libs/SSystem/SComponent/c_tag.cpp Pages: 1 -->
<svg width="461pt" height="236pt"
 viewBox="0.00 0.00 461.00 236.00" xmlns="http://www.w3.org/2000/svg" xmlns:xlink="http://www.w3.org/1999/xlink">
<g id="graph0" class="graph" transform="scale(1 1) rotate(0) translate(4 232)">
<title>libs/SSystem/SComponent/c_tag.cpp</title>
<!-- Node1 -->
<g id="node1" class="node">
<title>Node1</title>
<g id="a_node1"><a xlink:title=" ">
<polygon fill="#999999" stroke="#666666" points="285,-228 151,-228 151,-198 285,-198 285,-228"/>
<text text-anchor="start" x="159" y="-216" font-family="Helvetica,sans-Serif" font-size="10.00">libs/SSystem/SComponent</text>
<text text-anchor="middle" x="218" y="-205" font-family="Helvetica,sans-Serif" font-size="10.00">/c_tag.cpp</text>
</a>
</g>
</g>
<!-- Node2 -->
<g id="node2" class="node">
<title>Node2</title>
<g id="a_node2"><a xlink:href="c__tag_8h.html" target="_top" xlink:title=" ">
<polygon fill="white" stroke="#666666" points="147,-162 31,-162 31,-132 147,-132 147,-162"/>
<text text-anchor="start" x="39" y="-150" font-family="Helvetica,sans-Serif" font-size="10.00">SSystem/SComponent</text>
<text text-anchor="middle" x="89" y="-139" font-family="Helvetica,sans-Serif" font-size="10.00">/c_tag.h</text>
</a>
</g>
</g>
<!-- Node1&#45;&gt;Node2 -->
<g id="edge1" class="edge">
<title>Node1&#45;&gt;Node2</title>
<path fill="none" stroke="#63b8ff" d="M189.05,-197.64C171.04,-188.7 147.66,-177.1 128.02,-167.36"/>
<polygon fill="#63b8ff" stroke="#63b8ff" points="129.72,-164.3 119.21,-162.99 126.61,-170.57 129.72,-164.3"/>
</g>
<!-- Node4 -->
<g id="node4" class="node">
<title>Node4</title>
<g id="a_node4"><a xlink:href="types_8h.html" target="_top" xlink:title=" ">
<polygon fill="white" stroke="#666666" points="215.5,-90.5 134.5,-90.5 134.5,-71.5 215.5,-71.5 215.5,-90.5"/>
<text text-anchor="middle" x="175" y="-78.5" font-family="Helvetica,sans-Serif" font-size="10.00">dolphin/types.h</text>
</a>
</g>
</g>
<!-- Node1&#45;&gt;Node4 -->
<g id="edge7" class="edge">
<title>Node1&#45;&gt;Node4</title>
<path fill="none" stroke="#63b8ff" d="M210.23,-197.91C205.06,-188.08 198.44,-174.53 194,-162 186.86,-141.84 181.57,-117.88 178.41,-101.47"/>
<polygon fill="#63b8ff" stroke="#63b8ff" points="181.93,-101.27 176.69,-92.07 175.05,-102.54 181.93,-101.27"/>
</g>
<!-- Node6 -->
<g id="node6" class="node">
<title>Node6</title>
<g id="a_node6"><a xlink:href="c__list_8h.html" target="_top" xlink:title=" ">
<polygon fill="white" stroke="#666666" points="319,-162 203,-162 203,-132 319,-132 319,-162"/>
<text text-anchor="start" x="211" y="-150" font-family="Helvetica,sans-Serif" font-size="10.00">SSystem/SComponent</text>
<text text-anchor="middle" x="261" y="-139" font-family="Helvetica,sans-Serif" font-size="10.00">/c_list.h</text>
</a>
</g>
</g>
<!-- Node1&#45;&gt;Node6 -->
<g id="edge5" class="edge">
<title>Node1&#45;&gt;Node6</title>
<path fill="none" stroke="#63b8ff" d="M227.54,-197.8C232.72,-190.09 239.25,-180.37 245.17,-171.56"/>
<polygon fill="#63b8ff" stroke="#63b8ff" points="247.97,-173.67 250.64,-163.42 242.16,-169.77 247.97,-173.67"/>
</g>
<!-- Node7 -->
<g id="node7" class="node">
<title>Node7</title>
<g id="a_node7"><a xlink:href="c__tree_8h.html" target="_top" xlink:title=" ">
<polygon fill="white" stroke="#666666" points="453,-162 337,-162 337,-132 453,-132 453,-162"/>
<text text-anchor="start" x="345" y="-150" font-family="Helvetica,sans-Serif" font-size="10.00">SSystem/SComponent</text>
<text text-anchor="middle" x="395" y="-139" font-family="Helvetica,sans-Serif" font-size="10.00">/c_tree.h</text>
</a>
</g>
</g>
<!-- Node1&#45;&gt;Node7 -->
<g id="edge6" class="edge">
<title>Node1&#45;&gt;Node7</title>
<path fill="none" stroke="#63b8ff" d="M257.72,-197.64C283.37,-188.36 316.96,-176.22 344.49,-166.26"/>
<polygon fill="#63b8ff" stroke="#63b8ff" points="345.47,-169.63 353.68,-162.94 343.09,-163.05 345.47,-169.63"/>
</g>
<!-- Node3 -->
<g id="node3" class="node">
<title>Node3</title>
<g id="a_node3"><a xlink:href="c__node_8h.html" target="_top" xlink:title=" ">
<polygon fill="white" stroke="#666666" points="116,-96 0,-96 0,-66 116,-66 116,-96"/>
<text text-anchor="start" x="8" y="-84" font-family="Helvetica,sans-Serif" font-size="10.00">SSystem/SComponent</text>
<text text-anchor="middle" x="58" y="-73" font-family="Helvetica,sans-Serif" font-size="10.00">/c_node.h</text>
</a>
</g>
</g>
<!-- Node2&#45;&gt;Node3 -->
<g id="edge2" class="edge">
<title>Node2&#45;&gt;Node3</title>
<path fill="none" stroke="#63b8ff" d="M82.12,-131.8C78.51,-124.34 73.98,-114.99 69.83,-106.41"/>
<polygon fill="#63b8ff" stroke="#63b8ff" points="73.03,-105 65.52,-97.53 66.73,-108.05 73.03,-105"/>
</g>
<!-- Node2&#45;&gt;Node4 -->
<g id="edge3" class="edge">
<title>Node2&#45;&gt;Node4</title>
<path fill="none" stroke="#63b8ff" d="M108.09,-131.8C121.76,-121.62 140.15,-107.93 154.2,-97.48"/>
<polygon fill="#63b8ff" stroke="#63b8ff" points="155.97,-100.53 161.9,-91.75 151.79,-94.91 155.97,-100.53"/>
</g>
<!-- Node5 -->
<g id="node5" class="node">
<title>Node5</title>
<g id="a_node5"><a xlink:href="stddef_8h.html" target="_top" xlink:title=" ">
<polygon fill="white" stroke="#666666" points="243,-30 107,-30 107,0 243,0 243,-30"/>
<text text-anchor="start" x="115" y="-18" font-family="Helvetica,sans-Serif" font-size="10.00">MSL_C/MSL_Common/Src</text>
<text text-anchor="middle" x="175" y="-7" font-family="Helvetica,sans-Serif" font-size="10.00">/stddef.h</text>
</a>
</g>
</g>
<!-- Node4&#45;&gt;Node5 -->
<g id="edge4" class="edge">
<title>Node4&#45;&gt;Node5</title>
<path fill="none" stroke="#63b8ff" d="M175,-71.1C175,-63.41 175,-51.92 175,-41.42"/>
<polygon fill="#63b8ff" stroke="#63b8ff" points="178.5,-41.75 175,-31.75 171.5,-41.75 178.5,-41.75"/>
</g>
</g>
</svg>
