<?xml version="1.0" encoding="UTF-8" standalone="no"?>
<!DOCTYPE svg PUBLIC "-//W3C//DTD SVG 1.1//EN"
 "http://www.w3.org/Graphics/SVG/1.1/DTD/svg11.dtd">
<!-- Generated by graphviz version 7.0.5 (20221223.1930)
 -->
<!-- Title: libs/dolphin/card/CARDRdwr.c Pages: 1 -->
<!--zoomable 313 -->
<svg id="main" version="1.1" xmlns="http://www.w3.org/2000/svg" xmlns:xlink="http://www.w3.org/1999/xlink" xml:space="preserve" onload="init(evt)">
<style type="text/css"><![CDATA[
.edge:hover path { stroke: red; }
.edge:hover polygon { stroke: red; fill: red; }
]]></style>
<script type="text/javascript"><![CDATA[
var edges = document.getElementsByTagName('g');
if (edges && edges.length) {
  for (var i=0;i<edges.length;i++) {
    if (edges[i].id.substr(0,4)=='edge') {
      edges[i].setAttribute('class','edge');
    }
  }
}
]]></script>
        <defs>
                <circle id="rim" cx="0" cy="0" r="7"/>
                <circle id="rim2" cx="0" cy="0" r="3.5"/>
                <g id="zoomPlus">
                        <use xlink:href="#rim" fill="#404040">
                                <set attributeName="fill" to="#808080" begin="zoomplus.mouseover" end="zoomplus.mouseout"/>
                        </use>
                        <path d="M-4,0h8M0,-4v8" fill="none" stroke="white" stroke-width="1.5" pointer-events="none"/>
                </g>
                <g id="zoomMin">
                        <use xlink:href="#rim" fill="#404040">
                                <set attributeName="fill" to="#808080" begin="zoomminus.mouseover" end="zoomminus.mouseout"/>
                        </use>
                        <path d="M-4,0h8" fill="none" stroke="white" stroke-width="1.5" pointer-events="none"/>
                </g>
                <g id="dirArrow">
                        <path fill="none" stroke="white" stroke-width="1.5" d="M0,-3.0v7 M-2.5,-0.5L0,-3.0L2.5,-0.5"/>
                </g>
               <g id="resetDef">
                       <use xlink:href="#rim2" fill="#404040">
                               <set attributeName="fill" to="#808080" begin="reset.mouseover" end="reset.mouseout"/>
                       </use>
               </g>
        </defs>

<script type="text/javascript">
var viewWidth = 556;
var viewHeight = 313;
var sectionId = 'dynsection-0';
</script>
<script xlink:href="svgpan.js"/>
<svg id="graph" class="graph">
<g id="viewport">
<title>libs/dolphin/card/CARDRdwr.c</title>
<!-- Node1 -->
<g id="node1" class="node">
<title>Node1</title>
<g id="a_node1"><a xlink:title=" ">
<polygon fill="#999999" stroke="#666666" points="268,-305 121,-305 121,-286 268,-286 268,-305"/>
<text text-anchor="middle" x="194.5" y="-293" font-family="Helvetica,sans-Serif" font-size="10.00">libs/dolphin/card/CARDRdwr.c</text>
</a>
</g>
</g>
<!-- Node2 -->
<g id="node2" class="node">
<title>Node2</title>
<g id="a_node2"><a xlink:href="CARDRdwr_8h.html" target="_top" xlink:title=" ">
<polygon fill="white" stroke="#666666" points="129,-250 0,-250 0,-231 129,-231 129,-250"/>
<text text-anchor="middle" x="64.5" y="-238" font-family="Helvetica,sans-Serif" font-size="10.00">dolphin/card/CARDRdwr.h</text>
</a>
</g>
</g>
<!-- Node1&#45;&gt;Node2 -->
<g id="edge1" class="edge">
<title>Node1&#45;&gt;Node2</title>
<path fill="none" stroke="#63b8ff" d="M172.45,-285.51C151.69,-277.04 120.34,-264.27 96.77,-254.66"/>
<polygon fill="#63b8ff" stroke="#63b8ff" points="98.21,-251.46 87.63,-250.93 95.57,-257.95 98.21,-251.46"/>
</g>
<!-- Node3 -->
<g id="node3" class="node">
<title>Node3</title>
<g id="a_node3"><a xlink:href="card_8h.html" target="_top" xlink:title=" ">
<polygon fill="white" stroke="#666666" points="201.5,-195 103.5,-195 103.5,-176 201.5,-176 201.5,-195"/>
<text text-anchor="middle" x="152.5" y="-183" font-family="Helvetica,sans-Serif" font-size="10.00">dolphin/card/card.h</text>
</a>
</g>
</g>
<!-- Node1&#45;&gt;Node3 -->
<g id="edge2" class="edge">
<title>Node1&#45;&gt;Node3</title>
<path fill="none" stroke="#63b8ff" d="M190.85,-285.66C187.17,-276.7 181.36,-262.42 176.5,-250 170.71,-235.19 164.36,-218.36 159.64,-205.75"/>
<polygon fill="#63b8ff" stroke="#63b8ff" points="163,-204.72 156.23,-196.57 156.44,-207.16 163,-204.72"/>
</g>
<!-- Node6 -->
<g id="node6" class="node">
<title>Node6</title>
<g id="a_node6"><a xlink:href="dsp_8h.html" target="_top" xlink:title=" ">
<polygon fill="white" stroke="#666666" points="277.5,-250 185.5,-250 185.5,-231 277.5,-231 277.5,-250"/>
<text text-anchor="middle" x="231.5" y="-238" font-family="Helvetica,sans-Serif" font-size="10.00">dolphin/dsp/dsp.h</text>
</a>
</g>
</g>
<!-- Node1&#45;&gt;Node6 -->
<g id="edge5" class="edge">
<title>Node1&#45;&gt;Node6</title>
<path fill="none" stroke="#63b8ff" d="M200.61,-285.75C205.51,-278.73 212.55,-268.64 218.67,-259.87"/>
<polygon fill="#63b8ff" stroke="#63b8ff" points="221.54,-261.89 224.39,-251.68 215.8,-257.88 221.54,-261.89"/>
</g>
<!-- Node8 -->
<g id="node8" class="node">
<title>Node8</title>
<g id="a_node8"><a xlink:href="CARDPriv_8h.html" target="_top" xlink:title=" ">
<polygon fill="white" stroke="#666666" points="419.5,-250 295.5,-250 295.5,-231 419.5,-231 419.5,-250"/>
<text text-anchor="middle" x="357.5" y="-238" font-family="Helvetica,sans-Serif" font-size="10.00">dolphin/card/CARDPriv.h</text>
</a>
</g>
</g>
<!-- Node1&#45;&gt;Node8 -->
<g id="edge8" class="edge">
<title>Node1&#45;&gt;Node8</title>
<path fill="none" stroke="#63b8ff" d="M222.15,-285.51C248.81,-276.84 289.38,-263.65 319.16,-253.97"/>
<polygon fill="#63b8ff" stroke="#63b8ff" points="320.12,-257.33 328.55,-250.91 317.95,-250.68 320.12,-257.33"/>
</g>
<!-- Node4 -->
<g id="node4" class="node">
<title>Node4</title>
<g id="a_node4"><a xlink:href="types_8h.html" target="_top" xlink:title=" ">
<polygon fill="white" stroke="#666666" points="335,-85 254,-85 254,-66 335,-66 335,-85"/>
<text text-anchor="middle" x="294.5" y="-73" font-family="Helvetica,sans-Serif" font-size="10.00">dolphin/types.h</text>
</a>
</g>
</g>
<!-- Node3&#45;&gt;Node4 -->
<g id="edge3" class="edge">
<title>Node3&#45;&gt;Node4</title>
<path fill="none" stroke="#63b8ff" d="M152.4,-175.92C152.71,-162.49 155.26,-136.43 169.5,-121 188.41,-100.5 217.4,-89.44 242.7,-83.47"/>
<polygon fill="#63b8ff" stroke="#63b8ff" points="243.11,-86.96 252.16,-81.46 241.65,-80.11 243.11,-86.96"/>
</g>
<!-- Node5 -->
<g id="node5" class="node">
<title>Node5</title>
<g id="a_node5"><a xlink:href="stddef_8h.html" target="_top" xlink:title=" ">
<polygon fill="white" stroke="#666666" points="362.5,-30 226.5,-30 226.5,0 362.5,0 362.5,-30"/>
<text text-anchor="start" x="234.5" y="-18" font-family="Helvetica,sans-Serif" font-size="10.00">MSL_C/MSL_Common/Src</text>
<text text-anchor="middle" x="294.5" y="-7" font-family="Helvetica,sans-Serif" font-size="10.00">/stddef.h</text>
</a>
</g>
</g>
<!-- Node4&#45;&gt;Node5 -->
<g id="edge4" class="edge">
<title>Node4&#45;&gt;Node5</title>
<path fill="none" stroke="#63b8ff" d="M294.5,-65.87C294.5,-59.4 294.5,-50.2 294.5,-41.45"/>
<polygon fill="#63b8ff" stroke="#63b8ff" points="298,-41.63 294.5,-31.63 291,-41.63 298,-41.63"/>
</g>
<!-- Node7 -->
<g id="node7" class="node">
<title>Node7</title>
<g id="a_node7"><a xlink:href="OSTime_8h.html" target="_top" xlink:title=" ">
<polygon fill="white" stroke="#666666" points="286,-140 179,-140 179,-121 286,-121 286,-140"/>
<text text-anchor="middle" x="232.5" y="-128" font-family="Helvetica,sans-Serif" font-size="10.00">dolphin/os/OSTime.h</text>
</a>
</g>
</g>
<!-- Node6&#45;&gt;Node7 -->
<g id="edge6" class="edge">
<title>Node6&#45;&gt;Node7</title>
<path fill="none" stroke="#63b8ff" d="M231.58,-230.66C231.74,-213.57 232.09,-175.61 232.31,-151.92"/>
<polygon fill="#63b8ff" stroke="#63b8ff" points="235.81,-152.01 232.4,-141.97 228.81,-151.94 235.81,-152.01"/>
</g>
<!-- Node7&#45;&gt;Node4 -->
<g id="edge7" class="edge">
<title>Node7&#45;&gt;Node4</title>
<path fill="none" stroke="#63b8ff" d="M243.02,-120.51C251.89,-112.93 264.81,-101.88 275.49,-92.75"/>
<polygon fill="#63b8ff" stroke="#63b8ff" points="277.66,-95.5 282.99,-86.34 273.11,-90.18 277.66,-95.5"/>
</g>
<!-- Node9 -->
<g id="node9" class="node">
<title>Node9</title>
<g id="a_node9"><a xlink:href="OSAlarm_8h.html" target="_top" xlink:title=" ">
<polygon fill="white" stroke="#666666" points="412,-195 301,-195 301,-176 412,-176 412,-195"/>
<text text-anchor="middle" x="356.5" y="-183" font-family="Helvetica,sans-Serif" font-size="10.00">dolphin/os/OSAlarm.h</text>
</a>
</g>
</g>
<!-- Node8&#45;&gt;Node9 -->
<g id="edge9" class="edge">
<title>Node8&#45;&gt;Node9</title>
<path fill="none" stroke="#63b8ff" d="M357.33,-230.75C357.21,-224.27 357.04,-215.16 356.88,-206.9"/>
<polygon fill="#63b8ff" stroke="#63b8ff" points="360.39,-206.89 356.7,-196.96 353.39,-207.02 360.39,-206.89"/>
</g>
<!-- Node11 -->
<g id="node11" class="node">
<title>Node11</title>
<g id="a_node11"><a xlink:href="OSThread_8h.html" target="_top" xlink:title=" ">
<polygon fill="white" stroke="#666666" points="546.5,-195 430.5,-195 430.5,-176 546.5,-176 546.5,-195"/>
<text text-anchor="middle" x="488.5" y="-183" font-family="Helvetica,sans-Serif" font-size="10.00">dolphin/os/OSThread.h</text>
</a>
</g>
</g>
<!-- Node8&#45;&gt;Node11 -->
<g id="edge13" class="edge">
<title>Node8&#45;&gt;Node11</title>
<path fill="none" stroke="#63b8ff" d="M379.72,-230.51C400.64,-222.04 432.23,-209.27 455.98,-199.66"/>
<polygon fill="#63b8ff" stroke="#63b8ff" points="457.25,-202.92 465.2,-195.93 454.62,-196.43 457.25,-202.92"/>
</g>
<!-- Node9&#45;&gt;Node7 -->
<g id="edge12" class="edge">
<title>Node9&#45;&gt;Node7</title>
<path fill="none" stroke="#63b8ff" d="M335.47,-175.51C315.75,-167.08 286.03,-154.38 263.59,-144.79"/>
<polygon fill="#63b8ff" stroke="#63b8ff" points="265.19,-141.66 254.62,-140.95 262.44,-148.1 265.19,-141.66"/>
</g>
<!-- Node10 -->
<g id="node10" class="node">
<title>Node10</title>
<g id="a_node10"><a xlink:href="OSError_8h.html" target="_top" xlink:title=" ">
<polygon fill="white" stroke="#666666" points="410.5,-140 304.5,-140 304.5,-121 410.5,-121 410.5,-140"/>
<text text-anchor="middle" x="357.5" y="-128" font-family="Helvetica,sans-Serif" font-size="10.00">dolphin/os/OSError.h</text>
</a>
</g>
</g>
<!-- Node9&#45;&gt;Node10 -->
<g id="edge10" class="edge">
<title>Node9&#45;&gt;Node10</title>
<path fill="none" stroke="#63b8ff" d="M356.67,-175.75C356.79,-169.27 356.96,-160.16 357.12,-151.9"/>
<polygon fill="#63b8ff" stroke="#63b8ff" points="360.61,-152.02 357.3,-141.96 353.61,-151.89 360.61,-152.02"/>
</g>
<!-- Node10&#45;&gt;Node4 -->
<g id="edge11" class="edge">
<title>Node10&#45;&gt;Node4</title>
<path fill="none" stroke="#63b8ff" d="M346.81,-120.51C337.8,-112.93 324.67,-101.88 313.82,-92.75"/>
<polygon fill="#63b8ff" stroke="#63b8ff" points="316.09,-90.09 306.19,-86.33 311.59,-95.45 316.09,-90.09"/>
</g>
<!-- Node12 -->
<g id="node12" class="node">
<title>Node12</title>
<g id="a_node12"><a xlink:href="OSContext_8h.html" target="_top" xlink:title=" ">
<polygon fill="white" stroke="#666666" points="548,-140 429,-140 429,-121 548,-121 548,-140"/>
<text text-anchor="middle" x="488.5" y="-128" font-family="Helvetica,sans-Serif" font-size="10.00">dolphin/os/OSContext.h</text>
</a>
</g>
</g>
<!-- Node11&#45;&gt;Node12 -->
<g id="edge14" class="edge">
<title>Node11&#45;&gt;Node12</title>
<path fill="none" stroke="#63b8ff" d="M488.5,-175.75C488.5,-169.27 488.5,-160.16 488.5,-151.9"/>
<polygon fill="#63b8ff" stroke="#63b8ff" points="492,-151.96 488.5,-141.96 485,-151.96 492,-151.96"/>
</g>
<!-- Node12&#45;&gt;Node4 -->
<g id="edge15" class="edge">
<title>Node12&#45;&gt;Node4</title>
<path fill="none" stroke="#63b8ff" d="M455.59,-120.51C423.3,-111.69 373.87,-98.18 338.28,-88.46"/>
<polygon fill="#63b8ff" stroke="#63b8ff" points="339.28,-85.1 328.71,-85.85 337.43,-91.86 339.28,-85.1"/>
</g>
</g>
</svg>
        <g id="navigator" transform="translate(0 0)" fill="#404254">
                <rect fill="#f2f5e9" fill-opacity="0.5" stroke="#606060" stroke-width=".5" x="0" y="0" width="60" height="60"/>
                <use id="zoomplus" xlink:href="#zoomPlus" x="17" y="9" onmousedown="handleZoom(evt,'in')"/>
                <use id="zoomminus" xlink:href="#zoomMin" x="42" y="9" onmousedown="handleZoom(evt,'out')"/>
                <use id="reset" xlink:href="#resetDef" x="30" y="36" onmousedown="handleReset()"/>
                <g id="arrowUp" xlink:href="#dirArrow" transform="translate(30 24)" onmousedown="handlePan(0,-1)">
                  <use xlink:href="#rim" fill="#404040">
                        <set attributeName="fill" to="#808080" begin="arrowUp.mouseover" end="arrowUp.mouseout"/>
                  </use>
                  <path fill="none" stroke="white" stroke-width="1.5" d="M0,-3.0v7 M-2.5,-0.5L0,-3.0L2.5,-0.5"/>
                </g>
                <g id="arrowRight" xlink:href="#dirArrow" transform="rotate(90) translate(36 -43)" onmousedown="handlePan(1,0)">
                  <use xlink:href="#rim" fill="#404040">
                        <set attributeName="fill" to="#808080" begin="arrowRight.mouseover" end="arrowRight.mouseout"/>
                  </use>
                  <path fill="none" stroke="white" stroke-width="1.5" d="M0,-3.0v7 M-2.5,-0.5L0,-3.0L2.5,-0.5"/>
                </g>
                <g id="arrowDown" xlink:href="#dirArrow" transform="rotate(180) translate(-30 -48)" onmousedown="handlePan(0,1)">
                  <use xlink:href="#rim" fill="#404040">
                        <set attributeName="fill" to="#808080" begin="arrowDown.mouseover" end="arrowDown.mouseout"/>
                  </use>
                  <path fill="none" stroke="white" stroke-width="1.5" d="M0,-3.0v7 M-2.5,-0.5L0,-3.0L2.5,-0.5"/>
                </g>
                <g id="arrowLeft" xlink:href="#dirArrow" transform="rotate(270) translate(-36 17)" onmousedown="handlePan(-1,0)">
                  <use xlink:href="#rim" fill="#404040">
                        <set attributeName="fill" to="#808080" begin="arrowLeft.mouseover" end="arrowLeft.mouseout"/>
                  </use>
                  <path fill="none" stroke="white" stroke-width="1.5" d="M0,-3.0v7 M-2.5,-0.5L0,-3.0L2.5,-0.5"/>
                </g>
        </g>
        <svg viewBox="0 0 15 15" width="100%" height="30px" preserveAspectRatio="xMaxYMin meet">
         <g id="arrow_out" transform="scale(0.3 0.3)">
          <a xlink:href="CARDRdwr_8c__incl_org.svg" target="_base">
           <rect id="button" ry="5" rx="5" y="6" x="6" height="38" width="38"
                fill="#f2f5e9" fill-opacity="0.5" stroke="#606060" stroke-width="1.0"/>
           <path id="arrow"
             d="M 11.500037,31.436501 C 11.940474,20.09759 22.043105,11.32322 32.158766,21.979434 L 37.068811,17.246167 C 37.068811,17.246167 37.088388,32 37.088388,32 L 22.160133,31.978069 C 22.160133,31.978069 26.997745,27.140456 26.997745,27.140456 C 18.528582,18.264221 13.291696,25.230495 11.500037,31.436501 z"
             style="fill:#404040;"/>
          </a>
         </g>
        </svg>
</svg>
