<?xml version="1.0" encoding="UTF-8" standalone="no"?>
<!DOCTYPE svg PUBLIC "-//W3C//DTD SVG 1.1//EN"
 "http://www.w3.org/Graphics/SVG/1.1/DTD/svg11.dtd">
<!-- Generated by graphviz version 7.0.5 (20221223.1930)
 -->
<!-- Title: dPa_levelEcallBack Pages: 1 -->
<svg width="425pt" height="286pt"
 viewBox="0.00 0.00 425.00 286.00" xmlns="http://www.w3.org/2000/svg" xmlns:xlink="http://www.w3.org/1999/xlink">
<g id="graph0" class="graph" transform="scale(1 1) rotate(0) translate(4 282)">
<title>dPa_levelEcallBack</title>
<!-- Node1 -->
<g id="node1" class="node">
<title>Node1</title>
<g id="a_node1"><a xlink:title=" ">
<polygon fill="#999999" stroke="#666666" points="244,-148 141,-148 141,-129 244,-129 244,-148"/>
<text text-anchor="middle" x="192.5" y="-136" font-family="Helvetica,sans-Serif" font-size="10.00">dPa_levelEcallBack</text>
</a>
</g>
</g>
<!-- Node3 -->
<g id="node3" class="node">
<title>Node3</title>
<g id="a_node3"><a xlink:href="classdPa__followEcallBack.html" target="_top" xlink:title=" ">
<polygon fill="white" stroke="#666666" points="402.5,-278 294.5,-278 294.5,-259 402.5,-259 402.5,-278"/>
<text text-anchor="middle" x="348.5" y="-266" font-family="Helvetica,sans-Serif" font-size="10.00">dPa_followEcallBack</text>
</a>
</g>
</g>
<!-- Node1&#45;&gt;Node3 -->
<g id="edge2" class="edge">
<title>Node1&#45;&gt;Node3</title>
<path fill="none" stroke="#63b8ff" d="M203.43,-158.23C217.17,-183.48 244.36,-226.8 280,-250.5 284.85,-253.72 290.25,-256.37 295.83,-258.55"/>
<polygon fill="#63b8ff" stroke="#63b8ff" points="206.68,-156.9 198.94,-149.67 200.49,-160.15 206.68,-156.9"/>
</g>
<!-- Node4 -->
<g id="node4" class="node">
<title>Node4</title>
<g id="a_node4"><a xlink:href="classdPa__gen__b__light8EcallBack.html" target="_top" xlink:title=" ">
<polygon fill="white" stroke="#666666" points="417,-241 280,-241 280,-222 417,-222 417,-241"/>
<text text-anchor="middle" x="348.5" y="-229" font-family="Helvetica,sans-Serif" font-size="10.00">dPa_gen_b_light8EcallBack</text>
</a>
</g>
</g>
<!-- Node1&#45;&gt;Node4 -->
<g id="edge3" class="edge">
<title>Node1&#45;&gt;Node4</title>
<path fill="none" stroke="#63b8ff" d="M209.51,-156.46C225.68,-173.54 252.18,-198.75 280,-213.5 286,-216.68 292.61,-219.33 299.26,-221.53"/>
<polygon fill="#63b8ff" stroke="#63b8ff" points="212.42,-154.46 203.07,-149.48 207.27,-159.21 212.42,-154.46"/>
</g>
<!-- Node5 -->
<g id="node5" class="node">
<title>Node5</title>
<g id="a_node5"><a xlink:href="classdPa__gen__d__light8EcallBack.html" target="_top" xlink:title=" ">
<polygon fill="white" stroke="#666666" points="417,-204 280,-204 280,-185 417,-185 417,-204"/>
<text text-anchor="middle" x="348.5" y="-192" font-family="Helvetica,sans-Serif" font-size="10.00">dPa_gen_d_light8EcallBack</text>
</a>
</g>
</g>
<!-- Node1&#45;&gt;Node5 -->
<g id="edge4" class="edge">
<title>Node1&#45;&gt;Node5</title>
<path fill="none" stroke="#63b8ff" d="M223.85,-153.2C240.23,-160.78 260.95,-169.82 280,-176.5 288.35,-179.43 297.43,-182.15 306.14,-184.55"/>
<polygon fill="#63b8ff" stroke="#63b8ff" points="225.68,-150.19 215.14,-149.11 222.7,-156.53 225.68,-150.19"/>
</g>
<!-- Node6 -->
<g id="node6" class="node">
<title>Node6</title>
<g id="a_node6"><a xlink:href="classdPa__hermiteEcallBack__c.html" target="_top" xlink:title=" ">
<polygon fill="white" stroke="#666666" points="411,-167 286,-167 286,-148 411,-148 411,-167"/>
<text text-anchor="middle" x="348.5" y="-155" font-family="Helvetica,sans-Serif" font-size="10.00">dPa_hermiteEcallBack_c</text>
</a>
</g>
</g>
<!-- Node1&#45;&gt;Node6 -->
<g id="edge5" class="edge">
<title>Node1&#45;&gt;Node6</title>
<path fill="none" stroke="#63b8ff" d="M255.75,-146.18C265.63,-147.4 275.84,-148.66 285.71,-149.88"/>
<polygon fill="#63b8ff" stroke="#63b8ff" points="256.21,-142.71 245.85,-144.96 255.35,-149.66 256.21,-142.71"/>
</g>
<!-- Node7 -->
<g id="node7" class="node">
<title>Node7</title>
<g id="a_node7"><a xlink:href="classdPa__light8EcallBack.html" target="_top" xlink:title=" ">
<polygon fill="white" stroke="#666666" points="401.5,-130 295.5,-130 295.5,-111 401.5,-111 401.5,-130"/>
<text text-anchor="middle" x="348.5" y="-118" font-family="Helvetica,sans-Serif" font-size="10.00">dPa_light8EcallBack</text>
</a>
</g>
</g>
<!-- Node1&#45;&gt;Node7 -->
<g id="edge6" class="edge">
<title>Node1&#45;&gt;Node7</title>
<path fill="none" stroke="#63b8ff" d="M255.66,-131.23C268.75,-129.7 282.43,-128.11 295.12,-126.62"/>
<polygon fill="#63b8ff" stroke="#63b8ff" points="255.38,-127.74 245.86,-132.38 256.19,-134.7 255.38,-127.74"/>
</g>
<!-- Node8 -->
<g id="node8" class="node">
<title>Node8</title>
<g id="a_node8"><a xlink:href="classdPa__modelEcallBack.html" target="_top" xlink:title=" ">
<polygon fill="white" stroke="#666666" points="403,-93 294,-93 294,-74 403,-74 403,-93"/>
<text text-anchor="middle" x="348.5" y="-81" font-family="Helvetica,sans-Serif" font-size="10.00">dPa_modelEcallBack</text>
</a>
</g>
</g>
<!-- Node1&#45;&gt;Node8 -->
<g id="edge7" class="edge">
<title>Node1&#45;&gt;Node8</title>
<path fill="none" stroke="#63b8ff" d="M224.54,-123.94C240.84,-116.63 261.26,-107.97 280,-101.5 288.48,-98.57 297.7,-95.83 306.52,-93.42"/>
<polygon fill="#63b8ff" stroke="#63b8ff" points="223.52,-120.56 215.87,-127.89 226.42,-126.93 223.52,-120.56"/>
</g>
<!-- Node9 -->
<g id="node9" class="node">
<title>Node9</title>
<g id="a_node9"><a xlink:href="classdPa__selectTexEcallBack.html" target="_top" xlink:title=" ">
<polygon fill="white" stroke="#666666" points="411,-56 286,-56 286,-37 411,-37 411,-56"/>
<text text-anchor="middle" x="348.5" y="-44" font-family="Helvetica,sans-Serif" font-size="10.00">dPa_selectTexEcallBack</text>
</a>
</g>
</g>
<!-- Node1&#45;&gt;Node9 -->
<g id="edge8" class="edge">
<title>Node1&#45;&gt;Node9</title>
<path fill="none" stroke="#63b8ff" d="M209.82,-120.51C226.05,-103.67 252.44,-78.99 280,-64.5 286.12,-61.28 292.86,-58.61 299.64,-56.39"/>
<polygon fill="#63b8ff" stroke="#63b8ff" points="207.64,-117.72 203.34,-127.4 212.74,-122.51 207.64,-117.72"/>
</g>
<!-- Node10 -->
<g id="node10" class="node">
<title>Node10</title>
<g id="a_node10"><a xlink:href="classdPa__setColorEcallBack.html" target="_top" xlink:title=" ">
<polygon fill="white" stroke="#666666" points="408,-19 289,-19 289,0 408,0 408,-19"/>
<text text-anchor="middle" x="348.5" y="-7" font-family="Helvetica,sans-Serif" font-size="10.00">dPa_setColorEcallBack</text>
</a>
</g>
</g>
<!-- Node1&#45;&gt;Node10 -->
<g id="edge9" class="edge">
<title>Node1&#45;&gt;Node10</title>
<path fill="none" stroke="#63b8ff" d="M203.66,-118.61C217.51,-93.53 244.67,-50.89 280,-27.5 284.85,-24.29 290.26,-21.65 295.84,-19.48"/>
<polygon fill="#63b8ff" stroke="#63b8ff" points="200.58,-116.95 198.97,-127.42 206.76,-120.24 200.58,-116.95"/>
</g>
<!-- Node2 -->
<g id="node2" class="node">
<title>Node2</title>
<g id="a_node2"><a xlink:href="classJPAEmitterCallBack.html" target="_top" xlink:title=" ">
<polygon fill="white" stroke="#666666" points="105,-148 0,-148 0,-129 105,-129 105,-148"/>
<text text-anchor="middle" x="52.5" y="-136" font-family="Helvetica,sans-Serif" font-size="10.00">JPAEmitterCallBack</text>
</a>
</g>
</g>
<!-- Node2&#45;&gt;Node1 -->
<g id="edge1" class="edge">
<title>Node2&#45;&gt;Node1</title>
<path fill="none" stroke="#63b8ff" d="M116.62,-138.5C124.72,-138.5 132.93,-138.5 140.81,-138.5"/>
<polygon fill="#63b8ff" stroke="#63b8ff" points="116.79,-135 106.79,-138.5 116.79,-142 116.79,-135"/>
</g>
</g>
</svg>
