<?xml version="1.0" encoding="UTF-8" standalone="no"?>
<!DOCTYPE svg PUBLIC "-//W3C//DTD SVG 1.1//EN"
 "http://www.w3.org/Graphics/SVG/1.1/DTD/svg11.dtd">
<!-- Generated by graphviz version 7.0.5 (20221223.1930)
 -->
<!-- Title: JStudio::stb::TParse Pages: 1 -->
<svg width="1088pt" height="197pt"
 viewBox="0.00 0.00 1088.00 196.50" xmlns="http://www.w3.org/2000/svg" xmlns:xlink="http://www.w3.org/1999/xlink">
<g id="graph0" class="graph" transform="scale(1 1) rotate(0) translate(4 192.5)">
<title>JStudio::stb::TParse</title>
<!-- Node1 -->
<g id="node1" class="node">
<title>Node1</title>
<g id="a_node1"><a xlink:title=" ">
<polygon fill="#999999" stroke="#666666" points="934.5,-173 830.5,-173 830.5,-154 934.5,-154 934.5,-173"/>
<text text-anchor="middle" x="882.5" y="-161" font-family="Helvetica,sans-Serif" font-size="10.00">JStudio::stb::TParse</text>
</a>
</g>
</g>
<!-- Node2 -->
<g id="node2" class="node">
<title>Node2</title>
<g id="a_node2"><a xlink:href="structJGadget_1_1binary_1_1TParse__header__block.html" target="_top" xlink:title=" ">
<polygon fill="white" stroke="#666666" points="746.5,-188.5 627.5,-188.5 627.5,-158.5 746.5,-158.5 746.5,-188.5"/>
<text text-anchor="start" x="635.5" y="-176.5" font-family="Helvetica,sans-Serif" font-size="10.00">JGadget::binary::TParse</text>
<text text-anchor="middle" x="687" y="-165.5" font-family="Helvetica,sans-Serif" font-size="10.00">_header_block</text>
</a>
</g>
</g>
<!-- Node2&#45;&gt;Node1 -->
<g id="edge1" class="edge">
<title>Node2&#45;&gt;Node1</title>
<path fill="none" stroke="#63b8ff" d="M758.3,-169.87C782.06,-168.64 808.13,-167.29 830.14,-166.15"/>
<polygon fill="#63b8ff" stroke="#63b8ff" points="758.16,-166.37 748.36,-170.38 758.52,-173.36 758.16,-166.37"/>
</g>
<!-- Node3 -->
<g id="node3" class="node">
<title>Node3</title>
<g id="a_node3"><a xlink:href="classJStudio_1_1stb_1_1TControl.html" target="_top" xlink:title=" ">
<polygon fill="white" stroke="#666666" points="741.5,-124 632.5,-124 632.5,-105 741.5,-105 741.5,-124"/>
<text text-anchor="middle" x="687" y="-112" font-family="Helvetica,sans-Serif" font-size="10.00">JStudio::stb::TControl</text>
</a>
</g>
</g>
<!-- Node3&#45;&gt;Node1 -->
<g id="edge2" class="edge">
<title>Node3&#45;&gt;Node1</title>
<path fill="none" stroke="#9a32cd" stroke-dasharray="5,2" d="M738.19,-127.21C770.56,-135.41 812.07,-145.92 842.07,-153.51"/>
<polygon fill="#9a32cd" stroke="#9a32cd" points="739.18,-123.85 728.62,-124.79 737.46,-130.64 739.18,-123.85"/>
<text text-anchor="middle" x="791.5" y="-147.5" font-family="Helvetica,sans-Serif" font-size="10.00"> pControl</text>
</g>
<!-- Node9 -->
<g id="node9" class="node">
<title>Node9</title>
<g id="a_node9"><a xlink:href="classJStudio_1_1stb_1_1TObject.html" target="_top" xlink:title=" ">
<polygon fill="white" stroke="#666666" points="936,-72 829,-72 829,-53 936,-53 936,-72"/>
<text text-anchor="middle" x="882.5" y="-60" font-family="Helvetica,sans-Serif" font-size="10.00">JStudio::stb::TObject</text>
</a>
</g>
</g>
<!-- Node3&#45;&gt;Node9 -->
<g id="edge13" class="edge">
<title>Node3&#45;&gt;Node9</title>
<path fill="none" stroke="#9a32cd" stroke-dasharray="5,2" d="M730.88,-101.31C744.03,-97.38 758.58,-93.15 772,-89.5 794.01,-83.51 818.67,-77.39 839,-72.48"/>
<polygon fill="#9a32cd" stroke="#9a32cd" points="730.22,-97.85 721.66,-104.09 732.24,-104.56 730.22,-97.85"/>
<text text-anchor="middle" x="791.5" y="-92.5" font-family="Helvetica,sans-Serif" font-size="10.00"> pControl</text>
</g>
<!-- Node4 -->
<g id="node4" class="node">
<title>Node4</title>
<g id="a_node4"><a xlink:href="classJStudio_1_1stb_1_1TFactory.html" target="_top" xlink:title=" ">
<polygon fill="white" stroke="#666666" points="488.5,-152 378.5,-152 378.5,-133 488.5,-133 488.5,-152"/>
<text text-anchor="middle" x="433.5" y="-140" font-family="Helvetica,sans-Serif" font-size="10.00">JStudio::stb::TFactory</text>
</a>
</g>
</g>
<!-- Node4&#45;&gt;Node3 -->
<g id="edge3" class="edge">
<title>Node4&#45;&gt;Node3</title>
<path fill="none" stroke="#9a32cd" stroke-dasharray="5,2" d="M500.05,-135.2C541.19,-130.62 593.59,-124.79 632.27,-120.48"/>
<polygon fill="#9a32cd" stroke="#9a32cd" points="499.82,-131.71 490.27,-136.29 500.59,-138.66 499.82,-131.71"/>
<text text-anchor="middle" x="561.5" y="-135.5" font-family="Helvetica,sans-Serif" font-size="10.00"> pFactory</text>
</g>
<!-- Node5 -->
<g id="node5" class="node">
<title>Node5</title>
<g id="a_node5"><a xlink:href="structJGadget_1_1TLinkList.html" target="_top" xlink:title=" ">
<polygon fill="white" stroke="#666666" points="503,-114.5 364,-114.5 364,-84.5 503,-84.5 503,-114.5"/>
<text text-anchor="start" x="372" y="-102.5" font-family="Helvetica,sans-Serif" font-size="10.00">JGadget::TLinkList</text>
<text text-anchor="middle" x="433.5" y="-91.5" font-family="Helvetica,sans-Serif" font-size="10.00">&lt; JStudio::stb::TObject, 12 &gt;</text>
</a>
</g>
</g>
<!-- Node5&#45;&gt;Node3 -->
<g id="edge4" class="edge">
<title>Node5&#45;&gt;Node3</title>
<path fill="none" stroke="#9a32cd" stroke-dasharray="5,2" d="M514.39,-104.26C552.79,-106.56 597.81,-109.24 632.1,-111.29"/>
<polygon fill="#9a32cd" stroke="#9a32cd" points="514.93,-100.79 504.73,-103.69 514.51,-107.78 514.93,-100.79"/>
<text text-anchor="middle" x="561.5" y="-112.5" font-family="Helvetica,sans-Serif" font-size="10.00"> mObjectContainer</text>
</g>
<!-- Node6 -->
<g id="node6" class="node">
<title>Node6</title>
<g id="a_node6"><a xlink:href="structJGadget_1_1TNodeLinkList.html" target="_top" xlink:title=" ">
<polygon fill="white" stroke="#666666" points="327,-106 205,-106 205,-87 327,-87 327,-106"/>
<text text-anchor="middle" x="266" y="-94" font-family="Helvetica,sans-Serif" font-size="10.00">JGadget::TNodeLinkList</text>
</a>
</g>
</g>
<!-- Node6&#45;&gt;Node5 -->
<g id="edge5" class="edge">
<title>Node6&#45;&gt;Node5</title>
<path fill="none" stroke="#63b8ff" d="M338.47,-97.8C346.82,-97.95 355.32,-98.1 363.63,-98.25"/>
<polygon fill="#63b8ff" stroke="#63b8ff" points="338.79,-94.3 328.73,-97.62 338.67,-101.3 338.79,-94.3"/>
</g>
<!-- Node7 -->
<g id="node7" class="node">
<title>Node7</title>
<g id="a_node7"><a xlink:href="structJGadget_1_1TLinkListNode.html" target="_top" xlink:title=" ">
<polygon fill="white" stroke="#666666" points="122,-81 0,-81 0,-62 122,-62 122,-81"/>
<text text-anchor="middle" x="61" y="-69" font-family="Helvetica,sans-Serif" font-size="10.00">JGadget::TLinkListNode</text>
</a>
</g>
</g>
<!-- Node7&#45;&gt;Node6 -->
<g id="edge6" class="edge">
<title>Node7&#45;&gt;Node6</title>
<path fill="none" stroke="#9a32cd" stroke-dasharray="5,2" d="M133.54,-80.31C156.73,-83.17 182.22,-86.3 204.52,-89.05"/>
<polygon fill="#9a32cd" stroke="#9a32cd" points="134.21,-76.87 123.86,-79.12 133.36,-83.81 134.21,-76.87"/>
<text text-anchor="middle" x="163.5" y="-89.5" font-family="Helvetica,sans-Serif" font-size="10.00"> ocObject_</text>
</g>
<!-- Node7&#45;&gt;Node7 -->
<g id="edge7" class="edge">
<title>Node7&#45;&gt;Node7</title>
<path fill="none" stroke="#9a32cd" stroke-dasharray="5,2" d="M42.81,-92.43C45.08,-96.29 51.15,-99 61,-99 79.02,-99 84.37,-89.94 77.05,-81.37"/>
<polygon fill="#9a32cd" stroke="#9a32cd" points="46.2,-93.34 44.66,-82.85 39.32,-92 46.2,-93.34"/>
<text text-anchor="middle" x="61" y="-113" font-family="Helvetica,sans-Serif" font-size="10.00"> mNext</text>
<text text-anchor="middle" x="61" y="-102" font-family="Helvetica,sans-Serif" font-size="10.00">mPrev</text>
</g>
<!-- Node7&#45;&gt;Node9 -->
<g id="edge12" class="edge">
<title>Node7&#45;&gt;Node9</title>
<path fill="none" stroke="#9a32cd" stroke-dasharray="5,2" d="M133.5,-63.1C172.34,-59.24 221.24,-55.5 265,-55.5 265,-55.5 265,-55.5 688,-55.5 735.57,-55.5 789.67,-57.64 828.55,-59.55"/>
<polygon fill="#9a32cd" stroke="#9a32cd" points="133.4,-59.6 123.81,-64.1 134.11,-66.56 133.4,-59.6"/>
<text text-anchor="middle" x="433.5" y="-58.5" font-family="Helvetica,sans-Serif" font-size="10.00"> ocObject_</text>
</g>
<!-- Node8 -->
<g id="node8" class="node">
<title>Node8</title>
<g id="a_node8"><a xlink:href="classJStudio_1_1stb_1_1TObject__control.html" target="_top" xlink:title=" ">
<polygon fill="white" stroke="#666666" points="1080,-106.5 973,-106.5 973,-76.5 1080,-76.5 1080,-106.5"/>
<text text-anchor="start" x="981" y="-94.5" font-family="Helvetica,sans-Serif" font-size="10.00">JStudio::stb::TObject</text>
<text text-anchor="middle" x="1026.5" y="-83.5" font-family="Helvetica,sans-Serif" font-size="10.00">_control</text>
</a>
</g>
</g>
<!-- Node8&#45;&gt;Node3 -->
<g id="edge8" class="edge">
<title>Node8&#45;&gt;Node3</title>
<path fill="none" stroke="#9a32cd" stroke-dasharray="5,2" d="M961.2,-95.88C897.65,-100.21 801.51,-106.76 741.85,-110.83"/>
<polygon fill="#9a32cd" stroke="#9a32cd" points="961.43,-99.37 971.16,-95.2 960.95,-92.39 961.43,-99.37"/>
<text text-anchor="middle" x="882.5" y="-108.5" font-family="Helvetica,sans-Serif" font-size="10.00"> mObject_control</text>
</g>
<!-- Node9&#45;&gt;Node8 -->
<g id="edge9" class="edge">
<title>Node9&#45;&gt;Node8</title>
<path fill="none" stroke="#63b8ff" d="M943.55,-74.76C953.22,-76.74 963.17,-78.77 972.66,-80.71"/>
<polygon fill="#63b8ff" stroke="#63b8ff" points="944.35,-71.35 933.85,-72.78 942.95,-78.21 944.35,-71.35"/>
</g>
<!-- Node10 -->
<g id="node10" class="node">
<title>Node10</title>
<g id="a_node10"><a xlink:href="structJStudio_1_1object_1_1TObject__ID.html" target="_top" xlink:title=" ">
<polygon fill="white" stroke="#666666" points="754,-23 620,-23 620,-4 754,-4 754,-23"/>
<text text-anchor="middle" x="687" y="-11" font-family="Helvetica,sans-Serif" font-size="10.00">JStudio::object::TObject_ID</text>
</a>
</g>
</g>
<!-- Node10&#45;&gt;Node9 -->
<g id="edge10" class="edge">
<title>Node10&#45;&gt;Node9</title>
<path fill="none" stroke="#63b8ff" d="M746.29,-25.95C766.82,-30.55 790,-35.99 811,-41.5 823.72,-44.84 837.62,-48.89 849.69,-52.54"/>
<polygon fill="#63b8ff" stroke="#63b8ff" points="747.19,-22.56 736.67,-23.81 745.68,-29.39 747.19,-22.56"/>
</g>
<!-- Node11 -->
<g id="node11" class="node">
<title>Node11</title>
<g id="a_node11"><a xlink:href="structJStudio_1_1object_1_1TIDData.html" target="_top" xlink:title=" ">
<polygon fill="white" stroke="#666666" points="494,-19 373,-19 373,0 494,0 494,-19"/>
<text text-anchor="middle" x="433.5" y="-7" font-family="Helvetica,sans-Serif" font-size="10.00">JStudio::object::TIDData</text>
</a>
</g>
</g>
<!-- Node11&#45;&gt;Node10 -->
<g id="edge11" class="edge">
<title>Node11&#45;&gt;Node10</title>
<path fill="none" stroke="#63b8ff" d="M505.78,-10.63C541.64,-11.2 584.81,-11.89 619.91,-12.45"/>
<polygon fill="#63b8ff" stroke="#63b8ff" points="505.99,-7.14 495.93,-10.48 505.88,-14.14 505.99,-7.14"/>
</g>
</g>
</svg>
