<?xml version="1.0" encoding="UTF-8" standalone="no"?>
<!DOCTYPE svg PUBLIC "-//W3C//DTD SVG 1.1//EN"
 "http://www.w3.org/Graphics/SVG/1.1/DTD/svg11.dtd">
<!-- Generated by graphviz version 7.0.5 (20221223.1930)
 -->
<!-- Title: JKRAMCommand Pages: 1 -->
<svg width="803pt" height="344pt"
 viewBox="0.00 0.00 803.00 344.00" xmlns="http://www.w3.org/2000/svg" xmlns:xlink="http://www.w3.org/1999/xlink">
<g id="graph0" class="graph" transform="scale(1 1) rotate(0) translate(4 340)">
<title>JKRAMCommand</title>
<!-- Node1 -->
<g id="node1" class="node">
<title>Node1</title>
<g id="a_node1"><a xlink:title=" ">
<polygon fill="#999999" stroke="#666666" points="230.5,-97.5 135.5,-97.5 135.5,-78.5 230.5,-78.5 230.5,-97.5"/>
<text text-anchor="middle" x="183" y="-85.5" font-family="Helvetica,sans-Serif" font-size="10.00">JKRAMCommand</text>
</a>
</g>
</g>
<!-- Node16 -->
<g id="node16" class="node">
<title>Node16</title>
<g id="a_node16"><a xlink:href="classJKRDecompCommand.html" target="_top" xlink:title=" ">
<polygon fill="white" stroke="#666666" points="343,-19 227,-19 227,0 343,0 343,-19"/>
<text text-anchor="middle" x="285" y="-7" font-family="Helvetica,sans-Serif" font-size="10.00">JKRDecompCommand</text>
</a>
</g>
</g>
<!-- Node1&#45;&gt;Node16 -->
<g id="edge28" class="edge">
<title>Node1&#45;&gt;Node16</title>
<path fill="none" stroke="#9a32cd" stroke-dasharray="5,2" d="M239.07,-73.97C247.77,-70.17 256.13,-65.28 263,-59 274.74,-48.27 280.63,-30.06 283.24,-19.27"/>
<polygon fill="#9a32cd" stroke="#9a32cd" points="237.87,-70.68 229.79,-77.54 240.38,-77.22 237.87,-70.68"/>
<text text-anchor="middle" x="312" y="-45.5" font-family="Helvetica,sans-Serif" font-size="10.00"> mAMCommand</text>
</g>
<!-- Node2 -->
<g id="node2" class="node">
<title>Node2</title>
<g id="a_node2"><a xlink:href="structARQRequest.html" target="_top" xlink:title=" ">
<polygon fill="white" stroke="#666666" points="74,-177.5 0,-177.5 0,-158.5 74,-158.5 74,-177.5"/>
<text text-anchor="middle" x="37" y="-165.5" font-family="Helvetica,sans-Serif" font-size="10.00">ARQRequest</text>
</a>
</g>
</g>
<!-- Node2&#45;&gt;Node1 -->
<g id="edge1" class="edge">
<title>Node2&#45;&gt;Node1</title>
<path fill="none" stroke="#9a32cd" stroke-dasharray="5,2" d="M50.83,-149.63C60.26,-138.83 73.61,-125.45 88,-117 102.68,-108.38 120.21,-102.24 136.2,-97.95"/>
<polygon fill="#9a32cd" stroke="#9a32cd" points="48.31,-147.18 44.59,-157.1 53.69,-151.66 48.31,-147.18"/>
<text text-anchor="middle" x="111.5" y="-125.5" font-family="Helvetica,sans-Serif" font-size="10.00"> mRequest</text>
</g>
<!-- Node2&#45;&gt;Node2 -->
<g id="edge2" class="edge">
<title>Node2&#45;&gt;Node2</title>
<path fill="none" stroke="#9a32cd" stroke-dasharray="5,2" d="M85.34,-173.83C89.44,-172.59 92,-170.64 92,-168 92,-163.43 84.34,-160.95 74.27,-160.56"/>
<polygon fill="#9a32cd" stroke="#9a32cd" points="85.16,-170.32 75.77,-175.23 86.17,-177.25 85.16,-170.32"/>
<text text-anchor="middle" x="102.5" y="-165.5" font-family="Helvetica,sans-Serif" font-size="10.00"> next</text>
</g>
<!-- Node3 -->
<g id="node3" class="node">
<title>Node3</title>
<g id="a_node3"><a xlink:href="classJSULink.html" target="_top" xlink:title=" ">
<polygon fill="white" stroke="#666666" points="234.5,-217.5 85.5,-217.5 85.5,-198.5 234.5,-198.5 234.5,-217.5"/>
<text text-anchor="middle" x="160" y="-205.5" font-family="Helvetica,sans-Serif" font-size="10.00">JSULink&lt; JKRAMCommand &gt;</text>
</a>
</g>
</g>
<!-- Node3&#45;&gt;Node1 -->
<g id="edge3" class="edge">
<title>Node3&#45;&gt;Node1</title>
<path fill="none" stroke="#9a32cd" stroke-dasharray="5,2" d="M158.38,-186.75C158.22,-184.15 158.09,-181.51 158,-179 157.65,-169.23 156.29,-166.63 158,-157 161.92,-134.96 172.48,-110.69 178.54,-97.95"/>
<polygon fill="#9a32cd" stroke="#9a32cd" points="154.89,-186.95 159.1,-196.67 161.87,-186.45 154.89,-186.95"/>
<text text-anchor="middle" x="184" y="-171" font-family="Helvetica,sans-Serif" font-size="10.00"> field_0x30</text>
<text text-anchor="middle" x="184" y="-160" font-family="Helvetica,sans-Serif" font-size="10.00">mPieceLink</text>
</g>
<!-- Node4 -->
<g id="node4" class="node">
<title>Node4</title>
<g id="a_node4"><a xlink:href="structJSUPtrLink.html" target="_top" xlink:title=" ">
<polygon fill="white" stroke="#666666" points="468,-334.5 400,-334.5 400,-315.5 468,-315.5 468,-334.5"/>
<text text-anchor="middle" x="434" y="-322.5" font-family="Helvetica,sans-Serif" font-size="10.00">JSUPtrLink</text>
</a>
</g>
</g>
<!-- Node4&#45;&gt;Node3 -->
<g id="edge4" class="edge">
<title>Node4&#45;&gt;Node3</title>
<path fill="none" stroke="#63b8ff" d="M388.52,-314.09C344.55,-303.43 276.86,-284.13 223,-256 202.44,-245.26 181.4,-228.06 169.59,-217.71"/>
<polygon fill="#63b8ff" stroke="#63b8ff" points="387.7,-317.49 398.24,-316.39 389.31,-310.68 387.7,-317.49"/>
</g>
<!-- Node4&#45;&gt;Node4 -->
<g id="edge7" class="edge">
<title>Node4&#45;&gt;Node4</title>
<path fill="none" stroke="#9a32cd" stroke-dasharray="5,2" d="M479.19,-330.99C483.37,-329.75 486,-327.76 486,-325 486,-320.23 478.13,-317.74 468.01,-317.52"/>
<polygon fill="#9a32cd" stroke="#9a32cd" points="478.96,-327.49 469.51,-332.28 479.88,-334.43 478.96,-327.49"/>
<text text-anchor="middle" x="501.5" y="-328" font-family="Helvetica,sans-Serif" font-size="10.00"> mNext</text>
<text text-anchor="middle" x="501.5" y="-317" font-family="Helvetica,sans-Serif" font-size="10.00">mPrev</text>
</g>
<!-- Node5 -->
<g id="node5" class="node">
<title>Node5</title>
<g id="a_node5"><a xlink:href="structJSUPtrList.html" target="_top" xlink:title=" ">
<polygon fill="white" stroke="#666666" points="708.5,-256 643.5,-256 643.5,-237 708.5,-237 708.5,-256"/>
<text text-anchor="middle" x="676" y="-244" font-family="Helvetica,sans-Serif" font-size="10.00">JSUPtrList</text>
</a>
</g>
</g>
<!-- Node4&#45;&gt;Node5 -->
<g id="edge6" class="edge">
<title>Node4&#45;&gt;Node5</title>
<path fill="none" stroke="#9a32cd" stroke-dasharray="5,2" d="M456.12,-308.86C473.74,-297.52 499.44,-282.54 524,-274 570.79,-257.73 585.27,-264.91 634,-256 636.93,-255.46 639.97,-254.89 643.01,-254.3"/>
<polygon fill="#9a32cd" stroke="#9a32cd" points="454.43,-305.78 448.01,-314.21 458.28,-311.62 454.43,-305.78"/>
<text text-anchor="middle" x="541" y="-288" font-family="Helvetica,sans-Serif" font-size="10.00"> mHead</text>
<text text-anchor="middle" x="541" y="-277" font-family="Helvetica,sans-Serif" font-size="10.00">mTail</text>
</g>
<!-- Node7 -->
<g id="node7" class="node">
<title>Node7</title>
<g id="a_node7"><a xlink:href="classJSULink.html" target="_top" xlink:title=" ">
<polygon fill="white" stroke="#666666" points="370,-256 232,-256 232,-237 370,-237 370,-256"/>
<text text-anchor="middle" x="301" y="-244" font-family="Helvetica,sans-Serif" font-size="10.00">JSULink&lt; JKRAramBlock &gt;</text>
</a>
</g>
</g>
<!-- Node4&#45;&gt;Node7 -->
<g id="edge10" class="edge">
<title>Node4&#45;&gt;Node7</title>
<path fill="none" stroke="#63b8ff" d="M408.51,-309.34C381.28,-293.68 338.99,-269.35 316.42,-256.37"/>
<polygon fill="#63b8ff" stroke="#63b8ff" points="406.76,-312.37 417.17,-314.32 410.25,-306.3 406.76,-312.37"/>
</g>
<!-- Node5&#45;&gt;Node4 -->
<g id="edge5" class="edge">
<title>Node5&#45;&gt;Node4</title>
<path fill="none" stroke="#9a32cd" stroke-dasharray="5,2" d="M647.56,-261.36C624.83,-272 591.94,-286.45 562,-296 530.9,-305.92 494.45,-313.52 468.41,-318.28"/>
<polygon fill="#9a32cd" stroke="#9a32cd" points="648.94,-264.58 656.47,-257.13 645.94,-258.26 648.94,-264.58"/>
<text text-anchor="middle" x="632" y="-282.5" font-family="Helvetica,sans-Serif" font-size="10.00"> mList</text>
</g>
<!-- Node6 -->
<g id="node6" class="node">
<title>Node6</title>
<g id="a_node6"><a xlink:href="classJKRAramBlock.html" target="_top" xlink:title=" ">
<polygon fill="white" stroke="#666666" points="302.5,-177.5 219.5,-177.5 219.5,-158.5 302.5,-158.5 302.5,-177.5"/>
<text text-anchor="middle" x="261" y="-165.5" font-family="Helvetica,sans-Serif" font-size="10.00">JKRAramBlock</text>
</a>
</g>
</g>
<!-- Node6&#45;&gt;Node1 -->
<g id="edge8" class="edge">
<title>Node6&#45;&gt;Node1</title>
<path fill="none" stroke="#9a32cd" stroke-dasharray="5,2" d="M212.23,-153.31C205.34,-149.6 198.94,-144.92 194,-139 184.2,-127.27 182.6,-108.73 182.61,-97.83"/>
<polygon fill="#9a32cd" stroke="#9a32cd" points="210.62,-156.43 221.17,-157.44 213.56,-150.07 210.62,-156.43"/>
<text text-anchor="middle" x="223.5" y="-125.5" font-family="Helvetica,sans-Serif" font-size="10.00"> mAramBlock</text>
</g>
<!-- Node7&#45;&gt;Node6 -->
<g id="edge9" class="edge">
<title>Node7&#45;&gt;Node6</title>
<path fill="none" stroke="#9a32cd" stroke-dasharray="5,2" d="M291.12,-226.6C282.95,-210.97 271.71,-189.49 265.53,-177.67"/>
<polygon fill="#9a32cd" stroke="#9a32cd" points="287.97,-228.14 295.71,-235.38 294.18,-224.9 287.97,-228.14"/>
<text text-anchor="middle" x="313.5" y="-205.5" font-family="Helvetica,sans-Serif" font-size="10.00"> mBlockLink</text>
</g>
<!-- Node8 -->
<g id="node8" class="node">
<title>Node8</title>
<g id="a_node8"><a xlink:href="structOSMessageQueue.html" target="_top" xlink:title=" ">
<polygon fill="white" stroke="#666666" points="419.5,-177.5 320.5,-177.5 320.5,-158.5 419.5,-158.5 419.5,-177.5"/>
<text text-anchor="middle" x="370" y="-165.5" font-family="Helvetica,sans-Serif" font-size="10.00">OSMessageQueue</text>
</a>
</g>
</g>
<!-- Node8&#45;&gt;Node1 -->
<g id="edge11" class="edge">
<title>Node8&#45;&gt;Node1</title>
<path fill="none" stroke="#9a32cd" stroke-dasharray="5,2" d="M317.9,-154.91C304.77,-150.82 291.01,-145.57 279,-139 265.72,-131.74 265.97,-124.8 253,-117 239.99,-109.18 224.4,-102.69 211.23,-97.94"/>
<polygon fill="#9a32cd" stroke="#9a32cd" points="316.69,-158.2 327.27,-157.66 318.66,-151.49 316.69,-158.2"/>
<text text-anchor="middle" x="317.5" y="-131" font-family="Helvetica,sans-Serif" font-size="10.00"> field_0x5C</text>
<text text-anchor="middle" x="317.5" y="-120" font-family="Helvetica,sans-Serif" font-size="10.00">mMessageQueue</text>
</g>
<!-- Node8&#45;&gt;Node16 -->
<g id="edge27" class="edge">
<title>Node8&#45;&gt;Node16</title>
<path fill="none" stroke="#9a32cd" stroke-dasharray="5,2" d="M372.79,-146.96C375.49,-119.19 376.1,-68.87 351,-37 344.66,-28.95 335.49,-23.33 326,-19.42"/>
<polygon fill="#9a32cd" stroke="#9a32cd" points="369.32,-146.44 371.61,-156.78 376.27,-147.27 369.32,-146.44"/>
<text text-anchor="middle" x="410.5" y="-91" font-family="Helvetica,sans-Serif" font-size="10.00"> field_0x1c</text>
<text text-anchor="middle" x="410.5" y="-80" font-family="Helvetica,sans-Serif" font-size="10.00">mMessageQueue</text>
</g>
<!-- Node9 -->
<g id="node9" class="node">
<title>Node9</title>
<g id="a_node9"><a xlink:href="structOSThreadQueue.html" target="_top" xlink:title=" ">
<polygon fill="white" stroke="#666666" points="514.5,-256 425.5,-256 425.5,-237 514.5,-237 514.5,-256"/>
<text text-anchor="middle" x="470" y="-244" font-family="Helvetica,sans-Serif" font-size="10.00">OSThreadQueue</text>
</a>
</g>
</g>
<!-- Node9&#45;&gt;Node8 -->
<g id="edge12" class="edge">
<title>Node9&#45;&gt;Node8</title>
<path fill="none" stroke="#9a32cd" stroke-dasharray="5,2" d="M413.99,-236.99C394.04,-232.72 375,-226.78 369,-219 359.88,-207.18 363.47,-188.67 366.8,-177.8"/>
<polygon fill="#9a32cd" stroke="#9a32cd" points="413.12,-240.39 423.61,-238.9 414.48,-233.52 413.12,-240.39"/>
<text text-anchor="middle" x="405.5" y="-211" font-family="Helvetica,sans-Serif" font-size="10.00"> receiving_queue</text>
<text text-anchor="middle" x="405.5" y="-200" font-family="Helvetica,sans-Serif" font-size="10.00">sending_queue</text>
</g>
<!-- Node10 -->
<g id="node10" class="node">
<title>Node10</title>
<g id="a_node10"><a xlink:href="structOSThread.html" target="_top" xlink:title=" ">
<polygon fill="white" stroke="#666666" points="608.5,-177.5 547.5,-177.5 547.5,-158.5 608.5,-158.5 608.5,-177.5"/>
<text text-anchor="middle" x="578" y="-165.5" font-family="Helvetica,sans-Serif" font-size="10.00">OSThread</text>
</a>
</g>
</g>
<!-- Node9&#45;&gt;Node10 -->
<g id="edge15" class="edge">
<title>Node9&#45;&gt;Node10</title>
<path fill="none" stroke="#9a32cd" stroke-dasharray="5,2" d="M472.26,-225.5C474.34,-215.73 478.33,-204.49 486,-197 502.24,-181.13 527.19,-174.22 547.01,-171.23"/>
<polygon fill="#9a32cd" stroke="#9a32cd" points="468.83,-224.79 470.75,-235.21 475.74,-225.87 468.83,-224.79"/>
<text text-anchor="middle" x="510.5" y="-211" font-family="Helvetica,sans-Serif" font-size="10.00"> join_queue</text>
<text text-anchor="middle" x="510.5" y="-200" font-family="Helvetica,sans-Serif" font-size="10.00">queue</text>
</g>
<!-- Node13 -->
<g id="node13" class="node">
<title>Node13</title>
<g id="a_node13"><a xlink:href="structOSMutex.html" target="_top" xlink:title=" ">
<polygon fill="white" stroke="#666666" points="549.5,-97.5 492.5,-97.5 492.5,-78.5 549.5,-78.5 549.5,-97.5"/>
<text text-anchor="middle" x="521" y="-85.5" font-family="Helvetica,sans-Serif" font-size="10.00">OSMutex</text>
</a>
</g>
</g>
<!-- Node9&#45;&gt;Node13 -->
<g id="edge19" class="edge">
<title>Node9&#45;&gt;Node13</title>
<path fill="none" stroke="#9a32cd" stroke-dasharray="5,2" d="M468.6,-225.46C468.34,-216.67 468.53,-206.28 470,-197 475.85,-160.07 477.37,-149.42 496,-117 500.09,-109.88 506.21,-102.99 511.37,-97.82"/>
<polygon fill="#9a32cd" stroke="#9a32cd" points="465.1,-225.53 469.11,-235.34 472.09,-225.17 465.1,-225.53"/>
<text text-anchor="middle" x="491.5" y="-165.5" font-family="Helvetica,sans-Serif" font-size="10.00"> queue</text>
</g>
<!-- Node10&#45;&gt;Node9 -->
<g id="edge13" class="edge">
<title>Node10&#45;&gt;Node9</title>
<path fill="none" stroke="#9a32cd" stroke-dasharray="5,2" d="M564.79,-186.88C554.81,-200.23 542.27,-216.57 539,-219 528.59,-226.71 515.65,-232.47 503.8,-236.6"/>
<polygon fill="#9a32cd" stroke="#9a32cd" points="567.39,-189.25 570.54,-179.14 561.77,-185.08 567.39,-189.25"/>
<text text-anchor="middle" x="568" y="-211" font-family="Helvetica,sans-Serif" font-size="10.00"> head</text>
<text text-anchor="middle" x="568" y="-200" font-family="Helvetica,sans-Serif" font-size="10.00">tail</text>
</g>
<!-- Node12 -->
<g id="node12" class="node">
<title>Node12</title>
<g id="a_node12"><a xlink:href="structOSThreadLink.html" target="_top" xlink:title=" ">
<polygon fill="white" stroke="#666666" points="654,-97.5 574,-97.5 574,-78.5 654,-78.5 654,-97.5"/>
<text text-anchor="middle" x="614" y="-85.5" font-family="Helvetica,sans-Serif" font-size="10.00">OSThreadLink</text>
</a>
</g>
</g>
<!-- Node10&#45;&gt;Node12 -->
<g id="edge17" class="edge">
<title>Node10&#45;&gt;Node12</title>
<path fill="none" stroke="#9a32cd" stroke-dasharray="5,2" d="M620.19,-160.93C645.52,-156.33 674.28,-149.07 682,-139 687.95,-131.24 687.44,-125.12 682,-117 675.54,-107.35 665.07,-101.02 654.27,-96.87"/>
<polygon fill="#9a32cd" stroke="#9a32cd" points="619.65,-157.48 610.38,-162.61 620.82,-164.38 619.65,-157.48"/>
<text text-anchor="middle" x="696.5" y="-131" font-family="Helvetica,sans-Serif" font-size="10.00"> next</text>
<text text-anchor="middle" x="696.5" y="-120" font-family="Helvetica,sans-Serif" font-size="10.00">prev</text>
</g>
<!-- Node10&#45;&gt;Node13 -->
<g id="edge20" class="edge">
<title>Node10&#45;&gt;Node13</title>
<path fill="none" stroke="#9a32cd" stroke-dasharray="5,2" d="M536.46,-160.66C523.95,-156.59 511.55,-149.93 504,-139 495.14,-126.18 505.54,-108.33 513.53,-97.8"/>
<polygon fill="#9a32cd" stroke="#9a32cd" points="535.34,-163.98 545.9,-163.21 537.16,-157.22 535.34,-163.98"/>
<text text-anchor="middle" x="519" y="-125.5" font-family="Helvetica,sans-Serif" font-size="10.00"> thread</text>
</g>
<!-- Node11 -->
<g id="node11" class="node">
<title>Node11</title>
<g id="a_node11"><a xlink:href="structOSContext.html" target="_top" xlink:title=" ">
<polygon fill="white" stroke="#666666" points="625,-256 561,-256 561,-237 625,-237 625,-256"/>
<text text-anchor="middle" x="593" y="-244" font-family="Helvetica,sans-Serif" font-size="10.00">OSContext</text>
</a>
</g>
</g>
<!-- Node11&#45;&gt;Node10 -->
<g id="edge14" class="edge">
<title>Node11&#45;&gt;Node10</title>
<path fill="none" stroke="#9a32cd" stroke-dasharray="5,2" d="M590.73,-225.46C589.57,-216.68 587.99,-206.28 586,-197 584.6,-190.47 582.52,-183.23 580.83,-177.75"/>
<polygon fill="#9a32cd" stroke="#9a32cd" points="587.25,-225.84 591.93,-235.35 594.2,-225 587.25,-225.84"/>
<text text-anchor="middle" x="606" y="-205.5" font-family="Helvetica,sans-Serif" font-size="10.00"> context</text>
</g>
<!-- Node12&#45;&gt;Node10 -->
<g id="edge16" class="edge">
<title>Node12&#45;&gt;Node10</title>
<path fill="none" stroke="#9a32cd" stroke-dasharray="5,2" d="M600.6,-107.25C598.57,-110.42 596.62,-113.74 595,-117 588.13,-130.79 582.96,-148.01 580.21,-158.23"/>
<polygon fill="#9a32cd" stroke="#9a32cd" points="603.36,-109.42 606.15,-99.2 597.6,-105.44 603.36,-109.42"/>
<text text-anchor="middle" x="638.5" y="-131" font-family="Helvetica,sans-Serif" font-size="10.00"> active_threads_link</text>
<text text-anchor="middle" x="638.5" y="-120" font-family="Helvetica,sans-Serif" font-size="10.00">link</text>
</g>
<!-- Node13&#45;&gt;Node10 -->
<g id="edge18" class="edge">
<title>Node13&#45;&gt;Node10</title>
<path fill="none" stroke="#9a32cd" stroke-dasharray="5,2" d="M531.87,-107.51C537.77,-117.15 545.4,-128.98 553,-139 558.2,-145.85 564.68,-153.08 569.75,-158.48"/>
<polygon fill="#9a32cd" stroke="#9a32cd" points="534.95,-105.85 526.81,-99.07 528.95,-109.45 534.95,-105.85"/>
<text text-anchor="middle" x="567.5" y="-125.5" font-family="Helvetica,sans-Serif" font-size="10.00"> mutex</text>
</g>
<!-- Node14 -->
<g id="node14" class="node">
<title>Node14</title>
<g id="a_node14"><a xlink:href="structOSMutexLink.html" target="_top" xlink:title=" ">
<polygon fill="white" stroke="#666666" points="555,-19 479,-19 479,0 555,0 555,-19"/>
<text text-anchor="middle" x="517" y="-7" font-family="Helvetica,sans-Serif" font-size="10.00">OSMutexLink</text>
</a>
</g>
</g>
<!-- Node13&#45;&gt;Node14 -->
<g id="edge22" class="edge">
<title>Node13&#45;&gt;Node14</title>
<path fill="none" stroke="#9a32cd" stroke-dasharray="5,2" d="M520.35,-66.76C520.02,-57.66 519.56,-46.79 519,-37 518.66,-31.1 518.16,-24.48 517.74,-19.33"/>
<polygon fill="#9a32cd" stroke="#9a32cd" points="516.85,-66.76 520.69,-76.63 523.85,-66.52 516.85,-66.76"/>
<text text-anchor="middle" x="530.5" y="-51" font-family="Helvetica,sans-Serif" font-size="10.00"> next</text>
<text text-anchor="middle" x="530.5" y="-40" font-family="Helvetica,sans-Serif" font-size="10.00">prev</text>
</g>
<!-- Node15 -->
<g id="node15" class="node">
<title>Node15</title>
<g id="a_node15"><a xlink:href="structOSMutexQueue.html" target="_top" xlink:title=" ">
<polygon fill="white" stroke="#666666" points="729,-19 643,-19 643,0 729,0 729,-19"/>
<text text-anchor="middle" x="686" y="-7" font-family="Helvetica,sans-Serif" font-size="10.00">OSMutexQueue</text>
</a>
</g>
</g>
<!-- Node13&#45;&gt;Node15 -->
<g id="edge24" class="edge">
<title>Node13&#45;&gt;Node15</title>
<path fill="none" stroke="#9a32cd" stroke-dasharray="5,2" d="M550.37,-73.38C583.94,-57.82 637.93,-32.79 666.62,-19.49"/>
<polygon fill="#9a32cd" stroke="#9a32cd" points="549.22,-70.06 541.62,-77.44 552.17,-76.41 549.22,-70.06"/>
<text text-anchor="middle" x="639" y="-51" font-family="Helvetica,sans-Serif" font-size="10.00"> head</text>
<text text-anchor="middle" x="639" y="-40" font-family="Helvetica,sans-Serif" font-size="10.00">tail</text>
</g>
<!-- Node14&#45;&gt;Node13 -->
<g id="edge21" class="edge">
<title>Node14&#45;&gt;Node13</title>
<path fill="none" stroke="#9a32cd" stroke-dasharray="5,2" d="M504.16,-28.99C502.87,-31.58 501.75,-34.29 501,-37 498.38,-46.42 498.02,-49.69 501,-59 503.3,-66.17 508.18,-73.06 512.54,-78.22"/>
<polygon fill="#9a32cd" stroke="#9a32cd" points="507.09,-30.91 509.27,-20.55 501.1,-27.29 507.09,-30.91"/>
<text text-anchor="middle" x="510" y="-45.5" font-family="Helvetica,sans-Serif" font-size="10.00"> link</text>
</g>
<!-- Node15&#45;&gt;Node10 -->
<g id="edge23" class="edge">
<title>Node15&#45;&gt;Node10</title>
<path fill="none" stroke="#9a32cd" stroke-dasharray="5,2" d="M698.07,-29.27C713.9,-56.51 736.8,-107.2 711,-139 698.4,-154.53 644.18,-161.77 608.98,-164.89"/>
<polygon fill="#9a32cd" stroke="#9a32cd" points="701.07,-27.46 692.87,-20.75 695.09,-31.11 701.07,-27.46"/>
<text text-anchor="middle" x="758.5" y="-85.5" font-family="Helvetica,sans-Serif" font-size="10.00"> owned_mutexes</text>
</g>
<!-- Node16&#45;&gt;Node1 -->
<g id="edge25" class="edge">
<title>Node16&#45;&gt;Node1</title>
<path fill="none" stroke="#9a32cd" stroke-dasharray="5,2" d="M215.68,-19.55C195.93,-23.63 178.1,-29.31 172,-37 162.5,-48.98 170.73,-67.43 177.16,-78.25"/>
<polygon fill="#9a32cd" stroke="#9a32cd" points="216.12,-23.03 225.29,-17.73 214.82,-16.15 216.12,-23.03"/>
<text text-anchor="middle" x="217.5" y="-45.5" font-family="Helvetica,sans-Serif" font-size="10.00"> mDecompCommand</text>
</g>
<!-- Node16&#45;&gt;Node16 -->
<g id="edge26" class="edge">
<title>Node16&#45;&gt;Node16</title>
<path fill="none" stroke="#9a32cd" stroke-dasharray="5,2" d="M354.51,-14.44C358.57,-13.25 361,-11.61 361,-9.5 361,-5.85 353.73,-3.59 343.31,-2.7"/>
<polygon fill="#9a32cd" stroke="#9a32cd" points="354.1,-10.96 344.8,-16.05 355.24,-17.87 354.1,-10.96"/>
<text text-anchor="middle" x="376" y="-7" font-family="Helvetica,sans-Serif" font-size="10.00"> mThis</text>
</g>
</g>
</svg>
