<?xml version="1.0" encoding="UTF-8" standalone="no"?>
<!DOCTYPE svg PUBLIC "-//W3C//DTD SVG 1.1//EN"
 "http://www.w3.org/Graphics/SVG/1.1/DTD/svg11.dtd">
<!-- Generated by graphviz version 7.0.5 (20221223.1930)
 -->
<!-- Title: cSGlobe Pages: 1 -->
<svg width="102pt" height="140pt"
 viewBox="0.00 0.00 101.50 140.00" xmlns="http://www.w3.org/2000/svg" xmlns:xlink="http://www.w3.org/1999/xlink">
<g id="graph0" class="graph" transform="scale(1 1) rotate(0) translate(4 136)">
<title>cSGlobe</title>
<!-- Node1 -->
<g id="node1" class="node">
<title>Node1</title>
<g id="a_node1"><a xlink:title=" ">
<polygon fill="#999999" stroke="#666666" points="54,-19 0,-19 0,0 54,0 54,-19"/>
<text text-anchor="middle" x="27" y="-7" font-family="Helvetica,sans-Serif" font-size="10.00">cSGlobe</text>
</a>
</g>
</g>
<!-- Node2 -->
<g id="node2" class="node">
<title>Node2</title>
<g id="a_node2"><a xlink:href="classcSAngle.html" target="_top" xlink:title=" ">
<polygon fill="white" stroke="#666666" points="53.5,-114 0.5,-114 0.5,-95 53.5,-95 53.5,-114"/>
<text text-anchor="middle" x="27" y="-102" font-family="Helvetica,sans-Serif" font-size="10.00">cSAngle</text>
</a>
</g>
</g>
<!-- Node2&#45;&gt;Node1 -->
<g id="edge1" class="edge">
<title>Node2&#45;&gt;Node1</title>
<path fill="none" stroke="#9a32cd" stroke-dasharray="5,2" d="M27,-83.1C27,-63.17 27,-33.76 27,-19.25"/>
<polygon fill="#9a32cd" stroke="#9a32cd" points="23.5,-83.07 27,-93.07 30.5,-83.07 23.5,-83.07"/>
<text text-anchor="middle" x="53.5" y="-51" font-family="Helvetica,sans-Serif" font-size="10.00"> mAzimuth</text>
<text text-anchor="middle" x="53.5" y="-40" font-family="Helvetica,sans-Serif" font-size="10.00">mInclination</text>
</g>
<!-- Node2&#45;&gt;Node2 -->
<g id="edge2" class="edge">
<title>Node2&#45;&gt;Node2</title>
<path fill="none" stroke="#9a32cd" stroke-dasharray="5,2" d="M59.1,-114.82C66.27,-113.87 71.5,-110.43 71.5,-104.5 71.5,-95.67 59.91,-92.36 47.6,-94.57"/>
<polygon fill="#9a32cd" stroke="#9a32cd" points="59.22,-111.32 49.11,-114.48 58.99,-118.32 59.22,-111.32"/>
<text text-anchor="middle" x="82.5" y="-124" font-family="Helvetica,sans-Serif" font-size="10.00"> _0</text>
<text text-anchor="middle" x="82.5" y="-113" font-family="Helvetica,sans-Serif" font-size="10.00">_1</text>
<text text-anchor="middle" x="82.5" y="-102" font-family="Helvetica,sans-Serif" font-size="10.00">_180</text>
<text text-anchor="middle" x="82.5" y="-91" font-family="Helvetica,sans-Serif" font-size="10.00">_270</text>
<text text-anchor="middle" x="82.5" y="-80" font-family="Helvetica,sans-Serif" font-size="10.00">_90</text>
</g>
</g>
</svg>
