<?xml version="1.0" encoding="UTF-8" standalone="no"?>
<!DOCTYPE svg PUBLIC "-//W3C//DTD SVG 1.1//EN"
 "http://www.w3.org/Graphics/SVG/1.1/DTD/svg11.dtd">
<!-- Generated by graphviz version 7.0.5 (20221223.1930)
 -->
<!-- Title: J2DTexGenBlock Pages: 1 -->
<svg width="253pt" height="225pt"
 viewBox="0.00 0.00 253.00 225.00" xmlns="http://www.w3.org/2000/svg" xmlns:xlink="http://www.w3.org/1999/xlink">
<g id="graph0" class="graph" transform="scale(1 1) rotate(0) translate(4 221)">
<title>J2DTexGenBlock</title>
<!-- Node1 -->
<g id="node1" class="node">
<title>Node1</title>
<g id="a_node1"><a xlink:title=" ">
<polygon fill="#999999" stroke="#666666" points="147,-19 55,-19 55,0 147,0 147,-19"/>
<text text-anchor="middle" x="101" y="-7" font-family="Helvetica,sans-Serif" font-size="10.00">J2DTexGenBlock</text>
</a>
</g>
</g>
<!-- Node2 -->
<g id="node2" class="node">
<title>Node2</title>
<g id="a_node2"><a xlink:href="classJ2DTexCoord.html" target="_top" xlink:title=" ">
<polygon fill="white" stroke="#666666" points="89.5,-85 14.5,-85 14.5,-66 89.5,-66 89.5,-85"/>
<text text-anchor="middle" x="52" y="-73" font-family="Helvetica,sans-Serif" font-size="10.00">J2DTexCoord</text>
</a>
</g>
</g>
<!-- Node2&#45;&gt;Node1 -->
<g id="edge1" class="edge">
<title>Node2&#45;&gt;Node1</title>
<path fill="none" stroke="#9a32cd" stroke-dasharray="5,2" d="M48.87,-54.47C48.87,-48.49 49.86,-42.15 53,-37 57.75,-29.19 65.69,-23.51 73.75,-19.47"/>
<polygon fill="#9a32cd" stroke="#9a32cd" points="45.37,-54.64 49.78,-64.27 52.34,-53.99 45.37,-54.64"/>
<text text-anchor="middle" x="88" y="-40" font-family="Helvetica,sans-Serif" font-size="10.00"> mTexGenCoord</text>
</g>
<!-- Node3 -->
<g id="node3" class="node">
<title>Node3</title>
<g id="a_node3"><a xlink:href="structJ2DTexCoordInfo.html" target="_top" xlink:title=" ">
<polygon fill="white" stroke="#666666" points="92,-151 0,-151 0,-132 92,-132 92,-151"/>
<text text-anchor="middle" x="46" y="-139" font-family="Helvetica,sans-Serif" font-size="10.00">J2DTexCoordInfo</text>
</a>
</g>
</g>
<!-- Node3&#45;&gt;Node2 -->
<g id="edge2" class="edge">
<title>Node3&#45;&gt;Node2</title>
<path fill="none" stroke="#9a32cd" stroke-dasharray="5,2" d="M47.91,-120.18C49.01,-108.44 50.33,-94.27 51.17,-85.32"/>
<polygon fill="#9a32cd" stroke="#9a32cd" points="44.42,-119.81 46.98,-130.09 51.39,-120.46 44.42,-119.81"/>
<text text-anchor="middle" x="84.5" y="-106" font-family="Helvetica,sans-Serif" font-size="10.00"> mTexCoordInfo</text>
</g>
<!-- Node4 -->
<g id="node4" class="node">
<title>Node4</title>
<g id="a_node4"><a xlink:href="classJ2DTexMtx.html" target="_top" xlink:title=" ">
<polygon fill="white" stroke="#666666" points="181.5,-85 116.5,-85 116.5,-66 181.5,-66 181.5,-85"/>
<text text-anchor="middle" x="149" y="-73" font-family="Helvetica,sans-Serif" font-size="10.00">J2DTexMtx</text>
</a>
</g>
</g>
<!-- Node4&#45;&gt;Node1 -->
<g id="edge3" class="edge">
<title>Node4&#45;&gt;Node1</title>
<path fill="none" stroke="#9a32cd" stroke-dasharray="5,2" d="M139.41,-56.12C135.83,-49.84 131.53,-42.91 127,-37 122.14,-30.65 115.89,-24.24 110.74,-19.31"/>
<polygon fill="#9a32cd" stroke="#9a32cd" points="136.09,-57.34 143.95,-64.45 142.24,-53.99 136.09,-57.34"/>
<text text-anchor="middle" x="155.5" y="-40" font-family="Helvetica,sans-Serif" font-size="10.00"> mTexMtx</text>
</g>
<!-- Node5 -->
<g id="node5" class="node">
<title>Node5</title>
<g id="a_node5"><a xlink:href="structJ2DTexMtxInfo.html" target="_top" xlink:title=" ">
<polygon fill="white" stroke="#666666" points="192,-151 110,-151 110,-132 192,-132 192,-151"/>
<text text-anchor="middle" x="151" y="-139" font-family="Helvetica,sans-Serif" font-size="10.00">J2DTexMtxInfo</text>
</a>
</g>
</g>
<!-- Node5&#45;&gt;Node4 -->
<g id="edge4" class="edge">
<title>Node5&#45;&gt;Node4</title>
<path fill="none" stroke="#9a32cd" stroke-dasharray="5,2" d="M150.36,-120.18C150,-108.44 149.56,-94.27 149.28,-85.32"/>
<polygon fill="#9a32cd" stroke="#9a32cd" points="146.86,-120.2 150.67,-130.09 153.86,-119.98 146.86,-120.2"/>
<text text-anchor="middle" x="164" y="-106" font-family="Helvetica,sans-Serif" font-size="10.00"> mInfo</text>
</g>
<!-- Node6 -->
<g id="node6" class="node">
<title>Node6</title>
<g id="a_node6"><a xlink:href="structVec.html" target="_top" xlink:title=" ">
<polygon fill="white" stroke="#666666" points="125,-217 91,-217 91,-198 125,-198 125,-217"/>
<text text-anchor="middle" x="108" y="-205" font-family="Helvetica,sans-Serif" font-size="10.00">Vec</text>
</a>
</g>
</g>
<!-- Node6&#45;&gt;Node5 -->
<g id="edge5" class="edge">
<title>Node6&#45;&gt;Node5</title>
<path fill="none" stroke="#9a32cd" stroke-dasharray="5,2" d="M119.36,-188.33C123.29,-182.15 127.78,-175.23 132,-169 136.07,-163 140.82,-156.38 144.55,-151.25"/>
<polygon fill="#9a32cd" stroke="#9a32cd" points="116.58,-186.17 114.21,-196.5 122.5,-189.9 116.58,-186.17"/>
<text text-anchor="middle" x="152" y="-172" font-family="Helvetica,sans-Serif" font-size="10.00"> mCenter</text>
</g>
<!-- Node7 -->
<g id="node7" class="node">
<title>Node7</title>
<g id="a_node7"><a xlink:href="structJ2DTextureSRTInfo.html" target="_top" xlink:title=" ">
<polygon fill="white" stroke="#666666" points="245,-217 143,-217 143,-198 245,-198 245,-217"/>
<text text-anchor="middle" x="194" y="-205" font-family="Helvetica,sans-Serif" font-size="10.00">J2DTextureSRTInfo</text>
</a>
</g>
</g>
<!-- Node7&#45;&gt;Node5 -->
<g id="edge6" class="edge">
<title>Node7&#45;&gt;Node5</title>
<path fill="none" stroke="#9a32cd" stroke-dasharray="5,2" d="M183.65,-187.68C180.12,-181.61 176.05,-174.92 172,-169 167.76,-162.8 162.51,-156.18 158.32,-151.1"/>
<polygon fill="#9a32cd" stroke="#9a32cd" points="180.56,-189.34 188.52,-196.33 186.66,-185.9 180.56,-189.34"/>
<text text-anchor="middle" x="209.5" y="-172" font-family="Helvetica,sans-Serif" font-size="10.00"> mTexSRTInfo</text>
</g>
</g>
</svg>
