<?xml version="1.0" encoding="UTF-8" standalone="no"?>
<!DOCTYPE svg PUBLIC "-//W3C//DTD SVG 1.1//EN"
 "http://www.w3.org/Graphics/SVG/1.1/DTD/svg11.dtd">
<!-- Generated by graphviz version 7.0.5 (20221223.1930)
 -->
<!-- Title: JUTDbPrint Pages: 1 -->
<svg width="1246pt" height="557pt"
 viewBox="0.00 0.00 1246.00 557.46" xmlns="http://www.w3.org/2000/svg" xmlns:xlink="http://www.w3.org/1999/xlink">
<g id="graph0" class="graph" transform="scale(1 1) rotate(0) translate(4 553.46)">
<title>JUTDbPrint</title>
<!-- Node1 -->
<g id="node1" class="node">
<title>Node1</title>
<g id="a_node1"><a xlink:title=" ">
<polygon fill="#999999" stroke="#666666" points="1023,-462.46 955,-462.46 955,-443.46 1023,-443.46 1023,-462.46"/>
<text text-anchor="middle" x="989" y="-450.46" font-family="Helvetica,sans-Serif" font-size="10.00">JUTDbPrint</text>
</a>
</g>
</g>
<!-- Node1&#45;&gt;Node1 -->
<g id="edge1" class="edge">
<title>Node1&#45;&gt;Node1</title>
<path fill="none" stroke="#9a32cd" stroke-dasharray="5,2" d="M972.76,-473.89C974.79,-477.75 980.2,-480.46 989,-480.46 1005.08,-480.46 1009.86,-471.39 1003.32,-462.83"/>
<polygon fill="#9a32cd" stroke="#9a32cd" points="976.16,-474.77 974.42,-464.32 969.26,-473.57 976.16,-474.77"/>
<text text-anchor="middle" x="989" y="-483.46" font-family="Helvetica,sans-Serif" font-size="10.00"> sDebugPrint</text>
</g>
<!-- Node2 -->
<g id="node2" class="node">
<title>Node2</title>
<g id="a_node2"><a xlink:href="structunk__print.html" target="_top" xlink:title=" ">
<polygon fill="white" stroke="#666666" points="828,-520.46 772,-520.46 772,-501.46 828,-501.46 828,-520.46"/>
<text text-anchor="middle" x="800" y="-508.46" font-family="Helvetica,sans-Serif" font-size="10.00">unk_print</text>
</a>
</g>
</g>
<!-- Node2&#45;&gt;Node1 -->
<g id="edge2" class="edge">
<title>Node2&#45;&gt;Node1</title>
<path fill="none" stroke="#9a32cd" stroke-dasharray="5,2" d="M839.67,-505.45C866.65,-500.9 903.2,-493.33 934,-481.96 947.58,-476.94 961.97,-469.07 972.48,-462.79"/>
<polygon fill="#9a32cd" stroke="#9a32cd" points="839.18,-501.98 829.87,-507.03 840.3,-508.89 839.18,-501.98"/>
<text text-anchor="middle" x="897.5" y="-503.96" font-family="Helvetica,sans-Serif" font-size="10.00"> mFirst</text>
</g>
<!-- Node2&#45;&gt;Node2 -->
<g id="edge3" class="edge">
<title>Node2&#45;&gt;Node2</title>
<path fill="none" stroke="#9a32cd" stroke-dasharray="5,2" d="M784.73,-532.22C786.79,-535.9 791.88,-538.46 800,-538.46 815.29,-538.46 819.83,-529.39 813.62,-520.83"/>
<polygon fill="#9a32cd" stroke="#9a32cd" points="788.19,-532.72 786.16,-522.32 781.27,-531.72 788.19,-532.72"/>
<text text-anchor="middle" x="800" y="-541.46" font-family="Helvetica,sans-Serif" font-size="10.00"> mNext</text>
</g>
<!-- Node3 -->
<g id="node3" class="node">
<title>Node3</title>
<g id="a_node3"><a xlink:href="structJUTFont.html" target="_top" xlink:title=" ">
<polygon fill="white" stroke="#666666" points="827.5,-483.46 772.5,-483.46 772.5,-464.46 827.5,-464.46 827.5,-483.46"/>
<text text-anchor="middle" x="800" y="-471.46" font-family="Helvetica,sans-Serif" font-size="10.00">JUTFont</text>
</a>
</g>
</g>
<!-- Node3&#45;&gt;Node1 -->
<g id="edge4" class="edge">
<title>Node3&#45;&gt;Node1</title>
<path fill="none" stroke="#9a32cd" stroke-dasharray="5,2" d="M839.11,-469.68C873.05,-465.87 922.21,-460.35 954.62,-456.7"/>
<polygon fill="#9a32cd" stroke="#9a32cd" points="838.84,-466.18 829.3,-470.78 839.62,-473.14 838.84,-466.18"/>
<text text-anchor="middle" x="897.5" y="-469.96" font-family="Helvetica,sans-Serif" font-size="10.00"> mFont</text>
</g>
<!-- Node4 -->
<g id="node4" class="node">
<title>Node4</title>
<g id="a_node4"><a xlink:href="structJUtility_1_1TColor.html" target="_top" xlink:title=" ">
<polygon fill="white" stroke="#666666" points="652,-448.46 572,-448.46 572,-429.46 652,-429.46 652,-448.46"/>
<text text-anchor="middle" x="612" y="-436.46" font-family="Helvetica,sans-Serif" font-size="10.00">JUtility::TColor</text>
</a>
</g>
</g>
<!-- Node4&#45;&gt;Node1 -->
<g id="edge7" class="edge">
<title>Node4&#45;&gt;Node1</title>
<path fill="none" stroke="#9a32cd" stroke-dasharray="5,2" d="M663.79,-439.86C710.41,-440.79 781.37,-442.45 843,-444.96 881.29,-446.51 925.23,-449.04 954.61,-450.84"/>
<polygon fill="#9a32cd" stroke="#9a32cd" points="664.07,-436.36 654,-439.67 663.93,-443.36 664.07,-436.36"/>
<text text-anchor="middle" x="800" y="-447.96" font-family="Helvetica,sans-Serif" font-size="10.00"> mColor</text>
</g>
<!-- Node4&#45;&gt;Node3 -->
<g id="edge5" class="edge">
<title>Node4&#45;&gt;Node3</title>
<path fill="none" stroke="#9a32cd" stroke-dasharray="5,2" d="M663.44,-448.45C698.51,-455.05 743.88,-463.58 772.21,-468.92"/>
<polygon fill="#9a32cd" stroke="#9a32cd" points="664.41,-445.07 653.93,-446.66 663.11,-451.95 664.41,-445.07"/>
<text text-anchor="middle" x="713" y="-497.96" font-family="Helvetica,sans-Serif" font-size="10.00"> mColor1</text>
<text text-anchor="middle" x="713" y="-486.96" font-family="Helvetica,sans-Serif" font-size="10.00">mColor2</text>
<text text-anchor="middle" x="713" y="-475.96" font-family="Helvetica,sans-Serif" font-size="10.00">mColor3</text>
<text text-anchor="middle" x="713" y="-464.96" font-family="Helvetica,sans-Serif" font-size="10.00">mColor4</text>
</g>
<!-- Node5 -->
<g id="node5" class="node">
<title>Node5</title>
<g id="a_node5"><a xlink:href="struct__GXColor.html" target="_top" xlink:title=" ">
<polygon fill="white" stroke="#666666" points="380,-448.46 327,-448.46 327,-429.46 380,-429.46 380,-448.46"/>
<text text-anchor="middle" x="353.5" y="-436.46" font-family="Helvetica,sans-Serif" font-size="10.00">GXColor</text>
</a>
</g>
</g>
<!-- Node5&#45;&gt;Node4 -->
<g id="edge6" class="edge">
<title>Node5&#45;&gt;Node4</title>
<path fill="none" stroke="#63b8ff" d="M391.42,-438.96C439.4,-438.96 522.81,-438.96 571.86,-438.96"/>
<polygon fill="#63b8ff" stroke="#63b8ff" points="391.55,-435.46 381.55,-438.96 391.55,-442.46 391.55,-435.46"/>
</g>
<!-- Node6 -->
<g id="node6" class="node">
<title>Node6</title>
<g id="a_node6"><a xlink:href="structJKRHeap.html" target="_top" xlink:title=" ">
<polygon fill="white" stroke="#666666" points="829.5,-347.46 770.5,-347.46 770.5,-328.46 829.5,-328.46 829.5,-347.46"/>
<text text-anchor="middle" x="800" y="-335.46" font-family="Helvetica,sans-Serif" font-size="10.00">JKRHeap</text>
</a>
</g>
</g>
<!-- Node6&#45;&gt;Node1 -->
<g id="edge8" class="edge">
<title>Node6&#45;&gt;Node1</title>
<path fill="none" stroke="#9a32cd" stroke-dasharray="5,2" d="M832.14,-352.85C859.68,-366.48 900.55,-387.84 934,-409.96 949.59,-420.27 966.23,-433.98 976.86,-443.12"/>
<polygon fill="#9a32cd" stroke="#9a32cd" points="833.81,-349.77 823.29,-348.52 830.73,-356.06 833.81,-349.77"/>
<text text-anchor="middle" x="897.5" y="-412.96" font-family="Helvetica,sans-Serif" font-size="10.00"> mHeap</text>
</g>
<!-- Node6&#45;&gt;Node6 -->
<g id="edge16" class="edge">
<title>Node6&#45;&gt;Node6</title>
<path fill="none" stroke="#9a32cd" stroke-dasharray="5,2" d="M784.73,-359.22C786.79,-362.9 791.88,-365.46 800,-365.46 815.29,-365.46 819.83,-356.39 813.62,-347.83"/>
<polygon fill="#9a32cd" stroke="#9a32cd" points="788.19,-359.72 786.16,-349.32 781.27,-358.72 788.19,-359.72"/>
<text text-anchor="middle" x="800" y="-390.46" font-family="Helvetica,sans-Serif" font-size="10.00"> sCurrentHeap</text>
<text text-anchor="middle" x="800" y="-379.46" font-family="Helvetica,sans-Serif" font-size="10.00">sRootHeap</text>
<text text-anchor="middle" x="800" y="-368.46" font-family="Helvetica,sans-Serif" font-size="10.00">sSystemHeap</text>
</g>
<!-- Node7 -->
<g id="node7" class="node">
<title>Node7</title>
<g id="a_node7"><a xlink:href="classJKRDisposer.html" target="_top" xlink:title=" ">
<polygon fill="white" stroke="#666666" points="1026,-326.46 952,-326.46 952,-307.46 1026,-307.46 1026,-326.46"/>
<text text-anchor="middle" x="989" y="-314.46" font-family="Helvetica,sans-Serif" font-size="10.00">JKRDisposer</text>
</a>
</g>
</g>
<!-- Node6&#45;&gt;Node7 -->
<g id="edge10" class="edge">
<title>Node6&#45;&gt;Node7</title>
<path fill="none" stroke="#9a32cd" stroke-dasharray="5,2" d="M841.39,-336.24C867.82,-334.8 903.07,-332.25 934,-327.96 939.69,-327.17 945.67,-326.14 951.51,-325.04"/>
<polygon fill="#9a32cd" stroke="#9a32cd" points="841.23,-332.75 831.42,-336.76 841.59,-339.74 841.23,-332.75"/>
<text text-anchor="middle" x="897.5" y="-337.96" font-family="Helvetica,sans-Serif" font-size="10.00"> mHeap</text>
</g>
<!-- Node7&#45;&gt;Node6 -->
<g id="edge9" class="edge">
<title>Node7&#45;&gt;Node6</title>
<path fill="none" stroke="#63b8ff" d="M940.36,-322.14C916.53,-324.75 887.23,-327.98 861,-330.96 850.89,-332.1 839.83,-333.39 829.99,-334.54"/>
<polygon fill="#63b8ff" stroke="#63b8ff" points="940.52,-325.64 950.08,-321.07 939.76,-318.68 940.52,-325.64"/>
</g>
<!-- Node8 -->
<g id="node8" class="node">
<title>Node8</title>
<g id="a_node8"><a xlink:href="classJSULink.html" target="_top" xlink:title=" ">
<polygon fill="white" stroke="#666666" points="537,-297.46 409,-297.46 409,-278.46 537,-278.46 537,-297.46"/>
<text text-anchor="middle" x="473" y="-285.46" font-family="Helvetica,sans-Serif" font-size="10.00">JSULink&lt; JKRDisposer &gt;</text>
</a>
</g>
</g>
<!-- Node8&#45;&gt;Node7 -->
<g id="edge11" class="edge">
<title>Node8&#45;&gt;Node7</title>
<path fill="none" stroke="#9a32cd" stroke-dasharray="5,2" d="M548.48,-292.16C660.5,-298.48 868.13,-310.19 951.73,-314.91"/>
<polygon fill="#9a32cd" stroke="#9a32cd" points="548.98,-288.68 538.8,-291.61 548.58,-295.67 548.98,-288.68"/>
<text text-anchor="middle" x="713" y="-304.96" font-family="Helvetica,sans-Serif" font-size="10.00"> mLink</text>
</g>
<!-- Node9 -->
<g id="node9" class="node">
<title>Node9</title>
<g id="a_node9"><a xlink:href="structJSUPtrLink.html" target="_top" xlink:title=" ">
<polygon fill="white" stroke="#666666" points="68,-347.46 0,-347.46 0,-328.46 68,-328.46 68,-347.46"/>
<text text-anchor="middle" x="34" y="-335.46" font-family="Helvetica,sans-Serif" font-size="10.00">JSUPtrLink</text>
</a>
</g>
</g>
<!-- Node9&#45;&gt;Node8 -->
<g id="edge12" class="edge">
<title>Node9&#45;&gt;Node8</title>
<path fill="none" stroke="#63b8ff" d="M79.49,-329.18C81.69,-328.77 83.87,-328.35 86,-327.96 145.9,-316.76 160.5,-311.24 221,-303.96 284.62,-296.3 357.78,-292.16 408.64,-290.03"/>
<polygon fill="#63b8ff" stroke="#63b8ff" points="79.1,-325.7 69.94,-331.02 80.42,-332.57 79.1,-325.7"/>
</g>
<!-- Node9&#45;&gt;Node9 -->
<g id="edge15" class="edge">
<title>Node9&#45;&gt;Node9</title>
<path fill="none" stroke="#9a32cd" stroke-dasharray="5,2" d="M21.89,-359.22C23.52,-362.9 27.56,-365.46 34,-365.46 46.13,-365.46 49.73,-356.39 44.8,-347.83"/>
<polygon fill="#9a32cd" stroke="#9a32cd" points="25.36,-359.66 23.03,-349.33 18.41,-358.86 25.36,-359.66"/>
<text text-anchor="middle" x="34" y="-379.46" font-family="Helvetica,sans-Serif" font-size="10.00"> mNext</text>
<text text-anchor="middle" x="34" y="-368.46" font-family="Helvetica,sans-Serif" font-size="10.00">mPrev</text>
</g>
<!-- Node10 -->
<g id="node10" class="node">
<title>Node10</title>
<g id="a_node10"><a xlink:href="structJSUPtrList.html" target="_top" xlink:title=" ">
<polygon fill="white" stroke="#666666" points="203,-384.46 138,-384.46 138,-365.46 203,-365.46 203,-384.46"/>
<text text-anchor="middle" x="170.5" y="-372.46" font-family="Helvetica,sans-Serif" font-size="10.00">JSUPtrList</text>
</a>
</g>
</g>
<!-- Node9&#45;&gt;Node10 -->
<g id="edge14" class="edge">
<title>Node9&#45;&gt;Node10</title>
<path fill="none" stroke="#9a32cd" stroke-dasharray="5,2" d="M58.03,-353.79C66.47,-358.84 76.33,-363.9 86,-366.96 102.52,-372.18 121.73,-374.28 137.55,-375.02"/>
<polygon fill="#9a32cd" stroke="#9a32cd" points="60.15,-350.98 49.83,-348.59 56.4,-356.9 60.15,-350.98"/>
<text text-anchor="middle" x="103" y="-386.96" font-family="Helvetica,sans-Serif" font-size="10.00"> mHead</text>
<text text-anchor="middle" x="103" y="-375.96" font-family="Helvetica,sans-Serif" font-size="10.00">mTail</text>
</g>
<!-- Node20 -->
<g id="node20" class="node">
<title>Node20</title>
<g id="a_node20"><a xlink:href="classJSULink.html" target="_top" xlink:title=" ">
<polygon fill="white" stroke="#666666" points="298,-331.46 221,-331.46 221,-312.46 298,-312.46 298,-331.46"/>
<text text-anchor="middle" x="259.5" y="-319.46" font-family="Helvetica,sans-Serif" font-size="10.00">JSULink&lt; T &gt;</text>
</a>
</g>
</g>
<!-- Node9&#45;&gt;Node20 -->
<g id="edge34" class="edge">
<title>Node9&#45;&gt;Node20</title>
<path fill="none" stroke="#63b8ff" d="M79.83,-334.75C121.14,-331.79 181.77,-327.45 220.69,-324.66"/>
<polygon fill="#63b8ff" stroke="#63b8ff" points="79.69,-331.25 69.97,-335.45 80.19,-338.23 79.69,-331.25"/>
</g>
<!-- Node10&#45;&gt;Node9 -->
<g id="edge13" class="edge">
<title>Node10&#45;&gt;Node9</title>
<path fill="none" stroke="#9a32cd" stroke-dasharray="5,2" d="M135.71,-361.18C130.49,-359.29 125.14,-357.48 120,-355.96 103.22,-350.99 84.2,-346.83 68.4,-343.77"/>
<polygon fill="#9a32cd" stroke="#9a32cd" points="134.09,-364.3 144.68,-364.57 136.56,-357.76 134.09,-364.3"/>
<text text-anchor="middle" x="103" y="-358.96" font-family="Helvetica,sans-Serif" font-size="10.00"> mList</text>
</g>
<!-- Node19 -->
<g id="node19" class="node">
<title>Node19</title>
<g id="a_node19"><a xlink:href="classJSUList.html" target="_top" xlink:title=" ">
<polygon fill="white" stroke="#666666" points="391,-369.46 316,-369.46 316,-350.46 391,-350.46 391,-369.46"/>
<text text-anchor="middle" x="353.5" y="-357.46" font-family="Helvetica,sans-Serif" font-size="10.00">JSUList&lt; T &gt;</text>
</a>
</g>
</g>
<!-- Node10&#45;&gt;Node19 -->
<g id="edge32" class="edge">
<title>Node10&#45;&gt;Node19</title>
<path fill="none" stroke="#63b8ff" d="M214.69,-371.38C245.44,-368.83 286.34,-365.44 315.57,-363.02"/>
<polygon fill="#63b8ff" stroke="#63b8ff" points="214.63,-367.87 204.95,-372.18 215.21,-374.85 214.63,-367.87"/>
</g>
<!-- Node21 -->
<g id="node21" class="node">
<title>Node21</title>
<g id="a_node21"><a xlink:href="classJSUList.html" target="_top" xlink:title=" ">
<polygon fill="white" stroke="#666666" points="536,-405.46 410,-405.46 410,-386.46 536,-386.46 536,-405.46"/>
<text text-anchor="middle" x="473" y="-393.46" font-family="Helvetica,sans-Serif" font-size="10.00">JSUList&lt; JKRDisposer &gt;</text>
</a>
</g>
</g>
<!-- Node10&#45;&gt;Node21 -->
<g id="edge36" class="edge">
<title>Node10&#45;&gt;Node21</title>
<path fill="none" stroke="#63b8ff" d="M214.75,-380.36C216.86,-380.57 218.96,-380.77 221,-380.96 285.13,-386.75 358.68,-390.85 409.52,-393.28"/>
<polygon fill="#63b8ff" stroke="#63b8ff" points="215.25,-376.89 204.93,-379.28 214.49,-383.85 215.25,-376.89"/>
</g>
<!-- Node11 -->
<g id="node11" class="node">
<title>Node11</title>
<g id="a_node11"><a xlink:href="structOSMutex.html" target="_top" xlink:title=" ">
<polygon fill="white" stroke="#666666" points="640.5,-146.46 583.5,-146.46 583.5,-127.46 640.5,-127.46 640.5,-146.46"/>
<text text-anchor="middle" x="612" y="-134.46" font-family="Helvetica,sans-Serif" font-size="10.00">OSMutex</text>
</a>
</g>
</g>
<!-- Node11&#45;&gt;Node6 -->
<g id="edge17" class="edge">
<title>Node11&#45;&gt;Node6</title>
<path fill="none" stroke="#9a32cd" stroke-dasharray="5,2" d="M623.49,-156.51C636.07,-178.38 659,-213.65 687,-235.96 706.77,-251.7 719.17,-243.29 739,-258.96 764.27,-278.93 784.64,-311.88 793.78,-328.19"/>
<polygon fill="#9a32cd" stroke="#9a32cd" points="626.69,-155.06 618.76,-148.02 620.57,-158.46 626.69,-155.06"/>
<text text-anchor="middle" x="713" y="-261.96" font-family="Helvetica,sans-Serif" font-size="10.00"> mMutex</text>
</g>
<!-- Node13 -->
<g id="node13" class="node">
<title>Node13</title>
<g id="a_node13"><a xlink:href="structOSThread.html" target="_top" xlink:title=" ">
<polygon fill="white" stroke="#666666" points="1019.5,-147.46 958.5,-147.46 958.5,-128.46 1019.5,-128.46 1019.5,-147.46"/>
<text text-anchor="middle" x="989" y="-135.46" font-family="Helvetica,sans-Serif" font-size="10.00">OSThread</text>
</a>
</g>
</g>
<!-- Node11&#45;&gt;Node13 -->
<g id="edge24" class="edge">
<title>Node11&#45;&gt;Node13</title>
<path fill="none" stroke="#9a32cd" stroke-dasharray="5,2" d="M629.98,-154.54C643.91,-167.62 664.86,-184.46 687,-191.96 790.97,-227.19 832.81,-234.52 934,-191.96 955.51,-182.91 972.97,-160.78 981.78,-147.83"/>
<polygon fill="#9a32cd" stroke="#9a32cd" points="632.58,-152.18 622.99,-147.68 627.68,-157.18 632.58,-152.18"/>
<text text-anchor="middle" x="800" y="-223.96" font-family="Helvetica,sans-Serif" font-size="10.00"> mutex</text>
</g>
<!-- Node16 -->
<g id="node16" class="node">
<title>Node16</title>
<g id="a_node16"><a xlink:href="structOSMutexQueue.html" target="_top" xlink:title=" ">
<polygon fill="white" stroke="#666666" points="843,-141.46 757,-141.46 757,-122.46 843,-122.46 843,-141.46"/>
<text text-anchor="middle" x="800" y="-129.46" font-family="Helvetica,sans-Serif" font-size="10.00">OSMutexQueue</text>
</a>
</g>
</g>
<!-- Node11&#45;&gt;Node16 -->
<g id="edge26" class="edge">
<title>Node11&#45;&gt;Node16</title>
<path fill="none" stroke="#9a32cd" stroke-dasharray="5,2" d="M651.97,-135.91C682.64,-135.08 725.33,-133.94 756.81,-133.09"/>
<polygon fill="#9a32cd" stroke="#9a32cd" points="652.26,-132.4 642.36,-136.17 652.45,-139.4 652.26,-132.4"/>
<text text-anchor="middle" x="713" y="-147.96" font-family="Helvetica,sans-Serif" font-size="10.00"> head</text>
<text text-anchor="middle" x="713" y="-136.96" font-family="Helvetica,sans-Serif" font-size="10.00">tail</text>
</g>
<!-- Node17 -->
<g id="node17" class="node">
<title>Node17</title>
<g id="a_node17"><a xlink:href="structOSMutexLink.html" target="_top" xlink:title=" ">
<polygon fill="white" stroke="#666666" points="838,-67.46 762,-67.46 762,-48.46 838,-48.46 838,-67.46"/>
<text text-anchor="middle" x="800" y="-55.46" font-family="Helvetica,sans-Serif" font-size="10.00">OSMutexLink</text>
</a>
</g>
</g>
<!-- Node11&#45;&gt;Node17 -->
<g id="edge29" class="edge">
<title>Node11&#45;&gt;Node17</title>
<path fill="none" stroke="#9a32cd" stroke-dasharray="5,2" d="M646.52,-122.72C683.76,-106.9 742.93,-81.77 775.53,-67.93"/>
<polygon fill="#9a32cd" stroke="#9a32cd" points="645.41,-119.39 637.57,-126.52 648.15,-125.83 645.41,-119.39"/>
<text text-anchor="middle" x="713" y="-117.96" font-family="Helvetica,sans-Serif" font-size="10.00"> next</text>
<text text-anchor="middle" x="713" y="-106.96" font-family="Helvetica,sans-Serif" font-size="10.00">prev</text>
</g>
<!-- Node12 -->
<g id="node12" class="node">
<title>Node12</title>
<g id="a_node12"><a xlink:href="structOSThreadQueue.html" target="_top" xlink:title=" ">
<polygon fill="white" stroke="#666666" points="1238,-62.46 1149,-62.46 1149,-43.46 1238,-43.46 1238,-62.46"/>
<text text-anchor="middle" x="1193.5" y="-50.46" font-family="Helvetica,sans-Serif" font-size="10.00">OSThreadQueue</text>
</a>
</g>
</g>
<!-- Node12&#45;&gt;Node11 -->
<g id="edge18" class="edge">
<title>Node12&#45;&gt;Node11</title>
<path fill="none" stroke="#9a32cd" stroke-dasharray="5,2" d="M1151.34,-39.75C1060.92,-13.31 840.78,36.83 687,-45.96 652.04,-64.78 627.4,-107.73 617.65,-127.12"/>
<polygon fill="#9a32cd" stroke="#9a32cd" points="1150.18,-43.06 1160.76,-42.57 1152.18,-36.35 1150.18,-43.06"/>
<text text-anchor="middle" x="897.5" y="-4.96" font-family="Helvetica,sans-Serif" font-size="10.00"> queue</text>
</g>
<!-- Node12&#45;&gt;Node13 -->
<g id="edge21" class="edge">
<title>Node12&#45;&gt;Node13</title>
<path fill="none" stroke="#9a32cd" stroke-dasharray="5,2" d="M1155.4,-66.95C1114.96,-82.24 1054.56,-105.21 1044,-109.96 1031.67,-115.5 1018.17,-122.5 1007.75,-128.11"/>
<polygon fill="#9a32cd" stroke="#9a32cd" points="1156.44,-70.3 1164.56,-63.49 1153.96,-63.75 1156.44,-70.3"/>
<text text-anchor="middle" x="1087.5" y="-123.96" font-family="Helvetica,sans-Serif" font-size="10.00"> join_queue</text>
<text text-anchor="middle" x="1087.5" y="-112.96" font-family="Helvetica,sans-Serif" font-size="10.00">queue</text>
</g>
<!-- Node13&#45;&gt;Node11 -->
<g id="edge27" class="edge">
<title>Node13&#45;&gt;Node11</title>
<path fill="none" stroke="#9a32cd" stroke-dasharray="5,2" d="M947.29,-148.63C942.83,-149.53 938.33,-150.34 934,-150.96 822.01,-166.87 737.85,-167.68 687,-159.96 670.37,-157.43 652.34,-151.89 638.24,-146.88"/>
<polygon fill="#9a32cd" stroke="#9a32cd" points="947.72,-152.11 956.73,-146.53 946.21,-145.28 947.72,-152.11"/>
<text text-anchor="middle" x="800" y="-166.96" font-family="Helvetica,sans-Serif" font-size="10.00"> thread</text>
</g>
<!-- Node13&#45;&gt;Node12 -->
<g id="edge19" class="edge">
<title>Node13&#45;&gt;Node12</title>
<path fill="none" stroke="#9a32cd" stroke-dasharray="5,2" d="M996.64,-117.53C1004.43,-97.29 1019.5,-67.44 1044,-53.96 1076.3,-36.18 1118.85,-37.95 1150.12,-42.98"/>
<polygon fill="#9a32cd" stroke="#9a32cd" points="993.43,-116.11 993.38,-126.7 1000.02,-118.45 993.43,-116.11"/>
<text text-anchor="middle" x="1087.5" y="-67.96" font-family="Helvetica,sans-Serif" font-size="10.00"> head</text>
<text text-anchor="middle" x="1087.5" y="-56.96" font-family="Helvetica,sans-Serif" font-size="10.00">tail</text>
</g>
<!-- Node15 -->
<g id="node15" class="node">
<title>Node15</title>
<g id="a_node15"><a xlink:href="structOSThreadLink.html" target="_top" xlink:title=" ">
<polygon fill="white" stroke="#666666" points="1233.5,-174.46 1153.5,-174.46 1153.5,-155.46 1233.5,-155.46 1233.5,-174.46"/>
<text text-anchor="middle" x="1193.5" y="-162.46" font-family="Helvetica,sans-Serif" font-size="10.00">OSThreadLink</text>
</a>
</g>
</g>
<!-- Node13&#45;&gt;Node15 -->
<g id="edge23" class="edge">
<title>Node13&#45;&gt;Node15</title>
<path fill="none" stroke="#9a32cd" stroke-dasharray="5,2" d="M1014.12,-153.6C1023.13,-158.58 1033.68,-163.44 1044,-165.96 1080.19,-174.78 1122.84,-173.33 1153.13,-170.38"/>
<polygon fill="#9a32cd" stroke="#9a32cd" points="1016.06,-150.68 1005.67,-148.61 1012.5,-156.71 1016.06,-150.68"/>
<text text-anchor="middle" x="1087.5" y="-185.96" font-family="Helvetica,sans-Serif" font-size="10.00"> next</text>
<text text-anchor="middle" x="1087.5" y="-174.96" font-family="Helvetica,sans-Serif" font-size="10.00">prev</text>
</g>
<!-- Node14 -->
<g id="node14" class="node">
<title>Node14</title>
<g id="a_node14"><a xlink:href="structOSContext.html" target="_top" xlink:title=" ">
<polygon fill="white" stroke="#666666" points="832,-104.46 768,-104.46 768,-85.46 832,-85.46 832,-104.46"/>
<text text-anchor="middle" x="800" y="-92.46" font-family="Helvetica,sans-Serif" font-size="10.00">OSContext</text>
</a>
</g>
</g>
<!-- Node14&#45;&gt;Node13 -->
<g id="edge20" class="edge">
<title>Node14&#45;&gt;Node13</title>
<path fill="none" stroke="#9a32cd" stroke-dasharray="5,2" d="M843.38,-100.26C869.72,-104.06 904.14,-109.92 934,-117.96 944.04,-120.66 954.83,-124.47 964.11,-128.04"/>
<polygon fill="#9a32cd" stroke="#9a32cd" points="844.14,-96.83 833.75,-98.92 843.18,-103.77 844.14,-96.83"/>
<text text-anchor="middle" x="897.5" y="-120.96" font-family="Helvetica,sans-Serif" font-size="10.00"> context</text>
</g>
<!-- Node15&#45;&gt;Node13 -->
<g id="edge22" class="edge">
<title>Node15&#45;&gt;Node13</title>
<path fill="none" stroke="#9a32cd" stroke-dasharray="5,2" d="M1158.12,-151.28C1149.4,-148.36 1139.97,-145.64 1131,-143.96 1093.19,-136.85 1048.73,-136.2 1019.99,-136.77"/>
<polygon fill="#9a32cd" stroke="#9a32cd" points="1156.67,-154.48 1167.26,-154.54 1159.01,-147.89 1156.67,-154.48"/>
<text text-anchor="middle" x="1087.5" y="-157.96" font-family="Helvetica,sans-Serif" font-size="10.00"> active_threads_link</text>
<text text-anchor="middle" x="1087.5" y="-146.96" font-family="Helvetica,sans-Serif" font-size="10.00">link</text>
</g>
<!-- Node16&#45;&gt;Node13 -->
<g id="edge25" class="edge">
<title>Node16&#45;&gt;Node13</title>
<path fill="none" stroke="#9a32cd" stroke-dasharray="5,2" d="M854.94,-133.69C888.55,-134.77 930.53,-136.11 958.25,-137"/>
<polygon fill="#9a32cd" stroke="#9a32cd" points="855.05,-130.19 844.95,-133.37 854.83,-137.19 855.05,-130.19"/>
<text text-anchor="middle" x="897.5" y="-138.96" font-family="Helvetica,sans-Serif" font-size="10.00"> owned_mutexes</text>
</g>
<!-- Node17&#45;&gt;Node11 -->
<g id="edge28" class="edge">
<title>Node17&#45;&gt;Node11</title>
<path fill="none" stroke="#9a32cd" stroke-dasharray="5,2" d="M750.42,-50.24C730.06,-49.04 706.62,-50.42 687,-58.96 654.31,-73.18 629.21,-109.6 618.57,-127.18"/>
<polygon fill="#9a32cd" stroke="#9a32cd" points="749.91,-53.71 760.17,-51.05 750.49,-46.73 749.91,-53.71"/>
<text text-anchor="middle" x="713" y="-61.96" font-family="Helvetica,sans-Serif" font-size="10.00"> link</text>
</g>
<!-- Node18 -->
<g id="node18" class="node">
<title>Node18</title>
<g id="a_node18"><a xlink:href="classJSUTree.html" target="_top" xlink:title=" ">
<polygon fill="white" stroke="#666666" points="669,-347.46 555,-347.46 555,-328.46 669,-328.46 669,-347.46"/>
<text text-anchor="middle" x="612" y="-335.46" font-family="Helvetica,sans-Serif" font-size="10.00">JSUTree&lt; JKRHeap &gt;</text>
</a>
</g>
</g>
<!-- Node18&#45;&gt;Node6 -->
<g id="edge30" class="edge">
<title>Node18&#45;&gt;Node6</title>
<path fill="none" stroke="#9a32cd" stroke-dasharray="5,2" d="M680.46,-337.96C711.3,-337.96 746.21,-337.96 770.11,-337.96"/>
<polygon fill="#9a32cd" stroke="#9a32cd" points="680.82,-334.46 670.82,-337.96 680.82,-341.46 680.82,-334.46"/>
<text text-anchor="middle" x="713" y="-340.96" font-family="Helvetica,sans-Serif" font-size="10.00"> mChildTree</text>
</g>
<!-- Node19&#45;&gt;Node18 -->
<g id="edge31" class="edge">
<title>Node19&#45;&gt;Node18</title>
<path fill="none" stroke="#63b8ff" d="M402.61,-355.83C445.86,-352.12 509.41,-346.67 554.95,-342.76"/>
<polygon fill="#63b8ff" stroke="#63b8ff" points="402.42,-352.33 392.76,-356.68 403.02,-359.31 402.42,-352.33"/>
</g>
<!-- Node20&#45;&gt;Node18 -->
<g id="edge33" class="edge">
<title>Node20&#45;&gt;Node18</title>
<path fill="none" stroke="#63b8ff" d="M309.79,-324.21C374.22,-327.15 486.82,-332.29 554.59,-335.38"/>
<polygon fill="#63b8ff" stroke="#63b8ff" points="310,-320.71 299.85,-323.75 309.68,-327.71 310,-320.71"/>
</g>
<!-- Node21&#45;&gt;Node6 -->
<g id="edge35" class="edge">
<title>Node21&#45;&gt;Node6</title>
<path fill="none" stroke="#9a32cd" stroke-dasharray="5,2" d="M547.45,-385.73C600.81,-377.9 674.64,-366.2 739,-352.96 749.2,-350.86 760.29,-348.2 770.12,-345.7"/>
<polygon fill="#9a32cd" stroke="#9a32cd" points="547.27,-382.22 537.88,-387.13 548.28,-389.15 547.27,-382.22"/>
<text text-anchor="middle" x="612" y="-386.96" font-family="Helvetica,sans-Serif" font-size="10.00"> mDisposerList</text>
</g>
</g>
</svg>
