<?xml version="1.0" encoding="UTF-8" standalone="no"?>
<!DOCTYPE svg PUBLIC "-//W3C//DTD SVG 1.1//EN"
 "http://www.w3.org/Graphics/SVG/1.1/DTD/svg11.dtd">
<!-- Generated by graphviz version 7.0.5 (20221223.1930)
 -->
<!-- Title: daNpcF_c Pages: 1 -->
<svg width="298pt" height="192pt"
 viewBox="0.00 0.00 297.50 192.00" xmlns="http://www.w3.org/2000/svg" xmlns:xlink="http://www.w3.org/1999/xlink">
<g id="graph0" class="graph" transform="scale(1 1) rotate(0) translate(4 188)">
<title>daNpcF_c</title>
<!-- Node1 -->
<g id="node1" class="node">
<title>Node1</title>
<g id="a_node1"><a xlink:title=" ">
<polygon fill="#999999" stroke="#666666" points="168.5,-74 106.5,-74 106.5,-55 168.5,-55 168.5,-74"/>
<text text-anchor="middle" x="137.5" y="-62" font-family="Helvetica,sans-Serif" font-size="10.00">daNpcF_c</text>
</a>
</g>
</g>
<!-- Node4 -->
<g id="node4" class="node">
<title>Node4</title>
<g id="a_node4"><a xlink:href="classdaNpcAsh__c.html" target="_top" xlink:title=" ">
<polygon fill="white" stroke="#666666" points="73,-19 0,-19 0,0 73,0 73,-19"/>
<text text-anchor="middle" x="36.5" y="-7" font-family="Helvetica,sans-Serif" font-size="10.00">daNpcAsh_c</text>
</a>
</g>
</g>
<!-- Node1&#45;&gt;Node4 -->
<g id="edge3" class="edge">
<title>Node1&#45;&gt;Node4</title>
<path fill="none" stroke="#63b8ff" d="M110.38,-49.27C92.23,-39.74 68.92,-27.51 53.38,-19.36"/>
<polygon fill="#63b8ff" stroke="#63b8ff" points="108.55,-52.26 119.03,-53.81 111.8,-46.06 108.55,-52.26"/>
</g>
<!-- Node5 -->
<g id="node5" class="node">
<title>Node5</title>
<g id="a_node5"><a xlink:href="classdaNpcWrestler__c.html" target="_top" xlink:title=" ">
<polygon fill="white" stroke="#666666" points="183.5,-19 91.5,-19 91.5,0 183.5,0 183.5,-19"/>
<text text-anchor="middle" x="137.5" y="-7" font-family="Helvetica,sans-Serif" font-size="10.00">daNpcWrestler_c</text>
</a>
</g>
</g>
<!-- Node1&#45;&gt;Node5 -->
<g id="edge4" class="edge">
<title>Node1&#45;&gt;Node5</title>
<path fill="none" stroke="#63b8ff" d="M137.5,-43.35C137.5,-35.1 137.5,-25.97 137.5,-19.44"/>
<polygon fill="#63b8ff" stroke="#63b8ff" points="134,-43.23 137.5,-53.23 141,-43.23 134,-43.23"/>
</g>
<!-- Node6 -->
<g id="node6" class="node">
<title>Node6</title>
<g id="a_node6"><a xlink:href="classdaNpc__GWolf__c.html" target="_top" xlink:title=" ">
<polygon fill="white" stroke="#666666" points="289.5,-19 201.5,-19 201.5,0 289.5,0 289.5,-19"/>
<text text-anchor="middle" x="245.5" y="-7" font-family="Helvetica,sans-Serif" font-size="10.00">daNpc_GWolf_c</text>
</a>
</g>
</g>
<!-- Node1&#45;&gt;Node6 -->
<g id="edge5" class="edge">
<title>Node1&#45;&gt;Node6</title>
<path fill="none" stroke="#63b8ff" d="M165.96,-49.53C185.44,-39.97 210.68,-27.59 227.45,-19.36"/>
<polygon fill="#63b8ff" stroke="#63b8ff" points="164.61,-46.29 157.18,-53.84 167.7,-52.58 164.61,-46.29"/>
</g>
<!-- Node2 -->
<g id="node2" class="node">
<title>Node2</title>
<g id="a_node2"><a xlink:href="structfopAc__ac__c.html" target="_top" xlink:title=" ">
<polygon fill="white" stroke="#666666" points="171.5,-129 103.5,-129 103.5,-110 171.5,-110 171.5,-129"/>
<text text-anchor="middle" x="137.5" y="-117" font-family="Helvetica,sans-Serif" font-size="10.00">fopAc_ac_c</text>
</a>
</g>
</g>
<!-- Node2&#45;&gt;Node1 -->
<g id="edge1" class="edge">
<title>Node2&#45;&gt;Node1</title>
<path fill="none" stroke="#63b8ff" d="M137.5,-98.35C137.5,-90.1 137.5,-80.97 137.5,-74.44"/>
<polygon fill="#63b8ff" stroke="#63b8ff" points="134,-98.23 137.5,-108.23 141,-98.23 134,-98.23"/>
</g>
<!-- Node3 -->
<g id="node3" class="node">
<title>Node3</title>
<g id="a_node3"><a xlink:href="structleafdraw__class.html" target="_top" xlink:title=" ">
<polygon fill="white" stroke="#666666" points="178.5,-184 96.5,-184 96.5,-165 178.5,-165 178.5,-184"/>
<text text-anchor="middle" x="137.5" y="-172" font-family="Helvetica,sans-Serif" font-size="10.00">leafdraw_class</text>
</a>
</g>
</g>
<!-- Node3&#45;&gt;Node2 -->
<g id="edge2" class="edge">
<title>Node3&#45;&gt;Node2</title>
<path fill="none" stroke="#63b8ff" d="M137.5,-153.35C137.5,-145.1 137.5,-135.97 137.5,-129.44"/>
<polygon fill="#63b8ff" stroke="#63b8ff" points="134,-153.23 137.5,-163.23 141,-153.23 134,-153.23"/>
</g>
</g>
</svg>
