<?xml version="1.0" encoding="UTF-8" standalone="no"?>
<!DOCTYPE svg PUBLIC "-//W3C//DTD SVG 1.1//EN"
 "http://www.w3.org/Graphics/SVG/1.1/DTD/svg11.dtd">
<!-- Generated by graphviz version 7.0.5 (20221223.1930)
 -->
<!-- Title: daAlinkHIO_frontRoll_c0 Pages: 1 -->
<svg width="137pt" height="181pt"
 viewBox="0.00 0.00 137.00 181.00" xmlns="http://www.w3.org/2000/svg" xmlns:xlink="http://www.w3.org/1999/xlink">
<g id="graph0" class="graph" transform="scale(1 1) rotate(0) translate(4 177)">
<title>daAlinkHIO_frontRoll_c0</title>
<!-- Node1 -->
<g id="node1" class="node">
<title>Node1</title>
<g id="a_node1"><a xlink:title=" ">
<polygon fill="#999999" stroke="#666666" points="124,-19 0,-19 0,0 124,0 124,-19"/>
<text text-anchor="middle" x="62" y="-7" font-family="Helvetica,sans-Serif" font-size="10.00">daAlinkHIO_frontRoll_c0</text>
</a>
</g>
</g>
<!-- Node2 -->
<g id="node2" class="node">
<title>Node2</title>
<g id="a_node2"><a xlink:href="classdaAlinkHIO__frontRoll__c1.html" target="_top" xlink:title=" ">
<polygon fill="white" stroke="#666666" points="124,-85 0,-85 0,-66 124,-66 124,-85"/>
<text text-anchor="middle" x="62" y="-73" font-family="Helvetica,sans-Serif" font-size="10.00">daAlinkHIO_frontRoll_c1</text>
</a>
</g>
</g>
<!-- Node2&#45;&gt;Node1 -->
<g id="edge1" class="edge">
<title>Node2&#45;&gt;Node1</title>
<path fill="none" stroke="#9a32cd" stroke-dasharray="5,2" d="M62,-54.18C62,-42.44 62,-28.27 62,-19.32"/>
<polygon fill="#9a32cd" stroke="#9a32cd" points="58.5,-54.09 62,-64.09 65.5,-54.09 58.5,-54.09"/>
<text text-anchor="middle" x="67.5" y="-40" font-family="Helvetica,sans-Serif" font-size="10.00"> m</text>
</g>
<!-- Node3 -->
<g id="node3" class="node">
<title>Node3</title>
<g id="a_node3"><a xlink:href="structdaAlinkHIO__anm__c.html" target="_top" xlink:title=" ">
<polygon fill="white" stroke="#666666" points="112.5,-173 11.5,-173 11.5,-154 112.5,-154 112.5,-173"/>
<text text-anchor="middle" x="62" y="-161" font-family="Helvetica,sans-Serif" font-size="10.00">daAlinkHIO_anm_c</text>
</a>
</g>
</g>
<!-- Node3&#45;&gt;Node2 -->
<g id="edge2" class="edge">
<title>Node3&#45;&gt;Node2</title>
<path fill="none" stroke="#9a32cd" stroke-dasharray="5,2" d="M62,-142.37C62,-124.37 62,-98.83 62,-85.46"/>
<polygon fill="#9a32cd" stroke="#9a32cd" points="58.5,-142.11 62,-152.11 65.5,-142.11 58.5,-142.11"/>
<text text-anchor="middle" x="95.5" y="-128" font-family="Helvetica,sans-Serif" font-size="10.00"> mCrashAnm</text>
<text text-anchor="middle" x="95.5" y="-117" font-family="Helvetica,sans-Serif" font-size="10.00">mCrashHitAnm</text>
<text text-anchor="middle" x="95.5" y="-106" font-family="Helvetica,sans-Serif" font-size="10.00">mRollAnm</text>
</g>
</g>
</svg>
