<?xml version="1.0" encoding="UTF-8" standalone="no"?>
<!DOCTYPE svg PUBLIC "-//W3C//DTD SVG 1.1//EN"
 "http://www.w3.org/Graphics/SVG/1.1/DTD/svg11.dtd">
<!-- Generated by graphviz version 7.0.5 (20221223.1930)
 -->
<!-- Title: Z2SoundObjAnime Pages: 1 -->
<!--zoomable 241 -->
<svg id="main" version="1.1" xmlns="http://www.w3.org/2000/svg" xmlns:xlink="http://www.w3.org/1999/xlink" xml:space="preserve" onload="init(evt)">
<style type="text/css"><![CDATA[
.edge:hover path { stroke: red; }
.edge:hover polygon { stroke: red; fill: red; }
]]></style>
<script type="text/javascript"><![CDATA[
var edges = document.getElementsByTagName('g');
if (edges && edges.length) {
  for (var i=0;i<edges.length;i++) {
    if (edges[i].id.substr(0,4)=='edge') {
      edges[i].setAttribute('class','edge');
    }
  }
}
]]></script>
        <defs>
                <circle id="rim" cx="0" cy="0" r="7"/>
                <circle id="rim2" cx="0" cy="0" r="3.5"/>
                <g id="zoomPlus">
                        <use xlink:href="#rim" fill="#404040">
                                <set attributeName="fill" to="#808080" begin="zoomplus.mouseover" end="zoomplus.mouseout"/>
                        </use>
                        <path d="M-4,0h8M0,-4v8" fill="none" stroke="white" stroke-width="1.5" pointer-events="none"/>
                </g>
                <g id="zoomMin">
                        <use xlink:href="#rim" fill="#404040">
                                <set attributeName="fill" to="#808080" begin="zoomminus.mouseover" end="zoomminus.mouseout"/>
                        </use>
                        <path d="M-4,0h8" fill="none" stroke="white" stroke-width="1.5" pointer-events="none"/>
                </g>
                <g id="dirArrow">
                        <path fill="none" stroke="white" stroke-width="1.5" d="M0,-3.0v7 M-2.5,-0.5L0,-3.0L2.5,-0.5"/>
                </g>
               <g id="resetDef">
                       <use xlink:href="#rim2" fill="#404040">
                               <set attributeName="fill" to="#808080" begin="reset.mouseover" end="reset.mouseout"/>
                       </use>
               </g>
        </defs>

<script type="text/javascript">
var viewWidth = 927;
var viewHeight = 241;
var sectionId = 'dynsection-1';
</script>
<script xlink:href="svgpan.js"/>
<svg id="graph" class="graph">
<g id="viewport">
<title>Z2SoundObjAnime</title>
<!-- Node1 -->
<g id="node1" class="node">
<title>Node1</title>
<g id="a_node1"><a xlink:title=" ">
<polygon fill="#999999" stroke="#666666" points="919,-74 821,-74 821,-55 919,-55 919,-74"/>
<text text-anchor="middle" x="870" y="-62" font-family="Helvetica,sans-Serif" font-size="10.00">Z2SoundObjAnime</text>
</a>
</g>
</g>
<!-- Node2 -->
<g id="node2" class="node">
<title>Node2</title>
<g id="a_node2"><a xlink:href="classZ2SoundObjBase.html" target="_top" xlink:title=" ">
<polygon fill="white" stroke="#666666" points="718,-113 625,-113 625,-94 718,-94 718,-113"/>
<text text-anchor="middle" x="671.5" y="-101" font-family="Helvetica,sans-Serif" font-size="10.00">Z2SoundObjBase</text>
</a>
</g>
</g>
<!-- Node2&#45;&gt;Node1 -->
<g id="edge1" class="edge">
<title>Node2&#45;&gt;Node1</title>
<path fill="none" stroke="#63b8ff" d="M729.25,-92.24C758.16,-86.5 792.95,-79.59 820.58,-74.11"/>
<polygon fill="#63b8ff" stroke="#63b8ff" points="728.69,-88.78 719.56,-94.16 730.05,-95.65 728.69,-88.78"/>
</g>
<!-- Node3 -->
<g id="node3" class="node">
<title>Node3</title>
<g id="a_node3"><a xlink:href="classZ2SoundHandles.html" target="_top" xlink:title=" ">
<polygon fill="white" stroke="#666666" points="491,-93 399,-93 399,-74 491,-74 491,-93"/>
<text text-anchor="middle" x="445" y="-81" font-family="Helvetica,sans-Serif" font-size="10.00">Z2SoundHandles</text>
</a>
</g>
</g>
<!-- Node3&#45;&gt;Node2 -->
<g id="edge2" class="edge">
<title>Node3&#45;&gt;Node2</title>
<path fill="none" stroke="darkgreen" d="M502.76,-88.56C540.53,-91.92 589.49,-96.28 624.75,-99.42"/>
<polygon fill="darkgreen" stroke="darkgreen" points="503.21,-85.08 492.94,-87.68 502.59,-92.06 503.21,-85.08"/>
</g>
<!-- Node4 -->
<g id="node4" class="node">
<title>Node4</title>
<g id="a_node4"><a xlink:href="classJSUList.html" target="_top" xlink:title=" ">
<polygon fill="white" stroke="#666666" points="293,-93 135,-93 135,-74 293,-74 293,-93"/>
<text text-anchor="middle" x="214" y="-81" font-family="Helvetica,sans-Serif" font-size="10.00">JSUList&lt; Z2SoundHandlePool &gt;</text>
</a>
</g>
</g>
<!-- Node4&#45;&gt;Node3 -->
<g id="edge3" class="edge">
<title>Node4&#45;&gt;Node3</title>
<path fill="none" stroke="darkgreen" d="M304.74,-83.5C336.92,-83.5 371.85,-83.5 398.67,-83.5"/>
<polygon fill="darkgreen" stroke="darkgreen" points="305,-80 295,-83.5 305,-87 305,-80"/>
</g>
<!-- Node5 -->
<g id="node5" class="node">
<title>Node5</title>
<g id="a_node5"><a xlink:href="structJSUPtrList.html" target="_top" xlink:title=" ">
<polygon fill="white" stroke="#666666" points="65,-126 0,-126 0,-107 65,-107 65,-126"/>
<text text-anchor="middle" x="32.5" y="-114" font-family="Helvetica,sans-Serif" font-size="10.00">JSUPtrList</text>
</a>
</g>
</g>
<!-- Node5&#45;&gt;Node4 -->
<g id="edge4" class="edge">
<title>Node5&#45;&gt;Node4</title>
<path fill="none" stroke="#63b8ff" d="M76.37,-108.62C101.08,-104.08 132.37,-98.32 158.77,-93.47"/>
<polygon fill="#63b8ff" stroke="#63b8ff" points="75.87,-105.15 66.67,-110.4 77.13,-112.04 75.87,-105.15"/>
</g>
<!-- Node6 -->
<g id="node6" class="node">
<title>Node6</title>
<g id="a_node6"><a xlink:href="structJSUPtrLink.html" target="_top" xlink:title=" ">
<polygon fill="white" stroke="#666666" points="248,-130 180,-130 180,-111 248,-111 248,-130"/>
<text text-anchor="middle" x="214" y="-118" font-family="Helvetica,sans-Serif" font-size="10.00">JSUPtrLink</text>
</a>
</g>
</g>
<!-- Node5&#45;&gt;Node6 -->
<g id="edge6" class="edge">
<title>Node5&#45;&gt;Node6</title>
<path fill="none" stroke="#9a32cd" stroke-dasharray="5,2" d="M76.77,-115.58C78.88,-115.55 80.96,-115.52 83,-115.5 98.11,-115.35 101.89,-115.11 117,-115.5 137.85,-116.04 161.23,-117.25 179.7,-118.34"/>
<polygon fill="#9a32cd" stroke="#9a32cd" points="76.91,-112.07 66.97,-115.74 77.02,-119.07 76.91,-112.07"/>
<text text-anchor="middle" x="100" y="-118.5" font-family="Helvetica,sans-Serif" font-size="10.00"> mList</text>
</g>
<!-- Node6&#45;&gt;Node5 -->
<g id="edge5" class="edge">
<title>Node6&#45;&gt;Node5</title>
<path fill="none" stroke="#9a32cd" stroke-dasharray="5,2" d="M168.13,-127.23C143.03,-130.01 111.2,-131.87 83,-128.5 77.21,-127.81 71.11,-126.67 65.25,-125.37"/>
<polygon fill="#9a32cd" stroke="#9a32cd" points="168.49,-130.72 178,-126.05 167.66,-123.77 168.49,-130.72"/>
<text text-anchor="middle" x="100" y="-143.5" font-family="Helvetica,sans-Serif" font-size="10.00"> mHead</text>
<text text-anchor="middle" x="100" y="-132.5" font-family="Helvetica,sans-Serif" font-size="10.00">mTail</text>
</g>
<!-- Node6&#45;&gt;Node6 -->
<g id="edge7" class="edge">
<title>Node6&#45;&gt;Node6</title>
<path fill="none" stroke="#9a32cd" stroke-dasharray="5,2" d="M193.77,-141.43C196.3,-145.29 203.04,-148 214,-148 234.04,-148 239.99,-138.94 231.85,-130.37"/>
<polygon fill="#9a32cd" stroke="#9a32cd" points="197.15,-142.36 195.83,-131.85 190.3,-140.88 197.15,-142.36"/>
<text text-anchor="middle" x="214" y="-162" font-family="Helvetica,sans-Serif" font-size="10.00"> mNext</text>
<text text-anchor="middle" x="214" y="-151" font-family="Helvetica,sans-Serif" font-size="10.00">mPrev</text>
</g>
<!-- Node7 -->
<g id="node7" class="node">
<title>Node7</title>
<g id="a_node7"><a xlink:href="structZ2SoundStarter.html" target="_top" xlink:title=" ">
<polygon fill="white" stroke="#666666" points="487.5,-226 402.5,-226 402.5,-207 487.5,-207 487.5,-226"/>
<text text-anchor="middle" x="445" y="-214" font-family="Helvetica,sans-Serif" font-size="10.00">Z2SoundStarter</text>
</a>
</g>
</g>
<!-- Node7&#45;&gt;Node2 -->
<g id="edge8" class="edge">
<title>Node7&#45;&gt;Node2</title>
<path fill="none" stroke="#9a32cd" stroke-dasharray="5,2" d="M492.18,-203.04C499.58,-200.46 507.07,-197.59 514,-194.5 568.82,-170.03 628.95,-131.42 655.96,-113.39"/>
<polygon fill="#9a32cd" stroke="#9a32cd" points="491.3,-199.64 482.92,-206.12 493.51,-206.28 491.3,-199.64"/>
<text text-anchor="middle" x="566" y="-186.5" font-family="Helvetica,sans-Serif" font-size="10.00"> mSoundStarter</text>
</g>
<!-- Node10 -->
<g id="node10" class="node">
<title>Node10</title>
<g id="a_node10"><a xlink:href="classJASGlobalInstance.html" target="_top" xlink:title=" ">
<polygon fill="white" stroke="#666666" points="725,-232.5 618,-232.5 618,-202.5 725,-202.5 725,-232.5"/>
<text text-anchor="start" x="626" y="-220.5" font-family="Helvetica,sans-Serif" font-size="10.00">JASGlobalInstance&lt;</text>
<text text-anchor="middle" x="671.5" y="-209.5" font-family="Helvetica,sans-Serif" font-size="10.00"> Z2SoundStarter &gt;</text>
</a>
</g>
</g>
<!-- Node7&#45;&gt;Node10 -->
<g id="edge13" class="edge">
<title>Node7&#45;&gt;Node10</title>
<path fill="none" stroke="#9a32cd" stroke-dasharray="5,2" d="M499.16,-216.74C534.94,-216.9 581.94,-217.11 617.65,-217.26"/>
<polygon fill="#9a32cd" stroke="#9a32cd" points="499.49,-213.24 489.48,-216.69 499.46,-220.24 499.49,-213.24"/>
<text text-anchor="middle" x="566" y="-219.5" font-family="Helvetica,sans-Serif" font-size="10.00"> sInstance</text>
</g>
<!-- Node8 -->
<g id="node8" class="node">
<title>Node8</title>
<g id="a_node8"><a xlink:href="structJAISoundStarter.html" target="_top" xlink:title=" ">
<polygon fill="white" stroke="#666666" points="258.5,-207 169.5,-207 169.5,-188 258.5,-188 258.5,-207"/>
<text text-anchor="middle" x="214" y="-195" font-family="Helvetica,sans-Serif" font-size="10.00">JAISoundStarter</text>
</a>
</g>
</g>
<!-- Node8&#45;&gt;Node7 -->
<g id="edge9" class="edge">
<title>Node8&#45;&gt;Node7</title>
<path fill="none" stroke="#63b8ff" d="M270.39,-202.12C283.69,-203.23 297.85,-204.41 311,-205.5 341.48,-208.03 375.89,-210.88 402.07,-213.04"/>
<polygon fill="#63b8ff" stroke="#63b8ff" points="270.73,-198.64 260.48,-201.3 270.15,-205.61 270.73,-198.64"/>
</g>
<!-- Node9 -->
<g id="node9" class="node">
<title>Node9</title>
<g id="a_node9"><a xlink:href="classJASGlobalInstance.html" target="_top" xlink:title=" ">
<polygon fill="white" stroke="#666666" points="498.5,-185.5 391.5,-185.5 391.5,-155.5 498.5,-155.5 498.5,-185.5"/>
<text text-anchor="start" x="399.5" y="-173.5" font-family="Helvetica,sans-Serif" font-size="10.00">JASGlobalInstance&lt;</text>
<text text-anchor="middle" x="445" y="-162.5" font-family="Helvetica,sans-Serif" font-size="10.00"> JAISoundStarter &gt;</text>
</a>
</g>
</g>
<!-- Node8&#45;&gt;Node9 -->
<g id="edge11" class="edge">
<title>Node8&#45;&gt;Node9</title>
<path fill="none" stroke="#9a32cd" stroke-dasharray="5,2" d="M269.89,-191.03C306.62,-186.7 354.69,-181.03 391.01,-176.75"/>
<polygon fill="#9a32cd" stroke="#9a32cd" points="269.91,-187.5 260.39,-192.15 270.73,-194.45 269.91,-187.5"/>
<text text-anchor="middle" x="334.5" y="-188.5" font-family="Helvetica,sans-Serif" font-size="10.00"> sInstance</text>
</g>
<!-- Node9&#45;&gt;Node8 -->
<g id="edge10" class="edge">
<title>Node9&#45;&gt;Node8</title>
<path fill="none" stroke="#63b8ff" d="M380.08,-169.31C358.08,-169.73 333.37,-171.11 311,-174.5 302.79,-175.74 301.05,-177.45 293,-179.5 281.96,-182.31 269.98,-185.16 258.81,-187.75"/>
<polygon fill="#63b8ff" stroke="#63b8ff" points="379.84,-172.82 389.79,-169.2 379.75,-165.82 379.84,-172.82"/>
</g>
<!-- Node10&#45;&gt;Node7 -->
<g id="edge12" class="edge">
<title>Node10&#45;&gt;Node7</title>
<path fill="none" stroke="#63b8ff" d="M606.29,-215.6C604.17,-215.56 602.07,-215.53 600,-215.5 562.04,-214.96 518.81,-215.33 487.83,-215.76"/>
<polygon fill="#63b8ff" stroke="#63b8ff" points="606.18,-219.1 616.25,-215.81 606.32,-212.1 606.18,-219.1"/>
</g>
<!-- Node11 -->
<g id="node11" class="node">
<title>Node11</title>
<g id="a_node11"><a xlink:href="structJGeometry_1_1TVec3_3_01f32_01_4.html" target="_top" xlink:title=" ">
<polygon fill="white" stroke="#666666" points="508.5,-130 381.5,-130 381.5,-111 508.5,-111 508.5,-130"/>
<text text-anchor="middle" x="445" y="-118" font-family="Helvetica,sans-Serif" font-size="10.00">JGeometry::TVec3&lt; f32 &gt;</text>
</a>
</g>
</g>
<!-- Node11&#45;&gt;Node2 -->
<g id="edge14" class="edge">
<title>Node11&#45;&gt;Node2</title>
<path fill="none" stroke="#9a32cd" stroke-dasharray="5,2" d="M520.31,-114.87C554.83,-112.26 594.78,-109.23 624.79,-106.96"/>
<polygon fill="#9a32cd" stroke="#9a32cd" points="520.05,-111.38 510.34,-115.63 520.58,-118.36 520.05,-111.38"/>
<text text-anchor="middle" x="566" y="-116.5" font-family="Helvetica,sans-Serif" font-size="10.00"> mSoundPos</text>
</g>
<!-- Node12 -->
<g id="node12" class="node">
<title>Node12</title>
<g id="a_node12"><a xlink:href="classJAUSoundAnimation.html" target="_top" xlink:title=" ">
<polygon fill="white" stroke="#666666" points="725,-56 618,-56 618,-37 725,-37 725,-56"/>
<text text-anchor="middle" x="671.5" y="-44" font-family="Helvetica,sans-Serif" font-size="10.00">JAUSoundAnimation</text>
</a>
</g>
</g>
<!-- Node12&#45;&gt;Node1 -->
<g id="edge15" class="edge">
<title>Node12&#45;&gt;Node1</title>
<path fill="none" stroke="#9a32cd" stroke-dasharray="5,2" d="M736.73,-50.07C757.86,-51.48 781.46,-53.29 803,-55.5 808.75,-56.09 814.77,-56.79 820.74,-57.54"/>
<polygon fill="#9a32cd" stroke="#9a32cd" points="736.99,-46.58 726.78,-49.43 736.54,-53.57 736.99,-46.58"/>
<text text-anchor="middle" x="773" y="-58.5" font-family="Helvetica,sans-Serif" font-size="10.00"> mpAnimation</text>
</g>
<!-- Node13 -->
<g id="node13" class="node">
<title>Node13</title>
<g id="a_node13"><a xlink:href="classJAUSoundAnimationControl.html" target="_top" xlink:title=" ">
<polygon fill="white" stroke="#666666" points="514,-19 376,-19 376,0 514,0 514,-19"/>
<text text-anchor="middle" x="445" y="-7" font-family="Helvetica,sans-Serif" font-size="10.00">JAUSoundAnimationControl</text>
</a>
</g>
</g>
<!-- Node13&#45;&gt;Node12 -->
<g id="edge16" class="edge">
<title>Node13&#45;&gt;Node12</title>
<path fill="none" stroke="#9a32cd" stroke-dasharray="5,2" d="M525.58,-19.82C549.55,-23.21 575.9,-27.22 600,-31.5 608.38,-32.99 617.28,-34.74 625.84,-36.52"/>
<polygon fill="#9a32cd" stroke="#9a32cd" points="526.28,-16.38 515.89,-18.47 525.31,-23.32 526.28,-16.38"/>
<text text-anchor="middle" x="566" y="-34.5" font-family="Helvetica,sans-Serif" font-size="10.00"> mControl</text>
</g>
<!-- Node14 -->
<g id="node14" class="node">
<title>Node14</title>
<g id="a_node14"><a xlink:href="classJAUSoundAnimationSound.html" target="_top" xlink:title=" ">
<polygon fill="white" stroke="#666666" points="512.5,-56 377.5,-56 377.5,-37 512.5,-37 512.5,-56"/>
<text text-anchor="middle" x="445" y="-44" font-family="Helvetica,sans-Serif" font-size="10.00">JAUSoundAnimationSound</text>
</a>
</g>
</g>
<!-- Node14&#45;&gt;Node12 -->
<g id="edge17" class="edge">
<title>Node14&#45;&gt;Node12</title>
<path fill="none" stroke="#9a32cd" stroke-dasharray="5,2" d="M523.95,-46.5C554.87,-46.5 589.63,-46.5 617.53,-46.5"/>
<polygon fill="#9a32cd" stroke="#9a32cd" points="524.26,-43 514.26,-46.5 524.26,-50 524.26,-43"/>
<text text-anchor="middle" x="566" y="-49.5" font-family="Helvetica,sans-Serif" font-size="10.00"> mSounds</text>
</g>
<!-- Node15 -->
<g id="node15" class="node">
<title>Node15</title>
<g id="a_node15"><a xlink:href="structJAISoundID.html" target="_top" xlink:title=" ">
<polygon fill="white" stroke="#666666" points="248.5,-56 179.5,-56 179.5,-37 248.5,-37 248.5,-56"/>
<text text-anchor="middle" x="214" y="-44" font-family="Helvetica,sans-Serif" font-size="10.00">JAISoundID</text>
</a>
</g>
</g>
<!-- Node15&#45;&gt;Node14 -->
<g id="edge18" class="edge">
<title>Node15&#45;&gt;Node14</title>
<path fill="none" stroke="#9a32cd" stroke-dasharray="5,2" d="M260.06,-46.5C293.51,-46.5 339.67,-46.5 377.37,-46.5"/>
<polygon fill="#9a32cd" stroke="#9a32cd" points="260.3,-43 250.3,-46.5 260.3,-50 260.3,-43"/>
<text text-anchor="middle" x="334.5" y="-49.5" font-family="Helvetica,sans-Serif" font-size="10.00"> mSoundId</text>
</g>
</g>
</svg>
        <g id="navigator" transform="translate(0 0)" fill="#404254">
                <rect fill="#f2f5e9" fill-opacity="0.5" stroke="#606060" stroke-width=".5" x="0" y="0" width="60" height="60"/>
                <use id="zoomplus" xlink:href="#zoomPlus" x="17" y="9" onmousedown="handleZoom(evt,'in')"/>
                <use id="zoomminus" xlink:href="#zoomMin" x="42" y="9" onmousedown="handleZoom(evt,'out')"/>
                <use id="reset" xlink:href="#resetDef" x="30" y="36" onmousedown="handleReset()"/>
                <g id="arrowUp" xlink:href="#dirArrow" transform="translate(30 24)" onmousedown="handlePan(0,-1)">
                  <use xlink:href="#rim" fill="#404040">
                        <set attributeName="fill" to="#808080" begin="arrowUp.mouseover" end="arrowUp.mouseout"/>
                  </use>
                  <path fill="none" stroke="white" stroke-width="1.5" d="M0,-3.0v7 M-2.5,-0.5L0,-3.0L2.5,-0.5"/>
                </g>
                <g id="arrowRight" xlink:href="#dirArrow" transform="rotate(90) translate(36 -43)" onmousedown="handlePan(1,0)">
                  <use xlink:href="#rim" fill="#404040">
                        <set attributeName="fill" to="#808080" begin="arrowRight.mouseover" end="arrowRight.mouseout"/>
                  </use>
                  <path fill="none" stroke="white" stroke-width="1.5" d="M0,-3.0v7 M-2.5,-0.5L0,-3.0L2.5,-0.5"/>
                </g>
                <g id="arrowDown" xlink:href="#dirArrow" transform="rotate(180) translate(-30 -48)" onmousedown="handlePan(0,1)">
                  <use xlink:href="#rim" fill="#404040">
                        <set attributeName="fill" to="#808080" begin="arrowDown.mouseover" end="arrowDown.mouseout"/>
                  </use>
                  <path fill="none" stroke="white" stroke-width="1.5" d="M0,-3.0v7 M-2.5,-0.5L0,-3.0L2.5,-0.5"/>
                </g>
                <g id="arrowLeft" xlink:href="#dirArrow" transform="rotate(270) translate(-36 17)" onmousedown="handlePan(-1,0)">
                  <use xlink:href="#rim" fill="#404040">
                        <set attributeName="fill" to="#808080" begin="arrowLeft.mouseover" end="arrowLeft.mouseout"/>
                  </use>
                  <path fill="none" stroke="white" stroke-width="1.5" d="M0,-3.0v7 M-2.5,-0.5L0,-3.0L2.5,-0.5"/>
                </g>
        </g>
        <svg viewBox="0 0 15 15" width="100%" height="30px" preserveAspectRatio="xMaxYMin meet">
         <g id="arrow_out" transform="scale(0.3 0.3)">
          <a xlink:href="classZ2SoundObjAnime__coll__graph_org.svg" target="_base">
           <rect id="button" ry="5" rx="5" y="6" x="6" height="38" width="38"
                fill="#f2f5e9" fill-opacity="0.5" stroke="#606060" stroke-width="1.0"/>
           <path id="arrow"
             d="M 11.500037,31.436501 C 11.940474,20.09759 22.043105,11.32322 32.158766,21.979434 L 37.068811,17.246167 C 37.068811,17.246167 37.088388,32 37.088388,32 L 22.160133,31.978069 C 22.160133,31.978069 26.997745,27.140456 26.997745,27.140456 C 18.528582,18.264221 13.291696,25.230495 11.500037,31.436501 z"
             style="fill:#404040;"/>
          </a>
         </g>
        </svg>
</svg>
