<?xml version="1.0" encoding="UTF-8" standalone="no"?>
<!DOCTYPE svg PUBLIC "-//W3C//DTD SVG 1.1//EN"
 "http://www.w3.org/Graphics/SVG/1.1/DTD/svg11.dtd">
<!-- Generated by graphviz version 7.0.5 (20221223.1930)
 -->
<!-- Title: J3DMtxCalcNoAnmBase Pages: 1 -->
<svg width="831pt" height="138pt"
 viewBox="0.00 0.00 831.00 138.00" xmlns="http://www.w3.org/2000/svg" xmlns:xlink="http://www.w3.org/1999/xlink">
<g id="graph0" class="graph" transform="scale(1 1) rotate(0) translate(4 134)">
<title>J3DMtxCalcNoAnmBase</title>
<!-- Node1 -->
<g id="node1" class="node">
<title>Node1</title>
<g id="a_node1"><a xlink:title=" ">
<polygon fill="#999999" stroke="#666666" points="230,-73 105,-73 105,-54 230,-54 230,-73"/>
<text text-anchor="middle" x="167.5" y="-61" font-family="Helvetica,sans-Serif" font-size="10.00">J3DMtxCalcNoAnmBase</text>
</a>
</g>
</g>
<!-- Node3 -->
<g id="node3" class="node">
<title>Node3</title>
<g id="a_node3"><a xlink:href="classJ3DMtxCalcNoAnm.html" target="_top" xlink:title=" ">
<polygon fill="white" stroke="#666666" points="438,-108 266,-108 266,-67 438,-67 438,-108"/>
<text text-anchor="start" x="274" y="-96" font-family="Helvetica,sans-Serif" font-size="10.00">J3DMtxCalcNoAnm&lt; J3DMtxCalc</text>
<text text-anchor="start" x="274" y="-85" font-family="Helvetica,sans-Serif" font-size="10.00">CalcTransformMaya, J3DMtxCalcJ3</text>
<text text-anchor="middle" x="352" y="-74" font-family="Helvetica,sans-Serif" font-size="10.00">DSysInitMaya &gt;</text>
</a>
</g>
</g>
<!-- Node1&#45;&gt;Node3 -->
<g id="edge2" class="edge">
<title>Node1&#45;&gt;Node3</title>
<path fill="none" stroke="#63b8ff" d="M241.68,-73.12C249.56,-74.16 257.63,-75.22 265.64,-76.28"/>
<polygon fill="#63b8ff" stroke="#63b8ff" points="242.16,-69.66 231.79,-71.82 241.25,-76.6 242.16,-69.66"/>
</g>
<!-- Node10 -->
<g id="node10" class="node">
<title>Node10</title>
<g id="a_node10"><a xlink:href="classJ3DMtxCalcNoAnm.html" target="_top" xlink:title=" ">
<polygon fill="white" stroke="#666666" points="420.5,-49 283.5,-49 283.5,-30 420.5,-30 420.5,-49"/>
<text text-anchor="middle" x="352" y="-37" font-family="Helvetica,sans-Serif" font-size="10.00">J3DMtxCalcNoAnm&lt; A, B &gt;</text>
</a>
</g>
</g>
<!-- Node1&#45;&gt;Node10 -->
<g id="edge9" class="edge">
<title>Node1&#45;&gt;Node10</title>
<path fill="none" stroke="#63b8ff" d="M241.61,-53.89C255.27,-52.09 269.51,-50.22 283.01,-48.44"/>
<polygon fill="#63b8ff" stroke="#63b8ff" points="241.25,-50.4 231.79,-55.18 242.16,-57.34 241.25,-50.4"/>
</g>
<!-- Node2 -->
<g id="node2" class="node">
<title>Node2</title>
<g id="a_node2"><a xlink:href="classJ3DMtxCalc.html" target="_top" xlink:title=" ">
<polygon fill="white" stroke="#666666" points="69,-73 0,-73 0,-54 69,-54 69,-73"/>
<text text-anchor="middle" x="34.5" y="-61" font-family="Helvetica,sans-Serif" font-size="10.00">J3DMtxCalc</text>
</a>
</g>
</g>
<!-- Node2&#45;&gt;Node1 -->
<g id="edge1" class="edge">
<title>Node2&#45;&gt;Node1</title>
<path fill="none" stroke="#63b8ff" d="M80.62,-63.5C88.37,-63.5 96.55,-63.5 104.65,-63.5"/>
<polygon fill="#63b8ff" stroke="#63b8ff" points="80.75,-60 70.75,-63.5 80.75,-67 80.75,-60"/>
</g>
<!-- Node4 -->
<g id="node4" class="node">
<title>Node4</title>
<g id="a_node4"><a xlink:href="structmDoExt__MtxCalcAnmBlendTbl.html" target="_top" xlink:title=" ">
<polygon fill="white" stroke="#666666" points="623,-120 474,-120 474,-101 623,-101 623,-120"/>
<text text-anchor="middle" x="548.5" y="-108" font-family="Helvetica,sans-Serif" font-size="10.00">mDoExt_MtxCalcAnmBlendTbl</text>
</a>
</g>
</g>
<!-- Node3&#45;&gt;Node4 -->
<g id="edge3" class="edge">
<title>Node3&#45;&gt;Node4</title>
<path fill="none" stroke="#63b8ff" d="M449.64,-98.93C457.67,-99.88 465.71,-100.83 473.53,-101.75"/>
<polygon fill="#63b8ff" stroke="#63b8ff" points="450.16,-95.46 439.81,-97.77 449.33,-102.42 450.16,-95.46"/>
</g>
<!-- Node6 -->
<g id="node6" class="node">
<title>Node6</title>
<g id="a_node6"><a xlink:href="classmDoExt__morf__c.html" target="_top" xlink:title=" ">
<polygon fill="white" stroke="#666666" points="591.5,-74 505.5,-74 505.5,-55 591.5,-55 591.5,-74"/>
<text text-anchor="middle" x="548.5" y="-62" font-family="Helvetica,sans-Serif" font-size="10.00">mDoExt_morf_c</text>
</a>
</g>
</g>
<!-- Node3&#45;&gt;Node6 -->
<g id="edge5" class="edge">
<title>Node3&#45;&gt;Node6</title>
<path fill="none" stroke="#63b8ff" d="M449.49,-76.09C469.08,-73.77 488.71,-71.45 505.21,-69.5"/>
<polygon fill="#63b8ff" stroke="#63b8ff" points="449.33,-72.58 439.81,-77.23 450.16,-79.54 449.33,-72.58"/>
</g>
<!-- Node5 -->
<g id="node5" class="node">
<title>Node5</title>
<g id="a_node5"><a xlink:href="structmDoExt__MtxCalcAnmBlendTblOld.html" target="_top" xlink:title=" ">
<polygon fill="white" stroke="#666666" points="823,-130 659,-130 659,-111 823,-111 823,-130"/>
<text text-anchor="middle" x="741" y="-118" font-family="Helvetica,sans-Serif" font-size="10.00">mDoExt_MtxCalcAnmBlendTblOld</text>
</a>
</g>
</g>
<!-- Node4&#45;&gt;Node5 -->
<g id="edge4" class="edge">
<title>Node4&#45;&gt;Node5</title>
<path fill="none" stroke="#63b8ff" d="M634.87,-114.98C642.74,-115.39 650.7,-115.81 658.53,-116.22"/>
<polygon fill="#63b8ff" stroke="#63b8ff" points="635.11,-111.49 624.94,-114.46 634.74,-118.48 635.11,-111.49"/>
</g>
<!-- Node7 -->
<g id="node7" class="node">
<title>Node7</title>
<g id="a_node7"><a xlink:href="classmDoExt__McaMorf.html" target="_top" xlink:title=" ">
<polygon fill="white" stroke="#666666" points="788,-93 694,-93 694,-74 788,-74 788,-93"/>
<text text-anchor="middle" x="741" y="-81" font-family="Helvetica,sans-Serif" font-size="10.00">mDoExt_McaMorf</text>
</a>
</g>
</g>
<!-- Node6&#45;&gt;Node7 -->
<g id="edge6" class="edge">
<title>Node6&#45;&gt;Node7</title>
<path fill="none" stroke="#63b8ff" d="M603.15,-69.85C631.6,-72.69 666.21,-76.14 693.5,-78.86"/>
<polygon fill="#63b8ff" stroke="#63b8ff" points="603.58,-66.38 593.28,-68.87 602.89,-73.34 603.58,-66.38"/>
</g>
<!-- Node8 -->
<g id="node8" class="node">
<title>Node8</title>
<g id="a_node8"><a xlink:href="classmDoExt__McaMorf2.html" target="_top" xlink:title=" ">
<polygon fill="white" stroke="#666666" points="790.5,-56 691.5,-56 691.5,-37 790.5,-37 790.5,-56"/>
<text text-anchor="middle" x="741" y="-44" font-family="Helvetica,sans-Serif" font-size="10.00">mDoExt_McaMorf2</text>
</a>
</g>
</g>
<!-- Node6&#45;&gt;Node8 -->
<g id="edge7" class="edge">
<title>Node6&#45;&gt;Node8</title>
<path fill="none" stroke="#63b8ff" d="M603.22,-59.42C630.83,-56.82 664.23,-53.66 691.11,-51.12"/>
<polygon fill="#63b8ff" stroke="#63b8ff" points="602.91,-55.94 593.28,-60.36 603.57,-62.91 602.91,-55.94"/>
</g>
<!-- Node9 -->
<g id="node9" class="node">
<title>Node9</title>
<g id="a_node9"><a xlink:href="classmDoExt__McaMorfSO.html" target="_top" xlink:title=" ">
<polygon fill="white" stroke="#666666" points="795,-19 687,-19 687,0 795,0 795,-19"/>
<text text-anchor="middle" x="741" y="-7" font-family="Helvetica,sans-Serif" font-size="10.00">mDoExt_McaMorfSO</text>
</a>
</g>
</g>
<!-- Node6&#45;&gt;Node9 -->
<g id="edge8" class="edge">
<title>Node6&#45;&gt;Node9</title>
<path fill="none" stroke="#63b8ff" d="M586.97,-50.73C607.97,-43.29 634.75,-34.27 659,-27.5 669.41,-24.59 680.67,-21.85 691.39,-19.41"/>
<polygon fill="#63b8ff" stroke="#63b8ff" points="585.91,-47.39 577.67,-54.05 588.27,-53.98 585.91,-47.39"/>
</g>
</g>
</svg>
