<?xml version="1.0" encoding="UTF-8" standalone="no"?>
<!DOCTYPE svg PUBLIC "-//W3C//DTD SVG 1.1//EN"
 "http://www.w3.org/Graphics/SVG/1.1/DTD/svg11.dtd">
<!-- Generated by graphviz version 7.0.5 (20221223.1930)
 -->
<!-- Title: daAlinkHIO_wlAtDown_c0 Pages: 1 -->
<svg width="140pt" height="225pt"
 viewBox="0.00 0.00 140.00 225.00" xmlns="http://www.w3.org/2000/svg" xmlns:xlink="http://www.w3.org/1999/xlink">
<g id="graph0" class="graph" transform="scale(1 1) rotate(0) translate(4 221)">
<title>daAlinkHIO_wlAtDown_c0</title>
<!-- Node1 -->
<g id="node1" class="node">
<title>Node1</title>
<g id="a_node1"><a xlink:title=" ">
<polygon fill="#999999" stroke="#666666" points="132,-19 0,-19 0,0 132,0 132,-19"/>
<text text-anchor="middle" x="66" y="-7" font-family="Helvetica,sans-Serif" font-size="10.00">daAlinkHIO_wlAtDown_c0</text>
</a>
</g>
</g>
<!-- Node2 -->
<g id="node2" class="node">
<title>Node2</title>
<g id="a_node2"><a xlink:href="classdaAlinkHIO__wlAtDown__c1.html" target="_top" xlink:title=" ">
<polygon fill="white" stroke="#666666" points="132,-85 0,-85 0,-66 132,-66 132,-85"/>
<text text-anchor="middle" x="66" y="-73" font-family="Helvetica,sans-Serif" font-size="10.00">daAlinkHIO_wlAtDown_c1</text>
</a>
</g>
</g>
<!-- Node2&#45;&gt;Node1 -->
<g id="edge1" class="edge">
<title>Node2&#45;&gt;Node1</title>
<path fill="none" stroke="#9a32cd" stroke-dasharray="5,2" d="M66,-54.18C66,-42.44 66,-28.27 66,-19.32"/>
<polygon fill="#9a32cd" stroke="#9a32cd" points="62.5,-54.09 66,-64.09 69.5,-54.09 62.5,-54.09"/>
<text text-anchor="middle" x="71.5" y="-40" font-family="Helvetica,sans-Serif" font-size="10.00"> m</text>
</g>
<!-- Node3 -->
<g id="node3" class="node">
<title>Node3</title>
<g id="a_node3"><a xlink:href="structdaAlinkHIO__anm__c.html" target="_top" xlink:title=" ">
<polygon fill="white" stroke="#666666" points="116.5,-217 15.5,-217 15.5,-198 116.5,-198 116.5,-217"/>
<text text-anchor="middle" x="66" y="-205" font-family="Helvetica,sans-Serif" font-size="10.00">daAlinkHIO_anm_c</text>
</a>
</g>
</g>
<!-- Node3&#45;&gt;Node2 -->
<g id="edge2" class="edge">
<title>Node3&#45;&gt;Node2</title>
<path fill="none" stroke="#9a32cd" stroke-dasharray="5,2" d="M66,-186.14C66,-157.4 66,-106.15 66,-85.5"/>
<polygon fill="#9a32cd" stroke="#9a32cd" points="62.5,-186.05 66,-196.05 69.5,-186.05 62.5,-186.05"/>
<text text-anchor="middle" x="88.5" y="-172" font-family="Helvetica,sans-Serif" font-size="10.00"> field_0x0</text>
<text text-anchor="middle" x="88.5" y="-161" font-family="Helvetica,sans-Serif" font-size="10.00">field_0x14</text>
<text text-anchor="middle" x="88.5" y="-150" font-family="Helvetica,sans-Serif" font-size="10.00">field_0x28</text>
<text text-anchor="middle" x="88.5" y="-139" font-family="Helvetica,sans-Serif" font-size="10.00">field_0x3C</text>
<text text-anchor="middle" x="88.5" y="-128" font-family="Helvetica,sans-Serif" font-size="10.00">field_0x50</text>
<text text-anchor="middle" x="88.5" y="-117" font-family="Helvetica,sans-Serif" font-size="10.00">field_0x64</text>
<text text-anchor="middle" x="88.5" y="-106" font-family="Helvetica,sans-Serif" font-size="10.00">field_0x78</text>
</g>
</g>
</svg>
