<?xml version="1.0" encoding="UTF-8" standalone="no"?>
<!DOCTYPE svg PUBLIC "-//W3C//DTD SVG 1.1//EN"
 "http://www.w3.org/Graphics/SVG/1.1/DTD/svg11.dtd">
<!-- Generated by graphviz version 7.0.5 (20221223.1930)
 -->
<!-- Title: dCamSetup_c Pages: 1 -->
<svg width="189pt" height="159pt"
 viewBox="0.00 0.00 189.00 159.00" xmlns="http://www.w3.org/2000/svg" xmlns:xlink="http://www.w3.org/1999/xlink">
<g id="graph0" class="graph" transform="scale(1 1) rotate(0) translate(4 155)">
<title>dCamSetup_c</title>
<!-- Node1 -->
<g id="node1" class="node">
<title>Node1</title>
<g id="a_node1"><a xlink:title=" ">
<polygon fill="#999999" stroke="#666666" points="107,-19 29,-19 29,0 107,0 107,-19"/>
<text text-anchor="middle" x="68" y="-7" font-family="Helvetica,sans-Serif" font-size="10.00">dCamSetup_c</text>
</a>
</g>
</g>
<!-- Node2 -->
<g id="node2" class="node">
<title>Node2</title>
<g id="a_node2"><a xlink:href="classdCstick__c.html" target="_top" xlink:title=" ">
<polygon fill="white" stroke="#666666" points="60,-85 0,-85 0,-66 60,-66 60,-85"/>
<text text-anchor="middle" x="30" y="-73" font-family="Helvetica,sans-Serif" font-size="10.00">dCstick_c</text>
</a>
</g>
</g>
<!-- Node2&#45;&gt;Node1 -->
<g id="edge1" class="edge">
<title>Node2&#45;&gt;Node1</title>
<path fill="none" stroke="#9a32cd" stroke-dasharray="5,2" d="M35.66,-55.13C37.82,-49.1 40.61,-42.57 44,-37 48,-30.42 53.76,-24 58.63,-19.13"/>
<polygon fill="#9a32cd" stroke="#9a32cd" points="32.44,-53.71 32.71,-64.3 39.1,-55.85 32.44,-53.71"/>
<text text-anchor="middle" x="64" y="-40" font-family="Helvetica,sans-Serif" font-size="10.00"> mCStick</text>
</g>
<!-- Node3 -->
<g id="node3" class="node">
<title>Node3</title>
<g id="a_node3"><a xlink:href="classdCamBGChk__c.html" target="_top" xlink:title=" ">
<polygon fill="white" stroke="#666666" points="162,-85 78,-85 78,-66 162,-66 162,-85"/>
<text text-anchor="middle" x="120" y="-73" font-family="Helvetica,sans-Serif" font-size="10.00">dCamBGChk_c</text>
</a>
</g>
</g>
<!-- Node3&#45;&gt;Node1 -->
<g id="edge2" class="edge">
<title>Node3&#45;&gt;Node1</title>
<path fill="none" stroke="#9a32cd" stroke-dasharray="5,2" d="M105.59,-56.76C95.69,-44.58 82.98,-28.94 75.17,-19.32"/>
<polygon fill="#9a32cd" stroke="#9a32cd" points="102.79,-58.87 111.82,-64.43 108.23,-54.46 102.79,-58.87"/>
<text text-anchor="middle" x="118.5" y="-40" font-family="Helvetica,sans-Serif" font-size="10.00"> mBGChk</text>
</g>
<!-- Node4 -->
<g id="node4" class="node">
<title>Node4</title>
<g id="a_node4"><a xlink:href="structdCamBGChk__c_1_1ChkInfo.html" target="_top" xlink:title=" ">
<polygon fill="white" stroke="#666666" points="181,-151 59,-151 59,-132 181,-132 181,-151"/>
<text text-anchor="middle" x="120" y="-139" font-family="Helvetica,sans-Serif" font-size="10.00">dCamBGChk_c::ChkInfo</text>
</a>
</g>
</g>
<!-- Node4&#45;&gt;Node3 -->
<g id="edge3" class="edge">
<title>Node4&#45;&gt;Node3</title>
<path fill="none" stroke="#9a32cd" stroke-dasharray="5,2" d="M120,-120.18C120,-108.44 120,-94.27 120,-85.32"/>
<polygon fill="#9a32cd" stroke="#9a32cd" points="116.5,-120.09 120,-130.09 123.5,-120.09 116.5,-120.09"/>
<text text-anchor="middle" x="142.5" y="-106" font-family="Helvetica,sans-Serif" font-size="10.00"> mChkInfo</text>
</g>
</g>
</svg>
