<?xml version="1.0" encoding="UTF-8" standalone="no"?>
<!DOCTYPE svg PUBLIC "-//W3C//DTD SVG 1.1//EN"
 "http://www.w3.org/Graphics/SVG/1.1/DTD/svg11.dtd">
<!-- Generated by graphviz version 7.0.5 (20221223.1930)
 -->
<!-- Title: dMeter_drawHIO_c Pages: 1 -->
<!--zoomable 1044 -->
<svg id="main" version="1.1" xmlns="http://www.w3.org/2000/svg" xmlns:xlink="http://www.w3.org/1999/xlink" xml:space="preserve" onload="init(evt)">
<style type="text/css"><![CDATA[
.edge:hover path { stroke: red; }
.edge:hover polygon { stroke: red; fill: red; }
]]></style>
<script type="text/javascript"><![CDATA[
var edges = document.getElementsByTagName('g');
if (edges && edges.length) {
  for (var i=0;i<edges.length;i++) {
    if (edges[i].id.substr(0,4)=='edge') {
      edges[i].setAttribute('class','edge');
    }
  }
}
]]></script>
        <defs>
                <circle id="rim" cx="0" cy="0" r="7"/>
                <circle id="rim2" cx="0" cy="0" r="3.5"/>
                <g id="zoomPlus">
                        <use xlink:href="#rim" fill="#404040">
                                <set attributeName="fill" to="#808080" begin="zoomplus.mouseover" end="zoomplus.mouseout"/>
                        </use>
                        <path d="M-4,0h8M0,-4v8" fill="none" stroke="white" stroke-width="1.5" pointer-events="none"/>
                </g>
                <g id="zoomMin">
                        <use xlink:href="#rim" fill="#404040">
                                <set attributeName="fill" to="#808080" begin="zoomminus.mouseover" end="zoomminus.mouseout"/>
                        </use>
                        <path d="M-4,0h8" fill="none" stroke="white" stroke-width="1.5" pointer-events="none"/>
                </g>
                <g id="dirArrow">
                        <path fill="none" stroke="white" stroke-width="1.5" d="M0,-3.0v7 M-2.5,-0.5L0,-3.0L2.5,-0.5"/>
                </g>
               <g id="resetDef">
                       <use xlink:href="#rim2" fill="#404040">
                               <set attributeName="fill" to="#808080" begin="reset.mouseover" end="reset.mouseout"/>
                       </use>
               </g>
        </defs>

<script type="text/javascript">
var viewWidth = 745;
var viewHeight = 1044;
var sectionId = 'dynsection-0';
</script>
<script xlink:href="svgpan.js"/>
<svg id="graph" class="graph">
<g id="viewport">
<title>dMeter_drawHIO_c</title>
<!-- Node1 -->
<g id="node1" class="node">
<title>Node1</title>
<g id="a_node1"><a xlink:title=" ">
<polygon fill="#999999" stroke="#666666" points="737,-453.46 636,-453.46 636,-434.46 737,-434.46 737,-453.46"/>
<text text-anchor="middle" x="686.5" y="-441.46" font-family="Helvetica,sans-Serif" font-size="10.00">dMeter_drawHIO_c</text>
</a>
</g>
</g>
<!-- Node2 -->
<g id="node2" class="node">
<title>Node2</title>
<g id="a_node2"><a xlink:href="structJUtility_1_1TColor.html" target="_top" xlink:title=" ">
<polygon fill="white" stroke="#666666" points="174,-526.46 94,-526.46 94,-507.46 174,-507.46 174,-526.46"/>
<text text-anchor="middle" x="134" y="-514.46" font-family="Helvetica,sans-Serif" font-size="10.00">JUtility::TColor</text>
</a>
</g>
</g>
<!-- Node2&#45;&gt;Node1 -->
<g id="edge1" class="edge">
<title>Node2&#45;&gt;Node1</title>
<path fill="none" stroke="#9a32cd" stroke-dasharray="5,2" d="M138.21,-538.06C145.83,-585.11 166.62,-696.17 196,-717.96 246.69,-755.55 275.3,-725.19 338,-717.96 468.83,-702.89 530.13,-719.06 618,-620.96 664.3,-569.27 680.13,-482.55 684.27,-453.66"/>
<polygon fill="#9a32cd" stroke="#9a32cd" points="141.69,-537.69 136.68,-528.35 134.77,-538.77 141.69,-537.69"/>
<text text-anchor="middle" x="430.5" y="-827.96" font-family="Helvetica,sans-Serif" font-size="10.00"> field_0x2f0</text>
<text text-anchor="middle" x="430.5" y="-816.96" font-family="Helvetica,sans-Serif" font-size="10.00">field_0x310</text>
<text text-anchor="middle" x="430.5" y="-805.96" font-family="Helvetica,sans-Serif" font-size="10.00">field_0x4a8</text>
<text text-anchor="middle" x="430.5" y="-794.96" font-family="Helvetica,sans-Serif" font-size="10.00">field_0x4ac</text>
<text text-anchor="middle" x="430.5" y="-783.96" font-family="Helvetica,sans-Serif" font-size="10.00">field_0x4b0</text>
<text text-anchor="middle" x="430.5" y="-772.96" font-family="Helvetica,sans-Serif" font-size="10.00">field_0x4b4</text>
<text text-anchor="middle" x="430.5" y="-761.96" font-family="Helvetica,sans-Serif" font-size="10.00">field_0x4bc</text>
<text text-anchor="middle" x="430.5" y="-750.96" font-family="Helvetica,sans-Serif" font-size="10.00">field_0x4c0</text>
<text text-anchor="middle" x="430.5" y="-739.96" font-family="Helvetica,sans-Serif" font-size="10.00">field_0x4c4</text>
<text text-anchor="middle" x="430.5" y="-728.96" font-family="Helvetica,sans-Serif" font-size="10.00">field_0x4c8</text>
<text text-anchor="middle" x="430.5" y="-717.96" font-family="Helvetica,sans-Serif" font-size="10.00">...</text>
</g>
<!-- Node4 -->
<g id="node4" class="node">
<title>Node4</title>
<g id="a_node4"><a xlink:href="classdMeter__drawCollectHIO__c.html" target="_top" xlink:title=" ">
<polygon fill="white" stroke="#666666" points="496,-890.46 365,-890.46 365,-871.46 496,-871.46 496,-890.46"/>
<text text-anchor="middle" x="430.5" y="-878.46" font-family="Helvetica,sans-Serif" font-size="10.00">dMeter_drawCollectHIO_c</text>
</a>
</g>
</g>
<!-- Node2&#45;&gt;Node4 -->
<g id="edge7" class="edge">
<title>Node2&#45;&gt;Node4</title>
<path fill="none" stroke="#9a32cd" stroke-dasharray="5,2" d="M135.56,-538.02C137.71,-581.19 147.92,-681.14 196,-745.96 240.23,-805.6 282.71,-784.41 338,-833.96 347.67,-842.63 345.37,-849.51 356,-856.96 364.57,-862.97 374.75,-867.55 384.75,-871"/>
<polygon fill="#9a32cd" stroke="#9a32cd" points="139.07,-538.13 135.18,-528.27 132.07,-538.4 139.07,-538.13"/>
<text text-anchor="middle" x="267" y="-847.96" font-family="Helvetica,sans-Serif" font-size="10.00"> mVesselBack</text>
<text text-anchor="middle" x="267" y="-836.96" font-family="Helvetica,sans-Serif" font-size="10.00">mVesselFront</text>
</g>
<!-- Node9 -->
<g id="node9" class="node">
<title>Node9</title>
<g id="a_node9"><a xlink:href="classdMeter__drawOptionHIO__c.html" target="_top" xlink:title=" ">
<polygon fill="white" stroke="#666666" points="495.5,-669.46 365.5,-669.46 365.5,-650.46 495.5,-650.46 495.5,-669.46"/>
<text text-anchor="middle" x="430.5" y="-657.46" font-family="Helvetica,sans-Serif" font-size="10.00">dMeter_drawOptionHIO_c</text>
</a>
</g>
</g>
<!-- Node2&#45;&gt;Node9 -->
<g id="edge12" class="edge">
<title>Node2&#45;&gt;Node9</title>
<path fill="none" stroke="#9a32cd" stroke-dasharray="5,2" d="M137.27,-538C141.96,-569.82 155.89,-629.27 196,-655.96 256.59,-696.28 347.01,-682.03 395.64,-669.91"/>
<polygon fill="#9a32cd" stroke="#9a32cd" points="140.74,-537.57 136.01,-528.09 133.8,-538.45 140.74,-537.57"/>
<text text-anchor="middle" x="267" y="-706.96" font-family="Helvetica,sans-Serif" font-size="10.00"> mSelectColor</text>
<text text-anchor="middle" x="267" y="-695.96" font-family="Helvetica,sans-Serif" font-size="10.00">mSelectNameColor</text>
<text text-anchor="middle" x="267" y="-684.96" font-family="Helvetica,sans-Serif" font-size="10.00">mUnselectColor</text>
</g>
<!-- Node10 -->
<g id="node10" class="node">
<title>Node10</title>
<g id="a_node10"><a xlink:href="classdMeter__drawLetterHIO__c.html" target="_top" xlink:title=" ">
<polygon fill="white" stroke="#666666" points="494,-564.46 367,-564.46 367,-545.46 494,-545.46 494,-564.46"/>
<text text-anchor="middle" x="430.5" y="-552.46" font-family="Helvetica,sans-Serif" font-size="10.00">dMeter_drawLetterHIO_c</text>
</a>
</g>
</g>
<!-- Node2&#45;&gt;Node10 -->
<g id="edge14" class="edge">
<title>Node2&#45;&gt;Node10</title>
<path fill="none" stroke="#9a32cd" stroke-dasharray="5,2" d="M157.48,-533C168.53,-539.94 182.37,-547.3 196,-550.96 252.38,-566.13 319.21,-565.5 366.9,-562.05"/>
<polygon fill="#9a32cd" stroke="#9a32cd" points="159.75,-530.3 149.47,-527.7 155.88,-536.14 159.75,-530.3"/>
<text text-anchor="middle" x="267" y="-643.96" font-family="Helvetica,sans-Serif" font-size="10.00"> mLetterTextBack</text>
<text text-anchor="middle" x="267" y="-632.96" font-family="Helvetica,sans-Serif" font-size="10.00">mLetterTextFront</text>
<text text-anchor="middle" x="267" y="-621.96" font-family="Helvetica,sans-Serif" font-size="10.00">mSelectBarBack</text>
<text text-anchor="middle" x="267" y="-610.96" font-family="Helvetica,sans-Serif" font-size="10.00">mSelectBarFront</text>
<text text-anchor="middle" x="267" y="-599.96" font-family="Helvetica,sans-Serif" font-size="10.00">mSelectPageIconBack</text>
<text text-anchor="middle" x="267" y="-588.96" font-family="Helvetica,sans-Serif" font-size="10.00">mSelectPageIconFront</text>
<text text-anchor="middle" x="267" y="-577.96" font-family="Helvetica,sans-Serif" font-size="10.00">mSelectTextBack</text>
<text text-anchor="middle" x="267" y="-566.96" font-family="Helvetica,sans-Serif" font-size="10.00">mSelectTextFront</text>
</g>
<!-- Node14 -->
<g id="node14" class="node">
<title>Node14</title>
<g id="a_node14"><a xlink:href="classdMeter__drawSkillHIO__c.html" target="_top" xlink:title=" ">
<polygon fill="white" stroke="#666666" points="490.5,-490.46 370.5,-490.46 370.5,-471.46 490.5,-471.46 490.5,-490.46"/>
<text text-anchor="middle" x="430.5" y="-478.46" font-family="Helvetica,sans-Serif" font-size="10.00">dMeter_drawSkillHIO_c</text>
</a>
</g>
</g>
<!-- Node2&#45;&gt;Node14 -->
<g id="edge19" class="edge">
<title>Node2&#45;&gt;Node14</title>
<path fill="none" stroke="#9a32cd" stroke-dasharray="5,2" d="M149.43,-498.51C160.59,-485.83 177.27,-470.06 196,-462.96 255.01,-440.59 275.19,-456.84 338,-462.96 354.44,-464.56 372.3,-467.75 387.85,-471"/>
<polygon fill="#9a32cd" stroke="#9a32cd" points="147.02,-495.94 143.3,-505.86 152.39,-500.42 147.02,-495.94"/>
<text text-anchor="middle" x="267" y="-542.96" font-family="Helvetica,sans-Serif" font-size="10.00"> mSelectBarBlack</text>
<text text-anchor="middle" x="267" y="-531.96" font-family="Helvetica,sans-Serif" font-size="10.00">mSelectBarWhite</text>
<text text-anchor="middle" x="267" y="-520.96" font-family="Helvetica,sans-Serif" font-size="10.00">mSelectScrollIconBlack</text>
<text text-anchor="middle" x="267" y="-509.96" font-family="Helvetica,sans-Serif" font-size="10.00">mSelectScrollIconWhite</text>
<text text-anchor="middle" x="267" y="-498.96" font-family="Helvetica,sans-Serif" font-size="10.00">mSelectTextBlack</text>
<text text-anchor="middle" x="267" y="-487.96" font-family="Helvetica,sans-Serif" font-size="10.00">mSelectTextWhite</text>
<text text-anchor="middle" x="267" y="-476.96" font-family="Helvetica,sans-Serif" font-size="10.00">mUnselectScrollIconBlack</text>
<text text-anchor="middle" x="267" y="-465.96" font-family="Helvetica,sans-Serif" font-size="10.00">mUnselectScrollIconWhite</text>
</g>
<!-- Node15 -->
<g id="node15" class="node">
<title>Node15</title>
<g id="a_node15"><a xlink:href="classdMeter__drawMiniGameHIO__c.html" target="_top" xlink:title=" ">
<polygon fill="white" stroke="#666666" points="503.5,-453.46 357.5,-453.46 357.5,-434.46 503.5,-434.46 503.5,-453.46"/>
<text text-anchor="middle" x="430.5" y="-441.46" font-family="Helvetica,sans-Serif" font-size="10.00">dMeter_drawMiniGameHIO_c</text>
</a>
</g>
</g>
<!-- Node2&#45;&gt;Node15 -->
<g id="edge21" class="edge">
<title>Node2&#45;&gt;Node15</title>
<path fill="none" stroke="#9a32cd" stroke-dasharray="5,2" d="M134.4,-495.79C134.55,-454.95 141.47,-365.79 196,-325.96 246.96,-288.74 289.58,-285.48 338,-325.96 372.65,-354.93 325.07,-393.05 356,-425.96 358.97,-429.12 362.39,-431.77 366.11,-433.97"/>
<polygon fill="#9a32cd" stroke="#9a32cd" points="130.9,-495.76 134.52,-505.72 137.9,-495.68 130.9,-495.76"/>
<text text-anchor="middle" x="267" y="-438.96" font-family="Helvetica,sans-Serif" font-size="10.00"> mGetInHighlightBackInner</text>
<text text-anchor="middle" x="267" y="-427.96" font-family="Helvetica,sans-Serif" font-size="10.00">mGetInHighlightBackOuter</text>
<text text-anchor="middle" x="267" y="-416.96" font-family="Helvetica,sans-Serif" font-size="10.00">mGetInHighlightFrontInner</text>
<text text-anchor="middle" x="267" y="-405.96" font-family="Helvetica,sans-Serif" font-size="10.00">mGetInHighlightFrontOuter</text>
<text text-anchor="middle" x="267" y="-394.96" font-family="Helvetica,sans-Serif" font-size="10.00">mReadyFightHighlightBackInner</text>
<text text-anchor="middle" x="267" y="-383.96" font-family="Helvetica,sans-Serif" font-size="10.00">mReadyFightHighlightBackOuter</text>
<text text-anchor="middle" x="267" y="-372.96" font-family="Helvetica,sans-Serif" font-size="10.00">mReadyFightHighlightFrontInner</text>
<text text-anchor="middle" x="267" y="-361.96" font-family="Helvetica,sans-Serif" font-size="10.00">mReadyFightHighlightFrontOuter</text>
<text text-anchor="middle" x="267" y="-350.96" font-family="Helvetica,sans-Serif" font-size="10.00">mStartHighlightBackInner</text>
<text text-anchor="middle" x="267" y="-339.96" font-family="Helvetica,sans-Serif" font-size="10.00">mStartHighlightBackOuter</text>
<text text-anchor="middle" x="267" y="-328.96" font-family="Helvetica,sans-Serif" font-size="10.00">...</text>
</g>
<!-- Node16 -->
<g id="node16" class="node">
<title>Node16</title>
<g id="a_node16"><a xlink:href="classdMeter__drawEmpButtonHIO__c.html" target="_top" xlink:title=" ">
<polygon fill="white" stroke="#666666" points="505,-416.46 356,-416.46 356,-397.46 505,-397.46 505,-416.46"/>
<text text-anchor="middle" x="430.5" y="-404.46" font-family="Helvetica,sans-Serif" font-size="10.00">dMeter_drawEmpButtonHIO_c</text>
</a>
</g>
</g>
<!-- Node2&#45;&gt;Node16 -->
<g id="edge23" class="edge">
<title>Node2&#45;&gt;Node16</title>
<path fill="none" stroke="#9a32cd" stroke-dasharray="5,2" d="M135.36,-495.72C136.99,-427.16 146.09,-213.82 196,-171.96 220.18,-151.68 314.78,-150.59 338,-171.96 373.6,-204.73 324.58,-352.16 356,-388.96 358.73,-392.16 361.93,-394.84 365.43,-397.08"/>
<polygon fill="#9a32cd" stroke="#9a32cd" points="131.86,-495.5 135.15,-505.57 138.86,-495.64 131.86,-495.5"/>
<text text-anchor="middle" x="267" y="-284.96" font-family="Helvetica,sans-Serif" font-size="10.00"> mHighlightBackInner</text>
<text text-anchor="middle" x="267" y="-273.96" font-family="Helvetica,sans-Serif" font-size="10.00">mHighlightBackOuter</text>
<text text-anchor="middle" x="267" y="-262.96" font-family="Helvetica,sans-Serif" font-size="10.00">mHighlightFastBackInner</text>
<text text-anchor="middle" x="267" y="-251.96" font-family="Helvetica,sans-Serif" font-size="10.00">mHighlightFastBackOuter</text>
<text text-anchor="middle" x="267" y="-240.96" font-family="Helvetica,sans-Serif" font-size="10.00">mHighlightFastFrontInner</text>
<text text-anchor="middle" x="267" y="-229.96" font-family="Helvetica,sans-Serif" font-size="10.00">mHighlightFastFrontOuter</text>
<text text-anchor="middle" x="267" y="-218.96" font-family="Helvetica,sans-Serif" font-size="10.00">mHighlightFrontInner</text>
<text text-anchor="middle" x="267" y="-207.96" font-family="Helvetica,sans-Serif" font-size="10.00">mHighlightFrontOuter</text>
<text text-anchor="middle" x="267" y="-196.96" font-family="Helvetica,sans-Serif" font-size="10.00">mHighlightListenBackInner</text>
<text text-anchor="middle" x="267" y="-185.96" font-family="Helvetica,sans-Serif" font-size="10.00">mHighlightListenBackOuter</text>
<text text-anchor="middle" x="267" y="-174.96" font-family="Helvetica,sans-Serif" font-size="10.00">...</text>
</g>
<!-- Node17 -->
<g id="node17" class="node">
<title>Node17</title>
<g id="a_node17"><a xlink:href="classdMeter__drawLightDropHIO__c.html" target="_top" xlink:title=" ">
<polygon fill="white" stroke="#666666" points="502,-379.46 359,-379.46 359,-360.46 502,-360.46 502,-379.46"/>
<text text-anchor="middle" x="430.5" y="-367.46" font-family="Helvetica,sans-Serif" font-size="10.00">dMeter_drawLightDropHIO_c</text>
</a>
</g>
</g>
<!-- Node2&#45;&gt;Node17 -->
<g id="edge25" class="edge">
<title>Node2&#45;&gt;Node17</title>
<path fill="none" stroke="#9a32cd" stroke-dasharray="5,2" d="M136.04,-495.89C140.65,-406.68 160.59,-63.2 196,-31.96 243.33,9.79 292.13,11.39 338,-31.96 363.8,-56.35 333.48,-323.52 356,-350.96 359.01,-354.63 362.63,-357.64 366.62,-360.11"/>
<polygon fill="#9a32cd" stroke="#9a32cd" points="132.56,-495.47 135.55,-505.63 139.55,-495.82 132.56,-495.47"/>
<text text-anchor="middle" x="267" y="-144.96" font-family="Helvetica,sans-Serif" font-size="10.00"> mDropHighlightBackInner</text>
<text text-anchor="middle" x="267" y="-133.96" font-family="Helvetica,sans-Serif" font-size="10.00">mDropHighlightBackOuter</text>
<text text-anchor="middle" x="267" y="-122.96" font-family="Helvetica,sans-Serif" font-size="10.00">mDropHighlightFrontInner</text>
<text text-anchor="middle" x="267" y="-111.96" font-family="Helvetica,sans-Serif" font-size="10.00">mDropHighlightFrontOuter</text>
<text text-anchor="middle" x="267" y="-100.96" font-family="Helvetica,sans-Serif" font-size="10.00">mDropOffColorBlack</text>
<text text-anchor="middle" x="267" y="-89.96" font-family="Helvetica,sans-Serif" font-size="10.00">mDropOffColorWhite</text>
<text text-anchor="middle" x="267" y="-78.96" font-family="Helvetica,sans-Serif" font-size="10.00">mDropOnColorBlack</text>
<text text-anchor="middle" x="267" y="-67.96" font-family="Helvetica,sans-Serif" font-size="10.00">mDropOnColorWhite</text>
<text text-anchor="middle" x="267" y="-56.96" font-family="Helvetica,sans-Serif" font-size="10.00">mHighlightLoopBackInner</text>
<text text-anchor="middle" x="267" y="-45.96" font-family="Helvetica,sans-Serif" font-size="10.00">mHighlightLoopBackOuter</text>
<text text-anchor="middle" x="267" y="-34.96" font-family="Helvetica,sans-Serif" font-size="10.00">...</text>
</g>
<!-- Node3 -->
<g id="node3" class="node">
<title>Node3</title>
<g id="a_node3"><a xlink:href="struct__GXColor.html" target="_top" xlink:title=" ">
<polygon fill="white" stroke="#666666" points="53,-526.46 0,-526.46 0,-507.46 53,-507.46 53,-526.46"/>
<text text-anchor="middle" x="26.5" y="-514.46" font-family="Helvetica,sans-Serif" font-size="10.00">GXColor</text>
</a>
</g>
</g>
<!-- Node3&#45;&gt;Node2 -->
<g id="edge2" class="edge">
<title>Node3&#45;&gt;Node2</title>
<path fill="none" stroke="#63b8ff" d="M64.77,-516.96C74.2,-516.96 84.36,-516.96 93.88,-516.96"/>
<polygon fill="#63b8ff" stroke="#63b8ff" points="64.82,-513.46 54.82,-516.96 64.82,-520.46 64.82,-513.46"/>
</g>
<!-- Node4&#45;&gt;Node1 -->
<g id="edge3" class="edge">
<title>Node4&#45;&gt;Node1</title>
<path fill="none" stroke="#9a32cd" stroke-dasharray="5,2" d="M483.8,-867.22C491.16,-864.34 498.45,-860.94 505,-856.96 565.16,-820.4 583.81,-807.5 618,-745.96 675.53,-642.41 684.03,-493.19 685.28,-453.8"/>
<polygon fill="#9a32cd" stroke="#9a32cd" points="482.68,-863.9 474.45,-870.56 485.04,-870.49 482.68,-863.9"/>
<text text-anchor="middle" x="570.5" y="-846.96" font-family="Helvetica,sans-Serif" font-size="10.00"> mCollectScreen</text>
</g>
<!-- Node5 -->
<g id="node5" class="node">
<title>Node5</title>
<g id="a_node5"><a xlink:href="structcXyz.html" target="_top" xlink:title=" ">
<polygon fill="white" stroke="#666666" points="153,-930.46 115,-930.46 115,-911.46 153,-911.46 153,-930.46"/>
<text text-anchor="middle" x="134" y="-918.46" font-family="Helvetica,sans-Serif" font-size="10.00">cXyz</text>
</a>
</g>
</g>
<!-- Node5&#45;&gt;Node4 -->
<g id="edge4" class="edge">
<title>Node5&#45;&gt;Node4</title>
<path fill="none" stroke="#9a32cd" stroke-dasharray="5,2" d="M164.79,-916.92C211.38,-910.59 302.59,-898.2 364.78,-889.75"/>
<polygon fill="#9a32cd" stroke="#9a32cd" points="164.36,-913.44 154.92,-918.26 165.3,-920.38 164.36,-913.44"/>
<text text-anchor="middle" x="267" y="-914.96" font-family="Helvetica,sans-Serif" font-size="10.00"> mMaskMirrorPos</text>
</g>
<!-- Node5&#45;&gt;Node5 -->
<g id="edge6" class="edge">
<title>Node5&#45;&gt;Node5</title>
<path fill="none" stroke="#9a32cd" stroke-dasharray="5,2" d="M123.03,-942.22C124.51,-945.9 128.16,-948.46 134,-948.46 144.99,-948.46 148.25,-939.4 143.78,-930.83"/>
<polygon fill="#9a32cd" stroke="#9a32cd" points="126.51,-942.64 124.06,-932.34 119.54,-941.92 126.51,-942.64"/>
<text text-anchor="middle" x="134" y="-1028.46" font-family="Helvetica,sans-Serif" font-size="10.00"> BaseX</text>
<text text-anchor="middle" x="134" y="-1017.46" font-family="Helvetica,sans-Serif" font-size="10.00">BaseXY</text>
<text text-anchor="middle" x="134" y="-1006.46" font-family="Helvetica,sans-Serif" font-size="10.00">BaseXYZ</text>
<text text-anchor="middle" x="134" y="-995.46" font-family="Helvetica,sans-Serif" font-size="10.00">BaseXZ</text>
<text text-anchor="middle" x="134" y="-984.46" font-family="Helvetica,sans-Serif" font-size="10.00">BaseY</text>
<text text-anchor="middle" x="134" y="-973.46" font-family="Helvetica,sans-Serif" font-size="10.00">BaseYZ</text>
<text text-anchor="middle" x="134" y="-962.46" font-family="Helvetica,sans-Serif" font-size="10.00">BaseZ</text>
<text text-anchor="middle" x="134" y="-951.46" font-family="Helvetica,sans-Serif" font-size="10.00">Zero</text>
</g>
<!-- Node6 -->
<g id="node6" class="node">
<title>Node6</title>
<g id="a_node6"><a xlink:href="structVec.html" target="_top" xlink:title=" ">
<polygon fill="white" stroke="#666666" points="43.5,-930.46 9.5,-930.46 9.5,-911.46 43.5,-911.46 43.5,-930.46"/>
<text text-anchor="middle" x="26.5" y="-918.46" font-family="Helvetica,sans-Serif" font-size="10.00">Vec</text>
</a>
</g>
</g>
<!-- Node6&#45;&gt;Node5 -->
<g id="edge5" class="edge">
<title>Node6&#45;&gt;Node5</title>
<path fill="none" stroke="#63b8ff" d="M55.35,-920.96C74.04,-920.96 98.14,-920.96 114.5,-920.96"/>
<polygon fill="#63b8ff" stroke="#63b8ff" points="55.5,-917.46 45.5,-920.96 55.5,-924.46 55.5,-917.46"/>
</g>
<!-- Node7 -->
<g id="node7" class="node">
<title>Node7</title>
<g id="a_node7"><a xlink:href="classcsXyz.html" target="_top" xlink:title=" ">
<polygon fill="white" stroke="#666666" points="155.5,-864.46 112.5,-864.46 112.5,-845.46 155.5,-845.46 155.5,-864.46"/>
<text text-anchor="middle" x="134" y="-852.46" font-family="Helvetica,sans-Serif" font-size="10.00">csXyz</text>
</a>
</g>
</g>
<!-- Node7&#45;&gt;Node4 -->
<g id="edge8" class="edge">
<title>Node7&#45;&gt;Node4</title>
<path fill="none" stroke="#9a32cd" stroke-dasharray="5,2" d="M167.03,-857.79C214.19,-861.95 303.35,-869.83 364.56,-875.23"/>
<polygon fill="#9a32cd" stroke="#9a32cd" points="167.49,-854.32 157.22,-856.92 166.87,-861.29 167.49,-854.32"/>
<text text-anchor="middle" x="267" y="-874.96" font-family="Helvetica,sans-Serif" font-size="10.00"> mMaskMirrorAngle</text>
</g>
<!-- Node7&#45;&gt;Node7 -->
<g id="edge10" class="edge">
<title>Node7&#45;&gt;Node7</title>
<path fill="none" stroke="#9a32cd" stroke-dasharray="5,2" d="M123.03,-876.22C124.51,-879.9 128.16,-882.46 134,-882.46 144.99,-882.46 148.25,-873.4 143.78,-864.83"/>
<polygon fill="#9a32cd" stroke="#9a32cd" points="126.51,-876.64 124.06,-866.34 119.54,-875.92 126.51,-876.64"/>
<text text-anchor="middle" x="134" y="-885.46" font-family="Helvetica,sans-Serif" font-size="10.00"> Zero</text>
</g>
<!-- Node8 -->
<g id="node8" class="node">
<title>Node8</title>
<g id="a_node8"><a xlink:href="structSVec.html" target="_top" xlink:title=" ">
<polygon fill="white" stroke="#666666" points="47,-864.46 6,-864.46 6,-845.46 47,-845.46 47,-864.46"/>
<text text-anchor="middle" x="26.5" y="-852.46" font-family="Helvetica,sans-Serif" font-size="10.00">SVec</text>
</a>
</g>
</g>
<!-- Node8&#45;&gt;Node7 -->
<g id="edge9" class="edge">
<title>Node8&#45;&gt;Node7</title>
<path fill="none" stroke="#63b8ff" d="M58.83,-854.96C76.06,-854.96 96.95,-854.96 112.16,-854.96"/>
<polygon fill="#63b8ff" stroke="#63b8ff" points="58.86,-851.46 48.86,-854.96 58.86,-858.46 58.86,-851.46"/>
</g>
<!-- Node9&#45;&gt;Node1 -->
<g id="edge11" class="edge">
<title>Node9&#45;&gt;Node1</title>
<path fill="none" stroke="#9a32cd" stroke-dasharray="5,2" d="M461.24,-644.75C500.13,-623.93 569.06,-583.76 618,-536.96 645.54,-510.63 669.56,-471.82 679.98,-453.81"/>
<polygon fill="#9a32cd" stroke="#9a32cd" points="459.66,-641.63 452.45,-649.4 462.92,-647.82 459.66,-641.63"/>
<text text-anchor="middle" x="570.5" y="-608.96" font-family="Helvetica,sans-Serif" font-size="10.00"> mOptionScreen</text>
</g>
<!-- Node10&#45;&gt;Node1 -->
<g id="edge13" class="edge">
<title>Node10&#45;&gt;Node1</title>
<path fill="none" stroke="#9a32cd" stroke-dasharray="5,2" d="M474.05,-541.52C512.48,-528.8 570.16,-508.22 618,-484.96 636.99,-475.73 657.56,-462.77 670.94,-453.91"/>
<polygon fill="#9a32cd" stroke="#9a32cd" points="473.12,-538.15 464.7,-544.59 475.3,-544.8 473.12,-538.15"/>
<text text-anchor="middle" x="570.5" y="-524.96" font-family="Helvetica,sans-Serif" font-size="10.00"> mLetterSelectScreen</text>
</g>
<!-- Node11 -->
<g id="node11" class="node">
<title>Node11</title>
<g id="a_node11"><a xlink:href="classdMeter__drawFishingHIO__c.html" target="_top" xlink:title=" ">
<polygon fill="white" stroke="#666666" points="497,-342.46 364,-342.46 364,-323.46 497,-323.46 497,-342.46"/>
<text text-anchor="middle" x="430.5" y="-330.46" font-family="Helvetica,sans-Serif" font-size="10.00">dMeter_drawFishingHIO_c</text>
</a>
</g>
</g>
<!-- Node11&#45;&gt;Node1 -->
<g id="edge15" class="edge">
<title>Node11&#45;&gt;Node1</title>
<path fill="none" stroke="#9a32cd" stroke-dasharray="5,2" d="M508.66,-332.64C543.95,-335.48 585.12,-343.22 618,-361.96 648.6,-379.41 671.11,-416.47 680.57,-434.16"/>
<polygon fill="#9a32cd" stroke="#9a32cd" points="509.15,-329.17 498.93,-331.98 508.67,-336.15 509.15,-329.17"/>
<text text-anchor="middle" x="570.5" y="-364.96" font-family="Helvetica,sans-Serif" font-size="10.00"> mFishListScreen</text>
</g>
<!-- Node12 -->
<g id="node12" class="node">
<title>Node12</title>
<g id="a_node12"><a xlink:href="classdMeter__drawInsectHIO__c.html" target="_top" xlink:title=" ">
<polygon fill="white" stroke="#666666" points="494.5,-305.46 366.5,-305.46 366.5,-286.46 494.5,-286.46 494.5,-305.46"/>
<text text-anchor="middle" x="430.5" y="-293.46" font-family="Helvetica,sans-Serif" font-size="10.00">dMeter_drawInsectHIO_c</text>
</a>
</g>
</g>
<!-- Node12&#45;&gt;Node1 -->
<g id="edge16" class="edge">
<title>Node12&#45;&gt;Node1</title>
<path fill="none" stroke="#9a32cd" stroke-dasharray="5,2" d="M506.04,-290.35C542.62,-291.17 585.65,-297.82 618,-319.96 659.26,-348.2 677.63,-410.18 683.38,-434.19"/>
<polygon fill="#9a32cd" stroke="#9a32cd" points="506.45,-286.86 496.42,-290.28 506.4,-293.86 506.45,-286.86"/>
<text text-anchor="middle" x="570.5" y="-322.96" font-family="Helvetica,sans-Serif" font-size="10.00"> mInsectListScreen</text>
</g>
<!-- Node13 -->
<g id="node13" class="node">
<title>Node13</title>
<g id="a_node13"><a xlink:href="classdMeter__drawCalibrationHIO__c.html" target="_top" xlink:title=" ">
<polygon fill="white" stroke="#666666" points="504,-268.46 357,-268.46 357,-249.46 504,-249.46 504,-268.46"/>
<text text-anchor="middle" x="430.5" y="-256.46" font-family="Helvetica,sans-Serif" font-size="10.00">dMeter_drawCalibrationHIO_c</text>
</a>
</g>
</g>
<!-- Node13&#45;&gt;Node1 -->
<g id="edge17" class="edge">
<title>Node13&#45;&gt;Node1</title>
<path fill="none" stroke="#9a32cd" stroke-dasharray="5,2" d="M515.39,-248.95C550.17,-249.11 589.07,-255.36 618,-276.96 671.12,-316.63 682.55,-405.13 684.91,-434.37"/>
<polygon fill="#9a32cd" stroke="#9a32cd" points="515.72,-245.45 505.77,-249.08 515.81,-252.45 515.72,-245.45"/>
<text text-anchor="middle" x="570.5" y="-279.96" font-family="Helvetica,sans-Serif" font-size="10.00"> mCalibration</text>
</g>
<!-- Node14&#45;&gt;Node1 -->
<g id="edge18" class="edge">
<title>Node14&#45;&gt;Node1</title>
<path fill="none" stroke="#9a32cd" stroke-dasharray="5,2" d="M501.96,-473.65C536.95,-469.67 579.81,-464.27 618,-457.96 625.09,-456.79 632.56,-455.4 639.84,-453.96"/>
<polygon fill="#9a32cd" stroke="#9a32cd" points="501.94,-470.13 492.4,-474.72 502.73,-477.09 501.94,-470.13"/>
<text text-anchor="middle" x="570.5" y="-472.96" font-family="Helvetica,sans-Serif" font-size="10.00"> mSkillListScreen</text>
</g>
<!-- Node15&#45;&gt;Node1 -->
<g id="edge20" class="edge">
<title>Node15&#45;&gt;Node1</title>
<path fill="none" stroke="#9a32cd" stroke-dasharray="5,2" d="M515.25,-443.96C555.05,-443.96 601.28,-443.96 635.51,-443.96"/>
<polygon fill="#9a32cd" stroke="#9a32cd" points="515.46,-440.46 505.46,-443.96 515.46,-447.46 515.46,-440.46"/>
<text text-anchor="middle" x="570.5" y="-446.96" font-family="Helvetica,sans-Serif" font-size="10.00"> mMiniGame</text>
</g>
<!-- Node16&#45;&gt;Node1 -->
<g id="edge22" class="edge">
<title>Node16&#45;&gt;Node1</title>
<path fill="none" stroke="#9a32cd" stroke-dasharray="5,2" d="M516.36,-415.14C548.33,-418.7 584.93,-423.35 618,-428.96 626.4,-430.39 635.34,-432.18 643.86,-434.02"/>
<polygon fill="#9a32cd" stroke="#9a32cd" points="517.09,-411.7 506.77,-414.09 516.33,-418.66 517.09,-411.7"/>
<text text-anchor="middle" x="570.5" y="-431.96" font-family="Helvetica,sans-Serif" font-size="10.00"> mEmpButton</text>
</g>
<!-- Node17&#45;&gt;Node1 -->
<g id="edge24" class="edge">
<title>Node17&#45;&gt;Node1</title>
<path fill="none" stroke="#9a32cd" stroke-dasharray="5,2" d="M513.41,-376.37C546.67,-380.8 584.96,-388.3 618,-400.96 639.02,-409.02 660.47,-424.1 673.38,-434.09"/>
<polygon fill="#9a32cd" stroke="#9a32cd" points="514.2,-372.94 503.84,-375.17 513.33,-379.89 514.2,-372.94"/>
<text text-anchor="middle" x="570.5" y="-403.96" font-family="Helvetica,sans-Serif" font-size="10.00"> mLightDrop</text>
</g>
</g>
</svg>
        <g id="navigator" transform="translate(0 0)" fill="#404254">
                <rect fill="#f2f5e9" fill-opacity="0.5" stroke="#606060" stroke-width=".5" x="0" y="0" width="60" height="60"/>
                <use id="zoomplus" xlink:href="#zoomPlus" x="17" y="9" onmousedown="handleZoom(evt,'in')"/>
                <use id="zoomminus" xlink:href="#zoomMin" x="42" y="9" onmousedown="handleZoom(evt,'out')"/>
                <use id="reset" xlink:href="#resetDef" x="30" y="36" onmousedown="handleReset()"/>
                <g id="arrowUp" xlink:href="#dirArrow" transform="translate(30 24)" onmousedown="handlePan(0,-1)">
                  <use xlink:href="#rim" fill="#404040">
                        <set attributeName="fill" to="#808080" begin="arrowUp.mouseover" end="arrowUp.mouseout"/>
                  </use>
                  <path fill="none" stroke="white" stroke-width="1.5" d="M0,-3.0v7 M-2.5,-0.5L0,-3.0L2.5,-0.5"/>
                </g>
                <g id="arrowRight" xlink:href="#dirArrow" transform="rotate(90) translate(36 -43)" onmousedown="handlePan(1,0)">
                  <use xlink:href="#rim" fill="#404040">
                        <set attributeName="fill" to="#808080" begin="arrowRight.mouseover" end="arrowRight.mouseout"/>
                  </use>
                  <path fill="none" stroke="white" stroke-width="1.5" d="M0,-3.0v7 M-2.5,-0.5L0,-3.0L2.5,-0.5"/>
                </g>
                <g id="arrowDown" xlink:href="#dirArrow" transform="rotate(180) translate(-30 -48)" onmousedown="handlePan(0,1)">
                  <use xlink:href="#rim" fill="#404040">
                        <set attributeName="fill" to="#808080" begin="arrowDown.mouseover" end="arrowDown.mouseout"/>
                  </use>
                  <path fill="none" stroke="white" stroke-width="1.5" d="M0,-3.0v7 M-2.5,-0.5L0,-3.0L2.5,-0.5"/>
                </g>
                <g id="arrowLeft" xlink:href="#dirArrow" transform="rotate(270) translate(-36 17)" onmousedown="handlePan(-1,0)">
                  <use xlink:href="#rim" fill="#404040">
                        <set attributeName="fill" to="#808080" begin="arrowLeft.mouseover" end="arrowLeft.mouseout"/>
                  </use>
                  <path fill="none" stroke="white" stroke-width="1.5" d="M0,-3.0v7 M-2.5,-0.5L0,-3.0L2.5,-0.5"/>
                </g>
        </g>
        <svg viewBox="0 0 15 15" width="100%" height="30px" preserveAspectRatio="xMaxYMin meet">
         <g id="arrow_out" transform="scale(0.3 0.3)">
          <a xlink:href="classdMeter__drawHIO__c__coll__graph_org.svg" target="_base">
           <rect id="button" ry="5" rx="5" y="6" x="6" height="38" width="38"
                fill="#f2f5e9" fill-opacity="0.5" stroke="#606060" stroke-width="1.0"/>
           <path id="arrow"
             d="M 11.500037,31.436501 C 11.940474,20.09759 22.043105,11.32322 32.158766,21.979434 L 37.068811,17.246167 C 37.068811,17.246167 37.088388,32 37.088388,32 L 22.160133,31.978069 C 22.160133,31.978069 26.997745,27.140456 26.997745,27.140456 C 18.528582,18.264221 13.291696,25.230495 11.500037,31.436501 z"
             style="fill:#404040;"/>
          </a>
         </g>
        </svg>
</svg>
