<?xml version="1.0" encoding="UTF-8" standalone="no"?>
<!DOCTYPE svg PUBLIC "-//W3C//DTD SVG 1.1//EN"
 "http://www.w3.org/Graphics/SVG/1.1/DTD/svg11.dtd">
<!-- Generated by graphviz version 7.0.5 (20221223.1930)
 -->
<!-- Title: JStudio::fvb::TObject_list_parameter Pages: 1 -->
<!--zoomable 295 -->
<svg id="main" version="1.1" xmlns="http://www.w3.org/2000/svg" xmlns:xlink="http://www.w3.org/1999/xlink" xml:space="preserve" onload="init(evt)">
<style type="text/css"><![CDATA[
.edge:hover path { stroke: red; }
.edge:hover polygon { stroke: red; fill: red; }
]]></style>
<script type="text/javascript"><![CDATA[
var edges = document.getElementsByTagName('g');
if (edges && edges.length) {
  for (var i=0;i<edges.length;i++) {
    if (edges[i].id.substr(0,4)=='edge') {
      edges[i].setAttribute('class','edge');
    }
  }
}
]]></script>
        <defs>
                <circle id="rim" cx="0" cy="0" r="7"/>
                <circle id="rim2" cx="0" cy="0" r="3.5"/>
                <g id="zoomPlus">
                        <use xlink:href="#rim" fill="#404040">
                                <set attributeName="fill" to="#808080" begin="zoomplus.mouseover" end="zoomplus.mouseout"/>
                        </use>
                        <path d="M-4,0h8M0,-4v8" fill="none" stroke="white" stroke-width="1.5" pointer-events="none"/>
                </g>
                <g id="zoomMin">
                        <use xlink:href="#rim" fill="#404040">
                                <set attributeName="fill" to="#808080" begin="zoomminus.mouseover" end="zoomminus.mouseout"/>
                        </use>
                        <path d="M-4,0h8" fill="none" stroke="white" stroke-width="1.5" pointer-events="none"/>
                </g>
                <g id="dirArrow">
                        <path fill="none" stroke="white" stroke-width="1.5" d="M0,-3.0v7 M-2.5,-0.5L0,-3.0L2.5,-0.5"/>
                </g>
               <g id="resetDef">
                       <use xlink:href="#rim2" fill="#404040">
                               <set attributeName="fill" to="#808080" begin="reset.mouseover" end="reset.mouseout"/>
                       </use>
               </g>
        </defs>

<script type="text/javascript">
var viewWidth = 696;
var viewHeight = 295;
var sectionId = 'dynsection-1';
</script>
<script xlink:href="svgpan.js"/>
<svg id="graph" class="graph">
<g id="viewport">
<title>JStudio::fvb::TObject_list_parameter</title>
<!-- Node1 -->
<g id="node1" class="node">
<title>Node1</title>
<g id="a_node1"><a xlink:title=" ">
<polygon fill="#999999" stroke="#666666" points="688,-160 581,-160 581,-130 688,-130 688,-160"/>
<text text-anchor="start" x="589" y="-148" font-family="Helvetica,sans-Serif" font-size="10.00">JStudio::fvb::TObject</text>
<text text-anchor="middle" x="634.5" y="-137" font-family="Helvetica,sans-Serif" font-size="10.00">_list_parameter</text>
</a>
</g>
</g>
<!-- Node2 -->
<g id="node2" class="node">
<title>Node2</title>
<g id="a_node2"><a xlink:href="classJStudio_1_1fvb_1_1TObject.html" target="_top" xlink:title=" ">
<polygon fill="white" stroke="#666666" points="501.5,-200.5 394.5,-200.5 394.5,-181.5 501.5,-181.5 501.5,-200.5"/>
<text text-anchor="middle" x="448" y="-188.5" font-family="Helvetica,sans-Serif" font-size="10.00">JStudio::fvb::TObject</text>
</a>
</g>
</g>
<!-- Node2&#45;&gt;Node1 -->
<g id="edge1" class="edge">
<title>Node2&#45;&gt;Node1</title>
<path fill="none" stroke="#63b8ff" d="M500.15,-178.25C525.19,-172 555.31,-164.5 580.58,-158.19"/>
<polygon fill="#63b8ff" stroke="#63b8ff" points="499.36,-174.84 490.5,-180.65 501.05,-181.63 499.36,-174.84"/>
</g>
<!-- Node3 -->
<g id="node3" class="node">
<title>Node3</title>
<g id="a_node3"><a xlink:href="structJStudio_1_1object_1_1TObject__ID.html" target="_top" xlink:title=" ">
<polygon fill="white" stroke="#666666" points="304.5,-286.5 170.5,-286.5 170.5,-267.5 304.5,-267.5 304.5,-286.5"/>
<text text-anchor="middle" x="237.5" y="-274.5" font-family="Helvetica,sans-Serif" font-size="10.00">JStudio::object::TObject_ID</text>
</a>
</g>
</g>
<!-- Node3&#45;&gt;Node2 -->
<g id="edge2" class="edge">
<title>Node3&#45;&gt;Node2</title>
<path fill="none" stroke="#63b8ff" d="M301.48,-264.08C306.78,-262.53 312.02,-260.84 317,-259 360.25,-243.03 407.33,-215.65 431.2,-200.98"/>
<polygon fill="#63b8ff" stroke="#63b8ff" points="300.76,-260.64 292.03,-266.65 302.6,-267.4 300.76,-260.64"/>
</g>
<!-- Node4 -->
<g id="node4" class="node">
<title>Node4</title>
<g id="a_node4"><a xlink:href="structJStudio_1_1object_1_1TIDData.html" target="_top" xlink:title=" ">
<polygon fill="white" stroke="#666666" points="121,-286.5 0,-286.5 0,-267.5 121,-267.5 121,-286.5"/>
<text text-anchor="middle" x="60.5" y="-274.5" font-family="Helvetica,sans-Serif" font-size="10.00">JStudio::object::TIDData</text>
</a>
</g>
</g>
<!-- Node4&#45;&gt;Node3 -->
<g id="edge3" class="edge">
<title>Node4&#45;&gt;Node3</title>
<path fill="none" stroke="#63b8ff" d="M132.5,-277C144.93,-277 157.83,-277 170.13,-277"/>
<polygon fill="#63b8ff" stroke="#63b8ff" points="132.75,-273.5 122.75,-277 132.75,-280.5 132.75,-273.5"/>
</g>
<!-- Node5 -->
<g id="node5" class="node">
<title>Node5</title>
<g id="a_node5"><a xlink:href="structJGadget_1_1TLinkListNode.html" target="_top" xlink:title=" ">
<polygon fill="white" stroke="#666666" points="298.5,-209.5 176.5,-209.5 176.5,-190.5 298.5,-190.5 298.5,-209.5"/>
<text text-anchor="middle" x="237.5" y="-197.5" font-family="Helvetica,sans-Serif" font-size="10.00">JGadget::TLinkListNode</text>
</a>
</g>
</g>
<!-- Node5&#45;&gt;Node2 -->
<g id="edge4" class="edge">
<title>Node5&#45;&gt;Node2</title>
<path fill="none" stroke="#9a32cd" stroke-dasharray="5,2" d="M310.01,-196.91C337.66,-195.72 368.72,-194.38 394.27,-193.28"/>
<polygon fill="#9a32cd" stroke="#9a32cd" points="310.16,-193.4 300.32,-197.33 310.46,-200.4 310.16,-193.4"/>
<text text-anchor="middle" x="352" y="-198" font-family="Helvetica,sans-Serif" font-size="10.00"> mNode</text>
</g>
<!-- Node5&#45;&gt;Node5 -->
<g id="edge5" class="edge">
<title>Node5&#45;&gt;Node5</title>
<path fill="none" stroke="#9a32cd" stroke-dasharray="5,2" d="M220.11,-220.93C222.28,-224.79 228.08,-227.5 237.5,-227.5 254.73,-227.5 259.84,-218.44 252.84,-209.87"/>
<polygon fill="#9a32cd" stroke="#9a32cd" points="223.5,-221.83 221.88,-211.36 216.62,-220.55 223.5,-221.83"/>
<text text-anchor="middle" x="237.5" y="-241.5" font-family="Helvetica,sans-Serif" font-size="10.00"> mNext</text>
<text text-anchor="middle" x="237.5" y="-230.5" font-family="Helvetica,sans-Serif" font-size="10.00">mPrev</text>
</g>
<!-- Node6 -->
<g id="node6" class="node">
<title>Node6</title>
<g id="a_node6"><a xlink:href="classJStudio_1_1TFunctionValue.html" target="_top" xlink:title=" ">
<polygon fill="white" stroke="#666666" points="298.5,-169.5 176.5,-169.5 176.5,-150.5 298.5,-150.5 298.5,-169.5"/>
<text text-anchor="middle" x="237.5" y="-157.5" font-family="Helvetica,sans-Serif" font-size="10.00">JStudio::TFunctionValue</text>
</a>
</g>
</g>
<!-- Node6&#45;&gt;Node2 -->
<g id="edge6" class="edge">
<title>Node6&#45;&gt;Node2</title>
<path fill="none" stroke="#9a32cd" stroke-dasharray="5,2" d="M310.29,-170.35C329.37,-173.13 349.97,-176.15 369,-179 377.13,-180.22 385.73,-181.52 394.14,-182.81"/>
<polygon fill="#9a32cd" stroke="#9a32cd" points="310.84,-166.89 300.44,-168.91 309.83,-173.82 310.84,-166.89"/>
<text text-anchor="middle" x="352" y="-182" font-family="Helvetica,sans-Serif" font-size="10.00"> pfv_</text>
</g>
<!-- Node7 -->
<g id="node7" class="node">
<title>Node7</title>
<g id="a_node7"><a xlink:href="classJStudio_1_1TFunctionValue__list__parameter.html" target="_top" xlink:title=" ">
<polygon fill="white" stroke="#666666" points="509,-124 387,-124 387,-94 509,-94 509,-124"/>
<text text-anchor="start" x="395" y="-112" font-family="Helvetica,sans-Serif" font-size="10.00">JStudio::TFunctionValue</text>
<text text-anchor="middle" x="448" y="-101" font-family="Helvetica,sans-Serif" font-size="10.00">_list_parameter</text>
</a>
</g>
</g>
<!-- Node6&#45;&gt;Node7 -->
<g id="edge8" class="edge">
<title>Node6&#45;&gt;Node7</title>
<path fill="none" stroke="#8b1a1a" d="M290.01,-147.4C319.27,-140.24 356.05,-131.25 386.66,-123.76"/>
<polygon fill="#8b1a1a" stroke="#8b1a1a" points="289.55,-143.91 280.67,-149.69 291.21,-150.71 289.55,-143.91"/>
</g>
<!-- Node7&#45;&gt;Node1 -->
<g id="edge7" class="edge">
<title>Node7&#45;&gt;Node1</title>
<path fill="none" stroke="#9a32cd" stroke-dasharray="5,2" d="M520.67,-122.99C540.67,-126.89 562.02,-131.05 580.71,-134.7"/>
<polygon fill="#9a32cd" stroke="#9a32cd" points="521.38,-119.56 510.9,-121.08 520.04,-126.43 521.38,-119.56"/>
<text text-anchor="middle" x="545" y="-133" font-family="Helvetica,sans-Serif" font-size="10.00"> fnValue</text>
</g>
<!-- Node7&#45;&gt;Node7 -->
<g id="edge12" class="edge">
<title>Node7&#45;&gt;Node7</title>
<path fill="none" stroke="#9a32cd" stroke-dasharray="5,2" d="M431.8,-135.61C434.4,-139.43 439.8,-142 448,-142 463,-142 468.62,-133.41 464.88,-124.28"/>
<polygon fill="#9a32cd" stroke="#9a32cd" points="435.31,-135.56 431.22,-125.79 428.32,-135.98 435.31,-135.56"/>
<text text-anchor="middle" x="448" y="-145" font-family="Helvetica,sans-Serif" font-size="10.00"> _58</text>
</g>
<!-- Node8 -->
<g id="node8" class="node">
<title>Node8</title>
<g id="a_node8"><a xlink:href="classJStudio_1_1TFunctionValueAttribute__range.html" target="_top" xlink:title=" ">
<polygon fill="white" stroke="#666666" points="317,-126 158,-126 158,-96 317,-96 317,-126"/>
<text text-anchor="start" x="166" y="-114" font-family="Helvetica,sans-Serif" font-size="10.00">JStudio::TFunctionValueAttribute</text>
<text text-anchor="middle" x="237.5" y="-103" font-family="Helvetica,sans-Serif" font-size="10.00">_range</text>
</a>
</g>
</g>
<!-- Node8&#45;&gt;Node7 -->
<g id="edge9" class="edge">
<title>Node8&#45;&gt;Node7</title>
<path fill="none" stroke="#8b1a1a" d="M328.74,-110.13C348.3,-109.95 368.52,-109.75 386.59,-109.58"/>
<polygon fill="#8b1a1a" stroke="#8b1a1a" points="328.8,-106.63 318.84,-110.23 328.87,-113.63 328.8,-106.63"/>
</g>
<!-- Node9 -->
<g id="node9" class="node">
<title>Node9</title>
<g id="a_node9"><a xlink:href="classJStudio_1_1TFunctionValueAttribute__interpolate.html" target="_top" xlink:title=" ">
<polygon fill="white" stroke="#666666" points="317,-78 158,-78 158,-48 317,-48 317,-78"/>
<text text-anchor="start" x="166" y="-66" font-family="Helvetica,sans-Serif" font-size="10.00">JStudio::TFunctionValueAttribute</text>
<text text-anchor="middle" x="237.5" y="-55" font-family="Helvetica,sans-Serif" font-size="10.00">_interpolate</text>
</a>
</g>
</g>
<!-- Node9&#45;&gt;Node7 -->
<g id="edge10" class="edge">
<title>Node9&#45;&gt;Node7</title>
<path fill="none" stroke="#8b1a1a" d="M319.65,-80.9C341.94,-85.82 365.7,-91.06 386.59,-95.67"/>
<polygon fill="#8b1a1a" stroke="#8b1a1a" points="320.5,-77.51 309.99,-78.77 319,-84.34 320.5,-77.51"/>
</g>
<!-- Node10 -->
<g id="node10" class="node">
<title>Node10</title>
<g id="a_node10"><a xlink:href="structJStudio_1_1TFunctionValue__list__parameter_1_1TIterator__data__.html" target="_top" xlink:title=" ">
<polygon fill="white" stroke="#666666" points="314.5,-30 160.5,-30 160.5,0 314.5,0 314.5,-30"/>
<text text-anchor="start" x="168.5" y="-18" font-family="Helvetica,sans-Serif" font-size="10.00">JStudio::TFunctionValue</text>
<text text-anchor="middle" x="237.5" y="-7" font-family="Helvetica,sans-Serif" font-size="10.00">_list_parameter::TIterator_data_</text>
</a>
</g>
</g>
<!-- Node10&#45;&gt;Node7 -->
<g id="edge11" class="edge">
<title>Node10&#45;&gt;Node7</title>
<path fill="none" stroke="#9a32cd" stroke-dasharray="5,2" d="M325.73,-30.83C340.56,-35.08 355.52,-40.39 369,-47 393.38,-58.96 417.2,-79.57 431.97,-93.72"/>
<polygon fill="#9a32cd" stroke="#9a32cd" points="327,-27.55 316.44,-28.32 325.18,-34.31 327,-27.55"/>
<text text-anchor="middle" x="352" y="-72" font-family="Helvetica,sans-Serif" font-size="10.00"> dat1</text>
<text text-anchor="middle" x="352" y="-61" font-family="Helvetica,sans-Serif" font-size="10.00">dat2</text>
<text text-anchor="middle" x="352" y="-50" font-family="Helvetica,sans-Serif" font-size="10.00">dat3</text>
</g>
</g>
</svg>
        <g id="navigator" transform="translate(0 0)" fill="#404254">
                <rect fill="#f2f5e9" fill-opacity="0.5" stroke="#606060" stroke-width=".5" x="0" y="0" width="60" height="60"/>
                <use id="zoomplus" xlink:href="#zoomPlus" x="17" y="9" onmousedown="handleZoom(evt,'in')"/>
                <use id="zoomminus" xlink:href="#zoomMin" x="42" y="9" onmousedown="handleZoom(evt,'out')"/>
                <use id="reset" xlink:href="#resetDef" x="30" y="36" onmousedown="handleReset()"/>
                <g id="arrowUp" xlink:href="#dirArrow" transform="translate(30 24)" onmousedown="handlePan(0,-1)">
                  <use xlink:href="#rim" fill="#404040">
                        <set attributeName="fill" to="#808080" begin="arrowUp.mouseover" end="arrowUp.mouseout"/>
                  </use>
                  <path fill="none" stroke="white" stroke-width="1.5" d="M0,-3.0v7 M-2.5,-0.5L0,-3.0L2.5,-0.5"/>
                </g>
                <g id="arrowRight" xlink:href="#dirArrow" transform="rotate(90) translate(36 -43)" onmousedown="handlePan(1,0)">
                  <use xlink:href="#rim" fill="#404040">
                        <set attributeName="fill" to="#808080" begin="arrowRight.mouseover" end="arrowRight.mouseout"/>
                  </use>
                  <path fill="none" stroke="white" stroke-width="1.5" d="M0,-3.0v7 M-2.5,-0.5L0,-3.0L2.5,-0.5"/>
                </g>
                <g id="arrowDown" xlink:href="#dirArrow" transform="rotate(180) translate(-30 -48)" onmousedown="handlePan(0,1)">
                  <use xlink:href="#rim" fill="#404040">
                        <set attributeName="fill" to="#808080" begin="arrowDown.mouseover" end="arrowDown.mouseout"/>
                  </use>
                  <path fill="none" stroke="white" stroke-width="1.5" d="M0,-3.0v7 M-2.5,-0.5L0,-3.0L2.5,-0.5"/>
                </g>
                <g id="arrowLeft" xlink:href="#dirArrow" transform="rotate(270) translate(-36 17)" onmousedown="handlePan(-1,0)">
                  <use xlink:href="#rim" fill="#404040">
                        <set attributeName="fill" to="#808080" begin="arrowLeft.mouseover" end="arrowLeft.mouseout"/>
                  </use>
                  <path fill="none" stroke="white" stroke-width="1.5" d="M0,-3.0v7 M-2.5,-0.5L0,-3.0L2.5,-0.5"/>
                </g>
        </g>
        <svg viewBox="0 0 15 15" width="100%" height="30px" preserveAspectRatio="xMaxYMin meet">
         <g id="arrow_out" transform="scale(0.3 0.3)">
          <a xlink:href="classJStudio_1_1fvb_1_1TObject__list__parameter__coll__graph_org.svg" target="_base">
           <rect id="button" ry="5" rx="5" y="6" x="6" height="38" width="38"
                fill="#f2f5e9" fill-opacity="0.5" stroke="#606060" stroke-width="1.0"/>
           <path id="arrow"
             d="M 11.500037,31.436501 C 11.940474,20.09759 22.043105,11.32322 32.158766,21.979434 L 37.068811,17.246167 C 37.068811,17.246167 37.088388,32 37.088388,32 L 22.160133,31.978069 C 22.160133,31.978069 26.997745,27.140456 26.997745,27.140456 C 18.528582,18.264221 13.291696,25.230495 11.500037,31.436501 z"
             style="fill:#404040;"/>
          </a>
         </g>
        </svg>
</svg>
