<?xml version="1.0" encoding="UTF-8" standalone="no"?>
<!DOCTYPE svg PUBLIC "-//W3C//DTD SVG 1.1//EN"
 "http://www.w3.org/Graphics/SVG/1.1/DTD/svg11.dtd">
<!-- Generated by graphviz version 7.0.5 (20221223.1930)
 -->
<!-- Title: dScnPly_env_HIO_c Pages: 1 -->
<svg width="308pt" height="306pt"
 viewBox="0.00 0.00 307.50 306.00" xmlns="http://www.w3.org/2000/svg" xmlns:xlink="http://www.w3.org/1999/xlink">
<g id="graph0" class="graph" transform="scale(1 1) rotate(0) translate(4 302)">
<title>dScnPly_env_HIO_c</title>
<!-- Node1 -->
<g id="node1" class="node">
<title>Node1</title>
<g id="a_node1"><a xlink:title=" ">
<polygon fill="#999999" stroke="#666666" points="147,-19 40,-19 40,0 147,0 147,-19"/>
<text text-anchor="middle" x="93.5" y="-7" font-family="Helvetica,sans-Serif" font-size="10.00">dScnPly_env_HIO_c</text>
</a>
</g>
</g>
<!-- Node2 -->
<g id="node2" class="node">
<title>Node2</title>
<g id="a_node2"><a xlink:href="classdScnPly__env__otherHIO__c.html" target="_top" xlink:title=" ">
<polygon fill="white" stroke="#666666" points="129,-85 0,-85 0,-66 129,-66 129,-85"/>
<text text-anchor="middle" x="64.5" y="-73" font-family="Helvetica,sans-Serif" font-size="10.00">dScnPly_env_otherHIO_c</text>
</a>
</g>
</g>
<!-- Node2&#45;&gt;Node1 -->
<g id="edge1" class="edge">
<title>Node2&#45;&gt;Node1</title>
<path fill="none" stroke="#9a32cd" stroke-dasharray="5,2" d="M73.2,-55.3C78.61,-43.35 85.32,-28.56 89.5,-19.32"/>
<polygon fill="#9a32cd" stroke="#9a32cd" points="70.1,-53.67 69.16,-64.22 76.47,-56.56 70.1,-53.67"/>
<text text-anchor="middle" x="99" y="-40" font-family="Helvetica,sans-Serif" font-size="10.00"> mOther</text>
</g>
<!-- Node3 -->
<g id="node3" class="node">
<title>Node3</title>
<g id="a_node3"><a xlink:href="classdScnPly__env__debugHIO__c.html" target="_top" xlink:title=" ">
<polygon fill="white" stroke="#666666" points="281.5,-85 147.5,-85 147.5,-66 281.5,-66 281.5,-85"/>
<text text-anchor="middle" x="214.5" y="-73" font-family="Helvetica,sans-Serif" font-size="10.00">dScnPly_env_debugHIO_c</text>
</a>
</g>
</g>
<!-- Node3&#45;&gt;Node1 -->
<g id="edge2" class="edge">
<title>Node3&#45;&gt;Node1</title>
<path fill="none" stroke="#9a32cd" stroke-dasharray="5,2" d="M187.59,-60.26C163.9,-47.74 130.16,-29.89 110.18,-19.32"/>
<polygon fill="#9a32cd" stroke="#9a32cd" points="185.86,-63.31 196.34,-64.89 189.13,-57.12 185.86,-63.31"/>
<text text-anchor="middle" x="180" y="-40" font-family="Helvetica,sans-Serif" font-size="10.00"> mDebug</text>
</g>
<!-- Node4 -->
<g id="node4" class="node">
<title>Node4</title>
<g id="a_node4"><a xlink:href="structcXyz.html" target="_top" xlink:title=" ">
<polygon fill="white" stroke="#666666" points="233.5,-207.5 195.5,-207.5 195.5,-188.5 233.5,-188.5 233.5,-207.5"/>
<text text-anchor="middle" x="214.5" y="-195.5" font-family="Helvetica,sans-Serif" font-size="10.00">cXyz</text>
</a>
</g>
</g>
<!-- Node4&#45;&gt;Node3 -->
<g id="edge3" class="edge">
<title>Node4&#45;&gt;Node3</title>
<path fill="none" stroke="#9a32cd" stroke-dasharray="5,2" d="M214.5,-177.05C214.5,-150.49 214.5,-104.66 214.5,-85.41"/>
<polygon fill="#9a32cd" stroke="#9a32cd" points="211,-176.82 214.5,-186.82 218,-176.82 211,-176.82"/>
<text text-anchor="middle" x="257" y="-128" font-family="Helvetica,sans-Serif" font-size="10.00"> mBoxCullMaxSize</text>
<text text-anchor="middle" x="257" y="-117" font-family="Helvetica,sans-Serif" font-size="10.00">mBoxCullMinSize</text>
<text text-anchor="middle" x="257" y="-106" font-family="Helvetica,sans-Serif" font-size="10.00">mSphereCullCenter</text>
</g>
<!-- Node4&#45;&gt;Node4 -->
<g id="edge5" class="edge">
<title>Node4&#45;&gt;Node4</title>
<path fill="none" stroke="#9a32cd" stroke-dasharray="5,2" d="M239.12,-209.67C246.12,-209.19 251.5,-205.3 251.5,-198 251.5,-187.14 239.57,-183.83 228.16,-188.07"/>
<polygon fill="#9a32cd" stroke="#9a32cd" points="240.08,-206.28 229.66,-208.17 238.99,-213.19 240.08,-206.28"/>
<text text-anchor="middle" x="273" y="-234" font-family="Helvetica,sans-Serif" font-size="10.00"> BaseX</text>
<text text-anchor="middle" x="273" y="-223" font-family="Helvetica,sans-Serif" font-size="10.00">BaseXY</text>
<text text-anchor="middle" x="273" y="-212" font-family="Helvetica,sans-Serif" font-size="10.00">BaseXYZ</text>
<text text-anchor="middle" x="273" y="-201" font-family="Helvetica,sans-Serif" font-size="10.00">BaseXZ</text>
<text text-anchor="middle" x="273" y="-190" font-family="Helvetica,sans-Serif" font-size="10.00">BaseY</text>
<text text-anchor="middle" x="273" y="-179" font-family="Helvetica,sans-Serif" font-size="10.00">BaseYZ</text>
<text text-anchor="middle" x="273" y="-168" font-family="Helvetica,sans-Serif" font-size="10.00">BaseZ</text>
<text text-anchor="middle" x="273" y="-157" font-family="Helvetica,sans-Serif" font-size="10.00">Zero</text>
</g>
<!-- Node5 -->
<g id="node5" class="node">
<title>Node5</title>
<g id="a_node5"><a xlink:href="structVec.html" target="_top" xlink:title=" ">
<polygon fill="white" stroke="#666666" points="231.5,-298 197.5,-298 197.5,-279 231.5,-279 231.5,-298"/>
<text text-anchor="middle" x="214.5" y="-286" font-family="Helvetica,sans-Serif" font-size="10.00">Vec</text>
</a>
</g>
</g>
<!-- Node5&#45;&gt;Node4 -->
<g id="edge4" class="edge">
<title>Node5&#45;&gt;Node4</title>
<path fill="none" stroke="#63b8ff" d="M214.5,-267.3C214.5,-248.55 214.5,-221.53 214.5,-207.77"/>
<polygon fill="#63b8ff" stroke="#63b8ff" points="211,-267.18 214.5,-277.18 218,-267.18 211,-267.18"/>
</g>
</g>
</svg>
