<?xml version="1.0" encoding="UTF-8" standalone="no"?>
<!DOCTYPE svg PUBLIC "-//W3C//DTD SVG 1.1//EN"
 "http://www.w3.org/Graphics/SVG/1.1/DTD/svg11.dtd">
<!-- Generated by graphviz version 7.0.5 (20221223.1930)
 -->
<!-- Title: J3DTevBlock1 Pages: 1 -->
<svg width="377pt" height="149pt"
 viewBox="0.00 0.00 377.00 149.00" xmlns="http://www.w3.org/2000/svg" xmlns:xlink="http://www.w3.org/1999/xlink">
<g id="graph0" class="graph" transform="scale(1 1) rotate(0) translate(4 145)">
<title>J3DTevBlock1</title>
<!-- Node1 -->
<g id="node1" class="node">
<title>Node1</title>
<g id="a_node1"><a xlink:title=" ">
<polygon fill="#999999" stroke="#666666" points="216.5,-19 136.5,-19 136.5,0 216.5,0 216.5,-19"/>
<text text-anchor="middle" x="176.5" y="-7" font-family="Helvetica,sans-Serif" font-size="10.00">J3DTevBlock1</text>
</a>
</g>
</g>
<!-- Node2 -->
<g id="node2" class="node">
<title>Node2</title>
<g id="a_node2"><a xlink:href="structJ3DTevBlock.html" target="_top" xlink:title=" ">
<polygon fill="white" stroke="#666666" points="75,-85 0,-85 0,-66 75,-66 75,-85"/>
<text text-anchor="middle" x="37.5" y="-73" font-family="Helvetica,sans-Serif" font-size="10.00">J3DTevBlock</text>
</a>
</g>
</g>
<!-- Node2&#45;&gt;Node1 -->
<g id="edge1" class="edge">
<title>Node2&#45;&gt;Node1</title>
<path fill="none" stroke="#63b8ff" d="M66.96,-60.94C94.22,-48.38 133.97,-30.08 157.34,-19.32"/>
<polygon fill="#63b8ff" stroke="#63b8ff" points="65.82,-57.61 58.2,-64.97 68.75,-63.96 65.82,-57.61"/>
</g>
<!-- Node3 -->
<g id="node3" class="node">
<title>Node3</title>
<g id="a_node3"><a xlink:href="structJ3DTevOrder.html" target="_top" xlink:title=" ">
<polygon fill="white" stroke="#666666" points="167.5,-85 93.5,-85 93.5,-66 167.5,-66 167.5,-85"/>
<text text-anchor="middle" x="130.5" y="-73" font-family="Helvetica,sans-Serif" font-size="10.00">J3DTevOrder</text>
</a>
</g>
</g>
<!-- Node3&#45;&gt;Node1 -->
<g id="edge2" class="edge">
<title>Node3&#45;&gt;Node1</title>
<path fill="none" stroke="#9a32cd" stroke-dasharray="5,2" d="M133.22,-54.48C134.7,-48.49 136.98,-42.16 140.5,-37 145.4,-29.82 152.9,-23.85 159.79,-19.4"/>
<polygon fill="#9a32cd" stroke="#9a32cd" points="129.78,-53.83 131.44,-64.29 136.67,-55.08 129.78,-53.83"/>
<text text-anchor="middle" x="166.5" y="-40" font-family="Helvetica,sans-Serif" font-size="10.00"> mTevOrder</text>
</g>
<!-- Node4 -->
<g id="node4" class="node">
<title>Node4</title>
<g id="a_node4"><a xlink:href="structJ3DTevOrderInfo.html" target="_top" xlink:title=" ">
<polygon fill="white" stroke="#666666" points="168,-141 77,-141 77,-122 168,-122 168,-141"/>
<text text-anchor="middle" x="122.5" y="-129" font-family="Helvetica,sans-Serif" font-size="10.00">J3DTevOrderInfo</text>
</a>
</g>
</g>
<!-- Node4&#45;&gt;Node3 -->
<g id="edge3" class="edge">
<title>Node4&#45;&gt;Node3</title>
<path fill="none" stroke="#63b8ff" d="M125.48,-110.41C126.76,-101.74 128.2,-92.05 129.2,-85.25"/>
<polygon fill="#63b8ff" stroke="#63b8ff" points="122.05,-109.68 124.04,-120.09 128.97,-110.71 122.05,-109.68"/>
</g>
<!-- Node5 -->
<g id="node5" class="node">
<title>Node5</title>
<g id="a_node5"><a xlink:href="structJ3DTevStage.html" target="_top" xlink:title=" ">
<polygon fill="white" stroke="#666666" points="261.5,-85 185.5,-85 185.5,-66 261.5,-66 261.5,-85"/>
<text text-anchor="middle" x="223.5" y="-73" font-family="Helvetica,sans-Serif" font-size="10.00">J3DTevStage</text>
</a>
</g>
</g>
<!-- Node5&#45;&gt;Node1 -->
<g id="edge4" class="edge">
<title>Node5&#45;&gt;Node1</title>
<path fill="none" stroke="#9a32cd" stroke-dasharray="5,2" d="M210.2,-56.4C201.3,-44.27 189.97,-28.84 182.98,-19.32"/>
<polygon fill="#9a32cd" stroke="#9a32cd" points="207.33,-58.39 216.07,-64.38 212.97,-54.25 207.33,-58.39"/>
<text text-anchor="middle" x="229" y="-40" font-family="Helvetica,sans-Serif" font-size="10.00"> mTevStage</text>
</g>
<!-- Node6 -->
<g id="node6" class="node">
<title>Node6</title>
<g id="a_node6"><a xlink:href="structJ3DTevStageInfo.html" target="_top" xlink:title=" ">
<polygon fill="white" stroke="#666666" points="278.5,-141 186.5,-141 186.5,-122 278.5,-122 278.5,-141"/>
<text text-anchor="middle" x="232.5" y="-129" font-family="Helvetica,sans-Serif" font-size="10.00">J3DTevStageInfo</text>
</a>
</g>
</g>
<!-- Node6&#45;&gt;Node5 -->
<g id="edge5" class="edge">
<title>Node6&#45;&gt;Node5</title>
<path fill="none" stroke="#63b8ff" d="M229.15,-110.41C227.71,-101.74 226.09,-92.05 224.96,-85.25"/>
<polygon fill="#63b8ff" stroke="#63b8ff" points="225.67,-110.8 230.76,-120.09 232.57,-109.65 225.67,-110.8"/>
</g>
<!-- Node7 -->
<g id="node7" class="node">
<title>Node7</title>
<g id="a_node7"><a xlink:href="structJ3DIndTevStage.html" target="_top" xlink:title=" ">
<polygon fill="white" stroke="#666666" points="369,-85 280,-85 280,-66 369,-66 369,-85"/>
<text text-anchor="middle" x="324.5" y="-73" font-family="Helvetica,sans-Serif" font-size="10.00">J3DIndTevStage</text>
</a>
</g>
</g>
<!-- Node7&#45;&gt;Node1 -->
<g id="edge6" class="edge">
<title>Node7&#45;&gt;Node1</title>
<path fill="none" stroke="#9a32cd" stroke-dasharray="5,2" d="M301.26,-59.47C289.14,-52.05 273.88,-43.35 259.5,-37 243.73,-30.03 225.54,-24.01 210.22,-19.48"/>
<polygon fill="#9a32cd" stroke="#9a32cd" points="299.39,-62.42 309.72,-64.76 303.1,-56.49 299.39,-62.42"/>
<text text-anchor="middle" x="313" y="-40" font-family="Helvetica,sans-Serif" font-size="10.00"> mIndTevStage</text>
</g>
</g>
</svg>
