<?xml version="1.0" encoding="UTF-8" standalone="no"?>
<!DOCTYPE svg PUBLIC "-//W3C//DTD SVG 1.1//EN"
 "http://www.w3.org/Graphics/SVG/1.1/DTD/svg11.dtd">
<!-- Generated by graphviz version 7.0.5 (20221223.1930)
 -->
<!-- Title: JAUSeqDataMgr_SeqCollection Pages: 1 -->
<svg width="316pt" height="159pt"
 viewBox="0.00 0.00 316.00 159.00" xmlns="http://www.w3.org/2000/svg" xmlns:xlink="http://www.w3.org/1999/xlink">
<g id="graph0" class="graph" transform="scale(1 1) rotate(0) translate(4 155)">
<title>JAUSeqDataMgr_SeqCollection</title>
<!-- Node1 -->
<g id="node1" class="node">
<title>Node1</title>
<g id="a_node1"><a xlink:title=" ">
<polygon fill="#999999" stroke="#666666" points="229.5,-19 74.5,-19 74.5,0 229.5,0 229.5,-19"/>
<text text-anchor="middle" x="152" y="-7" font-family="Helvetica,sans-Serif" font-size="10.00">JAUSeqDataMgr_SeqCollection</text>
</a>
</g>
</g>
<!-- Node2 -->
<g id="node2" class="node">
<title>Node2</title>
<g id="a_node2"><a xlink:href="structJAISeqDataMgr.html" target="_top" xlink:title=" ">
<polygon fill="white" stroke="#666666" points="86,-85 0,-85 0,-66 86,-66 86,-85"/>
<text text-anchor="middle" x="43" y="-73" font-family="Helvetica,sans-Serif" font-size="10.00">JAISeqDataMgr</text>
</a>
</g>
</g>
<!-- Node2&#45;&gt;Node1 -->
<g id="edge1" class="edge">
<title>Node2&#45;&gt;Node1</title>
<path fill="none" stroke="#63b8ff" d="M67.82,-59.92C89.13,-47.42 119.13,-29.8 136.97,-19.32"/>
<polygon fill="#63b8ff" stroke="#63b8ff" points="66.31,-56.75 59.46,-64.83 69.86,-62.79 66.31,-56.75"/>
</g>
<!-- Node3 -->
<g id="node3" class="node">
<title>Node3</title>
<g id="a_node3"><a xlink:href="classJAUSeqCollection.html" target="_top" xlink:title=" ">
<polygon fill="white" stroke="#666666" points="200,-85 104,-85 104,-66 200,-66 200,-85"/>
<text text-anchor="middle" x="152" y="-73" font-family="Helvetica,sans-Serif" font-size="10.00">JAUSeqCollection</text>
</a>
</g>
</g>
<!-- Node3&#45;&gt;Node1 -->
<g id="edge2" class="edge">
<title>Node3&#45;&gt;Node1</title>
<path fill="none" stroke="#63b8ff" d="M152,-54.18C152,-42.44 152,-28.27 152,-19.32"/>
<polygon fill="#63b8ff" stroke="#63b8ff" points="148.5,-54.09 152,-64.09 155.5,-54.09 148.5,-54.09"/>
</g>
<!-- Node4 -->
<g id="node4" class="node">
<title>Node4</title>
<g id="a_node4"><a xlink:href="structJAUSeqCollectionData.html" target="_top" xlink:title=" ">
<polygon fill="white" stroke="#666666" points="210,-151 94,-151 94,-132 210,-132 210,-151"/>
<text text-anchor="middle" x="152" y="-139" font-family="Helvetica,sans-Serif" font-size="10.00">JAUSeqCollectionData</text>
</a>
</g>
</g>
<!-- Node4&#45;&gt;Node3 -->
<g id="edge3" class="edge">
<title>Node4&#45;&gt;Node3</title>
<path fill="none" stroke="#9a32cd" stroke-dasharray="5,2" d="M152,-120.18C152,-108.44 152,-94.27 152,-85.32"/>
<polygon fill="#9a32cd" stroke="#9a32cd" points="148.5,-120.09 152,-130.09 155.5,-120.09 148.5,-120.09"/>
<text text-anchor="middle" x="172" y="-106" font-family="Helvetica,sans-Serif" font-size="10.00"> field_0x8</text>
</g>
<!-- Node5 -->
<g id="node5" class="node">
<title>Node5</title>
<g id="a_node5"><a xlink:href="structJAISeqDataUser.html" target="_top" xlink:title=" ">
<polygon fill="white" stroke="#666666" points="308,-85 218,-85 218,-66 308,-66 308,-85"/>
<text text-anchor="middle" x="263" y="-73" font-family="Helvetica,sans-Serif" font-size="10.00">JAISeqDataUser</text>
</a>
</g>
</g>
<!-- Node5&#45;&gt;Node1 -->
<g id="edge4" class="edge">
<title>Node5&#45;&gt;Node1</title>
<path fill="none" stroke="#9a32cd" stroke-dasharray="5,2" d="M237.72,-59.92C216.03,-47.42 185.47,-29.8 167.3,-19.32"/>
<polygon fill="#9a32cd" stroke="#9a32cd" points="235.84,-62.88 246.25,-64.85 239.34,-56.82 235.84,-62.88"/>
<text text-anchor="middle" x="228.5" y="-40" font-family="Helvetica,sans-Serif" font-size="10.00"> user_</text>
</g>
</g>
</svg>
