<?xml version="1.0" encoding="UTF-8" standalone="no"?>
<!DOCTYPE svg PUBLIC "-//W3C//DTD SVG 1.1//EN"
 "http://www.w3.org/Graphics/SVG/1.1/DTD/svg11.dtd">
<!-- Generated by graphviz version 7.0.5 (20221223.1930)
 -->
<!-- Title: JStudio::TFunctionValue_composite Pages: 1 -->
<!--zoomable 124 -->
<svg id="main" version="1.1" xmlns="http://www.w3.org/2000/svg" xmlns:xlink="http://www.w3.org/1999/xlink" xml:space="preserve" onload="init(evt)">
<style type="text/css"><![CDATA[
.edge:hover path { stroke: red; }
.edge:hover polygon { stroke: red; fill: red; }
]]></style>
<script type="text/javascript"><![CDATA[
var edges = document.getElementsByTagName('g');
if (edges && edges.length) {
  for (var i=0;i<edges.length;i++) {
    if (edges[i].id.substr(0,4)=='edge') {
      edges[i].setAttribute('class','edge');
    }
  }
}
]]></script>
        <defs>
                <circle id="rim" cx="0" cy="0" r="7"/>
                <circle id="rim2" cx="0" cy="0" r="3.5"/>
                <g id="zoomPlus">
                        <use xlink:href="#rim" fill="#404040">
                                <set attributeName="fill" to="#808080" begin="zoomplus.mouseover" end="zoomplus.mouseout"/>
                        </use>
                        <path d="M-4,0h8M0,-4v8" fill="none" stroke="white" stroke-width="1.5" pointer-events="none"/>
                </g>
                <g id="zoomMin">
                        <use xlink:href="#rim" fill="#404040">
                                <set attributeName="fill" to="#808080" begin="zoomminus.mouseover" end="zoomminus.mouseout"/>
                        </use>
                        <path d="M-4,0h8" fill="none" stroke="white" stroke-width="1.5" pointer-events="none"/>
                </g>
                <g id="dirArrow">
                        <path fill="none" stroke="white" stroke-width="1.5" d="M0,-3.0v7 M-2.5,-0.5L0,-3.0L2.5,-0.5"/>
                </g>
               <g id="resetDef">
                       <use xlink:href="#rim2" fill="#404040">
                               <set attributeName="fill" to="#808080" begin="reset.mouseover" end="reset.mouseout"/>
                       </use>
               </g>
        </defs>

<script type="text/javascript">
var viewWidth = 854;
var viewHeight = 124;
var sectionId = 'dynsection-1';
</script>
<script xlink:href="svgpan.js"/>
<svg id="graph" class="graph">
<g id="viewport">
<title>JStudio::TFunctionValue_composite</title>
<!-- Node1 -->
<g id="node1" class="node">
<title>Node1</title>
<g id="a_node1"><a xlink:title=" ">
<polygon fill="#999999" stroke="#666666" points="846,-80 724,-80 724,-50 846,-50 846,-80"/>
<text text-anchor="start" x="732" y="-68" font-family="Helvetica,sans-Serif" font-size="10.00">JStudio::TFunctionValue</text>
<text text-anchor="middle" x="785" y="-57" font-family="Helvetica,sans-Serif" font-size="10.00">_composite</text>
</a>
</g>
</g>
<!-- Node2 -->
<g id="node2" class="node">
<title>Node2</title>
<g id="a_node2"><a xlink:href="classJStudio_1_1TFunctionValue.html" target="_top" xlink:title=" ">
<polygon fill="white" stroke="#666666" points="647.5,-115.5 525.5,-115.5 525.5,-96.5 647.5,-96.5 647.5,-115.5"/>
<text text-anchor="middle" x="586.5" y="-103.5" font-family="Helvetica,sans-Serif" font-size="10.00">JStudio::TFunctionValue</text>
</a>
</g>
</g>
<!-- Node2&#45;&gt;Node1 -->
<g id="edge1" class="edge">
<title>Node2&#45;&gt;Node1</title>
<path fill="none" stroke="#63b8ff" d="M646.57,-93.67C670.92,-88.59 699.12,-82.71 723.61,-77.6"/>
<polygon fill="#63b8ff" stroke="#63b8ff" points="645.87,-90.24 636.8,-95.71 647.3,-97.1 645.87,-90.24"/>
</g>
<!-- Node3 -->
<g id="node3" class="node">
<title>Node3</title>
<g id="a_node3"><a xlink:href="classJStudio_1_1TFunctionValueAttribute__refer.html" target="_top" xlink:title=" ">
<polygon fill="white" stroke="#666666" points="666,-78 507,-78 507,-48 666,-48 666,-78"/>
<text text-anchor="start" x="515" y="-66" font-family="Helvetica,sans-Serif" font-size="10.00">JStudio::TFunctionValueAttribute</text>
<text text-anchor="middle" x="586.5" y="-55" font-family="Helvetica,sans-Serif" font-size="10.00">_refer</text>
</a>
</g>
</g>
<!-- Node3&#45;&gt;Node1 -->
<g id="edge2" class="edge">
<title>Node3&#45;&gt;Node1</title>
<path fill="none" stroke="#63b8ff" d="M677.79,-63.94C679.88,-63.96 681.95,-63.98 684,-64 696.85,-64.13 710.62,-64.27 723.72,-64.4"/>
<polygon fill="#63b8ff" stroke="#63b8ff" points="678.04,-60.44 668.01,-63.84 677.97,-67.44 678.04,-60.44"/>
</g>
<!-- Node3&#45;&gt;Node1 -->
<g id="edge6" class="edge">
<title>Node3&#45;&gt;Node1</title>
<path fill="none" stroke="#9a32cd" stroke-dasharray="5,2" d="M677.46,-50.3C687.09,-50.01 696.75,-50.18 706,-51 711.76,-51.51 717.72,-52.23 723.68,-53.08"/>
<polygon fill="#9a32cd" stroke="#9a32cd" points="677.53,-46.79 667.71,-50.76 677.86,-53.78 677.53,-46.79"/>
<text text-anchor="middle" x="695" y="-54" font-family="Helvetica,sans-Serif" font-size="10.00"> pfn_</text>
</g>
<!-- Node4 -->
<g id="node4" class="node">
<title>Node4</title>
<g id="a_node4"><a xlink:href="structJGadget_1_1TVector__pointer.html" target="_top" xlink:title=" ">
<polygon fill="white" stroke="#666666" points="470,-78 343,-78 343,-48 470,-48 470,-78"/>
<text text-anchor="start" x="351" y="-66" font-family="Helvetica,sans-Serif" font-size="10.00">JGadget::TVector_pointer</text>
<text text-anchor="middle" x="406.5" y="-55" font-family="Helvetica,sans-Serif" font-size="10.00">&lt; TFunctionValue * &gt;</text>
</a>
</g>
</g>
<!-- Node4&#45;&gt;Node3 -->
<g id="edge3" class="edge">
<title>Node4&#45;&gt;Node3</title>
<path fill="none" stroke="#63b8ff" d="M481.5,-63C489.85,-63 498.38,-63 506.78,-63"/>
<polygon fill="#63b8ff" stroke="#63b8ff" points="481.77,-59.5 471.77,-63 481.77,-66.5 481.77,-59.5"/>
</g>
<!-- Node5 -->
<g id="node5" class="node">
<title>Node5</title>
<g id="a_node5"><a xlink:href="structJGadget_1_1TVector__pointer__void.html" target="_top" xlink:title=" ">
<polygon fill="white" stroke="#666666" points="306,-72.5 156,-72.5 156,-53.5 306,-53.5 306,-72.5"/>
<text text-anchor="middle" x="231" y="-60.5" font-family="Helvetica,sans-Serif" font-size="10.00">JGadget::TVector_pointer_void</text>
</a>
</g>
</g>
<!-- Node5&#45;&gt;Node4 -->
<g id="edge4" class="edge">
<title>Node5&#45;&gt;Node4</title>
<path fill="none" stroke="#63b8ff" d="M317.7,-63C326.06,-63 334.43,-63 342.5,-63"/>
<polygon fill="#63b8ff" stroke="#63b8ff" points="317.85,-59.5 307.85,-63 317.85,-66.5 317.85,-59.5"/>
</g>
<!-- Node6 -->
<g id="node6" class="node">
<title>Node6</title>
<g id="a_node6"><a xlink:href="structJGadget_1_1TVector.html" target="_top" xlink:title=" ">
<polygon fill="white" stroke="#666666" points="119,-78 0,-78 0,-48 119,-48 119,-78"/>
<text text-anchor="start" x="8" y="-66" font-family="Helvetica,sans-Serif" font-size="10.00">JGadget::TVector&lt; void</text>
<text text-anchor="middle" x="59.5" y="-55" font-family="Helvetica,sans-Serif" font-size="10.00"> *, TAllocator &gt;</text>
</a>
</g>
</g>
<!-- Node6&#45;&gt;Node5 -->
<g id="edge5" class="edge">
<title>Node6&#45;&gt;Node5</title>
<path fill="none" stroke="#63b8ff" d="M130.8,-63C139.04,-63 147.48,-63 155.77,-63"/>
<polygon fill="#63b8ff" stroke="#63b8ff" points="130.82,-59.5 120.82,-63 130.82,-66.5 130.82,-59.5"/>
</g>
<!-- Node7 -->
<g id="node7" class="node">
<title>Node7</title>
<g id="a_node7"><a xlink:href="structJStudio_1_1TFunctionValue__composite_1_1TData.html" target="_top" xlink:title=" ">
<polygon fill="white" stroke="#666666" points="647.5,-30 525.5,-30 525.5,0 647.5,0 647.5,-30"/>
<text text-anchor="start" x="533.5" y="-18" font-family="Helvetica,sans-Serif" font-size="10.00">JStudio::TFunctionValue</text>
<text text-anchor="middle" x="586.5" y="-7" font-family="Helvetica,sans-Serif" font-size="10.00">_composite::TData</text>
</a>
</g>
</g>
<!-- Node7&#45;&gt;Node1 -->
<g id="edge7" class="edge">
<title>Node7&#45;&gt;Node1</title>
<path fill="none" stroke="#9a32cd" stroke-dasharray="5,2" d="M659.13,-25.54C674.7,-28.43 690.99,-31.92 706,-36 719.52,-39.68 734,-44.73 746.76,-49.59"/>
<polygon fill="#9a32cd" stroke="#9a32cd" points="659.9,-22.13 649.44,-23.81 658.67,-29.02 659.9,-22.13"/>
<text text-anchor="middle" x="695" y="-39" font-family="Helvetica,sans-Serif" font-size="10.00"> data</text>
</g>
</g>
</svg>
        <g id="navigator" transform="translate(0 0)" fill="#404254">
                <rect fill="#f2f5e9" fill-opacity="0.5" stroke="#606060" stroke-width=".5" x="0" y="0" width="60" height="60"/>
                <use id="zoomplus" xlink:href="#zoomPlus" x="17" y="9" onmousedown="handleZoom(evt,'in')"/>
                <use id="zoomminus" xlink:href="#zoomMin" x="42" y="9" onmousedown="handleZoom(evt,'out')"/>
                <use id="reset" xlink:href="#resetDef" x="30" y="36" onmousedown="handleReset()"/>
                <g id="arrowUp" xlink:href="#dirArrow" transform="translate(30 24)" onmousedown="handlePan(0,-1)">
                  <use xlink:href="#rim" fill="#404040">
                        <set attributeName="fill" to="#808080" begin="arrowUp.mouseover" end="arrowUp.mouseout"/>
                  </use>
                  <path fill="none" stroke="white" stroke-width="1.5" d="M0,-3.0v7 M-2.5,-0.5L0,-3.0L2.5,-0.5"/>
                </g>
                <g id="arrowRight" xlink:href="#dirArrow" transform="rotate(90) translate(36 -43)" onmousedown="handlePan(1,0)">
                  <use xlink:href="#rim" fill="#404040">
                        <set attributeName="fill" to="#808080" begin="arrowRight.mouseover" end="arrowRight.mouseout"/>
                  </use>
                  <path fill="none" stroke="white" stroke-width="1.5" d="M0,-3.0v7 M-2.5,-0.5L0,-3.0L2.5,-0.5"/>
                </g>
                <g id="arrowDown" xlink:href="#dirArrow" transform="rotate(180) translate(-30 -48)" onmousedown="handlePan(0,1)">
                  <use xlink:href="#rim" fill="#404040">
                        <set attributeName="fill" to="#808080" begin="arrowDown.mouseover" end="arrowDown.mouseout"/>
                  </use>
                  <path fill="none" stroke="white" stroke-width="1.5" d="M0,-3.0v7 M-2.5,-0.5L0,-3.0L2.5,-0.5"/>
                </g>
                <g id="arrowLeft" xlink:href="#dirArrow" transform="rotate(270) translate(-36 17)" onmousedown="handlePan(-1,0)">
                  <use xlink:href="#rim" fill="#404040">
                        <set attributeName="fill" to="#808080" begin="arrowLeft.mouseover" end="arrowLeft.mouseout"/>
                  </use>
                  <path fill="none" stroke="white" stroke-width="1.5" d="M0,-3.0v7 M-2.5,-0.5L0,-3.0L2.5,-0.5"/>
                </g>
        </g>
        <svg viewBox="0 0 15 15" width="100%" height="30px" preserveAspectRatio="xMaxYMin meet">
         <g id="arrow_out" transform="scale(0.3 0.3)">
          <a xlink:href="classJStudio_1_1TFunctionValue__composite__coll__graph_org.svg" target="_base">
           <rect id="button" ry="5" rx="5" y="6" x="6" height="38" width="38"
                fill="#f2f5e9" fill-opacity="0.5" stroke="#606060" stroke-width="1.0"/>
           <path id="arrow"
             d="M 11.500037,31.436501 C 11.940474,20.09759 22.043105,11.32322 32.158766,21.979434 L 37.068811,17.246167 C 37.068811,17.246167 37.088388,32 37.088388,32 L 22.160133,31.978069 C 22.160133,31.978069 26.997745,27.140456 26.997745,27.140456 C 18.528582,18.264221 13.291696,25.230495 11.500037,31.436501 z"
             style="fill:#404040;"/>
          </a>
         </g>
        </svg>
</svg>
