<?xml version="1.0" encoding="UTF-8" standalone="no"?>
<!DOCTYPE svg PUBLIC "-//W3C//DTD SVG 1.1//EN"
 "http://www.w3.org/Graphics/SVG/1.1/DTD/svg11.dtd">
<!-- Generated by graphviz version 7.0.5 (20221223.1930)
 -->
<!-- Title: dKyeff2_c Pages: 1 -->
<!--zoomable 727 -->
<svg id="main" version="1.1" xmlns="http://www.w3.org/2000/svg" xmlns:xlink="http://www.w3.org/1999/xlink" xml:space="preserve" onload="init(evt)">
<style type="text/css"><![CDATA[
.edge:hover path { stroke: red; }
.edge:hover polygon { stroke: red; fill: red; }
]]></style>
<script type="text/javascript"><![CDATA[
var edges = document.getElementsByTagName('g');
if (edges && edges.length) {
  for (var i=0;i<edges.length;i++) {
    if (edges[i].id.substr(0,4)=='edge') {
      edges[i].setAttribute('class','edge');
    }
  }
}
]]></script>
        <defs>
                <circle id="rim" cx="0" cy="0" r="7"/>
                <circle id="rim2" cx="0" cy="0" r="3.5"/>
                <g id="zoomPlus">
                        <use xlink:href="#rim" fill="#404040">
                                <set attributeName="fill" to="#808080" begin="zoomplus.mouseover" end="zoomplus.mouseout"/>
                        </use>
                        <path d="M-4,0h8M0,-4v8" fill="none" stroke="white" stroke-width="1.5" pointer-events="none"/>
                </g>
                <g id="zoomMin">
                        <use xlink:href="#rim" fill="#404040">
                                <set attributeName="fill" to="#808080" begin="zoomminus.mouseover" end="zoomminus.mouseout"/>
                        </use>
                        <path d="M-4,0h8" fill="none" stroke="white" stroke-width="1.5" pointer-events="none"/>
                </g>
                <g id="dirArrow">
                        <path fill="none" stroke="white" stroke-width="1.5" d="M0,-3.0v7 M-2.5,-0.5L0,-3.0L2.5,-0.5"/>
                </g>
               <g id="resetDef">
                       <use xlink:href="#rim2" fill="#404040">
                               <set attributeName="fill" to="#808080" begin="reset.mouseover" end="reset.mouseout"/>
                       </use>
               </g>
        </defs>

<script type="text/javascript">
var viewWidth = 1621;
var viewHeight = 727;
var sectionId = 'dynsection-1';
</script>
<script xlink:href="svgpan.js"/>
<svg id="graph" class="graph">
<g id="viewport">
<title>dKyeff2_c</title>
<!-- Node1 -->
<g id="node1" class="node">
<title>Node1</title>
<g id="a_node1"><a xlink:title=" ">
<polygon fill="#999999" stroke="#666666" points="1584,-205.23 1525,-205.23 1525,-186.23 1584,-186.23 1584,-205.23"/>
<text text-anchor="middle" x="1554.5" y="-193.23" font-family="Helvetica,sans-Serif" font-size="10.00">dKyeff2_c</text>
</a>
</g>
</g>
<!-- Node2 -->
<g id="node2" class="node">
<title>Node2</title>
<g id="a_node2"><a xlink:href="classkankyo__class.html" target="_top" xlink:title=" ">
<polygon fill="white" stroke="#666666" points="1383.5,-205.23 1307.5,-205.23 1307.5,-186.23 1383.5,-186.23 1383.5,-205.23"/>
<text text-anchor="middle" x="1345.5" y="-193.23" font-family="Helvetica,sans-Serif" font-size="10.00">kankyo_class</text>
</a>
</g>
</g>
<!-- Node2&#45;&gt;Node1 -->
<g id="edge1" class="edge">
<title>Node2&#45;&gt;Node1</title>
<path fill="none" stroke="#63b8ff" d="M1395.41,-195.73C1435.61,-195.73 1491.2,-195.73 1524.63,-195.73"/>
<polygon fill="#63b8ff" stroke="#63b8ff" points="1395.5,-192.23 1385.5,-195.73 1395.5,-199.23 1395.5,-192.23"/>
</g>
<!-- Node3 -->
<g id="node3" class="node">
<title>Node3</title>
<g id="a_node3"><a xlink:href="structleafdraw__class.html" target="_top" xlink:title=" ">
<polygon fill="white" stroke="#666666" points="1165.5,-320.23 1083.5,-320.23 1083.5,-301.23 1165.5,-301.23 1165.5,-320.23"/>
<text text-anchor="middle" x="1124.5" y="-308.23" font-family="Helvetica,sans-Serif" font-size="10.00">leafdraw_class</text>
</a>
</g>
</g>
<!-- Node3&#45;&gt;Node2 -->
<g id="edge2" class="edge">
<title>Node3&#45;&gt;Node2</title>
<path fill="none" stroke="#63b8ff" d="M1177.09,-310.11C1205.52,-307.77 1240.51,-301.47 1268,-285.73 1302.53,-265.97 1328.66,-224.47 1339.29,-205.54"/>
<polygon fill="#63b8ff" stroke="#63b8ff" points="1177,-306.61 1167.26,-310.77 1177.47,-313.59 1177,-306.61"/>
</g>
<!-- Node4 -->
<g id="node4" class="node">
<title>Node4</title>
<g id="a_node4"><a xlink:href="structbase__process__class.html" target="_top" xlink:title=" ">
<polygon fill="white" stroke="#666666" points="946.5,-393.23 840.5,-393.23 840.5,-374.23 946.5,-374.23 946.5,-393.23"/>
<text text-anchor="middle" x="893.5" y="-381.23" font-family="Helvetica,sans-Serif" font-size="10.00">base_process_class</text>
</a>
</g>
</g>
<!-- Node4&#45;&gt;Node3 -->
<g id="edge3" class="edge">
<title>Node4&#45;&gt;Node3</title>
<path fill="none" stroke="#9a32cd" stroke-dasharray="5,2" d="M916.46,-367.1C931.15,-356.79 951.32,-344.14 971,-336.73 1007.57,-322.97 1051.84,-316.45 1083.23,-313.39"/>
<polygon fill="#9a32cd" stroke="#9a32cd" points="914.51,-364.18 908.46,-372.88 918.62,-369.85 914.51,-364.18"/>
<text text-anchor="middle" x="1011" y="-339.73" font-family="Helvetica,sans-Serif" font-size="10.00"> mBase</text>
</g>
<!-- Node7 -->
<g id="node7" class="node">
<title>Node7</title>
<g id="a_node7"><a xlink:href="structcreate__request.html" target="_top" xlink:title=" ">
<polygon fill="white" stroke="#666666" points="1595,-349.23 1514,-349.23 1514,-330.23 1595,-330.23 1595,-349.23"/>
<text text-anchor="middle" x="1554.5" y="-337.23" font-family="Helvetica,sans-Serif" font-size="10.00">create_request</text>
</a>
</g>
</g>
<!-- Node4&#45;&gt;Node7 -->
<g id="edge14" class="edge">
<title>Node4&#45;&gt;Node7</title>
<path fill="none" stroke="#9a32cd" stroke-dasharray="5,2" d="M958.05,-381.18C1015.93,-378.73 1103.74,-374.66 1180,-369.73 1301.72,-361.86 1445.5,-349.43 1513.73,-343.34"/>
<polygon fill="#9a32cd" stroke="#9a32cd" points="958.24,-377.67 948.4,-381.59 958.54,-384.67 958.24,-377.67"/>
<text text-anchor="middle" x="1233" y="-370.73" font-family="Helvetica,sans-Serif" font-size="10.00"> mpRes</text>
</g>
<!-- Node16 -->
<g id="node16" class="node">
<title>Node16</title>
<g id="a_node16"><a xlink:href="structprocess__node__class.html" target="_top" xlink:title=" ">
<polygon fill="white" stroke="#666666" points="1177.5,-552.23 1071.5,-552.23 1071.5,-533.23 1177.5,-533.23 1177.5,-552.23"/>
<text text-anchor="middle" x="1124.5" y="-540.23" font-family="Helvetica,sans-Serif" font-size="10.00">process_node_class</text>
</a>
</g>
</g>
<!-- Node4&#45;&gt;Node16 -->
<g id="edge21" class="edge">
<title>Node4&#45;&gt;Node16</title>
<path fill="none" stroke="#9a32cd" stroke-dasharray="5,2" d="M911.04,-401.52C925.88,-416.92 948.69,-439.23 971,-455.73 1014.99,-488.27 1072.27,-517.95 1102.57,-532.79"/>
<polygon fill="#9a32cd" stroke="#9a32cd" points="913.76,-399.3 904.33,-394.45 908.68,-404.12 913.76,-399.3"/>
<text text-anchor="middle" x="1011" y="-506.73" font-family="Helvetica,sans-Serif" font-size="10.00"> mBase</text>
</g>
<!-- Node5 -->
<g id="node5" class="node">
<title>Node5</title>
<g id="a_node5"><a xlink:href="structprocess__profile__definition.html" target="_top" xlink:title=" ">
<polygon fill="white" stroke="#666666" points="673,-429.23 548,-429.23 548,-410.23 673,-410.23 673,-429.23"/>
<text text-anchor="middle" x="610.5" y="-417.23" font-family="Helvetica,sans-Serif" font-size="10.00">process_profile_definition</text>
</a>
</g>
</g>
<!-- Node5&#45;&gt;Node4 -->
<g id="edge4" class="edge">
<title>Node5&#45;&gt;Node4</title>
<path fill="none" stroke="#9a32cd" stroke-dasharray="5,2" d="M684.55,-411.18C723.58,-406.52 772.44,-400.53 816,-394.73 823.85,-393.69 832.14,-392.54 840.26,-391.4"/>
<polygon fill="#9a32cd" stroke="#9a32cd" points="684.31,-407.69 674.79,-412.35 685.14,-414.64 684.31,-407.69"/>
<text text-anchor="middle" x="753.5" y="-412.73" font-family="Helvetica,sans-Serif" font-size="10.00"> mpProf</text>
</g>
<!-- Node6 -->
<g id="node6" class="node">
<title>Node6</title>
<g id="a_node6"><a xlink:href="structprocess__method__class.html" target="_top" xlink:title=" ">
<polygon fill="white" stroke="#666666" points="452,-408.23 335,-408.23 335,-389.23 452,-389.23 452,-408.23"/>
<text text-anchor="middle" x="393.5" y="-396.23" font-family="Helvetica,sans-Serif" font-size="10.00">process_method_class</text>
</a>
</g>
</g>
<!-- Node6&#45;&gt;Node4 -->
<g id="edge39" class="edge">
<title>Node6&#45;&gt;Node4</title>
<path fill="none" stroke="#9a32cd" stroke-dasharray="5,2" d="M463.84,-394.65C490.19,-393.22 520.47,-391.73 548,-390.73 651.57,-386.98 772.74,-385.1 840.25,-384.28"/>
<polygon fill="#9a32cd" stroke="#9a32cd" points="463.73,-391.15 453.94,-395.2 464.12,-398.14 463.73,-391.15"/>
<text text-anchor="middle" x="610.5" y="-393.73" font-family="Helvetica,sans-Serif" font-size="10.00"> mpPcMtd</text>
</g>
<!-- Node6&#45;&gt;Node5 -->
<g id="edge5" class="edge">
<title>Node6&#45;&gt;Node5</title>
<path fill="none" stroke="#9a32cd" stroke-dasharray="5,2" d="M463.73,-405.5C490.75,-408.13 521.48,-411.14 547.73,-413.7"/>
<polygon fill="#9a32cd" stroke="#9a32cd" points="464.2,-402.02 453.91,-404.54 463.52,-408.99 464.2,-402.02"/>
<text text-anchor="middle" x="505" y="-413.73" font-family="Helvetica,sans-Serif" font-size="10.00"> mSubMtd</text>
</g>
<!-- Node17 -->
<g id="node17" class="node">
<title>Node17</title>
<g id="a_node17"><a xlink:href="structnodedraw__method__class.html" target="_top" xlink:title=" ">
<polygon fill="white" stroke="#666666" points="816,-541.23 691,-541.23 691,-522.23 816,-522.23 816,-541.23"/>
<text text-anchor="middle" x="753.5" y="-529.23" font-family="Helvetica,sans-Serif" font-size="10.00">nodedraw_method_class</text>
</a>
</g>
</g>
<!-- Node6&#45;&gt;Node17 -->
<g id="edge23" class="edge">
<title>Node6&#45;&gt;Node17</title>
<path fill="none" stroke="#9a32cd" stroke-dasharray="5,2" d="M431.88,-412.62C504.42,-439.57 662.68,-498.37 725.77,-521.8"/>
<polygon fill="#9a32cd" stroke="#9a32cd" points="433.42,-409.46 422.83,-409.26 430.98,-416.02 433.42,-409.46"/>
<text text-anchor="middle" x="505" y="-450.73" font-family="Helvetica,sans-Serif" font-size="10.00"> mBase</text>
</g>
<!-- Node23 -->
<g id="node23" class="node">
<title>Node23</title>
<g id="a_node23"><a xlink:href="structleafdraw__method__class.html" target="_top" xlink:title=" ">
<polygon fill="white" stroke="#666666" points="953,-274.23 834,-274.23 834,-255.23 953,-255.23 953,-274.23"/>
<text text-anchor="middle" x="893.5" y="-262.23" font-family="Helvetica,sans-Serif" font-size="10.00">leafdraw_method_class</text>
</a>
</g>
</g>
<!-- Node6&#45;&gt;Node23 -->
<g id="edge41" class="edge">
<title>Node6&#45;&gt;Node23</title>
<path fill="none" stroke="#9a32cd" stroke-dasharray="5,2" d="M462.03,-386.87C579.31,-366.15 808.93,-325.07 816,-319.73 830.28,-308.96 820.44,-295.4 834,-283.73 838.29,-280.04 843.31,-277.06 848.58,-274.66"/>
<polygon fill="#9a32cd" stroke="#9a32cd" points="461.77,-383.36 452.53,-388.54 462.99,-390.25 461.77,-383.36"/>
<text text-anchor="middle" x="610.5" y="-372.73" font-family="Helvetica,sans-Serif" font-size="10.00"> mBase</text>
</g>
<!-- Node7&#45;&gt;Node4 -->
<g id="edge6" class="edge">
<title>Node7&#45;&gt;Node4</title>
<path fill="none" stroke="#9a32cd" stroke-dasharray="5,2" d="M1502.3,-339.94C1448.44,-340.33 1361.23,-341.47 1286,-344.73 1164.19,-350.02 1021.91,-366.9 946.93,-376.63"/>
<polygon fill="#9a32cd" stroke="#9a32cd" points="1502.11,-343.44 1512.09,-339.88 1502.06,-336.44 1502.11,-343.44"/>
<text text-anchor="middle" x="1233" y="-352.73" font-family="Helvetica,sans-Serif" font-size="10.00"> mpCtRq</text>
</g>
<!-- Node8 -->
<g id="node8" class="node">
<title>Node8</title>
<g id="a_node8"><a xlink:href="structcreate__tag.html" target="_top" xlink:title=" ">
<polygon fill="white" stroke="#666666" points="784.5,-21.23 722.5,-21.23 722.5,-2.23 784.5,-2.23 784.5,-21.23"/>
<text text-anchor="middle" x="753.5" y="-9.23" font-family="Helvetica,sans-Serif" font-size="10.00">create_tag</text>
</a>
</g>
</g>
<!-- Node8&#45;&gt;Node7 -->
<g id="edge7" class="edge">
<title>Node8&#45;&gt;Node7</title>
<path fill="none" stroke="#9a32cd" stroke-dasharray="5,2" d="M796.2,-9.89C846.77,-7.82 934.62,-4.73 1010,-4.73 1010,-4.73 1010,-4.73 1346.5,-4.73 1405.99,-4.73 1437.89,14.2 1478,-29.73 1505.85,-60.24 1485.22,-174.86 1496,-214.73 1508.22,-259.93 1535.43,-309.19 1547.52,-329.8"/>
<polygon fill="#9a32cd" stroke="#9a32cd" points="796.13,-6.39 786.29,-10.3 796.43,-13.38 796.13,-6.39"/>
<text text-anchor="middle" x="1124.5" y="-7.73" font-family="Helvetica,sans-Serif" font-size="10.00"> mBase</text>
</g>
<!-- Node9 -->
<g id="node9" class="node">
<title>Node9</title>
<g id="a_node9"><a xlink:href="structcreate__tag__class.html" target="_top" xlink:title=" ">
<polygon fill="white" stroke="#666666" points="233,-257.23 142,-257.23 142,-238.23 233,-238.23 233,-257.23"/>
<text text-anchor="middle" x="187.5" y="-245.23" font-family="Helvetica,sans-Serif" font-size="10.00">create_tag_class</text>
</a>
</g>
</g>
<!-- Node9&#45;&gt;Node2 -->
<g id="edge43" class="edge">
<title>Node9&#45;&gt;Node2</title>
<path fill="none" stroke="#9a32cd" stroke-dasharray="5,2" d="M196.23,-227.15C206.02,-203.29 224.82,-163.9 251,-137.73 298.84,-89.92 324.87,-81.73 392.5,-81.73 392.5,-81.73 392.5,-81.73 1125.5,-81.73 1215.51,-81.73 1305.22,-158.45 1334.55,-186.01"/>
<polygon fill="#9a32cd" stroke="#9a32cd" points="193.01,-225.78 192.61,-236.36 199.53,-228.34 193.01,-225.78"/>
<text text-anchor="middle" x="753.5" y="-84.73" font-family="Helvetica,sans-Serif" font-size="10.00"> mDwTg</text>
</g>
<!-- Node9&#45;&gt;Node8 -->
<g id="edge8" class="edge">
<title>Node9&#45;&gt;Node8</title>
<path fill="none" stroke="#9a32cd" stroke-dasharray="5,2" d="M204.14,-229.5C227.6,-203.42 274.56,-155.95 325,-131.73 465.38,-64.34 650.39,-28.59 722.2,-16.5"/>
<polygon fill="#9a32cd" stroke="#9a32cd" points="201.59,-227.1 197.6,-236.92 206.84,-231.73 201.59,-227.1"/>
<text text-anchor="middle" x="393.5" y="-134.73" font-family="Helvetica,sans-Serif" font-size="10.00"> mBase</text>
</g>
<!-- Node11 -->
<g id="node11" class="node">
<title>Node11</title>
<g id="a_node11"><a xlink:href="structprocess__method__tag__class.html" target="_top" xlink:title=" ">
<polygon fill="white" stroke="#666666" points="447,-224.73 340,-224.73 340,-194.73 447,-194.73 447,-224.73"/>
<text text-anchor="start" x="348" y="-212.73" font-family="Helvetica,sans-Serif" font-size="10.00">process_method_tag</text>
<text text-anchor="middle" x="393.5" y="-201.73" font-family="Helvetica,sans-Serif" font-size="10.00">_class</text>
</a>
</g>
</g>
<!-- Node9&#45;&gt;Node11 -->
<g id="edge12" class="edge">
<title>Node9&#45;&gt;Node11</title>
<path fill="none" stroke="#9a32cd" stroke-dasharray="5,2" d="M244.42,-236.97C246.64,-236.55 248.84,-236.14 251,-235.73 280.33,-230.22 313.12,-224.19 339.73,-219.33"/>
<polygon fill="#9a32cd" stroke="#9a32cd" points="243.87,-233.52 234.7,-238.82 245.18,-240.39 243.87,-233.52"/>
<text text-anchor="middle" x="279" y="-238.73" font-family="Helvetica,sans-Serif" font-size="10.00"> mCreateTag</text>
</g>
<!-- Node18 -->
<g id="node18" class="node">
<title>Node18</title>
<g id="a_node18"><a xlink:href="structlayer__management__tag__class.html" target="_top" xlink:title=" ">
<polygon fill="white" stroke="#666666" points="1613,-610.73 1496,-610.73 1496,-580.73 1613,-580.73 1613,-610.73"/>
<text text-anchor="start" x="1504" y="-598.73" font-family="Helvetica,sans-Serif" font-size="10.00">layer_management_tag</text>
<text text-anchor="middle" x="1554.5" y="-587.73" font-family="Helvetica,sans-Serif" font-size="10.00">_class</text>
</a>
</g>
</g>
<!-- Node9&#45;&gt;Node18 -->
<g id="edge28" class="edge">
<title>Node9&#45;&gt;Node18</title>
<path fill="none" stroke="#9a32cd" stroke-dasharray="5,2" d="M190.76,-268.69C200.05,-343.04 242.18,-589.73 392.5,-589.73 392.5,-589.73 392.5,-589.73 894.5,-589.73 964.33,-589.73 995.98,-560.73 1051,-603.73 1070.27,-618.79 1049.08,-641.55 1069,-655.73 1109.19,-684.35 1130.82,-659.66 1180,-655.73 1292.6,-646.75 1422.5,-622.75 1495.62,-607.97"/>
<polygon fill="#9a32cd" stroke="#9a32cd" points="194.28,-268.63 189.64,-259.1 187.33,-269.44 194.28,-268.63"/>
<text text-anchor="middle" x="893.5" y="-592.73" font-family="Helvetica,sans-Serif" font-size="10.00"> mCreateTag</text>
</g>
<!-- Node19 -->
<g id="node19" class="node">
<title>Node19</title>
<g id="a_node19"><a xlink:href="structline__tag.html" target="_top" xlink:title=" ">
<polygon fill="white" stroke="#666666" points="530,-149.23 480,-149.23 480,-130.23 530,-130.23 530,-149.23"/>
<text text-anchor="middle" x="505" y="-137.23" font-family="Helvetica,sans-Serif" font-size="10.00">line_tag</text>
</a>
</g>
</g>
<!-- Node9&#45;&gt;Node19 -->
<g id="edge31" class="edge">
<title>Node9&#45;&gt;Node19</title>
<path fill="none" stroke="#9a32cd" stroke-dasharray="5,2" d="M211.66,-231.87C223.14,-224.48 237.43,-215.96 251,-209.73 330.75,-173.17 433.62,-152.01 479.74,-143.77"/>
<polygon fill="#9a32cd" stroke="#9a32cd" points="210.06,-228.74 203.64,-237.16 213.91,-234.58 210.06,-228.74"/>
<text text-anchor="middle" x="279" y="-212.73" font-family="Helvetica,sans-Serif" font-size="10.00"> mBase</text>
</g>
<!-- Node20 -->
<g id="node20" class="node">
<title>Node20</title>
<g id="a_node20"><a xlink:href="structdelete__tag__class.html" target="_top" xlink:title=" ">
<polygon fill="white" stroke="#666666" points="1599.5,-513.23 1509.5,-513.23 1509.5,-494.23 1599.5,-494.23 1599.5,-513.23"/>
<text text-anchor="middle" x="1554.5" y="-501.23" font-family="Helvetica,sans-Serif" font-size="10.00">delete_tag_class</text>
</a>
</g>
</g>
<!-- Node9&#45;&gt;Node20 -->
<g id="edge33" class="edge">
<title>Node9&#45;&gt;Node20</title>
<path fill="none" stroke="#9a32cd" stroke-dasharray="5,2" d="M194.41,-268.43C212.84,-328.02 275.13,-495.73 392.5,-495.73 392.5,-495.73 392.5,-495.73 754.5,-495.73 1042.35,-495.73 1388.5,-500.99 1509.33,-502.98"/>
<polygon fill="#9a32cd" stroke="#9a32cd" points="197.79,-267.49 191.58,-258.91 191.08,-269.49 197.79,-267.49"/>
<text text-anchor="middle" x="893.5" y="-498.73" font-family="Helvetica,sans-Serif" font-size="10.00"> mBase</text>
</g>
<!-- Node21 -->
<g id="node21" class="node">
<title>Node21</title>
<g id="a_node21"><a xlink:href="structprocess__priority__class.html" target="_top" xlink:title=" ">
<polygon fill="white" stroke="#666666" points="667,-283.23 554,-283.23 554,-264.23 667,-264.23 667,-283.23"/>
<text text-anchor="middle" x="610.5" y="-271.23" font-family="Helvetica,sans-Serif" font-size="10.00">process_priority_class</text>
</a>
</g>
</g>
<!-- Node9&#45;&gt;Node21 -->
<g id="edge36" class="edge">
<title>Node9&#45;&gt;Node21</title>
<path fill="none" stroke="#9a32cd" stroke-dasharray="5,2" d="M244.55,-251.2C325.22,-256.18 473.17,-265.31 553.69,-270.29"/>
<polygon fill="#9a32cd" stroke="#9a32cd" points="244.86,-247.71 234.67,-250.58 244.43,-254.69 244.86,-247.71"/>
<text text-anchor="middle" x="393.5" y="-266.73" font-family="Helvetica,sans-Serif" font-size="10.00"> mBase</text>
</g>
<!-- Node10 -->
<g id="node10" class="node">
<title>Node10</title>
<g id="a_node10"><a xlink:href="structnode__class.html" target="_top" xlink:title=" ">
<polygon fill="white" stroke="#666666" points="66,-666.23 0,-666.23 0,-647.23 66,-647.23 66,-666.23"/>
<text text-anchor="middle" x="33" y="-654.23" font-family="Helvetica,sans-Serif" font-size="10.00">node_class</text>
</a>
</g>
</g>
<!-- Node10&#45;&gt;Node9 -->
<g id="edge9" class="edge">
<title>Node10&#45;&gt;Node9</title>
<path fill="none" stroke="#9a32cd" stroke-dasharray="5,2" d="M41.57,-636.43C69.07,-562.68 163.11,-310.47 182.85,-257.53"/>
<polygon fill="#9a32cd" stroke="#9a32cd" points="38.36,-635.02 38.15,-645.61 44.92,-637.46 38.36,-635.02"/>
<text text-anchor="middle" x="104" y="-515.73" font-family="Helvetica,sans-Serif" font-size="10.00"> mpNode</text>
</g>
<!-- Node10&#45;&gt;Node10 -->
<g id="edge10" class="edge">
<title>Node10&#45;&gt;Node10</title>
<path fill="none" stroke="#9a32cd" stroke-dasharray="5,2" d="M20.54,-677.99C22.22,-681.68 26.37,-684.23 33,-684.23 45.48,-684.23 49.19,-675.17 44.12,-666.6"/>
<polygon fill="#9a32cd" stroke="#9a32cd" points="24.01,-678.45 21.71,-668.1 17.06,-677.63 24.01,-678.45"/>
<text text-anchor="middle" x="33" y="-698.23" font-family="Helvetica,sans-Serif" font-size="10.00"> mpNextNode</text>
<text text-anchor="middle" x="33" y="-687.23" font-family="Helvetica,sans-Serif" font-size="10.00">mpPrevNode</text>
</g>
<!-- Node13 -->
<g id="node13" class="node">
<title>Node13</title>
<g id="a_node13"><a xlink:href="structlayer__class.html" target="_top" xlink:title=" ">
<polygon fill="white" stroke="#666666" points="1378,-597.23 1313,-597.23 1313,-578.23 1378,-578.23 1378,-597.23"/>
<text text-anchor="middle" x="1345.5" y="-585.23" font-family="Helvetica,sans-Serif" font-size="10.00">layer_class</text>
</a>
</g>
</g>
<!-- Node10&#45;&gt;Node13 -->
<g id="edge16" class="edge">
<title>Node10&#45;&gt;Node13</title>
<path fill="none" stroke="#9a32cd" stroke-dasharray="5,2" d="M61.26,-671.79C91.08,-686.83 140.75,-707.73 186.5,-707.73 186.5,-707.73 186.5,-707.73 1125.5,-707.73 1216.98,-707.73 1306.43,-626.21 1335.06,-597.55"/>
<polygon fill="#9a32cd" stroke="#9a32cd" points="63.04,-668.78 52.56,-667.27 59.81,-674.99 63.04,-668.78"/>
<text text-anchor="middle" x="610.5" y="-710.73" font-family="Helvetica,sans-Serif" font-size="10.00"> mNode</text>
</g>
<!-- Node15 -->
<g id="node15" class="node">
<title>Node15</title>
<g id="a_node15"><a xlink:href="structnode__list__class.html" target="_top" xlink:title=" ">
<polygon fill="white" stroke="#666666" points="935.5,-666.23 851.5,-666.23 851.5,-647.23 935.5,-647.23 935.5,-666.23"/>
<text text-anchor="middle" x="893.5" y="-654.23" font-family="Helvetica,sans-Serif" font-size="10.00">node_list_class</text>
</a>
</g>
</g>
<!-- Node10&#45;&gt;Node15 -->
<g id="edge19" class="edge">
<title>Node10&#45;&gt;Node15</title>
<path fill="none" stroke="#9a32cd" stroke-dasharray="5,2" d="M77.94,-656.73C108.41,-656.73 149.92,-656.73 186.5,-656.73 186.5,-656.73 186.5,-656.73 611.5,-656.73 696.63,-656.73 796.27,-656.73 851.08,-656.73"/>
<polygon fill="#9a32cd" stroke="#9a32cd" points="77.94,-653.23 67.94,-656.73 77.94,-660.23 77.94,-653.23"/>
<text text-anchor="middle" x="393.5" y="-670.73" font-family="Helvetica,sans-Serif" font-size="10.00"> mpHead</text>
<text text-anchor="middle" x="393.5" y="-659.73" font-family="Helvetica,sans-Serif" font-size="10.00">mpTail</text>
</g>
<!-- Node11&#45;&gt;Node7 -->
<g id="edge11" class="edge">
<title>Node11&#45;&gt;Node7</title>
<path fill="none" stroke="#9a32cd" stroke-dasharray="5,2" d="M458.86,-215.37C522.23,-217.13 617.37,-208.96 673,-152.73 702.61,-122.81 659.21,-87.33 691,-59.73 744.6,-13.21 939.02,-43.73 1010,-43.73 1010,-43.73 1010,-43.73 1346.5,-43.73 1417.99,-43.73 1526.33,-278.52 1549.18,-329.89"/>
<polygon fill="#9a32cd" stroke="#9a32cd" points="459.06,-211.88 448.93,-214.99 458.79,-218.87 459.06,-211.88"/>
<text text-anchor="middle" x="1011" y="-46.73" font-family="Helvetica,sans-Serif" font-size="10.00"> mMtdTg</text>
</g>
<!-- Node11&#45;&gt;Node21 -->
<g id="edge37" class="edge">
<title>Node11&#45;&gt;Node21</title>
<path fill="none" stroke="#9a32cd" stroke-dasharray="5,2" d="M458.72,-218.58C481.55,-222.64 507.23,-228.24 530,-235.73 552.23,-243.05 576.29,-255.19 592.05,-263.78"/>
<polygon fill="#9a32cd" stroke="#9a32cd" points="459.35,-215.14 448.91,-216.92 458.18,-222.04 459.35,-215.14"/>
<text text-anchor="middle" x="505" y="-238.73" font-family="Helvetica,sans-Serif" font-size="10.00"> mMtdTag</text>
</g>
<!-- Node12 -->
<g id="node12" class="node">
<title>Node12</title>
<g id="a_node12"><a xlink:href="structcreate__request__method__class.html" target="_top" xlink:title=" ">
<polygon fill="white" stroke="#666666" points="1405,-416.73 1286,-416.73 1286,-386.73 1405,-386.73 1405,-416.73"/>
<text text-anchor="start" x="1294" y="-404.73" font-family="Helvetica,sans-Serif" font-size="10.00">create_request_method</text>
<text text-anchor="middle" x="1345.5" y="-393.73" font-family="Helvetica,sans-Serif" font-size="10.00">_class</text>
</a>
</g>
</g>
<!-- Node12&#45;&gt;Node7 -->
<g id="edge13" class="edge">
<title>Node12&#45;&gt;Node7</title>
<path fill="none" stroke="#9a32cd" stroke-dasharray="5,2" d="M1416.67,-388.91C1436.69,-384.54 1458.4,-379.11 1478,-372.73 1497.45,-366.4 1518.73,-356.85 1533.73,-349.65"/>
<polygon fill="#9a32cd" stroke="#9a32cd" points="1415.95,-385.48 1406.9,-390.98 1417.41,-392.33 1415.95,-385.48"/>
<text text-anchor="middle" x="1450.5" y="-389.73" font-family="Helvetica,sans-Serif" font-size="10.00"> mpCtRqMtd</text>
</g>
<!-- Node13&#45;&gt;Node7 -->
<g id="edge15" class="edge">
<title>Node13&#45;&gt;Node7</title>
<path fill="none" stroke="#9a32cd" stroke-dasharray="5,2" d="M1361.83,-569.36C1402.83,-520.25 1513.95,-387.11 1545.22,-349.66"/>
<polygon fill="#9a32cd" stroke="#9a32cd" points="1359.31,-566.93 1355.58,-576.85 1364.68,-571.42 1359.31,-566.93"/>
<text text-anchor="middle" x="1450.5" y="-495.73" font-family="Helvetica,sans-Serif" font-size="10.00"> mpLayer</text>
</g>
<!-- Node13&#45;&gt;Node16 -->
<g id="edge24" class="edge">
<title>Node13&#45;&gt;Node16</title>
<path fill="none" stroke="#9a32cd" stroke-dasharray="5,2" d="M1308.65,-572.95C1300.9,-569.11 1292.95,-564.65 1286,-559.73 1276.77,-553.2 1278.45,-546.06 1268,-541.73 1239.77,-530.04 1205.62,-529.86 1177.82,-532.81"/>
<polygon fill="#9a32cd" stroke="#9a32cd" points="1307.07,-576.07 1317.61,-577.14 1310.04,-569.73 1307.07,-576.07"/>
<text text-anchor="middle" x="1233" y="-544.73" font-family="Helvetica,sans-Serif" font-size="10.00"> mLayer</text>
</g>
<!-- Node13&#45;&gt;Node18 -->
<g id="edge29" class="edge">
<title>Node13&#45;&gt;Node18</title>
<path fill="none" stroke="#9a32cd" stroke-dasharray="5,2" d="M1389.6,-589.4C1420.37,-590.59 1462.08,-592.2 1495.72,-593.5"/>
<polygon fill="#9a32cd" stroke="#9a32cd" points="1390.03,-585.91 1379.9,-589.02 1389.76,-592.91 1390.03,-585.91"/>
<text text-anchor="middle" x="1450.5" y="-594.73" font-family="Helvetica,sans-Serif" font-size="10.00"> mpLayer</text>
</g>
<!-- Node13&#45;&gt;Node20 -->
<g id="edge34" class="edge">
<title>Node13&#45;&gt;Node20</title>
<path fill="none" stroke="#9a32cd" stroke-dasharray="5,2" d="M1381.6,-573.49C1423.48,-556.5 1492.42,-528.52 1528.97,-513.69"/>
<polygon fill="#9a32cd" stroke="#9a32cd" points="1380.41,-570.2 1372.46,-577.2 1383.04,-576.68 1380.41,-570.2"/>
<text text-anchor="middle" x="1450.5" y="-557.73" font-family="Helvetica,sans-Serif" font-size="10.00"> mpLayer</text>
</g>
<!-- Node14 -->
<g id="node14" class="node">
<title>Node14</title>
<g id="a_node14"><a xlink:href="structnode__lists__tree__class.html" target="_top" xlink:title=" ">
<polygon fill="white" stroke="#666666" points="1180,-594.23 1069,-594.23 1069,-575.23 1180,-575.23 1180,-594.23"/>
<text text-anchor="middle" x="1124.5" y="-582.23" font-family="Helvetica,sans-Serif" font-size="10.00">node_lists_tree_class</text>
</a>
</g>
</g>
<!-- Node14&#45;&gt;Node13 -->
<g id="edge17" class="edge">
<title>Node14&#45;&gt;Node13</title>
<path fill="none" stroke="#9a32cd" stroke-dasharray="5,2" d="M1191.78,-585.64C1231.82,-586.19 1281.04,-586.86 1312.59,-587.3"/>
<polygon fill="#9a32cd" stroke="#9a32cd" points="1192.04,-582.14 1181.99,-585.51 1191.94,-589.14 1192.04,-582.14"/>
<text text-anchor="middle" x="1233" y="-588.73" font-family="Helvetica,sans-Serif" font-size="10.00"> mNodeListTree</text>
</g>
<!-- Node15&#45;&gt;Node13 -->
<g id="edge26" class="edge">
<title>Node15&#45;&gt;Node13</title>
<path fill="none" stroke="#9a32cd" stroke-dasharray="5,2" d="M946.92,-663.72C954.97,-664.56 963.2,-665.28 971,-665.73 1006.49,-667.81 1015.74,-670.34 1051,-665.73 1151.12,-652.66 1265.68,-615.5 1317.06,-597.6"/>
<polygon fill="#9a32cd" stroke="#9a32cd" points="947.54,-660.27 937.22,-662.65 946.77,-667.23 947.54,-660.27"/>
<text text-anchor="middle" x="1124.5" y="-664.73" font-family="Helvetica,sans-Serif" font-size="10.00"> mCancelList</text>
</g>
<!-- Node15&#45;&gt;Node14 -->
<g id="edge18" class="edge">
<title>Node15&#45;&gt;Node14</title>
<path fill="none" stroke="#9a32cd" stroke-dasharray="5,2" d="M946.85,-653.87C985.39,-650.93 1033.94,-645.25 1051,-634.73 1062.96,-627.36 1058.16,-617.68 1069,-608.73 1076.02,-602.94 1084.65,-598.3 1092.96,-594.69"/>
<polygon fill="#9a32cd" stroke="#9a32cd" points="947,-650.35 937.27,-654.55 947.5,-657.33 947,-650.35"/>
<text text-anchor="middle" x="1011" y="-653.73" font-family="Helvetica,sans-Serif" font-size="10.00"> mpLists</text>
</g>
<!-- Node15&#45;&gt;Node16 -->
<g id="edge25" class="edge">
<title>Node15&#45;&gt;Node16</title>
<path fill="none" stroke="#9a32cd" stroke-dasharray="5,2" d="M922.69,-641.52C956.97,-623.17 1016.73,-591.69 1069,-566.73 1079.08,-561.92 1090.35,-556.9 1100.02,-552.7"/>
<polygon fill="#9a32cd" stroke="#9a32cd" points="921.4,-638.24 914.24,-646.05 924.71,-644.41 921.4,-638.24"/>
<text text-anchor="middle" x="1011" y="-616.73" font-family="Helvetica,sans-Serif" font-size="10.00"> mLayerNodeLists</text>
</g>
<!-- Node16&#45;&gt;Node13 -->
<g id="edge20" class="edge">
<title>Node16&#45;&gt;Node13</title>
<path fill="none" stroke="#9a32cd" stroke-dasharray="5,2" d="M1188.75,-554.81C1213.5,-559.63 1242.11,-565.31 1268,-570.73 1282.65,-573.8 1298.83,-577.37 1312.53,-580.44"/>
<polygon fill="#9a32cd" stroke="#9a32cd" points="1189.65,-551.42 1179.16,-552.95 1188.31,-558.3 1189.65,-551.42"/>
<text text-anchor="middle" x="1233" y="-573.73" font-family="Helvetica,sans-Serif" font-size="10.00"> mpPcNode</text>
</g>
<!-- Node17&#45;&gt;Node16 -->
<g id="edge22" class="edge">
<title>Node17&#45;&gt;Node16</title>
<path fill="none" stroke="#9a32cd" stroke-dasharray="5,2" d="M827.47,-533.91C899.34,-536.05 1007.35,-539.27 1071.1,-541.17"/>
<polygon fill="#9a32cd" stroke="#9a32cd" points="827.88,-530.42 817.78,-533.62 827.67,-537.42 827.88,-530.42"/>
<text text-anchor="middle" x="893.5" y="-539.73" font-family="Helvetica,sans-Serif" font-size="10.00"> mpNodeMtd</text>
</g>
<!-- Node18&#45;&gt;Node4 -->
<g id="edge27" class="edge">
<title>Node18&#45;&gt;Node4</title>
<path fill="none" stroke="#9a32cd" stroke-dasharray="5,2" d="M1490.91,-576.97C1383.89,-544.67 1159.09,-475.83 971,-411.73 954.13,-405.99 935.34,-399.11 920.6,-393.62"/>
<polygon fill="#9a32cd" stroke="#9a32cd" points="1489.79,-580.29 1500.37,-579.82 1491.81,-573.59 1489.79,-580.29"/>
<text text-anchor="middle" x="1233" y="-509.73" font-family="Helvetica,sans-Serif" font-size="10.00"> mLyTg</text>
</g>
<!-- Node19&#45;&gt;Node4 -->
<g id="edge30" class="edge">
<title>Node19&#45;&gt;Node4</title>
<path fill="none" stroke="#9a32cd" stroke-dasharray="5,2" d="M540.5,-153.2C600.19,-177.46 725.04,-232.47 816,-301.73 816.97,-302.47 863.12,-352.1 883.26,-373.78"/>
<polygon fill="#9a32cd" stroke="#9a32cd" points="542.13,-150.08 531.55,-149.6 539.52,-156.58 542.13,-150.08"/>
<text text-anchor="middle" x="610.5" y="-215.73" font-family="Helvetica,sans-Serif" font-size="10.00"> mLnTg</text>
</g>
<!-- Node20&#45;&gt;Node4 -->
<g id="edge32" class="edge">
<title>Node20&#45;&gt;Node4</title>
<path fill="none" stroke="#9a32cd" stroke-dasharray="5,2" d="M1531.59,-487.38C1517.12,-477.44 1497.34,-465.41 1478,-458.73 1465.44,-454.39 1087.64,-407.54 946.77,-390.17"/>
<polygon fill="#9a32cd" stroke="#9a32cd" points="1529.27,-490.02 1539.45,-492.96 1533.32,-484.31 1529.27,-490.02"/>
<text text-anchor="middle" x="1233" y="-432.73" font-family="Helvetica,sans-Serif" font-size="10.00"> mDtTg</text>
</g>
<!-- Node21&#45;&gt;Node4 -->
<g id="edge35" class="edge">
<title>Node21&#45;&gt;Node4</title>
<path fill="none" stroke="#9a32cd" stroke-dasharray="5,2" d="M647.39,-287.78C705.14,-310.39 817.28,-354.29 867.33,-373.88"/>
<polygon fill="#9a32cd" stroke="#9a32cd" points="648.93,-284.63 638.34,-284.24 646.38,-291.15 648.93,-284.63"/>
<text text-anchor="middle" x="753.5" y="-353.73" font-family="Helvetica,sans-Serif" font-size="10.00"> mPi</text>
</g>
<!-- Node22 -->
<g id="node22" class="node">
<title>Node22</title>
<g id="a_node22"><a xlink:href="structprocess__priority__queue__info.html" target="_top" xlink:title=" ">
<polygon fill="white" stroke="#666666" points="462,-309.23 325,-309.23 325,-290.23 462,-290.23 462,-309.23"/>
<text text-anchor="middle" x="393.5" y="-297.23" font-family="Helvetica,sans-Serif" font-size="10.00">process_priority_queue_info</text>
</a>
</g>
</g>
<!-- Node22&#45;&gt;Node21 -->
<g id="edge38" class="edge">
<title>Node22&#45;&gt;Node21</title>
<path fill="none" stroke="#9a32cd" stroke-dasharray="5,2" d="M473.46,-290.18C500.07,-286.97 529.19,-283.45 553.63,-280.49"/>
<polygon fill="#9a32cd" stroke="#9a32cd" points="473.24,-286.69 463.73,-291.36 474.08,-293.63 473.24,-286.69"/>
<text text-anchor="middle" x="505" y="-302.73" font-family="Helvetica,sans-Serif" font-size="10.00"> mInfoCurr</text>
<text text-anchor="middle" x="505" y="-291.73" font-family="Helvetica,sans-Serif" font-size="10.00">mInfoQ</text>
</g>
<!-- Node23&#45;&gt;Node2 -->
<g id="edge44" class="edge">
<title>Node23&#45;&gt;Node2</title>
<path fill="none" stroke="#9a32cd" stroke-dasharray="5,2" d="M964.74,-264.1C1022.85,-262.55 1107.36,-257.93 1180,-244.73 1229.7,-235.7 1285.7,-217.15 1317.87,-205.64"/>
<polygon fill="#9a32cd" stroke="#9a32cd" points="964.9,-260.59 954.99,-264.33 965.07,-267.59 964.9,-260.59"/>
<text text-anchor="middle" x="1124.5" y="-260.73" font-family="Helvetica,sans-Serif" font-size="10.00"> mSubMtd</text>
</g>
<!-- Node23&#45;&gt;Node3 -->
<g id="edge40" class="edge">
<title>Node23&#45;&gt;Node3</title>
<path fill="none" stroke="#9a32cd" stroke-dasharray="5,2" d="M964.77,-270.43C991.94,-273.48 1023.15,-278.04 1051,-284.73 1067.77,-288.76 1086.05,-295.33 1100.06,-300.86"/>
<polygon fill="#9a32cd" stroke="#9a32cd" points="965.21,-266.95 954.89,-269.37 964.46,-273.91 965.21,-266.95"/>
<text text-anchor="middle" x="1011" y="-287.73" font-family="Helvetica,sans-Serif" font-size="10.00"> mpDrawMtd</text>
</g>
<!-- Node24 -->
<g id="node24" class="node">
<title>Node24</title>
<g id="a_node24"><a xlink:href="structdraw__priority__class.html" target="_top" xlink:title=" ">
<polygon fill="white" stroke="#666666" points="943.5,-311.23 843.5,-311.23 843.5,-292.23 943.5,-292.23 943.5,-311.23"/>
<text text-anchor="middle" x="893.5" y="-299.23" font-family="Helvetica,sans-Serif" font-size="10.00">draw_priority_class</text>
</a>
</g>
</g>
<!-- Node24&#45;&gt;Node3 -->
<g id="edge42" class="edge">
<title>Node24&#45;&gt;Node3</title>
<path fill="none" stroke="#9a32cd" stroke-dasharray="5,2" d="M955.09,-300.66C984.13,-300.52 1019.39,-300.89 1051,-302.73 1061.49,-303.34 1072.8,-304.4 1083.3,-305.55"/>
<polygon fill="#9a32cd" stroke="#9a32cd" points="955.37,-297.16 945.4,-300.73 955.42,-304.16 955.37,-297.16"/>
<text text-anchor="middle" x="1011" y="-305.73" font-family="Helvetica,sans-Serif" font-size="10.00"> mDwPi</text>
</g>
<!-- Node25 -->
<g id="node25" class="node">
<title>Node25</title>
<g id="a_node25"><a xlink:href="structcXyz.html" target="_top" xlink:title=" ">
<polygon fill="white" stroke="#666666" points="1143.5,-129.23 1105.5,-129.23 1105.5,-110.23 1143.5,-110.23 1143.5,-129.23"/>
<text text-anchor="middle" x="1124.5" y="-117.23" font-family="Helvetica,sans-Serif" font-size="10.00">cXyz</text>
</a>
</g>
</g>
<!-- Node25&#45;&gt;Node2 -->
<g id="edge45" class="edge">
<title>Node25&#45;&gt;Node2</title>
<path fill="none" stroke="#9a32cd" stroke-dasharray="5,2" d="M1154.41,-129.77C1196.46,-144.36 1274.02,-171.28 1315.9,-185.81"/>
<polygon fill="#9a32cd" stroke="#9a32cd" points="1155.82,-126.55 1145.23,-126.58 1153.52,-133.16 1155.82,-126.55"/>
<text text-anchor="middle" x="1233" y="-182.73" font-family="Helvetica,sans-Serif" font-size="10.00"> mPos</text>
<text text-anchor="middle" x="1233" y="-171.73" font-family="Helvetica,sans-Serif" font-size="10.00">mScale</text>
</g>
<!-- Node25&#45;&gt;Node25 -->
<g id="edge47" class="edge">
<title>Node25&#45;&gt;Node25</title>
<path fill="none" stroke="#9a32cd" stroke-dasharray="5,2" d="M1105.24,-140.66C1107.65,-144.52 1114.07,-147.23 1124.5,-147.23 1143.57,-147.23 1149.23,-138.17 1141.49,-129.6"/>
<polygon fill="#9a32cd" stroke="#9a32cd" points="1108.63,-141.58 1107.21,-131.08 1101.77,-140.18 1108.63,-141.58"/>
<text text-anchor="middle" x="1124.5" y="-227.23" font-family="Helvetica,sans-Serif" font-size="10.00"> BaseX</text>
<text text-anchor="middle" x="1124.5" y="-216.23" font-family="Helvetica,sans-Serif" font-size="10.00">BaseXY</text>
<text text-anchor="middle" x="1124.5" y="-205.23" font-family="Helvetica,sans-Serif" font-size="10.00">BaseXYZ</text>
<text text-anchor="middle" x="1124.5" y="-194.23" font-family="Helvetica,sans-Serif" font-size="10.00">BaseXZ</text>
<text text-anchor="middle" x="1124.5" y="-183.23" font-family="Helvetica,sans-Serif" font-size="10.00">BaseY</text>
<text text-anchor="middle" x="1124.5" y="-172.23" font-family="Helvetica,sans-Serif" font-size="10.00">BaseYZ</text>
<text text-anchor="middle" x="1124.5" y="-161.23" font-family="Helvetica,sans-Serif" font-size="10.00">BaseZ</text>
<text text-anchor="middle" x="1124.5" y="-150.23" font-family="Helvetica,sans-Serif" font-size="10.00">Zero</text>
</g>
<!-- Node26 -->
<g id="node26" class="node">
<title>Node26</title>
<g id="a_node26"><a xlink:href="structVec.html" target="_top" xlink:title=" ">
<polygon fill="white" stroke="#666666" points="910.5,-129.23 876.5,-129.23 876.5,-110.23 910.5,-110.23 910.5,-129.23"/>
<text text-anchor="middle" x="893.5" y="-117.23" font-family="Helvetica,sans-Serif" font-size="10.00">Vec</text>
</a>
</g>
</g>
<!-- Node26&#45;&gt;Node25 -->
<g id="edge46" class="edge">
<title>Node26&#45;&gt;Node25</title>
<path fill="none" stroke="#63b8ff" d="M922.2,-119.73C969.68,-119.73 1065.33,-119.73 1105.3,-119.73"/>
<polygon fill="#63b8ff" stroke="#63b8ff" points="922.48,-116.23 912.48,-119.73 922.48,-123.23 922.48,-116.23"/>
</g>
</g>
</svg>
        <g id="navigator" transform="translate(0 0)" fill="#404254">
                <rect fill="#f2f5e9" fill-opacity="0.5" stroke="#606060" stroke-width=".5" x="0" y="0" width="60" height="60"/>
                <use id="zoomplus" xlink:href="#zoomPlus" x="17" y="9" onmousedown="handleZoom(evt,'in')"/>
                <use id="zoomminus" xlink:href="#zoomMin" x="42" y="9" onmousedown="handleZoom(evt,'out')"/>
                <use id="reset" xlink:href="#resetDef" x="30" y="36" onmousedown="handleReset()"/>
                <g id="arrowUp" xlink:href="#dirArrow" transform="translate(30 24)" onmousedown="handlePan(0,-1)">
                  <use xlink:href="#rim" fill="#404040">
                        <set attributeName="fill" to="#808080" begin="arrowUp.mouseover" end="arrowUp.mouseout"/>
                  </use>
                  <path fill="none" stroke="white" stroke-width="1.5" d="M0,-3.0v7 M-2.5,-0.5L0,-3.0L2.5,-0.5"/>
                </g>
                <g id="arrowRight" xlink:href="#dirArrow" transform="rotate(90) translate(36 -43)" onmousedown="handlePan(1,0)">
                  <use xlink:href="#rim" fill="#404040">
                        <set attributeName="fill" to="#808080" begin="arrowRight.mouseover" end="arrowRight.mouseout"/>
                  </use>
                  <path fill="none" stroke="white" stroke-width="1.5" d="M0,-3.0v7 M-2.5,-0.5L0,-3.0L2.5,-0.5"/>
                </g>
                <g id="arrowDown" xlink:href="#dirArrow" transform="rotate(180) translate(-30 -48)" onmousedown="handlePan(0,1)">
                  <use xlink:href="#rim" fill="#404040">
                        <set attributeName="fill" to="#808080" begin="arrowDown.mouseover" end="arrowDown.mouseout"/>
                  </use>
                  <path fill="none" stroke="white" stroke-width="1.5" d="M0,-3.0v7 M-2.5,-0.5L0,-3.0L2.5,-0.5"/>
                </g>
                <g id="arrowLeft" xlink:href="#dirArrow" transform="rotate(270) translate(-36 17)" onmousedown="handlePan(-1,0)">
                  <use xlink:href="#rim" fill="#404040">
                        <set attributeName="fill" to="#808080" begin="arrowLeft.mouseover" end="arrowLeft.mouseout"/>
                  </use>
                  <path fill="none" stroke="white" stroke-width="1.5" d="M0,-3.0v7 M-2.5,-0.5L0,-3.0L2.5,-0.5"/>
                </g>
        </g>
        <svg viewBox="0 0 15 15" width="100%" height="30px" preserveAspectRatio="xMaxYMin meet">
         <g id="arrow_out" transform="scale(0.3 0.3)">
          <a xlink:href="classdKyeff2__c__coll__graph_org.svg" target="_base">
           <rect id="button" ry="5" rx="5" y="6" x="6" height="38" width="38"
                fill="#f2f5e9" fill-opacity="0.5" stroke="#606060" stroke-width="1.0"/>
           <path id="arrow"
             d="M 11.500037,31.436501 C 11.940474,20.09759 22.043105,11.32322 32.158766,21.979434 L 37.068811,17.246167 C 37.068811,17.246167 37.088388,32 37.088388,32 L 22.160133,31.978069 C 22.160133,31.978069 26.997745,27.140456 26.997745,27.140456 C 18.528582,18.264221 13.291696,25.230495 11.500037,31.436501 z"
             style="fill:#404040;"/>
          </a>
         </g>
        </svg>
</svg>
