<?xml version="1.0" encoding="UTF-8" standalone="no"?>
<!DOCTYPE svg PUBLIC "-//W3C//DTD SVG 1.1//EN"
 "http://www.w3.org/Graphics/SVG/1.1/DTD/svg11.dtd">
<!-- Generated by graphviz version 7.0.5 (20221223.1930)
 -->
<!-- Title: JPAEmitterCallBack Pages: 1 -->
<svg width="433pt" height="286pt"
 viewBox="0.00 0.00 433.00 286.00" xmlns="http://www.w3.org/2000/svg" xmlns:xlink="http://www.w3.org/1999/xlink">
<g id="graph0" class="graph" transform="scale(1 1) rotate(0) translate(4 282)">
<title>JPAEmitterCallBack</title>
<!-- Node1 -->
<g id="node1" class="node">
<title>Node1</title>
<g id="a_node1"><a xlink:title=" ">
<polygon fill="#999999" stroke="#666666" points="105,-129 0,-129 0,-110 105,-110 105,-129"/>
<text text-anchor="middle" x="52.5" y="-117" font-family="Helvetica,sans-Serif" font-size="10.00">JPAEmitterCallBack</text>
</a>
</g>
</g>
<!-- Node2 -->
<g id="node2" class="node">
<title>Node2</title>
<g id="a_node2"><a xlink:href="classdPa__levelEcallBack.html" target="_top" xlink:title=" ">
<polygon fill="white" stroke="#666666" points="248,-148 145,-148 145,-129 248,-129 248,-148"/>
<text text-anchor="middle" x="196.5" y="-136" font-family="Helvetica,sans-Serif" font-size="10.00">dPa_levelEcallBack</text>
</a>
</g>
</g>
<!-- Node1&#45;&gt;Node2 -->
<g id="edge1" class="edge">
<title>Node1&#45;&gt;Node2</title>
<path fill="none" stroke="#63b8ff" d="M116.49,-127.93C125.89,-129.19 135.48,-130.47 144.58,-131.69"/>
<polygon fill="#63b8ff" stroke="#63b8ff" points="117.04,-124.47 106.67,-126.61 116.11,-131.41 117.04,-124.47"/>
</g>
<!-- Node11 -->
<g id="node11" class="node">
<title>Node11</title>
<g id="a_node11"><a xlink:href="classdPa__simpleEcallBack.html" target="_top" xlink:title=" ">
<polygon fill="white" stroke="#666666" points="252,-111 141,-111 141,-92 252,-92 252,-111"/>
<text text-anchor="middle" x="196.5" y="-99" font-family="Helvetica,sans-Serif" font-size="10.00">dPa_simpleEcallBack</text>
</a>
</g>
</g>
<!-- Node1&#45;&gt;Node11 -->
<g id="edge10" class="edge">
<title>Node1&#45;&gt;Node11</title>
<path fill="none" stroke="#63b8ff" d="M116.48,-111.52C124.57,-110.49 132.81,-109.45 140.76,-108.44"/>
<polygon fill="#63b8ff" stroke="#63b8ff" points="116.15,-108.03 106.67,-112.76 117.03,-114.97 116.15,-108.03"/>
</g>
<!-- Node3 -->
<g id="node3" class="node">
<title>Node3</title>
<g id="a_node3"><a xlink:href="classdPa__followEcallBack.html" target="_top" xlink:title=" ">
<polygon fill="white" stroke="#666666" points="410.5,-278 302.5,-278 302.5,-259 410.5,-259 410.5,-278"/>
<text text-anchor="middle" x="356.5" y="-266" font-family="Helvetica,sans-Serif" font-size="10.00">dPa_followEcallBack</text>
</a>
</g>
</g>
<!-- Node2&#45;&gt;Node3 -->
<g id="edge2" class="edge">
<title>Node2&#45;&gt;Node3</title>
<path fill="none" stroke="#63b8ff" d="M208.12,-158.23C222.75,-183.47 251.47,-226.78 288,-250.5 292.98,-253.74 298.53,-256.39 304.25,-258.57"/>
<polygon fill="#63b8ff" stroke="#63b8ff" points="211.26,-156.66 203.32,-149.65 205.15,-160.08 211.26,-156.66"/>
</g>
<!-- Node4 -->
<g id="node4" class="node">
<title>Node4</title>
<g id="a_node4"><a xlink:href="classdPa__gen__b__light8EcallBack.html" target="_top" xlink:title=" ">
<polygon fill="white" stroke="#666666" points="425,-241 288,-241 288,-222 425,-222 425,-241"/>
<text text-anchor="middle" x="356.5" y="-229" font-family="Helvetica,sans-Serif" font-size="10.00">dPa_gen_b_light8EcallBack</text>
</a>
</g>
</g>
<!-- Node2&#45;&gt;Node4 -->
<g id="edge3" class="edge">
<title>Node2&#45;&gt;Node4</title>
<path fill="none" stroke="#63b8ff" d="M214.41,-156.43C231.45,-173.49 259.28,-198.68 288,-213.5 294.14,-216.67 300.9,-219.32 307.69,-221.53"/>
<polygon fill="#63b8ff" stroke="#63b8ff" points="217.08,-154.15 207.59,-149.44 212.06,-159.04 217.08,-154.15"/>
</g>
<!-- Node5 -->
<g id="node5" class="node">
<title>Node5</title>
<g id="a_node5"><a xlink:href="classdPa__gen__d__light8EcallBack.html" target="_top" xlink:title=" ">
<polygon fill="white" stroke="#666666" points="425,-204 288,-204 288,-185 425,-185 425,-204"/>
<text text-anchor="middle" x="356.5" y="-192" font-family="Helvetica,sans-Serif" font-size="10.00">dPa_gen_d_light8EcallBack</text>
</a>
</g>
</g>
<!-- Node2&#45;&gt;Node5 -->
<g id="edge4" class="edge">
<title>Node2&#45;&gt;Node5</title>
<path fill="none" stroke="#63b8ff" d="M228.83,-152.9C246.07,-160.51 267.97,-169.66 288,-176.5 296.49,-179.4 305.72,-182.13 314.54,-184.54"/>
<polygon fill="#63b8ff" stroke="#63b8ff" points="230.7,-149.9 220.14,-149.02 227.84,-156.3 230.7,-149.9"/>
</g>
<!-- Node6 -->
<g id="node6" class="node">
<title>Node6</title>
<g id="a_node6"><a xlink:href="classdPa__hermiteEcallBack__c.html" target="_top" xlink:title=" ">
<polygon fill="white" stroke="#666666" points="419,-167 294,-167 294,-148 419,-148 419,-167"/>
<text text-anchor="middle" x="356.5" y="-155" font-family="Helvetica,sans-Serif" font-size="10.00">dPa_hermiteEcallBack_c</text>
</a>
</g>
</g>
<!-- Node2&#45;&gt;Node6 -->
<g id="edge5" class="edge">
<title>Node2&#45;&gt;Node6</title>
<path fill="none" stroke="#63b8ff" d="M259.77,-145.99C270.92,-147.33 282.54,-148.73 293.68,-150.07"/>
<polygon fill="#63b8ff" stroke="#63b8ff" points="260.21,-142.52 249.86,-144.8 259.38,-149.47 260.21,-142.52"/>
</g>
<!-- Node7 -->
<g id="node7" class="node">
<title>Node7</title>
<g id="a_node7"><a xlink:href="classdPa__light8EcallBack.html" target="_top" xlink:title=" ">
<polygon fill="white" stroke="#666666" points="409.5,-130 303.5,-130 303.5,-111 409.5,-111 409.5,-130"/>
<text text-anchor="middle" x="356.5" y="-118" font-family="Helvetica,sans-Serif" font-size="10.00">dPa_light8EcallBack</text>
</a>
</g>
</g>
<!-- Node2&#45;&gt;Node7 -->
<g id="edge6" class="edge">
<title>Node2&#45;&gt;Node7</title>
<path fill="none" stroke="#63b8ff" d="M259.68,-131.42C274.05,-129.78 289.2,-128.05 303.1,-126.47"/>
<polygon fill="#63b8ff" stroke="#63b8ff" points="259.41,-127.92 249.87,-132.53 260.2,-134.88 259.41,-127.92"/>
</g>
<!-- Node8 -->
<g id="node8" class="node">
<title>Node8</title>
<g id="a_node8"><a xlink:href="classdPa__modelEcallBack.html" target="_top" xlink:title=" ">
<polygon fill="white" stroke="#666666" points="411,-93 302,-93 302,-74 411,-74 411,-93"/>
<text text-anchor="middle" x="356.5" y="-81" font-family="Helvetica,sans-Serif" font-size="10.00">dPa_modelEcallBack</text>
</a>
</g>
</g>
<!-- Node2&#45;&gt;Node8 -->
<g id="edge7" class="edge">
<title>Node2&#45;&gt;Node8</title>
<path fill="none" stroke="#63b8ff" d="M240.94,-124.79C244.71,-123.41 248.44,-121.97 252,-120.5 268.54,-113.68 271.32,-108.95 288,-102.5 296.74,-99.12 306.33,-96.05 315.47,-93.42"/>
<polygon fill="#63b8ff" stroke="#63b8ff" points="240.05,-121.39 231.78,-128 242.37,-127.99 240.05,-121.39"/>
</g>
<!-- Node9 -->
<g id="node9" class="node">
<title>Node9</title>
<g id="a_node9"><a xlink:href="classdPa__selectTexEcallBack.html" target="_top" xlink:title=" ">
<polygon fill="white" stroke="#666666" points="419,-56 294,-56 294,-37 419,-37 419,-56"/>
<text text-anchor="middle" x="356.5" y="-44" font-family="Helvetica,sans-Serif" font-size="10.00">dPa_selectTexEcallBack</text>
</a>
</g>
</g>
<!-- Node2&#45;&gt;Node9 -->
<g id="edge8" class="edge">
<title>Node2&#45;&gt;Node9</title>
<path fill="none" stroke="#63b8ff" d="M247.91,-123.36C249.32,-122.46 250.69,-121.51 252,-120.5 275.17,-102.7 264.44,-82.78 288,-65.5 293.01,-61.83 298.7,-58.87 304.6,-56.47"/>
<polygon fill="#63b8ff" stroke="#63b8ff" points="246.6,-120.09 239.4,-127.86 249.87,-126.28 246.6,-120.09"/>
</g>
<!-- Node10 -->
<g id="node10" class="node">
<title>Node10</title>
<g id="a_node10"><a xlink:href="classdPa__setColorEcallBack.html" target="_top" xlink:title=" ">
<polygon fill="white" stroke="#666666" points="416,-19 297,-19 297,0 416,0 416,-19"/>
<text text-anchor="middle" x="356.5" y="-7" font-family="Helvetica,sans-Serif" font-size="10.00">dPa_setColorEcallBack</text>
</a>
</g>
</g>
<!-- Node2&#45;&gt;Node10 -->
<g id="edge9" class="edge">
<title>Node2&#45;&gt;Node10</title>
<path fill="none" stroke="#63b8ff" d="M249.69,-122.53C250.48,-121.88 251.26,-121.2 252,-120.5 283.87,-90.3 255.46,-57.98 288,-28.5 292.06,-24.82 296.78,-21.85 301.8,-19.45"/>
<polygon fill="#63b8ff" stroke="#63b8ff" points="248.15,-119.36 241.64,-127.72 251.94,-125.24 248.15,-119.36"/>
</g>
</g>
</svg>
