<?xml version="1.0" encoding="UTF-8" standalone="no"?>
<!DOCTYPE svg PUBLIC "-//W3C//DTD SVG 1.1//EN"
 "http://www.w3.org/Graphics/SVG/1.1/DTD/svg11.dtd">
<!-- Generated by graphviz version 7.0.5 (20221223.1930)
 -->
<!-- Title: dMeter_drawSkillHIO_c Pages: 1 -->
<svg width="184pt" height="226pt"
 viewBox="0.00 0.00 184.00 226.00" xmlns="http://www.w3.org/2000/svg" xmlns:xlink="http://www.w3.org/1999/xlink">
<g id="graph0" class="graph" transform="scale(1 1) rotate(0) translate(4 222)">
<title>dMeter_drawSkillHIO_c</title>
<!-- Node1 -->
<g id="node1" class="node">
<title>Node1</title>
<g id="a_node1"><a xlink:title=" ">
<polygon fill="#999999" stroke="#666666" points="120,-19 0,-19 0,0 120,0 120,-19"/>
<text text-anchor="middle" x="60" y="-7" font-family="Helvetica,sans-Serif" font-size="10.00">dMeter_drawSkillHIO_c</text>
</a>
</g>
</g>
<!-- Node2 -->
<g id="node2" class="node">
<title>Node2</title>
<g id="a_node2"><a xlink:href="structJUtility_1_1TColor.html" target="_top" xlink:title=" ">
<polygon fill="white" stroke="#666666" points="100,-162 20,-162 20,-143 100,-143 100,-162"/>
<text text-anchor="middle" x="60" y="-150" font-family="Helvetica,sans-Serif" font-size="10.00">JUtility::TColor</text>
</a>
</g>
</g>
<!-- Node2&#45;&gt;Node1 -->
<g id="edge1" class="edge">
<title>Node2&#45;&gt;Node1</title>
<path fill="none" stroke="#9a32cd" stroke-dasharray="5,2" d="M60,-131.56C60,-100.44 60,-41.57 60,-19.32"/>
<polygon fill="#9a32cd" stroke="#9a32cd" points="56.5,-131.17 60,-141.17 63.5,-131.17 56.5,-131.17"/>
<text text-anchor="middle" x="118" y="-117" font-family="Helvetica,sans-Serif" font-size="10.00"> mSelectBarBlack</text>
<text text-anchor="middle" x="118" y="-106" font-family="Helvetica,sans-Serif" font-size="10.00">mSelectBarWhite</text>
<text text-anchor="middle" x="118" y="-95" font-family="Helvetica,sans-Serif" font-size="10.00">mSelectScrollIconBlack</text>
<text text-anchor="middle" x="118" y="-84" font-family="Helvetica,sans-Serif" font-size="10.00">mSelectScrollIconWhite</text>
<text text-anchor="middle" x="118" y="-73" font-family="Helvetica,sans-Serif" font-size="10.00">mSelectTextBlack</text>
<text text-anchor="middle" x="118" y="-62" font-family="Helvetica,sans-Serif" font-size="10.00">mSelectTextWhite</text>
<text text-anchor="middle" x="118" y="-51" font-family="Helvetica,sans-Serif" font-size="10.00">mUnselectScrollIconBlack</text>
<text text-anchor="middle" x="118" y="-40" font-family="Helvetica,sans-Serif" font-size="10.00">mUnselectScrollIconWhite</text>
</g>
<!-- Node3 -->
<g id="node3" class="node">
<title>Node3</title>
<g id="a_node3"><a xlink:href="struct__GXColor.html" target="_top" xlink:title=" ">
<polygon fill="white" stroke="#666666" points="86.5,-218 33.5,-218 33.5,-199 86.5,-199 86.5,-218"/>
<text text-anchor="middle" x="60" y="-206" font-family="Helvetica,sans-Serif" font-size="10.00">GXColor</text>
</a>
</g>
</g>
<!-- Node3&#45;&gt;Node2 -->
<g id="edge2" class="edge">
<title>Node3&#45;&gt;Node2</title>
<path fill="none" stroke="#63b8ff" d="M60,-187.11C60,-178.52 60,-168.97 60,-162.25"/>
<polygon fill="#63b8ff" stroke="#63b8ff" points="56.5,-187.07 60,-197.07 63.5,-187.07 56.5,-187.07"/>
</g>
</g>
</svg>
