<?xml version="1.0" encoding="UTF-8" standalone="no"?>
<!DOCTYPE svg PUBLIC "-//W3C//DTD SVG 1.1//EN"
 "http://www.w3.org/Graphics/SVG/1.1/DTD/svg11.dtd">
<!-- Generated by graphviz version 7.0.5 (20221223.1930)
 -->
<!-- Title: cBgS_GndChk Pages: 1 -->
<svg width="388pt" height="228pt"
 viewBox="0.00 0.00 388.00 228.00" xmlns="http://www.w3.org/2000/svg" xmlns:xlink="http://www.w3.org/1999/xlink">
<g id="graph0" class="graph" transform="scale(1 1) rotate(0) translate(4 224)">
<title>cBgS_GndChk</title>
<!-- Node1 -->
<g id="node1" class="node">
<title>Node1</title>
<g id="a_node1"><a xlink:title=" ">
<polygon fill="#999999" stroke="#666666" points="262.5,-19 181.5,-19 181.5,0 262.5,0 262.5,-19"/>
<text text-anchor="middle" x="222" y="-7" font-family="Helvetica,sans-Serif" font-size="10.00">cBgS_GndChk</text>
</a>
</g>
</g>
<!-- Node2 -->
<g id="node2" class="node">
<title>Node2</title>
<g id="a_node2"><a xlink:href="classcBgS__Chk.html" target="_top" xlink:title=" ">
<polygon fill="white" stroke="#666666" points="163.5,-119.5 100.5,-119.5 100.5,-100.5 163.5,-100.5 163.5,-119.5"/>
<text text-anchor="middle" x="132" y="-107.5" font-family="Helvetica,sans-Serif" font-size="10.00">cBgS_Chk</text>
</a>
</g>
</g>
<!-- Node2&#45;&gt;Node1 -->
<g id="edge1" class="edge">
<title>Node2&#45;&gt;Node1</title>
<path fill="none" stroke="#63b8ff" d="M147.61,-91.92C166.89,-70.81 198.98,-35.7 213.9,-19.36"/>
<polygon fill="#63b8ff" stroke="#63b8ff" points="145.17,-89.4 141.01,-99.14 150.34,-94.12 145.17,-89.4"/>
</g>
<!-- Node3 -->
<g id="node3" class="node">
<title>Node3</title>
<g id="a_node3"><a xlink:href="classcBgS__PolyPassChk.html" target="_top" xlink:title=" ">
<polygon fill="white" stroke="#666666" points="104,-220 0,-220 0,-201 104,-201 104,-220"/>
<text text-anchor="middle" x="52" y="-208" font-family="Helvetica,sans-Serif" font-size="10.00">cBgS_PolyPassChk</text>
</a>
</g>
</g>
<!-- Node3&#45;&gt;Node2 -->
<g id="edge2" class="edge">
<title>Node3&#45;&gt;Node2</title>
<path fill="none" stroke="#9a32cd" stroke-dasharray="5,2" d="M66.34,-191.84C83.53,-170.68 111.65,-136.05 124.8,-119.86"/>
<polygon fill="#9a32cd" stroke="#9a32cd" points="63.64,-189.61 60.05,-199.58 69.07,-194.03 63.64,-189.61"/>
<text text-anchor="middle" x="116" y="-175" font-family="Helvetica,sans-Serif" font-size="10.00"> mPolyPassChk</text>
</g>
<!-- Node4 -->
<g id="node4" class="node">
<title>Node4</title>
<g id="a_node4"><a xlink:href="classcBgS__GrpPassChk.html" target="_top" xlink:title=" ">
<polygon fill="white" stroke="#666666" points="223.5,-220 122.5,-220 122.5,-201 223.5,-201 223.5,-220"/>
<text text-anchor="middle" x="173" y="-208" font-family="Helvetica,sans-Serif" font-size="10.00">cBgS_GrpPassChk</text>
</a>
</g>
</g>
<!-- Node4&#45;&gt;Node2 -->
<g id="edge3" class="edge">
<title>Node4&#45;&gt;Node2</title>
<path fill="none" stroke="#9a32cd" stroke-dasharray="5,2" d="M165.04,-190.39C156.19,-169.12 142.28,-135.69 135.69,-119.86"/>
<polygon fill="#9a32cd" stroke="#9a32cd" points="161.71,-191.47 168.78,-199.36 168.17,-188.78 161.71,-191.47"/>
<text text-anchor="middle" x="194.5" y="-175" font-family="Helvetica,sans-Serif" font-size="10.00"> mGrpPassChk</text>
</g>
<!-- Node5 -->
<g id="node5" class="node">
<title>Node5</title>
<g id="a_node5"><a xlink:href="structcBgS__PolyInfo.html" target="_top" xlink:title=" ">
<polygon fill="white" stroke="#666666" points="262.5,-119.5 181.5,-119.5 181.5,-100.5 262.5,-100.5 262.5,-119.5"/>
<text text-anchor="middle" x="222" y="-107.5" font-family="Helvetica,sans-Serif" font-size="10.00">cBgS_PolyInfo</text>
</a>
</g>
</g>
<!-- Node5&#45;&gt;Node1 -->
<g id="edge4" class="edge">
<title>Node5&#45;&gt;Node1</title>
<path fill="none" stroke="#63b8ff" d="M222,-88.99C222,-67.7 222,-34.97 222,-19.36"/>
<polygon fill="#63b8ff" stroke="#63b8ff" points="218.5,-88.75 222,-98.75 225.5,-88.75 218.5,-88.75"/>
</g>
<!-- Node6 -->
<g id="node6" class="node">
<title>Node6</title>
<g id="a_node6"><a xlink:href="structcXyz.html" target="_top" xlink:title=" ">
<polygon fill="white" stroke="#666666" points="319,-119.5 281,-119.5 281,-100.5 319,-100.5 319,-119.5"/>
<text text-anchor="middle" x="300" y="-107.5" font-family="Helvetica,sans-Serif" font-size="10.00">cXyz</text>
</a>
</g>
</g>
<!-- Node6&#45;&gt;Node1 -->
<g id="edge5" class="edge">
<title>Node6&#45;&gt;Node1</title>
<path fill="none" stroke="#9a32cd" stroke-dasharray="5,2" d="M288.37,-90.64C283.27,-82.88 277.06,-73.83 271,-66 257.63,-48.72 240.41,-29.91 230.35,-19.23"/>
<polygon fill="#9a32cd" stroke="#9a32cd" points="285.36,-92.42 293.72,-98.93 291.24,-88.63 285.36,-92.42"/>
<text text-anchor="middle" x="272" y="-40" font-family="Helvetica,sans-Serif" font-size="10.00"> m_pos</text>
</g>
<!-- Node6&#45;&gt;Node6 -->
<g id="edge7" class="edge">
<title>Node6&#45;&gt;Node6</title>
<path fill="none" stroke="#9a32cd" stroke-dasharray="5,2" d="M322.9,-122.66C330.71,-122.74 337,-118.52 337,-110 337,-97.61 323.7,-94.32 311.75,-100.12"/>
<polygon fill="#9a32cd" stroke="#9a32cd" points="323.76,-119.26 313.21,-120.24 322.07,-126.06 323.76,-119.26"/>
<text text-anchor="middle" x="358.5" y="-146" font-family="Helvetica,sans-Serif" font-size="10.00"> BaseX</text>
<text text-anchor="middle" x="358.5" y="-135" font-family="Helvetica,sans-Serif" font-size="10.00">BaseXY</text>
<text text-anchor="middle" x="358.5" y="-124" font-family="Helvetica,sans-Serif" font-size="10.00">BaseXYZ</text>
<text text-anchor="middle" x="358.5" y="-113" font-family="Helvetica,sans-Serif" font-size="10.00">BaseXZ</text>
<text text-anchor="middle" x="358.5" y="-102" font-family="Helvetica,sans-Serif" font-size="10.00">BaseY</text>
<text text-anchor="middle" x="358.5" y="-91" font-family="Helvetica,sans-Serif" font-size="10.00">BaseYZ</text>
<text text-anchor="middle" x="358.5" y="-80" font-family="Helvetica,sans-Serif" font-size="10.00">BaseZ</text>
<text text-anchor="middle" x="358.5" y="-69" font-family="Helvetica,sans-Serif" font-size="10.00">Zero</text>
</g>
<!-- Node7 -->
<g id="node7" class="node">
<title>Node7</title>
<g id="a_node7"><a xlink:href="structVec.html" target="_top" xlink:title=" ">
<polygon fill="white" stroke="#666666" points="317,-220 283,-220 283,-201 317,-201 317,-220"/>
<text text-anchor="middle" x="300" y="-208" font-family="Helvetica,sans-Serif" font-size="10.00">Vec</text>
</a>
</g>
</g>
<!-- Node7&#45;&gt;Node6 -->
<g id="edge6" class="edge">
<title>Node7&#45;&gt;Node6</title>
<path fill="none" stroke="#63b8ff" d="M300,-189.49C300,-168.2 300,-135.47 300,-119.86"/>
<polygon fill="#63b8ff" stroke="#63b8ff" points="296.5,-189.25 300,-199.25 303.5,-189.25 296.5,-189.25"/>
</g>
</g>
</svg>
