<?xml version="1.0" encoding="UTF-8" standalone="no"?>
<!DOCTYPE svg PUBLIC "-//W3C//DTD SVG 1.1//EN"
 "http://www.w3.org/Graphics/SVG/1.1/DTD/svg11.dtd">
<!-- Generated by graphviz version 7.0.5 (20221223.1930)
 -->
<!-- Title: dMeter_drawCollectHIO_c Pages: 1 -->
<svg width="324pt" height="229pt"
 viewBox="0.00 0.00 324.00 229.00" xmlns="http://www.w3.org/2000/svg" xmlns:xlink="http://www.w3.org/1999/xlink">
<g id="graph0" class="graph" transform="scale(1 1) rotate(0) translate(4 225)">
<title>dMeter_drawCollectHIO_c</title>
<!-- Node1 -->
<g id="node1" class="node">
<title>Node1</title>
<g id="a_node1"><a xlink:title=" ">
<polygon fill="#999999" stroke="#666666" points="218.5,-19 87.5,-19 87.5,0 218.5,0 218.5,-19"/>
<text text-anchor="middle" x="153" y="-7" font-family="Helvetica,sans-Serif" font-size="10.00">dMeter_drawCollectHIO_c</text>
</a>
</g>
</g>
<!-- Node2 -->
<g id="node2" class="node">
<title>Node2</title>
<g id="a_node2"><a xlink:href="structcXyz.html" target="_top" xlink:title=" ">
<polygon fill="white" stroke="#666666" points="38,-130.5 0,-130.5 0,-111.5 38,-111.5 38,-130.5"/>
<text text-anchor="middle" x="19" y="-118.5" font-family="Helvetica,sans-Serif" font-size="10.00">cXyz</text>
</a>
</g>
</g>
<!-- Node2&#45;&gt;Node1 -->
<g id="edge1" class="edge">
<title>Node2&#45;&gt;Node1</title>
<path fill="none" stroke="#9a32cd" stroke-dasharray="5,2" d="M26.93,-100.76C35.6,-81.96 51.24,-53.78 73,-37 83.31,-29.05 96.12,-23.42 108.45,-19.47"/>
<polygon fill="#9a32cd" stroke="#9a32cd" points="23.82,-99.12 23.03,-109.69 30.24,-101.92 23.82,-99.12"/>
<text text-anchor="middle" x="111.5" y="-45.5" font-family="Helvetica,sans-Serif" font-size="10.00"> mMaskMirrorPos</text>
</g>
<!-- Node2&#45;&gt;Node2 -->
<g id="edge3" class="edge">
<title>Node2&#45;&gt;Node2</title>
<path fill="none" stroke="#9a32cd" stroke-dasharray="5,2" d="M43.62,-132.67C50.62,-132.19 56,-128.3 56,-121 56,-110.14 44.07,-106.83 32.66,-111.07"/>
<polygon fill="#9a32cd" stroke="#9a32cd" points="44.58,-129.28 34.16,-131.17 43.49,-136.19 44.58,-129.28"/>
<text text-anchor="middle" x="77.5" y="-157" font-family="Helvetica,sans-Serif" font-size="10.00"> BaseX</text>
<text text-anchor="middle" x="77.5" y="-146" font-family="Helvetica,sans-Serif" font-size="10.00">BaseXY</text>
<text text-anchor="middle" x="77.5" y="-135" font-family="Helvetica,sans-Serif" font-size="10.00">BaseXYZ</text>
<text text-anchor="middle" x="77.5" y="-124" font-family="Helvetica,sans-Serif" font-size="10.00">BaseXZ</text>
<text text-anchor="middle" x="77.5" y="-113" font-family="Helvetica,sans-Serif" font-size="10.00">BaseY</text>
<text text-anchor="middle" x="77.5" y="-102" font-family="Helvetica,sans-Serif" font-size="10.00">BaseYZ</text>
<text text-anchor="middle" x="77.5" y="-91" font-family="Helvetica,sans-Serif" font-size="10.00">BaseZ</text>
<text text-anchor="middle" x="77.5" y="-80" font-family="Helvetica,sans-Serif" font-size="10.00">Zero</text>
</g>
<!-- Node3 -->
<g id="node3" class="node">
<title>Node3</title>
<g id="a_node3"><a xlink:href="structVec.html" target="_top" xlink:title=" ">
<polygon fill="white" stroke="#666666" points="36,-221 2,-221 2,-202 36,-202 36,-221"/>
<text text-anchor="middle" x="19" y="-209" font-family="Helvetica,sans-Serif" font-size="10.00">Vec</text>
</a>
</g>
</g>
<!-- Node3&#45;&gt;Node2 -->
<g id="edge2" class="edge">
<title>Node3&#45;&gt;Node2</title>
<path fill="none" stroke="#63b8ff" d="M19,-190.3C19,-171.55 19,-144.53 19,-130.77"/>
<polygon fill="#63b8ff" stroke="#63b8ff" points="15.5,-190.18 19,-200.18 22.5,-190.18 15.5,-190.18"/>
</g>
<!-- Node4 -->
<g id="node4" class="node">
<title>Node4</title>
<g id="a_node4"><a xlink:href="structJUtility_1_1TColor.html" target="_top" xlink:title=" ">
<polygon fill="white" stroke="#666666" points="197,-130.5 117,-130.5 117,-111.5 197,-111.5 197,-130.5"/>
<text text-anchor="middle" x="157" y="-118.5" font-family="Helvetica,sans-Serif" font-size="10.00">JUtility::TColor</text>
</a>
</g>
</g>
<!-- Node4&#45;&gt;Node1 -->
<g id="edge4" class="edge">
<title>Node4&#45;&gt;Node1</title>
<path fill="none" stroke="#9a32cd" stroke-dasharray="5,2" d="M155.87,-100.02C155.24,-88.11 154.48,-72.7 154,-59 153.52,-45.2 153.24,-29.17 153.11,-19.44"/>
<polygon fill="#9a32cd" stroke="#9a32cd" points="152.37,-100.01 156.41,-109.8 159.36,-99.63 152.37,-100.01"/>
<text text-anchor="middle" x="186" y="-51" font-family="Helvetica,sans-Serif" font-size="10.00"> mVesselBack</text>
<text text-anchor="middle" x="186" y="-40" font-family="Helvetica,sans-Serif" font-size="10.00">mVesselFront</text>
</g>
<!-- Node5 -->
<g id="node5" class="node">
<title>Node5</title>
<g id="a_node5"><a xlink:href="struct__GXColor.html" target="_top" xlink:title=" ">
<polygon fill="white" stroke="#666666" points="183.5,-221 130.5,-221 130.5,-202 183.5,-202 183.5,-221"/>
<text text-anchor="middle" x="157" y="-209" font-family="Helvetica,sans-Serif" font-size="10.00">GXColor</text>
</a>
</g>
</g>
<!-- Node5&#45;&gt;Node4 -->
<g id="edge5" class="edge">
<title>Node5&#45;&gt;Node4</title>
<path fill="none" stroke="#63b8ff" d="M157,-190.3C157,-171.55 157,-144.53 157,-130.77"/>
<polygon fill="#63b8ff" stroke="#63b8ff" points="153.5,-190.18 157,-200.18 160.5,-190.18 153.5,-190.18"/>
</g>
<!-- Node6 -->
<g id="node6" class="node">
<title>Node6</title>
<g id="a_node6"><a xlink:href="classcsXyz.html" target="_top" xlink:title=" ">
<polygon fill="white" stroke="#666666" points="261.5,-130.5 218.5,-130.5 218.5,-111.5 261.5,-111.5 261.5,-130.5"/>
<text text-anchor="middle" x="240" y="-118.5" font-family="Helvetica,sans-Serif" font-size="10.00">csXyz</text>
</a>
</g>
</g>
<!-- Node6&#45;&gt;Node1 -->
<g id="edge6" class="edge">
<title>Node6&#45;&gt;Node1</title>
<path fill="none" stroke="#9a32cd" stroke-dasharray="5,2" d="M239.56,-99.63C238.12,-81.2 233.28,-54.38 218,-37 211,-29.04 201.25,-23.43 191.43,-19.49"/>
<polygon fill="#9a32cd" stroke="#9a32cd" points="236.06,-99.73 240.03,-109.55 243.05,-99.39 236.06,-99.73"/>
<text text-anchor="middle" x="273.5" y="-45.5" font-family="Helvetica,sans-Serif" font-size="10.00"> mMaskMirrorAngle</text>
</g>
<!-- Node6&#45;&gt;Node6 -->
<g id="edge8" class="edge">
<title>Node6&#45;&gt;Node6</title>
<path fill="none" stroke="#9a32cd" stroke-dasharray="5,2" d="M265.76,-132.7C273.48,-132.37 279.5,-128.47 279.5,-121 279.5,-110.14 266.77,-106.83 254.58,-111.07"/>
<polygon fill="#9a32cd" stroke="#9a32cd" points="266.5,-129.27 256.08,-131.17 265.41,-136.18 266.5,-129.27"/>
<text text-anchor="middle" x="290.5" y="-118.5" font-family="Helvetica,sans-Serif" font-size="10.00"> Zero</text>
</g>
<!-- Node7 -->
<g id="node7" class="node">
<title>Node7</title>
<g id="a_node7"><a xlink:href="structSVec.html" target="_top" xlink:title=" ">
<polygon fill="white" stroke="#666666" points="260.5,-221 219.5,-221 219.5,-202 260.5,-202 260.5,-221"/>
<text text-anchor="middle" x="240" y="-209" font-family="Helvetica,sans-Serif" font-size="10.00">SVec</text>
</a>
</g>
</g>
<!-- Node7&#45;&gt;Node6 -->
<g id="edge7" class="edge">
<title>Node7&#45;&gt;Node6</title>
<path fill="none" stroke="#63b8ff" d="M240,-190.3C240,-171.55 240,-144.53 240,-130.77"/>
<polygon fill="#63b8ff" stroke="#63b8ff" points="236.5,-190.18 240,-200.18 243.5,-190.18 236.5,-190.18"/>
</g>
</g>
</svg>
