<?xml version="1.0" encoding="UTF-8" standalone="no"?>
<!DOCTYPE svg PUBLIC "-//W3C//DTD SVG 1.1//EN"
 "http://www.w3.org/Graphics/SVG/1.1/DTD/svg11.dtd">
<!-- Generated by graphviz version 7.0.5 (20221223.1930)
 -->
<!-- Title: dDemo_particle_c Pages: 1 -->
<svg width="125pt" height="148pt"
 viewBox="0.00 0.00 125.00 148.00" xmlns="http://www.w3.org/2000/svg" xmlns:xlink="http://www.w3.org/1999/xlink">
<g id="graph0" class="graph" transform="scale(1 1) rotate(0) translate(4 144)">
<title>dDemo_particle_c</title>
<!-- Node1 -->
<g id="node1" class="node">
<title>Node1</title>
<g id="a_node1"><a xlink:title=" ">
<polygon fill="#999999" stroke="#666666" points="106,-19 11,-19 11,0 106,0 106,-19"/>
<text text-anchor="middle" x="58.5" y="-7" font-family="Helvetica,sans-Serif" font-size="10.00">dDemo_particle_c</text>
</a>
</g>
</g>
<!-- Node2 -->
<g id="node2" class="node">
<title>Node2</title>
<g id="a_node2"><a xlink:href="structJStudio__JParticle_1_1TCreateObject.html" target="_top" xlink:title=" ">
<polygon fill="white" stroke="#666666" points="107.5,-85 9.5,-85 9.5,-55 107.5,-55 107.5,-85"/>
<text text-anchor="start" x="17.5" y="-73" font-family="Helvetica,sans-Serif" font-size="10.00">JStudio_JParticle::</text>
<text text-anchor="middle" x="58.5" y="-62" font-family="Helvetica,sans-Serif" font-size="10.00">TCreateObject</text>
</a>
</g>
</g>
<!-- Node2&#45;&gt;Node1 -->
<g id="edge1" class="edge">
<title>Node2&#45;&gt;Node1</title>
<path fill="none" stroke="#63b8ff" d="M58.5,-43.3C58.5,-34.65 58.5,-25.58 58.5,-19.18"/>
<polygon fill="#63b8ff" stroke="#63b8ff" points="55,-43.03 58.5,-53.03 62,-43.03 55,-43.03"/>
</g>
<!-- Node3 -->
<g id="node3" class="node">
<title>Node3</title>
<g id="a_node3"><a xlink:href="structJStudio_1_1TCreateObject.html" target="_top" xlink:title=" ">
<polygon fill="white" stroke="#666666" points="117,-140 0,-140 0,-121 117,-121 117,-140"/>
<text text-anchor="middle" x="58.5" y="-128" font-family="Helvetica,sans-Serif" font-size="10.00">JStudio::TCreateObject</text>
</a>
</g>
</g>
<!-- Node3&#45;&gt;Node2 -->
<g id="edge2" class="edge">
<title>Node3&#45;&gt;Node2</title>
<path fill="none" stroke="#63b8ff" d="M58.5,-109.51C58.5,-101.49 58.5,-92.43 58.5,-85.11"/>
<polygon fill="#63b8ff" stroke="#63b8ff" points="55,-109.35 58.5,-119.35 62,-109.35 55,-109.35"/>
</g>
</g>
</svg>
