<?xml version="1.0" encoding="UTF-8" standalone="no"?>
<!DOCTYPE svg PUBLIC "-//W3C//DTD SVG 1.1//EN"
 "http://www.w3.org/Graphics/SVG/1.1/DTD/svg11.dtd">
<!-- Generated by graphviz version 7.0.5 (20221223.1930)
 -->
<!-- Title: mDoExt_btpAnm Pages: 1 -->
<svg width="320pt" height="291pt"
 viewBox="0.00 0.00 319.50 291.00" xmlns="http://www.w3.org/2000/svg" xmlns:xlink="http://www.w3.org/1999/xlink">
<g id="graph0" class="graph" transform="scale(1 1) rotate(0) translate(4 287)">
<title>mDoExt_btpAnm</title>
<!-- Node1 -->
<g id="node1" class="node">
<title>Node1</title>
<g id="a_node1"><a xlink:title=" ">
<polygon fill="#999999" stroke="#666666" points="151,-19 62,-19 62,0 151,0 151,-19"/>
<text text-anchor="middle" x="106.5" y="-7" font-family="Helvetica,sans-Serif" font-size="10.00">mDoExt_btpAnm</text>
</a>
</g>
</g>
<!-- Node2 -->
<g id="node2" class="node">
<title>Node2</title>
<g id="a_node2"><a xlink:href="classmDoExt__baseAnm.html" target="_top" xlink:title=" ">
<polygon fill="white" stroke="#666666" points="97,-85 0,-85 0,-66 97,-66 97,-85"/>
<text text-anchor="middle" x="48.5" y="-73" font-family="Helvetica,sans-Serif" font-size="10.00">mDoExt_baseAnm</text>
</a>
</g>
</g>
<!-- Node2&#45;&gt;Node1 -->
<g id="edge1" class="edge">
<title>Node2&#45;&gt;Node1</title>
<path fill="none" stroke="#63b8ff" d="M64.25,-57.12C75.33,-44.89 89.7,-29.04 98.5,-19.32"/>
<polygon fill="#63b8ff" stroke="#63b8ff" points="61.7,-54.72 57.58,-64.48 66.89,-59.42 61.7,-54.72"/>
</g>
<!-- Node3 -->
<g id="node3" class="node">
<title>Node3</title>
<g id="a_node3"><a xlink:href="classJ3DFrameCtrl.html" target="_top" xlink:title=" ">
<polygon fill="white" stroke="#666666" points="87,-151 10,-151 10,-132 87,-132 87,-151"/>
<text text-anchor="middle" x="48.5" y="-139" font-family="Helvetica,sans-Serif" font-size="10.00">J3DFrameCtrl</text>
</a>
</g>
</g>
<!-- Node3&#45;&gt;Node2 -->
<g id="edge2" class="edge">
<title>Node3&#45;&gt;Node2</title>
<path fill="none" stroke="#9a32cd" stroke-dasharray="5,2" d="M48.5,-120.18C48.5,-108.44 48.5,-94.27 48.5,-85.32"/>
<polygon fill="#9a32cd" stroke="#9a32cd" points="45,-120.09 48.5,-130.09 52,-120.09 45,-120.09"/>
<text text-anchor="middle" x="75.5" y="-106" font-family="Helvetica,sans-Serif" font-size="10.00"> mFrameCtrl</text>
</g>
<!-- Node4 -->
<g id="node4" class="node">
<title>Node4</title>
<g id="a_node4"><a xlink:href="structJ3DAnmTexPattern.html" target="_top" xlink:title=" ">
<polygon fill="white" stroke="#666666" points="216,-85 115,-85 115,-66 216,-66 216,-85"/>
<text text-anchor="middle" x="165.5" y="-73" font-family="Helvetica,sans-Serif" font-size="10.00">J3DAnmTexPattern</text>
</a>
</g>
</g>
<!-- Node4&#45;&gt;Node1 -->
<g id="edge3" class="edge">
<title>Node4&#45;&gt;Node1</title>
<path fill="none" stroke="#9a32cd" stroke-dasharray="5,2" d="M149.81,-57.48C138.49,-45.2 123.67,-29.13 114.63,-19.32"/>
<polygon fill="#9a32cd" stroke="#9a32cd" points="146.92,-59.51 156.27,-64.49 152.07,-54.76 146.92,-59.51"/>
<text text-anchor="middle" x="159" y="-40" font-family="Helvetica,sans-Serif" font-size="10.00"> mpAnm</text>
</g>
<!-- Node5 -->
<g id="node5" class="node">
<title>Node5</title>
<g id="a_node5"><a xlink:href="classJ3DAnmBase.html" target="_top" xlink:title=" ">
<polygon fill="white" stroke="#666666" points="193,-151 116,-151 116,-132 193,-132 193,-151"/>
<text text-anchor="middle" x="154.5" y="-139" font-family="Helvetica,sans-Serif" font-size="10.00">J3DAnmBase</text>
</a>
</g>
</g>
<!-- Node5&#45;&gt;Node4 -->
<g id="edge4" class="edge">
<title>Node5&#45;&gt;Node4</title>
<path fill="none" stroke="#63b8ff" d="M157.93,-120.55C159.96,-108.74 162.43,-94.37 163.98,-85.32"/>
<polygon fill="#63b8ff" stroke="#63b8ff" points="154.53,-119.66 156.29,-130.11 161.43,-120.85 154.53,-119.66"/>
</g>
<!-- Node6 -->
<g id="node6" class="node">
<title>Node6</title>
<g id="a_node6"><a xlink:href="structJUTNameTab.html" target="_top" xlink:title=" ">
<polygon fill="white" stroke="#666666" points="289.5,-151 211.5,-151 211.5,-132 289.5,-132 289.5,-151"/>
<text text-anchor="middle" x="250.5" y="-139" font-family="Helvetica,sans-Serif" font-size="10.00">JUTNameTab</text>
</a>
</g>
</g>
<!-- Node6&#45;&gt;Node4 -->
<g id="edge5" class="edge">
<title>Node6&#45;&gt;Node4</title>
<path fill="none" stroke="#9a32cd" stroke-dasharray="5,2" d="M229.77,-124.89C213.26,-112.46 190.75,-95.51 177.22,-85.32"/>
<polygon fill="#9a32cd" stroke="#9a32cd" points="227.38,-127.47 237.47,-130.69 231.59,-121.88 227.38,-127.47"/>
<text text-anchor="middle" x="235.5" y="-106" font-family="Helvetica,sans-Serif" font-size="10.00"> field_0x1c</text>
</g>
<!-- Node7 -->
<g id="node7" class="node">
<title>Node7</title>
<g id="a_node7"><a xlink:href="structResNTAB.html" target="_top" xlink:title=" ">
<polygon fill="white" stroke="#666666" points="281,-217 220,-217 220,-198 281,-198 281,-217"/>
<text text-anchor="middle" x="250.5" y="-205" font-family="Helvetica,sans-Serif" font-size="10.00">ResNTAB</text>
</a>
</g>
</g>
<!-- Node7&#45;&gt;Node6 -->
<g id="edge6" class="edge">
<title>Node7&#45;&gt;Node6</title>
<path fill="none" stroke="#9a32cd" stroke-dasharray="5,2" d="M250.5,-186.18C250.5,-174.44 250.5,-160.27 250.5,-151.32"/>
<polygon fill="#9a32cd" stroke="#9a32cd" points="247,-186.09 250.5,-196.09 254,-186.09 247,-186.09"/>
<text text-anchor="middle" x="281" y="-172" font-family="Helvetica,sans-Serif" font-size="10.00"> mNameTable</text>
</g>
<!-- Node8 -->
<g id="node8" class="node">
<title>Node8</title>
<g id="a_node8"><a xlink:href="structResNTAB_1_1Entry.html" target="_top" xlink:title=" ">
<polygon fill="white" stroke="#666666" points="294,-283 207,-283 207,-264 294,-264 294,-283"/>
<text text-anchor="middle" x="250.5" y="-271" font-family="Helvetica,sans-Serif" font-size="10.00">ResNTAB::Entry</text>
</a>
</g>
</g>
<!-- Node8&#45;&gt;Node7 -->
<g id="edge7" class="edge">
<title>Node8&#45;&gt;Node7</title>
<path fill="none" stroke="#9a32cd" stroke-dasharray="5,2" d="M250.5,-252.18C250.5,-240.44 250.5,-226.27 250.5,-217.32"/>
<polygon fill="#9a32cd" stroke="#9a32cd" points="247,-252.09 250.5,-262.09 254,-252.09 247,-252.09"/>
<text text-anchor="middle" x="271" y="-238" font-family="Helvetica,sans-Serif" font-size="10.00"> mEntries</text>
</g>
</g>
</svg>
