<?xml version="1.0" encoding="UTF-8" standalone="no"?>
<!DOCTYPE svg PUBLIC "-//W3C//DTD SVG 1.1//EN"
 "http://www.w3.org/Graphics/SVG/1.1/DTD/svg11.dtd">
<!-- Generated by graphviz version 7.0.5 (20221223.1930)
 -->
<!-- Title: JKRSolidHeap Pages: 1 -->
<!--zoomable 446 -->
<svg id="main" version="1.1" xmlns="http://www.w3.org/2000/svg" xmlns:xlink="http://www.w3.org/1999/xlink" xml:space="preserve" onload="init(evt)">
<style type="text/css"><![CDATA[
.edge:hover path { stroke: red; }
.edge:hover polygon { stroke: red; fill: red; }
]]></style>
<script type="text/javascript"><![CDATA[
var edges = document.getElementsByTagName('g');
if (edges && edges.length) {
  for (var i=0;i<edges.length;i++) {
    if (edges[i].id.substr(0,4)=='edge') {
      edges[i].setAttribute('class','edge');
    }
  }
}
]]></script>
        <defs>
                <circle id="rim" cx="0" cy="0" r="7"/>
                <circle id="rim2" cx="0" cy="0" r="3.5"/>
                <g id="zoomPlus">
                        <use xlink:href="#rim" fill="#404040">
                                <set attributeName="fill" to="#808080" begin="zoomplus.mouseover" end="zoomplus.mouseout"/>
                        </use>
                        <path d="M-4,0h8M0,-4v8" fill="none" stroke="white" stroke-width="1.5" pointer-events="none"/>
                </g>
                <g id="zoomMin">
                        <use xlink:href="#rim" fill="#404040">
                                <set attributeName="fill" to="#808080" begin="zoomminus.mouseover" end="zoomminus.mouseout"/>
                        </use>
                        <path d="M-4,0h8" fill="none" stroke="white" stroke-width="1.5" pointer-events="none"/>
                </g>
                <g id="dirArrow">
                        <path fill="none" stroke="white" stroke-width="1.5" d="M0,-3.0v7 M-2.5,-0.5L0,-3.0L2.5,-0.5"/>
                </g>
               <g id="resetDef">
                       <use xlink:href="#rim2" fill="#404040">
                               <set attributeName="fill" to="#808080" begin="reset.mouseover" end="reset.mouseout"/>
                       </use>
               </g>
        </defs>

<script type="text/javascript">
var viewWidth = 1292;
var viewHeight = 446;
var sectionId = 'dynsection-1';
</script>
<script xlink:href="svgpan.js"/>
<svg id="graph" class="graph">
<g id="viewport">
<title>JKRSolidHeap</title>
<!-- Node1 -->
<g id="node1" class="node">
<title>Node1</title>
<g id="a_node1"><a xlink:title=" ">
<polygon fill="#999999" stroke="#666666" points="1072,-344.59 992,-344.59 992,-325.59 1072,-325.59 1072,-344.59"/>
<text text-anchor="middle" x="1032" y="-332.59" font-family="Helvetica,sans-Serif" font-size="10.00">JKRSolidHeap</text>
</a>
</g>
</g>
<!-- Node2 -->
<g id="node2" class="node">
<title>Node2</title>
<g id="a_node2"><a xlink:href="structJKRHeap.html" target="_top" xlink:title=" ">
<polygon fill="white" stroke="#666666" points="849.5,-281.59 790.5,-281.59 790.5,-262.59 849.5,-262.59 849.5,-281.59"/>
<text text-anchor="middle" x="820" y="-269.59" font-family="Helvetica,sans-Serif" font-size="10.00">JKRHeap</text>
</a>
</g>
</g>
<!-- Node2&#45;&gt;Node1 -->
<g id="edge1" class="edge">
<title>Node2&#45;&gt;Node1</title>
<path fill="none" stroke="#63b8ff" d="M855.86,-286.11C869.78,-291.46 886.03,-297.4 901,-302.09 931.11,-311.52 965.76,-320.21 991.72,-326.31"/>
<polygon fill="#63b8ff" stroke="#63b8ff" points="857.27,-282.9 846.68,-282.53 854.72,-289.43 857.27,-282.9"/>
</g>
<!-- Node2&#45;&gt;Node2 -->
<g id="edge9" class="edge">
<title>Node2&#45;&gt;Node2</title>
<path fill="none" stroke="#9a32cd" stroke-dasharray="5,2" d="M801.01,-293.02C803.38,-296.88 809.71,-299.59 820,-299.59 838.81,-299.59 844.39,-290.52 836.75,-281.96"/>
<polygon fill="#9a32cd" stroke="#9a32cd" points="804.39,-293.93 802.95,-283.44 797.53,-292.55 804.39,-293.93"/>
<text text-anchor="middle" x="820" y="-324.59" font-family="Helvetica,sans-Serif" font-size="10.00"> sCurrentHeap</text>
<text text-anchor="middle" x="820" y="-313.59" font-family="Helvetica,sans-Serif" font-size="10.00">sRootHeap</text>
<text text-anchor="middle" x="820" y="-302.59" font-family="Helvetica,sans-Serif" font-size="10.00">sSystemHeap</text>
</g>
<!-- Node3 -->
<g id="node3" class="node">
<title>Node3</title>
<g id="a_node3"><a xlink:href="classJKRDisposer.html" target="_top" xlink:title=" ">
<polygon fill="white" stroke="#666666" points="1069,-307.59 995,-307.59 995,-288.59 1069,-288.59 1069,-307.59"/>
<text text-anchor="middle" x="1032" y="-295.59" font-family="Helvetica,sans-Serif" font-size="10.00">JKRDisposer</text>
</a>
</g>
</g>
<!-- Node2&#45;&gt;Node3 -->
<g id="edge3" class="edge">
<title>Node2&#45;&gt;Node3</title>
<path fill="none" stroke="#9a32cd" stroke-dasharray="5,2" d="M861.17,-266.92C892.34,-264.08 936.43,-262.64 974,-271.09 988.74,-274.4 1004.15,-281.99 1015.23,-288.28"/>
<polygon fill="#9a32cd" stroke="#9a32cd" points="861,-263.42 851.4,-267.91 861.7,-270.38 861,-263.42"/>
<text text-anchor="middle" x="937.5" y="-274.09" font-family="Helvetica,sans-Serif" font-size="10.00"> mHeap</text>
</g>
<!-- Node3&#45;&gt;Node2 -->
<g id="edge2" class="edge">
<title>Node3&#45;&gt;Node2</title>
<path fill="none" stroke="#63b8ff" d="M983.31,-293.43C958.7,-290.91 928.21,-287.59 901,-284.09 884.01,-281.9 865.04,-279.07 849.84,-276.71"/>
<polygon fill="#63b8ff" stroke="#63b8ff" points="982.72,-296.89 993.02,-294.42 983.43,-289.93 982.72,-296.89"/>
</g>
<!-- Node4 -->
<g id="node4" class="node">
<title>Node4</title>
<g id="a_node4"><a xlink:href="classJSULink.html" target="_top" xlink:title=" ">
<polygon fill="white" stroke="#666666" points="537,-374.59 409,-374.59 409,-355.59 537,-355.59 537,-374.59"/>
<text text-anchor="middle" x="473" y="-362.59" font-family="Helvetica,sans-Serif" font-size="10.00">JSULink&lt; JKRDisposer &gt;</text>
</a>
</g>
</g>
<!-- Node4&#45;&gt;Node3 -->
<g id="edge4" class="edge">
<title>Node4&#45;&gt;Node3</title>
<path fill="none" stroke="#9a32cd" stroke-dasharray="5,2" d="M548.49,-366.07C630.92,-365.97 767.4,-362.24 883,-342.09 926.44,-334.52 975.16,-318.51 1004.44,-308.03"/>
<polygon fill="#9a32cd" stroke="#9a32cd" points="548.74,-362.57 538.74,-366.07 548.74,-369.57 548.74,-362.57"/>
<text text-anchor="middle" x="713" y="-365.09" font-family="Helvetica,sans-Serif" font-size="10.00"> mLink</text>
</g>
<!-- Node5 -->
<g id="node5" class="node">
<title>Node5</title>
<g id="a_node5"><a xlink:href="structJSUPtrLink.html" target="_top" xlink:title=" ">
<polygon fill="white" stroke="#666666" points="68,-323.59 0,-323.59 0,-304.59 68,-304.59 68,-323.59"/>
<text text-anchor="middle" x="34" y="-311.59" font-family="Helvetica,sans-Serif" font-size="10.00">JSUPtrLink</text>
</a>
</g>
</g>
<!-- Node5&#45;&gt;Node4 -->
<g id="edge5" class="edge">
<title>Node5&#45;&gt;Node4</title>
<path fill="none" stroke="#63b8ff" d="M67.47,-328.16C73.54,-330.41 79.9,-332.51 86,-334.09 196.97,-362.79 331.35,-367.01 408.73,-366.63"/>
<polygon fill="#63b8ff" stroke="#63b8ff" points="68.95,-324.98 58.37,-324.59 66.4,-331.5 68.95,-324.98"/>
</g>
<!-- Node5&#45;&gt;Node5 -->
<g id="edge8" class="edge">
<title>Node5&#45;&gt;Node5</title>
<path fill="none" stroke="#9a32cd" stroke-dasharray="5,2" d="M21.89,-335.35C23.52,-339.03 27.56,-341.59 34,-341.59 46.13,-341.59 49.73,-332.52 44.8,-323.96"/>
<polygon fill="#9a32cd" stroke="#9a32cd" points="25.36,-335.79 23.03,-325.46 18.41,-334.99 25.36,-335.79"/>
<text text-anchor="middle" x="34" y="-355.59" font-family="Helvetica,sans-Serif" font-size="10.00"> mNext</text>
<text text-anchor="middle" x="34" y="-344.59" font-family="Helvetica,sans-Serif" font-size="10.00">mPrev</text>
</g>
<!-- Node6 -->
<g id="node6" class="node">
<title>Node6</title>
<g id="a_node6"><a xlink:href="structJSUPtrList.html" target="_top" xlink:title=" ">
<polygon fill="white" stroke="#666666" points="203,-285.59 138,-285.59 138,-266.59 203,-266.59 203,-285.59"/>
<text text-anchor="middle" x="170.5" y="-273.59" font-family="Helvetica,sans-Serif" font-size="10.00">JSUPtrList</text>
</a>
</g>
</g>
<!-- Node5&#45;&gt;Node6 -->
<g id="edge7" class="edge">
<title>Node5&#45;&gt;Node6</title>
<path fill="none" stroke="#9a32cd" stroke-dasharray="5,2" d="M74.37,-300.64C78.28,-299.4 82.21,-298.19 86,-297.09 102.93,-292.14 122,-287.3 137.63,-283.51"/>
<polygon fill="#9a32cd" stroke="#9a32cd" points="73.34,-297.29 64.91,-303.71 75.5,-303.95 73.34,-297.29"/>
<text text-anchor="middle" x="103" y="-311.09" font-family="Helvetica,sans-Serif" font-size="10.00"> mHead</text>
<text text-anchor="middle" x="103" y="-300.09" font-family="Helvetica,sans-Serif" font-size="10.00">mTail</text>
</g>
<!-- Node16 -->
<g id="node16" class="node">
<title>Node16</title>
<g id="a_node16"><a xlink:href="classJSULink.html" target="_top" xlink:title=" ">
<polygon fill="white" stroke="#666666" points="298,-342.59 221,-342.59 221,-323.59 298,-323.59 298,-342.59"/>
<text text-anchor="middle" x="259.5" y="-330.59" font-family="Helvetica,sans-Serif" font-size="10.00">JSULink&lt; T &gt;</text>
</a>
</g>
</g>
<!-- Node5&#45;&gt;Node16 -->
<g id="edge27" class="edge">
<title>Node5&#45;&gt;Node16</title>
<path fill="none" stroke="#63b8ff" d="M79.77,-318.52C81.88,-318.71 83.96,-318.9 86,-319.09 132.39,-323.24 185.84,-327.5 220.8,-330.21"/>
<polygon fill="#63b8ff" stroke="#63b8ff" points="80.25,-315.05 69.97,-317.59 79.59,-322.02 80.25,-315.05"/>
</g>
<!-- Node6&#45;&gt;Node5 -->
<g id="edge6" class="edge">
<title>Node6&#45;&gt;Node5</title>
<path fill="none" stroke="#9a32cd" stroke-dasharray="5,2" d="M135.95,-262.82C120.3,-258.63 101.71,-256.58 86,-263.09 65.87,-271.43 49.54,-291.99 41.15,-304.31"/>
<polygon fill="#9a32cd" stroke="#9a32cd" points="134.71,-266.1 145.3,-265.71 136.78,-259.41 134.71,-266.1"/>
<text text-anchor="middle" x="103" y="-266.09" font-family="Helvetica,sans-Serif" font-size="10.00"> mList</text>
</g>
<!-- Node15 -->
<g id="node15" class="node">
<title>Node15</title>
<g id="a_node15"><a xlink:href="classJSUList.html" target="_top" xlink:title=" ">
<polygon fill="white" stroke="#666666" points="391,-304.59 316,-304.59 316,-285.59 391,-285.59 391,-304.59"/>
<text text-anchor="middle" x="353.5" y="-292.59" font-family="Helvetica,sans-Serif" font-size="10.00">JSUList&lt; T &gt;</text>
</a>
</g>
</g>
<!-- Node6&#45;&gt;Node15 -->
<g id="edge25" class="edge">
<title>Node6&#45;&gt;Node15</title>
<path fill="none" stroke="#63b8ff" d="M214.69,-280.62C245.44,-283.85 286.34,-288.14 315.57,-291.21"/>
<polygon fill="#63b8ff" stroke="#63b8ff" points="215.26,-277.16 204.95,-279.6 214.53,-284.12 215.26,-277.16"/>
</g>
<!-- Node17 -->
<g id="node17" class="node">
<title>Node17</title>
<g id="a_node17"><a xlink:href="classJSUList.html" target="_top" xlink:title=" ">
<polygon fill="white" stroke="#666666" points="536,-275.59 410,-275.59 410,-256.59 536,-256.59 536,-275.59"/>
<text text-anchor="middle" x="473" y="-263.59" font-family="Helvetica,sans-Serif" font-size="10.00">JSUList&lt; JKRDisposer &gt;</text>
</a>
</g>
</g>
<!-- Node6&#45;&gt;Node17 -->
<g id="edge29" class="edge">
<title>Node6&#45;&gt;Node17</title>
<path fill="none" stroke="#63b8ff" d="M214.67,-274.65C265.82,-272.95 351.43,-270.1 409.74,-268.16"/>
<polygon fill="#63b8ff" stroke="#63b8ff" points="214.77,-271.15 204.89,-274.98 215,-278.14 214.77,-271.15"/>
</g>
<!-- Node7 -->
<g id="node7" class="node">
<title>Node7</title>
<g id="a_node7"><a xlink:href="structOSMutex.html" target="_top" xlink:title=" ">
<polygon fill="white" stroke="#666666" points="640.5,-97.59 583.5,-97.59 583.5,-78.59 640.5,-78.59 640.5,-97.59"/>
<text text-anchor="middle" x="612" y="-85.59" font-family="Helvetica,sans-Serif" font-size="10.00">OSMutex</text>
</a>
</g>
</g>
<!-- Node7&#45;&gt;Node2 -->
<g id="edge10" class="edge">
<title>Node7&#45;&gt;Node2</title>
<path fill="none" stroke="#9a32cd" stroke-dasharray="5,2" d="M619.45,-108.76C629.48,-137.68 651.41,-190.13 687,-221.09 695.11,-228.14 753.82,-249.38 790.15,-262.12"/>
<polygon fill="#9a32cd" stroke="#9a32cd" points="622.82,-107.78 616.36,-99.38 616.17,-109.97 622.82,-107.78"/>
<text text-anchor="middle" x="713" y="-247.09" font-family="Helvetica,sans-Serif" font-size="10.00"> mMutex</text>
</g>
<!-- Node9 -->
<g id="node9" class="node">
<title>Node9</title>
<g id="a_node9"><a xlink:href="structOSThread.html" target="_top" xlink:title=" ">
<polygon fill="white" stroke="#666666" points="1062.5,-134.59 1001.5,-134.59 1001.5,-115.59 1062.5,-115.59 1062.5,-134.59"/>
<text text-anchor="middle" x="1032" y="-122.59" font-family="Helvetica,sans-Serif" font-size="10.00">OSThread</text>
</a>
</g>
</g>
<!-- Node7&#45;&gt;Node9 -->
<g id="edge17" class="edge">
<title>Node7&#45;&gt;Node9</title>
<path fill="none" stroke="#9a32cd" stroke-dasharray="5,2" d="M649.72,-101.57C661.47,-105.32 674.64,-108.95 687,-111.09 801.85,-130.92 941.33,-128.66 1001.28,-126.46"/>
<polygon fill="#9a32cd" stroke="#9a32cd" points="650.99,-98.31 640.4,-98.46 648.78,-104.95 650.99,-98.31"/>
<text text-anchor="middle" x="820" y="-131.09" font-family="Helvetica,sans-Serif" font-size="10.00"> mutex</text>
</g>
<!-- Node12 -->
<g id="node12" class="node">
<title>Node12</title>
<g id="a_node12"><a xlink:href="structOSMutexQueue.html" target="_top" xlink:title=" ">
<polygon fill="white" stroke="#666666" points="863,-88.59 777,-88.59 777,-69.59 863,-69.59 863,-88.59"/>
<text text-anchor="middle" x="820" y="-76.59" font-family="Helvetica,sans-Serif" font-size="10.00">OSMutexQueue</text>
</a>
</g>
</g>
<!-- Node7&#45;&gt;Node12 -->
<g id="edge19" class="edge">
<title>Node7&#45;&gt;Node12</title>
<path fill="none" stroke="#9a32cd" stroke-dasharray="5,2" d="M652.16,-86.38C687.75,-84.82 740.13,-82.53 776.67,-80.94"/>
<polygon fill="#9a32cd" stroke="#9a32cd" points="652.13,-82.87 642.29,-86.81 652.44,-89.87 652.13,-82.87"/>
<text text-anchor="middle" x="713" y="-99.09" font-family="Helvetica,sans-Serif" font-size="10.00"> head</text>
<text text-anchor="middle" x="713" y="-88.09" font-family="Helvetica,sans-Serif" font-size="10.00">tail</text>
</g>
<!-- Node13 -->
<g id="node13" class="node">
<title>Node13</title>
<g id="a_node13"><a xlink:href="structOSMutexLink.html" target="_top" xlink:title=" ">
<polygon fill="white" stroke="#666666" points="858,-37.59 782,-37.59 782,-18.59 858,-18.59 858,-37.59"/>
<text text-anchor="middle" x="820" y="-25.59" font-family="Helvetica,sans-Serif" font-size="10.00">OSMutexLink</text>
</a>
</g>
</g>
<!-- Node7&#45;&gt;Node13 -->
<g id="edge22" class="edge">
<title>Node7&#45;&gt;Node13</title>
<path fill="none" stroke="#9a32cd" stroke-dasharray="5,2" d="M628.27,-69.92C641.92,-55.21 663.38,-35.57 687,-27.09 717.52,-16.13 754.63,-17.59 781.72,-21.09"/>
<polygon fill="#9a32cd" stroke="#9a32cd" points="625.85,-67.38 621.83,-77.18 631.09,-72.02 625.85,-67.38"/>
<text text-anchor="middle" x="713" y="-41.09" font-family="Helvetica,sans-Serif" font-size="10.00"> next</text>
<text text-anchor="middle" x="713" y="-30.09" font-family="Helvetica,sans-Serif" font-size="10.00">prev</text>
</g>
<!-- Node8 -->
<g id="node8" class="node">
<title>Node8</title>
<g id="a_node8"><a xlink:href="structOSThreadQueue.html" target="_top" xlink:title=" ">
<polygon fill="white" stroke="#666666" points="1284,-44.59 1195,-44.59 1195,-25.59 1284,-25.59 1284,-44.59"/>
<text text-anchor="middle" x="1239.5" y="-32.59" font-family="Helvetica,sans-Serif" font-size="10.00">OSThreadQueue</text>
</a>
</g>
</g>
<!-- Node8&#45;&gt;Node7 -->
<g id="edge11" class="edge">
<title>Node8&#45;&gt;Node7</title>
<path fill="none" stroke="#9a32cd" stroke-dasharray="5,2" d="M1197.18,-22.22C1190.49,-20.55 1183.6,-19.09 1177,-18.09 992.39,9.84 943.54,-1.11 757,-9.09 725.8,-10.42 715.36,-2.01 687,-15.09 656.35,-29.22 630.99,-61.66 619.55,-78.12"/>
<polygon fill="#9a32cd" stroke="#9a32cd" points="1196.13,-25.56 1206.69,-24.76 1197.94,-18.8 1196.13,-25.56"/>
<text text-anchor="middle" x="937.5" y="-5.09" font-family="Helvetica,sans-Serif" font-size="10.00"> queue</text>
</g>
<!-- Node8&#45;&gt;Node9 -->
<g id="edge14" class="edge">
<title>Node8&#45;&gt;Node9</title>
<path fill="none" stroke="#9a32cd" stroke-dasharray="5,2" d="M1201.07,-49.01C1170.78,-60.57 1127.18,-77.84 1090,-95.09 1076.61,-101.3 1061.87,-109.08 1050.74,-115.16"/>
<polygon fill="#9a32cd" stroke="#9a32cd" points="1202.07,-52.38 1210.18,-45.56 1199.59,-45.83 1202.07,-52.38"/>
<text text-anchor="middle" x="1133.5" y="-109.09" font-family="Helvetica,sans-Serif" font-size="10.00"> join_queue</text>
<text text-anchor="middle" x="1133.5" y="-98.09" font-family="Helvetica,sans-Serif" font-size="10.00">queue</text>
</g>
<!-- Node9&#45;&gt;Node7 -->
<g id="edge20" class="edge">
<title>Node9&#45;&gt;Node7</title>
<path fill="none" stroke="#9a32cd" stroke-dasharray="5,2" d="M1012.37,-142.34C1001.86,-151.12 988.05,-161.16 974,-167.09 884.93,-204.66 849.66,-209.65 757,-182.09 700.34,-165.23 645.18,-118.22 623.1,-97.78"/>
<polygon fill="#9a32cd" stroke="#9a32cd" points="1014.65,-145 1019.87,-135.78 1010.04,-139.73 1014.65,-145"/>
<text text-anchor="middle" x="820" y="-203.09" font-family="Helvetica,sans-Serif" font-size="10.00"> thread</text>
</g>
<!-- Node9&#45;&gt;Node8 -->
<g id="edge12" class="edge">
<title>Node9&#45;&gt;Node8</title>
<path fill="none" stroke="#9a32cd" stroke-dasharray="5,2" d="M1039.51,-104.7C1047.56,-83.27 1063.56,-50.67 1090,-36.09 1122.28,-18.28 1164.84,-20.06 1196.11,-25.09"/>
<polygon fill="#9a32cd" stroke="#9a32cd" points="1036.3,-103.25 1036.33,-113.85 1042.92,-105.55 1036.3,-103.25"/>
<text text-anchor="middle" x="1133.5" y="-50.09" font-family="Helvetica,sans-Serif" font-size="10.00"> head</text>
<text text-anchor="middle" x="1133.5" y="-39.09" font-family="Helvetica,sans-Serif" font-size="10.00">tail</text>
</g>
<!-- Node11 -->
<g id="node11" class="node">
<title>Node11</title>
<g id="a_node11"><a xlink:href="structOSThreadLink.html" target="_top" xlink:title=" ">
<polygon fill="white" stroke="#666666" points="1279.5,-156.59 1199.5,-156.59 1199.5,-137.59 1279.5,-137.59 1279.5,-156.59"/>
<text text-anchor="middle" x="1239.5" y="-144.59" font-family="Helvetica,sans-Serif" font-size="10.00">OSThreadLink</text>
</a>
</g>
</g>
<!-- Node9&#45;&gt;Node11 -->
<g id="edge16" class="edge">
<title>Node9&#45;&gt;Node11</title>
<path fill="none" stroke="#9a32cd" stroke-dasharray="5,2" d="M1062.55,-139.5C1071.19,-143.03 1080.79,-146.3 1090,-148.09 1126.45,-155.16 1168.88,-153.96 1199.03,-151.56"/>
<polygon fill="#9a32cd" stroke="#9a32cd" points="1064.17,-136.39 1053.6,-135.6 1061.37,-142.81 1064.17,-136.39"/>
<text text-anchor="middle" x="1133.5" y="-168.09" font-family="Helvetica,sans-Serif" font-size="10.00"> next</text>
<text text-anchor="middle" x="1133.5" y="-157.09" font-family="Helvetica,sans-Serif" font-size="10.00">prev</text>
</g>
<!-- Node10 -->
<g id="node10" class="node">
<title>Node10</title>
<g id="a_node10"><a xlink:href="structOSContext.html" target="_top" xlink:title=" ">
<polygon fill="white" stroke="#666666" points="852,-173.59 788,-173.59 788,-154.59 852,-154.59 852,-173.59"/>
<text text-anchor="middle" x="820" y="-161.59" font-family="Helvetica,sans-Serif" font-size="10.00">OSContext</text>
</a>
</g>
</g>
<!-- Node10&#45;&gt;Node9 -->
<g id="edge13" class="edge">
<title>Node10&#45;&gt;Node9</title>
<path fill="none" stroke="#9a32cd" stroke-dasharray="5,2" d="M863.67,-158.04C894.45,-153.45 936.94,-146.65 974,-139.09 982.89,-137.27 992.48,-135.03 1001.22,-132.87"/>
<polygon fill="#9a32cd" stroke="#9a32cd" points="863.37,-154.54 853.98,-159.46 864.39,-161.47 863.37,-154.54"/>
<text text-anchor="middle" x="937.5" y="-155.09" font-family="Helvetica,sans-Serif" font-size="10.00"> context</text>
</g>
<!-- Node11&#45;&gt;Node9 -->
<g id="edge15" class="edge">
<title>Node11&#45;&gt;Node9</title>
<path fill="none" stroke="#9a32cd" stroke-dasharray="5,2" d="M1204.61,-133.34C1195.77,-130.36 1186.15,-127.64 1177,-126.09 1137.93,-119.46 1092.04,-120.66 1062.75,-122.53"/>
<polygon fill="#9a32cd" stroke="#9a32cd" points="1203.29,-136.59 1213.88,-136.68 1205.66,-130 1203.29,-136.59"/>
<text text-anchor="middle" x="1133.5" y="-140.09" font-family="Helvetica,sans-Serif" font-size="10.00"> active_threads_link</text>
<text text-anchor="middle" x="1133.5" y="-129.09" font-family="Helvetica,sans-Serif" font-size="10.00">link</text>
</g>
<!-- Node12&#45;&gt;Node9 -->
<g id="edge18" class="edge">
<title>Node12&#45;&gt;Node9</title>
<path fill="none" stroke="#9a32cd" stroke-dasharray="5,2" d="M874.59,-82.79C904.3,-85.74 941.65,-90.96 974,-100.09 987.1,-103.78 1001.12,-109.9 1011.97,-115.15"/>
<polygon fill="#9a32cd" stroke="#9a32cd" points="874.99,-79.31 864.71,-81.86 874.34,-86.28 874.99,-79.31"/>
<text text-anchor="middle" x="937.5" y="-103.09" font-family="Helvetica,sans-Serif" font-size="10.00"> owned_mutexes</text>
</g>
<!-- Node13&#45;&gt;Node7 -->
<g id="edge21" class="edge">
<title>Node13&#45;&gt;Node7</title>
<path fill="none" stroke="#9a32cd" stroke-dasharray="5,2" d="M773.87,-41.23C733.27,-53.06 674.91,-70.05 640.78,-80"/>
<polygon fill="#9a32cd" stroke="#9a32cd" points="774.74,-44.62 783.36,-38.47 772.78,-37.9 774.74,-44.62"/>
<text text-anchor="middle" x="713" y="-69.09" font-family="Helvetica,sans-Serif" font-size="10.00"> link</text>
</g>
<!-- Node14 -->
<g id="node14" class="node">
<title>Node14</title>
<g id="a_node14"><a xlink:href="classJSUTree.html" target="_top" xlink:title=" ">
<polygon fill="white" stroke="#666666" points="669,-317.59 555,-317.59 555,-298.59 669,-298.59 669,-317.59"/>
<text text-anchor="middle" x="612" y="-305.59" font-family="Helvetica,sans-Serif" font-size="10.00">JSUTree&lt; JKRHeap &gt;</text>
</a>
</g>
</g>
<!-- Node14&#45;&gt;Node2 -->
<g id="edge23" class="edge">
<title>Node14&#45;&gt;Node2</title>
<path fill="none" stroke="#9a32cd" stroke-dasharray="5,2" d="M680.55,-296.28C717.65,-289.8 761.74,-282.09 790.03,-277.15"/>
<polygon fill="#9a32cd" stroke="#9a32cd" points="680.03,-292.82 670.78,-297.99 681.23,-299.72 680.03,-292.82"/>
<text text-anchor="middle" x="713" y="-297.09" font-family="Helvetica,sans-Serif" font-size="10.00"> mChildTree</text>
</g>
<!-- Node15&#45;&gt;Node14 -->
<g id="edge24" class="edge">
<title>Node15&#45;&gt;Node14</title>
<path fill="none" stroke="#63b8ff" d="M402.61,-297.53C445.86,-299.72 509.41,-302.94 554.95,-305.25"/>
<polygon fill="#63b8ff" stroke="#63b8ff" points="402.93,-294.04 392.76,-297.03 402.57,-301.03 402.93,-294.04"/>
</g>
<!-- Node16&#45;&gt;Node14 -->
<g id="edge26" class="edge">
<title>Node16&#45;&gt;Node14</title>
<path fill="none" stroke="#63b8ff" d="M309.28,-329.92C364.53,-326.28 457.26,-320.06 537,-314.09 542.78,-313.65 548.82,-313.19 554.84,-312.71"/>
<polygon fill="#63b8ff" stroke="#63b8ff" points="309.34,-326.41 299.59,-330.55 309.8,-333.39 309.34,-326.41"/>
</g>
<!-- Node17&#45;&gt;Node2 -->
<g id="edge28" class="edge">
<title>Node17&#45;&gt;Node2</title>
<path fill="none" stroke="#9a32cd" stroke-dasharray="5,2" d="M547.81,-267.37C623.47,-268.69 737.29,-270.67 790.14,-271.59"/>
<polygon fill="#9a32cd" stroke="#9a32cd" points="548.05,-263.87 537.99,-267.2 547.93,-270.87 548.05,-263.87"/>
<text text-anchor="middle" x="612" y="-272.09" font-family="Helvetica,sans-Serif" font-size="10.00"> mDisposerList</text>
</g>
<!-- Node18 -->
<g id="node18" class="node">
<title>Node18</title>
<g id="a_node18"><a xlink:href="structJKRSolidHeap_1_1Unknown.html" target="_top" xlink:title=" ">
<polygon fill="white" stroke="#666666" points="883,-408.59 757,-408.59 757,-389.59 883,-389.59 883,-408.59"/>
<text text-anchor="middle" x="820" y="-396.59" font-family="Helvetica,sans-Serif" font-size="10.00">JKRSolidHeap::Unknown</text>
</a>
</g>
</g>
<!-- Node18&#45;&gt;Node1 -->
<g id="edge30" class="edge">
<title>Node18&#45;&gt;Node1</title>
<path fill="none" stroke="#9a32cd" stroke-dasharray="5,2" d="M894.57,-393.67C920.35,-390.07 949.08,-384.07 974,-374.09 991.59,-367.04 1009.18,-353.84 1020.07,-344.76"/>
<polygon fill="#9a32cd" stroke="#9a32cd" points="894.31,-390.18 884.84,-394.93 895.2,-397.12 894.31,-390.18"/>
<text text-anchor="middle" x="937.5" y="-395.09" font-family="Helvetica,sans-Serif" font-size="10.00"> field_0x78</text>
</g>
<!-- Node18&#45;&gt;Node18 -->
<g id="edge31" class="edge">
<title>Node18&#45;&gt;Node18</title>
<path fill="none" stroke="#9a32cd" stroke-dasharray="5,2" d="M801.01,-420.02C803.38,-423.88 809.71,-426.59 820,-426.59 838.81,-426.59 844.39,-417.52 836.75,-408.96"/>
<polygon fill="#9a32cd" stroke="#9a32cd" points="804.39,-420.93 802.95,-410.44 797.53,-419.55 804.39,-420.93"/>
<text text-anchor="middle" x="820" y="-429.59" font-family="Helvetica,sans-Serif" font-size="10.00"> mNext</text>
</g>
</g>
</svg>
        <g id="navigator" transform="translate(0 0)" fill="#404254">
                <rect fill="#f2f5e9" fill-opacity="0.5" stroke="#606060" stroke-width=".5" x="0" y="0" width="60" height="60"/>
                <use id="zoomplus" xlink:href="#zoomPlus" x="17" y="9" onmousedown="handleZoom(evt,'in')"/>
                <use id="zoomminus" xlink:href="#zoomMin" x="42" y="9" onmousedown="handleZoom(evt,'out')"/>
                <use id="reset" xlink:href="#resetDef" x="30" y="36" onmousedown="handleReset()"/>
                <g id="arrowUp" xlink:href="#dirArrow" transform="translate(30 24)" onmousedown="handlePan(0,-1)">
                  <use xlink:href="#rim" fill="#404040">
                        <set attributeName="fill" to="#808080" begin="arrowUp.mouseover" end="arrowUp.mouseout"/>
                  </use>
                  <path fill="none" stroke="white" stroke-width="1.5" d="M0,-3.0v7 M-2.5,-0.5L0,-3.0L2.5,-0.5"/>
                </g>
                <g id="arrowRight" xlink:href="#dirArrow" transform="rotate(90) translate(36 -43)" onmousedown="handlePan(1,0)">
                  <use xlink:href="#rim" fill="#404040">
                        <set attributeName="fill" to="#808080" begin="arrowRight.mouseover" end="arrowRight.mouseout"/>
                  </use>
                  <path fill="none" stroke="white" stroke-width="1.5" d="M0,-3.0v7 M-2.5,-0.5L0,-3.0L2.5,-0.5"/>
                </g>
                <g id="arrowDown" xlink:href="#dirArrow" transform="rotate(180) translate(-30 -48)" onmousedown="handlePan(0,1)">
                  <use xlink:href="#rim" fill="#404040">
                        <set attributeName="fill" to="#808080" begin="arrowDown.mouseover" end="arrowDown.mouseout"/>
                  </use>
                  <path fill="none" stroke="white" stroke-width="1.5" d="M0,-3.0v7 M-2.5,-0.5L0,-3.0L2.5,-0.5"/>
                </g>
                <g id="arrowLeft" xlink:href="#dirArrow" transform="rotate(270) translate(-36 17)" onmousedown="handlePan(-1,0)">
                  <use xlink:href="#rim" fill="#404040">
                        <set attributeName="fill" to="#808080" begin="arrowLeft.mouseover" end="arrowLeft.mouseout"/>
                  </use>
                  <path fill="none" stroke="white" stroke-width="1.5" d="M0,-3.0v7 M-2.5,-0.5L0,-3.0L2.5,-0.5"/>
                </g>
        </g>
        <svg viewBox="0 0 15 15" width="100%" height="30px" preserveAspectRatio="xMaxYMin meet">
         <g id="arrow_out" transform="scale(0.3 0.3)">
          <a xlink:href="classJKRSolidHeap__coll__graph_org.svg" target="_base">
           <rect id="button" ry="5" rx="5" y="6" x="6" height="38" width="38"
                fill="#f2f5e9" fill-opacity="0.5" stroke="#606060" stroke-width="1.0"/>
           <path id="arrow"
             d="M 11.500037,31.436501 C 11.940474,20.09759 22.043105,11.32322 32.158766,21.979434 L 37.068811,17.246167 C 37.068811,17.246167 37.088388,32 37.088388,32 L 22.160133,31.978069 C 22.160133,31.978069 26.997745,27.140456 26.997745,27.140456 C 18.528582,18.264221 13.291696,25.230495 11.500037,31.436501 z"
             style="fill:#404040;"/>
          </a>
         </g>
        </svg>
</svg>
