<?xml version="1.0" encoding="UTF-8" standalone="no"?>
<!DOCTYPE svg PUBLIC "-//W3C//DTD SVG 1.1//EN"
 "http://www.w3.org/Graphics/SVG/1.1/DTD/svg11.dtd">
<!-- Generated by graphviz version 7.0.5 (20221223.1930)
 -->
<!-- Title: dBgS_HorseLinChk Pages: 1 -->
<svg width="575pt" height="407pt"
 viewBox="0.00 0.00 574.50 407.00" xmlns="http://www.w3.org/2000/svg" xmlns:xlink="http://www.w3.org/1999/xlink">
<g id="graph0" class="graph" transform="scale(1 1) rotate(0) translate(4 403)">
<title>dBgS_HorseLinChk</title>
<!-- Node1 -->
<g id="node1" class="node">
<title>Node1</title>
<g id="a_node1"><a xlink:title=" ">
<polygon fill="#999999" stroke="#666666" points="345.5,-19 242.5,-19 242.5,0 345.5,0 345.5,-19"/>
<text text-anchor="middle" x="294" y="-7" font-family="Helvetica,sans-Serif" font-size="10.00">dBgS_HorseLinChk</text>
</a>
</g>
</g>
<!-- Node2 -->
<g id="node2" class="node">
<title>Node2</title>
<g id="a_node2"><a xlink:href="classdBgS__LinChk.html" target="_top" xlink:title=" ">
<polygon fill="white" stroke="#666666" points="332.5,-75 255.5,-75 255.5,-56 332.5,-56 332.5,-75"/>
<text text-anchor="middle" x="294" y="-63" font-family="Helvetica,sans-Serif" font-size="10.00">dBgS_LinChk</text>
</a>
</g>
</g>
<!-- Node2&#45;&gt;Node1 -->
<g id="edge1" class="edge">
<title>Node2&#45;&gt;Node1</title>
<path fill="none" stroke="#63b8ff" d="M294,-44.11C294,-35.52 294,-25.97 294,-19.25"/>
<polygon fill="#63b8ff" stroke="#63b8ff" points="290.5,-44.07 294,-54.07 297.5,-44.07 290.5,-44.07"/>
</g>
<!-- Node3 -->
<g id="node3" class="node">
<title>Node3</title>
<g id="a_node3"><a xlink:href="classcBgS__LinChk.html" target="_top" xlink:title=" ">
<polygon fill="white" stroke="#666666" points="232.5,-131 155.5,-131 155.5,-112 232.5,-112 232.5,-131"/>
<text text-anchor="middle" x="194" y="-119" font-family="Helvetica,sans-Serif" font-size="10.00">cBgS_LinChk</text>
</a>
</g>
</g>
<!-- Node3&#45;&gt;Node2 -->
<g id="edge2" class="edge">
<title>Node3&#45;&gt;Node2</title>
<path fill="none" stroke="#63b8ff" d="M220.45,-106.22C238.54,-96.45 261.97,-83.8 277.46,-75.43"/>
<polygon fill="#63b8ff" stroke="#63b8ff" points="218.98,-103.03 211.84,-110.86 222.31,-109.19 218.98,-103.03"/>
</g>
<!-- Node4 -->
<g id="node4" class="node">
<title>Node4</title>
<g id="a_node4"><a xlink:href="classcBgS__Chk.html" target="_top" xlink:title=" ">
<polygon fill="white" stroke="#666666" points="225.5,-197 162.5,-197 162.5,-178 225.5,-178 225.5,-197"/>
<text text-anchor="middle" x="194" y="-185" font-family="Helvetica,sans-Serif" font-size="10.00">cBgS_Chk</text>
</a>
</g>
</g>
<!-- Node4&#45;&gt;Node3 -->
<g id="edge3" class="edge">
<title>Node4&#45;&gt;Node3</title>
<path fill="none" stroke="#63b8ff" d="M194,-166.18C194,-154.44 194,-140.27 194,-131.32"/>
<polygon fill="#63b8ff" stroke="#63b8ff" points="190.5,-166.09 194,-176.09 197.5,-166.09 190.5,-166.09"/>
</g>
<!-- Node5 -->
<g id="node5" class="node">
<title>Node5</title>
<g id="a_node5"><a xlink:href="classcBgS__PolyPassChk.html" target="_top" xlink:title=" ">
<polygon fill="white" stroke="#666666" points="304,-308.5 200,-308.5 200,-289.5 304,-289.5 304,-308.5"/>
<text text-anchor="middle" x="252" y="-296.5" font-family="Helvetica,sans-Serif" font-size="10.00">cBgS_PolyPassChk</text>
</a>
</g>
</g>
<!-- Node5&#45;&gt;Node4 -->
<g id="edge4" class="edge">
<title>Node5&#45;&gt;Node4</title>
<path fill="none" stroke="#9a32cd" stroke-dasharray="5,2" d="M241.96,-279.05C229.28,-255.11 208,-214.94 198.65,-197.28"/>
<polygon fill="#9a32cd" stroke="#9a32cd" points="238.77,-280.5 246.55,-287.7 244.96,-277.23 238.77,-280.5"/>
<text text-anchor="middle" x="254" y="-223.5" font-family="Helvetica,sans-Serif" font-size="10.00"> mPolyPassChk</text>
</g>
<!-- Node12 -->
<g id="node12" class="node">
<title>Node12</title>
<g id="a_node12"><a xlink:href="classdBgS__PolyPassChk.html" target="_top" xlink:title=" ">
<polygon fill="white" stroke="#666666" points="447,-197 343,-197 343,-178 447,-178 447,-197"/>
<text text-anchor="middle" x="395" y="-185" font-family="Helvetica,sans-Serif" font-size="10.00">dBgS_PolyPassChk</text>
</a>
</g>
</g>
<!-- Node5&#45;&gt;Node12 -->
<g id="edge14" class="edge">
<title>Node5&#45;&gt;Node12</title>
<path fill="none" stroke="#63b8ff" d="M265.65,-280.36C280.57,-262.04 305.97,-233.52 333,-215 343.62,-207.72 356.56,-201.81 367.87,-197.42"/>
<polygon fill="#63b8ff" stroke="#63b8ff" points="263.1,-277.94 259.62,-287.94 268.58,-282.3 263.1,-277.94"/>
</g>
<!-- Node6 -->
<g id="node6" class="node">
<title>Node6</title>
<g id="a_node6"><a xlink:href="classcBgS__GrpPassChk.html" target="_top" xlink:title=" ">
<polygon fill="white" stroke="#666666" points="468.5,-308.5 367.5,-308.5 367.5,-289.5 468.5,-289.5 468.5,-308.5"/>
<text text-anchor="middle" x="418" y="-296.5" font-family="Helvetica,sans-Serif" font-size="10.00">cBgS_GrpPassChk</text>
</a>
</g>
</g>
<!-- Node6&#45;&gt;Node4 -->
<g id="edge5" class="edge">
<title>Node6&#45;&gt;Node4</title>
<path fill="none" stroke="#9a32cd" stroke-dasharray="5,2" d="M398.35,-281.99C374.69,-263.43 333.1,-233.09 293,-215 281,-209.58 249.79,-201.57 225.58,-195.78"/>
<polygon fill="#9a32cd" stroke="#9a32cd" points="396.16,-284.71 406.16,-288.21 400.52,-279.24 396.16,-284.71"/>
<text text-anchor="middle" x="365.5" y="-223.5" font-family="Helvetica,sans-Serif" font-size="10.00"> mGrpPassChk</text>
</g>
<!-- Node13 -->
<g id="node13" class="node">
<title>Node13</title>
<g id="a_node13"><a xlink:href="classdBgS__GrpPassChk.html" target="_top" xlink:title=" ">
<polygon fill="white" stroke="#666666" points="566.5,-197 465.5,-197 465.5,-178 566.5,-178 566.5,-197"/>
<text text-anchor="middle" x="516" y="-185" font-family="Helvetica,sans-Serif" font-size="10.00">dBgS_GrpPassChk</text>
</a>
</g>
</g>
<!-- Node6&#45;&gt;Node13 -->
<g id="edge16" class="edge">
<title>Node6&#45;&gt;Node13</title>
<path fill="none" stroke="#63b8ff" d="M433.53,-280.64C454.74,-256.94 491.98,-215.34 508.14,-197.28"/>
<polygon fill="#63b8ff" stroke="#63b8ff" points="431.09,-278.13 427.03,-287.91 436.31,-282.79 431.09,-278.13"/>
</g>
<!-- Node7 -->
<g id="node7" class="node">
<title>Node7</title>
<g id="a_node7"><a xlink:href="structcBgS__PolyInfo.html" target="_top" xlink:title=" ">
<polygon fill="white" stroke="#666666" points="324.5,-197 243.5,-197 243.5,-178 324.5,-178 324.5,-197"/>
<text text-anchor="middle" x="284" y="-185" font-family="Helvetica,sans-Serif" font-size="10.00">cBgS_PolyInfo</text>
</a>
</g>
</g>
<!-- Node7&#45;&gt;Node3 -->
<g id="edge6" class="edge">
<title>Node7&#45;&gt;Node3</title>
<path fill="none" stroke="#63b8ff" d="M262.54,-171.24C245.02,-158.78 220.87,-141.61 206.41,-131.32"/>
<polygon fill="#63b8ff" stroke="#63b8ff" points="260.07,-173.78 270.25,-176.72 264.13,-168.08 260.07,-173.78"/>
</g>
<!-- Node8 -->
<g id="node8" class="node">
<title>Node8</title>
<g id="a_node8"><a xlink:href="classcM3dGLin.html" target="_top" xlink:title=" ">
<polygon fill="white" stroke="#666666" points="62,-197 0,-197 0,-178 62,-178 62,-197"/>
<text text-anchor="middle" x="31" y="-185" font-family="Helvetica,sans-Serif" font-size="10.00">cM3dGLin</text>
</a>
</g>
</g>
<!-- Node8&#45;&gt;Node3 -->
<g id="edge7" class="edge">
<title>Node8&#45;&gt;Node3</title>
<path fill="none" stroke="#9a32cd" stroke-dasharray="5,2" d="M40.87,-167.98C45.49,-161.01 51.61,-153.65 59,-149 87.91,-130.81 126.64,-124.67 155.21,-122.8"/>
<polygon fill="#9a32cd" stroke="#9a32cd" points="38.06,-165.86 35.99,-176.25 44.09,-169.42 38.06,-165.86"/>
<text text-anchor="middle" x="71.5" y="-152" font-family="Helvetica,sans-Serif" font-size="10.00"> mLin</text>
</g>
<!-- Node9 -->
<g id="node9" class="node">
<title>Node9</title>
<g id="a_node9"><a xlink:href="structcXyz.html" target="_top" xlink:title=" ">
<polygon fill="white" stroke="#666666" points="83,-308.5 45,-308.5 45,-289.5 83,-289.5 83,-308.5"/>
<text text-anchor="middle" x="64" y="-296.5" font-family="Helvetica,sans-Serif" font-size="10.00">cXyz</text>
</a>
</g>
</g>
<!-- Node9&#45;&gt;Node3 -->
<g id="edge11" class="edge">
<title>Node9&#45;&gt;Node3</title>
<path fill="none" stroke="#9a32cd" stroke-dasharray="5,2" d="M69.5,-278.5C78.16,-248.78 95.27,-193.92 108,-178 125.31,-156.35 153.46,-140.48 172.81,-131.38"/>
<polygon fill="#9a32cd" stroke="#9a32cd" points="66.25,-277.15 66.86,-287.73 72.98,-279.08 66.25,-277.15"/>
<text text-anchor="middle" x="131" y="-185" font-family="Helvetica,sans-Serif" font-size="10.00"> field_0x40</text>
</g>
<!-- Node9&#45;&gt;Node8 -->
<g id="edge8" class="edge">
<title>Node9&#45;&gt;Node8</title>
<path fill="none" stroke="#9a32cd" stroke-dasharray="5,2" d="M57.99,-278.06C50.75,-254.03 38.9,-214.7 33.65,-197.28"/>
<polygon fill="#9a32cd" stroke="#9a32cd" points="54.63,-279.03 60.86,-287.59 61.33,-277.01 54.63,-279.03"/>
<text text-anchor="middle" x="61" y="-229" font-family="Helvetica,sans-Serif" font-size="10.00"> mEnd</text>
<text text-anchor="middle" x="61" y="-218" font-family="Helvetica,sans-Serif" font-size="10.00">mStart</text>
</g>
<!-- Node9&#45;&gt;Node9 -->
<g id="edge10" class="edge">
<title>Node9&#45;&gt;Node9</title>
<path fill="none" stroke="#9a32cd" stroke-dasharray="5,2" d="M88.62,-310.67C95.62,-310.19 101,-306.3 101,-299 101,-288.14 89.07,-284.83 77.66,-289.07"/>
<polygon fill="#9a32cd" stroke="#9a32cd" points="89.58,-307.28 79.16,-309.17 88.49,-314.19 89.58,-307.28"/>
<text text-anchor="middle" x="122.5" y="-335" font-family="Helvetica,sans-Serif" font-size="10.00"> BaseX</text>
<text text-anchor="middle" x="122.5" y="-324" font-family="Helvetica,sans-Serif" font-size="10.00">BaseXY</text>
<text text-anchor="middle" x="122.5" y="-313" font-family="Helvetica,sans-Serif" font-size="10.00">BaseXYZ</text>
<text text-anchor="middle" x="122.5" y="-302" font-family="Helvetica,sans-Serif" font-size="10.00">BaseXZ</text>
<text text-anchor="middle" x="122.5" y="-291" font-family="Helvetica,sans-Serif" font-size="10.00">BaseY</text>
<text text-anchor="middle" x="122.5" y="-280" font-family="Helvetica,sans-Serif" font-size="10.00">BaseYZ</text>
<text text-anchor="middle" x="122.5" y="-269" font-family="Helvetica,sans-Serif" font-size="10.00">BaseZ</text>
<text text-anchor="middle" x="122.5" y="-258" font-family="Helvetica,sans-Serif" font-size="10.00">Zero</text>
</g>
<!-- Node10 -->
<g id="node10" class="node">
<title>Node10</title>
<g id="a_node10"><a xlink:href="structVec.html" target="_top" xlink:title=" ">
<polygon fill="white" stroke="#666666" points="81,-399 47,-399 47,-380 81,-380 81,-399"/>
<text text-anchor="middle" x="64" y="-387" font-family="Helvetica,sans-Serif" font-size="10.00">Vec</text>
</a>
</g>
</g>
<!-- Node10&#45;&gt;Node9 -->
<g id="edge9" class="edge">
<title>Node10&#45;&gt;Node9</title>
<path fill="none" stroke="#63b8ff" d="M64,-368.3C64,-349.55 64,-322.53 64,-308.77"/>
<polygon fill="#63b8ff" stroke="#63b8ff" points="60.5,-368.18 64,-378.18 67.5,-368.18 60.5,-368.18"/>
</g>
<!-- Node11 -->
<g id="node11" class="node">
<title>Node11</title>
<g id="a_node11"><a xlink:href="classdBgS__Chk.html" target="_top" xlink:title=" ">
<polygon fill="white" stroke="#666666" points="426.5,-131 363.5,-131 363.5,-112 426.5,-112 426.5,-131"/>
<text text-anchor="middle" x="395" y="-119" font-family="Helvetica,sans-Serif" font-size="10.00">dBgS_Chk</text>
</a>
</g>
</g>
<!-- Node11&#45;&gt;Node2 -->
<g id="edge12" class="edge">
<title>Node11&#45;&gt;Node2</title>
<path fill="none" stroke="#63b8ff" d="M368.29,-106.22C350.01,-96.45 326.35,-83.8 310.7,-75.43"/>
<polygon fill="#63b8ff" stroke="#63b8ff" points="366.52,-109.24 376.99,-110.87 369.82,-103.07 366.52,-109.24"/>
</g>
<!-- Node12&#45;&gt;Node11 -->
<g id="edge13" class="edge">
<title>Node12&#45;&gt;Node11</title>
<path fill="none" stroke="#63b8ff" d="M395,-166.18C395,-154.44 395,-140.27 395,-131.32"/>
<polygon fill="#63b8ff" stroke="#63b8ff" points="391.5,-166.09 395,-176.09 398.5,-166.09 391.5,-166.09"/>
</g>
<!-- Node13&#45;&gt;Node11 -->
<g id="edge15" class="edge">
<title>Node13&#45;&gt;Node11</title>
<path fill="none" stroke="#63b8ff" d="M489.09,-172.26C465.4,-159.74 431.66,-141.89 411.68,-131.32"/>
<polygon fill="#63b8ff" stroke="#63b8ff" points="487.36,-175.31 497.84,-176.89 490.63,-169.12 487.36,-175.31"/>
</g>
</g>
</svg>
