<?xml version="1.0" encoding="UTF-8" standalone="no"?>
<!DOCTYPE svg PUBLIC "-//W3C//DTD SVG 1.1//EN"
 "http://www.w3.org/Graphics/SVG/1.1/DTD/svg11.dtd">
<!-- Generated by graphviz version 7.0.5 (20221223.1930)
 -->
<!-- Title: cBgS_ShdwDraw Pages: 1 -->
<svg width="351pt" height="295pt"
 viewBox="0.00 0.00 351.00 295.00" xmlns="http://www.w3.org/2000/svg" xmlns:xlink="http://www.w3.org/1999/xlink">
<g id="graph0" class="graph" transform="scale(1 1) rotate(0) translate(4 291)">
<title>cBgS_ShdwDraw</title>
<!-- Node1 -->
<g id="node1" class="node">
<title>Node1</title>
<g id="a_node1"><a xlink:title=" ">
<polygon fill="#999999" stroke="#666666" points="259.5,-19 166.5,-19 166.5,0 259.5,0 259.5,-19"/>
<text text-anchor="middle" x="213" y="-7" font-family="Helvetica,sans-Serif" font-size="10.00">cBgS_ShdwDraw</text>
</a>
</g>
</g>
<!-- Node1&#45;&gt;Node1 -->
<g id="edge8" class="edge">
<title>Node1&#45;&gt;Node1</title>
<path fill="none" stroke="#9a32cd" stroke-dasharray="5,2" d="M271.32,-13.92C275.17,-12.9 277.5,-11.42 277.5,-9.5 277.5,-6.08 270.13,-4.08 259.96,-3.5"/>
<polygon fill="#9a32cd" stroke="#9a32cd" points="270.88,-10.45 261.46,-15.3 271.85,-17.38 270.88,-10.45"/>
<text text-anchor="middle" x="310" y="-7" font-family="Helvetica,sans-Serif" font-size="10.00"> mCallbackFun</text>
</g>
<!-- Node2 -->
<g id="node2" class="node">
<title>Node2</title>
<g id="a_node2"><a xlink:href="classcBgS__Chk.html" target="_top" xlink:title=" ">
<polygon fill="white" stroke="#666666" points="204.5,-85 141.5,-85 141.5,-66 204.5,-66 204.5,-85"/>
<text text-anchor="middle" x="173" y="-73" font-family="Helvetica,sans-Serif" font-size="10.00">cBgS_Chk</text>
</a>
</g>
</g>
<!-- Node2&#45;&gt;Node1 -->
<g id="edge1" class="edge">
<title>Node2&#45;&gt;Node1</title>
<path fill="none" stroke="#63b8ff" d="M184.54,-56.03C192.09,-43.96 201.59,-28.75 207.49,-19.32"/>
<polygon fill="#63b8ff" stroke="#63b8ff" points="181.7,-53.98 179.36,-64.32 187.63,-57.69 181.7,-53.98"/>
</g>
<!-- Node3 -->
<g id="node3" class="node">
<title>Node3</title>
<g id="a_node3"><a xlink:href="classcBgS__PolyPassChk.html" target="_top" xlink:title=" ">
<polygon fill="white" stroke="#666666" points="104,-196.5 0,-196.5 0,-177.5 104,-177.5 104,-196.5"/>
<text text-anchor="middle" x="52" y="-184.5" font-family="Helvetica,sans-Serif" font-size="10.00">cBgS_PolyPassChk</text>
</a>
</g>
</g>
<!-- Node3&#45;&gt;Node2 -->
<g id="edge2" class="edge">
<title>Node3&#45;&gt;Node2</title>
<path fill="none" stroke="#9a32cd" stroke-dasharray="5,2" d="M58.55,-166.34C65.72,-147.63 78.94,-119.88 99,-103 111.01,-92.89 127.16,-86.52 141.31,-82.56"/>
<polygon fill="#9a32cd" stroke="#9a32cd" points="55.27,-165.11 55.2,-175.71 61.86,-167.47 55.27,-165.11"/>
<text text-anchor="middle" x="134" y="-111.5" font-family="Helvetica,sans-Serif" font-size="10.00"> mPolyPassChk</text>
</g>
<!-- Node4 -->
<g id="node4" class="node">
<title>Node4</title>
<g id="a_node4"><a xlink:href="classcBgS__GrpPassChk.html" target="_top" xlink:title=" ">
<polygon fill="white" stroke="#666666" points="223.5,-196.5 122.5,-196.5 122.5,-177.5 223.5,-177.5 223.5,-196.5"/>
<text text-anchor="middle" x="173" y="-184.5" font-family="Helvetica,sans-Serif" font-size="10.00">cBgS_GrpPassChk</text>
</a>
</g>
</g>
<!-- Node4&#45;&gt;Node2 -->
<g id="edge3" class="edge">
<title>Node4&#45;&gt;Node2</title>
<path fill="none" stroke="#9a32cd" stroke-dasharray="5,2" d="M173,-165.73C173,-141.67 173,-102.62 173,-85.28"/>
<polygon fill="#9a32cd" stroke="#9a32cd" points="169.5,-165.53 173,-175.53 176.5,-165.53 169.5,-165.53"/>
<text text-anchor="middle" x="206.5" y="-111.5" font-family="Helvetica,sans-Serif" font-size="10.00"> mGrpPassChk</text>
</g>
<!-- Node5 -->
<g id="node5" class="node">
<title>Node5</title>
<g id="a_node5"><a xlink:href="classcM3dGAab.html" target="_top" xlink:title=" ">
<polygon fill="white" stroke="#666666" points="291.5,-85 226.5,-85 226.5,-66 291.5,-66 291.5,-85"/>
<text text-anchor="middle" x="259" y="-73" font-family="Helvetica,sans-Serif" font-size="10.00">cM3dGAab</text>
</a>
</g>
</g>
<!-- Node5&#45;&gt;Node1 -->
<g id="edge4" class="edge">
<title>Node5&#45;&gt;Node1</title>
<path fill="none" stroke="#9a32cd" stroke-dasharray="5,2" d="M245.99,-56.4C237.27,-44.27 226.19,-28.84 219.34,-19.32"/>
<polygon fill="#9a32cd" stroke="#9a32cd" points="243.04,-58.29 251.72,-64.37 248.73,-54.21 243.04,-58.29"/>
<text text-anchor="middle" x="265.5" y="-40" font-family="Helvetica,sans-Serif" font-size="10.00"> mM3dGAab</text>
</g>
<!-- Node6 -->
<g id="node6" class="node">
<title>Node6</title>
<g id="a_node6"><a xlink:href="structcXyz.html" target="_top" xlink:title=" ">
<polygon fill="white" stroke="#666666" points="282,-196.5 244,-196.5 244,-177.5 282,-177.5 282,-196.5"/>
<text text-anchor="middle" x="263" y="-184.5" font-family="Helvetica,sans-Serif" font-size="10.00">cXyz</text>
</a>
</g>
</g>
<!-- Node6&#45;&gt;Node5 -->
<g id="edge5" class="edge">
<title>Node6&#45;&gt;Node5</title>
<path fill="none" stroke="#9a32cd" stroke-dasharray="5,2" d="M262.26,-165.73C261.38,-141.67 259.95,-102.62 259.32,-85.28"/>
<polygon fill="#9a32cd" stroke="#9a32cd" points="258.75,-165.66 262.62,-175.53 265.75,-165.41 258.75,-165.66"/>
<text text-anchor="middle" x="274.5" y="-117" font-family="Helvetica,sans-Serif" font-size="10.00"> mMax</text>
<text text-anchor="middle" x="274.5" y="-106" font-family="Helvetica,sans-Serif" font-size="10.00">mMin</text>
</g>
<!-- Node6&#45;&gt;Node6 -->
<g id="edge7" class="edge">
<title>Node6&#45;&gt;Node6</title>
<path fill="none" stroke="#9a32cd" stroke-dasharray="5,2" d="M287.62,-198.67C294.62,-198.19 300,-194.3 300,-187 300,-176.14 288.07,-172.83 276.66,-177.07"/>
<polygon fill="#9a32cd" stroke="#9a32cd" points="288.58,-195.28 278.16,-197.17 287.49,-202.19 288.58,-195.28"/>
<text text-anchor="middle" x="321.5" y="-223" font-family="Helvetica,sans-Serif" font-size="10.00"> BaseX</text>
<text text-anchor="middle" x="321.5" y="-212" font-family="Helvetica,sans-Serif" font-size="10.00">BaseXY</text>
<text text-anchor="middle" x="321.5" y="-201" font-family="Helvetica,sans-Serif" font-size="10.00">BaseXYZ</text>
<text text-anchor="middle" x="321.5" y="-190" font-family="Helvetica,sans-Serif" font-size="10.00">BaseXZ</text>
<text text-anchor="middle" x="321.5" y="-179" font-family="Helvetica,sans-Serif" font-size="10.00">BaseY</text>
<text text-anchor="middle" x="321.5" y="-168" font-family="Helvetica,sans-Serif" font-size="10.00">BaseYZ</text>
<text text-anchor="middle" x="321.5" y="-157" font-family="Helvetica,sans-Serif" font-size="10.00">BaseZ</text>
<text text-anchor="middle" x="321.5" y="-146" font-family="Helvetica,sans-Serif" font-size="10.00">Zero</text>
</g>
<!-- Node7 -->
<g id="node7" class="node">
<title>Node7</title>
<g id="a_node7"><a xlink:href="structVec.html" target="_top" xlink:title=" ">
<polygon fill="white" stroke="#666666" points="280,-287 246,-287 246,-268 280,-268 280,-287"/>
<text text-anchor="middle" x="263" y="-275" font-family="Helvetica,sans-Serif" font-size="10.00">Vec</text>
</a>
</g>
</g>
<!-- Node7&#45;&gt;Node6 -->
<g id="edge6" class="edge">
<title>Node7&#45;&gt;Node6</title>
<path fill="none" stroke="#63b8ff" d="M263,-256.3C263,-237.55 263,-210.53 263,-196.77"/>
<polygon fill="#63b8ff" stroke="#63b8ff" points="259.5,-256.18 263,-266.18 266.5,-256.18 259.5,-256.18"/>
</g>
</g>
</svg>
