<?xml version="1.0" encoding="UTF-8" standalone="no"?>
<!DOCTYPE svg PUBLIC "-//W3C//DTD SVG 1.1//EN"
 "http://www.w3.org/Graphics/SVG/1.1/DTD/svg11.dtd">
<!-- Generated by graphviz version 7.0.5 (20221223.1930)
 -->
<!-- Title: J3DJointTree Pages: 1 -->
<svg width="1696pt" height="642pt"
 viewBox="0.00 0.00 1696.00 641.50" xmlns="http://www.w3.org/2000/svg" xmlns:xlink="http://www.w3.org/1999/xlink">
<g id="graph0" class="graph" transform="scale(1 1) rotate(0) translate(4 637.5)">
<title>J3DJointTree</title>
<!-- Node1 -->
<g id="node1" class="node">
<title>Node1</title>
<g id="a_node1"><a xlink:title=" ">
<polygon fill="#999999" stroke="#666666" points="627,-280 553,-280 553,-261 627,-261 627,-280"/>
<text text-anchor="middle" x="590" y="-268" font-family="Helvetica,sans-Serif" font-size="10.00">J3DJointTree</text>
</a>
</g>
</g>
<!-- Node5 -->
<g id="node5" class="node">
<title>Node5</title>
<g id="a_node5"><a xlink:href="classJ3DMtxBuffer.html" target="_top" xlink:title=" ">
<polygon fill="white" stroke="#666666" points="868,-243 793,-243 793,-224 868,-224 868,-243"/>
<text text-anchor="middle" x="830.5" y="-231" font-family="Helvetica,sans-Serif" font-size="10.00">J3DMtxBuffer</text>
</a>
</g>
</g>
<!-- Node1&#45;&gt;Node5 -->
<g id="edge5" class="edge">
<title>Node1&#45;&gt;Node5</title>
<path fill="none" stroke="#9a32cd" stroke-dasharray="5,2" d="M638.48,-260.19C648.53,-258.17 659.09,-256.16 669,-254.5 711.27,-247.41 760.13,-241.31 792.73,-237.55"/>
<polygon fill="#9a32cd" stroke="#9a32cd" points="637.98,-256.72 628.89,-262.16 639.39,-263.58 637.98,-256.72"/>
<text text-anchor="middle" x="708.5" y="-257.5" font-family="Helvetica,sans-Serif" font-size="10.00"> mJointTree</text>
</g>
<!-- Node2 -->
<g id="node2" class="node">
<title>Node2</title>
<g id="a_node2"><a xlink:href="structJ3DModelHierarchy.html" target="_top" xlink:title=" ">
<polygon fill="white" stroke="#666666" points="423,-304 322,-304 322,-285 423,-285 423,-304"/>
<text text-anchor="middle" x="372.5" y="-292" font-family="Helvetica,sans-Serif" font-size="10.00">J3DModelHierarchy</text>
</a>
</g>
</g>
<!-- Node2&#45;&gt;Node1 -->
<g id="edge1" class="edge">
<title>Node2&#45;&gt;Node1</title>
<path fill="none" stroke="#9a32cd" stroke-dasharray="5,2" d="M434.47,-287.71C472.62,-283.46 520.48,-278.13 552.75,-274.54"/>
<polygon fill="#9a32cd" stroke="#9a32cd" points="434.54,-284.18 424.99,-288.77 435.31,-291.14 434.54,-284.18"/>
<text text-anchor="middle" x="476" y="-290.5" font-family="Helvetica,sans-Serif" font-size="10.00"> mHierarchy</text>
</g>
<!-- Node3 -->
<g id="node3" class="node">
<title>Node3</title>
<g id="a_node3"><a xlink:href="classJ3DJoint.html" target="_top" xlink:title=" ">
<polygon fill="white" stroke="#666666" points="1306.5,-225 1251.5,-225 1251.5,-206 1306.5,-206 1306.5,-225"/>
<text text-anchor="middle" x="1279" y="-213" font-family="Helvetica,sans-Serif" font-size="10.00">J3DJoint</text>
</a>
</g>
</g>
<!-- Node3&#45;&gt;Node1 -->
<g id="edge2" class="edge">
<title>Node3&#45;&gt;Node1</title>
<path fill="none" stroke="#9a32cd" stroke-dasharray="5,2" d="M1239.78,-212.11C1154.4,-205.25 941.84,-192.2 766,-214.5 709.04,-221.72 645.66,-246.47 613.05,-260.53"/>
<polygon fill="#9a32cd" stroke="#9a32cd" points="1239.44,-215.59 1249.69,-212.92 1240.01,-208.61 1239.44,-215.59"/>
<text text-anchor="middle" x="956" y="-217.5" font-family="Helvetica,sans-Serif" font-size="10.00"> mJointNodePointer</text>
<text text-anchor="middle" x="956" y="-206.5" font-family="Helvetica,sans-Serif" font-size="10.00">mRootNode</text>
</g>
<!-- Node3&#45;&gt;Node3 -->
<g id="edge7" class="edge">
<title>Node3&#45;&gt;Node3</title>
<path fill="none" stroke="#9a32cd" stroke-dasharray="5,2" d="M1260.27,-236.43C1262.62,-240.29 1268.86,-243 1279,-243 1297.54,-243 1303.05,-233.94 1295.52,-225.37"/>
<polygon fill="#9a32cd" stroke="#9a32cd" points="1263.66,-237.34 1262.19,-226.85 1256.8,-235.97 1263.66,-237.34"/>
<text text-anchor="middle" x="1279" y="-268" font-family="Helvetica,sans-Serif" font-size="10.00"> mCallBack</text>
<text text-anchor="middle" x="1279" y="-257" font-family="Helvetica,sans-Serif" font-size="10.00">mChild</text>
<text text-anchor="middle" x="1279" y="-246" font-family="Helvetica,sans-Serif" font-size="10.00">mYounger</text>
</g>
<!-- Node4 -->
<g id="node4" class="node">
<title>Node4</title>
<g id="a_node4"><a xlink:href="classJ3DMtxCalc.html" target="_top" xlink:title=" ">
<polygon fill="white" stroke="#666666" points="1100.5,-261 1031.5,-261 1031.5,-242 1100.5,-242 1100.5,-261"/>
<text text-anchor="middle" x="1066" y="-249" font-family="Helvetica,sans-Serif" font-size="10.00">J3DMtxCalc</text>
</a>
</g>
</g>
<!-- Node3&#45;&gt;Node4 -->
<g id="edge6" class="edge">
<title>Node3&#45;&gt;Node4</title>
<path fill="none" stroke="#9a32cd" stroke-dasharray="5,2" d="M1239.78,-215.9C1210.3,-216.87 1168.67,-219.68 1133,-227.5 1118.23,-230.74 1102.29,-236.47 1089.77,-241.52"/>
<polygon fill="#9a32cd" stroke="#9a32cd" points="1239.81,-219.4 1249.71,-215.64 1239.62,-212.4 1239.81,-219.4"/>
<text text-anchor="middle" x="1172" y="-230.5" font-family="Helvetica,sans-Serif" font-size="10.00"> mJoint</text>
</g>
<!-- Node10 -->
<g id="node10" class="node">
<title>Node10</title>
<g id="a_node10"><a xlink:href="structJ3DMaterial.html" target="_top" xlink:title=" ">
<polygon fill="white" stroke="#666666" points="1518.5,-241 1450.5,-241 1450.5,-222 1518.5,-222 1518.5,-241"/>
<text text-anchor="middle" x="1484.5" y="-229" font-family="Helvetica,sans-Serif" font-size="10.00">J3DMaterial</text>
</a>
</g>
</g>
<!-- Node3&#45;&gt;Node10 -->
<g id="edge26" class="edge">
<title>Node3&#45;&gt;Node10</title>
<path fill="none" stroke="#9a32cd" stroke-dasharray="5,2" d="M1318.02,-211.76C1346.73,-209.71 1387.04,-208.49 1422,-213.5 1433.23,-215.11 1445.28,-218.29 1455.7,-221.54"/>
<polygon fill="#9a32cd" stroke="#9a32cd" points="1318.06,-208.25 1308.36,-212.52 1318.61,-215.23 1318.06,-208.25"/>
<text text-anchor="middle" x="1384.5" y="-216.5" font-family="Helvetica,sans-Serif" font-size="10.00"> mJoint</text>
</g>
<!-- Node4&#45;&gt;Node1 -->
<g id="edge56" class="edge">
<title>Node4&#45;&gt;Node1</title>
<path fill="none" stroke="#9a32cd" stroke-dasharray="5,2" d="M1020.01,-259.11C1012.99,-260.06 1005.81,-260.91 999,-261.5 862.24,-273.32 698.79,-272.4 627.38,-271.26"/>
<polygon fill="#9a32cd" stroke="#9a32cd" points="1020.3,-262.6 1029.69,-257.69 1019.29,-255.67 1020.3,-262.6"/>
<text text-anchor="middle" x="830.5" y="-274.5" font-family="Helvetica,sans-Serif" font-size="10.00"> mBasicMtxCalc</text>
</g>
<!-- Node4&#45;&gt;Node3 -->
<g id="edge3" class="edge">
<title>Node4&#45;&gt;Node3</title>
<path fill="none" stroke="#9a32cd" stroke-dasharray="5,2" d="M1112.13,-251.29C1140.75,-250.36 1178.4,-247.68 1211,-240.5 1226.52,-237.08 1243.27,-230.83 1256.14,-225.44"/>
<polygon fill="#9a32cd" stroke="#9a32cd" points="1112.27,-247.79 1102.36,-251.54 1112.45,-254.78 1112.27,-247.79"/>
<text text-anchor="middle" x="1172" y="-264.5" font-family="Helvetica,sans-Serif" font-size="10.00"> mCurrentMtxCalc</text>
<text text-anchor="middle" x="1172" y="-253.5" font-family="Helvetica,sans-Serif" font-size="10.00">mMtxCalc</text>
</g>
<!-- Node5&#45;&gt;Node4 -->
<g id="edge4" class="edge">
<title>Node5&#45;&gt;Node4</title>
<path fill="none" stroke="#9a32cd" stroke-dasharray="5,2" d="M879.79,-237.22C925.01,-240.71 991.41,-245.83 1031.21,-248.89"/>
<polygon fill="#9a32cd" stroke="#9a32cd" points="880.25,-233.75 870.01,-236.47 879.71,-240.73 880.25,-233.75"/>
<text text-anchor="middle" x="956" y="-249.5" font-family="Helvetica,sans-Serif" font-size="10.00"> mMtxBuffer</text>
</g>
<!-- Node6 -->
<g id="node6" class="node">
<title>Node6</title>
<g id="a_node6"><a xlink:href="structJ3DTransformInfo.html" target="_top" xlink:title=" ">
<polygon fill="white" stroke="#666666" points="1113.5,-328 1018.5,-328 1018.5,-309 1113.5,-309 1113.5,-328"/>
<text text-anchor="middle" x="1066" y="-316" font-family="Helvetica,sans-Serif" font-size="10.00">J3DTransformInfo</text>
</a>
</g>
</g>
<!-- Node6&#45;&gt;Node3 -->
<g id="edge8" class="edge">
<title>Node6&#45;&gt;Node3</title>
<path fill="none" stroke="#9a32cd" stroke-dasharray="5,2" d="M1124.83,-307.96C1152.12,-301.44 1184.45,-291.39 1211,-276.5 1235.42,-262.8 1258.27,-238.66 1269.93,-225.22"/>
<polygon fill="#9a32cd" stroke="#9a32cd" points="1124.31,-304.49 1115.34,-310.13 1125.87,-311.32 1124.31,-304.49"/>
<text text-anchor="middle" x="1172" y="-308.5" font-family="Helvetica,sans-Serif" font-size="10.00"> mTransformInfo</text>
</g>
<!-- Node7 -->
<g id="node7" class="node">
<title>Node7</title>
<g id="a_node7"><a xlink:href="structJGeometry_1_1TVec3_3_01f32_01_4.html" target="_top" xlink:title=" ">
<polygon fill="white" stroke="#666666" points="894,-328 767,-328 767,-309 894,-309 894,-328"/>
<text text-anchor="middle" x="830.5" y="-316" font-family="Helvetica,sans-Serif" font-size="10.00">JGeometry::TVec3&lt; f32 &gt;</text>
</a>
</g>
</g>
<!-- Node7&#45;&gt;Node6 -->
<g id="edge9" class="edge">
<title>Node7&#45;&gt;Node6</title>
<path fill="none" stroke="#9a32cd" stroke-dasharray="5,2" d="M905.61,-318.5C942.55,-318.5 986.08,-318.5 1018.31,-318.5"/>
<polygon fill="#9a32cd" stroke="#9a32cd" points="905.89,-315 895.89,-318.5 905.89,-322 905.89,-315"/>
<text text-anchor="middle" x="956" y="-332.5" font-family="Helvetica,sans-Serif" font-size="10.00"> mScale</text>
<text text-anchor="middle" x="956" y="-321.5" font-family="Helvetica,sans-Serif" font-size="10.00">mTranslate</text>
</g>
<!-- Node8 -->
<g id="node8" class="node">
<title>Node8</title>
<g id="a_node8"><a xlink:href="structJGeometry_1_1TVec3_3_01s16_01_4.html" target="_top" xlink:title=" ">
<polygon fill="white" stroke="#666666" points="895,-373 766,-373 766,-354 895,-354 895,-373"/>
<text text-anchor="middle" x="830.5" y="-361" font-family="Helvetica,sans-Serif" font-size="10.00">JGeometry::TVec3&lt; s16 &gt;</text>
</a>
</g>
</g>
<!-- Node8&#45;&gt;Node6 -->
<g id="edge10" class="edge">
<title>Node8&#45;&gt;Node6</title>
<path fill="none" stroke="#9a32cd" stroke-dasharray="5,2" d="M906.63,-356.95C935.72,-353.55 969.15,-348.58 999,-341.5 1012.93,-338.19 1028.04,-333.05 1040.29,-328.46"/>
<polygon fill="#9a32cd" stroke="#9a32cd" points="906.34,-353.46 896.79,-358.05 907.12,-360.42 906.34,-353.46"/>
<text text-anchor="middle" x="956" y="-359.5" font-family="Helvetica,sans-Serif" font-size="10.00"> mRotation</text>
</g>
<!-- Node9 -->
<g id="node9" class="node">
<title>Node9</title>
<g id="a_node9"><a xlink:href="structVec.html" target="_top" xlink:title=" ">
<polygon fill="white" stroke="#666666" points="1083,-377 1049,-377 1049,-358 1083,-358 1083,-377"/>
<text text-anchor="middle" x="1066" y="-365" font-family="Helvetica,sans-Serif" font-size="10.00">Vec</text>
</a>
</g>
</g>
<!-- Node9&#45;&gt;Node3 -->
<g id="edge11" class="edge">
<title>Node9&#45;&gt;Node3</title>
<path fill="none" stroke="#9a32cd" stroke-dasharray="5,2" d="M1094,-356.75C1105.89,-352.15 1120.06,-346.85 1133,-342.5 1167.26,-330.98 1183.15,-342.54 1211,-319.5 1224.48,-308.35 1219.91,-299.45 1229,-284.5 1242.28,-262.66 1260.14,-238.63 1270.23,-225.48"/>
<polygon fill="#9a32cd" stroke="#9a32cd" points="1092.87,-353.43 1084.83,-360.33 1095.42,-359.95 1092.87,-353.43"/>
<text text-anchor="middle" x="1172" y="-356.5" font-family="Helvetica,sans-Serif" font-size="10.00"> mMax</text>
<text text-anchor="middle" x="1172" y="-345.5" font-family="Helvetica,sans-Serif" font-size="10.00">mMin</text>
</g>
<!-- Node11 -->
<g id="node11" class="node">
<title>Node11</title>
<g id="a_node11"><a xlink:href="classJ3DShape.html" target="_top" xlink:title=" ">
<polygon fill="white" stroke="#666666" points="1688,-483 1626,-483 1626,-464 1688,-464 1688,-483"/>
<text text-anchor="middle" x="1657" y="-471" font-family="Helvetica,sans-Serif" font-size="10.00">J3DShape</text>
</a>
</g>
</g>
<!-- Node9&#45;&gt;Node11 -->
<g id="edge16" class="edge">
<title>Node9&#45;&gt;Node11</title>
<path fill="none" stroke="#9a32cd" stroke-dasharray="5,2" d="M1094.62,-366.75C1166.74,-364.99 1359.47,-361.58 1422,-373.5 1508.76,-390.04 1528.83,-404.34 1608,-443.5 1619.8,-449.34 1632.4,-457.28 1641.73,-463.53"/>
<polygon fill="#9a32cd" stroke="#9a32cd" points="1094.78,-363.25 1084.88,-367 1094.96,-370.24 1094.78,-363.25"/>
<text text-anchor="middle" x="1384.5" y="-387.5" font-family="Helvetica,sans-Serif" font-size="10.00"> mMax</text>
<text text-anchor="middle" x="1384.5" y="-376.5" font-family="Helvetica,sans-Serif" font-size="10.00">mMin</text>
</g>
<!-- Node10&#45;&gt;Node3 -->
<g id="edge12" class="edge">
<title>Node10&#45;&gt;Node3</title>
<path fill="none" stroke="#9a32cd" stroke-dasharray="5,2" d="M1438.75,-231.28C1412.05,-230.8 1377.52,-229.55 1347,-226.5 1333.75,-225.17 1319.14,-222.88 1306.95,-220.72"/>
<polygon fill="#9a32cd" stroke="#9a32cd" points="1438.48,-234.78 1448.53,-231.43 1438.58,-227.78 1438.48,-234.78"/>
<text text-anchor="middle" x="1384.5" y="-234.5" font-family="Helvetica,sans-Serif" font-size="10.00"> mMesh</text>
</g>
<!-- Node10&#45;&gt;Node10 -->
<g id="edge13" class="edge">
<title>Node10&#45;&gt;Node10</title>
<path fill="none" stroke="#9a32cd" stroke-dasharray="5,2" d="M1467.99,-252.43C1470.06,-256.29 1475.56,-259 1484.5,-259 1500.85,-259 1505.7,-249.94 1499.06,-241.37"/>
<polygon fill="#9a32cd" stroke="#9a32cd" points="1471.39,-253.31 1469.68,-242.86 1464.5,-252.1 1471.39,-253.31"/>
<text text-anchor="middle" x="1484.5" y="-273" font-family="Helvetica,sans-Serif" font-size="10.00"> mNext</text>
<text text-anchor="middle" x="1484.5" y="-262" font-family="Helvetica,sans-Serif" font-size="10.00">mpOrigMaterial</text>
</g>
<!-- Node10&#45;&gt;Node11 -->
<g id="edge15" class="edge">
<title>Node10&#45;&gt;Node11</title>
<path fill="none" stroke="#9a32cd" stroke-dasharray="5,2" d="M1497.48,-251.04C1508.81,-268.49 1527.01,-294.06 1547,-312.5 1570.65,-334.32 1587.56,-326.65 1608,-351.5 1636.92,-386.66 1649.95,-441.34 1654.27,-463.59"/>
<polygon fill="#9a32cd" stroke="#9a32cd" points="1500.48,-249.22 1492.17,-242.64 1494.56,-252.96 1500.48,-249.22"/>
<text text-anchor="middle" x="1577.5" y="-354.5" font-family="Helvetica,sans-Serif" font-size="10.00"> mMaterial</text>
</g>
<!-- Node11&#45;&gt;Node10 -->
<g id="edge14" class="edge">
<title>Node11&#45;&gt;Node10</title>
<path fill="none" stroke="#9a32cd" stroke-dasharray="5,2" d="M1655.19,-452.73C1652.82,-417.95 1643.64,-347.24 1608,-301.5 1584.51,-271.36 1544.16,-251.96 1516.22,-241.4"/>
<polygon fill="#9a32cd" stroke="#9a32cd" points="1651.67,-452.5 1655.7,-462.3 1658.66,-452.12 1651.67,-452.5"/>
<text text-anchor="middle" x="1577.5" y="-304.5" font-family="Helvetica,sans-Serif" font-size="10.00"> mShape</text>
</g>
<!-- Node12 -->
<g id="node12" class="node">
<title>Node12</title>
<g id="a_node12"><a xlink:href="struct__GXVtxDescList.html" target="_top" xlink:title=" ">
<polygon fill="white" stroke="#666666" points="1529,-557 1440,-557 1440,-538 1529,-538 1529,-557"/>
<text text-anchor="middle" x="1484.5" y="-545" font-family="Helvetica,sans-Serif" font-size="10.00">_GXVtxDescList</text>
</a>
</g>
</g>
<!-- Node12&#45;&gt;Node11 -->
<g id="edge17" class="edge">
<title>Node12&#45;&gt;Node11</title>
<path fill="none" stroke="#9a32cd" stroke-dasharray="5,2" d="M1540.38,-538.83C1562.27,-533.95 1587.16,-526.54 1608,-515.5 1623.66,-507.21 1638.49,-492.87 1647.42,-483.29"/>
<polygon fill="#9a32cd" stroke="#9a32cd" points="1539.81,-535.37 1530.73,-540.85 1541.24,-542.23 1539.81,-535.37"/>
<text text-anchor="middle" x="1577.5" y="-539.5" font-family="Helvetica,sans-Serif" font-size="10.00"> mVtxDesc</text>
</g>
<!-- Node13 -->
<g id="node13" class="node">
<title>Node13</title>
<g id="a_node13"><a xlink:href="classJ3DShapeMtx.html" target="_top" xlink:title=" ">
<polygon fill="white" stroke="#666666" points="1523,-520 1446,-520 1446,-501 1523,-501 1523,-520"/>
<text text-anchor="middle" x="1484.5" y="-508" font-family="Helvetica,sans-Serif" font-size="10.00">J3DShapeMtx</text>
</a>
</g>
</g>
<!-- Node13&#45;&gt;Node11 -->
<g id="edge18" class="edge">
<title>Node13&#45;&gt;Node11</title>
<path fill="none" stroke="#9a32cd" stroke-dasharray="5,2" d="M1534.61,-503.12C1557.11,-499.38 1584.05,-494.37 1608,-488.5 1613.94,-487.05 1620.21,-485.26 1626.2,-483.45"/>
<polygon fill="#9a32cd" stroke="#9a32cd" points="1534.09,-499.66 1524.78,-504.72 1535.21,-506.57 1534.09,-499.66"/>
<text text-anchor="middle" x="1577.5" y="-503.5" font-family="Helvetica,sans-Serif" font-size="10.00"> mShapeMtx</text>
</g>
<!-- Node14 -->
<g id="node14" class="node">
<title>Node14</title>
<g id="a_node14"><a xlink:href="classJ3DShapeDraw.html" target="_top" xlink:title=" ">
<polygon fill="white" stroke="#666666" points="1526.5,-483 1442.5,-483 1442.5,-464 1526.5,-464 1526.5,-483"/>
<text text-anchor="middle" x="1484.5" y="-471" font-family="Helvetica,sans-Serif" font-size="10.00">J3DShapeDraw</text>
</a>
</g>
</g>
<!-- Node14&#45;&gt;Node11 -->
<g id="edge19" class="edge">
<title>Node14&#45;&gt;Node11</title>
<path fill="none" stroke="#9a32cd" stroke-dasharray="5,2" d="M1538.25,-473.5C1566.91,-473.5 1601.32,-473.5 1625.53,-473.5"/>
<polygon fill="#9a32cd" stroke="#9a32cd" points="1538.29,-470 1528.29,-473.5 1538.29,-477 1538.29,-470"/>
<text text-anchor="middle" x="1577.5" y="-476.5" font-family="Helvetica,sans-Serif" font-size="10.00"> mShapeDraw</text>
</g>
<!-- Node15 -->
<g id="node15" class="node">
<title>Node15</title>
<g id="a_node15"><a xlink:href="classJ3DCurrentMtx.html" target="_top" xlink:title=" ">
<polygon fill="white" stroke="#666666" points="1319.5,-444 1238.5,-444 1238.5,-425 1319.5,-425 1319.5,-444"/>
<text text-anchor="middle" x="1279" y="-432" font-family="Helvetica,sans-Serif" font-size="10.00">J3DCurrentMtx</text>
</a>
</g>
</g>
<!-- Node15&#45;&gt;Node10 -->
<g id="edge53" class="edge">
<title>Node15&#45;&gt;Node10</title>
<path fill="none" stroke="#9a32cd" stroke-dasharray="5,2" d="M1330.84,-424.4C1368.7,-416.47 1415.01,-405.77 1422,-399.5 1470.8,-355.76 1480.94,-269.99 1482.99,-241.19"/>
<polygon fill="#9a32cd" stroke="#9a32cd" points="1330.48,-420.9 1321.4,-426.35 1331.9,-427.75 1330.48,-420.9"/>
<text text-anchor="middle" x="1384.5" y="-422.5" font-family="Helvetica,sans-Serif" font-size="10.00"> mCurrentMtx</text>
</g>
<!-- Node15&#45;&gt;Node11 -->
<g id="edge20" class="edge">
<title>Node15&#45;&gt;Node11</title>
<path fill="none" stroke="#9a32cd" stroke-dasharray="5,2" d="M1331.13,-433.81C1381.63,-433.77 1460.96,-435.44 1529,-444.5 1562.52,-448.96 1600.2,-458.1 1625.75,-464.94"/>
<polygon fill="#9a32cd" stroke="#9a32cd" points="1331.37,-430.31 1321.38,-433.84 1331.39,-437.31 1331.37,-430.31"/>
<text text-anchor="middle" x="1484.5" y="-447.5" font-family="Helvetica,sans-Serif" font-size="10.00"> mCurrentMtx</text>
</g>
<!-- Node16 -->
<g id="node16" class="node">
<title>Node16</title>
<g id="a_node16"><a xlink:href="classJ3DCurrentMtxInfo.html" target="_top" xlink:title=" ">
<polygon fill="white" stroke="#666666" points="1115,-444 1017,-444 1017,-425 1115,-425 1115,-444"/>
<text text-anchor="middle" x="1066" y="-432" font-family="Helvetica,sans-Serif" font-size="10.00">J3DCurrentMtxInfo</text>
</a>
</g>
</g>
<!-- Node16&#45;&gt;Node15 -->
<g id="edge21" class="edge">
<title>Node16&#45;&gt;Node15</title>
<path fill="none" stroke="#63b8ff" d="M1126.68,-434.5C1162.41,-434.5 1206.85,-434.5 1238.3,-434.5"/>
<polygon fill="#63b8ff" stroke="#63b8ff" points="1126.92,-431 1116.92,-434.5 1126.92,-438 1126.92,-431"/>
</g>
<!-- Node17 -->
<g id="node17" class="node">
<title>Node17</title>
<g id="a_node17"><a xlink:href="classJ3DVertexData.html" target="_top" xlink:title=" ">
<polygon fill="white" stroke="#666666" points="1525.5,-594 1443.5,-594 1443.5,-575 1525.5,-575 1525.5,-594"/>
<text text-anchor="middle" x="1484.5" y="-582" font-family="Helvetica,sans-Serif" font-size="10.00">J3DVertexData</text>
</a>
</g>
</g>
<!-- Node17&#45;&gt;Node11 -->
<g id="edge22" class="edge">
<title>Node17&#45;&gt;Node11</title>
<path fill="none" stroke="#9a32cd" stroke-dasharray="5,2" d="M1536.96,-579.4C1560.45,-574.99 1587.52,-566.78 1608,-551.5 1631.96,-533.62 1646.61,-499.94 1652.71,-483.3"/>
<polygon fill="#9a32cd" stroke="#9a32cd" points="1536.54,-575.92 1527.25,-581.02 1537.69,-582.82 1536.54,-575.92"/>
<text text-anchor="middle" x="1577.5" y="-579.5" font-family="Helvetica,sans-Serif" font-size="10.00"> mVertexData</text>
</g>
<!-- Node18 -->
<g id="node18" class="node">
<title>Node18</title>
<g id="a_node18"><a xlink:href="struct__GXVtxAttrFmtList.html" target="_top" xlink:title=" ">
<polygon fill="white" stroke="#666666" points="1329,-557 1229,-557 1229,-538 1329,-538 1329,-557"/>
<text text-anchor="middle" x="1279" y="-545" font-family="Helvetica,sans-Serif" font-size="10.00">_GXVtxAttrFmtList</text>
</a>
</g>
</g>
<!-- Node18&#45;&gt;Node17 -->
<g id="edge23" class="edge">
<title>Node18&#45;&gt;Node17</title>
<path fill="none" stroke="#9a32cd" stroke-dasharray="5,2" d="M1340.73,-555.74C1365.96,-559.47 1395.48,-564.22 1422,-569.5 1429.44,-570.98 1437.33,-572.75 1444.9,-574.55"/>
<polygon fill="#9a32cd" stroke="#9a32cd" points="1341.37,-552.3 1330.97,-554.32 1340.36,-559.23 1341.37,-552.3"/>
<text text-anchor="middle" x="1384.5" y="-572.5" font-family="Helvetica,sans-Serif" font-size="10.00"> mVtxAttrFmtList</text>
</g>
<!-- Node19 -->
<g id="node19" class="node">
<title>Node19</title>
<g id="a_node19"><a xlink:href="struct__GXColor.html" target="_top" xlink:title=" ">
<polygon fill="white" stroke="#666666" points="1308.5,-594 1249.5,-594 1249.5,-575 1308.5,-575 1308.5,-594"/>
<text text-anchor="middle" x="1279" y="-582" font-family="Helvetica,sans-Serif" font-size="10.00">_GXColor</text>
</a>
</g>
</g>
<!-- Node19&#45;&gt;Node17 -->
<g id="edge24" class="edge">
<title>Node19&#45;&gt;Node17</title>
<path fill="none" stroke="#9a32cd" stroke-dasharray="5,2" d="M1320.15,-584.5C1355.83,-584.5 1407.7,-584.5 1443.36,-584.5"/>
<polygon fill="#9a32cd" stroke="#9a32cd" points="1320.24,-581 1310.24,-584.5 1320.24,-588 1320.24,-581"/>
<text text-anchor="middle" x="1384.5" y="-587.5" font-family="Helvetica,sans-Serif" font-size="10.00"> mVtxColorArray</text>
</g>
<!-- Node20 -->
<g id="node20" class="node">
<title>Node20</title>
<g id="a_node20"><a xlink:href="structJ3DDrawMtxData.html" target="_top" xlink:title=" ">
<polygon fill="white" stroke="#666666" points="418.5,-473 326.5,-473 326.5,-454 418.5,-454 418.5,-473"/>
<text text-anchor="middle" x="372.5" y="-461" font-family="Helvetica,sans-Serif" font-size="10.00">J3DDrawMtxData</text>
</a>
</g>
</g>
<!-- Node20&#45;&gt;Node1 -->
<g id="edge57" class="edge">
<title>Node20&#45;&gt;Node1</title>
<path fill="none" stroke="#9a32cd" stroke-dasharray="5,2" d="M392.89,-446.13C436.98,-406.65 543.56,-311.2 578.04,-280.32"/>
<polygon fill="#9a32cd" stroke="#9a32cd" points="390.72,-443.38 385.61,-452.65 395.39,-448.59 390.72,-443.38"/>
<text text-anchor="middle" x="476" y="-403.5" font-family="Helvetica,sans-Serif" font-size="10.00"> mDrawMtxData</text>
</g>
<!-- Node20&#45;&gt;Node11 -->
<g id="edge25" class="edge">
<title>Node20&#45;&gt;Node11</title>
<path fill="none" stroke="#9a32cd" stroke-dasharray="5,2" d="M386.36,-482.7C416.41,-525 495.79,-622.5 589,-622.5 589,-622.5 589,-622.5 1485.5,-622.5 1541.66,-622.5 1565.64,-628.37 1608,-591.5 1641.53,-562.32 1652,-506.22 1654.95,-483.46"/>
<polygon fill="#9a32cd" stroke="#9a32cd" points="389.39,-480.92 380.82,-474.69 383.63,-484.9 389.39,-480.92"/>
<text text-anchor="middle" x="1066" y="-625.5" font-family="Helvetica,sans-Serif" font-size="10.00"> mDrawMtxData</text>
</g>
<!-- Node21 -->
<g id="node21" class="node">
<title>Node21</title>
<g id="a_node21"><a xlink:href="structJ3DColorBlock.html" target="_top" xlink:title=" ">
<polygon fill="white" stroke="#666666" points="1319.5,-101 1238.5,-101 1238.5,-82 1319.5,-82 1319.5,-101"/>
<text text-anchor="middle" x="1279" y="-89" font-family="Helvetica,sans-Serif" font-size="10.00">J3DColorBlock</text>
</a>
</g>
</g>
<!-- Node21&#45;&gt;Node10 -->
<g id="edge27" class="edge">
<title>Node21&#45;&gt;Node10</title>
<path fill="none" stroke="#9a32cd" stroke-dasharray="5,2" d="M1330.93,-88.08C1360.05,-88.64 1395.86,-93.83 1422,-112.5 1460.41,-139.94 1476.58,-198.69 1481.62,-221.84"/>
<polygon fill="#9a32cd" stroke="#9a32cd" points="1331.24,-84.58 1321.24,-88.08 1331.24,-91.58 1331.24,-84.58"/>
<text text-anchor="middle" x="1384.5" y="-115.5" font-family="Helvetica,sans-Serif" font-size="10.00"> mColorBlock</text>
</g>
<!-- Node22 -->
<g id="node22" class="node">
<title>Node22</title>
<g id="a_node22"><a xlink:href="structJ3DTexGenBlock.html" target="_top" xlink:title=" ">
<polygon fill="white" stroke="#666666" points="1325,-64 1233,-64 1233,-45 1325,-45 1325,-64"/>
<text text-anchor="middle" x="1279" y="-52" font-family="Helvetica,sans-Serif" font-size="10.00">J3DTexGenBlock</text>
</a>
</g>
</g>
<!-- Node22&#45;&gt;Node10 -->
<g id="edge28" class="edge">
<title>Node22&#45;&gt;Node10</title>
<path fill="none" stroke="#9a32cd" stroke-dasharray="5,2" d="M1336.59,-49.73C1364.95,-50.27 1398.22,-55.71 1422,-74.5 1470.24,-112.61 1480.72,-193.84 1482.93,-221.81"/>
<polygon fill="#9a32cd" stroke="#9a32cd" points="1336.69,-46.23 1326.7,-49.76 1336.71,-53.23 1336.69,-46.23"/>
<text text-anchor="middle" x="1384.5" y="-77.5" font-family="Helvetica,sans-Serif" font-size="10.00"> mTexGenBlock</text>
</g>
<!-- Node23 -->
<g id="node23" class="node">
<title>Node23</title>
<g id="a_node23"><a xlink:href="structJ3DTevBlock.html" target="_top" xlink:title=" ">
<polygon fill="white" stroke="#666666" points="1316.5,-27 1241.5,-27 1241.5,-8 1316.5,-8 1316.5,-27"/>
<text text-anchor="middle" x="1279" y="-15" font-family="Helvetica,sans-Serif" font-size="10.00">J3DTevBlock</text>
</a>
</g>
</g>
<!-- Node23&#45;&gt;Node10 -->
<g id="edge29" class="edge">
<title>Node23&#45;&gt;Node10</title>
<path fill="none" stroke="#9a32cd" stroke-dasharray="5,2" d="M1328.08,-11.33C1358.31,-10.16 1396.31,-14.01 1422,-35.5 1480.82,-84.69 1484.22,-189.5 1483.8,-221.81"/>
<polygon fill="#9a32cd" stroke="#9a32cd" points="1328.2,-7.82 1318.43,-11.91 1328.62,-14.81 1328.2,-7.82"/>
<text text-anchor="middle" x="1384.5" y="-38.5" font-family="Helvetica,sans-Serif" font-size="10.00"> mTevBlock</text>
</g>
<!-- Node24 -->
<g id="node24" class="node">
<title>Node24</title>
<g id="a_node24"><a xlink:href="classJ3DIndBlock.html" target="_top" xlink:title=" ">
<polygon fill="white" stroke="#666666" points="1315,-350 1243,-350 1243,-331 1315,-331 1315,-350"/>
<text text-anchor="middle" x="1279" y="-338" font-family="Helvetica,sans-Serif" font-size="10.00">J3DIndBlock</text>
</a>
</g>
</g>
<!-- Node24&#45;&gt;Node10 -->
<g id="edge30" class="edge">
<title>Node24&#45;&gt;Node10</title>
<path fill="none" stroke="#9a32cd" stroke-dasharray="5,2" d="M1326.31,-331.02C1355.29,-323.72 1392.57,-311.73 1422,-293.5 1444.94,-279.29 1465.71,-254.87 1476.24,-241.3"/>
<polygon fill="#9a32cd" stroke="#9a32cd" points="1325.62,-327.59 1316.72,-333.33 1327.26,-334.39 1325.62,-327.59"/>
<text text-anchor="middle" x="1384.5" y="-328.5" font-family="Helvetica,sans-Serif" font-size="10.00"> mIndBlock</text>
</g>
<!-- Node25 -->
<g id="node25" class="node">
<title>Node25</title>
<g id="a_node25"><a xlink:href="structJ3DPEBlock.html" target="_top" xlink:title=" ">
<polygon fill="white" stroke="#666666" points="1314.5,-313 1243.5,-313 1243.5,-294 1314.5,-294 1314.5,-313"/>
<text text-anchor="middle" x="1279" y="-301" font-family="Helvetica,sans-Serif" font-size="10.00">J3DPEBlock</text>
</a>
</g>
</g>
<!-- Node25&#45;&gt;Node10 -->
<g id="edge31" class="edge">
<title>Node25&#45;&gt;Node10</title>
<path fill="none" stroke="#9a32cd" stroke-dasharray="5,2" d="M1318.51,-289.88C1358.39,-275.77 1419.74,-254.06 1455.31,-241.47"/>
<polygon fill="#9a32cd" stroke="#9a32cd" points="1317.56,-286.5 1309.3,-293.13 1319.89,-293.1 1317.56,-286.5"/>
<text text-anchor="middle" x="1384.5" y="-281.5" font-family="Helvetica,sans-Serif" font-size="10.00"> mPEBlock</text>
</g>
<!-- Node26 -->
<g id="node26" class="node">
<title>Node26</title>
<g id="a_node26"><a xlink:href="structJ3DMaterialAnm.html" target="_top" xlink:title=" ">
<polygon fill="white" stroke="#666666" points="1110.5,-113 1021.5,-113 1021.5,-94 1110.5,-94 1110.5,-113"/>
<text text-anchor="middle" x="1066" y="-101" font-family="Helvetica,sans-Serif" font-size="10.00">J3DMaterialAnm</text>
</a>
</g>
</g>
<!-- Node26&#45;&gt;Node10 -->
<g id="edge32" class="edge">
<title>Node26&#45;&gt;Node10</title>
<path fill="none" stroke="#9a32cd" stroke-dasharray="5,2" d="M1122.19,-104.69C1195.28,-108.48 1326.12,-123.07 1422,-177.5 1443.25,-189.56 1463.71,-209.79 1474.85,-221.77"/>
<polygon fill="#9a32cd" stroke="#9a32cd" points="1122.63,-101.21 1112.48,-104.24 1122.31,-108.2 1122.63,-101.21"/>
<text text-anchor="middle" x="1279" y="-141.5" font-family="Helvetica,sans-Serif" font-size="10.00"> mMaterialAnm</text>
</g>
<!-- Node27 -->
<g id="node27" class="node">
<title>Node27</title>
<g id="a_node27"><a xlink:href="structJ3DMatColorAnm.html" target="_top" xlink:title=" ">
<polygon fill="white" stroke="#666666" points="877,-93 784,-93 784,-74 877,-74 877,-93"/>
<text text-anchor="middle" x="830.5" y="-81" font-family="Helvetica,sans-Serif" font-size="10.00">J3DMatColorAnm</text>
</a>
</g>
</g>
<!-- Node27&#45;&gt;Node26 -->
<g id="edge33" class="edge">
<title>Node27&#45;&gt;Node26</title>
<path fill="none" stroke="#9a32cd" stroke-dasharray="5,2" d="M888.51,-86.25C920.94,-88.07 962.3,-90.8 999,-94.5 1006.13,-95.22 1013.68,-96.12 1021.03,-97.07"/>
<polygon fill="#9a32cd" stroke="#9a32cd" points="889.11,-82.78 878.94,-85.73 888.73,-89.77 889.11,-82.78"/>
<text text-anchor="middle" x="956" y="-97.5" font-family="Helvetica,sans-Serif" font-size="10.00"> mMatColorAnm</text>
</g>
<!-- Node28 -->
<g id="node28" class="node">
<title>Node28</title>
<g id="a_node28"><a xlink:href="classJ3DAnmColor.html" target="_top" xlink:title=" ">
<polygon fill="white" stroke="#666666" points="628.5,-93 551.5,-93 551.5,-74 628.5,-74 628.5,-93"/>
<text text-anchor="middle" x="590" y="-81" font-family="Helvetica,sans-Serif" font-size="10.00">J3DAnmColor</text>
</a>
</g>
</g>
<!-- Node28&#45;&gt;Node27 -->
<g id="edge34" class="edge">
<title>Node28&#45;&gt;Node27</title>
<path fill="none" stroke="#9a32cd" stroke-dasharray="5,2" d="M640.17,-83.5C682.32,-83.5 742.58,-83.5 783.73,-83.5"/>
<polygon fill="#9a32cd" stroke="#9a32cd" points="640.3,-80 630.3,-83.5 640.3,-87 640.3,-80"/>
<text text-anchor="middle" x="708.5" y="-86.5" font-family="Helvetica,sans-Serif" font-size="10.00"> mAnmColor</text>
</g>
<!-- Node29 -->
<g id="node29" class="node">
<title>Node29</title>
<g id="a_node29"><a xlink:href="classJ3DAnmBase.html" target="_top" xlink:title=" ">
<polygon fill="white" stroke="#666666" points="411,-42 334,-42 334,-23 411,-23 411,-42"/>
<text text-anchor="middle" x="372.5" y="-30" font-family="Helvetica,sans-Serif" font-size="10.00">J3DAnmBase</text>
</a>
</g>
</g>
<!-- Node29&#45;&gt;Node28 -->
<g id="edge35" class="edge">
<title>Node29&#45;&gt;Node28</title>
<path fill="none" stroke="#63b8ff" d="M422.69,-40.15C449.07,-44.66 482.02,-50.97 511,-58.5 519.16,-60.62 520.98,-61.89 529,-64.5 538.14,-67.47 548.09,-70.65 557.21,-73.53"/>
<polygon fill="#63b8ff" stroke="#63b8ff" points="423.38,-36.71 412.94,-38.51 422.22,-43.62 423.38,-36.71"/>
</g>
<!-- Node34 -->
<g id="node34" class="node">
<title>Node34</title>
<g id="a_node34"><a xlink:href="structJ3DAnmTextureSRTKey.html" target="_top" xlink:title=" ">
<polygon fill="white" stroke="#666666" points="651,-19 529,-19 529,0 651,0 651,-19"/>
<text text-anchor="middle" x="590" y="-7" font-family="Helvetica,sans-Serif" font-size="10.00">J3DAnmTextureSRTKey</text>
</a>
</g>
</g>
<!-- Node29&#45;&gt;Node34 -->
<g id="edge41" class="edge">
<title>Node29&#45;&gt;Node34</title>
<path fill="none" stroke="#63b8ff" d="M422.19,-27.3C453.75,-23.94 495.08,-19.52 528.71,-15.93"/>
<polygon fill="#63b8ff" stroke="#63b8ff" points="422.11,-23.79 412.54,-28.33 422.86,-30.75 422.11,-23.79"/>
</g>
<!-- Node36 -->
<g id="node36" class="node">
<title>Node36</title>
<g id="a_node36"><a xlink:href="structJ3DAnmTexPattern.html" target="_top" xlink:title=" ">
<polygon fill="white" stroke="#666666" points="640.5,-56 539.5,-56 539.5,-37 640.5,-37 640.5,-56"/>
<text text-anchor="middle" x="590" y="-44" font-family="Helvetica,sans-Serif" font-size="10.00">J3DAnmTexPattern</text>
</a>
</g>
</g>
<!-- Node29&#45;&gt;Node36 -->
<g id="edge45" class="edge">
<title>Node29&#45;&gt;Node36</title>
<path fill="none" stroke="#63b8ff" d="M422.42,-30.98C448.72,-30.64 481.68,-30.97 511,-33.5 520.16,-34.29 529.87,-35.56 539.22,-37"/>
<polygon fill="#63b8ff" stroke="#63b8ff" points="422.67,-27.48 412.73,-31.15 422.79,-34.48 422.67,-27.48"/>
</g>
<!-- Node38 -->
<g id="node38" class="node">
<title>Node38</title>
<g id="a_node38"><a xlink:href="structJ3DAnmTevRegKey.html" target="_top" xlink:title=" ">
<polygon fill="white" stroke="#666666" points="642,-148 538,-148 538,-129 642,-129 642,-148"/>
<text text-anchor="middle" x="590" y="-136" font-family="Helvetica,sans-Serif" font-size="10.00">J3DAnmTevRegKey</text>
</a>
</g>
</g>
<!-- Node29&#45;&gt;Node38 -->
<g id="edge49" class="edge">
<title>Node29&#45;&gt;Node38</title>
<path fill="none" stroke="#63b8ff" d="M412.94,-46.16C450.44,-59.31 502.39,-77.98 511,-83.5 520.52,-89.61 520.12,-94.48 529,-101.5 542.06,-111.82 558.17,-121.62 570.42,-128.54"/>
<polygon fill="#63b8ff" stroke="#63b8ff" points="414.33,-42.94 403.74,-42.94 412.02,-49.55 414.33,-42.94"/>
</g>
<!-- Node30 -->
<g id="node30" class="node">
<title>Node30</title>
<g id="a_node30"><a xlink:href="structJUTNameTab.html" target="_top" xlink:title=" ">
<polygon fill="white" stroke="#666666" points="411.5,-191 333.5,-191 333.5,-172 411.5,-172 411.5,-191"/>
<text text-anchor="middle" x="372.5" y="-179" font-family="Helvetica,sans-Serif" font-size="10.00">JUTNameTab</text>
</a>
</g>
</g>
<!-- Node30&#45;&gt;Node1 -->
<g id="edge58" class="edge">
<title>Node30&#45;&gt;Node1</title>
<path fill="none" stroke="#9a32cd" stroke-dasharray="5,2" d="M395.61,-198.2C408.36,-207.23 424.99,-218.03 441,-225.5 477.51,-242.53 522.04,-255.05 552.67,-262.5"/>
<polygon fill="#9a32cd" stroke="#9a32cd" points="397.67,-195.37 387.52,-192.32 393.55,-201.03 397.67,-195.37"/>
<text text-anchor="middle" x="476" y="-253.5" font-family="Helvetica,sans-Serif" font-size="10.00"> mJointName</text>
</g>
<!-- Node30&#45;&gt;Node28 -->
<g id="edge36" class="edge">
<title>Node30&#45;&gt;Node28</title>
<path fill="none" stroke="#9a32cd" stroke-dasharray="5,2" d="M422.94,-178.5C456.58,-175.56 497.37,-169.93 511,-159.5 526.48,-147.65 516.05,-134.07 529,-119.5 539.01,-108.24 553.4,-99.44 565.58,-93.36"/>
<polygon fill="#9a32cd" stroke="#9a32cd" points="423.05,-174.98 413.36,-179.28 423.61,-181.96 423.05,-174.98"/>
<text text-anchor="middle" x="476" y="-179.5" font-family="Helvetica,sans-Serif" font-size="10.00"> field_0x1c</text>
</g>
<!-- Node30&#45;&gt;Node34 -->
<g id="edge42" class="edge">
<title>Node30&#45;&gt;Node34</title>
<path fill="none" stroke="#9a32cd" stroke-dasharray="5,2" d="M386.69,-162.52C410.82,-129.37 465.46,-61.28 529,-27.5 534.95,-24.34 541.54,-21.65 548.11,-19.39"/>
<polygon fill="#9a32cd" stroke="#9a32cd" points="384.05,-160.2 381.09,-170.37 389.75,-164.26 384.05,-160.2"/>
<text text-anchor="middle" x="476" y="-111.5" font-family="Helvetica,sans-Serif" font-size="10.00"> field_0x30</text>
<text text-anchor="middle" x="476" y="-100.5" font-family="Helvetica,sans-Serif" font-size="10.00">field_0x64</text>
</g>
<!-- Node30&#45;&gt;Node36 -->
<g id="edge46" class="edge">
<title>Node30&#45;&gt;Node36</title>
<path fill="none" stroke="#9a32cd" stroke-dasharray="5,2" d="M400.49,-166.03C412.63,-159.46 427.28,-152.06 441,-146.5 471.1,-134.3 488.08,-148.52 511,-125.5 530.94,-105.47 509.06,-84.53 529,-64.5 532.22,-61.26 536,-58.6 540.07,-56.42"/>
<polygon fill="#9a32cd" stroke="#9a32cd" points="398.94,-162.89 391.88,-170.79 402.33,-169.01 398.94,-162.89"/>
<text text-anchor="middle" x="476" y="-149.5" font-family="Helvetica,sans-Serif" font-size="10.00"> field_0x1c</text>
</g>
<!-- Node30&#45;&gt;Node38 -->
<g id="edge50" class="edge">
<title>Node30&#45;&gt;Node38</title>
<path fill="none" stroke="#9a32cd" stroke-dasharray="5,2" d="M418,-193.99C445.4,-199.59 480.92,-203.04 511,-193.5 539.11,-184.58 565.84,-161.48 579.52,-148.22"/>
<polygon fill="#9a32cd" stroke="#9a32cd" points="418.79,-190.58 408.27,-191.82 417.27,-197.41 418.79,-190.58"/>
<text text-anchor="middle" x="476" y="-213.5" font-family="Helvetica,sans-Serif" font-size="10.00"> field_0x24</text>
<text text-anchor="middle" x="476" y="-202.5" font-family="Helvetica,sans-Serif" font-size="10.00">field_0x38</text>
</g>
<!-- Node31 -->
<g id="node31" class="node">
<title>Node31</title>
<g id="a_node31"><a xlink:href="structResNTAB.html" target="_top" xlink:title=" ">
<polygon fill="white" stroke="#666666" points="225,-191 164,-191 164,-172 225,-172 225,-191"/>
<text text-anchor="middle" x="194.5" y="-179" font-family="Helvetica,sans-Serif" font-size="10.00">ResNTAB</text>
</a>
</g>
</g>
<!-- Node31&#45;&gt;Node30 -->
<g id="edge37" class="edge">
<title>Node31&#45;&gt;Node30</title>
<path fill="none" stroke="#9a32cd" stroke-dasharray="5,2" d="M236.8,-181.5C265.95,-181.5 304.72,-181.5 333.18,-181.5"/>
<polygon fill="#9a32cd" stroke="#9a32cd" points="236.87,-178 226.87,-181.5 236.87,-185 236.87,-178"/>
<text text-anchor="middle" x="273.5" y="-184.5" font-family="Helvetica,sans-Serif" font-size="10.00"> mNameTable</text>
</g>
<!-- Node32 -->
<g id="node32" class="node">
<title>Node32</title>
<g id="a_node32"><a xlink:href="structResNTAB_1_1Entry.html" target="_top" xlink:title=" ">
<polygon fill="white" stroke="#666666" points="87,-191 0,-191 0,-172 87,-172 87,-191"/>
<text text-anchor="middle" x="43.5" y="-179" font-family="Helvetica,sans-Serif" font-size="10.00">ResNTAB::Entry</text>
</a>
</g>
</g>
<!-- Node32&#45;&gt;Node31 -->
<g id="edge38" class="edge">
<title>Node32&#45;&gt;Node31</title>
<path fill="none" stroke="#9a32cd" stroke-dasharray="5,2" d="M98.7,-181.5C120.58,-181.5 144.99,-181.5 163.56,-181.5"/>
<polygon fill="#9a32cd" stroke="#9a32cd" points="98.71,-178 88.71,-181.5 98.71,-185 98.71,-178"/>
<text text-anchor="middle" x="125.5" y="-184.5" font-family="Helvetica,sans-Serif" font-size="10.00"> mEntries</text>
</g>
<!-- Node33 -->
<g id="node33" class="node">
<title>Node33</title>
<g id="a_node33"><a xlink:href="structJ3DTexMtxAnm.html" target="_top" xlink:title=" ">
<polygon fill="white" stroke="#666666" points="873.5,-19 787.5,-19 787.5,0 873.5,0 873.5,-19"/>
<text text-anchor="middle" x="830.5" y="-7" font-family="Helvetica,sans-Serif" font-size="10.00">J3DTexMtxAnm</text>
</a>
</g>
</g>
<!-- Node33&#45;&gt;Node26 -->
<g id="edge39" class="edge">
<title>Node33&#45;&gt;Node26</title>
<path fill="none" stroke="#9a32cd" stroke-dasharray="5,2" d="M885.08,-11.6C919.27,-14.78 963.63,-22.42 999,-40.5 1024.39,-53.48 1046.7,-79.35 1057.72,-93.57"/>
<polygon fill="#9a32cd" stroke="#9a32cd" points="885.67,-8.13 875.42,-10.81 885.1,-15.11 885.67,-8.13"/>
<text text-anchor="middle" x="956" y="-43.5" font-family="Helvetica,sans-Serif" font-size="10.00"> mTexMtxAnm</text>
</g>
<!-- Node34&#45;&gt;Node33 -->
<g id="edge40" class="edge">
<title>Node34&#45;&gt;Node33</title>
<path fill="none" stroke="#9a32cd" stroke-dasharray="5,2" d="M662.95,-9.5C703.49,-9.5 752.73,-9.5 787.12,-9.5"/>
<polygon fill="#9a32cd" stroke="#9a32cd" points="663.01,-6 653.01,-9.5 663.01,-13 663.01,-6"/>
<text text-anchor="middle" x="708.5" y="-12.5" font-family="Helvetica,sans-Serif" font-size="10.00"> mAnmTransform</text>
</g>
<!-- Node35 -->
<g id="node35" class="node">
<title>Node35</title>
<g id="a_node35"><a xlink:href="structJ3DTexNoAnm.html" target="_top" xlink:title=" ">
<polygon fill="white" stroke="#666666" points="872,-56 789,-56 789,-37 872,-37 872,-56"/>
<text text-anchor="middle" x="830.5" y="-44" font-family="Helvetica,sans-Serif" font-size="10.00">J3DTexNoAnm</text>
</a>
</g>
</g>
<!-- Node35&#45;&gt;Node26 -->
<g id="edge43" class="edge">
<title>Node35&#45;&gt;Node26</title>
<path fill="none" stroke="#9a32cd" stroke-dasharray="5,2" d="M883.82,-51.3C917.27,-55.26 961.29,-62.11 999,-73.5 1015.75,-78.56 1033.77,-86.97 1046.74,-93.6"/>
<polygon fill="#9a32cd" stroke="#9a32cd" points="884.29,-47.83 873.96,-50.19 883.51,-54.79 884.29,-47.83"/>
<text text-anchor="middle" x="956" y="-76.5" font-family="Helvetica,sans-Serif" font-size="10.00"> mTexNoAnm</text>
</g>
<!-- Node36&#45;&gt;Node35 -->
<g id="edge44" class="edge">
<title>Node36&#45;&gt;Node35</title>
<path fill="none" stroke="#9a32cd" stroke-dasharray="5,2" d="M652.42,-46.5C695.26,-46.5 751.24,-46.5 788.68,-46.5"/>
<polygon fill="#9a32cd" stroke="#9a32cd" points="652.51,-43 642.51,-46.5 652.51,-50 652.51,-43"/>
<text text-anchor="middle" x="708.5" y="-49.5" font-family="Helvetica,sans-Serif" font-size="10.00"> mAnmTexPattern</text>
</g>
<!-- Node37 -->
<g id="node37" class="node">
<title>Node37</title>
<g id="a_node37"><a xlink:href="structJ3DTevColorAnm.html" target="_top" xlink:title=" ">
<polygon fill="white" stroke="#666666" points="877,-167 784,-167 784,-148 877,-148 877,-167"/>
<text text-anchor="middle" x="830.5" y="-155" font-family="Helvetica,sans-Serif" font-size="10.00">J3DTevColorAnm</text>
</a>
</g>
</g>
<!-- Node37&#45;&gt;Node26 -->
<g id="edge47" class="edge">
<title>Node37&#45;&gt;Node26</title>
<path fill="none" stroke="#9a32cd" stroke-dasharray="5,2" d="M888.44,-151.6C921.18,-147.4 962.85,-140.66 999,-130.5 1014.61,-126.11 1031.53,-119.14 1044.33,-113.39"/>
<polygon fill="#9a32cd" stroke="#9a32cd" points="888.25,-148.1 878.75,-152.8 889.11,-155.04 888.25,-148.1"/>
<text text-anchor="middle" x="956" y="-151.5" font-family="Helvetica,sans-Serif" font-size="10.00"> mTevColorAnm</text>
</g>
<!-- Node38&#45;&gt;Node37 -->
<g id="edge48" class="edge">
<title>Node38&#45;&gt;Node37</title>
<path fill="none" stroke="#9a32cd" stroke-dasharray="5,2" d="M653.91,-143.51C694.7,-146.76 746.92,-150.92 783.77,-153.86"/>
<polygon fill="#9a32cd" stroke="#9a32cd" points="654.21,-140.02 643.97,-142.72 653.66,-147 654.21,-140.02"/>
<text text-anchor="middle" x="708.5" y="-154.5" font-family="Helvetica,sans-Serif" font-size="10.00"> mAnmTevReg</text>
</g>
<!-- Node39 -->
<g id="node39" class="node">
<title>Node39</title>
<g id="a_node39"><a xlink:href="structJ3DTevKColorAnm.html" target="_top" xlink:title=" ">
<polygon fill="white" stroke="#666666" points="880.5,-130 780.5,-130 780.5,-111 880.5,-111 880.5,-130"/>
<text text-anchor="middle" x="830.5" y="-118" font-family="Helvetica,sans-Serif" font-size="10.00">J3DTevKColorAnm</text>
</a>
</g>
</g>
<!-- Node38&#45;&gt;Node39 -->
<g id="edge52" class="edge">
<title>Node38&#45;&gt;Node39</title>
<path fill="none" stroke="#9a32cd" stroke-dasharray="5,2" d="M646.87,-126.56C654.28,-125.33 661.81,-124.25 669,-123.5 706.14,-119.61 748.38,-118.97 780.19,-119.24"/>
<polygon fill="#9a32cd" stroke="#9a32cd" points="646.49,-123.07 637.25,-128.27 647.71,-129.97 646.49,-123.07"/>
<text text-anchor="middle" x="708.5" y="-126.5" font-family="Helvetica,sans-Serif" font-size="10.00"> mAnmTevReg</text>
</g>
<!-- Node39&#45;&gt;Node26 -->
<g id="edge51" class="edge">
<title>Node39&#45;&gt;Node26</title>
<path fill="none" stroke="#9a32cd" stroke-dasharray="5,2" d="M892.09,-116.09C932.58,-113.14 984.9,-109.33 1021.34,-106.68"/>
<polygon fill="#9a32cd" stroke="#9a32cd" points="891.96,-112.59 882.24,-116.81 892.47,-119.57 891.96,-112.59"/>
<text text-anchor="middle" x="956" y="-118.5" font-family="Helvetica,sans-Serif" font-size="10.00"> mTevKColorAnm</text>
</g>
<!-- Node40 -->
<g id="node40" class="node">
<title>Node40</title>
<g id="a_node40"><a xlink:href="structJ3DDisplayListObj.html" target="_top" xlink:title=" ">
<polygon fill="white" stroke="#666666" points="1327.5,-187 1230.5,-187 1230.5,-168 1327.5,-168 1327.5,-187"/>
<text text-anchor="middle" x="1279" y="-175" font-family="Helvetica,sans-Serif" font-size="10.00">J3DDisplayListObj</text>
</a>
</g>
</g>
<!-- Node40&#45;&gt;Node10 -->
<g id="edge54" class="edge">
<title>Node40&#45;&gt;Node10</title>
<path fill="none" stroke="#9a32cd" stroke-dasharray="5,2" d="M1338.97,-179.65C1364.97,-181.94 1395.56,-186.51 1422,-195.5 1439.8,-201.56 1458.15,-213.11 1470.11,-221.5"/>
<polygon fill="#9a32cd" stroke="#9a32cd" points="1339.51,-176.18 1329.27,-178.89 1338.97,-183.16 1339.51,-176.18"/>
<text text-anchor="middle" x="1384.5" y="-198.5" font-family="Helvetica,sans-Serif" font-size="10.00"> mSharedDLObj</text>
</g>
<!-- Node41 -->
<g id="node41" class="node">
<title>Node41</title>
<g id="a_node41"><a xlink:href="structGDLObj.html" target="_top" xlink:title=" ">
<polygon fill="white" stroke="#666666" points="1092,-167 1040,-167 1040,-148 1092,-148 1092,-167"/>
<text text-anchor="middle" x="1066" y="-155" font-family="Helvetica,sans-Serif" font-size="10.00">GDLObj</text>
</a>
</g>
</g>
<!-- Node41&#45;&gt;Node40 -->
<g id="edge55" class="edge">
<title>Node41&#45;&gt;Node40</title>
<path fill="none" stroke="#9a32cd" stroke-dasharray="5,2" d="M1103.51,-160.65C1132.62,-163.2 1174.44,-166.94 1211,-170.5 1217.17,-171.1 1223.66,-171.75 1230.06,-172.41"/>
<polygon fill="#9a32cd" stroke="#9a32cd" points="1104.02,-157.18 1093.75,-159.8 1103.41,-164.16 1104.02,-157.18"/>
<text text-anchor="middle" x="1172" y="-173.5" font-family="Helvetica,sans-Serif" font-size="10.00"> sGDLObj</text>
</g>
</g>
</svg>
