<?xml version="1.0" encoding="UTF-8" standalone="no"?>
<!DOCTYPE svg PUBLIC "-//W3C//DTD SVG 1.1//EN"
 "http://www.w3.org/Graphics/SVG/1.1/DTD/svg11.dtd">
<!-- Generated by graphviz version 7.0.5 (20221223.1930)
 -->
<!-- Title: Z2Creature Pages: 1 -->
<svg width="1120pt" height="271pt"
 viewBox="0.00 0.00 1120.00 270.50" xmlns="http://www.w3.org/2000/svg" xmlns:xlink="http://www.w3.org/1999/xlink">
<g id="graph0" class="graph" transform="scale(1 1) rotate(0) translate(4 266.5)">
<title>Z2Creature</title>
<!-- Node1 -->
<g id="node1" class="node">
<title>Node1</title>
<g id="a_node1"><a xlink:title=" ">
<polygon fill="#999999" stroke="#666666" points="1112,-199 1047,-199 1047,-180 1112,-180 1112,-199"/>
<text text-anchor="middle" x="1079.5" y="-187" font-family="Helvetica,sans-Serif" font-size="10.00">Z2Creature</text>
</a>
</g>
</g>
<!-- Node2 -->
<g id="node2" class="node">
<title>Node2</title>
<g id="a_node2"><a xlink:href="structVec.html" target="_top" xlink:title=" ">
<polygon fill="white" stroke="#666666" points="888.5,-234 854.5,-234 854.5,-215 888.5,-215 888.5,-234"/>
<text text-anchor="middle" x="871.5" y="-222" font-family="Helvetica,sans-Serif" font-size="10.00">Vec</text>
</a>
</g>
</g>
<!-- Node2&#45;&gt;Node1 -->
<g id="edge1" class="edge">
<title>Node2&#45;&gt;Node1</title>
<path fill="none" stroke="#9a32cd" stroke-dasharray="5,2" d="M899.89,-221.63C931.26,-218.13 984.12,-211.52 1029,-202.5 1034.75,-201.35 1040.82,-199.92 1046.67,-198.44"/>
<polygon fill="#9a32cd" stroke="#9a32cd" points="899.67,-218.14 890.11,-222.7 900.43,-225.1 899.67,-218.14"/>
<text text-anchor="middle" x="984.5" y="-220.5" font-family="Helvetica,sans-Serif" font-size="10.00"> mpPos</text>
</g>
<!-- Node3 -->
<g id="node3" class="node">
<title>Node3</title>
<g id="a_node3"><a xlink:href="classZ2SoundObjAnime.html" target="_top" xlink:title=" ">
<polygon fill="white" stroke="#666666" points="920.5,-197 822.5,-197 822.5,-178 920.5,-178 920.5,-197"/>
<text text-anchor="middle" x="871.5" y="-185" font-family="Helvetica,sans-Serif" font-size="10.00">Z2SoundObjAnime</text>
</a>
</g>
</g>
<!-- Node3&#45;&gt;Node1 -->
<g id="edge2" class="edge">
<title>Node3&#45;&gt;Node1</title>
<path fill="none" stroke="#9a32cd" stroke-dasharray="5,2" d="M932.06,-188.08C969.39,-188.44 1016.05,-188.89 1046.53,-189.19"/>
<polygon fill="#9a32cd" stroke="#9a32cd" points="932.34,-184.58 922.31,-187.98 932.28,-191.58 932.34,-184.58"/>
<text text-anchor="middle" x="984.5" y="-192.5" font-family="Helvetica,sans-Serif" font-size="10.00"> mSoundObjAnime</text>
</g>
<!-- Node4 -->
<g id="node4" class="node">
<title>Node4</title>
<g id="a_node4"><a xlink:href="classZ2SoundObjBase.html" target="_top" xlink:title=" ">
<polygon fill="white" stroke="#666666" points="718,-154 625,-154 625,-135 718,-135 718,-154"/>
<text text-anchor="middle" x="671.5" y="-142" font-family="Helvetica,sans-Serif" font-size="10.00">Z2SoundObjBase</text>
</a>
</g>
</g>
<!-- Node4&#45;&gt;Node3 -->
<g id="edge3" class="edge">
<title>Node4&#45;&gt;Node3</title>
<path fill="none" stroke="#63b8ff" d="M729.63,-156.91C759.74,-163.45 796.2,-171.36 824.48,-177.51"/>
<polygon fill="#63b8ff" stroke="#63b8ff" points="730.42,-153.5 719.9,-154.79 728.93,-160.34 730.42,-153.5"/>
</g>
<!-- Node18 -->
<g id="node18" class="node">
<title>Node18</title>
<g id="a_node18"><a xlink:href="classZ2SoundObjSimple.html" target="_top" xlink:title=" ">
<polygon fill="white" stroke="#666666" points="922,-154 821,-154 821,-135 922,-135 922,-154"/>
<text text-anchor="middle" x="871.5" y="-142" font-family="Helvetica,sans-Serif" font-size="10.00">Z2SoundObjSimple</text>
</a>
</g>
</g>
<!-- Node4&#45;&gt;Node18 -->
<g id="edge22" class="edge">
<title>Node4&#45;&gt;Node18</title>
<path fill="none" stroke="#63b8ff" d="M729.94,-144.5C758.65,-144.5 793.07,-144.5 820.66,-144.5"/>
<polygon fill="#63b8ff" stroke="#63b8ff" points="729.94,-141 719.94,-144.5 729.94,-148 729.94,-141"/>
</g>
<!-- Node5 -->
<g id="node5" class="node">
<title>Node5</title>
<g id="a_node5"><a xlink:href="classZ2SoundHandles.html" target="_top" xlink:title=" ">
<polygon fill="white" stroke="#666666" points="491,-150 399,-150 399,-131 491,-131 491,-150"/>
<text text-anchor="middle" x="445" y="-138" font-family="Helvetica,sans-Serif" font-size="10.00">Z2SoundHandles</text>
</a>
</g>
</g>
<!-- Node5&#45;&gt;Node4 -->
<g id="edge4" class="edge">
<title>Node5&#45;&gt;Node4</title>
<path fill="none" stroke="darkgreen" d="M502.76,-141.51C540.53,-142.18 589.49,-143.06 624.75,-143.68"/>
<polygon fill="darkgreen" stroke="darkgreen" points="503.01,-138.02 492.94,-141.34 502.88,-145.01 503.01,-138.02"/>
</g>
<!-- Node6 -->
<g id="node6" class="node">
<title>Node6</title>
<g id="a_node6"><a xlink:href="classJSUList.html" target="_top" xlink:title=" ">
<polygon fill="white" stroke="#666666" points="293,-144 135,-144 135,-125 293,-125 293,-144"/>
<text text-anchor="middle" x="214" y="-132" font-family="Helvetica,sans-Serif" font-size="10.00">JSUList&lt; Z2SoundHandlePool &gt;</text>
</a>
</g>
</g>
<!-- Node6&#45;&gt;Node5 -->
<g id="edge5" class="edge">
<title>Node6&#45;&gt;Node5</title>
<path fill="none" stroke="darkgreen" d="M304.74,-136.85C336.92,-137.69 371.85,-138.61 398.67,-139.31"/>
<polygon fill="darkgreen" stroke="darkgreen" points="305.09,-133.36 295,-136.6 304.91,-140.36 305.09,-133.36"/>
</g>
<!-- Node7 -->
<g id="node7" class="node">
<title>Node7</title>
<g id="a_node7"><a xlink:href="structJSUPtrList.html" target="_top" xlink:title=" ">
<polygon fill="white" stroke="#666666" points="65,-53 0,-53 0,-34 65,-34 65,-53"/>
<text text-anchor="middle" x="32.5" y="-41" font-family="Helvetica,sans-Serif" font-size="10.00">JSUPtrList</text>
</a>
</g>
</g>
<!-- Node7&#45;&gt;Node6 -->
<g id="edge6" class="edge">
<title>Node7&#45;&gt;Node6</title>
<path fill="none" stroke="#63b8ff" d="M57.78,-59.74C77.94,-72.81 107.63,-91.14 135,-104.5 150.65,-112.14 168.76,-119.21 183.6,-124.56"/>
<polygon fill="#63b8ff" stroke="#63b8ff" points="59.72,-56.82 49.44,-54.27 55.88,-62.68 59.72,-56.82"/>
</g>
<!-- Node8 -->
<g id="node8" class="node">
<title>Node8</title>
<g id="a_node8"><a xlink:href="structJSUPtrLink.html" target="_top" xlink:title=" ">
<polygon fill="white" stroke="#666666" points="248,-19 180,-19 180,0 248,0 248,-19"/>
<text text-anchor="middle" x="214" y="-7" font-family="Helvetica,sans-Serif" font-size="10.00">JSUPtrLink</text>
</a>
</g>
</g>
<!-- Node7&#45;&gt;Node8 -->
<g id="edge8" class="edge">
<title>Node7&#45;&gt;Node8</title>
<path fill="none" stroke="#9a32cd" stroke-dasharray="5,2" d="M55.63,-27.41C63.83,-22.31 73.45,-17.29 83,-14.5 114.87,-5.19 153,-4.92 179.7,-6.38"/>
<polygon fill="#9a32cd" stroke="#9a32cd" points="53.77,-24.44 47.39,-32.89 57.65,-30.26 53.77,-24.44"/>
<text text-anchor="middle" x="100" y="-17.5" font-family="Helvetica,sans-Serif" font-size="10.00"> mList</text>
</g>
<!-- Node8&#45;&gt;Node7 -->
<g id="edge7" class="edge">
<title>Node8&#45;&gt;Node7</title>
<path fill="none" stroke="#9a32cd" stroke-dasharray="5,2" d="M168.21,-17.98C136.15,-24.06 93.77,-32.08 65.18,-37.5"/>
<polygon fill="#9a32cd" stroke="#9a32cd" points="168.85,-21.43 178.02,-16.13 167.54,-14.55 168.85,-21.43"/>
<text text-anchor="middle" x="100" y="-47.5" font-family="Helvetica,sans-Serif" font-size="10.00"> mHead</text>
<text text-anchor="middle" x="100" y="-36.5" font-family="Helvetica,sans-Serif" font-size="10.00">mTail</text>
</g>
<!-- Node8&#45;&gt;Node8 -->
<g id="edge9" class="edge">
<title>Node8&#45;&gt;Node8</title>
<path fill="none" stroke="#9a32cd" stroke-dasharray="5,2" d="M193.77,-30.43C196.3,-34.29 203.04,-37 214,-37 234.04,-37 239.99,-27.94 231.85,-19.37"/>
<polygon fill="#9a32cd" stroke="#9a32cd" points="197.15,-31.36 195.83,-20.85 190.3,-29.88 197.15,-31.36"/>
<text text-anchor="middle" x="214" y="-51" font-family="Helvetica,sans-Serif" font-size="10.00"> mNext</text>
<text text-anchor="middle" x="214" y="-40" font-family="Helvetica,sans-Serif" font-size="10.00">mPrev</text>
</g>
<!-- Node9 -->
<g id="node9" class="node">
<title>Node9</title>
<g id="a_node9"><a xlink:href="structZ2SoundStarter.html" target="_top" xlink:title=" ">
<polygon fill="white" stroke="#666666" points="487.5,-64 402.5,-64 402.5,-45 487.5,-45 487.5,-64"/>
<text text-anchor="middle" x="445" y="-52" font-family="Helvetica,sans-Serif" font-size="10.00">Z2SoundStarter</text>
</a>
</g>
</g>
<!-- Node9&#45;&gt;Node4 -->
<g id="edge10" class="edge">
<title>Node9&#45;&gt;Node4</title>
<path fill="none" stroke="#9a32cd" stroke-dasharray="5,2" d="M496.27,-67.61C502.29,-69.45 508.31,-71.43 514,-73.5 564.74,-91.98 621.97,-119.82 651.14,-134.55"/>
<polygon fill="#9a32cd" stroke="#9a32cd" points="497.55,-64.33 486.97,-64.87 495.58,-71.05 497.55,-64.33"/>
<text text-anchor="middle" x="566" y="-111.5" font-family="Helvetica,sans-Serif" font-size="10.00"> mSoundStarter</text>
</g>
<!-- Node12 -->
<g id="node12" class="node">
<title>Node12</title>
<g id="a_node12"><a xlink:href="classJASGlobalInstance.html" target="_top" xlink:title=" ">
<polygon fill="white" stroke="#666666" points="725,-59.5 618,-59.5 618,-29.5 725,-29.5 725,-59.5"/>
<text text-anchor="start" x="626" y="-47.5" font-family="Helvetica,sans-Serif" font-size="10.00">JASGlobalInstance&lt;</text>
<text text-anchor="middle" x="671.5" y="-36.5" font-family="Helvetica,sans-Serif" font-size="10.00"> Z2SoundStarter &gt;</text>
</a>
</g>
</g>
<!-- Node9&#45;&gt;Node12 -->
<g id="edge15" class="edge">
<title>Node9&#45;&gt;Node12</title>
<path fill="none" stroke="#9a32cd" stroke-dasharray="5,2" d="M499.16,-52.13C534.94,-50.54 581.94,-48.44 617.65,-46.85"/>
<polygon fill="#9a32cd" stroke="#9a32cd" points="499.31,-48.62 489.48,-52.56 499.62,-55.61 499.31,-48.62"/>
<text text-anchor="middle" x="566" y="-53.5" font-family="Helvetica,sans-Serif" font-size="10.00"> sInstance</text>
</g>
<!-- Node10 -->
<g id="node10" class="node">
<title>Node10</title>
<g id="a_node10"><a xlink:href="structJAISoundStarter.html" target="_top" xlink:title=" ">
<polygon fill="white" stroke="#666666" points="258.5,-96 169.5,-96 169.5,-77 258.5,-77 258.5,-96"/>
<text text-anchor="middle" x="214" y="-84" font-family="Helvetica,sans-Serif" font-size="10.00">JAISoundStarter</text>
</a>
</g>
</g>
<!-- Node10&#45;&gt;Node9 -->
<g id="edge11" class="edge">
<title>Node10&#45;&gt;Node9</title>
<path fill="none" stroke="#63b8ff" d="M270.21,-78.79C310.82,-73.11 365.16,-65.52 402.2,-60.34"/>
<polygon fill="#63b8ff" stroke="#63b8ff" points="269.8,-75.31 260.38,-80.16 270.77,-82.24 269.8,-75.31"/>
</g>
<!-- Node11 -->
<g id="node11" class="node">
<title>Node11</title>
<g id="a_node11"><a xlink:href="classJASGlobalInstance.html" target="_top" xlink:title=" ">
<polygon fill="white" stroke="#666666" points="498.5,-112.5 391.5,-112.5 391.5,-82.5 498.5,-82.5 498.5,-112.5"/>
<text text-anchor="start" x="399.5" y="-100.5" font-family="Helvetica,sans-Serif" font-size="10.00">JASGlobalInstance&lt;</text>
<text text-anchor="middle" x="445" y="-89.5" font-family="Helvetica,sans-Serif" font-size="10.00"> JAISoundStarter &gt;</text>
</a>
</g>
</g>
<!-- Node10&#45;&gt;Node11 -->
<g id="edge13" class="edge">
<title>Node10&#45;&gt;Node11</title>
<path fill="none" stroke="#9a32cd" stroke-dasharray="5,2" d="M270.39,-89.45C283.69,-90.14 297.85,-90.86 311,-91.5 337.43,-92.78 366.83,-94.12 391.25,-95.2"/>
<polygon fill="#9a32cd" stroke="#9a32cd" points="270.65,-85.96 260.48,-88.93 270.28,-92.95 270.65,-85.96"/>
<text text-anchor="middle" x="334.5" y="-97.5" font-family="Helvetica,sans-Serif" font-size="10.00"> sInstance</text>
</g>
<!-- Node11&#45;&gt;Node10 -->
<g id="edge12" class="edge">
<title>Node11&#45;&gt;Node10</title>
<path fill="none" stroke="#63b8ff" d="M379.89,-94.42C341.29,-92.57 293.16,-90.25 258.88,-88.61"/>
<polygon fill="#63b8ff" stroke="#63b8ff" points="379.35,-97.9 389.5,-94.88 379.68,-90.91 379.35,-97.9"/>
</g>
<!-- Node12&#45;&gt;Node9 -->
<g id="edge14" class="edge">
<title>Node12&#45;&gt;Node9</title>
<path fill="none" stroke="#63b8ff" d="M606.29,-41.65C604.17,-41.6 602.07,-41.54 600,-41.5 569.78,-40.86 562.14,-39.24 532,-41.5 517.54,-42.59 501.84,-44.69 487.85,-46.89"/>
<polygon fill="#63b8ff" stroke="#63b8ff" points="606.15,-45.15 616.25,-41.96 606.37,-38.15 606.15,-45.15"/>
</g>
<!-- Node13 -->
<g id="node13" class="node">
<title>Node13</title>
<g id="a_node13"><a xlink:href="structJGeometry_1_1TVec3_3_01f32_01_4.html" target="_top" xlink:title=" ">
<polygon fill="white" stroke="#666666" points="508.5,-187 381.5,-187 381.5,-168 508.5,-168 508.5,-187"/>
<text text-anchor="middle" x="445" y="-175" font-family="Helvetica,sans-Serif" font-size="10.00">JGeometry::TVec3&lt; f32 &gt;</text>
</a>
</g>
</g>
<!-- Node13&#45;&gt;Node4 -->
<g id="edge16" class="edge">
<title>Node13&#45;&gt;Node4</title>
<path fill="none" stroke="#9a32cd" stroke-dasharray="5,2" d="M520.34,-167.08C545.63,-163.48 574.06,-159.38 600,-155.5 607.96,-154.31 616.43,-153.02 624.63,-151.75"/>
<polygon fill="#9a32cd" stroke="#9a32cd" points="519.87,-163.61 510.46,-168.48 520.86,-170.54 519.87,-163.61"/>
<text text-anchor="middle" x="566" y="-168.5" font-family="Helvetica,sans-Serif" font-size="10.00"> mSoundPos</text>
</g>
<!-- Node14 -->
<g id="node14" class="node">
<title>Node14</title>
<g id="a_node14"><a xlink:href="classJAUSoundAnimation.html" target="_top" xlink:title=" ">
<polygon fill="white" stroke="#666666" points="725,-224 618,-224 618,-205 725,-205 725,-224"/>
<text text-anchor="middle" x="671.5" y="-212" font-family="Helvetica,sans-Serif" font-size="10.00">JAUSoundAnimation</text>
</a>
</g>
</g>
<!-- Node14&#45;&gt;Node3 -->
<g id="edge17" class="edge">
<title>Node14&#45;&gt;Node3</title>
<path fill="none" stroke="#9a32cd" stroke-dasharray="5,2" d="M736.54,-205.77C764.39,-201.97 796.47,-197.59 822.26,-194.08"/>
<polygon fill="#9a32cd" stroke="#9a32cd" points="736.24,-202.28 726.8,-207.1 737.18,-209.21 736.24,-202.28"/>
<text text-anchor="middle" x="773" y="-207.5" font-family="Helvetica,sans-Serif" font-size="10.00"> mpAnimation</text>
</g>
<!-- Node15 -->
<g id="node15" class="node">
<title>Node15</title>
<g id="a_node15"><a xlink:href="classJAUSoundAnimationControl.html" target="_top" xlink:title=" ">
<polygon fill="white" stroke="#666666" points="514,-224 376,-224 376,-205 514,-205 514,-224"/>
<text text-anchor="middle" x="445" y="-212" font-family="Helvetica,sans-Serif" font-size="10.00">JAUSoundAnimationControl</text>
</a>
</g>
</g>
<!-- Node15&#45;&gt;Node14 -->
<g id="edge18" class="edge">
<title>Node15&#45;&gt;Node14</title>
<path fill="none" stroke="#9a32cd" stroke-dasharray="5,2" d="M525.75,-214.5C556.21,-214.5 590.15,-214.5 617.51,-214.5"/>
<polygon fill="#9a32cd" stroke="#9a32cd" points="525.79,-211 515.79,-214.5 525.79,-218 525.79,-211"/>
<text text-anchor="middle" x="566" y="-217.5" font-family="Helvetica,sans-Serif" font-size="10.00"> mControl</text>
</g>
<!-- Node16 -->
<g id="node16" class="node">
<title>Node16</title>
<g id="a_node16"><a xlink:href="classJAUSoundAnimationSound.html" target="_top" xlink:title=" ">
<polygon fill="white" stroke="#666666" points="512.5,-261 377.5,-261 377.5,-242 512.5,-242 512.5,-261"/>
<text text-anchor="middle" x="445" y="-249" font-family="Helvetica,sans-Serif" font-size="10.00">JAUSoundAnimationSound</text>
</a>
</g>
</g>
<!-- Node16&#45;&gt;Node14 -->
<g id="edge19" class="edge">
<title>Node16&#45;&gt;Node14</title>
<path fill="none" stroke="#9a32cd" stroke-dasharray="5,2" d="M524.12,-239.76C548.45,-235.98 575.36,-231.69 600,-227.5 605.77,-226.52 611.79,-225.46 617.79,-224.39"/>
<polygon fill="#9a32cd" stroke="#9a32cd" points="523.62,-236.29 514.27,-241.28 524.68,-243.21 523.62,-236.29"/>
<text text-anchor="middle" x="566" y="-241.5" font-family="Helvetica,sans-Serif" font-size="10.00"> mSounds</text>
</g>
<!-- Node17 -->
<g id="node17" class="node">
<title>Node17</title>
<g id="a_node17"><a xlink:href="structJAISoundID.html" target="_top" xlink:title=" ">
<polygon fill="white" stroke="#666666" points="248.5,-261 179.5,-261 179.5,-242 248.5,-242 248.5,-261"/>
<text text-anchor="middle" x="214" y="-249" font-family="Helvetica,sans-Serif" font-size="10.00">JAISoundID</text>
</a>
</g>
</g>
<!-- Node17&#45;&gt;Node16 -->
<g id="edge20" class="edge">
<title>Node17&#45;&gt;Node16</title>
<path fill="none" stroke="#9a32cd" stroke-dasharray="5,2" d="M260.06,-251.5C293.51,-251.5 339.67,-251.5 377.37,-251.5"/>
<polygon fill="#9a32cd" stroke="#9a32cd" points="260.3,-248 250.3,-251.5 260.3,-255 260.3,-248"/>
<text text-anchor="middle" x="334.5" y="-254.5" font-family="Helvetica,sans-Serif" font-size="10.00"> mSoundId</text>
</g>
<!-- Node18&#45;&gt;Node1 -->
<g id="edge21" class="edge">
<title>Node18&#45;&gt;Node1</title>
<path fill="none" stroke="#9a32cd" stroke-dasharray="5,2" d="M933.52,-146.08C962.94,-148.21 998.39,-152.8 1029,-162.5 1041.5,-166.46 1054.48,-173.68 1064.01,-179.65"/>
<polygon fill="#9a32cd" stroke="#9a32cd" points="933.87,-142.6 923.66,-145.46 933.42,-149.58 933.87,-142.6"/>
<text text-anchor="middle" x="984.5" y="-176.5" font-family="Helvetica,sans-Serif" font-size="10.00"> mSoundObjSimple1</text>
<text text-anchor="middle" x="984.5" y="-165.5" font-family="Helvetica,sans-Serif" font-size="10.00">mSoundObjSimple2</text>
</g>
</g>
</svg>
