<?xml version="1.0" encoding="UTF-8" standalone="no"?>
<!DOCTYPE svg PUBLIC "-//W3C//DTD SVG 1.1//EN"
 "http://www.w3.org/Graphics/SVG/1.1/DTD/svg11.dtd">
<!-- Generated by graphviz version 7.0.5 (20221223.1930)
 -->
<!-- Title: dBgS_CamGndChk Pages: 1 -->
<svg width="530pt" height="340pt"
 viewBox="0.00 0.00 529.50 340.00" xmlns="http://www.w3.org/2000/svg" xmlns:xlink="http://www.w3.org/1999/xlink">
<g id="graph0" class="graph" transform="scale(1 1) rotate(0) translate(4 336)">
<title>dBgS_CamGndChk</title>
<!-- Node1 -->
<g id="node1" class="node">
<title>Node1</title>
<g id="a_node1"><a xlink:title=" ">
<polygon fill="#999999" stroke="#666666" points="289,-19 188,-19 188,0 289,0 289,-19"/>
<text text-anchor="middle" x="238.5" y="-7" font-family="Helvetica,sans-Serif" font-size="10.00">dBgS_CamGndChk</text>
</a>
</g>
</g>
<!-- Node2 -->
<g id="node2" class="node">
<title>Node2</title>
<g id="a_node2"><a xlink:href="classdBgS__GndChk.html" target="_top" xlink:title=" ">
<polygon fill="white" stroke="#666666" points="279,-75 198,-75 198,-56 279,-56 279,-75"/>
<text text-anchor="middle" x="238.5" y="-63" font-family="Helvetica,sans-Serif" font-size="10.00">dBgS_GndChk</text>
</a>
</g>
</g>
<!-- Node2&#45;&gt;Node1 -->
<g id="edge1" class="edge">
<title>Node2&#45;&gt;Node1</title>
<path fill="none" stroke="#63b8ff" d="M238.5,-44.11C238.5,-35.52 238.5,-25.97 238.5,-19.25"/>
<polygon fill="#63b8ff" stroke="#63b8ff" points="235,-44.07 238.5,-54.07 242,-44.07 235,-44.07"/>
</g>
<!-- Node3 -->
<g id="node3" class="node">
<title>Node3</title>
<g id="a_node3"><a xlink:href="classcBgS__GndChk.html" target="_top" xlink:title=" ">
<polygon fill="white" stroke="#666666" points="352,-131 271,-131 271,-112 352,-112 352,-131"/>
<text text-anchor="middle" x="311.5" y="-119" font-family="Helvetica,sans-Serif" font-size="10.00">cBgS_GndChk</text>
</a>
</g>
</g>
<!-- Node3&#45;&gt;Node2 -->
<g id="edge2" class="edge">
<title>Node3&#45;&gt;Node2</title>
<path fill="none" stroke="#63b8ff" d="M290.26,-104.79C277.25,-95.17 261.1,-83.22 250.33,-75.25"/>
<polygon fill="#63b8ff" stroke="#63b8ff" points="288.11,-107.55 298.23,-110.68 292.27,-101.92 288.11,-107.55"/>
</g>
<!-- Node4 -->
<g id="node4" class="node">
<title>Node4</title>
<g id="a_node4"><a xlink:href="classcBgS__Chk.html" target="_top" xlink:title=" ">
<polygon fill="white" stroke="#666666" points="404,-231.5 341,-231.5 341,-212.5 404,-212.5 404,-231.5"/>
<text text-anchor="middle" x="372.5" y="-219.5" font-family="Helvetica,sans-Serif" font-size="10.00">cBgS_Chk</text>
</a>
</g>
</g>
<!-- Node4&#45;&gt;Node3 -->
<g id="edge3" class="edge">
<title>Node4&#45;&gt;Node3</title>
<path fill="none" stroke="#63b8ff" d="M361.03,-202.48C347.88,-181.25 326.88,-147.33 316.99,-131.36"/>
<polygon fill="#63b8ff" stroke="#63b8ff" points="358.05,-204.31 366.29,-210.97 364,-200.63 358.05,-204.31"/>
</g>
<!-- Node5 -->
<g id="node5" class="node">
<title>Node5</title>
<g id="a_node5"><a xlink:href="classcBgS__PolyPassChk.html" target="_top" xlink:title=" ">
<polygon fill="white" stroke="#666666" points="334.5,-332 230.5,-332 230.5,-313 334.5,-313 334.5,-332"/>
<text text-anchor="middle" x="282.5" y="-320" font-family="Helvetica,sans-Serif" font-size="10.00">cBgS_PolyPassChk</text>
</a>
</g>
</g>
<!-- Node5&#45;&gt;Node4 -->
<g id="edge4" class="edge">
<title>Node5&#45;&gt;Node4</title>
<path fill="none" stroke="#9a32cd" stroke-dasharray="5,2" d="M298.11,-304.42C317.39,-283.31 349.48,-248.2 364.4,-231.86"/>
<polygon fill="#9a32cd" stroke="#9a32cd" points="295.67,-301.9 291.51,-311.64 300.84,-306.62 295.67,-301.9"/>
<text text-anchor="middle" x="349.5" y="-287" font-family="Helvetica,sans-Serif" font-size="10.00"> mPolyPassChk</text>
</g>
<!-- Node11 -->
<g id="node11" class="node">
<title>Node11</title>
<g id="a_node11"><a xlink:href="classdBgS__PolyPassChk.html" target="_top" xlink:title=" ">
<polygon fill="white" stroke="#666666" points="223.5,-231.5 119.5,-231.5 119.5,-212.5 223.5,-212.5 223.5,-231.5"/>
<text text-anchor="middle" x="171.5" y="-219.5" font-family="Helvetica,sans-Serif" font-size="10.00">dBgS_PolyPassChk</text>
</a>
</g>
</g>
<!-- Node5&#45;&gt;Node11 -->
<g id="edge12" class="edge">
<title>Node5&#45;&gt;Node11</title>
<path fill="none" stroke="#63b8ff" d="M264.2,-305.26C240.53,-284.26 200.14,-248.42 181.49,-231.86"/>
<polygon fill="#63b8ff" stroke="#63b8ff" points="261.71,-307.73 271.52,-311.75 266.36,-302.5 261.71,-307.73"/>
</g>
<!-- Node6 -->
<g id="node6" class="node">
<title>Node6</title>
<g id="a_node6"><a xlink:href="classcBgS__GrpPassChk.html" target="_top" xlink:title=" ">
<polygon fill="white" stroke="#666666" points="166,-332 65,-332 65,-313 166,-313 166,-332"/>
<text text-anchor="middle" x="115.5" y="-320" font-family="Helvetica,sans-Serif" font-size="10.00">cBgS_GrpPassChk</text>
</a>
</g>
</g>
<!-- Node6&#45;&gt;Node4 -->
<g id="edge5" class="edge">
<title>Node6&#45;&gt;Node4</title>
<path fill="none" stroke="#9a32cd" stroke-dasharray="5,2" d="M152.53,-309.1C176.8,-301.25 209.32,-291.25 238.5,-284 279.36,-273.85 294.56,-286.19 331.5,-266 346.71,-257.69 359.61,-241.77 366.69,-231.8"/>
<polygon fill="#9a32cd" stroke="#9a32cd" points="151.53,-305.75 143.11,-312.18 153.7,-312.4 151.53,-305.75"/>
<text text-anchor="middle" x="272" y="-287" font-family="Helvetica,sans-Serif" font-size="10.00"> mGrpPassChk</text>
</g>
<!-- Node12 -->
<g id="node12" class="node">
<title>Node12</title>
<g id="a_node12"><a xlink:href="classdBgS__GrpPassChk.html" target="_top" xlink:title=" ">
<polygon fill="white" stroke="#666666" points="101,-231.5 0,-231.5 0,-212.5 101,-212.5 101,-231.5"/>
<text text-anchor="middle" x="50.5" y="-219.5" font-family="Helvetica,sans-Serif" font-size="10.00">dBgS_GrpPassChk</text>
</a>
</g>
</g>
<!-- Node6&#45;&gt;Node12 -->
<g id="edge14" class="edge">
<title>Node6&#45;&gt;Node12</title>
<path fill="none" stroke="#63b8ff" d="M103.47,-303.27C89.47,-282.06 66.94,-247.91 56.35,-231.86"/>
<polygon fill="#63b8ff" stroke="#63b8ff" points="100.47,-305.08 108.9,-311.5 106.31,-301.22 100.47,-305.08"/>
</g>
<!-- Node7 -->
<g id="node7" class="node">
<title>Node7</title>
<g id="a_node7"><a xlink:href="structcBgS__PolyInfo.html" target="_top" xlink:title=" ">
<polygon fill="white" stroke="#666666" points="323,-231.5 242,-231.5 242,-212.5 323,-212.5 323,-231.5"/>
<text text-anchor="middle" x="282.5" y="-219.5" font-family="Helvetica,sans-Serif" font-size="10.00">cBgS_PolyInfo</text>
</a>
</g>
</g>
<!-- Node7&#45;&gt;Node3 -->
<g id="edge6" class="edge">
<title>Node7&#45;&gt;Node3</title>
<path fill="none" stroke="#63b8ff" d="M288.3,-201.29C294.57,-180.01 304.28,-147.04 308.89,-131.36"/>
<polygon fill="#63b8ff" stroke="#63b8ff" points="284.97,-200.23 285.5,-210.81 291.68,-202.2 284.97,-200.23"/>
</g>
<!-- Node8 -->
<g id="node8" class="node">
<title>Node8</title>
<g id="a_node8"><a xlink:href="structcXyz.html" target="_top" xlink:title=" ">
<polygon fill="white" stroke="#666666" points="460.5,-231.5 422.5,-231.5 422.5,-212.5 460.5,-212.5 460.5,-231.5"/>
<text text-anchor="middle" x="441.5" y="-219.5" font-family="Helvetica,sans-Serif" font-size="10.00">cXyz</text>
</a>
</g>
</g>
<!-- Node8&#45;&gt;Node3 -->
<g id="edge7" class="edge">
<title>Node8&#45;&gt;Node3</title>
<path fill="none" stroke="#9a32cd" stroke-dasharray="5,2" d="M431.63,-202.38C426.66,-194.21 420.08,-184.92 412.5,-178 389.3,-156.82 356.57,-140.74 334.72,-131.48"/>
<polygon fill="#9a32cd" stroke="#9a32cd" points="428.46,-203.89 436.44,-210.87 434.56,-200.44 428.46,-203.89"/>
<text text-anchor="middle" x="403.5" y="-152" font-family="Helvetica,sans-Serif" font-size="10.00"> m_pos</text>
</g>
<!-- Node8&#45;&gt;Node8 -->
<g id="edge9" class="edge">
<title>Node8&#45;&gt;Node8</title>
<path fill="none" stroke="#9a32cd" stroke-dasharray="5,2" d="M464.4,-234.66C472.21,-234.74 478.5,-230.52 478.5,-222 478.5,-209.61 465.2,-206.32 453.25,-212.12"/>
<polygon fill="#9a32cd" stroke="#9a32cd" points="465.26,-231.26 454.71,-232.24 463.57,-238.06 465.26,-231.26"/>
<text text-anchor="middle" x="500" y="-258" font-family="Helvetica,sans-Serif" font-size="10.00"> BaseX</text>
<text text-anchor="middle" x="500" y="-247" font-family="Helvetica,sans-Serif" font-size="10.00">BaseXY</text>
<text text-anchor="middle" x="500" y="-236" font-family="Helvetica,sans-Serif" font-size="10.00">BaseXYZ</text>
<text text-anchor="middle" x="500" y="-225" font-family="Helvetica,sans-Serif" font-size="10.00">BaseXZ</text>
<text text-anchor="middle" x="500" y="-214" font-family="Helvetica,sans-Serif" font-size="10.00">BaseY</text>
<text text-anchor="middle" x="500" y="-203" font-family="Helvetica,sans-Serif" font-size="10.00">BaseYZ</text>
<text text-anchor="middle" x="500" y="-192" font-family="Helvetica,sans-Serif" font-size="10.00">BaseZ</text>
<text text-anchor="middle" x="500" y="-181" font-family="Helvetica,sans-Serif" font-size="10.00">Zero</text>
</g>
<!-- Node9 -->
<g id="node9" class="node">
<title>Node9</title>
<g id="a_node9"><a xlink:href="structVec.html" target="_top" xlink:title=" ">
<polygon fill="white" stroke="#666666" points="458.5,-332 424.5,-332 424.5,-313 458.5,-313 458.5,-332"/>
<text text-anchor="middle" x="441.5" y="-320" font-family="Helvetica,sans-Serif" font-size="10.00">Vec</text>
</a>
</g>
</g>
<!-- Node9&#45;&gt;Node8 -->
<g id="edge8" class="edge">
<title>Node9&#45;&gt;Node8</title>
<path fill="none" stroke="#63b8ff" d="M441.5,-301.49C441.5,-280.2 441.5,-247.47 441.5,-231.86"/>
<polygon fill="#63b8ff" stroke="#63b8ff" points="438,-301.25 441.5,-311.25 445,-301.25 438,-301.25"/>
</g>
<!-- Node10 -->
<g id="node10" class="node">
<title>Node10</title>
<g id="a_node10"><a xlink:href="classdBgS__Chk.html" target="_top" xlink:title=" ">
<polygon fill="white" stroke="#666666" points="203,-131 140,-131 140,-112 203,-112 203,-131"/>
<text text-anchor="middle" x="171.5" y="-119" font-family="Helvetica,sans-Serif" font-size="10.00">dBgS_Chk</text>
</a>
</g>
</g>
<!-- Node10&#45;&gt;Node2 -->
<g id="edge10" class="edge">
<title>Node10&#45;&gt;Node2</title>
<path fill="none" stroke="#63b8ff" d="M191.35,-104.5C203.22,-94.93 217.86,-83.14 227.64,-75.25"/>
<polygon fill="#63b8ff" stroke="#63b8ff" points="189.33,-101.63 183.74,-110.63 193.72,-107.08 189.33,-101.63"/>
</g>
<!-- Node11&#45;&gt;Node10 -->
<g id="edge11" class="edge">
<title>Node11&#45;&gt;Node10</title>
<path fill="none" stroke="#63b8ff" d="M171.5,-200.99C171.5,-179.7 171.5,-146.97 171.5,-131.36"/>
<polygon fill="#63b8ff" stroke="#63b8ff" points="168,-200.75 171.5,-210.75 175,-200.75 168,-200.75"/>
</g>
<!-- Node12&#45;&gt;Node10 -->
<g id="edge13" class="edge">
<title>Node12&#45;&gt;Node10</title>
<path fill="none" stroke="#63b8ff" d="M70.11,-205.04C95.86,-184.08 140.19,-147.99 160.61,-131.36"/>
<polygon fill="#63b8ff" stroke="#63b8ff" points="67.96,-202.28 62.41,-211.3 72.38,-207.7 67.96,-202.28"/>
</g>
</g>
</svg>
