<?xml version="1.0" encoding="UTF-8" standalone="no"?>
<!DOCTYPE svg PUBLIC "-//W3C//DTD SVG 1.1//EN"
 "http://www.w3.org/Graphics/SVG/1.1/DTD/svg11.dtd">
<!-- Generated by graphviz version 7.0.5 (20221223.1930)
 -->
<!-- Title: mDoExt_blkAnm Pages: 1 -->
<svg width="208pt" height="159pt"
 viewBox="0.00 0.00 208.00 159.00" xmlns="http://www.w3.org/2000/svg" xmlns:xlink="http://www.w3.org/1999/xlink">
<g id="graph0" class="graph" transform="scale(1 1) rotate(0) translate(4 155)">
<title>mDoExt_blkAnm</title>
<!-- Node1 -->
<g id="node1" class="node">
<title>Node1</title>
<g id="a_node1"><a xlink:title=" ">
<polygon fill="#999999" stroke="#666666" points="147,-19 58,-19 58,0 147,0 147,-19"/>
<text text-anchor="middle" x="102.5" y="-7" font-family="Helvetica,sans-Serif" font-size="10.00">mDoExt_blkAnm</text>
</a>
</g>
</g>
<!-- Node2 -->
<g id="node2" class="node">
<title>Node2</title>
<g id="a_node2"><a xlink:href="classmDoExt__baseAnm.html" target="_top" xlink:title=" ">
<polygon fill="white" stroke="#666666" points="97,-85 0,-85 0,-66 97,-66 97,-85"/>
<text text-anchor="middle" x="48.5" y="-73" font-family="Helvetica,sans-Serif" font-size="10.00">mDoExt_baseAnm</text>
</a>
</g>
</g>
<!-- Node2&#45;&gt;Node1 -->
<g id="edge1" class="edge">
<title>Node2&#45;&gt;Node1</title>
<path fill="none" stroke="#63b8ff" d="M63.17,-57.12C73.48,-44.89 86.86,-29.04 95.06,-19.32"/>
<polygon fill="#63b8ff" stroke="#63b8ff" points="60.76,-54.54 56.98,-64.44 66.11,-59.06 60.76,-54.54"/>
</g>
<!-- Node3 -->
<g id="node3" class="node">
<title>Node3</title>
<g id="a_node3"><a xlink:href="classJ3DFrameCtrl.html" target="_top" xlink:title=" ">
<polygon fill="white" stroke="#666666" points="87,-151 10,-151 10,-132 87,-132 87,-151"/>
<text text-anchor="middle" x="48.5" y="-139" font-family="Helvetica,sans-Serif" font-size="10.00">J3DFrameCtrl</text>
</a>
</g>
</g>
<!-- Node3&#45;&gt;Node2 -->
<g id="edge2" class="edge">
<title>Node3&#45;&gt;Node2</title>
<path fill="none" stroke="#9a32cd" stroke-dasharray="5,2" d="M48.5,-120.18C48.5,-108.44 48.5,-94.27 48.5,-85.32"/>
<polygon fill="#9a32cd" stroke="#9a32cd" points="45,-120.09 48.5,-130.09 52,-120.09 45,-120.09"/>
<text text-anchor="middle" x="75.5" y="-106" font-family="Helvetica,sans-Serif" font-size="10.00"> mFrameCtrl</text>
</g>
<!-- Node4 -->
<g id="node4" class="node">
<title>Node4</title>
<g id="a_node4"><a xlink:href="structJ3DAnmCluster.html" target="_top" xlink:title=" ">
<polygon fill="white" stroke="#666666" points="200,-85 115,-85 115,-66 200,-66 200,-85"/>
<text text-anchor="middle" x="157.5" y="-73" font-family="Helvetica,sans-Serif" font-size="10.00">J3DAnmCluster</text>
</a>
</g>
</g>
<!-- Node4&#45;&gt;Node1 -->
<g id="edge3" class="edge">
<title>Node4&#45;&gt;Node1</title>
<path fill="none" stroke="#9a32cd" stroke-dasharray="5,2" d="M142.56,-57.12C132.05,-44.89 118.43,-29.04 110.08,-19.32"/>
<polygon fill="#9a32cd" stroke="#9a32cd" points="139.69,-59.15 148.87,-64.45 145,-54.59 139.69,-59.15"/>
<text text-anchor="middle" x="151" y="-40" font-family="Helvetica,sans-Serif" font-size="10.00"> mpAnm</text>
</g>
<!-- Node5 -->
<g id="node5" class="node">
<title>Node5</title>
<g id="a_node5"><a xlink:href="classJ3DAnmBase.html" target="_top" xlink:title=" ">
<polygon fill="white" stroke="#666666" points="196,-151 119,-151 119,-132 196,-132 196,-151"/>
<text text-anchor="middle" x="157.5" y="-139" font-family="Helvetica,sans-Serif" font-size="10.00">J3DAnmBase</text>
</a>
</g>
</g>
<!-- Node5&#45;&gt;Node4 -->
<g id="edge4" class="edge">
<title>Node5&#45;&gt;Node4</title>
<path fill="none" stroke="#63b8ff" d="M157.5,-120.18C157.5,-108.44 157.5,-94.27 157.5,-85.32"/>
<polygon fill="#63b8ff" stroke="#63b8ff" points="154,-120.09 157.5,-130.09 161,-120.09 154,-120.09"/>
</g>
</g>
</svg>
