<?xml version="1.0" encoding="UTF-8" standalone="no"?>
<!DOCTYPE svg PUBLIC "-//W3C//DTD SVG 1.1//EN"
 "http://www.w3.org/Graphics/SVG/1.1/DTD/svg11.dtd">
<!-- Generated by graphviz version 7.0.5 (20221223.1930)
 -->
<!-- Title: daAlinkHIO_cutDown_c0 Pages: 1 -->
<svg width="136pt" height="203pt"
 viewBox="0.00 0.00 136.00 203.00" xmlns="http://www.w3.org/2000/svg" xmlns:xlink="http://www.w3.org/1999/xlink">
<g id="graph0" class="graph" transform="scale(1 1) rotate(0) translate(4 199)">
<title>daAlinkHIO_cutDown_c0</title>
<!-- Node1 -->
<g id="node1" class="node">
<title>Node1</title>
<g id="a_node1"><a xlink:title=" ">
<polygon fill="#999999" stroke="#666666" points="126,-19 0,-19 0,0 126,0 126,-19"/>
<text text-anchor="middle" x="63" y="-7" font-family="Helvetica,sans-Serif" font-size="10.00">daAlinkHIO_cutDown_c0</text>
</a>
</g>
</g>
<!-- Node2 -->
<g id="node2" class="node">
<title>Node2</title>
<g id="a_node2"><a xlink:href="classdaAlinkHIO__cutDown__c1.html" target="_top" xlink:title=" ">
<polygon fill="white" stroke="#666666" points="126,-85 0,-85 0,-66 126,-66 126,-85"/>
<text text-anchor="middle" x="63" y="-73" font-family="Helvetica,sans-Serif" font-size="10.00">daAlinkHIO_cutDown_c1</text>
</a>
</g>
</g>
<!-- Node2&#45;&gt;Node1 -->
<g id="edge1" class="edge">
<title>Node2&#45;&gt;Node1</title>
<path fill="none" stroke="#9a32cd" stroke-dasharray="5,2" d="M63,-54.18C63,-42.44 63,-28.27 63,-19.32"/>
<polygon fill="#9a32cd" stroke="#9a32cd" points="59.5,-54.09 63,-64.09 66.5,-54.09 59.5,-54.09"/>
<text text-anchor="middle" x="68.5" y="-40" font-family="Helvetica,sans-Serif" font-size="10.00"> m</text>
</g>
<!-- Node3 -->
<g id="node3" class="node">
<title>Node3</title>
<g id="a_node3"><a xlink:href="structdaAlinkHIO__anm__c.html" target="_top" xlink:title=" ">
<polygon fill="white" stroke="#666666" points="113.5,-195 12.5,-195 12.5,-176 113.5,-176 113.5,-195"/>
<text text-anchor="middle" x="63" y="-183" font-family="Helvetica,sans-Serif" font-size="10.00">daAlinkHIO_anm_c</text>
</a>
</g>
</g>
<!-- Node3&#45;&gt;Node2 -->
<g id="edge2" class="edge">
<title>Node3&#45;&gt;Node2</title>
<path fill="none" stroke="#9a32cd" stroke-dasharray="5,2" d="M63,-164.24C63,-140.63 63,-102.65 63,-85.46"/>
<polygon fill="#9a32cd" stroke="#9a32cd" points="59.5,-164.15 63,-174.15 66.5,-164.15 59.5,-164.15"/>
<text text-anchor="middle" x="95.5" y="-150" font-family="Helvetica,sans-Serif" font-size="10.00"> mFallAnm</text>
<text text-anchor="middle" x="95.5" y="-139" font-family="Helvetica,sans-Serif" font-size="10.00">mJumpAnm</text>
<text text-anchor="middle" x="95.5" y="-128" font-family="Helvetica,sans-Serif" font-size="10.00">mLandAnm</text>
<text text-anchor="middle" x="95.5" y="-117" font-family="Helvetica,sans-Serif" font-size="10.00">mMissAnm</text>
<text text-anchor="middle" x="95.5" y="-106" font-family="Helvetica,sans-Serif" font-size="10.00">mRecoverAnm</text>
</g>
</g>
</svg>
