<?xml version="1.0" encoding="UTF-8" standalone="no"?>
<!DOCTYPE svg PUBLIC "-//W3C//DTD SVG 1.1//EN"
 "http://www.w3.org/Graphics/SVG/1.1/DTD/svg11.dtd">
<!-- Generated by graphviz version 7.0.5 (20221223.1930)
 -->
<!-- Title: daAlinkHIO_roofHang_c0 Pages: 1 -->
<svg width="136pt" height="159pt"
 viewBox="0.00 0.00 136.00 159.00" xmlns="http://www.w3.org/2000/svg" xmlns:xlink="http://www.w3.org/1999/xlink">
<g id="graph0" class="graph" transform="scale(1 1) rotate(0) translate(4 155)">
<title>daAlinkHIO_roofHang_c0</title>
<!-- Node1 -->
<g id="node1" class="node">
<title>Node1</title>
<g id="a_node1"><a xlink:title=" ">
<polygon fill="#999999" stroke="#666666" points="128,-19 0,-19 0,0 128,0 128,-19"/>
<text text-anchor="middle" x="64" y="-7" font-family="Helvetica,sans-Serif" font-size="10.00">daAlinkHIO_roofHang_c0</text>
</a>
</g>
</g>
<!-- Node2 -->
<g id="node2" class="node">
<title>Node2</title>
<g id="a_node2"><a xlink:href="classdaAlinkHIO__roofHang__c1.html" target="_top" xlink:title=" ">
<polygon fill="white" stroke="#666666" points="128,-85 0,-85 0,-66 128,-66 128,-85"/>
<text text-anchor="middle" x="64" y="-73" font-family="Helvetica,sans-Serif" font-size="10.00">daAlinkHIO_roofHang_c1</text>
</a>
</g>
</g>
<!-- Node2&#45;&gt;Node1 -->
<g id="edge1" class="edge">
<title>Node2&#45;&gt;Node1</title>
<path fill="none" stroke="#9a32cd" stroke-dasharray="5,2" d="M64,-54.18C64,-42.44 64,-28.27 64,-19.32"/>
<polygon fill="#9a32cd" stroke="#9a32cd" points="60.5,-54.09 64,-64.09 67.5,-54.09 60.5,-54.09"/>
<text text-anchor="middle" x="69.5" y="-40" font-family="Helvetica,sans-Serif" font-size="10.00"> m</text>
</g>
<!-- Node3 -->
<g id="node3" class="node">
<title>Node3</title>
<g id="a_node3"><a xlink:href="structdaAlinkHIO__anm__c.html" target="_top" xlink:title=" ">
<polygon fill="white" stroke="#666666" points="114.5,-151 13.5,-151 13.5,-132 114.5,-132 114.5,-151"/>
<text text-anchor="middle" x="64" y="-139" font-family="Helvetica,sans-Serif" font-size="10.00">daAlinkHIO_anm_c</text>
</a>
</g>
</g>
<!-- Node3&#45;&gt;Node2 -->
<g id="edge2" class="edge">
<title>Node3&#45;&gt;Node2</title>
<path fill="none" stroke="#9a32cd" stroke-dasharray="5,2" d="M64,-120.18C64,-108.44 64,-94.27 64,-85.32"/>
<polygon fill="#9a32cd" stroke="#9a32cd" points="60.5,-120.09 64,-130.09 67.5,-120.09 60.5,-120.09"/>
<text text-anchor="middle" x="84" y="-106" font-family="Helvetica,sans-Serif" font-size="10.00"> field_0x0</text>
</g>
</g>
</svg>
