<?xml version="1.0" encoding="UTF-8" standalone="no"?>
<!DOCTYPE svg PUBLIC "-//W3C//DTD SVG 1.1//EN"
 "http://www.w3.org/Graphics/SVG/1.1/DTD/svg11.dtd">
<!-- Generated by graphviz version 7.0.5 (20221223.1930)
 -->
<!-- Title: mDoExt_3DlineMatSortPacket Pages: 1 -->
<svg width="343pt" height="96pt"
 viewBox="0.00 0.00 342.50 96.00" xmlns="http://www.w3.org/2000/svg" xmlns:xlink="http://www.w3.org/1999/xlink">
<g id="graph0" class="graph" transform="scale(1 1) rotate(0) translate(4 92)">
<title>mDoExt_3DlineMatSortPacket</title>
<!-- Node1 -->
<g id="node1" class="node">
<title>Node1</title>
<g id="a_node1"><a xlink:title=" ">
<polygon fill="#999999" stroke="#666666" points="200.5,-19 52.5,-19 52.5,0 200.5,0 200.5,-19"/>
<text text-anchor="middle" x="126.5" y="-7" font-family="Helvetica,sans-Serif" font-size="10.00">mDoExt_3DlineMatSortPacket</text>
</a>
</g>
</g>
<!-- Node2 -->
<g id="node2" class="node">
<title>Node2</title>
<g id="a_node2"><a xlink:href="classJ3DPacket.html" target="_top" xlink:title=" ">
<polygon fill="white" stroke="#666666" points="65,-86.5 0,-86.5 0,-67.5 65,-67.5 65,-86.5"/>
<text text-anchor="middle" x="32.5" y="-74.5" font-family="Helvetica,sans-Serif" font-size="10.00">J3DPacket</text>
</a>
</g>
</g>
<!-- Node2&#45;&gt;Node1 -->
<g id="edge1" class="edge">
<title>Node2&#45;&gt;Node1</title>
<path fill="none" stroke="#63b8ff" d="M54.55,-60.64C72.95,-47.81 98.54,-29.98 113.72,-19.4"/>
<polygon fill="#63b8ff" stroke="#63b8ff" points="52.62,-57.71 46.42,-66.3 56.62,-63.46 52.62,-57.71"/>
</g>
<!-- Node2&#45;&gt;Node2 -->
<g id="edge2" class="edge">
<title>Node2&#45;&gt;Node2</title>
<path fill="none" stroke="#9a32cd" stroke-dasharray="5,2" d="M76.19,-82.22C80.36,-81.15 83,-79.42 83,-77 83,-72.82 75.1,-70.67 65.04,-70.54"/>
<polygon fill="#9a32cd" stroke="#9a32cd" points="76.1,-78.71 66.55,-83.29 76.87,-85.66 76.1,-78.71"/>
<text text-anchor="middle" x="115.5" y="-80" font-family="Helvetica,sans-Serif" font-size="10.00"> mpFirstChild</text>
<text text-anchor="middle" x="115.5" y="-69" font-family="Helvetica,sans-Serif" font-size="10.00">mpNextPacket</text>
</g>
<!-- Node3 -->
<g id="node3" class="node">
<title>Node3</title>
<g id="a_node3"><a xlink:href="classmDoExt__3DlineMat__c.html" target="_top" xlink:title=" ">
<polygon fill="white" stroke="#666666" points="276.5,-86.5 166.5,-86.5 166.5,-67.5 276.5,-67.5 276.5,-86.5"/>
<text text-anchor="middle" x="221.5" y="-74.5" font-family="Helvetica,sans-Serif" font-size="10.00">mDoExt_3DlineMat_c</text>
</a>
</g>
</g>
<!-- Node3&#45;&gt;Node1 -->
<g id="edge3" class="edge">
<title>Node3&#45;&gt;Node1</title>
<path fill="none" stroke="#9a32cd" stroke-dasharray="5,2" d="M199.22,-60.64C180.62,-47.81 154.76,-29.98 139.41,-19.4"/>
<polygon fill="#9a32cd" stroke="#9a32cd" points="197.22,-63.51 207.44,-66.31 201.2,-57.75 197.22,-63.51"/>
<text text-anchor="middle" x="209.5" y="-40" font-family="Helvetica,sans-Serif" font-size="10.00"> mp3DlineMat</text>
</g>
<!-- Node3&#45;&gt;Node3 -->
<g id="edge4" class="edge">
<title>Node3&#45;&gt;Node3</title>
<path fill="none" stroke="#9a32cd" stroke-dasharray="5,2" d="M288.02,-81.49C292.07,-80.43 294.5,-78.93 294.5,-77 294.5,-73.66 287.22,-71.62 276.89,-70.86"/>
<polygon fill="#9a32cd" stroke="#9a32cd" points="287.77,-77.99 278.38,-82.92 288.79,-84.92 287.77,-77.99"/>
<text text-anchor="middle" x="314.5" y="-74.5" font-family="Helvetica,sans-Serif" font-size="10.00"> field_0x4</text>
</g>
</g>
</svg>
