<?xml version="1.0" encoding="UTF-8" standalone="no"?>
<!DOCTYPE svg PUBLIC "-//W3C//DTD SVG 1.1//EN"
 "http://www.w3.org/Graphics/SVG/1.1/DTD/svg11.dtd">
<!-- Generated by graphviz version 7.0.5 (20221223.1930)
 -->
<!-- Title: ShdwDrawPoly_c Pages: 1 -->
<svg width="357pt" height="372pt"
 viewBox="0.00 0.00 356.50 372.00" xmlns="http://www.w3.org/2000/svg" xmlns:xlink="http://www.w3.org/1999/xlink">
<g id="graph0" class="graph" transform="scale(1 1) rotate(0) translate(4 368)">
<title>ShdwDrawPoly_c</title>
<!-- Node1 -->
<g id="node1" class="node">
<title>Node1</title>
<g id="a_node1"><a xlink:title=" ">
<polygon fill="#999999" stroke="#666666" points="140.5,-19 47.5,-19 47.5,0 140.5,0 140.5,-19"/>
<text text-anchor="middle" x="94" y="-7" font-family="Helvetica,sans-Serif" font-size="10.00">ShdwDrawPoly_c</text>
</a>
</g>
</g>
<!-- Node2 -->
<g id="node2" class="node">
<title>Node2</title>
<g id="a_node2"><a xlink:href="classcBgS__ShdwDraw.html" target="_top" xlink:title=" ">
<polygon fill="white" stroke="#666666" points="140.5,-85 47.5,-85 47.5,-66 140.5,-66 140.5,-85"/>
<text text-anchor="middle" x="94" y="-73" font-family="Helvetica,sans-Serif" font-size="10.00">cBgS_ShdwDraw</text>
</a>
</g>
</g>
<!-- Node2&#45;&gt;Node1 -->
<g id="edge1" class="edge">
<title>Node2&#45;&gt;Node1</title>
<path fill="none" stroke="#63b8ff" d="M94,-54.18C94,-42.44 94,-28.27 94,-19.32"/>
<polygon fill="#63b8ff" stroke="#63b8ff" points="90.5,-54.09 94,-64.09 97.5,-54.09 90.5,-54.09"/>
</g>
<!-- Node2&#45;&gt;Node2 -->
<g id="edge9" class="edge">
<title>Node2&#45;&gt;Node2</title>
<path fill="none" stroke="#9a32cd" stroke-dasharray="5,2" d="M152.32,-79.92C156.17,-78.9 158.5,-77.42 158.5,-75.5 158.5,-72.08 151.13,-70.08 140.96,-69.5"/>
<polygon fill="#9a32cd" stroke="#9a32cd" points="151.88,-76.45 142.46,-81.3 152.85,-83.38 151.88,-76.45"/>
<text text-anchor="middle" x="191" y="-73" font-family="Helvetica,sans-Serif" font-size="10.00"> mCallbackFun</text>
</g>
<!-- Node3 -->
<g id="node3" class="node">
<title>Node3</title>
<g id="a_node3"><a xlink:href="classcBgS__Chk.html" target="_top" xlink:title=" ">
<polygon fill="white" stroke="#666666" points="200.5,-162 137.5,-162 137.5,-143 200.5,-143 200.5,-162"/>
<text text-anchor="middle" x="169" y="-150" font-family="Helvetica,sans-Serif" font-size="10.00">cBgS_Chk</text>
</a>
</g>
</g>
<!-- Node3&#45;&gt;Node2 -->
<g id="edge2" class="edge">
<title>Node3&#45;&gt;Node2</title>
<path fill="none" stroke="#63b8ff" d="M164.85,-131.58C162.01,-122 157.38,-110.9 150,-103 142.73,-95.22 132.71,-89.49 123.15,-85.39"/>
<polygon fill="#63b8ff" stroke="#63b8ff" points="161.4,-132.22 167.2,-141.09 168.2,-130.54 161.4,-132.22"/>
</g>
<!-- Node4 -->
<g id="node4" class="node">
<title>Node4</title>
<g id="a_node4"><a xlink:href="classcBgS__PolyPassChk.html" target="_top" xlink:title=" ">
<polygon fill="white" stroke="#666666" points="221,-273.5 117,-273.5 117,-254.5 221,-254.5 221,-273.5"/>
<text text-anchor="middle" x="169" y="-261.5" font-family="Helvetica,sans-Serif" font-size="10.00">cBgS_PolyPassChk</text>
</a>
</g>
</g>
<!-- Node4&#45;&gt;Node3 -->
<g id="edge3" class="edge">
<title>Node4&#45;&gt;Node3</title>
<path fill="none" stroke="#9a32cd" stroke-dasharray="5,2" d="M169,-242.73C169,-218.67 169,-179.62 169,-162.28"/>
<polygon fill="#9a32cd" stroke="#9a32cd" points="165.5,-242.53 169,-252.53 172.5,-242.53 165.5,-242.53"/>
<text text-anchor="middle" x="204" y="-188.5" font-family="Helvetica,sans-Serif" font-size="10.00"> mPolyPassChk</text>
</g>
<!-- Node5 -->
<g id="node5" class="node">
<title>Node5</title>
<g id="a_node5"><a xlink:href="classcBgS__GrpPassChk.html" target="_top" xlink:title=" ">
<polygon fill="white" stroke="#666666" points="340.5,-273.5 239.5,-273.5 239.5,-254.5 340.5,-254.5 340.5,-273.5"/>
<text text-anchor="middle" x="290" y="-261.5" font-family="Helvetica,sans-Serif" font-size="10.00">cBgS_GrpPassChk</text>
</a>
</g>
</g>
<!-- Node5&#45;&gt;Node3 -->
<g id="edge4" class="edge">
<title>Node5&#45;&gt;Node3</title>
<path fill="none" stroke="#9a32cd" stroke-dasharray="5,2" d="M283.45,-243.34C276.28,-224.63 263.06,-196.88 243,-180 230.99,-169.89 214.84,-163.52 200.69,-159.56"/>
<polygon fill="#9a32cd" stroke="#9a32cd" points="280.14,-244.47 286.8,-252.71 286.73,-242.11 280.14,-244.47"/>
<text text-anchor="middle" x="294.5" y="-188.5" font-family="Helvetica,sans-Serif" font-size="10.00"> mGrpPassChk</text>
</g>
<!-- Node6 -->
<g id="node6" class="node">
<title>Node6</title>
<g id="a_node6"><a xlink:href="classcM3dGAab.html" target="_top" xlink:title=" ">
<polygon fill="white" stroke="#666666" points="116.5,-162 51.5,-162 51.5,-143 116.5,-143 116.5,-162"/>
<text text-anchor="middle" x="84" y="-150" font-family="Helvetica,sans-Serif" font-size="10.00">cM3dGAab</text>
</a>
</g>
</g>
<!-- Node6&#45;&gt;Node2 -->
<g id="edge5" class="edge">
<title>Node6&#45;&gt;Node2</title>
<path fill="none" stroke="#9a32cd" stroke-dasharray="5,2" d="M86.68,-131.42C88.68,-116.43 91.31,-96.66 92.82,-85.39"/>
<polygon fill="#9a32cd" stroke="#9a32cd" points="83.24,-130.73 85.39,-141.1 90.18,-131.65 83.24,-130.73"/>
<text text-anchor="middle" x="118.5" y="-111.5" font-family="Helvetica,sans-Serif" font-size="10.00"> mM3dGAab</text>
</g>
<!-- Node7 -->
<g id="node7" class="node">
<title>Node7</title>
<g id="a_node7"><a xlink:href="structcXyz.html" target="_top" xlink:title=" ">
<polygon fill="white" stroke="#666666" points="38,-273.5 0,-273.5 0,-254.5 38,-254.5 38,-273.5"/>
<text text-anchor="middle" x="19" y="-261.5" font-family="Helvetica,sans-Serif" font-size="10.00">cXyz</text>
</a>
</g>
</g>
<!-- Node7&#45;&gt;Node1 -->
<g id="edge10" class="edge">
<title>Node7&#45;&gt;Node1</title>
<path fill="none" stroke="#9a32cd" stroke-dasharray="5,2" d="M16.64,-243.07C13.15,-206.13 9.8,-125.43 38,-66 47.51,-45.97 67.41,-29.06 80.74,-19.35"/>
<polygon fill="#9a32cd" stroke="#9a32cd" points="13.12,-243.12 17.66,-252.69 20.08,-242.38 13.12,-243.12"/>
<text text-anchor="middle" x="49" y="-117" font-family="Helvetica,sans-Serif" font-size="10.00"> mCenter</text>
<text text-anchor="middle" x="49" y="-106" font-family="Helvetica,sans-Serif" font-size="10.00">mLightVec</text>
</g>
<!-- Node7&#45;&gt;Node6 -->
<g id="edge6" class="edge">
<title>Node7&#45;&gt;Node6</title>
<path fill="none" stroke="#9a32cd" stroke-dasharray="5,2" d="M30.06,-244.37C44.24,-220.48 68.26,-180.02 78.79,-162.28"/>
<polygon fill="#9a32cd" stroke="#9a32cd" points="27.19,-242.35 25.09,-252.74 33.21,-245.93 27.19,-242.35"/>
<text text-anchor="middle" x="81.5" y="-194" font-family="Helvetica,sans-Serif" font-size="10.00"> mMax</text>
<text text-anchor="middle" x="81.5" y="-183" font-family="Helvetica,sans-Serif" font-size="10.00">mMin</text>
</g>
<!-- Node7&#45;&gt;Node7 -->
<g id="edge8" class="edge">
<title>Node7&#45;&gt;Node7</title>
<path fill="none" stroke="#9a32cd" stroke-dasharray="5,2" d="M43.62,-275.67C50.62,-275.19 56,-271.3 56,-264 56,-253.14 44.07,-249.83 32.66,-254.07"/>
<polygon fill="#9a32cd" stroke="#9a32cd" points="44.58,-272.28 34.16,-274.17 43.49,-279.19 44.58,-272.28"/>
<text text-anchor="middle" x="77.5" y="-300" font-family="Helvetica,sans-Serif" font-size="10.00"> BaseX</text>
<text text-anchor="middle" x="77.5" y="-289" font-family="Helvetica,sans-Serif" font-size="10.00">BaseXY</text>
<text text-anchor="middle" x="77.5" y="-278" font-family="Helvetica,sans-Serif" font-size="10.00">BaseXYZ</text>
<text text-anchor="middle" x="77.5" y="-267" font-family="Helvetica,sans-Serif" font-size="10.00">BaseXZ</text>
<text text-anchor="middle" x="77.5" y="-256" font-family="Helvetica,sans-Serif" font-size="10.00">BaseY</text>
<text text-anchor="middle" x="77.5" y="-245" font-family="Helvetica,sans-Serif" font-size="10.00">BaseYZ</text>
<text text-anchor="middle" x="77.5" y="-234" font-family="Helvetica,sans-Serif" font-size="10.00">BaseZ</text>
<text text-anchor="middle" x="77.5" y="-223" font-family="Helvetica,sans-Serif" font-size="10.00">Zero</text>
</g>
<!-- Node8 -->
<g id="node8" class="node">
<title>Node8</title>
<g id="a_node8"><a xlink:href="structVec.html" target="_top" xlink:title=" ">
<polygon fill="white" stroke="#666666" points="36,-364 2,-364 2,-345 36,-345 36,-364"/>
<text text-anchor="middle" x="19" y="-352" font-family="Helvetica,sans-Serif" font-size="10.00">Vec</text>
</a>
</g>
</g>
<!-- Node8&#45;&gt;Node7 -->
<g id="edge7" class="edge">
<title>Node8&#45;&gt;Node7</title>
<path fill="none" stroke="#63b8ff" d="M19,-333.3C19,-314.55 19,-287.53 19,-273.77"/>
<polygon fill="#63b8ff" stroke="#63b8ff" points="15.5,-333.18 19,-343.18 22.5,-333.18 15.5,-333.18"/>
</g>
<!-- Node9 -->
<g id="node9" class="node">
<title>Node9</title>
<g id="a_node9"><a xlink:href="classdDlst__shadowPoly__c.html" target="_top" xlink:title=" ">
<polygon fill="white" stroke="#666666" points="348.5,-85 241.5,-85 241.5,-66 348.5,-66 348.5,-85"/>
<text text-anchor="middle" x="295" y="-73" font-family="Helvetica,sans-Serif" font-size="10.00">dDlst_shadowPoly_c</text>
</a>
</g>
</g>
<!-- Node9&#45;&gt;Node1 -->
<g id="edge11" class="edge">
<title>Node9&#45;&gt;Node1</title>
<path fill="none" stroke="#9a32cd" stroke-dasharray="5,2" d="M256.3,-62.18C216.97,-49.65 157,-30.56 122.03,-19.43"/>
<polygon fill="#9a32cd" stroke="#9a32cd" points="255.02,-65.44 265.61,-65.14 257.14,-58.77 255.02,-65.44"/>
<text text-anchor="middle" x="222" y="-40" font-family="Helvetica,sans-Serif" font-size="10.00"> mPoly</text>
</g>
</g>
</svg>
