<?xml version="1.0" encoding="UTF-8" standalone="no"?>
<!DOCTYPE svg PUBLIC "-//W3C//DTD SVG 1.1//EN"
 "http://www.w3.org/Graphics/SVG/1.1/DTD/svg11.dtd">
<!-- Generated by graphviz version 7.0.5 (20221223.1930)
 -->
<!-- Title: scene_request_class Pages: 1 -->
<!--zoomable 620 -->
<svg id="main" version="1.1" xmlns="http://www.w3.org/2000/svg" xmlns:xlink="http://www.w3.org/1999/xlink" xml:space="preserve" onload="init(evt)">
<style type="text/css"><![CDATA[
.edge:hover path { stroke: red; }
.edge:hover polygon { stroke: red; fill: red; }
]]></style>
<script type="text/javascript"><![CDATA[
var edges = document.getElementsByTagName('g');
if (edges && edges.length) {
  for (var i=0;i<edges.length;i++) {
    if (edges[i].id.substr(0,4)=='edge') {
      edges[i].setAttribute('class','edge');
    }
  }
}
]]></script>
        <defs>
                <circle id="rim" cx="0" cy="0" r="7"/>
                <circle id="rim2" cx="0" cy="0" r="3.5"/>
                <g id="zoomPlus">
                        <use xlink:href="#rim" fill="#404040">
                                <set attributeName="fill" to="#808080" begin="zoomplus.mouseover" end="zoomplus.mouseout"/>
                        </use>
                        <path d="M-4,0h8M0,-4v8" fill="none" stroke="white" stroke-width="1.5" pointer-events="none"/>
                </g>
                <g id="zoomMin">
                        <use xlink:href="#rim" fill="#404040">
                                <set attributeName="fill" to="#808080" begin="zoomminus.mouseover" end="zoomminus.mouseout"/>
                        </use>
                        <path d="M-4,0h8" fill="none" stroke="white" stroke-width="1.5" pointer-events="none"/>
                </g>
                <g id="dirArrow">
                        <path fill="none" stroke="white" stroke-width="1.5" d="M0,-3.0v7 M-2.5,-0.5L0,-3.0L2.5,-0.5"/>
                </g>
               <g id="resetDef">
                       <use xlink:href="#rim2" fill="#404040">
                               <set attributeName="fill" to="#808080" begin="reset.mouseover" end="reset.mouseout"/>
                       </use>
               </g>
        </defs>

<script type="text/javascript">
var viewWidth = 1856;
var viewHeight = 620;
var sectionId = 'dynsection-0';
</script>
<script xlink:href="svgpan.js"/>
<svg id="graph" class="graph">
<g id="viewport">
<title>scene_request_class</title>
<!-- Node1 -->
<g id="node1" class="node">
<title>Node1</title>
<g id="a_node1"><a xlink:title=" ">
<polygon fill="#999999" stroke="#666666" points="1848,-49.5 1739,-49.5 1739,-30.5 1848,-30.5 1848,-49.5"/>
<text text-anchor="middle" x="1793.5" y="-37.5" font-family="Helvetica,sans-Serif" font-size="10.00">scene_request_class</text>
</a>
</g>
</g>
<!-- Node2 -->
<g id="node2" class="node">
<title>Node2</title>
<g id="a_node2"><a xlink:href="structnode__create__request.html" target="_top" xlink:title=" ">
<polygon fill="white" stroke="#666666" points="1657,-118.5 1550,-118.5 1550,-99.5 1657,-99.5 1657,-118.5"/>
<text text-anchor="middle" x="1603.5" y="-106.5" font-family="Helvetica,sans-Serif" font-size="10.00">node_create_request</text>
</a>
</g>
</g>
<!-- Node2&#45;&gt;Node1 -->
<g id="edge1" class="edge">
<title>Node2&#45;&gt;Node1</title>
<path fill="none" stroke="#9a32cd" stroke-dasharray="5,2" d="M1642.12,-95.19C1678.55,-81.82 1732.9,-61.88 1765.31,-49.98"/>
<polygon fill="#9a32cd" stroke="#9a32cd" points="1641.04,-91.86 1632.86,-98.59 1643.45,-98.43 1641.04,-91.86"/>
<text text-anchor="middle" x="1700.5" y="-83" font-family="Helvetica,sans-Serif" font-size="10.00"> mCrtReq</text>
</g>
<!-- Node3 -->
<g id="node3" class="node">
<title>Node3</title>
<g id="a_node3"><a xlink:href="structcreate__tag__class.html" target="_top" xlink:title=" ">
<polygon fill="white" stroke="#666666" points="233,-232.5 142,-232.5 142,-213.5 233,-213.5 233,-232.5"/>
<text text-anchor="middle" x="187.5" y="-220.5" font-family="Helvetica,sans-Serif" font-size="10.00">create_tag_class</text>
</a>
</g>
</g>
<!-- Node3&#45;&gt;Node2 -->
<g id="edge2" class="edge">
<title>Node3&#45;&gt;Node2</title>
<path fill="none" stroke="#9a32cd" stroke-dasharray="5,2" d="M198.16,-203.04C208.75,-182.89 227.42,-151.97 251,-132 303.95,-87.15 323.11,-66 392.5,-66 392.5,-66 392.5,-66 1346,-66 1425.47,-66 1516.9,-86.32 1566.29,-99.03"/>
<polygon fill="#9a32cd" stroke="#9a32cd" points="195.07,-201.39 193.68,-211.89 201.32,-204.54 195.07,-201.39"/>
<text text-anchor="middle" x="892" y="-69" font-family="Helvetica,sans-Serif" font-size="10.00"> mCreateTag</text>
</g>
<!-- Node5 -->
<g id="node5" class="node">
<title>Node5</title>
<g id="a_node5"><a xlink:href="structprocess__method__tag__class.html" target="_top" xlink:title=" ">
<polygon fill="white" stroke="#666666" points="447,-216 340,-216 340,-186 447,-186 447,-216"/>
<text text-anchor="start" x="348" y="-204" font-family="Helvetica,sans-Serif" font-size="10.00">process_method_tag</text>
<text text-anchor="middle" x="393.5" y="-193" font-family="Helvetica,sans-Serif" font-size="10.00">_class</text>
</a>
</g>
</g>
<!-- Node3&#45;&gt;Node5 -->
<g id="edge6" class="edge">
<title>Node3&#45;&gt;Node5</title>
<path fill="none" stroke="#9a32cd" stroke-dasharray="5,2" d="M244.41,-214.81C246.63,-214.52 248.84,-214.26 251,-214 280.28,-210.55 313.05,-207.49 339.68,-205.2"/>
<polygon fill="#9a32cd" stroke="#9a32cd" points="244.15,-211.31 234.69,-216.08 245.06,-218.25 244.15,-211.31"/>
<text text-anchor="middle" x="279" y="-217" font-family="Helvetica,sans-Serif" font-size="10.00"> mCreateTag</text>
</g>
<!-- Node14 -->
<g id="node14" class="node">
<title>Node14</title>
<g id="a_node14"><a xlink:href="structcreate__tag.html" target="_top" xlink:title=" ">
<polygon fill="white" stroke="#666666" points="424.5,-253.5 362.5,-253.5 362.5,-234.5 424.5,-234.5 424.5,-253.5"/>
<text text-anchor="middle" x="393.5" y="-241.5" font-family="Helvetica,sans-Serif" font-size="10.00">create_tag</text>
</a>
</g>
</g>
<!-- Node3&#45;&gt;Node14 -->
<g id="edge16" class="edge">
<title>Node3&#45;&gt;Node14</title>
<path fill="none" stroke="#9a32cd" stroke-dasharray="5,2" d="M244.66,-228.78C282.56,-232.68 331.13,-237.68 362.04,-240.86"/>
<polygon fill="#9a32cd" stroke="#9a32cd" points="245.08,-225.31 234.77,-227.76 244.36,-232.27 245.08,-225.31"/>
<text text-anchor="middle" x="279" y="-237" font-family="Helvetica,sans-Serif" font-size="10.00"> mBase</text>
</g>
<!-- Node19 -->
<g id="node19" class="node">
<title>Node19</title>
<g id="a_node19"><a xlink:href="structlayer__management__tag__class.html" target="_top" xlink:title=" ">
<polygon fill="white" stroke="#666666" points="1662,-433 1545,-433 1545,-403 1662,-403 1662,-433"/>
<text text-anchor="start" x="1553" y="-421" font-family="Helvetica,sans-Serif" font-size="10.00">layer_management_tag</text>
<text text-anchor="middle" x="1603.5" y="-410" font-family="Helvetica,sans-Serif" font-size="10.00">_class</text>
</a>
</g>
</g>
<!-- Node3&#45;&gt;Node19 -->
<g id="edge28" class="edge">
<title>Node3&#45;&gt;Node19</title>
<path fill="none" stroke="#9a32cd" stroke-dasharray="5,2" d="M193.5,-244.1C206.11,-292.18 244.16,-409.66 325,-461 742.28,-726 1400.6,-497.28 1564.56,-433.4"/>
<polygon fill="#9a32cd" stroke="#9a32cd" points="196.9,-243.29 191.08,-234.44 190.11,-244.99 196.9,-243.29"/>
<text text-anchor="middle" x="892" y="-588" font-family="Helvetica,sans-Serif" font-size="10.00"> mCreateTag</text>
</g>
<!-- Node20 -->
<g id="node20" class="node">
<title>Node20</title>
<g id="a_node20"><a xlink:href="structline__tag.html" target="_top" xlink:title=" ">
<polygon fill="white" stroke="#666666" points="532.5,-186.5 482.5,-186.5 482.5,-167.5 532.5,-167.5 532.5,-186.5"/>
<text text-anchor="middle" x="507.5" y="-174.5" font-family="Helvetica,sans-Serif" font-size="10.00">line_tag</text>
</a>
</g>
</g>
<!-- Node3&#45;&gt;Node20 -->
<g id="edge31" class="edge">
<title>Node3&#45;&gt;Node20</title>
<path fill="none" stroke="#9a32cd" stroke-dasharray="5,2" d="M216.3,-207.93C226.93,-202.63 239.3,-197.01 251,-193 331.93,-165.26 435.62,-170.19 482.08,-174.34"/>
<polygon fill="#9a32cd" stroke="#9a32cd" points="214.99,-204.67 207.69,-212.35 218.19,-210.89 214.99,-204.67"/>
<text text-anchor="middle" x="279" y="-196" font-family="Helvetica,sans-Serif" font-size="10.00"> mBase</text>
</g>
<!-- Node21 -->
<g id="node21" class="node">
<title>Node21</title>
<g id="a_node21"><a xlink:href="structdelete__tag__class.html" target="_top" xlink:title=" ">
<polygon fill="white" stroke="#666666" points="1648.5,-275.5 1558.5,-275.5 1558.5,-256.5 1648.5,-256.5 1648.5,-275.5"/>
<text text-anchor="middle" x="1603.5" y="-263.5" font-family="Helvetica,sans-Serif" font-size="10.00">delete_tag_class</text>
</a>
</g>
</g>
<!-- Node3&#45;&gt;Node21 -->
<g id="edge33" class="edge">
<title>Node3&#45;&gt;Node21</title>
<path fill="none" stroke="#9a32cd" stroke-dasharray="5,2" d="M206.39,-205.35C239.88,-174.26 315.63,-113 392.5,-113 392.5,-113 392.5,-113 759.5,-113 853.07,-113 870.89,-150.48 963,-167 1160.32,-202.38 1220.56,-150.51 1412,-210 1420.74,-212.72 1421.51,-216.57 1430,-220 1472.25,-237.06 1522.85,-249.7 1558.29,-257.36"/>
<polygon fill="#9a32cd" stroke="#9a32cd" points="204.03,-202.77 199.2,-212.19 208.85,-207.84 204.03,-202.77"/>
<text text-anchor="middle" x="892" y="-166" font-family="Helvetica,sans-Serif" font-size="10.00"> mBase</text>
</g>
<!-- Node22 -->
<g id="node22" class="node">
<title>Node22</title>
<g id="a_node22"><a xlink:href="structprocess__priority__class.html" target="_top" xlink:title=" ">
<polygon fill="white" stroke="#666666" points="672,-355.5 559,-355.5 559,-336.5 672,-336.5 672,-355.5"/>
<text text-anchor="middle" x="615.5" y="-343.5" font-family="Helvetica,sans-Serif" font-size="10.00">process_priority_class</text>
</a>
</g>
</g>
<!-- Node3&#45;&gt;Node22 -->
<g id="edge36" class="edge">
<title>Node3&#45;&gt;Node22</title>
<path fill="none" stroke="#9a32cd" stroke-dasharray="5,2" d="M208.2,-239.88C233.43,-260.46 279.38,-294.53 325,-311 402.74,-339.07 499.06,-345.57 558.64,-346.6"/>
<polygon fill="#9a32cd" stroke="#9a32cd" points="210.68,-237.39 200.75,-233.68 206.2,-242.77 210.68,-237.39"/>
<text text-anchor="middle" x="393.5" y="-343" font-family="Helvetica,sans-Serif" font-size="10.00"> mBase</text>
</g>
<!-- Node4 -->
<g id="node4" class="node">
<title>Node4</title>
<g id="a_node4"><a xlink:href="structnode__class.html" target="_top" xlink:title=" ">
<polygon fill="white" stroke="#666666" points="66,-560.5 0,-560.5 0,-541.5 66,-541.5 66,-560.5"/>
<text text-anchor="middle" x="33" y="-548.5" font-family="Helvetica,sans-Serif" font-size="10.00">node_class</text>
</a>
</g>
</g>
<!-- Node4&#45;&gt;Node3 -->
<g id="edge3" class="edge">
<title>Node4&#45;&gt;Node3</title>
<path fill="none" stroke="#9a32cd" stroke-dasharray="5,2" d="M43.26,-531.08C72.3,-468.63 160.86,-278.15 181.95,-232.78"/>
<polygon fill="#9a32cd" stroke="#9a32cd" points="40.24,-529.27 39.2,-539.81 46.59,-532.22 40.24,-529.27"/>
<text text-anchor="middle" x="104" y="-438" font-family="Helvetica,sans-Serif" font-size="10.00"> mpNode</text>
</g>
<!-- Node4&#45;&gt;Node4 -->
<g id="edge4" class="edge">
<title>Node4&#45;&gt;Node4</title>
<path fill="none" stroke="#9a32cd" stroke-dasharray="5,2" d="M20.54,-572.26C22.22,-575.94 26.37,-578.5 33,-578.5 45.48,-578.5 49.19,-569.44 44.12,-560.87"/>
<polygon fill="#9a32cd" stroke="#9a32cd" points="24.01,-572.71 21.71,-562.37 17.06,-571.89 24.01,-572.71"/>
<text text-anchor="middle" x="33" y="-592.5" font-family="Helvetica,sans-Serif" font-size="10.00"> mpNextNode</text>
<text text-anchor="middle" x="33" y="-581.5" font-family="Helvetica,sans-Serif" font-size="10.00">mpPrevNode</text>
</g>
<!-- Node16 -->
<g id="node16" class="node">
<title>Node16</title>
<g id="a_node16"><a xlink:href="structlayer__class.html" target="_top" xlink:title=" ">
<polygon fill="white" stroke="#666666" points="1377.5,-389.5 1312.5,-389.5 1312.5,-370.5 1377.5,-370.5 1377.5,-389.5"/>
<text text-anchor="middle" x="1345" y="-377.5" font-family="Helvetica,sans-Serif" font-size="10.00">layer_class</text>
</a>
</g>
</g>
<!-- Node4&#45;&gt;Node16 -->
<g id="edge21" class="edge">
<title>Node4&#45;&gt;Node16</title>
<path fill="none" stroke="#9a32cd" stroke-dasharray="5,2" d="M61.78,-566.01C91.69,-580.73 141.09,-601 186.5,-601 186.5,-601 186.5,-601 759.5,-601 987.45,-601 1073.31,-619.79 1260,-489 1298.94,-461.72 1328.1,-410.99 1339.15,-389.75"/>
<polygon fill="#9a32cd" stroke="#9a32cd" points="63.54,-562.97 53.04,-561.56 60.37,-569.21 63.54,-562.97"/>
<text text-anchor="middle" x="615.5" y="-604" font-family="Helvetica,sans-Serif" font-size="10.00"> mNode</text>
</g>
<!-- Node18 -->
<g id="node18" class="node">
<title>Node18</title>
<g id="a_node18"><a xlink:href="structnode__list__class.html" target="_top" xlink:title=" ">
<polygon fill="white" stroke="#666666" points="934,-493.5 850,-493.5 850,-474.5 934,-474.5 934,-493.5"/>
<text text-anchor="middle" x="892" y="-481.5" font-family="Helvetica,sans-Serif" font-size="10.00">node_list_class</text>
</a>
</g>
</g>
<!-- Node4&#45;&gt;Node18 -->
<g id="edge24" class="edge">
<title>Node4&#45;&gt;Node18</title>
<path fill="none" stroke="#9a32cd" stroke-dasharray="5,2" d="M77.94,-551C108.41,-551 149.92,-551 186.5,-551 186.5,-551 186.5,-551 508.5,-551 639.12,-551 791.12,-512.62 857.32,-493.96"/>
<polygon fill="#9a32cd" stroke="#9a32cd" points="77.94,-547.5 67.94,-551 77.94,-554.5 77.94,-547.5"/>
<text text-anchor="middle" x="393.5" y="-565" font-family="Helvetica,sans-Serif" font-size="10.00"> mpHead</text>
<text text-anchor="middle" x="393.5" y="-554" font-family="Helvetica,sans-Serif" font-size="10.00">mpTail</text>
</g>
<!-- Node5&#45;&gt;Node2 -->
<g id="edge5" class="edge">
<title>Node5&#45;&gt;Node2</title>
<path fill="none" stroke="#9a32cd" stroke-dasharray="5,2" d="M436.36,-181.09C450,-175.36 465.39,-169.67 480,-166 538.29,-151.36 554.4,-152 614.5,-152 614.5,-152 614.5,-152 1226,-152 1360.36,-152 1394.04,-143.34 1527,-124 1536.52,-122.62 1546.66,-120.82 1556.31,-118.96"/>
<polygon fill="#9a32cd" stroke="#9a32cd" points="435.01,-177.86 427.23,-185.05 437.8,-184.28 435.01,-177.86"/>
<text text-anchor="middle" x="1003" y="-155" font-family="Helvetica,sans-Serif" font-size="10.00"> mProcMthCls</text>
</g>
<!-- Node13 -->
<g id="node13" class="node">
<title>Node13</title>
<g id="a_node13"><a xlink:href="structcreate__request.html" target="_top" xlink:title=" ">
<polygon fill="white" stroke="#666666" points="656,-276.5 575,-276.5 575,-257.5 656,-257.5 656,-276.5"/>
<text text-anchor="middle" x="615.5" y="-264.5" font-family="Helvetica,sans-Serif" font-size="10.00">create_request</text>
</a>
</g>
</g>
<!-- Node5&#45;&gt;Node13 -->
<g id="edge17" class="edge">
<title>Node5&#45;&gt;Node13</title>
<path fill="none" stroke="#9a32cd" stroke-dasharray="5,2" d="M458.06,-216.41C482.28,-222.63 510.06,-230.18 535,-238 553.37,-243.75 573.75,-251.21 589.28,-257.13"/>
<polygon fill="#9a32cd" stroke="#9a32cd" points="459.23,-213.1 448.67,-214.03 457.5,-219.88 459.23,-213.1"/>
<text text-anchor="middle" x="507.5" y="-241" font-family="Helvetica,sans-Serif" font-size="10.00"> mMtdTg</text>
</g>
<!-- Node5&#45;&gt;Node22 -->
<g id="edge37" class="edge">
<title>Node5&#45;&gt;Node22</title>
<path fill="none" stroke="#9a32cd" stroke-dasharray="5,2" d="M456.54,-220.9C458.48,-222.48 460.31,-224.17 462,-226 482.04,-247.72 460.4,-267.89 480,-290 480.25,-290.28 551.9,-320.03 590.51,-336.05"/>
<polygon fill="#9a32cd" stroke="#9a32cd" points="458.9,-218.27 448.64,-215.62 455,-224.09 458.9,-218.27"/>
<text text-anchor="middle" x="507.5" y="-314" font-family="Helvetica,sans-Serif" font-size="10.00"> mMtdTag</text>
</g>
<!-- Node6 -->
<g id="node6" class="node">
<title>Node6</title>
<g id="a_node6"><a xlink:href="structrequest__of__phase__process__class.html" target="_top" xlink:title=" ">
<polygon fill="white" stroke="#666666" points="1412,-30 1278,-30 1278,0 1412,0 1412,-30"/>
<text text-anchor="start" x="1286" y="-18" font-family="Helvetica,sans-Serif" font-size="10.00">request_of_phase_process</text>
<text text-anchor="middle" x="1345" y="-7" font-family="Helvetica,sans-Serif" font-size="10.00">_class</text>
</a>
</g>
</g>
<!-- Node6&#45;&gt;Node1 -->
<g id="edge45" class="edge">
<title>Node6&#45;&gt;Node1</title>
<path fill="none" stroke="#9a32cd" stroke-dasharray="5,2" d="M1423.33,-16.91C1455.41,-17.87 1493.02,-19.22 1527,-21 1600.38,-24.84 1685.02,-31.24 1738.64,-35.54"/>
<polygon fill="#9a32cd" stroke="#9a32cd" points="1423.83,-13.42 1413.73,-16.63 1423.63,-20.42 1423.83,-13.42"/>
<text text-anchor="middle" x="1603.5" y="-33" font-family="Helvetica,sans-Serif" font-size="10.00"> mReqPhsProcCls</text>
</g>
<!-- Node6&#45;&gt;Node2 -->
<g id="edge7" class="edge">
<title>Node6&#45;&gt;Node2</title>
<path fill="none" stroke="#9a32cd" stroke-dasharray="5,2" d="M1423.6,-21.63C1464.02,-25.98 1508.74,-32.45 1527,-41 1556.4,-54.76 1582.54,-83.87 1594.92,-99.16"/>
<polygon fill="#9a32cd" stroke="#9a32cd" points="1424.16,-18.17 1413.85,-20.62 1423.43,-25.14 1424.16,-18.17"/>
<text text-anchor="middle" x="1478.5" y="-44" font-family="Helvetica,sans-Serif" font-size="10.00"> mReqPhsProc</text>
</g>
<!-- Node7 -->
<g id="node7" class="node">
<title>Node7</title>
<g id="a_node7"><a xlink:href="structnode__create__request__method__class.html" target="_top" xlink:title=" ">
<polygon fill="white" stroke="#666666" points="1398.5,-124 1291.5,-124 1291.5,-94 1398.5,-94 1398.5,-124"/>
<text text-anchor="start" x="1299.5" y="-112" font-family="Helvetica,sans-Serif" font-size="10.00">node_create_request</text>
<text text-anchor="middle" x="1345" y="-101" font-family="Helvetica,sans-Serif" font-size="10.00">_method_class</text>
</a>
</g>
</g>
<!-- Node7&#45;&gt;Node2 -->
<g id="edge8" class="edge">
<title>Node7&#45;&gt;Node2</title>
<path fill="none" stroke="#9a32cd" stroke-dasharray="5,2" d="M1410.33,-109C1453.37,-109 1509.31,-109 1549.73,-109"/>
<polygon fill="#9a32cd" stroke="#9a32cd" points="1410.35,-105.5 1400.35,-109 1410.35,-112.5 1410.35,-105.5"/>
<text text-anchor="middle" x="1478.5" y="-112" font-family="Helvetica,sans-Serif" font-size="10.00"> mpNodeCrReqMthCls</text>
</g>
<!-- Node8 -->
<g id="node8" class="node">
<title>Node8</title>
<g id="a_node8"><a xlink:href="structunk__process__node__class.html" target="_top" xlink:title=" ">
<polygon fill="white" stroke="#666666" points="1408.5,-237.5 1281.5,-237.5 1281.5,-218.5 1408.5,-218.5 1408.5,-237.5"/>
<text text-anchor="middle" x="1345" y="-225.5" font-family="Helvetica,sans-Serif" font-size="10.00">unk_process_node_class</text>
</a>
</g>
</g>
<!-- Node8&#45;&gt;Node2 -->
<g id="edge9" class="edge">
<title>Node8&#45;&gt;Node2</title>
<path fill="none" stroke="#9a32cd" stroke-dasharray="5,2" d="M1367.84,-211.38C1384.18,-199.67 1407.49,-184.46 1430,-175 1470.85,-157.83 1485.78,-168.24 1527,-152 1549.46,-143.15 1573.33,-128.57 1588.08,-118.87"/>
<polygon fill="#9a32cd" stroke="#9a32cd" points="1365.85,-208.5 1359.86,-217.23 1369.99,-214.14 1365.85,-208.5"/>
<text text-anchor="middle" x="1478.5" y="-178" font-family="Helvetica,sans-Serif" font-size="10.00"> mNodeProc</text>
</g>
<!-- Node9 -->
<g id="node9" class="node">
<title>Node9</title>
<g id="a_node9"><a xlink:href="structprocess__node__class.html" target="_top" xlink:title=" ">
<polygon fill="white" stroke="#666666" points="1169.5,-363.5 1063.5,-363.5 1063.5,-344.5 1169.5,-344.5 1169.5,-363.5"/>
<text text-anchor="middle" x="1116.5" y="-351.5" font-family="Helvetica,sans-Serif" font-size="10.00">process_node_class</text>
</a>
</g>
</g>
<!-- Node9&#45;&gt;Node8 -->
<g id="edge10" class="edge">
<title>Node9&#45;&gt;Node8</title>
<path fill="none" stroke="#9a32cd" stroke-dasharray="5,2" d="M1123.17,-333.16C1132.12,-304.8 1152.49,-255.06 1190,-233 1221.13,-214.69 1262.25,-214.3 1294.17,-218.02"/>
<polygon fill="#9a32cd" stroke="#9a32cd" points="1119.82,-332.15 1120.36,-342.73 1126.53,-334.13 1119.82,-332.15"/>
<text text-anchor="middle" x="1225" y="-236" font-family="Helvetica,sans-Serif" font-size="10.00"> mpNodeProc</text>
</g>
<!-- Node9&#45;&gt;Node16 -->
<g id="edge25" class="edge">
<title>Node9&#45;&gt;Node16</title>
<path fill="none" stroke="#9a32cd" stroke-dasharray="5,2" d="M1180.91,-361.28C1223.71,-366.19 1278.37,-372.47 1312.28,-376.36"/>
<polygon fill="#9a32cd" stroke="#9a32cd" points="1181.59,-357.83 1171.25,-360.17 1180.79,-364.79 1181.59,-357.83"/>
<text text-anchor="middle" x="1225" y="-373" font-family="Helvetica,sans-Serif" font-size="10.00"> mpPcNode</text>
</g>
<!-- Node10 -->
<g id="node10" class="node">
<title>Node10</title>
<g id="a_node10"><a xlink:href="structbase__process__class.html" target="_top" xlink:title=" ">
<polygon fill="white" stroke="#666666" points="945,-327.5 839,-327.5 839,-308.5 945,-308.5 945,-327.5"/>
<text text-anchor="middle" x="892" y="-315.5" font-family="Helvetica,sans-Serif" font-size="10.00">base_process_class</text>
</a>
</g>
</g>
<!-- Node10&#45;&gt;Node9 -->
<g id="edge11" class="edge">
<title>Node10&#45;&gt;Node9</title>
<path fill="none" stroke="#9a32cd" stroke-dasharray="5,2" d="M956.56,-322.47C983.38,-324.96 1014.86,-328.65 1043,-334 1056.47,-336.56 1071.09,-340.38 1083.64,-344"/>
<polygon fill="#9a32cd" stroke="#9a32cd" points="957.15,-319.01 946.88,-321.62 956.53,-325.98 957.15,-319.01"/>
<text text-anchor="middle" x="1003" y="-337" font-family="Helvetica,sans-Serif" font-size="10.00"> mBase</text>
</g>
<!-- Node10&#45;&gt;Node13 -->
<g id="edge19" class="edge">
<title>Node10&#45;&gt;Node13</title>
<path fill="none" stroke="#9a32cd" stroke-dasharray="5,2" d="M862.67,-302.98C850.22,-297.03 835.22,-290.74 821,-287 765.11,-272.3 698.06,-268.2 656.36,-267.16"/>
<polygon fill="#9a32cd" stroke="#9a32cd" points="861,-306.06 871.51,-307.37 864.11,-299.79 861,-306.06"/>
<text text-anchor="middle" x="758.5" y="-290" font-family="Helvetica,sans-Serif" font-size="10.00"> mpRes</text>
</g>
<!-- Node11 -->
<g id="node11" class="node">
<title>Node11</title>
<g id="a_node11"><a xlink:href="structprocess__profile__definition.html" target="_top" xlink:title=" ">
<polygon fill="white" stroke="#666666" points="678,-399.5 553,-399.5 553,-380.5 678,-380.5 678,-399.5"/>
<text text-anchor="middle" x="615.5" y="-387.5" font-family="Helvetica,sans-Serif" font-size="10.00">process_profile_definition</text>
</a>
</g>
</g>
<!-- Node11&#45;&gt;Node10 -->
<g id="edge12" class="edge">
<title>Node11&#45;&gt;Node10</title>
<path fill="none" stroke="#9a32cd" stroke-dasharray="5,2" d="M689.81,-389.47C730.26,-386.63 780.37,-378.81 821,-359 830.89,-354.18 829.88,-348.16 839,-342 847.07,-336.54 856.58,-331.74 865.25,-327.9"/>
<polygon fill="#9a32cd" stroke="#9a32cd" points="689.68,-385.97 679.91,-390.06 690.1,-392.96 689.68,-385.97"/>
<text text-anchor="middle" x="758.5" y="-391" font-family="Helvetica,sans-Serif" font-size="10.00"> mpProf</text>
</g>
<!-- Node12 -->
<g id="node12" class="node">
<title>Node12</title>
<g id="a_node12"><a xlink:href="structprocess__method__class.html" target="_top" xlink:title=" ">
<polygon fill="white" stroke="#666666" points="452,-451.5 335,-451.5 335,-432.5 452,-432.5 452,-451.5"/>
<text text-anchor="middle" x="393.5" y="-439.5" font-family="Helvetica,sans-Serif" font-size="10.00">process_method_class</text>
</a>
</g>
</g>
<!-- Node12&#45;&gt;Node10 -->
<g id="edge39" class="edge">
<title>Node12&#45;&gt;Node10</title>
<path fill="none" stroke="#9a32cd" stroke-dasharray="5,2" d="M463.86,-442.06C568.48,-441.08 760.82,-434.83 821,-403 853.61,-385.75 876.84,-346.2 886.29,-327.78"/>
<polygon fill="#9a32cd" stroke="#9a32cd" points="463.96,-438.56 453.99,-442.13 464.02,-445.56 463.96,-438.56"/>
<text text-anchor="middle" x="615.5" y="-442" font-family="Helvetica,sans-Serif" font-size="10.00"> mpPcMtd</text>
</g>
<!-- Node12&#45;&gt;Node11 -->
<g id="edge13" class="edge">
<title>Node12&#45;&gt;Node11</title>
<path fill="none" stroke="#9a32cd" stroke-dasharray="5,2" d="M436.62,-428.9C450.38,-424.83 465.78,-420.5 480,-417 505.9,-410.63 534.88,-404.66 559.29,-399.97"/>
<polygon fill="#9a32cd" stroke="#9a32cd" points="436.02,-425.43 427.44,-431.65 438.03,-432.13 436.02,-425.43"/>
<text text-anchor="middle" x="507.5" y="-420" font-family="Helvetica,sans-Serif" font-size="10.00"> mSubMtd</text>
</g>
<!-- Node24 -->
<g id="node24" class="node">
<title>Node24</title>
<g id="a_node24"><a xlink:href="structnodedraw__method__class.html" target="_top" xlink:title=" ">
<polygon fill="white" stroke="#666666" points="821,-477.5 696,-477.5 696,-458.5 821,-458.5 821,-477.5"/>
<text text-anchor="middle" x="758.5" y="-465.5" font-family="Helvetica,sans-Serif" font-size="10.00">nodedraw_method_class</text>
</a>
</g>
</g>
<!-- Node12&#45;&gt;Node24 -->
<g id="edge41" class="edge">
<title>Node12&#45;&gt;Node24</title>
<path fill="none" stroke="#9a32cd" stroke-dasharray="5,2" d="M463.69,-451.34C469.2,-451.95 474.69,-452.52 480,-453 553.99,-459.75 639.38,-463.81 695.68,-465.97"/>
<polygon fill="#9a32cd" stroke="#9a32cd" points="464.23,-447.88 453.89,-450.21 463.42,-454.84 464.23,-447.88"/>
<text text-anchor="middle" x="507.5" y="-460" font-family="Helvetica,sans-Serif" font-size="10.00"> mBase</text>
</g>
<!-- Node13&#45;&gt;Node10 -->
<g id="edge14" class="edge">
<title>Node13&#45;&gt;Node10</title>
<path fill="none" stroke="#9a32cd" stroke-dasharray="5,2" d="M645.87,-281.69C660.57,-288.38 678.84,-295.75 696,-300 743.36,-311.73 798.89,-315.96 838.56,-317.42"/>
<polygon fill="#9a32cd" stroke="#9a32cd" points="647.78,-278.71 637.24,-277.63 644.8,-285.05 647.78,-278.71"/>
<text text-anchor="middle" x="758.5" y="-319" font-family="Helvetica,sans-Serif" font-size="10.00"> mpCtRq</text>
</g>
<!-- Node14&#45;&gt;Node13 -->
<g id="edge15" class="edge">
<title>Node14&#45;&gt;Node13</title>
<path fill="none" stroke="#9a32cd" stroke-dasharray="5,2" d="M436.05,-248.34C475.85,-252.5 535.49,-258.74 574.69,-262.84"/>
<polygon fill="#9a32cd" stroke="#9a32cd" points="436.44,-244.87 426.13,-247.31 435.72,-251.83 436.44,-244.87"/>
<text text-anchor="middle" x="507.5" y="-261" font-family="Helvetica,sans-Serif" font-size="10.00"> mBase</text>
</g>
<!-- Node15 -->
<g id="node15" class="node">
<title>Node15</title>
<g id="a_node15"><a xlink:href="structcreate__request__method__class.html" target="_top" xlink:title=" ">
<polygon fill="white" stroke="#666666" points="453,-302 334,-302 334,-272 453,-272 453,-302"/>
<text text-anchor="start" x="342" y="-290" font-family="Helvetica,sans-Serif" font-size="10.00">create_request_method</text>
<text text-anchor="middle" x="393.5" y="-279" font-family="Helvetica,sans-Serif" font-size="10.00">_class</text>
</a>
</g>
</g>
<!-- Node15&#45;&gt;Node13 -->
<g id="edge18" class="edge">
<title>Node15&#45;&gt;Node13</title>
<path fill="none" stroke="#9a32cd" stroke-dasharray="5,2" d="M464.71,-280.41C469.88,-279.93 475.02,-279.45 480,-279 511.87,-276.09 547.99,-272.87 574.77,-270.5"/>
<polygon fill="#9a32cd" stroke="#9a32cd" points="464.51,-276.91 454.88,-281.32 465.16,-283.88 464.51,-276.91"/>
<text text-anchor="middle" x="507.5" y="-282" font-family="Helvetica,sans-Serif" font-size="10.00"> mpCtRqMtd</text>
</g>
<!-- Node16&#45;&gt;Node2 -->
<g id="edge44" class="edge">
<title>Node16&#45;&gt;Node2</title>
<path fill="none" stroke="#9a32cd" stroke-dasharray="5,2" d="M1361.64,-361.45C1378.27,-341.89 1405.49,-310.33 1430,-284 1471.75,-239.14 1483.99,-229.66 1527,-186 1550.65,-161.99 1578.37,-133.68 1592.74,-118.98"/>
<polygon fill="#9a32cd" stroke="#9a32cd" points="1359.16,-358.96 1355.37,-368.86 1364.5,-363.49 1359.16,-358.96"/>
<text text-anchor="middle" x="1478.5" y="-287" font-family="Helvetica,sans-Serif" font-size="10.00"> mpLayerClass</text>
</g>
<!-- Node16&#45;&gt;Node9 -->
<g id="edge42" class="edge">
<title>Node16&#45;&gt;Node9</title>
<path fill="none" stroke="#9a32cd" stroke-dasharray="5,2" d="M1314.75,-365.38C1298.96,-358.3 1278.89,-350.58 1260,-347 1230.43,-341.4 1196.83,-342.69 1169.69,-345.6"/>
<polygon fill="#9a32cd" stroke="#9a32cd" points="1313.02,-368.44 1323.56,-369.48 1315.97,-362.09 1313.02,-368.44"/>
<text text-anchor="middle" x="1225" y="-350" font-family="Helvetica,sans-Serif" font-size="10.00"> mLayer</text>
</g>
<!-- Node16&#45;&gt;Node13 -->
<g id="edge20" class="edge">
<title>Node16&#45;&gt;Node13</title>
<path fill="none" stroke="#9a32cd" stroke-dasharray="5,2" d="M1317.76,-364.69C1301.6,-355.9 1280.18,-345.38 1260,-339 1071.61,-279.46 1017.88,-285.57 821,-269 763.86,-264.19 697.43,-264.65 656.17,-265.65"/>
<polygon fill="#9a32cd" stroke="#9a32cd" points="1315.8,-367.6 1326.23,-369.41 1319.21,-361.48 1315.8,-367.6"/>
<text text-anchor="middle" x="1003" y="-290" font-family="Helvetica,sans-Serif" font-size="10.00"> mpLayer</text>
</g>
<!-- Node16&#45;&gt;Node19 -->
<g id="edge29" class="edge">
<title>Node16&#45;&gt;Node19</title>
<path fill="none" stroke="#9a32cd" stroke-dasharray="5,2" d="M1389.05,-380.1C1425.97,-380.9 1480.43,-383.77 1527,-393 1538.65,-395.31 1550.99,-398.89 1562.25,-402.62"/>
<polygon fill="#9a32cd" stroke="#9a32cd" points="1389.28,-376.61 1379.22,-379.94 1389.16,-383.6 1389.28,-376.61"/>
<text text-anchor="middle" x="1478.5" y="-396" font-family="Helvetica,sans-Serif" font-size="10.00"> mpLayer</text>
</g>
<!-- Node16&#45;&gt;Node21 -->
<g id="edge34" class="edge">
<title>Node16&#45;&gt;Node21</title>
<path fill="none" stroke="#9a32cd" stroke-dasharray="5,2" d="M1378.81,-365.42C1431.75,-341.89 1534.66,-296.15 1580.05,-275.98"/>
<polygon fill="#9a32cd" stroke="#9a32cd" points="1377.41,-362.21 1369.7,-369.47 1380.26,-368.6 1377.41,-362.21"/>
<text text-anchor="middle" x="1478.5" y="-342" font-family="Helvetica,sans-Serif" font-size="10.00"> mpLayer</text>
</g>
<!-- Node17 -->
<g id="node17" class="node">
<title>Node17</title>
<g id="a_node17"><a xlink:href="structnode__lists__tree__class.html" target="_top" xlink:title=" ">
<polygon fill="white" stroke="#666666" points="1172,-465.5 1061,-465.5 1061,-446.5 1172,-446.5 1172,-465.5"/>
<text text-anchor="middle" x="1116.5" y="-453.5" font-family="Helvetica,sans-Serif" font-size="10.00">node_lists_tree_class</text>
</a>
</g>
</g>
<!-- Node17&#45;&gt;Node16 -->
<g id="edge22" class="edge">
<title>Node17&#45;&gt;Node16</title>
<path fill="none" stroke="#9a32cd" stroke-dasharray="5,2" d="M1183.64,-450.27C1208.18,-446.75 1235.88,-441.09 1260,-432 1287.44,-421.65 1315.7,-401.93 1331.44,-389.97"/>
<polygon fill="#9a32cd" stroke="#9a32cd" points="1183.2,-446.8 1173.75,-451.59 1184.13,-453.74 1183.2,-446.8"/>
<text text-anchor="middle" x="1225" y="-452" font-family="Helvetica,sans-Serif" font-size="10.00"> mNodeListTree</text>
</g>
<!-- Node18&#45;&gt;Node9 -->
<g id="edge43" class="edge">
<title>Node18&#45;&gt;Node9</title>
<path fill="none" stroke="#9a32cd" stroke-dasharray="5,2" d="M919.76,-468.37C966.17,-441.25 1060.3,-386.25 1098.66,-363.84"/>
<polygon fill="#9a32cd" stroke="#9a32cd" points="918.27,-465.18 911.4,-473.25 921.8,-471.23 918.27,-465.18"/>
<text text-anchor="middle" x="1003" y="-444" font-family="Helvetica,sans-Serif" font-size="10.00"> mLayerNodeLists</text>
</g>
<!-- Node18&#45;&gt;Node16 -->
<g id="edge26" class="edge">
<title>Node18&#45;&gt;Node16</title>
<path fill="none" stroke="#9a32cd" stroke-dasharray="5,2" d="M945.76,-493.42C1020.06,-504.05 1157.84,-513.96 1260,-464 1295.57,-446.6 1325.04,-408.05 1337.54,-389.86"/>
<polygon fill="#9a32cd" stroke="#9a32cd" points="946.3,-489.96 935.9,-491.94 945.27,-496.89 946.3,-489.96"/>
<text text-anchor="middle" x="1116.5" y="-505" font-family="Helvetica,sans-Serif" font-size="10.00"> mCancelList</text>
</g>
<!-- Node18&#45;&gt;Node17 -->
<g id="edge23" class="edge">
<title>Node18&#45;&gt;Node17</title>
<path fill="none" stroke="#9a32cd" stroke-dasharray="5,2" d="M945.63,-477.38C980.25,-473.02 1025.46,-467.33 1060.54,-462.92"/>
<polygon fill="#9a32cd" stroke="#9a32cd" points="945.32,-473.89 935.83,-478.61 946.19,-480.83 945.32,-473.89"/>
<text text-anchor="middle" x="1003" y="-477" font-family="Helvetica,sans-Serif" font-size="10.00"> mpLists</text>
</g>
<!-- Node19&#45;&gt;Node10 -->
<g id="edge27" class="edge">
<title>Node19&#45;&gt;Node10</title>
<path fill="none" stroke="#9a32cd" stroke-dasharray="5,2" d="M1533.44,-418.04C1373.28,-417.92 988.24,-416.34 963,-404 929.45,-387.6 906.55,-346.67 897.42,-327.8"/>
<polygon fill="#9a32cd" stroke="#9a32cd" points="1533.06,-421.54 1543.06,-418.04 1533.06,-414.54 1533.06,-421.54"/>
<text text-anchor="middle" x="1225" y="-419" font-family="Helvetica,sans-Serif" font-size="10.00"> mLyTg</text>
</g>
<!-- Node20&#45;&gt;Node10 -->
<g id="edge30" class="edge">
<title>Node20&#45;&gt;Node10</title>
<path fill="none" stroke="#9a32cd" stroke-dasharray="5,2" d="M543.77,-182.5C603.33,-192.75 726.6,-218.08 821,-265 844.48,-276.67 868.01,-296.58 880.92,-308.4"/>
<polygon fill="#9a32cd" stroke="#9a32cd" points="544.67,-179.1 534.22,-180.9 543.51,-186.01 544.67,-179.1"/>
<text text-anchor="middle" x="615.5" y="-213" font-family="Helvetica,sans-Serif" font-size="10.00"> mLnTg</text>
</g>
<!-- Node21&#45;&gt;Node10 -->
<g id="edge32" class="edge">
<title>Node21&#45;&gt;Node10</title>
<path fill="none" stroke="#9a32cd" stroke-dasharray="5,2" d="M1547.24,-263.89C1412.93,-259.28 1072.37,-250.95 963,-280 941.88,-285.61 920.17,-298.77 906.64,-308.02"/>
<polygon fill="#9a32cd" stroke="#9a32cd" points="1546.82,-267.37 1556.93,-264.23 1547.06,-260.38 1546.82,-267.37"/>
<text text-anchor="middle" x="1225" y="-263" font-family="Helvetica,sans-Serif" font-size="10.00"> mDtTg</text>
</g>
<!-- Node22&#45;&gt;Node10 -->
<g id="edge35" class="edge">
<title>Node22&#45;&gt;Node10</title>
<path fill="none" stroke="#9a32cd" stroke-dasharray="5,2" d="M683.79,-344.86C723.82,-343.49 775.5,-340.49 821,-334 831.37,-332.52 842.47,-330.29 852.7,-327.96"/>
<polygon fill="#9a32cd" stroke="#9a32cd" points="683.7,-341.36 673.81,-345.17 683.92,-348.36 683.7,-341.36"/>
<text text-anchor="middle" x="758.5" y="-347" font-family="Helvetica,sans-Serif" font-size="10.00"> mPi</text>
</g>
<!-- Node23 -->
<g id="node23" class="node">
<title>Node23</title>
<g id="a_node23"><a xlink:href="structprocess__priority__queue__info.html" target="_top" xlink:title=" ">
<polygon fill="white" stroke="#666666" points="462,-386.5 325,-386.5 325,-367.5 462,-367.5 462,-386.5"/>
<text text-anchor="middle" x="393.5" y="-374.5" font-family="Helvetica,sans-Serif" font-size="10.00">process_priority_queue_info</text>
</a>
</g>
</g>
<!-- Node23&#45;&gt;Node22 -->
<g id="edge38" class="edge">
<title>Node23&#45;&gt;Node22</title>
<path fill="none" stroke="#9a32cd" stroke-dasharray="5,2" d="M473.37,-365.89C501.62,-361.91 532.85,-357.51 558.73,-353.86"/>
<polygon fill="#9a32cd" stroke="#9a32cd" points="473.21,-362.37 463.8,-367.23 474.19,-369.31 473.21,-362.37"/>
<text text-anchor="middle" x="507.5" y="-378" font-family="Helvetica,sans-Serif" font-size="10.00"> mInfoCurr</text>
<text text-anchor="middle" x="507.5" y="-367" font-family="Helvetica,sans-Serif" font-size="10.00">mInfoQ</text>
</g>
<!-- Node24&#45;&gt;Node9 -->
<g id="edge40" class="edge">
<title>Node24&#45;&gt;Node9</title>
<path fill="none" stroke="#9a32cd" stroke-dasharray="5,2" d="M806.27,-454.76C811.26,-453.21 816.25,-451.61 821,-450 885.09,-428.25 898.67,-416.04 963,-395 1000,-382.9 1042.88,-371.61 1073.72,-363.95"/>
<polygon fill="#9a32cd" stroke="#9a32cd" points="805.44,-451.36 796.88,-457.6 807.47,-458.06 805.44,-451.36"/>
<text text-anchor="middle" x="892" y="-445" font-family="Helvetica,sans-Serif" font-size="10.00"> mpNodeMtd</text>
</g>
</g>
</svg>
        <g id="navigator" transform="translate(0 0)" fill="#404254">
                <rect fill="#f2f5e9" fill-opacity="0.5" stroke="#606060" stroke-width=".5" x="0" y="0" width="60" height="60"/>
                <use id="zoomplus" xlink:href="#zoomPlus" x="17" y="9" onmousedown="handleZoom(evt,'in')"/>
                <use id="zoomminus" xlink:href="#zoomMin" x="42" y="9" onmousedown="handleZoom(evt,'out')"/>
                <use id="reset" xlink:href="#resetDef" x="30" y="36" onmousedown="handleReset()"/>
                <g id="arrowUp" xlink:href="#dirArrow" transform="translate(30 24)" onmousedown="handlePan(0,-1)">
                  <use xlink:href="#rim" fill="#404040">
                        <set attributeName="fill" to="#808080" begin="arrowUp.mouseover" end="arrowUp.mouseout"/>
                  </use>
                  <path fill="none" stroke="white" stroke-width="1.5" d="M0,-3.0v7 M-2.5,-0.5L0,-3.0L2.5,-0.5"/>
                </g>
                <g id="arrowRight" xlink:href="#dirArrow" transform="rotate(90) translate(36 -43)" onmousedown="handlePan(1,0)">
                  <use xlink:href="#rim" fill="#404040">
                        <set attributeName="fill" to="#808080" begin="arrowRight.mouseover" end="arrowRight.mouseout"/>
                  </use>
                  <path fill="none" stroke="white" stroke-width="1.5" d="M0,-3.0v7 M-2.5,-0.5L0,-3.0L2.5,-0.5"/>
                </g>
                <g id="arrowDown" xlink:href="#dirArrow" transform="rotate(180) translate(-30 -48)" onmousedown="handlePan(0,1)">
                  <use xlink:href="#rim" fill="#404040">
                        <set attributeName="fill" to="#808080" begin="arrowDown.mouseover" end="arrowDown.mouseout"/>
                  </use>
                  <path fill="none" stroke="white" stroke-width="1.5" d="M0,-3.0v7 M-2.5,-0.5L0,-3.0L2.5,-0.5"/>
                </g>
                <g id="arrowLeft" xlink:href="#dirArrow" transform="rotate(270) translate(-36 17)" onmousedown="handlePan(-1,0)">
                  <use xlink:href="#rim" fill="#404040">
                        <set attributeName="fill" to="#808080" begin="arrowLeft.mouseover" end="arrowLeft.mouseout"/>
                  </use>
                  <path fill="none" stroke="white" stroke-width="1.5" d="M0,-3.0v7 M-2.5,-0.5L0,-3.0L2.5,-0.5"/>
                </g>
        </g>
        <svg viewBox="0 0 15 15" width="100%" height="30px" preserveAspectRatio="xMaxYMin meet">
         <g id="arrow_out" transform="scale(0.3 0.3)">
          <a xlink:href="classscene__request__class__coll__graph_org.svg" target="_base">
           <rect id="button" ry="5" rx="5" y="6" x="6" height="38" width="38"
                fill="#f2f5e9" fill-opacity="0.5" stroke="#606060" stroke-width="1.0"/>
           <path id="arrow"
             d="M 11.500037,31.436501 C 11.940474,20.09759 22.043105,11.32322 32.158766,21.979434 L 37.068811,17.246167 C 37.068811,17.246167 37.088388,32 37.088388,32 L 22.160133,31.978069 C 22.160133,31.978069 26.997745,27.140456 26.997745,27.140456 C 18.528582,18.264221 13.291696,25.230495 11.500037,31.436501 z"
             style="fill:#404040;"/>
          </a>
         </g>
        </svg>
</svg>
