<?xml version="1.0" encoding="UTF-8" standalone="no"?>
<!DOCTYPE svg PUBLIC "-//W3C//DTD SVG 1.1//EN"
 "http://www.w3.org/Graphics/SVG/1.1/DTD/svg11.dtd">
<!-- Generated by graphviz version 7.0.5 (20221223.1930)
 -->
<!-- Title: src/d/bg/d_bg_plc.cpp Pages: 1 -->
<svg width="437pt" height="214pt"
 viewBox="0.00 0.00 437.00 214.00" xmlns="http://www.w3.org/2000/svg" xmlns:xlink="http://www.w3.org/1999/xlink">
<g id="graph0" class="graph" transform="scale(1 1) rotate(0) translate(4 210)">
<title>src/d/bg/d_bg_plc.cpp</title>
<!-- Node1 -->
<g id="node1" class="node">
<title>Node1</title>
<g id="a_node1"><a xlink:title=" ">
<polygon fill="#999999" stroke="#666666" points="217.5,-206 105.5,-206 105.5,-187 217.5,-187 217.5,-206"/>
<text text-anchor="middle" x="161.5" y="-194" font-family="Helvetica,sans-Serif" font-size="10.00">src/d/bg/d_bg_plc.cpp</text>
</a>
</g>
</g>
<!-- Node2 -->
<g id="node2" class="node">
<title>Node2</title>
<g id="a_node2"><a xlink:href="d__bg__plc_8h.html" target="_top" xlink:title=" ">
<polygon fill="white" stroke="#666666" points="85,-145.5 0,-145.5 0,-126.5 85,-126.5 85,-145.5"/>
<text text-anchor="middle" x="42.5" y="-133.5" font-family="Helvetica,sans-Serif" font-size="10.00">d/bg/d_bg_plc.h</text>
</a>
</g>
</g>
<!-- Node1&#45;&gt;Node2 -->
<g id="edge1" class="edge">
<title>Node1&#45;&gt;Node2</title>
<path fill="none" stroke="#63b8ff" d="M143.43,-186.62C124.21,-177.17 93.53,-162.09 71.04,-151.03"/>
<polygon fill="#63b8ff" stroke="#63b8ff" points="72.62,-147.91 62.1,-146.64 69.53,-154.19 72.62,-147.91"/>
</g>
<!-- Node3 -->
<g id="node3" class="node">
<title>Node3</title>
<g id="a_node3"><a xlink:href="types_8h.html" target="_top" xlink:title=" ">
<polygon fill="white" stroke="#666666" points="118,-85 37,-85 37,-66 118,-66 118,-85"/>
<text text-anchor="middle" x="77.5" y="-73" font-family="Helvetica,sans-Serif" font-size="10.00">dolphin/types.h</text>
</a>
</g>
</g>
<!-- Node1&#45;&gt;Node3 -->
<g id="edge4" class="edge">
<title>Node1&#45;&gt;Node3</title>
<path fill="none" stroke="#63b8ff" d="M155.19,-186.56C141.44,-167.08 108.56,-120.5 90.29,-94.62"/>
<polygon fill="#63b8ff" stroke="#63b8ff" points="93.16,-92.61 84.53,-86.46 87.44,-96.65 93.16,-92.61"/>
</g>
<!-- Node5 -->
<g id="node5" class="node">
<title>Node5</title>
<g id="a_node5"><a xlink:title=" ">
<polygon fill="#e0e0e0" stroke="#999999" points="279.5,-151 141.5,-151 141.5,-121 279.5,-121 279.5,-151"/>
<text text-anchor="start" x="149.5" y="-139" font-family="Helvetica,sans-Serif" font-size="10.00">asm/d/bg/d_bg_plc/getCode</text>
<text text-anchor="middle" x="210.5" y="-128" font-family="Helvetica,sans-Serif" font-size="10.00">__6dBgPlcCFiPP5sBgPc.s</text>
</a>
</g>
</g>
<!-- Node1&#45;&gt;Node5 -->
<g id="edge5" class="edge">
<title>Node1&#45;&gt;Node5</title>
<path fill="none" stroke="#63b8ff" d="M168.73,-186.87C174.7,-179.74 183.46,-169.28 191.41,-159.79"/>
<polygon fill="#63b8ff" stroke="#63b8ff" points="193.97,-162.19 197.71,-152.27 188.6,-157.69 193.97,-162.19"/>
</g>
<!-- Node6 -->
<g id="node6" class="node">
<title>Node6</title>
<g id="a_node6"><a xlink:title=" ">
<polygon fill="#e0e0e0" stroke="#999999" points="429,-151 298,-151 298,-121 429,-121 429,-151"/>
<text text-anchor="start" x="306" y="-139" font-family="Helvetica,sans-Serif" font-size="10.00">asm/d/bg/d_bg_plc/getGrp</text>
<text text-anchor="middle" x="363.5" y="-128" font-family="Helvetica,sans-Serif" font-size="10.00">Code__6dBgPlcCFi.s</text>
</a>
</g>
</g>
<!-- Node1&#45;&gt;Node6 -->
<g id="edge6" class="edge">
<title>Node1&#45;&gt;Node6</title>
<path fill="none" stroke="#63b8ff" d="M192.18,-186.62C221.39,-178.16 266.17,-165.19 302.62,-154.63"/>
<polygon fill="#63b8ff" stroke="#63b8ff" points="303.55,-158 312.19,-151.86 301.61,-151.28 303.55,-158"/>
</g>
<!-- Node2&#45;&gt;Node3 -->
<g id="edge2" class="edge">
<title>Node2&#45;&gt;Node3</title>
<path fill="none" stroke="#63b8ff" d="M47.66,-126.37C52.63,-118.07 60.28,-105.28 66.6,-94.72"/>
<polygon fill="#63b8ff" stroke="#63b8ff" points="69.41,-96.84 71.54,-86.47 63.4,-93.25 69.41,-96.84"/>
</g>
<!-- Node4 -->
<g id="node4" class="node">
<title>Node4</title>
<g id="a_node4"><a xlink:href="stddef_8h.html" target="_top" xlink:title=" ">
<polygon fill="white" stroke="#666666" points="145.5,-30 9.5,-30 9.5,0 145.5,0 145.5,-30"/>
<text text-anchor="start" x="17.5" y="-18" font-family="Helvetica,sans-Serif" font-size="10.00">MSL_C/MSL_Common/Src</text>
<text text-anchor="middle" x="77.5" y="-7" font-family="Helvetica,sans-Serif" font-size="10.00">/stddef.h</text>
</a>
</g>
</g>
<!-- Node3&#45;&gt;Node4 -->
<g id="edge3" class="edge">
<title>Node3&#45;&gt;Node4</title>
<path fill="none" stroke="#63b8ff" d="M77.5,-65.87C77.5,-59.4 77.5,-50.2 77.5,-41.45"/>
<polygon fill="#63b8ff" stroke="#63b8ff" points="81,-41.63 77.5,-31.63 74,-41.63 81,-41.63"/>
</g>
</g>
</svg>
