<?xml version="1.0" encoding="UTF-8" standalone="no"?>
<!DOCTYPE svg PUBLIC "-//W3C//DTD SVG 1.1//EN"
 "http://www.w3.org/Graphics/SVG/1.1/DTD/svg11.dtd">
<!-- Generated by graphviz version 7.0.5 (20221223.1930)
 -->
<!-- Title: src/d/bg/d_bg_s_chk.cpp Pages: 1 -->
<svg width="262pt" height="390pt"
 viewBox="0.00 0.00 261.50 390.00" xmlns="http://www.w3.org/2000/svg" xmlns:xlink="http://www.w3.org/1999/xlink">
<g id="graph0" class="graph" transform="scale(1 1) rotate(0) translate(4 386)">
<title>src/d/bg/d_bg_s_chk.cpp</title>
<!-- Node1 -->
<g id="node1" class="node">
<title>Node1</title>
<g id="a_node1"><a xlink:title=" ">
<polygon fill="#999999" stroke="#666666" points="188.5,-382 63.5,-382 63.5,-363 188.5,-363 188.5,-382"/>
<text text-anchor="middle" x="126" y="-370" font-family="Helvetica,sans-Serif" font-size="10.00">src/d/bg/d_bg_s_chk.cpp</text>
</a>
</g>
</g>
<!-- Node2 -->
<g id="node2" class="node">
<title>Node2</title>
<g id="a_node2"><a xlink:href="d__bg__s__chk_8h.html" target="_top" xlink:title=" ">
<polygon fill="white" stroke="#666666" points="175,-327 77,-327 77,-308 175,-308 175,-327"/>
<text text-anchor="middle" x="126" y="-315" font-family="Helvetica,sans-Serif" font-size="10.00">d/bg/d_bg_s_chk.h</text>
</a>
</g>
</g>
<!-- Node1&#45;&gt;Node2 -->
<g id="edge1" class="edge">
<title>Node1&#45;&gt;Node2</title>
<path fill="none" stroke="#63b8ff" d="M126,-362.75C126,-356.27 126,-347.16 126,-338.9"/>
<polygon fill="#63b8ff" stroke="#63b8ff" points="129.5,-338.96 126,-328.96 122.5,-338.96 129.5,-338.96"/>
</g>
<!-- Node3 -->
<g id="node3" class="node">
<title>Node3</title>
<g id="a_node3"><a xlink:href="d__bg__s__grp__pass__chk_8h.html" target="_top" xlink:title=" ">
<polygon fill="white" stroke="#666666" points="140.5,-272 25.5,-272 25.5,-242 140.5,-242 140.5,-272"/>
<text text-anchor="start" x="33.5" y="-260" font-family="Helvetica,sans-Serif" font-size="10.00">d/bg/d_bg_s_grp_pass</text>
<text text-anchor="middle" x="83" y="-249" font-family="Helvetica,sans-Serif" font-size="10.00">_chk.h</text>
</a>
</g>
</g>
<!-- Node2&#45;&gt;Node3 -->
<g id="edge2" class="edge">
<title>Node2&#45;&gt;Node3</title>
<path fill="none" stroke="#63b8ff" d="M119.66,-307.87C114.52,-300.89 107.05,-290.71 100.18,-281.38"/>
<polygon fill="#63b8ff" stroke="#63b8ff" points="103.01,-279.32 94.27,-273.33 97.37,-283.46 103.01,-279.32"/>
</g>
<!-- Node8 -->
<g id="node8" class="node">
<title>Node8</title>
<g id="a_node8"><a xlink:href="d__bg__s__poly__pass__chk_8h.html" target="_top" xlink:title=" ">
<polygon fill="white" stroke="#666666" points="253.5,-206 134.5,-206 134.5,-176 253.5,-176 253.5,-206"/>
<text text-anchor="start" x="142.5" y="-194" font-family="Helvetica,sans-Serif" font-size="10.00">d/bg/d_bg_s_poly_pass</text>
<text text-anchor="middle" x="194" y="-183" font-family="Helvetica,sans-Serif" font-size="10.00">_chk.h</text>
</a>
</g>
</g>
<!-- Node2&#45;&gt;Node8 -->
<g id="edge7" class="edge">
<title>Node2&#45;&gt;Node8</title>
<path fill="none" stroke="#63b8ff" d="M130.89,-307.55C141.21,-288.66 165.49,-244.19 180.75,-216.25"/>
<polygon fill="#63b8ff" stroke="#63b8ff" points="183.66,-218.23 185.38,-207.77 177.52,-214.87 183.66,-218.23"/>
</g>
<!-- Node4 -->
<g id="node4" class="node">
<title>Node4</title>
<g id="a_node4"><a xlink:href="c__bg__s__chk_8h.html" target="_top" xlink:title=" ">
<polygon fill="white" stroke="#666666" points="116,-206 0,-206 0,-176 116,-176 116,-206"/>
<text text-anchor="start" x="8" y="-194" font-family="Helvetica,sans-Serif" font-size="10.00">SSystem/SComponent</text>
<text text-anchor="middle" x="58" y="-183" font-family="Helvetica,sans-Serif" font-size="10.00">/c_bg_s_chk.h</text>
</a>
</g>
</g>
<!-- Node3&#45;&gt;Node4 -->
<g id="edge3" class="edge">
<title>Node3&#45;&gt;Node4</title>
<path fill="none" stroke="#63b8ff" d="M77.45,-241.8C74.57,-234.42 70.97,-225.2 67.65,-216.7"/>
<polygon fill="#63b8ff" stroke="#63b8ff" points="70.98,-215.61 64.08,-207.57 64.46,-218.16 70.98,-215.61"/>
</g>
<!-- Node5 -->
<g id="node5" class="node">
<title>Node5</title>
<g id="a_node5"><a xlink:href="vec_8h.html" target="_top" xlink:title=" ">
<polygon fill="white" stroke="#666666" points="135,-140 43,-140 43,-121 135,-121 135,-140"/>
<text text-anchor="middle" x="89" y="-128" font-family="Helvetica,sans-Serif" font-size="10.00">dolphin/mtx/vec.h</text>
</a>
</g>
</g>
<!-- Node4&#45;&gt;Node5 -->
<g id="edge4" class="edge">
<title>Node4&#45;&gt;Node5</title>
<path fill="none" stroke="#63b8ff" d="M65.66,-175.54C69.71,-167.91 74.71,-158.46 79.05,-150.27"/>
<polygon fill="#63b8ff" stroke="#63b8ff" points="82.1,-151.99 83.69,-141.51 75.92,-148.71 82.1,-151.99"/>
</g>
<!-- Node6 -->
<g id="node6" class="node">
<title>Node6</title>
<g id="a_node6"><a xlink:href="types_8h.html" target="_top" xlink:title=" ">
<polygon fill="white" stroke="#666666" points="166.5,-85 85.5,-85 85.5,-66 166.5,-66 166.5,-85"/>
<text text-anchor="middle" x="126" y="-73" font-family="Helvetica,sans-Serif" font-size="10.00">dolphin/types.h</text>
</a>
</g>
</g>
<!-- Node5&#45;&gt;Node6 -->
<g id="edge5" class="edge">
<title>Node5&#45;&gt;Node6</title>
<path fill="none" stroke="#63b8ff" d="M95.11,-120.75C100.01,-113.73 107.05,-103.64 113.17,-94.87"/>
<polygon fill="#63b8ff" stroke="#63b8ff" points="116.04,-96.89 118.89,-86.68 110.3,-92.88 116.04,-96.89"/>
</g>
<!-- Node7 -->
<g id="node7" class="node">
<title>Node7</title>
<g id="a_node7"><a xlink:href="stddef_8h.html" target="_top" xlink:title=" ">
<polygon fill="white" stroke="#666666" points="194,-30 58,-30 58,0 194,0 194,-30"/>
<text text-anchor="start" x="66" y="-18" font-family="Helvetica,sans-Serif" font-size="10.00">MSL_C/MSL_Common/Src</text>
<text text-anchor="middle" x="126" y="-7" font-family="Helvetica,sans-Serif" font-size="10.00">/stddef.h</text>
</a>
</g>
</g>
<!-- Node6&#45;&gt;Node7 -->
<g id="edge6" class="edge">
<title>Node6&#45;&gt;Node7</title>
<path fill="none" stroke="#63b8ff" d="M126,-65.87C126,-59.4 126,-50.2 126,-41.45"/>
<polygon fill="#63b8ff" stroke="#63b8ff" points="129.5,-41.63 126,-31.63 122.5,-41.63 129.5,-41.63"/>
</g>
<!-- Node8&#45;&gt;Node6 -->
<g id="edge8" class="edge">
<title>Node8&#45;&gt;Node6</title>
<path fill="none" stroke="#63b8ff" d="M185.39,-175.63C173.1,-155.12 150.54,-117.47 137.04,-94.93"/>
<polygon fill="#63b8ff" stroke="#63b8ff" points="140.15,-93.31 132.01,-86.53 134.14,-96.9 140.15,-93.31"/>
</g>
</g>
</svg>
