<?xml version="1.0" encoding="UTF-8" standalone="no"?>
<!DOCTYPE svg PUBLIC "-//W3C//DTD SVG 1.1//EN"
 "http://www.w3.org/Graphics/SVG/1.1/DTD/svg11.dtd">
<!-- Generated by graphviz version 7.0.5 (20221223.1930)
 -->
<!-- Title: src/d/d_demo.cpp Pages: 1 -->
<!--zoomable 247 -->
<svg id="main" version="1.1" xmlns="http://www.w3.org/2000/svg" xmlns:xlink="http://www.w3.org/1999/xlink" xml:space="preserve" onload="init(evt)">
<style type="text/css"><![CDATA[
.edge:hover path { stroke: red; }
.edge:hover polygon { stroke: red; fill: red; }
]]></style>
<script type="text/javascript"><![CDATA[
var edges = document.getElementsByTagName('g');
if (edges && edges.length) {
  for (var i=0;i<edges.length;i++) {
    if (edges[i].id.substr(0,4)=='edge') {
      edges[i].setAttribute('class','edge');
    }
  }
}
]]></script>
        <defs>
                <circle id="rim" cx="0" cy="0" r="7"/>
                <circle id="rim2" cx="0" cy="0" r="3.5"/>
                <g id="zoomPlus">
                        <use xlink:href="#rim" fill="#404040">
                                <set attributeName="fill" to="#808080" begin="zoomplus.mouseover" end="zoomplus.mouseout"/>
                        </use>
                        <path d="M-4,0h8M0,-4v8" fill="none" stroke="white" stroke-width="1.5" pointer-events="none"/>
                </g>
                <g id="zoomMin">
                        <use xlink:href="#rim" fill="#404040">
                                <set attributeName="fill" to="#808080" begin="zoomminus.mouseover" end="zoomminus.mouseout"/>
                        </use>
                        <path d="M-4,0h8" fill="none" stroke="white" stroke-width="1.5" pointer-events="none"/>
                </g>
                <g id="dirArrow">
                        <path fill="none" stroke="white" stroke-width="1.5" d="M0,-3.0v7 M-2.5,-0.5L0,-3.0L2.5,-0.5"/>
                </g>
               <g id="resetDef">
                       <use xlink:href="#rim2" fill="#404040">
                               <set attributeName="fill" to="#808080" begin="reset.mouseover" end="reset.mouseout"/>
                       </use>
               </g>
        </defs>

<script type="text/javascript">
var viewWidth = 5993;
var viewHeight = 247;
var sectionId = 'dynsection-0';
</script>
<script xlink:href="svgpan.js"/>
<svg id="graph" class="graph">
<g id="viewport">
<title>src/d/d_demo.cpp</title>
<!-- Node1 -->
<g id="node1" class="node">
<title>Node1</title>
<g id="a_node1"><a xlink:title=" ">
<polygon fill="#999999" stroke="#666666" points="3513.5,-239 3419.5,-239 3419.5,-220 3513.5,-220 3513.5,-239"/>
<text text-anchor="middle" x="3466.5" y="-227" font-family="Helvetica,sans-Serif" font-size="10.00">src/d/d_demo.cpp</text>
</a>
</g>
</g>
<!-- Node2 -->
<g id="node2" class="node">
<title>Node2</title>
<g id="a_node2"><a xlink:href="d__demo_8h.html" target="_top" xlink:title=" ">
<polygon fill="white" stroke="#666666" points="635,-167.5 568,-167.5 568,-148.5 635,-148.5 635,-167.5"/>
<text text-anchor="middle" x="601.5" y="-155.5" font-family="Helvetica,sans-Serif" font-size="10.00">d/d_demo.h</text>
</a>
</g>
</g>
<!-- Node1&#45;&gt;Node2 -->
<g id="edge1" class="edge">
<title>Node1&#45;&gt;Node2</title>
<path fill="none" stroke="#63b8ff" d="M3419.1,-227.92C3182.31,-224.95 2104.07,-210.54 1221.5,-184 1006.32,-177.53 749.28,-165.93 646.86,-161.15"/>
<polygon fill="#63b8ff" stroke="#63b8ff" points="647.1,-157.65 636.94,-160.68 646.77,-164.65 647.1,-157.65"/>
</g>
<!-- Node17 -->
<g id="node10" class="node">
<title>Node17</title>
<g id="a_node10"><a xlink:href="global_8h.html" target="_top" xlink:title=" ">
<polygon fill="#fff0f0" stroke="red" points="1390.5,-24.5 1340.5,-24.5 1340.5,-5.5 1390.5,-5.5 1390.5,-24.5"/>
<text text-anchor="middle" x="1365.5" y="-12.5" font-family="Helvetica,sans-Serif" font-size="10.00">global.h</text>
</a>
</g>
</g>
<!-- Node1&#45;&gt;Node17 -->
<g id="edge26" class="edge">
<title>Node1&#45;&gt;Node17</title>
<path fill="none" stroke="#63b8ff" d="M3419,-228.58C3129.72,-228.9 1614.21,-228.46 1527.5,-184 1469.05,-154.03 1486,-111.38 1438.5,-66 1424.15,-52.29 1405.69,-39.69 1390.93,-30.56"/>
<polygon fill="#63b8ff" stroke="#63b8ff" points="1393.06,-27.76 1382.69,-25.61 1389.46,-33.76 1393.06,-27.76"/>
</g>
<!-- Node101 -->
<g id="node12" class="node">
<title>Node101</title>
<g id="a_node12"><a xlink:href="d__msg__object_8h.html" target="_top" xlink:title=" ">
<polygon fill="white" stroke="#666666" points="1346,-167.5 1231,-167.5 1231,-148.5 1346,-148.5 1346,-167.5"/>
<text text-anchor="middle" x="1288.5" y="-155.5" font-family="Helvetica,sans-Serif" font-size="10.00">d/msg/d_msg_object.h</text>
</a>
</g>
</g>
<!-- Node1&#45;&gt;Node101 -->
<g id="edge11" class="edge">
<title>Node1&#45;&gt;Node101</title>
<path fill="none" stroke="#63b8ff" d="M3419.3,-228.35C3153.89,-227.35 1845.17,-220.63 1443.5,-184 1410.67,-181.01 1374.26,-175.26 1344.99,-170.03"/>
<polygon fill="#63b8ff" stroke="#63b8ff" points="1345.69,-166.6 1335.22,-168.26 1344.43,-173.49 1345.69,-166.6"/>
</g>
<!-- Node254 -->
<g id="node16" class="node">
<title>Node254</title>
<g id="a_node16"><a xlink:href="dol2asm_8h.html" target="_top" xlink:title=" ">
<polygon fill="white" stroke="#666666" points="1598,-167.5 1537,-167.5 1537,-148.5 1598,-148.5 1598,-167.5"/>
<text text-anchor="middle" x="1567.5" y="-155.5" font-family="Helvetica,sans-Serif" font-size="10.00">dol2asm.h</text>
</a>
</g>
</g>
<!-- Node1&#45;&gt;Node254 -->
<g id="edge17" class="edge">
<title>Node1&#45;&gt;Node254</title>
<path fill="none" stroke="#63b8ff" d="M3419.33,-228.08C3138.58,-225.46 1696.79,-210.77 1607.5,-184 1600.57,-181.92 1593.65,-178.3 1587.57,-174.44"/>
<polygon fill="#63b8ff" stroke="#63b8ff" points="1589.71,-171.67 1579.5,-168.83 1585.72,-177.42 1589.71,-171.67"/>
</g>
<!-- Node19 -->
<g id="node17" class="node">
<title>Node19</title>
<g id="a_node17"><a xlink:href="OS_8h.html" target="_top" xlink:title=" ">
<polygon fill="#fff0f0" stroke="red" points="1702.5,-167.5 1616.5,-167.5 1616.5,-148.5 1702.5,-148.5 1702.5,-167.5"/>
<text text-anchor="middle" x="1659.5" y="-155.5" font-family="Helvetica,sans-Serif" font-size="10.00">dolphin/os/OS.h</text>
</a>
</g>
</g>
<!-- Node1&#45;&gt;Node19 -->
<g id="edge18" class="edge">
<title>Node1&#45;&gt;Node19</title>
<path fill="none" stroke="#63b8ff" d="M3419.01,-228.49C3155.77,-228.25 1881.4,-224.99 1711.5,-184 1702.05,-181.72 1692.3,-177.58 1683.82,-173.31"/>
<polygon fill="#63b8ff" stroke="#63b8ff" points="1685.69,-170.34 1675.23,-168.69 1682.38,-176.51 1685.69,-170.34"/>
</g>
<!-- Node255 -->
<g id="node24" class="node">
<title>Node255</title>
<g id="a_node24"><a xlink:href="f__op__actor__mng_8h.html" target="_top" xlink:title=" ">
<polygon fill="#fff0f0" stroke="red" points="1836.5,-167.5 1720.5,-167.5 1720.5,-148.5 1836.5,-148.5 1836.5,-167.5"/>
<text text-anchor="middle" x="1778.5" y="-155.5" font-family="Helvetica,sans-Serif" font-size="10.00">f_op/f_op_actor_mng.h</text>
</a>
</g>
</g>
<!-- Node1&#45;&gt;Node255 -->
<g id="edge25" class="edge">
<title>Node1&#45;&gt;Node255</title>
<path fill="none" stroke="#63b8ff" d="M3419.08,-228.11C3168.51,-225.95 2004.16,-214.3 1846.5,-184 1833.58,-181.52 1819.87,-176.89 1808.17,-172.29"/>
<polygon fill="#63b8ff" stroke="#63b8ff" points="1809.64,-169.11 1799.06,-168.53 1806.97,-175.58 1809.64,-169.11"/>
</g>
<!-- Node266 -->
<g id="node25" class="node">
<title>Node266</title>
<g id="a_node25"><a xlink:href="m__Do__graphic_8h.html" target="_top" xlink:title=" ">
<polygon fill="#fff0f0" stroke="red" points="1970,-167.5 1855,-167.5 1855,-148.5 1970,-148.5 1970,-167.5"/>
<text text-anchor="middle" x="1912.5" y="-155.5" font-family="Helvetica,sans-Serif" font-size="10.00">m_Do/m_Do_graphic.h</text>
</a>
</g>
</g>
<!-- Node1&#45;&gt;Node266 -->
<g id="edge27" class="edge">
<title>Node1&#45;&gt;Node266</title>
<path fill="none" stroke="#63b8ff" d="M3419.11,-228C3181.27,-225.38 2123.34,-212.19 1979.5,-184 1966.76,-181.5 1953.25,-176.87 1941.72,-172.27"/>
<polygon fill="#63b8ff" stroke="#63b8ff" points="1943.34,-169.16 1932.76,-168.52 1940.63,-175.61 1943.34,-169.16"/>
</g>
<!-- Node273 -->
<g id="node26" class="node">
<title>Node273</title>
<g id="a_node26"><a xlink:href="d__a__movie__player_8h.html" target="_top" xlink:title=" ">
<polygon fill="#fff0f0" stroke="red" points="2113,-173 1988,-173 1988,-143 2113,-143 2113,-173"/>
<text text-anchor="start" x="1996" y="-161" font-family="Helvetica,sans-Serif" font-size="10.00">rel/d/a/d_a_movie_player</text>
<text text-anchor="middle" x="2050.5" y="-150" font-family="Helvetica,sans-Serif" font-size="10.00">/d_a_movie_player.h</text>
</a>
</g>
</g>
<!-- Node1&#45;&gt;Node273 -->
<g id="edge28" class="edge">
<title>Node1&#45;&gt;Node273</title>
<path fill="none" stroke="#63b8ff" d="M3419.07,-228.84C3211.11,-230.02 2378.86,-231.62 2122.5,-184 2113.72,-182.37 2104.56,-179.86 2095.84,-177.05"/>
<polygon fill="#63b8ff" stroke="#63b8ff" points="2097.11,-173.78 2086.52,-173.86 2094.84,-180.41 2097.11,-173.78"/>
</g>
<!-- Node274 -->
<g id="node27" class="node">
<title>Node274</title>
<g id="a_node27"><a xlink:title=" ">
<polygon fill="#e0e0e0" stroke="#999999" points="2291.5,-167.5 2131.5,-167.5 2131.5,-148.5 2291.5,-148.5 2291.5,-167.5"/>
<text text-anchor="middle" x="2211.5" y="-155.5" font-family="Helvetica,sans-Serif" font-size="10.00">asm/d/d_demo/func_80037ED4.s</text>
</a>
</g>
</g>
<!-- Node1&#45;&gt;Node274 -->
<g id="edge29" class="edge">
<title>Node1&#45;&gt;Node274</title>
<path fill="none" stroke="#63b8ff" d="M3419.15,-228.18C3229.13,-226.66 2521.51,-218.76 2300.5,-184 2283.02,-181.25 2264.09,-176.23 2248.2,-171.41"/>
<polygon fill="#63b8ff" stroke="#63b8ff" points="2249.27,-168.08 2238.68,-168.42 2247.17,-174.76 2249.27,-168.08"/>
</g>
<!-- Node275 -->
<g id="node28" class="node">
<title>Node275</title>
<g id="a_node28"><a xlink:title=" ">
<polygon fill="#e0e0e0" stroke="#999999" points="2469.5,-167.5 2309.5,-167.5 2309.5,-148.5 2469.5,-148.5 2469.5,-167.5"/>
<text text-anchor="middle" x="2389.5" y="-155.5" font-family="Helvetica,sans-Serif" font-size="10.00">asm/d/d_demo/func_80037DE4.s</text>
</a>
</g>
</g>
<!-- Node1&#45;&gt;Node275 -->
<g id="edge30" class="edge">
<title>Node1&#45;&gt;Node275</title>
<path fill="none" stroke="#63b8ff" d="M3419.28,-227.8C3248.47,-225.06 2663.07,-213.68 2478.5,-184 2461.03,-181.19 2442.1,-176.17 2426.21,-171.35"/>
<polygon fill="#63b8ff" stroke="#63b8ff" points="2427.28,-168.02 2416.69,-168.37 2425.19,-174.7 2427.28,-168.02"/>
</g>
<!-- Node276 -->
<g id="node29" class="node">
<title>Node276</title>
<g id="a_node29"><a xlink:title=" ">
<polygon fill="#e0e0e0" stroke="#999999" points="2645.5,-167.5 2487.5,-167.5 2487.5,-148.5 2645.5,-148.5 2645.5,-167.5"/>
<text text-anchor="middle" x="2566.5" y="-155.5" font-family="Helvetica,sans-Serif" font-size="10.00">asm/d/d_demo/func_80037E44.s</text>
</a>
</g>
</g>
<!-- Node1&#45;&gt;Node276 -->
<g id="edge31" class="edge">
<title>Node1&#45;&gt;Node276</title>
<path fill="none" stroke="#63b8ff" d="M3419.08,-227.28C3268.63,-223.21 2803.15,-208.87 2654.5,-184 2637.36,-181.13 2618.79,-176.15 2603.15,-171.38"/>
<polygon fill="#63b8ff" stroke="#63b8ff" points="2604.37,-168.1 2593.78,-168.43 2602.27,-174.77 2604.37,-168.1"/>
</g>
<!-- Node277 -->
<g id="node30" class="node">
<title>Node277</title>
<g id="a_node30"><a xlink:title=" ">
<polygon fill="#e0e0e0" stroke="#999999" points="2821.5,-167.5 2663.5,-167.5 2663.5,-148.5 2821.5,-148.5 2821.5,-167.5"/>
<text text-anchor="middle" x="2742.5" y="-155.5" font-family="Helvetica,sans-Serif" font-size="10.00">asm/d/d_demo/func_80037E74.s</text>
</a>
</g>
</g>
<!-- Node1&#45;&gt;Node277 -->
<g id="edge32" class="edge">
<title>Node1&#45;&gt;Node277</title>
<path fill="none" stroke="#63b8ff" d="M3419.1,-228.47C3313.02,-227.67 3048.72,-221.71 2831.5,-184 2814.32,-181.02 2795.7,-176.06 2779.95,-171.35"/>
<polygon fill="#63b8ff" stroke="#63b8ff" points="2781.08,-168.04 2770.49,-168.44 2779.02,-174.73 2781.08,-168.04"/>
</g>
<!-- Node278 -->
<g id="node31" class="node">
<title>Node278</title>
<g id="a_node31"><a xlink:title=" ">
<polygon fill="#e0e0e0" stroke="#999999" points="2959,-173 2840,-173 2840,-143 2959,-143 2959,-173"/>
<text text-anchor="start" x="2848" y="-161" font-family="Helvetica,sans-Serif" font-size="10.00">asm/d/d_demo/__ct_</text>
<text text-anchor="middle" x="2899.5" y="-150" font-family="Helvetica,sans-Serif" font-size="10.00">_13dDemo_actor_cFv.s</text>
</a>
</g>
</g>
<!-- Node1&#45;&gt;Node278 -->
<g id="edge33" class="edge">
<title>Node1&#45;&gt;Node278</title>
<path fill="none" stroke="#63b8ff" d="M3419.19,-228.32C3329.98,-227.08 3131.2,-220.1 2968.5,-184 2960.64,-182.26 2952.45,-179.85 2944.58,-177.21"/>
<polygon fill="#63b8ff" stroke="#63b8ff" points="2945.75,-173.91 2935.16,-173.88 2943.42,-180.51 2945.75,-173.91"/>
</g>
<!-- Node279 -->
<g id="node32" class="node">
<title>Node279</title>
<g id="a_node32"><a xlink:title=" ">
<polygon fill="#e0e0e0" stroke="#999999" points="3096,-173 2977,-173 2977,-143 3096,-143 3096,-173"/>
<text text-anchor="start" x="2985" y="-161" font-family="Helvetica,sans-Serif" font-size="10.00">asm/d/d_demo/__dt_</text>
<text text-anchor="middle" x="3036.5" y="-150" font-family="Helvetica,sans-Serif" font-size="10.00">_13dDemo_actor_cFv.s</text>
</a>
</g>
</g>
<!-- Node1&#45;&gt;Node279 -->
<g id="edge34" class="edge">
<title>Node1&#45;&gt;Node279</title>
<path fill="none" stroke="#63b8ff" d="M3419.17,-226.06C3349.61,-221.72 3216.04,-210.48 3105.5,-184 3097.84,-182.16 3089.85,-179.76 3082.14,-177.16"/>
<polygon fill="#63b8ff" stroke="#63b8ff" points="3083.51,-173.93 3072.92,-173.91 3081.18,-180.53 3083.51,-173.93"/>
</g>
<!-- Node280 -->
<g id="node33" class="node">
<title>Node280</title>
<g id="a_node33"><a xlink:title=" ">
<polygon fill="#e0e0e0" stroke="#999999" points="3263,-173 3114,-173 3114,-143 3263,-143 3263,-173"/>
<text text-anchor="start" x="3122" y="-161" font-family="Helvetica,sans-Serif" font-size="10.00">asm/d/d_demo/getPrm</text>
<text text-anchor="middle" x="3188.5" y="-150" font-family="Helvetica,sans-Serif" font-size="10.00">_Morf__13dDemo_actor_cFv.s</text>
</a>
</g>
</g>
<!-- Node1&#45;&gt;Node280 -->
<g id="edge35" class="edge">
<title>Node1&#45;&gt;Node280</title>
<path fill="none" stroke="#63b8ff" d="M3423.92,-219.55C3384.49,-211.07 3324.3,-197.63 3272.5,-184 3263.91,-181.74 3254.88,-179.21 3246.04,-176.65"/>
<polygon fill="#63b8ff" stroke="#63b8ff" points="3247.04,-173.3 3236.46,-173.84 3245.07,-180.02 3247.04,-173.3"/>
</g>
<!-- Node281 -->
<g id="node34" class="node">
<title>Node281</title>
<g id="a_node34"><a xlink:title=" ">
<polygon fill="#e0e0e0" stroke="#999999" points="3466,-173 3281,-173 3281,-143 3466,-143 3466,-173"/>
<text text-anchor="start" x="3289" y="-161" font-family="Helvetica,sans-Serif" font-size="10.00">asm/d/d_demo/getDemoIDData</text>
<text text-anchor="middle" x="3373.5" y="-150" font-family="Helvetica,sans-Serif" font-size="10.00">__13dDemo_actor_cFPiPiPiPUsPUc.s</text>
</a>
</g>
</g>
<!-- Node1&#45;&gt;Node281 -->
<g id="edge36" class="edge">
<title>Node1&#45;&gt;Node281</title>
<path fill="none" stroke="#63b8ff" d="M3454.72,-219.7C3441.4,-209.74 3419.25,-193.19 3401.45,-179.89"/>
<polygon fill="#63b8ff" stroke="#63b8ff" points="3403.92,-177.36 3393.81,-174.18 3399.73,-182.97 3403.92,-177.36"/>
</g>
<!-- Node282 -->
<g id="node35" class="node">
<title>Node282</title>
<g id="a_node35"><a xlink:title=" ">
<polygon fill="#e0e0e0" stroke="#999999" points="3637,-173 3484,-173 3484,-143 3637,-143 3637,-173"/>
<text text-anchor="start" x="3492" y="-161" font-family="Helvetica,sans-Serif" font-size="10.00">asm/d/d_demo/dDemo</text>
<text text-anchor="middle" x="3560.5" y="-150" font-family="Helvetica,sans-Serif" font-size="10.00">_getJaiPointer__FPCcUliPUs.s</text>
</a>
</g>
</g>
<!-- Node1&#45;&gt;Node282 -->
<g id="edge37" class="edge">
<title>Node1&#45;&gt;Node282</title>
<path fill="none" stroke="#63b8ff" d="M3478.41,-219.7C3491.87,-209.74 3514.25,-193.19 3532.25,-179.89"/>
<polygon fill="#63b8ff" stroke="#63b8ff" points="3534.02,-182.93 3539.98,-174.17 3529.86,-177.3 3534.02,-182.93"/>
</g>
<!-- Node283 -->
<g id="node36" class="node">
<title>Node283</title>
<g id="a_node36"><a xlink:title=" ">
<polygon fill="#e0e0e0" stroke="#999999" points="3846,-184 3655,-184 3655,-132 3846,-132 3846,-184"/>
<text text-anchor="start" x="3663" y="-172" font-family="Helvetica,sans-Serif" font-size="10.00">asm/d/d_demo/dDemo</text>
<text text-anchor="start" x="3663" y="-161" font-family="Helvetica,sans-Serif" font-size="10.00">_setDemoData__FP10fopAc</text>
<text text-anchor="start" x="3663" y="-150" font-family="Helvetica,sans-Serif" font-size="10.00">_ac_cUcP14mDoExt_McaMorfPCciPUs</text>
<text text-anchor="middle" x="3750.5" y="-139" font-family="Helvetica,sans-Serif" font-size="10.00">UlSc.s</text>
</a>
</g>
</g>
<!-- Node1&#45;&gt;Node283 -->
<g id="edge38" class="edge">
<title>Node1&#45;&gt;Node283</title>
<path fill="none" stroke="#63b8ff" d="M3503.05,-219.56C3538.49,-210.88 3594.02,-197.29 3643.51,-185.18"/>
<polygon fill="#63b8ff" stroke="#63b8ff" points="3644.27,-188.6 3653.15,-182.82 3642.6,-181.8 3644.27,-188.6"/>
</g>
<!-- Node284 -->
<g id="node37" class="node">
<title>Node284</title>
<g id="a_node37"><a xlink:title=" ">
<polygon fill="#e0e0e0" stroke="#999999" points="4022.5,-173 3864.5,-173 3864.5,-143 4022.5,-143 4022.5,-173"/>
<text text-anchor="start" x="3872.5" y="-161" font-family="Helvetica,sans-Serif" font-size="10.00">asm/d/d_demo/JSGSetData</text>
<text text-anchor="middle" x="3943.5" y="-150" font-family="Helvetica,sans-Serif" font-size="10.00">__13dDemo_actor_cFUlPCvUl.s</text>
</a>
</g>
</g>
<!-- Node1&#45;&gt;Node284 -->
<g id="edge39" class="edge">
<title>Node1&#45;&gt;Node284</title>
<path fill="none" stroke="#63b8ff" d="M3513.89,-225.58C3587.53,-220.48 3733.64,-208.11 3855.5,-184 3865.91,-181.94 3876.87,-179.25 3887.4,-176.41"/>
<polygon fill="#63b8ff" stroke="#63b8ff" points="3888.02,-179.87 3896.71,-173.81 3886.14,-173.13 3888.02,-179.87"/>
</g>
<!-- Node285 -->
<g id="node38" class="node">
<title>Node285</title>
<g id="a_node38"><a xlink:title=" ">
<polygon fill="#e0e0e0" stroke="#999999" points="4208,-173 4041,-173 4041,-143 4208,-143 4208,-173"/>
<text text-anchor="start" x="4049" y="-161" font-family="Helvetica,sans-Serif" font-size="10.00">asm/d/d_demo/JSGSetTranslation</text>
<text text-anchor="middle" x="4124.5" y="-150" font-family="Helvetica,sans-Serif" font-size="10.00">__13dDemo_actor_cFRC3Vec.s</text>
</a>
</g>
</g>
<!-- Node1&#45;&gt;Node285 -->
<g id="edge40" class="edge">
<title>Node1&#45;&gt;Node285</title>
<path fill="none" stroke="#63b8ff" d="M3513.74,-227.71C3611.22,-225.43 3841.45,-216.74 4031.5,-184 4042.99,-182.02 4055.12,-179.27 4066.68,-176.3"/>
<polygon fill="#63b8ff" stroke="#63b8ff" points="4067.33,-179.75 4076.1,-173.81 4065.54,-172.99 4067.33,-179.75"/>
</g>
<!-- Node286 -->
<g id="node39" class="node">
<title>Node286</title>
<g id="a_node39"><a xlink:title=" ">
<polygon fill="#e0e0e0" stroke="#999999" points="4384.5,-173 4226.5,-173 4226.5,-143 4384.5,-143 4384.5,-173"/>
<text text-anchor="start" x="4234.5" y="-161" font-family="Helvetica,sans-Serif" font-size="10.00">asm/d/d_demo/JSGGetViewRoll</text>
<text text-anchor="middle" x="4305.5" y="-150" font-family="Helvetica,sans-Serif" font-size="10.00">__14dDemo_camera_cCFv.s</text>
</a>
</g>
</g>
<!-- Node1&#45;&gt;Node286 -->
<g id="edge41" class="edge">
<title>Node1&#45;&gt;Node286</title>
<path fill="none" stroke="#63b8ff" d="M3513.92,-229.25C3633.1,-230.36 3954.48,-228.61 4217.5,-184 4228.31,-182.17 4239.69,-179.51 4250.54,-176.59"/>
<polygon fill="#63b8ff" stroke="#63b8ff" points="4251.47,-179.97 4260.16,-173.9 4249.58,-173.23 4251.47,-179.97"/>
</g>
<!-- Node287 -->
<g id="node40" class="node">
<title>Node287</title>
<g id="a_node40"><a xlink:title=" ">
<polygon fill="#e0e0e0" stroke="#999999" points="4514,-173 4403,-173 4403,-143 4514,-143 4514,-173"/>
<text text-anchor="start" x="4411" y="-161" font-family="Helvetica,sans-Serif" font-size="10.00">asm/d/d_demo/__dt_</text>
<text text-anchor="middle" x="4458.5" y="-150" font-family="Helvetica,sans-Serif" font-size="10.00">_11dDemo_fog_cFv.s</text>
</a>
</g>
</g>
<!-- Node1&#45;&gt;Node287 -->
<g id="edge42" class="edge">
<title>Node1&#45;&gt;Node287</title>
<path fill="none" stroke="#63b8ff" d="M3513.99,-228.21C3678.46,-226.91 4222.93,-219.92 4393.5,-184 4401.05,-182.41 4408.88,-180.06 4416.37,-177.42"/>
<polygon fill="#63b8ff" stroke="#63b8ff" points="4417.5,-180.74 4425.63,-173.95 4415.04,-174.19 4417.5,-180.74"/>
</g>
<!-- Node288 -->
<g id="node41" class="node">
<title>Node288</title>
<g id="a_node41"><a xlink:title=" ">
<polygon fill="#e0e0e0" stroke="#999999" points="4648.5,-173 4532.5,-173 4532.5,-143 4648.5,-143 4648.5,-173"/>
<text text-anchor="start" x="4540.5" y="-161" font-family="Helvetica,sans-Serif" font-size="10.00">asm/d/d_demo/__dt_</text>
<text text-anchor="middle" x="4590.5" y="-150" font-family="Helvetica,sans-Serif" font-size="10.00">_13dDemo_light_cFv.s</text>
</a>
</g>
</g>
<!-- Node1&#45;&gt;Node288 -->
<g id="edge43" class="edge">
<title>Node1&#45;&gt;Node288</title>
<path fill="none" stroke="#63b8ff" d="M3513.7,-228.48C3692.25,-228.1 4326.26,-223.9 4523.5,-184 4531.36,-182.41 4539.51,-180.03 4547.32,-177.36"/>
<polygon fill="#63b8ff" stroke="#63b8ff" points="4548.43,-180.68 4556.63,-173.97 4546.03,-174.11 4548.43,-180.68"/>
</g>
<!-- Node289 -->
<g id="node42" class="node">
<title>Node289</title>
<g id="a_node42"><a xlink:title=" ">
<polygon fill="#e0e0e0" stroke="#999999" points="4798.5,-173 4666.5,-173 4666.5,-143 4798.5,-143 4798.5,-173"/>
<text text-anchor="start" x="4674.5" y="-161" font-family="Helvetica,sans-Serif" font-size="10.00">asm/d/d_demo/__dt_</text>
<text text-anchor="middle" x="4732.5" y="-150" font-family="Helvetica,sans-Serif" font-size="10.00">_15dDemo_ambient_cFv.s</text>
</a>
</g>
</g>
<!-- Node1&#45;&gt;Node289 -->
<g id="edge44" class="edge">
<title>Node1&#45;&gt;Node289</title>
<path fill="none" stroke="#63b8ff" d="M3513.93,-228.52C3706.75,-228.34 4432.28,-224.88 4657.5,-184 4666.62,-182.34 4676.15,-179.82 4685.24,-177.01"/>
<polygon fill="#63b8ff" stroke="#63b8ff" points="4686.19,-180.38 4694.6,-173.94 4684.01,-173.72 4686.19,-180.38"/>
</g>
<!-- Node290 -->
<g id="node43" class="node">
<title>Node290</title>
<g id="a_node43"><a xlink:title=" ">
<polygon fill="#e0e0e0" stroke="#999999" points="4928,-173 4817,-173 4817,-143 4928,-143 4928,-173"/>
<text text-anchor="start" x="4825" y="-161" font-family="Helvetica,sans-Serif" font-size="10.00">asm/d/d_demo/create</text>
<text text-anchor="middle" x="4872.5" y="-150" font-family="Helvetica,sans-Serif" font-size="10.00">__7dDemo_cFv.s</text>
</a>
</g>
</g>
<!-- Node1&#45;&gt;Node290 -->
<g id="edge45" class="edge">
<title>Node1&#45;&gt;Node290</title>
<path fill="none" stroke="#63b8ff" d="M3513.96,-227.86C3737.38,-224.73 4678.87,-210.1 4807.5,-184 4815.14,-182.45 4823.06,-180.09 4830.63,-177.44"/>
<polygon fill="#63b8ff" stroke="#63b8ff" points="4831.85,-180.71 4839.98,-173.92 4829.39,-174.16 4831.85,-180.71"/>
</g>
<!-- Node291 -->
<g id="node44" class="node">
<title>Node291</title>
<g id="a_node44"><a xlink:title=" ">
<polygon fill="#e0e0e0" stroke="#999999" points="5062.5,-173 4946.5,-173 4946.5,-143 5062.5,-143 5062.5,-173"/>
<text text-anchor="start" x="4954.5" y="-161" font-family="Helvetica,sans-Serif" font-size="10.00">asm/d/d_demo/remove</text>
<text text-anchor="middle" x="5004.5" y="-150" font-family="Helvetica,sans-Serif" font-size="10.00">__7dDemo_cFv.s</text>
</a>
</g>
</g>
<!-- Node1&#45;&gt;Node291 -->
<g id="edge46" class="edge">
<title>Node1&#45;&gt;Node291</title>
<path fill="none" stroke="#63b8ff" d="M3513.77,-227.99C3749.81,-225.3 4795.29,-211.89 4937.5,-184 4945.54,-182.42 4953.89,-180 4961.85,-177.27"/>
<polygon fill="#63b8ff" stroke="#63b8ff" points="4962.8,-180.65 4970.98,-173.92 4960.39,-174.07 4962.8,-180.65"/>
</g>
<!-- Node292 -->
<g id="node45" class="node">
<title>Node292</title>
<g id="a_node45"><a xlink:title=" ">
<polygon fill="#e0e0e0" stroke="#999999" points="5210,-173 5081,-173 5081,-143 5210,-143 5210,-173"/>
<text text-anchor="start" x="5089" y="-161" font-family="Helvetica,sans-Serif" font-size="10.00">asm/d/d_demo/__dt_</text>
<text text-anchor="middle" x="5145.5" y="-150" font-family="Helvetica,sans-Serif" font-size="10.00">_14dDemo_system_cFv.s</text>
</a>
</g>
</g>
<!-- Node1&#45;&gt;Node292 -->
<g id="edge47" class="edge">
<title>Node1&#45;&gt;Node292</title>
<path fill="none" stroke="#63b8ff" d="M3513.88,-228.03C3762.92,-225.42 4915,-211.95 5071.5,-184 5080.61,-182.37 5090.12,-179.84 5099.18,-176.99"/>
<polygon fill="#63b8ff" stroke="#63b8ff" points="5100.11,-180.37 5108.5,-173.89 5097.9,-173.73 5100.11,-180.37"/>
</g>
<!-- Node293 -->
<g id="node46" class="node">
<title>Node293</title>
<g id="a_node46"><a xlink:title=" ">
<polygon fill="#e0e0e0" stroke="#999999" points="5360.5,-173 5228.5,-173 5228.5,-143 5360.5,-143 5360.5,-173"/>
<text text-anchor="start" x="5236.5" y="-161" font-family="Helvetica,sans-Serif" font-size="10.00">asm/d/d_demo/__dt_</text>
<text text-anchor="middle" x="5294.5" y="-150" font-family="Helvetica,sans-Serif" font-size="10.00">_17jmessage_tControlFv.s</text>
</a>
</g>
</g>
<!-- Node1&#45;&gt;Node293 -->
<g id="edge48" class="edge">
<title>Node1&#45;&gt;Node293</title>
<path fill="none" stroke="#63b8ff" d="M3513.86,-228.13C3776.41,-226 5047.55,-214.15 5219.5,-184 5228.73,-182.38 5238.36,-179.85 5247.54,-177.01"/>
<polygon fill="#63b8ff" stroke="#63b8ff" points="5248.59,-180.34 5257,-173.9 5246.41,-173.69 5248.59,-180.34"/>
</g>
<!-- Node294 -->
<g id="node47" class="node">
<title>Node294</title>
<g id="a_node47"><a xlink:title=" ">
<polygon fill="#e0e0e0" stroke="#999999" points="5516,-178.5 5379,-178.5 5379,-137.5 5516,-137.5 5516,-178.5"/>
<text text-anchor="start" x="5387" y="-166.5" font-family="Helvetica,sans-Serif" font-size="10.00">asm/d/d_demo/emitter</text>
<text text-anchor="start" x="5387" y="-155.5" font-family="Helvetica,sans-Serif" font-size="10.00">_create__16dDemo_particle</text>
<text text-anchor="middle" x="5447.5" y="-144.5" font-family="Helvetica,sans-Serif" font-size="10.00">_cFUl.s</text>
</a>
</g>
</g>
<!-- Node1&#45;&gt;Node294 -->
<g id="edge49" class="edge">
<title>Node1&#45;&gt;Node294</title>
<path fill="none" stroke="#63b8ff" d="M3513.79,-228.2C3789.32,-226.37 5181.71,-215.61 5369.5,-184 5373.15,-183.39 5376.86,-182.64 5380.58,-181.79"/>
<polygon fill="#63b8ff" stroke="#63b8ff" points="5381.43,-185.19 5390.27,-179.36 5379.72,-178.4 5381.43,-185.19"/>
</g>
<!-- Node295 -->
<g id="node48" class="node">
<title>Node295</title>
<g id="a_node48"><a xlink:title=" ">
<polygon fill="#e0e0e0" stroke="#999999" points="5663,-173 5534,-173 5534,-143 5663,-143 5663,-173"/>
<text text-anchor="start" x="5542" y="-161" font-family="Helvetica,sans-Serif" font-size="10.00">asm/d/d_demo/__dt_</text>
<text text-anchor="middle" x="5598.5" y="-150" font-family="Helvetica,sans-Serif" font-size="10.00">_16dDemo_particle_cFv.s</text>
</a>
</g>
</g>
<!-- Node1&#45;&gt;Node295 -->
<g id="edge50" class="edge">
<title>Node1&#45;&gt;Node295</title>
<path fill="none" stroke="#63b8ff" d="M3513.87,-228.35C3802.75,-227.32 5321.76,-220.19 5525.5,-184 5534.4,-182.42 5543.69,-179.93 5552.53,-177.13"/>
<polygon fill="#63b8ff" stroke="#63b8ff" points="5553.64,-180.45 5562,-173.94 5551.41,-173.82 5553.64,-180.45"/>
</g>
<!-- Node296 -->
<g id="node49" class="node">
<title>Node296</title>
<g id="a_node49"><a xlink:title=" ">
<polygon fill="#e0e0e0" stroke="#999999" points="5811.5,-173 5681.5,-173 5681.5,-143 5811.5,-143 5811.5,-173"/>
<text text-anchor="start" x="5689.5" y="-161" font-family="Helvetica,sans-Serif" font-size="10.00">asm/d/d_demo/__dt_</text>
<text text-anchor="middle" x="5746.5" y="-150" font-family="Helvetica,sans-Serif" font-size="10.00">_14dDemo_camera_cFv.s</text>
</a>
</g>
</g>
<!-- Node1&#45;&gt;Node296 -->
<g id="edge51" class="edge">
<title>Node1&#45;&gt;Node296</title>
<path fill="none" stroke="#63b8ff" d="M3513.79,-228.41C3814.41,-227.74 5453.28,-222.3 5672.5,-184 5681.62,-182.41 5691.13,-179.89 5700.19,-177.05"/>
<polygon fill="#63b8ff" stroke="#63b8ff" points="5701.12,-180.42 5709.51,-173.94 5698.91,-173.78 5701.12,-180.42"/>
</g>
<!-- Node297 -->
<g id="node50" class="node">
<title>Node297</title>
<g id="a_node50"><a xlink:title=" ">
<polygon fill="#e0e0e0" stroke="#999999" points="5985,-173 5830,-173 5830,-143 5985,-143 5985,-173"/>
<text text-anchor="start" x="5838" y="-161" font-family="Helvetica,sans-Serif" font-size="10.00">asm/d/d_demo/JSGGetRotation</text>
<text text-anchor="middle" x="5907.5" y="-150" font-family="Helvetica,sans-Serif" font-size="10.00">__13dDemo_actor_cCFP3Vec.s</text>
</a>
</g>
</g>
<!-- Node1&#45;&gt;Node297 -->
<g id="edge52" class="edge">
<title>Node1&#45;&gt;Node297</title>
<path fill="none" stroke="#63b8ff" d="M3513.88,-228.35C3826.29,-227.24 5584.93,-219.45 5820.5,-184 5831.69,-182.32 5843.47,-179.6 5854.62,-176.57"/>
<polygon fill="#63b8ff" stroke="#63b8ff" points="5855.4,-179.99 5864.05,-173.87 5853.48,-173.26 5855.4,-179.99"/>
</g>
<!-- Node3 -->
<g id="node3" class="node">
<title>Node3</title>
<g id="a_node3"><a xlink:href="JStudio_2JStudio__JAudio2_2control_8h.html" target="_top" xlink:title=" ">
<polygon fill="#fff0f0" stroke="red" points="757,-96 630,-96 630,-66 757,-66 757,-96"/>
<text text-anchor="start" x="638" y="-84" font-family="Helvetica,sans-Serif" font-size="10.00">JSystem/JStudio/JStudio</text>
<text text-anchor="middle" x="693.5" y="-73" font-family="Helvetica,sans-Serif" font-size="10.00">_JAudio2/control.h</text>
</a>
</g>
</g>
<!-- Node2&#45;&gt;Node3 -->
<g id="edge2" class="edge">
<title>Node2&#45;&gt;Node3</title>
<path fill="none" stroke="#63b8ff" d="M612.41,-148.1C625.91,-137.1 649.34,-118 667.55,-103.16"/>
<polygon fill="#63b8ff" stroke="#63b8ff" points="669.29,-106.25 674.83,-97.22 664.87,-100.83 669.29,-106.25"/>
</g>
<!-- Node87 -->
<g id="node4" class="node">
<title>Node87</title>
<g id="a_node4"><a xlink:href="object-particle_8h.html" target="_top" xlink:title=" ">
<polygon fill="#fff0f0" stroke="red" points="294,-96 163,-96 163,-66 294,-66 294,-96"/>
<text text-anchor="start" x="171" y="-84" font-family="Helvetica,sans-Serif" font-size="10.00">JSystem/JStudio/JStudio</text>
<text text-anchor="middle" x="228.5" y="-73" font-family="Helvetica,sans-Serif" font-size="10.00">_JParticle/object&#45;particle.h</text>
</a>
</g>
</g>
<!-- Node2&#45;&gt;Node87 -->
<g id="edge3" class="edge">
<title>Node2&#45;&gt;Node87</title>
<path fill="none" stroke="#63b8ff" d="M567.74,-150.21C508.82,-138.37 385.83,-113.63 305.26,-97.43"/>
<polygon fill="#63b8ff" stroke="#63b8ff" points="306.16,-94.04 295.66,-95.5 304.78,-100.91 306.16,-94.04"/>
</g>
<!-- Node91 -->
<g id="node5" class="node">
<title>Node91</title>
<g id="a_node5"><a xlink:href="object_8h.html" target="_top" xlink:title=" ">
<polygon fill="#fff0f0" stroke="red" points="439,-96 312,-96 312,-66 439,-66 439,-96"/>
<text text-anchor="start" x="320" y="-84" font-family="Helvetica,sans-Serif" font-size="10.00">JSystem/JStudio/JStudio</text>
<text text-anchor="middle" x="375.5" y="-73" font-family="Helvetica,sans-Serif" font-size="10.00">_JStage/object.h</text>
</a>
</g>
</g>
<!-- Node2&#45;&gt;Node91 -->
<g id="edge4" class="edge">
<title>Node2&#45;&gt;Node91</title>
<path fill="none" stroke="#63b8ff" d="M574.69,-148.1C539.07,-136.28 475.34,-115.13 429.55,-99.94"/>
<polygon fill="#63b8ff" stroke="#63b8ff" points="430.94,-96.71 420.34,-96.88 428.73,-103.35 430.94,-96.71"/>
</g>
<!-- Node98 -->
<g id="node6" class="node">
<title>Node98</title>
<g id="a_node6"><a xlink:href="c__sxyz_8h.html" target="_top" xlink:title=" ">
<polygon fill="#fff0f0" stroke="red" points="573.5,-96 457.5,-96 457.5,-66 573.5,-66 573.5,-96"/>
<text text-anchor="start" x="465.5" y="-84" font-family="Helvetica,sans-Serif" font-size="10.00">SSystem/SComponent</text>
<text text-anchor="middle" x="515.5" y="-73" font-family="Helvetica,sans-Serif" font-size="10.00">/c_sxyz.h</text>
</a>
</g>
</g>
<!-- Node2&#45;&gt;Node98 -->
<g id="edge5" class="edge">
<title>Node2&#45;&gt;Node98</title>
<path fill="none" stroke="#63b8ff" d="M591.3,-148.1C578.79,-137.2 557.18,-118.35 540.23,-103.56"/>
<polygon fill="#63b8ff" stroke="#63b8ff" points="542.84,-101.2 533,-97.26 538.23,-106.47 542.84,-101.2"/>
</g>
<!-- Node99 -->
<g id="node7" class="node">
<title>Node99</title>
<g id="a_node7"><a xlink:href="c__xyz_8h.html" target="_top" xlink:title=" ">
<polygon fill="#fff0f0" stroke="red" points="897.5,-30 781.5,-30 781.5,0 897.5,0 897.5,-30"/>
<text text-anchor="start" x="789.5" y="-18" font-family="Helvetica,sans-Serif" font-size="10.00">SSystem/SComponent</text>
<text text-anchor="middle" x="839.5" y="-7" font-family="Helvetica,sans-Serif" font-size="10.00">/c_xyz.h</text>
</a>
</g>
</g>
<!-- Node2&#45;&gt;Node99 -->
<g id="edge6" class="edge">
<title>Node2&#45;&gt;Node99</title>
<path fill="none" stroke="#63b8ff" d="M600.49,-148.07C598.98,-129.92 598.34,-88.58 620.5,-66 641.14,-44.97 713.7,-31.35 769.71,-23.72"/>
<polygon fill="#63b8ff" stroke="#63b8ff" points="770.07,-27.2 779.52,-22.42 769.15,-20.26 770.07,-27.2"/>
</g>
<!-- Node72 -->
<g id="node8" class="node">
<title>Node72</title>
<g id="a_node8"><a xlink:href="GXEnum_8h.html" target="_top" xlink:title=" ">
<polygon fill="#fff0f0" stroke="red" points="885.5,-90.5 775.5,-90.5 775.5,-71.5 885.5,-71.5 885.5,-90.5"/>
<text text-anchor="middle" x="830.5" y="-78.5" font-family="Helvetica,sans-Serif" font-size="10.00">dolphin/gx/GXEnum.h</text>
</a>
</g>
</g>
<!-- Node2&#45;&gt;Node72 -->
<g id="edge7" class="edge">
<title>Node2&#45;&gt;Node72</title>
<path fill="none" stroke="#63b8ff" d="M628.67,-148.1C669.38,-134.77 746.37,-109.55 792.6,-94.41"/>
<polygon fill="#63b8ff" stroke="#63b8ff" points="793.51,-97.8 801.93,-91.36 791.34,-91.14 793.51,-97.8"/>
</g>
<!-- Node76 -->
<g id="node9" class="node">
<title>Node76</title>
<g id="a_node9"><a xlink:href="GXStruct_8h.html" target="_top" xlink:title=" ">
<polygon fill="white" stroke="#666666" points="1015,-90.5 904,-90.5 904,-71.5 1015,-71.5 1015,-90.5"/>
<text text-anchor="middle" x="959.5" y="-78.5" font-family="Helvetica,sans-Serif" font-size="10.00">dolphin/gx/GXStruct.h</text>
</a>
</g>
</g>
<!-- Node2&#45;&gt;Node76 -->
<g id="edge8" class="edge">
<title>Node2&#45;&gt;Node76</title>
<path fill="none" stroke="#63b8ff" d="M635.35,-150.03C689.92,-138.78 800.72,-115.86 894.5,-96 898.58,-95.14 902.8,-94.24 907.05,-93.33"/>
<polygon fill="#63b8ff" stroke="#63b8ff" points="907.72,-96.76 916.77,-91.25 906.26,-89.92 907.72,-96.76"/>
</g>
<!-- Node100 -->
<g id="node11" class="node">
<title>Node100</title>
<g id="a_node11"><a xlink:href="Z2SoundStarter_8h.html" target="_top" xlink:title=" ">
<polygon fill="#fff0f0" stroke="red" points="145,-90.5 0,-90.5 0,-71.5 145,-71.5 145,-90.5"/>
<text text-anchor="middle" x="72.5" y="-78.5" font-family="Helvetica,sans-Serif" font-size="10.00">Z2AudioLib/Z2SoundStarter.h</text>
</a>
</g>
</g>
<!-- Node2&#45;&gt;Node100 -->
<g id="edge10" class="edge">
<title>Node2&#45;&gt;Node100</title>
<path fill="none" stroke="#63b8ff" d="M567.72,-152.82C492.96,-143.48 307.88,-119.84 153.5,-96 147.08,-95.01 140.39,-93.93 133.72,-92.82"/>
<polygon fill="#63b8ff" stroke="#63b8ff" points="134.51,-89.4 124.07,-91.2 133.35,-96.31 134.51,-89.4"/>
</g>
<!-- Node76&#45;&gt;Node17 -->
<g id="edge9" class="edge">
<title>Node76&#45;&gt;Node17</title>
<path fill="none" stroke="#63b8ff" d="M998.33,-71.05C1006.62,-69.27 1015.33,-67.49 1023.5,-66 1134.14,-45.84 1266.09,-28.4 1328.84,-20.5"/>
<polygon fill="#63b8ff" stroke="#63b8ff" points="1329.1,-24 1338.59,-19.28 1328.23,-17.05 1329.1,-24"/>
</g>
<!-- Node102 -->
<g id="node13" class="node">
<title>Node102</title>
<g id="a_node13"><a xlink:href="JMessage_2control_8h.html" target="_top" xlink:title=" ">
<polygon fill="#fff0f0" stroke="red" points="1283,-90.5 1140,-90.5 1140,-71.5 1283,-71.5 1283,-90.5"/>
<text text-anchor="middle" x="1211.5" y="-78.5" font-family="Helvetica,sans-Serif" font-size="10.00">JSystem/JMessage/control.h</text>
</a>
</g>
</g>
<!-- Node101&#45;&gt;Node102 -->
<g id="edge12" class="edge">
<title>Node101&#45;&gt;Node102</title>
<path fill="none" stroke="#63b8ff" d="M1279.36,-148.1C1266.86,-135.92 1244.18,-113.83 1228.5,-98.56"/>
<polygon fill="#63b8ff" stroke="#63b8ff" points="1231.31,-96.41 1221.71,-91.94 1226.43,-101.43 1231.31,-96.41"/>
</g>
<!-- Node107 -->
<g id="node14" class="node">
<title>Node107</title>
<g id="a_node14"><a xlink:href="d__com__inf__game_8h.html" target="_top" xlink:title=" ">
<polygon fill="#fff0f0" stroke="red" points="1429.5,-90.5 1301.5,-90.5 1301.5,-71.5 1429.5,-71.5 1429.5,-90.5"/>
<text text-anchor="middle" x="1365.5" y="-78.5" font-family="Helvetica,sans-Serif" font-size="10.00">d/com/d_com_inf_game.h</text>
</a>
</g>
</g>
<!-- Node101&#45;&gt;Node107 -->
<g id="edge13" class="edge">
<title>Node101&#45;&gt;Node107</title>
<path fill="none" stroke="#63b8ff" d="M1297.64,-148.1C1310.14,-135.92 1332.82,-113.83 1348.5,-98.56"/>
<polygon fill="#63b8ff" stroke="#63b8ff" points="1350.57,-101.43 1355.29,-91.94 1345.69,-96.41 1350.57,-101.43"/>
</g>
<!-- Node253 -->
<g id="node15" class="node">
<title>Node253</title>
<g id="a_node15"><a xlink:href="f__op__msg_8h.html" target="_top" xlink:title=" ">
<polygon fill="#fff0f0" stroke="red" points="1122,-90.5 1033,-90.5 1033,-71.5 1122,-71.5 1122,-90.5"/>
<text text-anchor="middle" x="1077.5" y="-78.5" font-family="Helvetica,sans-Serif" font-size="10.00">f_op/f_op_msg.h</text>
</a>
</g>
</g>
<!-- Node101&#45;&gt;Node253 -->
<g id="edge15" class="edge">
<title>Node101&#45;&gt;Node253</title>
<path fill="none" stroke="#63b8ff" d="M1263.47,-148.1C1226.19,-134.85 1155.91,-109.87 1113.24,-94.7"/>
<polygon fill="#63b8ff" stroke="#63b8ff" points="1114.52,-91.44 1103.93,-91.39 1112.18,-98.04 1114.52,-91.44"/>
</g>
<!-- Node107&#45;&gt;Node17 -->
<g id="edge14" class="edge">
<title>Node107&#45;&gt;Node17</title>
<path fill="none" stroke="#63b8ff" d="M1365.5,-71.1C1365.5,-62.12 1365.5,-47.95 1365.5,-36.22"/>
<polygon fill="#63b8ff" stroke="#63b8ff" points="1369,-36.34 1365.5,-26.34 1362,-36.34 1369,-36.34"/>
</g>
<!-- Node253&#45;&gt;Node99 -->
<g id="edge16" class="edge">
<title>Node253&#45;&gt;Node99</title>
<path fill="none" stroke="#63b8ff" d="M1044.16,-71.03C1007.99,-61.31 949.37,-45.55 904.12,-33.38"/>
<polygon fill="#63b8ff" stroke="#63b8ff" points="905.25,-30.06 894.68,-30.84 903.43,-36.82 905.25,-30.06"/>
</g>
<!-- Node20 -->
<g id="node18" class="node">
<title>Node20</title>
<g id="a_node18"><a xlink:href="____va__arg_8h.html" target="_top" xlink:title=" ">
<polygon fill="#fff0f0" stroke="red" points="1595.5,-96 1485.5,-96 1485.5,-66 1595.5,-66 1595.5,-96"/>
<text text-anchor="start" x="1493.5" y="-84" font-family="Helvetica,sans-Serif" font-size="10.00">Runtime.PPCEABI.H/</text>
<text text-anchor="middle" x="1540.5" y="-73" font-family="Helvetica,sans-Serif" font-size="10.00">__va_arg.h</text>
</a>
</g>
</g>
<!-- Node19&#45;&gt;Node20 -->
<g id="edge19" class="edge">
<title>Node19&#45;&gt;Node20</title>
<path fill="none" stroke="#63b8ff" d="M1645.38,-148.1C1627.6,-136.9 1596.52,-117.31 1572.79,-102.35"/>
<polygon fill="#63b8ff" stroke="#63b8ff" points="1574.74,-99.44 1564.42,-97.07 1571.01,-105.37 1574.74,-99.44"/>
</g>
<!-- Node21 -->
<g id="node19" class="node">
<title>Node21</title>
<g id="a_node19"><a xlink:href="dvd_8h.html" target="_top" xlink:title=" ">
<polygon fill="#fff0f0" stroke="red" points="1705.5,-90.5 1613.5,-90.5 1613.5,-71.5 1705.5,-71.5 1705.5,-90.5"/>
<text text-anchor="middle" x="1659.5" y="-78.5" font-family="Helvetica,sans-Serif" font-size="10.00">dolphin/dvd/dvd.h</text>
</a>
</g>
</g>
<!-- Node19&#45;&gt;Node21 -->
<g id="edge20" class="edge">
<title>Node19&#45;&gt;Node21</title>
<path fill="none" stroke="#63b8ff" d="M1659.5,-148.1C1659.5,-136.83 1659.5,-117.05 1659.5,-102.06"/>
<polygon fill="#63b8ff" stroke="#63b8ff" points="1663,-102.4 1659.5,-92.4 1656,-102.4 1663,-102.4"/>
</g>
<!-- Node22 -->
<g id="node20" class="node">
<title>Node22</title>
<g id="a_node20"><a xlink:href="OSAlarm_8h.html" target="_top" xlink:title=" ">
<polygon fill="#fff0f0" stroke="red" points="1835,-90.5 1724,-90.5 1724,-71.5 1835,-71.5 1835,-90.5"/>
<text text-anchor="middle" x="1779.5" y="-78.5" font-family="Helvetica,sans-Serif" font-size="10.00">dolphin/os/OSAlarm.h</text>
</a>
</g>
</g>
<!-- Node19&#45;&gt;Node22 -->
<g id="edge21" class="edge">
<title>Node19&#45;&gt;Node22</title>
<path fill="none" stroke="#63b8ff" d="M1673.74,-148.1C1693.94,-135.47 1731.2,-112.18 1755.67,-96.89"/>
<polygon fill="#63b8ff" stroke="#63b8ff" points="1757.37,-99.96 1764,-91.69 1753.66,-94.02 1757.37,-99.96"/>
</g>
<!-- Node25 -->
<g id="node21" class="node">
<title>Node25</title>
<g id="a_node21"><a xlink:href="OSAlloc_8h.html" target="_top" xlink:title=" ">
<polygon fill="#fff0f0" stroke="red" points="1960,-90.5 1853,-90.5 1853,-71.5 1960,-71.5 1960,-90.5"/>
<text text-anchor="middle" x="1906.5" y="-78.5" font-family="Helvetica,sans-Serif" font-size="10.00">dolphin/os/OSAlloc.h</text>
</a>
</g>
</g>
<!-- Node19&#45;&gt;Node25 -->
<g id="edge22" class="edge">
<title>Node19&#45;&gt;Node25</title>
<path fill="none" stroke="#63b8ff" d="M1676,-148.03C1686.05,-142.84 1699.27,-136.46 1711.5,-132 1737.93,-122.37 1808.21,-105.08 1856.76,-93.57"/>
<polygon fill="#63b8ff" stroke="#63b8ff" points="1857.27,-97.05 1866.2,-91.34 1855.66,-90.24 1857.27,-97.05"/>
</g>
<!-- Node26 -->
<g id="node22" class="node">
<title>Node26</title>
<g id="a_node22"><a xlink:href="OSArena_8h.html" target="_top" xlink:title=" ">
<polygon fill="#fff0f0" stroke="red" points="2089,-90.5 1978,-90.5 1978,-71.5 2089,-71.5 2089,-90.5"/>
<text text-anchor="middle" x="2033.5" y="-78.5" font-family="Helvetica,sans-Serif" font-size="10.00">dolphin/os/OSArena.h</text>
</a>
</g>
</g>
<!-- Node19&#45;&gt;Node26 -->
<g id="edge23" class="edge">
<title>Node19&#45;&gt;Node26</title>
<path fill="none" stroke="#63b8ff" d="M1674.92,-148.02C1685.01,-142.55 1698.65,-135.88 1711.5,-132 1822.33,-98.52 1855.53,-116.39 1969.5,-96 1974.1,-95.18 1978.87,-94.26 1983.63,-93.3"/>
<polygon fill="#63b8ff" stroke="#63b8ff" points="1984.12,-96.77 1993.19,-91.3 1982.69,-89.92 1984.12,-96.77"/>
</g>
<!-- Node27 -->
<g id="node23" class="node">
<title>Node27</title>
<g id="a_node23"><a xlink:href="OSAudioSystem_8h.html" target="_top" xlink:title=" ">
<polygon fill="white" stroke="#666666" points="2250,-90.5 2107,-90.5 2107,-71.5 2250,-71.5 2250,-90.5"/>
<text text-anchor="middle" x="2178.5" y="-78.5" font-family="Helvetica,sans-Serif" font-size="10.00">dolphin/os/OSAudioSystem.h</text>
</a>
</g>
</g>
<!-- Node19&#45;&gt;Node27 -->
<g id="edge24" class="edge">
<title>Node19&#45;&gt;Node27</title>
<path fill="none" stroke="#63b8ff" d="M1674.41,-148.07C1684.52,-142.47 1698.37,-135.64 1711.5,-132 1877.96,-85.85 1927.28,-118.91 2098.5,-96 2105.3,-95.09 2112.4,-94.02 2119.44,-92.89"/>
<polygon fill="#63b8ff" stroke="#63b8ff" points="2120.01,-96.34 2129.3,-91.24 2118.86,-89.43 2120.01,-96.34"/>
</g>
</g>
</svg>
        <g id="navigator" transform="translate(0 0)" fill="#404254">
                <rect fill="#f2f5e9" fill-opacity="0.5" stroke="#606060" stroke-width=".5" x="0" y="0" width="60" height="60"/>
                <use id="zoomplus" xlink:href="#zoomPlus" x="17" y="9" onmousedown="handleZoom(evt,'in')"/>
                <use id="zoomminus" xlink:href="#zoomMin" x="42" y="9" onmousedown="handleZoom(evt,'out')"/>
                <use id="reset" xlink:href="#resetDef" x="30" y="36" onmousedown="handleReset()"/>
                <g id="arrowUp" xlink:href="#dirArrow" transform="translate(30 24)" onmousedown="handlePan(0,-1)">
                  <use xlink:href="#rim" fill="#404040">
                        <set attributeName="fill" to="#808080" begin="arrowUp.mouseover" end="arrowUp.mouseout"/>
                  </use>
                  <path fill="none" stroke="white" stroke-width="1.5" d="M0,-3.0v7 M-2.5,-0.5L0,-3.0L2.5,-0.5"/>
                </g>
                <g id="arrowRight" xlink:href="#dirArrow" transform="rotate(90) translate(36 -43)" onmousedown="handlePan(1,0)">
                  <use xlink:href="#rim" fill="#404040">
                        <set attributeName="fill" to="#808080" begin="arrowRight.mouseover" end="arrowRight.mouseout"/>
                  </use>
                  <path fill="none" stroke="white" stroke-width="1.5" d="M0,-3.0v7 M-2.5,-0.5L0,-3.0L2.5,-0.5"/>
                </g>
                <g id="arrowDown" xlink:href="#dirArrow" transform="rotate(180) translate(-30 -48)" onmousedown="handlePan(0,1)">
                  <use xlink:href="#rim" fill="#404040">
                        <set attributeName="fill" to="#808080" begin="arrowDown.mouseover" end="arrowDown.mouseout"/>
                  </use>
                  <path fill="none" stroke="white" stroke-width="1.5" d="M0,-3.0v7 M-2.5,-0.5L0,-3.0L2.5,-0.5"/>
                </g>
                <g id="arrowLeft" xlink:href="#dirArrow" transform="rotate(270) translate(-36 17)" onmousedown="handlePan(-1,0)">
                  <use xlink:href="#rim" fill="#404040">
                        <set attributeName="fill" to="#808080" begin="arrowLeft.mouseover" end="arrowLeft.mouseout"/>
                  </use>
                  <path fill="none" stroke="white" stroke-width="1.5" d="M0,-3.0v7 M-2.5,-0.5L0,-3.0L2.5,-0.5"/>
                </g>
        </g>
        <svg viewBox="0 0 15 15" width="100%" height="30px" preserveAspectRatio="xMaxYMin meet">
         <g id="arrow_out" transform="scale(0.3 0.3)">
          <a xlink:href="d__demo_8cpp__incl_org.svg" target="_base">
           <rect id="button" ry="5" rx="5" y="6" x="6" height="38" width="38"
                fill="#f2f5e9" fill-opacity="0.5" stroke="#606060" stroke-width="1.0"/>
           <path id="arrow"
             d="M 11.500037,31.436501 C 11.940474,20.09759 22.043105,11.32322 32.158766,21.979434 L 37.068811,17.246167 C 37.068811,17.246167 37.088388,32 37.088388,32 L 22.160133,31.978069 C 22.160133,31.978069 26.997745,27.140456 26.997745,27.140456 C 18.528582,18.264221 13.291696,25.230495 11.500037,31.436501 z"
             style="fill:#404040;"/>
          </a>
         </g>
        </svg>
</svg>
