<?xml version="1.0" encoding="UTF-8" standalone="no"?>
<!DOCTYPE svg PUBLIC "-//W3C//DTD SVG 1.1//EN"
 "http://www.w3.org/Graphics/SVG/1.1/DTD/svg11.dtd">
<!-- Generated by graphviz version 7.0.5 (20221223.1930)
 -->
<!-- Title: include/d/d_error_msg.h Pages: 1 -->
<svg width="274pt" height="82pt"
 viewBox="0.00 0.00 273.50 82.00" xmlns="http://www.w3.org/2000/svg" xmlns:xlink="http://www.w3.org/1999/xlink">
<g id="graph0" class="graph" transform="scale(1 1) rotate(0) translate(4 78)">
<title>include/d/d_error_msg.h</title>
<!-- Node1 -->
<g id="node1" class="node">
<title>Node1</title>
<g id="a_node1"><a xlink:title=" ">
<polygon fill="#999999" stroke="#666666" points="187.5,-74 67.5,-74 67.5,-55 187.5,-55 187.5,-74"/>
<text text-anchor="middle" x="127.5" y="-62" font-family="Helvetica,sans-Serif" font-size="10.00">include/d/d_error_msg.h</text>
</a>
</g>
</g>
<!-- Node2 -->
<g id="node2" class="node">
<title>Node2</title>
<g id="a_node2"><a xlink:href="d__error__msg_8cpp.html" target="_top" xlink:title=" ">
<polygon fill="white" stroke="#666666" points="113,-19 0,-19 0,0 113,0 113,-19"/>
<text text-anchor="middle" x="56.5" y="-7" font-family="Helvetica,sans-Serif" font-size="10.00">src/d/d_error_msg.cpp</text>
</a>
</g>
</g>
<!-- Node1&#45;&gt;Node2 -->
<g id="edge1" class="edge">
<title>Node1&#45;&gt;Node2</title>
<path fill="none" stroke="#63b8ff" d="M106.25,-47.64C93.86,-38.39 78.68,-27.05 68.37,-19.36"/>
<polygon fill="#63b8ff" stroke="#63b8ff" points="104.14,-50.43 114.24,-53.6 108.32,-44.82 104.14,-50.43"/>
</g>
<!-- Node3 -->
<g id="node3" class="node">
<title>Node3</title>
<g id="a_node3"><a xlink:href="f__pc__manager_8cpp.html" target="_top" xlink:title=" ">
<polygon fill="white" stroke="#666666" points="265.5,-19 131.5,-19 131.5,0 265.5,0 265.5,-19"/>
<text text-anchor="middle" x="198.5" y="-7" font-family="Helvetica,sans-Serif" font-size="10.00">src/f_pc/f_pc_manager.cpp</text>
</a>
</g>
</g>
<!-- Node1&#45;&gt;Node3 -->
<g id="edge2" class="edge">
<title>Node1&#45;&gt;Node3</title>
<path fill="none" stroke="#63b8ff" d="M148.75,-47.64C161.14,-38.39 176.32,-27.05 186.63,-19.36"/>
<polygon fill="#63b8ff" stroke="#63b8ff" points="146.68,-44.82 140.76,-53.6 150.86,-50.43 146.68,-44.82"/>
</g>
</g>
</svg>
