<?xml version="1.0" encoding="UTF-8" standalone="no"?>
<!DOCTYPE svg PUBLIC "-//W3C//DTD SVG 1.1//EN"
 "http://www.w3.org/Graphics/SVG/1.1/DTD/svg11.dtd">
<!-- Generated by graphviz version 7.0.5 (20221223.1930)
 -->
<!-- Title: include/d/event/d_event.h Pages: 1 -->
<svg width="5902pt" height="236pt"
 viewBox="0.00 0.00 5902.39 236.00" xmlns="http://www.w3.org/2000/svg" xmlns:xlink="http://www.w3.org/1999/xlink">
<g id="graph0" class="graph" transform="scale(1 1) rotate(0) translate(4 232)">
<title>include/d/event/d_event.h</title>
<!-- Node1 -->
<g id="node1" class="node">
<title>Node1</title>
<g id="a_node1"><a xlink:title=" ">
<polygon fill="#999999" stroke="#666666" points="4391.5,-228 4263.5,-228 4263.5,-209 4391.5,-209 4391.5,-228"/>
<text text-anchor="middle" x="4327.5" y="-216" font-family="Helvetica,sans-Serif" font-size="10.00">include/d/event/d_event.h</text>
</a>
</g>
</g>
<!-- Node2 -->
<g id="node2" class="node">
<title>Node2</title>
<g id="a_node2"><a xlink:href="d__com__inf__game_8h.html" target="_top" xlink:title=" ">
<polygon fill="#fff0f0" stroke="red" points="2876.5,-173 2766.5,-173 2766.5,-143 2876.5,-143 2876.5,-173"/>
<text text-anchor="start" x="2774.5" y="-161" font-family="Helvetica,sans-Serif" font-size="10.00">include/d/com/d_com</text>
<text text-anchor="middle" x="2821.5" y="-150" font-family="Helvetica,sans-Serif" font-size="10.00">_inf_game.h</text>
</a>
</g>
</g>
<!-- Node1&#45;&gt;Node2 -->
<g id="edge1" class="edge">
<title>Node1&#45;&gt;Node2</title>
<path fill="none" stroke="#63b8ff" d="M4251.88,-214.56C3987.24,-204.28 3106.36,-170.07 2876.66,-161.14"/>
<polygon fill="#63b8ff" stroke="#63b8ff" points="4251.63,-218.06 4261.76,-214.95 4251.9,-211.06 4251.63,-218.06"/>
</g>
<!-- Node52 -->
<g id="node14" class="node">
<title>Node52</title>
<g id="a_node14"><a xlink:href="d__event_8cpp.html" target="_top" xlink:title=" ">
<polygon fill="white" stroke="#666666" points="5885,-24.5 5764,-24.5 5764,-5.5 5885,-5.5 5885,-24.5"/>
<text text-anchor="middle" x="5824.5" y="-12.5" font-family="Helvetica,sans-Serif" font-size="10.00">src/d/event/d_event.cpp</text>
</a>
</g>
</g>
<!-- Node1&#45;&gt;Node52 -->
<g id="edge55" class="edge">
<title>Node1&#45;&gt;Node52</title>
<path fill="none" stroke="#63b8ff" d="M4403.08,-218.03C4701.24,-219.33 5784.52,-216.46 5886.5,-107 5898.92,-93.67 5894.36,-82.44 5886.5,-66 5877.55,-47.29 5857.8,-33.34 5842.98,-24.99"/>
<polygon fill="#63b8ff" stroke="#63b8ff" points="4403.5,-214.53 4393.49,-217.98 4403.47,-221.53 4403.5,-214.53"/>
</g>
<!-- Node3 -->
<g id="node3" class="node">
<title>Node3</title>
<g id="a_node3"><a xlink:href="d__a__npc_8h.html" target="_top" xlink:title=" ">
<polygon fill="#fff0f0" stroke="red" points="1025,-24.5 914,-24.5 914,-5.5 1025,-5.5 1025,-24.5"/>
<text text-anchor="middle" x="969.5" y="-12.5" font-family="Helvetica,sans-Serif" font-size="10.00">include/d/a/d_a_npc.h</text>
</a>
</g>
</g>
<!-- Node2&#45;&gt;Node3 -->
<g id="edge2" class="edge">
<title>Node2&#45;&gt;Node3</title>
<path fill="none" stroke="#63b8ff" d="M2754.65,-157.27C2434.84,-158.3 1073.6,-159.57 1001.5,-107 974.71,-87.46 970.22,-43.71 969.56,-24.89"/>
<polygon fill="#63b8ff" stroke="#63b8ff" points="2754.52,-160.77 2764.51,-157.24 2754.5,-153.77 2754.52,-160.77"/>
</g>
<!-- Node15 -->
<g id="node4" class="node">
<title>Node15</title>
<g id="a_node4"><a xlink:href="d__a__npc__cd_8h.html" target="_top" xlink:title=" ">
<polygon fill="#fff0f0" stroke="red" points="5753,-96 5626,-96 5626,-77 5753,-77 5753,-96"/>
<text text-anchor="middle" x="5689.5" y="-84" font-family="Helvetica,sans-Serif" font-size="10.00">include/d/a/d_a_npc_cd.h</text>
</a>
</g>
</g>
<!-- Node2&#45;&gt;Node15 -->
<g id="edge3" class="edge">
<title>Node2&#45;&gt;Node15</title>
<path fill="none" stroke="#63b8ff" d="M2888.14,-156.78C3285.93,-155.32 5338.91,-145.97 5616.5,-107 5631.96,-104.83 5648.82,-100.46 5662.44,-96.41"/>
<polygon fill="#63b8ff" stroke="#63b8ff" points="2888.36,-153.28 2878.37,-156.81 2888.39,-160.28 2888.36,-153.28"/>
</g>
<!-- Node17 -->
<g id="node5" class="node">
<title>Node17</title>
<g id="a_node5"><a xlink:href="d__a__npc__cd2_8h.html" target="_top" xlink:title=" ">
<polygon fill="#fff0f0" stroke="red" points="1585.5,-30 1481.5,-30 1481.5,0 1585.5,0 1585.5,-30"/>
<text text-anchor="start" x="1489.5" y="-18" font-family="Helvetica,sans-Serif" font-size="10.00">include/d/a/d_a_npc</text>
<text text-anchor="middle" x="1533.5" y="-7" font-family="Helvetica,sans-Serif" font-size="10.00">_cd2.h</text>
</a>
</g>
</g>
<!-- Node2&#45;&gt;Node17 -->
<g id="edge4" class="edge">
<title>Node2&#45;&gt;Node17</title>
<path fill="none" stroke="#63b8ff" d="M2754.64,-155.79C2569.3,-152.03 2058.07,-138.88 1989.5,-107 1966.69,-96.4 1972.98,-77.27 1950.5,-66 1887.69,-34.5 1683.06,-22.09 1585.78,-17.88"/>
<polygon fill="#63b8ff" stroke="#63b8ff" points="2754.53,-159.29 2764.6,-155.99 2754.67,-152.29 2754.53,-159.29"/>
</g>
<!-- Node19 -->
<g id="node6" class="node">
<title>Node19</title>
<g id="a_node6"><a xlink:href="d__cc__uty_8h.html" target="_top" xlink:title=" ">
<polygon fill="#fff0f0" stroke="red" points="119,-96 0,-96 0,-77 119,-77 119,-96"/>
<text text-anchor="middle" x="59.5" y="-84" font-family="Helvetica,sans-Serif" font-size="10.00">include/d/cc/d_cc_uty.h</text>
</a>
</g>
</g>
<!-- Node2&#45;&gt;Node19 -->
<g id="edge5" class="edge">
<title>Node2&#45;&gt;Node19</title>
<path fill="none" stroke="#63b8ff" d="M2754.79,-156.8C2365.39,-155.51 394.13,-147 127.5,-107 113.05,-104.83 97.34,-100.47 84.66,-96.41"/>
<polygon fill="#63b8ff" stroke="#63b8ff" points="2754.59,-160.3 2764.6,-156.83 2754.61,-153.3 2754.59,-160.3"/>
</g>
<!-- Node30 -->
<g id="node7" class="node">
<title>Node30</title>
<g id="a_node7"><a xlink:href="d__bright__check_8h.html" target="_top" xlink:title=" ">
<polygon fill="#fff0f0" stroke="red" points="230,-101.5 137,-101.5 137,-71.5 230,-71.5 230,-101.5"/>
<text text-anchor="start" x="145" y="-89.5" font-family="Helvetica,sans-Serif" font-size="10.00">include/d/d_bright</text>
<text text-anchor="middle" x="183.5" y="-78.5" font-family="Helvetica,sans-Serif" font-size="10.00">_check.h</text>
</a>
</g>
</g>
<!-- Node2&#45;&gt;Node30 -->
<g id="edge6" class="edge">
<title>Node2&#45;&gt;Node30</title>
<path fill="none" stroke="#63b8ff" d="M2754.82,-156.96C2375.08,-156.59 493.25,-152.45 239.5,-107 233.01,-105.84 226.27,-104.04 219.81,-101.99"/>
<polygon fill="#63b8ff" stroke="#63b8ff" points="2754.62,-160.46 2764.63,-156.97 2754.63,-153.46 2754.62,-160.46"/>
</g>
<!-- Node32 -->
<g id="node8" class="node">
<title>Node32</title>
<g id="a_node8"><a xlink:href="d__error__msg_8h.html" target="_top" xlink:title=" ">
<polygon fill="#fff0f0" stroke="red" points="368.5,-96 248.5,-96 248.5,-77 368.5,-77 368.5,-96"/>
<text text-anchor="middle" x="308.5" y="-84" font-family="Helvetica,sans-Serif" font-size="10.00">include/d/d_error_msg.h</text>
</a>
</g>
</g>
<!-- Node2&#45;&gt;Node32 -->
<g id="edge7" class="edge">
<title>Node2&#45;&gt;Node32</title>
<path fill="none" stroke="#63b8ff" d="M2754.8,-156.58C2387.86,-154.12 622.84,-140.64 382.5,-107 366.97,-104.83 350.04,-100.51 336.29,-96.5"/>
<polygon fill="#63b8ff" stroke="#63b8ff" points="2754.72,-160.08 2764.74,-156.64 2754.77,-153.08 2754.72,-160.08"/>
</g>
<!-- Node35 -->
<g id="node9" class="node">
<title>Node35</title>
<g id="a_node9"><a xlink:href="d__npc__lib_8h.html" target="_top" xlink:title=" ">
<polygon fill="#fff0f0" stroke="red" points="1118,-96 1011,-96 1011,-77 1118,-77 1118,-96"/>
<text text-anchor="middle" x="1064.5" y="-84" font-family="Helvetica,sans-Serif" font-size="10.00">include/d/d_npc_lib.h</text>
</a>
</g>
</g>
<!-- Node2&#45;&gt;Node35 -->
<g id="edge8" class="edge">
<title>Node2&#45;&gt;Node35</title>
<path fill="none" stroke="#63b8ff" d="M2754.8,-157.43C2481.8,-158.84 1448.86,-160.46 1127.5,-107 1114.17,-104.78 1099.75,-100.47 1088.07,-96.46"/>
<polygon fill="#63b8ff" stroke="#63b8ff" points="2754.6,-160.94 2764.58,-157.38 2754.56,-153.94 2754.6,-160.94"/>
</g>
<!-- Node37 -->
<g id="node10" class="node">
<title>Node37</title>
<g id="a_node10"><a xlink:href="d__file__select_8h.html" target="_top" xlink:title=" ">
<polygon fill="#fff0f0" stroke="red" points="520.5,-101.5 424.5,-101.5 424.5,-71.5 520.5,-71.5 520.5,-101.5"/>
<text text-anchor="start" x="432.5" y="-89.5" font-family="Helvetica,sans-Serif" font-size="10.00">include/d/file/d_file</text>
<text text-anchor="middle" x="472.5" y="-78.5" font-family="Helvetica,sans-Serif" font-size="10.00">_select.h</text>
</a>
</g>
</g>
<!-- Node2&#45;&gt;Node37 -->
<g id="edge10" class="edge">
<title>Node2&#45;&gt;Node37</title>
<path fill="none" stroke="#63b8ff" d="M2754.84,-156.77C2401.29,-155.36 753.2,-146.72 529.5,-107 522.91,-105.83 516.05,-104.03 509.47,-101.98"/>
<polygon fill="#63b8ff" stroke="#63b8ff" points="2754.61,-160.27 2764.62,-156.8 2754.64,-153.27 2754.61,-160.27"/>
</g>
<!-- Node39 -->
<g id="node11" class="node">
<title>Node39</title>
<g id="a_node11"><a xlink:href="d__menu__insect_8h.html" target="_top" xlink:title=" ">
<polygon fill="#fff0f0" stroke="red" points="658.5,-101.5 538.5,-101.5 538.5,-71.5 658.5,-71.5 658.5,-101.5"/>
<text text-anchor="start" x="546.5" y="-89.5" font-family="Helvetica,sans-Serif" font-size="10.00">include/d/menu/d_menu</text>
<text text-anchor="middle" x="598.5" y="-78.5" font-family="Helvetica,sans-Serif" font-size="10.00">_insect.h</text>
</a>
</g>
</g>
<!-- Node2&#45;&gt;Node39 -->
<g id="edge11" class="edge">
<title>Node2&#45;&gt;Node39</title>
<path fill="none" stroke="#63b8ff" d="M2754.83,-156.45C2414.39,-153.52 877.81,-138.64 667.5,-107 659.62,-105.81 651.37,-104 643.42,-101.95"/>
<polygon fill="#63b8ff" stroke="#63b8ff" points="2754.65,-159.95 2764.68,-156.54 2754.71,-152.95 2754.65,-159.95"/>
</g>
<!-- Node44 -->
<g id="node12" class="node">
<title>Node44</title>
<g id="a_node12"><a xlink:href="d__menu__ring_8h.html" target="_top" xlink:title=" ">
<polygon fill="#fff0f0" stroke="red" points="796.5,-101.5 676.5,-101.5 676.5,-71.5 796.5,-71.5 796.5,-101.5"/>
<text text-anchor="start" x="684.5" y="-89.5" font-family="Helvetica,sans-Serif" font-size="10.00">include/d/menu/d_menu</text>
<text text-anchor="middle" x="736.5" y="-78.5" font-family="Helvetica,sans-Serif" font-size="10.00">_ring.h</text>
</a>
</g>
</g>
<!-- Node2&#45;&gt;Node44 -->
<g id="edge12" class="edge">
<title>Node2&#45;&gt;Node44</title>
<path fill="none" stroke="#63b8ff" d="M2755.08,-156.27C2429.1,-152.55 1006.24,-134.83 810.5,-107 802.08,-105.8 793.25,-103.99 784.73,-101.93"/>
<polygon fill="#63b8ff" stroke="#63b8ff" points="2754.66,-159.76 2764.7,-156.38 2754.74,-152.76 2754.66,-159.76"/>
</g>
<!-- Node46 -->
<g id="node13" class="node">
<title>Node46</title>
<g id="a_node13"><a xlink:href="d__msg__object_8h.html" target="_top" xlink:title=" ">
<polygon fill="#fff0f0" stroke="red" points="5607.5,-101.5 5497.5,-101.5 5497.5,-71.5 5607.5,-71.5 5607.5,-101.5"/>
<text text-anchor="start" x="5505.5" y="-89.5" font-family="Helvetica,sans-Serif" font-size="10.00">include/d/msg/d_msg</text>
<text text-anchor="middle" x="5552.5" y="-78.5" font-family="Helvetica,sans-Serif" font-size="10.00">_object.h</text>
</a>
</g>
</g>
<!-- Node2&#45;&gt;Node46 -->
<g id="edge13" class="edge">
<title>Node2&#45;&gt;Node46</title>
<path fill="none" stroke="#63b8ff" d="M2888.17,-156.85C3275.2,-155.86 5225.02,-148.78 5488.5,-107 5495.84,-105.84 5503.51,-104.04 5510.89,-101.99"/>
<polygon fill="#63b8ff" stroke="#63b8ff" points="2888.42,-153.35 2878.43,-156.88 2888.44,-160.35 2888.42,-153.35"/>
</g>
<!-- Node68 -->
<g id="node15" class="node">
<title>Node68</title>
<g id="a_node15"><a xlink:href="d__particle__copoly_8h.html" target="_top" xlink:title=" ">
<polygon fill="#fff0f0" stroke="red" points="954.5,-101.5 852.5,-101.5 852.5,-71.5 954.5,-71.5 954.5,-101.5"/>
<text text-anchor="start" x="860.5" y="-89.5" font-family="Helvetica,sans-Serif" font-size="10.00">include/d/particle</text>
<text text-anchor="middle" x="903.5" y="-78.5" font-family="Helvetica,sans-Serif" font-size="10.00">/d_particle_copoly.h</text>
</a>
</g>
</g>
<!-- Node2&#45;&gt;Node68 -->
<g id="edge15" class="edge">
<title>Node2&#45;&gt;Node68</title>
<path fill="none" stroke="#63b8ff" d="M2754.86,-156.25C2444.4,-152.59 1147.32,-135.71 968.5,-107 961.06,-105.8 953.27,-103.99 945.78,-101.94"/>
<polygon fill="#63b8ff" stroke="#63b8ff" points="2754.79,-159.75 2764.83,-156.36 2754.88,-152.75 2754.79,-159.75"/>
</g>
<!-- Node75 -->
<g id="node16" class="node">
<title>Node75</title>
<g id="a_node16"><a xlink:href="d__a__cstaF_8h.html" target="_top" xlink:title=" ">
<polygon fill="white" stroke="#666666" points="604,-30 501,-30 501,0 604,0 604,-30"/>
<text text-anchor="start" x="509" y="-18" font-family="Helvetica,sans-Serif" font-size="10.00">include/rel/d/a/d_a</text>
<text text-anchor="middle" x="552.5" y="-7" font-family="Helvetica,sans-Serif" font-size="10.00">_cstaF/d_a_cstaF.h</text>
</a>
</g>
</g>
<!-- Node2&#45;&gt;Node75 -->
<g id="edge20" class="edge">
<title>Node2&#45;&gt;Node75</title>
<path fill="none" stroke="#63b8ff" d="M2754.59,-156.89C2370.12,-156.09 457.57,-149.95 415.5,-107 402.75,-93.98 405.05,-80.93 415.5,-66 434.66,-38.61 470.48,-26.18 500.69,-20.55"/>
<polygon fill="#63b8ff" stroke="#63b8ff" points="2754.53,-160.39 2764.53,-156.91 2754.54,-153.39 2754.53,-160.39"/>
</g>
<!-- Node77 -->
<g id="node17" class="node">
<title>Node77</title>
<g id="a_node17"><a xlink:href="d__a__spinner_8h.html" target="_top" xlink:title=" ">
<polygon fill="#fff0f0" stroke="red" points="888.5,-30 772.5,-30 772.5,0 888.5,0 888.5,-30"/>
<text text-anchor="start" x="780.5" y="-18" font-family="Helvetica,sans-Serif" font-size="10.00">include/rel/d/a/d_a</text>
<text text-anchor="middle" x="830.5" y="-7" font-family="Helvetica,sans-Serif" font-size="10.00">_spinner/d_a_spinner.h</text>
</a>
</g>
</g>
<!-- Node2&#45;&gt;Node77 -->
<g id="edge30" class="edge">
<title>Node2&#45;&gt;Node77</title>
<path fill="none" stroke="#63b8ff" d="M2754.7,-156.49C2413.52,-153.71 879.99,-139.46 843.5,-107 822.04,-87.91 824.33,-50.67 827.58,-30.25"/>
<polygon fill="#63b8ff" stroke="#63b8ff" points="2754.55,-159.98 2764.58,-156.57 2754.61,-152.98 2754.55,-159.98"/>
</g>
<!-- Node83 -->
<g id="node18" class="node">
<title>Node83</title>
<g id="a_node18"><a xlink:href="d__a__andsw_8h.html" target="_top" xlink:title=" ">
<polygon fill="white" stroke="#666666" points="1246.5,-101.5 1136.5,-101.5 1136.5,-71.5 1246.5,-71.5 1246.5,-101.5"/>
<text text-anchor="start" x="1144.5" y="-89.5" font-family="Helvetica,sans-Serif" font-size="10.00">include/rel/d/a/d_a</text>
<text text-anchor="middle" x="1191.5" y="-78.5" font-family="Helvetica,sans-Serif" font-size="10.00">_andsw/d_a_andsw.h</text>
</a>
</g>
</g>
<!-- Node2&#45;&gt;Node83 -->
<g id="edge19" class="edge">
<title>Node2&#45;&gt;Node83</title>
<path fill="none" stroke="#63b8ff" d="M2754.8,-157.21C2495.01,-157.65 1550.7,-155.8 1255.5,-107 1248.17,-105.79 1240.5,-103.96 1233.12,-101.91"/>
<polygon fill="#63b8ff" stroke="#63b8ff" points="2754.78,-160.71 2764.77,-157.19 2754.77,-153.71 2754.78,-160.71"/>
</g>
<!-- Node84 -->
<g id="node19" class="node">
<title>Node84</title>
<g id="a_node19"><a xlink:href="d__a__dmidna_8h.html" target="_top" xlink:title=" ">
<polygon fill="white" stroke="#666666" points="1380.5,-101.5 1264.5,-101.5 1264.5,-71.5 1380.5,-71.5 1380.5,-101.5"/>
<text text-anchor="start" x="1272.5" y="-89.5" font-family="Helvetica,sans-Serif" font-size="10.00">include/rel/d/a/d_a</text>
<text text-anchor="middle" x="1322.5" y="-78.5" font-family="Helvetica,sans-Serif" font-size="10.00">_dmidna/d_a_dmidna.h</text>
</a>
</g>
</g>
<!-- Node2&#45;&gt;Node84 -->
<g id="edge21" class="edge">
<title>Node2&#45;&gt;Node84</title>
<path fill="none" stroke="#63b8ff" d="M2754.87,-156.86C2509.63,-156.02 1657.58,-150 1389.5,-107 1381.96,-105.79 1374.08,-104 1366.47,-101.98"/>
<polygon fill="#63b8ff" stroke="#63b8ff" points="2754.56,-160.36 2764.57,-156.9 2754.58,-153.36 2754.56,-160.36"/>
</g>
<!-- Node85 -->
<g id="node20" class="node">
<title>Node85</title>
<g id="a_node20"><a xlink:href="d__a__dshutter_8h.html" target="_top" xlink:title=" ">
<polygon fill="#fff0f0" stroke="red" points="1522.5,-101.5 1398.5,-101.5 1398.5,-71.5 1522.5,-71.5 1522.5,-101.5"/>
<text text-anchor="start" x="1406.5" y="-89.5" font-family="Helvetica,sans-Serif" font-size="10.00">include/rel/d/a/d_a</text>
<text text-anchor="middle" x="1460.5" y="-78.5" font-family="Helvetica,sans-Serif" font-size="10.00">_dshutter/d_a_dshutter.h</text>
</a>
</g>
</g>
<!-- Node2&#45;&gt;Node85 -->
<g id="edge22" class="edge">
<title>Node2&#45;&gt;Node85</title>
<path fill="none" stroke="#63b8ff" d="M2754.75,-156.43C2525.44,-154.16 1770.84,-144 1531.5,-107 1523.54,-105.77 1515.2,-103.96 1507.15,-101.94"/>
<polygon fill="#63b8ff" stroke="#63b8ff" points="2754.69,-159.93 2764.72,-156.53 2754.75,-152.93 2754.69,-159.93"/>
</g>
<!-- Node87 -->
<g id="node21" class="node">
<title>Node87</title>
<g id="a_node21"><a xlink:href="d__a__guard__mng_8h.html" target="_top" xlink:title=" ">
<polygon fill="white" stroke="#666666" points="1690,-101.5 1541,-101.5 1541,-71.5 1690,-71.5 1690,-101.5"/>
<text text-anchor="start" x="1549" y="-89.5" font-family="Helvetica,sans-Serif" font-size="10.00">include/rel/d/a/d_a</text>
<text text-anchor="middle" x="1615.5" y="-78.5" font-family="Helvetica,sans-Serif" font-size="10.00">_guard_mng/d_a_guard_mng.h</text>
</a>
</g>
</g>
<!-- Node2&#45;&gt;Node87 -->
<g id="edge23" class="edge">
<title>Node2&#45;&gt;Node87</title>
<path fill="none" stroke="#63b8ff" d="M2754.86,-155.64C2545.93,-151.11 1905.33,-135.23 1699.5,-107 1690.3,-105.74 1680.64,-103.94 1671.26,-101.95"/>
<polygon fill="#63b8ff" stroke="#63b8ff" points="2754.66,-159.13 2764.73,-155.85 2754.81,-152.13 2754.66,-159.13"/>
</g>
<!-- Node88 -->
<g id="node22" class="node">
<title>Node88</title>
<g id="a_node22"><a xlink:href="d__a__hitobj_8h.html" target="_top" xlink:title=" ">
<polygon fill="white" stroke="#666666" points="1808.5,-101.5 1708.5,-101.5 1708.5,-71.5 1808.5,-71.5 1808.5,-101.5"/>
<text text-anchor="start" x="1716.5" y="-89.5" font-family="Helvetica,sans-Serif" font-size="10.00">include/rel/d/a/d_a</text>
<text text-anchor="middle" x="1758.5" y="-78.5" font-family="Helvetica,sans-Serif" font-size="10.00">_hitobj/d_a_hitobj.h</text>
</a>
</g>
</g>
<!-- Node2&#45;&gt;Node88 -->
<g id="edge24" class="edge">
<title>Node2&#45;&gt;Node88</title>
<path fill="none" stroke="#63b8ff" d="M2754.6,-156.01C2560.25,-152.78 1998.02,-140.69 1817.5,-107 1810.82,-105.75 1803.85,-103.94 1797.15,-101.91"/>
<polygon fill="#63b8ff" stroke="#63b8ff" points="2754.48,-159.51 2764.53,-156.18 2754.59,-152.51 2754.48,-159.51"/>
</g>
<!-- Node89 -->
<g id="node23" class="node">
<title>Node89</title>
<g id="a_node23"><a xlink:href="d__a__izumi__gate_8h.html" target="_top" xlink:title=" ">
<polygon fill="white" stroke="#666666" points="1942,-107 1827,-107 1827,-66 1942,-66 1942,-107"/>
<text text-anchor="start" x="1835" y="-95" font-family="Helvetica,sans-Serif" font-size="10.00">include/rel/d/a/d_a</text>
<text text-anchor="start" x="1835" y="-84" font-family="Helvetica,sans-Serif" font-size="10.00">_izumi_gate/d_a_izumi</text>
<text text-anchor="middle" x="1884.5" y="-73" font-family="Helvetica,sans-Serif" font-size="10.00">_gate.h</text>
</a>
</g>
</g>
<!-- Node2&#45;&gt;Node89 -->
<g id="edge25" class="edge">
<title>Node2&#45;&gt;Node89</title>
<path fill="none" stroke="#63b8ff" d="M2754.79,-157.82C2608.96,-158.58 2251.22,-154.9 1956.5,-107 1951.9,-106.25 1947.17,-105.33 1942.43,-104.29"/>
<polygon fill="#63b8ff" stroke="#63b8ff" points="2754.68,-161.32 2764.65,-157.75 2754.63,-154.32 2754.68,-161.32"/>
</g>
<!-- Node90 -->
<g id="node24" class="node">
<title>Node90</title>
<g id="a_node24"><a xlink:href="d__a__midna_8h.html" target="_top" xlink:title=" ">
<polygon fill="#fff0f0" stroke="red" points="5877.5,-101.5 5771.5,-101.5 5771.5,-71.5 5877.5,-71.5 5877.5,-101.5"/>
<text text-anchor="start" x="5779.5" y="-89.5" font-family="Helvetica,sans-Serif" font-size="10.00">include/rel/d/a/d_a</text>
<text text-anchor="middle" x="5824.5" y="-78.5" font-family="Helvetica,sans-Serif" font-size="10.00">_midna/d_a_midna.h</text>
</a>
</g>
</g>
<!-- Node2&#45;&gt;Node90 -->
<g id="edge26" class="edge">
<title>Node2&#45;&gt;Node90</title>
<path fill="none" stroke="#63b8ff" d="M2888.02,-157.01C3297.71,-156.95 5470.5,-154.38 5762.5,-107 5769.74,-105.83 5777.3,-103.99 5784.55,-101.91"/>
<polygon fill="#63b8ff" stroke="#63b8ff" points="2888.21,-153.51 2878.21,-157.02 2888.21,-160.51 2888.21,-153.51"/>
</g>
<!-- Node91 -->
<g id="node25" class="node">
<title>Node91</title>
<g id="a_node25"><a xlink:href="d__a__set__bgobj_8h.html" target="_top" xlink:title=" ">
<polygon fill="#fff0f0" stroke="red" points="2136,-101.5 1999,-101.5 1999,-71.5 2136,-71.5 2136,-101.5"/>
<text text-anchor="start" x="2007" y="-89.5" font-family="Helvetica,sans-Serif" font-size="10.00">include/rel/d/a/d_a</text>
<text text-anchor="middle" x="2067.5" y="-78.5" font-family="Helvetica,sans-Serif" font-size="10.00">_set_bgobj/d_a_set_bgobj.h</text>
</a>
</g>
</g>
<!-- Node2&#45;&gt;Node91 -->
<g id="edge28" class="edge">
<title>Node2&#45;&gt;Node91</title>
<path fill="none" stroke="#63b8ff" d="M2755.05,-155.85C2633.38,-152.91 2366.96,-142.6 2145.5,-107 2137.23,-105.67 2128.55,-103.89 2120.11,-101.95"/>
<polygon fill="#63b8ff" stroke="#63b8ff" points="2754.77,-159.34 2764.85,-156.08 2754.94,-152.34 2754.77,-159.34"/>
</g>
<!-- Node92 -->
<g id="node26" class="node">
<title>Node92</title>
<g id="a_node26"><a xlink:href="d__a__skip__2D_8h.html" target="_top" xlink:title=" ">
<polygon fill="white" stroke="#666666" points="2278.5,-101.5 2154.5,-101.5 2154.5,-71.5 2278.5,-71.5 2278.5,-101.5"/>
<text text-anchor="start" x="2162.5" y="-89.5" font-family="Helvetica,sans-Serif" font-size="10.00">include/rel/d/a/d_a</text>
<text text-anchor="middle" x="2216.5" y="-78.5" font-family="Helvetica,sans-Serif" font-size="10.00">_skip_2D/d_a_skip_2D.h</text>
</a>
</g>
</g>
<!-- Node2&#45;&gt;Node92 -->
<g id="edge29" class="edge">
<title>Node2&#45;&gt;Node92</title>
<path fill="none" stroke="#63b8ff" d="M2754.8,-154.5C2653.22,-149.84 2453.97,-137.41 2287.5,-107 2280.08,-105.64 2272.31,-103.88 2264.74,-101.96"/>
<polygon fill="#63b8ff" stroke="#63b8ff" points="2754.44,-157.98 2764.59,-154.93 2754.76,-150.99 2754.44,-157.98"/>
</g>
<!-- Node93 -->
<g id="node27" class="node">
<title>Node93</title>
<g id="a_node27"><a xlink:href="d__a__swTime_8h.html" target="_top" xlink:title=" ">
<polygon fill="white" stroke="#666666" points="2418.5,-101.5 2296.5,-101.5 2296.5,-71.5 2418.5,-71.5 2418.5,-101.5"/>
<text text-anchor="start" x="2304.5" y="-89.5" font-family="Helvetica,sans-Serif" font-size="10.00">include/rel/d/a/d_a</text>
<text text-anchor="middle" x="2357.5" y="-78.5" font-family="Helvetica,sans-Serif" font-size="10.00">_swTime/d_a_swTime.h</text>
</a>
</g>
</g>
<!-- Node2&#45;&gt;Node93 -->
<g id="edge31" class="edge">
<title>Node2&#45;&gt;Node93</title>
<path fill="none" stroke="#63b8ff" d="M2755.08,-151.54C2676.37,-144.39 2541.53,-129.99 2427.5,-107 2420.45,-105.58 2413.07,-103.82 2405.86,-101.95"/>
<polygon fill="#63b8ff" stroke="#63b8ff" points="2754.49,-155 2764.77,-152.41 2755.12,-148.03 2754.49,-155"/>
</g>
<!-- Node94 -->
<g id="node28" class="node">
<title>Node94</title>
<g id="a_node28"><a xlink:href="d__a__vrbox_8h.html" target="_top" xlink:title=" ">
<polygon fill="white" stroke="#666666" points="2536.5,-101.5 2436.5,-101.5 2436.5,-71.5 2536.5,-71.5 2536.5,-101.5"/>
<text text-anchor="start" x="2444.5" y="-89.5" font-family="Helvetica,sans-Serif" font-size="10.00">include/rel/d/a/d_a</text>
<text text-anchor="middle" x="2486.5" y="-78.5" font-family="Helvetica,sans-Serif" font-size="10.00">_vrbox/d_a_vrbox.h</text>
</a>
</g>
</g>
<!-- Node2&#45;&gt;Node94 -->
<g id="edge32" class="edge">
<title>Node2&#45;&gt;Node94</title>
<path fill="none" stroke="#63b8ff" d="M2754.79,-147.59C2698.53,-139.03 2616.14,-124.98 2545.5,-107 2539.75,-105.54 2533.75,-103.8 2527.87,-101.98"/>
<polygon fill="#63b8ff" stroke="#63b8ff" points="2754.12,-151.03 2764.53,-149.06 2755.16,-144.11 2754.12,-151.03"/>
</g>
<!-- Node95 -->
<g id="node29" class="node">
<title>Node95</title>
<g id="a_node29"><a xlink:href="d__a__door__dbdoor00_8h.html" target="_top" xlink:title=" ">
<polygon fill="white" stroke="#666666" points="2668,-107 2555,-107 2555,-66 2668,-66 2668,-107"/>
<text text-anchor="start" x="2563" y="-95" font-family="Helvetica,sans-Serif" font-size="10.00">include/rel/d/a/door</text>
<text text-anchor="start" x="2563" y="-84" font-family="Helvetica,sans-Serif" font-size="10.00">/d_a_door_dbdoor00/d</text>
<text text-anchor="middle" x="2611.5" y="-73" font-family="Helvetica,sans-Serif" font-size="10.00">_a_door_dbdoor00.h</text>
</a>
</g>
</g>
<!-- Node2&#45;&gt;Node95 -->
<g id="edge33" class="edge">
<title>Node2&#45;&gt;Node95</title>
<path fill="none" stroke="#63b8ff" d="M2766.93,-138.94C2736.65,-128.92 2699.03,-116.47 2668.39,-106.33"/>
<polygon fill="#63b8ff" stroke="#63b8ff" points="2765.7,-142.22 2776.3,-142.04 2767.9,-135.57 2765.7,-142.22"/>
</g>
<!-- Node96 -->
<g id="node30" class="node">
<title>Node96</title>
<g id="a_node30"><a xlink:href="d__a__door__push_8h.html" target="_top" xlink:title=" ">
<polygon fill="white" stroke="#666666" points="2814.5,-107 2686.5,-107 2686.5,-66 2814.5,-66 2814.5,-107"/>
<text text-anchor="start" x="2694.5" y="-95" font-family="Helvetica,sans-Serif" font-size="10.00">include/rel/d/a/door</text>
<text text-anchor="start" x="2694.5" y="-84" font-family="Helvetica,sans-Serif" font-size="10.00">/d_a_door_push/d_a_door</text>
<text text-anchor="middle" x="2750.5" y="-73" font-family="Helvetica,sans-Serif" font-size="10.00">_push.h</text>
</a>
</g>
</g>
<!-- Node2&#45;&gt;Node96 -->
<g id="edge34" class="edge">
<title>Node2&#45;&gt;Node96</title>
<path fill="none" stroke="#63b8ff" d="M2798.68,-134.66C2789.73,-125.9 2779.54,-115.93 2770.85,-107.42"/>
<polygon fill="#63b8ff" stroke="#63b8ff" points="2796.11,-137.05 2805.71,-141.54 2801.01,-132.04 2796.11,-137.05"/>
</g>
<!-- Node97 -->
<g id="node31" class="node">
<title>Node97</title>
<g id="a_node31"><a xlink:href="d__a__e__db__leaf_8h.html" target="_top" xlink:title=" ">
<polygon fill="white" stroke="#666666" points="2952,-107 2833,-107 2833,-66 2952,-66 2952,-107"/>
<text text-anchor="start" x="2841" y="-95" font-family="Helvetica,sans-Serif" font-size="10.00">include/rel/d/a/e/d</text>
<text text-anchor="start" x="2841" y="-84" font-family="Helvetica,sans-Serif" font-size="10.00">_a_e_db_leaf/d_a_e_db</text>
<text text-anchor="middle" x="2892.5" y="-73" font-family="Helvetica,sans-Serif" font-size="10.00">_leaf.h</text>
</a>
</g>
</g>
<!-- Node2&#45;&gt;Node97 -->
<g id="edge35" class="edge">
<title>Node2&#45;&gt;Node97</title>
<path fill="none" stroke="#63b8ff" d="M2844.32,-134.66C2853.27,-125.9 2863.46,-115.93 2872.15,-107.42"/>
<polygon fill="#63b8ff" stroke="#63b8ff" points="2841.99,-132.04 2837.29,-141.54 2846.89,-137.05 2841.99,-132.04"/>
</g>
<!-- Node98 -->
<g id="node32" class="node">
<title>Node98</title>
<g id="a_node32"><a xlink:href="d__a__kytag02_8h.html" target="_top" xlink:title=" ">
<polygon fill="white" stroke="#666666" points="3110.5,-101.5 2970.5,-101.5 2970.5,-71.5 3110.5,-71.5 3110.5,-101.5"/>
<text text-anchor="start" x="2978.5" y="-89.5" font-family="Helvetica,sans-Serif" font-size="10.00">include/rel/d/a/kytag</text>
<text text-anchor="middle" x="3040.5" y="-78.5" font-family="Helvetica,sans-Serif" font-size="10.00">/d_a_kytag02/d_a_kytag02.h</text>
</a>
</g>
</g>
<!-- Node2&#45;&gt;Node98 -->
<g id="edge36" class="edge">
<title>Node2&#45;&gt;Node98</title>
<path fill="none" stroke="#63b8ff" d="M2878.06,-139.05C2914.39,-127.52 2960.96,-112.74 2994.92,-101.97"/>
<polygon fill="#63b8ff" stroke="#63b8ff" points="2877.06,-135.7 2868.59,-142.06 2879.18,-142.37 2877.06,-135.7"/>
</g>
<!-- Node99 -->
<g id="node33" class="node">
<title>Node99</title>
<g id="a_node33"><a xlink:href="d__a__obj__bbox_8h.html" target="_top" xlink:title=" ">
<polygon fill="white" stroke="#666666" points="3244.5,-107 3128.5,-107 3128.5,-66 3244.5,-66 3244.5,-107"/>
<text text-anchor="start" x="3136.5" y="-95" font-family="Helvetica,sans-Serif" font-size="10.00">include/rel/d/a/obj</text>
<text text-anchor="start" x="3136.5" y="-84" font-family="Helvetica,sans-Serif" font-size="10.00">/d_a_obj_bbox/d_a_obj</text>
<text text-anchor="middle" x="3186.5" y="-73" font-family="Helvetica,sans-Serif" font-size="10.00">_bbox.h</text>
</a>
</g>
</g>
<!-- Node2&#45;&gt;Node99 -->
<g id="edge37" class="edge">
<title>Node2&#45;&gt;Node99</title>
<path fill="none" stroke="#63b8ff" d="M2888.13,-148.1C2948.82,-139.45 3040.71,-125.01 3119.5,-107 3122.33,-106.35 3125.23,-105.65 3128.14,-104.92"/>
<polygon fill="#63b8ff" stroke="#63b8ff" points="2887.71,-144.62 2878.3,-149.49 2888.69,-151.55 2887.71,-144.62"/>
</g>
<!-- Node100 -->
<g id="node34" class="node">
<title>Node100</title>
<g id="a_node34"><a xlink:href="d__a__obj__bombf_8h.html" target="_top" xlink:title=" ">
<polygon fill="white" stroke="#666666" points="3384.5,-107 3262.5,-107 3262.5,-66 3384.5,-66 3384.5,-107"/>
<text text-anchor="start" x="3270.5" y="-95" font-family="Helvetica,sans-Serif" font-size="10.00">include/rel/d/a/obj</text>
<text text-anchor="start" x="3270.5" y="-84" font-family="Helvetica,sans-Serif" font-size="10.00">/d_a_obj_bombf/d_a_obj</text>
<text text-anchor="middle" x="3323.5" y="-73" font-family="Helvetica,sans-Serif" font-size="10.00">_bombf.h</text>
</a>
</g>
</g>
<!-- Node2&#45;&gt;Node100 -->
<g id="edge38" class="edge">
<title>Node2&#45;&gt;Node100</title>
<path fill="none" stroke="#63b8ff" d="M2888.15,-152.54C2973.44,-146.09 3125.46,-132.08 3253.5,-107 3256.35,-106.44 3259.25,-105.83 3262.17,-105.17"/>
<polygon fill="#63b8ff" stroke="#63b8ff" points="2888.04,-149.04 2878.33,-153.27 2888.56,-156.02 2888.04,-149.04"/>
</g>
<!-- Node101 -->
<g id="node35" class="node">
<title>Node101</title>
<g id="a_node35"><a xlink:href="d__a__obj__carry_8h.html" target="_top" xlink:title=" ">
<polygon fill="#fff0f0" stroke="red" points="3518.5,-107 3402.5,-107 3402.5,-66 3518.5,-66 3518.5,-107"/>
<text text-anchor="start" x="3410.5" y="-95" font-family="Helvetica,sans-Serif" font-size="10.00">include/rel/d/a/obj</text>
<text text-anchor="start" x="3410.5" y="-84" font-family="Helvetica,sans-Serif" font-size="10.00">/d_a_obj_carry/d_a_obj</text>
<text text-anchor="middle" x="3460.5" y="-73" font-family="Helvetica,sans-Serif" font-size="10.00">_carry.h</text>
</a>
</g>
</g>
<!-- Node2&#45;&gt;Node101 -->
<g id="edge39" class="edge">
<title>Node2&#45;&gt;Node101</title>
<path fill="none" stroke="#63b8ff" d="M2888.08,-155.41C2995.36,-151.89 3212.7,-140.87 3393.5,-107 3396.36,-106.46 3399.27,-105.86 3402.2,-105.2"/>
<polygon fill="#63b8ff" stroke="#63b8ff" points="2888.2,-151.9 2878.32,-155.71 2888.42,-158.9 2888.2,-151.9"/>
</g>
<!-- Node103 -->
<g id="node36" class="node">
<title>Node103</title>
<g id="a_node36"><a xlink:href="d__a__obj__cboard_8h.html" target="_top" xlink:title=" ">
<polygon fill="white" stroke="#666666" points="3644,-107 3537,-107 3537,-66 3644,-66 3644,-107"/>
<text text-anchor="start" x="3545" y="-95" font-family="Helvetica,sans-Serif" font-size="10.00">include/rel/d/a/obj</text>
<text text-anchor="start" x="3545" y="-84" font-family="Helvetica,sans-Serif" font-size="10.00">/d_a_obj_cboard/d_a</text>
<text text-anchor="middle" x="3590.5" y="-73" font-family="Helvetica,sans-Serif" font-size="10.00">_obj_cboard.h</text>
</a>
</g>
</g>
<!-- Node2&#45;&gt;Node103 -->
<g id="edge40" class="edge">
<title>Node2&#45;&gt;Node103</title>
<path fill="none" stroke="#63b8ff" d="M2888.32,-157.34C3014.42,-156.87 3295.61,-150.5 3527.5,-107 3530.54,-106.43 3533.64,-105.76 3536.75,-105.03"/>
<polygon fill="#63b8ff" stroke="#63b8ff" points="2888.48,-153.84 2878.49,-157.37 2888.5,-160.84 2888.48,-153.84"/>
</g>
<!-- Node104 -->
<g id="node37" class="node">
<title>Node104</title>
<g id="a_node37"><a xlink:href="d__a__obj__cowdoor_8h.html" target="_top" xlink:title=" ">
<polygon fill="white" stroke="#666666" points="3776.5,-107 3662.5,-107 3662.5,-66 3776.5,-66 3776.5,-107"/>
<text text-anchor="start" x="3670.5" y="-95" font-family="Helvetica,sans-Serif" font-size="10.00">include/rel/d/a/obj</text>
<text text-anchor="start" x="3670.5" y="-84" font-family="Helvetica,sans-Serif" font-size="10.00">/d_a_obj_cowdoor/d_a</text>
<text text-anchor="middle" x="3719.5" y="-73" font-family="Helvetica,sans-Serif" font-size="10.00">_obj_cowdoor.h</text>
</a>
</g>
</g>
<!-- Node2&#45;&gt;Node104 -->
<g id="edge41" class="edge">
<title>Node2&#45;&gt;Node104</title>
<path fill="none" stroke="#63b8ff" d="M2888,-154.91C3058.11,-149.27 3505.98,-132.4 3652.5,-107 3655.72,-106.44 3659.01,-105.78 3662.32,-105.05"/>
<polygon fill="#63b8ff" stroke="#63b8ff" points="2888.11,-151.41 2878.23,-155.24 2888.34,-158.4 2888.11,-151.41"/>
</g>
<!-- Node105 -->
<g id="node38" class="node">
<title>Node105</title>
<g id="a_node38"><a xlink:href="d__a__obj__digholl_8h.html" target="_top" xlink:title=" ">
<polygon fill="white" stroke="#666666" points="3900,-107 3795,-107 3795,-66 3900,-66 3900,-107"/>
<text text-anchor="start" x="3803" y="-95" font-family="Helvetica,sans-Serif" font-size="10.00">include/rel/d/a/obj</text>
<text text-anchor="start" x="3803" y="-84" font-family="Helvetica,sans-Serif" font-size="10.00">/d_a_obj_digholl/d_a</text>
<text text-anchor="middle" x="3847.5" y="-73" font-family="Helvetica,sans-Serif" font-size="10.00">_obj_digholl.h</text>
</a>
</g>
</g>
<!-- Node2&#45;&gt;Node105 -->
<g id="edge42" class="edge">
<title>Node2&#45;&gt;Node105</title>
<path fill="none" stroke="#63b8ff" d="M2888.29,-155.73C3077.19,-151.79 3612.74,-138.13 3785.5,-107 3788.5,-106.46 3791.55,-105.82 3794.62,-105.1"/>
<polygon fill="#63b8ff" stroke="#63b8ff" points="2888.33,-152.23 2878.4,-155.93 2888.47,-159.23 2888.33,-152.23"/>
</g>
<!-- Node106 -->
<g id="node39" class="node">
<title>Node106</title>
<g id="a_node39"><a xlink:href="d__a__obj__dmelevator_8h.html" target="_top" xlink:title=" ">
<polygon fill="white" stroke="#666666" points="4032.5,-107 3918.5,-107 3918.5,-66 4032.5,-66 4032.5,-107"/>
<text text-anchor="start" x="3926.5" y="-95" font-family="Helvetica,sans-Serif" font-size="10.00">include/rel/d/a/obj</text>
<text text-anchor="start" x="3926.5" y="-84" font-family="Helvetica,sans-Serif" font-size="10.00">/d_a_obj_dmelevator</text>
<text text-anchor="middle" x="3975.5" y="-73" font-family="Helvetica,sans-Serif" font-size="10.00">/d_a_obj_dmelevator.h</text>
</a>
</g>
</g>
<!-- Node2&#45;&gt;Node106 -->
<g id="edge43" class="edge">
<title>Node2&#45;&gt;Node106</title>
<path fill="none" stroke="#63b8ff" d="M2888.19,-156C3092.95,-152.61 3710.61,-139.87 3908.5,-107 3911.73,-106.46 3915.02,-105.82 3918.32,-105.11"/>
<polygon fill="#63b8ff" stroke="#63b8ff" points="2888.2,-152.5 2878.26,-156.16 2888.31,-159.5 2888.2,-152.5"/>
</g>
<!-- Node107 -->
<g id="node40" class="node">
<title>Node107</title>
<g id="a_node40"><a xlink:href="d__a__obj__enemy__create_8h.html" target="_top" xlink:title=" ">
<polygon fill="white" stroke="#666666" points="4178,-107 4051,-107 4051,-66 4178,-66 4178,-107"/>
<text text-anchor="start" x="4059" y="-95" font-family="Helvetica,sans-Serif" font-size="10.00">include/rel/d/a/obj</text>
<text text-anchor="start" x="4059" y="-84" font-family="Helvetica,sans-Serif" font-size="10.00">/d_a_obj_enemy_create</text>
<text text-anchor="middle" x="4114.5" y="-73" font-family="Helvetica,sans-Serif" font-size="10.00">/d_a_obj_enemy_create.h</text>
</a>
</g>
</g>
<!-- Node2&#45;&gt;Node107 -->
<g id="edge44" class="edge">
<title>Node2&#45;&gt;Node107</title>
<path fill="none" stroke="#63b8ff" d="M2888.31,-156.2C3109.45,-153.24 3816.31,-141.26 4041.5,-107 4044.48,-106.55 4047.52,-106.02 4050.57,-105.43"/>
<polygon fill="#63b8ff" stroke="#63b8ff" points="2888.38,-152.7 2878.43,-156.33 2888.47,-159.7 2888.38,-152.7"/>
</g>
<!-- Node108 -->
<g id="node41" class="node">
<title>Node108</title>
<g id="a_node41"><a xlink:href="d__a__obj__fallobj_8h.html" target="_top" xlink:title=" ">
<polygon fill="white" stroke="#666666" points="4299,-107 4196,-107 4196,-66 4299,-66 4299,-107"/>
<text text-anchor="start" x="4204" y="-95" font-family="Helvetica,sans-Serif" font-size="10.00">include/rel/d/a/obj</text>
<text text-anchor="start" x="4204" y="-84" font-family="Helvetica,sans-Serif" font-size="10.00">/d_a_obj_fallobj/d_a</text>
<text text-anchor="middle" x="4247.5" y="-73" font-family="Helvetica,sans-Serif" font-size="10.00">_obj_fallobj.h</text>
</a>
</g>
</g>
<!-- Node2&#45;&gt;Node108 -->
<g id="edge45" class="edge">
<title>Node2&#45;&gt;Node108</title>
<path fill="none" stroke="#63b8ff" d="M2888.2,-156.96C3126.15,-156.44 3932.68,-151.36 4186.5,-107 4189.57,-106.46 4192.69,-105.81 4195.83,-105.08"/>
<polygon fill="#63b8ff" stroke="#63b8ff" points="2888.48,-153.46 2878.48,-156.98 2888.49,-160.46 2888.48,-153.46"/>
</g>
<!-- Node109 -->
<g id="node42" class="node">
<title>Node109</title>
<g id="a_node42"><a xlink:href="d__a__obj__fireWood_8h.html" target="_top" xlink:title=" ">
<polygon fill="white" stroke="#666666" points="4421.5,-107 4317.5,-107 4317.5,-66 4421.5,-66 4421.5,-107"/>
<text text-anchor="start" x="4325.5" y="-95" font-family="Helvetica,sans-Serif" font-size="10.00">include/rel/d/a/obj</text>
<text text-anchor="start" x="4325.5" y="-84" font-family="Helvetica,sans-Serif" font-size="10.00">/d_a_obj_fireWood/d</text>
<text text-anchor="middle" x="4369.5" y="-73" font-family="Helvetica,sans-Serif" font-size="10.00">_a_obj_fireWood.h</text>
</a>
</g>
</g>
<!-- Node2&#45;&gt;Node109 -->
<g id="edge46" class="edge">
<title>Node2&#45;&gt;Node109</title>
<path fill="none" stroke="#63b8ff" d="M2888.11,-157.15C3139.28,-157.35 4028.85,-154.6 4307.5,-107 4310.73,-106.45 4314.02,-105.77 4317.32,-105.01"/>
<polygon fill="#63b8ff" stroke="#63b8ff" points="2888.15,-153.65 2878.15,-157.14 2888.15,-160.65 2888.15,-153.65"/>
</g>
<!-- Node110 -->
<g id="node43" class="node">
<title>Node110</title>
<g id="a_node43"><a xlink:href="d__a__obj__fireWood2_8h.html" target="_top" xlink:title=" ">
<polygon fill="white" stroke="#666666" points="4549.5,-107 4439.5,-107 4439.5,-66 4549.5,-66 4549.5,-107"/>
<text text-anchor="start" x="4447.5" y="-95" font-family="Helvetica,sans-Serif" font-size="10.00">include/rel/d/a/obj</text>
<text text-anchor="start" x="4447.5" y="-84" font-family="Helvetica,sans-Serif" font-size="10.00">/d_a_obj_fireWood2/d</text>
<text text-anchor="middle" x="4494.5" y="-73" font-family="Helvetica,sans-Serif" font-size="10.00">_a_obj_fireWood2.h</text>
</a>
</g>
</g>
<!-- Node2&#45;&gt;Node110 -->
<g id="edge47" class="edge">
<title>Node2&#45;&gt;Node110</title>
<path fill="none" stroke="#63b8ff" d="M2888.3,-157.27C3152.73,-158 4126.52,-157.12 4430.5,-107 4433.37,-106.53 4436.28,-105.96 4439.21,-105.32"/>
<polygon fill="#63b8ff" stroke="#63b8ff" points="2888.51,-153.77 2878.5,-157.25 2888.49,-160.77 2888.51,-153.77"/>
</g>
<!-- Node111 -->
<g id="node44" class="node">
<title>Node111</title>
<g id="a_node44"><a xlink:href="d__a__obj__ganonwall_8h.html" target="_top" xlink:title=" ">
<polygon fill="white" stroke="#666666" points="4677.5,-107 4567.5,-107 4567.5,-66 4677.5,-66 4677.5,-107"/>
<text text-anchor="start" x="4575.5" y="-95" font-family="Helvetica,sans-Serif" font-size="10.00">include/rel/d/a/obj</text>
<text text-anchor="start" x="4575.5" y="-84" font-family="Helvetica,sans-Serif" font-size="10.00">/d_a_obj_ganonwall/d</text>
<text text-anchor="middle" x="4622.5" y="-73" font-family="Helvetica,sans-Serif" font-size="10.00">_a_obj_ganonwall.h</text>
</a>
</g>
</g>
<!-- Node2&#45;&gt;Node111 -->
<g id="edge48" class="edge">
<title>Node2&#45;&gt;Node111</title>
<path fill="none" stroke="#63b8ff" d="M2888.29,-156.13C3186.85,-152.11 4391.77,-134.29 4558.5,-107 4561.37,-106.53 4564.28,-105.97 4567.21,-105.33"/>
<polygon fill="#63b8ff" stroke="#63b8ff" points="2888.28,-152.63 2878.33,-156.26 2888.38,-159.63 2888.28,-152.63"/>
</g>
<!-- Node112 -->
<g id="node45" class="node">
<title>Node112</title>
<g id="a_node45"><a xlink:href="d__a__obj__graWall_8h.html" target="_top" xlink:title=" ">
<polygon fill="white" stroke="#666666" points="4805.5,-107 4695.5,-107 4695.5,-66 4805.5,-66 4805.5,-107"/>
<text text-anchor="start" x="4703.5" y="-95" font-family="Helvetica,sans-Serif" font-size="10.00">include/rel/d/a/obj</text>
<text text-anchor="start" x="4703.5" y="-84" font-family="Helvetica,sans-Serif" font-size="10.00">/d_a_obj_graWall/d_a</text>
<text text-anchor="middle" x="4750.5" y="-73" font-family="Helvetica,sans-Serif" font-size="10.00">_obj_graWall.h</text>
</a>
</g>
</g>
<!-- Node2&#45;&gt;Node112 -->
<g id="edge49" class="edge">
<title>Node2&#45;&gt;Node112</title>
<path fill="none" stroke="#63b8ff" d="M2887.59,-156.28C3198.33,-152.76 4506.4,-136.3 4686.5,-107 4689.37,-106.53 4692.28,-105.97 4695.21,-105.34"/>
<polygon fill="#63b8ff" stroke="#63b8ff" points="2888.01,-152.78 2878.05,-156.39 2888.09,-159.78 2888.01,-152.78"/>
</g>
<!-- Node113 -->
<g id="node46" class="node">
<title>Node113</title>
<g id="a_node46"><a xlink:href="d__a__obj__kjgjs_8h.html" target="_top" xlink:title=" ">
<polygon fill="white" stroke="#666666" points="4939.5,-107 4823.5,-107 4823.5,-66 4939.5,-66 4939.5,-107"/>
<text text-anchor="start" x="4831.5" y="-95" font-family="Helvetica,sans-Serif" font-size="10.00">include/rel/d/a/obj</text>
<text text-anchor="start" x="4831.5" y="-84" font-family="Helvetica,sans-Serif" font-size="10.00">/d_a_obj_kjgjs/d_a_obj</text>
<text text-anchor="middle" x="4881.5" y="-73" font-family="Helvetica,sans-Serif" font-size="10.00">_kjgjs.h</text>
</a>
</g>
</g>
<!-- Node2&#45;&gt;Node113 -->
<g id="edge50" class="edge">
<title>Node2&#45;&gt;Node113</title>
<path fill="none" stroke="#63b8ff" d="M2887.87,-156.35C3212.01,-153.05 4620.99,-137.07 4814.5,-107 4817.37,-106.55 4820.3,-106.02 4823.23,-105.42"/>
<polygon fill="#63b8ff" stroke="#63b8ff" points="2888.28,-152.85 2878.31,-156.45 2888.35,-159.85 2888.28,-152.85"/>
</g>
<!-- Node114 -->
<g id="node47" class="node">
<title>Node114</title>
<g id="a_node47"><a xlink:href="d__a__obj__kkanban_8h.html" target="_top" xlink:title=" ">
<polygon fill="white" stroke="#666666" points="5071.5,-107 4957.5,-107 4957.5,-66 5071.5,-66 5071.5,-107"/>
<text text-anchor="start" x="4965.5" y="-95" font-family="Helvetica,sans-Serif" font-size="10.00">include/rel/d/a/obj</text>
<text text-anchor="start" x="4965.5" y="-84" font-family="Helvetica,sans-Serif" font-size="10.00">/d_a_obj_kkanban/d_a</text>
<text text-anchor="middle" x="5014.5" y="-73" font-family="Helvetica,sans-Serif" font-size="10.00">_obj_kkanban.h</text>
</a>
</g>
</g>
<!-- Node2&#45;&gt;Node114 -->
<g id="edge51" class="edge">
<title>Node2&#45;&gt;Node114</title>
<path fill="none" stroke="#63b8ff" d="M2887.92,-156.48C3225.27,-153.7 4741.14,-139.48 4948.5,-107 4951.33,-106.56 4954.21,-106.02 4957.11,-105.42"/>
<polygon fill="#63b8ff" stroke="#63b8ff" points="2888.37,-152.98 2878.39,-156.56 2888.42,-159.98 2888.37,-152.98"/>
</g>
<!-- Node115 -->
<g id="node48" class="node">
<title>Node115</title>
<g id="a_node48"><a xlink:href="d__a__obj__mgate_8h.html" target="_top" xlink:title=" ">
<polygon fill="white" stroke="#666666" points="5211.5,-107 5089.5,-107 5089.5,-66 5211.5,-66 5211.5,-107"/>
<text text-anchor="start" x="5097.5" y="-95" font-family="Helvetica,sans-Serif" font-size="10.00">include/rel/d/a/obj</text>
<text text-anchor="start" x="5097.5" y="-84" font-family="Helvetica,sans-Serif" font-size="10.00">/d_a_obj_mgate/d_a_obj</text>
<text text-anchor="middle" x="5150.5" y="-73" font-family="Helvetica,sans-Serif" font-size="10.00">_mgate.h</text>
</a>
</g>
</g>
<!-- Node2&#45;&gt;Node115 -->
<g id="edge52" class="edge">
<title>Node2&#45;&gt;Node115</title>
<path fill="none" stroke="#63b8ff" d="M2888.28,-156.51C3238.87,-153.83 4859.21,-139.74 5080.5,-107 5083.37,-106.58 5086.29,-106.07 5089.23,-105.5"/>
<polygon fill="#63b8ff" stroke="#63b8ff" points="2888.31,-153.01 2878.34,-156.59 2888.36,-160.01 2888.31,-153.01"/>
</g>
<!-- Node116 -->
<g id="node49" class="node">
<title>Node116</title>
<g id="a_node49"><a xlink:href="d__a__obj__onsen_8h.html" target="_top" xlink:title=" ">
<polygon fill="white" stroke="#666666" points="5351.5,-107 5229.5,-107 5229.5,-66 5351.5,-66 5351.5,-107"/>
<text text-anchor="start" x="5237.5" y="-95" font-family="Helvetica,sans-Serif" font-size="10.00">include/rel/d/a/obj</text>
<text text-anchor="start" x="5237.5" y="-84" font-family="Helvetica,sans-Serif" font-size="10.00">/d_a_obj_onsen/d_a_obj</text>
<text text-anchor="middle" x="5290.5" y="-73" font-family="Helvetica,sans-Serif" font-size="10.00">_onsen.h</text>
</a>
</g>
</g>
<!-- Node2&#45;&gt;Node116 -->
<g id="edge53" class="edge">
<title>Node2&#45;&gt;Node116</title>
<path fill="none" stroke="#63b8ff" d="M2888.29,-156.61C3251.82,-154.34 4984.6,-141.75 5220.5,-107 5223.37,-106.58 5226.29,-106.07 5229.23,-105.51"/>
<polygon fill="#63b8ff" stroke="#63b8ff" points="2888.42,-153.11 2878.44,-156.67 2888.47,-160.11 2888.42,-153.11"/>
</g>
<!-- Node117 -->
<g id="node50" class="node">
<title>Node117</title>
<g id="a_node50"><a xlink:href="d__a__obj__onsenFire_8h.html" target="_top" xlink:title=" ">
<polygon fill="white" stroke="#666666" points="5479.5,-107 5369.5,-107 5369.5,-66 5479.5,-66 5479.5,-107"/>
<text text-anchor="start" x="5377.5" y="-95" font-family="Helvetica,sans-Serif" font-size="10.00">include/rel/d/a/obj</text>
<text text-anchor="start" x="5377.5" y="-84" font-family="Helvetica,sans-Serif" font-size="10.00">/d_a_obj_onsenFire/d</text>
<text text-anchor="middle" x="5424.5" y="-73" font-family="Helvetica,sans-Serif" font-size="10.00">_a_obj_onsenFire.h</text>
</a>
</g>
</g>
<!-- Node2&#45;&gt;Node117 -->
<g id="edge54" class="edge">
<title>Node2&#45;&gt;Node117</title>
<path fill="none" stroke="#63b8ff" d="M2888.22,-156.79C3264.21,-155.43 5110.41,-146.77 5360.5,-107 5363.37,-106.54 5366.29,-105.99 5369.22,-105.36"/>
<polygon fill="#63b8ff" stroke="#63b8ff" points="2888.26,-153.29 2878.27,-156.82 2888.28,-160.28 2888.26,-153.29"/>
</g>
<!-- Node35&#45;&gt;Node17 -->
<g id="edge9" class="edge">
<title>Node35&#45;&gt;Node17</title>
<path fill="none" stroke="#63b8ff" d="M1100.37,-73.19C1109.16,-70.51 1118.61,-67.91 1127.5,-66 1252.84,-39.11 1403.27,-25.28 1481.09,-19.46"/>
<polygon fill="#63b8ff" stroke="#63b8ff" points="1099.59,-69.77 1091.11,-76.13 1101.7,-76.44 1099.59,-69.77"/>
</g>
<!-- Node46&#45;&gt;Node52 -->
<g id="edge14" class="edge">
<title>Node46&#45;&gt;Node52</title>
<path fill="none" stroke="#63b8ff" d="M5610.6,-67.9C5612.93,-67.25 5615.23,-66.61 5617.5,-66 5675.31,-50.36 5742.85,-34.49 5784.65,-24.95"/>
<polygon fill="#63b8ff" stroke="#63b8ff" points="5609.74,-64.51 5601.09,-70.62 5611.66,-71.24 5609.74,-64.51"/>
</g>
<!-- Node68&#45;&gt;Node3 -->
<g id="edge16" class="edge">
<title>Node68&#45;&gt;Node3</title>
<path fill="none" stroke="#63b8ff" d="M924.88,-62.99C937.28,-49.93 952.2,-34.22 961.26,-24.68"/>
<polygon fill="#63b8ff" stroke="#63b8ff" points="922.57,-60.34 918.22,-70 927.64,-65.16 922.57,-60.34"/>
</g>
<!-- Node68&#45;&gt;Node75 -->
<g id="edge17" class="edge">
<title>Node68&#45;&gt;Node75</title>
<path fill="none" stroke="#63b8ff" d="M841,-73.05C829.21,-70.71 816.98,-68.28 805.5,-66 735.89,-52.2 655.49,-36.32 604.35,-26.23"/>
<polygon fill="#63b8ff" stroke="#63b8ff" points="840.16,-76.45 850.65,-74.97 841.52,-69.59 840.16,-76.45"/>
</g>
<!-- Node68&#45;&gt;Node77 -->
<g id="edge18" class="edge">
<title>Node68&#45;&gt;Node77</title>
<path fill="none" stroke="#63b8ff" d="M880.18,-63.3C868.86,-52.52 855.59,-39.88 845.61,-30.38"/>
<polygon fill="#63b8ff" stroke="#63b8ff" points="877.62,-65.7 887.28,-70.06 882.45,-60.63 877.62,-65.7"/>
</g>
<!-- Node90&#45;&gt;Node52 -->
<g id="edge27" class="edge">
<title>Node90&#45;&gt;Node52</title>
<path fill="none" stroke="#63b8ff" d="M5824.5,-59.96C5824.5,-47.57 5824.5,-33.49 5824.5,-24.68"/>
<polygon fill="#63b8ff" stroke="#63b8ff" points="5821,-59.59 5824.5,-69.59 5828,-59.59 5821,-59.59"/>
</g>
</g>
</svg>
