<?xml version="1.0" encoding="UTF-8" standalone="no"?>
<!DOCTYPE svg PUBLIC "-//W3C//DTD SVG 1.1//EN"
 "http://www.w3.org/Graphics/SVG/1.1/DTD/svg11.dtd">
<!-- Generated by graphviz version 7.0.5 (20221223.1930)
 -->
<!-- Title: include/d/d_jnt_col.h Pages: 1 -->
<!--zoomable 170 -->
<svg id="main" version="1.1" xmlns="http://www.w3.org/2000/svg" xmlns:xlink="http://www.w3.org/1999/xlink" xml:space="preserve" onload="init(evt)">
<style type="text/css"><![CDATA[
.edge:hover path { stroke: red; }
.edge:hover polygon { stroke: red; fill: red; }
]]></style>
<script type="text/javascript"><![CDATA[
var edges = document.getElementsByTagName('g');
if (edges && edges.length) {
  for (var i=0;i<edges.length;i++) {
    if (edges[i].id.substr(0,4)=='edge') {
      edges[i].setAttribute('class','edge');
    }
  }
}
]]></script>
        <defs>
                <circle id="rim" cx="0" cy="0" r="7"/>
                <circle id="rim2" cx="0" cy="0" r="3.5"/>
                <g id="zoomPlus">
                        <use xlink:href="#rim" fill="#404040">
                                <set attributeName="fill" to="#808080" begin="zoomplus.mouseover" end="zoomplus.mouseout"/>
                        </use>
                        <path d="M-4,0h8M0,-4v8" fill="none" stroke="white" stroke-width="1.5" pointer-events="none"/>
                </g>
                <g id="zoomMin">
                        <use xlink:href="#rim" fill="#404040">
                                <set attributeName="fill" to="#808080" begin="zoomminus.mouseover" end="zoomminus.mouseout"/>
                        </use>
                        <path d="M-4,0h8" fill="none" stroke="white" stroke-width="1.5" pointer-events="none"/>
                </g>
                <g id="dirArrow">
                        <path fill="none" stroke="white" stroke-width="1.5" d="M0,-3.0v7 M-2.5,-0.5L0,-3.0L2.5,-0.5"/>
                </g>
               <g id="resetDef">
                       <use xlink:href="#rim2" fill="#404040">
                               <set attributeName="fill" to="#808080" begin="reset.mouseover" end="reset.mouseout"/>
                       </use>
               </g>
        </defs>

<script type="text/javascript">
var viewWidth = 1660;
var viewHeight = 170;
var sectionId = 'dynsection-1';
</script>
<script xlink:href="svgpan.js"/>
<svg id="graph" class="graph">
<g id="viewport">
<title>include/d/d_jnt_col.h</title>
<!-- Node1 -->
<g id="node1" class="node">
<title>Node1</title>
<g id="a_node1"><a xlink:title=" ">
<polygon fill="#999999" stroke="#666666" points="1472.5,-162 1367.5,-162 1367.5,-143 1472.5,-143 1472.5,-162"/>
<text text-anchor="middle" x="1420" y="-150" font-family="Helvetica,sans-Serif" font-size="10.00">include/d/d_jnt_col.h</text>
</a>
</g>
</g>
<!-- Node2 -->
<g id="node2" class="node">
<title>Node2</title>
<g id="a_node2"><a xlink:href="d__a__alink_8h.html" target="_top" xlink:title=" ">
<polygon fill="white" stroke="#666666" points="783,-96 667,-96 667,-77 783,-77 783,-96"/>
<text text-anchor="middle" x="725" y="-84" font-family="Helvetica,sans-Serif" font-size="10.00">include/d/a/d_a_alink.h</text>
</a>
</g>
</g>
<!-- Node1&#45;&gt;Node2 -->
<g id="edge1" class="edge">
<title>Node1&#45;&gt;Node2</title>
<path fill="none" stroke="#63b8ff" d="M1355.9,-145.6C1221.5,-133.22 912.02,-104.72 783.06,-92.85"/>
<polygon fill="#63b8ff" stroke="#63b8ff" points="1355.41,-149.07 1365.68,-146.5 1356.05,-142.1 1355.41,-149.07"/>
</g>
<!-- Node13 -->
<g id="node13" class="node">
<title>Node13</title>
<g id="a_node13"><a xlink:href="d__a__obj__carry_8h.html" target="_top" xlink:title=" ">
<polygon fill="white" stroke="#666666" points="1414,-107 1298,-107 1298,-66 1414,-66 1414,-107"/>
<text text-anchor="start" x="1306" y="-95" font-family="Helvetica,sans-Serif" font-size="10.00">include/rel/d/a/obj</text>
<text text-anchor="start" x="1306" y="-84" font-family="Helvetica,sans-Serif" font-size="10.00">/d_a_obj_carry/d_a_obj</text>
<text text-anchor="middle" x="1356" y="-73" font-family="Helvetica,sans-Serif" font-size="10.00">_carry.h</text>
</a>
</g>
</g>
<!-- Node1&#45;&gt;Node13 -->
<g id="edge12" class="edge">
<title>Node1&#45;&gt;Node13</title>
<path fill="none" stroke="#63b8ff" d="M1403.17,-134.67C1394.8,-126.3 1384.63,-116.13 1375.88,-107.38"/>
<polygon fill="#63b8ff" stroke="#63b8ff" points="1400.48,-136.93 1410.03,-141.53 1405.43,-131.98 1400.48,-136.93"/>
</g>
<!-- Node16 -->
<g id="node16" class="node">
<title>Node16</title>
<g id="a_node16"><a xlink:href="d__cc__s_8cpp.html" target="_top" xlink:title=" ">
<polygon fill="white" stroke="#666666" points="1536,-96 1432,-96 1432,-77 1536,-77 1536,-96"/>
<text text-anchor="middle" x="1484" y="-84" font-family="Helvetica,sans-Serif" font-size="10.00">src/d/cc/d_cc_s.cpp</text>
</a>
</g>
</g>
<!-- Node1&#45;&gt;Node16 -->
<g id="edge16" class="edge">
<title>Node1&#45;&gt;Node16</title>
<path fill="none" stroke="#63b8ff" d="M1437.02,-134.48C1449.3,-122.2 1465.37,-106.13 1475.18,-96.32"/>
<polygon fill="#63b8ff" stroke="#63b8ff" points="1434.57,-131.98 1429.97,-141.53 1439.52,-136.93 1434.57,-131.98"/>
</g>
<!-- Node17 -->
<g id="node17" class="node">
<title>Node17</title>
<g id="a_node17"><a xlink:href="d__jnt__col_8cpp.html" target="_top" xlink:title=" ">
<polygon fill="white" stroke="#666666" points="1652,-96 1554,-96 1554,-77 1652,-77 1652,-96"/>
<text text-anchor="middle" x="1603" y="-84" font-family="Helvetica,sans-Serif" font-size="10.00">src/d/d_jnt_col.cpp</text>
</a>
</g>
</g>
<!-- Node1&#45;&gt;Node17 -->
<g id="edge17" class="edge">
<title>Node1&#45;&gt;Node17</title>
<path fill="none" stroke="#63b8ff" d="M1455.93,-138.93C1491.74,-126.41 1545.84,-107.49 1577.48,-96.43"/>
<polygon fill="#63b8ff" stroke="#63b8ff" points="1455.16,-135.5 1446.87,-142.1 1457.47,-142.1 1455.16,-135.5"/>
</g>
<!-- Node3 -->
<g id="node3" class="node">
<title>Node3</title>
<g id="a_node3"><a xlink:href="d__a__alink_8cpp.html" target="_top" xlink:title=" ">
<polygon fill="white" stroke="#666666" points="1339.5,-24.5 1230.5,-24.5 1230.5,-5.5 1339.5,-5.5 1339.5,-24.5"/>
<text text-anchor="middle" x="1285" y="-12.5" font-family="Helvetica,sans-Serif" font-size="10.00">src/d/a/d_a_alink.cpp</text>
</a>
</g>
</g>
<!-- Node2&#45;&gt;Node3 -->
<g id="edge2" class="edge">
<title>Node2&#45;&gt;Node3</title>
<path fill="none" stroke="#63b8ff" d="M794.62,-80.01C890.87,-71.89 1069.84,-54.92 1221,-30 1229.53,-28.59 1238.63,-26.79 1247.22,-24.95"/>
<polygon fill="#63b8ff" stroke="#63b8ff" points="794.49,-76.51 784.81,-80.83 795.07,-83.48 794.49,-76.51"/>
</g>
<!-- Node4 -->
<g id="node4" class="node">
<title>Node4</title>
<g id="a_node4"><a xlink:href="d__a__player_8cpp.html" target="_top" xlink:title=" ">
<polygon fill="white" stroke="#666666" points="114,-24.5 0,-24.5 0,-5.5 114,-5.5 114,-24.5"/>
<text text-anchor="middle" x="57" y="-12.5" font-family="Helvetica,sans-Serif" font-size="10.00">src/d/a/d_a_player.cpp</text>
</a>
</g>
</g>
<!-- Node2&#45;&gt;Node4 -->
<g id="edge3" class="edge">
<title>Node2&#45;&gt;Node4</title>
<path fill="none" stroke="#63b8ff" d="M655.45,-81.74C543.02,-75.07 314.62,-59.05 123,-30 114.08,-28.65 104.56,-26.84 95.6,-24.98"/>
<polygon fill="#63b8ff" stroke="#63b8ff" points="654.91,-85.22 665.1,-82.31 655.32,-78.23 654.91,-85.22"/>
</g>
<!-- Node5 -->
<g id="node5" class="node">
<title>Node5</title>
<g id="a_node5"><a xlink:href="d__com__inf__game_8cpp.html" target="_top" xlink:title=" ">
<polygon fill="white" stroke="#666666" points="240,-30 132,-30 132,0 240,0 240,-30"/>
<text text-anchor="start" x="140" y="-18" font-family="Helvetica,sans-Serif" font-size="10.00">src/d/com/d_com_inf</text>
<text text-anchor="middle" x="186" y="-7" font-family="Helvetica,sans-Serif" font-size="10.00">_game.cpp</text>
</a>
</g>
</g>
<!-- Node2&#45;&gt;Node5 -->
<g id="edge4" class="edge">
<title>Node2&#45;&gt;Node5</title>
<path fill="none" stroke="#63b8ff" d="M655.62,-79.66C562.66,-71.32 392.72,-54.28 249,-30 246.13,-29.51 243.19,-28.98 240.23,-28.42"/>
<polygon fill="#63b8ff" stroke="#63b8ff" points="655.06,-83.12 665.33,-80.52 655.68,-76.15 655.06,-83.12"/>
</g>
<!-- Node6 -->
<g id="node6" class="node">
<title>Node6</title>
<g id="a_node6"><a xlink:href="d__camera_8cpp.html" target="_top" xlink:title=" ">
<polygon fill="white" stroke="#666666" points="360,-24.5 258,-24.5 258,-5.5 360,-5.5 360,-24.5"/>
<text text-anchor="middle" x="309" y="-12.5" font-family="Helvetica,sans-Serif" font-size="10.00">src/d/d_camera.cpp</text>
</a>
</g>
</g>
<!-- Node2&#45;&gt;Node6 -->
<g id="edge5" class="edge">
<title>Node2&#45;&gt;Node6</title>
<path fill="none" stroke="#63b8ff" d="M655.64,-76.25C583.7,-66.29 468.08,-49.26 369,-30 361.33,-28.51 353.16,-26.73 345.4,-24.95"/>
<polygon fill="#63b8ff" stroke="#63b8ff" points="654.92,-79.68 665.31,-77.58 655.88,-72.75 654.92,-79.68"/>
</g>
<!-- Node7 -->
<g id="node7" class="node">
<title>Node7</title>
<g id="a_node7"><a xlink:href="d__ev__camera_8cpp.html" target="_top" xlink:title=" ">
<polygon fill="white" stroke="#666666" points="496,-24.5 378,-24.5 378,-5.5 496,-5.5 496,-24.5"/>
<text text-anchor="middle" x="437" y="-12.5" font-family="Helvetica,sans-Serif" font-size="10.00">src/d/d_ev_camera.cpp</text>
</a>
</g>
</g>
<!-- Node2&#45;&gt;Node7 -->
<g id="edge6" class="edge">
<title>Node2&#45;&gt;Node7</title>
<path fill="none" stroke="#63b8ff" d="M677.03,-73.92C619.89,-60.13 525.68,-37.4 473.92,-24.91"/>
<polygon fill="#63b8ff" stroke="#63b8ff" points="675.93,-77.26 686.47,-76.2 677.57,-70.45 675.93,-77.26"/>
</g>
<!-- Node8 -->
<g id="node8" class="node">
<title>Node8</title>
<g id="a_node8"><a xlink:href="d__event_8cpp.html" target="_top" xlink:title=" ">
<polygon fill="white" stroke="#666666" points="635.5,-24.5 514.5,-24.5 514.5,-5.5 635.5,-5.5 635.5,-24.5"/>
<text text-anchor="middle" x="575" y="-12.5" font-family="Helvetica,sans-Serif" font-size="10.00">src/d/event/d_event.cpp</text>
</a>
</g>
</g>
<!-- Node2&#45;&gt;Node8 -->
<g id="edge7" class="edge">
<title>Node2&#45;&gt;Node8</title>
<path fill="none" stroke="#63b8ff" d="M695.41,-71.79C665.4,-57.89 619.84,-36.78 594.23,-24.91"/>
<polygon fill="#63b8ff" stroke="#63b8ff" points="693.78,-74.89 704.32,-75.92 696.72,-68.54 693.78,-74.89"/>
</g>
<!-- Node9 -->
<g id="node9" class="node">
<title>Node9</title>
<g id="a_node9"><a xlink:href="d__menu__ring_8cpp.html" target="_top" xlink:title=" ">
<polygon fill="white" stroke="#666666" points="796,-24.5 654,-24.5 654,-5.5 796,-5.5 796,-24.5"/>
<text text-anchor="middle" x="725" y="-12.5" font-family="Helvetica,sans-Serif" font-size="10.00">src/d/menu/d_menu_ring.cpp</text>
</a>
</g>
</g>
<!-- Node2&#45;&gt;Node9 -->
<g id="edge8" class="edge">
<title>Node2&#45;&gt;Node9</title>
<path fill="none" stroke="#63b8ff" d="M725,-65.3C725,-51.94 725,-35.09 725,-24.95"/>
<polygon fill="#63b8ff" stroke="#63b8ff" points="721.5,-65.18 725,-75.18 728.5,-65.18 721.5,-65.18"/>
</g>
<!-- Node10 -->
<g id="node10" class="node">
<title>Node10</title>
<g id="a_node10"><a xlink:href="d__meter2__draw_8cpp.html" target="_top" xlink:title=" ">
<polygon fill="white" stroke="#666666" points="924,-30 814,-30 814,0 924,0 924,-30"/>
<text text-anchor="start" x="822" y="-18" font-family="Helvetica,sans-Serif" font-size="10.00">src/d/meter/d_meter2</text>
<text text-anchor="middle" x="869" y="-7" font-family="Helvetica,sans-Serif" font-size="10.00">_draw.cpp</text>
</a>
</g>
</g>
<!-- Node2&#45;&gt;Node10 -->
<g id="edge9" class="edge">
<title>Node2&#45;&gt;Node10</title>
<path fill="none" stroke="#63b8ff" d="M753.72,-71.64C778.43,-59.71 813.95,-42.57 839.01,-30.47"/>
<polygon fill="#63b8ff" stroke="#63b8ff" points="752.38,-68.4 744.89,-75.9 755.42,-74.7 752.38,-68.4"/>
</g>
<!-- Node11 -->
<g id="node11" class="node">
<title>Node11</title>
<g id="a_node11"><a xlink:href="d__msg__flow_8cpp.html" target="_top" xlink:title=" ">
<polygon fill="white" stroke="#666666" points="1075.5,-24.5 942.5,-24.5 942.5,-5.5 1075.5,-5.5 1075.5,-24.5"/>
<text text-anchor="middle" x="1009" y="-12.5" font-family="Helvetica,sans-Serif" font-size="10.00">src/d/msg/d_msg_flow.cpp</text>
</a>
</g>
</g>
<!-- Node2&#45;&gt;Node11 -->
<g id="edge10" class="edge">
<title>Node2&#45;&gt;Node11</title>
<path fill="none" stroke="#63b8ff" d="M772.66,-73.84C829.04,-60.04 921.65,-37.38 972.59,-24.91"/>
<polygon fill="#63b8ff" stroke="#63b8ff" points="771.9,-70.42 763.02,-76.2 773.56,-77.22 771.9,-70.42"/>
</g>
<!-- Node12 -->
<g id="node12" class="node">
<title>Node12</title>
<g id="a_node12"><a xlink:href="f__op__actor_8cpp.html" target="_top" xlink:title=" ">
<polygon fill="white" stroke="#666666" points="1212.5,-24.5 1093.5,-24.5 1093.5,-5.5 1212.5,-5.5 1212.5,-24.5"/>
<text text-anchor="middle" x="1153" y="-12.5" font-family="Helvetica,sans-Serif" font-size="10.00">src/f_op/f_op_actor.cpp</text>
</a>
</g>
</g>
<!-- Node2&#45;&gt;Node12 -->
<g id="edge11" class="edge">
<title>Node2&#45;&gt;Node12</title>
<path fill="none" stroke="#63b8ff" d="M794.51,-75.74C866.95,-65.33 983.67,-47.92 1084,-30 1092.54,-28.47 1101.66,-26.72 1110.36,-24.98"/>
<polygon fill="#63b8ff" stroke="#63b8ff" points="794.18,-72.25 784.77,-77.13 795.17,-79.18 794.18,-72.25"/>
</g>
<!-- Node13&#45;&gt;Node3 -->
<g id="edge13" class="edge">
<title>Node13&#45;&gt;Node3</title>
<path fill="none" stroke="#63b8ff" d="M1327.77,-57.86C1315.72,-46.07 1302.51,-33.14 1294.01,-24.82"/>
<polygon fill="#63b8ff" stroke="#63b8ff" points="1325.17,-60.22 1334.76,-64.71 1330.06,-55.21 1325.17,-60.22"/>
</g>
<!-- Node14 -->
<g id="node14" class="node">
<title>Node14</title>
<g id="a_node14"><a xlink:href="d__com__static_8cpp.html" target="_top" xlink:title=" ">
<polygon fill="white" stroke="#666666" points="1498,-24.5 1358,-24.5 1358,-5.5 1498,-5.5 1498,-24.5"/>
<text text-anchor="middle" x="1428" y="-12.5" font-family="Helvetica,sans-Serif" font-size="10.00">src/d/com/d_com_static.cpp</text>
</a>
</g>
</g>
<!-- Node13&#45;&gt;Node14 -->
<g id="edge14" class="edge">
<title>Node13&#45;&gt;Node14</title>
<path fill="none" stroke="#63b8ff" d="M1384.63,-57.86C1396.84,-46.07 1410.24,-33.14 1418.86,-24.82"/>
<polygon fill="#63b8ff" stroke="#63b8ff" points="1382.29,-55.26 1377.53,-64.72 1387.15,-60.29 1382.29,-55.26"/>
</g>
<!-- Node15 -->
<g id="node15" class="node">
<title>Node15</title>
<g id="a_node15"><a xlink:href="d__save_8cpp.html" target="_top" xlink:title=" ">
<polygon fill="white" stroke="#666666" points="1631.5,-24.5 1516.5,-24.5 1516.5,-5.5 1631.5,-5.5 1631.5,-24.5"/>
<text text-anchor="middle" x="1574" y="-12.5" font-family="Helvetica,sans-Serif" font-size="10.00">src/d/save/d_save.cpp</text>
</a>
</g>
</g>
<!-- Node13&#45;&gt;Node15 -->
<g id="edge15" class="edge">
<title>Node13&#45;&gt;Node15</title>
<path fill="none" stroke="#63b8ff" d="M1425.16,-63.45C1466.07,-50.41 1515.65,-34.6 1546.01,-24.92"/>
<polygon fill="#63b8ff" stroke="#63b8ff" points="1424.33,-60.04 1415.86,-66.42 1426.45,-66.71 1424.33,-60.04"/>
</g>
</g>
</svg>
        <g id="navigator" transform="translate(0 0)" fill="#404254">
                <rect fill="#f2f5e9" fill-opacity="0.5" stroke="#606060" stroke-width=".5" x="0" y="0" width="60" height="60"/>
                <use id="zoomplus" xlink:href="#zoomPlus" x="17" y="9" onmousedown="handleZoom(evt,'in')"/>
                <use id="zoomminus" xlink:href="#zoomMin" x="42" y="9" onmousedown="handleZoom(evt,'out')"/>
                <use id="reset" xlink:href="#resetDef" x="30" y="36" onmousedown="handleReset()"/>
                <g id="arrowUp" xlink:href="#dirArrow" transform="translate(30 24)" onmousedown="handlePan(0,-1)">
                  <use xlink:href="#rim" fill="#404040">
                        <set attributeName="fill" to="#808080" begin="arrowUp.mouseover" end="arrowUp.mouseout"/>
                  </use>
                  <path fill="none" stroke="white" stroke-width="1.5" d="M0,-3.0v7 M-2.5,-0.5L0,-3.0L2.5,-0.5"/>
                </g>
                <g id="arrowRight" xlink:href="#dirArrow" transform="rotate(90) translate(36 -43)" onmousedown="handlePan(1,0)">
                  <use xlink:href="#rim" fill="#404040">
                        <set attributeName="fill" to="#808080" begin="arrowRight.mouseover" end="arrowRight.mouseout"/>
                  </use>
                  <path fill="none" stroke="white" stroke-width="1.5" d="M0,-3.0v7 M-2.5,-0.5L0,-3.0L2.5,-0.5"/>
                </g>
                <g id="arrowDown" xlink:href="#dirArrow" transform="rotate(180) translate(-30 -48)" onmousedown="handlePan(0,1)">
                  <use xlink:href="#rim" fill="#404040">
                        <set attributeName="fill" to="#808080" begin="arrowDown.mouseover" end="arrowDown.mouseout"/>
                  </use>
                  <path fill="none" stroke="white" stroke-width="1.5" d="M0,-3.0v7 M-2.5,-0.5L0,-3.0L2.5,-0.5"/>
                </g>
                <g id="arrowLeft" xlink:href="#dirArrow" transform="rotate(270) translate(-36 17)" onmousedown="handlePan(-1,0)">
                  <use xlink:href="#rim" fill="#404040">
                        <set attributeName="fill" to="#808080" begin="arrowLeft.mouseover" end="arrowLeft.mouseout"/>
                  </use>
                  <path fill="none" stroke="white" stroke-width="1.5" d="M0,-3.0v7 M-2.5,-0.5L0,-3.0L2.5,-0.5"/>
                </g>
        </g>
        <svg viewBox="0 0 15 15" width="100%" height="30px" preserveAspectRatio="xMaxYMin meet">
         <g id="arrow_out" transform="scale(0.3 0.3)">
          <a xlink:href="d__jnt__col_8h__dep__incl_org.svg" target="_base">
           <rect id="button" ry="5" rx="5" y="6" x="6" height="38" width="38"
                fill="#f2f5e9" fill-opacity="0.5" stroke="#606060" stroke-width="1.0"/>
           <path id="arrow"
             d="M 11.500037,31.436501 C 11.940474,20.09759 22.043105,11.32322 32.158766,21.979434 L 37.068811,17.246167 C 37.068811,17.246167 37.088388,32 37.088388,32 L 22.160133,31.978069 C 22.160133,31.978069 26.997745,27.140456 26.997745,27.140456 C 18.528582,18.264221 13.291696,25.230495 11.500037,31.436501 z"
             style="fill:#404040;"/>
          </a>
         </g>
        </svg>
</svg>
