<?xml version="1.0" encoding="UTF-8" standalone="no"?>
<!DOCTYPE svg PUBLIC "-//W3C//DTD SVG 1.1//EN"
 "http://www.w3.org/Graphics/SVG/1.1/DTD/svg11.dtd">
<!-- Generated by graphviz version 7.0.5 (20221223.1930)
 -->
<!-- Title: include/msg/scrn/d_msg_scrn_3select.h Pages: 1 -->
<svg width="554pt" height="104pt"
 viewBox="0.00 0.00 554.00 104.00" xmlns="http://www.w3.org/2000/svg" xmlns:xlink="http://www.w3.org/1999/xlink">
<g id="graph0" class="graph" transform="scale(1 1) rotate(0) translate(4 100)">
<title>include/msg/scrn/d_msg_scrn_3select.h</title>
<!-- Node1 -->
<g id="node1" class="node">
<title>Node1</title>
<g id="a_node1"><a xlink:title=" ">
<polygon fill="#999999" stroke="#666666" points="355.5,-96 246.5,-96 246.5,-66 355.5,-66 355.5,-96"/>
<text text-anchor="start" x="254.5" y="-84" font-family="Helvetica,sans-Serif" font-size="10.00">include/msg/scrn/d</text>
<text text-anchor="middle" x="301" y="-73" font-family="Helvetica,sans-Serif" font-size="10.00">_msg_scrn_3select.h</text>
</a>
</g>
</g>
<!-- Node2 -->
<g id="node2" class="node">
<title>Node2</title>
<g id="a_node2"><a xlink:href="d__menu__insect_8cpp.html" target="_top" xlink:title=" ">
<polygon fill="white" stroke="#666666" points="152,-24.5 0,-24.5 0,-5.5 152,-5.5 152,-24.5"/>
<text text-anchor="middle" x="76" y="-12.5" font-family="Helvetica,sans-Serif" font-size="10.00">src/d/menu/d_menu_insect.cpp</text>
</a>
</g>
</g>
<!-- Node1&#45;&gt;Node2 -->
<g id="edge1" class="edge">
<title>Node1&#45;&gt;Node2</title>
<path fill="none" stroke="#63b8ff" d="M239.37,-62.47C196.66,-50.32 141.56,-34.65 107.51,-24.96"/>
<polygon fill="#63b8ff" stroke="#63b8ff" points="238.19,-65.77 248.77,-65.14 240.11,-59.04 238.19,-65.77"/>
</g>
<!-- Node3 -->
<g id="node3" class="node">
<title>Node3</title>
<g id="a_node3"><a xlink:href="d__menu__item__explain_8cpp.html" target="_top" xlink:title=" ">
<polygon fill="white" stroke="#666666" points="297.5,-30 170.5,-30 170.5,0 297.5,0 297.5,-30"/>
<text text-anchor="start" x="178.5" y="-18" font-family="Helvetica,sans-Serif" font-size="10.00">src/d/menu/d_menu_item</text>
<text text-anchor="middle" x="234" y="-7" font-family="Helvetica,sans-Serif" font-size="10.00">_explain.cpp</text>
</a>
</g>
</g>
<!-- Node1&#45;&gt;Node3 -->
<g id="edge2" class="edge">
<title>Node1&#45;&gt;Node3</title>
<path fill="none" stroke="#63b8ff" d="M278.06,-58.09C268.39,-48.85 257.41,-38.36 248.83,-30.16"/>
<polygon fill="#63b8ff" stroke="#63b8ff" points="275.39,-60.37 285.04,-64.75 280.22,-55.31 275.39,-60.37"/>
</g>
<!-- Node4 -->
<g id="node4" class="node">
<title>Node4</title>
<g id="a_node4"><a xlink:href="d__msg__scrn__3select_8cpp.html" target="_top" xlink:title=" ">
<polygon fill="white" stroke="#666666" points="422,-30 316,-30 316,0 422,0 422,-30"/>
<text text-anchor="start" x="324" y="-18" font-family="Helvetica,sans-Serif" font-size="10.00">src/msg/scrn/d_msg</text>
<text text-anchor="middle" x="369" y="-7" font-family="Helvetica,sans-Serif" font-size="10.00">_scrn_3select.cpp</text>
</a>
</g>
</g>
<!-- Node1&#45;&gt;Node4 -->
<g id="edge3" class="edge">
<title>Node1&#45;&gt;Node4</title>
<path fill="none" stroke="#63b8ff" d="M324.28,-58.09C334.1,-48.85 345.24,-38.36 353.95,-30.16"/>
<polygon fill="#63b8ff" stroke="#63b8ff" points="322.08,-55.36 317.19,-64.76 326.87,-60.45 322.08,-55.36"/>
</g>
<!-- Node5 -->
<g id="node5" class="node">
<title>Node5</title>
<g id="a_node5"><a xlink:href="d__msg__scrn__explain_8cpp.html" target="_top" xlink:title=" ">
<polygon fill="white" stroke="#666666" points="546,-30 440,-30 440,0 546,0 546,-30"/>
<text text-anchor="start" x="448" y="-18" font-family="Helvetica,sans-Serif" font-size="10.00">src/msg/scrn/d_msg</text>
<text text-anchor="middle" x="493" y="-7" font-family="Helvetica,sans-Serif" font-size="10.00">_scrn_explain.cpp</text>
</a>
</g>
</g>
<!-- Node1&#45;&gt;Node5 -->
<g id="edge4" class="edge">
<title>Node1&#45;&gt;Node5</title>
<path fill="none" stroke="#63b8ff" d="M354.8,-62.07C384.78,-52.07 421.62,-39.79 449.72,-30.43"/>
<polygon fill="#63b8ff" stroke="#63b8ff" points="353.9,-58.68 345.52,-65.16 356.12,-65.32 353.9,-58.68"/>
</g>
</g>
</svg>
