<?xml version="1.0" encoding="UTF-8" standalone="no"?>
<!DOCTYPE svg PUBLIC "-//W3C//DTD SVG 1.1//EN"
 "http://www.w3.org/Graphics/SVG/1.1/DTD/svg11.dtd">
<!-- Generated by graphviz version 7.0.5 (20221223.1930)
 -->
<!-- Title: src/d/menu/d_menu_insect.cpp Pages: 1 -->
<svg width="2802pt" height="412pt"
 viewBox="0.00 0.00 2801.86 412.00" xmlns="http://www.w3.org/2000/svg" xmlns:xlink="http://www.w3.org/1999/xlink">
<g id="graph0" class="graph" transform="scale(1 1) rotate(0) translate(4 408)">
<title>src/d/menu/d_menu_insect.cpp</title>
<!-- Node1 -->
<g id="node1" class="node">
<title>Node1</title>
<g id="a_node1"><a xlink:title=" ">
<polygon fill="#999999" stroke="#666666" points="1806.36,-404 1654.36,-404 1654.36,-385 1806.36,-385 1806.36,-404"/>
<text text-anchor="middle" x="1730.36" y="-392" font-family="Helvetica,sans-Serif" font-size="10.00">src/d/menu/d_menu_insect.cpp</text>
</a>
</g>
</g>
<!-- Node2 -->
<g id="node2" class="node">
<title>Node2</title>
<g id="a_node2"><a xlink:href="d__menu__insect_8h.html" target="_top" xlink:title=" ">
<polygon fill="white" stroke="#666666" points="512.86,-343.5 387.86,-343.5 387.86,-324.5 512.86,-324.5 512.86,-343.5"/>
<text text-anchor="middle" x="450.36" y="-331.5" font-family="Helvetica,sans-Serif" font-size="10.00">d/menu/d_menu_insect.h</text>
</a>
</g>
</g>
<!-- Node1&#45;&gt;Node2 -->
<g id="edge1" class="edge">
<title>Node1&#45;&gt;Node2</title>
<path fill="none" stroke="#63b8ff" d="M1654.12,-393.18C1466.54,-391.85 967.68,-384.9 553.36,-349 542.69,-348.07 531.42,-346.83 520.42,-345.45"/>
<polygon fill="#63b8ff" stroke="#63b8ff" points="520.94,-341.99 510.58,-344.18 520.05,-348.93 520.94,-341.99"/>
</g>
<!-- Node7 -->
<g id="node5" class="node">
<title>Node7</title>
<g id="a_node5"><a xlink:href="types_8h.html" target="_top" xlink:title=" ">
<polygon fill="white" stroke="#666666" points="1553.86,-85 1472.86,-85 1472.86,-66 1553.86,-66 1553.86,-85"/>
<text text-anchor="middle" x="1513.36" y="-73" font-family="Helvetica,sans-Serif" font-size="10.00">dolphin/types.h</text>
</a>
</g>
</g>
<!-- Node1&#45;&gt;Node7 -->
<g id="edge64" class="edge">
<title>Node1&#45;&gt;Node7</title>
<path fill="none" stroke="#63b8ff" d="M1777.5,-384.51C1863.34,-366.78 2036.36,-324.2 2036.36,-269 2036.36,-269 2036.36,-269 2036.36,-201 2036.36,-164.46 2045.01,-144.9 2017.36,-121 1983.69,-91.89 1687.33,-80.98 1565.41,-77.7"/>
<polygon fill="#63b8ff" stroke="#63b8ff" points="1565.77,-74.21 1555.68,-77.44 1565.59,-81.2 1565.77,-74.21"/>
</g>
<!-- Node220 -->
<g id="node17" class="node">
<title>Node220</title>
<g id="a_node17"><a xlink:href="J2DTextBox_8h.html" target="_top" xlink:title=" ">
<polygon fill="white" stroke="#666666" points="1562.36,-349 1422.36,-349 1422.36,-319 1562.36,-319 1562.36,-349"/>
<text text-anchor="start" x="1430.36" y="-337" font-family="Helvetica,sans-Serif" font-size="10.00">JSystem/J2DGraph/J2DText</text>
<text text-anchor="middle" x="1492.36" y="-326" font-family="Helvetica,sans-Serif" font-size="10.00">Box.h</text>
</a>
</g>
</g>
<!-- Node1&#45;&gt;Node220 -->
<g id="edge24" class="edge">
<title>Node1&#45;&gt;Node220</title>
<path fill="none" stroke="#63b8ff" d="M1693.96,-384.55C1658.98,-375.95 1605.21,-362.74 1562,-352.12"/>
<polygon fill="#63b8ff" stroke="#63b8ff" points="1562.99,-348.76 1552.45,-349.77 1561.32,-355.55 1562.99,-348.76"/>
</g>
<!-- Node225 -->
<g id="node23" class="node">
<title>Node225</title>
<g id="a_node23"><a xlink:href="JKRExpHeap_8h.html" target="_top" xlink:title=" ">
<polygon fill="white" stroke="#666666" points="2223.86,-343.5 2064.86,-343.5 2064.86,-324.5 2223.86,-324.5 2223.86,-343.5"/>
<text text-anchor="middle" x="2144.36" y="-331.5" font-family="Helvetica,sans-Serif" font-size="10.00">JSystem/JKernel/JKRExpHeap.h</text>
</a>
</g>
</g>
<!-- Node1&#45;&gt;Node225 -->
<g id="edge32" class="edge">
<title>Node1&#45;&gt;Node225</title>
<path fill="none" stroke="#63b8ff" d="M1796.27,-384.52C1860.99,-375.67 1962.51,-361.65 2050.36,-349 2057.82,-347.93 2065.61,-346.79 2073.38,-345.65"/>
<polygon fill="#63b8ff" stroke="#63b8ff" points="2073.82,-349.12 2083.2,-344.2 2072.8,-342.19 2073.82,-349.12"/>
</g>
<!-- Node227 -->
<g id="node25" class="node">
<title>Node227</title>
<g id="a_node25"><a xlink:href="JKRMemArchive_8h.html" target="_top" xlink:title=" ">
<polygon fill="white" stroke="#666666" points="977.86,-343.5 802.86,-343.5 802.86,-324.5 977.86,-324.5 977.86,-343.5"/>
<text text-anchor="middle" x="890.36" y="-331.5" font-family="Helvetica,sans-Serif" font-size="10.00">JSystem/JKernel/JKRMemArchive.h</text>
</a>
</g>
</g>
<!-- Node1&#45;&gt;Node227 -->
<g id="edge34" class="edge">
<title>Node1&#45;&gt;Node227</title>
<path fill="none" stroke="#63b8ff" d="M1654.16,-388.35C1533.18,-380.16 1289.73,-363.58 1083.36,-349 1052.9,-346.85 1019.75,-344.46 989.64,-342.27"/>
<polygon fill="#63b8ff" stroke="#63b8ff" points="990.01,-338.79 979.78,-341.56 989.5,-345.77 990.01,-338.79"/>
</g>
<!-- Node228 -->
<g id="node27" class="node">
<title>Node228</title>
<g id="a_node27"><a xlink:href="JUTTexture_8h.html" target="_top" xlink:title=" ">
<polygon fill="white" stroke="#666666" points="1139.86,-277.5 990.86,-277.5 990.86,-258.5 1139.86,-258.5 1139.86,-277.5"/>
<text text-anchor="middle" x="1065.36" y="-265.5" font-family="Helvetica,sans-Serif" font-size="10.00">JSystem/JUtility/JUTTexture.h</text>
</a>
</g>
</g>
<!-- Node1&#45;&gt;Node228 -->
<g id="edge37" class="edge">
<title>Node1&#45;&gt;Node228</title>
<path fill="none" stroke="#63b8ff" d="M1654.05,-394.07C1517.12,-394.06 1235.75,-388.96 1147.36,-349 1117.41,-335.46 1091.95,-306.05 1077.67,-286.91"/>
<polygon fill="#63b8ff" stroke="#63b8ff" points="1080.64,-285.06 1071.97,-278.97 1074.96,-289.14 1080.64,-285.06"/>
</g>
<!-- Node229 -->
<g id="node29" class="node">
<title>Node229</title>
<g id="a_node29"><a xlink:href="stdio_8h.html" target="_top" xlink:title=" ">
<polygon fill="white" stroke="#666666" points="2328.86,-343.5 2247.86,-343.5 2247.86,-324.5 2328.86,-324.5 2328.86,-343.5"/>
<text text-anchor="middle" x="2288.36" y="-331.5" font-family="Helvetica,sans-Serif" font-size="10.00">MSL_C/stdio.h</text>
</a>
</g>
</g>
<!-- Node1&#45;&gt;Node229 -->
<g id="edge41" class="edge">
<title>Node1&#45;&gt;Node229</title>
<path fill="none" stroke="#63b8ff" d="M1806.52,-390.46C1905.3,-385.67 2082.66,-374.19 2232.36,-349 2236.51,-348.3 2240.8,-347.46 2245.08,-346.53"/>
<polygon fill="#63b8ff" stroke="#63b8ff" points="2245.84,-349.95 2254.79,-344.28 2244.26,-343.13 2245.84,-349.95"/>
</g>
<!-- Node234 -->
<g id="node33" class="node">
<title>Node234</title>
<g id="a_node33"><a xlink:href="d__lib_8h.html" target="_top" xlink:title=" ">
<polygon fill="white" stroke="#666666" points="1629.86,-211.5 1576.86,-211.5 1576.86,-192.5 1629.86,-192.5 1629.86,-211.5"/>
<text text-anchor="middle" x="1603.36" y="-199.5" font-family="Helvetica,sans-Serif" font-size="10.00">d/d_lib.h</text>
</a>
</g>
</g>
<!-- Node1&#45;&gt;Node234 -->
<g id="edge45" class="edge">
<title>Node1&#45;&gt;Node234</title>
<path fill="none" stroke="#63b8ff" d="M1731.44,-384.53C1733.83,-360.54 1737.12,-293.96 1706.36,-253 1697.55,-241.26 1664.64,-226.43 1638.36,-215.98"/>
<polygon fill="#63b8ff" stroke="#63b8ff" points="1639.95,-212.85 1629.36,-212.48 1637.41,-219.37 1639.95,-212.85"/>
</g>
<!-- Node235 -->
<g id="node35" class="node">
<title>Node235</title>
<g id="a_node35"><a xlink:href="d__select__cursor_8h.html" target="_top" xlink:title=" ">
<polygon fill="white" stroke="#666666" points="663.86,-343.5 562.86,-343.5 562.86,-324.5 663.86,-324.5 663.86,-343.5"/>
<text text-anchor="middle" x="613.36" y="-331.5" font-family="Helvetica,sans-Serif" font-size="10.00">d/d_select_cursor.h</text>
</a>
</g>
</g>
<!-- Node1&#45;&gt;Node235 -->
<g id="edge50" class="edge">
<title>Node1&#45;&gt;Node235</title>
<path fill="none" stroke="#63b8ff" d="M1654.11,-390.66C1494.37,-384.54 1112.95,-369.01 793.36,-349 754.15,-346.54 710.19,-343.14 675.53,-340.3"/>
<polygon fill="#63b8ff" stroke="#63b8ff" points="675.91,-336.82 665.66,-339.49 675.34,-343.8 675.91,-336.82"/>
</g>
<!-- Node241 -->
<g id="node37" class="node">
<title>Node241</title>
<g id="a_node37"><a xlink:href="d__meter2__info_8h.html" target="_top" xlink:title=" ">
<polygon fill="white" stroke="#666666" points="1702.36,-343.5 1580.36,-343.5 1580.36,-324.5 1702.36,-324.5 1702.36,-343.5"/>
<text text-anchor="middle" x="1641.36" y="-331.5" font-family="Helvetica,sans-Serif" font-size="10.00">d/meter/d_meter2_info.h</text>
</a>
</g>
</g>
<!-- Node1&#45;&gt;Node241 -->
<g id="edge53" class="edge">
<title>Node1&#45;&gt;Node241</title>
<path fill="none" stroke="#63b8ff" d="M1716.84,-384.62C1702.99,-375.51 1681.19,-361.18 1664.57,-350.25"/>
<polygon fill="#63b8ff" stroke="#63b8ff" points="1666.55,-347.37 1656.27,-344.8 1662.7,-353.22 1666.55,-347.37"/>
</g>
<!-- Node242 -->
<g id="node38" class="node">
<title>Node242</title>
<g id="a_node38"><a xlink:href="d__meter__HIO_8h.html" target="_top" xlink:title=" ">
<polygon fill="white" stroke="#666666" points="1275.86,-343.5 1156.86,-343.5 1156.86,-324.5 1275.86,-324.5 1275.86,-343.5"/>
<text text-anchor="middle" x="1216.36" y="-331.5" font-family="Helvetica,sans-Serif" font-size="10.00">d/meter/d_meter_HIO.h</text>
</a>
</g>
</g>
<!-- Node1&#45;&gt;Node242 -->
<g id="edge55" class="edge">
<title>Node1&#45;&gt;Node242</title>
<path fill="none" stroke="#63b8ff" d="M1653.97,-384.81C1555.07,-373.55 1384.03,-354.08 1287.68,-343.12"/>
<polygon fill="#63b8ff" stroke="#63b8ff" points="1288.15,-339.65 1277.82,-341.99 1287.36,-346.6 1288.15,-339.65"/>
</g>
<!-- Node243 -->
<g id="node41" class="node">
<title>Node243</title>
<g id="a_node41"><a xlink:href="d__msg__string_8h.html" target="_top" xlink:title=" ">
<polygon fill="white" stroke="#666666" points="2459.86,-343.5 2346.86,-343.5 2346.86,-324.5 2459.86,-324.5 2459.86,-343.5"/>
<text text-anchor="middle" x="2403.36" y="-331.5" font-family="Helvetica,sans-Serif" font-size="10.00">d/msg/d_msg_string.h</text>
</a>
</g>
</g>
<!-- Node1&#45;&gt;Node243 -->
<g id="edge61" class="edge">
<title>Node1&#45;&gt;Node243</title>
<path fill="none" stroke="#63b8ff" d="M1806.56,-391.32C1922.07,-387.26 2148.22,-376.3 2338.36,-349 2343.72,-348.23 2349.3,-347.27 2354.84,-346.22"/>
<polygon fill="#63b8ff" stroke="#63b8ff" points="2355.46,-349.67 2364.57,-344.26 2354.08,-342.8 2355.46,-349.67"/>
</g>
<!-- Node254 -->
<g id="node43" class="node">
<title>Node254</title>
<g id="a_node43"><a xlink:href="dol2asm_8h.html" target="_top" xlink:title=" ">
<polygon fill="white" stroke="#666666" points="2538.86,-343.5 2477.86,-343.5 2477.86,-324.5 2538.86,-324.5 2538.86,-343.5"/>
<text text-anchor="middle" x="2508.36" y="-331.5" font-family="Helvetica,sans-Serif" font-size="10.00">dol2asm.h</text>
</a>
</g>
</g>
<!-- Node1&#45;&gt;Node254 -->
<g id="edge63" class="edge">
<title>Node1&#45;&gt;Node254</title>
<path fill="none" stroke="#63b8ff" d="M1806.85,-391.65C1969.39,-387.26 2344.48,-374.63 2469.36,-349 2471.53,-348.56 2473.74,-348.02 2475.95,-347.41"/>
<polygon fill="#63b8ff" stroke="#63b8ff" points="2476.89,-350.78 2485.37,-344.42 2474.78,-344.11 2476.89,-350.78"/>
</g>
<!-- Node255 -->
<g id="node44" class="node">
<title>Node255</title>
<g id="a_node44"><a xlink:href="m__Do__controller__pad_8h.html" target="_top" xlink:title=" ">
<polygon fill="white" stroke="#666666" points="2008.36,-283 1892.36,-283 1892.36,-253 2008.36,-253 2008.36,-283"/>
<text text-anchor="start" x="1900.36" y="-271" font-family="Helvetica,sans-Serif" font-size="10.00">m_Do/m_Do_controller</text>
<text text-anchor="middle" x="1950.36" y="-260" font-family="Helvetica,sans-Serif" font-size="10.00">_pad.h</text>
</a>
</g>
</g>
<!-- Node1&#45;&gt;Node255 -->
<g id="edge65" class="edge">
<title>Node1&#45;&gt;Node255</title>
<path fill="none" stroke="#63b8ff" d="M1746.18,-384.55C1781.32,-364.66 1866.57,-316.42 1915.07,-288.97"/>
<polygon fill="#63b8ff" stroke="#63b8ff" points="1916.54,-292.16 1923.52,-284.19 1913.09,-286.07 1916.54,-292.16"/>
</g>
<!-- Node259 -->
<g id="node47" class="node">
<title>Node259</title>
<g id="a_node47"><a xlink:href="m__Do__graphic_8h.html" target="_top" xlink:title=" ">
<polygon fill="white" stroke="#666666" points="1873.86,-277.5 1758.86,-277.5 1758.86,-258.5 1873.86,-258.5 1873.86,-277.5"/>
<text text-anchor="middle" x="1816.36" y="-265.5" font-family="Helvetica,sans-Serif" font-size="10.00">m_Do/m_Do_graphic.h</text>
</a>
</g>
</g>
<!-- Node1&#45;&gt;Node259 -->
<g id="edge71" class="edge">
<title>Node1&#45;&gt;Node259</title>
<path fill="none" stroke="#63b8ff" d="M1736.55,-384.55C1750.62,-364.18 1785.24,-314.05 1803.93,-287"/>
<polygon fill="#63b8ff" stroke="#63b8ff" points="1806.57,-289.34 1809.37,-279.12 1800.81,-285.36 1806.57,-289.34"/>
</g>
<!-- Node266 -->
<g id="node49" class="node">
<title>Node266</title>
<g id="a_node49"><a xlink:href="d__msg__scrn__3select_8h.html" target="_top" xlink:title=" ">
<polygon fill="white" stroke="#666666" points="369.86,-349 256.86,-349 256.86,-319 369.86,-319 369.86,-349"/>
<text text-anchor="start" x="264.86" y="-337" font-family="Helvetica,sans-Serif" font-size="10.00">msg/scrn/d_msg_scrn</text>
<text text-anchor="middle" x="313.36" y="-326" font-family="Helvetica,sans-Serif" font-size="10.00">_3select.h</text>
</a>
</g>
</g>
<!-- Node1&#45;&gt;Node266 -->
<g id="edge76" class="edge">
<title>Node1&#45;&gt;Node266</title>
<path fill="none" stroke="#63b8ff" d="M1654.14,-392.79C1410.28,-390.23 650,-380.04 381.59,-349.22"/>
<polygon fill="#63b8ff" stroke="#63b8ff" points="382.18,-345.76 371.84,-348.05 381.35,-352.71 382.18,-345.76"/>
</g>
<!-- Node267 -->
<g id="node50" class="node">
<title>Node267</title>
<g id="a_node50"><a xlink:title=" ">
<polygon fill="#e0e0e0" stroke="#999999" points="2709.36,-349 2557.36,-349 2557.36,-319 2709.36,-319 2709.36,-349"/>
<text text-anchor="start" x="2565.36" y="-337" font-family="Helvetica,sans-Serif" font-size="10.00">asm/d/menu/d_menu_insect</text>
<text text-anchor="middle" x="2633.36" y="-326" font-family="Helvetica,sans-Serif" font-size="10.00">/draw__14dMenu_Insect_cFv.s</text>
</a>
</g>
</g>
<!-- Node1&#45;&gt;Node267 -->
<g id="edge78" class="edge">
<title>Node1&#45;&gt;Node267</title>
<path fill="none" stroke="#63b8ff" d="M1806.71,-392.12C1949.75,-388.93 2268.02,-378.96 2545.85,-349.19"/>
<polygon fill="#63b8ff" stroke="#63b8ff" points="2545.89,-352.71 2555.46,-348.15 2545.14,-345.75 2545.89,-352.71"/>
</g>
<!-- Node3 -->
<g id="node3" class="node">
<title>Node3</title>
<g id="a_node3"><a xlink:href="d__com__inf__game_8h.html" target="_top" xlink:title=" ">
<polygon fill="#fff0f0" stroke="red" points="506.36,-277.5 378.36,-277.5 378.36,-258.5 506.36,-258.5 506.36,-277.5"/>
<text text-anchor="middle" x="442.36" y="-265.5" font-family="Helvetica,sans-Serif" font-size="10.00">d/com/d_com_inf_game.h</text>
</a>
</g>
</g>
<!-- Node2&#45;&gt;Node3 -->
<g id="edge2" class="edge">
<title>Node2&#45;&gt;Node3</title>
<path fill="none" stroke="#63b8ff" d="M449.25,-324.1C448.13,-315.12 446.35,-300.95 444.89,-289.22"/>
<polygon fill="#63b8ff" stroke="#63b8ff" points="448.37,-288.81 443.65,-279.33 441.42,-289.68 448.37,-288.81"/>
</g>
<!-- Node209 -->
<g id="node16" class="node">
<title>Node209</title>
<g id="a_node16"><a xlink:href="d__drawlist_8h.html" target="_top" xlink:title=" ">
<polygon fill="#fff0f0" stroke="red" points="351.86,-277.5 274.86,-277.5 274.86,-258.5 351.86,-258.5 351.86,-277.5"/>
<text text-anchor="middle" x="313.36" y="-265.5" font-family="Helvetica,sans-Serif" font-size="10.00">d/d_drawlist.h</text>
</a>
</g>
</g>
<!-- Node2&#45;&gt;Node209 -->
<g id="edge21" class="edge">
<title>Node2&#45;&gt;Node209</title>
<path fill="none" stroke="#63b8ff" d="M431.31,-324.1C408.31,-313.35 369.37,-295.16 342.56,-282.64"/>
<polygon fill="#63b8ff" stroke="#63b8ff" points="344.16,-279.53 333.62,-278.46 341.2,-285.87 344.16,-279.53"/>
</g>
<!-- Node4 -->
<g id="node4" class="node">
<title>Node4</title>
<g id="a_node4"><a xlink:href="d__bg__s_8h.html" target="_top" xlink:title=" ">
<polygon fill="#fff0f0" stroke="red" points="102.86,-211.5 25.86,-211.5 25.86,-192.5 102.86,-192.5 102.86,-211.5"/>
<text text-anchor="middle" x="64.36" y="-199.5" font-family="Helvetica,sans-Serif" font-size="10.00">d/bg/d_bg_s.h</text>
</a>
</g>
</g>
<!-- Node3&#45;&gt;Node4 -->
<g id="edge3" class="edge">
<title>Node3&#45;&gt;Node4</title>
<path fill="none" stroke="#63b8ff" d="M391.22,-258.06C381,-256.33 370.35,-254.57 360.36,-253 249.91,-235.59 220.57,-241.02 111.36,-217 108.6,-216.39 105.76,-215.71 102.91,-214.97"/>
<polygon fill="#63b8ff" stroke="#63b8ff" points="104.05,-211.66 93.48,-212.37 102.19,-218.4 104.05,-211.66"/>
</g>
<!-- Node17 -->
<g id="node7" class="node">
<title>Node17</title>
<g id="a_node7"><a xlink:href="global_8h.html" target="_top" xlink:title=" ">
<polygon fill="white" stroke="#666666" points="518.36,-145.5 468.36,-145.5 468.36,-126.5 518.36,-126.5 518.36,-145.5"/>
<text text-anchor="middle" x="493.36" y="-133.5" font-family="Helvetica,sans-Serif" font-size="10.00">global.h</text>
</a>
</g>
</g>
<!-- Node3&#45;&gt;Node17 -->
<g id="edge20" class="edge">
<title>Node3&#45;&gt;Node17</title>
<path fill="none" stroke="#63b8ff" d="M394.69,-258.06C339.41,-247.22 254.62,-228.91 245.36,-217 237.17,-206.48 236.92,-197.32 245.36,-187 271.69,-154.83 394.69,-142.9 456.99,-138.86"/>
<polygon fill="#63b8ff" stroke="#63b8ff" points="456.96,-142.37 466.73,-138.27 456.53,-135.38 456.96,-142.37"/>
</g>
<!-- Node18 -->
<g id="node8" class="node">
<title>Node18</title>
<g id="a_node8"><a xlink:href="d__cc__s_8h.html" target="_top" xlink:title=" ">
<polygon fill="#fff0f0" stroke="red" points="197.86,-211.5 120.86,-211.5 120.86,-192.5 197.86,-192.5 197.86,-211.5"/>
<text text-anchor="middle" x="159.36" y="-199.5" font-family="Helvetica,sans-Serif" font-size="10.00">d/cc/d_cc_s.h</text>
</a>
</g>
</g>
<!-- Node3&#45;&gt;Node18 -->
<g id="edge8" class="edge">
<title>Node3&#45;&gt;Node18</title>
<path fill="none" stroke="#63b8ff" d="M398.57,-258.08C352.19,-248.49 276.92,-232.54 212.36,-217 209.43,-216.29 206.41,-215.55 203.36,-214.78"/>
<polygon fill="#63b8ff" stroke="#63b8ff" points="204.41,-211.44 193.85,-212.34 202.66,-218.22 204.41,-211.44"/>
</g>
<!-- Node28 -->
<g id="node9" class="node">
<title>Node28</title>
<g id="a_node9"><a xlink:href="d__attention_8h.html" target="_top" xlink:title=" ">
<polygon fill="#fff0f0" stroke="red" points="334.36,-211.5 254.36,-211.5 254.36,-192.5 334.36,-192.5 334.36,-211.5"/>
<text text-anchor="middle" x="294.36" y="-199.5" font-family="Helvetica,sans-Serif" font-size="10.00">d/d_attention.h</text>
</a>
</g>
</g>
<!-- Node3&#45;&gt;Node28 -->
<g id="edge10" class="edge">
<title>Node3&#45;&gt;Node28</title>
<path fill="none" stroke="#63b8ff" d="M421.78,-258.1C396.71,-247.26 354.12,-228.84 325.14,-216.31"/>
<polygon fill="#63b8ff" stroke="#63b8ff" points="326.72,-213.18 316.15,-212.42 323.94,-219.61 326.72,-213.18"/>
</g>
<!-- Node151 -->
<g id="node10" class="node">
<title>Node151</title>
<g id="a_node10"><a xlink:href="d__resorce_8h.html" target="_top" xlink:title=" ">
<polygon fill="#fff0f0" stroke="red" points="427.86,-211.5 352.86,-211.5 352.86,-192.5 427.86,-192.5 427.86,-211.5"/>
<text text-anchor="middle" x="390.36" y="-199.5" font-family="Helvetica,sans-Serif" font-size="10.00">d/d_resorce.h</text>
</a>
</g>
</g>
<!-- Node3&#45;&gt;Node151 -->
<g id="edge11" class="edge">
<title>Node3&#45;&gt;Node151</title>
<path fill="none" stroke="#63b8ff" d="M435.13,-258.1C427.29,-248.45 414.58,-232.81 404.7,-220.65"/>
<polygon fill="#63b8ff" stroke="#63b8ff" points="407.51,-218.55 398.48,-213 402.07,-222.97 407.51,-218.55"/>
</g>
<!-- Node171 -->
<g id="node11" class="node">
<title>Node171</title>
<g id="a_node11"><a xlink:href="d__vibration_8h.html" target="_top" xlink:title=" ">
<polygon fill="#fff0f0" stroke="red" points="1003.36,-211.5 923.36,-211.5 923.36,-192.5 1003.36,-192.5 1003.36,-211.5"/>
<text text-anchor="middle" x="963.36" y="-199.5" font-family="Helvetica,sans-Serif" font-size="10.00">d/d_vibration.h</text>
</a>
</g>
</g>
<!-- Node3&#45;&gt;Node171 -->
<g id="edge12" class="edge">
<title>Node3&#45;&gt;Node171</title>
<path fill="none" stroke="#63b8ff" d="M506.76,-259.01C523.55,-256.98 541.63,-254.86 558.36,-253 715.98,-235.5 757.54,-246.49 913.36,-217 916.71,-216.37 920.16,-215.62 923.6,-214.79"/>
<polygon fill="#63b8ff" stroke="#63b8ff" points="924.2,-218.25 933.01,-212.37 922.46,-211.48 924.2,-218.25"/>
</g>
<!-- Node173 -->
<g id="node13" class="node">
<title>Node173</title>
<g id="a_node13"><a xlink:href="d__event_8h.html" target="_top" xlink:title=" ">
<polygon fill="#fff0f0" stroke="red" points="540.36,-211.5 446.36,-211.5 446.36,-192.5 540.36,-192.5 540.36,-211.5"/>
<text text-anchor="middle" x="493.36" y="-199.5" font-family="Helvetica,sans-Serif" font-size="10.00">d/event/d_event.h</text>
</a>
</g>
</g>
<!-- Node3&#45;&gt;Node173 -->
<g id="edge14" class="edge">
<title>Node3&#45;&gt;Node173</title>
<path fill="none" stroke="#63b8ff" d="M449.45,-258.1C457.14,-248.45 469.61,-232.81 479.3,-220.65"/>
<polygon fill="#63b8ff" stroke="#63b8ff" points="481.89,-223.01 485.39,-213.01 476.42,-218.65 481.89,-223.01"/>
</g>
<!-- Node194 -->
<g id="node14" class="node">
<title>Node194</title>
<g id="a_node14"><a xlink:href="d__event__manager_8h.html" target="_top" xlink:title=" ">
<polygon fill="#fff0f0" stroke="red" points="904.86,-211.5 767.86,-211.5 767.86,-192.5 904.86,-192.5 904.86,-211.5"/>
<text text-anchor="middle" x="836.36" y="-199.5" font-family="Helvetica,sans-Serif" font-size="10.00">d/event/d_event_manager.h</text>
</a>
</g>
</g>
<!-- Node3&#45;&gt;Node194 -->
<g id="edge16" class="edge">
<title>Node3&#45;&gt;Node194</title>
<path fill="none" stroke="#63b8ff" d="M501.53,-258.01C565.07,-248.27 668.95,-232.1 758.36,-217 764.21,-216.01 770.3,-214.96 776.39,-213.89"/>
<polygon fill="#63b8ff" stroke="#63b8ff" points="776.56,-217.42 785.8,-212.23 775.34,-210.52 776.56,-217.42"/>
</g>
<!-- Node196 -->
<g id="node15" class="node">
<title>Node196</title>
<g id="a_node15"><a xlink:href="d__particle_8h.html" target="_top" xlink:title=" ">
<polygon fill="#fff0f0" stroke="red" points="930.86,-145.5 821.86,-145.5 821.86,-126.5 930.86,-126.5 930.86,-145.5"/>
<text text-anchor="middle" x="876.36" y="-133.5" font-family="Helvetica,sans-Serif" font-size="10.00">d/particle/d_particle.h</text>
</a>
</g>
</g>
<!-- Node3&#45;&gt;Node196 -->
<g id="edge18" class="edge">
<title>Node3&#45;&gt;Node196</title>
<path fill="none" stroke="#63b8ff" d="M465.28,-258.11C487.49,-249.07 521.79,-234.01 549.36,-217 567.68,-205.7 567.71,-195.77 587.36,-187 659.33,-154.88 749.91,-143.32 810.3,-139.2"/>
<polygon fill="#63b8ff" stroke="#63b8ff" points="810.31,-142.71 820.07,-138.59 809.87,-135.72 810.31,-142.71"/>
</g>
<!-- Node4&#45;&gt;Node7 -->
<g id="edge4" class="edge">
<title>Node4&#45;&gt;Node7</title>
<path fill="none" stroke="#63b8ff" d="M92.57,-192.09C98.73,-190.29 105.24,-188.49 111.36,-187 264.33,-149.81 302.97,-139.03 459.36,-121 841.94,-76.88 1307.13,-75.22 1461.11,-76.03"/>
<polygon fill="#63b8ff" stroke="#63b8ff" points="1460.97,-79.53 1470.99,-76.09 1461.01,-72.53 1460.97,-79.53"/>
</g>
<!-- Node4&#45;&gt;Node17 -->
<g id="edge6" class="edge">
<title>Node4&#45;&gt;Node17</title>
<path fill="none" stroke="#63b8ff" d="M91.51,-192.11C97.97,-190.22 104.87,-188.38 111.36,-187 236.64,-160.32 388.25,-145.58 456.69,-139.84"/>
<polygon fill="#63b8ff" stroke="#63b8ff" points="456.91,-143.34 466.59,-139.03 456.34,-136.36 456.91,-143.34"/>
</g>
<!-- Node8 -->
<g id="node6" class="node">
<title>Node8</title>
<g id="a_node6"><a xlink:href="stddef_8h.html" target="_top" xlink:title=" ">
<polygon fill="white" stroke="#666666" points="1581.36,-30 1445.36,-30 1445.36,0 1581.36,0 1581.36,-30"/>
<text text-anchor="start" x="1453.36" y="-18" font-family="Helvetica,sans-Serif" font-size="10.00">MSL_C/MSL_Common/Src</text>
<text text-anchor="middle" x="1513.36" y="-7" font-family="Helvetica,sans-Serif" font-size="10.00">/stddef.h</text>
</a>
</g>
</g>
<!-- Node7&#45;&gt;Node8 -->
<g id="edge5" class="edge">
<title>Node7&#45;&gt;Node8</title>
<path fill="none" stroke="#63b8ff" d="M1513.36,-65.87C1513.36,-59.4 1513.36,-50.2 1513.36,-41.45"/>
<polygon fill="#63b8ff" stroke="#63b8ff" points="1516.86,-41.63 1513.36,-31.63 1509.86,-41.63 1516.86,-41.63"/>
</g>
<!-- Node17&#45;&gt;Node7 -->
<g id="edge7" class="edge">
<title>Node17&#45;&gt;Node7</title>
<path fill="none" stroke="#63b8ff" d="M518.83,-133.54C652.73,-125.86 1276.1,-90.11 1461.33,-79.48"/>
<polygon fill="#63b8ff" stroke="#63b8ff" points="1461.34,-82.99 1471.12,-78.92 1460.94,-76 1461.34,-82.99"/>
</g>
<!-- Node18&#45;&gt;Node17 -->
<g id="edge9" class="edge">
<title>Node18&#45;&gt;Node17</title>
<path fill="none" stroke="#63b8ff" d="M191.49,-192.06C198.35,-190.28 205.58,-188.5 212.36,-187 299.41,-167.79 402.88,-150.89 456.7,-142.54"/>
<polygon fill="#63b8ff" stroke="#63b8ff" points="457.19,-146 466.54,-141.02 456.12,-139.09 457.19,-146"/>
</g>
<!-- Node11 -->
<g id="node12" class="node">
<title>Node11</title>
<g id="a_node12"><a xlink:href="c__xyz_8h.html" target="_top" xlink:title=" ">
<polygon fill="#fff0f0" stroke="red" points="1386.36,-151 1270.36,-151 1270.36,-121 1386.36,-121 1386.36,-151"/>
<text text-anchor="start" x="1278.36" y="-139" font-family="Helvetica,sans-Serif" font-size="10.00">SSystem/SComponent</text>
<text text-anchor="middle" x="1328.36" y="-128" font-family="Helvetica,sans-Serif" font-size="10.00">/c_xyz.h</text>
</a>
</g>
</g>
<!-- Node171&#45;&gt;Node11 -->
<g id="edge13" class="edge">
<title>Node171&#45;&gt;Node11</title>
<path fill="none" stroke="#63b8ff" d="M1003.82,-193.91C1065.34,-183.12 1183.24,-162.45 1258.72,-149.21"/>
<polygon fill="#63b8ff" stroke="#63b8ff" points="1259.26,-152.67 1268.51,-147.49 1258.06,-145.77 1259.26,-152.67"/>
</g>
<!-- Node173&#45;&gt;Node17 -->
<g id="edge15" class="edge">
<title>Node173&#45;&gt;Node17</title>
<path fill="none" stroke="#63b8ff" d="M493.36,-192.1C493.36,-183.12 493.36,-168.95 493.36,-157.22"/>
<polygon fill="#63b8ff" stroke="#63b8ff" points="496.86,-157.34 493.36,-147.34 489.86,-157.34 496.86,-157.34"/>
</g>
<!-- Node194&#45;&gt;Node11 -->
<g id="edge17" class="edge">
<title>Node194&#45;&gt;Node11</title>
<path fill="none" stroke="#63b8ff" d="M883.73,-192.05C893.82,-190.27 904.43,-188.49 914.36,-187 1035.05,-168.9 1176.31,-152.95 1258.71,-144.18"/>
<polygon fill="#63b8ff" stroke="#63b8ff" points="1258.86,-147.68 1268.44,-143.15 1258.12,-140.72 1258.86,-147.68"/>
</g>
<!-- Node196&#45;&gt;Node7 -->
<g id="edge19" class="edge">
<title>Node196&#45;&gt;Node7</title>
<path fill="none" stroke="#63b8ff" d="M931.22,-129.96C1052.57,-118.82 1342.38,-92.2 1461.19,-81.29"/>
<polygon fill="#63b8ff" stroke="#63b8ff" points="1461.34,-84.79 1470.97,-80.39 1460.7,-77.82 1461.34,-84.79"/>
</g>
<!-- Node209&#45;&gt;Node7 -->
<g id="edge22" class="edge">
<title>Node209&#45;&gt;Node7</title>
<path fill="none" stroke="#63b8ff" d="M274.61,-266.66C199.92,-265.08 40.38,-257.01 6.36,-217 -2.28,-206.84 -1.81,-197.54 6.36,-187 78.64,-93.82 146.64,-137.86 263.36,-121 500.15,-86.79 1255.39,-78.5 1461.16,-76.86"/>
<polygon fill="#63b8ff" stroke="#63b8ff" points="1461.03,-80.36 1471,-76.78 1460.97,-73.36 1461.03,-80.36"/>
</g>
<!-- Node209&#45;&gt;Node17 -->
<g id="edge23" class="edge">
<title>Node209&#45;&gt;Node17</title>
<path fill="none" stroke="#63b8ff" d="M274.46,-266.41C201.6,-264.4 48.99,-255.58 16.36,-217 7.75,-206.82 7.44,-196.91 16.36,-187 45.71,-154.42 349.68,-141.6 456.49,-138.08"/>
<polygon fill="#63b8ff" stroke="#63b8ff" points="456.54,-141.59 466.43,-137.77 456.32,-134.59 456.54,-141.59"/>
</g>
<!-- Node221 -->
<g id="node18" class="node">
<title>Node221</title>
<g id="a_node18"><a xlink:href="J2DMaterial_8h.html" target="_top" xlink:title=" ">
<polygon fill="#fff0f0" stroke="red" points="1664.36,-277.5 1500.36,-277.5 1500.36,-258.5 1664.36,-258.5 1664.36,-277.5"/>
<text text-anchor="middle" x="1582.36" y="-265.5" font-family="Helvetica,sans-Serif" font-size="10.00">JSystem/J2DGraph/J2DMaterial.h</text>
</a>
</g>
</g>
<!-- Node220&#45;&gt;Node221 -->
<g id="edge25" class="edge">
<title>Node220&#45;&gt;Node221</title>
<path fill="none" stroke="#63b8ff" d="M1512.34,-318.8C1526.64,-308.62 1545.9,-294.93 1560.59,-284.48"/>
<polygon fill="#63b8ff" stroke="#63b8ff" points="1562.57,-287.37 1568.69,-278.72 1558.51,-281.66 1562.57,-287.37"/>
</g>
<!-- Node211 -->
<g id="node19" class="node">
<title>Node211</title>
<g id="a_node19"><a xlink:href="J2DPane_8h.html" target="_top" xlink:title=" ">
<polygon fill="#fff0f0" stroke="red" points="1482.36,-277.5 1330.36,-277.5 1330.36,-258.5 1482.36,-258.5 1482.36,-277.5"/>
<text text-anchor="middle" x="1406.36" y="-265.5" font-family="Helvetica,sans-Serif" font-size="10.00">JSystem/J2DGraph/J2DPane.h</text>
</a>
</g>
</g>
<!-- Node220&#45;&gt;Node211 -->
<g id="edge26" class="edge">
<title>Node220&#45;&gt;Node211</title>
<path fill="none" stroke="#63b8ff" d="M1473.28,-318.8C1459.61,-308.62 1441.21,-294.93 1427.16,-284.48"/>
<polygon fill="#63b8ff" stroke="#63b8ff" points="1429.57,-281.91 1419.46,-278.75 1425.39,-287.53 1429.57,-281.91"/>
</g>
<!-- Node49 -->
<g id="node20" class="node">
<title>Node49</title>
<g id="a_node20"><a xlink:href="GXEnum_8h.html" target="_top" xlink:title=" ">
<polygon fill="white" stroke="#666666" points="1299.36,-211.5 1189.36,-211.5 1189.36,-192.5 1299.36,-192.5 1299.36,-211.5"/>
<text text-anchor="middle" x="1244.36" y="-199.5" font-family="Helvetica,sans-Serif" font-size="10.00">dolphin/gx/GXEnum.h</text>
</a>
</g>
</g>
<!-- Node211&#45;&gt;Node49 -->
<g id="edge27" class="edge">
<title>Node211&#45;&gt;Node49</title>
<path fill="none" stroke="#63b8ff" d="M1383.84,-258.1C1356.23,-247.19 1309.21,-228.62 1277.48,-216.09"/>
<polygon fill="#63b8ff" stroke="#63b8ff" points="1278.95,-212.9 1268.36,-212.48 1276.38,-219.41 1278.95,-212.9"/>
</g>
<!-- Node39 -->
<g id="node21" class="node">
<title>Node39</title>
<g id="a_node21"><a xlink:href="mtx_8h.html" target="_top" xlink:title=" ">
<polygon fill="#fff0f0" stroke="red" points="1558.36,-211.5 1466.36,-211.5 1466.36,-192.5 1558.36,-192.5 1558.36,-211.5"/>
<text text-anchor="middle" x="1512.36" y="-199.5" font-family="Helvetica,sans-Serif" font-size="10.00">dolphin/mtx/mtx.h</text>
</a>
</g>
</g>
<!-- Node211&#45;&gt;Node39 -->
<g id="edge29" class="edge">
<title>Node211&#45;&gt;Node39</title>
<path fill="none" stroke="#63b8ff" d="M1421.1,-258.1C1438.42,-247.64 1467.43,-230.13 1488.09,-217.66"/>
<polygon fill="#63b8ff" stroke="#63b8ff" points="1489.7,-220.77 1496.45,-212.61 1486.08,-214.78 1489.7,-220.77"/>
</g>
<!-- Node49&#45;&gt;Node7 -->
<g id="edge28" class="edge">
<title>Node49&#45;&gt;Node7</title>
<path fill="none" stroke="#63b8ff" d="M1243.34,-192.05C1242,-175.47 1241.75,-139.94 1261.36,-121 1289.21,-94.1 1395.94,-83.2 1461.24,-78.99"/>
<polygon fill="#63b8ff" stroke="#63b8ff" points="1461.25,-82.49 1471.01,-78.39 1460.82,-75.5 1461.25,-82.49"/>
</g>
<!-- Node39&#45;&gt;Node7 -->
<g id="edge31" class="edge">
<title>Node39&#45;&gt;Node7</title>
<path fill="none" stroke="#63b8ff" d="M1485.93,-192.1C1467.57,-184.37 1444.48,-171.19 1433.36,-151 1426.93,-139.32 1426.6,-132.49 1433.36,-121 1441.72,-106.78 1456.46,-96.77 1471.02,-89.9"/>
<polygon fill="#63b8ff" stroke="#63b8ff" points="1472.28,-93.17 1480.11,-86.03 1469.54,-86.73 1472.28,-93.17"/>
</g>
<!-- Node41 -->
<g id="node22" class="node">
<title>Node41</title>
<g id="a_node22"><a xlink:href="quat_8h.html" target="_top" xlink:title=" ">
<polygon fill="#fff0f0" stroke="red" points="1537.86,-145.5 1442.86,-145.5 1442.86,-126.5 1537.86,-126.5 1537.86,-145.5"/>
<text text-anchor="middle" x="1490.36" y="-133.5" font-family="Helvetica,sans-Serif" font-size="10.00">dolphin/mtx/quat.h</text>
</a>
</g>
</g>
<!-- Node39&#45;&gt;Node41 -->
<g id="edge30" class="edge">
<title>Node39&#45;&gt;Node41</title>
<path fill="none" stroke="#63b8ff" d="M1509.3,-192.1C1506.15,-182.93 1501.13,-168.34 1497.06,-156.48"/>
<polygon fill="#63b8ff" stroke="#63b8ff" points="1500.45,-155.57 1493.89,-147.25 1493.83,-157.85 1500.45,-155.57"/>
</g>
<!-- Node226 -->
<g id="node24" class="node">
<title>Node226</title>
<g id="a_node24"><a xlink:href="JKRHeap_8h.html" target="_top" xlink:title=" ">
<polygon fill="#fff0f0" stroke="red" points="2207.86,-277.5 2064.86,-277.5 2064.86,-258.5 2207.86,-258.5 2207.86,-277.5"/>
<text text-anchor="middle" x="2136.36" y="-265.5" font-family="Helvetica,sans-Serif" font-size="10.00">JSystem/JKernel/JKRHeap.h</text>
</a>
</g>
</g>
<!-- Node225&#45;&gt;Node226 -->
<g id="edge33" class="edge">
<title>Node225&#45;&gt;Node226</title>
<path fill="none" stroke="#63b8ff" d="M2143.25,-324.1C2142.13,-315.12 2140.35,-300.95 2138.89,-289.22"/>
<polygon fill="#63b8ff" stroke="#63b8ff" points="2142.37,-288.81 2137.65,-279.33 2135.42,-289.68 2142.37,-288.81"/>
</g>
<!-- Node153 -->
<g id="node26" class="node">
<title>Node153</title>
<g id="a_node26"><a xlink:href="JKRArchive_8h.html" target="_top" xlink:title=" ">
<polygon fill="#fff0f0" stroke="red" points="749.86,-211.5 596.86,-211.5 596.86,-192.5 749.86,-192.5 749.86,-211.5"/>
<text text-anchor="middle" x="673.36" y="-199.5" font-family="Helvetica,sans-Serif" font-size="10.00">JSystem/JKernel/JKRArchive.h</text>
</a>
</g>
</g>
<!-- Node227&#45;&gt;Node153 -->
<g id="edge35" class="edge">
<title>Node227&#45;&gt;Node153</title>
<path fill="none" stroke="#63b8ff" d="M874.56,-324.11C857.07,-314.22 828.07,-297.7 803.36,-283 765.93,-260.73 722.98,-234.08 697.02,-217.86"/>
<polygon fill="#63b8ff" stroke="#63b8ff" points="698.94,-214.92 688.6,-212.58 695.22,-220.86 698.94,-214.92"/>
</g>
<!-- Node153&#45;&gt;Node17 -->
<g id="edge36" class="edge">
<title>Node153&#45;&gt;Node17</title>
<path fill="none" stroke="#63b8ff" d="M648.33,-192.1C617.39,-181.1 564.5,-162.3 529.24,-149.76"/>
<polygon fill="#63b8ff" stroke="#63b8ff" points="530.49,-146.49 519.89,-146.43 528.14,-153.08 530.49,-146.49"/>
</g>
<!-- Node228&#45;&gt;Node49 -->
<g id="edge38" class="edge">
<title>Node228&#45;&gt;Node49</title>
<path fill="none" stroke="#63b8ff" d="M1090.25,-258.1C1121.02,-247.1 1173.61,-228.3 1208.68,-215.76"/>
<polygon fill="#63b8ff" stroke="#63b8ff" points="1209.73,-219.1 1217.97,-212.44 1207.38,-212.51 1209.73,-219.1"/>
</g>
<!-- Node53 -->
<g id="node28" class="node">
<title>Node53</title>
<g id="a_node28"><a xlink:href="GXStruct_8h.html" target="_top" xlink:title=" ">
<polygon fill="white" stroke="#666666" points="1170.86,-211.5 1059.86,-211.5 1059.86,-192.5 1170.86,-192.5 1170.86,-211.5"/>
<text text-anchor="middle" x="1115.36" y="-199.5" font-family="Helvetica,sans-Serif" font-size="10.00">dolphin/gx/GXStruct.h</text>
</a>
</g>
</g>
<!-- Node228&#45;&gt;Node53 -->
<g id="edge39" class="edge">
<title>Node228&#45;&gt;Node53</title>
<path fill="none" stroke="#63b8ff" d="M1072.31,-258.1C1079.85,-248.45 1092.08,-232.81 1101.58,-220.65"/>
<polygon fill="#63b8ff" stroke="#63b8ff" points="1104.14,-223.05 1107.54,-213.02 1098.62,-218.74 1104.14,-223.05"/>
</g>
<!-- Node53&#45;&gt;Node17 -->
<g id="edge40" class="edge">
<title>Node53&#45;&gt;Node17</title>
<path fill="none" stroke="#63b8ff" d="M1074.4,-192.04C1064.9,-190.18 1054.81,-188.37 1045.36,-187 852.34,-159.04 618.95,-144.01 530.1,-138.96"/>
<polygon fill="#63b8ff" stroke="#63b8ff" points="530.47,-135.48 520.3,-138.42 530.08,-142.47 530.47,-135.48"/>
</g>
<!-- Node230 -->
<g id="node30" class="node">
<title>Node230</title>
<g id="a_node30"><a xlink:href="char__io_8h.html" target="_top" xlink:title=" ">
<polygon fill="#fff0f0" stroke="red" points="2362.36,-283 2226.36,-283 2226.36,-253 2362.36,-253 2362.36,-283"/>
<text text-anchor="start" x="2234.36" y="-271" font-family="Helvetica,sans-Serif" font-size="10.00">MSL_C/MSL_Common/Src</text>
<text text-anchor="middle" x="2294.36" y="-260" font-family="Helvetica,sans-Serif" font-size="10.00">/char_io.h</text>
</a>
</g>
</g>
<!-- Node229&#45;&gt;Node230 -->
<g id="edge42" class="edge">
<title>Node229&#45;&gt;Node230</title>
<path fill="none" stroke="#63b8ff" d="M2289.2,-324.1C2289.92,-316.41 2290.99,-304.92 2291.98,-294.42"/>
<polygon fill="#63b8ff" stroke="#63b8ff" points="2295.44,-295.02 2292.89,-284.74 2288.47,-294.37 2295.44,-295.02"/>
</g>
<!-- Node232 -->
<g id="node31" class="node">
<title>Node232</title>
<g id="a_node31"><a xlink:href="file__io_8h.html" target="_top" xlink:title=" ">
<polygon fill="#fff0f0" stroke="red" points="2516.36,-283 2380.36,-283 2380.36,-253 2516.36,-253 2516.36,-283"/>
<text text-anchor="start" x="2388.36" y="-271" font-family="Helvetica,sans-Serif" font-size="10.00">MSL_C/MSL_Common/Src</text>
<text text-anchor="middle" x="2448.36" y="-260" font-family="Helvetica,sans-Serif" font-size="10.00">/file_io.h</text>
</a>
</g>
</g>
<!-- Node229&#45;&gt;Node232 -->
<g id="edge43" class="edge">
<title>Node229&#45;&gt;Node232</title>
<path fill="none" stroke="#63b8ff" d="M2310.61,-324.1C2334.01,-314.74 2371.53,-299.73 2401.5,-287.74"/>
<polygon fill="#63b8ff" stroke="#63b8ff" points="2402.78,-291 2410.76,-284.04 2400.18,-284.5 2402.78,-291"/>
</g>
<!-- Node233 -->
<g id="node32" class="node">
<title>Node233</title>
<g id="a_node32"><a xlink:href="printf_8h.html" target="_top" xlink:title=" ">
<polygon fill="#fff0f0" stroke="red" points="2670.36,-283 2534.36,-283 2534.36,-253 2670.36,-253 2670.36,-283"/>
<text text-anchor="start" x="2542.36" y="-271" font-family="Helvetica,sans-Serif" font-size="10.00">MSL_C/MSL_Common/Src</text>
<text text-anchor="middle" x="2602.36" y="-260" font-family="Helvetica,sans-Serif" font-size="10.00">/printf.h</text>
</a>
</g>
</g>
<!-- Node229&#45;&gt;Node233 -->
<g id="edge44" class="edge">
<title>Node229&#45;&gt;Node233</title>
<path fill="none" stroke="#63b8ff" d="M2318.66,-324.07C2325.14,-322.28 2331.95,-320.5 2338.36,-319 2356.23,-314.82 2451.85,-296.89 2522.9,-283.69"/>
<polygon fill="#63b8ff" stroke="#63b8ff" points="2523.4,-287.16 2532.59,-281.89 2522.12,-280.28 2523.4,-287.16"/>
</g>
<!-- Node234&#45;&gt;Node11 -->
<g id="edge46" class="edge">
<title>Node234&#45;&gt;Node11</title>
<path fill="none" stroke="#63b8ff" d="M1582.24,-192.12C1577.41,-190.27 1572.25,-188.45 1567.36,-187 1511.12,-170.3 1445.83,-157.05 1397.72,-148.39"/>
<polygon fill="#63b8ff" stroke="#63b8ff" points="1398.44,-144.96 1387.98,-146.66 1397.22,-151.86 1398.44,-144.96"/>
</g>
<!-- Node234&#45;&gt;Node41 -->
<g id="edge47" class="edge">
<title>Node234&#45;&gt;Node41</title>
<path fill="none" stroke="#63b8ff" d="M1587.65,-192.1C1569.1,-181.59 1537.98,-163.97 1515.94,-151.49"/>
<polygon fill="#63b8ff" stroke="#63b8ff" points="1517.68,-148.45 1507.26,-146.57 1514.23,-154.54 1517.68,-148.45"/>
</g>
<!-- Node88 -->
<g id="node34" class="node">
<title>Node88</title>
<g id="a_node34"><a xlink:href="OSTime_8h.html" target="_top" xlink:title=" ">
<polygon fill="white" stroke="#666666" points="1831.86,-145.5 1724.86,-145.5 1724.86,-126.5 1831.86,-126.5 1831.86,-145.5"/>
<text text-anchor="middle" x="1778.36" y="-133.5" font-family="Helvetica,sans-Serif" font-size="10.00">dolphin/os/OSTime.h</text>
</a>
</g>
</g>
<!-- Node234&#45;&gt;Node88 -->
<g id="edge48" class="edge">
<title>Node234&#45;&gt;Node88</title>
<path fill="none" stroke="#63b8ff" d="M1627.69,-192.1C1657.78,-181.1 1709.2,-162.3 1743.47,-149.76"/>
<polygon fill="#63b8ff" stroke="#63b8ff" points="1744.34,-153.17 1752.53,-146.45 1741.94,-146.59 1744.34,-153.17"/>
</g>
<!-- Node88&#45;&gt;Node7 -->
<g id="edge49" class="edge">
<title>Node88&#45;&gt;Node7</title>
<path fill="none" stroke="#63b8ff" d="M1737.83,-126.05C1691.46,-115.82 1615.44,-99.03 1564.9,-87.88"/>
<polygon fill="#63b8ff" stroke="#63b8ff" points="1565.89,-84.51 1555.37,-85.77 1564.38,-91.35 1565.89,-84.51"/>
</g>
<!-- Node235&#45;&gt;Node209 -->
<g id="edge51" class="edge">
<title>Node235&#45;&gt;Node209</title>
<path fill="none" stroke="#63b8ff" d="M566.46,-324.01C517.24,-314.43 437.67,-298.53 369.36,-283 366.05,-282.25 362.63,-281.45 359.19,-280.63"/>
<polygon fill="#63b8ff" stroke="#63b8ff" points="360.27,-277.29 349.73,-278.33 358.62,-284.09 360.27,-277.29"/>
</g>
<!-- Node236 -->
<g id="node36" class="node">
<title>Node236</title>
<g id="a_node36"><a xlink:href="d__select__icon_8h.html" target="_top" xlink:title=" ">
<polygon fill="#fff0f0" stroke="red" points="659.36,-277.5 567.36,-277.5 567.36,-258.5 659.36,-258.5 659.36,-277.5"/>
<text text-anchor="middle" x="613.36" y="-265.5" font-family="Helvetica,sans-Serif" font-size="10.00">d/d_select_icon.h</text>
</a>
</g>
</g>
<!-- Node235&#45;&gt;Node236 -->
<g id="edge52" class="edge">
<title>Node235&#45;&gt;Node236</title>
<path fill="none" stroke="#63b8ff" d="M613.36,-324.1C613.36,-315.12 613.36,-300.95 613.36,-289.22"/>
<polygon fill="#63b8ff" stroke="#63b8ff" points="616.86,-289.34 613.36,-279.34 609.86,-289.34 616.86,-289.34"/>
</g>
<!-- Node241&#45;&gt;Node11 -->
<g id="edge54" class="edge">
<title>Node241&#45;&gt;Node11</title>
<path fill="none" stroke="#63b8ff" d="M1650.31,-324.11C1665.21,-308.25 1691.73,-274.69 1673.36,-253 1610.45,-178.74 1548.44,-251.3 1457.36,-217 1419.48,-202.73 1380.61,-176.79 1355.58,-158.31"/>
<polygon fill="#63b8ff" stroke="#63b8ff" points="1357.69,-155.51 1347.59,-152.3 1353.48,-161.11 1357.69,-155.51"/>
</g>
<!-- Node242&#45;&gt;Node17 -->
<g id="edge60" class="edge">
<title>Node242&#45;&gt;Node17</title>
<path fill="none" stroke="#63b8ff" d="M1156.56,-329.4C1054.86,-322.67 857.12,-306.67 836.36,-283 827.57,-272.98 827.93,-263.33 836.36,-253 886.85,-191.14 961.88,-278.86 1012.36,-217 1020.79,-206.67 1021.33,-196.87 1012.36,-187 996.1,-169.1 645.37,-146.25 529.88,-139.18"/>
<polygon fill="#63b8ff" stroke="#63b8ff" points="530.23,-135.69 520.03,-138.58 529.8,-142.68 530.23,-135.69"/>
</g>
<!-- Node242&#45;&gt;Node11 -->
<g id="edge59" class="edge">
<title>Node242&#45;&gt;Node11</title>
<path fill="none" stroke="#63b8ff" d="M1233.39,-324.01C1248.39,-315.32 1269.91,-300.85 1283.36,-283 1310.7,-246.72 1321.6,-193.64 1325.82,-162.47"/>
<polygon fill="#63b8ff" stroke="#63b8ff" points="1329.26,-163.16 1326.99,-152.81 1322.31,-162.32 1329.26,-163.16"/>
</g>
<!-- Node212 -->
<g id="node39" class="node">
<title>Node212</title>
<g id="a_node39"><a xlink:href="TColor_8h.html" target="_top" xlink:title=" ">
<polygon fill="white" stroke="#666666" points="972.86,-277.5 845.86,-277.5 845.86,-258.5 972.86,-258.5 972.86,-277.5"/>
<text text-anchor="middle" x="909.36" y="-265.5" font-family="Helvetica,sans-Serif" font-size="10.00">JSystem/JUtility/TColor.h</text>
</a>
</g>
</g>
<!-- Node242&#45;&gt;Node212 -->
<g id="edge56" class="edge">
<title>Node242&#45;&gt;Node212</title>
<path fill="none" stroke="#63b8ff" d="M1173.35,-324.03C1118.32,-312.56 1022.97,-292.68 963.18,-280.22"/>
<polygon fill="#63b8ff" stroke="#63b8ff" points="964.07,-276.83 953.56,-278.21 962.64,-283.68 964.07,-276.83"/>
</g>
<!-- Node150 -->
<g id="node40" class="node">
<title>Node150</title>
<g id="a_node40"><a xlink:href="c__sxyz_8h.html" target="_top" xlink:title=" ">
<polygon fill="#fff0f0" stroke="red" points="1274.36,-283 1158.36,-283 1158.36,-253 1274.36,-253 1274.36,-283"/>
<text text-anchor="start" x="1166.36" y="-271" font-family="Helvetica,sans-Serif" font-size="10.00">SSystem/SComponent</text>
<text text-anchor="middle" x="1216.36" y="-260" font-family="Helvetica,sans-Serif" font-size="10.00">/c_sxyz.h</text>
</a>
</g>
</g>
<!-- Node242&#45;&gt;Node150 -->
<g id="edge58" class="edge">
<title>Node242&#45;&gt;Node150</title>
<path fill="none" stroke="#63b8ff" d="M1216.36,-324.1C1216.36,-316.41 1216.36,-304.92 1216.36,-294.42"/>
<polygon fill="#63b8ff" stroke="#63b8ff" points="1219.86,-294.75 1216.36,-284.75 1212.86,-294.75 1219.86,-294.75"/>
</g>
<!-- Node212&#45;&gt;Node53 -->
<g id="edge57" class="edge">
<title>Node212&#45;&gt;Node53</title>
<path fill="none" stroke="#63b8ff" d="M938,-258.1C973.88,-246.96 1035.52,-227.81 1075.86,-215.27"/>
<polygon fill="#63b8ff" stroke="#63b8ff" points="1076.67,-218.68 1085.18,-212.38 1074.6,-212 1076.67,-218.68"/>
</g>
<!-- Node244 -->
<g id="node42" class="node">
<title>Node244</title>
<g id="a_node42"><a xlink:href="d__msg__string__base_8h.html" target="_top" xlink:title=" ">
<polygon fill="#fff0f0" stroke="red" points="2793.86,-283 2688.86,-283 2688.86,-253 2793.86,-253 2793.86,-283"/>
<text text-anchor="start" x="2696.86" y="-271" font-family="Helvetica,sans-Serif" font-size="10.00">d/msg/d_msg_string</text>
<text text-anchor="middle" x="2741.36" y="-260" font-family="Helvetica,sans-Serif" font-size="10.00">_base.h</text>
</a>
</g>
</g>
<!-- Node243&#45;&gt;Node244 -->
<g id="edge62" class="edge">
<title>Node243&#45;&gt;Node244</title>
<path fill="none" stroke="#63b8ff" d="M2444.5,-324.01C2452.73,-322.29 2461.31,-320.54 2469.36,-319 2558.91,-301.83 2584.59,-301.44 2677.58,-283.28"/>
<polygon fill="#63b8ff" stroke="#63b8ff" points="2678.02,-286.76 2687.15,-281.4 2676.66,-279.9 2678.02,-286.76"/>
</g>
<!-- Node256 -->
<g id="node45" class="node">
<title>Node256</title>
<g id="a_node45"><a xlink:href="JUTGamePad_8h.html" target="_top" xlink:title=" ">
<polygon fill="#fff0f0" stroke="red" points="1922.36,-217 1786.36,-217 1786.36,-187 1922.36,-187 1922.36,-217"/>
<text text-anchor="start" x="1794.36" y="-205" font-family="Helvetica,sans-Serif" font-size="10.00">JSystem/JUtility/JUTGame</text>
<text text-anchor="middle" x="1854.36" y="-194" font-family="Helvetica,sans-Serif" font-size="10.00">Pad.h</text>
</a>
</g>
</g>
<!-- Node255&#45;&gt;Node256 -->
<g id="edge66" class="edge">
<title>Node255&#45;&gt;Node256</title>
<path fill="none" stroke="#63b8ff" d="M1929.06,-252.8C1916.22,-244.24 1899.65,-233.19 1885.38,-223.68"/>
<polygon fill="#63b8ff" stroke="#63b8ff" points="1887.46,-220.86 1877.2,-218.22 1883.58,-226.68 1887.46,-220.86"/>
</g>
<!-- Node258 -->
<g id="node46" class="node">
<title>Node258</title>
<g id="a_node46"><a xlink:href="c__API__controller__pad_8h.html" target="_top" xlink:title=" ">
<polygon fill="white" stroke="#666666" points="2008.36,-151 1888.36,-151 1888.36,-121 2008.36,-121 2008.36,-151"/>
<text text-anchor="start" x="1896.36" y="-139" font-family="Helvetica,sans-Serif" font-size="10.00">SSystem/SComponent</text>
<text text-anchor="middle" x="1948.36" y="-128" font-family="Helvetica,sans-Serif" font-size="10.00">/c_API_controller_pad.h</text>
</a>
</g>
</g>
<!-- Node255&#45;&gt;Node258 -->
<g id="edge69" class="edge">
<title>Node255&#45;&gt;Node258</title>
<path fill="none" stroke="#63b8ff" d="M1950.14,-252.59C1949.81,-230.92 1949.17,-189.62 1948.76,-162.7"/>
<polygon fill="#63b8ff" stroke="#63b8ff" points="1952.26,-162.93 1948.61,-152.99 1945.26,-163.04 1952.26,-162.93"/>
</g>
<!-- Node256&#45;&gt;Node7 -->
<g id="edge68" class="edge">
<title>Node256&#45;&gt;Node7</title>
<path fill="none" stroke="#63b8ff" d="M1856.44,-186.56C1858.15,-168.5 1857.93,-137.92 1840.36,-121 1802.11,-84.18 1647.86,-77.35 1565.61,-76.38"/>
<polygon fill="#63b8ff" stroke="#63b8ff" points="1565.81,-72.88 1555.78,-76.3 1565.74,-79.88 1565.81,-72.88"/>
</g>
<!-- Node256&#45;&gt;Node88 -->
<g id="edge67" class="edge">
<title>Node256&#45;&gt;Node88</title>
<path fill="none" stroke="#63b8ff" d="M1837.49,-186.8C1825.65,-176.82 1809.78,-163.46 1797.46,-153.09"/>
<polygon fill="#63b8ff" stroke="#63b8ff" points="1799.93,-150.58 1790.02,-146.82 1795.42,-155.94 1799.93,-150.58"/>
</g>
<!-- Node258&#45;&gt;Node7 -->
<g id="edge70" class="edge">
<title>Node258&#45;&gt;Node7</title>
<path fill="none" stroke="#63b8ff" d="M1888.24,-123.29C1883.55,-122.48 1878.88,-121.71 1874.36,-121 1764.87,-103.91 1635.86,-89.34 1565.54,-81.87"/>
<polygon fill="#63b8ff" stroke="#63b8ff" points="1566.17,-78.41 1555.86,-80.84 1565.44,-85.38 1566.17,-78.41"/>
</g>
<!-- Node259&#45;&gt;Node7 -->
<g id="edge75" class="edge">
<title>Node259&#45;&gt;Node7</title>
<path fill="none" stroke="#63b8ff" d="M1808.96,-258.05C1785.05,-229.31 1709.53,-140.17 1677.36,-121 1642.98,-100.51 1598.98,-89.24 1565.22,-83.17"/>
<polygon fill="#63b8ff" stroke="#63b8ff" points="1566.12,-79.78 1555.68,-81.56 1564.95,-86.68 1566.12,-79.78"/>
</g>
<!-- Node259&#45;&gt;Node39 -->
<g id="edge74" class="edge">
<title>Node259&#45;&gt;Node39</title>
<path fill="none" stroke="#63b8ff" d="M1768.01,-258.05C1717.72,-248.56 1636.8,-232.8 1567.36,-217 1564.06,-216.25 1560.65,-215.45 1557.22,-214.62"/>
<polygon fill="#63b8ff" stroke="#63b8ff" points="1558.35,-211.29 1547.8,-212.3 1556.67,-218.09 1558.35,-211.29"/>
</g>
<!-- Node260 -->
<g id="node48" class="node">
<title>Node260</title>
<g id="a_node48"><a xlink:href="JFWDisplay_8h.html" target="_top" xlink:title=" ">
<polygon fill="#fff0f0" stroke="red" points="1668.36,-151 1556.36,-151 1556.36,-121 1668.36,-121 1668.36,-151"/>
<text text-anchor="start" x="1564.36" y="-139" font-family="Helvetica,sans-Serif" font-size="10.00">JSystem/JFramework</text>
<text text-anchor="middle" x="1612.36" y="-128" font-family="Helvetica,sans-Serif" font-size="10.00">/JFWDisplay.h</text>
</a>
</g>
</g>
<!-- Node259&#45;&gt;Node260 -->
<g id="edge72" class="edge">
<title>Node259&#45;&gt;Node260</title>
<path fill="none" stroke="#63b8ff" d="M1777.57,-258.01C1749.43,-250.23 1711.37,-237.04 1682.36,-217 1660.33,-201.78 1640.78,-178.1 1627.98,-160.45"/>
<polygon fill="#63b8ff" stroke="#63b8ff" points="1631.07,-158.77 1622.46,-152.6 1625.34,-162.79 1631.07,-158.77"/>
</g>
<!-- Node260&#45;&gt;Node7 -->
<g id="edge73" class="edge">
<title>Node260&#45;&gt;Node7</title>
<path fill="none" stroke="#63b8ff" d="M1587.89,-120.54C1572.72,-111.58 1553.3,-100.1 1538.09,-91.11"/>
<polygon fill="#63b8ff" stroke="#63b8ff" points="1540.02,-88.19 1529.64,-86.12 1536.46,-94.22 1540.02,-88.19"/>
</g>
<!-- Node266&#45;&gt;Node209 -->
<g id="edge77" class="edge">
<title>Node266&#45;&gt;Node209</title>
<path fill="none" stroke="#63b8ff" d="M313.36,-318.8C313.36,-310.09 313.36,-298.81 313.36,-289.18"/>
<polygon fill="#63b8ff" stroke="#63b8ff" points="316.86,-289.36 313.36,-279.36 309.86,-289.36 316.86,-289.36"/>
</g>
</g>
</svg>
