<?xml version="1.0" encoding="UTF-8" standalone="no"?>
<!DOCTYPE svg PUBLIC "-//W3C//DTD SVG 1.1//EN"
 "http://www.w3.org/Graphics/SVG/1.1/DTD/svg11.dtd">
<!-- Generated by graphviz version 7.0.5 (20221223.1930)
 -->
<!-- Title: include/d/msg/d_msg_out_font.h Pages: 1 -->
<svg width="650pt" height="104pt"
 viewBox="0.00 0.00 649.50 104.00" xmlns="http://www.w3.org/2000/svg" xmlns:xlink="http://www.w3.org/1999/xlink">
<g id="graph0" class="graph" transform="scale(1 1) rotate(0) translate(4 100)">
<title>include/d/msg/d_msg_out_font.h</title>
<!-- Node1 -->
<g id="node1" class="node">
<title>Node1</title>
<g id="a_node1"><a xlink:title=" ">
<polygon fill="#999999" stroke="#666666" points="395.5,-96 285.5,-96 285.5,-66 395.5,-66 395.5,-96"/>
<text text-anchor="start" x="293.5" y="-84" font-family="Helvetica,sans-Serif" font-size="10.00">include/d/msg/d_msg</text>
<text text-anchor="middle" x="340.5" y="-73" font-family="Helvetica,sans-Serif" font-size="10.00">_out_font.h</text>
</a>
</g>
</g>
<!-- Node2 -->
<g id="node2" class="node">
<title>Node2</title>
<g id="a_node2"><a xlink:href="d__msg__out__font_8cpp.html" target="_top" xlink:title=" ">
<polygon fill="white" stroke="#666666" points="111,-30 0,-30 0,0 111,0 111,-30"/>
<text text-anchor="start" x="8" y="-18" font-family="Helvetica,sans-Serif" font-size="10.00">src/d/msg/d_msg_out</text>
<text text-anchor="middle" x="55.5" y="-7" font-family="Helvetica,sans-Serif" font-size="10.00">_font.cpp</text>
</a>
</g>
</g>
<!-- Node1&#45;&gt;Node2 -->
<g id="edge1" class="edge">
<title>Node1&#45;&gt;Node2</title>
<path fill="none" stroke="#63b8ff" d="M273.98,-65.06C224.51,-53.95 157.77,-38.97 111.12,-28.49"/>
<polygon fill="#63b8ff" stroke="#63b8ff" points="273.21,-68.48 283.73,-67.25 274.74,-61.65 273.21,-68.48"/>
</g>
<!-- Node3 -->
<g id="node3" class="node">
<title>Node3</title>
<g id="a_node3"><a xlink:href="d__msg__string_8cpp.html" target="_top" xlink:title=" ">
<polygon fill="white" stroke="#666666" points="269.5,-24.5 129.5,-24.5 129.5,-5.5 269.5,-5.5 269.5,-24.5"/>
<text text-anchor="middle" x="199.5" y="-12.5" font-family="Helvetica,sans-Serif" font-size="10.00">src/d/msg/d_msg_string.cpp</text>
</a>
</g>
</g>
<!-- Node1&#45;&gt;Node3 -->
<g id="edge2" class="edge">
<title>Node1&#45;&gt;Node3</title>
<path fill="none" stroke="#63b8ff" d="M298.43,-60.91C272.23,-49.01 239.73,-34.26 219.3,-24.99"/>
<polygon fill="#63b8ff" stroke="#63b8ff" points="296.93,-64.07 307.48,-65.01 299.82,-57.69 296.93,-64.07"/>
</g>
<!-- Node4 -->
<g id="node4" class="node">
<title>Node4</title>
<g id="a_node4"><a xlink:href="d__msg__scrn__base_8cpp.html" target="_top" xlink:title=" ">
<polygon fill="white" stroke="#666666" points="393.5,-30 287.5,-30 287.5,0 393.5,0 393.5,-30"/>
<text text-anchor="start" x="295.5" y="-18" font-family="Helvetica,sans-Serif" font-size="10.00">src/msg/scrn/d_msg</text>
<text text-anchor="middle" x="340.5" y="-7" font-family="Helvetica,sans-Serif" font-size="10.00">_scrn_base.cpp</text>
</a>
</g>
</g>
<!-- Node1&#45;&gt;Node4 -->
<g id="edge3" class="edge">
<title>Node1&#45;&gt;Node4</title>
<path fill="none" stroke="#63b8ff" d="M340.5,-54.39C340.5,-46.13 340.5,-37.28 340.5,-30.16"/>
<polygon fill="#63b8ff" stroke="#63b8ff" points="337,-54.28 340.5,-64.28 344,-54.28 337,-54.28"/>
</g>
<!-- Node5 -->
<g id="node5" class="node">
<title>Node5</title>
<g id="a_node5"><a xlink:href="d__msg__scrn__explain_8cpp.html" target="_top" xlink:title=" ">
<polygon fill="white" stroke="#666666" points="517.5,-30 411.5,-30 411.5,0 517.5,0 517.5,-30"/>
<text text-anchor="start" x="419.5" y="-18" font-family="Helvetica,sans-Serif" font-size="10.00">src/msg/scrn/d_msg</text>
<text text-anchor="middle" x="464.5" y="-7" font-family="Helvetica,sans-Serif" font-size="10.00">_scrn_explain.cpp</text>
</a>
</g>
</g>
<!-- Node1&#45;&gt;Node5 -->
<g id="edge4" class="edge">
<title>Node1&#45;&gt;Node5</title>
<path fill="none" stroke="#63b8ff" d="M378.37,-60.45C397.2,-50.73 419.55,-39.2 436.76,-30.31"/>
<polygon fill="#63b8ff" stroke="#63b8ff" points="376.95,-57.25 369.67,-64.94 380.16,-63.47 376.95,-57.25"/>
</g>
<!-- Node6 -->
<g id="node6" class="node">
<title>Node6</title>
<g id="a_node6"><a xlink:href="d__msg__scrn__tree_8cpp.html" target="_top" xlink:title=" ">
<polygon fill="white" stroke="#666666" points="641.5,-30 535.5,-30 535.5,0 641.5,0 641.5,-30"/>
<text text-anchor="start" x="543.5" y="-18" font-family="Helvetica,sans-Serif" font-size="10.00">src/msg/scrn/d_msg</text>
<text text-anchor="middle" x="588.5" y="-7" font-family="Helvetica,sans-Serif" font-size="10.00">_scrn_tree.cpp</text>
</a>
</g>
</g>
<!-- Node1&#45;&gt;Node6 -->
<g id="edge5" class="edge">
<title>Node1&#45;&gt;Node6</title>
<path fill="none" stroke="#63b8ff" d="M406.87,-62.87C447,-52.52 497.47,-39.49 535.02,-29.8"/>
<polygon fill="#63b8ff" stroke="#63b8ff" points="406.12,-59.45 397.31,-65.34 407.87,-66.23 406.12,-59.45"/>
</g>
</g>
</svg>
