<?xml version="1.0" encoding="UTF-8" standalone="no"?>
<!DOCTYPE svg PUBLIC "-//W3C//DTD SVG 1.1//EN"
 "http://www.w3.org/Graphics/SVG/1.1/DTD/svg11.dtd">
<!-- Generated by graphviz version 7.0.5 (20221223.1930)
 -->
<!-- Title: include/msg/scrn/d_msg_scrn_base.h Pages: 1 -->
<svg width="884pt" height="170pt"
 viewBox="0.00 0.00 884.00 170.00" xmlns="http://www.w3.org/2000/svg" xmlns:xlink="http://www.w3.org/1999/xlink">
<g id="graph0" class="graph" transform="scale(1 1) rotate(0) translate(4 166)">
<title>include/msg/scrn/d_msg_scrn_base.h</title>
<!-- Node1 -->
<g id="node1" class="node">
<title>Node1</title>
<g id="a_node1"><a xlink:title=" ">
<polygon fill="#999999" stroke="#666666" points="575.5,-162 476.5,-162 476.5,-132 575.5,-132 575.5,-162"/>
<text text-anchor="start" x="484.5" y="-150" font-family="Helvetica,sans-Serif" font-size="10.00">include/msg/scrn/d</text>
<text text-anchor="middle" x="526" y="-139" font-family="Helvetica,sans-Serif" font-size="10.00">_msg_scrn_base.h</text>
</a>
</g>
</g>
<!-- Node2 -->
<g id="node2" class="node">
<title>Node2</title>
<g id="a_node2"><a xlink:href="d__msg__scrn__boss_8h.html" target="_top" xlink:title=" ">
<polygon fill="white" stroke="#666666" points="187.5,-96 88.5,-96 88.5,-66 187.5,-66 187.5,-96"/>
<text text-anchor="start" x="96.5" y="-84" font-family="Helvetica,sans-Serif" font-size="10.00">include/msg/scrn/d</text>
<text text-anchor="middle" x="138" y="-73" font-family="Helvetica,sans-Serif" font-size="10.00">_msg_scrn_boss.h</text>
</a>
</g>
</g>
<!-- Node1&#45;&gt;Node2 -->
<g id="edge1" class="edge">
<title>Node1&#45;&gt;Node2</title>
<path fill="none" stroke="#63b8ff" d="M465.18,-135.97C388.64,-123.34 258.64,-101.9 187.74,-90.2"/>
<polygon fill="#63b8ff" stroke="#63b8ff" points="464.14,-139.34 474.58,-137.52 465.28,-132.44 464.14,-139.34"/>
</g>
<!-- Node4 -->
<g id="node4" class="node">
<title>Node4</title>
<g id="a_node4"><a xlink:href="d__msg__scrn__explain_8h.html" target="_top" xlink:title=" ">
<polygon fill="white" stroke="#666666" points="396.5,-96 289.5,-96 289.5,-66 396.5,-66 396.5,-96"/>
<text text-anchor="start" x="297.5" y="-84" font-family="Helvetica,sans-Serif" font-size="10.00">include/msg/scrn/d</text>
<text text-anchor="middle" x="343" y="-73" font-family="Helvetica,sans-Serif" font-size="10.00">_msg_scrn_explain.h</text>
</a>
</g>
</g>
<!-- Node1&#45;&gt;Node4 -->
<g id="edge3" class="edge">
<title>Node1&#45;&gt;Node4</title>
<path fill="none" stroke="#63b8ff" d="M474.35,-127.94C445.84,-117.97 410.92,-105.75 384.25,-96.43"/>
<polygon fill="#63b8ff" stroke="#63b8ff" points="472.91,-131.14 483.5,-131.14 475.22,-124.53 472.91,-131.14"/>
</g>
<!-- Node7 -->
<g id="node7" class="node">
<title>Node7</title>
<g id="a_node7"><a xlink:href="d__msg__scrn__place_8h.html" target="_top" xlink:title=" ">
<polygon fill="white" stroke="#666666" points="517.5,-96 416.5,-96 416.5,-66 517.5,-66 517.5,-96"/>
<text text-anchor="start" x="424.5" y="-84" font-family="Helvetica,sans-Serif" font-size="10.00">include/msg/scrn/d</text>
<text text-anchor="middle" x="467" y="-73" font-family="Helvetica,sans-Serif" font-size="10.00">_msg_scrn_place.h</text>
</a>
</g>
</g>
<!-- Node1&#45;&gt;Node7 -->
<g id="edge6" class="edge">
<title>Node1&#45;&gt;Node7</title>
<path fill="none" stroke="#63b8ff" d="M505.28,-123.53C496.89,-114.43 487.46,-104.19 480.06,-96.16"/>
<polygon fill="#63b8ff" stroke="#63b8ff" points="502.53,-125.7 511.88,-130.68 507.68,-120.96 502.53,-125.7"/>
</g>
<!-- Node9 -->
<g id="node9" class="node">
<title>Node9</title>
<g id="a_node9"><a xlink:href="d__msg__scrn__staff_8h.html" target="_top" xlink:title=" ">
<polygon fill="white" stroke="#666666" points="634.5,-96 535.5,-96 535.5,-66 634.5,-66 634.5,-96"/>
<text text-anchor="start" x="543.5" y="-84" font-family="Helvetica,sans-Serif" font-size="10.00">include/msg/scrn/d</text>
<text text-anchor="middle" x="585" y="-73" font-family="Helvetica,sans-Serif" font-size="10.00">_msg_scrn_staff.h</text>
</a>
</g>
</g>
<!-- Node1&#45;&gt;Node9 -->
<g id="edge8" class="edge">
<title>Node1&#45;&gt;Node9</title>
<path fill="none" stroke="#63b8ff" d="M546.72,-123.53C555.11,-114.43 564.54,-104.19 571.94,-96.16"/>
<polygon fill="#63b8ff" stroke="#63b8ff" points="544.32,-120.96 540.12,-130.68 549.47,-125.7 544.32,-120.96"/>
</g>
<!-- Node11 -->
<g id="node11" class="node">
<title>Node11</title>
<g id="a_node11"><a xlink:href="d__msg__scrn__tree_8h.html" target="_top" xlink:title=" ">
<polygon fill="white" stroke="#666666" points="751.5,-96 652.5,-96 652.5,-66 751.5,-66 751.5,-96"/>
<text text-anchor="start" x="660.5" y="-84" font-family="Helvetica,sans-Serif" font-size="10.00">include/msg/scrn/d</text>
<text text-anchor="middle" x="702" y="-73" font-family="Helvetica,sans-Serif" font-size="10.00">_msg_scrn_tree.h</text>
</a>
</g>
</g>
<!-- Node1&#45;&gt;Node11 -->
<g id="edge10" class="edge">
<title>Node1&#45;&gt;Node11</title>
<path fill="none" stroke="#63b8ff" d="M576.04,-127.8C603.39,-117.86 636.79,-105.71 662.33,-96.43"/>
<polygon fill="#63b8ff" stroke="#63b8ff" points="575.12,-124.41 566.92,-131.12 577.51,-130.99 575.12,-124.41"/>
</g>
<!-- Node13 -->
<g id="node13" class="node">
<title>Node13</title>
<g id="a_node13"><a xlink:href="d__msg__scrn__base_8cpp.html" target="_top" xlink:title=" ">
<polygon fill="white" stroke="#666666" points="876,-96 770,-96 770,-66 876,-66 876,-96"/>
<text text-anchor="start" x="778" y="-84" font-family="Helvetica,sans-Serif" font-size="10.00">src/msg/scrn/d_msg</text>
<text text-anchor="middle" x="823" y="-73" font-family="Helvetica,sans-Serif" font-size="10.00">_scrn_base.cpp</text>
</a>
</g>
</g>
<!-- Node1&#45;&gt;Node13 -->
<g id="edge12" class="edge">
<title>Node1&#45;&gt;Node13</title>
<path fill="none" stroke="#63b8ff" d="M586.57,-133.33C634.05,-123.34 701.78,-108.99 761,-96 763.8,-95.39 766.68,-94.75 769.58,-94.11"/>
<polygon fill="#63b8ff" stroke="#63b8ff" points="586.1,-129.85 577.03,-135.33 587.54,-136.7 586.1,-129.85"/>
</g>
<!-- Node3 -->
<g id="node3" class="node">
<title>Node3</title>
<g id="a_node3"><a xlink:href="d__msg__scrn__boss_8cpp.html" target="_top" xlink:title=" ">
<polygon fill="white" stroke="#666666" points="106,-30 0,-30 0,0 106,0 106,-30"/>
<text text-anchor="start" x="8" y="-18" font-family="Helvetica,sans-Serif" font-size="10.00">src/msg/scrn/d_msg</text>
<text text-anchor="middle" x="53" y="-7" font-family="Helvetica,sans-Serif" font-size="10.00">_scrn_boss.cpp</text>
</a>
</g>
</g>
<!-- Node2&#45;&gt;Node3 -->
<g id="edge2" class="edge">
<title>Node2&#45;&gt;Node3</title>
<path fill="none" stroke="#63b8ff" d="M110.08,-58.97C97.63,-49.61 83.3,-38.81 72.11,-30.39"/>
<polygon fill="#63b8ff" stroke="#63b8ff" points="107.83,-61.67 117.93,-64.89 112.04,-56.07 107.83,-61.67"/>
</g>
<!-- Node5 -->
<g id="node5" class="node">
<title>Node5</title>
<g id="a_node5"><a xlink:href="d__menu__save_8cpp.html" target="_top" xlink:title=" ">
<polygon fill="white" stroke="#666666" points="271.5,-24.5 124.5,-24.5 124.5,-5.5 271.5,-5.5 271.5,-24.5"/>
<text text-anchor="middle" x="198" y="-12.5" font-family="Helvetica,sans-Serif" font-size="10.00">src/d/menu/d_menu_save.cpp</text>
</a>
</g>
</g>
<!-- Node4&#45;&gt;Node5 -->
<g id="edge4" class="edge">
<title>Node4&#45;&gt;Node5</title>
<path fill="none" stroke="#63b8ff" d="M300.1,-61.06C273.09,-49.14 239.46,-34.3 218.36,-24.99"/>
<polygon fill="#63b8ff" stroke="#63b8ff" points="298.51,-64.19 309.07,-65.03 301.34,-57.79 298.51,-64.19"/>
</g>
<!-- Node6 -->
<g id="node6" class="node">
<title>Node6</title>
<g id="a_node6"><a xlink:href="d__msg__scrn__explain_8cpp.html" target="_top" xlink:title=" ">
<polygon fill="white" stroke="#666666" points="396,-30 290,-30 290,0 396,0 396,-30"/>
<text text-anchor="start" x="298" y="-18" font-family="Helvetica,sans-Serif" font-size="10.00">src/msg/scrn/d_msg</text>
<text text-anchor="middle" x="343" y="-7" font-family="Helvetica,sans-Serif" font-size="10.00">_scrn_explain.cpp</text>
</a>
</g>
</g>
<!-- Node4&#45;&gt;Node6 -->
<g id="edge5" class="edge">
<title>Node4&#45;&gt;Node6</title>
<path fill="none" stroke="#63b8ff" d="M343,-54.39C343,-46.13 343,-37.28 343,-30.16"/>
<polygon fill="#63b8ff" stroke="#63b8ff" points="339.5,-54.28 343,-64.28 346.5,-54.28 339.5,-54.28"/>
</g>
<!-- Node8 -->
<g id="node8" class="node">
<title>Node8</title>
<g id="a_node8"><a xlink:href="d__msg__scrn__place_8cpp.html" target="_top" xlink:title=" ">
<polygon fill="white" stroke="#666666" points="520,-30 414,-30 414,0 520,0 520,-30"/>
<text text-anchor="start" x="422" y="-18" font-family="Helvetica,sans-Serif" font-size="10.00">src/msg/scrn/d_msg</text>
<text text-anchor="middle" x="467" y="-7" font-family="Helvetica,sans-Serif" font-size="10.00">_scrn_place.cpp</text>
</a>
</g>
</g>
<!-- Node7&#45;&gt;Node8 -->
<g id="edge7" class="edge">
<title>Node7&#45;&gt;Node8</title>
<path fill="none" stroke="#63b8ff" d="M467,-54.39C467,-46.13 467,-37.28 467,-30.16"/>
<polygon fill="#63b8ff" stroke="#63b8ff" points="463.5,-54.28 467,-64.28 470.5,-54.28 463.5,-54.28"/>
</g>
<!-- Node10 -->
<g id="node10" class="node">
<title>Node10</title>
<g id="a_node10"><a xlink:href="d__msg__scrn__staff_8cpp.html" target="_top" xlink:title=" ">
<polygon fill="white" stroke="#666666" points="644,-30 538,-30 538,0 644,0 644,-30"/>
<text text-anchor="start" x="546" y="-18" font-family="Helvetica,sans-Serif" font-size="10.00">src/msg/scrn/d_msg</text>
<text text-anchor="middle" x="591" y="-7" font-family="Helvetica,sans-Serif" font-size="10.00">_scrn_staff.cpp</text>
</a>
</g>
</g>
<!-- Node9&#45;&gt;Node10 -->
<g id="edge9" class="edge">
<title>Node9&#45;&gt;Node10</title>
<path fill="none" stroke="#63b8ff" d="M587.4,-54.39C588.17,-46.13 589,-37.28 589.67,-30.16"/>
<polygon fill="#63b8ff" stroke="#63b8ff" points="583.92,-54.01 586.47,-64.29 590.89,-54.66 583.92,-54.01"/>
</g>
<!-- Node12 -->
<g id="node12" class="node">
<title>Node12</title>
<g id="a_node12"><a xlink:href="d__msg__scrn__tree_8cpp.html" target="_top" xlink:title=" ">
<polygon fill="white" stroke="#666666" points="768,-30 662,-30 662,0 768,0 768,-30"/>
<text text-anchor="start" x="670" y="-18" font-family="Helvetica,sans-Serif" font-size="10.00">src/msg/scrn/d_msg</text>
<text text-anchor="middle" x="715" y="-7" font-family="Helvetica,sans-Serif" font-size="10.00">_scrn_tree.cpp</text>
</a>
</g>
</g>
<!-- Node11&#45;&gt;Node12 -->
<g id="edge11" class="edge">
<title>Node11&#45;&gt;Node12</title>
<path fill="none" stroke="#63b8ff" d="M707.14,-54.68C708.84,-46.34 710.66,-37.37 712.12,-30.16"/>
<polygon fill="#63b8ff" stroke="#63b8ff" points="703.75,-53.82 705.19,-64.31 710.61,-55.21 703.75,-53.82"/>
</g>
</g>
</svg>
