<?xml version="1.0" encoding="UTF-8" standalone="no"?>
<!DOCTYPE svg PUBLIC "-//W3C//DTD SVG 1.1//EN"
 "http://www.w3.org/Graphics/SVG/1.1/DTD/svg11.dtd">
<!-- Generated by graphviz version 7.0.5 (20221223.1930)
 -->
<!-- Title: src/d/ovlp/d_ovlp_fade.cpp Pages: 1 -->
<svg width="1232pt" height="225pt"
 viewBox="0.00 0.00 1232.00 225.00" xmlns="http://www.w3.org/2000/svg" xmlns:xlink="http://www.w3.org/1999/xlink">
<g id="graph0" class="graph" transform="scale(1 1) rotate(0) translate(4 221)">
<title>src/d/ovlp/d_ovlp_fade.cpp</title>
<!-- Node1 -->
<g id="node1" class="node">
<title>Node1</title>
<g id="a_node1"><a xlink:title=" ">
<polygon fill="#999999" stroke="#666666" points="614.5,-217 481.5,-217 481.5,-198 614.5,-198 614.5,-217"/>
<text text-anchor="middle" x="548" y="-205" font-family="Helvetica,sans-Serif" font-size="10.00">src/d/ovlp/d_ovlp_fade.cpp</text>
</a>
</g>
</g>
<!-- Node2 -->
<g id="node2" class="node">
<title>Node2</title>
<g id="a_node2"><a xlink:href="d__ovlp__fade_8h.html" target="_top" xlink:title=" ">
<polygon fill="white" stroke="#666666" points="121,-151 15,-151 15,-132 121,-132 121,-151"/>
<text text-anchor="middle" x="68" y="-139" font-family="Helvetica,sans-Serif" font-size="10.00">d/ovlp/d_ovlp_fade.h</text>
</a>
</g>
</g>
<!-- Node1&#45;&gt;Node2 -->
<g id="edge1" class="edge">
<title>Node1&#45;&gt;Node2</title>
<path fill="none" stroke="#63b8ff" d="M481.3,-203.37C398.46,-198.58 253.12,-187.17 131,-162 122.01,-160.15 112.48,-157.54 103.62,-154.84"/>
<polygon fill="#63b8ff" stroke="#63b8ff" points="104.88,-151.57 94.29,-151.87 102.76,-158.24 104.88,-151.57"/>
</g>
<!-- Node5 -->
<g id="node5" class="node">
<title>Node5</title>
<g id="a_node5"><a xlink:href="dol2asm_8h.html" target="_top" xlink:title=" ">
<polygon fill="white" stroke="#666666" points="200.5,-151 139.5,-151 139.5,-132 200.5,-132 200.5,-151"/>
<text text-anchor="middle" x="170" y="-139" font-family="Helvetica,sans-Serif" font-size="10.00">dol2asm.h</text>
</a>
</g>
</g>
<!-- Node1&#45;&gt;Node5 -->
<g id="edge4" class="edge">
<title>Node1&#45;&gt;Node5</title>
<path fill="none" stroke="#63b8ff" d="M481.25,-204.04C412.1,-200.04 301.53,-189.54 210,-162 205.04,-160.51 199.93,-158.46 195.1,-156.25"/>
<polygon fill="#63b8ff" stroke="#63b8ff" points="196.98,-153.27 186.46,-151.97 193.87,-159.55 196.98,-153.27"/>
</g>
<!-- Node6 -->
<g id="node6" class="node">
<title>Node6</title>
<g id="a_node6"><a xlink:title=" ">
<polygon fill="#e0e0e0" stroke="#999999" points="355.5,-156.5 218.5,-156.5 218.5,-126.5 355.5,-126.5 355.5,-156.5"/>
<text text-anchor="start" x="226.5" y="-144.5" font-family="Helvetica,sans-Serif" font-size="10.00">asm/d/ovlp/d_ovlp_fade</text>
<text text-anchor="middle" x="287" y="-133.5" font-family="Helvetica,sans-Serif" font-size="10.00">/dOvlpFd_startFadeIn__Fi.s</text>
</a>
</g>
</g>
<!-- Node1&#45;&gt;Node6 -->
<g id="edge5" class="edge">
<title>Node1&#45;&gt;Node6</title>
<path fill="none" stroke="#63b8ff" d="M510.83,-197.54C473.84,-188.6 415.48,-174.45 365,-162 361.89,-161.23 358.71,-160.45 355.49,-159.65"/>
<polygon fill="#63b8ff" stroke="#63b8ff" points="356.51,-156.3 345.96,-157.28 354.83,-163.09 356.51,-156.3"/>
</g>
<!-- Node7 -->
<g id="node7" class="node">
<title>Node7</title>
<g id="a_node7"><a xlink:title=" ">
<polygon fill="#e0e0e0" stroke="#999999" points="544,-162 374,-162 374,-121 544,-121 544,-162"/>
<text text-anchor="start" x="382" y="-150" font-family="Helvetica,sans-Serif" font-size="10.00">asm/d/ovlp/d_ovlp_fade</text>
<text text-anchor="start" x="382" y="-139" font-family="Helvetica,sans-Serif" font-size="10.00">/dOvlpFd_FadeOut__FP14overlap1</text>
<text text-anchor="middle" x="459" y="-128" font-family="Helvetica,sans-Serif" font-size="10.00">_class.s</text>
</a>
</g>
</g>
<!-- Node1&#45;&gt;Node7 -->
<g id="edge6" class="edge">
<title>Node1&#45;&gt;Node7</title>
<path fill="none" stroke="#63b8ff" d="M535.62,-197.6C525.28,-190.16 509.98,-179.16 495.76,-168.94"/>
<polygon fill="#63b8ff" stroke="#63b8ff" points="498.03,-166.26 487.87,-163.26 493.95,-171.94 498.03,-166.26"/>
</g>
<!-- Node8 -->
<g id="node8" class="node">
<title>Node8</title>
<g id="a_node8"><a xlink:title=" ">
<polygon fill="#e0e0e0" stroke="#999999" points="714,-162 562,-162 562,-121 714,-121 714,-162"/>
<text text-anchor="start" x="570" y="-150" font-family="Helvetica,sans-Serif" font-size="10.00">asm/d/ovlp/d_ovlp_fade</text>
<text text-anchor="start" x="570" y="-139" font-family="Helvetica,sans-Serif" font-size="10.00">/dOvlpFd_Wait__FP14overlap1</text>
<text text-anchor="middle" x="638" y="-128" font-family="Helvetica,sans-Serif" font-size="10.00">_class.s</text>
</a>
</g>
</g>
<!-- Node1&#45;&gt;Node8 -->
<g id="edge7" class="edge">
<title>Node1&#45;&gt;Node8</title>
<path fill="none" stroke="#63b8ff" d="M560.51,-197.6C570.97,-190.16 586.45,-179.16 600.82,-168.94"/>
<polygon fill="#63b8ff" stroke="#63b8ff" points="602.69,-171.9 608.81,-163.25 598.64,-166.2 602.69,-171.9"/>
</g>
<!-- Node9 -->
<g id="node9" class="node">
<title>Node9</title>
<g id="a_node9"><a xlink:title=" ">
<polygon fill="#e0e0e0" stroke="#999999" points="894,-162 732,-162 732,-121 894,-121 894,-162"/>
<text text-anchor="start" x="740" y="-150" font-family="Helvetica,sans-Serif" font-size="10.00">asm/d/ovlp/d_ovlp_fade</text>
<text text-anchor="start" x="740" y="-139" font-family="Helvetica,sans-Serif" font-size="10.00">/dOvlpFd_FadeIn__FP14overlap1</text>
<text text-anchor="middle" x="813" y="-128" font-family="Helvetica,sans-Serif" font-size="10.00">_class.s</text>
</a>
</g>
</g>
<!-- Node1&#45;&gt;Node9 -->
<g id="edge8" class="edge">
<title>Node1&#45;&gt;Node9</title>
<path fill="none" stroke="#63b8ff" d="M585.13,-197.53C620.14,-189.08 674.05,-176.06 720.65,-164.8"/>
<polygon fill="#63b8ff" stroke="#63b8ff" points="721.33,-168.24 730.23,-162.49 719.69,-161.44 721.33,-168.24"/>
</g>
<!-- Node10 -->
<g id="node10" class="node">
<title>Node10</title>
<g id="a_node10"><a xlink:title=" ">
<polygon fill="#e0e0e0" stroke="#999999" points="1079.5,-162 912.5,-162 912.5,-121 1079.5,-121 1079.5,-162"/>
<text text-anchor="start" x="920.5" y="-150" font-family="Helvetica,sans-Serif" font-size="10.00">asm/d/ovlp/d_ovlp_fade</text>
<text text-anchor="start" x="920.5" y="-139" font-family="Helvetica,sans-Serif" font-size="10.00">/dOvlpFd_Execute__FP14overlap1</text>
<text text-anchor="middle" x="996" y="-128" font-family="Helvetica,sans-Serif" font-size="10.00">_class.s</text>
</a>
</g>
</g>
<!-- Node1&#45;&gt;Node10 -->
<g id="edge9" class="edge">
<title>Node1&#45;&gt;Node10</title>
<path fill="none" stroke="#63b8ff" d="M614.98,-199.76C684.08,-192.43 795.22,-179.61 900.96,-162.27"/>
<polygon fill="#63b8ff" stroke="#63b8ff" points="901.37,-165.75 910.67,-160.66 900.23,-158.84 901.37,-165.75"/>
</g>
<!-- Node11 -->
<g id="node11" class="node">
<title>Node11</title>
<g id="a_node11"><a xlink:title=" ">
<polygon fill="#e0e0e0" stroke="#999999" points="1224,-156.5 1098,-156.5 1098,-126.5 1224,-126.5 1224,-156.5"/>
<text text-anchor="start" x="1106" y="-144.5" font-family="Helvetica,sans-Serif" font-size="10.00">asm/d/ovlp/d_ovlp_fade</text>
<text text-anchor="middle" x="1161" y="-133.5" font-family="Helvetica,sans-Serif" font-size="10.00">/dOvlpFd_Create__FPv.s</text>
</a>
</g>
</g>
<!-- Node1&#45;&gt;Node11 -->
<g id="edge10" class="edge">
<title>Node1&#45;&gt;Node11</title>
<path fill="none" stroke="#63b8ff" d="M614.71,-204.92C717.33,-201.62 919.82,-191.61 1089,-162 1093.07,-161.29 1097.24,-160.45 1101.42,-159.53"/>
<polygon fill="#63b8ff" stroke="#63b8ff" points="1102.06,-162.98 1111,-157.28 1100.46,-156.16 1102.06,-162.98"/>
</g>
<!-- Node3 -->
<g id="node3" class="node">
<title>Node3</title>
<g id="a_node3"><a xlink:href="types_8h.html" target="_top" xlink:title=" ">
<polygon fill="white" stroke="#666666" points="108.5,-85 27.5,-85 27.5,-66 108.5,-66 108.5,-85"/>
<text text-anchor="middle" x="68" y="-73" font-family="Helvetica,sans-Serif" font-size="10.00">dolphin/types.h</text>
</a>
</g>
</g>
<!-- Node2&#45;&gt;Node3 -->
<g id="edge2" class="edge">
<title>Node2&#45;&gt;Node3</title>
<path fill="none" stroke="#63b8ff" d="M68,-131.6C68,-122.62 68,-108.45 68,-96.72"/>
<polygon fill="#63b8ff" stroke="#63b8ff" points="71.5,-96.84 68,-86.84 64.5,-96.84 71.5,-96.84"/>
</g>
<!-- Node4 -->
<g id="node4" class="node">
<title>Node4</title>
<g id="a_node4"><a xlink:href="stddef_8h.html" target="_top" xlink:title=" ">
<polygon fill="white" stroke="#666666" points="136,-30 0,-30 0,0 136,0 136,-30"/>
<text text-anchor="start" x="8" y="-18" font-family="Helvetica,sans-Serif" font-size="10.00">MSL_C/MSL_Common/Src</text>
<text text-anchor="middle" x="68" y="-7" font-family="Helvetica,sans-Serif" font-size="10.00">/stddef.h</text>
</a>
</g>
</g>
<!-- Node3&#45;&gt;Node4 -->
<g id="edge3" class="edge">
<title>Node3&#45;&gt;Node4</title>
<path fill="none" stroke="#63b8ff" d="M68,-65.87C68,-59.4 68,-50.2 68,-41.45"/>
<polygon fill="#63b8ff" stroke="#63b8ff" points="71.5,-41.63 68,-31.63 64.5,-41.63 71.5,-41.63"/>
</g>
</g>
</svg>
