<?xml version="1.0" encoding="UTF-8" standalone="no"?>
<!DOCTYPE svg PUBLIC "-//W3C//DTD SVG 1.1//EN"
 "http://www.w3.org/Graphics/SVG/1.1/DTD/svg11.dtd">
<!-- Generated by graphviz version 7.0.5 (20221223.1930)
 -->
<!-- Title: include/d/pane/d_pane_class.h Pages: 1 -->
<svg width="757pt" height="456pt"
 viewBox="0.00 0.00 756.50 456.00" xmlns="http://www.w3.org/2000/svg" xmlns:xlink="http://www.w3.org/1999/xlink">
<g id="graph0" class="graph" transform="scale(1 1) rotate(0) translate(4 452)">
<title>include/d/pane/d_pane_class.h</title>
<!-- Node1 -->
<g id="node1" class="node">
<title>Node1</title>
<g id="a_node1"><a xlink:title=" ">
<polygon fill="#999999" stroke="#666666" points="188.5,-448 74.5,-448 74.5,-418 188.5,-418 188.5,-448"/>
<text text-anchor="start" x="82.5" y="-436" font-family="Helvetica,sans-Serif" font-size="10.00">include/d/pane/d_pane</text>
<text text-anchor="middle" x="131.5" y="-425" font-family="Helvetica,sans-Serif" font-size="10.00">_class.h</text>
</a>
</g>
</g>
<!-- Node2 -->
<g id="node2" class="node">
<title>Node2</title>
<g id="a_node2"><a xlink:href="TColor_8h.html" target="_top" xlink:title=" ">
<polygon fill="white" stroke="#666666" points="127,-376.5 0,-376.5 0,-357.5 127,-357.5 127,-376.5"/>
<text text-anchor="middle" x="63.5" y="-364.5" font-family="Helvetica,sans-Serif" font-size="10.00">JSystem/JUtility/TColor.h</text>
</a>
</g>
</g>
<!-- Node1&#45;&gt;Node2 -->
<g id="edge1" class="edge">
<title>Node1&#45;&gt;Node2</title>
<path fill="none" stroke="#63b8ff" d="M116.41,-417.8C106.02,-408.01 92.17,-394.98 81.24,-384.7"/>
<polygon fill="#63b8ff" stroke="#63b8ff" points="83.68,-382.19 74,-377.88 78.88,-387.28 83.68,-382.19"/>
</g>
<!-- Node7 -->
<g id="node7" class="node">
<title>Node7</title>
<g id="a_node7"><a xlink:href="d__pane__class__alpha_8h.html" target="_top" xlink:title=" ">
<polygon fill="white" stroke="#666666" points="257,-382 148,-382 148,-352 257,-352 257,-382"/>
<text text-anchor="start" x="156" y="-370" font-family="Helvetica,sans-Serif" font-size="10.00">d/pane/d_pane_class</text>
<text text-anchor="middle" x="202.5" y="-359" font-family="Helvetica,sans-Serif" font-size="10.00">_alpha.h</text>
</a>
</g>
</g>
<!-- Node1&#45;&gt;Node7 -->
<g id="edge6" class="edge">
<title>Node1&#45;&gt;Node7</title>
<path fill="none" stroke="#63b8ff" d="M147.26,-417.8C156.36,-409.59 168,-399.1 178.24,-389.87"/>
<polygon fill="#63b8ff" stroke="#63b8ff" points="180.58,-392.47 185.66,-383.18 175.89,-387.27 180.58,-392.47"/>
</g>
<!-- Node3 -->
<g id="node3" class="node">
<title>Node3</title>
<g id="a_node3"><a xlink:href="GXStruct_8h.html" target="_top" xlink:title=" ">
<polygon fill="white" stroke="#666666" points="112,-316 1,-316 1,-297 112,-297 112,-316"/>
<text text-anchor="middle" x="56.5" y="-304" font-family="Helvetica,sans-Serif" font-size="10.00">dolphin/gx/GXStruct.h</text>
</a>
</g>
</g>
<!-- Node2&#45;&gt;Node3 -->
<g id="edge2" class="edge">
<title>Node2&#45;&gt;Node3</title>
<path fill="none" stroke="#63b8ff" d="M62.47,-357.37C61.53,-349.5 60.1,-337.6 58.88,-327.39"/>
<polygon fill="#63b8ff" stroke="#63b8ff" points="62.38,-327.18 57.72,-317.67 55.43,-328.02 62.38,-327.18"/>
</g>
<!-- Node4 -->
<g id="node4" class="node">
<title>Node4</title>
<g id="a_node4"><a xlink:href="global_8h.html" target="_top" xlink:title=" ">
<polygon fill="white" stroke="#666666" points="66.5,-145.5 16.5,-145.5 16.5,-126.5 66.5,-126.5 66.5,-145.5"/>
<text text-anchor="middle" x="41.5" y="-133.5" font-family="Helvetica,sans-Serif" font-size="10.00">global.h</text>
</a>
</g>
</g>
<!-- Node3&#45;&gt;Node4 -->
<g id="edge3" class="edge">
<title>Node3&#45;&gt;Node4</title>
<path fill="none" stroke="#63b8ff" d="M55.14,-296.65C53.81,-287.69 51.79,-273.41 50.5,-261 46.71,-224.42 43.98,-181.61 42.58,-157.06"/>
<polygon fill="#63b8ff" stroke="#63b8ff" points="46.08,-157.04 42.03,-147.25 39.09,-157.43 46.08,-157.04"/>
</g>
<!-- Node5 -->
<g id="node5" class="node">
<title>Node5</title>
<g id="a_node5"><a xlink:href="types_8h.html" target="_top" xlink:title=" ">
<polygon fill="white" stroke="#666666" points="269,-85 188,-85 188,-66 269,-66 269,-85"/>
<text text-anchor="middle" x="228.5" y="-73" font-family="Helvetica,sans-Serif" font-size="10.00">dolphin/types.h</text>
</a>
</g>
</g>
<!-- Node4&#45;&gt;Node5 -->
<g id="edge4" class="edge">
<title>Node4&#45;&gt;Node5</title>
<path fill="none" stroke="#63b8ff" d="M66.72,-127.11C98.16,-117.27 152.25,-100.35 189.16,-88.81"/>
<polygon fill="#63b8ff" stroke="#63b8ff" points="190.07,-92.19 198.57,-85.86 187.98,-85.51 190.07,-92.19"/>
</g>
<!-- Node6 -->
<g id="node6" class="node">
<title>Node6</title>
<g id="a_node6"><a xlink:href="stddef_8h.html" target="_top" xlink:title=" ">
<polygon fill="white" stroke="#666666" points="296.5,-30 160.5,-30 160.5,0 296.5,0 296.5,-30"/>
<text text-anchor="start" x="168.5" y="-18" font-family="Helvetica,sans-Serif" font-size="10.00">MSL_C/MSL_Common/Src</text>
<text text-anchor="middle" x="228.5" y="-7" font-family="Helvetica,sans-Serif" font-size="10.00">/stddef.h</text>
</a>
</g>
</g>
<!-- Node5&#45;&gt;Node6 -->
<g id="edge5" class="edge">
<title>Node5&#45;&gt;Node6</title>
<path fill="none" stroke="#63b8ff" d="M228.5,-65.87C228.5,-59.4 228.5,-50.2 228.5,-41.45"/>
<polygon fill="#63b8ff" stroke="#63b8ff" points="232,-41.63 228.5,-31.63 225,-41.63 232,-41.63"/>
</g>
<!-- Node8 -->
<g id="node8" class="node">
<title>Node8</title>
<g id="a_node8"><a xlink:href="J2DPane_8h.html" target="_top" xlink:title=" ">
<polygon fill="white" stroke="#666666" points="307.5,-316 155.5,-316 155.5,-297 307.5,-297 307.5,-316"/>
<text text-anchor="middle" x="231.5" y="-304" font-family="Helvetica,sans-Serif" font-size="10.00">JSystem/J2DGraph/J2DPane.h</text>
</a>
</g>
</g>
<!-- Node7&#45;&gt;Node8 -->
<g id="edge7" class="edge">
<title>Node7&#45;&gt;Node8</title>
<path fill="none" stroke="#63b8ff" d="M209.67,-351.54C213.45,-343.91 218.14,-334.46 222.2,-326.27"/>
<polygon fill="#63b8ff" stroke="#63b8ff" points="225.22,-328.05 226.53,-317.53 218.95,-324.94 225.22,-328.05"/>
</g>
<!-- Node9 -->
<g id="node9" class="node">
<title>Node9</title>
<g id="a_node9"><a xlink:href="JGeometry_8h.html" target="_top" xlink:title=" ">
<polygon fill="white" stroke="#666666" points="632,-261 519,-261 519,-242 632,-242 632,-261"/>
<text text-anchor="middle" x="575.5" y="-249" font-family="Helvetica,sans-Serif" font-size="10.00">JSystem/JGeometry.h</text>
</a>
</g>
</g>
<!-- Node8&#45;&gt;Node9 -->
<g id="edge8" class="edge">
<title>Node8&#45;&gt;Node9</title>
<path fill="none" stroke="#63b8ff" d="M289.85,-296.51C350.07,-287.23 443.93,-272.77 507.47,-262.98"/>
<polygon fill="#63b8ff" stroke="#63b8ff" points="507.73,-266.48 517.08,-261.5 506.67,-259.56 507.73,-266.48"/>
</g>
<!-- Node15 -->
<g id="node15" class="node">
<title>Node15</title>
<g id="a_node15"><a xlink:href="JSUList_8h.html" target="_top" xlink:title=" ">
<polygon fill="white" stroke="#666666" points="203,-261 60,-261 60,-242 203,-242 203,-261"/>
<text text-anchor="middle" x="131.5" y="-249" font-family="Helvetica,sans-Serif" font-size="10.00">JSystem/JSupport/JSUList.h</text>
</a>
</g>
</g>
<!-- Node8&#45;&gt;Node15 -->
<g id="edge16" class="edge">
<title>Node8&#45;&gt;Node15</title>
<path fill="none" stroke="#63b8ff" d="M214.54,-296.51C199.14,-288.35 176.19,-276.19 158.31,-266.71"/>
<polygon fill="#63b8ff" stroke="#63b8ff" points="160.03,-263.66 149.55,-262.07 156.75,-269.84 160.03,-263.66"/>
</g>
<!-- Node16 -->
<g id="node16" class="node">
<title>Node16</title>
<g id="a_node16"><a xlink:href="GXEnum_8h.html" target="_top" xlink:title=" ">
<polygon fill="white" stroke="#666666" points="241.5,-145.5 131.5,-145.5 131.5,-126.5 241.5,-126.5 241.5,-145.5"/>
<text text-anchor="middle" x="186.5" y="-133.5" font-family="Helvetica,sans-Serif" font-size="10.00">dolphin/gx/GXEnum.h</text>
</a>
</g>
</g>
<!-- Node8&#45;&gt;Node16 -->
<g id="edge18" class="edge">
<title>Node8&#45;&gt;Node16</title>
<path fill="none" stroke="#63b8ff" d="M229.21,-296.91C222.29,-271 201.5,-193.15 191.71,-156.49"/>
<polygon fill="#63b8ff" stroke="#63b8ff" points="195.2,-155.99 189.23,-147.23 188.43,-157.8 195.2,-155.99"/>
</g>
<!-- Node17 -->
<g id="node17" class="node">
<title>Node17</title>
<g id="a_node17"><a xlink:href="mtx_8h.html" target="_top" xlink:title=" ">
<polygon fill="white" stroke="#666666" points="373.5,-261 281.5,-261 281.5,-242 373.5,-242 373.5,-261"/>
<text text-anchor="middle" x="327.5" y="-249" font-family="Helvetica,sans-Serif" font-size="10.00">dolphin/mtx/mtx.h</text>
</a>
</g>
</g>
<!-- Node8&#45;&gt;Node17 -->
<g id="edge20" class="edge">
<title>Node8&#45;&gt;Node17</title>
<path fill="none" stroke="#63b8ff" d="M247.79,-296.51C262.49,-288.39 284.39,-276.3 301.52,-266.85"/>
<polygon fill="#63b8ff" stroke="#63b8ff" points="303.07,-269.99 310.13,-262.09 299.68,-263.86 303.07,-269.99"/>
</g>
<!-- Node10 -->
<g id="node10" class="node">
<title>Node10</title>
<g id="a_node10"><a xlink:href="vec_8h.html" target="_top" xlink:title=" ">
<polygon fill="white" stroke="#666666" points="512.5,-145.5 420.5,-145.5 420.5,-126.5 512.5,-126.5 512.5,-145.5"/>
<text text-anchor="middle" x="466.5" y="-133.5" font-family="Helvetica,sans-Serif" font-size="10.00">dolphin/mtx/vec.h</text>
</a>
</g>
</g>
<!-- Node9&#45;&gt;Node10 -->
<g id="edge9" class="edge">
<title>Node9&#45;&gt;Node10</title>
<path fill="none" stroke="#63b8ff" d="M569.19,-241.91C559.79,-229.34 541.33,-205.44 523.5,-187 511.78,-174.87 497.51,-162.36 486.18,-152.89"/>
<polygon fill="#63b8ff" stroke="#63b8ff" points="488.59,-150.34 478.65,-146.68 484.14,-155.74 488.59,-150.34"/>
</g>
<!-- Node11 -->
<g id="node11" class="node">
<title>Node11</title>
<g id="a_node11"><a xlink:href="float_8h.html" target="_top" xlink:title=" ">
<polygon fill="white" stroke="#666666" points="648.5,-206 570.5,-206 570.5,-187 648.5,-187 648.5,-206"/>
<text text-anchor="middle" x="609.5" y="-194" font-family="Helvetica,sans-Serif" font-size="10.00">MSL_C/float.h</text>
</a>
</g>
</g>
<!-- Node9&#45;&gt;Node11 -->
<g id="edge11" class="edge">
<title>Node9&#45;&gt;Node11</title>
<path fill="none" stroke="#63b8ff" d="M581.11,-241.75C585.62,-234.73 592.09,-224.64 597.71,-215.87"/>
<polygon fill="#63b8ff" stroke="#63b8ff" points="600.49,-218.02 602.95,-207.72 594.6,-214.24 600.49,-218.02"/>
</g>
<!-- Node14 -->
<g id="node14" class="node">
<title>Node14</title>
<g id="a_node14"><a xlink:href="math_8h.html" target="_top" xlink:title=" ">
<polygon fill="white" stroke="#666666" points="748.5,-206 666.5,-206 666.5,-187 748.5,-187 748.5,-206"/>
<text text-anchor="middle" x="707.5" y="-194" font-family="Helvetica,sans-Serif" font-size="10.00">MSL_C/math.h</text>
</a>
</g>
</g>
<!-- Node9&#45;&gt;Node14 -->
<g id="edge14" class="edge">
<title>Node9&#45;&gt;Node14</title>
<path fill="none" stroke="#63b8ff" d="M597.89,-241.51C619.07,-233.01 651.09,-220.15 675.06,-210.53"/>
<polygon fill="#63b8ff" stroke="#63b8ff" points="676.06,-213.9 684.03,-206.92 673.45,-207.4 676.06,-213.9"/>
</g>
<!-- Node10&#45;&gt;Node5 -->
<g id="edge10" class="edge">
<title>Node10&#45;&gt;Node5</title>
<path fill="none" stroke="#63b8ff" d="M430.09,-126.05C388.8,-115.9 321.32,-99.31 275.94,-88.16"/>
<polygon fill="#63b8ff" stroke="#63b8ff" points="276.92,-84.8 266.37,-85.81 275.25,-91.59 276.92,-84.8"/>
</g>
<!-- Node12 -->
<g id="node12" class="node">
<title>Node12</title>
<g id="a_node12"><a xlink:href="MSL__Common_2Src_2float_8h.html" target="_top" xlink:title=" ">
<polygon fill="white" stroke="#666666" points="726.5,-151 590.5,-151 590.5,-121 726.5,-121 726.5,-151"/>
<text text-anchor="start" x="598.5" y="-139" font-family="Helvetica,sans-Serif" font-size="10.00">MSL_C/MSL_Common/Src</text>
<text text-anchor="middle" x="658.5" y="-128" font-family="Helvetica,sans-Serif" font-size="10.00">/float.h</text>
</a>
</g>
</g>
<!-- Node11&#45;&gt;Node12 -->
<g id="edge12" class="edge">
<title>Node11&#45;&gt;Node12</title>
<path fill="none" stroke="#63b8ff" d="M616.73,-186.87C622.7,-179.74 631.46,-169.28 639.41,-159.79"/>
<polygon fill="#63b8ff" stroke="#63b8ff" points="641.97,-162.19 645.71,-152.27 636.6,-157.69 641.97,-162.19"/>
</g>
<!-- Node13 -->
<g id="node13" class="node">
<title>Node13</title>
<g id="a_node13"><a xlink:href="fdlibm_8h.html" target="_top" xlink:title=" ">
<polygon fill="white" stroke="#666666" points="683.5,-85 633.5,-85 633.5,-66 683.5,-66 683.5,-85"/>
<text text-anchor="middle" x="658.5" y="-73" font-family="Helvetica,sans-Serif" font-size="10.00">fdlibm.h</text>
</a>
</g>
</g>
<!-- Node12&#45;&gt;Node13 -->
<g id="edge13" class="edge">
<title>Node12&#45;&gt;Node13</title>
<path fill="none" stroke="#63b8ff" d="M658.5,-120.54C658.5,-113.34 658.5,-104.53 658.5,-96.68"/>
<polygon fill="#63b8ff" stroke="#63b8ff" points="662,-96.69 658.5,-86.69 655,-96.69 662,-96.69"/>
</g>
<!-- Node14&#45;&gt;Node12 -->
<g id="edge15" class="edge">
<title>Node14&#45;&gt;Node12</title>
<path fill="none" stroke="#63b8ff" d="M700.27,-186.87C694.3,-179.74 685.54,-169.28 677.59,-159.79"/>
<polygon fill="#63b8ff" stroke="#63b8ff" points="680.4,-157.69 671.29,-152.27 675.03,-162.19 680.4,-157.69"/>
</g>
<!-- Node15&#45;&gt;Node5 -->
<g id="edge17" class="edge">
<title>Node15&#45;&gt;Node5</title>
<path fill="none" stroke="#63b8ff" d="M127.53,-241.71C118.08,-219.37 96.92,-159.48 122.5,-121 134.77,-102.54 156.34,-91.73 176.83,-85.39"/>
<polygon fill="#63b8ff" stroke="#63b8ff" points="177.54,-88.83 186.26,-82.8 175.69,-82.08 177.54,-88.83"/>
</g>
<!-- Node16&#45;&gt;Node5 -->
<g id="edge19" class="edge">
<title>Node16&#45;&gt;Node5</title>
<path fill="none" stroke="#63b8ff" d="M192.7,-126.37C198.71,-117.99 208.03,-105.01 215.65,-94.39"/>
<polygon fill="#63b8ff" stroke="#63b8ff" points="218.41,-96.56 221.39,-86.4 212.72,-92.48 218.41,-96.56"/>
</g>
<!-- Node17&#45;&gt;Node5 -->
<g id="edge25" class="edge">
<title>Node17&#45;&gt;Node5</title>
<path fill="none" stroke="#63b8ff" d="M318.26,-241.61C309.74,-233.07 297.15,-219.49 288.5,-206 266.17,-171.16 268.12,-158.44 250.5,-121 246.56,-112.62 242.04,-103.43 238.14,-95.59"/>
<polygon fill="#63b8ff" stroke="#63b8ff" points="241.28,-94.04 233.66,-86.67 235.02,-97.18 241.28,-94.04"/>
</g>
<!-- Node18 -->
<g id="node18" class="node">
<title>Node18</title>
<g id="a_node18"><a xlink:href="mtx44_8h.html" target="_top" xlink:title=" ">
<polygon fill="white" stroke="#666666" points="401,-206 298,-206 298,-187 401,-187 401,-206"/>
<text text-anchor="middle" x="349.5" y="-194" font-family="Helvetica,sans-Serif" font-size="10.00">dolphin/mtx/mtx44.h</text>
</a>
</g>
</g>
<!-- Node17&#45;&gt;Node18 -->
<g id="edge21" class="edge">
<title>Node17&#45;&gt;Node18</title>
<path fill="none" stroke="#63b8ff" d="M331.13,-241.75C333.92,-235.04 337.87,-225.52 341.4,-217.02"/>
<polygon fill="#63b8ff" stroke="#63b8ff" points="344.61,-218.42 345.21,-207.84 338.14,-215.73 344.61,-218.42"/>
</g>
<!-- Node19 -->
<g id="node19" class="node">
<title>Node19</title>
<g id="a_node19"><a xlink:href="quat_8h.html" target="_top" xlink:title=" ">
<polygon fill="white" stroke="#666666" points="514,-206 419,-206 419,-187 514,-187 514,-206"/>
<text text-anchor="middle" x="466.5" y="-194" font-family="Helvetica,sans-Serif" font-size="10.00">dolphin/mtx/quat.h</text>
</a>
</g>
</g>
<!-- Node17&#45;&gt;Node19 -->
<g id="edge23" class="edge">
<title>Node17&#45;&gt;Node19</title>
<path fill="none" stroke="#63b8ff" d="M351.08,-241.51C373.48,-232.97 407.4,-220.03 432.68,-210.4"/>
<polygon fill="#63b8ff" stroke="#63b8ff" points="433.76,-213.73 441.85,-206.9 431.26,-207.19 433.76,-213.73"/>
</g>
<!-- Node18&#45;&gt;Node5 -->
<g id="edge22" class="edge">
<title>Node18&#45;&gt;Node5</title>
<path fill="none" stroke="#63b8ff" d="M342.6,-186.82C331.04,-172.48 306.73,-143.21 283.5,-121 272.76,-110.73 259.89,-100.23 249.3,-92.01"/>
<polygon fill="#63b8ff" stroke="#63b8ff" points="251.62,-89.38 241.55,-86.09 247.37,-94.94 251.62,-89.38"/>
</g>
<!-- Node19&#45;&gt;Node10 -->
<g id="edge24" class="edge">
<title>Node19&#45;&gt;Node10</title>
<path fill="none" stroke="#63b8ff" d="M466.5,-186.87C466.5,-179 466.5,-167.1 466.5,-156.89"/>
<polygon fill="#63b8ff" stroke="#63b8ff" points="470,-157.18 466.5,-147.18 463,-157.18 470,-157.18"/>
</g>
</g>
</svg>
