<?xml version="1.0" encoding="UTF-8" standalone="no"?>
<!DOCTYPE svg PUBLIC "-//W3C//DTD SVG 1.1//EN"
 "http://www.w3.org/Graphics/SVG/1.1/DTD/svg11.dtd">
<!-- Generated by graphviz version 7.0.5 (20221223.1930)
 -->
<!-- Title: include/d/d_path.h Pages: 1 -->
<svg width="2541pt" height="258pt"
 viewBox="0.00 0.00 2540.50 258.00" xmlns="http://www.w3.org/2000/svg" xmlns:xlink="http://www.w3.org/1999/xlink">
<g id="graph0" class="graph" transform="scale(1 1) rotate(0) translate(4 254)">
<title>include/d/d_path.h</title>
<!-- Node1 -->
<g id="node1" class="node">
<title>Node1</title>
<g id="a_node1"><a xlink:title=" ">
<polygon fill="#999999" stroke="#666666" points="1789.5,-250 1694.5,-250 1694.5,-231 1789.5,-231 1789.5,-250"/>
<text text-anchor="middle" x="1742" y="-238" font-family="Helvetica,sans-Serif" font-size="10.00">include/d/d_path.h</text>
</a>
</g>
</g>
<!-- Node2 -->
<g id="node2" class="node">
<title>Node2</title>
<g id="a_node2"><a xlink:href="d__a__npc_8h.html" target="_top" xlink:title=" ">
<polygon fill="white" stroke="#666666" points="745.5,-184 634.5,-184 634.5,-165 745.5,-165 745.5,-184"/>
<text text-anchor="middle" x="690" y="-172" font-family="Helvetica,sans-Serif" font-size="10.00">include/d/a/d_a_npc.h</text>
</a>
</g>
</g>
<!-- Node1&#45;&gt;Node2 -->
<g id="edge1" class="edge">
<title>Node1&#45;&gt;Node2</title>
<path fill="none" stroke="#63b8ff" d="M1683.23,-236.31C1554.63,-229.28 1238.59,-211.75 974,-195 894.71,-189.98 803.02,-183.58 745.76,-179.51"/>
<polygon fill="#63b8ff" stroke="#63b8ff" points="1682.67,-239.78 1692.84,-236.83 1683.05,-232.79 1682.67,-239.78"/>
</g>
<!-- Node14 -->
<g id="node14" class="node">
<title>Node14</title>
<g id="a_node14"><a xlink:href="d__a__kago_8h.html" target="_top" xlink:title=" ">
<polygon fill="white" stroke="#666666" points="1374,-189.5 1278,-189.5 1278,-159.5 1374,-159.5 1374,-189.5"/>
<text text-anchor="start" x="1286" y="-177.5" font-family="Helvetica,sans-Serif" font-size="10.00">include/rel/d/a/d_a</text>
<text text-anchor="middle" x="1326" y="-166.5" font-family="Helvetica,sans-Serif" font-size="10.00">_kago/d_a_kago.h</text>
</a>
</g>
</g>
<!-- Node1&#45;&gt;Node14 -->
<g id="edge14" class="edge">
<title>Node1&#45;&gt;Node14</title>
<path fill="none" stroke="#63b8ff" d="M1682.64,-235.91C1610.92,-230.7 1486.92,-218.95 1383,-195 1376.99,-193.61 1370.72,-191.83 1364.63,-189.91"/>
<polygon fill="#63b8ff" stroke="#63b8ff" points="1682.39,-239.4 1692.62,-236.61 1682.89,-232.41 1682.39,-239.4"/>
</g>
<!-- Node15 -->
<g id="node15" class="node">
<title>Node15</title>
<g id="a_node15"><a xlink:href="d__a__spinner_8h.html" target="_top" xlink:title=" ">
<polygon fill="white" stroke="#666666" points="1260,-189.5 1144,-189.5 1144,-159.5 1260,-159.5 1260,-189.5"/>
<text text-anchor="start" x="1152" y="-177.5" font-family="Helvetica,sans-Serif" font-size="10.00">include/rel/d/a/d_a</text>
<text text-anchor="middle" x="1202" y="-166.5" font-family="Helvetica,sans-Serif" font-size="10.00">_spinner/d_a_spinner.h</text>
</a>
</g>
</g>
<!-- Node1&#45;&gt;Node15 -->
<g id="edge15" class="edge">
<title>Node1&#45;&gt;Node15</title>
<path fill="none" stroke="#63b8ff" d="M1682.92,-237.53C1592.89,-233.73 1416.28,-223.1 1269,-195 1261.98,-193.66 1254.64,-191.9 1247.49,-189.99"/>
<polygon fill="#63b8ff" stroke="#63b8ff" points="1682.6,-241.02 1692.74,-237.93 1682.89,-234.03 1682.6,-241.02"/>
</g>
<!-- Node20 -->
<g id="node20" class="node">
<title>Node20</title>
<g id="a_node20"><a xlink:href="d__a__e__yk_8h.html" target="_top" xlink:title=" ">
<polygon fill="white" stroke="#666666" points="1496,-189.5 1392,-189.5 1392,-159.5 1496,-159.5 1496,-189.5"/>
<text text-anchor="start" x="1400" y="-177.5" font-family="Helvetica,sans-Serif" font-size="10.00">include/rel/d/a/e/d</text>
<text text-anchor="middle" x="1444" y="-166.5" font-family="Helvetica,sans-Serif" font-size="10.00">_a_e_yk/d_a_e_yk.h</text>
</a>
</g>
</g>
<!-- Node1&#45;&gt;Node20 -->
<g id="edge21" class="edge">
<title>Node1&#45;&gt;Node20</title>
<path fill="none" stroke="#63b8ff" d="M1683.24,-230.55C1635.02,-222.7 1565.12,-210.19 1505,-195 1499.07,-193.5 1492.87,-191.75 1486.8,-189.92"/>
<polygon fill="#63b8ff" stroke="#63b8ff" points="1682.49,-233.97 1692.92,-232.1 1683.6,-227.06 1682.49,-233.97"/>
</g>
<!-- Node21 -->
<g id="node21" class="node">
<title>Node21</title>
<g id="a_node21"><a xlink:href="d__a__kytag03_8h.html" target="_top" xlink:title=" ">
<polygon fill="white" stroke="#666666" points="1654,-189.5 1514,-189.5 1514,-159.5 1654,-159.5 1654,-189.5"/>
<text text-anchor="start" x="1522" y="-177.5" font-family="Helvetica,sans-Serif" font-size="10.00">include/rel/d/a/kytag</text>
<text text-anchor="middle" x="1584" y="-166.5" font-family="Helvetica,sans-Serif" font-size="10.00">/d_a_kytag03/d_a_kytag03.h</text>
</a>
</g>
</g>
<!-- Node1&#45;&gt;Node21 -->
<g id="edge22" class="edge">
<title>Node1&#45;&gt;Node21</title>
<path fill="none" stroke="#63b8ff" d="M1709.54,-226.35C1683.4,-215.76 1646.71,-200.9 1619.74,-189.98"/>
<polygon fill="#63b8ff" stroke="#63b8ff" points="1708.05,-229.52 1718.63,-230.03 1710.67,-223.03 1708.05,-229.52"/>
</g>
<!-- Node22 -->
<g id="node22" class="node">
<title>Node22</title>
<g id="a_node22"><a xlink:href="d__a__kytag06_8h.html" target="_top" xlink:title=" ">
<polygon fill="white" stroke="#666666" points="1812,-189.5 1672,-189.5 1672,-159.5 1812,-159.5 1812,-189.5"/>
<text text-anchor="start" x="1680" y="-177.5" font-family="Helvetica,sans-Serif" font-size="10.00">include/rel/d/a/kytag</text>
<text text-anchor="middle" x="1742" y="-166.5" font-family="Helvetica,sans-Serif" font-size="10.00">/d_a_kytag06/d_a_kytag06.h</text>
</a>
</g>
</g>
<!-- Node1&#45;&gt;Node22 -->
<g id="edge23" class="edge">
<title>Node1&#45;&gt;Node22</title>
<path fill="none" stroke="#63b8ff" d="M1742,-219.28C1742,-209.67 1742,-198.42 1742,-189.73"/>
<polygon fill="#63b8ff" stroke="#63b8ff" points="1738.5,-219.09 1742,-229.09 1745.5,-219.09 1738.5,-219.09"/>
</g>
<!-- Node23 -->
<g id="node23" class="node">
<title>Node23</title>
<g id="a_node23"><a xlink:href="d__a__npc__tk_8h.html" target="_top" xlink:title=" ">
<polygon fill="white" stroke="#666666" points="1114.5,-189.5 983.5,-189.5 983.5,-159.5 1114.5,-159.5 1114.5,-189.5"/>
<text text-anchor="start" x="991.5" y="-177.5" font-family="Helvetica,sans-Serif" font-size="10.00">include/rel/d/a/npc</text>
<text text-anchor="middle" x="1049" y="-166.5" font-family="Helvetica,sans-Serif" font-size="10.00">/d_a_npc_tk/d_a_npc_tk.h</text>
</a>
</g>
</g>
<!-- Node1&#45;&gt;Node23 -->
<g id="edge24" class="edge">
<title>Node1&#45;&gt;Node23</title>
<path fill="none" stroke="#63b8ff" d="M1682.73,-238.1C1573.75,-234.87 1334.4,-224.74 1135,-195 1125.91,-193.64 1116.36,-191.85 1107.07,-189.91"/>
<polygon fill="#63b8ff" stroke="#63b8ff" points="1682.51,-241.59 1692.61,-238.38 1682.71,-234.6 1682.51,-241.59"/>
</g>
<!-- Node24 -->
<g id="node24" class="node">
<title>Node24</title>
<g id="a_node24"><a xlink:href="d__a__obj__digplace_8h.html" target="_top" xlink:title=" ">
<polygon fill="white" stroke="#666666" points="1933.5,-195 1830.5,-195 1830.5,-154 1933.5,-154 1933.5,-195"/>
<text text-anchor="start" x="1838.5" y="-183" font-family="Helvetica,sans-Serif" font-size="10.00">include/rel/d/a/obj</text>
<text text-anchor="start" x="1838.5" y="-172" font-family="Helvetica,sans-Serif" font-size="10.00">/d_a_obj_digplace/d</text>
<text text-anchor="middle" x="1882" y="-161" font-family="Helvetica,sans-Serif" font-size="10.00">_a_obj_digplace.h</text>
</a>
</g>
</g>
<!-- Node1&#45;&gt;Node24 -->
<g id="edge26" class="edge">
<title>Node1&#45;&gt;Node24</title>
<path fill="none" stroke="#63b8ff" d="M1771.82,-225.87C1791.22,-217 1816.86,-205.28 1838.52,-195.38"/>
<polygon fill="#63b8ff" stroke="#63b8ff" points="1770.48,-222.63 1762.84,-229.97 1773.39,-229 1770.48,-222.63"/>
</g>
<!-- Node25 -->
<g id="node25" class="node">
<title>Node25</title>
<g id="a_node25"><a xlink:href="d__a__tag__guard_8h.html" target="_top" xlink:title=" ">
<polygon fill="white" stroke="#666666" points="2072.5,-195 1951.5,-195 1951.5,-154 2072.5,-154 2072.5,-195"/>
<text text-anchor="start" x="1959.5" y="-183" font-family="Helvetica,sans-Serif" font-size="10.00">include/rel/d/a/tag</text>
<text text-anchor="start" x="1959.5" y="-172" font-family="Helvetica,sans-Serif" font-size="10.00">/d_a_tag_guard/d_a_tag</text>
<text text-anchor="middle" x="2012" y="-161" font-family="Helvetica,sans-Serif" font-size="10.00">_guard.h</text>
</a>
</g>
</g>
<!-- Node1&#45;&gt;Node25 -->
<g id="edge27" class="edge">
<title>Node1&#45;&gt;Node25</title>
<path fill="none" stroke="#63b8ff" d="M1797.33,-228.15C1837.82,-219.62 1894,-207.34 1943,-195 1945.66,-194.33 1948.36,-193.63 1951.1,-192.92"/>
<polygon fill="#63b8ff" stroke="#63b8ff" points="1796.64,-224.71 1787.57,-230.19 1798.07,-231.57 1796.64,-224.71"/>
</g>
<!-- Node27 -->
<g id="node27" class="node">
<title>Node27</title>
<g id="a_node27"><a xlink:href="d__envse_8cpp.html" target="_top" xlink:title=" ">
<polygon fill="white" stroke="#666666" points="2187,-184 2091,-184 2091,-165 2187,-165 2187,-184"/>
<text text-anchor="middle" x="2139" y="-172" font-family="Helvetica,sans-Serif" font-size="10.00">src/d/d_envse.cpp</text>
</a>
</g>
</g>
<!-- Node1&#45;&gt;Node27 -->
<g id="edge29" class="edge">
<title>Node1&#45;&gt;Node27</title>
<path fill="none" stroke="#63b8ff" d="M1801.22,-235.35C1869.56,-229.73 1985.01,-217.7 2082,-195 2093.51,-192.31 2105.96,-188.19 2116.29,-184.44"/>
<polygon fill="#63b8ff" stroke="#63b8ff" points="1801.04,-231.85 1791.35,-236.14 1801.6,-238.83 1801.04,-231.85"/>
</g>
<!-- Node28 -->
<g id="node28" class="node">
<title>Node28</title>
<g id="a_node28"><a xlink:href="d__path_8cpp.html" target="_top" xlink:title=" ">
<polygon fill="white" stroke="#666666" points="2294.5,-184 2205.5,-184 2205.5,-165 2294.5,-165 2294.5,-184"/>
<text text-anchor="middle" x="2250" y="-172" font-family="Helvetica,sans-Serif" font-size="10.00">src/d/d_path.cpp</text>
</a>
</g>
</g>
<!-- Node1&#45;&gt;Node28 -->
<g id="edge30" class="edge">
<title>Node1&#45;&gt;Node28</title>
<path fill="none" stroke="#63b8ff" d="M1800.93,-238.38C1888.24,-235.69 2056.64,-226.47 2196,-195 2207.18,-192.47 2219.21,-188.28 2229.08,-184.43"/>
<polygon fill="#63b8ff" stroke="#63b8ff" points="1801.08,-234.88 1791.19,-238.67 1801.28,-241.88 1801.08,-234.88"/>
</g>
<!-- Node29 -->
<g id="node29" class="node">
<title>Node29</title>
<g id="a_node29"><a xlink:href="d__tresure_8cpp.html" target="_top" xlink:title=" ">
<polygon fill="white" stroke="#666666" points="2413,-184 2313,-184 2313,-165 2413,-165 2413,-184"/>
<text text-anchor="middle" x="2363" y="-172" font-family="Helvetica,sans-Serif" font-size="10.00">src/d/d_tresure.cpp</text>
</a>
</g>
</g>
<!-- Node1&#45;&gt;Node29 -->
<g id="edge31" class="edge">
<title>Node1&#45;&gt;Node29</title>
<path fill="none" stroke="#63b8ff" d="M1801.31,-239.46C1904.52,-238.35 2123.4,-231.44 2304,-195 2316.16,-192.55 2329.3,-188.36 2340.09,-184.5"/>
<polygon fill="#63b8ff" stroke="#63b8ff" points="1801.38,-235.96 1791.42,-239.55 1801.45,-242.96 1801.38,-235.96"/>
</g>
<!-- Node30 -->
<g id="node30" class="node">
<title>Node30</title>
<g id="a_node30"><a xlink:href="f__op__actor__mng_8cpp.html" target="_top" xlink:title=" ">
<polygon fill="white" stroke="#666666" points="2532.5,-189.5 2431.5,-189.5 2431.5,-159.5 2532.5,-159.5 2532.5,-189.5"/>
<text text-anchor="start" x="2439.5" y="-177.5" font-family="Helvetica,sans-Serif" font-size="10.00">src/f_op/f_op_actor</text>
<text text-anchor="middle" x="2482" y="-166.5" font-family="Helvetica,sans-Serif" font-size="10.00">_mng.cpp</text>
</a>
</g>
</g>
<!-- Node1&#45;&gt;Node30 -->
<g id="edge32" class="edge">
<title>Node1&#45;&gt;Node30</title>
<path fill="none" stroke="#63b8ff" d="M1801.09,-237.52C1943.72,-232.44 2303.77,-217.71 2422,-195 2428.67,-193.72 2435.63,-191.91 2442.34,-189.92"/>
<polygon fill="#63b8ff" stroke="#63b8ff" points="1800.97,-234.02 1791.1,-237.87 1801.22,-241.02 1800.97,-234.02"/>
</g>
<!-- Node3 -->
<g id="node3" class="node">
<title>Node3</title>
<g id="a_node3"><a xlink:href="d__shop__system_8h.html" target="_top" xlink:title=" ">
<polygon fill="white" stroke="#666666" points="378,-112.5 264,-112.5 264,-82.5 378,-82.5 378,-112.5"/>
<text text-anchor="start" x="272" y="-100.5" font-family="Helvetica,sans-Serif" font-size="10.00">include/d/shop/d_shop</text>
<text text-anchor="middle" x="321" y="-89.5" font-family="Helvetica,sans-Serif" font-size="10.00">_system.h</text>
</a>
</g>
</g>
<!-- Node2&#45;&gt;Node3 -->
<g id="edge2" class="edge">
<title>Node2&#45;&gt;Node3</title>
<path fill="none" stroke="#63b8ff" d="M622.93,-163.31C561.25,-153.45 467.44,-137.19 387,-118 380.72,-116.5 374.16,-114.77 367.71,-112.97"/>
<polygon fill="#63b8ff" stroke="#63b8ff" points="622.14,-166.73 632.57,-164.84 623.24,-159.82 622.14,-166.73"/>
</g>
<!-- Node6 -->
<g id="node6" class="node">
<title>Node6</title>
<g id="a_node6"><a xlink:href="d__a__npc__ash_8h.html" target="_top" xlink:title=" ">
<polygon fill="white" stroke="#666666" points="542,-112.5 396,-112.5 396,-82.5 542,-82.5 542,-112.5"/>
<text text-anchor="start" x="404" y="-100.5" font-family="Helvetica,sans-Serif" font-size="10.00">include/rel/d/a/npc</text>
<text text-anchor="middle" x="469" y="-89.5" font-family="Helvetica,sans-Serif" font-size="10.00">/d_a_npc_ash/d_a_npc_ash.h</text>
</a>
</g>
</g>
<!-- Node2&#45;&gt;Node6 -->
<g id="edge5" class="edge">
<title>Node2&#45;&gt;Node6</title>
<path fill="none" stroke="#63b8ff" d="M652.91,-160.91C613.84,-147.65 552.42,-126.81 511.45,-112.9"/>
<polygon fill="#63b8ff" stroke="#63b8ff" points="651.75,-164.22 662.35,-164.12 654,-157.59 651.75,-164.22"/>
</g>
<!-- Node7 -->
<g id="node7" class="node">
<title>Node7</title>
<g id="a_node7"><a xlink:href="d__a__npc__gwolf_8h.html" target="_top" xlink:title=" ">
<polygon fill="white" stroke="#666666" points="685.5,-118 560.5,-118 560.5,-77 685.5,-77 685.5,-118"/>
<text text-anchor="start" x="568.5" y="-106" font-family="Helvetica,sans-Serif" font-size="10.00">include/rel/d/a/npc</text>
<text text-anchor="start" x="568.5" y="-95" font-family="Helvetica,sans-Serif" font-size="10.00">/d_a_npc_gwolf/d_a_npc</text>
<text text-anchor="middle" x="623" y="-84" font-family="Helvetica,sans-Serif" font-size="10.00">_gwolf.h</text>
</a>
</g>
</g>
<!-- Node2&#45;&gt;Node7 -->
<g id="edge6" class="edge">
<title>Node2&#45;&gt;Node7</title>
<path fill="none" stroke="#63b8ff" d="M674.43,-156.08C664.36,-144.8 651.21,-130.08 640.73,-118.35"/>
<polygon fill="#63b8ff" stroke="#63b8ff" points="671.77,-158.35 681.04,-163.47 676.99,-153.68 671.77,-158.35"/>
</g>
<!-- Node8 -->
<g id="node8" class="node">
<title>Node8</title>
<g id="a_node8"><a xlink:href="d__a__npc__wrestler_8h.html" target="_top" xlink:title=" ">
<polygon fill="white" stroke="#666666" points="808,-118 704,-118 704,-77 808,-77 808,-118"/>
<text text-anchor="start" x="712" y="-106" font-family="Helvetica,sans-Serif" font-size="10.00">include/rel/d/a/npc</text>
<text text-anchor="start" x="712" y="-95" font-family="Helvetica,sans-Serif" font-size="10.00">/d_a_npc_wrestler/d</text>
<text text-anchor="middle" x="756" y="-84" font-family="Helvetica,sans-Serif" font-size="10.00">_a_npc_wrestler.h</text>
</a>
</g>
</g>
<!-- Node2&#45;&gt;Node8 -->
<g id="edge7" class="edge">
<title>Node2&#45;&gt;Node8</title>
<path fill="none" stroke="#63b8ff" d="M705.33,-156.08C715.26,-144.8 728.21,-130.08 738.53,-118.35"/>
<polygon fill="#63b8ff" stroke="#63b8ff" points="702.81,-153.65 698.83,-163.47 708.06,-158.27 702.81,-153.65"/>
</g>
<!-- Node9 -->
<g id="node9" class="node">
<title>Node9</title>
<g id="a_node9"><a xlink:href="d__a__obj__sekizoa_8h.html" target="_top" xlink:title=" ">
<polygon fill="white" stroke="#666666" points="974,-118 864,-118 864,-77 974,-77 974,-118"/>
<text text-anchor="start" x="872" y="-106" font-family="Helvetica,sans-Serif" font-size="10.00">include/rel/d/a/obj</text>
<text text-anchor="start" x="872" y="-95" font-family="Helvetica,sans-Serif" font-size="10.00">/d_a_obj_sekizoa/d_a</text>
<text text-anchor="middle" x="919" y="-84" font-family="Helvetica,sans-Serif" font-size="10.00">_obj_sekizoa.h</text>
</a>
</g>
</g>
<!-- Node2&#45;&gt;Node9 -->
<g id="edge8" class="edge">
<title>Node2&#45;&gt;Node9</title>
<path fill="none" stroke="#63b8ff" d="M727.97,-161.06C764.93,-148.96 821.51,-130.43 863.51,-116.67"/>
<polygon fill="#63b8ff" stroke="#63b8ff" points="727.02,-157.69 718.61,-164.13 729.2,-164.34 727.02,-157.69"/>
</g>
<!-- Node10 -->
<g id="node10" class="node">
<title>Node10</title>
<g id="a_node10"><a xlink:href="d__a__alink_8cpp.html" target="_top" xlink:title=" ">
<polygon fill="white" stroke="#666666" points="973.5,-30 864.5,-30 864.5,-11 973.5,-11 973.5,-30"/>
<text text-anchor="middle" x="919" y="-18" font-family="Helvetica,sans-Serif" font-size="10.00">src/d/a/d_a_alink.cpp</text>
</a>
</g>
</g>
<!-- Node2&#45;&gt;Node10 -->
<g id="edge11" class="edge">
<title>Node2&#45;&gt;Node10</title>
<path fill="none" stroke="#63b8ff" d="M729.93,-160.85C756.12,-151.44 790.31,-136.96 817,-118 837.25,-103.61 837.14,-94.28 855,-77 872.97,-59.62 895.3,-40.85 908.27,-30.2"/>
<polygon fill="#63b8ff" stroke="#63b8ff" points="728.97,-157.48 720.68,-164.08 731.27,-164.09 728.97,-157.48"/>
</g>
<!-- Node11 -->
<g id="node11" class="node">
<title>Node11</title>
<g id="a_node11"><a xlink:href="d__a__tag__push_8h.html" target="_top" xlink:title=" ">
<polygon fill="white" stroke="#666666" points="118,-118 0,-118 0,-77 118,-77 118,-118"/>
<text text-anchor="start" x="8" y="-106" font-family="Helvetica,sans-Serif" font-size="10.00">include/rel/d/a/tag</text>
<text text-anchor="start" x="8" y="-95" font-family="Helvetica,sans-Serif" font-size="10.00">/d_a_tag_push/d_a_tag</text>
<text text-anchor="middle" x="59" y="-84" font-family="Helvetica,sans-Serif" font-size="10.00">_push.h</text>
</a>
</g>
</g>
<!-- Node2&#45;&gt;Node11 -->
<g id="edge10" class="edge">
<title>Node2&#45;&gt;Node11</title>
<path fill="none" stroke="#63b8ff" d="M622.91,-170.81C516.81,-165.69 304.14,-151.84 127,-118 124.1,-117.45 121.15,-116.83 118.19,-116.16"/>
<polygon fill="#63b8ff" stroke="#63b8ff" points="622.72,-174.31 632.87,-171.28 623.05,-167.32 622.72,-174.31"/>
</g>
<!-- Node12 -->
<g id="node12" class="node">
<title>Node12</title>
<g id="a_node12"><a xlink:href="d__a__npc_8cpp.html" target="_top" xlink:title=" ">
<polygon fill="white" stroke="#666666" points="1096,-107 992,-107 992,-88 1096,-88 1096,-107"/>
<text text-anchor="middle" x="1044" y="-95" font-family="Helvetica,sans-Serif" font-size="10.00">src/d/a/d_a_npc.cpp</text>
</a>
</g>
</g>
<!-- Node2&#45;&gt;Node12 -->
<g id="edge12" class="edge">
<title>Node2&#45;&gt;Node12</title>
<path fill="none" stroke="#63b8ff" d="M756.96,-163.21C816.68,-153.47 906.27,-137.45 983,-118 994.75,-115.02 1007.55,-111.04 1018.38,-107.46"/>
<polygon fill="#63b8ff" stroke="#63b8ff" points="756.6,-159.72 747.29,-164.77 757.72,-166.63 756.6,-159.72"/>
</g>
<!-- Node13 -->
<g id="node13" class="node">
<title>Node13</title>
<g id="a_node13"><a xlink:href="d__meter2__info_8cpp.html" target="_top" xlink:title=" ">
<polygon fill="white" stroke="#666666" points="246,-112.5 136,-112.5 136,-82.5 246,-82.5 246,-112.5"/>
<text text-anchor="start" x="144" y="-100.5" font-family="Helvetica,sans-Serif" font-size="10.00">src/d/meter/d_meter2</text>
<text text-anchor="middle" x="191" y="-89.5" font-family="Helvetica,sans-Serif" font-size="10.00">_info.cpp</text>
</a>
</g>
</g>
<!-- Node2&#45;&gt;Node13 -->
<g id="edge13" class="edge">
<title>Node2&#45;&gt;Node13</title>
<path fill="none" stroke="#63b8ff" d="M622.8,-168.47C536.82,-161.23 383.64,-145.6 255,-118 248.41,-116.59 241.53,-114.81 234.81,-112.91"/>
<polygon fill="#63b8ff" stroke="#63b8ff" points="622.45,-171.95 632.71,-169.29 623.03,-164.98 622.45,-171.95"/>
</g>
<!-- Node4 -->
<g id="node4" class="node">
<title>Node4</title>
<g id="a_node4"><a xlink:href="d__msg__flow_8cpp.html" target="_top" xlink:title=" ">
<polygon fill="white" stroke="#666666" points="307.5,-30 174.5,-30 174.5,-11 307.5,-11 307.5,-30"/>
<text text-anchor="middle" x="241" y="-18" font-family="Helvetica,sans-Serif" font-size="10.00">src/d/msg/d_msg_flow.cpp</text>
</a>
</g>
</g>
<!-- Node3&#45;&gt;Node4 -->
<g id="edge3" class="edge">
<title>Node3&#45;&gt;Node4</title>
<path fill="none" stroke="#63b8ff" d="M297.34,-74.32C281.61,-59.58 261.82,-41.02 250.37,-30.29"/>
<polygon fill="#63b8ff" stroke="#63b8ff" points="294.78,-76.72 304.47,-81 299.57,-71.61 294.78,-76.72"/>
</g>
<!-- Node5 -->
<g id="node5" class="node">
<title>Node5</title>
<g id="a_node5"><a xlink:href="d__shop__system_8cpp.html" target="_top" xlink:title=" ">
<polygon fill="white" stroke="#666666" points="478,-30 326,-30 326,-11 478,-11 478,-30"/>
<text text-anchor="middle" x="402" y="-18" font-family="Helvetica,sans-Serif" font-size="10.00">src/d/shop/d_shop_system.cpp</text>
</a>
</g>
</g>
<!-- Node3&#45;&gt;Node5 -->
<g id="edge4" class="edge">
<title>Node3&#45;&gt;Node5</title>
<path fill="none" stroke="#63b8ff" d="M344.96,-74.32C360.88,-59.58 380.92,-41.02 392.51,-30.29"/>
<polygon fill="#63b8ff" stroke="#63b8ff" points="342.69,-71.65 337.73,-81.01 347.44,-76.78 342.69,-71.65"/>
</g>
<!-- Node9&#45;&gt;Node10 -->
<g id="edge9" class="edge">
<title>Node9&#45;&gt;Node10</title>
<path fill="none" stroke="#63b8ff" d="M919,-65.53C919,-52.74 919,-38.92 919,-30.24"/>
<polygon fill="#63b8ff" stroke="#63b8ff" points="915.5,-65.28 919,-75.28 922.5,-65.28 915.5,-65.28"/>
</g>
<!-- Node15&#45;&gt;Node10 -->
<g id="edge19" class="edge">
<title>Node15&#45;&gt;Node10</title>
<path fill="none" stroke="#63b8ff" d="M1178.19,-151.2C1167.61,-141.17 1155.07,-129.1 1144,-118 1126.24,-100.19 1126.44,-90.15 1105,-77 1064.64,-52.25 1012.56,-37.95 973.77,-30.08"/>
<polygon fill="#63b8ff" stroke="#63b8ff" points="1175.77,-153.73 1185.45,-158.05 1180.58,-148.64 1175.77,-153.73"/>
</g>
<!-- Node16 -->
<g id="node16" class="node">
<title>Node16</title>
<g id="a_node16"><a xlink:href="d__a__obj__swspinner_8h.html" target="_top" xlink:title=" ">
<polygon fill="white" stroke="#666666" points="1263.5,-118 1152.5,-118 1152.5,-77 1263.5,-77 1263.5,-118"/>
<text text-anchor="start" x="1160.5" y="-106" font-family="Helvetica,sans-Serif" font-size="10.00">include/rel/d/a/obj</text>
<text text-anchor="start" x="1160.5" y="-95" font-family="Helvetica,sans-Serif" font-size="10.00">/d_a_obj_swspinner/d</text>
<text text-anchor="middle" x="1208" y="-84" font-family="Helvetica,sans-Serif" font-size="10.00">_a_obj_swspinner.h</text>
</a>
</g>
</g>
<!-- Node15&#45;&gt;Node16 -->
<g id="edge16" class="edge">
<title>Node15&#45;&gt;Node16</title>
<path fill="none" stroke="#63b8ff" d="M1204.07,-147.68C1204.84,-138.06 1205.7,-127.3 1206.42,-118.3"/>
<polygon fill="#63b8ff" stroke="#63b8ff" points="1200.59,-147.28 1203.28,-157.53 1207.56,-147.84 1200.59,-147.28"/>
</g>
<!-- Node18 -->
<g id="node18" class="node">
<title>Node18</title>
<g id="a_node18"><a xlink:href="d__a__tag__spinner_8h.html" target="_top" xlink:title=" ">
<polygon fill="white" stroke="#666666" points="1392,-118 1282,-118 1282,-77 1392,-77 1392,-118"/>
<text text-anchor="start" x="1290" y="-106" font-family="Helvetica,sans-Serif" font-size="10.00">include/rel/d/a/tag</text>
<text text-anchor="start" x="1290" y="-95" font-family="Helvetica,sans-Serif" font-size="10.00">/d_a_tag_spinner/d_a</text>
<text text-anchor="middle" x="1337" y="-84" font-family="Helvetica,sans-Serif" font-size="10.00">_tag_spinner.h</text>
</a>
</g>
</g>
<!-- Node15&#45;&gt;Node18 -->
<g id="edge18" class="edge">
<title>Node15&#45;&gt;Node18</title>
<path fill="none" stroke="#63b8ff" d="M1238.06,-153.47C1257.58,-142.62 1281.61,-129.27 1301.1,-118.44"/>
<polygon fill="#63b8ff" stroke="#63b8ff" points="1236.39,-150.39 1229.35,-158.3 1239.79,-156.51 1236.39,-150.39"/>
</g>
<!-- Node19 -->
<g id="node19" class="node">
<title>Node19</title>
<g id="a_node19"><a xlink:href="d__a__player_8cpp.html" target="_top" xlink:title=" ">
<polygon fill="white" stroke="#666666" points="1524,-107 1410,-107 1410,-88 1524,-88 1524,-107"/>
<text text-anchor="middle" x="1467" y="-95" font-family="Helvetica,sans-Serif" font-size="10.00">src/d/a/d_a_player.cpp</text>
</a>
</g>
</g>
<!-- Node15&#45;&gt;Node19 -->
<g id="edge20" class="edge">
<title>Node15&#45;&gt;Node19</title>
<path fill="none" stroke="#63b8ff" d="M1262.2,-155.93C1264.5,-155.27 1266.77,-154.63 1269,-154 1327.53,-137.5 1342.5,-134.62 1401,-118 1412.84,-114.64 1425.83,-110.82 1437.14,-107.47"/>
<polygon fill="#63b8ff" stroke="#63b8ff" points="1261.47,-152.49 1252.82,-158.61 1263.4,-159.22 1261.47,-152.49"/>
</g>
<!-- Node17 -->
<g id="node17" class="node">
<title>Node17</title>
<g id="a_node17"><a xlink:href="d__a__obj__lv4gear_8h.html" target="_top" xlink:title=" ">
<polygon fill="white" stroke="#666666" points="1262.5,-41 1153.5,-41 1153.5,0 1262.5,0 1262.5,-41"/>
<text text-anchor="start" x="1161.5" y="-29" font-family="Helvetica,sans-Serif" font-size="10.00">include/rel/d/a/obj</text>
<text text-anchor="start" x="1161.5" y="-18" font-family="Helvetica,sans-Serif" font-size="10.00">/d_a_obj_lv4gear/d_a</text>
<text text-anchor="middle" x="1208" y="-7" font-family="Helvetica,sans-Serif" font-size="10.00">_obj_lv4gear.h</text>
</a>
</g>
</g>
<!-- Node16&#45;&gt;Node17 -->
<g id="edge17" class="edge">
<title>Node16&#45;&gt;Node17</title>
<path fill="none" stroke="#63b8ff" d="M1208,-65.36C1208,-57.24 1208,-48.7 1208,-41.33"/>
<polygon fill="#63b8ff" stroke="#63b8ff" points="1204.5,-65.28 1208,-75.28 1211.5,-65.28 1204.5,-65.28"/>
</g>
<!-- Node23&#45;&gt;Node12 -->
<g id="edge25" class="edge">
<title>Node23&#45;&gt;Node12</title>
<path fill="none" stroke="#63b8ff" d="M1047.27,-147.56C1046.34,-133.54 1045.24,-117.13 1044.59,-107.29"/>
<polygon fill="#63b8ff" stroke="#63b8ff" points="1043.78,-147.78 1047.94,-157.53 1050.76,-147.32 1043.78,-147.78"/>
</g>
<!-- Node26 -->
<g id="node26" class="node">
<title>Node26</title>
<g id="a_node26"><a xlink:href="d__a__guard__mng_8h.html" target="_top" xlink:title=" ">
<polygon fill="white" stroke="#666666" points="2086.5,-112.5 1937.5,-112.5 1937.5,-82.5 2086.5,-82.5 2086.5,-112.5"/>
<text text-anchor="start" x="1945.5" y="-100.5" font-family="Helvetica,sans-Serif" font-size="10.00">include/rel/d/a/d_a</text>
<text text-anchor="middle" x="2012" y="-89.5" font-family="Helvetica,sans-Serif" font-size="10.00">_guard_mng/d_a_guard_mng.h</text>
</a>
</g>
</g>
<!-- Node25&#45;&gt;Node26 -->
<g id="edge28" class="edge">
<title>Node25&#45;&gt;Node26</title>
<path fill="none" stroke="#63b8ff" d="M2012,-142.28C2012,-132.07 2012,-121.21 2012,-112.86"/>
<polygon fill="#63b8ff" stroke="#63b8ff" points="2008.5,-142.28 2012,-152.28 2015.5,-142.28 2008.5,-142.28"/>
</g>
</g>
</svg>
