<?xml version="1.0" encoding="UTF-8" standalone="no"?>
<!DOCTYPE svg PUBLIC "-//W3C//DTD SVG 1.1//EN"
 "http://www.w3.org/Graphics/SVG/1.1/DTD/svg11.dtd">
<!-- Generated by graphviz version 7.0.5 (20221223.1930)
 -->
<!-- Title: include/d/d_resorce.h Pages: 1 -->
<svg width="2849pt" height="478pt"
 viewBox="0.00 0.00 2849.00 478.00" xmlns="http://www.w3.org/2000/svg" xmlns:xlink="http://www.w3.org/1999/xlink">
<g id="graph0" class="graph" transform="scale(1 1) rotate(0) translate(4 474)">
<title>include/d/d_resorce.h</title>
<!-- Node1 -->
<g id="node1" class="node">
<title>Node1</title>
<g id="a_node1"><a xlink:title=" ">
<polygon fill="#999999" stroke="#666666" points="1333.5,-470 1224.5,-470 1224.5,-451 1333.5,-451 1333.5,-470"/>
<text text-anchor="middle" x="1279" y="-458" font-family="Helvetica,sans-Serif" font-size="10.00">include/d/d_resorce.h</text>
</a>
</g>
</g>
<!-- Node2 -->
<g id="node2" class="node">
<title>Node2</title>
<g id="a_node2"><a xlink:href="m__Do__dvd__thread_8h.html" target="_top" xlink:title=" ">
<polygon fill="white" stroke="#666666" points="1875.5,-288.5 1744.5,-288.5 1744.5,-269.5 1875.5,-269.5 1875.5,-288.5"/>
<text text-anchor="middle" x="1810" y="-276.5" font-family="Helvetica,sans-Serif" font-size="10.00">m_Do/m_Do_dvd_thread.h</text>
</a>
</g>
</g>
<!-- Node1&#45;&gt;Node2 -->
<g id="edge1" class="edge">
<title>Node1&#45;&gt;Node2</title>
<path fill="none" stroke="#63b8ff" d="M1305.33,-450.6C1392.47,-421.14 1671.66,-326.76 1772.89,-292.54"/>
<polygon fill="#63b8ff" stroke="#63b8ff" points="1773.72,-295.96 1782.07,-289.44 1771.48,-289.33 1773.72,-295.96"/>
</g>
<!-- Node29 -->
<g id="node25" class="node">
<title>Node29</title>
<g id="a_node25"><a xlink:href="m__Do__ext_8h.html" target="_top" xlink:title=" ">
<polygon fill="white" stroke="#666666" points="1240,-415 1144,-415 1144,-396 1240,-396 1240,-415"/>
<text text-anchor="middle" x="1192" y="-403" font-family="Helvetica,sans-Serif" font-size="10.00">m_Do/m_Do_ext.h</text>
</a>
</g>
</g>
<!-- Node1&#45;&gt;Node29 -->
<g id="edge30" class="edge">
<title>Node1&#45;&gt;Node29</title>
<path fill="none" stroke="#63b8ff" d="M1264.24,-450.51C1251.04,-442.47 1231.44,-430.53 1215.99,-421.11"/>
<polygon fill="#63b8ff" stroke="#63b8ff" points="1218.19,-418.36 1207.83,-416.15 1214.55,-424.34 1218.19,-418.36"/>
</g>
<!-- Node3 -->
<g id="node3" class="node">
<title>Node3</title>
<g id="a_node3"><a xlink:href="JKRArchive_8h.html" target="_top" xlink:title=" ">
<polygon fill="white" stroke="#666666" points="2043.5,-222.5 1890.5,-222.5 1890.5,-203.5 2043.5,-203.5 2043.5,-222.5"/>
<text text-anchor="middle" x="1967" y="-210.5" font-family="Helvetica,sans-Serif" font-size="10.00">JSystem/JKernel/JKRArchive.h</text>
</a>
</g>
</g>
<!-- Node2&#45;&gt;Node3 -->
<g id="edge2" class="edge">
<title>Node2&#45;&gt;Node3</title>
<path fill="none" stroke="#63b8ff" d="M1831.83,-269.1C1858.47,-258.24 1903.75,-239.78 1934.5,-227.25"/>
<polygon fill="#63b8ff" stroke="#63b8ff" points="1935.76,-230.51 1943.7,-223.5 1933.12,-224.03 1935.76,-230.51"/>
</g>
<!-- Node11 -->
<g id="node9" class="node">
<title>Node11</title>
<g id="a_node9"><a xlink:href="OSMessage_8h.html" target="_top" xlink:title=" ">
<polygon fill="white" stroke="#666666" points="1872.5,-222.5 1747.5,-222.5 1747.5,-203.5 1872.5,-203.5 1872.5,-222.5"/>
<text text-anchor="middle" x="1810" y="-210.5" font-family="Helvetica,sans-Serif" font-size="10.00">dolphin/os/OSMessage.h</text>
</a>
</g>
</g>
<!-- Node2&#45;&gt;Node11 -->
<g id="edge9" class="edge">
<title>Node2&#45;&gt;Node11</title>
<path fill="none" stroke="#63b8ff" d="M1810,-269.1C1810,-260.12 1810,-245.95 1810,-234.22"/>
<polygon fill="#63b8ff" stroke="#63b8ff" points="1813.5,-234.34 1810,-224.34 1806.5,-234.34 1813.5,-234.34"/>
</g>
<!-- Node14 -->
<g id="node12" class="node">
<title>Node14</title>
<g id="a_node12"><a xlink:href="OSMutex_8h.html" target="_top" xlink:title=" ">
<polygon fill="white" stroke="#666666" points="1729,-222.5 1617,-222.5 1617,-203.5 1729,-203.5 1729,-222.5"/>
<text text-anchor="middle" x="1673" y="-210.5" font-family="Helvetica,sans-Serif" font-size="10.00">dolphin/os/OSMutex.h</text>
</a>
</g>
</g>
<!-- Node2&#45;&gt;Node14 -->
<g id="edge13" class="edge">
<title>Node2&#45;&gt;Node14</title>
<path fill="none" stroke="#63b8ff" d="M1790.95,-269.1C1767.95,-258.35 1729.01,-240.16 1702.2,-227.64"/>
<polygon fill="#63b8ff" stroke="#63b8ff" points="1703.8,-224.53 1693.26,-223.46 1700.84,-230.87 1703.8,-224.53"/>
</g>
<!-- Node15 -->
<g id="node13" class="node">
<title>Node15</title>
<g id="a_node13"><a xlink:href="f__pc__node_8h.html" target="_top" xlink:title=" ">
<polygon fill="white" stroke="#666666" points="2217.5,-156.5 2126.5,-156.5 2126.5,-137.5 2217.5,-137.5 2217.5,-156.5"/>
<text text-anchor="middle" x="2172" y="-144.5" font-family="Helvetica,sans-Serif" font-size="10.00">f_pc/f_pc_node.h</text>
</a>
</g>
</g>
<!-- Node2&#45;&gt;Node15 -->
<g id="edge15" class="edge">
<title>Node2&#45;&gt;Node15</title>
<path fill="none" stroke="#63b8ff" d="M1876,-271.45C1926.07,-264.82 1995.81,-252 2053,-228 2091.59,-211.8 2130.82,-182.38 2153.2,-164.08"/>
<polygon fill="#63b8ff" stroke="#63b8ff" points="2155.37,-166.83 2160.81,-157.74 2150.89,-161.45 2155.37,-166.83"/>
</g>
<!-- Node4 -->
<g id="node4" class="node">
<title>Node4</title>
<g id="a_node4"><a xlink:href="JKRCompression_8h.html" target="_top" xlink:title=" ">
<polygon fill="white" stroke="#666666" points="2108.5,-156.5 1931.5,-156.5 1931.5,-137.5 2108.5,-137.5 2108.5,-156.5"/>
<text text-anchor="middle" x="2020" y="-144.5" font-family="Helvetica,sans-Serif" font-size="10.00">JSystem/JKernel/JKRCompression.h</text>
</a>
</g>
</g>
<!-- Node3&#45;&gt;Node4 -->
<g id="edge3" class="edge">
<title>Node3&#45;&gt;Node4</title>
<path fill="none" stroke="#63b8ff" d="M1974.37,-203.1C1982.36,-193.45 1995.32,-177.81 2005.39,-165.65"/>
<polygon fill="#63b8ff" stroke="#63b8ff" points="2008.05,-167.92 2011.73,-157.99 2002.65,-163.46 2008.05,-167.92"/>
</g>
<!-- Node5 -->
<g id="node5" class="node">
<title>Node5</title>
<g id="a_node5"><a xlink:href="JKRFileLoader_8h.html" target="_top" xlink:title=" ">
<polygon fill="white" stroke="#666666" points="1913,-156.5 1747,-156.5 1747,-137.5 1913,-137.5 1913,-156.5"/>
<text text-anchor="middle" x="1830" y="-144.5" font-family="Helvetica,sans-Serif" font-size="10.00">JSystem/JKernel/JKRFileLoader.h</text>
</a>
</g>
</g>
<!-- Node3&#45;&gt;Node5 -->
<g id="edge4" class="edge">
<title>Node3&#45;&gt;Node5</title>
<path fill="none" stroke="#63b8ff" d="M1947.95,-203.1C1924.95,-192.35 1886.01,-174.16 1859.2,-161.64"/>
<polygon fill="#63b8ff" stroke="#63b8ff" points="1860.8,-158.53 1850.26,-157.46 1857.84,-164.87 1860.8,-158.53"/>
</g>
<!-- Node10 -->
<g id="node8" class="node">
<title>Node10</title>
<g id="a_node8"><a xlink:href="global_8h.html" target="_top" xlink:title=" ">
<polygon fill="white" stroke="#666666" points="1554,-156.5 1504,-156.5 1504,-137.5 1554,-137.5 1554,-156.5"/>
<text text-anchor="middle" x="1529" y="-144.5" font-family="Helvetica,sans-Serif" font-size="10.00">global.h</text>
</a>
</g>
</g>
<!-- Node3&#45;&gt;Node10 -->
<g id="edge7" class="edge">
<title>Node3&#45;&gt;Node10</title>
<path fill="none" stroke="#63b8ff" d="M1914.45,-203.05C1903.72,-201.31 1892.51,-199.54 1882,-198 1758.74,-179.87 1727.06,-181.44 1604,-162 1591.41,-160.01 1577.68,-157.54 1565.46,-155.23"/>
<polygon fill="#63b8ff" stroke="#63b8ff" points="1566.25,-151.82 1555.77,-153.37 1564.93,-158.69 1566.25,-151.82"/>
</g>
<!-- Node6 -->
<g id="node6" class="node">
<title>Node6</title>
<g id="a_node6"><a xlink:href="JKRDisposer_8h.html" target="_top" xlink:title=" ">
<polygon fill="#fff0f0" stroke="red" points="1920,-90.5 1762,-90.5 1762,-71.5 1920,-71.5 1920,-90.5"/>
<text text-anchor="middle" x="1841" y="-78.5" font-family="Helvetica,sans-Serif" font-size="10.00">JSystem/JKernel/JKRDisposer.h</text>
</a>
</g>
</g>
<!-- Node5&#45;&gt;Node6 -->
<g id="edge5" class="edge">
<title>Node5&#45;&gt;Node6</title>
<path fill="none" stroke="#63b8ff" d="M1831.53,-137.1C1833.09,-128.03 1835.56,-113.64 1837.59,-101.85"/>
<polygon fill="#63b8ff" stroke="#63b8ff" points="1840.98,-102.76 1839.23,-92.32 1834.08,-101.58 1840.98,-102.76"/>
</g>
<!-- Node8 -->
<g id="node7" class="node">
<title>Node8</title>
<g id="a_node7"><a xlink:href="types_8h.html" target="_top" xlink:title=" ">
<polygon fill="#fff0f0" stroke="red" points="1114.5,-24.5 1033.5,-24.5 1033.5,-5.5 1114.5,-5.5 1114.5,-24.5"/>
<text text-anchor="middle" x="1074" y="-12.5" font-family="Helvetica,sans-Serif" font-size="10.00">dolphin/types.h</text>
</a>
</g>
</g>
<!-- Node5&#45;&gt;Node8 -->
<g id="edge6" class="edge">
<title>Node5&#45;&gt;Node8</title>
<path fill="none" stroke="#63b8ff" d="M1815.54,-137.17C1799.87,-127.47 1774.24,-111.23 1753,-96 1735.51,-83.46 1735.04,-73.84 1715,-66 1608.17,-24.19 1259.66,-17.29 1126.43,-16.19"/>
<polygon fill="#63b8ff" stroke="#63b8ff" points="1126.51,-12.69 1116.48,-16.12 1126.46,-19.69 1126.51,-12.69"/>
</g>
<!-- Node10&#45;&gt;Node8 -->
<g id="edge8" class="edge">
<title>Node10&#45;&gt;Node8</title>
<path fill="none" stroke="#63b8ff" d="M1525.91,-137.19C1519.43,-120.18 1502.7,-83.01 1475,-66 1417.68,-30.81 1221.25,-20.28 1126.26,-17.22"/>
<polygon fill="#63b8ff" stroke="#63b8ff" points="1126.54,-13.72 1116.44,-16.92 1126.32,-20.72 1126.54,-13.72"/>
</g>
<!-- Node12 -->
<g id="node10" class="node">
<title>Node12</title>
<g id="a_node10"><a xlink:href="OSThread_8h.html" target="_top" xlink:title=" ">
<polygon fill="white" stroke="#666666" points="1729,-156.5 1613,-156.5 1613,-137.5 1729,-137.5 1729,-156.5"/>
<text text-anchor="middle" x="1671" y="-144.5" font-family="Helvetica,sans-Serif" font-size="10.00">dolphin/os/OSThread.h</text>
</a>
</g>
</g>
<!-- Node11&#45;&gt;Node12 -->
<g id="edge10" class="edge">
<title>Node11&#45;&gt;Node12</title>
<path fill="none" stroke="#63b8ff" d="M1790.67,-203.1C1767.23,-192.31 1727.47,-174 1700.27,-161.48"/>
<polygon fill="#63b8ff" stroke="#63b8ff" points="1702.09,-158.46 1691.54,-157.46 1699.16,-164.82 1702.09,-158.46"/>
</g>
<!-- Node13 -->
<g id="node11" class="node">
<title>Node13</title>
<g id="a_node11"><a xlink:href="OSContext_8h.html" target="_top" xlink:title=" ">
<polygon fill="white" stroke="#666666" points="1705.5,-90.5 1586.5,-90.5 1586.5,-71.5 1705.5,-71.5 1705.5,-90.5"/>
<text text-anchor="middle" x="1646" y="-78.5" font-family="Helvetica,sans-Serif" font-size="10.00">dolphin/os/OSContext.h</text>
</a>
</g>
</g>
<!-- Node12&#45;&gt;Node13 -->
<g id="edge11" class="edge">
<title>Node12&#45;&gt;Node13</title>
<path fill="none" stroke="#63b8ff" d="M1667.52,-137.1C1663.94,-127.93 1658.24,-113.34 1653.61,-101.48"/>
<polygon fill="#63b8ff" stroke="#63b8ff" points="1656.9,-100.27 1650,-92.23 1650.38,-102.82 1656.9,-100.27"/>
</g>
<!-- Node13&#45;&gt;Node8 -->
<g id="edge12" class="edge">
<title>Node13&#45;&gt;Node8</title>
<path fill="none" stroke="#63b8ff" d="M1601.89,-71C1592.08,-69.19 1581.71,-67.4 1572,-66 1410.11,-42.6 1217.02,-26.58 1126.16,-19.74"/>
<polygon fill="#63b8ff" stroke="#63b8ff" points="1126.56,-16.26 1116.32,-19 1126.04,-23.24 1126.56,-16.26"/>
</g>
<!-- Node14&#45;&gt;Node12 -->
<g id="edge14" class="edge">
<title>Node14&#45;&gt;Node12</title>
<path fill="none" stroke="#63b8ff" d="M1672.72,-203.1C1672.44,-194.12 1672,-179.95 1671.63,-168.22"/>
<polygon fill="#63b8ff" stroke="#63b8ff" points="1675.13,-168.22 1671.32,-158.34 1668.14,-168.44 1675.13,-168.22"/>
</g>
<!-- Node16 -->
<g id="node14" class="node">
<title>Node16</title>
<g id="a_node14"><a xlink:href="f__pc__base_8h.html" target="_top" xlink:title=" ">
<polygon fill="white" stroke="#666666" points="2579.5,-90.5 2488.5,-90.5 2488.5,-71.5 2579.5,-71.5 2579.5,-90.5"/>
<text text-anchor="middle" x="2534" y="-78.5" font-family="Helvetica,sans-Serif" font-size="10.00">f_pc/f_pc_base.h</text>
</a>
</g>
</g>
<!-- Node15&#45;&gt;Node16 -->
<g id="edge16" class="edge">
<title>Node15&#45;&gt;Node16</title>
<path fill="none" stroke="#63b8ff" d="M2217.85,-137.89C2283.85,-126.22 2405.57,-104.71 2477.19,-92.04"/>
<polygon fill="#63b8ff" stroke="#63b8ff" points="2477.51,-95.54 2486.75,-90.35 2476.29,-88.65 2477.51,-95.54"/>
</g>
<!-- Node24 -->
<g id="node19" class="node">
<title>Node24</title>
<g id="a_node19"><a xlink:href="f__pc__layer_8h.html" target="_top" xlink:title=" ">
<polygon fill="white" stroke="#666666" points="2262,-90.5 2172,-90.5 2172,-71.5 2262,-71.5 2262,-90.5"/>
<text text-anchor="middle" x="2217" y="-78.5" font-family="Helvetica,sans-Serif" font-size="10.00">f_pc/f_pc_layer.h</text>
</a>
</g>
</g>
<!-- Node15&#45;&gt;Node24 -->
<g id="edge21" class="edge">
<title>Node15&#45;&gt;Node24</title>
<path fill="none" stroke="#63b8ff" d="M2178.26,-137.1C2184.97,-127.55 2195.83,-112.11 2204.34,-100.01"/>
<polygon fill="#63b8ff" stroke="#63b8ff" points="2207.04,-102.25 2209.93,-92.06 2201.31,-98.23 2207.04,-102.25"/>
</g>
<!-- Node27 -->
<g id="node23" class="node">
<title>Node27</title>
<g id="a_node23"><a xlink:href="f__pc__method_8h.html" target="_top" xlink:title=" ">
<polygon fill="white" stroke="#666666" points="2040,-90.5 1938,-90.5 1938,-71.5 2040,-71.5 2040,-90.5"/>
<text text-anchor="middle" x="1989" y="-78.5" font-family="Helvetica,sans-Serif" font-size="10.00">f_pc/f_pc_method.h</text>
</a>
</g>
</g>
<!-- Node15&#45;&gt;Node27 -->
<g id="edge26" class="edge">
<title>Node15&#45;&gt;Node27</title>
<path fill="none" stroke="#63b8ff" d="M2146.55,-137.1C2114.96,-126.05 2060.86,-107.13 2025.02,-94.6"/>
<polygon fill="#63b8ff" stroke="#63b8ff" points="2026.55,-91.42 2015.95,-91.43 2024.24,-98.03 2026.55,-91.42"/>
</g>
<!-- Node28 -->
<g id="node24" class="node">
<title>Node28</title>
<g id="a_node24"><a xlink:href="f__pc__profile_8h.html" target="_top" xlink:title=" ">
<polygon fill="white" stroke="#666666" points="2153.5,-90.5 2058.5,-90.5 2058.5,-71.5 2153.5,-71.5 2153.5,-90.5"/>
<text text-anchor="middle" x="2106" y="-78.5" font-family="Helvetica,sans-Serif" font-size="10.00">f_pc/f_pc_profile.h</text>
</a>
</g>
</g>
<!-- Node15&#45;&gt;Node28 -->
<g id="edge28" class="edge">
<title>Node15&#45;&gt;Node28</title>
<path fill="none" stroke="#63b8ff" d="M2162.82,-137.1C2152.58,-127.17 2135.77,-110.87 2123.09,-98.57"/>
<polygon fill="#63b8ff" stroke="#63b8ff" points="2125.8,-96.33 2116.19,-91.88 2120.93,-101.35 2125.8,-96.33"/>
</g>
<!-- Node17 -->
<g id="node15" class="node">
<title>Node17</title>
<g id="a_node15"><a xlink:href="f__pc__delete__tag_8h.html" target="_top" xlink:title=" ">
<polygon fill="#fff0f0" stroke="red" points="2591.5,-24.5 2476.5,-24.5 2476.5,-5.5 2591.5,-5.5 2591.5,-24.5"/>
<text text-anchor="middle" x="2534" y="-12.5" font-family="Helvetica,sans-Serif" font-size="10.00">f_pc/f_pc_delete_tag.h</text>
</a>
</g>
</g>
<!-- Node16&#45;&gt;Node17 -->
<g id="edge17" class="edge">
<title>Node16&#45;&gt;Node17</title>
<path fill="none" stroke="#63b8ff" d="M2534,-71.1C2534,-62.12 2534,-47.95 2534,-36.22"/>
<polygon fill="#63b8ff" stroke="#63b8ff" points="2537.5,-36.34 2534,-26.34 2530.5,-36.34 2537.5,-36.34"/>
</g>
<!-- Node20 -->
<g id="node16" class="node">
<title>Node20</title>
<g id="a_node16"><a xlink:href="f__pc__layer__tag_8h.html" target="_top" xlink:title=" ">
<polygon fill="#fff0f0" stroke="red" points="2718.5,-24.5 2609.5,-24.5 2609.5,-5.5 2718.5,-5.5 2718.5,-24.5"/>
<text text-anchor="middle" x="2664" y="-12.5" font-family="Helvetica,sans-Serif" font-size="10.00">f_pc/f_pc_layer_tag.h</text>
</a>
</g>
</g>
<!-- Node16&#45;&gt;Node20 -->
<g id="edge18" class="edge">
<title>Node16&#45;&gt;Node20</title>
<path fill="none" stroke="#63b8ff" d="M2552.08,-71.1C2573.81,-60.4 2610.53,-42.33 2635.95,-29.81"/>
<polygon fill="#63b8ff" stroke="#63b8ff" points="2637.29,-33.05 2644.72,-25.49 2634.2,-26.77 2637.29,-33.05"/>
</g>
<!-- Node21 -->
<g id="node17" class="node">
<title>Node21</title>
<g id="a_node17"><a xlink:href="f__pc__line__tag_8h.html" target="_top" xlink:title=" ">
<polygon fill="#fff0f0" stroke="red" points="2841,-24.5 2737,-24.5 2737,-5.5 2841,-5.5 2841,-24.5"/>
<text text-anchor="middle" x="2789" y="-12.5" font-family="Helvetica,sans-Serif" font-size="10.00">f_pc/f_pc_line_tag.h</text>
</a>
</g>
</g>
<!-- Node16&#45;&gt;Node21 -->
<g id="edge19" class="edge">
<title>Node16&#45;&gt;Node21</title>
<path fill="none" stroke="#63b8ff" d="M2569.73,-71.03C2614.87,-59.7 2692.66,-40.18 2742.43,-27.69"/>
<polygon fill="#63b8ff" stroke="#63b8ff" points="2743.2,-31.1 2752.05,-25.27 2741.5,-24.31 2743.2,-31.1"/>
</g>
<!-- Node22 -->
<g id="node18" class="node">
<title>Node22</title>
<g id="a_node18"><a xlink:href="f__pc__priority_8h.html" target="_top" xlink:title=" ">
<polygon fill="#fff0f0" stroke="red" points="2458,-24.5 2360,-24.5 2360,-5.5 2458,-5.5 2458,-24.5"/>
<text text-anchor="middle" x="2409" y="-12.5" font-family="Helvetica,sans-Serif" font-size="10.00">f_pc/f_pc_priority.h</text>
</a>
</g>
</g>
<!-- Node16&#45;&gt;Node22 -->
<g id="edge20" class="edge">
<title>Node16&#45;&gt;Node22</title>
<path fill="none" stroke="#63b8ff" d="M2516.62,-71.1C2495.82,-60.45 2460.73,-42.49 2436.3,-29.98"/>
<polygon fill="#63b8ff" stroke="#63b8ff" points="2438.08,-26.96 2427.58,-25.51 2434.89,-33.19 2438.08,-26.96"/>
</g>
<!-- Node24&#45;&gt;Node8 -->
<g id="edge25" class="edge">
<title>Node24&#45;&gt;Node8</title>
<path fill="none" stroke="#63b8ff" d="M2186.96,-71.03C2179.22,-69.05 2170.85,-67.19 2163,-66 1959.4,-35.28 1315.21,-20.66 1126.46,-16.96"/>
<polygon fill="#63b8ff" stroke="#63b8ff" points="1126.53,-13.47 1116.46,-16.77 1126.39,-20.46 1126.53,-13.47"/>
</g>
<!-- Node25 -->
<g id="node20" class="node">
<title>Node25</title>
<g id="a_node20"><a xlink:href="c__list_8h.html" target="_top" xlink:title=" ">
<polygon fill="white" stroke="#666666" points="2074,-30 1958,-30 1958,0 2074,0 2074,-30"/>
<text text-anchor="start" x="1966" y="-18" font-family="Helvetica,sans-Serif" font-size="10.00">SSystem/SComponent</text>
<text text-anchor="middle" x="2016" y="-7" font-family="Helvetica,sans-Serif" font-size="10.00">/c_list.h</text>
</a>
</g>
</g>
<!-- Node24&#45;&gt;Node25 -->
<g id="edge22" class="edge">
<title>Node24&#45;&gt;Node25</title>
<path fill="none" stroke="#63b8ff" d="M2189.05,-71.1C2159.01,-61.54 2110.45,-46.07 2072.4,-33.96"/>
<polygon fill="#63b8ff" stroke="#63b8ff" points="2073.5,-30.64 2062.91,-30.94 2071.38,-37.31 2073.5,-30.64"/>
</g>
<!-- Node19 -->
<g id="node21" class="node">
<title>Node19</title>
<g id="a_node21"><a xlink:href="c__node_8h.html" target="_top" xlink:title=" ">
<polygon fill="white" stroke="#666666" points="2208,-30 2092,-30 2092,0 2208,0 2208,-30"/>
<text text-anchor="start" x="2100" y="-18" font-family="Helvetica,sans-Serif" font-size="10.00">SSystem/SComponent</text>
<text text-anchor="middle" x="2150" y="-7" font-family="Helvetica,sans-Serif" font-size="10.00">/c_node.h</text>
</a>
</g>
</g>
<!-- Node24&#45;&gt;Node19 -->
<g id="edge23" class="edge">
<title>Node24&#45;&gt;Node19</title>
<path fill="none" stroke="#63b8ff" d="M2207.68,-71.1C2198.83,-62.64 2185.15,-49.58 2173.33,-38.29"/>
<polygon fill="#63b8ff" stroke="#63b8ff" points="2175.9,-35.9 2166.25,-31.52 2171.06,-40.96 2175.9,-35.9"/>
</g>
<!-- Node26 -->
<g id="node22" class="node">
<title>Node26</title>
<g id="a_node22"><a xlink:href="c__tree_8h.html" target="_top" xlink:title=" ">
<polygon fill="white" stroke="#666666" points="2342,-30 2226,-30 2226,0 2342,0 2342,-30"/>
<text text-anchor="start" x="2234" y="-18" font-family="Helvetica,sans-Serif" font-size="10.00">SSystem/SComponent</text>
<text text-anchor="middle" x="2284" y="-7" font-family="Helvetica,sans-Serif" font-size="10.00">/c_tree.h</text>
</a>
</g>
</g>
<!-- Node24&#45;&gt;Node26 -->
<g id="edge24" class="edge">
<title>Node24&#45;&gt;Node26</title>
<path fill="none" stroke="#63b8ff" d="M2226.32,-71.1C2235.17,-62.64 2248.85,-49.58 2260.67,-38.29"/>
<polygon fill="#63b8ff" stroke="#63b8ff" points="2262.94,-40.96 2267.75,-31.52 2258.1,-35.9 2262.94,-40.96"/>
</g>
<!-- Node27&#45;&gt;Node8 -->
<g id="edge27" class="edge">
<title>Node27&#45;&gt;Node8</title>
<path fill="none" stroke="#63b8ff" d="M1955.24,-71.06C1946.73,-69.1 1937.57,-67.24 1929,-66 1627.24,-22.3 1260.32,-16.53 1126.24,-15.96"/>
<polygon fill="#63b8ff" stroke="#63b8ff" points="1126.27,-12.46 1116.26,-15.93 1126.25,-19.46 1126.27,-12.46"/>
</g>
<!-- Node28&#45;&gt;Node8 -->
<g id="edge29" class="edge">
<title>Node28&#45;&gt;Node8</title>
<path fill="none" stroke="#63b8ff" d="M2073.96,-71C2065.87,-69.04 2057.17,-67.2 2049,-66 1868.48,-39.45 1301.96,-22.19 1126.4,-17.38"/>
<polygon fill="#63b8ff" stroke="#63b8ff" points="1126.53,-13.88 1116.44,-17.1 1126.34,-20.88 1126.53,-13.88"/>
</g>
<!-- Node29&#45;&gt;Node10 -->
<g id="edge70" class="edge">
<title>Node29&#45;&gt;Node10</title>
<path fill="none" stroke="#63b8ff" d="M1195.72,-395.95C1211.37,-360.38 1272.75,-224.7 1310,-198 1378.08,-149.2 1414.77,-186.06 1495,-162 1496.16,-161.65 1497.34,-161.28 1498.52,-160.88"/>
<polygon fill="#63b8ff" stroke="#63b8ff" points="1499.52,-164.25 1507.68,-157.49 1497.09,-157.68 1499.52,-164.25"/>
</g>
<!-- Node30 -->
<g id="node26" class="node">
<title>Node30</title>
<g id="a_node26"><a xlink:href="J3DAnimation_8h.html" target="_top" xlink:title=" ">
<polygon fill="white" stroke="#666666" points="1262,-228 1122,-228 1122,-198 1262,-198 1262,-228"/>
<text text-anchor="start" x="1130" y="-216" font-family="Helvetica,sans-Serif" font-size="10.00">JSystem/J3DGraphAnimator</text>
<text text-anchor="middle" x="1192" y="-205" font-family="Helvetica,sans-Serif" font-size="10.00">/J3DAnimation.h</text>
</a>
</g>
</g>
<!-- Node29&#45;&gt;Node30 -->
<g id="edge31" class="edge">
<title>Node29&#45;&gt;Node30</title>
<path fill="none" stroke="#63b8ff" d="M1192,-395.57C1192,-367.92 1192,-283 1192,-239.81"/>
<polygon fill="#63b8ff" stroke="#63b8ff" points="1195.5,-239.85 1192,-229.85 1188.5,-239.85 1195.5,-239.85"/>
</g>
<!-- Node70 -->
<g id="node34" class="node">
<title>Node70</title>
<g id="a_node34"><a xlink:href="J3DModel_8h.html" target="_top" xlink:title=" ">
<polygon fill="white" stroke="#666666" points="548,-360 408,-360 408,-330 548,-330 548,-360"/>
<text text-anchor="start" x="416" y="-348" font-family="Helvetica,sans-Serif" font-size="10.00">JSystem/J3DGraphAnimator</text>
<text text-anchor="middle" x="478" y="-337" font-family="Helvetica,sans-Serif" font-size="10.00">/J3DModel.h</text>
</a>
</g>
</g>
<!-- Node29&#45;&gt;Node70 -->
<g id="edge46" class="edge">
<title>Node29&#45;&gt;Node70</title>
<path fill="none" stroke="#63b8ff" d="M1143.76,-400.55C1023.55,-390.7 709.53,-364.97 559.76,-352.7"/>
<polygon fill="#63b8ff" stroke="#63b8ff" points="560.16,-349.22 549.9,-351.89 559.58,-356.2 560.16,-349.22"/>
</g>
<!-- Node76 -->
<g id="node42" class="node">
<title>Node76</title>
<g id="a_node42"><a xlink:href="Z2SoundObject_8h.html" target="_top" xlink:title=" ">
<polygon fill="white" stroke="#666666" points="1026,-156.5 882,-156.5 882,-137.5 1026,-137.5 1026,-156.5"/>
<text text-anchor="middle" x="954" y="-144.5" font-family="Helvetica,sans-Serif" font-size="10.00">Z2AudioLib/Z2SoundObject.h</text>
</a>
</g>
</g>
<!-- Node29&#45;&gt;Node76 -->
<g id="edge64" class="edge">
<title>Node29&#45;&gt;Node76</title>
<path fill="none" stroke="#63b8ff" d="M1179.02,-395.53C1145.19,-371.64 1053.02,-303.14 996,-228 981.52,-208.91 969.36,-184.12 961.92,-167.23"/>
<polygon fill="#63b8ff" stroke="#63b8ff" points="965.28,-166.18 958.14,-158.35 958.84,-168.93 965.28,-166.18"/>
</g>
<!-- Node106 -->
<g id="node45" class="node">
<title>Node106</title>
<g id="a_node45"><a xlink:href="m__Do__audio_8h.html" target="_top" xlink:title=" ">
<polygon fill="white" stroke="#666666" points="1438.5,-288.5 1331.5,-288.5 1331.5,-269.5 1438.5,-269.5 1438.5,-288.5"/>
<text text-anchor="middle" x="1385" y="-276.5" font-family="Helvetica,sans-Serif" font-size="10.00">m_Do/m_Do_audio.h</text>
</a>
</g>
</g>
<!-- Node29&#45;&gt;Node106 -->
<g id="edge71" class="edge">
<title>Node29&#45;&gt;Node106</title>
<path fill="none" stroke="#63b8ff" d="M1224.05,-395.55C1247.39,-388.16 1279.13,-376.25 1304,-360 1330.67,-342.58 1355.86,-315.39 1370.86,-297.63"/>
<polygon fill="#63b8ff" stroke="#63b8ff" points="1373.47,-299.97 1377.14,-290.03 1368.07,-295.52 1373.47,-299.97"/>
</g>
<!-- Node147 -->
<g id="node48" class="node">
<title>Node147</title>
<g id="a_node48"><a xlink:href="m__Do__mtx_8h.html" target="_top" xlink:title=" ">
<polygon fill="white" stroke="#666666" points="1103.5,-222.5 1004.5,-222.5 1004.5,-203.5 1103.5,-203.5 1103.5,-222.5"/>
<text text-anchor="middle" x="1054" y="-210.5" font-family="Helvetica,sans-Serif" font-size="10.00">m_Do/m_Do_mtx.h</text>
</a>
</g>
</g>
<!-- Node29&#45;&gt;Node147 -->
<g id="edge77" class="edge">
<title>Node29&#45;&gt;Node147</title>
<path fill="none" stroke="#63b8ff" d="M1185.53,-395.57C1164.2,-366.13 1095.84,-271.76 1067.02,-231.97"/>
<polygon fill="#63b8ff" stroke="#63b8ff" points="1069.89,-229.96 1061.19,-223.92 1064.22,-234.07 1069.89,-229.96"/>
</g>
<!-- Node30&#45;&gt;Node10 -->
<g id="edge45" class="edge">
<title>Node30&#45;&gt;Node10</title>
<path fill="none" stroke="#63b8ff" d="M1262.12,-200.3C1266.82,-199.52 1271.48,-198.75 1276,-198 1373.32,-181.89 1400.11,-188.95 1495,-162 1496.35,-161.62 1497.71,-161.2 1499.08,-160.75"/>
<polygon fill="#63b8ff" stroke="#63b8ff" points="1499.9,-164.18 1508.07,-157.44 1497.48,-157.61 1499.9,-164.18"/>
</g>
<!-- Node31 -->
<g id="node27" class="node">
<title>Node31</title>
<g id="a_node27"><a xlink:href="J3DModelData_8h.html" target="_top" xlink:title=" ">
<polygon fill="white" stroke="#666666" points="582,-162 442,-162 442,-132 582,-132 582,-162"/>
<text text-anchor="start" x="450" y="-150" font-family="Helvetica,sans-Serif" font-size="10.00">JSystem/J3DGraphAnimator</text>
<text text-anchor="middle" x="512" y="-139" font-family="Helvetica,sans-Serif" font-size="10.00">/J3DModelData.h</text>
</a>
</g>
</g>
<!-- Node30&#45;&gt;Node31 -->
<g id="edge32" class="edge">
<title>Node30&#45;&gt;Node31</title>
<path fill="none" stroke="#63b8ff" d="M1121.85,-199.17C1118.86,-198.75 1115.9,-198.36 1113,-198 888.37,-170.21 829.97,-186.87 605,-162 601.19,-161.58 597.3,-161.12 593.38,-160.63"/>
<polygon fill="#63b8ff" stroke="#63b8ff" points="594.12,-157.2 583.75,-159.37 593.22,-164.14 594.12,-157.2"/>
</g>
<!-- Node69 -->
<g id="node33" class="node">
<title>Node69</title>
<g id="a_node33"><a xlink:href="JUTNameTab_8h.html" target="_top" xlink:title=" ">
<polygon fill="white" stroke="#666666" points="1486,-162 1350,-162 1350,-132 1486,-132 1486,-162"/>
<text text-anchor="start" x="1358" y="-150" font-family="Helvetica,sans-Serif" font-size="10.00">JSystem/JUtility/JUTName</text>
<text text-anchor="middle" x="1418" y="-139" font-family="Helvetica,sans-Serif" font-size="10.00">Tab.h</text>
</a>
</g>
</g>
<!-- Node30&#45;&gt;Node69 -->
<g id="edge43" class="edge">
<title>Node30&#45;&gt;Node69</title>
<path fill="none" stroke="#63b8ff" d="M1243,-197.56C1276.63,-188.04 1320.86,-175.51 1356.44,-165.43"/>
<polygon fill="#63b8ff" stroke="#63b8ff" points="1357.06,-168.89 1365.73,-162.8 1355.15,-162.16 1357.06,-168.89"/>
</g>
<!-- Node32 -->
<g id="node28" class="node">
<title>Node32</title>
<g id="a_node28"><a xlink:href="J3DJointTree_8h.html" target="_top" xlink:title=" ">
<polygon fill="#fff0f0" stroke="red" points="740,-96 600,-96 600,-66 740,-66 740,-96"/>
<text text-anchor="start" x="608" y="-84" font-family="Helvetica,sans-Serif" font-size="10.00">JSystem/J3DGraphAnimator</text>
<text text-anchor="middle" x="670" y="-73" font-family="Helvetica,sans-Serif" font-size="10.00">/J3DJointTree.h</text>
</a>
</g>
</g>
<!-- Node31&#45;&gt;Node32 -->
<g id="edge33" class="edge">
<title>Node31&#45;&gt;Node32</title>
<path fill="none" stroke="#63b8ff" d="M547.46,-131.64C570.05,-122.49 599.54,-110.54 623.93,-100.66"/>
<polygon fill="#63b8ff" stroke="#63b8ff" points="625.03,-103.99 632.98,-96.99 622.4,-97.5 625.03,-103.99"/>
</g>
<!-- Node45 -->
<g id="node29" class="node">
<title>Node45</title>
<g id="a_node29"><a xlink:href="J3DMaterialAttach_8h.html" target="_top" xlink:title=" ">
<polygon fill="white" stroke="#666666" points="424,-96 284,-96 284,-66 424,-66 424,-96"/>
<text text-anchor="start" x="292" y="-84" font-family="Helvetica,sans-Serif" font-size="10.00">JSystem/J3DGraphAnimator</text>
<text text-anchor="middle" x="354" y="-73" font-family="Helvetica,sans-Serif" font-size="10.00">/J3DMaterialAttach.h</text>
</a>
</g>
</g>
<!-- Node31&#45;&gt;Node45 -->
<g id="edge35" class="edge">
<title>Node31&#45;&gt;Node45</title>
<path fill="none" stroke="#63b8ff" d="M476.54,-131.64C453.95,-122.49 424.46,-110.54 400.07,-100.66"/>
<polygon fill="#63b8ff" stroke="#63b8ff" points="401.6,-97.5 391.02,-96.99 398.97,-103.99 401.6,-97.5"/>
</g>
<!-- Node46 -->
<g id="node30" class="node">
<title>Node46</title>
<g id="a_node30"><a xlink:href="J3DShapeTable_8h.html" target="_top" xlink:title=" ">
<polygon fill="#fff0f0" stroke="red" points="582,-96 442,-96 442,-66 582,-66 582,-96"/>
<text text-anchor="start" x="450" y="-84" font-family="Helvetica,sans-Serif" font-size="10.00">JSystem/J3DGraphAnimator</text>
<text text-anchor="middle" x="512" y="-73" font-family="Helvetica,sans-Serif" font-size="10.00">/J3DShapeTable.h</text>
</a>
</g>
</g>
<!-- Node31&#45;&gt;Node46 -->
<g id="edge37" class="edge">
<title>Node31&#45;&gt;Node46</title>
<path fill="none" stroke="#63b8ff" d="M512,-131.8C512,-124.67 512,-115.82 512,-107.56"/>
<polygon fill="#63b8ff" stroke="#63b8ff" points="515.5,-107.68 512,-97.68 508.5,-107.68 515.5,-107.68"/>
</g>
<!-- Node67 -->
<g id="node31" class="node">
<title>Node67</title>
<g id="a_node31"><a xlink:href="J3DSys_8h.html" target="_top" xlink:title=" ">
<polygon fill="#fff0f0" stroke="red" points="882,-96 758,-96 758,-66 882,-66 882,-96"/>
<text text-anchor="start" x="766" y="-84" font-family="Helvetica,sans-Serif" font-size="10.00">JSystem/J3DGraphBase</text>
<text text-anchor="middle" x="820" y="-73" font-family="Helvetica,sans-Serif" font-size="10.00">/J3DSys.h</text>
</a>
</g>
</g>
<!-- Node31&#45;&gt;Node67 -->
<g id="edge39" class="edge">
<title>Node31&#45;&gt;Node67</title>
<path fill="none" stroke="#63b8ff" d="M581.51,-131.56C630.66,-121.34 696.45,-107.67 746.48,-97.28"/>
<polygon fill="#63b8ff" stroke="#63b8ff" points="746.98,-100.75 756.06,-95.29 745.56,-93.89 746.98,-100.75"/>
</g>
<!-- Node68 -->
<g id="node32" class="node">
<title>Node68</title>
<g id="a_node32"><a xlink:href="J3DVertex_8h.html" target="_top" xlink:title=" ">
<polygon fill="#fff0f0" stroke="red" points="266,-96 142,-96 142,-66 266,-66 266,-96"/>
<text text-anchor="start" x="150" y="-84" font-family="Helvetica,sans-Serif" font-size="10.00">JSystem/J3DGraphBase</text>
<text text-anchor="middle" x="204" y="-73" font-family="Helvetica,sans-Serif" font-size="10.00">/J3DVertex.h</text>
</a>
</g>
</g>
<!-- Node31&#45;&gt;Node68 -->
<g id="edge41" class="edge">
<title>Node31&#45;&gt;Node68</title>
<path fill="none" stroke="#63b8ff" d="M442.49,-131.56C393.34,-121.34 327.55,-107.67 277.52,-97.28"/>
<polygon fill="#63b8ff" stroke="#63b8ff" points="278.44,-93.89 267.94,-95.29 277.02,-100.75 278.44,-93.89"/>
</g>
<!-- Node32&#45;&gt;Node8 -->
<g id="edge34" class="edge">
<title>Node32&#45;&gt;Node8</title>
<path fill="none" stroke="#63b8ff" d="M740.2,-67.47C743.17,-66.97 746.11,-66.48 749,-66 845.3,-50.06 957.94,-33.11 1022.14,-23.61"/>
<polygon fill="#63b8ff" stroke="#63b8ff" points="1022.29,-27.12 1031.67,-22.2 1021.26,-20.2 1022.29,-27.12"/>
</g>
<!-- Node45&#45;&gt;Node8 -->
<g id="edge36" class="edge">
<title>Node45&#45;&gt;Node8</title>
<path fill="none" stroke="#63b8ff" d="M424.16,-67.2C427.14,-66.77 430.1,-66.37 433,-66 650.95,-38.26 912.68,-23.62 1022.03,-18.33"/>
<polygon fill="#63b8ff" stroke="#63b8ff" points="1022.03,-21.84 1031.85,-17.86 1021.69,-14.84 1022.03,-21.84"/>
</g>
<!-- Node46&#45;&gt;Node8 -->
<g id="edge38" class="edge">
<title>Node46&#45;&gt;Node8</title>
<path fill="none" stroke="#63b8ff" d="M582.17,-67.29C585.15,-66.84 588.1,-66.41 591,-66 747.2,-44.1 933.08,-27.51 1021.82,-20.16"/>
<polygon fill="#63b8ff" stroke="#63b8ff" points="1021.98,-23.66 1031.66,-19.35 1021.41,-16.68 1021.98,-23.66"/>
</g>
<!-- Node67&#45;&gt;Node8 -->
<g id="edge40" class="edge">
<title>Node67&#45;&gt;Node8</title>
<path fill="none" stroke="#63b8ff" d="M877.32,-65.56C922.62,-54.14 985.06,-38.41 1027.34,-27.76"/>
<polygon fill="#63b8ff" stroke="#63b8ff" points="1028.12,-31.17 1036.96,-25.33 1026.41,-24.38 1028.12,-31.17"/>
</g>
<!-- Node68&#45;&gt;Node8 -->
<g id="edge42" class="edge">
<title>Node68&#45;&gt;Node8</title>
<path fill="none" stroke="#63b8ff" d="M266.26,-67.24C269.21,-66.79 272.13,-66.37 275,-66 555.03,-29.79 893.8,-19.56 1021.72,-16.88"/>
<polygon fill="#63b8ff" stroke="#63b8ff" points="1021.63,-20.39 1031.56,-16.68 1021.49,-13.39 1021.63,-20.39"/>
</g>
<!-- Node69&#45;&gt;Node8 -->
<g id="edge44" class="edge">
<title>Node69&#45;&gt;Node8</title>
<path fill="none" stroke="#63b8ff" d="M1434.41,-131.7C1452.06,-114.6 1475.42,-85.83 1458,-66 1436.42,-41.43 1225.87,-25.33 1126.03,-19.01"/>
<polygon fill="#63b8ff" stroke="#63b8ff" points="1126.42,-15.53 1116.22,-18.4 1125.98,-22.52 1126.42,-15.53"/>
</g>
<!-- Node70&#45;&gt;Node8 -->
<g id="edge63" class="edge">
<title>Node70&#45;&gt;Node8</title>
<path fill="none" stroke="#63b8ff" d="M407.73,-339.52C274.86,-329.1 0,-297.47 0,-214 0,-214 0,-214 0,-146 0,-100.74 22.79,-86.76 63,-66 148.46,-21.88 826.99,-16.65 1021.85,-16.07"/>
<polygon fill="#63b8ff" stroke="#63b8ff" points="1021.67,-19.57 1031.66,-16.04 1021.65,-12.57 1021.67,-19.57"/>
</g>
<!-- Node70&#45;&gt;Node68 -->
<g id="edge61" class="edge">
<title>Node70&#45;&gt;Node68</title>
<path fill="none" stroke="#63b8ff" d="M471.75,-329.69C459.03,-301.77 427.82,-239.13 387,-198 345.16,-155.84 285.32,-121.56 245.6,-101.48"/>
<polygon fill="#63b8ff" stroke="#63b8ff" points="247.33,-98.43 236.81,-97.11 244.21,-104.7 247.33,-98.43"/>
</g>
<!-- Node71 -->
<g id="node35" class="node">
<title>Node71</title>
<g id="a_node35"><a xlink:href="J3DSkinDeform_8h.html" target="_top" xlink:title=" ">
<polygon fill="white" stroke="#666666" points="378,-294 238,-294 238,-264 378,-264 378,-294"/>
<text text-anchor="start" x="246" y="-282" font-family="Helvetica,sans-Serif" font-size="10.00">JSystem/J3DGraphAnimator</text>
<text text-anchor="middle" x="308" y="-271" font-family="Helvetica,sans-Serif" font-size="10.00">/J3DSkinDeform.h</text>
</a>
</g>
</g>
<!-- Node70&#45;&gt;Node71 -->
<g id="edge47" class="edge">
<title>Node70&#45;&gt;Node71</title>
<path fill="none" stroke="#63b8ff" d="M439.85,-329.64C415.33,-320.41 383.24,-308.33 356.86,-298.39"/>
<polygon fill="#63b8ff" stroke="#63b8ff" points="358.33,-295.21 347.73,-294.96 355.86,-301.76 358.33,-295.21"/>
</g>
<!-- Node41 -->
<g id="node39" class="node">
<title>Node41</title>
<g id="a_node39"><a xlink:href="mtxvec_8h.html" target="_top" xlink:title=" ">
<polygon fill="#fff0f0" stroke="red" points="864,-156.5 756,-156.5 756,-137.5 864,-137.5 864,-156.5"/>
<text text-anchor="middle" x="810" y="-144.5" font-family="Helvetica,sans-Serif" font-size="10.00">dolphin/mtx/mtxvec.h</text>
</a>
</g>
</g>
<!-- Node70&#45;&gt;Node41 -->
<g id="edge62" class="edge">
<title>Node70&#45;&gt;Node41</title>
<path fill="none" stroke="#63b8ff" d="M530.05,-329.56C586.86,-312.03 678.57,-278.41 745,-228 767.65,-210.81 787.23,-184.13 798.82,-166.37"/>
<polygon fill="#63b8ff" stroke="#63b8ff" points="801.64,-168.46 804.02,-158.14 795.72,-164.73 801.64,-168.46"/>
</g>
<!-- Node74 -->
<g id="node40" class="node">
<title>Node74</title>
<g id="a_node40"><a xlink:href="J3DPacket_8h.html" target="_top" xlink:title=" ">
<polygon fill="white" stroke="#666666" points="738,-162 614,-162 614,-132 738,-132 738,-162"/>
<text text-anchor="start" x="622" y="-150" font-family="Helvetica,sans-Serif" font-size="10.00">JSystem/J3DGraphBase</text>
<text text-anchor="middle" x="676" y="-139" font-family="Helvetica,sans-Serif" font-size="10.00">/J3DPacket.h</text>
</a>
</g>
</g>
<!-- Node70&#45;&gt;Node74 -->
<g id="edge56" class="edge">
<title>Node70&#45;&gt;Node74</title>
<path fill="none" stroke="#63b8ff" d="M488.28,-329.64C508.37,-302.16 555.08,-241.03 603,-198 615.02,-187.2 629.49,-176.84 642.36,-168.37"/>
<polygon fill="#63b8ff" stroke="#63b8ff" points="644.03,-171.46 650.56,-163.11 640.25,-165.57 644.03,-171.46"/>
</g>
<!-- Node71&#45;&gt;Node8 -->
<g id="edge55" class="edge">
<title>Node71&#45;&gt;Node8</title>
<path fill="none" stroke="#63b8ff" d="M237.69,-273.54C172.43,-267.76 82.12,-255.02 60,-228 25.37,-185.69 -4.13,-147.26 99,-66 135.49,-37.25 824.77,-21.07 1021.8,-17.02"/>
<polygon fill="#63b8ff" stroke="#63b8ff" points="1021.81,-20.52 1031.74,-16.81 1021.67,-13.52 1021.81,-20.52"/>
</g>
<!-- Node72 -->
<g id="node36" class="node">
<title>Node72</title>
<g id="a_node36"><a xlink:href="J3DCluster_8h.html" target="_top" xlink:title=" ">
<polygon fill="white" stroke="#666666" points="209,-228 69,-228 69,-198 209,-198 209,-228"/>
<text text-anchor="start" x="77" y="-216" font-family="Helvetica,sans-Serif" font-size="10.00">JSystem/J3DGraphAnimator</text>
<text text-anchor="middle" x="139" y="-205" font-family="Helvetica,sans-Serif" font-size="10.00">/J3DCluster.h</text>
</a>
</g>
</g>
<!-- Node71&#45;&gt;Node72 -->
<g id="edge48" class="edge">
<title>Node71&#45;&gt;Node72</title>
<path fill="none" stroke="#63b8ff" d="M270.07,-263.64C245.7,-254.41 213.8,-242.33 187.57,-232.39"/>
<polygon fill="#63b8ff" stroke="#63b8ff" points="189.1,-229.23 178.51,-228.96 186.62,-235.78 189.1,-229.23"/>
</g>
<!-- Node73 -->
<g id="node37" class="node">
<title>Node73</title>
<g id="a_node37"><a xlink:href="J3DMtxBuffer_8h.html" target="_top" xlink:title=" ">
<polygon fill="white" stroke="#666666" points="378,-228 238,-228 238,-198 378,-198 378,-228"/>
<text text-anchor="start" x="246" y="-216" font-family="Helvetica,sans-Serif" font-size="10.00">JSystem/J3DGraphAnimator</text>
<text text-anchor="middle" x="308" y="-205" font-family="Helvetica,sans-Serif" font-size="10.00">/J3DMtxBuffer.h</text>
</a>
</g>
</g>
<!-- Node71&#45;&gt;Node73 -->
<g id="edge50" class="edge">
<title>Node71&#45;&gt;Node73</title>
<path fill="none" stroke="#63b8ff" d="M308,-263.8C308,-256.67 308,-247.82 308,-239.56"/>
<polygon fill="#63b8ff" stroke="#63b8ff" points="311.5,-239.68 308,-229.68 304.5,-239.68 311.5,-239.68"/>
</g>
<!-- Node34 -->
<g id="node38" class="node">
<title>Node34</title>
<g id="a_node38"><a xlink:href="J3DTransform_8h.html" target="_top" xlink:title=" ">
<polygon fill="#fff0f0" stroke="red" points="736,-228 612,-228 612,-198 736,-198 736,-228"/>
<text text-anchor="start" x="620" y="-216" font-family="Helvetica,sans-Serif" font-size="10.00">JSystem/J3DGraphBase</text>
<text text-anchor="middle" x="674" y="-205" font-family="Helvetica,sans-Serif" font-size="10.00">/J3DTransform.h</text>
</a>
</g>
</g>
<!-- Node71&#45;&gt;Node34 -->
<g id="edge53" class="edge">
<title>Node71&#45;&gt;Node34</title>
<path fill="none" stroke="#63b8ff" d="M378.14,-265.74C442,-254.57 535.96,-238.14 600.78,-226.8"/>
<polygon fill="#63b8ff" stroke="#63b8ff" points="600.98,-230.32 610.23,-225.15 599.78,-223.43 600.98,-230.32"/>
</g>
<!-- Node72&#45;&gt;Node8 -->
<g id="edge49" class="edge">
<title>Node72&#45;&gt;Node8</title>
<path fill="none" stroke="#63b8ff" d="M130.24,-197.7C113.68,-168.66 82.41,-102.44 117,-66 148.36,-32.96 826.58,-19.86 1021.84,-16.76"/>
<polygon fill="#63b8ff" stroke="#63b8ff" points="1021.73,-20.26 1031.68,-16.61 1021.62,-13.26 1021.73,-20.26"/>
</g>
<!-- Node73&#45;&gt;Node8 -->
<g id="edge52" class="edge">
<title>Node73&#45;&gt;Node8</title>
<path fill="none" stroke="#63b8ff" d="M265.62,-197.6C198.93,-172.85 82.09,-119.69 133,-66 163.77,-33.55 828.56,-20.06 1021.78,-16.81"/>
<polygon fill="#63b8ff" stroke="#63b8ff" points="1021.83,-20.31 1031.77,-16.64 1021.71,-13.31 1021.83,-20.31"/>
</g>
<!-- Node73&#45;&gt;Node31 -->
<g id="edge51" class="edge">
<title>Node73&#45;&gt;Node31</title>
<path fill="none" stroke="#63b8ff" d="M354.04,-197.56C384,-188.16 423.28,-175.83 455.18,-165.82"/>
<polygon fill="#63b8ff" stroke="#63b8ff" points="456.19,-169.18 464.69,-162.84 454.1,-162.5 456.19,-169.18"/>
</g>
<!-- Node34&#45;&gt;Node41 -->
<g id="edge54" class="edge">
<title>Node34&#45;&gt;Node41</title>
<path fill="none" stroke="#63b8ff" d="M704.52,-197.64C727.27,-186.93 758.16,-172.4 780.62,-161.82"/>
<polygon fill="#63b8ff" stroke="#63b8ff" points="781.98,-165.06 789.54,-157.63 779,-158.72 781.98,-165.06"/>
</g>
<!-- Node74&#45;&gt;Node8 -->
<g id="edge60" class="edge">
<title>Node74&#45;&gt;Node8</title>
<path fill="none" stroke="#63b8ff" d="M738.47,-132.92C796.91,-120.46 877.21,-102.64 891,-96 910.39,-86.67 910.12,-76.32 929,-66 959.87,-49.13 997.5,-36.35 1026.69,-27.94"/>
<polygon fill="#63b8ff" stroke="#63b8ff" points="1027.29,-31.41 1035.97,-25.34 1025.4,-24.67 1027.29,-31.41"/>
</g>
<!-- Node74&#45;&gt;Node67 -->
<g id="edge57" class="edge">
<title>Node74&#45;&gt;Node67</title>
<path fill="none" stroke="#63b8ff" d="M708.32,-131.64C728.7,-122.58 755.25,-110.78 777.35,-100.96"/>
<polygon fill="#63b8ff" stroke="#63b8ff" points="778.69,-104.19 786.41,-96.93 775.85,-97.79 778.69,-104.19"/>
</g>
<!-- Node75 -->
<g id="node41" class="node">
<title>Node75</title>
<g id="a_node41"><a xlink:href="GDBase_8h.html" target="_top" xlink:title=" ">
<polygon fill="white" stroke="#666666" points="1046,-90.5 938,-90.5 938,-71.5 1046,-71.5 1046,-90.5"/>
<text text-anchor="middle" x="992" y="-78.5" font-family="Helvetica,sans-Serif" font-size="10.00">dolphin/gd/GDBase.h</text>
</a>
</g>
</g>
<!-- Node74&#45;&gt;Node75 -->
<g id="edge58" class="edge">
<title>Node74&#45;&gt;Node75</title>
<path fill="none" stroke="#63b8ff" d="M738.44,-133.48C788.6,-123.41 860.84,-108.87 924,-96 928.33,-95.12 932.81,-94.2 937.31,-93.28"/>
<polygon fill="#63b8ff" stroke="#63b8ff" points="937.9,-96.73 946.99,-91.29 936.49,-89.87 937.9,-96.73"/>
</g>
<!-- Node75&#45;&gt;Node8 -->
<g id="edge59" class="edge">
<title>Node75&#45;&gt;Node8</title>
<path fill="none" stroke="#63b8ff" d="M1003.4,-71.1C1016.38,-60.98 1037.82,-44.24 1053.67,-31.87"/>
<polygon fill="#63b8ff" stroke="#63b8ff" points="1055.77,-34.67 1061.5,-25.75 1051.47,-29.15 1055.77,-34.67"/>
</g>
<!-- Node76&#45;&gt;Node8 -->
<g id="edge69" class="edge">
<title>Node76&#45;&gt;Node8</title>
<path fill="none" stroke="#63b8ff" d="M988.85,-137.07C1010.96,-129.63 1038.43,-116.82 1055,-96 1068.52,-79 1072.68,-53.95 1073.83,-36.42"/>
<polygon fill="#63b8ff" stroke="#63b8ff" points="1077.33,-36.61 1074.18,-26.49 1070.33,-36.36 1077.33,-36.61"/>
</g>
<!-- Node77 -->
<g id="node43" class="node">
<title>Node77</title>
<g id="a_node43"><a xlink:href="Z2SoundHandles_8h.html" target="_top" xlink:title=" ">
<polygon fill="#fff0f0" stroke="red" points="1254,-90.5 1102,-90.5 1102,-71.5 1254,-71.5 1254,-90.5"/>
<text text-anchor="middle" x="1178" y="-78.5" font-family="Helvetica,sans-Serif" font-size="10.00">Z2AudioLib/Z2SoundHandles.h</text>
</a>
</g>
</g>
<!-- Node76&#45;&gt;Node77 -->
<g id="edge65" class="edge">
<title>Node76&#45;&gt;Node77</title>
<path fill="none" stroke="#63b8ff" d="M985.15,-137.1C1024.4,-125.88 1092.04,-106.56 1135.88,-94.03"/>
<polygon fill="#63b8ff" stroke="#63b8ff" points="1136.65,-97.45 1145.3,-91.34 1134.73,-90.72 1136.65,-97.45"/>
</g>
<!-- Node105 -->
<g id="node44" class="node">
<title>Node105</title>
<g id="a_node44"><a xlink:href="JAUSoundAnimator_8h.html" target="_top" xlink:title=" ">
<polygon fill="#fff0f0" stroke="red" points="1415.5,-96 1272.5,-96 1272.5,-66 1415.5,-66 1415.5,-96"/>
<text text-anchor="start" x="1280.5" y="-84" font-family="Helvetica,sans-Serif" font-size="10.00">JSystem/JAudio2/JAUSound</text>
<text text-anchor="middle" x="1344" y="-73" font-family="Helvetica,sans-Serif" font-size="10.00">Animator.h</text>
</a>
</g>
</g>
<!-- Node76&#45;&gt;Node105 -->
<g id="edge67" class="edge">
<title>Node76&#45;&gt;Node105</title>
<path fill="none" stroke="#63b8ff" d="M1009.05,-137.03C1019.34,-135.35 1030,-133.62 1040,-132 1135.62,-116.5 1162.14,-112.8 1260.93,-96.34"/>
<polygon fill="#63b8ff" stroke="#63b8ff" points="1261.24,-99.83 1270.53,-94.73 1260.09,-92.93 1261.24,-99.83"/>
</g>
<!-- Node77&#45;&gt;Node8 -->
<g id="edge66" class="edge">
<title>Node77&#45;&gt;Node8</title>
<path fill="none" stroke="#63b8ff" d="M1163.54,-71.1C1146.62,-60.69 1118.34,-43.29 1098.09,-30.83"/>
<polygon fill="#63b8ff" stroke="#63b8ff" points="1099.98,-27.88 1089.63,-25.62 1096.31,-33.84 1099.98,-27.88"/>
</g>
<!-- Node105&#45;&gt;Node8 -->
<g id="edge68" class="edge">
<title>Node105&#45;&gt;Node8</title>
<path fill="none" stroke="#63b8ff" d="M1283.07,-65.56C1234.61,-54.07 1167.7,-38.21 1122.74,-27.55"/>
<polygon fill="#63b8ff" stroke="#63b8ff" points="1123.82,-24.21 1113.28,-25.31 1122.21,-31.02 1123.82,-24.21"/>
</g>
<!-- Node107 -->
<g id="node46" class="node">
<title>Node107</title>
<g id="a_node46"><a xlink:href="Z2AudioMgr_8h.html" target="_top" xlink:title=" ">
<polygon fill="#fff0f0" stroke="red" points="1598.5,-222.5 1469.5,-222.5 1469.5,-203.5 1598.5,-203.5 1598.5,-222.5"/>
<text text-anchor="middle" x="1534" y="-210.5" font-family="Helvetica,sans-Serif" font-size="10.00">Z2AudioLib/Z2AudioMgr.h</text>
</a>
</g>
</g>
<!-- Node106&#45;&gt;Node107 -->
<g id="edge72" class="edge">
<title>Node106&#45;&gt;Node107</title>
<path fill="none" stroke="#63b8ff" d="M1405.72,-269.1C1430.96,-258.26 1473.84,-239.84 1503.01,-227.31"/>
<polygon fill="#63b8ff" stroke="#63b8ff" points="1504.26,-230.58 1512.07,-223.42 1501.5,-224.15 1504.26,-230.58"/>
</g>
<!-- Node145 -->
<g id="node47" class="node">
<title>Node145</title>
<g id="a_node47"><a xlink:href="Z2EnvSeMgr_8h.html" target="_top" xlink:title=" ">
<polygon fill="#fff0f0" stroke="red" points="1451.5,-222.5 1318.5,-222.5 1318.5,-203.5 1451.5,-203.5 1451.5,-222.5"/>
<text text-anchor="middle" x="1385" y="-210.5" font-family="Helvetica,sans-Serif" font-size="10.00">Z2AudioLib/Z2EnvSeMgr.h</text>
</a>
</g>
</g>
<!-- Node106&#45;&gt;Node145 -->
<g id="edge75" class="edge">
<title>Node106&#45;&gt;Node145</title>
<path fill="none" stroke="#63b8ff" d="M1385,-269.1C1385,-260.12 1385,-245.95 1385,-234.22"/>
<polygon fill="#63b8ff" stroke="#63b8ff" points="1388.5,-234.34 1385,-224.34 1381.5,-234.34 1388.5,-234.34"/>
</g>
<!-- Node107&#45;&gt;Node8 -->
<g id="edge73" class="edge">
<title>Node107&#45;&gt;Node8</title>
<path fill="none" stroke="#63b8ff" d="M1541.54,-203.08C1553.11,-188.25 1572.91,-157.63 1563,-132 1548.7,-95.02 1538.26,-84.11 1503,-66 1438.36,-32.8 1225.68,-21.21 1126.18,-17.54"/>
<polygon fill="#63b8ff" stroke="#63b8ff" points="1126.54,-14.05 1116.43,-17.19 1126.3,-21.05 1126.54,-14.05"/>
</g>
<!-- Node107&#45;&gt;Node10 -->
<g id="edge74" class="edge">
<title>Node107&#45;&gt;Node10</title>
<path fill="none" stroke="#63b8ff" d="M1533.3,-203.1C1532.6,-194.12 1531.5,-179.95 1530.58,-168.22"/>
<polygon fill="#63b8ff" stroke="#63b8ff" points="1534.08,-168.03 1529.81,-158.33 1527.1,-168.57 1534.08,-168.03"/>
</g>
<!-- Node145&#45;&gt;Node10 -->
<g id="edge76" class="edge">
<title>Node145&#45;&gt;Node10</title>
<path fill="none" stroke="#63b8ff" d="M1405.02,-203.1C1429.31,-192.31 1470.49,-174 1498.68,-161.48"/>
<polygon fill="#63b8ff" stroke="#63b8ff" points="1500.05,-164.7 1507.76,-157.44 1497.2,-158.3 1500.05,-164.7"/>
</g>
<!-- Node147&#45;&gt;Node8 -->
<g id="edge81" class="edge">
<title>Node147&#45;&gt;Node8</title>
<path fill="none" stroke="#63b8ff" d="M1053.12,-203.15C1052,-186.41 1052.28,-150.16 1073,-132 1132.13,-80.17 1372.3,-154.36 1425,-96 1433.94,-86.1 1433.74,-76.07 1425,-66 1386.93,-22.12 1214.14,-15.76 1126.02,-15.45"/>
<polygon fill="#63b8ff" stroke="#63b8ff" points="1126.2,-11.95 1116.2,-15.45 1126.2,-18.95 1126.2,-11.95"/>
</g>
<!-- Node147&#45;&gt;Node41 -->
<g id="edge80" class="edge">
<title>Node147&#45;&gt;Node41</title>
<path fill="none" stroke="#63b8ff" d="M1019.82,-203.03C976.71,-191.73 902.49,-172.26 854.87,-159.77"/>
<polygon fill="#63b8ff" stroke="#63b8ff" points="855.98,-156.44 845.42,-157.29 854.2,-163.21 855.98,-156.44"/>
</g>
<!-- Node148 -->
<g id="node49" class="node">
<title>Node148</title>
<g id="a_node49"><a xlink:href="c__sxyz_8h.html" target="_top" xlink:title=" ">
<polygon fill="#fff0f0" stroke="red" points="1332,-162 1216,-162 1216,-132 1332,-132 1332,-162"/>
<text text-anchor="start" x="1224" y="-150" font-family="Helvetica,sans-Serif" font-size="10.00">SSystem/SComponent</text>
<text text-anchor="middle" x="1274" y="-139" font-family="Helvetica,sans-Serif" font-size="10.00">/c_sxyz.h</text>
</a>
</g>
</g>
<!-- Node147&#45;&gt;Node148 -->
<g id="edge78" class="edge">
<title>Node147&#45;&gt;Node148</title>
<path fill="none" stroke="#63b8ff" d="M1084.59,-203.1C1117.75,-193.45 1171.54,-177.81 1213.34,-165.65"/>
<polygon fill="#63b8ff" stroke="#63b8ff" points="1214.16,-169.05 1222.78,-162.9 1212.2,-162.33 1214.16,-169.05"/>
</g>
<!-- Node149 -->
<g id="node50" class="node">
<title>Node149</title>
<g id="a_node50"><a xlink:href="c__xyz_8h.html" target="_top" xlink:title=" ">
<polygon fill="#fff0f0" stroke="red" points="1198,-162 1082,-162 1082,-132 1198,-132 1198,-162"/>
<text text-anchor="start" x="1090" y="-150" font-family="Helvetica,sans-Serif" font-size="10.00">SSystem/SComponent</text>
<text text-anchor="middle" x="1140" y="-139" font-family="Helvetica,sans-Serif" font-size="10.00">/c_xyz.h</text>
</a>
</g>
</g>
<!-- Node147&#45;&gt;Node149 -->
<g id="edge79" class="edge">
<title>Node147&#45;&gt;Node149</title>
<path fill="none" stroke="#63b8ff" d="M1065.96,-203.1C1077.65,-194.4 1095.91,-180.81 1111.37,-169.31"/>
<polygon fill="#63b8ff" stroke="#63b8ff" points="1113.4,-172.16 1119.33,-163.38 1109.22,-166.54 1113.4,-172.16"/>
</g>
</g>
</svg>
