<?xml version="1.0" encoding="UTF-8" standalone="no"?>
<!DOCTYPE svg PUBLIC "-//W3C//DTD SVG 1.1//EN"
 "http://www.w3.org/Graphics/SVG/1.1/DTD/svg11.dtd">
<!-- Generated by graphviz version 7.0.5 (20221223.1930)
 -->
<!-- Title: src/d/s/d_s_title.cpp Pages: 1 -->
<svg width="748pt" height="566pt"
 viewBox="0.00 0.00 747.50 566.00" xmlns="http://www.w3.org/2000/svg" xmlns:xlink="http://www.w3.org/1999/xlink">
<g id="graph0" class="graph" transform="scale(1 1) rotate(0) translate(4 562)">
<title>src/d/s/d_s_title.cpp</title>
<!-- Node1 -->
<g id="node1" class="node">
<title>Node1</title>
<g id="a_node1"><a xlink:title=" ">
<polygon fill="#999999" stroke="#666666" points="523,-558 419,-558 419,-539 523,-539 523,-558"/>
<text text-anchor="middle" x="471" y="-546" font-family="Helvetica,sans-Serif" font-size="10.00">src/d/s/d_s_title.cpp</text>
</a>
</g>
</g>
<!-- Node2 -->
<g id="node2" class="node">
<title>Node2</title>
<g id="a_node2"><a xlink:href="d__s__title_8h.html" target="_top" xlink:title=" ">
<polygon fill="white" stroke="#666666" points="366.5,-503 289.5,-503 289.5,-484 366.5,-484 366.5,-503"/>
<text text-anchor="middle" x="328" y="-491" font-family="Helvetica,sans-Serif" font-size="10.00">d/s/d_s_title.h</text>
</a>
</g>
</g>
<!-- Node1&#45;&gt;Node2 -->
<g id="edge1" class="edge">
<title>Node1&#45;&gt;Node2</title>
<path fill="none" stroke="#63b8ff" d="M446.74,-538.51C423.59,-529.93 388.49,-516.92 362.44,-507.27"/>
<polygon fill="#63b8ff" stroke="#63b8ff" points="363.91,-504.08 353.32,-503.88 361.48,-510.64 363.91,-504.08"/>
</g>
<!-- Node3 -->
<g id="node3" class="node">
<title>Node3</title>
<g id="a_node3"><a xlink:href="f__op__scene_8h.html" target="_top" xlink:title=" ">
<polygon fill="white" stroke="#666666" points="481,-503 385,-503 385,-484 481,-484 481,-503"/>
<text text-anchor="middle" x="433" y="-491" font-family="Helvetica,sans-Serif" font-size="10.00">f_op/f_op_scene.h</text>
</a>
</g>
</g>
<!-- Node1&#45;&gt;Node3 -->
<g id="edge2" class="edge">
<title>Node1&#45;&gt;Node3</title>
<path fill="none" stroke="#63b8ff" d="M464.73,-538.75C459.64,-531.66 452.3,-521.42 445.97,-512.59"/>
<polygon fill="#63b8ff" stroke="#63b8ff" points="448.96,-510.76 440.29,-504.67 443.28,-514.84 448.96,-510.76"/>
</g>
<!-- Node22 -->
<g id="node22" class="node">
<title>Node22</title>
<g id="a_node22"><a xlink:href="f__pc__leaf_8h.html" target="_top" xlink:title=" ">
<polygon fill="white" stroke="#666666" points="568,-387.5 482,-387.5 482,-368.5 568,-368.5 568,-387.5"/>
<text text-anchor="middle" x="525" y="-375.5" font-family="Helvetica,sans-Serif" font-size="10.00">f_pc/f_pc_leaf.h</text>
</a>
</g>
</g>
<!-- Node1&#45;&gt;Node22 -->
<g id="edge29" class="edge">
<title>Node1&#45;&gt;Node22</title>
<path fill="none" stroke="#63b8ff" d="M475.12,-538.77C479.22,-529.89 485.53,-515.67 490,-503 502.74,-466.9 514.09,-423.64 520.22,-398.93"/>
<polygon fill="#63b8ff" stroke="#63b8ff" points="523.59,-399.86 522.56,-389.31 516.79,-398.2 523.59,-399.86"/>
</g>
<!-- Node24 -->
<g id="node24" class="node">
<title>Node24</title>
<g id="a_node24"><a xlink:href="d__procname_8h.html" target="_top" xlink:title=" ">
<polygon fill="white" stroke="#666666" points="623,-503 537,-503 537,-484 623,-484 623,-503"/>
<text text-anchor="middle" x="580" y="-491" font-family="Helvetica,sans-Serif" font-size="10.00">d/d_procname.h</text>
</a>
</g>
</g>
<!-- Node1&#45;&gt;Node24 -->
<g id="edge35" class="edge">
<title>Node1&#45;&gt;Node24</title>
<path fill="none" stroke="#63b8ff" d="M489.49,-538.51C506.5,-530.24 531.99,-517.84 551.59,-508.31"/>
<polygon fill="#63b8ff" stroke="#63b8ff" points="552.96,-511.54 560.42,-504.02 549.9,-505.25 552.96,-511.54"/>
</g>
<!-- Node4 -->
<g id="node4" class="node">
<title>Node4</title>
<g id="a_node4"><a xlink:href="f__op__scene__tag_8h.html" target="_top" xlink:title=" ">
<polygon fill="white" stroke="#666666" points="404.5,-448 289.5,-448 289.5,-429 404.5,-429 404.5,-448"/>
<text text-anchor="middle" x="347" y="-436" font-family="Helvetica,sans-Serif" font-size="10.00">f_op/f_op_scene_tag.h</text>
</a>
</g>
</g>
<!-- Node3&#45;&gt;Node4 -->
<g id="edge3" class="edge">
<title>Node3&#45;&gt;Node4</title>
<path fill="none" stroke="#63b8ff" d="M418.41,-483.51C405.48,-475.54 386.36,-463.75 371.15,-454.38"/>
<polygon fill="#63b8ff" stroke="#63b8ff" points="373.01,-451.42 362.66,-449.15 369.34,-457.38 373.01,-451.42"/>
</g>
<!-- Node5 -->
<g id="node5" class="node">
<title>Node5</title>
<g id="a_node5"><a xlink:href="f__pc__node_8h.html" target="_top" xlink:title=" ">
<polygon fill="white" stroke="#666666" points="463.5,-387.5 372.5,-387.5 372.5,-368.5 463.5,-368.5 463.5,-387.5"/>
<text text-anchor="middle" x="418" y="-375.5" font-family="Helvetica,sans-Serif" font-size="10.00">f_pc/f_pc_node.h</text>
</a>
</g>
</g>
<!-- Node3&#45;&gt;Node5 -->
<g id="edge28" class="edge">
<title>Node3&#45;&gt;Node5</title>
<path fill="none" stroke="#63b8ff" d="M431.82,-483.59C429.44,-465.53 423.97,-424.17 420.67,-399.21"/>
<polygon fill="#63b8ff" stroke="#63b8ff" points="424.15,-398.82 419.37,-389.37 417.21,-399.74 424.15,-398.82"/>
</g>
<!-- Node4&#45;&gt;Node5 -->
<g id="edge4" class="edge">
<title>Node4&#45;&gt;Node5</title>
<path fill="none" stroke="#63b8ff" d="M357.78,-428.62C368.52,-419.77 385.25,-405.98 398.35,-395.19"/>
<polygon fill="#63b8ff" stroke="#63b8ff" points="400.45,-397.99 405.95,-388.93 396,-392.59 400.45,-397.99"/>
</g>
<!-- Node21 -->
<g id="node21" class="node">
<title>Node21</title>
<g id="a_node21"><a xlink:href="c__phase_8h.html" target="_top" xlink:title=" ">
<polygon fill="white" stroke="#666666" points="354,-393 238,-393 238,-363 354,-363 354,-393"/>
<text text-anchor="start" x="246" y="-381" font-family="Helvetica,sans-Serif" font-size="10.00">SSystem/SComponent</text>
<text text-anchor="middle" x="296" y="-370" font-family="Helvetica,sans-Serif" font-size="10.00">/c_phase.h</text>
</a>
</g>
</g>
<!-- Node4&#45;&gt;Node21 -->
<g id="edge27" class="edge">
<title>Node4&#45;&gt;Node21</title>
<path fill="none" stroke="#63b8ff" d="M339.47,-428.87C333.26,-421.74 324.15,-411.28 315.87,-401.79"/>
<polygon fill="#63b8ff" stroke="#63b8ff" points="318.51,-399.49 309.3,-394.26 313.23,-404.09 318.51,-399.49"/>
</g>
<!-- Node6 -->
<g id="node6" class="node">
<title>Node6</title>
<g id="a_node6"><a xlink:href="f__pc__base_8h.html" target="_top" xlink:title=" ">
<polygon fill="white" stroke="#666666" points="406.5,-327 315.5,-327 315.5,-308 406.5,-308 406.5,-327"/>
<text text-anchor="middle" x="361" y="-315" font-family="Helvetica,sans-Serif" font-size="10.00">f_pc/f_pc_base.h</text>
</a>
</g>
</g>
<!-- Node5&#45;&gt;Node6 -->
<g id="edge5" class="edge">
<title>Node5&#45;&gt;Node6</title>
<path fill="none" stroke="#63b8ff" d="M409.59,-368.37C401.09,-359.64 387.73,-345.93 377.17,-335.09"/>
<polygon fill="#63b8ff" stroke="#63b8ff" points="379.99,-332.97 370.5,-328.25 374.97,-337.86 379.99,-332.97"/>
</g>
<!-- Node16 -->
<g id="node16" class="node">
<title>Node16</title>
<g id="a_node16"><a xlink:href="f__pc__layer_8h.html" target="_top" xlink:title=" ">
<polygon fill="white" stroke="#666666" points="237,-156.5 147,-156.5 147,-137.5 237,-137.5 237,-156.5"/>
<text text-anchor="middle" x="192" y="-144.5" font-family="Helvetica,sans-Serif" font-size="10.00">f_pc/f_pc_layer.h</text>
</a>
</g>
</g>
<!-- Node5&#45;&gt;Node16 -->
<g id="edge18" class="edge">
<title>Node5&#45;&gt;Node16</title>
<path fill="none" stroke="#63b8ff" d="M383.63,-368.05C305.14,-347.26 118.12,-295.71 101,-272 72.42,-232.43 131.06,-186.14 166.93,-162.91"/>
<polygon fill="#63b8ff" stroke="#63b8ff" points="168.46,-166.08 175.07,-157.79 164.74,-160.15 168.46,-166.08"/>
</g>
<!-- Node19 -->
<g id="node19" class="node">
<title>Node19</title>
<g id="a_node19"><a xlink:href="f__pc__method_8h.html" target="_top" xlink:title=" ">
<polygon fill="white" stroke="#666666" points="640,-327 538,-327 538,-308 640,-308 640,-327"/>
<text text-anchor="middle" x="589" y="-315" font-family="Helvetica,sans-Serif" font-size="10.00">f_pc/f_pc_method.h</text>
</a>
</g>
</g>
<!-- Node5&#45;&gt;Node19 -->
<g id="edge23" class="edge">
<title>Node5&#45;&gt;Node19</title>
<path fill="none" stroke="#63b8ff" d="M443.97,-368.12C472.72,-358.28 519.3,-342.34 551.89,-331.19"/>
<polygon fill="#63b8ff" stroke="#63b8ff" points="553.02,-334.51 561.35,-327.96 550.76,-327.88 553.02,-334.51"/>
</g>
<!-- Node20 -->
<g id="node20" class="node">
<title>Node20</title>
<g id="a_node20"><a xlink:href="f__pc__profile_8h.html" target="_top" xlink:title=" ">
<polygon fill="white" stroke="#666666" points="519.5,-327 424.5,-327 424.5,-308 519.5,-308 519.5,-327"/>
<text text-anchor="middle" x="472" y="-315" font-family="Helvetica,sans-Serif" font-size="10.00">f_pc/f_pc_profile.h</text>
</a>
</g>
</g>
<!-- Node5&#45;&gt;Node20 -->
<g id="edge25" class="edge">
<title>Node5&#45;&gt;Node20</title>
<path fill="none" stroke="#63b8ff" d="M425.97,-368.37C433.94,-359.73 446.43,-346.2 456.39,-335.42"/>
<polygon fill="#63b8ff" stroke="#63b8ff" points="458.76,-338 462.97,-328.28 453.62,-333.25 458.76,-338"/>
</g>
<!-- Node7 -->
<g id="node7" class="node">
<title>Node7</title>
<g id="a_node7"><a xlink:href="f__pc__delete__tag_8h.html" target="_top" xlink:title=" ">
<polygon fill="white" stroke="#666666" points="519.5,-217 404.5,-217 404.5,-198 519.5,-198 519.5,-217"/>
<text text-anchor="middle" x="462" y="-205" font-family="Helvetica,sans-Serif" font-size="10.00">f_pc/f_pc_delete_tag.h</text>
</a>
</g>
</g>
<!-- Node6&#45;&gt;Node7 -->
<g id="edge6" class="edge">
<title>Node6&#45;&gt;Node7</title>
<path fill="none" stroke="#63b8ff" d="M406.92,-309.28C429.02,-303.24 453.58,-292.2 467,-272 475.53,-259.17 473.29,-241.49 469.48,-228.05"/>
<polygon fill="#63b8ff" stroke="#63b8ff" points="472.8,-226.94 466.29,-218.58 466.17,-229.18 472.8,-226.94"/>
</g>
<!-- Node12 -->
<g id="node12" class="node">
<title>Node12</title>
<g id="a_node12"><a xlink:href="f__pc__layer__tag_8h.html" target="_top" xlink:title=" ">
<polygon fill="white" stroke="#666666" points="219.5,-272 110.5,-272 110.5,-253 219.5,-253 219.5,-272"/>
<text text-anchor="middle" x="165" y="-260" font-family="Helvetica,sans-Serif" font-size="10.00">f_pc/f_pc_layer_tag.h</text>
</a>
</g>
</g>
<!-- Node6&#45;&gt;Node12 -->
<g id="edge11" class="edge">
<title>Node6&#45;&gt;Node12</title>
<path fill="none" stroke="#63b8ff" d="M327.75,-307.51C294.99,-298.65 244.75,-285.07 208.76,-275.33"/>
<polygon fill="#63b8ff" stroke="#63b8ff" points="210.11,-272.07 199.55,-272.84 208.28,-278.83 210.11,-272.07"/>
</g>
<!-- Node13 -->
<g id="node13" class="node">
<title>Node13</title>
<g id="a_node13"><a xlink:href="f__pc__line__tag_8h.html" target="_top" xlink:title=" ">
<polygon fill="white" stroke="#666666" points="342,-272 238,-272 238,-253 342,-253 342,-272"/>
<text text-anchor="middle" x="290" y="-260" font-family="Helvetica,sans-Serif" font-size="10.00">f_pc/f_pc_line_tag.h</text>
</a>
</g>
</g>
<!-- Node6&#45;&gt;Node13 -->
<g id="edge13" class="edge">
<title>Node6&#45;&gt;Node13</title>
<path fill="none" stroke="#63b8ff" d="M348.96,-307.51C338.59,-299.77 323.4,-288.43 311.03,-279.2"/>
<polygon fill="#63b8ff" stroke="#63b8ff" points="313.19,-276.44 303.08,-273.26 309,-282.05 313.19,-276.44"/>
</g>
<!-- Node14 -->
<g id="node14" class="node">
<title>Node14</title>
<g id="a_node14"><a xlink:href="f__pc__priority_8h.html" target="_top" xlink:title=" ">
<polygon fill="white" stroke="#666666" points="458,-272 360,-272 360,-253 458,-253 458,-272"/>
<text text-anchor="middle" x="409" y="-260" font-family="Helvetica,sans-Serif" font-size="10.00">f_pc/f_pc_priority.h</text>
</a>
</g>
</g>
<!-- Node6&#45;&gt;Node14 -->
<g id="edge15" class="edge">
<title>Node6&#45;&gt;Node14</title>
<path fill="none" stroke="#63b8ff" d="M368.93,-307.75C375.56,-300.43 385.22,-289.76 393.39,-280.74"/>
<polygon fill="#63b8ff" stroke="#63b8ff" points="395.77,-283.33 399.89,-273.56 390.58,-278.63 395.77,-283.33"/>
</g>
<!-- Node8 -->
<g id="node8" class="node">
<title>Node8</title>
<g id="a_node8"><a xlink:href="c__tag_8h.html" target="_top" xlink:title=" ">
<polygon fill="white" stroke="#666666" points="384,-162 268,-162 268,-132 384,-132 384,-162"/>
<text text-anchor="start" x="276" y="-150" font-family="Helvetica,sans-Serif" font-size="10.00">SSystem/SComponent</text>
<text text-anchor="middle" x="326" y="-139" font-family="Helvetica,sans-Serif" font-size="10.00">/c_tag.h</text>
</a>
</g>
</g>
<!-- Node7&#45;&gt;Node8 -->
<g id="edge7" class="edge">
<title>Node7&#45;&gt;Node8</title>
<path fill="none" stroke="#63b8ff" d="M441.34,-197.62C422.44,-189.48 393.85,-177.19 369.87,-166.87"/>
<polygon fill="#63b8ff" stroke="#63b8ff" points="371.53,-163.77 360.96,-163.04 368.76,-170.2 371.53,-163.77"/>
</g>
<!-- Node9 -->
<g id="node9" class="node">
<title>Node9</title>
<g id="a_node9"><a xlink:href="c__node_8h.html" target="_top" xlink:title=" ">
<polygon fill="white" stroke="#666666" points="384,-96 268,-96 268,-66 384,-66 384,-96"/>
<text text-anchor="start" x="276" y="-84" font-family="Helvetica,sans-Serif" font-size="10.00">SSystem/SComponent</text>
<text text-anchor="middle" x="326" y="-73" font-family="Helvetica,sans-Serif" font-size="10.00">/c_node.h</text>
</a>
</g>
</g>
<!-- Node8&#45;&gt;Node9 -->
<g id="edge8" class="edge">
<title>Node8&#45;&gt;Node9</title>
<path fill="none" stroke="#63b8ff" d="M326,-131.8C326,-124.67 326,-115.82 326,-107.56"/>
<polygon fill="#63b8ff" stroke="#63b8ff" points="329.5,-107.68 326,-97.68 322.5,-107.68 329.5,-107.68"/>
</g>
<!-- Node10 -->
<g id="node10" class="node">
<title>Node10</title>
<g id="a_node10"><a xlink:href="types_8h.html" target="_top" xlink:title=" ">
<polygon fill="white" stroke="#666666" points="588.5,-90.5 507.5,-90.5 507.5,-71.5 588.5,-71.5 588.5,-90.5"/>
<text text-anchor="middle" x="548" y="-78.5" font-family="Helvetica,sans-Serif" font-size="10.00">dolphin/types.h</text>
</a>
</g>
</g>
<!-- Node8&#45;&gt;Node10 -->
<g id="edge9" class="edge">
<title>Node8&#45;&gt;Node10</title>
<path fill="none" stroke="#63b8ff" d="M376.1,-131.56C415.27,-120.26 469.1,-104.75 506.03,-94.1"/>
<polygon fill="#63b8ff" stroke="#63b8ff" points="506.82,-97.52 515.46,-91.38 504.88,-90.79 506.82,-97.52"/>
</g>
<!-- Node11 -->
<g id="node11" class="node">
<title>Node11</title>
<g id="a_node11"><a xlink:href="stddef_8h.html" target="_top" xlink:title=" ">
<polygon fill="white" stroke="#666666" points="616,-30 480,-30 480,0 616,0 616,-30"/>
<text text-anchor="start" x="488" y="-18" font-family="Helvetica,sans-Serif" font-size="10.00">MSL_C/MSL_Common/Src</text>
<text text-anchor="middle" x="548" y="-7" font-family="Helvetica,sans-Serif" font-size="10.00">/stddef.h</text>
</a>
</g>
</g>
<!-- Node10&#45;&gt;Node11 -->
<g id="edge10" class="edge">
<title>Node10&#45;&gt;Node11</title>
<path fill="none" stroke="#63b8ff" d="M548,-71.1C548,-63.41 548,-51.92 548,-41.42"/>
<polygon fill="#63b8ff" stroke="#63b8ff" points="551.5,-41.75 548,-31.75 544.5,-41.75 551.5,-41.75"/>
</g>
<!-- Node12&#45;&gt;Node8 -->
<g id="edge12" class="edge">
<title>Node12&#45;&gt;Node8</title>
<path fill="none" stroke="#63b8ff" d="M176.39,-252.65C192.55,-240.17 223.16,-216.83 250,-198 264.25,-188 280.32,-177.34 294.01,-168.44"/>
<polygon fill="#63b8ff" stroke="#63b8ff" points="295.72,-171.5 302.21,-163.13 291.92,-165.63 295.72,-171.5"/>
</g>
<!-- Node13&#45;&gt;Node8 -->
<g id="edge14" class="edge">
<title>Node13&#45;&gt;Node8</title>
<path fill="none" stroke="#63b8ff" d="M279.16,-252.51C265.78,-240.24 245.93,-217.57 256,-198 262.25,-185.86 272.96,-176.02 284.15,-168.38"/>
<polygon fill="#63b8ff" stroke="#63b8ff" points="285.67,-171.55 292.29,-163.28 281.96,-165.62 285.67,-171.55"/>
</g>
<!-- Node15 -->
<g id="node15" class="node">
<title>Node15</title>
<g id="a_node15"><a xlink:href="f__pc__method__tag_8h.html" target="_top" xlink:title=" ">
<polygon fill="white" stroke="#666666" points="386.5,-217 265.5,-217 265.5,-198 386.5,-198 386.5,-217"/>
<text text-anchor="middle" x="326" y="-205" font-family="Helvetica,sans-Serif" font-size="10.00">f_pc/f_pc_method_tag.h</text>
</a>
</g>
</g>
<!-- Node14&#45;&gt;Node15 -->
<g id="edge16" class="edge">
<title>Node14&#45;&gt;Node15</title>
<path fill="none" stroke="#63b8ff" d="M394.92,-252.51C382.44,-244.54 363.98,-232.75 349.31,-223.38"/>
<polygon fill="#63b8ff" stroke="#63b8ff" points="351.46,-220.6 341.15,-218.17 347.69,-226.5 351.46,-220.6"/>
</g>
<!-- Node15&#45;&gt;Node8 -->
<g id="edge17" class="edge">
<title>Node15&#45;&gt;Node8</title>
<path fill="none" stroke="#63b8ff" d="M326,-197.87C326,-191.4 326,-182.2 326,-173.45"/>
<polygon fill="#63b8ff" stroke="#63b8ff" points="329.5,-173.63 326,-163.63 322.5,-173.63 329.5,-173.63"/>
</g>
<!-- Node16&#45;&gt;Node9 -->
<g id="edge20" class="edge">
<title>Node16&#45;&gt;Node9</title>
<path fill="none" stroke="#63b8ff" d="M210.63,-137.1C229.89,-127.9 260.55,-113.26 285.43,-101.38"/>
<polygon fill="#63b8ff" stroke="#63b8ff" points="286.81,-104.6 294.32,-97.13 283.79,-98.28 286.81,-104.6"/>
</g>
<!-- Node16&#45;&gt;Node10 -->
<g id="edge22" class="edge">
<title>Node16&#45;&gt;Node10</title>
<path fill="none" stroke="#63b8ff" d="M233.77,-137.04C242.12,-135.31 250.83,-133.56 259,-132 341.76,-116.2 438.27,-99.94 496.19,-90.41"/>
<polygon fill="#63b8ff" stroke="#63b8ff" points="496.44,-93.91 505.74,-88.84 495.31,-87.01 496.44,-93.91"/>
</g>
<!-- Node17 -->
<g id="node17" class="node">
<title>Node17</title>
<g id="a_node17"><a xlink:href="c__list_8h.html" target="_top" xlink:title=" ">
<polygon fill="white" stroke="#666666" points="250,-96 134,-96 134,-66 250,-66 250,-96"/>
<text text-anchor="start" x="142" y="-84" font-family="Helvetica,sans-Serif" font-size="10.00">SSystem/SComponent</text>
<text text-anchor="middle" x="192" y="-73" font-family="Helvetica,sans-Serif" font-size="10.00">/c_list.h</text>
</a>
</g>
</g>
<!-- Node16&#45;&gt;Node17 -->
<g id="edge19" class="edge">
<title>Node16&#45;&gt;Node17</title>
<path fill="none" stroke="#63b8ff" d="M192,-137.1C192,-129.41 192,-117.92 192,-107.42"/>
<polygon fill="#63b8ff" stroke="#63b8ff" points="195.5,-107.75 192,-97.75 188.5,-107.75 195.5,-107.75"/>
</g>
<!-- Node18 -->
<g id="node18" class="node">
<title>Node18</title>
<g id="a_node18"><a xlink:href="c__tree_8h.html" target="_top" xlink:title=" ">
<polygon fill="white" stroke="#666666" points="116,-96 0,-96 0,-66 116,-66 116,-96"/>
<text text-anchor="start" x="8" y="-84" font-family="Helvetica,sans-Serif" font-size="10.00">SSystem/SComponent</text>
<text text-anchor="middle" x="58" y="-73" font-family="Helvetica,sans-Serif" font-size="10.00">/c_tree.h</text>
</a>
</g>
</g>
<!-- Node16&#45;&gt;Node18 -->
<g id="edge21" class="edge">
<title>Node16&#45;&gt;Node18</title>
<path fill="none" stroke="#63b8ff" d="M173.37,-137.1C154.11,-127.9 123.45,-113.26 98.57,-101.38"/>
<polygon fill="#63b8ff" stroke="#63b8ff" points="100.21,-98.28 89.68,-97.13 97.19,-104.6 100.21,-98.28"/>
</g>
<!-- Node19&#45;&gt;Node10 -->
<g id="edge24" class="edge">
<title>Node19&#45;&gt;Node10</title>
<path fill="none" stroke="#63b8ff" d="M588.11,-307.6C585.33,-280.83 576.18,-198.82 562,-132 559.86,-121.94 556.85,-110.91 554.17,-101.78"/>
<polygon fill="#63b8ff" stroke="#63b8ff" points="557.52,-100.77 551.26,-92.21 550.82,-102.8 557.52,-100.77"/>
</g>
<!-- Node20&#45;&gt;Node10 -->
<g id="edge26" class="edge">
<title>Node20&#45;&gt;Node10</title>
<path fill="none" stroke="#63b8ff" d="M478.44,-307.7C490.34,-290.97 515.67,-253.01 528,-217 541.45,-177.7 545.86,-128.92 547.3,-102.07"/>
<polygon fill="#63b8ff" stroke="#63b8ff" points="550.79,-102.44 547.73,-92.3 543.8,-102.14 550.79,-102.44"/>
</g>
<!-- Node22&#45;&gt;Node6 -->
<g id="edge30" class="edge">
<title>Node22&#45;&gt;Node6</title>
<path fill="none" stroke="#63b8ff" d="M500.09,-368.12C472.52,-358.28 427.85,-342.34 396.59,-331.19"/>
<polygon fill="#63b8ff" stroke="#63b8ff" points="398.16,-328.04 387.57,-327.98 395.81,-334.63 398.16,-328.04"/>
</g>
<!-- Node22&#45;&gt;Node19 -->
<g id="edge33" class="edge">
<title>Node22&#45;&gt;Node19</title>
<path fill="none" stroke="#63b8ff" d="M534.72,-368.12C544.31,-359.35 559.19,-345.75 570.94,-335"/>
<polygon fill="#63b8ff" stroke="#63b8ff" points="573.05,-337.82 578.07,-328.49 568.33,-332.65 573.05,-337.82"/>
</g>
<!-- Node22&#45;&gt;Node20 -->
<g id="edge34" class="edge">
<title>Node22&#45;&gt;Node20</title>
<path fill="none" stroke="#63b8ff" d="M517.18,-368.37C509.35,-359.73 497.1,-346.2 487.33,-335.42"/>
<polygon fill="#63b8ff" stroke="#63b8ff" points="490.18,-333.35 480.87,-328.29 484.99,-338.05 490.18,-333.35"/>
</g>
<!-- Node23 -->
<g id="node23" class="node">
<title>Node23</title>
<g id="a_node23"><a xlink:href="f__pc__draw__priority_8h.html" target="_top" xlink:title=" ">
<polygon fill="white" stroke="#666666" points="739.5,-217 614.5,-217 614.5,-198 739.5,-198 739.5,-217"/>
<text text-anchor="middle" x="677" y="-205" font-family="Helvetica,sans-Serif" font-size="10.00">f_pc/f_pc_draw_priority.h</text>
</a>
</g>
</g>
<!-- Node22&#45;&gt;Node23 -->
<g id="edge31" class="edge">
<title>Node22&#45;&gt;Node23</title>
<path fill="none" stroke="#63b8ff" d="M568.23,-369.98C595.21,-363.37 628.58,-350.77 649,-327 672.92,-299.15 677.27,-254.56 677.6,-228.75"/>
<polygon fill="#63b8ff" stroke="#63b8ff" points="681.1,-228.93 677.51,-218.96 674.1,-228.99 681.1,-228.93"/>
</g>
<!-- Node23&#45;&gt;Node10 -->
<g id="edge32" class="edge">
<title>Node23&#45;&gt;Node10</title>
<path fill="none" stroke="#63b8ff" d="M668,-197.77C653.64,-183.85 624.63,-155.76 600,-132 588.43,-120.84 575.38,-108.29 565.25,-98.56"/>
<polygon fill="#63b8ff" stroke="#63b8ff" points="567.94,-96.29 558.31,-91.89 563.09,-101.34 567.94,-96.29"/>
</g>
</g>
</svg>
