<?xml version="1.0" encoding="UTF-8" standalone="no"?>
<!DOCTYPE svg PUBLIC "-//W3C//DTD SVG 1.1//EN"
 "http://www.w3.org/Graphics/SVG/1.1/DTD/svg11.dtd">
<!-- Generated by graphviz version 7.0.5 (20221223.1930)
 -->
<!-- Title: src/d/d_spline_path.cpp Pages: 1 -->
<svg width="1108pt" height="357pt"
 viewBox="0.00 0.00 1108.00 357.00" xmlns="http://www.w3.org/2000/svg" xmlns:xlink="http://www.w3.org/1999/xlink">
<g id="graph0" class="graph" transform="scale(1 1) rotate(0) translate(4 353)">
<title>src/d/d_spline_path.cpp</title>
<!-- Node1 -->
<g id="node1" class="node">
<title>Node1</title>
<g id="a_node1"><a xlink:title=" ">
<polygon fill="#999999" stroke="#666666" points="570.5,-349 451.5,-349 451.5,-330 570.5,-330 570.5,-349"/>
<text text-anchor="middle" x="511" y="-337" font-family="Helvetica,sans-Serif" font-size="10.00">src/d/d_spline_path.cpp</text>
</a>
</g>
</g>
<!-- Node2 -->
<g id="node2" class="node">
<title>Node2</title>
<g id="a_node2"><a xlink:href="d__spline__path_8h.html" target="_top" xlink:title=" ">
<polygon fill="white" stroke="#666666" points="177,-283 85,-283 85,-264 177,-264 177,-283"/>
<text text-anchor="middle" x="131" y="-271" font-family="Helvetica,sans-Serif" font-size="10.00">d/d_spline_path.h</text>
</a>
</g>
</g>
<!-- Node1&#45;&gt;Node2 -->
<g id="edge1" class="edge">
<title>Node1&#45;&gt;Node2</title>
<path fill="none" stroke="#63b8ff" d="M451.01,-333.99C385.27,-328.19 277.03,-316.12 186,-294 178.61,-292.2 170.83,-289.79 163.52,-287.26"/>
<polygon fill="#63b8ff" stroke="#63b8ff" points="164.92,-284.05 154.32,-283.94 162.54,-290.63 164.92,-284.05"/>
</g>
<!-- Node10 -->
<g id="node10" class="node">
<title>Node10</title>
<g id="a_node10"><a xlink:href="dol2asm_8h.html" target="_top" xlink:title=" ">
<polygon fill="white" stroke="#666666" points="256.5,-283 195.5,-283 195.5,-264 256.5,-264 256.5,-283"/>
<text text-anchor="middle" x="226" y="-271" font-family="Helvetica,sans-Serif" font-size="10.00">dol2asm.h</text>
</a>
</g>
</g>
<!-- Node1&#45;&gt;Node10 -->
<g id="edge9" class="edge">
<title>Node1&#45;&gt;Node10</title>
<path fill="none" stroke="#63b8ff" d="M451.21,-332.28C400.9,-325.96 327.52,-314.16 266,-294 261.29,-292.46 256.43,-290.46 251.79,-288.34"/>
<polygon fill="#63b8ff" stroke="#63b8ff" points="253.42,-285.24 242.9,-283.98 250.34,-291.53 253.42,-285.24"/>
</g>
<!-- Node11 -->
<g id="node11" class="node">
<title>Node11</title>
<g id="a_node11"><a xlink:title=" ">
<polygon fill="#e0e0e0" stroke="#999999" points="417.5,-288.5 274.5,-288.5 274.5,-258.5 417.5,-258.5 417.5,-288.5"/>
<text text-anchor="start" x="282.5" y="-276.5" font-family="Helvetica,sans-Serif" font-size="10.00">asm/d/d_spline_path</text>
<text text-anchor="middle" x="346" y="-265.5" font-family="Helvetica,sans-Serif" font-size="10.00">/Init__14d2DBSplinePathFll.s</text>
</a>
</g>
</g>
<!-- Node1&#45;&gt;Node11 -->
<g id="edge10" class="edge">
<title>Node1&#45;&gt;Node11</title>
<path fill="none" stroke="#63b8ff" d="M488.06,-329.6C463.82,-320.2 424.89,-305.1 393.91,-293.09"/>
<polygon fill="#63b8ff" stroke="#63b8ff" points="395.33,-289.88 384.74,-289.52 392.79,-296.4 395.33,-289.88"/>
</g>
<!-- Node12 -->
<g id="node12" class="node">
<title>Node12</title>
<g id="a_node12"><a xlink:title=" ">
<polygon fill="#e0e0e0" stroke="#999999" points="586.5,-288.5 435.5,-288.5 435.5,-258.5 586.5,-258.5 586.5,-288.5"/>
<text text-anchor="start" x="443.5" y="-276.5" font-family="Helvetica,sans-Serif" font-size="10.00">asm/d/d_spline_path</text>
<text text-anchor="middle" x="511" y="-265.5" font-family="Helvetica,sans-Serif" font-size="10.00">/Step__14d2DBSplinePathFv.s</text>
</a>
</g>
</g>
<!-- Node1&#45;&gt;Node12 -->
<g id="edge11" class="edge">
<title>Node1&#45;&gt;Node12</title>
<path fill="none" stroke="#63b8ff" d="M511,-329.6C511,-321.91 511,-310.42 511,-299.92"/>
<polygon fill="#63b8ff" stroke="#63b8ff" points="514.5,-300.25 511,-290.25 507.5,-300.25 514.5,-300.25"/>
</g>
<!-- Node13 -->
<g id="node13" class="node">
<title>Node13</title>
<g id="a_node13"><a xlink:title=" ">
<polygon fill="#e0e0e0" stroke="#999999" points="759.5,-294 604.5,-294 604.5,-253 759.5,-253 759.5,-294"/>
<text text-anchor="start" x="612.5" y="-282" font-family="Helvetica,sans-Serif" font-size="10.00">asm/d/d_spline_path</text>
<text text-anchor="start" x="612.5" y="-271" font-family="Helvetica,sans-Serif" font-size="10.00">/Calc__14d2DBSplinePathFP4c</text>
<text text-anchor="middle" x="682" y="-260" font-family="Helvetica,sans-Serif" font-size="10.00">Xyz.s</text>
</a>
</g>
</g>
<!-- Node1&#45;&gt;Node13 -->
<g id="edge12" class="edge">
<title>Node1&#45;&gt;Node13</title>
<path fill="none" stroke="#63b8ff" d="M534.78,-329.6C556.35,-321.53 589.16,-309.25 618.33,-298.33"/>
<polygon fill="#63b8ff" stroke="#63b8ff" points="619.33,-301.69 627.47,-294.91 616.88,-295.14 619.33,-301.69"/>
</g>
<!-- Node14 -->
<g id="node14" class="node">
<title>Node14</title>
<g id="a_node14"><a xlink:title=" ">
<polygon fill="#e0e0e0" stroke="#999999" points="936,-288.5 778,-288.5 778,-258.5 936,-258.5 936,-288.5"/>
<text text-anchor="start" x="786" y="-276.5" font-family="Helvetica,sans-Serif" font-size="10.00">asm/d/d_spline_path</text>
<text text-anchor="middle" x="857" y="-265.5" font-family="Helvetica,sans-Serif" font-size="10.00">/Spot__14d2DBSplinePathFPff.s</text>
</a>
</g>
</g>
<!-- Node1&#45;&gt;Node14 -->
<g id="edge13" class="edge">
<title>Node1&#45;&gt;Node14</title>
<path fill="none" stroke="#63b8ff" d="M567.76,-329.5C620.13,-321.01 699.99,-307.59 769,-294 773.37,-293.14 777.85,-292.23 782.37,-291.29"/>
<polygon fill="#63b8ff" stroke="#63b8ff" points="783.08,-294.72 792.15,-289.23 781.64,-287.87 783.08,-294.72"/>
</g>
<!-- Node15 -->
<g id="node15" class="node">
<title>Node15</title>
<g id="a_node15"><a xlink:title=" ">
<polygon fill="#e0e0e0" stroke="#999999" points="1100,-288.5 954,-288.5 954,-258.5 1100,-258.5 1100,-288.5"/>
<text text-anchor="start" x="962" y="-276.5" font-family="Helvetica,sans-Serif" font-size="10.00">asm/d/d_spline_path</text>
<text text-anchor="middle" x="1027" y="-265.5" font-family="Helvetica,sans-Serif" font-size="10.00">/bSpline2__10dPathCurveFf.s</text>
</a>
</g>
</g>
<!-- Node1&#45;&gt;Node15 -->
<g id="edge14" class="edge">
<title>Node1&#45;&gt;Node15</title>
<path fill="none" stroke="#63b8ff" d="M570.65,-334.87C654.62,-329.2 812.26,-316.49 945,-294 949.84,-293.18 954.81,-292.24 959.81,-291.23"/>
<polygon fill="#63b8ff" stroke="#63b8ff" points="960.2,-294.72 969.26,-289.22 958.75,-287.88 960.2,-294.72"/>
</g>
<!-- Node3 -->
<g id="node3" class="node">
<title>Node3</title>
<g id="a_node3"><a xlink:href="c__xyz_8h.html" target="_top" xlink:title=" ">
<polygon fill="white" stroke="#666666" points="189,-217 73,-217 73,-187 189,-187 189,-217"/>
<text text-anchor="start" x="81" y="-205" font-family="Helvetica,sans-Serif" font-size="10.00">SSystem/SComponent</text>
<text text-anchor="middle" x="131" y="-194" font-family="Helvetica,sans-Serif" font-size="10.00">/c_xyz.h</text>
</a>
</g>
</g>
<!-- Node2&#45;&gt;Node3 -->
<g id="edge2" class="edge">
<title>Node2&#45;&gt;Node3</title>
<path fill="none" stroke="#63b8ff" d="M131,-263.7C131,-254.93 131,-241.05 131,-228.77"/>
<polygon fill="#63b8ff" stroke="#63b8ff" points="134.5,-228.79 131,-218.79 127.5,-228.79 134.5,-228.79"/>
</g>
<!-- Node4 -->
<g id="node4" class="node">
<title>Node4</title>
<g id="a_node4"><a xlink:href="math_8h.html" target="_top" xlink:title=" ">
<polygon fill="white" stroke="#666666" points="120,-151 38,-151 38,-132 120,-132 120,-151"/>
<text text-anchor="middle" x="79" y="-139" font-family="Helvetica,sans-Serif" font-size="10.00">MSL_C/math.h</text>
</a>
</g>
</g>
<!-- Node3&#45;&gt;Node4 -->
<g id="edge3" class="edge">
<title>Node3&#45;&gt;Node4</title>
<path fill="none" stroke="#63b8ff" d="M118.15,-186.54C110.9,-178.39 101.81,-168.16 94.21,-159.61"/>
<polygon fill="#63b8ff" stroke="#63b8ff" points="96.98,-157.46 87.72,-152.31 91.74,-162.11 96.98,-157.46"/>
</g>
<!-- Node7 -->
<g id="node7" class="node">
<title>Node7</title>
<g id="a_node7"><a xlink:href="vec_8h.html" target="_top" xlink:title=" ">
<polygon fill="white" stroke="#666666" points="235,-151 143,-151 143,-132 235,-132 235,-151"/>
<text text-anchor="middle" x="189" y="-139" font-family="Helvetica,sans-Serif" font-size="10.00">dolphin/mtx/vec.h</text>
</a>
</g>
</g>
<!-- Node3&#45;&gt;Node7 -->
<g id="edge6" class="edge">
<title>Node3&#45;&gt;Node7</title>
<path fill="none" stroke="#63b8ff" d="M145.34,-186.54C153.5,-178.3 163.77,-167.94 172.3,-159.34"/>
<polygon fill="#63b8ff" stroke="#63b8ff" points="174.78,-161.82 179.33,-152.25 169.81,-156.89 174.78,-161.82"/>
</g>
<!-- Node5 -->
<g id="node5" class="node">
<title>Node5</title>
<g id="a_node5"><a xlink:href="MSL__Common_2Src_2float_8h.html" target="_top" xlink:title=" ">
<polygon fill="white" stroke="#666666" points="136,-96 0,-96 0,-66 136,-66 136,-96"/>
<text text-anchor="start" x="8" y="-84" font-family="Helvetica,sans-Serif" font-size="10.00">MSL_C/MSL_Common/Src</text>
<text text-anchor="middle" x="68" y="-73" font-family="Helvetica,sans-Serif" font-size="10.00">/float.h</text>
</a>
</g>
</g>
<!-- Node4&#45;&gt;Node5 -->
<g id="edge4" class="edge">
<title>Node4&#45;&gt;Node5</title>
<path fill="none" stroke="#63b8ff" d="M77.38,-131.87C76.15,-125.33 74.39,-115.99 72.73,-107.15"/>
<polygon fill="#63b8ff" stroke="#63b8ff" points="76.22,-106.78 70.93,-97.6 69.34,-108.08 76.22,-106.78"/>
</g>
<!-- Node6 -->
<g id="node6" class="node">
<title>Node6</title>
<g id="a_node6"><a xlink:href="fdlibm_8h.html" target="_top" xlink:title=" ">
<polygon fill="white" stroke="#666666" points="93,-24.5 43,-24.5 43,-5.5 93,-5.5 93,-24.5"/>
<text text-anchor="middle" x="68" y="-12.5" font-family="Helvetica,sans-Serif" font-size="10.00">fdlibm.h</text>
</a>
</g>
</g>
<!-- Node5&#45;&gt;Node6 -->
<g id="edge5" class="edge">
<title>Node5&#45;&gt;Node6</title>
<path fill="none" stroke="#63b8ff" d="M68,-65.8C68,-57.09 68,-45.81 68,-36.18"/>
<polygon fill="#63b8ff" stroke="#63b8ff" points="71.5,-36.36 68,-26.36 64.5,-36.36 71.5,-36.36"/>
</g>
<!-- Node8 -->
<g id="node8" class="node">
<title>Node8</title>
<g id="a_node8"><a xlink:href="types_8h.html" target="_top" xlink:title=" ">
<polygon fill="white" stroke="#666666" points="235.5,-90.5 154.5,-90.5 154.5,-71.5 235.5,-71.5 235.5,-90.5"/>
<text text-anchor="middle" x="195" y="-78.5" font-family="Helvetica,sans-Serif" font-size="10.00">dolphin/types.h</text>
</a>
</g>
</g>
<!-- Node7&#45;&gt;Node8 -->
<g id="edge7" class="edge">
<title>Node7&#45;&gt;Node8</title>
<path fill="none" stroke="#63b8ff" d="M189.89,-131.87C190.69,-124 191.91,-112.1 192.96,-101.89"/>
<polygon fill="#63b8ff" stroke="#63b8ff" points="196.42,-102.48 193.96,-92.17 189.45,-101.76 196.42,-102.48"/>
</g>
<!-- Node9 -->
<g id="node9" class="node">
<title>Node9</title>
<g id="a_node9"><a xlink:href="stddef_8h.html" target="_top" xlink:title=" ">
<polygon fill="white" stroke="#666666" points="263,-30 127,-30 127,0 263,0 263,-30"/>
<text text-anchor="start" x="135" y="-18" font-family="Helvetica,sans-Serif" font-size="10.00">MSL_C/MSL_Common/Src</text>
<text text-anchor="middle" x="195" y="-7" font-family="Helvetica,sans-Serif" font-size="10.00">/stddef.h</text>
</a>
</g>
</g>
<!-- Node8&#45;&gt;Node9 -->
<g id="edge8" class="edge">
<title>Node8&#45;&gt;Node9</title>
<path fill="none" stroke="#63b8ff" d="M195,-71.1C195,-63.41 195,-51.92 195,-41.42"/>
<polygon fill="#63b8ff" stroke="#63b8ff" points="198.5,-41.75 195,-31.75 191.5,-41.75 198.5,-41.75"/>
</g>
</g>
</svg>
