<?xml version="1.0" encoding="UTF-8" standalone="no"?>
<!DOCTYPE svg PUBLIC "-//W3C//DTD SVG 1.1//EN"
 "http://www.w3.org/Graphics/SVG/1.1/DTD/svg11.dtd">
<!-- Generated by graphviz version 7.0.5 (20221223.1930)
 -->
<!-- Title: libs/odemuexi2/Src/OdemuExi2Lib/DebuggerDriver.cpp Pages: 1 -->
<svg width="2474pt" height="170pt"
 viewBox="0.00 0.00 2474.00 170.00" xmlns="http://www.w3.org/2000/svg" xmlns:xlink="http://www.w3.org/1999/xlink">
<g id="graph0" class="graph" transform="scale(1 1) rotate(0) translate(4 166)">
<title>libs/odemuexi2/Src/OdemuExi2Lib/DebuggerDriver.cpp</title>
<!-- Node1 -->
<g id="node1" class="node">
<title>Node1</title>
<g id="a_node1"><a xlink:title=" ">
<polygon fill="#999999" stroke="#666666" points="1256.5,-162 1086.5,-162 1086.5,-132 1256.5,-132 1256.5,-162"/>
<text text-anchor="start" x="1094.5" y="-150" font-family="Helvetica,sans-Serif" font-size="10.00">libs/odemuexi2/Src</text>
<text text-anchor="middle" x="1171.5" y="-139" font-family="Helvetica,sans-Serif" font-size="10.00">/OdemuExi2Lib/DebuggerDriver.cpp</text>
</a>
</g>
</g>
<!-- Node2 -->
<g id="node2" class="node">
<title>Node2</title>
<g id="a_node2"><a xlink:href="DebuggerDriver_8h.html" target="_top" xlink:title=" ">
<polygon fill="white" stroke="#666666" points="147,-96 0,-96 0,-66 147,-66 147,-96"/>
<text text-anchor="start" x="8" y="-84" font-family="Helvetica,sans-Serif" font-size="10.00">odemuexi2/Src/OdemuExi2Lib</text>
<text text-anchor="middle" x="73.5" y="-73" font-family="Helvetica,sans-Serif" font-size="10.00">/DebuggerDriver.h</text>
</a>
</g>
</g>
<!-- Node1&#45;&gt;Node2 -->
<g id="edge1" class="edge">
<title>Node1&#45;&gt;Node2</title>
<path fill="none" stroke="#63b8ff" d="M1086.02,-145.19C912.92,-142.8 508.43,-133.46 158.58,-96.12"/>
<polygon fill="#63b8ff" stroke="#63b8ff" points="159.03,-92.65 148.71,-95.06 158.28,-99.61 159.03,-92.65"/>
</g>
<!-- Node3 -->
<g id="node3" class="node">
<title>Node3</title>
<g id="a_node3"><a xlink:href="types_8h.html" target="_top" xlink:title=" ">
<polygon fill="white" stroke="#666666" points="246,-90.5 165,-90.5 165,-71.5 246,-71.5 246,-90.5"/>
<text text-anchor="middle" x="205.5" y="-78.5" font-family="Helvetica,sans-Serif" font-size="10.00">dolphin/types.h</text>
</a>
</g>
</g>
<!-- Node1&#45;&gt;Node3 -->
<g id="edge2" class="edge">
<title>Node1&#45;&gt;Node3</title>
<path fill="none" stroke="#63b8ff" d="M1086.16,-143.72C890.41,-138.12 413.81,-122.16 255.5,-96 251.85,-95.4 248.09,-94.63 244.35,-93.76"/>
<polygon fill="#63b8ff" stroke="#63b8ff" points="245.31,-90.4 234.76,-91.31 243.58,-97.18 245.31,-90.4"/>
</g>
<!-- Node5 -->
<g id="node5" class="node">
<title>Node5</title>
<g id="a_node5"><a xlink:title=" ">
<polygon fill="#e0e0e0" stroke="#999999" points="419,-96 264,-96 264,-66 419,-66 419,-96"/>
<text text-anchor="start" x="272" y="-84" font-family="Helvetica,sans-Serif" font-size="10.00">asm/odemuexi2/Src/OdemuExi2</text>
<text text-anchor="middle" x="341.5" y="-73" font-family="Helvetica,sans-Serif" font-size="10.00">Lib/DebuggerDriver/DBWrite.s</text>
</a>
</g>
</g>
<!-- Node1&#45;&gt;Node5 -->
<g id="edge4" class="edge">
<title>Node1&#45;&gt;Node5</title>
<path fill="none" stroke="#63b8ff" d="M1086.02,-142.82C949.67,-137.17 674.32,-123.45 430.46,-96.14"/>
<polygon fill="#63b8ff" stroke="#63b8ff" points="431.07,-92.69 420.74,-95.04 430.29,-99.65 431.07,-92.69"/>
</g>
<!-- Node6 -->
<g id="node6" class="node">
<title>Node6</title>
<g id="a_node6"><a xlink:title=" ">
<polygon fill="#e0e0e0" stroke="#999999" points="592,-96 437,-96 437,-66 592,-66 592,-96"/>
<text text-anchor="start" x="445" y="-84" font-family="Helvetica,sans-Serif" font-size="10.00">asm/odemuexi2/Src/OdemuExi2</text>
<text text-anchor="middle" x="514.5" y="-73" font-family="Helvetica,sans-Serif" font-size="10.00">Lib/DebuggerDriver/DBRead.s</text>
</a>
</g>
</g>
<!-- Node1&#45;&gt;Node6 -->
<g id="edge5" class="edge">
<title>Node1&#45;&gt;Node6</title>
<path fill="none" stroke="#63b8ff" d="M1086.32,-140.45C977.06,-132.9 781.46,-117.94 603.66,-96.2"/>
<polygon fill="#63b8ff" stroke="#63b8ff" points="604.1,-92.73 593.75,-94.98 603.25,-99.68 604.1,-92.73"/>
</g>
<!-- Node7 -->
<g id="node7" class="node">
<title>Node7</title>
<g id="a_node7"><a xlink:title=" ">
<polygon fill="#e0e0e0" stroke="#999999" points="780.5,-96 610.5,-96 610.5,-66 780.5,-66 780.5,-96"/>
<text text-anchor="start" x="618.5" y="-84" font-family="Helvetica,sans-Serif" font-size="10.00">asm/odemuexi2/Src/OdemuExi2</text>
<text text-anchor="middle" x="695.5" y="-73" font-family="Helvetica,sans-Serif" font-size="10.00">Lib/DebuggerDriver/DBQueryData.s</text>
</a>
</g>
</g>
<!-- Node1&#45;&gt;Node7 -->
<g id="edge6" class="edge">
<title>Node1&#45;&gt;Node7</title>
<path fill="none" stroke="#63b8ff" d="M1086.33,-135.21C1011.65,-125.67 899.82,-111.15 792.03,-96.2"/>
<polygon fill="#63b8ff" stroke="#63b8ff" points="792.83,-92.78 782.44,-94.86 791.86,-99.71 792.83,-92.78"/>
</g>
<!-- Node8 -->
<g id="node8" class="node">
<title>Node8</title>
<g id="a_node8"><a xlink:title=" ">
<polygon fill="#e0e0e0" stroke="#999999" points="978,-96 799,-96 799,-66 978,-66 978,-96"/>
<text text-anchor="start" x="807" y="-84" font-family="Helvetica,sans-Serif" font-size="10.00">asm/odemuexi2/Src/OdemuExi2</text>
<text text-anchor="middle" x="888.5" y="-73" font-family="Helvetica,sans-Serif" font-size="10.00">Lib/DebuggerDriver/DBInitInterrupts.s</text>
</a>
</g>
</g>
<!-- Node1&#45;&gt;Node8 -->
<g id="edge7" class="edge">
<title>Node1&#45;&gt;Node8</title>
<path fill="none" stroke="#63b8ff" d="M1107.64,-131.56C1064.8,-121.87 1008.23,-109.08 963.29,-98.91"/>
<polygon fill="#63b8ff" stroke="#63b8ff" points="964.13,-95.52 953.61,-96.72 962.59,-102.34 964.13,-95.52"/>
</g>
<!-- Node9 -->
<g id="node9" class="node">
<title>Node9</title>
<g id="a_node9"><a xlink:title=" ">
<polygon fill="#e0e0e0" stroke="#999999" points="1162.5,-96 996.5,-96 996.5,-66 1162.5,-66 1162.5,-96"/>
<text text-anchor="start" x="1004.5" y="-84" font-family="Helvetica,sans-Serif" font-size="10.00">asm/odemuexi2/Src/OdemuExi2</text>
<text text-anchor="middle" x="1079.5" y="-73" font-family="Helvetica,sans-Serif" font-size="10.00">Lib/DebuggerDriver/DBInitComm.s</text>
</a>
</g>
</g>
<!-- Node1&#45;&gt;Node9 -->
<g id="edge8" class="edge">
<title>Node1&#45;&gt;Node9</title>
<path fill="none" stroke="#63b8ff" d="M1151.08,-131.8C1138.9,-123.32 1123.21,-112.4 1109.62,-102.95"/>
<polygon fill="#63b8ff" stroke="#63b8ff" points="1111.63,-100.09 1101.42,-97.25 1107.63,-105.83 1111.63,-100.09"/>
</g>
<!-- Node10 -->
<g id="node10" class="node">
<title>Node10</title>
<g id="a_node10"><a xlink:title=" ">
<polygon fill="#e0e0e0" stroke="#999999" points="1346,-96 1181,-96 1181,-66 1346,-66 1346,-96"/>
<text text-anchor="start" x="1189" y="-84" font-family="Helvetica,sans-Serif" font-size="10.00">asm/odemuexi2/Src/OdemuExi2</text>
<text text-anchor="middle" x="1263.5" y="-73" font-family="Helvetica,sans-Serif" font-size="10.00">Lib/DebuggerDriver/DBGHandler.s</text>
</a>
</g>
</g>
<!-- Node1&#45;&gt;Node10 -->
<g id="edge9" class="edge">
<title>Node1&#45;&gt;Node10</title>
<path fill="none" stroke="#63b8ff" d="M1191.92,-131.8C1204.1,-123.32 1219.79,-112.4 1233.38,-102.95"/>
<polygon fill="#63b8ff" stroke="#63b8ff" points="1235.37,-105.83 1241.58,-97.25 1231.37,-100.09 1235.37,-105.83"/>
</g>
<!-- Node11 -->
<g id="node11" class="node">
<title>Node11</title>
<g id="a_node11"><a xlink:title=" ">
<polygon fill="#e0e0e0" stroke="#999999" points="1529,-96 1364,-96 1364,-66 1529,-66 1529,-96"/>
<text text-anchor="start" x="1372" y="-84" font-family="Helvetica,sans-Serif" font-size="10.00">asm/odemuexi2/Src/OdemuExi2</text>
<text text-anchor="middle" x="1446.5" y="-73" font-family="Helvetica,sans-Serif" font-size="10.00">Lib/DebuggerDriver/MWCallback.s</text>
</a>
</g>
</g>
<!-- Node1&#45;&gt;Node11 -->
<g id="edge10" class="edge">
<title>Node1&#45;&gt;Node11</title>
<path fill="none" stroke="#63b8ff" d="M1233.56,-131.56C1275.09,-121.89 1329.92,-109.13 1373.55,-98.98"/>
<polygon fill="#63b8ff" stroke="#63b8ff" points="1374.25,-102.41 1383.19,-96.73 1372.66,-95.59 1374.25,-102.41"/>
</g>
<!-- Node12 -->
<g id="node12" class="node">
<title>Node12</title>
<g id="a_node12"><a xlink:title=" ">
<polygon fill="#e0e0e0" stroke="#999999" points="1729.5,-96 1547.5,-96 1547.5,-66 1729.5,-66 1729.5,-96"/>
<text text-anchor="start" x="1555.5" y="-84" font-family="Helvetica,sans-Serif" font-size="10.00">asm/odemuexi2/Src/OdemuExi2</text>
<text text-anchor="middle" x="1638.5" y="-73" font-family="Helvetica,sans-Serif" font-size="10.00">Lib/DebuggerDriver/DBGReadStatus.s</text>
</a>
</g>
</g>
<!-- Node1&#45;&gt;Node12 -->
<g id="edge11" class="edge">
<title>Node1&#45;&gt;Node12</title>
<path fill="none" stroke="#63b8ff" d="M1256.79,-134.47C1328.57,-124.75 1434.25,-110.38 1536.1,-96.33"/>
<polygon fill="#63b8ff" stroke="#63b8ff" points="1536.29,-99.84 1545.72,-95 1535.33,-92.9 1536.29,-99.84"/>
</g>
<!-- Node13 -->
<g id="node13" class="node">
<title>Node13</title>
<g id="a_node13"><a xlink:title=" ">
<polygon fill="#e0e0e0" stroke="#999999" points="1903,-96 1748,-96 1748,-66 1903,-66 1903,-96"/>
<text text-anchor="start" x="1756" y="-84" font-family="Helvetica,sans-Serif" font-size="10.00">asm/odemuexi2/Src/OdemuExi2</text>
<text text-anchor="middle" x="1825.5" y="-73" font-family="Helvetica,sans-Serif" font-size="10.00">Lib/DebuggerDriver/DBGWrite.s</text>
</a>
</g>
</g>
<!-- Node1&#45;&gt;Node13 -->
<g id="edge12" class="edge">
<title>Node1&#45;&gt;Node13</title>
<path fill="none" stroke="#63b8ff" d="M1256.71,-140.4C1365.49,-132.81 1559.74,-117.84 1736.41,-96.2"/>
<polygon fill="#63b8ff" stroke="#63b8ff" points="1736.75,-99.68 1746.25,-94.98 1735.9,-92.73 1736.75,-99.68"/>
</g>
<!-- Node14 -->
<g id="node14" class="node">
<title>Node14</title>
<g id="a_node14"><a xlink:title=" ">
<polygon fill="#e0e0e0" stroke="#999999" points="2076,-96 1921,-96 1921,-66 2076,-66 2076,-96"/>
<text text-anchor="start" x="1929" y="-84" font-family="Helvetica,sans-Serif" font-size="10.00">asm/odemuexi2/Src/OdemuExi2</text>
<text text-anchor="middle" x="1998.5" y="-73" font-family="Helvetica,sans-Serif" font-size="10.00">Lib/DebuggerDriver/DBGRead.s</text>
</a>
</g>
</g>
<!-- Node1&#45;&gt;Node14 -->
<g id="edge13" class="edge">
<title>Node1&#45;&gt;Node14</title>
<path fill="none" stroke="#63b8ff" d="M1256.75,-142.85C1392.75,-137.26 1667.37,-123.61 1909.59,-96.27"/>
<polygon fill="#63b8ff" stroke="#63b8ff" points="1909.69,-99.78 1919.23,-95.17 1908.89,-92.82 1909.69,-99.78"/>
</g>
<!-- Node15 -->
<g id="node15" class="node">
<title>Node15</title>
<g id="a_node15"><a xlink:title=" ">
<polygon fill="#e0e0e0" stroke="#999999" points="2281,-96 2094,-96 2094,-66 2281,-66 2281,-96"/>
<text text-anchor="start" x="2102" y="-84" font-family="Helvetica,sans-Serif" font-size="10.00">asm/odemuexi2/Src/OdemuExi2</text>
<text text-anchor="middle" x="2187.5" y="-73" font-family="Helvetica,sans-Serif" font-size="10.00">Lib/DebuggerDriver/DBGReadMailbox.s</text>
</a>
</g>
</g>
<!-- Node1&#45;&gt;Node15 -->
<g id="edge14" class="edge">
<title>Node1&#45;&gt;Node15</title>
<path fill="none" stroke="#63b8ff" d="M1256.73,-143.66C1416.59,-138.77 1772.55,-125.47 2082.15,-96.27"/>
<polygon fill="#63b8ff" stroke="#63b8ff" points="2082.48,-99.76 2092.1,-95.32 2081.81,-92.79 2082.48,-99.76"/>
</g>
<!-- Node16 -->
<g id="node16" class="node">
<title>Node16</title>
<g id="a_node16"><a xlink:title=" ">
<polygon fill="#e0e0e0" stroke="#999999" points="2466,-96 2299,-96 2299,-66 2466,-66 2466,-96"/>
<text text-anchor="start" x="2307" y="-84" font-family="Helvetica,sans-Serif" font-size="10.00">asm/odemuexi2/Src/OdemuExi2</text>
<text text-anchor="middle" x="2382.5" y="-73" font-family="Helvetica,sans-Serif" font-size="10.00">Lib/DebuggerDriver/DBGEXIImm.s</text>
</a>
</g>
</g>
<!-- Node1&#45;&gt;Node16 -->
<g id="edge15" class="edge">
<title>Node1&#45;&gt;Node16</title>
<path fill="none" stroke="#63b8ff" d="M1256.65,-145.28C1442.2,-143.04 1897.08,-133.93 2287.57,-96.22"/>
<polygon fill="#63b8ff" stroke="#63b8ff" points="2287.69,-99.72 2297.3,-95.27 2287.01,-92.75 2287.69,-99.72"/>
</g>
<!-- Node4 -->
<g id="node4" class="node">
<title>Node4</title>
<g id="a_node4"><a xlink:href="stddef_8h.html" target="_top" xlink:title=" ">
<polygon fill="white" stroke="#666666" points="273.5,-30 137.5,-30 137.5,0 273.5,0 273.5,-30"/>
<text text-anchor="start" x="145.5" y="-18" font-family="Helvetica,sans-Serif" font-size="10.00">MSL_C/MSL_Common/Src</text>
<text text-anchor="middle" x="205.5" y="-7" font-family="Helvetica,sans-Serif" font-size="10.00">/stddef.h</text>
</a>
</g>
</g>
<!-- Node3&#45;&gt;Node4 -->
<g id="edge3" class="edge">
<title>Node3&#45;&gt;Node4</title>
<path fill="none" stroke="#63b8ff" d="M205.5,-71.1C205.5,-63.41 205.5,-51.92 205.5,-41.42"/>
<polygon fill="#63b8ff" stroke="#63b8ff" points="209,-41.75 205.5,-31.75 202,-41.75 209,-41.75"/>
</g>
</g>
</svg>
