<?xml version="1.0" encoding="UTF-8" standalone="no"?>
<!DOCTYPE svg PUBLIC "-//W3C//DTD SVG 1.1//EN"
 "http://www.w3.org/Graphics/SVG/1.1/DTD/svg11.dtd">
<!-- Generated by graphviz version 7.0.5 (20221223.1930)
 -->
<!-- Title: include/JSystem/JAudio2 Pages: 1 -->
<svg width="348pt" height="133pt"
 viewBox="0.00 0.00 348.00 133.00" xmlns="http://www.w3.org/2000/svg" xmlns:xlink="http://www.w3.org/1999/xlink">
<g id="graph0" class="graph" transform="scale(1 1) rotate(0) translate(4 129)">
<title>include/JSystem/JAudio2</title>
<g id="clust1" class="cluster">
<title>clusterdir_4f0979a7f5e3194619cde56505e372d8</title>
<g id="a_clust1"><a xlink:href="dir_4f0979a7f5e3194619cde56505e372d8.html" target="_top" xlink:title="JSystem">
<polygon fill="#edf0f7" stroke="#7f7f7f" stroke-dasharray="5,2" points="8,-8 8,-117 214,-117 214,-8 8,-8"/>
<text text-anchor="middle" x="111" y="-105" font-family="Helvetica,sans-Serif" font-size="10.00">JSystem</text>
</a>
</g>
</g>
<!-- dir_25682d7fe27d5da48e7af3ae8c2abb7f -->
<g id="node1" class="node">
<title>dir_25682d7fe27d5da48e7af3ae8c2abb7f</title>
<g id="a_node1"><a xlink:href="dir_25682d7fe27d5da48e7af3ae8c2abb7f.html" target="_top" xlink:title="JUtility">
<polygon fill="#a2b4d6" stroke="#404040" points="63.5,-35 16.5,-35 16.5,-16 63.5,-16 63.5,-35"/>
<text text-anchor="middle" x="40" y="-23" font-family="Helvetica,sans-Serif" font-size="10.00">JUtility</text>
</a>
</g>
</g>
<!-- dir_45593f23b58a9cb34ecfe1ccd7e4e81f -->
<g id="node2" class="node">
<title>dir_45593f23b58a9cb34ecfe1ccd7e4e81f</title>
<g id="a_node2"><a xlink:href="dir_45593f23b58a9cb34ecfe1ccd7e4e81f.html" target="_top" xlink:title="JSupport">
<polygon fill="#a2b4d6" stroke="#404040" points="138,-35 82,-35 82,-16 138,-16 138,-35"/>
<text text-anchor="middle" x="110" y="-23" font-family="Helvetica,sans-Serif" font-size="10.00">JSupport</text>
</a>
</g>
</g>
<!-- dir_cd1009b6de6f257cf504091b6f95eba2 -->
<g id="node3" class="node">
<title>dir_cd1009b6de6f257cf504091b6f95eba2</title>
<g id="a_node3"><a xlink:href="dir_cd1009b6de6f257cf504091b6f95eba2.html" target="_top" xlink:title="JKernel">
<polygon fill="#a2b4d6" stroke="#404040" points="206,-35 156,-35 156,-16 206,-16 206,-35"/>
<text text-anchor="middle" x="181" y="-23" font-family="Helvetica,sans-Serif" font-size="10.00">JKernel</text>
</a>
</g>
</g>
<!-- dir_939d1828e03278096bc671d6c97dec06 -->
<g id="node4" class="node">
<title>dir_939d1828e03278096bc671d6c97dec06</title>
<g id="a_node4"><a xlink:href="dir_939d1828e03278096bc671d6c97dec06.html" target="_top" xlink:title="JAudio2">
<polygon fill="#edf0f7" stroke="#404040" stroke-width="2" points="206,-90 154,-90 154,-71 206,-71 206,-90"/>
<text text-anchor="middle" x="180" y="-78" font-family="Helvetica,sans-Serif" font-size="10.00">JAudio2</text>
</a>
</g>
</g>
<!-- dir_939d1828e03278096bc671d6c97dec06&#45;&gt;dir_25682d7fe27d5da48e7af3ae8c2abb7f -->
<g id="edge1" class="edge">
<title>dir_939d1828e03278096bc671d6c97dec06&#45;&gt;dir_25682d7fe27d5da48e7af3ae8c2abb7f</title>
<path fill="none" stroke="#63b8ff" d="M156.25,-70.51C133.69,-61.97 99.53,-49.03 74.06,-39.4"/>
<polygon fill="#63b8ff" stroke="#63b8ff" points="75.41,-36.16 64.81,-35.89 72.93,-42.71 75.41,-36.16"/>
<g id="a_edge1&#45;headlabel"><a xlink:href="dir_000843_000873.html" target="_top" xlink:title="5">
<text text-anchor="middle" x="78.36" y="-31.74" font-family="Helvetica,sans-Serif" font-size="10.00" fill="#63b8ff">5</text>
</a>
</g>
</g>
<!-- dir_939d1828e03278096bc671d6c97dec06&#45;&gt;dir_45593f23b58a9cb34ecfe1ccd7e4e81f -->
<g id="edge2" class="edge">
<title>dir_939d1828e03278096bc671d6c97dec06&#45;&gt;dir_45593f23b58a9cb34ecfe1ccd7e4e81f</title>
<path fill="none" stroke="#63b8ff" d="M168.13,-70.51C157.91,-62.77 142.93,-51.43 130.74,-42.2"/>
<polygon fill="#63b8ff" stroke="#63b8ff" points="132.99,-39.52 122.91,-36.27 128.77,-45.1 132.99,-39.52"/>
<g id="a_edge2&#45;headlabel"><a xlink:href="dir_000843_000869.html" target="_top" xlink:title="10">
<text text-anchor="middle" x="136.36" y="-36.01" font-family="Helvetica,sans-Serif" font-size="10.00" fill="#63b8ff">10</text>
</a>
</g>
</g>
<!-- dir_939d1828e03278096bc671d6c97dec06&#45;&gt;dir_cd1009b6de6f257cf504091b6f95eba2 -->
<g id="edge4" class="edge">
<title>dir_939d1828e03278096bc671d6c97dec06&#45;&gt;dir_cd1009b6de6f257cf504091b6f95eba2</title>
<path fill="none" stroke="#63b8ff" d="M180.17,-70.75C180.29,-64.27 180.46,-55.16 180.62,-46.9"/>
<polygon fill="#63b8ff" stroke="#63b8ff" points="184.11,-47.02 180.8,-36.96 177.11,-46.89 184.11,-47.02"/>
<g id="a_edge4&#45;headlabel"><a xlink:href="dir_000843_000849.html" target="_top" xlink:title="4">
<text text-anchor="middle" x="186.91" y="-46.65" font-family="Helvetica,sans-Serif" font-size="10.00" fill="#63b8ff">4</text>
</a>
</g>
</g>
<!-- dir_b778c3f297ab88300258a2935792c8cc -->
<g id="node5" class="node">
<title>dir_b778c3f297ab88300258a2935792c8cc</title>
<g id="a_node5"><a xlink:href="dir_b778c3f297ab88300258a2935792c8cc.html" target="_top" xlink:title="dolphin">
<polygon fill="#edf0f7" stroke="red" stroke-dasharray="5,2" points="271.5,-35 224.5,-35 224.5,-16 271.5,-16 271.5,-35"/>
<text text-anchor="middle" x="248" y="-23" font-family="Helvetica,sans-Serif" font-size="10.00">dolphin</text>
</a>
</g>
</g>
<!-- dir_939d1828e03278096bc671d6c97dec06&#45;&gt;dir_b778c3f297ab88300258a2935792c8cc -->
<g id="edge3" class="edge">
<title>dir_939d1828e03278096bc671d6c97dec06&#45;&gt;dir_b778c3f297ab88300258a2935792c8cc</title>
<path fill="none" stroke="#63b8ff" d="M191.54,-70.51C201.46,-62.77 216.01,-51.43 227.86,-42.2"/>
<polygon fill="#63b8ff" stroke="#63b8ff" points="229.71,-45.2 235.44,-36.29 225.4,-39.68 229.71,-45.2"/>
<g id="a_edge3&#45;headlabel"><a xlink:href="dir_000843_000786.html" target="_top" xlink:title="35">
<text text-anchor="middle" x="229.81" y="-46.22" font-family="Helvetica,sans-Serif" font-size="10.00" fill="#63b8ff">35</text>
</a>
</g>
</g>
<!-- dir_e464f436794397718a79e116ac090ffa -->
<g id="node6" class="node">
<title>dir_e464f436794397718a79e116ac090ffa</title>
<g id="a_node6"><a xlink:href="dir_e464f436794397718a79e116ac090ffa.html" target="_top" xlink:title="MSL_C">
<polygon fill="#edf0f7" stroke="red" stroke-dasharray="5,2" points="340,-35 290,-35 290,-16 340,-16 340,-35"/>
<text text-anchor="middle" x="315" y="-23" font-family="Helvetica,sans-Serif" font-size="10.00">MSL_C</text>
</a>
</g>
</g>
<!-- dir_939d1828e03278096bc671d6c97dec06&#45;&gt;dir_e464f436794397718a79e116ac090ffa -->
<g id="edge5" class="edge">
<title>dir_939d1828e03278096bc671d6c97dec06&#45;&gt;dir_e464f436794397718a79e116ac090ffa</title>
<path fill="none" stroke="#63b8ff" d="M202.9,-70.51C224.56,-62.01 257.31,-49.15 281.82,-39.53"/>
<polygon fill="#63b8ff" stroke="#63b8ff" points="283,-42.82 291.03,-35.91 280.44,-36.31 283,-42.82"/>
<g id="a_edge5&#45;headlabel"><a xlink:href="dir_000843_001281.html" target="_top" xlink:title="3">
<text text-anchor="middle" x="282.1" y="-43.73" font-family="Helvetica,sans-Serif" font-size="10.00" fill="#63b8ff">3</text>
</a>
</g>
</g>
</g>
</svg>
