<?xml version="1.0" encoding="UTF-8" standalone="no"?>
<!DOCTYPE svg PUBLIC "-//W3C//DTD SVG 1.1//EN"
 "http://www.w3.org/Graphics/SVG/1.1/DTD/svg11.dtd">
<!-- Generated by graphviz version 7.0.5 (20221223.1930)
 -->
<!-- Title: include/dolphin/gx Pages: 1 -->
<svg width="120pt" height="133pt"
 viewBox="0.00 0.00 120.00 133.00" xmlns="http://www.w3.org/2000/svg" xmlns:xlink="http://www.w3.org/1999/xlink">
<g id="graph0" class="graph" transform="scale(1 1) rotate(0) translate(4 129)">
<title>include/dolphin/gx</title>
<g id="clust1" class="cluster">
<title>clusterdir_b778c3f297ab88300258a2935792c8cc</title>
<g id="a_clust1"><a xlink:href="dir_b778c3f297ab88300258a2935792c8cc.html" target="_top" xlink:title="dolphin">
<polygon fill="#edf0f7" stroke="#7f7f7f" stroke-dasharray="5,2" points="8,-8 8,-117 104,-117 104,-8 8,-8"/>
<text text-anchor="middle" x="56" y="-105" font-family="Helvetica,sans-Serif" font-size="10.00">dolphin</text>
</a>
</g>
</g>
<!-- dir_c18583810381222ac4660cab2f94c87b -->
<g id="node1" class="node">
<title>dir_c18583810381222ac4660cab2f94c87b</title>
<g id="a_node1"><a xlink:href="dir_c18583810381222ac4660cab2f94c87b.html" target="_top" xlink:title="mtx">
<polygon fill="#a2b4d6" stroke="#404040" points="48,-35 16,-35 16,-16 48,-16 48,-35"/>
<text text-anchor="middle" x="32" y="-23" font-family="Helvetica,sans-Serif" font-size="10.00">mtx</text>
</a>
</g>
</g>
<!-- dir_cae10961887f0d641c054afc85dac474 -->
<g id="node2" class="node">
<title>dir_cae10961887f0d641c054afc85dac474</title>
<g id="a_node2"><a xlink:href="dir_cae10961887f0d641c054afc85dac474.html" target="_top" xlink:title="os">
<polygon fill="#a2b4d6" stroke="#404040" points="95.5,-35 66.5,-35 66.5,-16 95.5,-16 95.5,-35"/>
<text text-anchor="middle" x="81" y="-23" font-family="Helvetica,sans-Serif" font-size="10.00">os</text>
</a>
</g>
</g>
<!-- dir_0a946831413905238e39a80608042579 -->
<g id="node3" class="node">
<title>dir_0a946831413905238e39a80608042579</title>
<g id="a_node3"><a xlink:href="dir_0a946831413905238e39a80608042579.html" target="_top" xlink:title="gx">
<polygon fill="#edf0f7" stroke="#404040" stroke-width="2" points="70.5,-90 41.5,-90 41.5,-71 70.5,-71 70.5,-90"/>
<text text-anchor="middle" x="56" y="-78" font-family="Helvetica,sans-Serif" font-size="10.00">gx</text>
</a>
</g>
</g>
<!-- dir_0a946831413905238e39a80608042579&#45;&gt;dir_c18583810381222ac4660cab2f94c87b -->
<g id="edge1" class="edge">
<title>dir_0a946831413905238e39a80608042579&#45;&gt;dir_c18583810381222ac4660cab2f94c87b</title>
<path fill="none" stroke="#63b8ff" d="M52.04,-70.75C48.96,-63.96 44.59,-54.3 40.71,-45.73"/>
<polygon fill="#63b8ff" stroke="#63b8ff" points="43.99,-44.49 36.67,-36.82 37.61,-47.37 43.99,-44.49"/>
<g id="a_edge1&#45;headlabel"><a xlink:href="dir_000830_001287.html" target="_top" xlink:title="2">
<text text-anchor="middle" x="47.43" y="-42.71" font-family="Helvetica,sans-Serif" font-size="10.00" fill="#63b8ff">2</text>
</a>
</g>
</g>
<!-- dir_0a946831413905238e39a80608042579&#45;&gt;dir_cae10961887f0d641c054afc85dac474 -->
<g id="edge2" class="edge">
<title>dir_0a946831413905238e39a80608042579&#45;&gt;dir_cae10961887f0d641c054afc85dac474</title>
<path fill="none" stroke="#63b8ff" d="M60.13,-70.75C63.33,-63.96 67.89,-54.3 71.93,-45.73"/>
<polygon fill="#63b8ff" stroke="#63b8ff" points="75.04,-47.35 76.14,-36.81 68.7,-44.36 75.04,-47.35"/>
<g id="a_edge2&#45;headlabel"><a xlink:href="dir_000830_001297.html" target="_top" xlink:title="1">
<text text-anchor="middle" x="76.72" y="-47.94" font-family="Helvetica,sans-Serif" font-size="10.00" fill="#63b8ff">1</text>
</a>
</g>
</g>
</g>
</svg>
