<?xml version="1.0" encoding="UTF-8" standalone="no"?>
<!DOCTYPE svg PUBLIC "-//W3C//DTD SVG 1.1//EN"
 "http://www.w3.org/Graphics/SVG/1.1/DTD/svg11.dtd">
<!-- Generated by graphviz version 7.0.5 (20221223.1930)
 -->
<!-- Title: include/rel/d/a/kytag Pages: 1 -->
<!--zoomable 127 -->
<svg id="main" version="1.1" xmlns="http://www.w3.org/2000/svg" xmlns:xlink="http://www.w3.org/1999/xlink" xml:space="preserve" onload="init(evt)">
<style type="text/css"><![CDATA[
.edge:hover path { stroke: red; }
.edge:hover polygon { stroke: red; fill: red; }
]]></style>
<script type="text/javascript"><![CDATA[
var edges = document.getElementsByTagName('g');
if (edges && edges.length) {
  for (var i=0;i<edges.length;i++) {
    if (edges[i].id.substr(0,4)=='edge') {
      edges[i].setAttribute('class','edge');
    }
  }
}
]]></script>
        <defs>
                <circle id="rim" cx="0" cy="0" r="7"/>
                <circle id="rim2" cx="0" cy="0" r="3.5"/>
                <g id="zoomPlus">
                        <use xlink:href="#rim" fill="#404040">
                                <set attributeName="fill" to="#808080" begin="zoomplus.mouseover" end="zoomplus.mouseout"/>
                        </use>
                        <path d="M-4,0h8M0,-4v8" fill="none" stroke="white" stroke-width="1.5" pointer-events="none"/>
                </g>
                <g id="zoomMin">
                        <use xlink:href="#rim" fill="#404040">
                                <set attributeName="fill" to="#808080" begin="zoomminus.mouseover" end="zoomminus.mouseout"/>
                        </use>
                        <path d="M-4,0h8" fill="none" stroke="white" stroke-width="1.5" pointer-events="none"/>
                </g>
                <g id="dirArrow">
                        <path fill="none" stroke="white" stroke-width="1.5" d="M0,-3.0v7 M-2.5,-0.5L0,-3.0L2.5,-0.5"/>
                </g>
               <g id="resetDef">
                       <use xlink:href="#rim2" fill="#404040">
                               <set attributeName="fill" to="#808080" begin="reset.mouseover" end="reset.mouseout"/>
                       </use>
               </g>
        </defs>

<script type="text/javascript">
var viewWidth = 1699;
var viewHeight = 127;
var sectionId = 'dynsection-0';
</script>
<script xlink:href="svgpan.js"/>
<svg id="graph" class="graph">
<g id="viewport">
<title>include/rel/d/a/kytag</title>
<g id="clust1" class="cluster">
<title>clusterdir_b81c1d082692bb1b2b34ed3bfe8a0f4a</title>
<g id="a_clust1"><a xlink:href="dir_b81c1d082692bb1b2b34ed3bfe8a0f4a.html" target="_top" xlink:title="a">
<polygon fill="#edf0f7" stroke="#7f7f7f" stroke-dasharray="5,2" points="8,-41.01 8,-111.01 1683,-111.01 1683,-41.01 8,-41.01"/>
<text text-anchor="middle" x="845.5" y="-99.01" font-family="Helvetica,sans-Serif" font-size="10.00">a</text>
</a>
</g>
</g>
<g id="clust2" class="cluster">
<title>clusterdir_0188271b7234889ceb40ff7f3efdfaeb</title>
<g id="a_clust2"><a xlink:href="dir_0188271b7234889ceb40ff7f3efdfaeb.html" target="_top">
<polygon fill="#edf0f7" stroke="#404040" stroke-width="2" points="16,-49.01 16,-84.01 1675,-84.01 1675,-49.01 16,-49.01"/>
</a>
</g>
</g>
<!-- dir_0188271b7234889ceb40ff7f3efdfaeb -->
<g id="node1" class="node">
<title>dir_0188271b7234889ceb40ff7f3efdfaeb</title>
<text text-anchor="middle" x="1647" y="-64.01" font-family="Helvetica,sans-Serif" font-size="10.00">kytag</text>
</g>
<!-- dir_af201c903dca8ff72206c4aaebc926e7 -->
<g id="node2" class="node">
<title>dir_af201c903dca8ff72206c4aaebc926e7</title>
<g id="a_node2"><a xlink:href="dir_af201c903dca8ff72206c4aaebc926e7.html" target="_top" xlink:title="d_a_kytag00">
<polygon fill="#a2b4d6" stroke="#404040" points="629.5,-76.01 558.5,-76.01 558.5,-57.01 629.5,-57.01 629.5,-76.01"/>
<text text-anchor="middle" x="594" y="-64.01" font-family="Helvetica,sans-Serif" font-size="10.00">d_a_kytag00</text>
</a>
</g>
</g>
<!-- dir_fbb29e8cafd745cbb7106b56de6b5377 -->
<g id="node22" class="node">
<title>dir_fbb29e8cafd745cbb7106b56de6b5377</title>
<g id="a_node22"><a xlink:href="dir_fbb29e8cafd745cbb7106b56de6b5377.html" target="_top" xlink:title="f_op">
<polygon fill="#edf0f7" stroke="#7f7f7f" points="656.5,-21.01 621.5,-21.01 621.5,-2.01 656.5,-2.01 656.5,-21.01"/>
<text text-anchor="middle" x="639" y="-9.01" font-family="Helvetica,sans-Serif" font-size="10.00">f_op</text>
</a>
</g>
</g>
<!-- dir_af201c903dca8ff72206c4aaebc926e7&#45;&gt;dir_fbb29e8cafd745cbb7106b56de6b5377 -->
<g id="edge1" class="edge">
<title>dir_af201c903dca8ff72206c4aaebc926e7&#45;&gt;dir_fbb29e8cafd745cbb7106b56de6b5377</title>
<path fill="none" stroke="#63b8ff" d="M601.43,-56.76C607.58,-49.52 616.51,-39 624.13,-30.03"/>
<polygon fill="#63b8ff" stroke="#63b8ff" points="626.62,-32.5 630.43,-22.61 621.29,-27.97 626.62,-32.5"/>
<g id="a_edge1&#45;headlabel"><a xlink:href="dir_000187_000812.html" target="_top" xlink:title="1">
<text text-anchor="middle" x="627.44" y="-33.42" font-family="Helvetica,sans-Serif" font-size="10.00" fill="#63b8ff">1</text>
</a>
</g>
</g>
<!-- dir_6b8f4646b0429726e0808aa2a6f9c42f -->
<g id="node3" class="node">
<title>dir_6b8f4646b0429726e0808aa2a6f9c42f</title>
<g id="a_node3"><a xlink:href="dir_6b8f4646b0429726e0808aa2a6f9c42f.html" target="_top" xlink:title="d_a_kytag01">
<polygon fill="#a2b4d6" stroke="#404040" points="1608.5,-76.01 1537.5,-76.01 1537.5,-57.01 1608.5,-57.01 1608.5,-76.01"/>
<text text-anchor="middle" x="1573" y="-64.01" font-family="Helvetica,sans-Serif" font-size="10.00">d_a_kytag01</text>
</a>
</g>
</g>
<!-- dir_b778c3f297ab88300258a2935792c8cc -->
<g id="node20" class="node">
<title>dir_b778c3f297ab88300258a2935792c8cc</title>
<g id="a_node20"><a xlink:href="dir_b778c3f297ab88300258a2935792c8cc.html" target="_top" xlink:title="dolphin">
<polygon fill="#edf0f7" stroke="red" stroke-dasharray="5,2" points="1507.5,-21.01 1460.5,-21.01 1460.5,-2.01 1507.5,-2.01 1507.5,-21.01"/>
<text text-anchor="middle" x="1484" y="-9.01" font-family="Helvetica,sans-Serif" font-size="10.00">dolphin</text>
</a>
</g>
</g>
<!-- dir_6b8f4646b0429726e0808aa2a6f9c42f&#45;&gt;dir_b778c3f297ab88300258a2935792c8cc -->
<g id="edge2" class="edge">
<title>dir_6b8f4646b0429726e0808aa2a6f9c42f&#45;&gt;dir_b778c3f297ab88300258a2935792c8cc</title>
<path fill="none" stroke="#63b8ff" d="M1557.9,-56.52C1544.4,-48.48 1524.35,-36.54 1508.54,-27.13"/>
<polygon fill="#63b8ff" stroke="#63b8ff" points="1510.56,-24.26 1500.18,-22.15 1506.98,-30.27 1510.56,-24.26"/>
<g id="a_edge2&#45;headlabel"><a xlink:href="dir_000188_000786.html" target="_top" xlink:title="1">
<text text-anchor="middle" x="1513.8" y="-20.38" font-family="Helvetica,sans-Serif" font-size="10.00" fill="#63b8ff">1</text>
</a>
</g>
</g>
<!-- dir_fc33d60f6e3a853261ba1741a405b5a3 -->
<g id="node4" class="node">
<title>dir_fc33d60f6e3a853261ba1741a405b5a3</title>
<g id="a_node4"><a xlink:href="dir_fc33d60f6e3a853261ba1741a405b5a3.html" target="_top" xlink:title="d_a_kytag02">
<polygon fill="#a2b4d6" stroke="#404040" points="1341.5,-76.01 1270.5,-76.01 1270.5,-57.01 1341.5,-57.01 1341.5,-76.01"/>
<text text-anchor="middle" x="1306" y="-64.01" font-family="Helvetica,sans-Serif" font-size="10.00">d_a_kytag02</text>
</a>
</g>
</g>
<!-- dir_cc3ad1aed4be3f446fdd7af78322f5bf -->
<g id="node21" class="node">
<title>dir_cc3ad1aed4be3f446fdd7af78322f5bf</title>
<g id="a_node21"><a xlink:href="dir_cc3ad1aed4be3f446fdd7af78322f5bf.html" target="_top" xlink:title="d">
<polygon fill="#edf0f7" stroke="red" stroke-dasharray="5,2" points="1231.5,-21.01 1202.5,-21.01 1202.5,-2.01 1231.5,-2.01 1231.5,-21.01"/>
<text text-anchor="middle" x="1217" y="-9.01" font-family="Helvetica,sans-Serif" font-size="10.00">d</text>
</a>
</g>
</g>
<!-- dir_fc33d60f6e3a853261ba1741a405b5a3&#45;&gt;dir_cc3ad1aed4be3f446fdd7af78322f5bf -->
<g id="edge3" class="edge">
<title>dir_fc33d60f6e3a853261ba1741a405b5a3&#45;&gt;dir_cc3ad1aed4be3f446fdd7af78322f5bf</title>
<path fill="none" stroke="#63b8ff" d="M1290.9,-56.52C1277.4,-48.48 1257.35,-36.54 1241.54,-27.13"/>
<polygon fill="#63b8ff" stroke="#63b8ff" points="1243.56,-24.26 1233.18,-22.15 1239.98,-30.27 1243.56,-24.26"/>
<g id="a_edge3&#45;headlabel"><a xlink:href="dir_000189_000024.html" target="_top" xlink:title="1">
<text text-anchor="middle" x="1246.8" y="-20.38" font-family="Helvetica,sans-Serif" font-size="10.00" fill="#63b8ff">1</text>
</a>
</g>
</g>
<!-- dir_6a647a024fc53292c0732f54bef8ed63 -->
<g id="node5" class="node">
<title>dir_6a647a024fc53292c0732f54bef8ed63</title>
<g id="a_node5"><a xlink:href="dir_6a647a024fc53292c0732f54bef8ed63.html" target="_top" xlink:title="d_a_kytag03">
<polygon fill="#a2b4d6" stroke="#404040" points="1252.5,-76.01 1181.5,-76.01 1181.5,-57.01 1252.5,-57.01 1252.5,-76.01"/>
<text text-anchor="middle" x="1217" y="-64.01" font-family="Helvetica,sans-Serif" font-size="10.00">d_a_kytag03</text>
</a>
</g>
</g>
<!-- dir_6a647a024fc53292c0732f54bef8ed63&#45;&gt;dir_cc3ad1aed4be3f446fdd7af78322f5bf -->
<g id="edge4" class="edge">
<title>dir_6a647a024fc53292c0732f54bef8ed63&#45;&gt;dir_cc3ad1aed4be3f446fdd7af78322f5bf</title>
<path fill="none" stroke="#63b8ff" d="M1217,-56.76C1217,-50.28 1217,-41.18 1217,-32.91"/>
<polygon fill="#63b8ff" stroke="#63b8ff" points="1220.5,-32.97 1217,-22.97 1213.5,-32.97 1220.5,-32.97"/>
<g id="a_edge4&#45;headlabel"><a xlink:href="dir_000190_000024.html" target="_top" xlink:title="1">
<text text-anchor="middle" x="1223.34" y="-32.55" font-family="Helvetica,sans-Serif" font-size="10.00" fill="#63b8ff">1</text>
</a>
</g>
</g>
<!-- dir_6a647a024fc53292c0732f54bef8ed63&#45;&gt;dir_fbb29e8cafd745cbb7106b56de6b5377 -->
<g id="edge5" class="edge">
<title>dir_6a647a024fc53292c0732f54bef8ed63&#45;&gt;dir_fbb29e8cafd745cbb7106b56de6b5377</title>
<path fill="none" stroke="#63b8ff" d="M1204.59,-56.58C1196.13,-51.02 1184.43,-44.31 1173,-41.01 1077.08,-13.36 765.48,-12.05 668.25,-12.35"/>
<polygon fill="#63b8ff" stroke="#63b8ff" points="668.49,-8.84 658.5,-12.38 668.52,-15.84 668.49,-8.84"/>
<g id="a_edge5&#45;headlabel"><a xlink:href="dir_000190_000812.html" target="_top" xlink:title="1">
<text text-anchor="middle" x="670.56" y="-3.5" font-family="Helvetica,sans-Serif" font-size="10.00" fill="#63b8ff">1</text>
</a>
</g>
</g>
<!-- dir_2a066003768bedf20639d378c68fe91a -->
<g id="node6" class="node">
<title>dir_2a066003768bedf20639d378c68fe91a</title>
<g id="a_node6"><a xlink:href="dir_2a066003768bedf20639d378c68fe91a.html" target="_top" xlink:title="d_a_kytag04">
<polygon fill="#a2b4d6" stroke="#404040" points="273.5,-76.01 202.5,-76.01 202.5,-57.01 273.5,-57.01 273.5,-76.01"/>
<text text-anchor="middle" x="238" y="-64.01" font-family="Helvetica,sans-Serif" font-size="10.00">d_a_kytag04</text>
</a>
</g>
</g>
<!-- dir_2a066003768bedf20639d378c68fe91a&#45;&gt;dir_fbb29e8cafd745cbb7106b56de6b5377 -->
<g id="edge6" class="edge">
<title>dir_2a066003768bedf20639d378c68fe91a&#45;&gt;dir_fbb29e8cafd745cbb7106b56de6b5377</title>
<path fill="none" stroke="#63b8ff" d="M250.75,-56.68C259.43,-51.16 271.4,-44.46 283,-41.01 344.08,-22.84 536.6,-15.48 610.09,-13.28"/>
<polygon fill="#63b8ff" stroke="#63b8ff" points="609.81,-16.79 619.71,-13 609.61,-9.79 609.81,-16.79"/>
<g id="a_edge6&#45;headlabel"><a xlink:href="dir_000191_000812.html" target="_top" xlink:title="1">
<text text-anchor="middle" x="607.81" y="-17.19" font-family="Helvetica,sans-Serif" font-size="10.00" fill="#63b8ff">1</text>
</a>
</g>
</g>
<!-- dir_3b91bc27cfbd4787c6a9defe3d0b1751 -->
<g id="node7" class="node">
<title>dir_3b91bc27cfbd4787c6a9defe3d0b1751</title>
<g id="a_node7"><a xlink:href="dir_3b91bc27cfbd4787c6a9defe3d0b1751.html" target="_top" xlink:title="d_a_kytag05">
<polygon fill="#a2b4d6" stroke="#404040" points="184.5,-76.01 113.5,-76.01 113.5,-57.01 184.5,-57.01 184.5,-76.01"/>
<text text-anchor="middle" x="149" y="-64.01" font-family="Helvetica,sans-Serif" font-size="10.00">d_a_kytag05</text>
</a>
</g>
</g>
<!-- dir_3b91bc27cfbd4787c6a9defe3d0b1751&#45;&gt;dir_fbb29e8cafd745cbb7106b56de6b5377 -->
<g id="edge7" class="edge">
<title>dir_3b91bc27cfbd4787c6a9defe3d0b1751&#45;&gt;dir_fbb29e8cafd745cbb7106b56de6b5377</title>
<path fill="none" stroke="#63b8ff" d="M161.73,-56.62C170.4,-51.08 182.38,-44.37 194,-41.01 272.51,-18.33 524.17,-13.68 610,-12.74"/>
<polygon fill="#63b8ff" stroke="#63b8ff" points="609.94,-16.24 619.91,-12.65 609.87,-9.24 609.94,-16.24"/>
<g id="a_edge7&#45;headlabel"><a xlink:href="dir_000192_000812.html" target="_top" xlink:title="1">
<text text-anchor="middle" x="607.89" y="-16.6" font-family="Helvetica,sans-Serif" font-size="10.00" fill="#63b8ff">1</text>
</a>
</g>
</g>
<!-- dir_9fbcde0a543e02e10ecf440a678bb1e6 -->
<g id="node8" class="node">
<title>dir_9fbcde0a543e02e10ecf440a678bb1e6</title>
<g id="a_node8"><a xlink:href="dir_9fbcde0a543e02e10ecf440a678bb1e6.html" target="_top" xlink:title="d_a_kytag06">
<polygon fill="#a2b4d6" stroke="#404040" points="1163.5,-76.01 1092.5,-76.01 1092.5,-57.01 1163.5,-57.01 1163.5,-76.01"/>
<text text-anchor="middle" x="1128" y="-64.01" font-family="Helvetica,sans-Serif" font-size="10.00">d_a_kytag06</text>
</a>
</g>
</g>
<!-- dir_9fbcde0a543e02e10ecf440a678bb1e6&#45;&gt;dir_cc3ad1aed4be3f446fdd7af78322f5bf -->
<g id="edge8" class="edge">
<title>dir_9fbcde0a543e02e10ecf440a678bb1e6&#45;&gt;dir_cc3ad1aed4be3f446fdd7af78322f5bf</title>
<path fill="none" stroke="#63b8ff" d="M1143.1,-56.52C1156.6,-48.48 1176.65,-36.54 1192.46,-27.13"/>
<polygon fill="#63b8ff" stroke="#63b8ff" points="1194.02,-30.27 1200.82,-22.15 1190.44,-24.26 1194.02,-30.27"/>
<g id="a_edge8&#45;headlabel"><a xlink:href="dir_000193_000024.html" target="_top" xlink:title="1">
<text text-anchor="middle" x="1193.69" y="-31.27" font-family="Helvetica,sans-Serif" font-size="10.00" fill="#63b8ff">1</text>
</a>
</g>
</g>
<!-- dir_9fbcde0a543e02e10ecf440a678bb1e6&#45;&gt;dir_fbb29e8cafd745cbb7106b56de6b5377 -->
<g id="edge9" class="edge">
<title>dir_9fbcde0a543e02e10ecf440a678bb1e6&#45;&gt;dir_fbb29e8cafd745cbb7106b56de6b5377</title>
<path fill="none" stroke="#63b8ff" d="M1115.58,-56.62C1107.11,-51.07 1095.41,-44.37 1084,-41.01 1005.6,-17.96 753.87,-13.55 668.01,-12.71"/>
<polygon fill="#63b8ff" stroke="#63b8ff" points="668.13,-9.21 658.1,-12.62 668.07,-16.21 668.13,-9.21"/>
<g id="a_edge9&#45;headlabel"><a xlink:href="dir_000193_000812.html" target="_top" xlink:title="1">
<text text-anchor="middle" x="670.24" y="-3.89" font-family="Helvetica,sans-Serif" font-size="10.00" fill="#63b8ff">1</text>
</a>
</g>
</g>
<!-- dir_de88266b4f0695a051deb79163b6d6e3 -->
<g id="node9" class="node">
<title>dir_de88266b4f0695a051deb79163b6d6e3</title>
<g id="a_node9"><a xlink:href="dir_de88266b4f0695a051deb79163b6d6e3.html" target="_top" xlink:title="d_a_kytag07">
<polygon fill="#a2b4d6" stroke="#404040" points="1074.5,-76.01 1003.5,-76.01 1003.5,-57.01 1074.5,-57.01 1074.5,-76.01"/>
<text text-anchor="middle" x="1039" y="-64.01" font-family="Helvetica,sans-Serif" font-size="10.00">d_a_kytag07</text>
</a>
</g>
</g>
<!-- dir_de88266b4f0695a051deb79163b6d6e3&#45;&gt;dir_fbb29e8cafd745cbb7106b56de6b5377 -->
<g id="edge10" class="edge">
<title>dir_de88266b4f0695a051deb79163b6d6e3&#45;&gt;dir_fbb29e8cafd745cbb7106b56de6b5377</title>
<path fill="none" stroke="#63b8ff" d="M1026.56,-56.68C1018.09,-51.16 1006.38,-44.46 995,-41.01 934.01,-22.55 741.44,-15.36 667.92,-13.25"/>
<polygon fill="#63b8ff" stroke="#63b8ff" points="668.39,-9.76 658.3,-12.98 668.2,-16.76 668.39,-9.76"/>
<g id="a_edge10&#45;headlabel"><a xlink:href="dir_000194_000812.html" target="_top" xlink:title="1">
<text text-anchor="middle" x="670.55" y="-4.48" font-family="Helvetica,sans-Serif" font-size="10.00" fill="#63b8ff">1</text>
</a>
</g>
</g>
<!-- dir_6a925a08d6a2ce037e5265858deadef4 -->
<g id="node10" class="node">
<title>dir_6a925a08d6a2ce037e5265858deadef4</title>
<g id="a_node10"><a xlink:href="dir_6a925a08d6a2ce037e5265858deadef4.html" target="_top" xlink:title="d_a_kytag08">
<polygon fill="#a2b4d6" stroke="#404040" points="985.5,-76.01 914.5,-76.01 914.5,-57.01 985.5,-57.01 985.5,-76.01"/>
<text text-anchor="middle" x="950" y="-64.01" font-family="Helvetica,sans-Serif" font-size="10.00">d_a_kytag08</text>
</a>
</g>
</g>
<!-- dir_6a925a08d6a2ce037e5265858deadef4&#45;&gt;dir_fbb29e8cafd745cbb7106b56de6b5377 -->
<g id="edge11" class="edge">
<title>dir_6a925a08d6a2ce037e5265858deadef4&#45;&gt;dir_fbb29e8cafd745cbb7106b56de6b5377</title>
<path fill="none" stroke="#63b8ff" d="M937.15,-56.54C928.7,-51.1 917.17,-44.56 906,-41.01 822.67,-14.58 718.14,-11.58 668.19,-11.87"/>
<polygon fill="#63b8ff" stroke="#63b8ff" points="668.47,-8.36 658.51,-11.98 668.55,-15.36 668.47,-8.36"/>
<g id="a_edge11&#45;headlabel"><a xlink:href="dir_000195_000812.html" target="_top" xlink:title="1">
<text text-anchor="middle" x="670.52" y="-3" font-family="Helvetica,sans-Serif" font-size="10.00" fill="#63b8ff">1</text>
</a>
</g>
</g>
<!-- dir_198275cb1b3561051f6257679c087dd0 -->
<g id="node11" class="node">
<title>dir_198275cb1b3561051f6257679c087dd0</title>
<g id="a_node11"><a xlink:href="dir_198275cb1b3561051f6257679c087dd0.html" target="_top" xlink:title="d_a_kytag09">
<polygon fill="#a2b4d6" stroke="#404040" points="896.5,-76.01 825.5,-76.01 825.5,-57.01 896.5,-57.01 896.5,-76.01"/>
<text text-anchor="middle" x="861" y="-64.01" font-family="Helvetica,sans-Serif" font-size="10.00">d_a_kytag09</text>
</a>
</g>
</g>
<!-- dir_198275cb1b3561051f6257679c087dd0&#45;&gt;dir_fbb29e8cafd745cbb7106b56de6b5377 -->
<g id="edge12" class="edge">
<title>dir_198275cb1b3561051f6257679c087dd0&#45;&gt;dir_fbb29e8cafd745cbb7106b56de6b5377</title>
<path fill="none" stroke="#63b8ff" d="M848.09,-56.74C839.61,-51.38 828.07,-44.85 817,-41.01 766.39,-23.48 703.89,-16.65 668.02,-14.05"/>
<polygon fill="#63b8ff" stroke="#63b8ff" points="668.65,-10.59 658.44,-13.42 668.19,-17.57 668.65,-10.59"/>
<g id="a_edge12&#45;headlabel"><a xlink:href="dir_000196_000812.html" target="_top" xlink:title="1">
<text text-anchor="middle" x="670.91" y="-5.39" font-family="Helvetica,sans-Serif" font-size="10.00" fill="#63b8ff">1</text>
</a>
</g>
</g>
<!-- dir_dc9d1e168b3541e7f935377de8ffc699 -->
<g id="node12" class="node">
<title>dir_dc9d1e168b3541e7f935377de8ffc699</title>
<g id="a_node12"><a xlink:href="dir_dc9d1e168b3541e7f935377de8ffc699.html" target="_top" xlink:title="d_a_kytag10">
<polygon fill="#a2b4d6" stroke="#404040" points="807.5,-76.01 736.5,-76.01 736.5,-57.01 807.5,-57.01 807.5,-76.01"/>
<text text-anchor="middle" x="772" y="-64.01" font-family="Helvetica,sans-Serif" font-size="10.00">d_a_kytag10</text>
</a>
</g>
</g>
<!-- dir_dc9d1e168b3541e7f935377de8ffc699&#45;&gt;dir_fbb29e8cafd745cbb7106b56de6b5377 -->
<g id="edge13" class="edge">
<title>dir_dc9d1e168b3541e7f935377de8ffc699&#45;&gt;dir_fbb29e8cafd745cbb7106b56de6b5377</title>
<path fill="none" stroke="#63b8ff" d="M757.7,-56.6C749.27,-51.59 738.27,-45.46 728,-41.01 708.43,-32.53 685.5,-25.25 667.81,-20.17"/>
<polygon fill="#63b8ff" stroke="#63b8ff" points="668.8,-16.81 658.23,-17.49 666.92,-23.55 668.8,-16.81"/>
<g id="a_edge13&#45;headlabel"><a xlink:href="dir_000197_000812.html" target="_top" xlink:title="1">
<text text-anchor="middle" x="671.57" y="-12.13" font-family="Helvetica,sans-Serif" font-size="10.00" fill="#63b8ff">1</text>
</a>
</g>
</g>
<!-- dir_ad260f6d49ee6c01c5c2cb31131ad48e -->
<g id="node13" class="node">
<title>dir_ad260f6d49ee6c01c5c2cb31131ad48e</title>
<g id="a_node13"><a xlink:href="dir_ad260f6d49ee6c01c5c2cb31131ad48e.html" target="_top" xlink:title="d_a_kytag11">
<polygon fill="#a2b4d6" stroke="#404040" points="718.5,-76.01 647.5,-76.01 647.5,-57.01 718.5,-57.01 718.5,-76.01"/>
<text text-anchor="middle" x="683" y="-64.01" font-family="Helvetica,sans-Serif" font-size="10.00">d_a_kytag11</text>
</a>
</g>
</g>
<!-- dir_ad260f6d49ee6c01c5c2cb31131ad48e&#45;&gt;dir_fbb29e8cafd745cbb7106b56de6b5377 -->
<g id="edge14" class="edge">
<title>dir_ad260f6d49ee6c01c5c2cb31131ad48e&#45;&gt;dir_fbb29e8cafd745cbb7106b56de6b5377</title>
<path fill="none" stroke="#63b8ff" d="M675.73,-56.76C669.72,-49.52 660.99,-39 653.54,-30.03"/>
<polygon fill="#63b8ff" stroke="#63b8ff" points="656.47,-28.08 647.39,-22.62 651.08,-32.55 656.47,-28.08"/>
<g id="a_edge14&#45;headlabel"><a xlink:href="dir_000198_000812.html" target="_top" xlink:title="1">
<text text-anchor="middle" x="659.98" y="-25.37" font-family="Helvetica,sans-Serif" font-size="10.00" fill="#63b8ff">1</text>
</a>
</g>
</g>
<!-- dir_1d5a8738a1bcb9d61afa5c82e9adebf8 -->
<g id="node14" class="node">
<title>dir_1d5a8738a1bcb9d61afa5c82e9adebf8</title>
<g id="a_node14"><a xlink:href="dir_1d5a8738a1bcb9d61afa5c82e9adebf8.html" target="_top" xlink:title="d_a_kytag12">
<polygon fill="#a2b4d6" stroke="#404040" points="1430.5,-76.01 1359.5,-76.01 1359.5,-57.01 1430.5,-57.01 1430.5,-76.01"/>
<text text-anchor="middle" x="1395" y="-64.01" font-family="Helvetica,sans-Serif" font-size="10.00">d_a_kytag12</text>
</a>
</g>
</g>
<!-- dir_1d5a8738a1bcb9d61afa5c82e9adebf8&#45;&gt;dir_b778c3f297ab88300258a2935792c8cc -->
<g id="edge15" class="edge">
<title>dir_1d5a8738a1bcb9d61afa5c82e9adebf8&#45;&gt;dir_b778c3f297ab88300258a2935792c8cc</title>
<path fill="none" stroke="#63b8ff" d="M1410.1,-56.52C1423.6,-48.48 1443.65,-36.54 1459.46,-27.13"/>
<polygon fill="#63b8ff" stroke="#63b8ff" points="1461.02,-30.27 1467.82,-22.15 1457.44,-24.26 1461.02,-30.27"/>
<g id="a_edge15&#45;headlabel"><a xlink:href="dir_000199_000786.html" target="_top" xlink:title="1">
<text text-anchor="middle" x="1460.69" y="-31.27" font-family="Helvetica,sans-Serif" font-size="10.00" fill="#63b8ff">1</text>
</a>
</g>
</g>
<!-- dir_139e629c882e6ce460faee8c17f5b482 -->
<g id="node15" class="node">
<title>dir_139e629c882e6ce460faee8c17f5b482</title>
<g id="a_node15"><a xlink:href="dir_139e629c882e6ce460faee8c17f5b482.html" target="_top" xlink:title="d_a_kytag13">
<polygon fill="#a2b4d6" stroke="#404040" points="1519.5,-76.01 1448.5,-76.01 1448.5,-57.01 1519.5,-57.01 1519.5,-76.01"/>
<text text-anchor="middle" x="1484" y="-64.01" font-family="Helvetica,sans-Serif" font-size="10.00">d_a_kytag13</text>
</a>
</g>
</g>
<!-- dir_139e629c882e6ce460faee8c17f5b482&#45;&gt;dir_b778c3f297ab88300258a2935792c8cc -->
<g id="edge16" class="edge">
<title>dir_139e629c882e6ce460faee8c17f5b482&#45;&gt;dir_b778c3f297ab88300258a2935792c8cc</title>
<path fill="none" stroke="#63b8ff" d="M1484,-56.76C1484,-50.28 1484,-41.18 1484,-32.91"/>
<polygon fill="#63b8ff" stroke="#63b8ff" points="1487.5,-32.97 1484,-22.97 1480.5,-32.97 1487.5,-32.97"/>
<g id="a_edge16&#45;headlabel"><a xlink:href="dir_000200_000786.html" target="_top" xlink:title="1">
<text text-anchor="middle" x="1490.34" y="-32.55" font-family="Helvetica,sans-Serif" font-size="10.00" fill="#63b8ff">1</text>
</a>
</g>
</g>
<!-- dir_e68a59d76d6b31944bf3accf3b40cdca -->
<g id="node16" class="node">
<title>dir_e68a59d76d6b31944bf3accf3b40cdca</title>
<g id="a_node16"><a xlink:href="dir_e68a59d76d6b31944bf3accf3b40cdca.html" target="_top" xlink:title="d_a_kytag14">
<polygon fill="#a2b4d6" stroke="#404040" points="362.5,-76.01 291.5,-76.01 291.5,-57.01 362.5,-57.01 362.5,-76.01"/>
<text text-anchor="middle" x="327" y="-64.01" font-family="Helvetica,sans-Serif" font-size="10.00">d_a_kytag14</text>
</a>
</g>
</g>
<!-- dir_e68a59d76d6b31944bf3accf3b40cdca&#45;&gt;dir_fbb29e8cafd745cbb7106b56de6b5377 -->
<g id="edge17" class="edge">
<title>dir_e68a59d76d6b31944bf3accf3b40cdca&#45;&gt;dir_fbb29e8cafd745cbb7106b56de6b5377</title>
<path fill="none" stroke="#63b8ff" d="M340.17,-56.54C348.83,-51.11 360.62,-44.56 372,-41.01 455.28,-15.03 559.48,-11.8 609.52,-11.95"/>
<polygon fill="#63b8ff" stroke="#63b8ff" points="609.48,-15.45 619.51,-12.03 609.54,-8.45 609.48,-15.45"/>
<g id="a_edge17&#45;headlabel"><a xlink:href="dir_000201_000812.html" target="_top" xlink:title="1">
<text text-anchor="middle" x="607.37" y="-15.77" font-family="Helvetica,sans-Serif" font-size="10.00" fill="#63b8ff">1</text>
</a>
</g>
</g>
<!-- dir_7a8dc24d864bc38da80b9e7179907ca2 -->
<g id="node17" class="node">
<title>dir_7a8dc24d864bc38da80b9e7179907ca2</title>
<g id="a_node17"><a xlink:href="dir_7a8dc24d864bc38da80b9e7179907ca2.html" target="_top" xlink:title="d_a_kytag15">
<polygon fill="#a2b4d6" stroke="#404040" points="95.5,-76.01 24.5,-76.01 24.5,-57.01 95.5,-57.01 95.5,-76.01"/>
<text text-anchor="middle" x="60" y="-64.01" font-family="Helvetica,sans-Serif" font-size="10.00">d_a_kytag15</text>
</a>
</g>
</g>
<!-- dir_7a8dc24d864bc38da80b9e7179907ca2&#45;&gt;dir_fbb29e8cafd745cbb7106b56de6b5377 -->
<g id="edge18" class="edge">
<title>dir_7a8dc24d864bc38da80b9e7179907ca2&#45;&gt;dir_fbb29e8cafd745cbb7106b56de6b5377</title>
<path fill="none" stroke="#63b8ff" d="M72.72,-56.58C81.39,-51.02 93.36,-44.31 105,-41.01 201.05,-13.81 512.56,-12.2 609.76,-12.38"/>
<polygon fill="#63b8ff" stroke="#63b8ff" points="609.49,-15.88 619.5,-12.41 609.51,-8.88 609.49,-15.88"/>
<g id="a_edge18&#45;headlabel"><a xlink:href="dir_000202_000812.html" target="_top" xlink:title="1">
<text text-anchor="middle" x="607.41" y="-16.21" font-family="Helvetica,sans-Serif" font-size="10.00" fill="#63b8ff">1</text>
</a>
</g>
</g>
<!-- dir_4529703159d8123a81fb86f391384af0 -->
<g id="node18" class="node">
<title>dir_4529703159d8123a81fb86f391384af0</title>
<g id="a_node18"><a xlink:href="dir_4529703159d8123a81fb86f391384af0.html" target="_top" xlink:title="d_a_kytag16">
<polygon fill="#a2b4d6" stroke="#404040" points="540.5,-76.01 469.5,-76.01 469.5,-57.01 540.5,-57.01 540.5,-76.01"/>
<text text-anchor="middle" x="505" y="-64.01" font-family="Helvetica,sans-Serif" font-size="10.00">d_a_kytag16</text>
</a>
</g>
</g>
<!-- dir_4529703159d8123a81fb86f391384af0&#45;&gt;dir_fbb29e8cafd745cbb7106b56de6b5377 -->
<g id="edge19" class="edge">
<title>dir_4529703159d8123a81fb86f391384af0&#45;&gt;dir_fbb29e8cafd745cbb7106b56de6b5377</title>
<path fill="none" stroke="#63b8ff" d="M519.65,-56.62C528.28,-51.62 539.53,-45.49 550,-41.01 569.61,-32.63 592.54,-25.34 610.22,-20.23"/>
<polygon fill="#63b8ff" stroke="#63b8ff" points="611.11,-23.62 619.79,-17.54 609.22,-16.88 611.11,-23.62"/>
<g id="a_edge19&#45;headlabel"><a xlink:href="dir_000203_000812.html" target="_top" xlink:title="1">
<text text-anchor="middle" x="609.88" y="-24.41" font-family="Helvetica,sans-Serif" font-size="10.00" fill="#63b8ff">1</text>
</a>
</g>
</g>
<!-- dir_b40f887bcf29b24a34521c5aaba70175 -->
<g id="node19" class="node">
<title>dir_b40f887bcf29b24a34521c5aaba70175</title>
<g id="a_node19"><a xlink:href="dir_b40f887bcf29b24a34521c5aaba70175.html" target="_top" xlink:title="d_a_kytag17">
<polygon fill="#a2b4d6" stroke="#404040" points="451.5,-76.01 380.5,-76.01 380.5,-57.01 451.5,-57.01 451.5,-76.01"/>
<text text-anchor="middle" x="416" y="-64.01" font-family="Helvetica,sans-Serif" font-size="10.00">d_a_kytag17</text>
</a>
</g>
</g>
<!-- dir_b40f887bcf29b24a34521c5aaba70175&#45;&gt;dir_fbb29e8cafd745cbb7106b56de6b5377 -->
<g id="edge20" class="edge">
<title>dir_b40f887bcf29b24a34521c5aaba70175&#45;&gt;dir_fbb29e8cafd745cbb7106b56de6b5377</title>
<path fill="none" stroke="#63b8ff" d="M429.23,-56.75C437.92,-51.39 449.72,-44.86 461,-41.01 511.7,-23.72 574.17,-16.81 610.01,-14.13"/>
<polygon fill="#63b8ff" stroke="#63b8ff" points="609.84,-17.65 619.58,-13.48 609.36,-10.67 609.84,-17.65"/>
<g id="a_edge20&#45;headlabel"><a xlink:href="dir_000204_000812.html" target="_top" xlink:title="1">
<text text-anchor="middle" x="607.96" y="-18.13" font-family="Helvetica,sans-Serif" font-size="10.00" fill="#63b8ff">1</text>
</a>
</g>
</g>
</g>
</svg>
        <g id="navigator" transform="translate(0 0)" fill="#404254">
                <rect fill="#f2f5e9" fill-opacity="0.5" stroke="#606060" stroke-width=".5" x="0" y="0" width="60" height="60"/>
                <use id="zoomplus" xlink:href="#zoomPlus" x="17" y="9" onmousedown="handleZoom(evt,'in')"/>
                <use id="zoomminus" xlink:href="#zoomMin" x="42" y="9" onmousedown="handleZoom(evt,'out')"/>
                <use id="reset" xlink:href="#resetDef" x="30" y="36" onmousedown="handleReset()"/>
                <g id="arrowUp" xlink:href="#dirArrow" transform="translate(30 24)" onmousedown="handlePan(0,-1)">
                  <use xlink:href="#rim" fill="#404040">
                        <set attributeName="fill" to="#808080" begin="arrowUp.mouseover" end="arrowUp.mouseout"/>
                  </use>
                  <path fill="none" stroke="white" stroke-width="1.5" d="M0,-3.0v7 M-2.5,-0.5L0,-3.0L2.5,-0.5"/>
                </g>
                <g id="arrowRight" xlink:href="#dirArrow" transform="rotate(90) translate(36 -43)" onmousedown="handlePan(1,0)">
                  <use xlink:href="#rim" fill="#404040">
                        <set attributeName="fill" to="#808080" begin="arrowRight.mouseover" end="arrowRight.mouseout"/>
                  </use>
                  <path fill="none" stroke="white" stroke-width="1.5" d="M0,-3.0v7 M-2.5,-0.5L0,-3.0L2.5,-0.5"/>
                </g>
                <g id="arrowDown" xlink:href="#dirArrow" transform="rotate(180) translate(-30 -48)" onmousedown="handlePan(0,1)">
                  <use xlink:href="#rim" fill="#404040">
                        <set attributeName="fill" to="#808080" begin="arrowDown.mouseover" end="arrowDown.mouseout"/>
                  </use>
                  <path fill="none" stroke="white" stroke-width="1.5" d="M0,-3.0v7 M-2.5,-0.5L0,-3.0L2.5,-0.5"/>
                </g>
                <g id="arrowLeft" xlink:href="#dirArrow" transform="rotate(270) translate(-36 17)" onmousedown="handlePan(-1,0)">
                  <use xlink:href="#rim" fill="#404040">
                        <set attributeName="fill" to="#808080" begin="arrowLeft.mouseover" end="arrowLeft.mouseout"/>
                  </use>
                  <path fill="none" stroke="white" stroke-width="1.5" d="M0,-3.0v7 M-2.5,-0.5L0,-3.0L2.5,-0.5"/>
                </g>
        </g>
        <svg viewBox="0 0 15 15" width="100%" height="30px" preserveAspectRatio="xMaxYMin meet">
         <g id="arrow_out" transform="scale(0.3 0.3)">
          <a xlink:href="dir_0188271b7234889ceb40ff7f3efdfaeb_dep_org.svg" target="_base">
           <rect id="button" ry="5" rx="5" y="6" x="6" height="38" width="38"
                fill="#f2f5e9" fill-opacity="0.5" stroke="#606060" stroke-width="1.0"/>
           <path id="arrow"
             d="M 11.500037,31.436501 C 11.940474,20.09759 22.043105,11.32322 32.158766,21.979434 L 37.068811,17.246167 C 37.068811,17.246167 37.088388,32 37.088388,32 L 22.160133,31.978069 C 22.160133,31.978069 26.997745,27.140456 26.997745,27.140456 C 18.528582,18.264221 13.291696,25.230495 11.500037,31.436501 z"
             style="fill:#404040;"/>
          </a>
         </g>
        </svg>
</svg>
