<?xml version="1.0" encoding="UTF-8" standalone="no"?>
<!DOCTYPE svg PUBLIC "-//W3C//DTD SVG 1.1//EN"
 "http://www.w3.org/Graphics/SVG/1.1/DTD/svg11.dtd">
<!-- Generated by graphviz version 7.0.5 (20221223.1930)
 -->
<!-- Title: include/rel/d/a/d_a_guard_mng Pages: 1 -->
<svg width="229pt" height="133pt"
 viewBox="0.00 0.00 228.50 133.00" xmlns="http://www.w3.org/2000/svg" xmlns:xlink="http://www.w3.org/1999/xlink">
<g id="graph0" class="graph" transform="scale(1 1) rotate(0) translate(4 129)">
<title>include/rel/d/a/d_a_guard_mng</title>
<g id="clust1" class="cluster">
<title>clusterdir_b81c1d082692bb1b2b34ed3bfe8a0f4a</title>
<g id="a_clust1"><a xlink:href="dir_b81c1d082692bb1b2b34ed3bfe8a0f4a.html" target="_top" xlink:title="a">
<polygon fill="#edf0f7" stroke="#7f7f7f" stroke-dasharray="5,2" points="8,-8 8,-117 110,-117 110,-8 8,-8"/>
<text text-anchor="middle" x="59" y="-105" font-family="Helvetica,sans-Serif" font-size="10.00">a</text>
</a>
</g>
</g>
<!-- dir_11e88f145dc2b5c9e0cddac7e74def83 -->
<g id="node1" class="node">
<title>dir_11e88f145dc2b5c9e0cddac7e74def83</title>
<g id="a_node1"><a xlink:href="dir_11e88f145dc2b5c9e0cddac7e74def83.html" target="_top" xlink:title="tag">
<polygon fill="#a2b4d6" stroke="red" points="74,-35 44,-35 44,-16 74,-16 74,-35"/>
<text text-anchor="middle" x="59" y="-23" font-family="Helvetica,sans-Serif" font-size="10.00">tag</text>
</a>
</g>
</g>
<!-- dir_16b1b1920d9b9f3fa15404f395df93c3 -->
<g id="node2" class="node">
<title>dir_16b1b1920d9b9f3fa15404f395df93c3</title>
<g id="a_node2"><a xlink:href="dir_16b1b1920d9b9f3fa15404f395df93c3.html" target="_top" xlink:title="d_a_guard_mng">
<polygon fill="#edf0f7" stroke="#404040" stroke-width="2" points="102,-90 16,-90 16,-71 102,-71 102,-90"/>
<text text-anchor="middle" x="59" y="-78" font-family="Helvetica,sans-Serif" font-size="10.00">d_a_guard_mng</text>
</a>
</g>
</g>
<!-- dir_16b1b1920d9b9f3fa15404f395df93c3&#45;&gt;dir_11e88f145dc2b5c9e0cddac7e74def83 -->
<g id="edge1" class="edge">
<title>dir_16b1b1920d9b9f3fa15404f395df93c3&#45;&gt;dir_11e88f145dc2b5c9e0cddac7e74def83</title>
<path fill="none" stroke="#63b8ff" d="M59,-70.75C59,-64.27 59,-55.16 59,-46.9"/>
<polygon fill="#63b8ff" stroke="#63b8ff" points="62.5,-46.96 59,-36.96 55.5,-46.96 62.5,-46.96"/>
<g id="a_edge1&#45;headlabel"><a xlink:href="dir_000181_001729.html" target="_top" xlink:title="1">
<text text-anchor="middle" x="65.34" y="-46.54" font-family="Helvetica,sans-Serif" font-size="10.00" fill="#63b8ff">1</text>
</a>
</g>
</g>
<!-- dir_4f0979a7f5e3194619cde56505e372d8 -->
<g id="node3" class="node">
<title>dir_4f0979a7f5e3194619cde56505e372d8</title>
<g id="a_node3"><a xlink:href="dir_4f0979a7f5e3194619cde56505e372d8.html" target="_top" xlink:title="JSystem">
<polygon fill="#edf0f7" stroke="red" stroke-dasharray="5,2" points="173.5,-35 118.5,-35 118.5,-16 173.5,-16 173.5,-35"/>
<text text-anchor="middle" x="146" y="-23" font-family="Helvetica,sans-Serif" font-size="10.00">JSystem</text>
</a>
</g>
</g>
<!-- dir_16b1b1920d9b9f3fa15404f395df93c3&#45;&gt;dir_4f0979a7f5e3194619cde56505e372d8 -->
<g id="edge2" class="edge">
<title>dir_16b1b1920d9b9f3fa15404f395df93c3&#45;&gt;dir_4f0979a7f5e3194619cde56505e372d8</title>
<path fill="none" stroke="#63b8ff" d="M73.76,-70.51C86.96,-62.47 106.56,-50.53 122.01,-41.11"/>
<polygon fill="#63b8ff" stroke="#63b8ff" points="123.45,-44.34 130.17,-36.15 119.81,-38.36 123.45,-44.34"/>
<g id="a_edge2&#45;headlabel"><a xlink:href="dir_000181_000871.html" target="_top" xlink:title="1">
<text text-anchor="middle" x="123.15" y="-45.34" font-family="Helvetica,sans-Serif" font-size="10.00" fill="#63b8ff">1</text>
</a>
</g>
</g>
<!-- dir_cc3ad1aed4be3f446fdd7af78322f5bf -->
<g id="node4" class="node">
<title>dir_cc3ad1aed4be3f446fdd7af78322f5bf</title>
<g id="a_node4"><a xlink:href="dir_cc3ad1aed4be3f446fdd7af78322f5bf.html" target="_top" xlink:title="d">
<polygon fill="#edf0f7" stroke="red" stroke-dasharray="5,2" points="220.5,-35 191.5,-35 191.5,-16 220.5,-16 220.5,-35"/>
<text text-anchor="middle" x="206" y="-23" font-family="Helvetica,sans-Serif" font-size="10.00">d</text>
</a>
</g>
</g>
<!-- dir_16b1b1920d9b9f3fa15404f395df93c3&#45;&gt;dir_cc3ad1aed4be3f446fdd7af78322f5bf -->
<g id="edge3" class="edge">
<title>dir_16b1b1920d9b9f3fa15404f395df93c3&#45;&gt;dir_cc3ad1aed4be3f446fdd7af78322f5bf</title>
<path fill="none" stroke="#63b8ff" d="M84.2,-70.54C107.21,-62.33 142.44,-49.73 181,-35.71"/>
<polygon fill="#63b8ff" stroke="#63b8ff" points="181.79,-39.15 189.98,-32.43 179.39,-32.57 181.79,-39.15"/>
<g id="a_edge3&#45;headlabel"><a xlink:href="dir_000181_000024.html" target="_top" xlink:title="2">
<text text-anchor="middle" x="180.8" y="-40.03" font-family="Helvetica,sans-Serif" font-size="10.00" fill="#63b8ff">2</text>
</a>
</g>
</g>
</g>
</svg>
