<?xml version="1.0" encoding="UTF-8" standalone="no"?>
<!DOCTYPE svg PUBLIC "-//W3C//DTD SVG 1.1//EN"
 "http://www.w3.org/Graphics/SVG/1.1/DTD/svg11.dtd">
<!-- Generated by graphviz version 7.0.5 (20221223.1930)
 -->
<!-- Title: include/JSystem/JMessage Pages: 1 -->
<svg width="212pt" height="133pt"
 viewBox="0.00 0.00 211.50 133.00" xmlns="http://www.w3.org/2000/svg" xmlns:xlink="http://www.w3.org/1999/xlink">
<g id="graph0" class="graph" transform="scale(1 1) rotate(0) translate(4 129)">
<title>include/JSystem/JMessage</title>
<g id="clust1" class="cluster">
<title>clusterdir_4f0979a7f5e3194619cde56505e372d8</title>
<g id="a_clust1"><a xlink:href="dir_4f0979a7f5e3194619cde56505e372d8.html" target="_top" xlink:title="JSystem">
<polygon fill="#edf0f7" stroke="#7f7f7f" stroke-dasharray="5,2" points="8,-8 8,-117 146,-117 146,-8 8,-8"/>
<text text-anchor="middle" x="77" y="-105" font-family="Helvetica,sans-Serif" font-size="10.00">JSystem</text>
</a>
</g>
</g>
<!-- dir_2adf73cd42e23ea1cf49f138568984bb -->
<g id="node1" class="node">
<title>dir_2adf73cd42e23ea1cf49f138568984bb</title>
<g id="a_node1"><a xlink:href="dir_2adf73cd42e23ea1cf49f138568984bb.html" target="_top" xlink:title="JGadget">
<polygon fill="#a2b4d6" stroke="#404040" points="69.5,-35 16.5,-35 16.5,-16 69.5,-16 69.5,-35"/>
<text text-anchor="middle" x="43" y="-23" font-family="Helvetica,sans-Serif" font-size="10.00">JGadget</text>
</a>
</g>
</g>
<!-- dir_ddc9133ecf11e60602f1406a8bd2a6d3 -->
<g id="node2" class="node">
<title>dir_ddc9133ecf11e60602f1406a8bd2a6d3</title>
<g id="a_node2"><a xlink:href="dir_ddc9133ecf11e60602f1406a8bd2a6d3.html" target="_top" xlink:title="JStudio">
<polygon fill="#a2b4d6" stroke="red" points="138,-35 88,-35 88,-16 138,-16 138,-35"/>
<text text-anchor="middle" x="113" y="-23" font-family="Helvetica,sans-Serif" font-size="10.00">JStudio</text>
</a>
</g>
</g>
<!-- dir_49a47a08903d444eb2abc0c220e49786 -->
<g id="node3" class="node">
<title>dir_49a47a08903d444eb2abc0c220e49786</title>
<g id="a_node3"><a xlink:href="dir_49a47a08903d444eb2abc0c220e49786.html" target="_top" xlink:title="JMessage">
<polygon fill="#edf0f7" stroke="#404040" stroke-width="2" points="138,-90 76,-90 76,-71 138,-71 138,-90"/>
<text text-anchor="middle" x="107" y="-78" font-family="Helvetica,sans-Serif" font-size="10.00">JMessage</text>
</a>
</g>
</g>
<!-- dir_49a47a08903d444eb2abc0c220e49786&#45;&gt;dir_2adf73cd42e23ea1cf49f138568984bb -->
<g id="edge1" class="edge">
<title>dir_49a47a08903d444eb2abc0c220e49786&#45;&gt;dir_2adf73cd42e23ea1cf49f138568984bb</title>
<path fill="none" stroke="#63b8ff" d="M96.14,-70.51C86.89,-62.85 73.38,-51.66 62.29,-42.47"/>
<polygon fill="#63b8ff" stroke="#63b8ff" points="64.8,-40.01 54.86,-36.32 60.33,-45.4 64.8,-40.01"/>
<g id="a_edge1&#45;headlabel"><a xlink:href="dir_000853_000847.html" target="_top" xlink:title="2">
<text text-anchor="middle" x="68.21" y="-36.65" font-family="Helvetica,sans-Serif" font-size="10.00" fill="#63b8ff">2</text>
</a>
</g>
</g>
<!-- dir_49a47a08903d444eb2abc0c220e49786&#45;&gt;dir_ddc9133ecf11e60602f1406a8bd2a6d3 -->
<g id="edge3" class="edge">
<title>dir_49a47a08903d444eb2abc0c220e49786&#45;&gt;dir_ddc9133ecf11e60602f1406a8bd2a6d3</title>
<path fill="none" stroke="#63b8ff" d="M107.99,-70.75C108.73,-64.19 109.78,-54.95 110.72,-46.6"/>
<polygon fill="#63b8ff" stroke="#63b8ff" points="114.17,-47.28 111.82,-36.95 107.21,-46.49 114.17,-47.28"/>
<g id="a_edge3&#45;headlabel"><a xlink:href="dir_000853_000859.html" target="_top" xlink:title="1">
<text text-anchor="middle" x="116.76" y="-47.16" font-family="Helvetica,sans-Serif" font-size="10.00" fill="#63b8ff">1</text>
</a>
</g>
</g>
<!-- dir_b778c3f297ab88300258a2935792c8cc -->
<g id="node4" class="node">
<title>dir_b778c3f297ab88300258a2935792c8cc</title>
<g id="a_node4"><a xlink:href="dir_b778c3f297ab88300258a2935792c8cc.html" target="_top" xlink:title="dolphin">
<polygon fill="#edf0f7" stroke="red" stroke-dasharray="5,2" points="203.5,-35 156.5,-35 156.5,-16 203.5,-16 203.5,-35"/>
<text text-anchor="middle" x="180" y="-23" font-family="Helvetica,sans-Serif" font-size="10.00">dolphin</text>
</a>
</g>
</g>
<!-- dir_49a47a08903d444eb2abc0c220e49786&#45;&gt;dir_b778c3f297ab88300258a2935792c8cc -->
<g id="edge2" class="edge">
<title>dir_49a47a08903d444eb2abc0c220e49786&#45;&gt;dir_b778c3f297ab88300258a2935792c8cc</title>
<path fill="none" stroke="#63b8ff" d="M119.38,-70.51C130.15,-62.7 145.97,-51.21 158.75,-41.93"/>
<polygon fill="#63b8ff" stroke="#63b8ff" points="160.54,-44.95 166.57,-36.25 156.43,-39.29 160.54,-44.95"/>
<g id="a_edge2&#45;headlabel"><a xlink:href="dir_000853_000786.html" target="_top" xlink:title="1">
<text text-anchor="middle" x="160.52" y="-45.97" font-family="Helvetica,sans-Serif" font-size="10.00" fill="#63b8ff">1</text>
</a>
</g>
</g>
</g>
</svg>
