<?xml version="1.0" encoding="UTF-8" standalone="no"?>
<!DOCTYPE svg PUBLIC "-//W3C//DTD SVG 1.1//EN"
 "http://www.w3.org/Graphics/SVG/1.1/DTD/svg11.dtd">
<!-- Generated by graphviz version 7.0.5 (20221223.1930)
 -->
<!-- Title: include/rel/d/a/d_a_midna Pages: 1 -->
<svg width="387pt" height="117pt"
 viewBox="0.00 0.00 387.00 117.00" xmlns="http://www.w3.org/2000/svg" xmlns:xlink="http://www.w3.org/1999/xlink">
<g id="graph0" class="graph" transform="scale(1 1) rotate(0) translate(4 113)">
<title>include/rel/d/a/d_a_midna</title>
<g id="clust1" class="cluster">
<title>clusterdir_b81c1d082692bb1b2b34ed3bfe8a0f4a</title>
<g id="a_clust1"><a xlink:href="dir_b81c1d082692bb1b2b34ed3bfe8a0f4a.html" target="_top" xlink:title="a">
<polygon fill="#edf0f7" stroke="#7f7f7f" stroke-dasharray="5,2" points="177.5,-47 177.5,-101 257.5,-101 257.5,-47 177.5,-47"/>
<text text-anchor="middle" x="217.5" y="-89" font-family="Helvetica,sans-Serif" font-size="10.00">a</text>
</a>
</g>
</g>
<!-- dir_261cc548c501f36972749fb5ef388085 -->
<g id="node1" class="node">
<title>dir_261cc548c501f36972749fb5ef388085</title>
<g id="a_node1"><a xlink:href="dir_261cc548c501f36972749fb5ef388085.html" target="_top" xlink:title="d_a_midna">
<polygon fill="#edf0f7" stroke="#404040" stroke-width="2" points="249.5,-74 185.5,-74 185.5,-55 249.5,-55 249.5,-74"/>
<text text-anchor="middle" x="217.5" y="-62" font-family="Helvetica,sans-Serif" font-size="10.00">d_a_midna</text>
</a>
</g>
</g>
<!-- dir_4f0979a7f5e3194619cde56505e372d8 -->
<g id="node2" class="node">
<title>dir_4f0979a7f5e3194619cde56505e372d8</title>
<g id="a_node2"><a xlink:href="dir_4f0979a7f5e3194619cde56505e372d8.html" target="_top" xlink:title="JSystem">
<polygon fill="#edf0f7" stroke="red" stroke-dasharray="5,2" points="55,-19 0,-19 0,0 55,0 55,-19"/>
<text text-anchor="middle" x="27.5" y="-7" font-family="Helvetica,sans-Serif" font-size="10.00">JSystem</text>
</a>
</g>
</g>
<!-- dir_261cc548c501f36972749fb5ef388085&#45;&gt;dir_4f0979a7f5e3194619cde56505e372d8 -->
<g id="edge1" class="edge">
<title>dir_261cc548c501f36972749fb5ef388085&#45;&gt;dir_4f0979a7f5e3194619cde56505e372d8</title>
<path fill="none" stroke="#63b8ff" d="M185.27,-54.51C152.31,-45.32 101.1,-31.03 66.03,-21.25"/>
<polygon fill="#63b8ff" stroke="#63b8ff" points="67.28,-17.96 56.7,-18.65 65.4,-24.7 67.28,-17.96"/>
<g id="a_edge1&#45;headlabel"><a xlink:href="dir_000212_000871.html" target="_top" xlink:title="1">
<text text-anchor="middle" x="70.04" y="-13.29" font-family="Helvetica,sans-Serif" font-size="10.00" fill="#63b8ff">1</text>
</a>
</g>
</g>
<!-- dir_54283da8a0cf1311a88c964d76512876 -->
<g id="node3" class="node">
<title>dir_54283da8a0cf1311a88c964d76512876</title>
<g id="a_node3"><a xlink:href="dir_54283da8a0cf1311a88c964d76512876.html" target="_top" xlink:title="SSystem">
<polygon fill="#edf0f7" stroke="red" stroke-dasharray="5,2" points="129.5,-19 73.5,-19 73.5,0 129.5,0 129.5,-19"/>
<text text-anchor="middle" x="101.5" y="-7" font-family="Helvetica,sans-Serif" font-size="10.00">SSystem</text>
</a>
</g>
</g>
<!-- dir_261cc548c501f36972749fb5ef388085&#45;&gt;dir_54283da8a0cf1311a88c964d76512876 -->
<g id="edge2" class="edge">
<title>dir_261cc548c501f36972749fb5ef388085&#45;&gt;dir_54283da8a0cf1311a88c964d76512876</title>
<path fill="none" stroke="#63b8ff" d="M197.82,-54.51C179.55,-46.16 152.09,-33.61 131.15,-24.05"/>
<polygon fill="#63b8ff" stroke="#63b8ff" points="132.81,-20.96 122.26,-19.99 129.9,-27.33 132.81,-20.96"/>
<g id="a_edge2&#45;headlabel"><a xlink:href="dir_000212_001726.html" target="_top" xlink:title="1">
<text text-anchor="middle" x="135.89" y="-16.74" font-family="Helvetica,sans-Serif" font-size="10.00" fill="#63b8ff">1</text>
</a>
</g>
</g>
<!-- dir_81939fb769658ab66ba54ec390580a1a -->
<g id="node4" class="node">
<title>dir_81939fb769658ab66ba54ec390580a1a</title>
<g id="a_node4"><a xlink:href="dir_81939fb769658ab66ba54ec390580a1a.html" target="_top" xlink:title="Z2AudioLib">
<polygon fill="#edf0f7" stroke="#7f7f7f" points="213.5,-19 147.5,-19 147.5,0 213.5,0 213.5,-19"/>
<text text-anchor="middle" x="180.5" y="-7" font-family="Helvetica,sans-Serif" font-size="10.00">Z2AudioLib</text>
</a>
</g>
</g>
<!-- dir_261cc548c501f36972749fb5ef388085&#45;&gt;dir_81939fb769658ab66ba54ec390580a1a -->
<g id="edge3" class="edge">
<title>dir_261cc548c501f36972749fb5ef388085&#45;&gt;dir_81939fb769658ab66ba54ec390580a1a</title>
<path fill="none" stroke="#63b8ff" d="M211.39,-54.75C206.49,-47.73 199.45,-37.64 193.33,-28.87"/>
<polygon fill="#63b8ff" stroke="#63b8ff" points="196.2,-26.88 187.61,-20.68 190.46,-30.89 196.2,-26.88"/>
<g id="a_edge3&#45;headlabel"><a xlink:href="dir_000212_001736.html" target="_top" xlink:title="1">
<text text-anchor="middle" x="199.72" y="-24.46" font-family="Helvetica,sans-Serif" font-size="10.00" fill="#63b8ff">1</text>
</a>
</g>
</g>
<!-- dir_b778c3f297ab88300258a2935792c8cc -->
<g id="node5" class="node">
<title>dir_b778c3f297ab88300258a2935792c8cc</title>
<g id="a_node5"><a xlink:href="dir_b778c3f297ab88300258a2935792c8cc.html" target="_top" xlink:title="dolphin">
<polygon fill="#edf0f7" stroke="red" stroke-dasharray="5,2" points="279,-19 232,-19 232,0 279,0 279,-19"/>
<text text-anchor="middle" x="255.5" y="-7" font-family="Helvetica,sans-Serif" font-size="10.00">dolphin</text>
</a>
</g>
</g>
<!-- dir_261cc548c501f36972749fb5ef388085&#45;&gt;dir_b778c3f297ab88300258a2935792c8cc -->
<g id="edge4" class="edge">
<title>dir_261cc548c501f36972749fb5ef388085&#45;&gt;dir_b778c3f297ab88300258a2935792c8cc</title>
<path fill="none" stroke="#63b8ff" d="M223.77,-54.75C228.86,-47.66 236.2,-37.42 242.53,-28.59"/>
<polygon fill="#63b8ff" stroke="#63b8ff" points="245.22,-30.84 248.21,-20.67 239.54,-26.76 245.22,-30.84"/>
<g id="a_edge4&#45;headlabel"><a xlink:href="dir_000212_000786.html" target="_top" xlink:title="1">
<text text-anchor="middle" x="246.32" y="-31.68" font-family="Helvetica,sans-Serif" font-size="10.00" fill="#63b8ff">1</text>
</a>
</g>
</g>
<!-- dir_cc3ad1aed4be3f446fdd7af78322f5bf -->
<g id="node6" class="node">
<title>dir_cc3ad1aed4be3f446fdd7af78322f5bf</title>
<g id="a_node6"><a xlink:href="dir_cc3ad1aed4be3f446fdd7af78322f5bf.html" target="_top" xlink:title="d">
<polygon fill="#edf0f7" stroke="red" stroke-dasharray="5,2" points="326,-19 297,-19 297,0 326,0 326,-19"/>
<text text-anchor="middle" x="311.5" y="-7" font-family="Helvetica,sans-Serif" font-size="10.00">d</text>
</a>
</g>
</g>
<!-- dir_261cc548c501f36972749fb5ef388085&#45;&gt;dir_cc3ad1aed4be3f446fdd7af78322f5bf -->
<g id="edge5" class="edge">
<title>dir_261cc548c501f36972749fb5ef388085&#45;&gt;dir_cc3ad1aed4be3f446fdd7af78322f5bf</title>
<path fill="none" stroke="#63b8ff" d="M233.45,-54.51C248.11,-46.24 270.07,-33.86 286.96,-24.34"/>
<polygon fill="#63b8ff" stroke="#63b8ff" points="288.41,-27.54 295.4,-19.58 284.97,-21.44 288.41,-27.54"/>
<g id="a_edge5&#45;headlabel"><a xlink:href="dir_000212_000024.html" target="_top" xlink:title="4">
<text text-anchor="middle" x="287.99" y="-28.53" font-family="Helvetica,sans-Serif" font-size="10.00" fill="#63b8ff">4</text>
</a>
</g>
</g>
<!-- dir_fbb29e8cafd745cbb7106b56de6b5377 -->
<g id="node7" class="node">
<title>dir_fbb29e8cafd745cbb7106b56de6b5377</title>
<g id="a_node7"><a xlink:href="dir_fbb29e8cafd745cbb7106b56de6b5377.html" target="_top" xlink:title="f_op">
<polygon fill="#edf0f7" stroke="#7f7f7f" points="379,-19 344,-19 344,0 379,0 379,-19"/>
<text text-anchor="middle" x="361.5" y="-7" font-family="Helvetica,sans-Serif" font-size="10.00">f_op</text>
</a>
</g>
</g>
<!-- dir_261cc548c501f36972749fb5ef388085&#45;&gt;dir_fbb29e8cafd745cbb7106b56de6b5377 -->
<g id="edge6" class="edge">
<title>dir_261cc548c501f36972749fb5ef388085&#45;&gt;dir_fbb29e8cafd745cbb7106b56de6b5377</title>
<path fill="none" stroke="#63b8ff" d="M241.93,-54.51C267.2,-45.21 306.64,-30.69 333.24,-20.9"/>
<polygon fill="#63b8ff" stroke="#63b8ff" points="334.18,-24.28 342.36,-17.54 331.77,-17.71 334.18,-24.28"/>
<g id="a_edge6&#45;headlabel"><a xlink:href="dir_000212_000812.html" target="_top" xlink:title="1">
<text text-anchor="middle" x="333.21" y="-25.17" font-family="Helvetica,sans-Serif" font-size="10.00" fill="#63b8ff">1</text>
</a>
</g>
</g>
</g>
</svg>
