<?xml version="1.0" encoding="UTF-8" standalone="no"?>
<!DOCTYPE svg PUBLIC "-//W3C//DTD SVG 1.1//EN"
 "http://www.w3.org/Graphics/SVG/1.1/DTD/svg11.dtd">
<!-- Generated by graphviz version 7.0.5 (20221223.1930)
 -->
<!-- Title: include/rel/d/a/obj/d_a_obj_lv4Gate Pages: 1 -->
<svg width="196pt" height="125pt"
 viewBox="0.00 0.00 196.00 125.00" xmlns="http://www.w3.org/2000/svg" xmlns:xlink="http://www.w3.org/1999/xlink">
<g id="graph0" class="graph" transform="scale(1 1) rotate(0) translate(4 121)">
<title>include/rel/d/a/obj/d_a_obj_lv4Gate</title>
<g id="clust1" class="cluster">
<title>clusterdir_837b79828d4d0cae6e2581b9ebbbcbf8</title>
<g id="a_clust1"><a xlink:href="dir_837b79828d4d0cae6e2581b9ebbbcbf8.html" target="_top" xlink:title="obj">
<polygon fill="#edf0f7" stroke="#7f7f7f" stroke-dasharray="5,2" points="8,-39 8,-109 180,-109 180,-39 8,-39"/>
<text text-anchor="middle" x="94" y="-97" font-family="Helvetica,sans-Serif" font-size="10.00">obj</text>
</a>
</g>
</g>
<g id="clust2" class="cluster">
<title>clusterdir_36ba6ecc35c76b0283e220fdf2e6462f</title>
<g id="a_clust2"><a xlink:href="dir_36ba6ecc35c76b0283e220fdf2e6462f.html" target="_top">
<polygon fill="#edf0f7" stroke="#404040" stroke-width="2" points="16,-47 16,-82 172,-82 172,-47 16,-47"/>
</a>
</g>
</g>
<!-- dir_36ba6ecc35c76b0283e220fdf2e6462f -->
<g id="node1" class="node">
<title>dir_36ba6ecc35c76b0283e220fdf2e6462f</title>
<text text-anchor="middle" x="119" y="-62" font-family="Helvetica,sans-Serif" font-size="10.00">d_a_obj_lv4Gate</text>
</g>
<!-- dir_6bdfff2c28f90f381b6da5bee088878b -->
<g id="node3" class="node">
<title>dir_6bdfff2c28f90f381b6da5bee088878b</title>
<g id="a_node3"><a xlink:href="dir_6bdfff2c28f90f381b6da5bee088878b.html" target="_top" xlink:title="m_Do">
<polygon fill="#edf0f7" stroke="#7f7f7f" points="86,-19 44,-19 44,0 86,0 86,-19"/>
<text text-anchor="middle" x="65" y="-7" font-family="Helvetica,sans-Serif" font-size="10.00">m_Do</text>
</a>
</g>
</g>
<!-- dir_36ba6ecc35c76b0283e220fdf2e6462f&#45;&gt;dir_6bdfff2c28f90f381b6da5bee088878b -->
<g id="edge1" class="edge">
<title>dir_36ba6ecc35c76b0283e220fdf2e6462f&#45;&gt;dir_6bdfff2c28f90f381b6da5bee088878b</title>
<path fill="none" stroke="#63b8ff" d="M110.56,-55.22C102.93,-47.73 91.47,-36.48 81.95,-27.13"/>
<polygon fill="#63b8ff" stroke="#63b8ff" points="84.59,-24.82 75,-20.31 79.68,-29.81 84.59,-24.82"/>
<g id="a_edge1&#45;headlabel"><a xlink:href="dir_000492_001264.html" target="_top" xlink:title="1">
<text text-anchor="middle" x="88.06" y="-21.75" font-family="Helvetica,sans-Serif" font-size="10.00" fill="#63b8ff">1</text>
</a>
</g>
</g>
<!-- dir_cc3ad1aed4be3f446fdd7af78322f5bf -->
<g id="node4" class="node">
<title>dir_cc3ad1aed4be3f446fdd7af78322f5bf</title>
<g id="a_node4"><a xlink:href="dir_cc3ad1aed4be3f446fdd7af78322f5bf.html" target="_top" xlink:title="d">
<polygon fill="#edf0f7" stroke="red" stroke-dasharray="5,2" points="133.5,-19 104.5,-19 104.5,0 133.5,0 133.5,-19"/>
<text text-anchor="middle" x="119" y="-7" font-family="Helvetica,sans-Serif" font-size="10.00">d</text>
</a>
</g>
</g>
<!-- dir_36ba6ecc35c76b0283e220fdf2e6462f&#45;&gt;dir_cc3ad1aed4be3f446fdd7af78322f5bf -->
<g id="edge2" class="edge">
<title>dir_36ba6ecc35c76b0283e220fdf2e6462f&#45;&gt;dir_cc3ad1aed4be3f446fdd7af78322f5bf</title>
<path fill="none" stroke="#63b8ff" d="M119,-55.22C119,-48.65 119,-39.18 119,-30.64"/>
<polygon fill="#63b8ff" stroke="#63b8ff" points="122.5,-30.77 119,-20.77 115.5,-30.77 122.5,-30.77"/>
<g id="a_edge2&#45;headlabel"><a xlink:href="dir_000492_000024.html" target="_top" xlink:title="1">
<text text-anchor="middle" x="125.34" y="-30.35" font-family="Helvetica,sans-Serif" font-size="10.00" fill="#63b8ff">1</text>
</a>
</g>
</g>
<!-- dir_fbb29e8cafd745cbb7106b56de6b5377 -->
<g id="node5" class="node">
<title>dir_fbb29e8cafd745cbb7106b56de6b5377</title>
<g id="a_node5"><a xlink:href="dir_fbb29e8cafd745cbb7106b56de6b5377.html" target="_top" xlink:title="f_op">
<polygon fill="#edf0f7" stroke="#7f7f7f" points="186.5,-19 151.5,-19 151.5,0 186.5,0 186.5,-19"/>
<text text-anchor="middle" x="169" y="-7" font-family="Helvetica,sans-Serif" font-size="10.00">f_op</text>
</a>
</g>
</g>
<!-- dir_36ba6ecc35c76b0283e220fdf2e6462f&#45;&gt;dir_fbb29e8cafd745cbb7106b56de6b5377 -->
<g id="edge3" class="edge">
<title>dir_36ba6ecc35c76b0283e220fdf2e6462f&#45;&gt;dir_fbb29e8cafd745cbb7106b56de6b5377</title>
<path fill="none" stroke="#63b8ff" d="M126.81,-55.22C133.81,-47.81 144.28,-36.71 153.04,-27.42"/>
<polygon fill="#63b8ff" stroke="#63b8ff" points="155.39,-30.03 159.7,-20.35 150.3,-25.22 155.39,-30.03"/>
<g id="a_edge3&#45;headlabel"><a xlink:href="dir_000492_000812.html" target="_top" xlink:title="1">
<text text-anchor="middle" x="156.03" y="-30.99" font-family="Helvetica,sans-Serif" font-size="10.00" fill="#63b8ff">1</text>
</a>
</g>
</g>
<!-- dir_b61e92187ca2b124c61e5f9b3e0e4ff0 -->
<g id="node2" class="node">
<title>dir_b61e92187ca2b124c61e5f9b3e0e4ff0</title>
<g id="a_node2"><a xlink:href="dir_b61e92187ca2b124c61e5f9b3e0e4ff0.html" target="_top" xlink:title="libs">
<polygon fill="#a2b4d6" stroke="#404040" points="56,-74 24,-74 24,-55 56,-55 56,-74"/>
<text text-anchor="middle" x="40" y="-62" font-family="Helvetica,sans-Serif" font-size="10.00">libs</text>
</a>
</g>
</g>
</g>
</svg>
