<?xml version="1.0" encoding="UTF-8" standalone="no"?>
<!DOCTYPE svg PUBLIC "-//W3C//DTD SVG 1.1//EN"
 "http://www.w3.org/Graphics/SVG/1.1/DTD/svg11.dtd">
<!-- Generated by graphviz version 7.0.5 (20221223.1930)
 -->
<!-- Title: include/dolphin/dsp/dsp.h Pages: 1 -->
<!--zoomable 170 -->
<svg id="main" version="1.1" xmlns="http://www.w3.org/2000/svg" xmlns:xlink="http://www.w3.org/1999/xlink" xml:space="preserve" onload="init(evt)">
<style type="text/css"><![CDATA[
.edge:hover path { stroke: red; }
.edge:hover polygon { stroke: red; fill: red; }
]]></style>
<script type="text/javascript"><![CDATA[
var edges = document.getElementsByTagName('g');
if (edges && edges.length) {
  for (var i=0;i<edges.length;i++) {
    if (edges[i].id.substr(0,4)=='edge') {
      edges[i].setAttribute('class','edge');
    }
  }
}
]]></script>
        <defs>
                <circle id="rim" cx="0" cy="0" r="7"/>
                <circle id="rim2" cx="0" cy="0" r="3.5"/>
                <g id="zoomPlus">
                        <use xlink:href="#rim" fill="#404040">
                                <set attributeName="fill" to="#808080" begin="zoomplus.mouseover" end="zoomplus.mouseout"/>
                        </use>
                        <path d="M-4,0h8M0,-4v8" fill="none" stroke="white" stroke-width="1.5" pointer-events="none"/>
                </g>
                <g id="zoomMin">
                        <use xlink:href="#rim" fill="#404040">
                                <set attributeName="fill" to="#808080" begin="zoomminus.mouseover" end="zoomminus.mouseout"/>
                        </use>
                        <path d="M-4,0h8" fill="none" stroke="white" stroke-width="1.5" pointer-events="none"/>
                </g>
                <g id="dirArrow">
                        <path fill="none" stroke="white" stroke-width="1.5" d="M0,-3.0v7 M-2.5,-0.5L0,-3.0L2.5,-0.5"/>
                </g>
               <g id="resetDef">
                       <use xlink:href="#rim2" fill="#404040">
                               <set attributeName="fill" to="#808080" begin="reset.mouseover" end="reset.mouseout"/>
                       </use>
               </g>
        </defs>

<script type="text/javascript">
var viewWidth = 3753;
var viewHeight = 170;
var sectionId = 'dynsection-1';
</script>
<script xlink:href="svgpan.js"/>
<svg id="graph" class="graph">
<g id="viewport">
<title>include/dolphin/dsp/dsp.h</title>
<!-- Node1 -->
<g id="node1" class="node">
<title>Node1</title>
<g id="a_node1"><a xlink:title=" ">
<polygon fill="#999999" stroke="#666666" points="1809.5,-162 1709.5,-162 1709.5,-132 1809.5,-132 1809.5,-162"/>
<text text-anchor="start" x="1717.5" y="-150" font-family="Helvetica,sans-Serif" font-size="10.00">include/dolphin/dsp</text>
<text text-anchor="middle" x="1759.5" y="-139" font-family="Helvetica,sans-Serif" font-size="10.00">/dsp.h</text>
</a>
</g>
</g>
<!-- Node2 -->
<g id="node2" class="node">
<title>Node2</title>
<g id="a_node2"><a xlink:href="dspproc_8h.html" target="_top" xlink:title=" ">
<polygon fill="white" stroke="#666666" points="248,-96 121,-96 121,-66 248,-66 248,-96"/>
<text text-anchor="start" x="129" y="-84" font-family="Helvetica,sans-Serif" font-size="10.00">include/JSystem/JAudio2</text>
<text text-anchor="middle" x="184.5" y="-73" font-family="Helvetica,sans-Serif" font-size="10.00">/dspproc.h</text>
</a>
</g>
</g>
<!-- Node1&#45;&gt;Node2 -->
<g id="edge1" class="edge">
<title>Node1&#45;&gt;Node2</title>
<path fill="none" stroke="#63b8ff" d="M1697.61,-145.39C1497.77,-143.08 851.65,-133.06 318.5,-96 295.63,-94.41 270.64,-91.99 248.49,-89.6"/>
<polygon fill="#63b8ff" stroke="#63b8ff" points="1697.47,-148.89 1707.51,-145.5 1697.55,-141.89 1697.47,-148.89"/>
</g>
<!-- Node5 -->
<g id="node5" class="node">
<title>Node5</title>
<g id="a_node5"><a xlink:href="dsp__task_8h.html" target="_top" xlink:title=" ">
<polygon fill="white" stroke="#666666" points="427.5,-96 327.5,-96 327.5,-66 427.5,-66 427.5,-96"/>
<text text-anchor="start" x="335.5" y="-84" font-family="Helvetica,sans-Serif" font-size="10.00">include/dolphin/dsp</text>
<text text-anchor="middle" x="377.5" y="-73" font-family="Helvetica,sans-Serif" font-size="10.00">/dsp_task.h</text>
</a>
</g>
</g>
<!-- Node1&#45;&gt;Node5 -->
<g id="edge4" class="edge">
<title>Node1&#45;&gt;Node5</title>
<path fill="none" stroke="#63b8ff" d="M1698.01,-145.12C1472.24,-141.64 689.33,-127.55 441.5,-96 436.99,-95.43 432.32,-94.69 427.66,-93.85"/>
<polygon fill="#63b8ff" stroke="#63b8ff" points="1697.71,-148.61 1707.76,-145.26 1697.81,-141.61 1697.71,-148.61"/>
</g>
<!-- Node7 -->
<g id="node7" class="node">
<title>Node7</title>
<g id="a_node7"><a xlink:href="dsp_8c.html" target="_top" xlink:title=" ">
<polygon fill="white" stroke="#666666" points="618.5,-24.5 508.5,-24.5 508.5,-5.5 618.5,-5.5 618.5,-24.5"/>
<text text-anchor="middle" x="563.5" y="-12.5" font-family="Helvetica,sans-Serif" font-size="10.00">libs/dolphin/dsp/dsp.c</text>
</a>
</g>
</g>
<!-- Node1&#45;&gt;Node7 -->
<g id="edge28" class="edge">
<title>Node1&#45;&gt;Node7</title>
<path fill="none" stroke="#63b8ff" d="M1697.69,-145.95C1447.12,-145.42 518.29,-140.49 475.5,-96 449.16,-68.62 506.15,-39.27 540.28,-24.93"/>
<polygon fill="#63b8ff" stroke="#63b8ff" points="1697.58,-149.44 1707.59,-145.96 1697.6,-142.44 1697.58,-149.44"/>
</g>
<!-- Node9 -->
<g id="node9" class="node">
<title>Node9</title>
<g id="a_node9"><a xlink:href="JASAudioThread_8cpp.html" target="_top" xlink:title=" ">
<polygon fill="white" stroke="#666666" points="595,-96 484,-96 484,-66 595,-66 595,-96"/>
<text text-anchor="start" x="492" y="-84" font-family="Helvetica,sans-Serif" font-size="10.00">libs/JSystem/JAudio2</text>
<text text-anchor="middle" x="539.5" y="-73" font-family="Helvetica,sans-Serif" font-size="10.00">/JASAudioThread.cpp</text>
</a>
</g>
</g>
<!-- Node1&#45;&gt;Node9 -->
<g id="edge9" class="edge">
<title>Node1&#45;&gt;Node9</title>
<path fill="none" stroke="#63b8ff" d="M1697.82,-144.71C1490.37,-140.13 818.93,-123.53 604.5,-96 601.52,-95.62 598.48,-95.17 595.42,-94.67"/>
<polygon fill="#63b8ff" stroke="#63b8ff" points="1697.49,-148.2 1707.57,-144.92 1697.65,-141.2 1697.49,-148.2"/>
</g>
<!-- Node10 -->
<g id="node10" class="node">
<title>Node10</title>
<g id="a_node10"><a xlink:href="JASDSPInterface_8cpp.html" target="_top" xlink:title=" ">
<polygon fill="white" stroke="#666666" points="728,-96 613,-96 613,-66 728,-66 728,-96"/>
<text text-anchor="start" x="621" y="-84" font-family="Helvetica,sans-Serif" font-size="10.00">libs/JSystem/JAudio2</text>
<text text-anchor="middle" x="670.5" y="-73" font-family="Helvetica,sans-Serif" font-size="10.00">/JASDSPInterface.cpp</text>
</a>
</g>
</g>
<!-- Node1&#45;&gt;Node10 -->
<g id="edge10" class="edge">
<title>Node1&#45;&gt;Node10</title>
<path fill="none" stroke="#63b8ff" d="M1697.54,-146.35C1537.8,-146.51 1099.14,-142.34 737.5,-96 734.44,-95.61 731.3,-95.15 728.15,-94.65"/>
<polygon fill="#63b8ff" stroke="#63b8ff" points="1697.5,-149.85 1707.49,-146.33 1697.49,-142.85 1697.5,-149.85"/>
</g>
<!-- Node11 -->
<g id="node11" class="node">
<title>Node11</title>
<g id="a_node11"><a xlink:href="dsptask_8cpp.html" target="_top" xlink:title=" ">
<polygon fill="white" stroke="#666666" points="857,-96 746,-96 746,-66 857,-66 857,-96"/>
<text text-anchor="start" x="754" y="-84" font-family="Helvetica,sans-Serif" font-size="10.00">libs/JSystem/JAudio2</text>
<text text-anchor="middle" x="801.5" y="-73" font-family="Helvetica,sans-Serif" font-size="10.00">/dsptask.cpp</text>
</a>
</g>
</g>
<!-- Node1&#45;&gt;Node11 -->
<g id="edge11" class="edge">
<title>Node1&#45;&gt;Node11</title>
<path fill="none" stroke="#63b8ff" d="M1698.09,-145.86C1552.84,-144.8 1177.02,-137.87 866.5,-96 863.53,-95.6 860.48,-95.13 857.42,-94.62"/>
<polygon fill="#63b8ff" stroke="#63b8ff" points="1697.84,-149.35 1707.87,-145.92 1697.89,-142.35 1697.84,-149.35"/>
</g>
<!-- Node12 -->
<g id="node12" class="node">
<title>Node12</title>
<g id="a_node12"><a xlink:href="ai_8c.html" target="_top" xlink:title=" ">
<polygon fill="white" stroke="#666666" points="969.5,-90.5 875.5,-90.5 875.5,-71.5 969.5,-71.5 969.5,-90.5"/>
<text text-anchor="middle" x="922.5" y="-78.5" font-family="Helvetica,sans-Serif" font-size="10.00">libs/dolphin/ai/ai.c</text>
</a>
</g>
</g>
<!-- Node1&#45;&gt;Node12 -->
<g id="edge12" class="edge">
<title>Node1&#45;&gt;Node12</title>
<path fill="none" stroke="#63b8ff" d="M1697.98,-145.74C1565.72,-144.38 1244.77,-136.75 979.5,-96 971.44,-94.76 962.85,-92.93 954.85,-91"/>
<polygon fill="#63b8ff" stroke="#63b8ff" points="1697.89,-149.24 1707.92,-145.83 1697.96,-142.24 1697.89,-149.24"/>
</g>
<!-- Node13 -->
<g id="node13" class="node">
<title>Node13</title>
<g id="a_node13"><a xlink:href="ar_8c.html" target="_top" xlink:title=" ">
<polygon fill="white" stroke="#666666" points="1083,-90.5 988,-90.5 988,-71.5 1083,-71.5 1083,-90.5"/>
<text text-anchor="middle" x="1035.5" y="-78.5" font-family="Helvetica,sans-Serif" font-size="10.00">libs/dolphin/ar/ar.c</text>
</a>
</g>
</g>
<!-- Node1&#45;&gt;Node13 -->
<g id="edge13" class="edge">
<title>Node1&#45;&gt;Node13</title>
<path fill="none" stroke="#63b8ff" d="M1698.1,-144.8C1580.07,-141.74 1313.64,-131.2 1092.5,-96 1084.45,-94.72 1075.86,-92.87 1067.86,-90.94"/>
<polygon fill="#63b8ff" stroke="#63b8ff" points="1697.79,-148.29 1707.87,-145.04 1697.96,-141.29 1697.79,-148.29"/>
</g>
<!-- Node14 -->
<g id="node14" class="node">
<title>Node14</title>
<g id="a_node14"><a xlink:href="CARDBios_8c.html" target="_top" xlink:title=" ">
<polygon fill="white" stroke="#666666" points="1245.5,-90.5 1101.5,-90.5 1101.5,-71.5 1245.5,-71.5 1245.5,-90.5"/>
<text text-anchor="middle" x="1173.5" y="-78.5" font-family="Helvetica,sans-Serif" font-size="10.00">libs/dolphin/card/CARDBios.c</text>
</a>
</g>
</g>
<!-- Node1&#45;&gt;Node14 -->
<g id="edge14" class="edge">
<title>Node1&#45;&gt;Node14</title>
<path fill="none" stroke="#63b8ff" d="M1697.88,-141.29C1602.74,-133.7 1414.44,-117.42 1255.5,-96 1244.77,-94.55 1233.28,-92.75 1222.41,-90.93"/>
<polygon fill="#63b8ff" stroke="#63b8ff" points="1697.54,-144.77 1707.78,-142.07 1698.09,-137.8 1697.54,-144.77"/>
</g>
<!-- Node15 -->
<g id="node15" class="node">
<title>Node15</title>
<g id="a_node15"><a xlink:href="CARDBlock_8c.html" target="_top" xlink:title=" ">
<polygon fill="white" stroke="#666666" points="1413,-90.5 1264,-90.5 1264,-71.5 1413,-71.5 1413,-90.5"/>
<text text-anchor="middle" x="1338.5" y="-78.5" font-family="Helvetica,sans-Serif" font-size="10.00">libs/dolphin/card/CARDBlock.c</text>
</a>
</g>
</g>
<!-- Node1&#45;&gt;Node15 -->
<g id="edge15" class="edge">
<title>Node1&#45;&gt;Node15</title>
<path fill="none" stroke="#63b8ff" d="M1697.94,-137.2C1630.33,-127.46 1518.6,-111.14 1422.5,-96 1412.42,-94.41 1401.68,-92.66 1391.35,-90.96"/>
<polygon fill="#63b8ff" stroke="#63b8ff" points="1697.32,-140.65 1707.72,-138.61 1698.32,-133.72 1697.32,-140.65"/>
</g>
<!-- Node16 -->
<g id="node16" class="node">
<title>Node16</title>
<g id="a_node16"><a xlink:href="CARDCheck_8c.html" target="_top" xlink:title=" ">
<polygon fill="white" stroke="#666666" points="1583.5,-90.5 1431.5,-90.5 1431.5,-71.5 1583.5,-71.5 1583.5,-90.5"/>
<text text-anchor="middle" x="1507.5" y="-78.5" font-family="Helvetica,sans-Serif" font-size="10.00">libs/dolphin/card/CARDCheck.c</text>
</a>
</g>
</g>
<!-- Node1&#45;&gt;Node16 -->
<g id="edge16" class="edge">
<title>Node1&#45;&gt;Node16</title>
<path fill="none" stroke="#63b8ff" d="M1698.07,-130.4C1649.34,-118.02 1582.97,-101.17 1542.79,-90.96"/>
<polygon fill="#63b8ff" stroke="#63b8ff" points="1697.09,-133.76 1707.64,-132.83 1698.81,-126.98 1697.09,-133.76"/>
</g>
<!-- Node17 -->
<g id="node17" class="node">
<title>Node17</title>
<g id="a_node17"><a xlink:href="CARDCreate_8c.html" target="_top" xlink:title=" ">
<polygon fill="white" stroke="#666666" points="1755,-90.5 1602,-90.5 1602,-71.5 1755,-71.5 1755,-90.5"/>
<text text-anchor="middle" x="1678.5" y="-78.5" font-family="Helvetica,sans-Serif" font-size="10.00">libs/dolphin/card/CARDCreate.c</text>
</a>
</g>
</g>
<!-- Node1&#45;&gt;Node17 -->
<g id="edge17" class="edge">
<title>Node1&#45;&gt;Node17</title>
<path fill="none" stroke="#63b8ff" d="M1732.84,-124.93C1718.18,-113.35 1700.78,-99.61 1689.69,-90.84"/>
<polygon fill="#63b8ff" stroke="#63b8ff" points="1730.32,-127.4 1740.34,-130.86 1734.66,-121.91 1730.32,-127.4"/>
</g>
<!-- Node18 -->
<g id="node18" class="node">
<title>Node18</title>
<g id="a_node18"><a xlink:href="CARDDir_8c.html" target="_top" xlink:title=" ">
<polygon fill="white" stroke="#666666" points="1910,-90.5 1773,-90.5 1773,-71.5 1910,-71.5 1910,-90.5"/>
<text text-anchor="middle" x="1841.5" y="-78.5" font-family="Helvetica,sans-Serif" font-size="10.00">libs/dolphin/card/CARDDir.c</text>
</a>
</g>
</g>
<!-- Node1&#45;&gt;Node18 -->
<g id="edge18" class="edge">
<title>Node1&#45;&gt;Node18</title>
<path fill="none" stroke="#63b8ff" d="M1786.49,-124.93C1801.33,-113.35 1818.94,-99.61 1830.17,-90.84"/>
<polygon fill="#63b8ff" stroke="#63b8ff" points="1784.62,-121.95 1778.89,-130.87 1788.93,-127.47 1784.62,-121.95"/>
</g>
<!-- Node19 -->
<g id="node19" class="node">
<title>Node19</title>
<g id="a_node19"><a xlink:href="CARDFormat_8c.html" target="_top" xlink:title=" ">
<polygon fill="white" stroke="#666666" points="2083,-90.5 1928,-90.5 1928,-71.5 2083,-71.5 2083,-90.5"/>
<text text-anchor="middle" x="2005.5" y="-78.5" font-family="Helvetica,sans-Serif" font-size="10.00">libs/dolphin/card/CARDFormat.c</text>
</a>
</g>
</g>
<!-- Node1&#45;&gt;Node19 -->
<g id="edge19" class="edge">
<title>Node1&#45;&gt;Node19</title>
<path fill="none" stroke="#63b8ff" d="M1820.94,-130.02C1868.35,-117.68 1932.2,-101.07 1971.02,-90.97"/>
<polygon fill="#63b8ff" stroke="#63b8ff" points="1820.14,-126.61 1811.34,-132.51 1821.9,-133.38 1820.14,-126.61"/>
</g>
<!-- Node20 -->
<g id="node20" class="node">
<title>Node20</title>
<g id="a_node20"><a xlink:href="CARDMount_8c.html" target="_top" xlink:title=" ">
<polygon fill="white" stroke="#666666" points="2253.5,-90.5 2101.5,-90.5 2101.5,-71.5 2253.5,-71.5 2253.5,-90.5"/>
<text text-anchor="middle" x="2177.5" y="-78.5" font-family="Helvetica,sans-Serif" font-size="10.00">libs/dolphin/card/CARDMount.c</text>
</a>
</g>
</g>
<!-- Node1&#45;&gt;Node20 -->
<g id="edge20" class="edge">
<title>Node1&#45;&gt;Node20</title>
<path fill="none" stroke="#63b8ff" d="M1820.9,-137.05C1887.75,-127.24 1997.78,-110.91 2092.5,-96 2102.69,-94.4 2113.57,-92.64 2124.01,-90.93"/>
<polygon fill="#63b8ff" stroke="#63b8ff" points="1820.63,-133.55 1811.24,-138.46 1821.64,-140.48 1820.63,-133.55"/>
</g>
<!-- Node21 -->
<g id="node21" class="node">
<title>Node21</title>
<g id="a_node21"><a xlink:href="CARDNet_8c.html" target="_top" xlink:title=" ">
<polygon fill="white" stroke="#666666" points="2411.5,-90.5 2271.5,-90.5 2271.5,-71.5 2411.5,-71.5 2411.5,-90.5"/>
<text text-anchor="middle" x="2341.5" y="-78.5" font-family="Helvetica,sans-Serif" font-size="10.00">libs/dolphin/card/CARDNet.c</text>
</a>
</g>
</g>
<!-- Node1&#45;&gt;Node21 -->
<g id="edge21" class="edge">
<title>Node1&#45;&gt;Node21</title>
<path fill="none" stroke="#63b8ff" d="M1821.39,-141.38C1916.48,-133.93 2104.15,-117.87 2262.5,-96 2272.85,-94.57 2283.91,-92.78 2294.39,-90.96"/>
<polygon fill="#63b8ff" stroke="#63b8ff" points="1821.19,-137.88 1811.49,-142.15 1821.73,-144.86 1821.19,-137.88"/>
</g>
<!-- Node22 -->
<g id="node22" class="node">
<title>Node22</title>
<g id="a_node22"><a xlink:href="CARDOpen_8c.html" target="_top" xlink:title=" ">
<polygon fill="white" stroke="#666666" points="2577.5,-90.5 2429.5,-90.5 2429.5,-71.5 2577.5,-71.5 2577.5,-90.5"/>
<text text-anchor="middle" x="2503.5" y="-78.5" font-family="Helvetica,sans-Serif" font-size="10.00">libs/dolphin/card/CARDOpen.c</text>
</a>
</g>
</g>
<!-- Node1&#45;&gt;Node22 -->
<g id="edge22" class="edge">
<title>Node1&#45;&gt;Node22</title>
<path fill="none" stroke="#63b8ff" d="M1821.02,-143.23C1938.08,-137.55 2200.77,-122.79 2420.5,-96 2431.67,-94.64 2443.63,-92.83 2454.89,-90.97"/>
<polygon fill="#63b8ff" stroke="#63b8ff" points="1821.15,-139.72 1811.33,-143.7 1821.49,-146.71 1821.15,-139.72"/>
</g>
<!-- Node23 -->
<g id="node23" class="node">
<title>Node23</title>
<g id="a_node23"><a xlink:href="CARDRdwr_8c.html" target="_top" xlink:title=" ">
<polygon fill="white" stroke="#666666" points="2743,-90.5 2596,-90.5 2596,-71.5 2743,-71.5 2743,-90.5"/>
<text text-anchor="middle" x="2669.5" y="-78.5" font-family="Helvetica,sans-Serif" font-size="10.00">libs/dolphin/card/CARDRdwr.c</text>
</a>
</g>
</g>
<!-- Node1&#45;&gt;Node23 -->
<g id="edge23" class="edge">
<title>Node1&#45;&gt;Node23</title>
<path fill="none" stroke="#63b8ff" d="M1821.04,-144.52C1958.63,-140.73 2301.49,-128.56 2586.5,-96 2597.97,-94.69 2610.26,-92.85 2621.78,-90.94"/>
<polygon fill="#63b8ff" stroke="#63b8ff" points="1820.95,-141.03 1811.05,-144.79 1821.14,-148.02 1820.95,-141.03"/>
</g>
<!-- Node24 -->
<g id="node24" class="node">
<title>Node24</title>
<g id="a_node24"><a xlink:href="CARDRead_8c.html" target="_top" xlink:title=" ">
<polygon fill="white" stroke="#666666" points="2908,-90.5 2761,-90.5 2761,-71.5 2908,-71.5 2908,-90.5"/>
<text text-anchor="middle" x="2834.5" y="-78.5" font-family="Helvetica,sans-Serif" font-size="10.00">libs/dolphin/card/CARDRead.c</text>
</a>
</g>
</g>
<!-- Node1&#45;&gt;Node24 -->
<g id="edge24" class="edge">
<title>Node1&#45;&gt;Node24</title>
<path fill="none" stroke="#63b8ff" d="M1821,-145.44C1977.13,-143.47 2401.4,-134.67 2752.5,-96 2763.98,-94.74 2776.3,-92.89 2787.8,-90.96"/>
<polygon fill="#63b8ff" stroke="#63b8ff" points="1821.25,-141.94 1811.3,-145.56 1821.34,-148.94 1821.25,-141.94"/>
</g>
<!-- Node25 -->
<g id="node25" class="node">
<title>Node25</title>
<g id="a_node25"><a xlink:href="CARDStat_8c.html" target="_top" xlink:title=" ">
<polygon fill="white" stroke="#666666" points="3069,-90.5 2926,-90.5 2926,-71.5 3069,-71.5 3069,-90.5"/>
<text text-anchor="middle" x="2997.5" y="-78.5" font-family="Helvetica,sans-Serif" font-size="10.00">libs/dolphin/card/CARDStat.c</text>
</a>
</g>
</g>
<!-- Node1&#45;&gt;Node25 -->
<g id="edge25" class="edge">
<title>Node1&#45;&gt;Node25</title>
<path fill="none" stroke="#63b8ff" d="M1821.33,-146.15C1994.77,-145.98 2500.47,-141.3 2917.5,-96 2928.85,-94.77 2941.03,-92.91 2952.38,-90.95"/>
<polygon fill="#63b8ff" stroke="#63b8ff" points="1821.41,-142.65 1811.42,-146.16 1821.42,-149.65 1821.41,-142.65"/>
</g>
<!-- Node26 -->
<g id="node26" class="node">
<title>Node26</title>
<g id="a_node26"><a xlink:href="CARDUnlock_8c.html" target="_top" xlink:title=" ">
<polygon fill="white" stroke="#666666" points="3242,-90.5 3087,-90.5 3087,-71.5 3242,-71.5 3242,-90.5"/>
<text text-anchor="middle" x="3164.5" y="-78.5" font-family="Helvetica,sans-Serif" font-size="10.00">libs/dolphin/card/CARDUnlock.c</text>
</a>
</g>
</g>
<!-- Node1&#45;&gt;Node26 -->
<g id="edge26" class="edge">
<title>Node1&#45;&gt;Node26</title>
<path fill="none" stroke="#63b8ff" d="M1821.3,-146.36C2010.15,-146.89 2596.08,-144.22 3078.5,-96 3090.69,-94.78 3103.78,-92.93 3115.97,-90.97"/>
<polygon fill="#63b8ff" stroke="#63b8ff" points="1821.49,-142.86 1811.48,-146.33 1821.47,-149.86 1821.49,-142.86"/>
</g>
<!-- Node27 -->
<g id="node27" class="node">
<title>Node27</title>
<g id="a_node27"><a xlink:href="CARDWrite_8c.html" target="_top" xlink:title=" ">
<polygon fill="white" stroke="#666666" points="3407,-90.5 3260,-90.5 3260,-71.5 3407,-71.5 3407,-90.5"/>
<text text-anchor="middle" x="3333.5" y="-78.5" font-family="Helvetica,sans-Serif" font-size="10.00">libs/dolphin/card/CARDWrite.c</text>
</a>
</g>
</g>
<!-- Node1&#45;&gt;Node27 -->
<g id="edge27" class="edge">
<title>Node1&#45;&gt;Node27</title>
<path fill="none" stroke="#63b8ff" d="M1821.17,-145.05C2065.65,-141.11 2967.21,-124.9 3251.5,-96 3263.28,-94.8 3275.93,-92.94 3287.68,-90.95"/>
<polygon fill="#63b8ff" stroke="#63b8ff" points="1821.15,-141.55 1811.21,-145.21 1821.26,-148.55 1821.15,-141.55"/>
</g>
<!-- Node28 -->
<g id="node28" class="node">
<title>Node28</title>
<g id="a_node28"><a xlink:href="OSAudioSystem_8c.html" target="_top" xlink:title=" ">
<polygon fill="white" stroke="#666666" points="3586,-90.5 3425,-90.5 3425,-71.5 3586,-71.5 3586,-90.5"/>
<text text-anchor="middle" x="3505.5" y="-78.5" font-family="Helvetica,sans-Serif" font-size="10.00">libs/dolphin/os/OSAudioSystem.c</text>
</a>
</g>
</g>
<!-- Node1&#45;&gt;Node28 -->
<g id="edge29" class="edge">
<title>Node1&#45;&gt;Node28</title>
<path fill="none" stroke="#63b8ff" d="M1821.02,-145.18C2081.88,-141.55 3097.79,-125.76 3416.5,-96 3429.27,-94.81 3442.99,-92.94 3455.74,-90.96"/>
<polygon fill="#63b8ff" stroke="#63b8ff" points="1821.36,-141.68 1811.41,-145.31 1821.45,-148.68 1821.36,-141.68"/>
</g>
<!-- Node29 -->
<g id="node29" class="node">
<title>Node29</title>
<g id="a_node29"><a xlink:href="OSInterrupt_8c.html" target="_top" xlink:title=" ">
<polygon fill="white" stroke="#666666" points="3744.5,-90.5 3604.5,-90.5 3604.5,-71.5 3744.5,-71.5 3744.5,-90.5"/>
<text text-anchor="middle" x="3674.5" y="-78.5" font-family="Helvetica,sans-Serif" font-size="10.00">libs/dolphin/os/OSInterrupt.c</text>
</a>
</g>
</g>
<!-- Node1&#45;&gt;Node29 -->
<g id="edge30" class="edge">
<title>Node1&#45;&gt;Node29</title>
<path fill="none" stroke="#63b8ff" d="M1821.16,-145.55C2099.41,-143.33 3239.95,-132.14 3595.5,-96 3607,-94.83 3619.35,-92.95 3630.79,-90.94"/>
<polygon fill="#63b8ff" stroke="#63b8ff" points="1821.19,-142.05 1811.22,-145.63 1821.25,-149.05 1821.19,-142.05"/>
</g>
<!-- Node3 -->
<g id="node3" class="node">
<title>Node3</title>
<g id="a_node3"><a xlink:href="dspproc_8cpp.html" target="_top" xlink:title=" ">
<polygon fill="white" stroke="#666666" points="111,-30 0,-30 0,0 111,0 111,-30"/>
<text text-anchor="start" x="8" y="-18" font-family="Helvetica,sans-Serif" font-size="10.00">libs/JSystem/JAudio2</text>
<text text-anchor="middle" x="55.5" y="-7" font-family="Helvetica,sans-Serif" font-size="10.00">/dspproc.cpp</text>
</a>
</g>
</g>
<!-- Node2&#45;&gt;Node3 -->
<g id="edge2" class="edge">
<title>Node2&#45;&gt;Node3</title>
<path fill="none" stroke="#63b8ff" d="M145.37,-60.59C125.73,-50.84 102.34,-39.24 84.35,-30.31"/>
<polygon fill="#63b8ff" stroke="#63b8ff" points="143.68,-63.66 154.19,-64.96 146.79,-57.38 143.68,-63.66"/>
</g>
<!-- Node4 -->
<g id="node4" class="node">
<title>Node4</title>
<g id="a_node4"><a xlink:href="osdsp__task_8cpp.html" target="_top" xlink:title=" ">
<polygon fill="white" stroke="#666666" points="240,-30 129,-30 129,0 240,0 240,-30"/>
<text text-anchor="start" x="137" y="-18" font-family="Helvetica,sans-Serif" font-size="10.00">libs/JSystem/JAudio2</text>
<text text-anchor="middle" x="184.5" y="-7" font-family="Helvetica,sans-Serif" font-size="10.00">/osdsp_task.cpp</text>
</a>
</g>
</g>
<!-- Node2&#45;&gt;Node4 -->
<g id="edge3" class="edge">
<title>Node2&#45;&gt;Node4</title>
<path fill="none" stroke="#63b8ff" d="M184.5,-54.39C184.5,-46.13 184.5,-37.28 184.5,-30.16"/>
<polygon fill="#63b8ff" stroke="#63b8ff" points="181,-54.28 184.5,-64.28 188,-54.28 181,-54.28"/>
</g>
<!-- Node5&#45;&gt;Node4 -->
<g id="edge6" class="edge">
<title>Node5&#45;&gt;Node4</title>
<path fill="none" stroke="#63b8ff" d="M323.42,-62.07C293.28,-52.07 256.25,-39.79 228,-30.43"/>
<polygon fill="#63b8ff" stroke="#63b8ff" points="322.16,-65.34 332.75,-65.16 324.36,-58.69 322.16,-65.34"/>
</g>
<!-- Node6 -->
<g id="node6" class="node">
<title>Node6</title>
<g id="a_node6"><a xlink:href="osdsp_8cpp.html" target="_top" xlink:title=" ">
<polygon fill="white" stroke="#666666" points="369,-30 258,-30 258,0 369,0 369,-30"/>
<text text-anchor="start" x="266" y="-18" font-family="Helvetica,sans-Serif" font-size="10.00">libs/JSystem/JAudio2</text>
<text text-anchor="middle" x="313.5" y="-7" font-family="Helvetica,sans-Serif" font-size="10.00">/osdsp.cpp</text>
</a>
</g>
</g>
<!-- Node5&#45;&gt;Node6 -->
<g id="edge5" class="edge">
<title>Node5&#45;&gt;Node6</title>
<path fill="none" stroke="#63b8ff" d="M355.31,-57.81C346.14,-48.64 335.78,-38.28 327.66,-30.16"/>
<polygon fill="#63b8ff" stroke="#63b8ff" points="352.68,-60.13 362.23,-64.73 357.63,-55.18 352.68,-60.13"/>
</g>
<!-- Node5&#45;&gt;Node7 -->
<g id="edge7" class="edge">
<title>Node5&#45;&gt;Node7</title>
<path fill="none" stroke="#63b8ff" d="M429.79,-62.01C464.88,-49.93 509.59,-34.55 537.38,-24.99"/>
<polygon fill="#63b8ff" stroke="#63b8ff" points="428.99,-58.58 420.67,-65.14 431.27,-65.2 428.99,-58.58"/>
</g>
<!-- Node8 -->
<g id="node8" class="node">
<title>Node8</title>
<g id="a_node8"><a xlink:href="dsp__task_8c.html" target="_top" xlink:title=" ">
<polygon fill="white" stroke="#666666" points="490,-30 387,-30 387,0 490,0 490,-30"/>
<text text-anchor="start" x="395" y="-18" font-family="Helvetica,sans-Serif" font-size="10.00">libs/dolphin/dsp/dsp</text>
<text text-anchor="middle" x="438.5" y="-7" font-family="Helvetica,sans-Serif" font-size="10.00">_task.c</text>
</a>
</g>
</g>
<!-- Node5&#45;&gt;Node8 -->
<g id="edge8" class="edge">
<title>Node5&#45;&gt;Node8</title>
<path fill="none" stroke="#63b8ff" d="M398.92,-57.53C407.59,-48.43 417.35,-38.19 425,-30.16"/>
<polygon fill="#63b8ff" stroke="#63b8ff" points="396.45,-55.05 392.08,-64.7 401.52,-59.88 396.45,-55.05"/>
</g>
</g>
</svg>
        <g id="navigator" transform="translate(0 0)" fill="#404254">
                <rect fill="#f2f5e9" fill-opacity="0.5" stroke="#606060" stroke-width=".5" x="0" y="0" width="60" height="60"/>
                <use id="zoomplus" xlink:href="#zoomPlus" x="17" y="9" onmousedown="handleZoom(evt,'in')"/>
                <use id="zoomminus" xlink:href="#zoomMin" x="42" y="9" onmousedown="handleZoom(evt,'out')"/>
                <use id="reset" xlink:href="#resetDef" x="30" y="36" onmousedown="handleReset()"/>
                <g id="arrowUp" xlink:href="#dirArrow" transform="translate(30 24)" onmousedown="handlePan(0,-1)">
                  <use xlink:href="#rim" fill="#404040">
                        <set attributeName="fill" to="#808080" begin="arrowUp.mouseover" end="arrowUp.mouseout"/>
                  </use>
                  <path fill="none" stroke="white" stroke-width="1.5" d="M0,-3.0v7 M-2.5,-0.5L0,-3.0L2.5,-0.5"/>
                </g>
                <g id="arrowRight" xlink:href="#dirArrow" transform="rotate(90) translate(36 -43)" onmousedown="handlePan(1,0)">
                  <use xlink:href="#rim" fill="#404040">
                        <set attributeName="fill" to="#808080" begin="arrowRight.mouseover" end="arrowRight.mouseout"/>
                  </use>
                  <path fill="none" stroke="white" stroke-width="1.5" d="M0,-3.0v7 M-2.5,-0.5L0,-3.0L2.5,-0.5"/>
                </g>
                <g id="arrowDown" xlink:href="#dirArrow" transform="rotate(180) translate(-30 -48)" onmousedown="handlePan(0,1)">
                  <use xlink:href="#rim" fill="#404040">
                        <set attributeName="fill" to="#808080" begin="arrowDown.mouseover" end="arrowDown.mouseout"/>
                  </use>
                  <path fill="none" stroke="white" stroke-width="1.5" d="M0,-3.0v7 M-2.5,-0.5L0,-3.0L2.5,-0.5"/>
                </g>
                <g id="arrowLeft" xlink:href="#dirArrow" transform="rotate(270) translate(-36 17)" onmousedown="handlePan(-1,0)">
                  <use xlink:href="#rim" fill="#404040">
                        <set attributeName="fill" to="#808080" begin="arrowLeft.mouseover" end="arrowLeft.mouseout"/>
                  </use>
                  <path fill="none" stroke="white" stroke-width="1.5" d="M0,-3.0v7 M-2.5,-0.5L0,-3.0L2.5,-0.5"/>
                </g>
        </g>
        <svg viewBox="0 0 15 15" width="100%" height="30px" preserveAspectRatio="xMaxYMin meet">
         <g id="arrow_out" transform="scale(0.3 0.3)">
          <a xlink:href="dsp_8h__dep__incl_org.svg" target="_base">
           <rect id="button" ry="5" rx="5" y="6" x="6" height="38" width="38"
                fill="#f2f5e9" fill-opacity="0.5" stroke="#606060" stroke-width="1.0"/>
           <path id="arrow"
             d="M 11.500037,31.436501 C 11.940474,20.09759 22.043105,11.32322 32.158766,21.979434 L 37.068811,17.246167 C 37.068811,17.246167 37.088388,32 37.088388,32 L 22.160133,31.978069 C 22.160133,31.978069 26.997745,27.140456 26.997745,27.140456 C 18.528582,18.264221 13.291696,25.230495 11.500037,31.436501 z"
             style="fill:#404040;"/>
          </a>
         </g>
        </svg>
</svg>
