<?xml version="1.0" encoding="UTF-8" standalone="no"?>
<!DOCTYPE svg PUBLIC "-//W3C//DTD SVG 1.1//EN"
 "http://www.w3.org/Graphics/SVG/1.1/DTD/svg11.dtd">
<!-- Generated by graphviz version 7.0.5 (20221223.1930)
 -->
<!-- Title: libs/dolphin/dvd/dvderror.c Pages: 1 -->
<svg width="296pt" height="203pt"
 viewBox="0.00 0.00 296.00 203.00" xmlns="http://www.w3.org/2000/svg" xmlns:xlink="http://www.w3.org/1999/xlink">
<g id="graph0" class="graph" transform="scale(1 1) rotate(0) translate(4 199)">
<title>libs/dolphin/dvd/dvderror.c</title>
<!-- Node1 -->
<g id="node1" class="node">
<title>Node1</title>
<g id="a_node1"><a xlink:title=" ">
<polygon fill="#999999" stroke="#666666" points="246,-195 116,-195 116,-176 246,-176 246,-195"/>
<text text-anchor="middle" x="181" y="-183" font-family="Helvetica,sans-Serif" font-size="10.00">libs/dolphin/dvd/dvderror.c</text>
</a>
</g>
</g>
<!-- Node2 -->
<g id="node2" class="node">
<title>Node2</title>
<g id="a_node2"><a xlink:href="dvderror_8h.html" target="_top" xlink:title=" ">
<polygon fill="white" stroke="#666666" points="112,-140 0,-140 0,-121 112,-121 112,-140"/>
<text text-anchor="middle" x="56" y="-128" font-family="Helvetica,sans-Serif" font-size="10.00">dolphin/dvd/dvderror.h</text>
</a>
</g>
</g>
<!-- Node1&#45;&gt;Node2 -->
<g id="edge1" class="edge">
<title>Node1&#45;&gt;Node2</title>
<path fill="none" stroke="#63b8ff" d="M159.8,-175.51C139.92,-167.08 109.97,-154.38 87.34,-144.79"/>
<polygon fill="#63b8ff" stroke="#63b8ff" points="88.86,-141.63 78.28,-140.95 86.13,-148.07 88.86,-141.63"/>
</g>
<!-- Node3 -->
<g id="node3" class="node">
<title>Node3</title>
<g id="a_node3"><a xlink:href="OSRtc_8h.html" target="_top" xlink:title=" ">
<polygon fill="white" stroke="#666666" points="231.5,-140 130.5,-140 130.5,-121 231.5,-121 231.5,-140"/>
<text text-anchor="middle" x="181" y="-128" font-family="Helvetica,sans-Serif" font-size="10.00">dolphin/os/OSRtc.h</text>
</a>
</g>
</g>
<!-- Node1&#45;&gt;Node3 -->
<g id="edge2" class="edge">
<title>Node1&#45;&gt;Node3</title>
<path fill="none" stroke="#63b8ff" d="M181,-175.75C181,-169.27 181,-160.16 181,-151.9"/>
<polygon fill="#63b8ff" stroke="#63b8ff" points="184.5,-151.96 181,-141.96 177.5,-151.96 184.5,-151.96"/>
</g>
<!-- Node4 -->
<g id="node4" class="node">
<title>Node4</title>
<g id="a_node4"><a xlink:href="types_8h.html" target="_top" xlink:title=" ">
<polygon fill="white" stroke="#666666" points="260.5,-85 179.5,-85 179.5,-66 260.5,-66 260.5,-85"/>
<text text-anchor="middle" x="220" y="-73" font-family="Helvetica,sans-Serif" font-size="10.00">dolphin/types.h</text>
</a>
</g>
</g>
<!-- Node1&#45;&gt;Node4 -->
<g id="edge5" class="edge">
<title>Node1&#45;&gt;Node4</title>
<path fill="none" stroke="#63b8ff" d="M201.47,-175.52C215.41,-168.17 232.78,-156.33 241,-140 248.33,-125.43 241.3,-107.74 233.45,-94.73"/>
<polygon fill="#63b8ff" stroke="#63b8ff" points="236.56,-93.08 228.09,-86.71 230.74,-96.97 236.56,-93.08"/>
</g>
<!-- Node3&#45;&gt;Node4 -->
<g id="edge3" class="edge">
<title>Node3&#45;&gt;Node4</title>
<path fill="none" stroke="#63b8ff" d="M187.44,-120.75C192.66,-113.66 200.19,-103.42 206.69,-94.59"/>
<polygon fill="#63b8ff" stroke="#63b8ff" points="209.42,-96.79 212.52,-86.66 203.78,-92.64 209.42,-96.79"/>
</g>
<!-- Node5 -->
<g id="node5" class="node">
<title>Node5</title>
<g id="a_node5"><a xlink:href="stddef_8h.html" target="_top" xlink:title=" ">
<polygon fill="white" stroke="#666666" points="288,-30 152,-30 152,0 288,0 288,-30"/>
<text text-anchor="start" x="160" y="-18" font-family="Helvetica,sans-Serif" font-size="10.00">MSL_C/MSL_Common/Src</text>
<text text-anchor="middle" x="220" y="-7" font-family="Helvetica,sans-Serif" font-size="10.00">/stddef.h</text>
</a>
</g>
</g>
<!-- Node4&#45;&gt;Node5 -->
<g id="edge4" class="edge">
<title>Node4&#45;&gt;Node5</title>
<path fill="none" stroke="#63b8ff" d="M220,-65.87C220,-59.4 220,-50.2 220,-41.45"/>
<polygon fill="#63b8ff" stroke="#63b8ff" points="223.5,-41.63 220,-31.63 216.5,-41.63 223.5,-41.63"/>
</g>
</g>
</svg>
