<?xml version="1.0" encoding="UTF-8" standalone="no"?>
<!DOCTYPE svg PUBLIC "-//W3C//DTD SVG 1.1//EN"
 "http://www.w3.org/Graphics/SVG/1.1/DTD/svg11.dtd">
<!-- Generated by graphviz version 7.0.5 (20221223.1930)
 -->
<!-- Title: libs/dolphin/dvd/dvdfs.c Pages: 1 -->
<svg width="1645pt" height="390pt"
 viewBox="0.00 0.00 1645.00 390.00" xmlns="http://www.w3.org/2000/svg" xmlns:xlink="http://www.w3.org/1999/xlink">
<g id="graph0" class="graph" transform="scale(1 1) rotate(0) translate(4 386)">
<title>libs/dolphin/dvd/dvdfs.c</title>
<!-- Node1 -->
<g id="node1" class="node">
<title>Node1</title>
<g id="a_node1"><a xlink:title=" ">
<polygon fill="#999999" stroke="#666666" points="743.5,-382 624.5,-382 624.5,-363 743.5,-363 743.5,-382"/>
<text text-anchor="middle" x="684" y="-370" font-family="Helvetica,sans-Serif" font-size="10.00">libs/dolphin/dvd/dvdfs.c</text>
</a>
</g>
</g>
<!-- Node2 -->
<g id="node2" class="node">
<title>Node2</title>
<g id="a_node2"><a xlink:href="dvdfs_8h.html" target="_top" xlink:title=" ">
<polygon fill="white" stroke="#666666" points="620.5,-321.5 519.5,-321.5 519.5,-302.5 620.5,-302.5 620.5,-321.5"/>
<text text-anchor="middle" x="570" y="-309.5" font-family="Helvetica,sans-Serif" font-size="10.00">dolphin/dvd/dvdfs.h</text>
</a>
</g>
</g>
<!-- Node1&#45;&gt;Node2 -->
<g id="edge1" class="edge">
<title>Node1&#45;&gt;Node2</title>
<path fill="none" stroke="#63b8ff" d="M666.69,-362.62C648.36,-353.21 619.16,-338.22 597.64,-327.18"/>
<polygon fill="#63b8ff" stroke="#63b8ff" points="599.32,-324.11 588.82,-322.66 596.12,-330.34 599.32,-324.11"/>
</g>
<!-- Node3 -->
<g id="node3" class="node">
<title>Node3</title>
<g id="a_node3"><a xlink:href="dvd_8h.html" target="_top" xlink:title=" ">
<polygon fill="white" stroke="#666666" points="92,-261 0,-261 0,-242 92,-242 92,-261"/>
<text text-anchor="middle" x="46" y="-249" font-family="Helvetica,sans-Serif" font-size="10.00">dolphin/dvd/dvd.h</text>
</a>
</g>
</g>
<!-- Node1&#45;&gt;Node3 -->
<g id="edge2" class="edge">
<title>Node1&#45;&gt;Node3</title>
<path fill="none" stroke="#63b8ff" d="M680.48,-362.65C673.46,-346.35 656.05,-311.88 629,-297 530.23,-242.66 235.27,-271.19 123,-261 116.65,-260.42 110.01,-259.77 103.41,-259.09"/>
<polygon fill="#63b8ff" stroke="#63b8ff" points="104.21,-255.65 93.89,-258.08 103.47,-262.61 104.21,-255.65"/>
</g>
<!-- Node6 -->
<g id="node6" class="node">
<title>Node6</title>
<g id="a_node6"><a xlink:href="OS_8h.html" target="_top" xlink:title=" ">
<polygon fill="white" stroke="#666666" points="763,-321.5 677,-321.5 677,-302.5 763,-302.5 763,-321.5"/>
<text text-anchor="middle" x="720" y="-309.5" font-family="Helvetica,sans-Serif" font-size="10.00">dolphin/os/OS.h</text>
</a>
</g>
</g>
<!-- Node1&#45;&gt;Node6 -->
<g id="edge5" class="edge">
<title>Node1&#45;&gt;Node6</title>
<path fill="none" stroke="#63b8ff" d="M689.31,-362.87C694.42,-354.57 702.29,-341.78 708.79,-331.22"/>
<polygon fill="#63b8ff" stroke="#63b8ff" points="711.61,-333.31 713.87,-322.96 705.65,-329.64 711.61,-333.31"/>
</g>
<!-- Node29 -->
<g id="node29" class="node">
<title>Node29</title>
<g id="a_node29"><a xlink:href="ctype_8h.html" target="_top" xlink:title=" ">
<polygon fill="white" stroke="#666666" points="917,-327 781,-327 781,-297 917,-297 917,-327"/>
<text text-anchor="start" x="789" y="-315" font-family="Helvetica,sans-Serif" font-size="10.00">MSL_C/MSL_Common/Src</text>
<text text-anchor="middle" x="849" y="-304" font-family="Helvetica,sans-Serif" font-size="10.00">/ctype.h</text>
</a>
</g>
</g>
<!-- Node1&#45;&gt;Node29 -->
<g id="edge50" class="edge">
<title>Node1&#45;&gt;Node29</title>
<path fill="none" stroke="#63b8ff" d="M709.06,-362.62C732.51,-354.3 768.24,-341.63 797.73,-331.18"/>
<polygon fill="#63b8ff" stroke="#63b8ff" points="798.59,-334.59 806.85,-327.95 796.25,-327.99 798.59,-334.59"/>
</g>
<!-- Node4 -->
<g id="node4" class="node">
<title>Node4</title>
<g id="a_node4"><a xlink:href="types_8h.html" target="_top" xlink:title=" ">
<polygon fill="white" stroke="#666666" points="881.5,-85 800.5,-85 800.5,-66 881.5,-66 881.5,-85"/>
<text text-anchor="middle" x="841" y="-73" font-family="Helvetica,sans-Serif" font-size="10.00">dolphin/types.h</text>
</a>
</g>
</g>
<!-- Node3&#45;&gt;Node4 -->
<g id="edge3" class="edge">
<title>Node3&#45;&gt;Node4</title>
<path fill="none" stroke="#63b8ff" d="M45.7,-241.6C45.73,-228.2 47.7,-202.75 61,-187 109.57,-129.48 143.8,-138.58 217,-121 325.15,-95.02 659.68,-82.13 789.12,-78.01"/>
<polygon fill="#63b8ff" stroke="#63b8ff" points="788.86,-81.52 798.75,-77.71 788.65,-74.52 788.86,-81.52"/>
</g>
<!-- Node5 -->
<g id="node5" class="node">
<title>Node5</title>
<g id="a_node5"><a xlink:href="stddef_8h.html" target="_top" xlink:title=" ">
<polygon fill="white" stroke="#666666" points="909,-30 773,-30 773,0 909,0 909,-30"/>
<text text-anchor="start" x="781" y="-18" font-family="Helvetica,sans-Serif" font-size="10.00">MSL_C/MSL_Common/Src</text>
<text text-anchor="middle" x="841" y="-7" font-family="Helvetica,sans-Serif" font-size="10.00">/stddef.h</text>
</a>
</g>
</g>
<!-- Node4&#45;&gt;Node5 -->
<g id="edge4" class="edge">
<title>Node4&#45;&gt;Node5</title>
<path fill="none" stroke="#63b8ff" d="M841,-65.87C841,-59.4 841,-50.2 841,-41.45"/>
<polygon fill="#63b8ff" stroke="#63b8ff" points="844.5,-41.63 841,-31.63 837.5,-41.63 844.5,-41.63"/>
</g>
<!-- Node6&#45;&gt;Node3 -->
<g id="edge8" class="edge">
<title>Node6&#45;&gt;Node3</title>
<path fill="none" stroke="#63b8ff" d="M687.64,-302.01C679.64,-300.07 671.06,-298.24 663,-297 417.81,-259.27 352.77,-286.42 106,-261 105.18,-260.92 104.35,-260.83 103.51,-260.74"/>
<polygon fill="#63b8ff" stroke="#63b8ff" points="104.31,-257.31 93.97,-259.62 103.5,-264.26 104.31,-257.31"/>
</g>
<!-- Node7 -->
<g id="node7" class="node">
<title>Node7</title>
<g id="a_node7"><a xlink:href="____va__arg_8h.html" target="_top" xlink:title=" ">
<polygon fill="white" stroke="#666666" points="1637,-151 1527,-151 1527,-121 1637,-121 1637,-151"/>
<text text-anchor="start" x="1535" y="-139" font-family="Helvetica,sans-Serif" font-size="10.00">Runtime.PPCEABI.H/</text>
<text text-anchor="middle" x="1582" y="-128" font-family="Helvetica,sans-Serif" font-size="10.00">__va_arg.h</text>
</a>
</g>
</g>
<!-- Node6&#45;&gt;Node7 -->
<g id="edge6" class="edge">
<title>Node6&#45;&gt;Node7</title>
<path fill="none" stroke="#63b8ff" d="M748.91,-302.02C756.37,-300.04 764.42,-298.18 772,-297 859.38,-283.43 1502.17,-321.13 1567,-261 1593.57,-236.35 1591.84,-191.04 1587.44,-162.55"/>
<polygon fill="#63b8ff" stroke="#63b8ff" points="1590.93,-162.19 1585.73,-152.97 1584.04,-163.42 1590.93,-162.19"/>
</g>
<!-- Node8 -->
<g id="node8" class="node">
<title>Node8</title>
<g id="a_node8"><a xlink:href="OSAlarm_8h.html" target="_top" xlink:title=" ">
<polygon fill="white" stroke="#666666" points="259.5,-261 148.5,-261 148.5,-242 259.5,-242 259.5,-261"/>
<text text-anchor="middle" x="204" y="-249" font-family="Helvetica,sans-Serif" font-size="10.00">dolphin/os/OSAlarm.h</text>
</a>
</g>
</g>
<!-- Node6&#45;&gt;Node8 -->
<g id="edge9" class="edge">
<title>Node6&#45;&gt;Node8</title>
<path fill="none" stroke="#63b8ff" d="M687.02,-302.02C679.19,-300.13 670.84,-298.32 663,-297 491.78,-268.21 446.64,-279.47 274,-261 272.99,-260.89 271.97,-260.78 270.94,-260.67"/>
<polygon fill="#63b8ff" stroke="#63b8ff" points="271.6,-257.22 261.27,-259.59 270.82,-264.18 271.6,-257.22"/>
</g>
<!-- Node9 -->
<g id="node9" class="node">
<title>Node9</title>
<g id="a_node9"><a xlink:href="OSError_8h.html" target="_top" xlink:title=" ">
<polygon fill="white" stroke="#666666" points="176,-206 70,-206 70,-187 176,-187 176,-206"/>
<text text-anchor="middle" x="123" y="-194" font-family="Helvetica,sans-Serif" font-size="10.00">dolphin/os/OSError.h</text>
</a>
</g>
</g>
<!-- Node6&#45;&gt;Node9 -->
<g id="edge23" class="edge">
<title>Node6&#45;&gt;Node9</title>
<path fill="none" stroke="#63b8ff" d="M687.64,-302.03C679.64,-300.09 671.05,-298.26 663,-297 605.34,-288.01 183.78,-298.43 139,-261 126.45,-250.51 122.95,-231.76 122.3,-217.34"/>
<polygon fill="#63b8ff" stroke="#63b8ff" points="125.8,-217.62 122.3,-207.62 118.8,-217.62 125.8,-217.62"/>
</g>
<!-- Node10 -->
<g id="node10" class="node">
<title>Node10</title>
<g id="a_node10"><a xlink:href="OSTime_8h.html" target="_top" xlink:title=" ">
<polygon fill="white" stroke="#666666" points="301.5,-206 194.5,-206 194.5,-187 301.5,-187 301.5,-206"/>
<text text-anchor="middle" x="248" y="-194" font-family="Helvetica,sans-Serif" font-size="10.00">dolphin/os/OSTime.h</text>
</a>
</g>
</g>
<!-- Node6&#45;&gt;Node10 -->
<g id="edge49" class="edge">
<title>Node6&#45;&gt;Node10</title>
<path fill="none" stroke="#63b8ff" d="M686.7,-302.05C678.96,-300.19 670.72,-298.37 663,-297 521.22,-271.77 476.01,-311.08 341,-261 312.23,-250.33 283.79,-228.88 266.08,-213.87"/>
<polygon fill="#63b8ff" stroke="#63b8ff" points="268.39,-211.24 258.55,-207.31 263.78,-216.52 268.39,-211.24"/>
</g>
<!-- Node11 -->
<g id="node11" class="node">
<title>Node11</title>
<g id="a_node11"><a xlink:href="OSAlloc_8h.html" target="_top" xlink:title=" ">
<polygon fill="white" stroke="#666666" points="426.5,-206 319.5,-206 319.5,-187 426.5,-187 426.5,-206"/>
<text text-anchor="middle" x="373" y="-194" font-family="Helvetica,sans-Serif" font-size="10.00">dolphin/os/OSAlloc.h</text>
</a>
</g>
</g>
<!-- Node6&#45;&gt;Node11 -->
<g id="edge14" class="edge">
<title>Node6&#45;&gt;Node11</title>
<path fill="none" stroke="#63b8ff" d="M686.7,-302.07C678.96,-300.21 670.72,-298.39 663,-297 594.09,-284.63 396.59,-313.26 350,-261 338.57,-248.18 347.75,-229.25 357.69,-215.39"/>
<polygon fill="#63b8ff" stroke="#63b8ff" points="360.43,-217.57 363.85,-207.55 354.92,-213.25 360.43,-217.57"/>
</g>
<!-- Node12 -->
<g id="node12" class="node">
<title>Node12</title>
<g id="a_node12"><a xlink:href="OSArena_8h.html" target="_top" xlink:title=" ">
<polygon fill="white" stroke="#666666" points="512.5,-145.5 401.5,-145.5 401.5,-126.5 512.5,-126.5 512.5,-145.5"/>
<text text-anchor="middle" x="457" y="-133.5" font-family="Helvetica,sans-Serif" font-size="10.00">dolphin/os/OSArena.h</text>
</a>
</g>
</g>
<!-- Node6&#45;&gt;Node12 -->
<g id="edge16" class="edge">
<title>Node6&#45;&gt;Node12</title>
<path fill="none" stroke="#63b8ff" d="M683.67,-302.06C675.58,-300.24 667.02,-298.44 659,-297 598.12,-286.07 423.81,-307.48 383,-261 355.48,-229.65 419.66,-226.74 435,-206 445.64,-191.62 451.25,-171.9 454.13,-157.23"/>
<polygon fill="#63b8ff" stroke="#63b8ff" points="457.58,-157.82 455.77,-147.38 450.68,-156.67 457.58,-157.82"/>
</g>
<!-- Node13 -->
<g id="node13" class="node">
<title>Node13</title>
<g id="a_node13"><a xlink:href="OSAudioSystem_8h.html" target="_top" xlink:title=" ">
<polygon fill="white" stroke="#666666" points="535.5,-261 392.5,-261 392.5,-242 535.5,-242 535.5,-261"/>
<text text-anchor="middle" x="464" y="-249" font-family="Helvetica,sans-Serif" font-size="10.00">dolphin/os/OSAudioSystem.h</text>
</a>
</g>
</g>
<!-- Node6&#45;&gt;Node13 -->
<g id="edge18" class="edge">
<title>Node6&#45;&gt;Node13</title>
<path fill="none" stroke="#63b8ff" d="M684.15,-302.07C677.14,-300.36 669.85,-298.61 663,-297 613.33,-285.35 556.52,-272.71 516.35,-263.89"/>
<polygon fill="#63b8ff" stroke="#63b8ff" points="517.21,-260.5 506.7,-261.78 515.72,-267.34 517.21,-260.5"/>
</g>
<!-- Node14 -->
<g id="node14" class="node">
<title>Node14</title>
<g id="a_node14"><a xlink:href="OSCache_8h.html" target="_top" xlink:title=" ">
<polygon fill="white" stroke="#666666" points="643.5,-145.5 530.5,-145.5 530.5,-126.5 643.5,-126.5 643.5,-145.5"/>
<text text-anchor="middle" x="587" y="-133.5" font-family="Helvetica,sans-Serif" font-size="10.00">dolphin/os/OSCache.h</text>
</a>
</g>
</g>
<!-- Node6&#45;&gt;Node14 -->
<g id="edge19" class="edge">
<title>Node6&#45;&gt;Node14</title>
<path fill="none" stroke="#63b8ff" d="M698.78,-302.15C681.03,-293.81 656.08,-279.79 640,-261 613.31,-229.82 598.32,-183.19 591.52,-156.9"/>
<polygon fill="#63b8ff" stroke="#63b8ff" points="594.94,-156.15 589.18,-147.25 588.14,-157.79 594.94,-156.15"/>
</g>
<!-- Node15 -->
<g id="node15" class="node">
<title>Node15</title>
<g id="a_node15"><a xlink:href="OSContext_8h.html" target="_top" xlink:title=" ">
<polygon fill="white" stroke="#666666" points="944.5,-145.5 825.5,-145.5 825.5,-126.5 944.5,-126.5 944.5,-145.5"/>
<text text-anchor="middle" x="885" y="-133.5" font-family="Helvetica,sans-Serif" font-size="10.00">dolphin/os/OSContext.h</text>
</a>
</g>
</g>
<!-- Node6&#45;&gt;Node15 -->
<g id="edge21" class="edge">
<title>Node6&#45;&gt;Node15</title>
<path fill="none" stroke="#63b8ff" d="M751.52,-302.06C758.25,-300.28 765.34,-298.5 772,-297 815.63,-287.18 941.34,-295.33 970,-261 975.41,-254.52 972.82,-249.96 970,-242 962.96,-222.1 923.79,-178.27 901.16,-154.01"/>
<polygon fill="#63b8ff" stroke="#63b8ff" points="903.84,-151.74 894.44,-146.85 898.74,-156.54 903.84,-151.74"/>
</g>
<!-- Node16 -->
<g id="node16" class="node">
<title>Node16</title>
<g id="a_node16"><a xlink:href="OSExec_8h.html" target="_top" xlink:title=" ">
<polygon fill="white" stroke="#666666" points="768.5,-145.5 661.5,-145.5 661.5,-126.5 768.5,-126.5 768.5,-145.5"/>
<text text-anchor="middle" x="715" y="-133.5" font-family="Helvetica,sans-Serif" font-size="10.00">dolphin/os/OSExec.h</text>
</a>
</g>
</g>
<!-- Node6&#45;&gt;Node16 -->
<g id="edge24" class="edge">
<title>Node6&#45;&gt;Node16</title>
<path fill="none" stroke="#63b8ff" d="M705.8,-302.04C692.25,-292.96 671.88,-277.87 658,-261 640.44,-239.66 635.64,-232.82 629,-206 626.97,-197.8 624.79,-194.32 629,-187 638.84,-169.89 657.04,-158.09 674.16,-150.28"/>
<polygon fill="#63b8ff" stroke="#63b8ff" points="675.33,-153.58 683.21,-146.49 672.63,-147.12 675.33,-153.58"/>
</g>
<!-- Node17 -->
<g id="node17" class="node">
<title>Node17</title>
<g id="a_node17"><a xlink:href="OSFont_8h.html" target="_top" xlink:title=" ">
<polygon fill="white" stroke="#666666" points="743.5,-206 638.5,-206 638.5,-187 743.5,-187 743.5,-206"/>
<text text-anchor="middle" x="691" y="-194" font-family="Helvetica,sans-Serif" font-size="10.00">dolphin/os/OSFont.h</text>
</a>
</g>
</g>
<!-- Node6&#45;&gt;Node17 -->
<g id="edge26" class="edge">
<title>Node6&#45;&gt;Node17</title>
<path fill="none" stroke="#63b8ff" d="M704.06,-302.07C690.56,-293.51 672.15,-279.2 664,-261 657.06,-245.49 666.1,-227.67 675.54,-214.87"/>
<polygon fill="#63b8ff" stroke="#63b8ff" points="678.05,-217.32 681.63,-207.35 672.62,-212.92 678.05,-217.32"/>
</g>
<!-- Node18 -->
<g id="node18" class="node">
<title>Node18</title>
<g id="a_node18"><a xlink:href="OSInterrupt_8h.html" target="_top" xlink:title=" ">
<polygon fill="white" stroke="#666666" points="1080,-206 958,-206 958,-187 1080,-187 1080,-206"/>
<text text-anchor="middle" x="1019" y="-194" font-family="Helvetica,sans-Serif" font-size="10.00">dolphin/os/OSInterrupt.h</text>
</a>
</g>
</g>
<!-- Node6&#45;&gt;Node18 -->
<g id="edge28" class="edge">
<title>Node6&#45;&gt;Node18</title>
<path fill="none" stroke="#63b8ff" d="M749.78,-302.07C757,-300.16 764.73,-298.32 772,-297 854.37,-282.07 1090.7,-322.96 1147,-261 1170.43,-235.21 1129.62,-218.61 1088.01,-208.87"/>
<polygon fill="#63b8ff" stroke="#63b8ff" points="1088.88,-205.48 1078.36,-206.75 1087.38,-212.32 1088.88,-205.48"/>
</g>
<!-- Node19 -->
<g id="node19" class="node">
<title>Node19</title>
<g id="a_node19"><a xlink:href="OSLink_8h.html" target="_top" xlink:title=" ">
<polygon fill="white" stroke="#666666" points="1144,-145.5 1040,-145.5 1040,-126.5 1144,-126.5 1144,-145.5"/>
<text text-anchor="middle" x="1092" y="-133.5" font-family="Helvetica,sans-Serif" font-size="10.00">dolphin/os/OSLink.h</text>
</a>
</g>
</g>
<!-- Node6&#45;&gt;Node19 -->
<g id="edge30" class="edge">
<title>Node6&#45;&gt;Node19</title>
<path fill="none" stroke="#63b8ff" d="M749.77,-302.04C756.99,-300.13 764.73,-298.3 772,-297 815.16,-289.27 1135.44,-293.39 1165,-261 1188.27,-235.5 1134.32,-215.82 1127,-206 1115.45,-190.52 1105.84,-170.67 1099.63,-156.24"/>
<polygon fill="#63b8ff" stroke="#63b8ff" points="1102.87,-154.91 1095.82,-147 1096.4,-157.58 1102.87,-154.91"/>
</g>
<!-- Node20 -->
<g id="node20" class="node">
<title>Node20</title>
<g id="a_node20"><a xlink:href="OSMemory_8h.html" target="_top" xlink:title=" ">
<polygon fill="white" stroke="#666666" points="1138,-261 1018,-261 1018,-242 1138,-242 1138,-261"/>
<text text-anchor="middle" x="1078" y="-249" font-family="Helvetica,sans-Serif" font-size="10.00">dolphin/os/OSMemory.h</text>
</a>
</g>
</g>
<!-- Node6&#45;&gt;Node20 -->
<g id="edge32" class="edge">
<title>Node6&#45;&gt;Node20</title>
<path fill="none" stroke="#63b8ff" d="M750.93,-302.03C757.83,-300.21 765.13,-298.42 772,-297 815.44,-288.03 930.32,-272.09 1006.3,-261.93"/>
<polygon fill="#63b8ff" stroke="#63b8ff" points="1006.73,-265.4 1016.18,-260.61 1005.8,-258.46 1006.73,-265.4"/>
</g>
<!-- Node21 -->
<g id="node21" class="node">
<title>Node21</title>
<g id="a_node21"><a xlink:href="OSMessage_8h.html" target="_top" xlink:title=" ">
<polygon fill="white" stroke="#666666" points="961.5,-261 836.5,-261 836.5,-242 961.5,-242 961.5,-261"/>
<text text-anchor="middle" x="899" y="-249" font-family="Helvetica,sans-Serif" font-size="10.00">dolphin/os/OSMessage.h</text>
</a>
</g>
</g>
<!-- Node6&#45;&gt;Node21 -->
<g id="edge34" class="edge">
<title>Node6&#45;&gt;Node21</title>
<path fill="none" stroke="#63b8ff" d="M747.19,-302.12C777.54,-292.19 826.89,-276.07 861.05,-264.9"/>
<polygon fill="#63b8ff" stroke="#63b8ff" points="861.7,-268.37 870.12,-261.94 859.53,-261.72 861.7,-268.37"/>
</g>
<!-- Node22 -->
<g id="node22" class="node">
<title>Node22</title>
<g id="a_node22"><a xlink:href="OSThread_8h.html" target="_top" xlink:title=" ">
<polygon fill="white" stroke="#666666" points="894,-206 778,-206 778,-187 894,-187 894,-206"/>
<text text-anchor="middle" x="836" y="-194" font-family="Helvetica,sans-Serif" font-size="10.00">dolphin/os/OSThread.h</text>
</a>
</g>
</g>
<!-- Node6&#45;&gt;Node22 -->
<g id="edge48" class="edge">
<title>Node6&#45;&gt;Node22</title>
<path fill="none" stroke="#63b8ff" d="M712.31,-302.15C701.18,-288.2 683.3,-260.77 697,-242 713.14,-219.88 740.42,-208.51 766.57,-202.75"/>
<polygon fill="#63b8ff" stroke="#63b8ff" points="767.02,-206.23 776.18,-200.9 765.69,-199.35 767.02,-206.23"/>
</g>
<!-- Node23 -->
<g id="node23" class="node">
<title>Node23</title>
<g id="a_node23"><a xlink:href="OSMutex_8h.html" target="_top" xlink:title=" ">
<polygon fill="white" stroke="#666666" points="818,-261 706,-261 706,-242 818,-242 818,-261"/>
<text text-anchor="middle" x="762" y="-249" font-family="Helvetica,sans-Serif" font-size="10.00">dolphin/os/OSMutex.h</text>
</a>
</g>
</g>
<!-- Node6&#45;&gt;Node23 -->
<g id="edge37" class="edge">
<title>Node6&#45;&gt;Node23</title>
<path fill="none" stroke="#63b8ff" d="M726.2,-302.37C732.21,-293.99 741.53,-281.01 749.15,-270.39"/>
<polygon fill="#63b8ff" stroke="#63b8ff" points="751.91,-272.56 754.89,-262.4 746.22,-268.48 751.91,-272.56"/>
</g>
<!-- Node24 -->
<g id="node24" class="node">
<title>Node24</title>
<g id="a_node24"><a xlink:href="OSReboot_8h.html" target="_top" xlink:title=" ">
<polygon fill="white" stroke="#666666" points="1252,-206 1136,-206 1136,-187 1252,-187 1252,-206"/>
<text text-anchor="middle" x="1194" y="-194" font-family="Helvetica,sans-Serif" font-size="10.00">dolphin/os/OSReboot.h</text>
</a>
</g>
</g>
<!-- Node6&#45;&gt;Node24 -->
<g id="edge39" class="edge">
<title>Node6&#45;&gt;Node24</title>
<path fill="none" stroke="#63b8ff" d="M749.49,-302.06C756.79,-300.13 764.63,-298.28 772,-297 820.99,-288.5 1184.29,-297.54 1218,-261 1229.82,-248.19 1219.97,-228.99 1209.55,-215.06"/>
<polygon fill="#63b8ff" stroke="#63b8ff" points="1212.48,-213.12 1203.46,-207.57 1207.06,-217.54 1212.48,-213.12"/>
</g>
<!-- Node25 -->
<g id="node25" class="node">
<title>Node25</title>
<g id="a_node25"><a xlink:href="OSReset_8h.html" target="_top" xlink:title=" ">
<polygon fill="white" stroke="#666666" points="1328.5,-145.5 1217.5,-145.5 1217.5,-126.5 1328.5,-126.5 1328.5,-145.5"/>
<text text-anchor="middle" x="1273" y="-133.5" font-family="Helvetica,sans-Serif" font-size="10.00">dolphin/os/OSReset.h</text>
</a>
</g>
</g>
<!-- Node6&#45;&gt;Node25 -->
<g id="edge41" class="edge">
<title>Node6&#45;&gt;Node25</title>
<path fill="none" stroke="#63b8ff" d="M749.49,-302.04C756.79,-300.11 764.63,-298.27 772,-297 873.71,-279.51 1150.02,-319.56 1235,-261 1268.28,-238.07 1273.57,-186.33 1273.76,-157.45"/>
<polygon fill="#63b8ff" stroke="#63b8ff" points="1277.26,-157.44 1273.6,-147.5 1270.26,-157.55 1277.26,-157.44"/>
</g>
<!-- Node26 -->
<g id="node26" class="node">
<title>Node26</title>
<g id="a_node26"><a xlink:href="OSResetSW_8h.html" target="_top" xlink:title=" ">
<polygon fill="white" stroke="#666666" points="1435.5,-206 1308.5,-206 1308.5,-187 1435.5,-187 1435.5,-206"/>
<text text-anchor="middle" x="1372" y="-194" font-family="Helvetica,sans-Serif" font-size="10.00">dolphin/os/OSResetSW.h</text>
</a>
</g>
</g>
<!-- Node6&#45;&gt;Node26 -->
<g id="edge43" class="edge">
<title>Node6&#45;&gt;Node26</title>
<path fill="none" stroke="#63b8ff" d="M749.21,-302.07C756.58,-300.11 764.53,-298.25 772,-297 886.68,-277.8 1185.85,-303.7 1294,-261 1319.25,-251.03 1342.6,-229.75 1357.05,-214.57"/>
<polygon fill="#63b8ff" stroke="#63b8ff" points="1359.27,-217.32 1363.45,-207.59 1354.11,-212.59 1359.27,-217.32"/>
</g>
<!-- Node27 -->
<g id="node27" class="node">
<title>Node27</title>
<g id="a_node27"><a xlink:href="OSRtc_8h.html" target="_top" xlink:title=" ">
<polygon fill="white" stroke="#666666" points="1503.5,-145.5 1402.5,-145.5 1402.5,-126.5 1503.5,-126.5 1503.5,-145.5"/>
<text text-anchor="middle" x="1453" y="-133.5" font-family="Helvetica,sans-Serif" font-size="10.00">dolphin/os/OSRtc.h</text>
</a>
</g>
</g>
<!-- Node6&#45;&gt;Node27 -->
<g id="edge45" class="edge">
<title>Node6&#45;&gt;Node27</title>
<path fill="none" stroke="#63b8ff" d="M749.2,-302.05C756.58,-300.09 764.53,-298.24 772,-297 1014.55,-256.85 1085.63,-321.22 1324,-261 1380.88,-246.63 1409.18,-253.22 1444,-206 1454.31,-192.01 1455.88,-171.96 1455.27,-157.07"/>
<polygon fill="#63b8ff" stroke="#63b8ff" points="1458.76,-156.79 1454.46,-147.11 1451.78,-157.36 1458.76,-156.79"/>
</g>
<!-- Node28 -->
<g id="node28" class="node">
<title>Node28</title>
<g id="a_node28"><a xlink:href="OSSync_8h.html" target="_top" xlink:title=" ">
<polygon fill="white" stroke="#666666" points="1558.5,-261 1451.5,-261 1451.5,-242 1558.5,-242 1558.5,-261"/>
<text text-anchor="middle" x="1505" y="-249" font-family="Helvetica,sans-Serif" font-size="10.00">dolphin/os/OSSync.h</text>
</a>
</g>
</g>
<!-- Node6&#45;&gt;Node28 -->
<g id="edge47" class="edge">
<title>Node6&#45;&gt;Node28</title>
<path fill="none" stroke="#63b8ff" d="M748.92,-302.07C756.37,-300.08 764.43,-298.21 772,-297 1064.28,-250.27 1142.19,-287.37 1437,-261 1438.01,-260.91 1439.03,-260.82 1440.06,-260.72"/>
<polygon fill="#63b8ff" stroke="#63b8ff" points="1440.12,-264.23 1449.71,-259.73 1439.41,-257.27 1440.12,-264.23"/>
</g>
<!-- Node7&#45;&gt;Node4 -->
<g id="edge7" class="edge">
<title>Node7&#45;&gt;Node4</title>
<path fill="none" stroke="#63b8ff" d="M1526.71,-123.25C1521.75,-122.4 1516.79,-121.64 1512,-121 1282.57,-90.58 1006.11,-80.59 893.03,-77.63"/>
<polygon fill="#63b8ff" stroke="#63b8ff" points="893.25,-74.13 883.16,-77.38 893.07,-81.13 893.25,-74.13"/>
</g>
<!-- Node8&#45;&gt;Node9 -->
<g id="edge10" class="edge">
<title>Node8&#45;&gt;Node9</title>
<path fill="none" stroke="#63b8ff" d="M190.26,-241.51C178.2,-233.62 160.41,-221.98 146.16,-212.65"/>
<polygon fill="#63b8ff" stroke="#63b8ff" points="148.09,-209.73 137.8,-207.19 144.26,-215.59 148.09,-209.73"/>
</g>
<!-- Node8&#45;&gt;Node10 -->
<g id="edge12" class="edge">
<title>Node8&#45;&gt;Node10</title>
<path fill="none" stroke="#63b8ff" d="M211.27,-241.75C217.28,-234.5 226.01,-223.98 233.46,-215.02"/>
<polygon fill="#63b8ff" stroke="#63b8ff" points="235.92,-217.54 239.61,-207.61 230.53,-213.07 235.92,-217.54"/>
</g>
<!-- Node9&#45;&gt;Node4 -->
<g id="edge11" class="edge">
<title>Node9&#45;&gt;Node4</title>
<path fill="none" stroke="#63b8ff" d="M140.03,-186.61C171.97,-170.41 243.49,-136.31 308,-121 480.59,-80.03 692.4,-75.43 788.79,-75.73"/>
<polygon fill="#63b8ff" stroke="#63b8ff" points="788.7,-79.23 798.72,-75.78 788.74,-72.23 788.7,-79.23"/>
</g>
<!-- Node10&#45;&gt;Node4 -->
<g id="edge13" class="edge">
<title>Node10&#45;&gt;Node4</title>
<path fill="none" stroke="#63b8ff" d="M258.79,-186.68C279.35,-170.44 326.19,-136.07 372,-121 448.29,-95.9 683.54,-83.12 788.96,-78.53"/>
<polygon fill="#63b8ff" stroke="#63b8ff" points="788.9,-82.04 798.74,-78.12 788.6,-75.04 788.9,-82.04"/>
</g>
<!-- Node11&#45;&gt;Node4 -->
<g id="edge15" class="edge">
<title>Node11&#45;&gt;Node4</title>
<path fill="none" stroke="#63b8ff" d="M372.31,-186.74C371.6,-170.91 372.66,-137.62 392,-121 421.59,-95.57 676.99,-82.77 788.87,-78.34"/>
<polygon fill="#63b8ff" stroke="#63b8ff" points="788.82,-81.85 798.68,-77.96 788.55,-74.85 788.82,-81.85"/>
</g>
<!-- Node12&#45;&gt;Node4 -->
<g id="edge17" class="edge">
<title>Node12&#45;&gt;Node4</title>
<path fill="none" stroke="#63b8ff" d="M495.83,-126C504.11,-124.23 512.83,-122.46 521,-121 614.96,-104.22 725.39,-90.08 788.88,-82.49"/>
<polygon fill="#63b8ff" stroke="#63b8ff" points="789.16,-85.99 798.67,-81.33 788.33,-79.03 789.16,-85.99"/>
</g>
<!-- Node14&#45;&gt;Node4 -->
<g id="edge20" class="edge">
<title>Node14&#45;&gt;Node4</title>
<path fill="none" stroke="#63b8ff" d="M625.85,-126.05C670.11,-115.86 742.55,-99.17 790.99,-88.02"/>
<polygon fill="#63b8ff" stroke="#63b8ff" points="791.72,-91.44 800.68,-85.79 790.15,-84.62 791.72,-91.44"/>
</g>
<!-- Node15&#45;&gt;Node4 -->
<g id="edge22" class="edge">
<title>Node15&#45;&gt;Node4</title>
<path fill="none" stroke="#63b8ff" d="M878.51,-126.37C872.14,-117.9 862.24,-104.74 854.21,-94.07"/>
<polygon fill="#63b8ff" stroke="#63b8ff" points="857.24,-92.26 848.43,-86.38 851.64,-96.47 857.24,-92.26"/>
</g>
<!-- Node16&#45;&gt;Node4 -->
<g id="edge25" class="edge">
<title>Node16&#45;&gt;Node4</title>
<path fill="none" stroke="#63b8ff" d="M734.14,-126.12C754.67,-116.58 787.56,-101.31 811.43,-90.23"/>
<polygon fill="#63b8ff" stroke="#63b8ff" points="812.71,-93.49 820.31,-86.11 809.77,-87.14 812.71,-93.49"/>
</g>
<!-- Node17&#45;&gt;Node4 -->
<g id="edge27" class="edge">
<title>Node17&#45;&gt;Node4</title>
<path fill="none" stroke="#63b8ff" d="M713.96,-186.51C732.14,-178.73 757.62,-166.33 777,-151 797.82,-134.53 816.99,-110.54 828.81,-94.27"/>
<polygon fill="#63b8ff" stroke="#63b8ff" points="831.38,-96.69 834.3,-86.5 825.67,-92.65 831.38,-96.69"/>
</g>
<!-- Node18&#45;&gt;Node4 -->
<g id="edge29" class="edge">
<title>Node18&#45;&gt;Node4</title>
<path fill="none" stroke="#63b8ff" d="M1013.46,-186.96C1003.21,-171.76 979.87,-139.86 953,-121 932.8,-106.82 907.44,-96.26 885.96,-89"/>
<polygon fill="#63b8ff" stroke="#63b8ff" points="887.17,-85.71 876.57,-85.96 885.01,-92.37 887.17,-85.71"/>
</g>
<!-- Node19&#45;&gt;Node4 -->
<g id="edge31" class="edge">
<title>Node19&#45;&gt;Node4</title>
<path fill="none" stroke="#63b8ff" d="M1053.61,-126.05C1009.87,-115.86 938.29,-99.17 890.42,-88.02"/>
<polygon fill="#63b8ff" stroke="#63b8ff" points="891.4,-84.65 880.86,-85.79 889.81,-91.47 891.4,-84.65"/>
</g>
<!-- Node20&#45;&gt;Node18 -->
<g id="edge33" class="edge">
<title>Node20&#45;&gt;Node18</title>
<path fill="none" stroke="#63b8ff" d="M1067.99,-241.51C1059.63,-234 1047.5,-223.1 1037.4,-214.03"/>
<polygon fill="#63b8ff" stroke="#63b8ff" points="1039.76,-211.45 1029.99,-207.37 1035.09,-216.66 1039.76,-211.45"/>
</g>
<!-- Node21&#45;&gt;Node22 -->
<g id="edge35" class="edge">
<title>Node21&#45;&gt;Node22</title>
<path fill="none" stroke="#63b8ff" d="M888.31,-241.51C879.3,-233.93 866.17,-222.88 855.32,-213.75"/>
<polygon fill="#63b8ff" stroke="#63b8ff" points="857.59,-211.09 847.69,-207.33 853.09,-216.45 857.59,-211.09"/>
</g>
<!-- Node22&#45;&gt;Node15 -->
<g id="edge36" class="edge">
<title>Node22&#45;&gt;Node15</title>
<path fill="none" stroke="#63b8ff" d="M843.23,-186.87C850.4,-178.31 861.57,-164.97 870.56,-154.24"/>
<polygon fill="#63b8ff" stroke="#63b8ff" points="873.03,-156.74 876.77,-146.83 867.66,-152.25 873.03,-156.74"/>
</g>
<!-- Node23&#45;&gt;Node22 -->
<g id="edge38" class="edge">
<title>Node23&#45;&gt;Node22</title>
<path fill="none" stroke="#63b8ff" d="M774.55,-241.51C785.46,-233.7 801.5,-222.21 814.46,-212.93"/>
<polygon fill="#63b8ff" stroke="#63b8ff" points="816.31,-215.91 822.4,-207.24 812.23,-210.22 816.31,-215.91"/>
</g>
<!-- Node24&#45;&gt;Node4 -->
<g id="edge40" class="edge">
<title>Node24&#45;&gt;Node4</title>
<path fill="none" stroke="#63b8ff" d="M1191.9,-186.63C1187.6,-170.61 1176.2,-137.03 1153,-121 1111.95,-92.63 971.03,-82.1 893.37,-78.39"/>
<polygon fill="#63b8ff" stroke="#63b8ff" points="893.6,-74.89 883.45,-77.94 893.28,-81.89 893.6,-74.89"/>
</g>
<!-- Node25&#45;&gt;Node4 -->
<g id="edge42" class="edge">
<title>Node25&#45;&gt;Node4</title>
<path fill="none" stroke="#63b8ff" d="M1226.85,-126.06C1217.02,-124.28 1206.68,-122.5 1197,-121 1089.27,-104.36 962.46,-89.67 893,-82.05"/>
<polygon fill="#63b8ff" stroke="#63b8ff" points="893.78,-78.61 883.46,-81 893.02,-85.57 893.78,-78.61"/>
</g>
<!-- Node26&#45;&gt;Node4 -->
<g id="edge44" class="edge">
<title>Node26&#45;&gt;Node4</title>
<path fill="none" stroke="#63b8ff" d="M1370.7,-186.56C1367.84,-170.42 1359.36,-136.65 1337,-121 1301.22,-95.97 1013.02,-82.73 893.08,-78.26"/>
<polygon fill="#63b8ff" stroke="#63b8ff" points="893.31,-74.77 883.19,-77.9 893.05,-81.76 893.31,-74.77"/>
</g>
<!-- Node27&#45;&gt;Node4 -->
<g id="edge46" class="edge">
<title>Node27&#45;&gt;Node4</title>
<path fill="none" stroke="#63b8ff" d="M1409.1,-126.03C1398.92,-124.17 1388.11,-122.36 1378,-121 1201.11,-97.22 989.61,-84.17 893.34,-79.06"/>
<polygon fill="#63b8ff" stroke="#63b8ff" points="893.59,-75.57 883.42,-78.54 893.22,-82.56 893.59,-75.57"/>
</g>
</g>
</svg>
