<?xml version="1.0" encoding="UTF-8" standalone="no"?>
<!DOCTYPE svg PUBLIC "-//W3C//DTD SVG 1.1//EN"
 "http://www.w3.org/Graphics/SVG/1.1/DTD/svg11.dtd">
<!-- Generated by graphviz version 7.0.5 (20221223.1930)
 -->
<!-- Title: src/f_op/f_op_actor_tag.cpp Pages: 1 -->
<svg width="313pt" height="302pt"
 viewBox="0.00 0.00 313.00 302.00" xmlns="http://www.w3.org/2000/svg" xmlns:xlink="http://www.w3.org/1999/xlink">
<g id="graph0" class="graph" transform="scale(1 1) rotate(0) translate(4 298)">
<title>src/f_op/f_op_actor_tag.cpp</title>
<!-- Node1 -->
<g id="node1" class="node">
<title>Node1</title>
<g id="a_node1"><a xlink:title=" ">
<polygon fill="#999999" stroke="#666666" points="231.5,-294 130.5,-294 130.5,-264 231.5,-264 231.5,-294"/>
<text text-anchor="start" x="138.5" y="-282" font-family="Helvetica,sans-Serif" font-size="10.00">src/f_op/f_op_actor</text>
<text text-anchor="middle" x="181" y="-271" font-family="Helvetica,sans-Serif" font-size="10.00">_tag.cpp</text>
</a>
</g>
</g>
<!-- Node2 -->
<g id="node2" class="node">
<title>Node2</title>
<g id="a_node2"><a xlink:href="f__op__actor__tag_8h.html" target="_top" xlink:title=" ">
<polygon fill="white" stroke="#666666" points="171,-222.5 61,-222.5 61,-203.5 171,-203.5 171,-222.5"/>
<text text-anchor="middle" x="116" y="-210.5" font-family="Helvetica,sans-Serif" font-size="10.00">f_op/f_op_actor_tag.h</text>
</a>
</g>
</g>
<!-- Node1&#45;&gt;Node2 -->
<g id="edge1" class="edge">
<title>Node1&#45;&gt;Node2</title>
<path fill="none" stroke="#63b8ff" d="M166.57,-263.8C156.64,-254.01 143.4,-240.98 132.96,-230.7"/>
<polygon fill="#63b8ff" stroke="#63b8ff" points="135.64,-228.43 126.06,-223.91 130.73,-233.42 135.64,-228.43"/>
</g>
<!-- Node7 -->
<g id="node7" class="node">
<title>Node7</title>
<g id="a_node7"><a xlink:href="c__list_8h.html" target="_top" xlink:title=" ">
<polygon fill="white" stroke="#666666" points="305,-228 189,-228 189,-198 305,-198 305,-228"/>
<text text-anchor="start" x="197" y="-216" font-family="Helvetica,sans-Serif" font-size="10.00">SSystem/SComponent</text>
<text text-anchor="middle" x="247" y="-205" font-family="Helvetica,sans-Serif" font-size="10.00">/c_list.h</text>
</a>
</g>
</g>
<!-- Node1&#45;&gt;Node7 -->
<g id="edge6" class="edge">
<title>Node1&#45;&gt;Node7</title>
<path fill="none" stroke="#63b8ff" d="M195.65,-263.8C204.02,-255.68 214.71,-245.31 224.16,-236.15"/>
<polygon fill="#63b8ff" stroke="#63b8ff" points="226.56,-238.69 231.31,-229.22 221.69,-233.67 226.56,-238.69"/>
</g>
<!-- Node3 -->
<g id="node3" class="node">
<title>Node3</title>
<g id="a_node3"><a xlink:href="c__tag_8h.html" target="_top" xlink:title=" ">
<polygon fill="white" stroke="#666666" points="174,-162 58,-162 58,-132 174,-132 174,-162"/>
<text text-anchor="start" x="66" y="-150" font-family="Helvetica,sans-Serif" font-size="10.00">SSystem/SComponent</text>
<text text-anchor="middle" x="116" y="-139" font-family="Helvetica,sans-Serif" font-size="10.00">/c_tag.h</text>
</a>
</g>
</g>
<!-- Node2&#45;&gt;Node3 -->
<g id="edge2" class="edge">
<title>Node2&#45;&gt;Node3</title>
<path fill="none" stroke="#63b8ff" d="M116,-203.1C116,-195.41 116,-183.92 116,-173.42"/>
<polygon fill="#63b8ff" stroke="#63b8ff" points="119.5,-173.75 116,-163.75 112.5,-173.75 119.5,-173.75"/>
</g>
<!-- Node4 -->
<g id="node4" class="node">
<title>Node4</title>
<g id="a_node4"><a xlink:href="c__node_8h.html" target="_top" xlink:title=" ">
<polygon fill="white" stroke="#666666" points="116,-96 0,-96 0,-66 116,-66 116,-96"/>
<text text-anchor="start" x="8" y="-84" font-family="Helvetica,sans-Serif" font-size="10.00">SSystem/SComponent</text>
<text text-anchor="middle" x="58" y="-73" font-family="Helvetica,sans-Serif" font-size="10.00">/c_node.h</text>
</a>
</g>
</g>
<!-- Node3&#45;&gt;Node4 -->
<g id="edge3" class="edge">
<title>Node3&#45;&gt;Node4</title>
<path fill="none" stroke="#63b8ff" d="M103.13,-131.8C95.84,-123.76 86.57,-113.53 78.33,-104.43"/>
<polygon fill="#63b8ff" stroke="#63b8ff" points="81.16,-102.35 71.85,-97.29 75.97,-107.05 81.16,-102.35"/>
</g>
<!-- Node5 -->
<g id="node5" class="node">
<title>Node5</title>
<g id="a_node5"><a xlink:href="types_8h.html" target="_top" xlink:title=" ">
<polygon fill="white" stroke="#666666" points="215.5,-90.5 134.5,-90.5 134.5,-71.5 215.5,-71.5 215.5,-90.5"/>
<text text-anchor="middle" x="175" y="-78.5" font-family="Helvetica,sans-Serif" font-size="10.00">dolphin/types.h</text>
</a>
</g>
</g>
<!-- Node3&#45;&gt;Node5 -->
<g id="edge4" class="edge">
<title>Node3&#45;&gt;Node5</title>
<path fill="none" stroke="#63b8ff" d="M129.09,-131.8C138.02,-122.11 149.89,-109.24 159.32,-99.01"/>
<polygon fill="#63b8ff" stroke="#63b8ff" points="161.62,-101.68 165.82,-91.96 156.47,-96.94 161.62,-101.68"/>
</g>
<!-- Node6 -->
<g id="node6" class="node">
<title>Node6</title>
<g id="a_node6"><a xlink:href="stddef_8h.html" target="_top" xlink:title=" ">
<polygon fill="white" stroke="#666666" points="243,-30 107,-30 107,0 243,0 243,-30"/>
<text text-anchor="start" x="115" y="-18" font-family="Helvetica,sans-Serif" font-size="10.00">MSL_C/MSL_Common/Src</text>
<text text-anchor="middle" x="175" y="-7" font-family="Helvetica,sans-Serif" font-size="10.00">/stddef.h</text>
</a>
</g>
</g>
<!-- Node5&#45;&gt;Node6 -->
<g id="edge5" class="edge">
<title>Node5&#45;&gt;Node6</title>
<path fill="none" stroke="#63b8ff" d="M175,-71.1C175,-63.41 175,-51.92 175,-41.42"/>
<polygon fill="#63b8ff" stroke="#63b8ff" points="178.5,-41.75 175,-31.75 171.5,-41.75 178.5,-41.75"/>
</g>
</g>
</svg>
