<?xml version="1.0" encoding="UTF-8" standalone="no"?>
<!DOCTYPE svg PUBLIC "-//W3C//DTD SVG 1.1//EN"
 "http://www.w3.org/Graphics/SVG/1.1/DTD/svg11.dtd">
<!-- Generated by graphviz version 7.0.5 (20221223.1930)
 -->
<!-- Title: src/f_op/f_op_view.cpp Pages: 1 -->
<svg width="1526pt" height="533pt"
 viewBox="0.00 0.00 1526.00 533.00" xmlns="http://www.w3.org/2000/svg" xmlns:xlink="http://www.w3.org/1999/xlink">
<g id="graph0" class="graph" transform="scale(1 1) rotate(0) translate(4 529)">
<title>src/f_op/f_op_view.cpp</title>
<!-- Node1 -->
<g id="node1" class="node">
<title>Node1</title>
<g id="a_node1"><a xlink:title=" ">
<polygon fill="#999999" stroke="#666666" points="978.5,-525 861.5,-525 861.5,-506 978.5,-506 978.5,-525"/>
<text text-anchor="middle" x="920" y="-513" font-family="Helvetica,sans-Serif" font-size="10.00">src/f_op/f_op_view.cpp</text>
</a>
</g>
</g>
<!-- Node2 -->
<g id="node2" class="node">
<title>Node2</title>
<g id="a_node2"><a xlink:href="f__op__view_8h.html" target="_top" xlink:title=" ">
<polygon fill="white" stroke="#666666" points="1168,-470 1078,-470 1078,-451 1168,-451 1168,-470"/>
<text text-anchor="middle" x="1123" y="-458" font-family="Helvetica,sans-Serif" font-size="10.00">f_op/f_op_view.h</text>
</a>
</g>
</g>
<!-- Node1&#45;&gt;Node2 -->
<g id="edge1" class="edge">
<title>Node1&#45;&gt;Node2</title>
<path fill="none" stroke="#63b8ff" d="M954.44,-505.51C988.37,-496.65 1040.4,-483.07 1077.68,-473.33"/>
<polygon fill="#63b8ff" stroke="#63b8ff" points="1078.48,-476.74 1087.27,-470.83 1076.71,-469.97 1078.48,-476.74"/>
</g>
<!-- Node25 -->
<g id="node25" class="node">
<title>Node25</title>
<g id="a_node25"><a xlink:href="f__pc__manager_8h.html" target="_top" xlink:title=" ">
<polygon fill="white" stroke="#666666" points="915.5,-470 808.5,-470 808.5,-451 915.5,-451 915.5,-470"/>
<text text-anchor="middle" x="862" y="-458" font-family="Helvetica,sans-Serif" font-size="10.00">f_pc/f_pc_manager.h</text>
</a>
</g>
</g>
<!-- Node1&#45;&gt;Node25 -->
<g id="edge34" class="edge">
<title>Node1&#45;&gt;Node25</title>
<path fill="none" stroke="#63b8ff" d="M910.16,-505.51C901.95,-498 890.02,-487.1 880.09,-478.03"/>
<polygon fill="#63b8ff" stroke="#63b8ff" points="882.55,-475.54 872.81,-471.38 877.83,-480.71 882.55,-475.54"/>
</g>
<!-- Node3 -->
<g id="node3" class="node">
<title>Node3</title>
<g id="a_node3"><a xlink:href="c__xyz_8h.html" target="_top" xlink:title=" ">
<polygon fill="white" stroke="#666666" points="1412,-415 1296,-415 1296,-385 1412,-385 1412,-415"/>
<text text-anchor="start" x="1304" y="-403" font-family="Helvetica,sans-Serif" font-size="10.00">SSystem/SComponent</text>
<text text-anchor="middle" x="1354" y="-392" font-family="Helvetica,sans-Serif" font-size="10.00">/c_xyz.h</text>
</a>
</g>
</g>
<!-- Node2&#45;&gt;Node3 -->
<g id="edge2" class="edge">
<title>Node2&#45;&gt;Node3</title>
<path fill="none" stroke="#63b8ff" d="M1158.34,-450.55C1192.21,-441.97 1244.25,-428.79 1286.14,-418.18"/>
<polygon fill="#63b8ff" stroke="#63b8ff" points="1286.81,-421.63 1295.64,-415.78 1285.09,-414.84 1286.81,-421.63"/>
</g>
<!-- Node10 -->
<g id="node10" class="node">
<title>Node10</title>
<g id="a_node10"><a xlink:href="mtx_8h.html" target="_top" xlink:title=" ">
<polygon fill="white" stroke="#666666" points="1281,-288.5 1189,-288.5 1189,-269.5 1281,-269.5 1281,-288.5"/>
<text text-anchor="middle" x="1235" y="-276.5" font-family="Helvetica,sans-Serif" font-size="10.00">dolphin/mtx/mtx.h</text>
</a>
</g>
</g>
<!-- Node2&#45;&gt;Node10 -->
<g id="edge9" class="edge">
<title>Node2&#45;&gt;Node10</title>
<path fill="none" stroke="#63b8ff" d="M1140.5,-450.51C1169.3,-434.58 1225.74,-398.38 1248,-349 1255.19,-333.04 1250.23,-313.27 1244.48,-298.99"/>
<polygon fill="#63b8ff" stroke="#63b8ff" points="1247.84,-297.95 1240.54,-290.27 1241.46,-300.83 1247.84,-297.95"/>
</g>
<!-- Node13 -->
<g id="node13" class="node">
<title>Node13</title>
<g id="a_node13"><a xlink:href="f__pc__leaf_8h.html" target="_top" xlink:title=" ">
<polygon fill="white" stroke="#666666" points="943,-409.5 857,-409.5 857,-390.5 943,-390.5 943,-409.5"/>
<text text-anchor="middle" x="900" y="-397.5" font-family="Helvetica,sans-Serif" font-size="10.00">f_pc/f_pc_leaf.h</text>
</a>
</g>
</g>
<!-- Node2&#45;&gt;Node13 -->
<g id="edge15" class="edge">
<title>Node2&#45;&gt;Node13</title>
<path fill="none" stroke="#63b8ff" d="M1089.13,-450.62C1050.66,-440.52 987.7,-424.01 945.09,-412.83"/>
<polygon fill="#63b8ff" stroke="#63b8ff" points="946.21,-409.5 935.65,-410.35 944.44,-416.28 946.21,-409.5"/>
</g>
<!-- Node4 -->
<g id="node4" class="node">
<title>Node4</title>
<g id="a_node4"><a xlink:href="math_8h.html" target="_top" xlink:title=" ">
<polygon fill="white" stroke="#666666" points="1477,-349 1395,-349 1395,-330 1477,-330 1477,-349"/>
<text text-anchor="middle" x="1436" y="-337" font-family="Helvetica,sans-Serif" font-size="10.00">MSL_C/math.h</text>
</a>
</g>
</g>
<!-- Node3&#45;&gt;Node4 -->
<g id="edge3" class="edge">
<title>Node3&#45;&gt;Node4</title>
<path fill="none" stroke="#63b8ff" d="M1374.27,-384.54C1386.54,-375.78 1402.18,-364.63 1414.65,-355.73"/>
<polygon fill="#63b8ff" stroke="#63b8ff" points="1416.5,-358.71 1422.61,-350.05 1412.43,-353.01 1416.5,-358.71"/>
</g>
<!-- Node7 -->
<g id="node7" class="node">
<title>Node7</title>
<g id="a_node7"><a xlink:href="vec_8h.html" target="_top" xlink:title=" ">
<polygon fill="white" stroke="#666666" points="1365,-156.5 1273,-156.5 1273,-137.5 1365,-137.5 1365,-156.5"/>
<text text-anchor="middle" x="1319" y="-144.5" font-family="Helvetica,sans-Serif" font-size="10.00">dolphin/mtx/vec.h</text>
</a>
</g>
</g>
<!-- Node3&#45;&gt;Node7 -->
<g id="edge6" class="edge">
<title>Node3&#45;&gt;Node7</title>
<path fill="none" stroke="#63b8ff" d="M1353.7,-384.71C1352.79,-351.57 1349.13,-267.02 1335,-198 1332.89,-187.69 1329.43,-176.52 1326.27,-167.35"/>
<polygon fill="#63b8ff" stroke="#63b8ff" points="1329.62,-166.34 1322.93,-158.12 1323.04,-168.72 1329.62,-166.34"/>
</g>
<!-- Node5 -->
<g id="node5" class="node">
<title>Node5</title>
<g id="a_node5"><a xlink:href="MSL__Common_2Src_2float_8h.html" target="_top" xlink:title=" ">
<polygon fill="white" stroke="#666666" points="1518,-294 1382,-294 1382,-264 1518,-264 1518,-294"/>
<text text-anchor="start" x="1390" y="-282" font-family="Helvetica,sans-Serif" font-size="10.00">MSL_C/MSL_Common/Src</text>
<text text-anchor="middle" x="1450" y="-271" font-family="Helvetica,sans-Serif" font-size="10.00">/float.h</text>
</a>
</g>
</g>
<!-- Node4&#45;&gt;Node5 -->
<g id="edge4" class="edge">
<title>Node4&#45;&gt;Node5</title>
<path fill="none" stroke="#63b8ff" d="M1438.07,-329.87C1439.63,-323.33 1441.87,-313.99 1443.98,-305.15"/>
<polygon fill="#63b8ff" stroke="#63b8ff" points="1447.35,-306.13 1446.27,-295.59 1440.54,-304.5 1447.35,-306.13"/>
</g>
<!-- Node6 -->
<g id="node6" class="node">
<title>Node6</title>
<g id="a_node6"><a xlink:href="fdlibm_8h.html" target="_top" xlink:title=" ">
<polygon fill="white" stroke="#666666" points="1475,-222.5 1425,-222.5 1425,-203.5 1475,-203.5 1475,-222.5"/>
<text text-anchor="middle" x="1450" y="-210.5" font-family="Helvetica,sans-Serif" font-size="10.00">fdlibm.h</text>
</a>
</g>
</g>
<!-- Node5&#45;&gt;Node6 -->
<g id="edge5" class="edge">
<title>Node5&#45;&gt;Node6</title>
<path fill="none" stroke="#63b8ff" d="M1450,-263.8C1450,-255.09 1450,-243.81 1450,-234.18"/>
<polygon fill="#63b8ff" stroke="#63b8ff" points="1453.5,-234.36 1450,-224.36 1446.5,-234.36 1453.5,-234.36"/>
</g>
<!-- Node8 -->
<g id="node8" class="node">
<title>Node8</title>
<g id="a_node8"><a xlink:href="types_8h.html" target="_top" xlink:title=" ">
<polygon fill="white" stroke="#666666" points="988.5,-90.5 907.5,-90.5 907.5,-71.5 988.5,-71.5 988.5,-90.5"/>
<text text-anchor="middle" x="948" y="-78.5" font-family="Helvetica,sans-Serif" font-size="10.00">dolphin/types.h</text>
</a>
</g>
</g>
<!-- Node7&#45;&gt;Node8 -->
<g id="edge7" class="edge">
<title>Node7&#45;&gt;Node8</title>
<path fill="none" stroke="#63b8ff" d="M1285.96,-137.06C1278.75,-135.26 1271.14,-133.47 1264,-132 1171.69,-112.99 1062.91,-97.21 1000.06,-88.74"/>
<polygon fill="#63b8ff" stroke="#63b8ff" points="1000.75,-85.3 990.37,-87.44 999.82,-92.23 1000.75,-85.3"/>
</g>
<!-- Node9 -->
<g id="node9" class="node">
<title>Node9</title>
<g id="a_node9"><a xlink:href="stddef_8h.html" target="_top" xlink:title=" ">
<polygon fill="white" stroke="#666666" points="1016,-30 880,-30 880,0 1016,0 1016,-30"/>
<text text-anchor="start" x="888" y="-18" font-family="Helvetica,sans-Serif" font-size="10.00">MSL_C/MSL_Common/Src</text>
<text text-anchor="middle" x="948" y="-7" font-family="Helvetica,sans-Serif" font-size="10.00">/stddef.h</text>
</a>
</g>
</g>
<!-- Node8&#45;&gt;Node9 -->
<g id="edge8" class="edge">
<title>Node8&#45;&gt;Node9</title>
<path fill="none" stroke="#63b8ff" d="M948,-71.1C948,-63.41 948,-51.92 948,-41.42"/>
<polygon fill="#63b8ff" stroke="#63b8ff" points="951.5,-41.75 948,-31.75 944.5,-41.75 951.5,-41.75"/>
</g>
<!-- Node10&#45;&gt;Node8 -->
<g id="edge14" class="edge">
<title>Node10&#45;&gt;Node8</title>
<path fill="none" stroke="#63b8ff" d="M1229.34,-269.36C1212.52,-244.36 1160.23,-171.27 1099,-132 1068.77,-112.61 1030.3,-100.02 999.75,-92.32"/>
<polygon fill="#63b8ff" stroke="#63b8ff" points="1000.89,-89 990.35,-90.06 999.25,-95.8 1000.89,-89"/>
</g>
<!-- Node11 -->
<g id="node11" class="node">
<title>Node11</title>
<g id="a_node11"><a xlink:href="mtx44_8h.html" target="_top" xlink:title=" ">
<polygon fill="white" stroke="#666666" points="1254.5,-156.5 1151.5,-156.5 1151.5,-137.5 1254.5,-137.5 1254.5,-156.5"/>
<text text-anchor="middle" x="1203" y="-144.5" font-family="Helvetica,sans-Serif" font-size="10.00">dolphin/mtx/mtx44.h</text>
</a>
</g>
</g>
<!-- Node10&#45;&gt;Node11 -->
<g id="edge10" class="edge">
<title>Node10&#45;&gt;Node11</title>
<path fill="none" stroke="#63b8ff" d="M1232.64,-269.16C1229.99,-259.18 1225.59,-242.45 1222,-228 1216.89,-207.47 1211.33,-183.89 1207.55,-167.68"/>
<polygon fill="#63b8ff" stroke="#63b8ff" points="1211.06,-167.32 1205.39,-158.37 1204.24,-168.9 1211.06,-167.32"/>
</g>
<!-- Node12 -->
<g id="node12" class="node">
<title>Node12</title>
<g id="a_node12"><a xlink:href="quat_8h.html" target="_top" xlink:title=" ">
<polygon fill="white" stroke="#666666" points="1325.5,-222.5 1230.5,-222.5 1230.5,-203.5 1325.5,-203.5 1325.5,-222.5"/>
<text text-anchor="middle" x="1278" y="-210.5" font-family="Helvetica,sans-Serif" font-size="10.00">dolphin/mtx/quat.h</text>
</a>
</g>
</g>
<!-- Node10&#45;&gt;Node12 -->
<g id="edge12" class="edge">
<title>Node10&#45;&gt;Node12</title>
<path fill="none" stroke="#63b8ff" d="M1240.98,-269.1C1247.33,-259.64 1257.56,-244.42 1265.66,-232.37"/>
<polygon fill="#63b8ff" stroke="#63b8ff" points="1268.56,-234.33 1271.23,-224.08 1262.75,-230.43 1268.56,-234.33"/>
</g>
<!-- Node11&#45;&gt;Node8 -->
<g id="edge11" class="edge">
<title>Node11&#45;&gt;Node8</title>
<path fill="none" stroke="#63b8ff" d="M1167.27,-137.03C1122.13,-125.7 1044.34,-106.18 994.57,-93.69"/>
<polygon fill="#63b8ff" stroke="#63b8ff" points="995.5,-90.31 984.95,-91.27 993.8,-97.1 995.5,-90.31"/>
</g>
<!-- Node12&#45;&gt;Node7 -->
<g id="edge13" class="edge">
<title>Node12&#45;&gt;Node7</title>
<path fill="none" stroke="#63b8ff" d="M1283.7,-203.1C1289.76,-193.64 1299.51,-178.42 1307.23,-166.37"/>
<polygon fill="#63b8ff" stroke="#63b8ff" points="1310.08,-168.41 1312.53,-158.1 1304.19,-164.63 1310.08,-168.41"/>
</g>
<!-- Node14 -->
<g id="node14" class="node">
<title>Node14</title>
<g id="a_node14"><a xlink:href="f__pc__base_8h.html" target="_top" xlink:title=" ">
<polygon fill="white" stroke="#666666" points="648.5,-349 557.5,-349 557.5,-330 648.5,-330 648.5,-349"/>
<text text-anchor="middle" x="603" y="-337" font-family="Helvetica,sans-Serif" font-size="10.00">f_pc/f_pc_base.h</text>
</a>
</g>
</g>
<!-- Node13&#45;&gt;Node14 -->
<g id="edge16" class="edge">
<title>Node13&#45;&gt;Node14</title>
<path fill="none" stroke="#63b8ff" d="M856.81,-390.49C804.78,-380.24 717.2,-362.99 659.75,-351.68"/>
<polygon fill="#63b8ff" stroke="#63b8ff" points="660.65,-348.29 650.16,-349.79 659.3,-355.16 660.65,-348.29"/>
</g>
<!-- Node22 -->
<g id="node22" class="node">
<title>Node22</title>
<g id="a_node22"><a xlink:href="f__pc__draw__priority_8h.html" target="_top" xlink:title=" ">
<polygon fill="white" stroke="#666666" points="1056.5,-156.5 931.5,-156.5 931.5,-137.5 1056.5,-137.5 1056.5,-156.5"/>
<text text-anchor="middle" x="994" y="-144.5" font-family="Helvetica,sans-Serif" font-size="10.00">f_pc/f_pc_draw_priority.h</text>
</a>
</g>
</g>
<!-- Node13&#45;&gt;Node22 -->
<g id="edge28" class="edge">
<title>Node13&#45;&gt;Node22</title>
<path fill="none" stroke="#63b8ff" d="M916.03,-390.13C929.99,-381.52 949.59,-367.1 960,-349 993.93,-289.99 996.07,-206.2 995.03,-168.17"/>
<polygon fill="#63b8ff" stroke="#63b8ff" points="998.53,-168.11 994.64,-158.25 991.54,-168.38 998.53,-168.11"/>
</g>
<!-- Node23 -->
<g id="node23" class="node">
<title>Node23</title>
<g id="a_node23"><a xlink:href="f__pc__method_8h.html" target="_top" xlink:title=" ">
<polygon fill="white" stroke="#666666" points="791,-222.5 689,-222.5 689,-203.5 791,-203.5 791,-222.5"/>
<text text-anchor="middle" x="740" y="-210.5" font-family="Helvetica,sans-Serif" font-size="10.00">f_pc/f_pc_method.h</text>
</a>
</g>
</g>
<!-- Node13&#45;&gt;Node23 -->
<g id="edge30" class="edge">
<title>Node13&#45;&gt;Node23</title>
<path fill="none" stroke="#63b8ff" d="M889.82,-390.19C878.83,-380.51 861.02,-364.29 847,-349 810.59,-309.31 772.45,-258.65 753.04,-232.1"/>
<polygon fill="#63b8ff" stroke="#63b8ff" points="755.94,-230.14 747.24,-224.11 750.28,-234.26 755.94,-230.14"/>
</g>
<!-- Node24 -->
<g id="node24" class="node">
<title>Node24</title>
<g id="a_node24"><a xlink:href="f__pc__profile_8h.html" target="_top" xlink:title=" ">
<polygon fill="white" stroke="#666666" points="950.5,-349 855.5,-349 855.5,-330 950.5,-330 950.5,-349"/>
<text text-anchor="middle" x="903" y="-337" font-family="Helvetica,sans-Serif" font-size="10.00">f_pc/f_pc_profile.h</text>
</a>
</g>
</g>
<!-- Node13&#45;&gt;Node24 -->
<g id="edge32" class="edge">
<title>Node13&#45;&gt;Node24</title>
<path fill="none" stroke="#63b8ff" d="M900.44,-390.37C900.85,-382.5 901.46,-370.6 901.98,-360.39"/>
<polygon fill="#63b8ff" stroke="#63b8ff" points="905.46,-360.85 902.48,-350.68 898.47,-360.49 905.46,-360.85"/>
</g>
<!-- Node15 -->
<g id="node15" class="node">
<title>Node15</title>
<g id="a_node15"><a xlink:href="f__pc__delete__tag_8h.html" target="_top" xlink:title=" ">
<polygon fill="white" stroke="#666666" points="595.5,-288.5 480.5,-288.5 480.5,-269.5 595.5,-269.5 595.5,-288.5"/>
<text text-anchor="middle" x="538" y="-276.5" font-family="Helvetica,sans-Serif" font-size="10.00">f_pc/f_pc_delete_tag.h</text>
</a>
</g>
</g>
<!-- Node14&#45;&gt;Node15 -->
<g id="edge17" class="edge">
<title>Node14&#45;&gt;Node15</title>
<path fill="none" stroke="#63b8ff" d="M593.13,-329.62C583.39,-320.85 568.28,-307.25 556.34,-296.5"/>
<polygon fill="#63b8ff" stroke="#63b8ff" points="558.86,-294.07 549.09,-289.98 554.18,-299.27 558.86,-294.07"/>
</g>
<!-- Node18 -->
<g id="node18" class="node">
<title>Node18</title>
<g id="a_node18"><a xlink:href="f__pc__layer__tag_8h.html" target="_top" xlink:title=" ">
<polygon fill="white" stroke="#666666" points="722.5,-288.5 613.5,-288.5 613.5,-269.5 722.5,-269.5 722.5,-288.5"/>
<text text-anchor="middle" x="668" y="-276.5" font-family="Helvetica,sans-Serif" font-size="10.00">f_pc/f_pc_layer_tag.h</text>
</a>
</g>
</g>
<!-- Node14&#45;&gt;Node18 -->
<g id="edge21" class="edge">
<title>Node14&#45;&gt;Node18</title>
<path fill="none" stroke="#63b8ff" d="M612.87,-329.62C622.61,-320.85 637.72,-307.25 649.66,-296.5"/>
<polygon fill="#63b8ff" stroke="#63b8ff" points="651.82,-299.27 656.91,-289.98 647.14,-294.07 651.82,-299.27"/>
</g>
<!-- Node19 -->
<g id="node19" class="node">
<title>Node19</title>
<g id="a_node19"><a xlink:href="f__pc__line__tag_8h.html" target="_top" xlink:title=" ">
<polygon fill="white" stroke="#666666" points="462,-288.5 358,-288.5 358,-269.5 462,-269.5 462,-288.5"/>
<text text-anchor="middle" x="410" y="-276.5" font-family="Helvetica,sans-Serif" font-size="10.00">f_pc/f_pc_line_tag.h</text>
</a>
</g>
</g>
<!-- Node14&#45;&gt;Node19 -->
<g id="edge23" class="edge">
<title>Node14&#45;&gt;Node19</title>
<path fill="none" stroke="#63b8ff" d="M573.69,-329.62C540.81,-319.65 487.29,-303.43 450.44,-292.26"/>
<polygon fill="#63b8ff" stroke="#63b8ff" points="451.62,-288.96 441.04,-289.41 449.59,-295.66 451.62,-288.96"/>
</g>
<!-- Node20 -->
<g id="node20" class="node">
<title>Node20</title>
<g id="a_node20"><a xlink:href="f__pc__priority_8h.html" target="_top" xlink:title=" ">
<polygon fill="white" stroke="#666666" points="206,-288.5 108,-288.5 108,-269.5 206,-269.5 206,-288.5"/>
<text text-anchor="middle" x="157" y="-276.5" font-family="Helvetica,sans-Serif" font-size="10.00">f_pc/f_pc_priority.h</text>
</a>
</g>
</g>
<!-- Node14&#45;&gt;Node20 -->
<g id="edge25" class="edge">
<title>Node14&#45;&gt;Node20</title>
<path fill="none" stroke="#63b8ff" d="M557.04,-335.07C484.14,-329.21 337.67,-315.76 215,-294 210.88,-293.27 206.62,-292.42 202.36,-291.51"/>
<polygon fill="#63b8ff" stroke="#63b8ff" points="203.2,-288.11 192.68,-289.33 201.66,-294.94 203.2,-288.11"/>
</g>
<!-- Node16 -->
<g id="node16" class="node">
<title>Node16</title>
<g id="a_node16"><a xlink:href="c__tag_8h.html" target="_top" xlink:title=" ">
<polygon fill="white" stroke="#666666" points="584,-162 468,-162 468,-132 584,-132 584,-162"/>
<text text-anchor="start" x="476" y="-150" font-family="Helvetica,sans-Serif" font-size="10.00">SSystem/SComponent</text>
<text text-anchor="middle" x="526" y="-139" font-family="Helvetica,sans-Serif" font-size="10.00">/c_tag.h</text>
</a>
</g>
</g>
<!-- Node15&#45;&gt;Node16 -->
<g id="edge18" class="edge">
<title>Node15&#45;&gt;Node16</title>
<path fill="none" stroke="#63b8ff" d="M539.16,-269.07C540.87,-254.23 543.52,-223.6 540,-198 538.86,-189.72 536.71,-180.88 534.43,-172.97"/>
<polygon fill="#63b8ff" stroke="#63b8ff" points="537.85,-172.18 531.55,-163.67 531.17,-174.25 537.85,-172.18"/>
</g>
<!-- Node16&#45;&gt;Node8 -->
<g id="edge20" class="edge">
<title>Node16&#45;&gt;Node8</title>
<path fill="none" stroke="#63b8ff" d="M584.23,-137.17C666.88,-124.63 816.92,-101.88 896.01,-89.88"/>
<polygon fill="#63b8ff" stroke="#63b8ff" points="896.29,-93.38 905.65,-88.42 895.24,-86.46 896.29,-93.38"/>
</g>
<!-- Node17 -->
<g id="node17" class="node">
<title>Node17</title>
<g id="a_node17"><a xlink:href="c__node_8h.html" target="_top" xlink:title=" ">
<polygon fill="white" stroke="#666666" points="344,-96 228,-96 228,-66 344,-66 344,-96"/>
<text text-anchor="start" x="236" y="-84" font-family="Helvetica,sans-Serif" font-size="10.00">SSystem/SComponent</text>
<text text-anchor="middle" x="286" y="-73" font-family="Helvetica,sans-Serif" font-size="10.00">/c_node.h</text>
</a>
</g>
</g>
<!-- Node16&#45;&gt;Node17 -->
<g id="edge19" class="edge">
<title>Node16&#45;&gt;Node17</title>
<path fill="none" stroke="#63b8ff" d="M471.84,-131.56C435.98,-121.99 388.75,-109.4 350.88,-99.3"/>
<polygon fill="#63b8ff" stroke="#63b8ff" points="351.99,-95.97 341.43,-96.78 350.19,-102.74 351.99,-95.97"/>
</g>
<!-- Node18&#45;&gt;Node16 -->
<g id="edge22" class="edge">
<title>Node18&#45;&gt;Node16</title>
<path fill="none" stroke="#63b8ff" d="M658.24,-269.06C636.13,-248.82 581.7,-198.99 549.99,-169.96"/>
<polygon fill="#63b8ff" stroke="#63b8ff" points="552.55,-167.56 542.81,-163.39 547.82,-172.72 552.55,-167.56"/>
</g>
<!-- Node19&#45;&gt;Node16 -->
<g id="edge24" class="edge">
<title>Node19&#45;&gt;Node16</title>
<path fill="none" stroke="#63b8ff" d="M442.56,-269.05C463.96,-261.51 490.89,-248.59 507,-228 519.11,-212.53 523.69,-190.58 525.34,-173.58"/>
<polygon fill="#63b8ff" stroke="#63b8ff" points="528.82,-173.96 525.98,-163.75 521.83,-173.5 528.82,-173.96"/>
</g>
<!-- Node21 -->
<g id="node21" class="node">
<title>Node21</title>
<g id="a_node21"><a xlink:href="f__pc__method__tag_8h.html" target="_top" xlink:title=" ">
<polygon fill="white" stroke="#666666" points="229.5,-222.5 108.5,-222.5 108.5,-203.5 229.5,-203.5 229.5,-222.5"/>
<text text-anchor="middle" x="169" y="-210.5" font-family="Helvetica,sans-Serif" font-size="10.00">f_pc/f_pc_method_tag.h</text>
</a>
</g>
</g>
<!-- Node20&#45;&gt;Node21 -->
<g id="edge26" class="edge">
<title>Node20&#45;&gt;Node21</title>
<path fill="none" stroke="#63b8ff" d="M158.67,-269.1C160.37,-260.03 163.07,-245.64 165.28,-233.85"/>
<polygon fill="#63b8ff" stroke="#63b8ff" points="168.66,-234.78 167.07,-224.31 161.78,-233.49 168.66,-234.78"/>
</g>
<!-- Node21&#45;&gt;Node16 -->
<g id="edge27" class="edge">
<title>Node21&#45;&gt;Node16</title>
<path fill="none" stroke="#63b8ff" d="M213.03,-203.02C221.63,-201.31 230.59,-199.57 239,-198 313.11,-184.14 398.22,-169.47 456.39,-159.63"/>
<polygon fill="#63b8ff" stroke="#63b8ff" points="456.89,-163.09 466.17,-157.98 455.72,-156.19 456.89,-163.09"/>
</g>
<!-- Node22&#45;&gt;Node8 -->
<g id="edge29" class="edge">
<title>Node22&#45;&gt;Node8</title>
<path fill="none" stroke="#63b8ff" d="M987.6,-137.1C980.74,-127.55 969.65,-112.11 960.94,-100.01"/>
<polygon fill="#63b8ff" stroke="#63b8ff" points="963.9,-98.13 955.23,-92.05 958.22,-102.22 963.9,-98.13"/>
</g>
<!-- Node23&#45;&gt;Node8 -->
<g id="edge31" class="edge">
<title>Node23&#45;&gt;Node8</title>
<path fill="none" stroke="#63b8ff" d="M738.18,-203.02C735.44,-186.7 732.29,-152.03 750,-132 769.1,-110.39 843.9,-96.05 895.88,-88.47"/>
<polygon fill="#63b8ff" stroke="#63b8ff" points="896.34,-91.94 905.75,-87.08 895.36,-85.01 896.34,-91.94"/>
</g>
<!-- Node24&#45;&gt;Node8 -->
<g id="edge33" class="edge">
<title>Node24&#45;&gt;Node8</title>
<path fill="none" stroke="#63b8ff" d="M902.72,-329.63C902.03,-300.61 901.69,-206.08 923,-132 926.13,-121.13 931.59,-109.78 936.62,-100.66"/>
<polygon fill="#63b8ff" stroke="#63b8ff" points="939.58,-102.52 941.58,-92.11 933.53,-99 939.58,-102.52"/>
</g>
<!-- Node25&#45;&gt;Node13 -->
<g id="edge41" class="edge">
<title>Node25&#45;&gt;Node13</title>
<path fill="none" stroke="#63b8ff" d="M867.61,-450.87C873,-442.57 881.31,-429.78 888.16,-419.22"/>
<polygon fill="#63b8ff" stroke="#63b8ff" points="891.03,-421.23 893.55,-410.94 885.16,-417.42 891.03,-421.23"/>
</g>
<!-- Node26 -->
<g id="node26" class="node">
<title>Node26</title>
<g id="a_node26"><a xlink:href="f__pc__create__iter_8h.html" target="_top" xlink:title=" ">
<polygon fill="white" stroke="#666666" points="875,-156.5 759,-156.5 759,-137.5 875,-137.5 875,-156.5"/>
<text text-anchor="middle" x="817" y="-144.5" font-family="Helvetica,sans-Serif" font-size="10.00">f_pc/f_pc_create_iter.h</text>
</a>
</g>
</g>
<!-- Node25&#45;&gt;Node26 -->
<g id="edge35" class="edge">
<title>Node25&#45;&gt;Node26</title>
<path fill="none" stroke="#63b8ff" d="M857.42,-450.51C847.94,-431.01 827,-383.14 827,-340.5 827,-340.5 827,-340.5 827,-278 827,-239.06 822.49,-193.76 819.52,-168.22"/>
<polygon fill="#63b8ff" stroke="#63b8ff" points="823,-167.82 818.33,-158.31 816.05,-168.66 823,-167.82"/>
</g>
<!-- Node27 -->
<g id="node27" class="node">
<title>Node27</title>
<g id="a_node27"><a xlink:href="f__pc__executor_8h.html" target="_top" xlink:title=" ">
<polygon fill="white" stroke="#666666" points="1112.5,-409.5 1005.5,-409.5 1005.5,-390.5 1112.5,-390.5 1112.5,-409.5"/>
<text text-anchor="middle" x="1059" y="-397.5" font-family="Helvetica,sans-Serif" font-size="10.00">f_pc/f_pc_executor.h</text>
</a>
</g>
</g>
<!-- Node25&#45;&gt;Node27 -->
<g id="edge37" class="edge">
<title>Node25&#45;&gt;Node27</title>
<path fill="none" stroke="#63b8ff" d="M891.92,-450.62C925.62,-440.61 980.58,-424.29 1018.2,-413.12"/>
<polygon fill="#63b8ff" stroke="#63b8ff" points="1018.76,-416.6 1027.35,-410.4 1016.76,-409.89 1018.76,-416.6"/>
</g>
<!-- Node30 -->
<g id="node30" class="node">
<title>Node30</title>
<g id="a_node30"><a xlink:href="f__pc__node_8h.html" target="_top" xlink:title=" ">
<polygon fill="white" stroke="#666666" points="796.5,-409.5 705.5,-409.5 705.5,-390.5 796.5,-390.5 796.5,-409.5"/>
<text text-anchor="middle" x="751" y="-397.5" font-family="Helvetica,sans-Serif" font-size="10.00">f_pc/f_pc_node.h</text>
</a>
</g>
</g>
<!-- Node25&#45;&gt;Node30 -->
<g id="edge42" class="edge">
<title>Node25&#45;&gt;Node30</title>
<path fill="none" stroke="#63b8ff" d="M845.14,-450.62C827.38,-441.25 799.12,-426.36 778.2,-415.33"/>
<polygon fill="#63b8ff" stroke="#63b8ff" points="779.83,-412.24 769.36,-410.67 776.57,-418.43 779.83,-412.24"/>
</g>
<!-- Node34 -->
<g id="node34" class="node">
<title>Node34</title>
<g id="a_node34"><a xlink:href="f__pc__stdcreate__req_8h.html" target="_top" xlink:title=" ">
<polygon fill="white" stroke="#666666" points="666.5,-415 563.5,-415 563.5,-385 666.5,-385 666.5,-415"/>
<text text-anchor="start" x="571.5" y="-403" font-family="Helvetica,sans-Serif" font-size="10.00">f_pc/f_pc_stdcreate</text>
<text text-anchor="middle" x="615" y="-392" font-family="Helvetica,sans-Serif" font-size="10.00">_req.h</text>
</a>
</g>
</g>
<!-- Node25&#45;&gt;Node34 -->
<g id="edge51" class="edge">
<title>Node25&#45;&gt;Node34</title>
<path fill="none" stroke="#63b8ff" d="M824.22,-450.55C785.39,-441.36 724.26,-426.88 678.08,-415.94"/>
<polygon fill="#63b8ff" stroke="#63b8ff" points="678.99,-412.56 668.46,-413.66 677.38,-419.37 678.99,-412.56"/>
</g>
<!-- Node26&#45;&gt;Node8 -->
<g id="edge36" class="edge">
<title>Node26&#45;&gt;Node8</title>
<path fill="none" stroke="#63b8ff" d="M835.21,-137.1C857.11,-126.4 894.11,-108.33 919.73,-95.81"/>
<polygon fill="#63b8ff" stroke="#63b8ff" points="921.13,-99.02 928.58,-91.49 918.06,-92.73 921.13,-99.02"/>
</g>
<!-- Node28 -->
<g id="node28" class="node">
<title>Node28</title>
<g id="a_node28"><a xlink:href="f__pc__layer__iter_8h.html" target="_top" xlink:title=" ">
<polygon fill="white" stroke="#666666" points="1238.5,-349 1129.5,-349 1129.5,-330 1238.5,-330 1238.5,-349"/>
<text text-anchor="middle" x="1184" y="-337" font-family="Helvetica,sans-Serif" font-size="10.00">f_pc/f_pc_layer_iter.h</text>
</a>
</g>
</g>
<!-- Node27&#45;&gt;Node28 -->
<g id="edge38" class="edge">
<title>Node27&#45;&gt;Node28</title>
<path fill="none" stroke="#63b8ff" d="M1077.98,-390.12C1098.36,-380.58 1130.98,-365.31 1154.66,-354.23"/>
<polygon fill="#63b8ff" stroke="#63b8ff" points="1155.89,-357.52 1163.47,-350.11 1152.92,-351.18 1155.89,-357.52"/>
</g>
<!-- Node29 -->
<g id="node29" class="node">
<title>Node29</title>
<g id="a_node29"><a xlink:href="f__pc__line__iter_8h.html" target="_top" xlink:title=" ">
<polygon fill="white" stroke="#666666" points="1111,-349 1007,-349 1007,-330 1111,-330 1111,-349"/>
<text text-anchor="middle" x="1059" y="-337" font-family="Helvetica,sans-Serif" font-size="10.00">f_pc/f_pc_line_iter.h</text>
</a>
</g>
</g>
<!-- Node27&#45;&gt;Node29 -->
<g id="edge40" class="edge">
<title>Node27&#45;&gt;Node29</title>
<path fill="none" stroke="#63b8ff" d="M1059,-390.37C1059,-382.5 1059,-370.6 1059,-360.39"/>
<polygon fill="#63b8ff" stroke="#63b8ff" points="1062.5,-360.68 1059,-350.68 1055.5,-360.68 1062.5,-360.68"/>
</g>
<!-- Node28&#45;&gt;Node8 -->
<g id="edge39" class="edge">
<title>Node28&#45;&gt;Node8</title>
<path fill="none" stroke="#63b8ff" d="M1181.28,-329.73C1171.2,-298.5 1132.99,-191.5 1066,-132 1046.11,-114.33 1019.06,-102.26 995.88,-94.42"/>
<polygon fill="#63b8ff" stroke="#63b8ff" points="997.23,-91.17 986.64,-91.46 995.09,-97.84 997.23,-91.17"/>
</g>
<!-- Node30&#45;&gt;Node14 -->
<g id="edge43" class="edge">
<title>Node30&#45;&gt;Node14</title>
<path fill="none" stroke="#63b8ff" d="M728.52,-390.12C703.96,-380.41 664.38,-364.76 636.23,-353.64"/>
<polygon fill="#63b8ff" stroke="#63b8ff" points="637.68,-350.45 627.1,-350.02 635.11,-356.96 637.68,-350.45"/>
</g>
<!-- Node30&#45;&gt;Node23 -->
<g id="edge49" class="edge">
<title>Node30&#45;&gt;Node23</title>
<path fill="none" stroke="#63b8ff" d="M750.47,-390.08C748.79,-361.87 743.58,-274.15 741.2,-234.2"/>
<polygon fill="#63b8ff" stroke="#63b8ff" points="744.7,-234.12 740.62,-224.34 737.71,-234.53 744.7,-234.12"/>
</g>
<!-- Node30&#45;&gt;Node24 -->
<g id="edge50" class="edge">
<title>Node30&#45;&gt;Node24</title>
<path fill="none" stroke="#63b8ff" d="M774.09,-390.12C799.42,-380.37 840.32,-364.62 869.25,-353.49"/>
<polygon fill="#63b8ff" stroke="#63b8ff" points="870.21,-356.87 878.28,-350.01 867.69,-350.34 870.21,-356.87"/>
</g>
<!-- Node31 -->
<g id="node31" class="node">
<title>Node31</title>
<g id="a_node31"><a xlink:href="f__pc__layer_8h.html" target="_top" xlink:title=" ">
<polygon fill="white" stroke="#666666" points="90,-222.5 0,-222.5 0,-203.5 90,-203.5 90,-222.5"/>
<text text-anchor="middle" x="45" y="-210.5" font-family="Helvetica,sans-Serif" font-size="10.00">f_pc/f_pc_layer.h</text>
</a>
</g>
</g>
<!-- Node30&#45;&gt;Node31 -->
<g id="edge44" class="edge">
<title>Node30&#45;&gt;Node31</title>
<path fill="none" stroke="#63b8ff" d="M705.03,-390.21C695.44,-388.43 685.4,-386.62 676,-385 420.15,-340.95 318.03,-433.38 99,-294 76.51,-279.69 61.12,-252.27 52.69,-233.57"/>
<polygon fill="#63b8ff" stroke="#63b8ff" points="55.93,-232.25 48.83,-224.39 49.48,-234.97 55.93,-232.25"/>
</g>
<!-- Node31&#45;&gt;Node8 -->
<g id="edge48" class="edge">
<title>Node31&#45;&gt;Node8</title>
<path fill="none" stroke="#63b8ff" d="M72.4,-203.12C134.01,-183.22 279.85,-136.43 303,-132 520.4,-90.41 785.31,-83.22 895.76,-82.12"/>
<polygon fill="#63b8ff" stroke="#63b8ff" points="895.72,-85.62 905.69,-82.03 895.66,-78.62 895.72,-85.62"/>
</g>
<!-- Node31&#45;&gt;Node17 -->
<g id="edge46" class="edge">
<title>Node31&#45;&gt;Node17</title>
<path fill="none" stroke="#63b8ff" d="M44.31,-203.11C43.57,-186.63 44.51,-151.27 64,-132 85.37,-110.88 159.72,-97.2 216.55,-89.58"/>
<polygon fill="#63b8ff" stroke="#63b8ff" points="216.69,-93.09 226.16,-88.34 215.79,-86.15 216.69,-93.09"/>
</g>
<!-- Node32 -->
<g id="node32" class="node">
<title>Node32</title>
<g id="a_node32"><a xlink:href="c__list_8h.html" target="_top" xlink:title=" ">
<polygon fill="white" stroke="#666666" points="428,-162 312,-162 312,-132 428,-132 428,-162"/>
<text text-anchor="start" x="320" y="-150" font-family="Helvetica,sans-Serif" font-size="10.00">SSystem/SComponent</text>
<text text-anchor="middle" x="370" y="-139" font-family="Helvetica,sans-Serif" font-size="10.00">/c_list.h</text>
</a>
</g>
</g>
<!-- Node31&#45;&gt;Node32 -->
<g id="edge45" class="edge">
<title>Node31&#45;&gt;Node32</title>
<path fill="none" stroke="#63b8ff" d="M78.04,-203.04C84.94,-201.28 92.19,-199.51 99,-198 167.03,-182.93 245.36,-168.82 300.26,-159.46"/>
<polygon fill="#63b8ff" stroke="#63b8ff" points="300.84,-162.91 310.12,-157.79 299.67,-156.01 300.84,-162.91"/>
</g>
<!-- Node33 -->
<g id="node33" class="node">
<title>Node33</title>
<g id="a_node33"><a xlink:href="c__tree_8h.html" target="_top" xlink:title=" ">
<polygon fill="white" stroke="#666666" points="189,-162 73,-162 73,-132 189,-132 189,-162"/>
<text text-anchor="start" x="81" y="-150" font-family="Helvetica,sans-Serif" font-size="10.00">SSystem/SComponent</text>
<text text-anchor="middle" x="131" y="-139" font-family="Helvetica,sans-Serif" font-size="10.00">/c_tree.h</text>
</a>
</g>
</g>
<!-- Node31&#45;&gt;Node33 -->
<g id="edge47" class="edge">
<title>Node31&#45;&gt;Node33</title>
<path fill="none" stroke="#63b8ff" d="M56.96,-203.1C68.65,-194.4 86.91,-180.81 102.37,-169.31"/>
<polygon fill="#63b8ff" stroke="#63b8ff" points="104.4,-172.16 110.33,-163.38 100.22,-166.54 104.4,-172.16"/>
</g>
<!-- Node35 -->
<g id="node35" class="node">
<title>Node35</title>
<g id="a_node35"><a xlink:href="f__pc__create__req_8h.html" target="_top" xlink:title=" ">
<polygon fill="white" stroke="#666666" points="340,-288.5 224,-288.5 224,-269.5 340,-269.5 340,-288.5"/>
<text text-anchor="middle" x="282" y="-276.5" font-family="Helvetica,sans-Serif" font-size="10.00">f_pc/f_pc_create_req.h</text>
</a>
</g>
</g>
<!-- Node34&#45;&gt;Node35 -->
<g id="edge52" class="edge">
<title>Node34&#45;&gt;Node35</title>
<path fill="none" stroke="#63b8ff" d="M574.5,-384.53C508.77,-361.04 379.94,-315 317.55,-292.7"/>
<polygon fill="#63b8ff" stroke="#63b8ff" points="319.07,-289.53 308.48,-289.46 316.72,-296.12 319.07,-289.53"/>
</g>
<!-- Node35&#45;&gt;Node21 -->
<g id="edge58" class="edge">
<title>Node35&#45;&gt;Node21</title>
<path fill="none" stroke="#63b8ff" d="M266.29,-269.1C247.73,-258.59 216.62,-240.97 194.58,-228.49"/>
<polygon fill="#63b8ff" stroke="#63b8ff" points="196.32,-225.45 185.9,-223.57 192.87,-231.54 196.32,-225.45"/>
</g>
<!-- Node35&#45;&gt;Node23 -->
<g id="edge57" class="edge">
<title>Node35&#45;&gt;Node23</title>
<path fill="none" stroke="#63b8ff" d="M322.29,-269.04C331.07,-267.24 340.33,-265.46 349,-264 464.46,-244.59 600.23,-228.79 677.59,-220.45"/>
<polygon fill="#63b8ff" stroke="#63b8ff" points="677.5,-223.98 687.07,-219.43 676.75,-217.02 677.5,-223.98"/>
</g>
<!-- Node36 -->
<g id="node36" class="node">
<title>Node36</title>
<g id="a_node36"><a xlink:href="c__phase_8h.html" target="_top" xlink:title=" ">
<polygon fill="white" stroke="#666666" points="364,-228 248,-228 248,-198 364,-198 364,-228"/>
<text text-anchor="start" x="256" y="-216" font-family="Helvetica,sans-Serif" font-size="10.00">SSystem/SComponent</text>
<text text-anchor="middle" x="306" y="-205" font-family="Helvetica,sans-Serif" font-size="10.00">/c_phase.h</text>
</a>
</g>
</g>
<!-- Node35&#45;&gt;Node36 -->
<g id="edge53" class="edge">
<title>Node35&#45;&gt;Node36</title>
<path fill="none" stroke="#63b8ff" d="M285.34,-269.1C288.28,-261.25 292.72,-249.43 296.72,-238.74"/>
<polygon fill="#63b8ff" stroke="#63b8ff" points="299.9,-240.24 300.13,-229.65 293.34,-237.78 299.9,-240.24"/>
</g>
<!-- Node37 -->
<g id="node37" class="node">
<title>Node37</title>
<g id="a_node37"><a xlink:href="f__pc__create__tag_8h.html" target="_top" xlink:title=" ">
<polygon fill="white" stroke="#666666" points="498,-222.5 382,-222.5 382,-203.5 498,-203.5 498,-222.5"/>
<text text-anchor="middle" x="440" y="-210.5" font-family="Helvetica,sans-Serif" font-size="10.00">f_pc/f_pc_create_tag.h</text>
</a>
</g>
</g>
<!-- Node35&#45;&gt;Node37 -->
<g id="edge54" class="edge">
<title>Node35&#45;&gt;Node37</title>
<path fill="none" stroke="#63b8ff" d="M303.97,-269.1C330.9,-258.19 376.75,-239.62 407.7,-227.09"/>
<polygon fill="#63b8ff" stroke="#63b8ff" points="408.61,-230.49 416.56,-223.49 405.98,-224 408.61,-230.49"/>
</g>
<!-- Node37&#45;&gt;Node16 -->
<g id="edge56" class="edge">
<title>Node37&#45;&gt;Node16</title>
<path fill="none" stroke="#63b8ff" d="M451.96,-203.1C463.65,-194.4 481.91,-180.81 497.37,-169.31"/>
<polygon fill="#63b8ff" stroke="#63b8ff" points="499.4,-172.16 505.33,-163.38 495.22,-166.54 499.4,-172.16"/>
</g>
<!-- Node37&#45;&gt;Node32 -->
<g id="edge55" class="edge">
<title>Node37&#45;&gt;Node32</title>
<path fill="none" stroke="#63b8ff" d="M430.27,-203.1C420.93,-194.56 406.45,-181.32 394.02,-169.96"/>
<polygon fill="#63b8ff" stroke="#63b8ff" points="396.69,-167.66 386.95,-163.5 391.97,-172.83 396.69,-167.66"/>
</g>
</g>
</svg>
