<?xml version="1.0" encoding="UTF-8" standalone="no"?>
<!DOCTYPE svg PUBLIC "-//W3C//DTD SVG 1.1//EN"
 "http://www.w3.org/Graphics/SVG/1.1/DTD/svg11.dtd">
<!-- Generated by graphviz version 7.0.5 (20221223.1930)
 -->
<!-- Title: include/f_op/f_op_kankyo_mng.h Pages: 1 -->
<svg width="1312pt" height="544pt"
 viewBox="0.00 0.00 1311.50 544.00" xmlns="http://www.w3.org/2000/svg" xmlns:xlink="http://www.w3.org/1999/xlink">
<g id="graph0" class="graph" transform="scale(1 1) rotate(0) translate(4 540)">
<title>include/f_op/f_op_kankyo_mng.h</title>
<!-- Node1 -->
<g id="node1" class="node">
<title>Node1</title>
<g id="a_node1"><a xlink:title=" ">
<polygon fill="#999999" stroke="#666666" points="411.5,-536 284.5,-536 284.5,-506 411.5,-506 411.5,-536"/>
<text text-anchor="start" x="292.5" y="-524" font-family="Helvetica,sans-Serif" font-size="10.00">include/f_op/f_op_kankyo</text>
<text text-anchor="middle" x="348" y="-513" font-family="Helvetica,sans-Serif" font-size="10.00">_mng.h</text>
</a>
</g>
</g>
<!-- Node2 -->
<g id="node2" class="node">
<title>Node2</title>
<g id="a_node2"><a xlink:href="c__xyz_8h.html" target="_top" xlink:title=" ">
<polygon fill="white" stroke="#666666" points="222,-415 106,-415 106,-385 222,-385 222,-415"/>
<text text-anchor="start" x="114" y="-403" font-family="Helvetica,sans-Serif" font-size="10.00">SSystem/SComponent</text>
<text text-anchor="middle" x="164" y="-392" font-family="Helvetica,sans-Serif" font-size="10.00">/c_xyz.h</text>
</a>
</g>
</g>
<!-- Node1&#45;&gt;Node2 -->
<g id="edge1" class="edge">
<title>Node1&#45;&gt;Node2</title>
<path fill="none" stroke="#63b8ff" d="M325.81,-505.65C293.34,-484.65 232.74,-445.46 195.62,-421.45"/>
<polygon fill="#63b8ff" stroke="#63b8ff" points="197.84,-418.72 187.54,-416.23 194.04,-424.6 197.84,-418.72"/>
</g>
<!-- Node9 -->
<g id="node9" class="node">
<title>Node9</title>
<g id="a_node9"><a xlink:href="f__op__kankyo_8h.html" target="_top" xlink:title=" ">
<polygon fill="white" stroke="#666666" points="398.5,-470 297.5,-470 297.5,-451 398.5,-451 398.5,-470"/>
<text text-anchor="middle" x="348" y="-458" font-family="Helvetica,sans-Serif" font-size="10.00">f_op/f_op_kankyo.h</text>
</a>
</g>
</g>
<!-- Node1&#45;&gt;Node9 -->
<g id="edge8" class="edge">
<title>Node1&#45;&gt;Node9</title>
<path fill="none" stroke="#63b8ff" d="M348,-505.54C348,-498.34 348,-489.53 348,-481.68"/>
<polygon fill="#63b8ff" stroke="#63b8ff" points="351.5,-481.69 348,-471.69 344.5,-481.69 351.5,-481.69"/>
</g>
<!-- Node22 -->
<g id="node22" class="node">
<title>Node22</title>
<g id="a_node22"><a xlink:href="f__pc__manager_8h.html" target="_top" xlink:title=" ">
<polygon fill="white" stroke="#666666" points="540.5,-470 433.5,-470 433.5,-451 540.5,-451 540.5,-470"/>
<text text-anchor="middle" x="487" y="-458" font-family="Helvetica,sans-Serif" font-size="10.00">f_pc/f_pc_manager.h</text>
</a>
</g>
</g>
<!-- Node1&#45;&gt;Node22 -->
<g id="edge29" class="edge">
<title>Node1&#45;&gt;Node22</title>
<path fill="none" stroke="#63b8ff" d="M382.36,-505.54C404.78,-496.1 433.82,-483.88 455.62,-474.71"/>
<polygon fill="#63b8ff" stroke="#63b8ff" points="456.73,-478.04 464.59,-470.93 454.01,-471.59 456.73,-478.04"/>
</g>
<!-- Node3 -->
<g id="node3" class="node">
<title>Node3</title>
<g id="a_node3"><a xlink:href="math_8h.html" target="_top" xlink:title=" ">
<polygon fill="white" stroke="#666666" points="123,-349 41,-349 41,-330 123,-330 123,-349"/>
<text text-anchor="middle" x="82" y="-337" font-family="Helvetica,sans-Serif" font-size="10.00">MSL_C/math.h</text>
</a>
</g>
</g>
<!-- Node2&#45;&gt;Node3 -->
<g id="edge2" class="edge">
<title>Node2&#45;&gt;Node3</title>
<path fill="none" stroke="#63b8ff" d="M143.73,-384.54C131.46,-375.78 115.82,-364.63 103.35,-355.73"/>
<polygon fill="#63b8ff" stroke="#63b8ff" points="105.57,-353.01 95.39,-350.05 101.5,-358.71 105.57,-353.01"/>
</g>
<!-- Node6 -->
<g id="node6" class="node">
<title>Node6</title>
<g id="a_node6"><a xlink:href="vec_8h.html" target="_top" xlink:title=" ">
<polygon fill="white" stroke="#666666" points="194,-156.5 102,-156.5 102,-137.5 194,-137.5 194,-156.5"/>
<text text-anchor="middle" x="148" y="-144.5" font-family="Helvetica,sans-Serif" font-size="10.00">dolphin/mtx/vec.h</text>
</a>
</g>
</g>
<!-- Node2&#45;&gt;Node6 -->
<g id="edge5" class="edge">
<title>Node2&#45;&gt;Node6</title>
<path fill="none" stroke="#63b8ff" d="M163.09,-384.79C160.4,-342.52 152.43,-217.49 149.29,-168.26"/>
<polygon fill="#63b8ff" stroke="#63b8ff" points="152.8,-168.25 148.67,-158.49 145.81,-168.7 152.8,-168.25"/>
</g>
<!-- Node4 -->
<g id="node4" class="node">
<title>Node4</title>
<g id="a_node4"><a xlink:href="MSL__Common_2Src_2float_8h.html" target="_top" xlink:title=" ">
<polygon fill="white" stroke="#666666" points="136,-294 0,-294 0,-264 136,-264 136,-294"/>
<text text-anchor="start" x="8" y="-282" font-family="Helvetica,sans-Serif" font-size="10.00">MSL_C/MSL_Common/Src</text>
<text text-anchor="middle" x="68" y="-271" font-family="Helvetica,sans-Serif" font-size="10.00">/float.h</text>
</a>
</g>
</g>
<!-- Node3&#45;&gt;Node4 -->
<g id="edge3" class="edge">
<title>Node3&#45;&gt;Node4</title>
<path fill="none" stroke="#63b8ff" d="M79.93,-329.87C78.37,-323.33 76.13,-313.99 74.02,-305.15"/>
<polygon fill="#63b8ff" stroke="#63b8ff" points="77.46,-304.5 71.73,-295.59 70.65,-306.13 77.46,-304.5"/>
</g>
<!-- Node5 -->
<g id="node5" class="node">
<title>Node5</title>
<g id="a_node5"><a xlink:href="fdlibm_8h.html" target="_top" xlink:title=" ">
<polygon fill="white" stroke="#666666" points="93,-222.5 43,-222.5 43,-203.5 93,-203.5 93,-222.5"/>
<text text-anchor="middle" x="68" y="-210.5" font-family="Helvetica,sans-Serif" font-size="10.00">fdlibm.h</text>
</a>
</g>
</g>
<!-- Node4&#45;&gt;Node5 -->
<g id="edge4" class="edge">
<title>Node4&#45;&gt;Node5</title>
<path fill="none" stroke="#63b8ff" d="M68,-263.8C68,-255.09 68,-243.81 68,-234.18"/>
<polygon fill="#63b8ff" stroke="#63b8ff" points="71.5,-234.36 68,-224.36 64.5,-234.36 71.5,-234.36"/>
</g>
<!-- Node7 -->
<g id="node7" class="node">
<title>Node7</title>
<g id="a_node7"><a xlink:href="types_8h.html" target="_top" xlink:title=" ">
<polygon fill="white" stroke="#666666" points="453.5,-90.5 372.5,-90.5 372.5,-71.5 453.5,-71.5 453.5,-90.5"/>
<text text-anchor="middle" x="413" y="-78.5" font-family="Helvetica,sans-Serif" font-size="10.00">dolphin/types.h</text>
</a>
</g>
</g>
<!-- Node6&#45;&gt;Node7 -->
<g id="edge6" class="edge">
<title>Node6&#45;&gt;Node7</title>
<path fill="none" stroke="#63b8ff" d="M182.89,-137.03C189.56,-135.34 196.49,-133.6 203,-132 257.83,-118.49 320.87,-103.56 363.46,-93.57"/>
<polygon fill="#63b8ff" stroke="#63b8ff" points="364.23,-96.98 373.16,-91.29 362.63,-90.17 364.23,-96.98"/>
</g>
<!-- Node8 -->
<g id="node8" class="node">
<title>Node8</title>
<g id="a_node8"><a xlink:href="stddef_8h.html" target="_top" xlink:title=" ">
<polygon fill="white" stroke="#666666" points="481,-30 345,-30 345,0 481,0 481,-30"/>
<text text-anchor="start" x="353" y="-18" font-family="Helvetica,sans-Serif" font-size="10.00">MSL_C/MSL_Common/Src</text>
<text text-anchor="middle" x="413" y="-7" font-family="Helvetica,sans-Serif" font-size="10.00">/stddef.h</text>
</a>
</g>
</g>
<!-- Node7&#45;&gt;Node8 -->
<g id="edge7" class="edge">
<title>Node7&#45;&gt;Node8</title>
<path fill="none" stroke="#63b8ff" d="M413,-71.1C413,-63.41 413,-51.92 413,-41.42"/>
<polygon fill="#63b8ff" stroke="#63b8ff" points="416.5,-41.75 413,-31.75 409.5,-41.75 416.5,-41.75"/>
</g>
<!-- Node9&#45;&gt;Node2 -->
<g id="edge9" class="edge">
<title>Node9&#45;&gt;Node2</title>
<path fill="none" stroke="#63b8ff" d="M320.05,-450.62C293.68,-442.23 253.36,-429.41 220.31,-418.9"/>
<polygon fill="#63b8ff" stroke="#63b8ff" points="221.45,-415.59 210.86,-415.9 219.33,-422.26 221.45,-415.59"/>
</g>
<!-- Node10 -->
<g id="node10" class="node">
<title>Node10</title>
<g id="a_node10"><a xlink:href="f__pc__leaf_8h.html" target="_top" xlink:title=" ">
<polygon fill="white" stroke="#666666" points="476,-409.5 390,-409.5 390,-390.5 476,-390.5 476,-409.5"/>
<text text-anchor="middle" x="433" y="-397.5" font-family="Helvetica,sans-Serif" font-size="10.00">f_pc/f_pc_leaf.h</text>
</a>
</g>
</g>
<!-- Node9&#45;&gt;Node10 -->
<g id="edge10" class="edge">
<title>Node9&#45;&gt;Node10</title>
<path fill="none" stroke="#63b8ff" d="M360.91,-450.62C374.14,-441.51 394.97,-427.18 410.84,-416.25"/>
<polygon fill="#63b8ff" stroke="#63b8ff" points="412.47,-419.38 418.72,-410.83 408.5,-413.61 412.47,-419.38"/>
</g>
<!-- Node11 -->
<g id="node11" class="node">
<title>Node11</title>
<g id="a_node11"><a xlink:href="f__pc__base_8h.html" target="_top" xlink:title=" ">
<polygon fill="white" stroke="#666666" points="916.5,-349 825.5,-349 825.5,-330 916.5,-330 916.5,-349"/>
<text text-anchor="middle" x="871" y="-337" font-family="Helvetica,sans-Serif" font-size="10.00">f_pc/f_pc_base.h</text>
</a>
</g>
</g>
<!-- Node10&#45;&gt;Node11 -->
<g id="edge11" class="edge">
<title>Node10&#45;&gt;Node11</title>
<path fill="none" stroke="#63b8ff" d="M465.12,-390.06C472.59,-388.19 480.54,-386.38 488,-385 602.74,-363.83 738.79,-350.86 813.93,-344.74"/>
<polygon fill="#63b8ff" stroke="#63b8ff" points="813.82,-348.26 823.51,-343.97 813.26,-341.28 813.82,-348.26"/>
</g>
<!-- Node19 -->
<g id="node19" class="node">
<title>Node19</title>
<g id="a_node19"><a xlink:href="f__pc__draw__priority_8h.html" target="_top" xlink:title=" ">
<polygon fill="white" stroke="#666666" points="403.5,-349 278.5,-349 278.5,-330 403.5,-330 403.5,-349"/>
<text text-anchor="middle" x="341" y="-337" font-family="Helvetica,sans-Serif" font-size="10.00">f_pc/f_pc_draw_priority.h</text>
</a>
</g>
</g>
<!-- Node10&#45;&gt;Node19 -->
<g id="edge23" class="edge">
<title>Node10&#45;&gt;Node19</title>
<path fill="none" stroke="#63b8ff" d="M419.03,-390.12C404.57,-380.92 381.74,-366.41 364.5,-355.44"/>
<polygon fill="#63b8ff" stroke="#63b8ff" points="366.7,-352.69 356.38,-350.28 362.94,-358.6 366.7,-352.69"/>
</g>
<!-- Node20 -->
<g id="node20" class="node">
<title>Node20</title>
<g id="a_node20"><a xlink:href="f__pc__method_8h.html" target="_top" xlink:title=" ">
<polygon fill="white" stroke="#666666" points="524,-222.5 422,-222.5 422,-203.5 524,-203.5 524,-222.5"/>
<text text-anchor="middle" x="473" y="-210.5" font-family="Helvetica,sans-Serif" font-size="10.00">f_pc/f_pc_method.h</text>
</a>
</g>
</g>
<!-- Node10&#45;&gt;Node20 -->
<g id="edge25" class="edge">
<title>Node10&#45;&gt;Node20</title>
<path fill="none" stroke="#63b8ff" d="M434.93,-390.08C441.04,-361.81 460.08,-273.77 468.69,-233.94"/>
<polygon fill="#63b8ff" stroke="#63b8ff" points="472.08,-234.83 470.77,-224.31 465.24,-233.35 472.08,-234.83"/>
</g>
<!-- Node21 -->
<g id="node21" class="node">
<title>Node21</title>
<g id="a_node21"><a xlink:href="f__pc__profile_8h.html" target="_top" xlink:title=" ">
<polygon fill="white" stroke="#666666" points="555.5,-349 460.5,-349 460.5,-330 555.5,-330 555.5,-349"/>
<text text-anchor="middle" x="508" y="-337" font-family="Helvetica,sans-Serif" font-size="10.00">f_pc/f_pc_profile.h</text>
</a>
</g>
</g>
<!-- Node10&#45;&gt;Node21 -->
<g id="edge27" class="edge">
<title>Node10&#45;&gt;Node21</title>
<path fill="none" stroke="#63b8ff" d="M444.39,-390.12C455.84,-381.18 473.75,-367.22 487.65,-356.37"/>
<polygon fill="#63b8ff" stroke="#63b8ff" points="489.58,-359.31 495.31,-350.4 485.27,-353.79 489.58,-359.31"/>
</g>
<!-- Node12 -->
<g id="node12" class="node">
<title>Node12</title>
<g id="a_node12"><a xlink:href="f__pc__delete__tag_8h.html" target="_top" xlink:title=" ">
<polygon fill="white" stroke="#666666" points="1303.5,-288.5 1188.5,-288.5 1188.5,-269.5 1303.5,-269.5 1303.5,-288.5"/>
<text text-anchor="middle" x="1246" y="-276.5" font-family="Helvetica,sans-Serif" font-size="10.00">f_pc/f_pc_delete_tag.h</text>
</a>
</g>
</g>
<!-- Node11&#45;&gt;Node12 -->
<g id="edge12" class="edge">
<title>Node11&#45;&gt;Node12</title>
<path fill="none" stroke="#63b8ff" d="M916.91,-331.36C919.99,-330.9 923.04,-330.44 926,-330 1038.35,-313.33 1067.13,-313.63 1179,-294 1183.94,-293.13 1189.07,-292.17 1194.2,-291.17"/>
<polygon fill="#63b8ff" stroke="#63b8ff" points="1194.74,-294.63 1203.85,-289.23 1193.36,-287.77 1194.74,-294.63"/>
</g>
<!-- Node15 -->
<g id="node15" class="node">
<title>Node15</title>
<g id="a_node15"><a xlink:href="f__pc__layer__tag_8h.html" target="_top" xlink:title=" ">
<polygon fill="white" stroke="#666666" points="1047.5,-288.5 938.5,-288.5 938.5,-269.5 1047.5,-269.5 1047.5,-288.5"/>
<text text-anchor="middle" x="993" y="-276.5" font-family="Helvetica,sans-Serif" font-size="10.00">f_pc/f_pc_layer_tag.h</text>
</a>
</g>
</g>
<!-- Node11&#45;&gt;Node15 -->
<g id="edge16" class="edge">
<title>Node11&#45;&gt;Node15</title>
<path fill="none" stroke="#63b8ff" d="M889.53,-329.62C909.32,-320.12 940.97,-304.95 964.05,-293.88"/>
<polygon fill="#63b8ff" stroke="#63b8ff" points="965.43,-297.1 972.93,-289.62 962.4,-290.79 965.43,-297.1"/>
</g>
<!-- Node16 -->
<g id="node16" class="node">
<title>Node16</title>
<g id="a_node16"><a xlink:href="f__pc__line__tag_8h.html" target="_top" xlink:title=" ">
<polygon fill="white" stroke="#666666" points="1170,-288.5 1066,-288.5 1066,-269.5 1170,-269.5 1170,-288.5"/>
<text text-anchor="middle" x="1118" y="-276.5" font-family="Helvetica,sans-Serif" font-size="10.00">f_pc/f_pc_line_tag.h</text>
</a>
</g>
</g>
<!-- Node11&#45;&gt;Node16 -->
<g id="edge18" class="edge">
<title>Node11&#45;&gt;Node16</title>
<path fill="none" stroke="#63b8ff" d="M908.78,-329.55C951.73,-319.38 1021.97,-302.74 1069.07,-291.59"/>
<polygon fill="#63b8ff" stroke="#63b8ff" points="1069.82,-295.01 1078.75,-289.3 1068.21,-288.2 1069.82,-295.01"/>
</g>
<!-- Node17 -->
<g id="node17" class="node">
<title>Node17</title>
<g id="a_node17"><a xlink:href="f__pc__priority_8h.html" target="_top" xlink:title=" ">
<polygon fill="white" stroke="#666666" points="920,-288.5 822,-288.5 822,-269.5 920,-269.5 920,-288.5"/>
<text text-anchor="middle" x="871" y="-276.5" font-family="Helvetica,sans-Serif" font-size="10.00">f_pc/f_pc_priority.h</text>
</a>
</g>
</g>
<!-- Node11&#45;&gt;Node17 -->
<g id="edge20" class="edge">
<title>Node11&#45;&gt;Node17</title>
<path fill="none" stroke="#63b8ff" d="M871,-329.87C871,-322 871,-310.1 871,-299.89"/>
<polygon fill="#63b8ff" stroke="#63b8ff" points="874.5,-300.18 871,-290.18 867.5,-300.18 874.5,-300.18"/>
</g>
<!-- Node13 -->
<g id="node13" class="node">
<title>Node13</title>
<g id="a_node13"><a xlink:href="c__tag_8h.html" target="_top" xlink:title=" ">
<polygon fill="white" stroke="#666666" points="1075,-162 959,-162 959,-132 1075,-132 1075,-162"/>
<text text-anchor="start" x="967" y="-150" font-family="Helvetica,sans-Serif" font-size="10.00">SSystem/SComponent</text>
<text text-anchor="middle" x="1017" y="-139" font-family="Helvetica,sans-Serif" font-size="10.00">/c_tag.h</text>
</a>
</g>
</g>
<!-- Node12&#45;&gt;Node13 -->
<g id="edge13" class="edge">
<title>Node12&#45;&gt;Node13</title>
<path fill="none" stroke="#63b8ff" d="M1233.3,-269.03C1211.22,-253.61 1164.07,-221.46 1122,-198 1102.21,-186.96 1079.6,-176 1060.43,-167.16"/>
<polygon fill="#63b8ff" stroke="#63b8ff" points="1062.11,-164.08 1051.56,-163.11 1059.2,-170.44 1062.11,-164.08"/>
</g>
<!-- Node13&#45;&gt;Node7 -->
<g id="edge15" class="edge">
<title>Node13&#45;&gt;Node7</title>
<path fill="none" stroke="#63b8ff" d="M958.65,-136.84C946.86,-135.13 934.54,-133.42 923,-132 755.98,-111.39 557.33,-93.94 464.99,-86.23"/>
<polygon fill="#63b8ff" stroke="#63b8ff" points="465.5,-82.76 455.24,-85.42 464.92,-89.74 465.5,-82.76"/>
</g>
<!-- Node14 -->
<g id="node14" class="node">
<title>Node14</title>
<g id="a_node14"><a xlink:href="c__node_8h.html" target="_top" xlink:title=" ">
<polygon fill="white" stroke="#666666" points="951,-96 835,-96 835,-66 951,-66 951,-96"/>
<text text-anchor="start" x="843" y="-84" font-family="Helvetica,sans-Serif" font-size="10.00">SSystem/SComponent</text>
<text text-anchor="middle" x="893" y="-73" font-family="Helvetica,sans-Serif" font-size="10.00">/c_node.h</text>
</a>
</g>
</g>
<!-- Node13&#45;&gt;Node14 -->
<g id="edge14" class="edge">
<title>Node13&#45;&gt;Node14</title>
<path fill="none" stroke="#63b8ff" d="M989.17,-131.64C971.94,-122.74 949.59,-111.21 930.77,-101.49"/>
<polygon fill="#63b8ff" stroke="#63b8ff" points="932.57,-98.49 922.08,-97.01 929.36,-104.71 932.57,-98.49"/>
</g>
<!-- Node15&#45;&gt;Node13 -->
<g id="edge17" class="edge">
<title>Node15&#45;&gt;Node13</title>
<path fill="none" stroke="#63b8ff" d="M1028.48,-269.06C1049.46,-261.75 1074.34,-249.07 1087,-228 1093.87,-216.57 1093.1,-209.86 1087,-198 1080.75,-185.86 1070.04,-176.02 1058.85,-168.38"/>
<polygon fill="#63b8ff" stroke="#63b8ff" points="1061.04,-165.62 1050.71,-163.28 1057.33,-171.55 1061.04,-165.62"/>
</g>
<!-- Node16&#45;&gt;Node13 -->
<g id="edge19" class="edge">
<title>Node16&#45;&gt;Node13</title>
<path fill="none" stroke="#63b8ff" d="M1118.61,-269.16C1119.25,-253.38 1118.49,-219.93 1103,-198 1093.94,-185.17 1080.47,-175.15 1066.86,-167.56"/>
<polygon fill="#63b8ff" stroke="#63b8ff" points="1068.82,-164.63 1058.33,-163.15 1065.61,-170.85 1068.82,-164.63"/>
</g>
<!-- Node18 -->
<g id="node18" class="node">
<title>Node18</title>
<g id="a_node18"><a xlink:href="f__pc__method__tag_8h.html" target="_top" xlink:title=" ">
<polygon fill="white" stroke="#666666" points="1077.5,-222.5 956.5,-222.5 956.5,-203.5 1077.5,-203.5 1077.5,-222.5"/>
<text text-anchor="middle" x="1017" y="-210.5" font-family="Helvetica,sans-Serif" font-size="10.00">f_pc/f_pc_method_tag.h</text>
</a>
</g>
</g>
<!-- Node17&#45;&gt;Node18 -->
<g id="edge21" class="edge">
<title>Node17&#45;&gt;Node18</title>
<path fill="none" stroke="#63b8ff" d="M891.3,-269.1C916.03,-258.26 958.05,-239.84 986.64,-227.31"/>
<polygon fill="#63b8ff" stroke="#63b8ff" points="987.73,-230.65 995.49,-223.43 984.92,-224.24 987.73,-230.65"/>
</g>
<!-- Node18&#45;&gt;Node13 -->
<g id="edge22" class="edge">
<title>Node18&#45;&gt;Node13</title>
<path fill="none" stroke="#63b8ff" d="M1017,-203.1C1017,-195.41 1017,-183.92 1017,-173.42"/>
<polygon fill="#63b8ff" stroke="#63b8ff" points="1020.5,-173.75 1017,-163.75 1013.5,-173.75 1020.5,-173.75"/>
</g>
<!-- Node19&#45;&gt;Node7 -->
<g id="edge24" class="edge">
<title>Node19&#45;&gt;Node7</title>
<path fill="none" stroke="#63b8ff" d="M341.41,-329.9C343.06,-300.94 350.54,-204.7 380,-132 384.6,-120.65 391.94,-109.17 398.54,-100.08"/>
<polygon fill="#63b8ff" stroke="#63b8ff" points="401.29,-102.24 404.56,-92.16 395.72,-98 401.29,-102.24"/>
</g>
<!-- Node20&#45;&gt;Node7 -->
<g id="edge26" class="edge">
<title>Node20&#45;&gt;Node7</title>
<path fill="none" stroke="#63b8ff" d="M468.88,-203.06C459.24,-182.19 435.08,-129.84 421.91,-101.3"/>
<polygon fill="#63b8ff" stroke="#63b8ff" points="425.16,-99.99 417.79,-92.37 418.8,-102.92 425.16,-99.99"/>
</g>
<!-- Node21&#45;&gt;Node7 -->
<g id="edge28" class="edge">
<title>Node21&#45;&gt;Node7</title>
<path fill="none" stroke="#63b8ff" d="M495.99,-329.51C474.41,-312.52 429.8,-273.31 413,-228 397.19,-185.35 403.54,-130.76 408.76,-101.92"/>
<polygon fill="#63b8ff" stroke="#63b8ff" points="412.13,-102.9 410.63,-92.41 405.26,-101.55 412.13,-102.9"/>
</g>
<!-- Node22&#45;&gt;Node10 -->
<g id="edge36" class="edge">
<title>Node22&#45;&gt;Node10</title>
<path fill="none" stroke="#63b8ff" d="M479.03,-450.87C471.06,-442.23 458.57,-428.7 448.61,-417.92"/>
<polygon fill="#63b8ff" stroke="#63b8ff" points="451.38,-415.75 442.03,-410.78 446.24,-420.5 451.38,-415.75"/>
</g>
<!-- Node23 -->
<g id="node23" class="node">
<title>Node23</title>
<g id="a_node23"><a xlink:href="f__pc__create__iter_8h.html" target="_top" xlink:title=" ">
<polygon fill="white" stroke="#666666" points="328,-156.5 212,-156.5 212,-137.5 328,-137.5 328,-156.5"/>
<text text-anchor="middle" x="270" y="-144.5" font-family="Helvetica,sans-Serif" font-size="10.00">f_pc/f_pc_create_iter.h</text>
</a>
</g>
</g>
<!-- Node22&#45;&gt;Node23 -->
<g id="edge30" class="edge">
<title>Node22&#45;&gt;Node23</title>
<path fill="none" stroke="#63b8ff" d="M454.54,-450.53C389.63,-431.64 250,-385.74 250,-340.5 250,-340.5 250,-340.5 250,-278 250,-238.54 259.11,-193.12 265.04,-167.76"/>
<polygon fill="#63b8ff" stroke="#63b8ff" points="268.39,-168.77 267.35,-158.23 261.59,-167.12 268.39,-168.77"/>
</g>
<!-- Node24 -->
<g id="node24" class="node">
<title>Node24</title>
<g id="a_node24"><a xlink:href="f__pc__executor_8h.html" target="_top" xlink:title=" ">
<polygon fill="white" stroke="#666666" points="712.5,-409.5 605.5,-409.5 605.5,-390.5 712.5,-390.5 712.5,-409.5"/>
<text text-anchor="middle" x="659" y="-397.5" font-family="Helvetica,sans-Serif" font-size="10.00">f_pc/f_pc_executor.h</text>
</a>
</g>
</g>
<!-- Node22&#45;&gt;Node24 -->
<g id="edge32" class="edge">
<title>Node22&#45;&gt;Node24</title>
<path fill="none" stroke="#63b8ff" d="M513.12,-450.62C542.17,-440.74 589.3,-424.71 622.1,-413.55"/>
<polygon fill="#63b8ff" stroke="#63b8ff" points="622.86,-416.99 631.2,-410.46 620.6,-410.36 622.86,-416.99"/>
</g>
<!-- Node27 -->
<g id="node27" class="node">
<title>Node27</title>
<g id="a_node27"><a xlink:href="f__pc__node_8h.html" target="_top" xlink:title=" ">
<polygon fill="white" stroke="#666666" points="587.5,-409.5 496.5,-409.5 496.5,-390.5 587.5,-390.5 587.5,-409.5"/>
<text text-anchor="middle" x="542" y="-397.5" font-family="Helvetica,sans-Serif" font-size="10.00">f_pc/f_pc_node.h</text>
</a>
</g>
</g>
<!-- Node22&#45;&gt;Node27 -->
<g id="edge37" class="edge">
<title>Node22&#45;&gt;Node27</title>
<path fill="none" stroke="#63b8ff" d="M495.12,-450.87C503.24,-442.23 515.96,-428.7 526.1,-417.92"/>
<polygon fill="#63b8ff" stroke="#63b8ff" points="528.51,-420.45 532.81,-410.77 523.41,-415.66 528.51,-420.45"/>
</g>
<!-- Node31 -->
<g id="node31" class="node">
<title>Node31</title>
<g id="a_node31"><a xlink:href="f__pc__stdcreate__req_8h.html" target="_top" xlink:title=" ">
<polygon fill="white" stroke="#666666" points="833.5,-415 730.5,-415 730.5,-385 833.5,-385 833.5,-415"/>
<text text-anchor="start" x="738.5" y="-403" font-family="Helvetica,sans-Serif" font-size="10.00">f_pc/f_pc_stdcreate</text>
<text text-anchor="middle" x="782" y="-392" font-family="Helvetica,sans-Serif" font-size="10.00">_req.h</text>
</a>
</g>
</g>
<!-- Node22&#45;&gt;Node31 -->
<g id="edge46" class="edge">
<title>Node22&#45;&gt;Node31</title>
<path fill="none" stroke="#63b8ff" d="M537.55,-450.56C582.8,-442.42 651.23,-429.76 719.39,-415.5"/>
<polygon fill="#63b8ff" stroke="#63b8ff" points="719.77,-419 728.84,-413.52 718.33,-412.15 719.77,-419"/>
</g>
<!-- Node23&#45;&gt;Node7 -->
<g id="edge31" class="edge">
<title>Node23&#45;&gt;Node7</title>
<path fill="none" stroke="#63b8ff" d="M289.88,-137.1C314,-126.31 354.9,-108 382.89,-95.48"/>
<polygon fill="#63b8ff" stroke="#63b8ff" points="384.21,-98.72 391.9,-91.44 381.35,-92.33 384.21,-98.72"/>
</g>
<!-- Node25 -->
<g id="node25" class="node">
<title>Node25</title>
<g id="a_node25"><a xlink:href="f__pc__layer__iter_8h.html" target="_top" xlink:title=" ">
<polygon fill="white" stroke="#666666" points="569.5,-156.5 460.5,-156.5 460.5,-137.5 569.5,-137.5 569.5,-156.5"/>
<text text-anchor="middle" x="515" y="-144.5" font-family="Helvetica,sans-Serif" font-size="10.00">f_pc/f_pc_layer_iter.h</text>
</a>
</g>
</g>
<!-- Node24&#45;&gt;Node25 -->
<g id="edge33" class="edge">
<title>Node24&#45;&gt;Node25</title>
<path fill="none" stroke="#63b8ff" d="M653.87,-390.07C633.05,-353.78 554.54,-216.92 525.71,-166.66"/>
<polygon fill="#63b8ff" stroke="#63b8ff" points="528.83,-165.07 520.82,-158.14 522.76,-168.55 528.83,-165.07"/>
</g>
<!-- Node26 -->
<g id="node26" class="node">
<title>Node26</title>
<g id="a_node26"><a xlink:href="f__pc__line__iter_8h.html" target="_top" xlink:title=" ">
<polygon fill="white" stroke="#666666" points="1039,-349 935,-349 935,-330 1039,-330 1039,-349"/>
<text text-anchor="middle" x="987" y="-337" font-family="Helvetica,sans-Serif" font-size="10.00">f_pc/f_pc_line_iter.h</text>
</a>
</g>
</g>
<!-- Node24&#45;&gt;Node26 -->
<g id="edge35" class="edge">
<title>Node24&#45;&gt;Node26</title>
<path fill="none" stroke="#63b8ff" d="M697.92,-390.02C705.87,-388.28 714.19,-386.52 722,-385 790.61,-371.63 869.69,-358.66 923.48,-350.21"/>
<polygon fill="#63b8ff" stroke="#63b8ff" points="923.73,-353.71 933.07,-348.71 922.65,-346.8 923.73,-353.71"/>
</g>
<!-- Node25&#45;&gt;Node7 -->
<g id="edge34" class="edge">
<title>Node25&#45;&gt;Node7</title>
<path fill="none" stroke="#63b8ff" d="M500.82,-137.1C484.22,-126.69 456.49,-109.29 436.63,-96.83"/>
<polygon fill="#63b8ff" stroke="#63b8ff" points="438.68,-93.98 428.34,-91.63 434.95,-99.91 438.68,-93.98"/>
</g>
<!-- Node27&#45;&gt;Node11 -->
<g id="edge38" class="edge">
<title>Node27&#45;&gt;Node11</title>
<path fill="none" stroke="#63b8ff" d="M575.34,-390.01C582.46,-388.23 589.96,-386.47 597,-385 671.44,-369.51 758.2,-356.21 813.82,-348.29"/>
<polygon fill="#63b8ff" stroke="#63b8ff" points="814.29,-351.75 823.7,-346.89 813.31,-344.82 814.29,-351.75"/>
</g>
<!-- Node27&#45;&gt;Node20 -->
<g id="edge44" class="edge">
<title>Node27&#45;&gt;Node20</title>
<path fill="none" stroke="#63b8ff" d="M548.85,-390.04C558.07,-376.86 572.48,-351.46 565,-330 550.58,-288.61 514.56,-250.9 492.1,-230.32"/>
<polygon fill="#63b8ff" stroke="#63b8ff" points="494.61,-227.87 484.82,-223.84 489.96,-233.1 494.61,-227.87"/>
</g>
<!-- Node27&#45;&gt;Node21 -->
<g id="edge45" class="edge">
<title>Node27&#45;&gt;Node21</title>
<path fill="none" stroke="#63b8ff" d="M536.98,-390.37C532.21,-382.16 524.88,-369.54 518.78,-359.05"/>
<polygon fill="#63b8ff" stroke="#63b8ff" points="521.85,-357.36 513.8,-350.48 515.8,-360.88 521.85,-357.36"/>
</g>
<!-- Node28 -->
<g id="node28" class="node">
<title>Node28</title>
<g id="a_node28"><a xlink:href="f__pc__layer_8h.html" target="_top" xlink:title=" ">
<polygon fill="white" stroke="#666666" points="670,-222.5 580,-222.5 580,-203.5 670,-203.5 670,-222.5"/>
<text text-anchor="middle" x="625" y="-210.5" font-family="Helvetica,sans-Serif" font-size="10.00">f_pc/f_pc_layer.h</text>
</a>
</g>
</g>
<!-- Node27&#45;&gt;Node28 -->
<g id="edge39" class="edge">
<title>Node27&#45;&gt;Node28</title>
<path fill="none" stroke="#63b8ff" d="M550.27,-390.04C558.73,-380.49 571.75,-364.62 580,-349 600.32,-310.53 613.98,-261.1 620.52,-234"/>
<polygon fill="#63b8ff" stroke="#63b8ff" points="623.9,-234.94 622.75,-224.41 617.08,-233.35 623.9,-234.94"/>
</g>
<!-- Node28&#45;&gt;Node7 -->
<g id="edge43" class="edge">
<title>Node28&#45;&gt;Node7</title>
<path fill="none" stroke="#63b8ff" d="M622.33,-203.09C616.92,-186.56 603.1,-151.12 579,-132 546.24,-106 500.13,-93.5 464.82,-87.49"/>
<polygon fill="#63b8ff" stroke="#63b8ff" points="465.68,-84.09 455.26,-86 464.6,-91 465.68,-84.09"/>
</g>
<!-- Node28&#45;&gt;Node14 -->
<g id="edge41" class="edge">
<title>Node28&#45;&gt;Node14</title>
<path fill="none" stroke="#63b8ff" d="M654.37,-203.05C680.64,-194.43 719.7,-180.04 751,-162 769.64,-151.25 770.75,-143.4 789,-132 807.55,-120.41 829.2,-109.62 847.92,-101.04"/>
<polygon fill="#63b8ff" stroke="#63b8ff" points="849.21,-104.3 856.89,-97.01 846.34,-97.92 849.21,-104.3"/>
</g>
<!-- Node29 -->
<g id="node29" class="node">
<title>Node29</title>
<g id="a_node29"><a xlink:href="c__list_8h.html" target="_top" xlink:title=" ">
<polygon fill="white" stroke="#666666" points="914,-162 798,-162 798,-132 914,-132 914,-162"/>
<text text-anchor="start" x="806" y="-150" font-family="Helvetica,sans-Serif" font-size="10.00">SSystem/SComponent</text>
<text text-anchor="middle" x="856" y="-139" font-family="Helvetica,sans-Serif" font-size="10.00">/c_list.h</text>
</a>
</g>
</g>
<!-- Node28&#45;&gt;Node29 -->
<g id="edge40" class="edge">
<title>Node28&#45;&gt;Node29</title>
<path fill="none" stroke="#63b8ff" d="M657.12,-203.1C692.09,-193.41 748.9,-177.67 792.86,-165.49"/>
<polygon fill="#63b8ff" stroke="#63b8ff" points="793.58,-168.92 802.29,-162.88 791.71,-162.18 793.58,-168.92"/>
</g>
<!-- Node30 -->
<g id="node30" class="node">
<title>Node30</title>
<g id="a_node30"><a xlink:href="c__tree_8h.html" target="_top" xlink:title=" ">
<polygon fill="white" stroke="#666666" points="742,-162 626,-162 626,-132 742,-132 742,-162"/>
<text text-anchor="start" x="634" y="-150" font-family="Helvetica,sans-Serif" font-size="10.00">SSystem/SComponent</text>
<text text-anchor="middle" x="684" y="-139" font-family="Helvetica,sans-Serif" font-size="10.00">/c_tree.h</text>
</a>
</g>
</g>
<!-- Node28&#45;&gt;Node30 -->
<g id="edge42" class="edge">
<title>Node28&#45;&gt;Node30</title>
<path fill="none" stroke="#63b8ff" d="M633.2,-203.1C640.98,-194.67 652.97,-181.66 663.35,-170.4"/>
<polygon fill="#63b8ff" stroke="#63b8ff" points="665.65,-173.07 669.85,-163.35 660.5,-168.33 665.65,-173.07"/>
</g>
<!-- Node32 -->
<g id="node32" class="node">
<title>Node32</title>
<g id="a_node32"><a xlink:href="f__pc__create__req_8h.html" target="_top" xlink:title=" ">
<polygon fill="white" stroke="#666666" points="804,-288.5 688,-288.5 688,-269.5 804,-269.5 804,-288.5"/>
<text text-anchor="middle" x="746" y="-276.5" font-family="Helvetica,sans-Serif" font-size="10.00">f_pc/f_pc_create_req.h</text>
</a>
</g>
</g>
<!-- Node31&#45;&gt;Node32 -->
<g id="edge47" class="edge">
<title>Node31&#45;&gt;Node32</title>
<path fill="none" stroke="#63b8ff" d="M777.73,-384.88C771.32,-363.7 759.2,-323.63 751.94,-299.62"/>
<polygon fill="#63b8ff" stroke="#63b8ff" points="755.32,-298.72 749.07,-290.16 748.62,-300.74 755.32,-298.72"/>
</g>
<!-- Node32&#45;&gt;Node18 -->
<g id="edge53" class="edge">
<title>Node32&#45;&gt;Node18</title>
<path fill="none" stroke="#63b8ff" d="M783.97,-269.03C832.14,-257.66 915.32,-238.01 968.17,-225.53"/>
<polygon fill="#63b8ff" stroke="#63b8ff" points="968.89,-228.96 977.82,-223.25 967.28,-222.15 968.89,-228.96"/>
</g>
<!-- Node32&#45;&gt;Node20 -->
<g id="edge52" class="edge">
<title>Node32&#45;&gt;Node20</title>
<path fill="none" stroke="#63b8ff" d="M707.75,-269.03C659.22,-257.66 575.43,-238.01 522.19,-225.53"/>
<polygon fill="#63b8ff" stroke="#63b8ff" points="523,-222.13 512.46,-223.25 521.4,-228.94 523,-222.13"/>
</g>
<!-- Node33 -->
<g id="node33" class="node">
<title>Node33</title>
<g id="a_node33"><a xlink:href="c__phase_8h.html" target="_top" xlink:title=" ">
<polygon fill="white" stroke="#666666" points="938,-228 822,-228 822,-198 938,-198 938,-228"/>
<text text-anchor="start" x="830" y="-216" font-family="Helvetica,sans-Serif" font-size="10.00">SSystem/SComponent</text>
<text text-anchor="middle" x="880" y="-205" font-family="Helvetica,sans-Serif" font-size="10.00">/c_phase.h</text>
</a>
</g>
</g>
<!-- Node32&#45;&gt;Node33 -->
<g id="edge48" class="edge">
<title>Node32&#45;&gt;Node33</title>
<path fill="none" stroke="#63b8ff" d="M764.63,-269.1C783.89,-259.9 814.55,-245.26 839.43,-233.38"/>
<polygon fill="#63b8ff" stroke="#63b8ff" points="840.81,-236.6 848.32,-229.13 837.79,-230.28 840.81,-236.6"/>
</g>
<!-- Node34 -->
<g id="node34" class="node">
<title>Node34</title>
<g id="a_node34"><a xlink:href="f__pc__create__tag_8h.html" target="_top" xlink:title=" ">
<polygon fill="white" stroke="#666666" points="804,-222.5 688,-222.5 688,-203.5 804,-203.5 804,-222.5"/>
<text text-anchor="middle" x="746" y="-210.5" font-family="Helvetica,sans-Serif" font-size="10.00">f_pc/f_pc_create_tag.h</text>
</a>
</g>
</g>
<!-- Node32&#45;&gt;Node34 -->
<g id="edge49" class="edge">
<title>Node32&#45;&gt;Node34</title>
<path fill="none" stroke="#63b8ff" d="M746,-269.1C746,-260.12 746,-245.95 746,-234.22"/>
<polygon fill="#63b8ff" stroke="#63b8ff" points="749.5,-234.34 746,-224.34 742.5,-234.34 749.5,-234.34"/>
</g>
<!-- Node34&#45;&gt;Node13 -->
<g id="edge51" class="edge">
<title>Node34&#45;&gt;Node13</title>
<path fill="none" stroke="#63b8ff" d="M783.97,-203.03C826.24,-193.05 895.46,-176.7 947.5,-164.41"/>
<polygon fill="#63b8ff" stroke="#63b8ff" points="948.26,-167.83 957.18,-162.13 946.65,-161.02 948.26,-167.83"/>
</g>
<!-- Node34&#45;&gt;Node29 -->
<g id="edge50" class="edge">
<title>Node34&#45;&gt;Node29</title>
<path fill="none" stroke="#63b8ff" d="M761.3,-203.1C776.75,-194.11 801.16,-179.91 821.32,-168.18"/>
<polygon fill="#63b8ff" stroke="#63b8ff" points="822.93,-171.29 829.81,-163.24 819.4,-165.24 822.93,-171.29"/>
</g>
</g>
</svg>
