<?xml version="1.0" encoding="UTF-8" standalone="no"?>
<!DOCTYPE svg PUBLIC "-//W3C//DTD SVG 1.1//EN"
 "http://www.w3.org/Graphics/SVG/1.1/DTD/svg11.dtd">
<!-- Generated by graphviz version 7.0.5 (20221223.1930)
 -->
<!-- Title: include/f_op/f_op_scene.h Pages: 1 -->
<svg width="653pt" height="511pt"
 viewBox="0.00 0.00 653.00 511.00" xmlns="http://www.w3.org/2000/svg" xmlns:xlink="http://www.w3.org/1999/xlink">
<g id="graph0" class="graph" transform="scale(1 1) rotate(0) translate(4 507)">
<title>include/f_op/f_op_scene.h</title>
<!-- Node1 -->
<g id="node1" class="node">
<title>Node1</title>
<g id="a_node1"><a xlink:title=" ">
<polygon fill="#999999" stroke="#666666" points="573,-503 443,-503 443,-484 573,-484 573,-503"/>
<text text-anchor="middle" x="508" y="-491" font-family="Helvetica,sans-Serif" font-size="10.00">include/f_op/f_op_scene.h</text>
</a>
</g>
</g>
<!-- Node2 -->
<g id="node2" class="node">
<title>Node2</title>
<g id="a_node2"><a xlink:href="f__op__scene__tag_8h.html" target="_top" xlink:title=" ">
<polygon fill="white" stroke="#666666" points="608.5,-448 493.5,-448 493.5,-429 608.5,-429 608.5,-448"/>
<text text-anchor="middle" x="551" y="-436" font-family="Helvetica,sans-Serif" font-size="10.00">f_op/f_op_scene_tag.h</text>
</a>
</g>
</g>
<!-- Node1&#45;&gt;Node2 -->
<g id="edge1" class="edge">
<title>Node1&#45;&gt;Node2</title>
<path fill="none" stroke="#63b8ff" d="M515.1,-483.75C520.92,-476.58 529.33,-466.2 536.56,-457.3"/>
<polygon fill="#63b8ff" stroke="#63b8ff" points="539.21,-459.59 542.79,-449.62 533.77,-455.18 539.21,-459.59"/>
</g>
<!-- Node3 -->
<g id="node3" class="node">
<title>Node3</title>
<g id="a_node3"><a xlink:href="f__pc__node_8h.html" target="_top" xlink:title=" ">
<polygon fill="white" stroke="#666666" points="510.5,-387.5 419.5,-387.5 419.5,-368.5 510.5,-368.5 510.5,-387.5"/>
<text text-anchor="middle" x="465" y="-375.5" font-family="Helvetica,sans-Serif" font-size="10.00">f_pc/f_pc_node.h</text>
</a>
</g>
</g>
<!-- Node1&#45;&gt;Node3 -->
<g id="edge26" class="edge">
<title>Node1&#45;&gt;Node3</title>
<path fill="none" stroke="#63b8ff" d="M502.41,-483.59C497.1,-474.81 489.17,-460.87 484,-448 477.55,-431.93 472.49,-412.91 469.22,-398.92"/>
<polygon fill="#63b8ff" stroke="#63b8ff" points="472.65,-398.18 467.06,-389.18 465.81,-399.7 472.65,-398.18"/>
</g>
<!-- Node2&#45;&gt;Node3 -->
<g id="edge2" class="edge">
<title>Node2&#45;&gt;Node3</title>
<path fill="none" stroke="#63b8ff" d="M537.94,-428.62C524.55,-419.51 503.48,-405.18 487.42,-394.25"/>
<polygon fill="#63b8ff" stroke="#63b8ff" points="489.67,-391.55 479.44,-388.82 485.74,-397.34 489.67,-391.55"/>
</g>
<!-- Node19 -->
<g id="node19" class="node">
<title>Node19</title>
<g id="a_node19"><a xlink:href="c__phase_8h.html" target="_top" xlink:title=" ">
<polygon fill="white" stroke="#666666" points="645,-393 529,-393 529,-363 645,-363 645,-393"/>
<text text-anchor="start" x="537" y="-381" font-family="Helvetica,sans-Serif" font-size="10.00">SSystem/SComponent</text>
<text text-anchor="middle" x="587" y="-370" font-family="Helvetica,sans-Serif" font-size="10.00">/c_phase.h</text>
</a>
</g>
</g>
<!-- Node2&#45;&gt;Node19 -->
<g id="edge25" class="edge">
<title>Node2&#45;&gt;Node19</title>
<path fill="none" stroke="#63b8ff" d="M556.31,-428.87C560.56,-421.96 566.74,-411.93 572.43,-402.67"/>
<polygon fill="#63b8ff" stroke="#63b8ff" points="575.26,-404.75 577.52,-394.4 569.3,-401.09 575.26,-404.75"/>
</g>
<!-- Node4 -->
<g id="node4" class="node">
<title>Node4</title>
<g id="a_node4"><a xlink:href="f__pc__base_8h.html" target="_top" xlink:title=" ">
<polygon fill="white" stroke="#666666" points="341.5,-327 250.5,-327 250.5,-308 341.5,-308 341.5,-327"/>
<text text-anchor="middle" x="296" y="-315" font-family="Helvetica,sans-Serif" font-size="10.00">f_pc/f_pc_base.h</text>
</a>
</g>
</g>
<!-- Node3&#45;&gt;Node4 -->
<g id="edge3" class="edge">
<title>Node3&#45;&gt;Node4</title>
<path fill="none" stroke="#63b8ff" d="M439.33,-368.12C410.92,-358.28 364.88,-342.34 332.67,-331.19"/>
<polygon fill="#63b8ff" stroke="#63b8ff" points="333.93,-327.93 323.34,-327.96 331.64,-334.54 333.93,-327.93"/>
</g>
<!-- Node14 -->
<g id="node14" class="node">
<title>Node14</title>
<g id="a_node14"><a xlink:href="f__pc__layer_8h.html" target="_top" xlink:title=" ">
<polygon fill="white" stroke="#666666" points="471,-156.5 381,-156.5 381,-137.5 471,-137.5 471,-156.5"/>
<text text-anchor="middle" x="426" y="-144.5" font-family="Helvetica,sans-Serif" font-size="10.00">f_pc/f_pc_layer.h</text>
</a>
</g>
</g>
<!-- Node3&#45;&gt;Node14 -->
<g id="edge16" class="edge">
<title>Node3&#45;&gt;Node14</title>
<path fill="none" stroke="#63b8ff" d="M460.54,-368.03C455.86,-358.22 448.69,-341.88 445,-327 430.99,-270.5 427.31,-201.45 426.34,-168.03"/>
<polygon fill="#63b8ff" stroke="#63b8ff" points="429.85,-168.15 426.12,-158.23 422.85,-168.31 429.85,-168.15"/>
</g>
<!-- Node17 -->
<g id="node17" class="node">
<title>Node17</title>
<g id="a_node17"><a xlink:href="f__pc__method_8h.html" target="_top" xlink:title=" ">
<polygon fill="white" stroke="#666666" points="556,-327 454,-327 454,-308 556,-308 556,-327"/>
<text text-anchor="middle" x="505" y="-315" font-family="Helvetica,sans-Serif" font-size="10.00">f_pc/f_pc_method.h</text>
</a>
</g>
</g>
<!-- Node3&#45;&gt;Node17 -->
<g id="edge21" class="edge">
<title>Node3&#45;&gt;Node17</title>
<path fill="none" stroke="#63b8ff" d="M470.9,-368.37C476.63,-359.99 485.51,-347.01 492.76,-336.39"/>
<polygon fill="#63b8ff" stroke="#63b8ff" points="495.46,-338.65 498.22,-328.42 489.69,-334.7 495.46,-338.65"/>
</g>
<!-- Node18 -->
<g id="node18" class="node">
<title>Node18</title>
<g id="a_node18"><a xlink:href="f__pc__profile_8h.html" target="_top" xlink:title=" ">
<polygon fill="white" stroke="#666666" points="630.5,-217 535.5,-217 535.5,-198 630.5,-198 630.5,-217"/>
<text text-anchor="middle" x="583" y="-205" font-family="Helvetica,sans-Serif" font-size="10.00">f_pc/f_pc_profile.h</text>
</a>
</g>
</g>
<!-- Node3&#45;&gt;Node18 -->
<g id="edge23" class="edge">
<title>Node3&#45;&gt;Node18</title>
<path fill="none" stroke="#63b8ff" d="M501.06,-368.09C523.02,-360.75 549.7,-348.03 565,-327 586.16,-297.91 586.95,-254.07 585.23,-228.67"/>
<polygon fill="#63b8ff" stroke="#63b8ff" points="588.72,-228.39 584.34,-218.75 581.75,-229.02 588.72,-228.39"/>
</g>
<!-- Node5 -->
<g id="node5" class="node">
<title>Node5</title>
<g id="a_node5"><a xlink:href="f__pc__delete__tag_8h.html" target="_top" xlink:title=" ">
<polygon fill="white" stroke="#666666" points="353.5,-272 238.5,-272 238.5,-253 353.5,-253 353.5,-272"/>
<text text-anchor="middle" x="296" y="-260" font-family="Helvetica,sans-Serif" font-size="10.00">f_pc/f_pc_delete_tag.h</text>
</a>
</g>
</g>
<!-- Node4&#45;&gt;Node5 -->
<g id="edge4" class="edge">
<title>Node4&#45;&gt;Node5</title>
<path fill="none" stroke="#63b8ff" d="M296,-307.75C296,-301.27 296,-292.16 296,-283.9"/>
<polygon fill="#63b8ff" stroke="#63b8ff" points="299.5,-283.96 296,-273.96 292.5,-283.96 299.5,-283.96"/>
</g>
<!-- Node10 -->
<g id="node10" class="node">
<title>Node10</title>
<g id="a_node10"><a xlink:href="f__pc__layer__tag_8h.html" target="_top" xlink:title=" ">
<polygon fill="white" stroke="#666666" points="397.5,-217 288.5,-217 288.5,-198 397.5,-198 397.5,-217"/>
<text text-anchor="middle" x="343" y="-205" font-family="Helvetica,sans-Serif" font-size="10.00">f_pc/f_pc_layer_tag.h</text>
</a>
</g>
</g>
<!-- Node4&#45;&gt;Node10 -->
<g id="edge9" class="edge">
<title>Node4&#45;&gt;Node10</title>
<path fill="none" stroke="#63b8ff" d="M319.43,-307.58C334.57,-300.45 353.05,-288.84 362,-272 369.6,-257.71 363.12,-239.96 355.73,-226.86"/>
<polygon fill="#63b8ff" stroke="#63b8ff" points="358.7,-225.01 350.41,-218.41 352.77,-228.74 358.7,-225.01"/>
</g>
<!-- Node11 -->
<g id="node11" class="node">
<title>Node11</title>
<g id="a_node11"><a xlink:href="f__pc__line__tag_8h.html" target="_top" xlink:title=" ">
<polygon fill="white" stroke="#666666" points="104,-272 0,-272 0,-253 104,-253 104,-272"/>
<text text-anchor="middle" x="52" y="-260" font-family="Helvetica,sans-Serif" font-size="10.00">f_pc/f_pc_line_tag.h</text>
</a>
</g>
</g>
<!-- Node4&#45;&gt;Node11 -->
<g id="edge11" class="edge">
<title>Node4&#45;&gt;Node11</title>
<path fill="none" stroke="#63b8ff" d="M254.61,-307.51C213.12,-298.5 149.12,-284.6 104.18,-274.83"/>
<polygon fill="#63b8ff" stroke="#63b8ff" points="105.18,-271.47 94.67,-272.77 103.69,-278.31 105.18,-271.47"/>
</g>
<!-- Node12 -->
<g id="node12" class="node">
<title>Node12</title>
<g id="a_node12"><a xlink:href="f__pc__priority_8h.html" target="_top" xlink:title=" ">
<polygon fill="white" stroke="#666666" points="220,-272 122,-272 122,-253 220,-253 220,-272"/>
<text text-anchor="middle" x="171" y="-260" font-family="Helvetica,sans-Serif" font-size="10.00">f_pc/f_pc_priority.h</text>
</a>
</g>
</g>
<!-- Node4&#45;&gt;Node12 -->
<g id="edge13" class="edge">
<title>Node4&#45;&gt;Node12</title>
<path fill="none" stroke="#63b8ff" d="M274.8,-307.51C254.92,-299.08 224.97,-286.38 202.34,-276.79"/>
<polygon fill="#63b8ff" stroke="#63b8ff" points="203.86,-273.63 193.28,-272.95 201.13,-280.07 203.86,-273.63"/>
</g>
<!-- Node6 -->
<g id="node6" class="node">
<title>Node6</title>
<g id="a_node6"><a xlink:href="c__tag_8h.html" target="_top" xlink:title=" ">
<polygon fill="white" stroke="#666666" points="273,-162 157,-162 157,-132 273,-132 273,-162"/>
<text text-anchor="start" x="165" y="-150" font-family="Helvetica,sans-Serif" font-size="10.00">SSystem/SComponent</text>
<text text-anchor="middle" x="215" y="-139" font-family="Helvetica,sans-Serif" font-size="10.00">/c_tag.h</text>
</a>
</g>
</g>
<!-- Node5&#45;&gt;Node6 -->
<g id="edge5" class="edge">
<title>Node5&#45;&gt;Node6</title>
<path fill="none" stroke="#63b8ff" d="M289.64,-252.59C277.33,-235.34 249.86,-196.84 231.9,-171.68"/>
<polygon fill="#63b8ff" stroke="#63b8ff" points="234.84,-169.78 226.18,-163.67 229.14,-173.84 234.84,-169.78"/>
</g>
<!-- Node7 -->
<g id="node7" class="node">
<title>Node7</title>
<g id="a_node7"><a xlink:href="c__node_8h.html" target="_top" xlink:title=" ">
<polygon fill="white" stroke="#666666" points="226,-96 110,-96 110,-66 226,-66 226,-96"/>
<text text-anchor="start" x="118" y="-84" font-family="Helvetica,sans-Serif" font-size="10.00">SSystem/SComponent</text>
<text text-anchor="middle" x="168" y="-73" font-family="Helvetica,sans-Serif" font-size="10.00">/c_node.h</text>
</a>
</g>
</g>
<!-- Node6&#45;&gt;Node7 -->
<g id="edge6" class="edge">
<title>Node6&#45;&gt;Node7</title>
<path fill="none" stroke="#63b8ff" d="M204.57,-131.8C198.85,-124.01 191.61,-114.16 185.09,-105.28"/>
<polygon fill="#63b8ff" stroke="#63b8ff" points="188.04,-103.37 179.3,-97.38 182.4,-107.52 188.04,-103.37"/>
</g>
<!-- Node8 -->
<g id="node8" class="node">
<title>Node8</title>
<g id="a_node8"><a xlink:href="types_8h.html" target="_top" xlink:title=" ">
<polygon fill="white" stroke="#666666" points="593.5,-90.5 512.5,-90.5 512.5,-71.5 593.5,-71.5 593.5,-90.5"/>
<text text-anchor="middle" x="553" y="-78.5" font-family="Helvetica,sans-Serif" font-size="10.00">dolphin/types.h</text>
</a>
</g>
</g>
<!-- Node6&#45;&gt;Node8 -->
<g id="edge7" class="edge">
<title>Node6&#45;&gt;Node8</title>
<path fill="none" stroke="#63b8ff" d="M273.26,-137.65C331.68,-128.87 424.05,-113.86 503,-96 505.95,-95.33 508.98,-94.6 512.03,-93.83"/>
<polygon fill="#63b8ff" stroke="#63b8ff" points="512.75,-97.26 521.52,-91.32 510.96,-90.49 512.75,-97.26"/>
</g>
<!-- Node9 -->
<g id="node9" class="node">
<title>Node9</title>
<g id="a_node9"><a xlink:href="stddef_8h.html" target="_top" xlink:title=" ">
<polygon fill="white" stroke="#666666" points="621,-30 485,-30 485,0 621,0 621,-30"/>
<text text-anchor="start" x="493" y="-18" font-family="Helvetica,sans-Serif" font-size="10.00">MSL_C/MSL_Common/Src</text>
<text text-anchor="middle" x="553" y="-7" font-family="Helvetica,sans-Serif" font-size="10.00">/stddef.h</text>
</a>
</g>
</g>
<!-- Node8&#45;&gt;Node9 -->
<g id="edge8" class="edge">
<title>Node8&#45;&gt;Node9</title>
<path fill="none" stroke="#63b8ff" d="M553,-71.1C553,-63.41 553,-51.92 553,-41.42"/>
<polygon fill="#63b8ff" stroke="#63b8ff" points="556.5,-41.75 553,-31.75 549.5,-41.75 556.5,-41.75"/>
</g>
<!-- Node10&#45;&gt;Node6 -->
<g id="edge10" class="edge">
<title>Node10&#45;&gt;Node6</title>
<path fill="none" stroke="#63b8ff" d="M323.56,-197.62C305.93,-189.56 279.35,-177.41 256.9,-167.15"/>
<polygon fill="#63b8ff" stroke="#63b8ff" points="258.52,-164.04 247.97,-163.07 255.61,-170.41 258.52,-164.04"/>
</g>
<!-- Node11&#45;&gt;Node6 -->
<g id="edge12" class="edge">
<title>Node11&#45;&gt;Node6</title>
<path fill="none" stroke="#63b8ff" d="M56.91,-252.56C64.69,-239.12 81.03,-213.61 101,-198 117.81,-184.86 138.61,-174.42 157.82,-166.55"/>
<polygon fill="#63b8ff" stroke="#63b8ff" points="158.85,-169.9 166.88,-162.99 156.29,-163.39 158.85,-169.9"/>
</g>
<!-- Node13 -->
<g id="node13" class="node">
<title>Node13</title>
<g id="a_node13"><a xlink:href="f__pc__method__tag_8h.html" target="_top" xlink:title=" ">
<polygon fill="white" stroke="#666666" points="231.5,-217 110.5,-217 110.5,-198 231.5,-198 231.5,-217"/>
<text text-anchor="middle" x="171" y="-205" font-family="Helvetica,sans-Serif" font-size="10.00">f_pc/f_pc_method_tag.h</text>
</a>
</g>
</g>
<!-- Node12&#45;&gt;Node13 -->
<g id="edge14" class="edge">
<title>Node12&#45;&gt;Node13</title>
<path fill="none" stroke="#63b8ff" d="M171,-252.75C171,-246.27 171,-237.16 171,-228.9"/>
<polygon fill="#63b8ff" stroke="#63b8ff" points="174.5,-228.96 171,-218.96 167.5,-228.96 174.5,-228.96"/>
</g>
<!-- Node13&#45;&gt;Node6 -->
<g id="edge15" class="edge">
<title>Node13&#45;&gt;Node6</title>
<path fill="none" stroke="#63b8ff" d="M177.49,-197.87C182.8,-190.81 190.56,-180.5 197.64,-171.08"/>
<polygon fill="#63b8ff" stroke="#63b8ff" points="200.26,-173.42 203.47,-163.32 194.67,-169.21 200.26,-173.42"/>
</g>
<!-- Node14&#45;&gt;Node7 -->
<g id="edge18" class="edge">
<title>Node14&#45;&gt;Node7</title>
<path fill="none" stroke="#63b8ff" d="M389.85,-137.03C350.4,-127.25 286.3,-111.35 237.12,-99.15"/>
<polygon fill="#63b8ff" stroke="#63b8ff" points="238.25,-95.82 227.7,-96.81 236.57,-102.61 238.25,-95.82"/>
</g>
<!-- Node14&#45;&gt;Node8 -->
<g id="edge20" class="edge">
<title>Node14&#45;&gt;Node8</title>
<path fill="none" stroke="#63b8ff" d="M443.66,-137.1C464.79,-126.45 500.44,-108.49 525.26,-95.98"/>
<polygon fill="#63b8ff" stroke="#63b8ff" points="526.78,-99.13 534.14,-91.5 523.63,-92.88 526.78,-99.13"/>
</g>
<!-- Node15 -->
<g id="node15" class="node">
<title>Node15</title>
<g id="a_node15"><a xlink:href="c__list_8h.html" target="_top" xlink:title=" ">
<polygon fill="white" stroke="#666666" points="360,-96 244,-96 244,-66 360,-66 360,-96"/>
<text text-anchor="start" x="252" y="-84" font-family="Helvetica,sans-Serif" font-size="10.00">SSystem/SComponent</text>
<text text-anchor="middle" x="302" y="-73" font-family="Helvetica,sans-Serif" font-size="10.00">/c_list.h</text>
</a>
</g>
</g>
<!-- Node14&#45;&gt;Node15 -->
<g id="edge17" class="edge">
<title>Node14&#45;&gt;Node15</title>
<path fill="none" stroke="#63b8ff" d="M408.76,-137.1C391.1,-127.99 363.07,-113.52 340.16,-101.7"/>
<polygon fill="#63b8ff" stroke="#63b8ff" points="341.89,-98.65 331.4,-97.17 338.68,-104.87 341.89,-98.65"/>
</g>
<!-- Node16 -->
<g id="node16" class="node">
<title>Node16</title>
<g id="a_node16"><a xlink:href="c__tree_8h.html" target="_top" xlink:title=" ">
<polygon fill="white" stroke="#666666" points="494,-96 378,-96 378,-66 494,-66 494,-96"/>
<text text-anchor="start" x="386" y="-84" font-family="Helvetica,sans-Serif" font-size="10.00">SSystem/SComponent</text>
<text text-anchor="middle" x="436" y="-73" font-family="Helvetica,sans-Serif" font-size="10.00">/c_tree.h</text>
</a>
</g>
</g>
<!-- Node14&#45;&gt;Node16 -->
<g id="edge19" class="edge">
<title>Node14&#45;&gt;Node16</title>
<path fill="none" stroke="#63b8ff" d="M427.39,-137.1C428.59,-129.41 430.39,-117.92 432.03,-107.42"/>
<polygon fill="#63b8ff" stroke="#63b8ff" points="435.46,-108.15 433.54,-97.73 428.54,-107.07 435.46,-108.15"/>
</g>
<!-- Node17&#45;&gt;Node8 -->
<g id="edge22" class="edge">
<title>Node17&#45;&gt;Node8</title>
<path fill="none" stroke="#63b8ff" d="M506.42,-307.55C509.6,-287.74 517.66,-238.73 526,-198 532.93,-164.16 542.31,-125.09 548,-102.02"/>
<polygon fill="#63b8ff" stroke="#63b8ff" points="551.36,-103.01 550.37,-92.46 544.57,-101.32 551.36,-103.01"/>
</g>
<!-- Node18&#45;&gt;Node8 -->
<g id="edge24" class="edge">
<title>Node18&#45;&gt;Node8</title>
<path fill="none" stroke="#63b8ff" d="M580.84,-197.55C576.04,-177.63 564.38,-129.24 557.78,-101.82"/>
<polygon fill="#63b8ff" stroke="#63b8ff" points="561.24,-101.25 555.49,-92.34 554.43,-102.89 561.24,-101.25"/>
</g>
</g>
</svg>
