<?xml version="1.0" encoding="UTF-8" standalone="no"?>
<!DOCTYPE svg PUBLIC "-//W3C//DTD SVG 1.1//EN"
 "http://www.w3.org/Graphics/SVG/1.1/DTD/svg11.dtd">
<!-- Generated by graphviz version 7.0.5 (20221223.1930)
 -->
<!-- Title: include/f_pc/f_pc_leaf.h Pages: 1 -->
<svg width="653pt" height="390pt"
 viewBox="0.00 0.00 653.00 390.00" xmlns="http://www.w3.org/2000/svg" xmlns:xlink="http://www.w3.org/1999/xlink">
<g id="graph0" class="graph" transform="scale(1 1) rotate(0) translate(4 386)">
<title>include/f_pc/f_pc_leaf.h</title>
<!-- Node1 -->
<g id="node1" class="node">
<title>Node1</title>
<g id="a_node1"><a xlink:title=" ">
<polygon fill="#999999" stroke="#666666" points="534,-382 415,-382 415,-363 534,-363 534,-382"/>
<text text-anchor="middle" x="474.5" y="-370" font-family="Helvetica,sans-Serif" font-size="10.00">include/f_pc/f_pc_leaf.h</text>
</a>
</g>
</g>
<!-- Node2 -->
<g id="node2" class="node">
<title>Node2</title>
<g id="a_node2"><a xlink:href="f__pc__base_8h.html" target="_top" xlink:title=" ">
<polygon fill="white" stroke="#666666" points="290,-327 199,-327 199,-308 290,-308 290,-327"/>
<text text-anchor="middle" x="244.5" y="-315" font-family="Helvetica,sans-Serif" font-size="10.00">f_pc/f_pc_base.h</text>
</a>
</g>
</g>
<!-- Node1&#45;&gt;Node2 -->
<g id="edge1" class="edge">
<title>Node1&#45;&gt;Node2</title>
<path fill="none" stroke="#63b8ff" d="M435.48,-362.51C396.62,-353.55 336.81,-339.77 294.49,-330.02"/>
<polygon fill="#63b8ff" stroke="#63b8ff" points="295.33,-326.62 284.8,-327.79 293.76,-333.44 295.33,-326.62"/>
</g>
<!-- Node12 -->
<g id="node12" class="node">
<title>Node12</title>
<g id="a_node12"><a xlink:href="f__pc__draw__priority_8h.html" target="_top" xlink:title=" ">
<polygon fill="white" stroke="#666666" points="492,-327 367,-327 367,-308 492,-308 492,-327"/>
<text text-anchor="middle" x="429.5" y="-315" font-family="Helvetica,sans-Serif" font-size="10.00">f_pc/f_pc_draw_priority.h</text>
</a>
</g>
</g>
<!-- Node1&#45;&gt;Node12 -->
<g id="edge14" class="edge">
<title>Node1&#45;&gt;Node12</title>
<path fill="none" stroke="#63b8ff" d="M467.07,-362.75C460.92,-355.5 451.99,-344.98 444.37,-336.02"/>
<polygon fill="#63b8ff" stroke="#63b8ff" points="447.21,-333.95 438.07,-328.6 441.88,-338.48 447.21,-333.95"/>
</g>
<!-- Node13 -->
<g id="node13" class="node">
<title>Node13</title>
<g id="a_node13"><a xlink:href="f__pc__method_8h.html" target="_top" xlink:title=" ">
<polygon fill="white" stroke="#666666" points="570.5,-156.5 468.5,-156.5 468.5,-137.5 570.5,-137.5 570.5,-156.5"/>
<text text-anchor="middle" x="519.5" y="-144.5" font-family="Helvetica,sans-Serif" font-size="10.00">f_pc/f_pc_method.h</text>
</a>
</g>
</g>
<!-- Node1&#45;&gt;Node13 -->
<g id="edge16" class="edge">
<title>Node1&#45;&gt;Node13</title>
<path fill="none" stroke="#63b8ff" d="M481.59,-362.55C487.98,-353.97 497.03,-340.37 501.5,-327 519.96,-271.83 521.08,-202.17 520.33,-168.32"/>
<polygon fill="#63b8ff" stroke="#63b8ff" points="523.83,-168.25 520.01,-158.37 516.83,-168.47 523.83,-168.25"/>
</g>
<!-- Node14 -->
<g id="node14" class="node">
<title>Node14</title>
<g id="a_node14"><a xlink:href="f__pc__profile_8h.html" target="_top" xlink:title=" ">
<polygon fill="white" stroke="#666666" points="645,-217 550,-217 550,-198 645,-198 645,-217"/>
<text text-anchor="middle" x="597.5" y="-205" font-family="Helvetica,sans-Serif" font-size="10.00">f_pc/f_pc_profile.h</text>
</a>
</g>
</g>
<!-- Node1&#45;&gt;Node14 -->
<g id="edge18" class="edge">
<title>Node1&#45;&gt;Node14</title>
<path fill="none" stroke="#63b8ff" d="M490.31,-362.51C503.39,-354.49 521.81,-341.74 534.5,-327 560.88,-296.34 580.45,-252.77 590.32,-227.9"/>
<polygon fill="#63b8ff" stroke="#63b8ff" points="593.52,-229.34 593.83,-218.75 586.98,-226.83 593.52,-229.34"/>
</g>
<!-- Node3 -->
<g id="node3" class="node">
<title>Node3</title>
<g id="a_node3"><a xlink:href="f__pc__delete__tag_8h.html" target="_top" xlink:title=" ">
<polygon fill="white" stroke="#666666" points="115,-217 0,-217 0,-198 115,-198 115,-217"/>
<text text-anchor="middle" x="57.5" y="-205" font-family="Helvetica,sans-Serif" font-size="10.00">f_pc/f_pc_delete_tag.h</text>
</a>
</g>
</g>
<!-- Node2&#45;&gt;Node3 -->
<g id="edge2" class="edge">
<title>Node2&#45;&gt;Node3</title>
<path fill="none" stroke="#63b8ff" d="M198.64,-312.16C148.53,-306.35 73.03,-294.13 55.5,-272 45.86,-259.83 47.43,-241.84 50.79,-228.12"/>
<polygon fill="#63b8ff" stroke="#63b8ff" points="54.05,-229.44 53.54,-218.86 47.34,-227.45 54.05,-229.44"/>
</g>
<!-- Node8 -->
<g id="node8" class="node">
<title>Node8</title>
<g id="a_node8"><a xlink:href="f__pc__layer__tag_8h.html" target="_top" xlink:title=" ">
<polygon fill="white" stroke="#666666" points="174,-272 65,-272 65,-253 174,-253 174,-272"/>
<text text-anchor="middle" x="119.5" y="-260" font-family="Helvetica,sans-Serif" font-size="10.00">f_pc/f_pc_layer_tag.h</text>
</a>
</g>
</g>
<!-- Node2&#45;&gt;Node8 -->
<g id="edge7" class="edge">
<title>Node2&#45;&gt;Node8</title>
<path fill="none" stroke="#63b8ff" d="M223.3,-307.51C203.42,-299.08 173.47,-286.38 150.84,-276.79"/>
<polygon fill="#63b8ff" stroke="#63b8ff" points="152.36,-273.63 141.78,-272.95 149.63,-280.07 152.36,-273.63"/>
</g>
<!-- Node9 -->
<g id="node9" class="node">
<title>Node9</title>
<g id="a_node9"><a xlink:href="f__pc__line__tag_8h.html" target="_top" xlink:title=" ">
<polygon fill="white" stroke="#666666" points="296.5,-272 192.5,-272 192.5,-253 296.5,-253 296.5,-272"/>
<text text-anchor="middle" x="244.5" y="-260" font-family="Helvetica,sans-Serif" font-size="10.00">f_pc/f_pc_line_tag.h</text>
</a>
</g>
</g>
<!-- Node2&#45;&gt;Node9 -->
<g id="edge9" class="edge">
<title>Node2&#45;&gt;Node9</title>
<path fill="none" stroke="#63b8ff" d="M244.5,-307.75C244.5,-301.27 244.5,-292.16 244.5,-283.9"/>
<polygon fill="#63b8ff" stroke="#63b8ff" points="248,-283.96 244.5,-273.96 241,-283.96 248,-283.96"/>
</g>
<!-- Node10 -->
<g id="node10" class="node">
<title>Node10</title>
<g id="a_node10"><a xlink:href="f__pc__priority_8h.html" target="_top" xlink:title=" ">
<polygon fill="white" stroke="#666666" points="412.5,-272 314.5,-272 314.5,-253 412.5,-253 412.5,-272"/>
<text text-anchor="middle" x="363.5" y="-260" font-family="Helvetica,sans-Serif" font-size="10.00">f_pc/f_pc_priority.h</text>
</a>
</g>
</g>
<!-- Node2&#45;&gt;Node10 -->
<g id="edge11" class="edge">
<title>Node2&#45;&gt;Node10</title>
<path fill="none" stroke="#63b8ff" d="M264.69,-307.51C283.52,-299.12 311.87,-286.5 333.37,-276.92"/>
<polygon fill="#63b8ff" stroke="#63b8ff" points="334.52,-280.24 342.23,-272.97 331.67,-273.85 334.52,-280.24"/>
</g>
<!-- Node4 -->
<g id="node4" class="node">
<title>Node4</title>
<g id="a_node4"><a xlink:href="c__tag_8h.html" target="_top" xlink:title=" ">
<polygon fill="white" stroke="#666666" points="302.5,-162 186.5,-162 186.5,-132 302.5,-132 302.5,-162"/>
<text text-anchor="start" x="194.5" y="-150" font-family="Helvetica,sans-Serif" font-size="10.00">SSystem/SComponent</text>
<text text-anchor="middle" x="244.5" y="-139" font-family="Helvetica,sans-Serif" font-size="10.00">/c_tag.h</text>
</a>
</g>
</g>
<!-- Node3&#45;&gt;Node4 -->
<g id="edge3" class="edge">
<title>Node3&#45;&gt;Node4</title>
<path fill="none" stroke="#63b8ff" d="M85.9,-197.62C112.82,-189.19 154.04,-176.3 187.7,-165.77"/>
<polygon fill="#63b8ff" stroke="#63b8ff" points="188.4,-169.22 196.9,-162.89 186.31,-162.54 188.4,-169.22"/>
</g>
<!-- Node5 -->
<g id="node5" class="node">
<title>Node5</title>
<g id="a_node5"><a xlink:href="c__node_8h.html" target="_top" xlink:title=" ">
<polygon fill="white" stroke="#666666" points="302.5,-96 186.5,-96 186.5,-66 302.5,-66 302.5,-96"/>
<text text-anchor="start" x="194.5" y="-84" font-family="Helvetica,sans-Serif" font-size="10.00">SSystem/SComponent</text>
<text text-anchor="middle" x="244.5" y="-73" font-family="Helvetica,sans-Serif" font-size="10.00">/c_node.h</text>
</a>
</g>
</g>
<!-- Node4&#45;&gt;Node5 -->
<g id="edge4" class="edge">
<title>Node4&#45;&gt;Node5</title>
<path fill="none" stroke="#63b8ff" d="M244.5,-131.8C244.5,-124.67 244.5,-115.82 244.5,-107.56"/>
<polygon fill="#63b8ff" stroke="#63b8ff" points="248,-107.68 244.5,-97.68 241,-107.68 248,-107.68"/>
</g>
<!-- Node6 -->
<g id="node6" class="node">
<title>Node6</title>
<g id="a_node6"><a xlink:href="types_8h.html" target="_top" xlink:title=" ">
<polygon fill="white" stroke="#666666" points="520,-90.5 439,-90.5 439,-71.5 520,-71.5 520,-90.5"/>
<text text-anchor="middle" x="479.5" y="-78.5" font-family="Helvetica,sans-Serif" font-size="10.00">dolphin/types.h</text>
</a>
</g>
</g>
<!-- Node4&#45;&gt;Node6 -->
<g id="edge5" class="edge">
<title>Node4&#45;&gt;Node6</title>
<path fill="none" stroke="#63b8ff" d="M297.53,-131.56C339.18,-120.22 396.47,-104.61 435.57,-93.96"/>
<polygon fill="#63b8ff" stroke="#63b8ff" points="436.4,-97.37 445.13,-91.36 434.56,-90.61 436.4,-97.37"/>
</g>
<!-- Node7 -->
<g id="node7" class="node">
<title>Node7</title>
<g id="a_node7"><a xlink:href="stddef_8h.html" target="_top" xlink:title=" ">
<polygon fill="white" stroke="#666666" points="547.5,-30 411.5,-30 411.5,0 547.5,0 547.5,-30"/>
<text text-anchor="start" x="419.5" y="-18" font-family="Helvetica,sans-Serif" font-size="10.00">MSL_C/MSL_Common/Src</text>
<text text-anchor="middle" x="479.5" y="-7" font-family="Helvetica,sans-Serif" font-size="10.00">/stddef.h</text>
</a>
</g>
</g>
<!-- Node6&#45;&gt;Node7 -->
<g id="edge6" class="edge">
<title>Node6&#45;&gt;Node7</title>
<path fill="none" stroke="#63b8ff" d="M479.5,-71.1C479.5,-63.41 479.5,-51.92 479.5,-41.42"/>
<polygon fill="#63b8ff" stroke="#63b8ff" points="483,-41.75 479.5,-31.75 476,-41.75 483,-41.75"/>
</g>
<!-- Node8&#45;&gt;Node4 -->
<g id="edge8" class="edge">
<title>Node8&#45;&gt;Node4</title>
<path fill="none" stroke="#63b8ff" d="M129.31,-252.59C148.73,-234.96 192.6,-195.13 220.24,-170.03"/>
<polygon fill="#63b8ff" stroke="#63b8ff" points="222.43,-172.77 227.48,-163.46 217.72,-167.59 222.43,-172.77"/>
</g>
<!-- Node9&#45;&gt;Node4 -->
<g id="edge10" class="edge">
<title>Node9&#45;&gt;Node4</title>
<path fill="none" stroke="#63b8ff" d="M244.5,-252.59C244.5,-235.8 244.5,-198.87 244.5,-173.71"/>
<polygon fill="#63b8ff" stroke="#63b8ff" points="248,-173.95 244.5,-163.95 241,-173.95 248,-173.95"/>
</g>
<!-- Node11 -->
<g id="node11" class="node">
<title>Node11</title>
<g id="a_node11"><a xlink:href="f__pc__method__tag_8h.html" target="_top" xlink:title=" ">
<polygon fill="white" stroke="#666666" points="403,-217 282,-217 282,-198 403,-198 403,-217"/>
<text text-anchor="middle" x="342.5" y="-205" font-family="Helvetica,sans-Serif" font-size="10.00">f_pc/f_pc_method_tag.h</text>
</a>
</g>
</g>
<!-- Node10&#45;&gt;Node11 -->
<g id="edge12" class="edge">
<title>Node10&#45;&gt;Node11</title>
<path fill="none" stroke="#63b8ff" d="M360.03,-252.75C357.37,-246.04 353.6,-236.52 350.24,-228.02"/>
<polygon fill="#63b8ff" stroke="#63b8ff" points="353.54,-226.86 346.6,-218.85 347.03,-229.44 353.54,-226.86"/>
</g>
<!-- Node11&#45;&gt;Node4 -->
<g id="edge13" class="edge">
<title>Node11&#45;&gt;Node4</title>
<path fill="none" stroke="#63b8ff" d="M327.62,-197.62C314.55,-189.81 295.05,-178.17 278.22,-168.13"/>
<polygon fill="#63b8ff" stroke="#63b8ff" points="280.37,-165.34 269.99,-163.22 276.78,-171.35 280.37,-165.34"/>
</g>
<!-- Node12&#45;&gt;Node6 -->
<g id="edge15" class="edge">
<title>Node12&#45;&gt;Node6</title>
<path fill="none" stroke="#63b8ff" d="M430.26,-307.52C432.68,-280.53 441.18,-197.98 459.5,-132 462.42,-121.49 466.83,-110.17 470.77,-100.96"/>
<polygon fill="#63b8ff" stroke="#63b8ff" points="473.88,-102.59 474.75,-92.03 467.48,-99.75 473.88,-102.59"/>
</g>
<!-- Node13&#45;&gt;Node6 -->
<g id="edge17" class="edge">
<title>Node13&#45;&gt;Node6</title>
<path fill="none" stroke="#63b8ff" d="M513.94,-137.1C508.03,-127.64 498.51,-112.42 490.98,-100.37"/>
<polygon fill="#63b8ff" stroke="#63b8ff" points="494.08,-98.73 485.82,-92.11 488.15,-102.44 494.08,-98.73"/>
</g>
<!-- Node14&#45;&gt;Node6 -->
<g id="edge19" class="edge">
<title>Node14&#45;&gt;Node6</title>
<path fill="none" stroke="#63b8ff" d="M597.66,-197.67C597.48,-182.58 595.08,-151.58 579.5,-132 565.53,-114.44 543.79,-102.55 524.14,-94.78"/>
<polygon fill="#63b8ff" stroke="#63b8ff" points="525.52,-91.56 514.92,-91.4 523.11,-98.13 525.52,-91.56"/>
</g>
</g>
</svg>
