<?xml version="1.0" encoding="UTF-8" standalone="no"?>
<!DOCTYPE svg PUBLIC "-//W3C//DTD SVG 1.1//EN"
 "http://www.w3.org/Graphics/SVG/1.1/DTD/svg11.dtd">
<!-- Generated by graphviz version 7.0.5 (20221223.1930)
 -->
<!-- Title: include/f_pc/f_pc_searcher.h Pages: 1 -->
<svg width="5966pt" height="170pt"
 viewBox="0.00 0.00 5965.50 170.00" xmlns="http://www.w3.org/2000/svg" xmlns:xlink="http://www.w3.org/1999/xlink">
<g id="graph0" class="graph" transform="scale(1 1) rotate(0) translate(4 166)">
<title>include/f_pc/f_pc_searcher.h</title>
<!-- Node1 -->
<g id="node1" class="node">
<title>Node1</title>
<g id="a_node1"><a xlink:title=" ">
<polygon fill="#999999" stroke="#666666" points="4605.5,-162 4464.5,-162 4464.5,-143 4605.5,-143 4605.5,-162"/>
<text text-anchor="middle" x="4535" y="-150" font-family="Helvetica,sans-Serif" font-size="10.00">include/f_pc/f_pc_searcher.h</text>
</a>
</g>
</g>
<!-- Node2 -->
<g id="node2" class="node">
<title>Node2</title>
<g id="a_node2"><a xlink:href="f__op__actor__mng_8h.html" target="_top" xlink:title=" ">
<polygon fill="#fff0f0" stroke="red" points="3006,-107 2888,-107 2888,-77 3006,-77 3006,-107"/>
<text text-anchor="start" x="2896" y="-95" font-family="Helvetica,sans-Serif" font-size="10.00">include/f_op/f_op_actor</text>
<text text-anchor="middle" x="2947" y="-84" font-family="Helvetica,sans-Serif" font-size="10.00">_mng.h</text>
</a>
</g>
</g>
<!-- Node1&#45;&gt;Node2 -->
<g id="edge1" class="edge">
<title>Node1&#45;&gt;Node2</title>
<path fill="none" stroke="#63b8ff" d="M4452.87,-148.47C4171.44,-138.11 3249.95,-104.16 3006.45,-95.19"/>
<polygon fill="#63b8ff" stroke="#63b8ff" points="4452.57,-151.97 4462.69,-148.84 4452.82,-144.97 4452.57,-151.97"/>
</g>
<!-- Node211 -->
<g id="node47" class="node">
<title>Node211</title>
<g id="a_node47"><a xlink:href="d__cc__d__nonmatching_8cpp.html" target="_top" xlink:title=" ">
<polygon fill="white" stroke="#666666" points="5957.5,-30 5792.5,-30 5792.5,-11 5957.5,-11 5957.5,-30"/>
<text text-anchor="middle" x="5875" y="-18" font-family="Helvetica,sans-Serif" font-size="10.00">src/d/cc/d_cc_d_nonmatching.cpp</text>
</a>
</g>
</g>
<!-- Node1&#45;&gt;Node211 -->
<g id="edge47" class="edge">
<title>Node1&#45;&gt;Node211</title>
<path fill="none" stroke="#63b8ff" d="M4504.18,-136.94C4492.51,-129.71 4480.48,-119.74 4474,-107 4467.96,-95.11 4464.7,-86.56 4474,-77 4524.73,-24.86 5710.76,-49.58 5783,-41 5802.13,-38.73 5823.17,-34.41 5840.3,-30.41"/>
<polygon fill="#63b8ff" stroke="#63b8ff" points="4502.45,-139.99 4512.88,-141.86 4505.9,-133.89 4502.45,-139.99"/>
</g>
<!-- Node230 -->
<g id="node48" class="node">
<title>Node230</title>
<g id="a_node48"><a xlink:href="f__op__scene__mng_8cpp.html" target="_top" xlink:title=" ">
<polygon fill="white" stroke="#666666" points="4587.5,-107 4482.5,-107 4482.5,-77 4587.5,-77 4587.5,-107"/>
<text text-anchor="start" x="4490.5" y="-95" font-family="Helvetica,sans-Serif" font-size="10.00">src/f_op/f_op_scene</text>
<text text-anchor="middle" x="4535" y="-84" font-family="Helvetica,sans-Serif" font-size="10.00">_mng.cpp</text>
</a>
</g>
</g>
<!-- Node1&#45;&gt;Node230 -->
<g id="edge48" class="edge">
<title>Node1&#45;&gt;Node230</title>
<path fill="none" stroke="#63b8ff" d="M4535,-131.51C4535,-123.49 4535,-114.43 4535,-107.11"/>
<polygon fill="#63b8ff" stroke="#63b8ff" points="4531.5,-131.35 4535,-141.35 4538.5,-131.35 4531.5,-131.35"/>
</g>
<!-- Node231 -->
<g id="node49" class="node">
<title>Node231</title>
<g id="a_node49"><a xlink:href="f__pc__executor_8cpp.html" target="_top" xlink:title=" ">
<polygon fill="white" stroke="#666666" points="4740,-101.5 4606,-101.5 4606,-82.5 4740,-82.5 4740,-101.5"/>
<text text-anchor="middle" x="4673" y="-89.5" font-family="Helvetica,sans-Serif" font-size="10.00">src/f_pc/f_pc_executor.cpp</text>
</a>
</g>
</g>
<!-- Node1&#45;&gt;Node231 -->
<g id="edge49" class="edge">
<title>Node1&#45;&gt;Node231</title>
<path fill="none" stroke="#63b8ff" d="M4566.46,-138.16C4592.6,-127.08 4629.07,-111.62 4651.84,-101.97"/>
<polygon fill="#63b8ff" stroke="#63b8ff" points="4565.19,-134.9 4557.35,-142.02 4567.93,-141.34 4565.19,-134.9"/>
</g>
<!-- Node232 -->
<g id="node50" class="node">
<title>Node232</title>
<g id="a_node50"><a xlink:href="f__pc__searcher_8cpp.html" target="_top" xlink:title=" ">
<polygon fill="white" stroke="#666666" points="4892,-101.5 4758,-101.5 4758,-82.5 4892,-82.5 4892,-101.5"/>
<text text-anchor="middle" x="4825" y="-89.5" font-family="Helvetica,sans-Serif" font-size="10.00">src/f_pc/f_pc_searcher.cpp</text>
</a>
</g>
</g>
<!-- Node1&#45;&gt;Node232 -->
<g id="edge50" class="edge">
<title>Node1&#45;&gt;Node232</title>
<path fill="none" stroke="#63b8ff" d="M4590.36,-140.33C4645.66,-129.18 4729.58,-112.25 4780.64,-101.95"/>
<polygon fill="#63b8ff" stroke="#63b8ff" points="4589.95,-136.84 4580.84,-142.25 4591.34,-143.71 4589.95,-136.84"/>
</g>
<!-- Node3 -->
<g id="node3" class="node">
<title>Node3</title>
<g id="a_node3"><a xlink:href="d__a__alink_8h.html" target="_top" xlink:title=" ">
<polygon fill="#fff0f0" stroke="red" points="116,-30 0,-30 0,-11 116,-11 116,-30"/>
<text text-anchor="middle" x="58" y="-18" font-family="Helvetica,sans-Serif" font-size="10.00">include/d/a/d_a_alink.h</text>
</a>
</g>
</g>
<!-- Node2&#45;&gt;Node3 -->
<g id="edge2" class="edge">
<title>Node2&#45;&gt;Node3</title>
<path fill="none" stroke="#63b8ff" d="M2876.41,-90.87C2466.81,-89.96 404.07,-83.31 125,-41 110.75,-38.84 95.27,-34.47 82.78,-30.42"/>
<polygon fill="#63b8ff" stroke="#63b8ff" points="2876.24,-94.37 2886.25,-90.89 2876.25,-87.37 2876.24,-94.37"/>
</g>
<!-- Node14 -->
<g id="node4" class="node">
<title>Node14</title>
<g id="a_node4"><a xlink:href="d__a__obj__item_8h.html" target="_top" xlink:title=" ">
<polygon fill="#fff0f0" stroke="red" points="235.5,-35.5 134.5,-35.5 134.5,-5.5 235.5,-5.5 235.5,-35.5"/>
<text text-anchor="start" x="142.5" y="-23.5" font-family="Helvetica,sans-Serif" font-size="10.00">include/d/a/d_a_obj</text>
<text text-anchor="middle" x="185" y="-12.5" font-family="Helvetica,sans-Serif" font-size="10.00">_item.h</text>
</a>
</g>
</g>
<!-- Node2&#45;&gt;Node14 -->
<g id="edge3" class="edge">
<title>Node2&#45;&gt;Node14</title>
<path fill="none" stroke="#63b8ff" d="M2876.19,-90.96C2476.39,-90.56 509.8,-86.31 244,-41 237.19,-39.84 230.1,-38.04 223.3,-36"/>
<polygon fill="#63b8ff" stroke="#63b8ff" points="2876.04,-94.46 2886.05,-90.97 2876.05,-87.46 2876.04,-94.46"/>
</g>
<!-- Node16 -->
<g id="node5" class="node">
<title>Node16</title>
<g id="a_node5"><a xlink:href="d__bomb_8h.html" target="_top" xlink:title=" ">
<polygon fill="#fff0f0" stroke="red" points="354.5,-30 253.5,-30 253.5,-11 354.5,-11 354.5,-30"/>
<text text-anchor="middle" x="304" y="-18" font-family="Helvetica,sans-Serif" font-size="10.00">include/d/d_bomb.h</text>
</a>
</g>
</g>
<!-- Node2&#45;&gt;Node16 -->
<g id="edge4" class="edge">
<title>Node2&#45;&gt;Node16</title>
<path fill="none" stroke="#63b8ff" d="M2876.22,-90.89C2487.07,-90.15 616.41,-84.31 363,-41 350.35,-38.84 336.71,-34.47 325.73,-30.42"/>
<polygon fill="#63b8ff" stroke="#63b8ff" points="2876.04,-94.39 2886.05,-90.91 2876.06,-87.39 2876.04,-94.39"/>
</g>
<!-- Node19 -->
<g id="node6" class="node">
<title>Node19</title>
<g id="a_node6"><a xlink:href="d__a__b__dr_8h.html" target="_top" xlink:title=" ">
<polygon fill="white" stroke="#666666" points="473.5,-35.5 372.5,-35.5 372.5,-5.5 473.5,-5.5 473.5,-35.5"/>
<text text-anchor="start" x="380.5" y="-23.5" font-family="Helvetica,sans-Serif" font-size="10.00">include/rel/d/a/b/d</text>
<text text-anchor="middle" x="423" y="-12.5" font-family="Helvetica,sans-Serif" font-size="10.00">_a_b_dr/d_a_b_dr.h</text>
</a>
</g>
</g>
<!-- Node2&#45;&gt;Node19 -->
<g id="edge5" class="edge">
<title>Node2&#45;&gt;Node19</title>
<path fill="none" stroke="#63b8ff" d="M2876.5,-90.8C2498.92,-89.58 724.08,-81.7 483,-41 476.09,-39.83 468.88,-38.03 461.96,-35.98"/>
<polygon fill="#63b8ff" stroke="#63b8ff" points="2876.25,-94.3 2886.27,-90.83 2876.28,-87.3 2876.25,-94.3"/>
</g>
<!-- Node20 -->
<g id="node7" class="node">
<title>Node20</title>
<g id="a_node7"><a xlink:href="d__a__b__gnd_8h.html" target="_top" xlink:title=" ">
<polygon fill="white" stroke="#666666" points="608,-35.5 492,-35.5 492,-5.5 608,-5.5 608,-35.5"/>
<text text-anchor="start" x="500" y="-23.5" font-family="Helvetica,sans-Serif" font-size="10.00">include/rel/d/a/b/d</text>
<text text-anchor="middle" x="550" y="-12.5" font-family="Helvetica,sans-Serif" font-size="10.00">_a_b_gnd/d_a_b_gnd.h</text>
</a>
</g>
</g>
<!-- Node2&#45;&gt;Node20 -->
<g id="edge6" class="edge">
<title>Node2&#45;&gt;Node20</title>
<path fill="none" stroke="#63b8ff" d="M2876.29,-90.58C2510.88,-88.29 844.67,-75.95 617,-41 609.34,-39.82 601.32,-38.02 593.6,-35.97"/>
<polygon fill="#63b8ff" stroke="#63b8ff" points="2876.2,-94.08 2886.22,-90.65 2876.24,-87.08 2876.2,-94.08"/>
</g>
<!-- Node21 -->
<g id="node8" class="node">
<title>Node21</title>
<g id="a_node8"><a xlink:href="d__a__b__zant__sima_8h.html" target="_top" xlink:title=" ">
<polygon fill="white" stroke="#666666" points="742,-41 626,-41 626,0 742,0 742,-41"/>
<text text-anchor="start" x="634" y="-29" font-family="Helvetica,sans-Serif" font-size="10.00">include/rel/d/a/b/d</text>
<text text-anchor="start" x="634" y="-18" font-family="Helvetica,sans-Serif" font-size="10.00">_a_b_zant_sima/d_a_b</text>
<text text-anchor="middle" x="684" y="-7" font-family="Helvetica,sans-Serif" font-size="10.00">_zant_sima.h</text>
</a>
</g>
</g>
<!-- Node2&#45;&gt;Node21 -->
<g id="edge7" class="edge">
<title>Node2&#45;&gt;Node21</title>
<path fill="none" stroke="#63b8ff" d="M2876.4,-90.48C2524.11,-87.77 964.75,-73.96 751,-41 748.13,-40.56 745.2,-40.03 742.26,-39.43"/>
<polygon fill="#63b8ff" stroke="#63b8ff" points="2876.15,-93.98 2886.18,-90.56 2876.21,-86.98 2876.15,-93.98"/>
</g>
<!-- Node22 -->
<g id="node9" class="node">
<title>Node22</title>
<g id="a_node9"><a xlink:href="d__a__andsw_8h.html" target="_top" xlink:title=" ">
<polygon fill="white" stroke="#666666" points="870,-35.5 760,-35.5 760,-5.5 870,-5.5 870,-35.5"/>
<text text-anchor="start" x="768" y="-23.5" font-family="Helvetica,sans-Serif" font-size="10.00">include/rel/d/a/d_a</text>
<text text-anchor="middle" x="815" y="-12.5" font-family="Helvetica,sans-Serif" font-size="10.00">_andsw/d_a_andsw.h</text>
</a>
</g>
</g>
<!-- Node2&#45;&gt;Node22 -->
<g id="edge8" class="edge">
<title>Node2&#45;&gt;Node22</title>
<path fill="none" stroke="#63b8ff" d="M2876.16,-90.43C2536.09,-87.53 1079.21,-73.3 879,-41 871.66,-39.82 863.99,-38.01 856.62,-35.95"/>
<polygon fill="#63b8ff" stroke="#63b8ff" points="2876,-93.93 2886.03,-90.51 2876.06,-86.93 2876,-93.93"/>
</g>
<!-- Node23 -->
<g id="node10" class="node">
<title>Node23</title>
<g id="a_node10"><a xlink:href="d__a__andsw2_8h.html" target="_top" xlink:title=" ">
<polygon fill="white" stroke="#666666" points="1009.5,-35.5 888.5,-35.5 888.5,-5.5 1009.5,-5.5 1009.5,-35.5"/>
<text text-anchor="start" x="896.5" y="-23.5" font-family="Helvetica,sans-Serif" font-size="10.00">include/rel/d/a/d_a</text>
<text text-anchor="middle" x="949" y="-12.5" font-family="Helvetica,sans-Serif" font-size="10.00">_andsw2/d_a_andsw2.h</text>
</a>
</g>
</g>
<!-- Node2&#45;&gt;Node23 -->
<g id="edge9" class="edge">
<title>Node2&#45;&gt;Node23</title>
<path fill="none" stroke="#63b8ff" d="M2876.47,-90.21C2551.24,-86.45 1204.17,-69.26 1018,-41 1010.12,-39.8 1001.87,-37.99 993.93,-35.94"/>
<polygon fill="#63b8ff" stroke="#63b8ff" points="2876.05,-93.71 2886.09,-90.32 2876.13,-86.71 2876.05,-93.71"/>
</g>
<!-- Node24 -->
<g id="node11" class="node">
<title>Node24</title>
<g id="a_node11"><a xlink:href="d__a__arrow_8h.html" target="_top" xlink:title=" ">
<polygon fill="white" stroke="#666666" points="1128.5,-35.5 1027.5,-35.5 1027.5,-5.5 1128.5,-5.5 1128.5,-35.5"/>
<text text-anchor="start" x="1035.5" y="-23.5" font-family="Helvetica,sans-Serif" font-size="10.00">include/rel/d/a/d_a</text>
<text text-anchor="middle" x="1078" y="-12.5" font-family="Helvetica,sans-Serif" font-size="10.00">_arrow/d_a_arrow.h</text>
</a>
</g>
</g>
<!-- Node2&#45;&gt;Node24 -->
<g id="edge10" class="edge">
<title>Node2&#45;&gt;Node24</title>
<path fill="none" stroke="#63b8ff" d="M2876.81,-90.25C2564.78,-86.74 1311.27,-70.91 1138,-41 1131.09,-39.81 1123.89,-37.99 1116.97,-35.94"/>
<polygon fill="#63b8ff" stroke="#63b8ff" points="2876.39,-93.74 2886.43,-90.36 2876.47,-86.74 2876.39,-93.74"/>
</g>
<!-- Node25 -->
<g id="node12" class="node">
<title>Node25</title>
<g id="a_node12"><a xlink:href="d__a__bg__obj_8h.html" target="_top" xlink:title=" ">
<polygon fill="white" stroke="#666666" points="1257,-35.5 1147,-35.5 1147,-5.5 1257,-5.5 1257,-35.5"/>
<text text-anchor="start" x="1155" y="-23.5" font-family="Helvetica,sans-Serif" font-size="10.00">include/rel/d/a/d_a</text>
<text text-anchor="middle" x="1202" y="-12.5" font-family="Helvetica,sans-Serif" font-size="10.00">_bg_obj/d_a_bg_obj.h</text>
</a>
</g>
</g>
<!-- Node2&#45;&gt;Node25 -->
<g id="edge11" class="edge">
<title>Node2&#45;&gt;Node25</title>
<path fill="none" stroke="#63b8ff" d="M2876.23,-91.4C2598.55,-92.56 1583.23,-93.09 1266,-41 1258.66,-39.8 1251,-37.97 1243.62,-35.92"/>
<polygon fill="#63b8ff" stroke="#63b8ff" points="2876.23,-94.9 2886.22,-91.35 2876.2,-87.9 2876.23,-94.9"/>
</g>
<!-- Node26 -->
<g id="node13" class="node">
<title>Node26</title>
<g id="a_node13"><a xlink:href="d__a__boomerang_8h.html" target="_top" xlink:title=" ">
<polygon fill="#fff0f0" stroke="red" points="1424.5,-35.5 1275.5,-35.5 1275.5,-5.5 1424.5,-5.5 1424.5,-35.5"/>
<text text-anchor="start" x="1283.5" y="-23.5" font-family="Helvetica,sans-Serif" font-size="10.00">include/rel/d/a/d_a</text>
<text text-anchor="middle" x="1350" y="-12.5" font-family="Helvetica,sans-Serif" font-size="10.00">_boomerang/d_a_boomerang.h</text>
</a>
</g>
</g>
<!-- Node2&#45;&gt;Node26 -->
<g id="edge12" class="edge">
<title>Node2&#45;&gt;Node26</title>
<path fill="none" stroke="#63b8ff" d="M2876.19,-90.49C2616.7,-88.34 1718.22,-78.32 1434,-41 1424.65,-39.77 1414.81,-37.97 1405.3,-35.94"/>
<polygon fill="#63b8ff" stroke="#63b8ff" points="2876.15,-93.99 2886.18,-90.57 2876.21,-86.99 2876.15,-93.99"/>
</g>
<!-- Node27 -->
<g id="node14" class="node">
<title>Node27</title>
<g id="a_node14"><a xlink:href="d__a__canoe_8h.html" target="_top" xlink:title=" ">
<polygon fill="white" stroke="#666666" points="1549,-35.5 1443,-35.5 1443,-5.5 1549,-5.5 1549,-35.5"/>
<text text-anchor="start" x="1451" y="-23.5" font-family="Helvetica,sans-Serif" font-size="10.00">include/rel/d/a/d_a</text>
<text text-anchor="middle" x="1496" y="-12.5" font-family="Helvetica,sans-Serif" font-size="10.00">_canoe/d_a_canoe.h</text>
</a>
</g>
</g>
<!-- Node2&#45;&gt;Node27 -->
<g id="edge13" class="edge">
<title>Node2&#45;&gt;Node27</title>
<path fill="none" stroke="#63b8ff" d="M2876.6,-90.96C2631.34,-90.43 1815.5,-85.3 1558,-41 1550.99,-39.79 1543.68,-38 1536.64,-35.98"/>
<polygon fill="#63b8ff" stroke="#63b8ff" points="2876.32,-94.46 2886.33,-90.98 2876.33,-87.46 2876.32,-94.46"/>
</g>
<!-- Node28 -->
<g id="node15" class="node">
<title>Node28</title>
<g id="a_node15"><a xlink:href="d__a__cow_8h.html" target="_top" xlink:title=" ">
<polygon fill="white" stroke="#666666" points="1663,-35.5 1567,-35.5 1567,-5.5 1663,-5.5 1663,-35.5"/>
<text text-anchor="start" x="1575" y="-23.5" font-family="Helvetica,sans-Serif" font-size="10.00">include/rel/d/a/d_a</text>
<text text-anchor="middle" x="1615" y="-12.5" font-family="Helvetica,sans-Serif" font-size="10.00">_cow/d_a_cow.h</text>
</a>
</g>
</g>
<!-- Node2&#45;&gt;Node28 -->
<g id="edge14" class="edge">
<title>Node2&#45;&gt;Node28</title>
<path fill="none" stroke="#63b8ff" d="M2876.17,-90.92C2643.72,-90.23 1905.69,-84.59 1672,-41 1665.52,-39.79 1658.78,-38 1652.3,-35.98"/>
<polygon fill="#63b8ff" stroke="#63b8ff" points="2875.98,-94.42 2885.99,-90.95 2876,-87.42 2875.98,-94.42"/>
</g>
<!-- Node29 -->
<g id="node16" class="node">
<title>Node29</title>
<g id="a_node16"><a xlink:href="d__a__crod_8h.html" target="_top" xlink:title=" ">
<polygon fill="#fff0f0" stroke="red" points="1777,-35.5 1681,-35.5 1681,-5.5 1777,-5.5 1777,-35.5"/>
<text text-anchor="start" x="1689" y="-23.5" font-family="Helvetica,sans-Serif" font-size="10.00">include/rel/d/a/d_a</text>
<text text-anchor="middle" x="1729" y="-12.5" font-family="Helvetica,sans-Serif" font-size="10.00">_crod/d_a_crod.h</text>
</a>
</g>
</g>
<!-- Node2&#45;&gt;Node29 -->
<g id="edge15" class="edge">
<title>Node2&#45;&gt;Node29</title>
<path fill="none" stroke="#63b8ff" d="M2876.29,-90.6C2658,-88.95 1996.72,-80.72 1786,-41 1779.52,-39.78 1772.78,-37.98 1766.3,-35.96"/>
<polygon fill="#63b8ff" stroke="#63b8ff" points="2876.04,-94.1 2886.07,-90.67 2876.09,-87.1 2876.04,-94.1"/>
</g>
<!-- Node30 -->
<g id="node17" class="node">
<title>Node30</title>
<g id="a_node17"><a xlink:href="d__a__disappear_8h.html" target="_top" xlink:title=" ">
<polygon fill="white" stroke="#666666" points="1932.5,-35.5 1795.5,-35.5 1795.5,-5.5 1932.5,-5.5 1932.5,-35.5"/>
<text text-anchor="start" x="1803.5" y="-23.5" font-family="Helvetica,sans-Serif" font-size="10.00">include/rel/d/a/d_a</text>
<text text-anchor="middle" x="1864" y="-12.5" font-family="Helvetica,sans-Serif" font-size="10.00">_disappear/d_a_disappear.h</text>
</a>
</g>
</g>
<!-- Node2&#45;&gt;Node30 -->
<g id="edge16" class="edge">
<title>Node2&#45;&gt;Node30</title>
<path fill="none" stroke="#63b8ff" d="M2876.31,-89.28C2678.61,-84.18 2122.65,-67.81 1942,-41 1933.44,-39.73 1924.45,-37.93 1915.74,-35.93"/>
<polygon fill="#63b8ff" stroke="#63b8ff" points="2876.1,-92.77 2886.18,-89.53 2876.28,-85.78 2876.1,-92.77"/>
</g>
<!-- Node31 -->
<g id="node18" class="node">
<title>Node31</title>
<g id="a_node18"><a xlink:href="d__a__dshutter_8h.html" target="_top" xlink:title=" ">
<polygon fill="#fff0f0" stroke="red" points="2075,-35.5 1951,-35.5 1951,-5.5 2075,-5.5 2075,-35.5"/>
<text text-anchor="start" x="1959" y="-23.5" font-family="Helvetica,sans-Serif" font-size="10.00">include/rel/d/a/d_a</text>
<text text-anchor="middle" x="2013" y="-12.5" font-family="Helvetica,sans-Serif" font-size="10.00">_dshutter/d_a_dshutter.h</text>
</a>
</g>
</g>
<!-- Node2&#45;&gt;Node31 -->
<g id="edge17" class="edge">
<title>Node2&#45;&gt;Node31</title>
<path fill="none" stroke="#63b8ff" d="M2876.53,-91.9C2728.62,-92.71 2375.36,-88.9 2084,-41 2076.18,-39.71 2067.98,-37.91 2060.05,-35.91"/>
<polygon fill="#63b8ff" stroke="#63b8ff" points="2876.18,-95.41 2886.16,-91.84 2876.14,-88.41 2876.18,-95.41"/>
</g>
<!-- Node33 -->
<g id="node19" class="node">
<title>Node33</title>
<g id="a_node19"><a xlink:href="d__a__econt_8h.html" target="_top" xlink:title=" ">
<polygon fill="white" stroke="#666666" points="2194.5,-35.5 2093.5,-35.5 2093.5,-5.5 2194.5,-5.5 2194.5,-35.5"/>
<text text-anchor="start" x="2101.5" y="-23.5" font-family="Helvetica,sans-Serif" font-size="10.00">include/rel/d/a/d_a</text>
<text text-anchor="middle" x="2144" y="-12.5" font-family="Helvetica,sans-Serif" font-size="10.00">_econt/d_a_econt.h</text>
</a>
</g>
</g>
<!-- Node2&#45;&gt;Node33 -->
<g id="edge18" class="edge">
<title>Node2&#45;&gt;Node33</title>
<path fill="none" stroke="#63b8ff" d="M2876.53,-88.53C2716.71,-82.56 2330.72,-65.98 2203,-41 2196.44,-39.72 2189.59,-37.91 2182.99,-35.91"/>
<polygon fill="#63b8ff" stroke="#63b8ff" points="2876.01,-92.01 2886.13,-88.89 2876.27,-85.02 2876.01,-92.01"/>
</g>
<!-- Node34 -->
<g id="node20" class="node">
<title>Node34</title>
<g id="a_node20"><a xlink:href="d__a__grass_8h.html" target="_top" xlink:title=" ">
<polygon fill="#fff0f0" stroke="red" points="2313.5,-35.5 2212.5,-35.5 2212.5,-5.5 2313.5,-5.5 2313.5,-35.5"/>
<text text-anchor="start" x="2220.5" y="-23.5" font-family="Helvetica,sans-Serif" font-size="10.00">include/rel/d/a/d_a</text>
<text text-anchor="middle" x="2263" y="-12.5" font-family="Helvetica,sans-Serif" font-size="10.00">_grass/d_a_grass.h</text>
</a>
</g>
</g>
<!-- Node2&#45;&gt;Node34 -->
<g id="edge19" class="edge">
<title>Node2&#45;&gt;Node34</title>
<path fill="none" stroke="#63b8ff" d="M2876.66,-90.7C2760.33,-89.03 2521.03,-80.54 2323,-41 2316.45,-39.69 2309.61,-37.9 2303,-35.93"/>
<polygon fill="#63b8ff" stroke="#63b8ff" points="2876.31,-94.2 2886.35,-90.83 2876.4,-87.2 2876.31,-94.2"/>
</g>
<!-- Node35 -->
<g id="node21" class="node">
<title>Node35</title>
<g id="a_node21"><a xlink:href="d__a__hitobj_8h.html" target="_top" xlink:title=" ">
<polygon fill="white" stroke="#666666" points="2432,-35.5 2332,-35.5 2332,-5.5 2432,-5.5 2432,-35.5"/>
<text text-anchor="start" x="2340" y="-23.5" font-family="Helvetica,sans-Serif" font-size="10.00">include/rel/d/a/d_a</text>
<text text-anchor="middle" x="2382" y="-12.5" font-family="Helvetica,sans-Serif" font-size="10.00">_hitobj/d_a_hitobj.h</text>
</a>
</g>
</g>
<!-- Node2&#45;&gt;Node35 -->
<g id="edge20" class="edge">
<title>Node2&#45;&gt;Node35</title>
<path fill="none" stroke="#63b8ff" d="M2876.24,-88.93C2777.71,-84.93 2594.05,-73.44 2441,-41 2434.67,-39.66 2428.06,-37.87 2421.66,-35.93"/>
<polygon fill="#63b8ff" stroke="#63b8ff" points="2875.89,-92.41 2886.02,-89.31 2876.16,-85.42 2875.89,-92.41"/>
</g>
<!-- Node36 -->
<g id="node22" class="node">
<title>Node36</title>
<g id="a_node22"><a xlink:href="d__a__hozelda_8h.html" target="_top" xlink:title=" ">
<polygon fill="white" stroke="#666666" points="2569.5,-35.5 2450.5,-35.5 2450.5,-5.5 2569.5,-5.5 2569.5,-35.5"/>
<text text-anchor="start" x="2458.5" y="-23.5" font-family="Helvetica,sans-Serif" font-size="10.00">include/rel/d/a/d_a</text>
<text text-anchor="middle" x="2510" y="-12.5" font-family="Helvetica,sans-Serif" font-size="10.00">_hozelda/d_a_hozelda.h</text>
</a>
</g>
</g>
<!-- Node2&#45;&gt;Node36 -->
<g id="edge21" class="edge">
<title>Node2&#45;&gt;Node36</title>
<path fill="none" stroke="#63b8ff" d="M2876.64,-84.52C2802,-76.94 2680.91,-62.61 2578,-41 2571.15,-39.56 2563.98,-37.8 2556.97,-35.92"/>
<polygon fill="#63b8ff" stroke="#63b8ff" points="2875.95,-87.97 2886.25,-85.49 2876.65,-81.01 2875.95,-87.97"/>
</g>
<!-- Node37 -->
<g id="node23" class="node">
<title>Node37</title>
<g id="a_node23"><a xlink:href="d__a__izumi__gate_8h.html" target="_top" xlink:title=" ">
<polygon fill="white" stroke="#666666" points="2702.5,-41 2587.5,-41 2587.5,0 2702.5,0 2702.5,-41"/>
<text text-anchor="start" x="2595.5" y="-29" font-family="Helvetica,sans-Serif" font-size="10.00">include/rel/d/a/d_a</text>
<text text-anchor="start" x="2595.5" y="-18" font-family="Helvetica,sans-Serif" font-size="10.00">_izumi_gate/d_a_izumi</text>
<text text-anchor="middle" x="2645" y="-7" font-family="Helvetica,sans-Serif" font-size="10.00">_gate.h</text>
</a>
</g>
</g>
<!-- Node2&#45;&gt;Node37 -->
<g id="edge22" class="edge">
<title>Node2&#45;&gt;Node37</title>
<path fill="none" stroke="#63b8ff" d="M2876.56,-77.42C2829.72,-68.05 2766.93,-54.82 2712,-41 2708.95,-40.23 2705.82,-39.42 2702.67,-38.58"/>
<polygon fill="#63b8ff" stroke="#63b8ff" points="2875.84,-80.85 2886.33,-79.37 2877.2,-73.98 2875.84,-80.85"/>
</g>
<!-- Node38 -->
<g id="node24" class="node">
<title>Node38</title>
<g id="a_node24"><a xlink:href="d__a__kago_8h.html" target="_top" xlink:title=" ">
<polygon fill="white" stroke="#666666" points="2817,-35.5 2721,-35.5 2721,-5.5 2817,-5.5 2817,-35.5"/>
<text text-anchor="start" x="2729" y="-23.5" font-family="Helvetica,sans-Serif" font-size="10.00">include/rel/d/a/d_a</text>
<text text-anchor="middle" x="2769" y="-12.5" font-family="Helvetica,sans-Serif" font-size="10.00">_kago/d_a_kago.h</text>
</a>
</g>
</g>
<!-- Node2&#45;&gt;Node38 -->
<g id="edge23" class="edge">
<title>Node2&#45;&gt;Node38</title>
<path fill="none" stroke="#63b8ff" d="M2899.67,-72.52C2870.27,-61.04 2833.03,-46.5 2805.83,-35.88"/>
<polygon fill="#63b8ff" stroke="#63b8ff" points="2898.12,-75.67 2908.71,-76.05 2900.67,-69.15 2898.12,-75.67"/>
</g>
<!-- Node39 -->
<g id="node25" class="node">
<title>Node39</title>
<g id="a_node25"><a xlink:href="d__a__mirror_8h.html" target="_top" xlink:title=" ">
<polygon fill="#fff0f0" stroke="red" points="2938.5,-35.5 2835.5,-35.5 2835.5,-5.5 2938.5,-5.5 2938.5,-35.5"/>
<text text-anchor="start" x="2843.5" y="-23.5" font-family="Helvetica,sans-Serif" font-size="10.00">include/rel/d/a/d_a</text>
<text text-anchor="middle" x="2887" y="-12.5" font-family="Helvetica,sans-Serif" font-size="10.00">_mirror/d_a_mirror.h</text>
</a>
</g>
</g>
<!-- Node2&#45;&gt;Node39 -->
<g id="edge24" class="edge">
<title>Node2&#45;&gt;Node39</title>
<path fill="none" stroke="#63b8ff" d="M2927.29,-68.17C2918.1,-57.53 2907.46,-45.2 2899.42,-35.88"/>
<polygon fill="#63b8ff" stroke="#63b8ff" points="2924.39,-70.17 2933.58,-75.45 2929.69,-65.6 2924.39,-70.17"/>
</g>
<!-- Node40 -->
<g id="node26" class="node">
<title>Node40</title>
<g id="a_node26"><a xlink:href="d__a__myna_8h.html" target="_top" xlink:title=" ">
<polygon fill="white" stroke="#666666" points="3057,-35.5 2957,-35.5 2957,-5.5 3057,-5.5 3057,-35.5"/>
<text text-anchor="start" x="2965" y="-23.5" font-family="Helvetica,sans-Serif" font-size="10.00">include/rel/d/a/d_a</text>
<text text-anchor="middle" x="3007" y="-12.5" font-family="Helvetica,sans-Serif" font-size="10.00">_myna/d_a_myna.h</text>
</a>
</g>
</g>
<!-- Node2&#45;&gt;Node40 -->
<g id="edge25" class="edge">
<title>Node2&#45;&gt;Node40</title>
<path fill="none" stroke="#63b8ff" d="M2966.71,-68.17C2975.9,-57.53 2986.54,-45.2 2994.58,-35.88"/>
<polygon fill="#63b8ff" stroke="#63b8ff" points="2964.31,-65.6 2960.42,-75.45 2969.61,-70.17 2964.31,-65.6"/>
</g>
<!-- Node41 -->
<g id="node27" class="node">
<title>Node41</title>
<g id="a_node27"><a xlink:href="d__a__scene__exit_8h.html" target="_top" xlink:title=" ">
<polygon fill="#fff0f0" stroke="red" points="3194.5,-41 3075.5,-41 3075.5,0 3194.5,0 3194.5,-41"/>
<text text-anchor="start" x="3083.5" y="-29" font-family="Helvetica,sans-Serif" font-size="10.00">include/rel/d/a/d_a</text>
<text text-anchor="start" x="3083.5" y="-18" font-family="Helvetica,sans-Serif" font-size="10.00">_scene_exit/d_a_scene</text>
<text text-anchor="middle" x="3135" y="-7" font-family="Helvetica,sans-Serif" font-size="10.00">_exit.h</text>
</a>
</g>
</g>
<!-- Node2&#45;&gt;Node41 -->
<g id="edge26" class="edge">
<title>Node2&#45;&gt;Node41</title>
<path fill="none" stroke="#63b8ff" d="M2996.7,-72.63C3022.69,-63.02 3054.55,-51.24 3081.13,-41.42"/>
<polygon fill="#63b8ff" stroke="#63b8ff" points="2995.54,-69.32 2987.37,-76.07 2997.97,-75.89 2995.54,-69.32"/>
</g>
<!-- Node42 -->
<g id="node28" class="node">
<title>Node42</title>
<g id="a_node28"><a xlink:href="d__a__scene__exit2_8h.html" target="_top" xlink:title=" ">
<polygon fill="white" stroke="#666666" points="3337,-41 3213,-41 3213,0 3337,0 3337,-41"/>
<text text-anchor="start" x="3221" y="-29" font-family="Helvetica,sans-Serif" font-size="10.00">include/rel/d/a/d_a</text>
<text text-anchor="start" x="3221" y="-18" font-family="Helvetica,sans-Serif" font-size="10.00">_scene_exit2/d_a_scene</text>
<text text-anchor="middle" x="3275" y="-7" font-family="Helvetica,sans-Serif" font-size="10.00">_exit2.h</text>
</a>
</g>
</g>
<!-- Node2&#45;&gt;Node42 -->
<g id="edge27" class="edge">
<title>Node2&#45;&gt;Node42</title>
<path fill="none" stroke="#63b8ff" d="M3017.51,-78.63C3069.09,-69.25 3140.65,-55.51 3203,-41 3206.15,-40.27 3209.38,-39.49 3212.63,-38.69"/>
<polygon fill="#63b8ff" stroke="#63b8ff" points="3017.19,-75.13 3007.98,-80.36 3018.44,-82.02 3017.19,-75.13"/>
</g>
<!-- Node43 -->
<g id="node29" class="node">
<title>Node43</title>
<g id="a_node29"><a xlink:href="d__a__spinner_8h.html" target="_top" xlink:title=" ">
<polygon fill="#fff0f0" stroke="red" points="3471,-35.5 3355,-35.5 3355,-5.5 3471,-5.5 3471,-35.5"/>
<text text-anchor="start" x="3363" y="-23.5" font-family="Helvetica,sans-Serif" font-size="10.00">include/rel/d/a/d_a</text>
<text text-anchor="middle" x="3413" y="-12.5" font-family="Helvetica,sans-Serif" font-size="10.00">_spinner/d_a_spinner.h</text>
</a>
</g>
</g>
<!-- Node2&#45;&gt;Node43 -->
<g id="edge28" class="edge">
<title>Node2&#45;&gt;Node43</title>
<path fill="none" stroke="#63b8ff" d="M3017.73,-85.55C3097.92,-78.58 3232.29,-64.52 3346,-41 3352.76,-39.6 3359.83,-37.86 3366.74,-36"/>
<polygon fill="#63b8ff" stroke="#63b8ff" points="3017.47,-82.06 3007.8,-86.4 3018.07,-89.03 3017.47,-82.06"/>
</g>
<!-- Node47 -->
<g id="node30" class="node">
<title>Node47</title>
<g id="a_node30"><a xlink:href="d__a__suspend_8h.html" target="_top" xlink:title=" ">
<polygon fill="#fff0f0" stroke="red" points="3616.5,-35.5 3489.5,-35.5 3489.5,-5.5 3616.5,-5.5 3616.5,-35.5"/>
<text text-anchor="start" x="3497.5" y="-23.5" font-family="Helvetica,sans-Serif" font-size="10.00">include/rel/d/a/d_a</text>
<text text-anchor="middle" x="3553" y="-12.5" font-family="Helvetica,sans-Serif" font-size="10.00">_suspend/d_a_suspend.h</text>
</a>
</g>
</g>
<!-- Node2&#45;&gt;Node47 -->
<g id="edge29" class="edge">
<title>Node2&#45;&gt;Node47</title>
<path fill="none" stroke="#63b8ff" d="M3017.63,-88.14C3120.16,-83.14 3315.93,-70.39 3480,-41 3487.62,-39.64 3495.6,-37.86 3503.38,-35.95"/>
<polygon fill="#63b8ff" stroke="#63b8ff" points="3017.53,-84.64 3007.71,-88.61 3017.86,-91.63 3017.53,-84.64"/>
</g>
<!-- Node51 -->
<g id="node31" class="node">
<title>Node51</title>
<g id="a_node31"><a xlink:href="d__a__swTime_8h.html" target="_top" xlink:title=" ">
<polygon fill="white" stroke="#666666" points="3757,-35.5 3635,-35.5 3635,-5.5 3757,-5.5 3757,-35.5"/>
<text text-anchor="start" x="3643" y="-23.5" font-family="Helvetica,sans-Serif" font-size="10.00">include/rel/d/a/d_a</text>
<text text-anchor="middle" x="3696" y="-12.5" font-family="Helvetica,sans-Serif" font-size="10.00">_swTime/d_a_swTime.h</text>
</a>
</g>
</g>
<!-- Node2&#45;&gt;Node51 -->
<g id="edge30" class="edge">
<title>Node2&#45;&gt;Node51</title>
<path fill="none" stroke="#63b8ff" d="M3017.6,-90.3C3141.47,-88.06 3405.63,-78.84 3625,-41 3632.56,-39.7 3640.47,-37.93 3648.16,-36"/>
<polygon fill="#63b8ff" stroke="#63b8ff" points="3017.87,-86.79 3007.93,-90.46 3017.99,-93.79 3017.87,-86.79"/>
</g>
<!-- Node52 -->
<g id="node32" class="node">
<title>Node52</title>
<g id="a_node32"><a xlink:href="d__a__talk_8h.html" target="_top" xlink:title=" ">
<polygon fill="white" stroke="#666666" points="3871,-35.5 3775,-35.5 3775,-5.5 3871,-5.5 3871,-35.5"/>
<text text-anchor="start" x="3783" y="-23.5" font-family="Helvetica,sans-Serif" font-size="10.00">include/rel/d/a/d_a</text>
<text text-anchor="middle" x="3823" y="-12.5" font-family="Helvetica,sans-Serif" font-size="10.00">_talk/d_a_talk.h</text>
</a>
</g>
</g>
<!-- Node2&#45;&gt;Node52 -->
<g id="edge31" class="edge">
<title>Node2&#45;&gt;Node52</title>
<path fill="none" stroke="#63b8ff" d="M3017.77,-89.12C3189.32,-84.16 3623.67,-69.16 3766,-41 3772.36,-39.74 3778.98,-37.95 3785.37,-35.95"/>
<polygon fill="#63b8ff" stroke="#63b8ff" points="3017.78,-85.62 3007.88,-89.4 3017.98,-92.61 3017.78,-85.62"/>
</g>
<!-- Node53 -->
<g id="node33" class="node">
<title>Node53</title>
<g id="a_node33"><a xlink:href="d__a__tbox_8h.html" target="_top" xlink:title=" ">
<polygon fill="#fff0f0" stroke="red" points="3985,-35.5 3889,-35.5 3889,-5.5 3985,-5.5 3985,-35.5"/>
<text text-anchor="start" x="3897" y="-23.5" font-family="Helvetica,sans-Serif" font-size="10.00">include/rel/d/a/d_a</text>
<text text-anchor="middle" x="3937" y="-12.5" font-family="Helvetica,sans-Serif" font-size="10.00">_tbox/d_a_tbox.h</text>
</a>
</g>
</g>
<!-- Node2&#45;&gt;Node53 -->
<g id="edge32" class="edge">
<title>Node2&#45;&gt;Node53</title>
<path fill="none" stroke="#63b8ff" d="M3017.57,-89.73C3205.49,-85.96 3714.96,-73.01 3880,-41 3886.37,-39.77 3892.99,-37.98 3899.38,-36"/>
<polygon fill="#63b8ff" stroke="#63b8ff" points="3017.64,-86.23 3007.71,-89.93 3017.77,-93.23 3017.64,-86.23"/>
</g>
<!-- Node54 -->
<g id="node34" class="node">
<title>Node54</title>
<g id="a_node34"><a xlink:href="d__a__tboxSw_8h.html" target="_top" xlink:title=" ">
<polygon fill="white" stroke="#666666" points="4121,-35.5 4003,-35.5 4003,-5.5 4121,-5.5 4121,-35.5"/>
<text text-anchor="start" x="4011" y="-23.5" font-family="Helvetica,sans-Serif" font-size="10.00">include/rel/d/a/d_a</text>
<text text-anchor="middle" x="4062" y="-12.5" font-family="Helvetica,sans-Serif" font-size="10.00">_tboxSw/d_a_tboxSw.h</text>
</a>
</g>
</g>
<!-- Node2&#45;&gt;Node54 -->
<g id="edge33" class="edge">
<title>Node2&#45;&gt;Node54</title>
<path fill="none" stroke="#63b8ff" d="M3017.87,-89.75C3221.44,-85.83 3805.43,-72.11 3994,-41 4001.51,-39.76 4009.38,-37.98 4016.98,-35.99"/>
<polygon fill="#63b8ff" stroke="#63b8ff" points="3017.89,-86.25 3007.96,-89.94 3018.03,-93.25 3017.89,-86.25"/>
</g>
<!-- Node55 -->
<g id="node35" class="node">
<title>Node55</title>
<g id="a_node35"><a xlink:href="d__a__vrbox2_8h.html" target="_top" xlink:title=" ">
<polygon fill="white" stroke="#666666" points="4249,-35.5 4139,-35.5 4139,-5.5 4249,-5.5 4249,-35.5"/>
<text text-anchor="start" x="4147" y="-23.5" font-family="Helvetica,sans-Serif" font-size="10.00">include/rel/d/a/d_a</text>
<text text-anchor="middle" x="4194" y="-12.5" font-family="Helvetica,sans-Serif" font-size="10.00">_vrbox2/d_a_vrbox2.h</text>
</a>
</g>
</g>
<!-- Node2&#45;&gt;Node55 -->
<g id="edge34" class="edge">
<title>Node2&#45;&gt;Node55</title>
<path fill="none" stroke="#63b8ff" d="M3017.84,-90.36C3238.92,-87.98 3914.25,-77.81 4130,-41 4137.21,-39.77 4144.75,-37.96 4152.02,-35.94"/>
<polygon fill="#63b8ff" stroke="#63b8ff" points="3017.89,-86.86 3007.93,-90.46 3017.96,-93.86 3017.89,-86.86"/>
</g>
<!-- Node56 -->
<g id="node36" class="node">
<title>Node56</title>
<g id="a_node36"><a xlink:href="d__a__warp__bug_8h.html" target="_top" xlink:title=" ">
<polygon fill="white" stroke="#666666" points="4404.5,-35.5 4267.5,-35.5 4267.5,-5.5 4404.5,-5.5 4404.5,-35.5"/>
<text text-anchor="start" x="4275.5" y="-23.5" font-family="Helvetica,sans-Serif" font-size="10.00">include/rel/d/a/d_a</text>
<text text-anchor="middle" x="4336" y="-12.5" font-family="Helvetica,sans-Serif" font-size="10.00">_warp_bug/d_a_warp_bug.h</text>
</a>
</g>
</g>
<!-- Node2&#45;&gt;Node56 -->
<g id="edge35" class="edge">
<title>Node2&#45;&gt;Node56</title>
<path fill="none" stroke="#63b8ff" d="M3017.31,-90.24C3253.19,-87.37 4015.2,-75.6 4258,-41 4266.71,-39.76 4275.85,-37.95 4284.69,-35.92"/>
<polygon fill="#63b8ff" stroke="#63b8ff" points="3017.62,-86.73 3007.66,-90.35 3017.7,-93.73 3017.62,-86.73"/>
</g>
<!-- Node57 -->
<g id="node37" class="node">
<title>Node57</title>
<g id="a_node37"><a xlink:href="d__a__door__dbdoor00_8h.html" target="_top" xlink:title=" ">
<polygon fill="white" stroke="#666666" points="4535.5,-41 4422.5,-41 4422.5,0 4535.5,0 4535.5,-41"/>
<text text-anchor="start" x="4430.5" y="-29" font-family="Helvetica,sans-Serif" font-size="10.00">include/rel/d/a/door</text>
<text text-anchor="start" x="4430.5" y="-18" font-family="Helvetica,sans-Serif" font-size="10.00">/d_a_door_dbdoor00/d</text>
<text text-anchor="middle" x="4479" y="-7" font-family="Helvetica,sans-Serif" font-size="10.00">_a_door_dbdoor00.h</text>
</a>
</g>
</g>
<!-- Node2&#45;&gt;Node57 -->
<g id="edge36" class="edge">
<title>Node2&#45;&gt;Node57</title>
<path fill="none" stroke="#63b8ff" d="M3017.46,-91C3271.58,-90.61 4140.33,-85.94 4414,-41 4416.67,-40.56 4419.39,-40.04 4422.12,-39.46"/>
<polygon fill="#63b8ff" stroke="#63b8ff" points="3017.69,-87.5 3007.7,-91.01 3017.7,-94.5 3017.69,-87.5"/>
</g>
<!-- Node58 -->
<g id="node38" class="node">
<title>Node58</title>
<g id="a_node38"><a xlink:href="d__a__door__push_8h.html" target="_top" xlink:title=" ">
<polygon fill="white" stroke="#666666" points="4682,-41 4554,-41 4554,0 4682,0 4682,-41"/>
<text text-anchor="start" x="4562" y="-29" font-family="Helvetica,sans-Serif" font-size="10.00">include/rel/d/a/door</text>
<text text-anchor="start" x="4562" y="-18" font-family="Helvetica,sans-Serif" font-size="10.00">/d_a_door_push/d_a_door</text>
<text text-anchor="middle" x="4618" y="-7" font-family="Helvetica,sans-Serif" font-size="10.00">_push.h</text>
</a>
</g>
</g>
<!-- Node2&#45;&gt;Node58 -->
<g id="edge37" class="edge">
<title>Node2&#45;&gt;Node58</title>
<path fill="none" stroke="#63b8ff" d="M3017.36,-90.95C3285.57,-90.4 4243.83,-85.33 4545,-41 4547.86,-40.58 4550.76,-40.09 4553.68,-39.54"/>
<polygon fill="#63b8ff" stroke="#63b8ff" points="3017.74,-87.44 3007.75,-90.96 3017.76,-94.44 3017.74,-87.44"/>
</g>
<!-- Node59 -->
<g id="node39" class="node">
<title>Node59</title>
<g id="a_node39"><a xlink:href="d__a__e__db__leaf_8h.html" target="_top" xlink:title=" ">
<polygon fill="white" stroke="#666666" points="4819.5,-41 4700.5,-41 4700.5,0 4819.5,0 4819.5,-41"/>
<text text-anchor="start" x="4708.5" y="-29" font-family="Helvetica,sans-Serif" font-size="10.00">include/rel/d/a/e/d</text>
<text text-anchor="start" x="4708.5" y="-18" font-family="Helvetica,sans-Serif" font-size="10.00">_a_e_db_leaf/d_a_e_db</text>
<text text-anchor="middle" x="4760" y="-7" font-family="Helvetica,sans-Serif" font-size="10.00">_leaf.h</text>
</a>
</g>
</g>
<!-- Node2&#45;&gt;Node59 -->
<g id="edge38" class="edge">
<title>Node2&#45;&gt;Node59</title>
<path fill="none" stroke="#63b8ff" d="M3017.57,-91.3C3301.41,-92.12 4360.25,-91.68 4691,-41 4694.08,-40.53 4697.21,-39.96 4700.36,-39.33"/>
<polygon fill="#63b8ff" stroke="#63b8ff" points="3017.74,-87.8 3007.73,-91.26 3017.72,-94.8 3017.74,-87.8"/>
</g>
<!-- Node60 -->
<g id="node40" class="node">
<title>Node60</title>
<g id="a_node40"><a xlink:href="d__a__e__ge_8h.html" target="_top" xlink:title=" ">
<polygon fill="#fff0f0" stroke="red" points="4944,-35.5 4838,-35.5 4838,-5.5 4944,-5.5 4944,-35.5"/>
<text text-anchor="start" x="4846" y="-23.5" font-family="Helvetica,sans-Serif" font-size="10.00">include/rel/d/a/e/d</text>
<text text-anchor="middle" x="4891" y="-12.5" font-family="Helvetica,sans-Serif" font-size="10.00">_a_e_ge/d_a_e_ge.h</text>
</a>
</g>
</g>
<!-- Node2&#45;&gt;Node60 -->
<g id="edge39" class="edge">
<title>Node2&#45;&gt;Node60</title>
<path fill="none" stroke="#63b8ff" d="M3017.88,-90.28C3338.85,-86.88 4648.18,-71.23 4829,-41 4836.12,-39.81 4843.56,-38 4850.71,-35.94"/>
<polygon fill="#63b8ff" stroke="#63b8ff" points="3017.92,-86.78 3007.96,-90.39 3017.99,-93.78 3017.92,-86.78"/>
</g>
<!-- Node62 -->
<g id="node41" class="node">
<title>Node62</title>
<g id="a_node41"><a xlink:href="d__a__e__pm_8h.html" target="_top" xlink:title=" ">
<polygon fill="white" stroke="#666666" points="5074,-35.5 4962,-35.5 4962,-5.5 5074,-5.5 5074,-35.5"/>
<text text-anchor="start" x="4970" y="-23.5" font-family="Helvetica,sans-Serif" font-size="10.00">include/rel/d/a/e/d</text>
<text text-anchor="middle" x="5018" y="-12.5" font-family="Helvetica,sans-Serif" font-size="10.00">_a_e_pm/d_a_e_pm.h</text>
</a>
</g>
</g>
<!-- Node2&#45;&gt;Node62 -->
<g id="edge40" class="edge">
<title>Node2&#45;&gt;Node62</title>
<path fill="none" stroke="#63b8ff" d="M3017.87,-90.35C3351.68,-87.15 4759.15,-71.92 4953,-41 4960.45,-39.81 4968.23,-38 4975.72,-35.95"/>
<polygon fill="#63b8ff" stroke="#63b8ff" points="3017.93,-86.85 3007.96,-90.45 3018,-93.85 3017.93,-86.85"/>
</g>
<!-- Node63 -->
<g id="node42" class="node">
<title>Node63</title>
<g id="a_node42"><a xlink:href="d__a__e__sm2_8h.html" target="_top" xlink:title=" ">
<polygon fill="white" stroke="#666666" points="5214,-35.5 5092,-35.5 5092,-5.5 5214,-5.5 5214,-35.5"/>
<text text-anchor="start" x="5100" y="-23.5" font-family="Helvetica,sans-Serif" font-size="10.00">include/rel/d/a/e/d</text>
<text text-anchor="middle" x="5153" y="-12.5" font-family="Helvetica,sans-Serif" font-size="10.00">_a_e_sm2/d_a_e_sm2.h</text>
</a>
</g>
</g>
<!-- Node2&#45;&gt;Node63 -->
<g id="edge41" class="edge">
<title>Node2&#45;&gt;Node63</title>
<path fill="none" stroke="#63b8ff" d="M3017.61,-90.39C3363.99,-87.25 4875.31,-71.87 5083,-41 5090.99,-39.81 5099.35,-38 5107.41,-35.95"/>
<polygon fill="#63b8ff" stroke="#63b8ff" points="3017.74,-86.89 3007.77,-90.48 3017.8,-93.89 3017.74,-86.89"/>
</g>
<!-- Node64 -->
<g id="node43" class="node">
<title>Node64</title>
<g id="a_node43"><a xlink:href="d__a__e__yc_8h.html" target="_top" xlink:title=" ">
<polygon fill="white" stroke="#666666" points="5336,-35.5 5232,-35.5 5232,-5.5 5336,-5.5 5336,-35.5"/>
<text text-anchor="start" x="5240" y="-23.5" font-family="Helvetica,sans-Serif" font-size="10.00">include/rel/d/a/e/d</text>
<text text-anchor="middle" x="5284" y="-12.5" font-family="Helvetica,sans-Serif" font-size="10.00">_a_e_yc/d_a_e_yc.h</text>
</a>
</g>
</g>
<!-- Node2&#45;&gt;Node64 -->
<g id="edge42" class="edge">
<title>Node2&#45;&gt;Node64</title>
<path fill="none" stroke="#63b8ff" d="M3017.55,-90.65C3377.54,-88.73 5001.38,-78.06 5223,-41 5230.02,-39.83 5237.34,-38.02 5244.37,-35.97"/>
<polygon fill="#63b8ff" stroke="#63b8ff" points="3017.77,-87.15 3007.79,-90.71 3017.8,-94.15 3017.77,-87.15"/>
</g>
<!-- Node65 -->
<g id="node44" class="node">
<title>Node65</title>
<g id="a_node44"><a xlink:href="d__a__e__yk_8h.html" target="_top" xlink:title=" ">
<polygon fill="white" stroke="#666666" points="5458,-35.5 5354,-35.5 5354,-5.5 5458,-5.5 5458,-35.5"/>
<text text-anchor="start" x="5362" y="-23.5" font-family="Helvetica,sans-Serif" font-size="10.00">include/rel/d/a/e/d</text>
<text text-anchor="middle" x="5406" y="-12.5" font-family="Helvetica,sans-Serif" font-size="10.00">_a_e_yk/d_a_e_yk.h</text>
</a>
</g>
</g>
<!-- Node2&#45;&gt;Node65 -->
<g id="edge43" class="edge">
<title>Node2&#45;&gt;Node65</title>
<path fill="none" stroke="#63b8ff" d="M3017.69,-90.74C3389.52,-89.21 5110.73,-80.04 5345,-41 5352.02,-39.83 5359.34,-38.03 5366.38,-35.98"/>
<polygon fill="#63b8ff" stroke="#63b8ff" points="3017.81,-87.24 3007.83,-90.78 3017.84,-94.24 3017.81,-87.24"/>
</g>
<!-- Node66 -->
<g id="node45" class="node">
<title>Node66</title>
<g id="a_node45"><a xlink:href="d__a__kytag00_8h.html" target="_top" xlink:title=" ">
<polygon fill="white" stroke="#666666" points="5616,-35.5 5476,-35.5 5476,-5.5 5616,-5.5 5616,-35.5"/>
<text text-anchor="start" x="5484" y="-23.5" font-family="Helvetica,sans-Serif" font-size="10.00">include/rel/d/a/kytag</text>
<text text-anchor="middle" x="5546" y="-12.5" font-family="Helvetica,sans-Serif" font-size="10.00">/d_a_kytag00/d_a_kytag00.h</text>
</a>
</g>
</g>
<!-- Node2&#45;&gt;Node66 -->
<g id="edge44" class="edge">
<title>Node2&#45;&gt;Node66</title>
<path fill="none" stroke="#63b8ff" d="M3017.81,-90.53C3401.05,-87.89 5218.82,-73.68 5467,-41 5475.96,-39.82 5485.38,-38.01 5494.47,-35.96"/>
<polygon fill="#63b8ff" stroke="#63b8ff" points="3017.85,-87.03 3007.88,-90.6 3017.9,-94.03 3017.85,-87.03"/>
</g>
<!-- Node67 -->
<g id="node46" class="node">
<title>Node67</title>
<g id="a_node46"><a xlink:href="d__a__kytag03_8h.html" target="_top" xlink:title=" ">
<polygon fill="white" stroke="#666666" points="5774,-35.5 5634,-35.5 5634,-5.5 5774,-5.5 5774,-35.5"/>
<text text-anchor="start" x="5642" y="-23.5" font-family="Helvetica,sans-Serif" font-size="10.00">include/rel/d/a/kytag</text>
<text text-anchor="middle" x="5704" y="-12.5" font-family="Helvetica,sans-Serif" font-size="10.00">/d_a_kytag03/d_a_kytag03.h</text>
</a>
</g>
</g>
<!-- Node2&#45;&gt;Node67 -->
<g id="edge45" class="edge">
<title>Node2&#45;&gt;Node67</title>
<path fill="none" stroke="#63b8ff" d="M3017.62,-90.13C3427.97,-85 5492.17,-58.41 5625,-41 5633.96,-39.82 5643.38,-38.02 5652.47,-35.97"/>
<polygon fill="#63b8ff" stroke="#63b8ff" points="3017.71,-86.63 3007.76,-90.25 3017.8,-93.62 3017.71,-86.63"/>
</g>
<!-- Node2&#45;&gt;Node211 -->
<g id="edge46" class="edge">
<title>Node2&#45;&gt;Node211</title>
<path fill="none" stroke="#63b8ff" d="M3017.9,-90.56C3429.29,-87.91 5501.16,-73.05 5783,-41 5802.14,-38.82 5823.18,-34.51 5840.31,-30.49"/>
<polygon fill="#63b8ff" stroke="#63b8ff" points="3017.99,-87.06 3008.01,-90.63 3018.03,-94.06 3017.99,-87.06"/>
</g>
</g>
</svg>
