<?xml version="1.0" encoding="UTF-8" standalone="no"?>
<!DOCTYPE svg PUBLIC "-//W3C//DTD SVG 1.1//EN"
 "http://www.w3.org/Graphics/SVG/1.1/DTD/svg11.dtd">
<!-- Generated by graphviz version 7.0.5 (20221223.1930)
 -->
<!-- Title: include/f_pc/f_pc_load.h Pages: 1 -->
<svg width="540pt" height="93pt"
 viewBox="0.00 0.00 539.50 93.00" xmlns="http://www.w3.org/2000/svg" xmlns:xlink="http://www.w3.org/1999/xlink">
<g id="graph0" class="graph" transform="scale(1 1) rotate(0) translate(4 89)">
<title>include/f_pc/f_pc_load.h</title>
<!-- Node1 -->
<g id="node1" class="node">
<title>Node1</title>
<g id="a_node1"><a xlink:title=" ">
<polygon fill="#999999" stroke="#666666" points="331,-85 209,-85 209,-66 331,-66 331,-85"/>
<text text-anchor="middle" x="270" y="-73" font-family="Helvetica,sans-Serif" font-size="10.00">include/f_pc/f_pc_load.h</text>
</a>
</g>
</g>
<!-- Node2 -->
<g id="node2" class="node">
<title>Node2</title>
<g id="a_node2"><a xlink:href="f__pc__deletor_8cpp.html" target="_top" xlink:title=" ">
<polygon fill="white" stroke="#666666" points="126,-24.5 0,-24.5 0,-5.5 126,-5.5 126,-24.5"/>
<text text-anchor="middle" x="63" y="-12.5" font-family="Helvetica,sans-Serif" font-size="10.00">src/f_pc/f_pc_deletor.cpp</text>
</a>
</g>
</g>
<!-- Node1&#45;&gt;Node2 -->
<g id="edge1" class="edge">
<title>Node1&#45;&gt;Node2</title>
<path fill="none" stroke="#63b8ff" d="M227.71,-62.55C188.28,-51.41 130.35,-35.03 94.73,-24.97"/>
<polygon fill="#63b8ff" stroke="#63b8ff" points="226.53,-65.85 237.1,-65.2 228.43,-59.12 226.53,-65.85"/>
</g>
<!-- Node3 -->
<g id="node3" class="node">
<title>Node3</title>
<g id="a_node3"><a xlink:href="f__pc__fstcreate__req_8cpp.html" target="_top" xlink:title=" ">
<polygon fill="white" stroke="#666666" points="261.5,-30 144.5,-30 144.5,0 261.5,0 261.5,-30"/>
<text text-anchor="start" x="152.5" y="-18" font-family="Helvetica,sans-Serif" font-size="10.00">src/f_pc/f_pc_fstcreate</text>
<text text-anchor="middle" x="203" y="-7" font-family="Helvetica,sans-Serif" font-size="10.00">_req.cpp</text>
</a>
</g>
</g>
<!-- Node1&#45;&gt;Node3 -->
<g id="edge2" class="edge">
<title>Node1&#45;&gt;Node3</title>
<path fill="none" stroke="#63b8ff" d="M251.41,-58.27C241.42,-49.54 229.2,-38.87 219.54,-30.44"/>
<polygon fill="#63b8ff" stroke="#63b8ff" points="248.85,-60.68 258.68,-64.62 253.45,-55.41 248.85,-60.68"/>
</g>
<!-- Node4 -->
<g id="node4" class="node">
<title>Node4</title>
<g id="a_node4"><a xlink:href="f__pc__load_8cpp.html" target="_top" xlink:title=" ">
<polygon fill="white" stroke="#666666" points="394.5,-24.5 279.5,-24.5 279.5,-5.5 394.5,-5.5 394.5,-24.5"/>
<text text-anchor="middle" x="337" y="-12.5" font-family="Helvetica,sans-Serif" font-size="10.00">src/f_pc/f_pc_load.cpp</text>
</a>
</g>
</g>
<!-- Node1&#45;&gt;Node4 -->
<g id="edge3" class="edge">
<title>Node1&#45;&gt;Node4</title>
<path fill="none" stroke="#63b8ff" d="M288.78,-58.1C301.07,-47.37 316.66,-33.76 326.73,-24.97"/>
<polygon fill="#63b8ff" stroke="#63b8ff" points="286.55,-55.41 281.32,-64.62 291.15,-60.68 286.55,-55.41"/>
</g>
<!-- Node5 -->
<g id="node5" class="node">
<title>Node5</title>
<g id="a_node5"><a xlink:href="f__pc__stdcreate__req_8cpp.html" target="_top" xlink:title=" ">
<polygon fill="white" stroke="#666666" points="531.5,-30 412.5,-30 412.5,0 531.5,0 531.5,-30"/>
<text text-anchor="start" x="420.5" y="-18" font-family="Helvetica,sans-Serif" font-size="10.00">src/f_pc/f_pc_stdcreate</text>
<text text-anchor="middle" x="472" y="-7" font-family="Helvetica,sans-Serif" font-size="10.00">_req.cpp</text>
</a>
</g>
</g>
<!-- Node1&#45;&gt;Node5 -->
<g id="edge4" class="edge">
<title>Node1&#45;&gt;Node5</title>
<path fill="none" stroke="#63b8ff" d="M311.47,-62.49C343.56,-53.2 388.11,-40.29 422.14,-30.44"/>
<polygon fill="#63b8ff" stroke="#63b8ff" points="310.76,-59.05 302.13,-65.19 312.71,-65.77 310.76,-59.05"/>
</g>
</g>
</svg>
