<?xml version="1.0" encoding="UTF-8" standalone="no"?>
<!DOCTYPE svg PUBLIC "-//W3C//DTD SVG 1.1//EN"
 "http://www.w3.org/Graphics/SVG/1.1/DTD/svg11.dtd">
<!-- Generated by graphviz version 7.0.5 (20221223.1930)
 -->
<!-- Title: include/f_pc/f_pc_method.h Pages: 1 -->
<svg width="3977pt" height="357pt"
 viewBox="0.00 0.00 3976.50 357.00" xmlns="http://www.w3.org/2000/svg" xmlns:xlink="http://www.w3.org/1999/xlink">
<g id="graph0" class="graph" transform="scale(1 1) rotate(0) translate(4 353)">
<title>include/f_pc/f_pc_method.h</title>
<!-- Node1 -->
<g id="node1" class="node">
<title>Node1</title>
<g id="a_node1"><a xlink:title=" ">
<polygon fill="#999999" stroke="#666666" points="3400,-349 3264,-349 3264,-330 3400,-330 3400,-349"/>
<text text-anchor="middle" x="3332" y="-337" font-family="Helvetica,sans-Serif" font-size="10.00">include/f_pc/f_pc_method.h</text>
</a>
</g>
</g>
<!-- Node2 -->
<g id="node2" class="node">
<title>Node2</title>
<g id="a_node2"><a xlink:href="f__pc__create__req_8h.html" target="_top" xlink:title=" ">
<polygon fill="white" stroke="#666666" points="3393.5,-294 3270.5,-294 3270.5,-264 3393.5,-264 3393.5,-294"/>
<text text-anchor="start" x="3278.5" y="-282" font-family="Helvetica,sans-Serif" font-size="10.00">include/f_pc/f_pc_create</text>
<text text-anchor="middle" x="3332" y="-271" font-family="Helvetica,sans-Serif" font-size="10.00">_req.h</text>
</a>
</g>
</g>
<!-- Node1&#45;&gt;Node2 -->
<g id="edge1" class="edge">
<title>Node1&#45;&gt;Node2</title>
<path fill="none" stroke="#63b8ff" d="M3332,-318.51C3332,-310.49 3332,-301.43 3332,-294.11"/>
<polygon fill="#63b8ff" stroke="#63b8ff" points="3328.5,-318.35 3332,-328.35 3335.5,-318.35 3328.5,-318.35"/>
</g>
<!-- Node5 -->
<g id="node5" class="node">
<title>Node5</title>
<g id="a_node5"><a xlink:href="f__pc__manager_8cpp.html" target="_top" xlink:title=" ">
<polygon fill="white" stroke="#666666" points="3410,-90.5 3276,-90.5 3276,-71.5 3410,-71.5 3410,-90.5"/>
<text text-anchor="middle" x="3343" y="-78.5" font-family="Helvetica,sans-Serif" font-size="10.00">src/f_pc/f_pc_manager.cpp</text>
</a>
</g>
</g>
<!-- Node1&#45;&gt;Node5 -->
<g id="edge64" class="edge">
<title>Node1&#45;&gt;Node5</title>
<path fill="none" stroke="#63b8ff" d="M3411.34,-336.15C3488.1,-329.13 3600.71,-305.28 3656,-228 3721.86,-135.96 3520.45,-100.27 3410.09,-87.88"/>
<polygon fill="#63b8ff" stroke="#63b8ff" points="3411.47,-332.62 3401.79,-336.94 3412.04,-339.6 3411.47,-332.62"/>
</g>
<!-- Node264 -->
<g id="node16" class="node">
<title>Node264</title>
<g id="a_node16"><a xlink:href="f__pc__leaf_8h.html" target="_top" xlink:title=" ">
<polygon fill="white" stroke="#666666" points="942.5,-222.5 823.5,-222.5 823.5,-203.5 942.5,-203.5 942.5,-222.5"/>
<text text-anchor="middle" x="883" y="-210.5" font-family="Helvetica,sans-Serif" font-size="10.00">include/f_pc/f_pc_leaf.h</text>
</a>
</g>
</g>
<!-- Node1&#45;&gt;Node264 -->
<g id="edge17" class="edge">
<title>Node1&#45;&gt;Node264</title>
<path fill="none" stroke="#63b8ff" d="M3252.29,-334.45C2875.03,-315.27 1273.38,-233.85 942.83,-217.04"/>
<polygon fill="#63b8ff" stroke="#63b8ff" points="3251.95,-337.93 3262.11,-334.95 3252.3,-330.94 3251.95,-337.93"/>
</g>
<!-- Node457 -->
<g id="node38" class="node">
<title>Node457</title>
<g id="a_node38"><a xlink:href="f__pc__node_8h.html" target="_top" xlink:title=" ">
<polygon fill="white" stroke="#666666" points="2302.5,-222.5 2177.5,-222.5 2177.5,-203.5 2302.5,-203.5 2302.5,-222.5"/>
<text text-anchor="middle" x="2240" y="-210.5" font-family="Helvetica,sans-Serif" font-size="10.00">include/f_pc/f_pc_node.h</text>
</a>
</g>
</g>
<!-- Node1&#45;&gt;Node457 -->
<g id="edge43" class="edge">
<title>Node1&#45;&gt;Node457</title>
<path fill="none" stroke="#63b8ff" d="M3252.29,-329.41C3044.61,-305.73 2490.06,-242.51 2302.78,-221.16"/>
<polygon fill="#63b8ff" stroke="#63b8ff" points="3251.85,-332.89 3262.19,-330.54 3252.65,-325.93 3251.85,-332.89"/>
</g>
<!-- Node475 -->
<g id="node47" class="node">
<title>Node475</title>
<g id="a_node47"><a xlink:href="f__pc__node__req_8h.html" target="_top" xlink:title=" ">
<polygon fill="white" stroke="#666666" points="3101.5,-228 2984.5,-228 2984.5,-198 3101.5,-198 3101.5,-228"/>
<text text-anchor="start" x="2992.5" y="-216" font-family="Helvetica,sans-Serif" font-size="10.00">include/f_pc/f_pc_node</text>
<text text-anchor="middle" x="3043" y="-205" font-family="Helvetica,sans-Serif" font-size="10.00">_req.h</text>
</a>
</g>
</g>
<!-- Node1&#45;&gt;Node475 -->
<g id="edge59" class="edge">
<title>Node1&#45;&gt;Node475</title>
<path fill="none" stroke="#63b8ff" d="M3300.75,-325.04C3245.94,-301.42 3132.92,-252.74 3076.53,-228.45"/>
<polygon fill="#63b8ff" stroke="#63b8ff" points="3299.26,-328.21 3309.83,-328.95 3302.03,-321.78 3299.26,-328.21"/>
</g>
<!-- Node477 -->
<g id="node49" class="node">
<title>Node477</title>
<g id="a_node49"><a xlink:href="f__pc__base_8cpp.html" target="_top" xlink:title=" ">
<polygon fill="white" stroke="#666666" points="3821,-288.5 3703,-288.5 3703,-269.5 3821,-269.5 3821,-288.5"/>
<text text-anchor="middle" x="3762" y="-276.5" font-family="Helvetica,sans-Serif" font-size="10.00">src/f_pc/f_pc_base.cpp</text>
</a>
</g>
</g>
<!-- Node1&#45;&gt;Node477 -->
<g id="edge63" class="edge">
<title>Node1&#45;&gt;Node477</title>
<path fill="none" stroke="#63b8ff" d="M3411.6,-330.09C3484.09,-322.07 3593.99,-309.02 3689,-294 3698.3,-292.53 3708.24,-290.76 3717.69,-288.98"/>
<polygon fill="#63b8ff" stroke="#63b8ff" points="3411.36,-326.59 3401.8,-331.17 3412.12,-333.55 3411.36,-326.59"/>
</g>
<!-- Node478 -->
<g id="node50" class="node">
<title>Node478</title>
<g id="a_node50"><a xlink:href="f__pc__method_8cpp.html" target="_top" xlink:title=" ">
<polygon fill="white" stroke="#666666" points="3968.5,-288.5 3839.5,-288.5 3839.5,-269.5 3968.5,-269.5 3968.5,-288.5"/>
<text text-anchor="middle" x="3904" y="-276.5" font-family="Helvetica,sans-Serif" font-size="10.00">src/f_pc/f_pc_method.cpp</text>
</a>
</g>
</g>
<!-- Node1&#45;&gt;Node478 -->
<g id="edge65" class="edge">
<title>Node1&#45;&gt;Node478</title>
<path fill="none" stroke="#63b8ff" d="M3411.66,-333.79C3510.21,-327.42 3683,-314.42 3830,-294 3839.97,-292.61 3850.64,-290.8 3860.68,-288.93"/>
<polygon fill="#63b8ff" stroke="#63b8ff" points="3411.57,-330.29 3401.82,-334.42 3412.02,-337.28 3411.57,-330.29"/>
</g>
<!-- Node3 -->
<g id="node3" class="node">
<title>Node3</title>
<g id="a_node3"><a xlink:href="f__pc__fstcreate__req_8h.html" target="_top" xlink:title=" ">
<polygon fill="white" stroke="#666666" points="3399,-228 3265,-228 3265,-198 3399,-198 3399,-228"/>
<text text-anchor="start" x="3273" y="-216" font-family="Helvetica,sans-Serif" font-size="10.00">include/f_pc/f_pc_fstcreate</text>
<text text-anchor="middle" x="3332" y="-205" font-family="Helvetica,sans-Serif" font-size="10.00">_req.h</text>
</a>
</g>
</g>
<!-- Node2&#45;&gt;Node3 -->
<g id="edge2" class="edge">
<title>Node2&#45;&gt;Node3</title>
<path fill="none" stroke="#63b8ff" d="M3332,-252.39C3332,-244.13 3332,-235.28 3332,-228.16"/>
<polygon fill="#63b8ff" stroke="#63b8ff" points="3328.5,-252.28 3332,-262.28 3335.5,-252.28 3328.5,-252.28"/>
</g>
<!-- Node6 -->
<g id="node6" class="node">
<title>Node6</title>
<g id="a_node6"><a xlink:href="f__pc__stdcreate__req_8h.html" target="_top" xlink:title=" ">
<polygon fill="white" stroke="#666666" points="2966.5,-228 2829.5,-228 2829.5,-198 2966.5,-198 2966.5,-228"/>
<text text-anchor="start" x="2837.5" y="-216" font-family="Helvetica,sans-Serif" font-size="10.00">include/f_pc/f_pc_stdcreate</text>
<text text-anchor="middle" x="2898" y="-205" font-family="Helvetica,sans-Serif" font-size="10.00">_req.h</text>
</a>
</g>
</g>
<!-- Node2&#45;&gt;Node6 -->
<g id="edge5" class="edge">
<title>Node2&#45;&gt;Node6</title>
<path fill="none" stroke="#63b8ff" d="M3258.95,-268.57C3186.9,-259.07 3073.69,-243.62 2976,-228 2973.01,-227.52 2969.96,-227.02 2966.88,-226.51"/>
<polygon fill="#63b8ff" stroke="#63b8ff" points="3258.28,-272.01 3268.65,-269.84 3259.19,-265.07 3258.28,-272.01"/>
</g>
<!-- Node261 -->
<g id="node13" class="node">
<title>Node261</title>
<g id="a_node13"><a xlink:href="f__pc__create__iter_8cpp.html" target="_top" xlink:title=" ">
<polygon fill="white" stroke="#666666" points="3523,-228 3417,-228 3417,-198 3523,-198 3523,-228"/>
<text text-anchor="start" x="3425" y="-216" font-family="Helvetica,sans-Serif" font-size="10.00">src/f_pc/f_pc_create</text>
<text text-anchor="middle" x="3470" y="-205" font-family="Helvetica,sans-Serif" font-size="10.00">_iter.cpp</text>
</a>
</g>
</g>
<!-- Node2&#45;&gt;Node261 -->
<g id="edge14" class="edge">
<title>Node2&#45;&gt;Node261</title>
<path fill="none" stroke="#63b8ff" d="M3373.28,-258.86C3394.41,-249.05 3419.71,-237.32 3439.13,-228.31"/>
<polygon fill="#63b8ff" stroke="#63b8ff" points="3371.94,-255.62 3364.34,-263 3374.89,-261.97 3371.94,-255.62"/>
</g>
<!-- Node262 -->
<g id="node14" class="node">
<title>Node262</title>
<g id="a_node14"><a xlink:href="f__pc__create__req_8cpp.html" target="_top" xlink:title=" ">
<polygon fill="white" stroke="#666666" points="3647,-228 3541,-228 3541,-198 3647,-198 3647,-228"/>
<text text-anchor="start" x="3549" y="-216" font-family="Helvetica,sans-Serif" font-size="10.00">src/f_pc/f_pc_create</text>
<text text-anchor="middle" x="3594" y="-205" font-family="Helvetica,sans-Serif" font-size="10.00">_req.cpp</text>
</a>
</g>
</g>
<!-- Node2&#45;&gt;Node262 -->
<g id="edge15" class="edge">
<title>Node2&#45;&gt;Node262</title>
<path fill="none" stroke="#63b8ff" d="M3402.23,-260.85C3445.81,-250.2 3500.93,-236.74 3540.87,-226.98"/>
<polygon fill="#63b8ff" stroke="#63b8ff" points="3401.48,-257.43 3392.59,-263.2 3403.14,-264.23 3401.48,-257.43"/>
</g>
<!-- Node263 -->
<g id="node15" class="node">
<title>Node263</title>
<g id="a_node15"><a xlink:href="f__pc__creator_8cpp.html" target="_top" xlink:title=" ">
<polygon fill="white" stroke="#666666" points="3246.5,-222.5 3119.5,-222.5 3119.5,-203.5 3246.5,-203.5 3246.5,-222.5"/>
<text text-anchor="middle" x="3183" y="-210.5" font-family="Helvetica,sans-Serif" font-size="10.00">src/f_pc/f_pc_creator.cpp</text>
</a>
</g>
</g>
<!-- Node2&#45;&gt;Node263 -->
<g id="edge16" class="edge">
<title>Node2&#45;&gt;Node263</title>
<path fill="none" stroke="#63b8ff" d="M3288.28,-259.22C3260.47,-247.27 3225.7,-232.34 3203.92,-222.99"/>
<polygon fill="#63b8ff" stroke="#63b8ff" points="3286.6,-262.31 3297.17,-263.04 3289.36,-255.88 3286.6,-262.31"/>
</g>
<!-- Node4 -->
<g id="node4" class="node">
<title>Node4</title>
<g id="a_node4"><a xlink:href="f__pc__fstcreate__req_8cpp.html" target="_top" xlink:title=" ">
<polygon fill="white" stroke="#666666" points="3507.5,-162 3390.5,-162 3390.5,-132 3507.5,-132 3507.5,-162"/>
<text text-anchor="start" x="3398.5" y="-150" font-family="Helvetica,sans-Serif" font-size="10.00">src/f_pc/f_pc_fstcreate</text>
<text text-anchor="middle" x="3449" y="-139" font-family="Helvetica,sans-Serif" font-size="10.00">_req.cpp</text>
</a>
</g>
</g>
<!-- Node3&#45;&gt;Node4 -->
<g id="edge3" class="edge">
<title>Node3&#45;&gt;Node4</title>
<path fill="none" stroke="#63b8ff" d="M3368.23,-192.18C3385.89,-182.52 3406.74,-171.12 3422.83,-162.31"/>
<polygon fill="#63b8ff" stroke="#63b8ff" points="3366.68,-189.04 3359.58,-196.91 3370.04,-195.18 3366.68,-189.04"/>
</g>
<!-- Node3&#45;&gt;Node5 -->
<g id="edge4" class="edge">
<title>Node3&#45;&gt;Node5</title>
<path fill="none" stroke="#63b8ff" d="M3335.38,-186.22C3336.32,-178.45 3337.28,-169.89 3338,-162 3340.35,-136.22 3341.92,-105.67 3342.61,-90.89"/>
<polygon fill="#63b8ff" stroke="#63b8ff" points="3331.91,-185.72 3334.14,-196.08 3338.86,-186.59 3331.91,-185.72"/>
</g>
<!-- Node7 -->
<g id="node7" class="node">
<title>Node7</title>
<g id="a_node7"><a xlink:href="f__pc__manager_8h.html" target="_top" xlink:title=" ">
<polygon fill="#fff0f0" stroke="red" points="2732.5,-156.5 2591.5,-156.5 2591.5,-137.5 2732.5,-137.5 2732.5,-156.5"/>
<text text-anchor="middle" x="2662" y="-144.5" font-family="Helvetica,sans-Serif" font-size="10.00">include/f_pc/f_pc_manager.h</text>
</a>
</g>
</g>
<!-- Node6&#45;&gt;Node7 -->
<g id="edge6" class="edge">
<title>Node6&#45;&gt;Node7</title>
<path fill="none" stroke="#63b8ff" d="M2833.65,-194.55C2788.81,-182.39 2730.84,-166.67 2695.05,-156.96"/>
<polygon fill="#63b8ff" stroke="#63b8ff" points="2832.71,-197.92 2843.28,-197.16 2834.55,-191.17 2832.71,-197.92"/>
</g>
<!-- Node254 -->
<g id="node9" class="node">
<title>Node254</title>
<g id="a_node9"><a xlink:href="f__op__overlap__req_8cpp.html" target="_top" xlink:title=" ">
<polygon fill="white" stroke="#666666" points="2835,-96 2725,-96 2725,-66 2835,-66 2835,-96"/>
<text text-anchor="start" x="2733" y="-84" font-family="Helvetica,sans-Serif" font-size="10.00">src/f_op/f_op_overlap</text>
<text text-anchor="middle" x="2780" y="-73" font-family="Helvetica,sans-Serif" font-size="10.00">_req.cpp</text>
</a>
</g>
</g>
<!-- Node6&#45;&gt;Node254 -->
<g id="edge11" class="edge">
<title>Node6&#45;&gt;Node254</title>
<path fill="none" stroke="#63b8ff" d="M2897.38,-186.39C2895.75,-169.38 2891.17,-147.42 2879,-132 2866.12,-115.68 2846.48,-104.23 2828.09,-96.44"/>
<polygon fill="#63b8ff" stroke="#63b8ff" points="2893.87,-186.47 2898.01,-196.23 2900.86,-186.02 2893.87,-186.47"/>
</g>
<!-- Node258 -->
<g id="node10" class="node">
<title>Node258</title>
<g id="a_node10"><a xlink:href="f__op__camera__mng_8cpp.html" target="_top" xlink:title=" ">
<polygon fill="white" stroke="#666666" points="3155.5,-162 3044.5,-162 3044.5,-132 3155.5,-132 3155.5,-162"/>
<text text-anchor="start" x="3052.5" y="-150" font-family="Helvetica,sans-Serif" font-size="10.00">src/f_op/f_op_camera</text>
<text text-anchor="middle" x="3100" y="-139" font-family="Helvetica,sans-Serif" font-size="10.00">_mng.cpp</text>
</a>
</g>
</g>
<!-- Node6&#45;&gt;Node258 -->
<g id="edge10" class="edge">
<title>Node6&#45;&gt;Node258</title>
<path fill="none" stroke="#63b8ff" d="M2954.44,-194.12C2986.05,-184.1 3024.95,-171.78 3054.58,-162.39"/>
<polygon fill="#63b8ff" stroke="#63b8ff" points="2953.5,-190.74 2945.03,-197.1 2955.62,-197.42 2953.5,-190.74"/>
</g>
<!-- Node259 -->
<g id="node11" class="node">
<title>Node259</title>
<g id="a_node11"><a xlink:href="f__pc__node__req_8cpp.html" target="_top" xlink:title=" ">
<polygon fill="white" stroke="#666666" points="3026,-162 2926,-162 2926,-132 3026,-132 3026,-162"/>
<text text-anchor="start" x="2934" y="-150" font-family="Helvetica,sans-Serif" font-size="10.00">src/f_pc/f_pc_node</text>
<text text-anchor="middle" x="2976" y="-139" font-family="Helvetica,sans-Serif" font-size="10.00">_req.cpp</text>
</a>
</g>
</g>
<!-- Node6&#45;&gt;Node259 -->
<g id="edge12" class="edge">
<title>Node6&#45;&gt;Node259</title>
<path fill="none" stroke="#63b8ff" d="M2923.96,-190.7C2935.3,-181.4 2948.3,-170.73 2958.47,-162.39"/>
<polygon fill="#63b8ff" stroke="#63b8ff" points="2921.99,-187.79 2916.48,-196.84 2926.43,-193.2 2921.99,-187.79"/>
</g>
<!-- Node260 -->
<g id="node12" class="node">
<title>Node260</title>
<g id="a_node12"><a xlink:href="f__pc__stdcreate__req_8cpp.html" target="_top" xlink:title=" ">
<polygon fill="white" stroke="#666666" points="2869.5,-162 2750.5,-162 2750.5,-132 2869.5,-132 2869.5,-162"/>
<text text-anchor="start" x="2758.5" y="-150" font-family="Helvetica,sans-Serif" font-size="10.00">src/f_pc/f_pc_stdcreate</text>
<text text-anchor="middle" x="2810" y="-139" font-family="Helvetica,sans-Serif" font-size="10.00">_req.cpp</text>
</a>
</g>
</g>
<!-- Node6&#45;&gt;Node260 -->
<g id="edge13" class="edge">
<title>Node6&#45;&gt;Node260</title>
<path fill="none" stroke="#63b8ff" d="M2869.47,-191.25C2856.5,-181.82 2841.48,-170.9 2829.78,-162.39"/>
<polygon fill="#63b8ff" stroke="#63b8ff" points="2867.1,-193.85 2877.25,-196.91 2871.22,-188.19 2867.1,-193.85"/>
</g>
<!-- Node7&#45;&gt;Node5 -->
<g id="edge9" class="edge">
<title>Node7&#45;&gt;Node5</title>
<path fill="none" stroke="#63b8ff" d="M2719.96,-135.22C2727.36,-134.03 2734.85,-132.92 2742,-132 2934.89,-107.15 3164.27,-92.04 3275.64,-85.62"/>
<polygon fill="#63b8ff" stroke="#63b8ff" points="2719.63,-131.73 2710.34,-136.82 2720.78,-138.63 2719.63,-131.73"/>
</g>
<!-- Node8 -->
<g id="node8" class="node">
<title>Node8</title>
<g id="a_node8"><a xlink:href="f__op__actor__mng_8h.html" target="_top" xlink:title=" ">
<polygon fill="#fff0f0" stroke="red" points="1369,-96 1251,-96 1251,-66 1369,-66 1369,-96"/>
<text text-anchor="start" x="1259" y="-84" font-family="Helvetica,sans-Serif" font-size="10.00">include/f_op/f_op_actor</text>
<text text-anchor="middle" x="1310" y="-73" font-family="Helvetica,sans-Serif" font-size="10.00">_mng.h</text>
</a>
</g>
</g>
<!-- Node7&#45;&gt;Node8 -->
<g id="edge7" class="edge">
<title>Node7&#45;&gt;Node8</title>
<path fill="none" stroke="#63b8ff" d="M2606.78,-135.19C2598.82,-133.93 2590.72,-132.81 2583,-132 2112.87,-82.63 1992.12,-119.73 1520,-96 1469.09,-93.44 1411.31,-89.51 1369.26,-86.47"/>
<polygon fill="#63b8ff" stroke="#63b8ff" points="2605.93,-138.6 2616.37,-136.79 2607.09,-131.69 2605.93,-138.6"/>
</g>
<!-- Node7&#45;&gt;Node254 -->
<g id="edge8" class="edge">
<title>Node7&#45;&gt;Node254</title>
<path fill="none" stroke="#63b8ff" d="M2688.37,-131.7C2707.71,-121.21 2733.89,-107.01 2753.31,-96.48"/>
<polygon fill="#63b8ff" stroke="#63b8ff" points="2686.86,-128.54 2679.74,-136.38 2690.2,-134.69 2686.86,-128.54"/>
</g>
<!-- Node264&#45;&gt;Node7 -->
<g id="edge38" class="edge">
<title>Node264&#45;&gt;Node7</title>
<path fill="none" stroke="#63b8ff" d="M954,-211.29C1233.65,-208.3 2259.44,-195.25 2583,-162 2594.36,-160.83 2606.55,-158.98 2617.87,-156.99"/>
<polygon fill="#63b8ff" stroke="#63b8ff" points="954.29,-207.79 944.32,-211.4 954.36,-214.79 954.29,-207.79"/>
</g>
<!-- Node265 -->
<g id="node17" class="node">
<title>Node265</title>
<g id="a_node17"><a xlink:href="f__op__actor_8h.html" target="_top" xlink:title=" ">
<polygon fill="#fff0f0" stroke="red" points="1013.5,-156.5 888.5,-156.5 888.5,-137.5 1013.5,-137.5 1013.5,-156.5"/>
<text text-anchor="middle" x="951" y="-144.5" font-family="Helvetica,sans-Serif" font-size="10.00">include/f_op/f_op_actor.h</text>
</a>
</g>
</g>
<!-- Node264&#45;&gt;Node265 -->
<g id="edge18" class="edge">
<title>Node264&#45;&gt;Node265</title>
<path fill="none" stroke="#63b8ff" d="M900.71,-195.33C913.8,-183.02 931.1,-166.73 941.63,-156.82"/>
<polygon fill="#63b8ff" stroke="#63b8ff" points="898.44,-192.66 893.56,-202.06 903.24,-197.76 898.44,-192.66"/>
</g>
<!-- Node406 -->
<g id="node29" class="node">
<title>Node406</title>
<g id="a_node29"><a xlink:href="f__op__kankyo_8h.html" target="_top" xlink:title=" ">
<polygon fill="#fff0f0" stroke="red" points="739,-156.5 605,-156.5 605,-137.5 739,-137.5 739,-156.5"/>
<text text-anchor="middle" x="672" y="-144.5" font-family="Helvetica,sans-Serif" font-size="10.00">include/f_op/f_op_kankyo.h</text>
</a>
</g>
</g>
<!-- Node264&#45;&gt;Node406 -->
<g id="edge33" class="edge">
<title>Node264&#45;&gt;Node406</title>
<path fill="none" stroke="#63b8ff" d="M842.9,-199.84C801.63,-187.32 738.29,-168.11 701.43,-156.93"/>
<polygon fill="#63b8ff" stroke="#63b8ff" points="841.63,-203.11 852.21,-202.66 843.66,-196.41 841.63,-203.11"/>
</g>
<!-- Node412 -->
<g id="node30" class="node">
<title>Node412</title>
<g id="a_node30"><a xlink:href="f__op__msg_8h.html" target="_top" xlink:title=" ">
<polygon fill="#fff0f0" stroke="red" points="165,-156.5 43,-156.5 43,-137.5 165,-137.5 165,-156.5"/>
<text text-anchor="middle" x="104" y="-144.5" font-family="Helvetica,sans-Serif" font-size="10.00">include/f_op/f_op_msg.h</text>
</a>
</g>
</g>
<!-- Node264&#45;&gt;Node412 -->
<g id="edge34" class="edge">
<title>Node264&#45;&gt;Node412</title>
<path fill="none" stroke="#63b8ff" d="M812.29,-209.99C684.4,-205.68 406.37,-193.3 174,-162 164.3,-160.69 153.92,-158.86 144.2,-156.95"/>
<polygon fill="#63b8ff" stroke="#63b8ff" points="811.83,-213.47 821.94,-210.3 812.06,-206.48 811.83,-213.47"/>
</g>
<!-- Node417 -->
<g id="node31" class="node">
<title>Node417</title>
<g id="a_node31"><a xlink:href="f__op__msg__mng_8h.html" target="_top" xlink:title=" ">
<polygon fill="#fff0f0" stroke="red" points="298.5,-162 183.5,-162 183.5,-132 298.5,-132 298.5,-162"/>
<text text-anchor="start" x="191.5" y="-150" font-family="Helvetica,sans-Serif" font-size="10.00">include/f_op/f_op_msg</text>
<text text-anchor="middle" x="241" y="-139" font-family="Helvetica,sans-Serif" font-size="10.00">_mng.h</text>
</a>
</g>
</g>
<!-- Node264&#45;&gt;Node417 -->
<g id="edge35" class="edge">
<title>Node264&#45;&gt;Node417</title>
<path fill="none" stroke="#63b8ff" d="M811.64,-208.54C702.63,-202.63 488.29,-188.58 308,-162 304.94,-161.55 301.82,-161.05 298.67,-160.5"/>
<polygon fill="#63b8ff" stroke="#63b8ff" points="811.44,-212.03 821.62,-209.07 811.82,-205.04 811.44,-212.03"/>
</g>
<!-- Node418 -->
<g id="node32" class="node">
<title>Node418</title>
<g id="a_node32"><a xlink:href="f__op__overlap__mng_8h.html" target="_top" xlink:title=" ">
<polygon fill="#fff0f0" stroke="red" points="445,-162 317,-162 317,-132 445,-132 445,-162"/>
<text text-anchor="start" x="325" y="-150" font-family="Helvetica,sans-Serif" font-size="10.00">include/f_op/f_op_overlap</text>
<text text-anchor="middle" x="381" y="-139" font-family="Helvetica,sans-Serif" font-size="10.00">_mng.h</text>
</a>
</g>
</g>
<!-- Node264&#45;&gt;Node418 -->
<g id="edge36" class="edge">
<title>Node264&#45;&gt;Node418</title>
<path fill="none" stroke="#63b8ff" d="M811.77,-205.31C726.47,-196.94 579.41,-181.31 454,-162 451.19,-161.57 448.33,-161.11 445.44,-160.62"/>
<polygon fill="#63b8ff" stroke="#63b8ff" points="811.33,-208.79 821.62,-206.28 812.01,-201.82 811.33,-208.79"/>
</g>
<!-- Node421 -->
<g id="node33" class="node">
<title>Node421</title>
<g id="a_node33"><a xlink:href="f__op__view_8h.html" target="_top" xlink:title=" ">
<polygon fill="#fff0f0" stroke="red" points="587,-156.5 463,-156.5 463,-137.5 587,-137.5 587,-156.5"/>
<text text-anchor="middle" x="525" y="-144.5" font-family="Helvetica,sans-Serif" font-size="10.00">include/f_op/f_op_view.h</text>
</a>
</g>
</g>
<!-- Node264&#45;&gt;Node421 -->
<g id="edge37" class="edge">
<title>Node264&#45;&gt;Node421</title>
<path fill="none" stroke="#63b8ff" d="M818.01,-201.1C759.79,-191.24 672.11,-176.13 596,-162 587.48,-160.42 578.39,-158.67 569.66,-156.96"/>
<polygon fill="#63b8ff" stroke="#63b8ff" points="817.31,-204.53 827.75,-202.75 818.48,-197.63 817.31,-204.53"/>
</g>
<!-- Node453 -->
<g id="node34" class="node">
<title>Node453</title>
<g id="a_node34"><a xlink:href="d__s__menu_8cpp.html" target="_top" xlink:title=" ">
<polygon fill="white" stroke="#666666" points="1487.5,-24.5 1374.5,-24.5 1374.5,-5.5 1487.5,-5.5 1487.5,-24.5"/>
<text text-anchor="middle" x="1431" y="-12.5" font-family="Helvetica,sans-Serif" font-size="10.00">src/d/s/d_s_menu.cpp</text>
</a>
</g>
</g>
<!-- Node264&#45;&gt;Node453 -->
<g id="edge39" class="edge">
<title>Node264&#45;&gt;Node453</title>
<path fill="none" stroke="#63b8ff" d="M954.21,-211.36C1056.74,-207.13 1247.89,-186.54 1378,-96 1404.39,-77.63 1421.11,-41.49 1427.75,-24.81"/>
<polygon fill="#63b8ff" stroke="#63b8ff" points="954.14,-207.86 944.28,-211.73 954.4,-214.86 954.14,-207.86"/>
</g>
<!-- Node454 -->
<g id="node35" class="node">
<title>Node454</title>
<g id="a_node35"><a xlink:href="d__s__title_8cpp.html" target="_top" xlink:title=" ">
<polygon fill="white" stroke="#666666" points="1612,-24.5 1508,-24.5 1508,-5.5 1612,-5.5 1612,-24.5"/>
<text text-anchor="middle" x="1560" y="-12.5" font-family="Helvetica,sans-Serif" font-size="10.00">src/d/s/d_s_title.cpp</text>
</a>
</g>
</g>
<!-- Node264&#45;&gt;Node454 -->
<g id="edge40" class="edge">
<title>Node264&#45;&gt;Node454</title>
<path fill="none" stroke="#63b8ff" d="M954.05,-211.35C1037.02,-208.77 1177.49,-198.71 1292,-162 1398.21,-127.95 1510.95,-51.18 1547.68,-24.97"/>
<polygon fill="#63b8ff" stroke="#63b8ff" points="954.15,-207.84 944.25,-211.62 954.34,-214.84 954.15,-207.84"/>
</g>
<!-- Node455 -->
<g id="node36" class="node">
<title>Node455</title>
<g id="a_node36"><a xlink:href="f__pc__draw_8cpp.html" target="_top" xlink:title=" ">
<polygon fill="white" stroke="#666666" points="1548,-156.5 1430,-156.5 1430,-137.5 1548,-137.5 1548,-156.5"/>
<text text-anchor="middle" x="1489" y="-144.5" font-family="Helvetica,sans-Serif" font-size="10.00">src/f_pc/f_pc_draw.cpp</text>
</a>
</g>
</g>
<!-- Node264&#45;&gt;Node455 -->
<g id="edge41" class="edge">
<title>Node264&#45;&gt;Node455</title>
<path fill="none" stroke="#63b8ff" d="M954.2,-207.5C1056.65,-200.54 1251.43,-185.44 1416,-162 1425.71,-160.62 1436.09,-158.82 1445.88,-156.98"/>
<polygon fill="#63b8ff" stroke="#63b8ff" points="954.02,-204.01 944.28,-208.17 954.49,-210.99 954.02,-204.01"/>
</g>
<!-- Node456 -->
<g id="node37" class="node">
<title>Node456</title>
<g id="a_node37"><a xlink:href="f__pc__leaf_8cpp.html" target="_top" xlink:title=" ">
<polygon fill="white" stroke="#666666" points="870.5,-156.5 757.5,-156.5 757.5,-137.5 870.5,-137.5 870.5,-156.5"/>
<text text-anchor="middle" x="814" y="-144.5" font-family="Helvetica,sans-Serif" font-size="10.00">src/f_pc/f_pc_leaf.cpp</text>
</a>
</g>
</g>
<!-- Node264&#45;&gt;Node456 -->
<g id="edge42" class="edge">
<title>Node264&#45;&gt;Node456</title>
<path fill="none" stroke="#63b8ff" d="M865.03,-195.33C851.75,-183.02 834.19,-166.73 823.51,-156.82"/>
<polygon fill="#63b8ff" stroke="#63b8ff" points="862.58,-197.84 872.3,-202.07 867.34,-192.71 862.58,-197.84"/>
</g>
<!-- Node265&#45;&gt;Node8 -->
<g id="edge27" class="edge">
<title>Node265&#45;&gt;Node8</title>
<path fill="none" stroke="#63b8ff" d="M1017.65,-135.19C1076.71,-125.46 1165.22,-110.5 1242,-96 1244.84,-95.46 1247.75,-94.9 1250.68,-94.33"/>
<polygon fill="#63b8ff" stroke="#63b8ff" points="1017.41,-131.68 1008.11,-136.76 1018.54,-138.59 1017.41,-131.68"/>
</g>
<!-- Node266 -->
<g id="node18" class="node">
<title>Node266</title>
<g id="a_node18"><a xlink:href="d__a__horse__static_8h.html" target="_top" xlink:title=" ">
<polygon fill="#fff0f0" stroke="red" points="112,-96 0,-96 0,-66 112,-66 112,-96"/>
<text text-anchor="start" x="8" y="-84" font-family="Helvetica,sans-Serif" font-size="10.00">include/d/a/d_a_horse</text>
<text text-anchor="middle" x="56" y="-73" font-family="Helvetica,sans-Serif" font-size="10.00">_static.h</text>
</a>
</g>
</g>
<!-- Node265&#45;&gt;Node266 -->
<g id="edge19" class="edge">
<title>Node265&#45;&gt;Node266</title>
<path fill="none" stroke="#63b8ff" d="M899.19,-135C892.42,-133.83 885.56,-132.79 879,-132 544.15,-91.71 455.43,-139.65 121,-96 118.14,-95.63 115.22,-95.19 112.27,-94.71"/>
<polygon fill="#63b8ff" stroke="#63b8ff" points="898.46,-138.42 908.93,-136.77 899.72,-131.54 898.46,-138.42"/>
</g>
<!-- Node268 -->
<g id="node19" class="node">
<title>Node268</title>
<g id="a_node19"><a xlink:href="d__a__itembase_8h.html" target="_top" xlink:title=" ">
<polygon fill="#fff0f0" stroke="red" points="265.5,-90.5 130.5,-90.5 130.5,-71.5 265.5,-71.5 265.5,-90.5"/>
<text text-anchor="middle" x="198" y="-78.5" font-family="Helvetica,sans-Serif" font-size="10.00">include/d/a/d_a_itembase.h</text>
</a>
</g>
</g>
<!-- Node265&#45;&gt;Node268 -->
<g id="edge20" class="edge">
<title>Node265&#45;&gt;Node268</title>
<path fill="none" stroke="#63b8ff" d="M898.93,-135.03C892.24,-133.87 885.47,-132.82 879,-132 611.76,-98.22 541.4,-128.46 274,-96 263.48,-94.72 252.21,-92.9 241.66,-90.99"/>
<polygon fill="#63b8ff" stroke="#63b8ff" points="898.08,-138.43 908.54,-136.79 899.33,-131.55 898.08,-138.43"/>
</g>
<!-- Node381 -->
<g id="node20" class="node">
<title>Node381</title>
<g id="a_node20"><a xlink:href="d__a__obj__ss__base_8h.html" target="_top" xlink:title=" ">
<polygon fill="#fff0f0" stroke="red" points="384.5,-96 283.5,-96 283.5,-66 384.5,-66 384.5,-96"/>
<text text-anchor="start" x="291.5" y="-84" font-family="Helvetica,sans-Serif" font-size="10.00">include/d/a/d_a_obj</text>
<text text-anchor="middle" x="334" y="-73" font-family="Helvetica,sans-Serif" font-size="10.00">_ss_base.h</text>
</a>
</g>
</g>
<!-- Node265&#45;&gt;Node381 -->
<g id="edge21" class="edge">
<title>Node265&#45;&gt;Node381</title>
<path fill="none" stroke="#63b8ff" d="M897.94,-134.95C891.57,-133.84 885.15,-132.82 879,-132 664.76,-103.32 607.67,-128.66 394,-96 391.04,-95.55 388.01,-95.03 384.96,-94.46"/>
<polygon fill="#63b8ff" stroke="#63b8ff" points="897.3,-138.39 907.77,-136.75 898.56,-131.51 897.3,-138.39"/>
</g>
<!-- Node383 -->
<g id="node21" class="node">
<title>Node383</title>
<g id="a_node21"><a xlink:href="d__a__player_8h.html" target="_top" xlink:title=" ">
<polygon fill="#fff0f0" stroke="red" points="922.5,-90.5 801.5,-90.5 801.5,-71.5 922.5,-71.5 922.5,-90.5"/>
<text text-anchor="middle" x="862" y="-78.5" font-family="Helvetica,sans-Serif" font-size="10.00">include/d/a/d_a_player.h</text>
</a>
</g>
</g>
<!-- Node265&#45;&gt;Node383 -->
<g id="edge22" class="edge">
<title>Node265&#45;&gt;Node383</title>
<path fill="none" stroke="#63b8ff" d="M929.29,-130.39C912.01,-117.96 888.44,-101.01 874.27,-90.82"/>
<polygon fill="#63b8ff" stroke="#63b8ff" points="927.23,-133.22 937.4,-136.22 931.32,-127.54 927.23,-133.22"/>
</g>
<!-- Node270 -->
<g id="node22" class="node">
<title>Node270</title>
<g id="a_node22"><a xlink:href="d__a__do_8h.html" target="_top" xlink:title=" ">
<polygon fill="white" stroke="#666666" points="969,-30 873,-30 873,0 969,0 969,-30"/>
<text text-anchor="start" x="881" y="-18" font-family="Helvetica,sans-Serif" font-size="10.00">include/rel/d/a/d_a</text>
<text text-anchor="middle" x="921" y="-7" font-family="Helvetica,sans-Serif" font-size="10.00">_do/d_a_do.h</text>
</a>
</g>
</g>
<!-- Node265&#45;&gt;Node270 -->
<g id="edge30" class="edge">
<title>Node265&#45;&gt;Node270</title>
<path fill="none" stroke="#63b8ff" d="M946.42,-126.16C940.33,-99.75 929.69,-53.67 924.31,-30.36"/>
<polygon fill="#63b8ff" stroke="#63b8ff" points="942.94,-126.63 948.6,-135.59 949.76,-125.06 942.94,-126.63"/>
</g>
<!-- Node384 -->
<g id="node23" class="node">
<title>Node384</title>
<g id="a_node23"><a xlink:href="d__a__horse_8h.html" target="_top" xlink:title=" ">
<polygon fill="#fff0f0" stroke="red" points="839.5,-30 738.5,-30 738.5,0 839.5,0 839.5,-30"/>
<text text-anchor="start" x="746.5" y="-18" font-family="Helvetica,sans-Serif" font-size="10.00">include/rel/d/a/d_a</text>
<text text-anchor="middle" x="789" y="-7" font-family="Helvetica,sans-Serif" font-size="10.00">_horse/d_a_horse.h</text>
</a>
</g>
</g>
<!-- Node265&#45;&gt;Node384 -->
<g id="edge31" class="edge">
<title>Node265&#45;&gt;Node384</title>
<path fill="none" stroke="#63b8ff" d="M890.99,-134.6C851.3,-125.72 804.37,-112.21 792,-96 777.58,-77.11 781.09,-47.76 785,-30.35"/>
<polygon fill="#63b8ff" stroke="#63b8ff" points="890.24,-138.02 900.75,-136.71 891.72,-131.17 890.24,-138.02"/>
</g>
<!-- Node385 -->
<g id="node24" class="node">
<title>Node385</title>
<g id="a_node24"><a xlink:href="d__bg__s__movebg__actor_8h.html" target="_top" xlink:title=" ">
<polygon fill="#fff0f0" stroke="red" points="507,-96 403,-96 403,-66 507,-66 507,-96"/>
<text text-anchor="start" x="411" y="-84" font-family="Helvetica,sans-Serif" font-size="10.00">include/d/bg/d_bg_s</text>
<text text-anchor="middle" x="455" y="-73" font-family="Helvetica,sans-Serif" font-size="10.00">_movebg_actor.h</text>
</a>
</g>
</g>
<!-- Node265&#45;&gt;Node385 -->
<g id="edge25" class="edge">
<title>Node265&#45;&gt;Node385</title>
<path fill="none" stroke="#63b8ff" d="M897.43,-135.01C891.23,-133.91 884.98,-132.88 879,-132 718.59,-108.5 676,-122.19 516,-96 513.21,-95.54 510.36,-95.04 507.49,-94.49"/>
<polygon fill="#63b8ff" stroke="#63b8ff" points="896.51,-138.4 906.98,-136.77 897.78,-131.52 896.51,-138.4"/>
</g>
<!-- Node390 -->
<g id="node25" class="node">
<title>Node390</title>
<g id="a_node25"><a xlink:href="d__insect_8h.html" target="_top" xlink:title=" ">
<polygon fill="#fff0f0" stroke="red" points="628.5,-90.5 525.5,-90.5 525.5,-71.5 628.5,-71.5 628.5,-90.5"/>
<text text-anchor="middle" x="577" y="-78.5" font-family="Helvetica,sans-Serif" font-size="10.00">include/d/d_insect.h</text>
</a>
</g>
</g>
<!-- Node265&#45;&gt;Node390 -->
<g id="edge26" class="edge">
<title>Node265&#45;&gt;Node390</title>
<path fill="none" stroke="#63b8ff" d="M895.29,-134.92C889.79,-133.9 884.29,-132.91 879,-132 772.26,-113.66 744.41,-116.13 638,-96 630.21,-94.53 621.9,-92.75 614,-90.97"/>
<polygon fill="#63b8ff" stroke="#63b8ff" points="894.54,-138.34 905.02,-136.75 895.84,-131.46 894.54,-138.34"/>
</g>
<!-- Node391 -->
<g id="node26" class="node">
<title>Node391</title>
<g id="a_node26"><a xlink:href="d__a__alldie_8h.html" target="_top" xlink:title=" ">
<polygon fill="white" stroke="#666666" points="745,-96 647,-96 647,-66 745,-66 745,-96"/>
<text text-anchor="start" x="655" y="-84" font-family="Helvetica,sans-Serif" font-size="10.00">include/rel/d/a/d_a</text>
<text text-anchor="middle" x="696" y="-73" font-family="Helvetica,sans-Serif" font-size="10.00">_alldie/d_a_alldie.h</text>
</a>
</g>
</g>
<!-- Node265&#45;&gt;Node391 -->
<g id="edge28" class="edge">
<title>Node265&#45;&gt;Node391</title>
<path fill="none" stroke="#63b8ff" d="M904.35,-134.29C859.33,-122.99 791.43,-105.95 745.48,-94.42"/>
<polygon fill="#63b8ff" stroke="#63b8ff" points="903.26,-137.63 913.81,-136.67 904.96,-130.84 903.26,-137.63"/>
</g>
<!-- Node318 -->
<g id="node27" class="node">
<title>Node318</title>
<g id="a_node27"><a xlink:href="d__a__cstatue_8h.html" target="_top" xlink:title=" ">
<polygon fill="white" stroke="#666666" points="1097,-96 979,-96 979,-66 1097,-66 1097,-96"/>
<text text-anchor="start" x="987" y="-84" font-family="Helvetica,sans-Serif" font-size="10.00">include/rel/d/a/d_a</text>
<text text-anchor="middle" x="1038" y="-73" font-family="Helvetica,sans-Serif" font-size="10.00">_cstatue/d_a_cstatue.h</text>
</a>
</g>
</g>
<!-- Node265&#45;&gt;Node318 -->
<g id="edge29" class="edge">
<title>Node265&#45;&gt;Node318</title>
<path fill="none" stroke="#63b8ff" d="M972.04,-130.52C986.12,-120.16 1004.53,-106.62 1018.32,-96.48"/>
<polygon fill="#63b8ff" stroke="#63b8ff" points="970.3,-127.46 964.32,-136.2 974.45,-133.1 970.3,-127.46"/>
</g>
<!-- Node392 -->
<g id="node28" class="node">
<title>Node392</title>
<g id="a_node28"><a xlink:href="d__a__mg__rod_8h.html" target="_top" xlink:title=" ">
<polygon fill="#fff0f0" stroke="red" points="1233,-96 1115,-96 1115,-66 1233,-66 1233,-96"/>
<text text-anchor="start" x="1123" y="-84" font-family="Helvetica,sans-Serif" font-size="10.00">include/rel/d/a/d_a</text>
<text text-anchor="middle" x="1174" y="-73" font-family="Helvetica,sans-Serif" font-size="10.00">_mg_rod/d_a_mg_rod.h</text>
</a>
</g>
</g>
<!-- Node265&#45;&gt;Node392 -->
<g id="edge32" class="edge">
<title>Node265&#45;&gt;Node392</title>
<path fill="none" stroke="#63b8ff" d="M992.93,-133.97C1029.99,-123.33 1084.13,-107.79 1123.55,-96.48"/>
<polygon fill="#63b8ff" stroke="#63b8ff" points="992.11,-130.56 983.46,-136.68 994.04,-137.29 992.11,-130.56"/>
</g>
<!-- Node383&#45;&gt;Node270 -->
<g id="edge23" class="edge">
<title>Node383&#45;&gt;Node270</title>
<path fill="none" stroke="#63b8ff" d="M877.72,-62.95C887.14,-52.73 898.97,-39.9 907.88,-30.23"/>
<polygon fill="#63b8ff" stroke="#63b8ff" points="875.43,-60.26 871.23,-69.99 880.58,-65.01 875.43,-60.26"/>
</g>
<!-- Node383&#45;&gt;Node384 -->
<g id="edge24" class="edge">
<title>Node383&#45;&gt;Node384</title>
<path fill="none" stroke="#63b8ff" d="M843.31,-63.62C831.64,-53.38 816.75,-40.33 805.51,-30.48"/>
<polygon fill="#63b8ff" stroke="#63b8ff" points="840.88,-66.14 850.71,-70.1 845.5,-60.88 840.88,-66.14"/>
</g>
<!-- Node457&#45;&gt;Node7 -->
<g id="edge49" class="edge">
<title>Node457&#45;&gt;Node7</title>
<path fill="none" stroke="#63b8ff" d="M2314.25,-201.85C2383.79,-192.18 2490.57,-176.92 2583,-162 2592.63,-160.45 2602.89,-158.69 2612.73,-156.97"/>
<polygon fill="#63b8ff" stroke="#63b8ff" points="2313.92,-198.36 2304.49,-203.2 2314.88,-205.29 2313.92,-198.36"/>
</g>
<!-- Node457&#45;&gt;Node259 -->
<g id="edge56" class="edge">
<title>Node457&#45;&gt;Node259</title>
<path fill="none" stroke="#63b8ff" d="M2313.85,-207.79C2432.99,-200.65 2674.9,-184.69 2879,-162 2894.22,-160.31 2910.73,-158.08 2925.73,-155.89"/>
<polygon fill="#63b8ff" stroke="#63b8ff" points="2314,-204.28 2304.22,-208.37 2314.41,-211.26 2314,-204.28"/>
</g>
<!-- Node457&#45;&gt;Node260 -->
<g id="edge58" class="edge">
<title>Node457&#45;&gt;Node260</title>
<path fill="none" stroke="#63b8ff" d="M2314.15,-207.03C2412.37,-199.9 2590.83,-185.03 2742,-162 2744.74,-161.58 2747.54,-161.13 2750.36,-160.64"/>
<polygon fill="#63b8ff" stroke="#63b8ff" points="2314.1,-203.53 2304.38,-207.73 2314.61,-210.51 2314.1,-203.53"/>
</g>
<!-- Node457&#45;&gt;Node455 -->
<g id="edge52" class="edge">
<title>Node457&#45;&gt;Node455</title>
<path fill="none" stroke="#63b8ff" d="M2165.72,-209.72C2039.91,-205.16 1777.12,-192.58 1557,-162 1547.57,-160.69 1537.48,-158.85 1528.04,-156.94"/>
<polygon fill="#63b8ff" stroke="#63b8ff" points="2165.46,-213.22 2175.58,-210.07 2165.71,-206.22 2165.46,-213.22"/>
</g>
<!-- Node458 -->
<g id="node39" class="node">
<title>Node458</title>
<g id="a_node39"><a xlink:href="f__op__scene_8h.html" target="_top" xlink:title=" ">
<polygon fill="#fff0f0" stroke="red" points="1659,-90.5 1529,-90.5 1529,-71.5 1659,-71.5 1659,-90.5"/>
<text text-anchor="middle" x="1594" y="-78.5" font-family="Helvetica,sans-Serif" font-size="10.00">include/f_op/f_op_scene.h</text>
</a>
</g>
</g>
<!-- Node457&#45;&gt;Node458 -->
<g id="edge44" class="edge">
<title>Node457&#45;&gt;Node458</title>
<path fill="none" stroke="#63b8ff" d="M2166.02,-209.64C2045.45,-204.97 1812.32,-192.24 1736,-162 1715.67,-153.94 1715.6,-143.5 1697,-132 1670.12,-115.38 1636.9,-100.12 1615.58,-90.94"/>
<polygon fill="#63b8ff" stroke="#63b8ff" points="2165.69,-213.13 2175.82,-210.01 2165.96,-206.14 2165.69,-213.13"/>
</g>
<!-- Node461 -->
<g id="node40" class="node">
<title>Node461</title>
<g id="a_node40"><a xlink:href="f__op__scene__tag_8h.html" target="_top" xlink:title=" ">
<polygon fill="#fff0f0" stroke="red" points="1688,-162 1566,-162 1566,-132 1688,-132 1688,-162"/>
<text text-anchor="start" x="1574" y="-150" font-family="Helvetica,sans-Serif" font-size="10.00">include/f_op/f_op_scene</text>
<text text-anchor="middle" x="1627" y="-139" font-family="Helvetica,sans-Serif" font-size="10.00">_tag.h</text>
</a>
</g>
</g>
<!-- Node457&#45;&gt;Node461 -->
<g id="edge47" class="edge">
<title>Node457&#45;&gt;Node461</title>
<path fill="none" stroke="#63b8ff" d="M2165.94,-207.28C2061.98,-200.16 1866.99,-185.02 1702,-162 1697.54,-161.38 1692.94,-160.67 1688.32,-159.92"/>
<polygon fill="#63b8ff" stroke="#63b8ff" points="2165.52,-210.76 2175.73,-207.94 2165.99,-203.77 2165.52,-210.76"/>
</g>
<!-- Node464 -->
<g id="node41" class="node">
<title>Node464</title>
<g id="a_node41"><a xlink:href="m__Do__dvd__thread_8h.html" target="_top" xlink:title=" ">
<polygon fill="#fff0f0" stroke="red" points="1869.5,-162 1744.5,-162 1744.5,-132 1869.5,-132 1869.5,-162"/>
<text text-anchor="start" x="1752.5" y="-150" font-family="Helvetica,sans-Serif" font-size="10.00">include/m_Do/m_Do_dvd</text>
<text text-anchor="middle" x="1807" y="-139" font-family="Helvetica,sans-Serif" font-size="10.00">_thread.h</text>
</a>
</g>
</g>
<!-- Node457&#45;&gt;Node464 -->
<g id="edge50" class="edge">
<title>Node457&#45;&gt;Node464</title>
<path fill="none" stroke="#63b8ff" d="M2165.87,-202.93C2092.77,-193.71 1977.94,-178.46 1879,-162 1875.99,-161.5 1872.9,-160.97 1869.79,-160.42"/>
<polygon fill="#63b8ff" stroke="#63b8ff" points="2165.38,-206.4 2175.73,-204.17 2166.25,-199.45 2165.38,-206.4"/>
</g>
<!-- Node470 -->
<g id="node42" class="node">
<title>Node470</title>
<g id="a_node42"><a xlink:href="f__pc__deletor_8cpp.html" target="_top" xlink:title=" ">
<polygon fill="white" stroke="#666666" points="2014,-156.5 1888,-156.5 1888,-137.5 2014,-137.5 2014,-156.5"/>
<text text-anchor="middle" x="1951" y="-144.5" font-family="Helvetica,sans-Serif" font-size="10.00">src/f_pc/f_pc_deletor.cpp</text>
</a>
</g>
</g>
<!-- Node457&#45;&gt;Node470 -->
<g id="edge51" class="edge">
<title>Node457&#45;&gt;Node470</title>
<path fill="none" stroke="#63b8ff" d="M2188.34,-200.56C2131.89,-188.06 2042.67,-168.3 1991.21,-156.91"/>
<polygon fill="#63b8ff" stroke="#63b8ff" points="2187.51,-203.96 2198.03,-202.71 2189.03,-197.13 2187.51,-203.96"/>
</g>
<!-- Node471 -->
<g id="node43" class="node">
<title>Node471</title>
<g id="a_node43"><a xlink:href="f__pc__executor_8cpp.html" target="_top" xlink:title=" ">
<polygon fill="white" stroke="#666666" points="2166,-156.5 2032,-156.5 2032,-137.5 2166,-137.5 2166,-156.5"/>
<text text-anchor="middle" x="2099" y="-144.5" font-family="Helvetica,sans-Serif" font-size="10.00">src/f_pc/f_pc_executor.cpp</text>
</a>
</g>
</g>
<!-- Node457&#45;&gt;Node471 -->
<g id="edge53" class="edge">
<title>Node457&#45;&gt;Node471</title>
<path fill="none" stroke="#63b8ff" d="M2210.12,-198.44C2182.46,-185.88 2142.14,-167.58 2118.44,-156.82"/>
<polygon fill="#63b8ff" stroke="#63b8ff" points="2208.46,-201.53 2219.02,-202.48 2211.36,-195.16 2208.46,-201.53"/>
</g>
<!-- Node472 -->
<g id="node44" class="node">
<title>Node472</title>
<g id="a_node44"><a xlink:href="f__pc__line_8cpp.html" target="_top" xlink:title=" ">
<polygon fill="white" stroke="#666666" points="2296,-156.5 2184,-156.5 2184,-137.5 2296,-137.5 2296,-156.5"/>
<text text-anchor="middle" x="2240" y="-144.5" font-family="Helvetica,sans-Serif" font-size="10.00">src/f_pc/f_pc_line.cpp</text>
</a>
</g>
</g>
<!-- Node457&#45;&gt;Node472 -->
<g id="edge54" class="edge">
<title>Node457&#45;&gt;Node472</title>
<path fill="none" stroke="#63b8ff" d="M2240,-191.68C2240,-179.94 2240,-165.77 2240,-156.82"/>
<polygon fill="#63b8ff" stroke="#63b8ff" points="2236.5,-191.59 2240,-201.59 2243.5,-191.59 2236.5,-191.59"/>
</g>
<!-- Node473 -->
<g id="node45" class="node">
<title>Node473</title>
<g id="a_node45"><a xlink:href="f__pc__node_8cpp.html" target="_top" xlink:title=" ">
<polygon fill="white" stroke="#666666" points="2432,-156.5 2314,-156.5 2314,-137.5 2432,-137.5 2432,-156.5"/>
<text text-anchor="middle" x="2373" y="-144.5" font-family="Helvetica,sans-Serif" font-size="10.00">src/f_pc/f_pc_node.cpp</text>
</a>
</g>
</g>
<!-- Node457&#45;&gt;Node473 -->
<g id="edge55" class="edge">
<title>Node457&#45;&gt;Node473</title>
<path fill="none" stroke="#63b8ff" d="M2268.53,-198.27C2294.61,-185.72 2332.4,-167.54 2354.66,-156.82"/>
<polygon fill="#63b8ff" stroke="#63b8ff" points="2267.35,-194.95 2259.86,-202.44 2270.39,-201.26 2267.35,-194.95"/>
</g>
<!-- Node474 -->
<g id="node46" class="node">
<title>Node474</title>
<g id="a_node46"><a xlink:href="f__pc__pause_8cpp.html" target="_top" xlink:title=" ">
<polygon fill="white" stroke="#666666" points="2573.5,-156.5 2450.5,-156.5 2450.5,-137.5 2573.5,-137.5 2573.5,-156.5"/>
<text text-anchor="middle" x="2512" y="-144.5" font-family="Helvetica,sans-Serif" font-size="10.00">src/f_pc/f_pc_pause.cpp</text>
</a>
</g>
</g>
<!-- Node457&#45;&gt;Node474 -->
<g id="edge57" class="edge">
<title>Node457&#45;&gt;Node474</title>
<path fill="none" stroke="#63b8ff" d="M2289.29,-200.4C2342.45,-187.89 2425.92,-168.25 2474.15,-156.91"/>
<polygon fill="#63b8ff" stroke="#63b8ff" points="2288.51,-196.99 2279.58,-202.69 2290.12,-203.8 2288.51,-196.99"/>
</g>
<!-- Node458&#45;&gt;Node453 -->
<g id="edge45" class="edge">
<title>Node458&#45;&gt;Node453</title>
<path fill="none" stroke="#63b8ff" d="M1560.75,-66.95C1528.85,-54.42 1481.55,-35.85 1453.73,-24.93"/>
<polygon fill="#63b8ff" stroke="#63b8ff" points="1559.34,-70.15 1569.93,-70.55 1561.9,-63.64 1559.34,-70.15"/>
</g>
<!-- Node458&#45;&gt;Node454 -->
<g id="edge46" class="edge">
<title>Node458&#45;&gt;Node454</title>
<path fill="none" stroke="#63b8ff" d="M1583.99,-61.16C1577.61,-49.16 1569.64,-34.15 1564.69,-24.82"/>
<polygon fill="#63b8ff" stroke="#63b8ff" points="1580.78,-62.58 1588.56,-69.76 1586.96,-59.29 1580.78,-62.58"/>
</g>
<!-- Node461&#45;&gt;Node458 -->
<g id="edge48" class="edge">
<title>Node461&#45;&gt;Node458</title>
<path fill="none" stroke="#63b8ff" d="M1614.42,-121.6C1608.85,-110.8 1602.65,-98.78 1598.56,-90.84"/>
<polygon fill="#63b8ff" stroke="#63b8ff" points="1611.29,-123.17 1618.98,-130.45 1617.51,-119.96 1611.29,-123.17"/>
</g>
<!-- Node475&#45;&gt;Node5 -->
<g id="edge61" class="edge">
<title>Node475&#45;&gt;Node5</title>
<path fill="none" stroke="#63b8ff" d="M3113.11,-197.8C3200.19,-183.76 3238.26,-213.31 3305,-162 3328.53,-143.91 3338.18,-107.63 3341.5,-90.86"/>
<polygon fill="#63b8ff" stroke="#63b8ff" points="3112.68,-194.32 3103.45,-199.52 3113.91,-201.21 3112.68,-194.32"/>
</g>
<!-- Node475&#45;&gt;Node259 -->
<g id="edge62" class="edge">
<title>Node475&#45;&gt;Node259</title>
<path fill="none" stroke="#63b8ff" d="M3020.06,-190.09C3010.39,-180.85 2999.41,-170.36 2990.83,-162.16"/>
<polygon fill="#63b8ff" stroke="#63b8ff" points="3017.39,-192.37 3027.04,-196.75 3022.22,-187.31 3017.39,-192.37"/>
</g>
<!-- Node476 -->
<g id="node48" class="node">
<title>Node476</title>
<g id="a_node48"><a xlink:href="f__op__scene__req_8h.html" target="_top" xlink:title=" ">
<polygon fill="#fff0f0" stroke="red" points="3296,-162 3174,-162 3174,-132 3296,-132 3296,-162"/>
<text text-anchor="start" x="3182" y="-150" font-family="Helvetica,sans-Serif" font-size="10.00">include/f_op/f_op_scene</text>
<text text-anchor="middle" x="3235" y="-139" font-family="Helvetica,sans-Serif" font-size="10.00">_req.h</text>
</a>
</g>
</g>
<!-- Node475&#45;&gt;Node476 -->
<g id="edge60" class="edge">
<title>Node475&#45;&gt;Node476</title>
<path fill="none" stroke="#63b8ff" d="M3096.8,-194.07C3126.78,-184.07 3163.62,-171.79 3191.72,-162.43"/>
<polygon fill="#63b8ff" stroke="#63b8ff" points="3095.9,-190.68 3087.52,-197.16 3098.12,-197.32 3095.9,-190.68"/>
</g>
</g>
</svg>
