<?xml version="1.0" encoding="UTF-8" standalone="no"?>
<!DOCTYPE svg PUBLIC "-//W3C//DTD SVG 1.1//EN"
 "http://www.w3.org/Graphics/SVG/1.1/DTD/svg11.dtd">
<!-- Generated by graphviz version 7.0.5 (20221223.1930)
 -->
<!-- Title: include/f_pc/f_pc_draw_priority.h Pages: 1 -->
<svg width="4459pt" height="313pt"
 viewBox="0.00 0.00 4459.00 313.00" xmlns="http://www.w3.org/2000/svg" xmlns:xlink="http://www.w3.org/1999/xlink">
<g id="graph0" class="graph" transform="scale(1 1) rotate(0) translate(4 309)">
<title>include/f_pc/f_pc_draw_priority.h</title>
<!-- Node1 -->
<g id="node1" class="node">
<title>Node1</title>
<g id="a_node1"><a xlink:title=" ">
<polygon fill="#999999" stroke="#666666" points="3846,-305 3729,-305 3729,-275 3846,-275 3846,-305"/>
<text text-anchor="start" x="3737" y="-293" font-family="Helvetica,sans-Serif" font-size="10.00">include/f_pc/f_pc_draw</text>
<text text-anchor="middle" x="3787.5" y="-282" font-family="Helvetica,sans-Serif" font-size="10.00">_priority.h</text>
</a>
</g>
</g>
<!-- Node2 -->
<g id="node2" class="node">
<title>Node2</title>
<g id="a_node2"><a xlink:href="f__pc__leaf_8h.html" target="_top" xlink:title=" ">
<polygon fill="white" stroke="#666666" points="3783,-233.5 3664,-233.5 3664,-214.5 3783,-214.5 3783,-233.5"/>
<text text-anchor="middle" x="3723.5" y="-221.5" font-family="Helvetica,sans-Serif" font-size="10.00">include/f_pc/f_pc_leaf.h</text>
</a>
</g>
</g>
<!-- Node1&#45;&gt;Node2 -->
<g id="edge1" class="edge">
<title>Node1&#45;&gt;Node2</title>
<path fill="none" stroke="#63b8ff" d="M3765.44,-266.94C3754.08,-255.58 3740.86,-242.36 3732.34,-233.84"/>
<polygon fill="#63b8ff" stroke="#63b8ff" points="3762.68,-269.13 3772.23,-273.73 3767.63,-264.18 3762.68,-269.13"/>
</g>
<!-- Node448 -->
<g id="node50" class="node">
<title>Node448</title>
<g id="a_node50"><a xlink:href="f__pc__draw__priority_8cpp.html" target="_top" xlink:title=" ">
<polygon fill="white" stroke="#666666" points="3901.5,-239 3801.5,-239 3801.5,-209 3901.5,-209 3901.5,-239"/>
<text text-anchor="start" x="3809.5" y="-227" font-family="Helvetica,sans-Serif" font-size="10.00">src/f_pc/f_pc_draw</text>
<text text-anchor="middle" x="3851.5" y="-216" font-family="Helvetica,sans-Serif" font-size="10.00">_priority.cpp</text>
</a>
</g>
</g>
<!-- Node1&#45;&gt;Node448 -->
<g id="edge59" class="edge">
<title>Node1&#45;&gt;Node448</title>
<path fill="none" stroke="#63b8ff" d="M3809.69,-266.81C3818.86,-257.64 3829.22,-247.28 3837.34,-239.16"/>
<polygon fill="#63b8ff" stroke="#63b8ff" points="3807.37,-264.18 3802.77,-273.73 3812.32,-269.13 3807.37,-264.18"/>
</g>
<!-- Node3 -->
<g id="node3" class="node">
<title>Node3</title>
<g id="a_node3"><a xlink:href="f__op__actor_8h.html" target="_top" xlink:title=" ">
<polygon fill="white" stroke="#666666" points="2796,-167.5 2671,-167.5 2671,-148.5 2796,-148.5 2796,-167.5"/>
<text text-anchor="middle" x="2733.5" y="-155.5" font-family="Helvetica,sans-Serif" font-size="10.00">include/f_op/f_op_actor.h</text>
</a>
</g>
</g>
<!-- Node2&#45;&gt;Node3 -->
<g id="edge2" class="edge">
<title>Node2&#45;&gt;Node3</title>
<path fill="none" stroke="#63b8ff" d="M3652.31,-218.4C3467.06,-206.42 2972.15,-174.43 2796.45,-163.07"/>
<polygon fill="#63b8ff" stroke="#63b8ff" points="3652.09,-221.89 3662.29,-219.04 3652.54,-214.91 3652.09,-221.89"/>
</g>
<!-- Node382 -->
<g id="node32" class="node">
<title>Node382</title>
<g id="a_node32"><a xlink:href="f__op__kankyo_8h.html" target="_top" xlink:title=" ">
<polygon fill="white" stroke="#666666" points="392.5,-167.5 258.5,-167.5 258.5,-148.5 392.5,-148.5 392.5,-167.5"/>
<text text-anchor="middle" x="325.5" y="-155.5" font-family="Helvetica,sans-Serif" font-size="10.00">include/f_op/f_op_kankyo.h</text>
</a>
</g>
</g>
<!-- Node2&#45;&gt;Node382 -->
<g id="edge36" class="edge">
<title>Node2&#45;&gt;Node382</title>
<path fill="none" stroke="#63b8ff" d="M3652.36,-222.28C3321.3,-218.82 1898.21,-202.86 731.5,-173 612.17,-169.95 473.17,-164.81 392.66,-161.68"/>
<polygon fill="#63b8ff" stroke="#63b8ff" points="3652.13,-225.78 3662.16,-222.38 3652.2,-218.78 3652.13,-225.78"/>
</g>
<!-- Node391 -->
<g id="node39" class="node">
<title>Node391</title>
<g id="a_node39"><a xlink:href="f__op__msg_8h.html" target="_top" xlink:title=" ">
<polygon fill="#fff0f0" stroke="red" points="3641.5,-167.5 3519.5,-167.5 3519.5,-148.5 3641.5,-148.5 3641.5,-167.5"/>
<text text-anchor="middle" x="3580.5" y="-155.5" font-family="Helvetica,sans-Serif" font-size="10.00">include/f_op/f_op_msg.h</text>
</a>
</g>
</g>
<!-- Node2&#45;&gt;Node391 -->
<g id="edge44" class="edge">
<title>Node2&#45;&gt;Node391</title>
<path fill="none" stroke="#63b8ff" d="M3693.19,-209.44C3665.14,-196.88 3624.25,-178.58 3600.21,-167.82"/>
<polygon fill="#63b8ff" stroke="#63b8ff" points="3691.68,-212.59 3702.23,-213.48 3694.54,-206.2 3691.68,-212.59"/>
</g>
<!-- Node397 -->
<g id="node42" class="node">
<title>Node397</title>
<g id="a_node42"><a xlink:href="f__op__msg__mng_8h.html" target="_top" xlink:title=" ">
<polygon fill="#fff0f0" stroke="red" points="3501,-173 3386,-173 3386,-143 3501,-143 3501,-173"/>
<text text-anchor="start" x="3394" y="-161" font-family="Helvetica,sans-Serif" font-size="10.00">include/f_op/f_op_msg</text>
<text text-anchor="middle" x="3443.5" y="-150" font-family="Helvetica,sans-Serif" font-size="10.00">_mng.h</text>
</a>
</g>
</g>
<!-- Node2&#45;&gt;Node397 -->
<g id="edge47" class="edge">
<title>Node2&#45;&gt;Node397</title>
<path fill="none" stroke="#63b8ff" d="M3673.16,-211.49C3624.9,-200.46 3552.08,-183.82 3501.43,-172.24"/>
<polygon fill="#63b8ff" stroke="#63b8ff" points="3672.27,-214.88 3682.8,-213.7 3673.83,-208.06 3672.27,-214.88"/>
</g>
<!-- Node398 -->
<g id="node43" class="node">
<title>Node398</title>
<g id="a_node43"><a xlink:href="f__op__overlap__mng_8h.html" target="_top" xlink:title=" ">
<polygon fill="#fff0f0" stroke="red" points="3787.5,-173 3659.5,-173 3659.5,-143 3787.5,-143 3787.5,-173"/>
<text text-anchor="start" x="3667.5" y="-161" font-family="Helvetica,sans-Serif" font-size="10.00">include/f_op/f_op_overlap</text>
<text text-anchor="middle" x="3723.5" y="-150" font-family="Helvetica,sans-Serif" font-size="10.00">_mng.h</text>
</a>
</g>
</g>
<!-- Node2&#45;&gt;Node398 -->
<g id="edge49" class="edge">
<title>Node2&#45;&gt;Node398</title>
<path fill="none" stroke="#63b8ff" d="M3723.5,-202.78C3723.5,-193.17 3723.5,-181.92 3723.5,-173.23"/>
<polygon fill="#63b8ff" stroke="#63b8ff" points="3720,-202.59 3723.5,-212.59 3727,-202.59 3720,-202.59"/>
</g>
<!-- Node403 -->
<g id="node44" class="node">
<title>Node403</title>
<g id="a_node44"><a xlink:href="f__op__view_8h.html" target="_top" xlink:title=" ">
<polygon fill="#fff0f0" stroke="red" points="3929.5,-167.5 3805.5,-167.5 3805.5,-148.5 3929.5,-148.5 3929.5,-167.5"/>
<text text-anchor="middle" x="3867.5" y="-155.5" font-family="Helvetica,sans-Serif" font-size="10.00">include/f_op/f_op_view.h</text>
</a>
</g>
</g>
<!-- Node2&#45;&gt;Node403 -->
<g id="edge50" class="edge">
<title>Node2&#45;&gt;Node403</title>
<path fill="none" stroke="#63b8ff" d="M3754.02,-209.44C3782.26,-196.88 3823.44,-178.58 3847.65,-167.82"/>
<polygon fill="#63b8ff" stroke="#63b8ff" points="3752.62,-206.23 3744.91,-213.49 3755.47,-212.62 3752.62,-206.23"/>
</g>
<!-- Node437 -->
<g id="node45" class="node">
<title>Node437</title>
<g id="a_node45"><a xlink:href="f__pc__manager_8h.html" target="_top" xlink:title=" ">
<polygon fill="#fff0f0" stroke="red" points="882,-167.5 741,-167.5 741,-148.5 882,-148.5 882,-167.5"/>
<text text-anchor="middle" x="811.5" y="-155.5" font-family="Helvetica,sans-Serif" font-size="10.00">include/f_pc/f_pc_manager.h</text>
</a>
</g>
</g>
<!-- Node2&#45;&gt;Node437 -->
<g id="edge51" class="edge">
<title>Node2&#45;&gt;Node437</title>
<path fill="none" stroke="#63b8ff" d="M3652.29,-221.43C3251.58,-212.63 1281.7,-169.33 882.24,-160.55"/>
<polygon fill="#63b8ff" stroke="#63b8ff" points="3652.09,-224.93 3662.17,-221.65 3652.25,-217.93 3652.09,-224.93"/>
</g>
<!-- Node444 -->
<g id="node46" class="node">
<title>Node444</title>
<g id="a_node46"><a xlink:href="d__s__menu_8cpp.html" target="_top" xlink:title=" ">
<polygon fill="white" stroke="#666666" points="4061,-167.5 3948,-167.5 3948,-148.5 4061,-148.5 4061,-167.5"/>
<text text-anchor="middle" x="4004.5" y="-155.5" font-family="Helvetica,sans-Serif" font-size="10.00">src/d/s/d_s_menu.cpp</text>
</a>
</g>
</g>
<!-- Node2&#45;&gt;Node444 -->
<g id="edge55" class="edge">
<title>Node2&#45;&gt;Node444</title>
<path fill="none" stroke="#63b8ff" d="M3774.08,-211.48C3828.98,-198.98 3915.47,-179.28 3965.4,-167.91"/>
<polygon fill="#63b8ff" stroke="#63b8ff" points="3773.32,-208.06 3764.34,-213.7 3774.87,-214.89 3773.32,-208.06"/>
</g>
<!-- Node445 -->
<g id="node47" class="node">
<title>Node445</title>
<g id="a_node47"><a xlink:href="d__s__title_8cpp.html" target="_top" xlink:title=" ">
<polygon fill="white" stroke="#666666" points="4183.5,-167.5 4079.5,-167.5 4079.5,-148.5 4183.5,-148.5 4183.5,-167.5"/>
<text text-anchor="middle" x="4131.5" y="-155.5" font-family="Helvetica,sans-Serif" font-size="10.00">src/d/s/d_s_title.cpp</text>
</a>
</g>
</g>
<!-- Node2&#45;&gt;Node445 -->
<g id="edge56" class="edge">
<title>Node2&#45;&gt;Node445</title>
<path fill="none" stroke="#63b8ff" d="M3776.42,-211.86C3781.84,-210.84 3787.27,-209.87 3792.5,-209 3915.41,-188.6 3947.86,-194.96 4070.5,-173 4078.52,-171.56 4087.08,-169.77 4095.17,-167.95"/>
<polygon fill="#63b8ff" stroke="#63b8ff" points="3776.01,-208.38 3766.86,-213.72 3777.34,-215.25 3776.01,-208.38"/>
</g>
<!-- Node446 -->
<g id="node48" class="node">
<title>Node446</title>
<g id="a_node48"><a xlink:href="f__pc__draw_8cpp.html" target="_top" xlink:title=" ">
<polygon fill="white" stroke="#666666" points="4319.5,-167.5 4201.5,-167.5 4201.5,-148.5 4319.5,-148.5 4319.5,-167.5"/>
<text text-anchor="middle" x="4260.5" y="-155.5" font-family="Helvetica,sans-Serif" font-size="10.00">src/f_pc/f_pc_draw.cpp</text>
</a>
</g>
</g>
<!-- Node2&#45;&gt;Node446 -->
<g id="edge57" class="edge">
<title>Node2&#45;&gt;Node446</title>
<path fill="none" stroke="#63b8ff" d="M3775.04,-211.9C3780.91,-210.82 3786.82,-209.83 3792.5,-209 3969.12,-183.21 4015.91,-199.04 4192.5,-173 4201.68,-171.65 4211.49,-169.84 4220.72,-167.98"/>
<polygon fill="#63b8ff" stroke="#63b8ff" points="3774.52,-208.43 3765.35,-213.75 3775.83,-215.31 3774.52,-208.43"/>
</g>
<!-- Node447 -->
<g id="node49" class="node">
<title>Node447</title>
<g id="a_node49"><a xlink:href="f__pc__leaf_8cpp.html" target="_top" xlink:title=" ">
<polygon fill="white" stroke="#666666" points="4451,-167.5 4338,-167.5 4338,-148.5 4451,-148.5 4451,-167.5"/>
<text text-anchor="middle" x="4394.5" y="-155.5" font-family="Helvetica,sans-Serif" font-size="10.00">src/f_pc/f_pc_leaf.cpp</text>
</a>
</g>
</g>
<!-- Node2&#45;&gt;Node447 -->
<g id="edge58" class="edge">
<title>Node2&#45;&gt;Node447</title>
<path fill="none" stroke="#63b8ff" d="M3774.1,-211.93C3780.28,-210.82 3786.52,-209.8 3792.5,-209 4029.13,-177.19 4092.01,-205.85 4328.5,-173 4337.67,-171.73 4347.46,-169.91 4356.62,-168"/>
<polygon fill="#63b8ff" stroke="#63b8ff" points="3773.77,-208.43 3764.6,-213.74 3775.08,-215.31 3773.77,-208.43"/>
</g>
<!-- Node4 -->
<g id="node4" class="node">
<title>Node4</title>
<g id="a_node4"><a xlink:href="d__a__horse__static_8h.html" target="_top" xlink:title=" ">
<polygon fill="#fff0f0" stroke="red" points="3014.5,-101.5 2902.5,-101.5 2902.5,-71.5 3014.5,-71.5 3014.5,-101.5"/>
<text text-anchor="start" x="2910.5" y="-89.5" font-family="Helvetica,sans-Serif" font-size="10.00">include/d/a/d_a_horse</text>
<text text-anchor="middle" x="2958.5" y="-78.5" font-family="Helvetica,sans-Serif" font-size="10.00">_static.h</text>
</a>
</g>
</g>
<!-- Node3&#45;&gt;Node4 -->
<g id="edge3" class="edge">
<title>Node3&#45;&gt;Node4</title>
<path fill="none" stroke="#63b8ff" d="M2773.29,-144.71C2811.97,-132.76 2870.72,-114.61 2911.65,-101.97"/>
<polygon fill="#63b8ff" stroke="#63b8ff" points="2772.42,-141.31 2763.9,-147.61 2774.49,-148 2772.42,-141.31"/>
</g>
<!-- Node6 -->
<g id="node5" class="node">
<title>Node6</title>
<g id="a_node5"><a xlink:href="d__a__itembase_8h.html" target="_top" xlink:title=" ">
<polygon fill="#fff0f0" stroke="red" points="3168,-96 3033,-96 3033,-77 3168,-77 3168,-96"/>
<text text-anchor="middle" x="3100.5" y="-84" font-family="Helvetica,sans-Serif" font-size="10.00">include/d/a/d_a_itembase.h</text>
</a>
</g>
</g>
<!-- Node3&#45;&gt;Node6 -->
<g id="edge4" class="edge">
<title>Node3&#45;&gt;Node6</title>
<path fill="none" stroke="#63b8ff" d="M2804.78,-146.28C2863.67,-137.06 2949.32,-122.76 3023.5,-107 3038.07,-103.9 3054.05,-99.95 3067.66,-96.41"/>
<polygon fill="#63b8ff" stroke="#63b8ff" points="2804.58,-142.77 2795.24,-147.77 2805.66,-149.69 2804.58,-142.77"/>
</g>
<!-- Node251 -->
<g id="node6" class="node">
<title>Node251</title>
<g id="a_node6"><a xlink:href="d__a__obj__ss__base_8h.html" target="_top" xlink:title=" ">
<polygon fill="#fff0f0" stroke="red" points="3287,-101.5 3186,-101.5 3186,-71.5 3287,-71.5 3287,-101.5"/>
<text text-anchor="start" x="3194" y="-89.5" font-family="Helvetica,sans-Serif" font-size="10.00">include/d/a/d_a_obj</text>
<text text-anchor="middle" x="3236.5" y="-78.5" font-family="Helvetica,sans-Serif" font-size="10.00">_ss_base.h</text>
</a>
</g>
</g>
<!-- Node3&#45;&gt;Node251 -->
<g id="edge5" class="edge">
<title>Node3&#45;&gt;Node251</title>
<path fill="none" stroke="#63b8ff" d="M2807.41,-153.23C2895.96,-147.66 3048.41,-134.74 3176.5,-107 3182.82,-105.63 3189.41,-103.86 3195.81,-101.94"/>
<polygon fill="#63b8ff" stroke="#63b8ff" points="2807.42,-149.72 2797.65,-153.83 2807.84,-156.71 2807.42,-149.72"/>
</g>
<!-- Node254 -->
<g id="node7" class="node">
<title>Node254</title>
<g id="a_node7"><a xlink:href="d__a__player_8h.html" target="_top" xlink:title=" ">
<polygon fill="#fff0f0" stroke="red" points="3503,-96 3382,-96 3382,-77 3503,-77 3503,-96"/>
<text text-anchor="middle" x="3442.5" y="-84" font-family="Helvetica,sans-Serif" font-size="10.00">include/d/a/d_a_player.h</text>
</a>
</g>
</g>
<!-- Node3&#45;&gt;Node254 -->
<g id="edge6" class="edge">
<title>Node3&#45;&gt;Node254</title>
<path fill="none" stroke="#63b8ff" d="M2807.97,-155.36C2926.97,-151.79 3167.02,-140.7 3367.5,-107 3382.63,-104.46 3399.15,-100.31 3412.83,-96.5"/>
<polygon fill="#63b8ff" stroke="#63b8ff" points="2807.9,-151.86 2798,-155.65 2808.1,-158.86 2807.9,-151.86"/>
</g>
<!-- Node10 -->
<g id="node8" class="node">
<title>Node10</title>
<g id="a_node8"><a xlink:href="d__a__do_8h.html" target="_top" xlink:title=" ">
<polygon fill="white" stroke="#666666" points="3675.5,-30 3579.5,-30 3579.5,0 3675.5,0 3675.5,-30"/>
<text text-anchor="start" x="3587.5" y="-18" font-family="Helvetica,sans-Serif" font-size="10.00">include/rel/d/a/d_a</text>
<text text-anchor="middle" x="3627.5" y="-7" font-family="Helvetica,sans-Serif" font-size="10.00">_do/d_a_do.h</text>
</a>
</g>
</g>
<!-- Node3&#45;&gt;Node10 -->
<g id="edge17" class="edge">
<title>Node3&#45;&gt;Node10</title>
<path fill="none" stroke="#63b8ff" d="M2807.54,-156.14C3037.15,-153.13 3723.85,-141.29 3756.5,-107 3769.07,-93.8 3766.8,-81.03 3756.5,-66 3738.45,-39.64 3704.33,-27.18 3675.72,-21.28"/>
<polygon fill="#63b8ff" stroke="#63b8ff" points="2807.77,-152.64 2797.82,-156.27 2807.86,-159.64 2807.77,-152.64"/>
</g>
<!-- Node257 -->
<g id="node9" class="node">
<title>Node257</title>
<g id="a_node9"><a xlink:href="d__a__horse_8h.html" target="_top" xlink:title=" ">
<polygon fill="#fff0f0" stroke="red" points="3829,-30 3728,-30 3728,0 3829,0 3829,-30"/>
<text text-anchor="start" x="3736" y="-18" font-family="Helvetica,sans-Serif" font-size="10.00">include/rel/d/a/d_a</text>
<text text-anchor="middle" x="3778.5" y="-7" font-family="Helvetica,sans-Serif" font-size="10.00">_horse/d_a_horse.h</text>
</a>
</g>
</g>
<!-- Node3&#45;&gt;Node257 -->
<g id="edge18" class="edge">
<title>Node3&#45;&gt;Node257</title>
<path fill="none" stroke="#63b8ff" d="M2807.56,-156.15C3039.81,-153.13 3740.44,-141.2 3774.5,-107 3794.48,-86.94 3788.47,-50.44 3783.05,-30.3"/>
<polygon fill="#63b8ff" stroke="#63b8ff" points="2807.68,-152.65 2797.72,-156.27 2807.77,-159.65 2807.68,-152.65"/>
</g>
<!-- Node103 -->
<g id="node10" class="node">
<title>Node103</title>
<g id="a_node10"><a xlink:href="d__a__midna_8h.html" target="_top" xlink:title=" ">
<polygon fill="#fff0f0" stroke="red" points="3492.5,-30 3386.5,-30 3386.5,0 3492.5,0 3492.5,-30"/>
<text text-anchor="start" x="3394.5" y="-18" font-family="Helvetica,sans-Serif" font-size="10.00">include/rel/d/a/d_a</text>
<text text-anchor="middle" x="3439.5" y="-7" font-family="Helvetica,sans-Serif" font-size="10.00">_midna/d_a_midna.h</text>
</a>
</g>
</g>
<!-- Node3&#45;&gt;Node103 -->
<g id="edge20" class="edge">
<title>Node3&#45;&gt;Node103</title>
<path fill="none" stroke="#63b8ff" d="M2807.21,-155.88C2943.2,-152.97 3228.01,-142.67 3319.5,-107 3347.25,-96.18 3348.79,-84.02 3372.5,-66 3388.45,-53.88 3406.67,-40.3 3420.08,-30.35"/>
<polygon fill="#63b8ff" stroke="#63b8ff" points="2807.54,-152.37 2797.62,-156.08 2807.69,-159.37 2807.54,-152.37"/>
</g>
<!-- Node176 -->
<g id="node11" class="node">
<title>Node176</title>
<g id="a_node11"><a xlink:href="f__op__actor__mng_8cpp.html" target="_top" xlink:title=" ">
<polygon fill="white" stroke="#666666" points="3366,-30 3265,-30 3265,0 3366,0 3366,-30"/>
<text text-anchor="start" x="3273" y="-18" font-family="Helvetica,sans-Serif" font-size="10.00">src/f_op/f_op_actor</text>
<text text-anchor="middle" x="3315.5" y="-7" font-family="Helvetica,sans-Serif" font-size="10.00">_mng.cpp</text>
</a>
</g>
</g>
<!-- Node3&#45;&gt;Node176 -->
<g id="edge35" class="edge">
<title>Node3&#45;&gt;Node176</title>
<path fill="none" stroke="#63b8ff" d="M2807.71,-155.22C2952.04,-151.06 3259.63,-138.56 3295.5,-107 3317.36,-87.77 3318.37,-50.59 3317.04,-30.21"/>
<polygon fill="#63b8ff" stroke="#63b8ff" points="2807.76,-151.71 2797.87,-155.49 2807.96,-158.71 2807.76,-151.71"/>
</g>
<!-- Node259 -->
<g id="node12" class="node">
<title>Node259</title>
<g id="a_node12"><a xlink:href="d__bg__s__movebg__actor_8h.html" target="_top" xlink:title=" ">
<polygon fill="#fff0f0" stroke="red" points="3625.5,-101.5 3521.5,-101.5 3521.5,-71.5 3625.5,-71.5 3625.5,-101.5"/>
<text text-anchor="start" x="3529.5" y="-89.5" font-family="Helvetica,sans-Serif" font-size="10.00">include/d/bg/d_bg_s</text>
<text text-anchor="middle" x="3573.5" y="-78.5" font-family="Helvetica,sans-Serif" font-size="10.00">_movebg_actor.h</text>
</a>
</g>
</g>
<!-- Node3&#45;&gt;Node259 -->
<g id="edge11" class="edge">
<title>Node3&#45;&gt;Node259</title>
<path fill="none" stroke="#63b8ff" d="M2807.83,-154.5C2975.3,-148.51 3377.93,-131.92 3511.5,-107 3518.38,-105.72 3525.56,-103.91 3532.5,-101.91"/>
<polygon fill="#63b8ff" stroke="#63b8ff" points="2807.8,-151 2797.93,-154.85 2808.05,-158 2807.8,-151"/>
</g>
<!-- Node276 -->
<g id="node13" class="node">
<title>Node276</title>
<g id="a_node13"><a xlink:href="d__insect_8h.html" target="_top" xlink:title=" ">
<polygon fill="#fff0f0" stroke="red" points="3747,-96 3644,-96 3644,-77 3747,-77 3747,-96"/>
<text text-anchor="middle" x="3695.5" y="-84" font-family="Helvetica,sans-Serif" font-size="10.00">include/d/d_insect.h</text>
</a>
</g>
</g>
<!-- Node3&#45;&gt;Node276 -->
<g id="edge12" class="edge">
<title>Node3&#45;&gt;Node276</title>
<path fill="none" stroke="#63b8ff" d="M2807.51,-155.31C2993.43,-150.68 3476.52,-136.14 3634.5,-107 3647.29,-104.64 3661.13,-100.36 3672.39,-96.42"/>
<polygon fill="#63b8ff" stroke="#63b8ff" points="2807.65,-151.81 2797.74,-155.55 2807.82,-158.8 2807.65,-151.81"/>
</g>
<!-- Node277 -->
<g id="node14" class="node">
<title>Node277</title>
<g id="a_node14"><a xlink:href="f__op__actor__mng_8h.html" target="_top" xlink:title=" ">
<polygon fill="#fff0f0" stroke="red" points="801.5,-101.5 683.5,-101.5 683.5,-71.5 801.5,-71.5 801.5,-101.5"/>
<text text-anchor="start" x="691.5" y="-89.5" font-family="Helvetica,sans-Serif" font-size="10.00">include/f_op/f_op_actor</text>
<text text-anchor="middle" x="742.5" y="-78.5" font-family="Helvetica,sans-Serif" font-size="10.00">_mng.h</text>
</a>
</g>
</g>
<!-- Node3&#45;&gt;Node277 -->
<g id="edge13" class="edge">
<title>Node3&#45;&gt;Node277</title>
<path fill="none" stroke="#63b8ff" d="M2659.4,-156.18C2328.64,-152.39 995.32,-135.43 810.5,-107 802.73,-105.8 794.6,-103.99 786.77,-101.94"/>
<polygon fill="#63b8ff" stroke="#63b8ff" points="2659.19,-159.68 2669.23,-156.3 2659.27,-152.68 2659.19,-159.68"/>
</g>
<!-- Node367 -->
<g id="node15" class="node">
<title>Node367</title>
<g id="a_node15"><a xlink:href="d__a__alldie_8h.html" target="_top" xlink:title=" ">
<polygon fill="white" stroke="#666666" points="3939.5,-101.5 3841.5,-101.5 3841.5,-71.5 3939.5,-71.5 3939.5,-101.5"/>
<text text-anchor="start" x="3849.5" y="-89.5" font-family="Helvetica,sans-Serif" font-size="10.00">include/rel/d/a/d_a</text>
<text text-anchor="middle" x="3890.5" y="-78.5" font-family="Helvetica,sans-Serif" font-size="10.00">_alldie/d_a_alldie.h</text>
</a>
</g>
</g>
<!-- Node3&#45;&gt;Node367 -->
<g id="edge15" class="edge">
<title>Node3&#45;&gt;Node367</title>
<path fill="none" stroke="#63b8ff" d="M2807.69,-156.06C3020.6,-152.99 3630.83,-141.35 3827.5,-107 3834.61,-105.76 3842.03,-103.95 3849.18,-101.92"/>
<polygon fill="#63b8ff" stroke="#63b8ff" points="2807.81,-152.56 2797.86,-156.2 2807.91,-159.56 2807.81,-152.56"/>
</g>
<!-- Node89 -->
<g id="node16" class="node">
<title>Node89</title>
<g id="a_node16"><a xlink:href="d__a__cstatue_8h.html" target="_top" xlink:title=" ">
<polygon fill="white" stroke="#666666" points="4075.5,-101.5 3957.5,-101.5 3957.5,-71.5 4075.5,-71.5 4075.5,-101.5"/>
<text text-anchor="start" x="3965.5" y="-89.5" font-family="Helvetica,sans-Serif" font-size="10.00">include/rel/d/a/d_a</text>
<text text-anchor="middle" x="4016.5" y="-78.5" font-family="Helvetica,sans-Serif" font-size="10.00">_cstatue/d_a_cstatue.h</text>
</a>
</g>
</g>
<!-- Node3&#45;&gt;Node89 -->
<g id="edge16" class="edge">
<title>Node3&#45;&gt;Node89</title>
<path fill="none" stroke="#63b8ff" d="M2807.67,-154.98C3054.11,-148.11 3836.37,-125.12 3948.5,-107 3956.14,-105.77 3964.14,-103.96 3971.85,-101.93"/>
<polygon fill="#63b8ff" stroke="#63b8ff" points="2807.76,-151.47 2797.86,-155.25 2807.95,-158.47 2807.76,-151.47"/>
</g>
<!-- Node368 -->
<g id="node17" class="node">
<title>Node368</title>
<g id="a_node17"><a xlink:href="d__a__mg__rod_8h.html" target="_top" xlink:title=" ">
<polygon fill="#fff0f0" stroke="red" points="1075.5,-101.5 957.5,-101.5 957.5,-71.5 1075.5,-71.5 1075.5,-101.5"/>
<text text-anchor="start" x="965.5" y="-89.5" font-family="Helvetica,sans-Serif" font-size="10.00">include/rel/d/a/d_a</text>
<text text-anchor="middle" x="1016.5" y="-78.5" font-family="Helvetica,sans-Serif" font-size="10.00">_mg_rod/d_a_mg_rod.h</text>
</a>
</g>
</g>
<!-- Node3&#45;&gt;Node368 -->
<g id="edge19" class="edge">
<title>Node3&#45;&gt;Node368</title>
<path fill="none" stroke="#63b8ff" d="M2659.4,-157.2C2380.54,-157.57 1394.33,-155.35 1084.5,-107 1076.73,-105.79 1068.6,-103.96 1060.77,-101.91"/>
<polygon fill="#63b8ff" stroke="#63b8ff" points="2659.08,-160.7 2669.07,-157.18 2659.07,-153.7 2659.08,-160.7"/>
</g>
<!-- Node369 -->
<g id="node18" class="node">
<title>Node369</title>
<g id="a_node18"><a xlink:href="d__a__movie__player_8h.html" target="_top" xlink:title=" ">
<polygon fill="#fff0f0" stroke="red" points="1223,-107 1094,-107 1094,-66 1223,-66 1223,-107"/>
<text text-anchor="start" x="1102" y="-95" font-family="Helvetica,sans-Serif" font-size="10.00">include/rel/d/a/d_a</text>
<text text-anchor="start" x="1102" y="-84" font-family="Helvetica,sans-Serif" font-size="10.00">_movie_player/d_a_movie</text>
<text text-anchor="middle" x="1158.5" y="-73" font-family="Helvetica,sans-Serif" font-size="10.00">_player.h</text>
</a>
</g>
</g>
<!-- Node3&#45;&gt;Node369 -->
<g id="edge21" class="edge">
<title>Node3&#45;&gt;Node369</title>
<path fill="none" stroke="#63b8ff" d="M2659.63,-156.73C2397.48,-155.43 1512.6,-148.04 1232.5,-107 1229.48,-106.56 1226.4,-106.04 1223.3,-105.46"/>
<polygon fill="#63b8ff" stroke="#63b8ff" points="2659.37,-160.23 2669.39,-156.78 2659.41,-153.23 2659.37,-160.23"/>
</g>
<!-- Node370 -->
<g id="node19" class="node">
<title>Node370</title>
<g id="a_node19"><a xlink:href="d__a__kytag05_8h.html" target="_top" xlink:title=" ">
<polygon fill="#fff0f0" stroke="red" points="1381.5,-101.5 1241.5,-101.5 1241.5,-71.5 1381.5,-71.5 1381.5,-101.5"/>
<text text-anchor="start" x="1249.5" y="-89.5" font-family="Helvetica,sans-Serif" font-size="10.00">include/rel/d/a/kytag</text>
<text text-anchor="middle" x="1311.5" y="-78.5" font-family="Helvetica,sans-Serif" font-size="10.00">/d_a_kytag05/d_a_kytag05.h</text>
</a>
</g>
</g>
<!-- Node3&#45;&gt;Node370 -->
<g id="edge22" class="edge">
<title>Node3&#45;&gt;Node370</title>
<path fill="none" stroke="#63b8ff" d="M2659.34,-156.24C2415.28,-153.42 1638.55,-141.86 1390.5,-107 1381.69,-105.76 1372.43,-103.95 1363.47,-101.93"/>
<polygon fill="#63b8ff" stroke="#63b8ff" points="2659,-159.73 2669.04,-156.35 2659.08,-152.73 2659,-159.73"/>
</g>
<!-- Node371 -->
<g id="node20" class="node">
<title>Node371</title>
<g id="a_node20"><a xlink:href="d__a__kytag14_8h.html" target="_top" xlink:title=" ">
<polygon fill="white" stroke="#666666" points="1539.5,-101.5 1399.5,-101.5 1399.5,-71.5 1539.5,-71.5 1539.5,-101.5"/>
<text text-anchor="start" x="1407.5" y="-89.5" font-family="Helvetica,sans-Serif" font-size="10.00">include/rel/d/a/kytag</text>
<text text-anchor="middle" x="1469.5" y="-78.5" font-family="Helvetica,sans-Serif" font-size="10.00">/d_a_kytag14/d_a_kytag14.h</text>
</a>
</g>
</g>
<!-- Node3&#45;&gt;Node371 -->
<g id="edge23" class="edge">
<title>Node3&#45;&gt;Node371</title>
<path fill="none" stroke="#63b8ff" d="M2659.47,-155.81C2435.06,-151.91 1764.51,-137.9 1548.5,-107 1539.83,-105.76 1530.73,-103.98 1521.91,-101.99"/>
<polygon fill="#63b8ff" stroke="#63b8ff" points="2659.2,-159.31 2669.26,-155.98 2659.32,-152.31 2659.2,-159.31"/>
</g>
<!-- Node372 -->
<g id="node21" class="node">
<title>Node372</title>
<g id="a_node21"><a xlink:href="d__a__obj__bed_8h.html" target="_top" xlink:title=" ">
<polygon fill="white" stroke="#666666" points="1697.5,-101.5 1557.5,-101.5 1557.5,-71.5 1697.5,-71.5 1697.5,-101.5"/>
<text text-anchor="start" x="1565.5" y="-89.5" font-family="Helvetica,sans-Serif" font-size="10.00">include/rel/d/a/obj</text>
<text text-anchor="middle" x="1627.5" y="-78.5" font-family="Helvetica,sans-Serif" font-size="10.00">/d_a_obj_bed/d_a_obj_bed.h</text>
</a>
</g>
</g>
<!-- Node3&#45;&gt;Node372 -->
<g id="edge24" class="edge">
<title>Node3&#45;&gt;Node372</title>
<path fill="none" stroke="#63b8ff" d="M2659.07,-155.25C2455.16,-150.14 1890.49,-133.93 1706.5,-107 1697.83,-105.73 1688.73,-103.93 1679.91,-101.94"/>
<polygon fill="#63b8ff" stroke="#63b8ff" points="2658.94,-158.74 2669.02,-155.49 2659.11,-151.75 2658.94,-158.74"/>
</g>
<!-- Node373 -->
<g id="node22" class="node">
<title>Node373</title>
<g id="a_node22"><a xlink:href="d__a__obj__lv1Candle00_8h.html" target="_top" xlink:title=" ">
<polygon fill="white" stroke="#666666" points="1835,-107 1716,-107 1716,-66 1835,-66 1835,-107"/>
<text text-anchor="start" x="1724" y="-95" font-family="Helvetica,sans-Serif" font-size="10.00">include/rel/d/a/obj</text>
<text text-anchor="start" x="1724" y="-84" font-family="Helvetica,sans-Serif" font-size="10.00">/d_a_obj_lv1Candle00</text>
<text text-anchor="middle" x="1775.5" y="-73" font-family="Helvetica,sans-Serif" font-size="10.00">/d_a_obj_lv1Candle00.h</text>
</a>
</g>
</g>
<!-- Node3&#45;&gt;Node373 -->
<g id="edge25" class="edge">
<title>Node3&#45;&gt;Node373</title>
<path fill="none" stroke="#63b8ff" d="M2659.27,-154.92C2475.04,-149.42 2000.48,-133.1 1844.5,-107 1841.43,-106.49 1838.3,-105.89 1835.16,-105.22"/>
<polygon fill="#63b8ff" stroke="#63b8ff" points="2659.11,-158.42 2669.21,-155.21 2659.31,-151.42 2659.11,-158.42"/>
</g>
<!-- Node374 -->
<g id="node23" class="node">
<title>Node374</title>
<g id="a_node23"><a xlink:href="d__a__obj__snow__soup_8h.html" target="_top" xlink:title=" ">
<polygon fill="white" stroke="#666666" points="1969.5,-107 1853.5,-107 1853.5,-66 1969.5,-66 1969.5,-107"/>
<text text-anchor="start" x="1861.5" y="-95" font-family="Helvetica,sans-Serif" font-size="10.00">include/rel/d/a/obj</text>
<text text-anchor="start" x="1861.5" y="-84" font-family="Helvetica,sans-Serif" font-size="10.00">/d_a_obj_snow_soup/d</text>
<text text-anchor="middle" x="1911.5" y="-73" font-family="Helvetica,sans-Serif" font-size="10.00">_a_obj_snow_soup.h</text>
</a>
</g>
</g>
<!-- Node3&#45;&gt;Node374 -->
<g id="edge26" class="edge">
<title>Node3&#45;&gt;Node374</title>
<path fill="none" stroke="#63b8ff" d="M2659.33,-157.4C2523.29,-156.95 2225.19,-150.53 1978.5,-107 1975.64,-106.49 1972.72,-105.91 1969.79,-105.27"/>
<polygon fill="#63b8ff" stroke="#63b8ff" points="2659.28,-160.9 2669.29,-157.42 2659.3,-153.9 2659.28,-160.9"/>
</g>
<!-- Node375 -->
<g id="node24" class="node">
<title>Node375</title>
<g id="a_node24"><a xlink:href="d__a__tag__evt_8h.html" target="_top" xlink:title=" ">
<polygon fill="white" stroke="#666666" points="2125,-101.5 1988,-101.5 1988,-71.5 2125,-71.5 2125,-101.5"/>
<text text-anchor="start" x="1996" y="-89.5" font-family="Helvetica,sans-Serif" font-size="10.00">include/rel/d/a/tag</text>
<text text-anchor="middle" x="2056.5" y="-78.5" font-family="Helvetica,sans-Serif" font-size="10.00">/d_a_tag_evt/d_a_tag_evt.h</text>
</a>
</g>
</g>
<!-- Node3&#45;&gt;Node375 -->
<g id="edge27" class="edge">
<title>Node3&#45;&gt;Node375</title>
<path fill="none" stroke="#63b8ff" d="M2659.57,-154.76C2545.83,-150.43 2321.39,-138.4 2133.5,-107 2125.48,-105.66 2117.06,-103.9 2108.86,-101.99"/>
<polygon fill="#63b8ff" stroke="#63b8ff" points="2659.25,-158.25 2669.38,-155.12 2659.51,-151.25 2659.25,-158.25"/>
</g>
<!-- Node376 -->
<g id="node25" class="node">
<title>Node376</title>
<g id="a_node25"><a xlink:href="d__a__tag__gstart_8h.html" target="_top" xlink:title=" ">
<polygon fill="white" stroke="#666666" points="2246,-107 2143,-107 2143,-66 2246,-66 2246,-107"/>
<text text-anchor="start" x="2151" y="-95" font-family="Helvetica,sans-Serif" font-size="10.00">include/rel/d/a/tag</text>
<text text-anchor="start" x="2151" y="-84" font-family="Helvetica,sans-Serif" font-size="10.00">/d_a_tag_gstart/d_a</text>
<text text-anchor="middle" x="2194.5" y="-73" font-family="Helvetica,sans-Serif" font-size="10.00">_tag_gstart.h</text>
</a>
</g>
</g>
<!-- Node3&#45;&gt;Node376 -->
<g id="edge28" class="edge">
<title>Node3&#45;&gt;Node376</title>
<path fill="none" stroke="#63b8ff" d="M2659.38,-154.09C2564.6,-149.28 2395.83,-136.99 2254.5,-107 2251.82,-106.43 2249.09,-105.79 2246.35,-105.09"/>
<polygon fill="#63b8ff" stroke="#63b8ff" points="2659.17,-157.59 2669.33,-154.58 2659.52,-150.6 2659.17,-157.59"/>
</g>
<!-- Node377 -->
<g id="node26" class="node">
<title>Node377</title>
<g id="a_node26"><a xlink:href="d__a__tag__howl_8h.html" target="_top" xlink:title=" ">
<polygon fill="white" stroke="#666666" points="2381,-107 2264,-107 2264,-66 2381,-66 2381,-107"/>
<text text-anchor="start" x="2272" y="-95" font-family="Helvetica,sans-Serif" font-size="10.00">include/rel/d/a/tag</text>
<text text-anchor="start" x="2272" y="-84" font-family="Helvetica,sans-Serif" font-size="10.00">/d_a_tag_howl/d_a_tag</text>
<text text-anchor="middle" x="2322.5" y="-73" font-family="Helvetica,sans-Serif" font-size="10.00">_howl.h</text>
</a>
</g>
</g>
<!-- Node3&#45;&gt;Node377 -->
<g id="edge29" class="edge">
<title>Node3&#45;&gt;Node377</title>
<path fill="none" stroke="#63b8ff" d="M2659.24,-149.22C2589.2,-141.18 2481.54,-126.98 2389.5,-107 2386.78,-106.41 2384,-105.77 2381.21,-105.09"/>
<polygon fill="#63b8ff" stroke="#63b8ff" points="2658.74,-152.69 2669.07,-150.34 2659.53,-145.74 2658.74,-152.69"/>
</g>
<!-- Node378 -->
<g id="node27" class="node">
<title>Node378</title>
<g id="a_node27"><a xlink:href="d__a__tag__hstop_8h.html" target="_top" xlink:title=" ">
<polygon fill="white" stroke="#666666" points="2520,-107 2399,-107 2399,-66 2520,-66 2520,-107"/>
<text text-anchor="start" x="2407" y="-95" font-family="Helvetica,sans-Serif" font-size="10.00">include/rel/d/a/tag</text>
<text text-anchor="start" x="2407" y="-84" font-family="Helvetica,sans-Serif" font-size="10.00">/d_a_tag_hstop/d_a_tag</text>
<text text-anchor="middle" x="2459.5" y="-73" font-family="Helvetica,sans-Serif" font-size="10.00">_hstop.h</text>
</a>
</g>
</g>
<!-- Node3&#45;&gt;Node378 -->
<g id="edge30" class="edge">
<title>Node3&#45;&gt;Node378</title>
<path fill="none" stroke="#63b8ff" d="M2684.3,-145.4C2642.91,-135.53 2582.22,-120.8 2529.5,-107 2526.45,-106.2 2523.33,-105.37 2520.17,-104.53"/>
<polygon fill="#63b8ff" stroke="#63b8ff" points="2683.43,-148.79 2693.96,-147.7 2685.05,-141.98 2683.43,-148.79"/>
</g>
<!-- Node379 -->
<g id="node28" class="node">
<title>Node379</title>
<g id="a_node28"><a xlink:href="d__a__tag__mmsg_8h.html" target="_top" xlink:title=" ">
<polygon fill="#fff0f0" stroke="red" points="2662.5,-107 2538.5,-107 2538.5,-66 2662.5,-66 2662.5,-107"/>
<text text-anchor="start" x="2546.5" y="-95" font-family="Helvetica,sans-Serif" font-size="10.00">include/rel/d/a/tag</text>
<text text-anchor="start" x="2546.5" y="-84" font-family="Helvetica,sans-Serif" font-size="10.00">/d_a_tag_mmsg/d_a_tag</text>
<text text-anchor="middle" x="2600.5" y="-73" font-family="Helvetica,sans-Serif" font-size="10.00">_mmsg.h</text>
</a>
</g>
</g>
<!-- Node3&#45;&gt;Node379 -->
<g id="edge31" class="edge">
<title>Node3&#45;&gt;Node379</title>
<path fill="none" stroke="#63b8ff" d="M2706.37,-142.82C2686.9,-132.65 2660.39,-118.8 2638.77,-107.5"/>
<polygon fill="#63b8ff" stroke="#63b8ff" points="2704.56,-145.83 2715.04,-147.36 2707.8,-139.62 2704.56,-145.83"/>
</g>
<!-- Node380 -->
<g id="node29" class="node">
<title>Node380</title>
<g id="a_node29"><a xlink:href="d__cc__mass__s_8cpp.html" target="_top" xlink:title=" ">
<polygon fill="white" stroke="#666666" points="2786,-101.5 2681,-101.5 2681,-71.5 2786,-71.5 2786,-101.5"/>
<text text-anchor="start" x="2689" y="-89.5" font-family="Helvetica,sans-Serif" font-size="10.00">src/d/cc/d_cc_mass</text>
<text text-anchor="middle" x="2733.5" y="-78.5" font-family="Helvetica,sans-Serif" font-size="10.00">_s.cpp</text>
</a>
</g>
</g>
<!-- Node3&#45;&gt;Node380 -->
<g id="edge32" class="edge">
<title>Node3&#45;&gt;Node380</title>
<path fill="none" stroke="#63b8ff" d="M2733.5,-136.89C2733.5,-125.65 2733.5,-111.91 2733.5,-101.77"/>
<polygon fill="#63b8ff" stroke="#63b8ff" points="2730,-136.68 2733.5,-146.68 2737,-136.68 2730,-136.68"/>
</g>
<!-- Node381 -->
<g id="node30" class="node">
<title>Node381</title>
<g id="a_node30"><a xlink:href="d__lib_8cpp.html" target="_top" xlink:title=" ">
<polygon fill="white" stroke="#666666" points="2884.5,-96 2804.5,-96 2804.5,-77 2884.5,-77 2884.5,-96"/>
<text text-anchor="middle" x="2844.5" y="-84" font-family="Helvetica,sans-Serif" font-size="10.00">src/d/d_lib.cpp</text>
</a>
</g>
</g>
<!-- Node3&#45;&gt;Node381 -->
<g id="edge33" class="edge">
<title>Node3&#45;&gt;Node381</title>
<path fill="none" stroke="#63b8ff" d="M2757.23,-142.14C2779.39,-128.27 2811.75,-108 2830.21,-96.45"/>
<polygon fill="#63b8ff" stroke="#63b8ff" points="2755.46,-139.12 2748.84,-147.39 2759.17,-145.05 2755.46,-139.12"/>
</g>
<!-- Node86 -->
<g id="node31" class="node">
<title>Node86</title>
<g id="a_node31"><a xlink:href="f__op__actor_8cpp.html" target="_top" xlink:title=" ">
<polygon fill="white" stroke="#666666" points="939,-96 820,-96 820,-77 939,-77 939,-96"/>
<text text-anchor="middle" x="879.5" y="-84" font-family="Helvetica,sans-Serif" font-size="10.00">src/f_op/f_op_actor.cpp</text>
</a>
</g>
</g>
<!-- Node3&#45;&gt;Node86 -->
<g id="edge34" class="edge">
<title>Node3&#45;&gt;Node86</title>
<path fill="none" stroke="#63b8ff" d="M2659.26,-157.36C2365.79,-158.42 1286.26,-158.64 948.5,-107 933.98,-104.78 918.19,-100.46 905.38,-96.45"/>
<polygon fill="#63b8ff" stroke="#63b8ff" points="2659.09,-160.86 2669.08,-157.33 2659.07,-153.86 2659.09,-160.86"/>
</g>
<!-- Node254&#45;&gt;Node10 -->
<g id="edge7" class="edge">
<title>Node254&#45;&gt;Node10</title>
<path fill="none" stroke="#63b8ff" d="M3476.87,-72.59C3508.67,-60.64 3555.9,-42.9 3588.98,-30.47"/>
<polygon fill="#63b8ff" stroke="#63b8ff" points="3475.85,-69.23 3467.72,-76.02 3478.32,-75.78 3475.85,-69.23"/>
</g>
<!-- Node254&#45;&gt;Node257 -->
<g id="edge8" class="edge">
<title>Node254&#45;&gt;Node257</title>
<path fill="none" stroke="#63b8ff" d="M3483.2,-73.53C3492.77,-70.89 3502.96,-68.22 3512.5,-66 3586.87,-48.69 3674,-33.21 3727.73,-24.21"/>
<polygon fill="#63b8ff" stroke="#63b8ff" points="3482.47,-70.1 3473.79,-76.17 3484.36,-76.84 3482.47,-70.1"/>
</g>
<!-- Node254&#45;&gt;Node103 -->
<g id="edge9" class="edge">
<title>Node254&#45;&gt;Node103</title>
<path fill="none" stroke="#63b8ff" d="M3441.63,-65.39C3441.15,-54.15 3440.55,-40.41 3440.12,-30.27"/>
<polygon fill="#63b8ff" stroke="#63b8ff" points="3438.13,-65.35 3442.05,-75.19 3445.12,-65.04 3438.13,-65.35"/>
</g>
<!-- Node254&#45;&gt;Node176 -->
<g id="edge10" class="edge">
<title>Node254&#45;&gt;Node176</title>
<path fill="none" stroke="#63b8ff" d="M3416.29,-71.15C3394.54,-59.25 3363.76,-42.41 3341.95,-30.47"/>
<polygon fill="#63b8ff" stroke="#63b8ff" points="3414.38,-74.1 3424.83,-75.83 3417.74,-67.96 3414.38,-74.1"/>
</g>
<!-- Node277&#45;&gt;Node176 -->
<g id="edge14" class="edge">
<title>Node277&#45;&gt;Node176</title>
<path fill="none" stroke="#63b8ff" d="M797.9,-68.34C802.14,-67.42 806.37,-66.62 810.5,-66 1061.05,-28.23 2930.62,-17.79 3264.54,-16.22"/>
<polygon fill="#63b8ff" stroke="#63b8ff" points="797.14,-64.93 788.23,-70.67 798.77,-71.74 797.14,-64.93"/>
</g>
<!-- Node383 -->
<g id="node33" class="node">
<title>Node383</title>
<g id="a_node33"><a xlink:href="d__envse_8h.html" target="_top" xlink:title=" ">
<polygon fill="#fff0f0" stroke="red" points="377,-96 274,-96 274,-77 377,-77 377,-96"/>
<text text-anchor="middle" x="325.5" y="-84" font-family="Helvetica,sans-Serif" font-size="10.00">include/d/d_envse.h</text>
</a>
</g>
</g>
<!-- Node382&#45;&gt;Node383 -->
<g id="edge37" class="edge">
<title>Node382&#45;&gt;Node383</title>
<path fill="none" stroke="#63b8ff" d="M325.5,-136.8C325.5,-123.44 325.5,-106.59 325.5,-96.45"/>
<polygon fill="#63b8ff" stroke="#63b8ff" points="322,-136.68 325.5,-146.68 329,-136.68 322,-136.68"/>
</g>
<!-- Node384 -->
<g id="node34" class="node">
<title>Node384</title>
<g id="a_node34"><a xlink:href="d__ky__thunder_8h.html" target="_top" xlink:title=" ">
<polygon fill="#fff0f0" stroke="red" points="519.5,-96 395.5,-96 395.5,-77 519.5,-77 519.5,-96"/>
<text text-anchor="middle" x="457.5" y="-84" font-family="Helvetica,sans-Serif" font-size="10.00">include/d/d_ky_thunder.h</text>
</a>
</g>
</g>
<!-- Node382&#45;&gt;Node384 -->
<g id="edge38" class="edge">
<title>Node382&#45;&gt;Node384</title>
<path fill="none" stroke="#63b8ff" d="M352.59,-142.74C379,-128.83 418.34,-108.12 440.58,-96.41"/>
<polygon fill="#63b8ff" stroke="#63b8ff" points="351.04,-139.6 343.83,-147.35 354.3,-145.79 351.04,-139.6"/>
</g>
<!-- Node385 -->
<g id="node35" class="node">
<title>Node385</title>
<g id="a_node35"><a xlink:href="d__kyeff_8h.html" target="_top" xlink:title=" ">
<polygon fill="#fff0f0" stroke="red" points="97,-96 0,-96 0,-77 97,-77 97,-96"/>
<text text-anchor="middle" x="48.5" y="-84" font-family="Helvetica,sans-Serif" font-size="10.00">include/d/d_kyeff.h</text>
</a>
</g>
</g>
<!-- Node382&#45;&gt;Node385 -->
<g id="edge39" class="edge">
<title>Node382&#45;&gt;Node385</title>
<path fill="none" stroke="#63b8ff" d="M269.13,-145.75C224.66,-136.48 161.24,-122.41 106.5,-107 95.56,-103.92 83.63,-100.01 73.45,-96.5"/>
<polygon fill="#63b8ff" stroke="#63b8ff" points="268.31,-149.15 278.81,-147.75 269.72,-142.3 268.31,-149.15"/>
</g>
<!-- Node386 -->
<g id="node36" class="node">
<title>Node386</title>
<g id="a_node36"><a xlink:href="d__kyeff2_8h.html" target="_top" xlink:title=" ">
<polygon fill="#fff0f0" stroke="red" points="217.5,-96 115.5,-96 115.5,-77 217.5,-77 217.5,-96"/>
<text text-anchor="middle" x="166.5" y="-84" font-family="Helvetica,sans-Serif" font-size="10.00">include/d/d_kyeff2.h</text>
</a>
</g>
</g>
<!-- Node382&#45;&gt;Node386 -->
<g id="edge40" class="edge">
<title>Node382&#45;&gt;Node386</title>
<path fill="none" stroke="#63b8ff" d="M294.55,-143.47C262.75,-129.57 214.15,-108.33 186.88,-96.41"/>
<polygon fill="#63b8ff" stroke="#63b8ff" points="293.09,-146.65 303.65,-147.45 295.89,-140.24 293.09,-146.65"/>
</g>
<!-- Node388 -->
<g id="node37" class="node">
<title>Node388</title>
<g id="a_node37"><a xlink:href="f__op__kankyo__mng_8h.html" target="_top" xlink:title=" ">
<polygon fill="#fff0f0" stroke="red" points="665,-101.5 538,-101.5 538,-71.5 665,-71.5 665,-101.5"/>
<text text-anchor="start" x="546" y="-89.5" font-family="Helvetica,sans-Serif" font-size="10.00">include/f_op/f_op_kankyo</text>
<text text-anchor="middle" x="601.5" y="-78.5" font-family="Helvetica,sans-Serif" font-size="10.00">_mng.h</text>
</a>
</g>
</g>
<!-- Node382&#45;&gt;Node388 -->
<g id="edge41" class="edge">
<title>Node382&#45;&gt;Node388</title>
<path fill="none" stroke="#63b8ff" d="M374.04,-145.33C415.21,-135.36 475.8,-120.53 528.5,-107 534.73,-105.4 541.24,-103.7 547.71,-102"/>
<polygon fill="#63b8ff" stroke="#63b8ff" points="373.34,-141.9 364.44,-147.65 374.98,-148.7 373.34,-141.9"/>
</g>
<!-- Node239 -->
<g id="node38" class="node">
<title>Node239</title>
<g id="a_node38"><a xlink:href="f__op__kankyo_8cpp.html" target="_top" xlink:title=" ">
<polygon fill="white" stroke="#666666" points="487.5,-24.5 359.5,-24.5 359.5,-5.5 487.5,-5.5 487.5,-24.5"/>
<text text-anchor="middle" x="423.5" y="-12.5" font-family="Helvetica,sans-Serif" font-size="10.00">src/f_op/f_op_kankyo.cpp</text>
</a>
</g>
</g>
<!-- Node382&#45;&gt;Node239 -->
<g id="edge43" class="edge">
<title>Node382&#45;&gt;Node239</title>
<path fill="none" stroke="#63b8ff" d="M297.83,-142.05C285.18,-133.6 271.48,-121.75 264.5,-107 256.7,-90.53 253.72,-80.69 264.5,-66 286.16,-36.49 325.23,-23.93 359.23,-18.78"/>
<polygon fill="#63b8ff" stroke="#63b8ff" points="295.96,-145.02 306.31,-147.3 299.65,-139.06 295.96,-145.02"/>
</g>
<!-- Node388&#45;&gt;Node239 -->
<g id="edge42" class="edge">
<title>Node388&#45;&gt;Node239</title>
<path fill="none" stroke="#63b8ff" d="M554.2,-67.03C519.41,-53.45 473.62,-35.57 446.5,-24.98"/>
<polygon fill="#63b8ff" stroke="#63b8ff" points="552.62,-70.17 563.21,-70.55 555.17,-63.65 552.62,-70.17"/>
</g>
<!-- Node392 -->
<g id="node40" class="node">
<title>Node392</title>
<g id="a_node40"><a xlink:href="d__gameover_8h.html" target="_top" xlink:title=" ">
<polygon fill="#fff0f0" stroke="red" points="4213,-96 4094,-96 4094,-77 4213,-77 4213,-96"/>
<text text-anchor="middle" x="4153.5" y="-84" font-family="Helvetica,sans-Serif" font-size="10.00">include/d/d_gameover.h</text>
</a>
</g>
</g>
<!-- Node391&#45;&gt;Node392 -->
<g id="edge45" class="edge">
<title>Node391&#45;&gt;Node392</title>
<path fill="none" stroke="#63b8ff" d="M3632.09,-145.99C3638.27,-144.87 3644.52,-143.84 3650.5,-143 3842.16,-115.98 3894.04,-141.48 4084.5,-107 4098.59,-104.45 4113.94,-100.26 4126.58,-96.41"/>
<polygon fill="#63b8ff" stroke="#63b8ff" points="3631.75,-142.49 3622.57,-147.78 3633.04,-149.37 3631.75,-142.49"/>
</g>
<!-- Node60 -->
<g id="node41" class="node">
<title>Node60</title>
<g id="a_node41"><a xlink:href="d__timer_8h.html" target="_top" xlink:title=" ">
<polygon fill="#fff0f0" stroke="red" points="4329.5,-96 4231.5,-96 4231.5,-77 4329.5,-77 4329.5,-96"/>
<text text-anchor="middle" x="4280.5" y="-84" font-family="Helvetica,sans-Serif" font-size="10.00">include/d/d_timer.h</text>
</a>
</g>
</g>
<!-- Node391&#45;&gt;Node60 -->
<g id="edge46" class="edge">
<title>Node391&#45;&gt;Node60</title>
<path fill="none" stroke="#63b8ff" d="M3631.6,-145.96C3637.94,-144.83 3644.36,-143.8 3650.5,-143 3903.07,-109.95 3972.53,-156.01 4222.5,-107 4234.59,-104.63 4247.64,-100.4 4258.28,-96.49"/>
<polygon fill="#63b8ff" stroke="#63b8ff" points="3630.99,-142.51 3621.81,-147.79 3632.29,-149.39 3630.99,-142.51"/>
</g>
<!-- Node397&#45;&gt;Node392 -->
<g id="edge48" class="edge">
<title>Node397&#45;&gt;Node392</title>
<path fill="none" stroke="#63b8ff" d="M3512.19,-142.94C3765.79,-109.92 3836.1,-149.39 4084.5,-107 4098.73,-104.57 4114.24,-100.34 4126.93,-96.44"/>
<polygon fill="#63b8ff" stroke="#63b8ff" points="3512.1,-139.42 3502.65,-144.21 3513.03,-146.36 3512.1,-139.42"/>
</g>
<!-- Node437&#45;&gt;Node277 -->
<g id="edge52" class="edge">
<title>Node437&#45;&gt;Node277</title>
<path fill="none" stroke="#63b8ff" d="M794.7,-140.08C783.05,-128.35 767.71,-112.89 756.67,-101.77"/>
<polygon fill="#63b8ff" stroke="#63b8ff" points="792.17,-142.49 801.69,-147.12 797.13,-137.56 792.17,-142.49"/>
</g>
<!-- Node437&#45;&gt;Node86 -->
<g id="edge54" class="edge">
<title>Node437&#45;&gt;Node86</title>
<path fill="none" stroke="#63b8ff" d="M828.11,-140.03C841.57,-126.27 860,-107.43 870.74,-96.45"/>
<polygon fill="#63b8ff" stroke="#63b8ff" points="825.66,-137.52 821.17,-147.12 830.67,-142.42 825.66,-137.52"/>
</g>
<!-- Node437&#45;&gt;Node388 -->
<g id="edge53" class="edge">
<title>Node437&#45;&gt;Node388</title>
<path fill="none" stroke="#63b8ff" d="M773.9,-144.56C737.79,-132.61 683.26,-114.56 645.23,-101.97"/>
<polygon fill="#63b8ff" stroke="#63b8ff" points="772.45,-147.76 783.04,-147.58 774.65,-141.12 772.45,-147.76"/>
</g>
</g>
</svg>
