<?xml version="1.0" encoding="UTF-8" standalone="no"?>
<!DOCTYPE svg PUBLIC "-//W3C//DTD SVG 1.1//EN"
 "http://www.w3.org/Graphics/SVG/1.1/DTD/svg11.dtd">
<!-- Generated by graphviz version 7.0.5 (20221223.1930)
 -->
<!-- Title: src/f_pc/f_pc_executor.cpp Pages: 1 -->
<svg width="980pt" height="445pt"
 viewBox="0.00 0.00 980.00 445.00" xmlns="http://www.w3.org/2000/svg" xmlns:xlink="http://www.w3.org/1999/xlink">
<g id="graph0" class="graph" transform="scale(1 1) rotate(0) translate(4 441)">
<title>src/f_pc/f_pc_executor.cpp</title>
<!-- Node1 -->
<g id="node1" class="node">
<title>Node1</title>
<g id="a_node1"><a xlink:title=" ">
<polygon fill="#999999" stroke="#666666" points="301,-437 167,-437 167,-418 301,-418 301,-437"/>
<text text-anchor="middle" x="234" y="-425" font-family="Helvetica,sans-Serif" font-size="10.00">src/f_pc/f_pc_executor.cpp</text>
</a>
</g>
</g>
<!-- Node2 -->
<g id="node2" class="node">
<title>Node2</title>
<g id="a_node2"><a xlink:href="f__pc__executor_8h.html" target="_top" xlink:title=" ">
<polygon fill="white" stroke="#666666" points="121.5,-382 14.5,-382 14.5,-363 121.5,-363 121.5,-382"/>
<text text-anchor="middle" x="68" y="-370" font-family="Helvetica,sans-Serif" font-size="10.00">f_pc/f_pc_executor.h</text>
</a>
</g>
</g>
<!-- Node1&#45;&gt;Node2 -->
<g id="edge1" class="edge">
<title>Node1&#45;&gt;Node2</title>
<path fill="none" stroke="#63b8ff" d="M205.84,-417.51C178.57,-408.8 137.01,-395.53 106.65,-385.84"/>
<polygon fill="#63b8ff" stroke="#63b8ff" points="108.05,-382.61 97.46,-382.91 105.92,-389.28 108.05,-382.61"/>
</g>
<!-- Node7 -->
<g id="node7" class="node">
<title>Node7</title>
<g id="a_node7"><a xlink:href="f__pc__node_8h.html" target="_top" xlink:title=" ">
<polygon fill="white" stroke="#666666" points="442.5,-382 351.5,-382 351.5,-363 442.5,-363 442.5,-382"/>
<text text-anchor="middle" x="397" y="-370" font-family="Helvetica,sans-Serif" font-size="10.00">f_pc/f_pc_node.h</text>
</a>
</g>
</g>
<!-- Node1&#45;&gt;Node7 -->
<g id="edge6" class="edge">
<title>Node1&#45;&gt;Node7</title>
<path fill="none" stroke="#63b8ff" d="M261.65,-417.51C288.31,-408.84 328.88,-395.65 358.66,-385.97"/>
<polygon fill="#63b8ff" stroke="#63b8ff" points="359.62,-389.33 368.05,-382.91 357.45,-382.68 359.62,-389.33"/>
</g>
<!-- Node21 -->
<g id="node21" class="node">
<title>Node21</title>
<g id="a_node21"><a xlink:href="f__pc__pause_8h.html" target="_top" xlink:title=" ">
<polygon fill="white" stroke="#666666" points="293,-217 197,-217 197,-198 293,-198 293,-217"/>
<text text-anchor="middle" x="245" y="-205" font-family="Helvetica,sans-Serif" font-size="10.00">f_pc/f_pc_pause.h</text>
</a>
</g>
</g>
<!-- Node1&#45;&gt;Node21 -->
<g id="edge28" class="edge">
<title>Node1&#45;&gt;Node21</title>
<path fill="none" stroke="#63b8ff" d="M239.84,-417.76C245.25,-409.1 252.9,-395.26 256,-382 268.73,-327.51 257.26,-260.95 249.95,-228.38"/>
<polygon fill="#63b8ff" stroke="#63b8ff" points="253.39,-227.71 247.68,-218.79 246.58,-229.32 253.39,-227.71"/>
</g>
<!-- Node22 -->
<g id="node22" class="node">
<title>Node22</title>
<g id="a_node22"><a xlink:href="f__pc__searcher_8h.html" target="_top" xlink:title=" ">
<polygon fill="white" stroke="#666666" points="246.5,-382 139.5,-382 139.5,-363 246.5,-363 246.5,-382"/>
<text text-anchor="middle" x="193" y="-370" font-family="Helvetica,sans-Serif" font-size="10.00">f_pc/f_pc_searcher.h</text>
</a>
</g>
</g>
<!-- Node1&#45;&gt;Node22 -->
<g id="edge30" class="edge">
<title>Node1&#45;&gt;Node22</title>
<path fill="none" stroke="#63b8ff" d="M227.23,-417.75C221.68,-410.58 213.66,-400.2 206.77,-391.3"/>
<polygon fill="#63b8ff" stroke="#63b8ff" points="209.73,-389.41 200.84,-383.64 204.19,-393.69 209.73,-389.41"/>
</g>
<!-- Node3 -->
<g id="node3" class="node">
<title>Node3</title>
<g id="a_node3"><a xlink:href="f__pc__layer__iter_8h.html" target="_top" xlink:title=" ">
<polygon fill="white" stroke="#666666" points="231.5,-327 122.5,-327 122.5,-308 231.5,-308 231.5,-327"/>
<text text-anchor="middle" x="177" y="-315" font-family="Helvetica,sans-Serif" font-size="10.00">f_pc/f_pc_layer_iter.h</text>
</a>
</g>
</g>
<!-- Node2&#45;&gt;Node3 -->
<g id="edge2" class="edge">
<title>Node2&#45;&gt;Node3</title>
<path fill="none" stroke="#63b8ff" d="M86.49,-362.51C103.5,-354.24 128.99,-341.84 148.59,-332.31"/>
<polygon fill="#63b8ff" stroke="#63b8ff" points="149.96,-335.54 157.42,-328.02 146.9,-329.25 149.96,-335.54"/>
</g>
<!-- Node6 -->
<g id="node6" class="node">
<title>Node6</title>
<g id="a_node6"><a xlink:href="f__pc__line__iter_8h.html" target="_top" xlink:title=" ">
<polygon fill="white" stroke="#666666" points="104,-327 0,-327 0,-308 104,-308 104,-327"/>
<text text-anchor="middle" x="52" y="-315" font-family="Helvetica,sans-Serif" font-size="10.00">f_pc/f_pc_line_iter.h</text>
</a>
</g>
</g>
<!-- Node2&#45;&gt;Node6 -->
<g id="edge5" class="edge">
<title>Node2&#45;&gt;Node6</title>
<path fill="none" stroke="#63b8ff" d="M65.36,-362.75C63.36,-356.11 60.52,-346.73 57.98,-338.31"/>
<polygon fill="#63b8ff" stroke="#63b8ff" points="61.38,-337.45 55.14,-328.89 54.68,-339.48 61.38,-337.45"/>
</g>
<!-- Node4 -->
<g id="node4" class="node">
<title>Node4</title>
<g id="a_node4"><a xlink:href="types_8h.html" target="_top" xlink:title=" ">
<polygon fill="white" stroke="#666666" points="402.5,-90.5 321.5,-90.5 321.5,-71.5 402.5,-71.5 402.5,-90.5"/>
<text text-anchor="middle" x="362" y="-78.5" font-family="Helvetica,sans-Serif" font-size="10.00">dolphin/types.h</text>
</a>
</g>
</g>
<!-- Node3&#45;&gt;Node4 -->
<g id="edge3" class="edge">
<title>Node3&#45;&gt;Node4</title>
<path fill="none" stroke="#63b8ff" d="M176.08,-307.74C174.3,-287.5 171.9,-236.28 188,-198 202.91,-162.54 213.01,-154.79 244,-132 266.75,-115.27 295.94,-102.84 319.6,-94.56"/>
<polygon fill="#63b8ff" stroke="#63b8ff" points="320.57,-97.93 328.94,-91.42 318.34,-91.29 320.57,-97.93"/>
</g>
<!-- Node5 -->
<g id="node5" class="node">
<title>Node5</title>
<g id="a_node5"><a xlink:href="stddef_8h.html" target="_top" xlink:title=" ">
<polygon fill="white" stroke="#666666" points="430,-30 294,-30 294,0 430,0 430,-30"/>
<text text-anchor="start" x="302" y="-18" font-family="Helvetica,sans-Serif" font-size="10.00">MSL_C/MSL_Common/Src</text>
<text text-anchor="middle" x="362" y="-7" font-family="Helvetica,sans-Serif" font-size="10.00">/stddef.h</text>
</a>
</g>
</g>
<!-- Node4&#45;&gt;Node5 -->
<g id="edge4" class="edge">
<title>Node4&#45;&gt;Node5</title>
<path fill="none" stroke="#63b8ff" d="M362,-71.1C362,-63.41 362,-51.92 362,-41.42"/>
<polygon fill="#63b8ff" stroke="#63b8ff" points="365.5,-41.75 362,-31.75 358.5,-41.75 365.5,-41.75"/>
</g>
<!-- Node8 -->
<g id="node8" class="node">
<title>Node8</title>
<g id="a_node8"><a xlink:href="f__pc__base_8h.html" target="_top" xlink:title=" ">
<polygon fill="white" stroke="#666666" points="538.5,-327 447.5,-327 447.5,-308 538.5,-308 538.5,-327"/>
<text text-anchor="middle" x="493" y="-315" font-family="Helvetica,sans-Serif" font-size="10.00">f_pc/f_pc_base.h</text>
</a>
</g>
</g>
<!-- Node7&#45;&gt;Node8 -->
<g id="edge7" class="edge">
<title>Node7&#45;&gt;Node8</title>
<path fill="none" stroke="#63b8ff" d="M413.29,-362.51C427.99,-354.39 449.89,-342.3 467.02,-332.85"/>
<polygon fill="#63b8ff" stroke="#63b8ff" points="468.57,-335.99 475.63,-328.09 465.18,-329.86 468.57,-335.99"/>
</g>
<!-- Node16 -->
<g id="node16" class="node">
<title>Node16</title>
<g id="a_node16"><a xlink:href="f__pc__layer_8h.html" target="_top" xlink:title=" ">
<polygon fill="white" stroke="#666666" points="825,-156.5 735,-156.5 735,-137.5 825,-137.5 825,-156.5"/>
<text text-anchor="middle" x="780" y="-144.5" font-family="Helvetica,sans-Serif" font-size="10.00">f_pc/f_pc_layer.h</text>
</a>
</g>
</g>
<!-- Node7&#45;&gt;Node16 -->
<g id="edge19" class="edge">
<title>Node7&#45;&gt;Node16</title>
<path fill="none" stroke="#63b8ff" d="M442.85,-368.1C544.85,-359.47 785.35,-332.97 834,-272 860.59,-238.67 822.29,-190.23 797.77,-164.89"/>
<polygon fill="#63b8ff" stroke="#63b8ff" points="800.43,-162.6 790.88,-158.02 795.49,-167.56 800.43,-162.6"/>
</g>
<!-- Node19 -->
<g id="node19" class="node">
<title>Node19</title>
<g id="a_node19"><a xlink:href="f__pc__method_8h.html" target="_top" xlink:title=" ">
<polygon fill="white" stroke="#666666" points="373,-156.5 271,-156.5 271,-137.5 373,-137.5 373,-156.5"/>
<text text-anchor="middle" x="322" y="-144.5" font-family="Helvetica,sans-Serif" font-size="10.00">f_pc/f_pc_method.h</text>
</a>
</g>
</g>
<!-- Node7&#45;&gt;Node19 -->
<g id="edge24" class="edge">
<title>Node7&#45;&gt;Node19</title>
<path fill="none" stroke="#63b8ff" d="M393.47,-362.53C384.23,-338.92 358.83,-273 341,-217 335.81,-200.68 330.7,-181.94 327.09,-168.11"/>
<polygon fill="#63b8ff" stroke="#63b8ff" points="330.49,-167.28 324.61,-158.46 323.71,-169.02 330.49,-167.28"/>
</g>
<!-- Node20 -->
<g id="node20" class="node">
<title>Node20</title>
<g id="a_node20"><a xlink:href="f__pc__profile_8h.html" target="_top" xlink:title=" ">
<polygon fill="white" stroke="#666666" points="444.5,-217 349.5,-217 349.5,-198 444.5,-198 444.5,-217"/>
<text text-anchor="middle" x="397" y="-205" font-family="Helvetica,sans-Serif" font-size="10.00">f_pc/f_pc_profile.h</text>
</a>
</g>
</g>
<!-- Node7&#45;&gt;Node20 -->
<g id="edge26" class="edge">
<title>Node7&#45;&gt;Node20</title>
<path fill="none" stroke="#63b8ff" d="M397,-362.74C397,-337.53 397,-264.36 397,-228.62"/>
<polygon fill="#63b8ff" stroke="#63b8ff" points="400.5,-228.82 397,-218.82 393.5,-228.82 400.5,-228.82"/>
</g>
<!-- Node9 -->
<g id="node9" class="node">
<title>Node9</title>
<g id="a_node9"><a xlink:href="f__pc__delete__tag_8h.html" target="_top" xlink:title=" ">
<polygon fill="white" stroke="#666666" points="697.5,-272 582.5,-272 582.5,-253 697.5,-253 697.5,-272"/>
<text text-anchor="middle" x="640" y="-260" font-family="Helvetica,sans-Serif" font-size="10.00">f_pc/f_pc_delete_tag.h</text>
</a>
</g>
</g>
<!-- Node8&#45;&gt;Node9 -->
<g id="edge8" class="edge">
<title>Node8&#45;&gt;Node9</title>
<path fill="none" stroke="#63b8ff" d="M517.94,-307.51C541.84,-298.89 578.14,-285.8 604.95,-276.14"/>
<polygon fill="#63b8ff" stroke="#63b8ff" points="605.79,-279.56 614.01,-272.87 603.41,-272.97 605.79,-279.56"/>
</g>
<!-- Node12 -->
<g id="node12" class="node">
<title>Node12</title>
<g id="a_node12"><a xlink:href="f__pc__layer__tag_8h.html" target="_top" xlink:title=" ">
<polygon fill="white" stroke="#666666" points="824.5,-272 715.5,-272 715.5,-253 824.5,-253 824.5,-272"/>
<text text-anchor="middle" x="770" y="-260" font-family="Helvetica,sans-Serif" font-size="10.00">f_pc/f_pc_layer_tag.h</text>
</a>
</g>
</g>
<!-- Node8&#45;&gt;Node12 -->
<g id="edge12" class="edge">
<title>Node8&#45;&gt;Node12</title>
<path fill="none" stroke="#63b8ff" d="M538.74,-307.75C586.17,-298.67 660.46,-284.46 711.99,-274.6"/>
<polygon fill="#63b8ff" stroke="#63b8ff" points="712.61,-278.04 721.78,-272.73 711.3,-271.17 712.61,-278.04"/>
</g>
<!-- Node13 -->
<g id="node13" class="node">
<title>Node13</title>
<g id="a_node13"><a xlink:href="f__pc__line__tag_8h.html" target="_top" xlink:title=" ">
<polygon fill="white" stroke="#666666" points="567,-217 463,-217 463,-198 567,-198 567,-217"/>
<text text-anchor="middle" x="515" y="-205" font-family="Helvetica,sans-Serif" font-size="10.00">f_pc/f_pc_line_tag.h</text>
</a>
</g>
</g>
<!-- Node8&#45;&gt;Node13 -->
<g id="edge14" class="edge">
<title>Node8&#45;&gt;Node13</title>
<path fill="none" stroke="#63b8ff" d="M481.76,-307.63C467.85,-295.52 447.13,-273 457,-253 463.17,-240.5 474.72,-230.53 485.9,-223.23"/>
<polygon fill="#63b8ff" stroke="#63b8ff" points="487.4,-226.41 494.18,-218.28 483.8,-220.4 487.4,-226.41"/>
</g>
<!-- Node14 -->
<g id="node14" class="node">
<title>Node14</title>
<g id="a_node14"><a xlink:href="f__pc__priority_8h.html" target="_top" xlink:title=" ">
<polygon fill="white" stroke="#666666" points="564,-272 466,-272 466,-253 564,-253 564,-272"/>
<text text-anchor="middle" x="515" y="-260" font-family="Helvetica,sans-Serif" font-size="10.00">f_pc/f_pc_priority.h</text>
</a>
</g>
</g>
<!-- Node8&#45;&gt;Node14 -->
<g id="edge16" class="edge">
<title>Node8&#45;&gt;Node14</title>
<path fill="none" stroke="#63b8ff" d="M496.63,-307.75C499.42,-301.04 503.37,-291.52 506.9,-283.02"/>
<polygon fill="#63b8ff" stroke="#63b8ff" points="510.11,-284.42 510.71,-273.84 503.64,-281.73 510.11,-284.42"/>
</g>
<!-- Node10 -->
<g id="node10" class="node">
<title>Node10</title>
<g id="a_node10"><a xlink:href="c__tag_8h.html" target="_top" xlink:title=" ">
<polygon fill="white" stroke="#666666" points="704,-162 588,-162 588,-132 704,-132 704,-162"/>
<text text-anchor="start" x="596" y="-150" font-family="Helvetica,sans-Serif" font-size="10.00">SSystem/SComponent</text>
<text text-anchor="middle" x="646" y="-139" font-family="Helvetica,sans-Serif" font-size="10.00">/c_tag.h</text>
</a>
</g>
</g>
<!-- Node9&#45;&gt;Node10 -->
<g id="edge9" class="edge">
<title>Node9&#45;&gt;Node10</title>
<path fill="none" stroke="#63b8ff" d="M669.15,-252.62C686.07,-245.79 705.96,-234.51 716,-217 726.99,-197.83 708.95,-180.4 688.44,-167.85"/>
<polygon fill="#63b8ff" stroke="#63b8ff" points="690.35,-164.91 679.93,-163.02 686.9,-171 690.35,-164.91"/>
</g>
<!-- Node10&#45;&gt;Node4 -->
<g id="edge11" class="edge">
<title>Node10&#45;&gt;Node4</title>
<path fill="none" stroke="#63b8ff" d="M587.84,-132.89C536.35,-121.29 461.95,-104.52 412.81,-93.45"/>
<polygon fill="#63b8ff" stroke="#63b8ff" points="413.81,-90.09 403.28,-91.3 412.27,-96.92 413.81,-90.09"/>
</g>
<!-- Node11 -->
<g id="node11" class="node">
<title>Node11</title>
<g id="a_node11"><a xlink:href="c__node_8h.html" target="_top" xlink:title=" ">
<polygon fill="white" stroke="#666666" points="704,-96 588,-96 588,-66 704,-66 704,-96"/>
<text text-anchor="start" x="596" y="-84" font-family="Helvetica,sans-Serif" font-size="10.00">SSystem/SComponent</text>
<text text-anchor="middle" x="646" y="-73" font-family="Helvetica,sans-Serif" font-size="10.00">/c_node.h</text>
</a>
</g>
</g>
<!-- Node10&#45;&gt;Node11 -->
<g id="edge10" class="edge">
<title>Node10&#45;&gt;Node11</title>
<path fill="none" stroke="#63b8ff" d="M646,-131.8C646,-124.67 646,-115.82 646,-107.56"/>
<polygon fill="#63b8ff" stroke="#63b8ff" points="649.5,-107.68 646,-97.68 642.5,-107.68 649.5,-107.68"/>
</g>
<!-- Node12&#45;&gt;Node10 -->
<g id="edge13" class="edge">
<title>Node12&#45;&gt;Node10</title>
<path fill="none" stroke="#63b8ff" d="M766.32,-252.78C760.43,-239.63 747.81,-214.49 731,-198 718.69,-185.92 702.9,-175.6 688.28,-167.53"/>
<polygon fill="#63b8ff" stroke="#63b8ff" points="690.22,-164.6 679.74,-163.02 686.95,-170.79 690.22,-164.6"/>
</g>
<!-- Node13&#45;&gt;Node10 -->
<g id="edge15" class="edge">
<title>Node13&#45;&gt;Node10</title>
<path fill="none" stroke="#63b8ff" d="M534.9,-197.62C553.02,-189.52 580.39,-177.3 603.43,-167.01"/>
<polygon fill="#63b8ff" stroke="#63b8ff" points="604.58,-170.33 612.28,-163.06 601.73,-163.94 604.58,-170.33"/>
</g>
<!-- Node15 -->
<g id="node15" class="node">
<title>Node15</title>
<g id="a_node15"><a xlink:href="f__pc__method__tag_8h.html" target="_top" xlink:title=" ">
<polygon fill="white" stroke="#666666" points="706.5,-217 585.5,-217 585.5,-198 706.5,-198 706.5,-217"/>
<text text-anchor="middle" x="646" y="-205" font-family="Helvetica,sans-Serif" font-size="10.00">f_pc/f_pc_method_tag.h</text>
</a>
</g>
</g>
<!-- Node14&#45;&gt;Node15 -->
<g id="edge17" class="edge">
<title>Node14&#45;&gt;Node15</title>
<path fill="none" stroke="#63b8ff" d="M537.22,-252.51C558.14,-244.04 589.73,-231.27 613.48,-221.66"/>
<polygon fill="#63b8ff" stroke="#63b8ff" points="614.75,-224.92 622.7,-217.93 612.12,-218.43 614.75,-224.92"/>
</g>
<!-- Node15&#45;&gt;Node10 -->
<g id="edge18" class="edge">
<title>Node15&#45;&gt;Node10</title>
<path fill="none" stroke="#63b8ff" d="M646,-197.87C646,-191.4 646,-182.2 646,-173.45"/>
<polygon fill="#63b8ff" stroke="#63b8ff" points="649.5,-173.63 646,-163.63 642.5,-173.63 649.5,-173.63"/>
</g>
<!-- Node16&#45;&gt;Node4 -->
<g id="edge23" class="edge">
<title>Node16&#45;&gt;Node4</title>
<path fill="none" stroke="#63b8ff" d="M739.34,-137.06C730.66,-135.28 721.54,-133.5 713,-132 607.41,-113.47 483.02,-97.01 414.29,-88.38"/>
<polygon fill="#63b8ff" stroke="#63b8ff" points="414.8,-84.91 404.44,-87.15 413.93,-91.86 414.8,-84.91"/>
</g>
<!-- Node16&#45;&gt;Node11 -->
<g id="edge21" class="edge">
<title>Node16&#45;&gt;Node11</title>
<path fill="none" stroke="#63b8ff" d="M761.37,-137.1C742.11,-127.9 711.45,-113.26 686.57,-101.38"/>
<polygon fill="#63b8ff" stroke="#63b8ff" points="688.21,-98.28 677.68,-97.13 685.19,-104.6 688.21,-98.28"/>
</g>
<!-- Node17 -->
<g id="node17" class="node">
<title>Node17</title>
<g id="a_node17"><a xlink:href="c__list_8h.html" target="_top" xlink:title=" ">
<polygon fill="white" stroke="#666666" points="838,-96 722,-96 722,-66 838,-66 838,-96"/>
<text text-anchor="start" x="730" y="-84" font-family="Helvetica,sans-Serif" font-size="10.00">SSystem/SComponent</text>
<text text-anchor="middle" x="780" y="-73" font-family="Helvetica,sans-Serif" font-size="10.00">/c_list.h</text>
</a>
</g>
</g>
<!-- Node16&#45;&gt;Node17 -->
<g id="edge20" class="edge">
<title>Node16&#45;&gt;Node17</title>
<path fill="none" stroke="#63b8ff" d="M780,-137.1C780,-129.41 780,-117.92 780,-107.42"/>
<polygon fill="#63b8ff" stroke="#63b8ff" points="783.5,-107.75 780,-97.75 776.5,-107.75 783.5,-107.75"/>
</g>
<!-- Node18 -->
<g id="node18" class="node">
<title>Node18</title>
<g id="a_node18"><a xlink:href="c__tree_8h.html" target="_top" xlink:title=" ">
<polygon fill="white" stroke="#666666" points="972,-96 856,-96 856,-66 972,-66 972,-96"/>
<text text-anchor="start" x="864" y="-84" font-family="Helvetica,sans-Serif" font-size="10.00">SSystem/SComponent</text>
<text text-anchor="middle" x="914" y="-73" font-family="Helvetica,sans-Serif" font-size="10.00">/c_tree.h</text>
</a>
</g>
</g>
<!-- Node16&#45;&gt;Node18 -->
<g id="edge22" class="edge">
<title>Node16&#45;&gt;Node18</title>
<path fill="none" stroke="#63b8ff" d="M798.63,-137.1C817.89,-127.9 848.55,-113.26 873.43,-101.38"/>
<polygon fill="#63b8ff" stroke="#63b8ff" points="874.81,-104.6 882.32,-97.13 871.79,-98.28 874.81,-104.6"/>
</g>
<!-- Node19&#45;&gt;Node4 -->
<g id="edge25" class="edge">
<title>Node19&#45;&gt;Node4</title>
<path fill="none" stroke="#63b8ff" d="M327.56,-137.1C333.47,-127.64 342.99,-112.42 350.52,-100.37"/>
<polygon fill="#63b8ff" stroke="#63b8ff" points="353.35,-102.44 355.68,-92.11 347.42,-98.73 353.35,-102.44"/>
</g>
<!-- Node20&#45;&gt;Node4 -->
<g id="edge27" class="edge">
<title>Node20&#45;&gt;Node4</title>
<path fill="none" stroke="#63b8ff" d="M395.75,-197.66C393.65,-183.57 388.93,-155.27 382,-132 378.88,-121.54 374.45,-110.23 370.55,-101.01"/>
<polygon fill="#63b8ff" stroke="#63b8ff" points="373.85,-99.83 366.64,-92.07 367.44,-102.63 373.85,-99.83"/>
</g>
<!-- Node21&#45;&gt;Node4 -->
<g id="edge29" class="edge">
<title>Node21&#45;&gt;Node4</title>
<path fill="none" stroke="#63b8ff" d="M244.7,-197.67C244.65,-182.6 246.6,-151.61 262,-132 275.76,-114.48 297.27,-102.62 316.83,-94.87"/>
<polygon fill="#63b8ff" stroke="#63b8ff" points="317.83,-98.23 326.01,-91.5 315.41,-91.66 317.83,-98.23"/>
</g>
<!-- Node22&#45;&gt;Node3 -->
<g id="edge32" class="edge">
<title>Node22&#45;&gt;Node3</title>
<path fill="none" stroke="#63b8ff" d="M190.36,-362.75C188.36,-356.11 185.52,-346.73 182.98,-338.31"/>
<polygon fill="#63b8ff" stroke="#63b8ff" points="186.38,-337.45 180.14,-328.89 179.68,-339.48 186.38,-337.45"/>
</g>
<!-- Node22&#45;&gt;Node8 -->
<g id="edge31" class="edge">
<title>Node22&#45;&gt;Node8</title>
<path fill="none" stroke="#63b8ff" d="M243.89,-362.51C297.22,-353.09 380.81,-338.32 436.24,-328.53"/>
<polygon fill="#63b8ff" stroke="#63b8ff" points="436.55,-332.03 445.79,-326.84 435.33,-325.13 436.55,-332.03"/>
</g>
</g>
</svg>
