<?xml version="1.0" encoding="UTF-8" standalone="no"?>
<!DOCTYPE svg PUBLIC "-//W3C//DTD SVG 1.1//EN"
 "http://www.w3.org/Graphics/SVG/1.1/DTD/svg11.dtd">
<!-- Generated by graphviz version 7.0.5 (20221223.1930)
 -->
<!-- Title: src/f_pc/f_pc_method_tag.cpp Pages: 1 -->
<svg width="251pt" height="291pt"
 viewBox="0.00 0.00 251.00 291.00" xmlns="http://www.w3.org/2000/svg" xmlns:xlink="http://www.w3.org/1999/xlink">
<g id="graph0" class="graph" transform="scale(1 1) rotate(0) translate(4 287)">
<title>src/f_pc/f_pc_method_tag.cpp</title>
<!-- Node1 -->
<g id="node1" class="node">
<title>Node1</title>
<g id="a_node1"><a xlink:title=" ">
<polygon fill="#999999" stroke="#666666" points="171.5,-283 60.5,-283 60.5,-253 171.5,-253 171.5,-283"/>
<text text-anchor="start" x="68.5" y="-271" font-family="Helvetica,sans-Serif" font-size="10.00">src/f_pc/f_pc_method</text>
<text text-anchor="middle" x="116" y="-260" font-family="Helvetica,sans-Serif" font-size="10.00">_tag.cpp</text>
</a>
</g>
</g>
<!-- Node2 -->
<g id="node2" class="node">
<title>Node2</title>
<g id="a_node2"><a xlink:href="f__pc__method__tag_8h.html" target="_top" xlink:title=" ">
<polygon fill="white" stroke="#666666" points="176.5,-217 55.5,-217 55.5,-198 176.5,-198 176.5,-217"/>
<text text-anchor="middle" x="116" y="-205" font-family="Helvetica,sans-Serif" font-size="10.00">f_pc/f_pc_method_tag.h</text>
</a>
</g>
</g>
<!-- Node1&#45;&gt;Node2 -->
<g id="edge1" class="edge">
<title>Node1&#45;&gt;Node2</title>
<path fill="none" stroke="#63b8ff" d="M116,-252.54C116,-245.34 116,-236.53 116,-228.68"/>
<polygon fill="#63b8ff" stroke="#63b8ff" points="119.5,-228.69 116,-218.69 112.5,-228.69 119.5,-228.69"/>
</g>
<!-- Node3 -->
<g id="node3" class="node">
<title>Node3</title>
<g id="a_node3"><a xlink:href="c__tag_8h.html" target="_top" xlink:title=" ">
<polygon fill="white" stroke="#666666" points="174,-162 58,-162 58,-132 174,-132 174,-162"/>
<text text-anchor="start" x="66" y="-150" font-family="Helvetica,sans-Serif" font-size="10.00">SSystem/SComponent</text>
<text text-anchor="middle" x="116" y="-139" font-family="Helvetica,sans-Serif" font-size="10.00">/c_tag.h</text>
</a>
</g>
</g>
<!-- Node2&#45;&gt;Node3 -->
<g id="edge2" class="edge">
<title>Node2&#45;&gt;Node3</title>
<path fill="none" stroke="#63b8ff" d="M116,-197.87C116,-191.4 116,-182.2 116,-173.45"/>
<polygon fill="#63b8ff" stroke="#63b8ff" points="119.5,-173.63 116,-163.63 112.5,-173.63 119.5,-173.63"/>
</g>
<!-- Node4 -->
<g id="node4" class="node">
<title>Node4</title>
<g id="a_node4"><a xlink:href="c__node_8h.html" target="_top" xlink:title=" ">
<polygon fill="white" stroke="#666666" points="116,-96 0,-96 0,-66 116,-66 116,-96"/>
<text text-anchor="start" x="8" y="-84" font-family="Helvetica,sans-Serif" font-size="10.00">SSystem/SComponent</text>
<text text-anchor="middle" x="58" y="-73" font-family="Helvetica,sans-Serif" font-size="10.00">/c_node.h</text>
</a>
</g>
</g>
<!-- Node3&#45;&gt;Node4 -->
<g id="edge3" class="edge">
<title>Node3&#45;&gt;Node4</title>
<path fill="none" stroke="#63b8ff" d="M103.13,-131.8C95.84,-123.76 86.57,-113.53 78.33,-104.43"/>
<polygon fill="#63b8ff" stroke="#63b8ff" points="81.16,-102.35 71.85,-97.29 75.97,-107.05 81.16,-102.35"/>
</g>
<!-- Node5 -->
<g id="node5" class="node">
<title>Node5</title>
<g id="a_node5"><a xlink:href="types_8h.html" target="_top" xlink:title=" ">
<polygon fill="white" stroke="#666666" points="215.5,-90.5 134.5,-90.5 134.5,-71.5 215.5,-71.5 215.5,-90.5"/>
<text text-anchor="middle" x="175" y="-78.5" font-family="Helvetica,sans-Serif" font-size="10.00">dolphin/types.h</text>
</a>
</g>
</g>
<!-- Node3&#45;&gt;Node5 -->
<g id="edge4" class="edge">
<title>Node3&#45;&gt;Node5</title>
<path fill="none" stroke="#63b8ff" d="M129.09,-131.8C138.02,-122.11 149.89,-109.24 159.32,-99.01"/>
<polygon fill="#63b8ff" stroke="#63b8ff" points="161.62,-101.68 165.82,-91.96 156.47,-96.94 161.62,-101.68"/>
</g>
<!-- Node6 -->
<g id="node6" class="node">
<title>Node6</title>
<g id="a_node6"><a xlink:href="stddef_8h.html" target="_top" xlink:title=" ">
<polygon fill="white" stroke="#666666" points="243,-30 107,-30 107,0 243,0 243,-30"/>
<text text-anchor="start" x="115" y="-18" font-family="Helvetica,sans-Serif" font-size="10.00">MSL_C/MSL_Common/Src</text>
<text text-anchor="middle" x="175" y="-7" font-family="Helvetica,sans-Serif" font-size="10.00">/stddef.h</text>
</a>
</g>
</g>
<!-- Node5&#45;&gt;Node6 -->
<g id="edge5" class="edge">
<title>Node5&#45;&gt;Node6</title>
<path fill="none" stroke="#63b8ff" d="M175,-71.1C175,-63.41 175,-51.92 175,-41.42"/>
<polygon fill="#63b8ff" stroke="#63b8ff" points="178.5,-41.75 175,-31.75 171.5,-41.75 178.5,-41.75"/>
</g>
</g>
</svg>
