<?xml version="1.0" encoding="UTF-8" standalone="no"?>
<!DOCTYPE svg PUBLIC "-//W3C//DTD SVG 1.1//EN"
 "http://www.w3.org/Graphics/SVG/1.1/DTD/svg11.dtd">
<!-- Generated by graphviz version 7.0.5 (20221223.1930)
 -->
<!-- Title: src/f_pc/f_pc_line.cpp Pages: 1 -->
<svg width="999pt" height="456pt"
 viewBox="0.00 0.00 999.00 456.00" xmlns="http://www.w3.org/2000/svg" xmlns:xlink="http://www.w3.org/1999/xlink">
<g id="graph0" class="graph" transform="scale(1 1) rotate(0) translate(4 452)">
<title>src/f_pc/f_pc_line.cpp</title>
<!-- Node1 -->
<g id="node1" class="node">
<title>Node1</title>
<g id="a_node1"><a xlink:title=" ">
<polygon fill="#999999" stroke="#666666" points="772,-448 660,-448 660,-429 772,-429 772,-448"/>
<text text-anchor="middle" x="716" y="-436" font-family="Helvetica,sans-Serif" font-size="10.00">src/f_pc/f_pc_line.cpp</text>
</a>
</g>
</g>
<!-- Node2 -->
<g id="node2" class="node">
<title>Node2</title>
<g id="a_node2"><a xlink:href="f__pc__line_8h.html" target="_top" xlink:title=" ">
<polygon fill="white" stroke="#666666" points="478.5,-393 393.5,-393 393.5,-374 478.5,-374 478.5,-393"/>
<text text-anchor="middle" x="436" y="-381" font-family="Helvetica,sans-Serif" font-size="10.00">f_pc/f_pc_line.h</text>
</a>
</g>
</g>
<!-- Node1&#45;&gt;Node2 -->
<g id="edge1" class="edge">
<title>Node1&#45;&gt;Node2</title>
<path fill="none" stroke="#63b8ff" d="M668.5,-428.51C619.04,-419.15 541.69,-404.51 489.95,-394.71"/>
<polygon fill="#63b8ff" stroke="#63b8ff" points="490.64,-391.28 480.16,-392.86 489.34,-398.16 490.64,-391.28"/>
</g>
<!-- Node4 -->
<g id="node4" class="node">
<title>Node4</title>
<g id="a_node4"><a xlink:href="f__pc__node_8h.html" target="_top" xlink:title=" ">
<polygon fill="white" stroke="#666666" points="761.5,-393 670.5,-393 670.5,-374 761.5,-374 761.5,-393"/>
<text text-anchor="middle" x="716" y="-381" font-family="Helvetica,sans-Serif" font-size="10.00">f_pc/f_pc_node.h</text>
</a>
</g>
</g>
<!-- Node1&#45;&gt;Node4 -->
<g id="edge3" class="edge">
<title>Node1&#45;&gt;Node4</title>
<path fill="none" stroke="#63b8ff" d="M716,-428.75C716,-422.27 716,-413.16 716,-404.9"/>
<polygon fill="#63b8ff" stroke="#63b8ff" points="719.5,-404.96 716,-394.96 712.5,-404.96 719.5,-404.96"/>
</g>
<!-- Node19 -->
<g id="node19" class="node">
<title>Node19</title>
<g id="a_node19"><a xlink:href="global_8h.html" target="_top" xlink:title=" ">
<polygon fill="white" stroke="#666666" points="991,-217 941,-217 941,-198 991,-198 991,-217"/>
<text text-anchor="middle" x="966" y="-205" font-family="Helvetica,sans-Serif" font-size="10.00">global.h</text>
</a>
</g>
</g>
<!-- Node1&#45;&gt;Node19 -->
<g id="edge26" class="edge">
<title>Node1&#45;&gt;Node19</title>
<path fill="none" stroke="#63b8ff" d="M727.35,-428.51C738.4,-419.67 755.6,-405.69 770,-393 838.24,-332.88 916,-257.54 949.36,-224.87"/>
<polygon fill="#63b8ff" stroke="#63b8ff" points="951.44,-227.74 956.13,-218.23 946.54,-222.74 951.44,-227.74"/>
</g>
<!-- Node3 -->
<g id="node3" class="node">
<title>Node3</title>
<g id="a_node3"><a xlink:href="c__tree_8h.html" target="_top" xlink:title=" ">
<polygon fill="white" stroke="#666666" points="116,-283 0,-283 0,-253 116,-253 116,-283"/>
<text text-anchor="start" x="8" y="-271" font-family="Helvetica,sans-Serif" font-size="10.00">SSystem/SComponent</text>
<text text-anchor="middle" x="58" y="-260" font-family="Helvetica,sans-Serif" font-size="10.00">/c_tree.h</text>
</a>
</g>
</g>
<!-- Node2&#45;&gt;Node3 -->
<g id="edge2" class="edge">
<title>Node2&#45;&gt;Node3</title>
<path fill="none" stroke="#63b8ff" d="M393.38,-379.9C340.87,-375.65 249.58,-364.8 176,-338 143.42,-326.13 109.58,-305.33 86.55,-289.66"/>
<polygon fill="#63b8ff" stroke="#63b8ff" points="88.82,-286.98 78.61,-284.16 84.84,-292.74 88.82,-286.98"/>
</g>
<!-- Node5 -->
<g id="node5" class="node">
<title>Node5</title>
<g id="a_node5"><a xlink:href="f__pc__base_8h.html" target="_top" xlink:title=" ">
<polygon fill="white" stroke="#666666" points="657.5,-338 566.5,-338 566.5,-319 657.5,-319 657.5,-338"/>
<text text-anchor="middle" x="612" y="-326" font-family="Helvetica,sans-Serif" font-size="10.00">f_pc/f_pc_base.h</text>
</a>
</g>
</g>
<!-- Node4&#45;&gt;Node5 -->
<g id="edge4" class="edge">
<title>Node4&#45;&gt;Node5</title>
<path fill="none" stroke="#63b8ff" d="M698.36,-373.51C682.27,-365.31 658.25,-353.07 639.63,-343.58"/>
<polygon fill="#63b8ff" stroke="#63b8ff" points="641.23,-340.47 630.73,-339.05 638.05,-346.7 641.23,-340.47"/>
</g>
<!-- Node15 -->
<g id="node15" class="node">
<title>Node15</title>
<g id="a_node15"><a xlink:href="f__pc__layer_8h.html" target="_top" xlink:title=" ">
<polygon fill="white" stroke="#666666" points="275,-338 185,-338 185,-319 275,-319 275,-338"/>
<text text-anchor="middle" x="230" y="-326" font-family="Helvetica,sans-Serif" font-size="10.00">f_pc/f_pc_layer.h</text>
</a>
</g>
</g>
<!-- Node4&#45;&gt;Node15 -->
<g id="edge17" class="edge">
<title>Node4&#45;&gt;Node15</title>
<path fill="none" stroke="#63b8ff" d="M670.28,-377.51C581.04,-367.78 383.91,-346.28 286.6,-335.67"/>
<polygon fill="#63b8ff" stroke="#63b8ff" points="287.07,-332.2 276.75,-334.6 286.31,-339.16 287.07,-332.2"/>
</g>
<!-- Node17 -->
<g id="node17" class="node">
<title>Node17</title>
<g id="a_node17"><a xlink:href="f__pc__method_8h.html" target="_top" xlink:title=" ">
<polygon fill="white" stroke="#666666" points="885,-217 783,-217 783,-198 885,-198 885,-217"/>
<text text-anchor="middle" x="834" y="-205" font-family="Helvetica,sans-Serif" font-size="10.00">f_pc/f_pc_method.h</text>
</a>
</g>
</g>
<!-- Node4&#45;&gt;Node17 -->
<g id="edge22" class="edge">
<title>Node4&#45;&gt;Node17</title>
<path fill="none" stroke="#63b8ff" d="M722.92,-373.64C736.22,-356.49 766.06,-317.4 789,-283 801.41,-264.39 814.52,-242.38 823.37,-227.14"/>
<polygon fill="#63b8ff" stroke="#63b8ff" points="826.28,-229.1 828.23,-218.69 820.21,-225.61 826.28,-229.1"/>
</g>
<!-- Node18 -->
<g id="node18" class="node">
<title>Node18</title>
<g id="a_node18"><a xlink:href="f__pc__profile_8h.html" target="_top" xlink:title=" ">
<polygon fill="white" stroke="#666666" points="937.5,-156.5 842.5,-156.5 842.5,-137.5 937.5,-137.5 937.5,-156.5"/>
<text text-anchor="middle" x="890" y="-144.5" font-family="Helvetica,sans-Serif" font-size="10.00">f_pc/f_pc_profile.h</text>
</a>
</g>
</g>
<!-- Node4&#45;&gt;Node18 -->
<g id="edge24" class="edge">
<title>Node4&#45;&gt;Node18</title>
<path fill="none" stroke="#63b8ff" d="M732.86,-373.54C770.64,-352.35 861.3,-295.03 894,-217 900.53,-201.42 898.67,-182.11 895.67,-167.89"/>
<polygon fill="#63b8ff" stroke="#63b8ff" points="899.11,-167.23 893.29,-158.38 892.32,-168.93 899.11,-167.23"/>
</g>
<!-- Node6 -->
<g id="node6" class="node">
<title>Node6</title>
<g id="a_node6"><a xlink:href="f__pc__delete__tag_8h.html" target="_top" xlink:title=" ">
<polygon fill="white" stroke="#666666" points="459.5,-217 344.5,-217 344.5,-198 459.5,-198 459.5,-217"/>
<text text-anchor="middle" x="402" y="-205" font-family="Helvetica,sans-Serif" font-size="10.00">f_pc/f_pc_delete_tag.h</text>
</a>
</g>
</g>
<!-- Node5&#45;&gt;Node6 -->
<g id="edge5" class="edge">
<title>Node5&#45;&gt;Node6</title>
<path fill="none" stroke="#63b8ff" d="M596.22,-318.56C560.17,-298.13 471.56,-247.92 427.59,-223"/>
<polygon fill="#63b8ff" stroke="#63b8ff" points="429.42,-220.02 419,-218.13 425.97,-226.11 429.42,-220.02"/>
</g>
<!-- Node11 -->
<g id="node11" class="node">
<title>Node11</title>
<g id="a_node11"><a xlink:href="f__pc__layer__tag_8h.html" target="_top" xlink:title=" ">
<polygon fill="white" stroke="#666666" points="586.5,-217 477.5,-217 477.5,-198 586.5,-198 586.5,-217"/>
<text text-anchor="middle" x="532" y="-205" font-family="Helvetica,sans-Serif" font-size="10.00">f_pc/f_pc_layer_tag.h</text>
</a>
</g>
</g>
<!-- Node5&#45;&gt;Node11 -->
<g id="edge10" class="edge">
<title>Node5&#45;&gt;Node11</title>
<path fill="none" stroke="#63b8ff" d="M593.55,-318.53C579.81,-310.93 561.66,-298.74 551,-283 539.9,-266.6 535.28,-244.19 533.36,-228.25"/>
<polygon fill="#63b8ff" stroke="#63b8ff" points="536.88,-228.22 532.47,-218.59 529.91,-228.87 536.88,-228.22"/>
</g>
<!-- Node12 -->
<g id="node12" class="node">
<title>Node12</title>
<g id="a_node12"><a xlink:href="f__pc__line__tag_8h.html" target="_top" xlink:title=" ">
<polygon fill="white" stroke="#666666" points="664,-277.5 560,-277.5 560,-258.5 664,-258.5 664,-277.5"/>
<text text-anchor="middle" x="612" y="-265.5" font-family="Helvetica,sans-Serif" font-size="10.00">f_pc/f_pc_line_tag.h</text>
</a>
</g>
</g>
<!-- Node5&#45;&gt;Node12 -->
<g id="edge12" class="edge">
<title>Node5&#45;&gt;Node12</title>
<path fill="none" stroke="#63b8ff" d="M612,-318.87C612,-311 612,-299.1 612,-288.89"/>
<polygon fill="#63b8ff" stroke="#63b8ff" points="615.5,-289.18 612,-279.18 608.5,-289.18 615.5,-289.18"/>
</g>
<!-- Node13 -->
<g id="node13" class="node">
<title>Node13</title>
<g id="a_node13"><a xlink:href="f__pc__priority_8h.html" target="_top" xlink:title=" ">
<polygon fill="white" stroke="#666666" points="780,-277.5 682,-277.5 682,-258.5 780,-258.5 780,-277.5"/>
<text text-anchor="middle" x="731" y="-265.5" font-family="Helvetica,sans-Serif" font-size="10.00">f_pc/f_pc_priority.h</text>
</a>
</g>
</g>
<!-- Node5&#45;&gt;Node13 -->
<g id="edge14" class="edge">
<title>Node5&#45;&gt;Node13</title>
<path fill="none" stroke="#63b8ff" d="M630.07,-318.62C649.29,-309.17 679.97,-294.09 702.46,-283.03"/>
<polygon fill="#63b8ff" stroke="#63b8ff" points="703.97,-286.19 711.4,-278.64 700.88,-279.91 703.97,-286.19"/>
</g>
<!-- Node7 -->
<g id="node7" class="node">
<title>Node7</title>
<g id="a_node7"><a xlink:href="c__tag_8h.html" target="_top" xlink:title=" ">
<polygon fill="white" stroke="#666666" points="631,-162 515,-162 515,-132 631,-132 631,-162"/>
<text text-anchor="start" x="523" y="-150" font-family="Helvetica,sans-Serif" font-size="10.00">SSystem/SComponent</text>
<text text-anchor="middle" x="573" y="-139" font-family="Helvetica,sans-Serif" font-size="10.00">/c_tag.h</text>
</a>
</g>
</g>
<!-- Node6&#45;&gt;Node7 -->
<g id="edge6" class="edge">
<title>Node6&#45;&gt;Node7</title>
<path fill="none" stroke="#63b8ff" d="M427.97,-197.62C452.38,-189.27 489.63,-176.52 520.26,-166.04"/>
<polygon fill="#63b8ff" stroke="#63b8ff" points="521.03,-169.48 529.36,-162.93 518.77,-162.85 521.03,-169.48"/>
</g>
<!-- Node8 -->
<g id="node8" class="node">
<title>Node8</title>
<g id="a_node8"><a xlink:href="c__node_8h.html" target="_top" xlink:title=" ">
<polygon fill="white" stroke="#666666" points="437,-96 321,-96 321,-66 437,-66 437,-96"/>
<text text-anchor="start" x="329" y="-84" font-family="Helvetica,sans-Serif" font-size="10.00">SSystem/SComponent</text>
<text text-anchor="middle" x="379" y="-73" font-family="Helvetica,sans-Serif" font-size="10.00">/c_node.h</text>
</a>
</g>
</g>
<!-- Node7&#45;&gt;Node8 -->
<g id="edge7" class="edge">
<title>Node7&#45;&gt;Node8</title>
<path fill="none" stroke="#63b8ff" d="M529.46,-131.64C501.11,-122.28 463.89,-110 433.56,-100"/>
<polygon fill="#63b8ff" stroke="#63b8ff" points="434.76,-96.71 424.16,-96.9 432.56,-103.36 434.76,-96.71"/>
</g>
<!-- Node9 -->
<g id="node9" class="node">
<title>Node9</title>
<g id="a_node9"><a xlink:href="types_8h.html" target="_top" xlink:title=" ">
<polygon fill="white" stroke="#666666" points="854.5,-90.5 773.5,-90.5 773.5,-71.5 854.5,-71.5 854.5,-90.5"/>
<text text-anchor="middle" x="814" y="-78.5" font-family="Helvetica,sans-Serif" font-size="10.00">dolphin/types.h</text>
</a>
</g>
</g>
<!-- Node7&#45;&gt;Node9 -->
<g id="edge8" class="edge">
<title>Node7&#45;&gt;Node9</title>
<path fill="none" stroke="#63b8ff" d="M627.39,-131.56C670.19,-120.19 729.1,-104.55 769.21,-93.89"/>
<polygon fill="#63b8ff" stroke="#63b8ff" points="770.02,-97.3 778.79,-91.35 768.22,-90.54 770.02,-97.3"/>
</g>
<!-- Node10 -->
<g id="node10" class="node">
<title>Node10</title>
<g id="a_node10"><a xlink:href="stddef_8h.html" target="_top" xlink:title=" ">
<polygon fill="white" stroke="#666666" points="882,-30 746,-30 746,0 882,0 882,-30"/>
<text text-anchor="start" x="754" y="-18" font-family="Helvetica,sans-Serif" font-size="10.00">MSL_C/MSL_Common/Src</text>
<text text-anchor="middle" x="814" y="-7" font-family="Helvetica,sans-Serif" font-size="10.00">/stddef.h</text>
</a>
</g>
</g>
<!-- Node9&#45;&gt;Node10 -->
<g id="edge9" class="edge">
<title>Node9&#45;&gt;Node10</title>
<path fill="none" stroke="#63b8ff" d="M814,-71.1C814,-63.41 814,-51.92 814,-41.42"/>
<polygon fill="#63b8ff" stroke="#63b8ff" points="817.5,-41.75 814,-31.75 810.5,-41.75 817.5,-41.75"/>
</g>
<!-- Node11&#45;&gt;Node7 -->
<g id="edge11" class="edge">
<title>Node11&#45;&gt;Node7</title>
<path fill="none" stroke="#63b8ff" d="M538.05,-197.87C542.94,-190.89 550.07,-180.71 556.62,-171.38"/>
<polygon fill="#63b8ff" stroke="#63b8ff" points="559.37,-173.55 562.24,-163.35 553.63,-169.53 559.37,-173.55"/>
</g>
<!-- Node12&#45;&gt;Node7 -->
<g id="edge13" class="edge">
<title>Node12&#45;&gt;Node7</title>
<path fill="none" stroke="#63b8ff" d="M610.37,-258.37C607.77,-245.16 602.23,-219.26 595,-198 592.1,-189.48 588.33,-180.41 584.73,-172.37"/>
<polygon fill="#63b8ff" stroke="#63b8ff" points="588.03,-171.16 580.66,-163.55 581.68,-174.1 588.03,-171.16"/>
</g>
<!-- Node14 -->
<g id="node14" class="node">
<title>Node14</title>
<g id="a_node14"><a xlink:href="f__pc__method__tag_8h.html" target="_top" xlink:title=" ">
<polygon fill="white" stroke="#666666" points="764.5,-217 643.5,-217 643.5,-198 764.5,-198 764.5,-217"/>
<text text-anchor="middle" x="704" y="-205" font-family="Helvetica,sans-Serif" font-size="10.00">f_pc/f_pc_method_tag.h</text>
</a>
</g>
</g>
<!-- Node13&#45;&gt;Node14 -->
<g id="edge15" class="edge">
<title>Node13&#45;&gt;Node14</title>
<path fill="none" stroke="#63b8ff" d="M727.02,-258.37C723.27,-250.25 717.53,-237.81 712.72,-227.39"/>
<polygon fill="#63b8ff" stroke="#63b8ff" points="716,-226.15 708.63,-218.54 709.65,-229.09 716,-226.15"/>
</g>
<!-- Node14&#45;&gt;Node7 -->
<g id="edge16" class="edge">
<title>Node14&#45;&gt;Node7</title>
<path fill="none" stroke="#63b8ff" d="M684.1,-197.62C665.98,-189.52 638.61,-177.3 615.57,-167.01"/>
<polygon fill="#63b8ff" stroke="#63b8ff" points="617.27,-163.94 606.72,-163.06 614.42,-170.33 617.27,-163.94"/>
</g>
<!-- Node15&#45;&gt;Node3 -->
<g id="edge20" class="edge">
<title>Node15&#45;&gt;Node3</title>
<path fill="none" stroke="#63b8ff" d="M203.88,-318.62C179.33,-310.27 141.86,-297.52 111.05,-287.04"/>
<polygon fill="#63b8ff" stroke="#63b8ff" points="112.48,-283.83 101.89,-283.93 110.23,-290.46 112.48,-283.83"/>
</g>
<!-- Node15&#45;&gt;Node8 -->
<g id="edge19" class="edge">
<title>Node15&#45;&gt;Node8</title>
<path fill="none" stroke="#63b8ff" d="M205.89,-318.52C190.59,-311.42 172.04,-299.86 163,-283 156.7,-271.25 157.47,-265.13 163,-253 197,-178.32 282.44,-126.94 335.1,-101.16"/>
<polygon fill="#63b8ff" stroke="#63b8ff" points="336.29,-104.47 343.81,-97 333.28,-98.16 336.29,-104.47"/>
</g>
<!-- Node15&#45;&gt;Node9 -->
<g id="edge21" class="edge">
<title>Node15&#45;&gt;Node9</title>
<path fill="none" stroke="#63b8ff" d="M249.18,-318.53C263.89,-310.85 283.83,-298.56 297,-283 323.74,-251.42 304.99,-226.49 335,-198 396.66,-139.47 651.21,-101.91 762.05,-88.03"/>
<polygon fill="#63b8ff" stroke="#63b8ff" points="762.26,-91.53 771.76,-86.83 761.4,-84.59 762.26,-91.53"/>
</g>
<!-- Node16 -->
<g id="node16" class="node">
<title>Node16</title>
<g id="a_node16"><a xlink:href="c__list_8h.html" target="_top" xlink:title=" ">
<polygon fill="white" stroke="#666666" points="288,-283 172,-283 172,-253 288,-253 288,-283"/>
<text text-anchor="start" x="180" y="-271" font-family="Helvetica,sans-Serif" font-size="10.00">SSystem/SComponent</text>
<text text-anchor="middle" x="230" y="-260" font-family="Helvetica,sans-Serif" font-size="10.00">/c_list.h</text>
</a>
</g>
</g>
<!-- Node15&#45;&gt;Node16 -->
<g id="edge18" class="edge">
<title>Node15&#45;&gt;Node16</title>
<path fill="none" stroke="#63b8ff" d="M230,-318.87C230,-312.4 230,-303.2 230,-294.45"/>
<polygon fill="#63b8ff" stroke="#63b8ff" points="233.5,-294.63 230,-284.63 226.5,-294.63 233.5,-294.63"/>
</g>
<!-- Node17&#45;&gt;Node9 -->
<g id="edge23" class="edge">
<title>Node17&#45;&gt;Node9</title>
<path fill="none" stroke="#63b8ff" d="M832.56,-197.55C829.38,-177.72 821.66,-129.68 817.24,-102.19"/>
<polygon fill="#63b8ff" stroke="#63b8ff" points="820.71,-101.69 815.67,-92.37 813.8,-102.8 820.71,-101.69"/>
</g>
<!-- Node18&#45;&gt;Node9 -->
<g id="edge25" class="edge">
<title>Node18&#45;&gt;Node9</title>
<path fill="none" stroke="#63b8ff" d="M879.43,-137.1C867.52,-127.07 847.91,-110.56 833.26,-98.22"/>
<polygon fill="#63b8ff" stroke="#63b8ff" points="835.54,-95.56 825.64,-91.8 831.03,-100.92 835.54,-95.56"/>
</g>
<!-- Node19&#45;&gt;Node9 -->
<g id="edge27" class="edge">
<title>Node19&#45;&gt;Node9</title>
<path fill="none" stroke="#63b8ff" d="M966.1,-197.96C965.82,-182.77 963.07,-150.87 946,-132 925.34,-109.16 893.14,-96.7 865.73,-89.92"/>
<polygon fill="#63b8ff" stroke="#63b8ff" points="866.71,-86.56 856.18,-87.77 865.17,-93.39 866.71,-86.56"/>
</g>
</g>
</svg>
