<?xml version="1.0" encoding="UTF-8" standalone="no"?>
<!DOCTYPE svg PUBLIC "-//W3C//DTD SVG 1.1//EN"
 "http://www.w3.org/Graphics/SVG/1.1/DTD/svg11.dtd">
<!-- Generated by graphviz version 7.0.5 (20221223.1930)
 -->
<!-- Title: src/f_pc/f_pc_creator.cpp Pages: 1 -->
<!--zoomable 401 -->
<svg id="main" version="1.1" xmlns="http://www.w3.org/2000/svg" xmlns:xlink="http://www.w3.org/1999/xlink" xml:space="preserve" onload="init(evt)">
<style type="text/css"><![CDATA[
.edge:hover path { stroke: red; }
.edge:hover polygon { stroke: red; fill: red; }
]]></style>
<script type="text/javascript"><![CDATA[
var edges = document.getElementsByTagName('g');
if (edges && edges.length) {
  for (var i=0;i<edges.length;i++) {
    if (edges[i].id.substr(0,4)=='edge') {
      edges[i].setAttribute('class','edge');
    }
  }
}
]]></script>
        <defs>
                <circle id="rim" cx="0" cy="0" r="7"/>
                <circle id="rim2" cx="0" cy="0" r="3.5"/>
                <g id="zoomPlus">
                        <use xlink:href="#rim" fill="#404040">
                                <set attributeName="fill" to="#808080" begin="zoomplus.mouseover" end="zoomplus.mouseout"/>
                        </use>
                        <path d="M-4,0h8M0,-4v8" fill="none" stroke="white" stroke-width="1.5" pointer-events="none"/>
                </g>
                <g id="zoomMin">
                        <use xlink:href="#rim" fill="#404040">
                                <set attributeName="fill" to="#808080" begin="zoomminus.mouseover" end="zoomminus.mouseout"/>
                        </use>
                        <path d="M-4,0h8" fill="none" stroke="white" stroke-width="1.5" pointer-events="none"/>
                </g>
                <g id="dirArrow">
                        <path fill="none" stroke="white" stroke-width="1.5" d="M0,-3.0v7 M-2.5,-0.5L0,-3.0L2.5,-0.5"/>
                </g>
               <g id="resetDef">
                       <use xlink:href="#rim2" fill="#404040">
                               <set attributeName="fill" to="#808080" begin="reset.mouseover" end="reset.mouseout"/>
                       </use>
               </g>
        </defs>

<script type="text/javascript">
var viewWidth = 684;
var viewHeight = 401;
var sectionId = 'dynsection-0';
</script>
<script xlink:href="svgpan.js"/>
<svg id="graph" class="graph">
<g id="viewport">
<title>src/f_pc/f_pc_creator.cpp</title>
<!-- Node1 -->
<g id="node1" class="node">
<title>Node1</title>
<g id="a_node1"><a xlink:title=" ">
<polygon fill="#999999" stroke="#666666" points="214.5,-393 87.5,-393 87.5,-374 214.5,-374 214.5,-393"/>
<text text-anchor="middle" x="151" y="-381" font-family="Helvetica,sans-Serif" font-size="10.00">src/f_pc/f_pc_creator.cpp</text>
</a>
</g>
</g>
<!-- Node2 -->
<g id="node2" class="node">
<title>Node2</title>
<g id="a_node2"><a xlink:href="f__pc__creator_8h.html" target="_top" xlink:title=" ">
<polygon fill="white" stroke="#666666" points="100,-338 0,-338 0,-319 100,-319 100,-338"/>
<text text-anchor="middle" x="50" y="-326" font-family="Helvetica,sans-Serif" font-size="10.00">f_pc/f_pc_creator.h</text>
</a>
</g>
</g>
<!-- Node1&#45;&gt;Node2 -->
<g id="edge1" class="edge">
<title>Node1&#45;&gt;Node2</title>
<path fill="none" stroke="#63b8ff" d="M133.87,-373.51C118.25,-365.31 94.92,-353.07 76.83,-343.58"/>
<polygon fill="#63b8ff" stroke="#63b8ff" points="78.7,-340.61 68.22,-339.06 75.45,-346.81 78.7,-340.61"/>
</g>
<!-- Node5 -->
<g id="node5" class="node">
<title>Node5</title>
<g id="a_node5"><a xlink:href="f__pc__base_8h.html" target="_top" xlink:title=" ">
<polygon fill="white" stroke="#666666" points="453.5,-338 362.5,-338 362.5,-319 453.5,-319 453.5,-338"/>
<text text-anchor="middle" x="408" y="-326" font-family="Helvetica,sans-Serif" font-size="10.00">f_pc/f_pc_base.h</text>
</a>
</g>
</g>
<!-- Node1&#45;&gt;Node5 -->
<g id="edge4" class="edge">
<title>Node1&#45;&gt;Node5</title>
<path fill="none" stroke="#63b8ff" d="M194.6,-373.51C238.39,-364.48 305.99,-350.54 353.34,-340.77"/>
<polygon fill="#63b8ff" stroke="#63b8ff" points="354.05,-344.2 363.14,-338.75 352.64,-337.34 354.05,-344.2"/>
</g>
<!-- Node13 -->
<g id="node13" class="node">
<title>Node13</title>
<g id="a_node13"><a xlink:href="f__pc__create__req_8h.html" target="_top" xlink:title=" ">
<polygon fill="white" stroke="#666666" points="209,-283 93,-283 93,-264 209,-264 209,-283"/>
<text text-anchor="middle" x="151" y="-271" font-family="Helvetica,sans-Serif" font-size="10.00">f_pc/f_pc_create_req.h</text>
</a>
</g>
</g>
<!-- Node1&#45;&gt;Node13 -->
<g id="edge16" class="edge">
<title>Node1&#45;&gt;Node13</title>
<path fill="none" stroke="#63b8ff" d="M151,-373.66C151,-356.57 151,-318.61 151,-294.92"/>
<polygon fill="#63b8ff" stroke="#63b8ff" points="154.5,-294.97 151,-284.97 147.5,-294.97 154.5,-294.97"/>
</g>
<!-- Node3 -->
<g id="node3" class="node">
<title>Node3</title>
<g id="a_node3"><a xlink:href="types_8h.html" target="_top" xlink:title=" ">
<polygon fill="white" stroke="#666666" points="113.5,-90.5 32.5,-90.5 32.5,-71.5 113.5,-71.5 113.5,-90.5"/>
<text text-anchor="middle" x="73" y="-78.5" font-family="Helvetica,sans-Serif" font-size="10.00">dolphin/types.h</text>
</a>
</g>
</g>
<!-- Node2&#45;&gt;Node3 -->
<g id="edge2" class="edge">
<title>Node2&#45;&gt;Node3</title>
<path fill="none" stroke="#63b8ff" d="M44.81,-318.85C28.57,-290.58 -18.35,-198.94 13,-132 19.85,-117.37 33.32,-105.53 45.77,-97.05"/>
<polygon fill="#63b8ff" stroke="#63b8ff" points="47.51,-100.08 54.1,-91.78 43.78,-94.16 47.51,-100.08"/>
</g>
<!-- Node4 -->
<g id="node4" class="node">
<title>Node4</title>
<g id="a_node4"><a xlink:href="stddef_8h.html" target="_top" xlink:title=" ">
<polygon fill="white" stroke="#666666" points="141,-30 5,-30 5,0 141,0 141,-30"/>
<text text-anchor="start" x="13" y="-18" font-family="Helvetica,sans-Serif" font-size="10.00">MSL_C/MSL_Common/Src</text>
<text text-anchor="middle" x="73" y="-7" font-family="Helvetica,sans-Serif" font-size="10.00">/stddef.h</text>
</a>
</g>
</g>
<!-- Node3&#45;&gt;Node4 -->
<g id="edge3" class="edge">
<title>Node3&#45;&gt;Node4</title>
<path fill="none" stroke="#63b8ff" d="M73,-71.1C73,-63.41 73,-51.92 73,-41.42"/>
<polygon fill="#63b8ff" stroke="#63b8ff" points="76.5,-41.75 73,-31.75 69.5,-41.75 76.5,-41.75"/>
</g>
<!-- Node6 -->
<g id="node6" class="node">
<title>Node6</title>
<g id="a_node6"><a xlink:href="f__pc__delete__tag_8h.html" target="_top" xlink:title=" ">
<polygon fill="white" stroke="#666666" points="593.5,-283 478.5,-283 478.5,-264 593.5,-264 593.5,-283"/>
<text text-anchor="middle" x="536" y="-271" font-family="Helvetica,sans-Serif" font-size="10.00">f_pc/f_pc_delete_tag.h</text>
</a>
</g>
</g>
<!-- Node5&#45;&gt;Node6 -->
<g id="edge5" class="edge">
<title>Node5&#45;&gt;Node6</title>
<path fill="none" stroke="#63b8ff" d="M429.71,-318.51C450.16,-310.04 481.02,-297.27 504.23,-287.66"/>
<polygon fill="#63b8ff" stroke="#63b8ff" points="505.31,-291 513.21,-283.94 502.63,-284.53 505.31,-291"/>
</g>
<!-- Node9 -->
<g id="node9" class="node">
<title>Node9</title>
<g id="a_node9"><a xlink:href="f__pc__layer__tag_8h.html" target="_top" xlink:title=" ">
<polygon fill="white" stroke="#666666" points="675.5,-222.5 566.5,-222.5 566.5,-203.5 675.5,-203.5 675.5,-222.5"/>
<text text-anchor="middle" x="621" y="-210.5" font-family="Helvetica,sans-Serif" font-size="10.00">f_pc/f_pc_layer_tag.h</text>
</a>
</g>
</g>
<!-- Node5&#45;&gt;Node9 -->
<g id="edge9" class="edge">
<title>Node5&#45;&gt;Node9</title>
<path fill="none" stroke="#63b8ff" d="M453.86,-322.54C504.62,-316.12 582.06,-303.31 603,-283 616.05,-270.34 620.05,-249.5 621.09,-234.02"/>
<polygon fill="#63b8ff" stroke="#63b8ff" points="624.59,-234.19 621.36,-224.1 617.59,-234 624.59,-234.19"/>
</g>
<!-- Node10 -->
<g id="node10" class="node">
<title>Node10</title>
<g id="a_node10"><a xlink:href="f__pc__line__tag_8h.html" target="_top" xlink:title=" ">
<polygon fill="white" stroke="#666666" points="460,-283 356,-283 356,-264 460,-264 460,-283"/>
<text text-anchor="middle" x="408" y="-271" font-family="Helvetica,sans-Serif" font-size="10.00">f_pc/f_pc_line_tag.h</text>
</a>
</g>
</g>
<!-- Node5&#45;&gt;Node10 -->
<g id="edge11" class="edge">
<title>Node5&#45;&gt;Node10</title>
<path fill="none" stroke="#63b8ff" d="M408,-318.75C408,-312.27 408,-303.16 408,-294.9"/>
<polygon fill="#63b8ff" stroke="#63b8ff" points="411.5,-294.96 408,-284.96 404.5,-294.96 411.5,-294.96"/>
</g>
<!-- Node11 -->
<g id="node11" class="node">
<title>Node11</title>
<g id="a_node11"><a xlink:href="f__pc__priority_8h.html" target="_top" xlink:title=" ">
<polygon fill="white" stroke="#666666" points="338,-283 240,-283 240,-264 338,-264 338,-283"/>
<text text-anchor="middle" x="289" y="-271" font-family="Helvetica,sans-Serif" font-size="10.00">f_pc/f_pc_priority.h</text>
</a>
</g>
</g>
<!-- Node5&#45;&gt;Node11 -->
<g id="edge13" class="edge">
<title>Node5&#45;&gt;Node11</title>
<path fill="none" stroke="#63b8ff" d="M387.81,-318.51C368.98,-310.12 340.63,-297.5 319.13,-287.92"/>
<polygon fill="#63b8ff" stroke="#63b8ff" points="320.83,-284.85 310.27,-283.97 317.98,-291.24 320.83,-284.85"/>
</g>
<!-- Node7 -->
<g id="node7" class="node">
<title>Node7</title>
<g id="a_node7"><a xlink:href="c__tag_8h.html" target="_top" xlink:title=" ">
<polygon fill="white" stroke="#666666" points="511,-162 395,-162 395,-132 511,-132 511,-162"/>
<text text-anchor="start" x="403" y="-150" font-family="Helvetica,sans-Serif" font-size="10.00">SSystem/SComponent</text>
<text text-anchor="middle" x="453" y="-139" font-family="Helvetica,sans-Serif" font-size="10.00">/c_tag.h</text>
</a>
</g>
</g>
<!-- Node6&#45;&gt;Node7 -->
<g id="edge6" class="edge">
<title>Node6&#45;&gt;Node7</title>
<path fill="none" stroke="#63b8ff" d="M531.96,-263.92C525.13,-249.71 510.52,-220.65 495,-198 488.6,-188.66 480.8,-179 473.67,-170.69"/>
<polygon fill="#63b8ff" stroke="#63b8ff" points="476.51,-168.62 467.29,-163.41 471.25,-173.24 476.51,-168.62"/>
</g>
<!-- Node7&#45;&gt;Node3 -->
<g id="edge8" class="edge">
<title>Node7&#45;&gt;Node3</title>
<path fill="none" stroke="#63b8ff" d="M394.87,-136.21C321.31,-123.82 195.72,-102.67 125.13,-90.78"/>
<polygon fill="#63b8ff" stroke="#63b8ff" points="125.8,-87.34 115.36,-89.13 124.64,-94.25 125.8,-87.34"/>
</g>
<!-- Node8 -->
<g id="node8" class="node">
<title>Node8</title>
<g id="a_node8"><a xlink:href="c__node_8h.html" target="_top" xlink:title=" ">
<polygon fill="white" stroke="#666666" points="511,-96 395,-96 395,-66 511,-66 511,-96"/>
<text text-anchor="start" x="403" y="-84" font-family="Helvetica,sans-Serif" font-size="10.00">SSystem/SComponent</text>
<text text-anchor="middle" x="453" y="-73" font-family="Helvetica,sans-Serif" font-size="10.00">/c_node.h</text>
</a>
</g>
</g>
<!-- Node7&#45;&gt;Node8 -->
<g id="edge7" class="edge">
<title>Node7&#45;&gt;Node8</title>
<path fill="none" stroke="#63b8ff" d="M453,-131.8C453,-124.67 453,-115.82 453,-107.56"/>
<polygon fill="#63b8ff" stroke="#63b8ff" points="456.5,-107.68 453,-97.68 449.5,-107.68 456.5,-107.68"/>
</g>
<!-- Node9&#45;&gt;Node7 -->
<g id="edge10" class="edge">
<title>Node9&#45;&gt;Node7</title>
<path fill="none" stroke="#63b8ff" d="M597.64,-203.1C572.85,-193.66 532.98,-178.47 501.37,-166.43"/>
<polygon fill="#63b8ff" stroke="#63b8ff" points="503.01,-163.31 492.42,-163.02 500.52,-169.85 503.01,-163.31"/>
</g>
<!-- Node10&#45;&gt;Node7 -->
<g id="edge12" class="edge">
<title>Node10&#45;&gt;Node7</title>
<path fill="none" stroke="#63b8ff" d="M434.22,-263.59C450.27,-256.62 469.49,-245.18 479,-228 488.84,-210.22 480.3,-188.14 470.46,-171.68"/>
<polygon fill="#63b8ff" stroke="#63b8ff" points="473.53,-169.99 465.14,-163.52 467.67,-173.81 473.53,-169.99"/>
</g>
<!-- Node12 -->
<g id="node12" class="node">
<title>Node12</title>
<g id="a_node12"><a xlink:href="f__pc__method__tag_8h.html" target="_top" xlink:title=" ">
<polygon fill="white" stroke="#666666" points="469.5,-222.5 348.5,-222.5 348.5,-203.5 469.5,-203.5 469.5,-222.5"/>
<text text-anchor="middle" x="409" y="-210.5" font-family="Helvetica,sans-Serif" font-size="10.00">f_pc/f_pc_method_tag.h</text>
</a>
</g>
</g>
<!-- Node11&#45;&gt;Node12 -->
<g id="edge14" class="edge">
<title>Node11&#45;&gt;Node12</title>
<path fill="none" stroke="#63b8ff" d="M307.23,-263.62C326.7,-254.12 357.82,-238.95 380.53,-227.88"/>
<polygon fill="#63b8ff" stroke="#63b8ff" points="381.79,-231.16 389.24,-223.63 378.72,-224.87 381.79,-231.16"/>
</g>
<!-- Node12&#45;&gt;Node7 -->
<g id="edge15" class="edge">
<title>Node12&#45;&gt;Node7</title>
<path fill="none" stroke="#63b8ff" d="M415.12,-203.1C420.74,-194.92 429.33,-182.42 436.91,-171.4"/>
<polygon fill="#63b8ff" stroke="#63b8ff" points="439.58,-173.7 442.36,-163.48 433.81,-169.74 439.58,-173.7"/>
</g>
<!-- Node13&#45;&gt;Node12 -->
<g id="edge23" class="edge">
<title>Node13&#45;&gt;Node12</title>
<path fill="none" stroke="#63b8ff" d="M190.47,-263.55C235.52,-253.34 309.31,-236.6 358.51,-225.45"/>
<polygon fill="#63b8ff" stroke="#63b8ff" points="359.08,-228.91 368.06,-223.28 357.54,-222.08 359.08,-228.91"/>
</g>
<!-- Node14 -->
<g id="node14" class="node">
<title>Node14</title>
<g id="a_node14"><a xlink:href="c__phase_8h.html" target="_top" xlink:title=" ">
<polygon fill="white" stroke="#666666" points="330,-228 214,-228 214,-198 330,-198 330,-228"/>
<text text-anchor="start" x="222" y="-216" font-family="Helvetica,sans-Serif" font-size="10.00">SSystem/SComponent</text>
<text text-anchor="middle" x="272" y="-205" font-family="Helvetica,sans-Serif" font-size="10.00">/c_phase.h</text>
</a>
</g>
</g>
<!-- Node13&#45;&gt;Node14 -->
<g id="edge17" class="edge">
<title>Node13&#45;&gt;Node14</title>
<path fill="none" stroke="#63b8ff" d="M169.38,-263.62C185.89,-255.63 210.72,-243.63 231.82,-233.43"/>
<polygon fill="#63b8ff" stroke="#63b8ff" points="233.29,-236.6 240.77,-229.1 230.24,-230.3 233.29,-236.6"/>
</g>
<!-- Node15 -->
<g id="node15" class="node">
<title>Node15</title>
<g id="a_node15"><a xlink:href="f__pc__create__tag_8h.html" target="_top" xlink:title=" ">
<polygon fill="white" stroke="#666666" points="196,-222.5 80,-222.5 80,-203.5 196,-203.5 196,-222.5"/>
<text text-anchor="middle" x="138" y="-210.5" font-family="Helvetica,sans-Serif" font-size="10.00">f_pc/f_pc_create_tag.h</text>
</a>
</g>
</g>
<!-- Node13&#45;&gt;Node15 -->
<g id="edge18" class="edge">
<title>Node13&#45;&gt;Node15</title>
<path fill="none" stroke="#63b8ff" d="M149.08,-263.87C147.33,-256 144.69,-244.1 142.42,-233.89"/>
<polygon fill="#63b8ff" stroke="#63b8ff" points="145.84,-233.15 140.25,-224.14 139.01,-234.67 145.84,-233.15"/>
</g>
<!-- Node17 -->
<g id="node17" class="node">
<title>Node17</title>
<g id="a_node17"><a xlink:href="f__pc__method_8h.html" target="_top" xlink:title=" ">
<polygon fill="white" stroke="#666666" points="124,-156.5 22,-156.5 22,-137.5 124,-137.5 124,-156.5"/>
<text text-anchor="middle" x="73" y="-144.5" font-family="Helvetica,sans-Serif" font-size="10.00">f_pc/f_pc_method.h</text>
</a>
</g>
</g>
<!-- Node13&#45;&gt;Node17 -->
<g id="edge21" class="edge">
<title>Node13&#45;&gt;Node17</title>
<path fill="none" stroke="#63b8ff" d="M119.14,-263.56C101.62,-256.83 81.39,-245.67 71,-228 60.23,-209.69 63.04,-184.72 67.05,-167.57"/>
<polygon fill="#63b8ff" stroke="#63b8ff" points="70.37,-168.7 69.61,-158.13 63.61,-166.87 70.37,-168.7"/>
</g>
<!-- Node15&#45;&gt;Node7 -->
<g id="edge20" class="edge">
<title>Node15&#45;&gt;Node7</title>
<path fill="none" stroke="#63b8ff" d="M180.52,-203.07C188.65,-201.37 197.08,-199.62 205,-198 265.17,-185.65 333.62,-171.87 383.34,-161.91"/>
<polygon fill="#63b8ff" stroke="#63b8ff" points="384,-165.35 393.12,-159.95 382.62,-158.48 384,-165.35"/>
</g>
<!-- Node16 -->
<g id="node16" class="node">
<title>Node16</title>
<g id="a_node16"><a xlink:href="c__list_8h.html" target="_top" xlink:title=" ">
<polygon fill="white" stroke="#666666" points="258,-162 142,-162 142,-132 258,-132 258,-162"/>
<text text-anchor="start" x="150" y="-150" font-family="Helvetica,sans-Serif" font-size="10.00">SSystem/SComponent</text>
<text text-anchor="middle" x="200" y="-139" font-family="Helvetica,sans-Serif" font-size="10.00">/c_list.h</text>
</a>
</g>
</g>
<!-- Node15&#45;&gt;Node16 -->
<g id="edge19" class="edge">
<title>Node15&#45;&gt;Node16</title>
<path fill="none" stroke="#63b8ff" d="M146.62,-203.1C154.79,-194.67 167.39,-181.66 178.3,-170.4"/>
<polygon fill="#63b8ff" stroke="#63b8ff" points="180.71,-172.94 185.16,-163.32 175.69,-168.07 180.71,-172.94"/>
</g>
<!-- Node17&#45;&gt;Node3 -->
<g id="edge22" class="edge">
<title>Node17&#45;&gt;Node3</title>
<path fill="none" stroke="#63b8ff" d="M73,-137.1C73,-128.12 73,-113.95 73,-102.22"/>
<polygon fill="#63b8ff" stroke="#63b8ff" points="76.5,-102.34 73,-92.34 69.5,-102.34 76.5,-102.34"/>
</g>
</g>
</svg>
        <g id="navigator" transform="translate(0 0)" fill="#404254">
                <rect fill="#f2f5e9" fill-opacity="0.5" stroke="#606060" stroke-width=".5" x="0" y="0" width="60" height="60"/>
                <use id="zoomplus" xlink:href="#zoomPlus" x="17" y="9" onmousedown="handleZoom(evt,'in')"/>
                <use id="zoomminus" xlink:href="#zoomMin" x="42" y="9" onmousedown="handleZoom(evt,'out')"/>
                <use id="reset" xlink:href="#resetDef" x="30" y="36" onmousedown="handleReset()"/>
                <g id="arrowUp" xlink:href="#dirArrow" transform="translate(30 24)" onmousedown="handlePan(0,-1)">
                  <use xlink:href="#rim" fill="#404040">
                        <set attributeName="fill" to="#808080" begin="arrowUp.mouseover" end="arrowUp.mouseout"/>
                  </use>
                  <path fill="none" stroke="white" stroke-width="1.5" d="M0,-3.0v7 M-2.5,-0.5L0,-3.0L2.5,-0.5"/>
                </g>
                <g id="arrowRight" xlink:href="#dirArrow" transform="rotate(90) translate(36 -43)" onmousedown="handlePan(1,0)">
                  <use xlink:href="#rim" fill="#404040">
                        <set attributeName="fill" to="#808080" begin="arrowRight.mouseover" end="arrowRight.mouseout"/>
                  </use>
                  <path fill="none" stroke="white" stroke-width="1.5" d="M0,-3.0v7 M-2.5,-0.5L0,-3.0L2.5,-0.5"/>
                </g>
                <g id="arrowDown" xlink:href="#dirArrow" transform="rotate(180) translate(-30 -48)" onmousedown="handlePan(0,1)">
                  <use xlink:href="#rim" fill="#404040">
                        <set attributeName="fill" to="#808080" begin="arrowDown.mouseover" end="arrowDown.mouseout"/>
                  </use>
                  <path fill="none" stroke="white" stroke-width="1.5" d="M0,-3.0v7 M-2.5,-0.5L0,-3.0L2.5,-0.5"/>
                </g>
                <g id="arrowLeft" xlink:href="#dirArrow" transform="rotate(270) translate(-36 17)" onmousedown="handlePan(-1,0)">
                  <use xlink:href="#rim" fill="#404040">
                        <set attributeName="fill" to="#808080" begin="arrowLeft.mouseover" end="arrowLeft.mouseout"/>
                  </use>
                  <path fill="none" stroke="white" stroke-width="1.5" d="M0,-3.0v7 M-2.5,-0.5L0,-3.0L2.5,-0.5"/>
                </g>
        </g>
        <svg viewBox="0 0 15 15" width="100%" height="30px" preserveAspectRatio="xMaxYMin meet">
         <g id="arrow_out" transform="scale(0.3 0.3)">
          <a xlink:href="f__pc__creator_8cpp__incl_org.svg" target="_base">
           <rect id="button" ry="5" rx="5" y="6" x="6" height="38" width="38"
                fill="#f2f5e9" fill-opacity="0.5" stroke="#606060" stroke-width="1.0"/>
           <path id="arrow"
             d="M 11.500037,31.436501 C 11.940474,20.09759 22.043105,11.32322 32.158766,21.979434 L 37.068811,17.246167 C 37.068811,17.246167 37.088388,32 37.088388,32 L 22.160133,31.978069 C 22.160133,31.978069 26.997745,27.140456 26.997745,27.140456 C 18.528582,18.264221 13.291696,25.230495 11.500037,31.436501 z"
             style="fill:#404040;"/>
          </a>
         </g>
        </svg>
</svg>
