<?xml version="1.0" encoding="UTF-8" standalone="no"?>
<!DOCTYPE svg PUBLIC "-//W3C//DTD SVG 1.1//EN"
 "http://www.w3.org/Graphics/SVG/1.1/DTD/svg11.dtd">
<!-- Generated by graphviz version 7.0.5 (20221223.1930)
 -->
<!-- Title: src/f_pc/f_pc_create_tag.cpp Pages: 1 -->
<svg width="327pt" height="291pt"
 viewBox="0.00 0.00 327.00 291.00" xmlns="http://www.w3.org/2000/svg" xmlns:xlink="http://www.w3.org/1999/xlink">
<g id="graph0" class="graph" transform="scale(1 1) rotate(0) translate(4 287)">
<title>src/f_pc/f_pc_create_tag.cpp</title>
<!-- Node1 -->
<g id="node1" class="node">
<title>Node1</title>
<g id="a_node1"><a xlink:title=" ">
<polygon fill="#999999" stroke="#666666" points="178,-283 72,-283 72,-253 178,-253 178,-283"/>
<text text-anchor="start" x="80" y="-271" font-family="Helvetica,sans-Serif" font-size="10.00">src/f_pc/f_pc_create</text>
<text text-anchor="middle" x="125" y="-260" font-family="Helvetica,sans-Serif" font-size="10.00">_tag.cpp</text>
</a>
</g>
</g>
<!-- Node2 -->
<g id="node2" class="node">
<title>Node2</title>
<g id="a_node2"><a xlink:href="f__pc__create__tag_8h.html" target="_top" xlink:title=" ">
<polygon fill="white" stroke="#666666" points="183,-217 67,-217 67,-198 183,-198 183,-217"/>
<text text-anchor="middle" x="125" y="-205" font-family="Helvetica,sans-Serif" font-size="10.00">f_pc/f_pc_create_tag.h</text>
</a>
</g>
</g>
<!-- Node1&#45;&gt;Node2 -->
<g id="edge1" class="edge">
<title>Node1&#45;&gt;Node2</title>
<path fill="none" stroke="#63b8ff" d="M125,-252.54C125,-245.34 125,-236.53 125,-228.68"/>
<polygon fill="#63b8ff" stroke="#63b8ff" points="128.5,-228.69 125,-218.69 121.5,-228.69 128.5,-228.69"/>
</g>
<!-- Node3 -->
<g id="node3" class="node">
<title>Node3</title>
<g id="a_node3"><a xlink:href="c__list_8h.html" target="_top" xlink:title=" ">
<polygon fill="white" stroke="#666666" points="116,-162 0,-162 0,-132 116,-132 116,-162"/>
<text text-anchor="start" x="8" y="-150" font-family="Helvetica,sans-Serif" font-size="10.00">SSystem/SComponent</text>
<text text-anchor="middle" x="58" y="-139" font-family="Helvetica,sans-Serif" font-size="10.00">/c_list.h</text>
</a>
</g>
</g>
<!-- Node2&#45;&gt;Node3 -->
<g id="edge2" class="edge">
<title>Node2&#45;&gt;Node3</title>
<path fill="none" stroke="#63b8ff" d="M114.82,-197.62C106.39,-190.25 94.04,-179.47 83,-169.83"/>
<polygon fill="#63b8ff" stroke="#63b8ff" points="85.51,-167.38 75.68,-163.44 80.91,-172.65 85.51,-167.38"/>
</g>
<!-- Node4 -->
<g id="node4" class="node">
<title>Node4</title>
<g id="a_node4"><a xlink:href="c__tag_8h.html" target="_top" xlink:title=" ">
<polygon fill="white" stroke="#666666" points="250,-162 134,-162 134,-132 250,-132 250,-162"/>
<text text-anchor="start" x="142" y="-150" font-family="Helvetica,sans-Serif" font-size="10.00">SSystem/SComponent</text>
<text text-anchor="middle" x="192" y="-139" font-family="Helvetica,sans-Serif" font-size="10.00">/c_tag.h</text>
</a>
</g>
</g>
<!-- Node2&#45;&gt;Node4 -->
<g id="edge3" class="edge">
<title>Node2&#45;&gt;Node4</title>
<path fill="none" stroke="#63b8ff" d="M135.18,-197.62C143.61,-190.25 155.96,-179.47 167,-169.83"/>
<polygon fill="#63b8ff" stroke="#63b8ff" points="169.09,-172.65 174.32,-163.44 164.49,-167.38 169.09,-172.65"/>
</g>
<!-- Node5 -->
<g id="node5" class="node">
<title>Node5</title>
<g id="a_node5"><a xlink:href="c__node_8h.html" target="_top" xlink:title=" ">
<polygon fill="white" stroke="#666666" points="192,-96 76,-96 76,-66 192,-66 192,-96"/>
<text text-anchor="start" x="84" y="-84" font-family="Helvetica,sans-Serif" font-size="10.00">SSystem/SComponent</text>
<text text-anchor="middle" x="134" y="-73" font-family="Helvetica,sans-Serif" font-size="10.00">/c_node.h</text>
</a>
</g>
</g>
<!-- Node4&#45;&gt;Node5 -->
<g id="edge4" class="edge">
<title>Node4&#45;&gt;Node5</title>
<path fill="none" stroke="#63b8ff" d="M179.13,-131.8C171.84,-123.76 162.57,-113.53 154.33,-104.43"/>
<polygon fill="#63b8ff" stroke="#63b8ff" points="157.16,-102.35 147.85,-97.29 151.97,-107.05 157.16,-102.35"/>
</g>
<!-- Node6 -->
<g id="node6" class="node">
<title>Node6</title>
<g id="a_node6"><a xlink:href="types_8h.html" target="_top" xlink:title=" ">
<polygon fill="white" stroke="#666666" points="291.5,-90.5 210.5,-90.5 210.5,-71.5 291.5,-71.5 291.5,-90.5"/>
<text text-anchor="middle" x="251" y="-78.5" font-family="Helvetica,sans-Serif" font-size="10.00">dolphin/types.h</text>
</a>
</g>
</g>
<!-- Node4&#45;&gt;Node6 -->
<g id="edge5" class="edge">
<title>Node4&#45;&gt;Node6</title>
<path fill="none" stroke="#63b8ff" d="M205.09,-131.8C214.02,-122.11 225.89,-109.24 235.32,-99.01"/>
<polygon fill="#63b8ff" stroke="#63b8ff" points="237.62,-101.68 241.82,-91.96 232.47,-96.94 237.62,-101.68"/>
</g>
<!-- Node7 -->
<g id="node7" class="node">
<title>Node7</title>
<g id="a_node7"><a xlink:href="stddef_8h.html" target="_top" xlink:title=" ">
<polygon fill="white" stroke="#666666" points="319,-30 183,-30 183,0 319,0 319,-30"/>
<text text-anchor="start" x="191" y="-18" font-family="Helvetica,sans-Serif" font-size="10.00">MSL_C/MSL_Common/Src</text>
<text text-anchor="middle" x="251" y="-7" font-family="Helvetica,sans-Serif" font-size="10.00">/stddef.h</text>
</a>
</g>
</g>
<!-- Node6&#45;&gt;Node7 -->
<g id="edge6" class="edge">
<title>Node6&#45;&gt;Node7</title>
<path fill="none" stroke="#63b8ff" d="M251,-71.1C251,-63.41 251,-51.92 251,-41.42"/>
<polygon fill="#63b8ff" stroke="#63b8ff" points="254.5,-41.75 251,-31.75 247.5,-41.75 254.5,-41.75"/>
</g>
</g>
</svg>
