<?xml version="1.0" encoding="UTF-8" standalone="no"?>
<!DOCTYPE svg PUBLIC "-//W3C//DTD SVG 1.1//EN"
 "http://www.w3.org/Graphics/SVG/1.1/DTD/svg11.dtd">
<!-- Generated by graphviz version 7.0.5 (20221223.1930)
 -->
<!-- Title: libs/dolphin/dvd/fstload.c Pages: 1 -->
<svg width="1631pt" height="379pt"
 viewBox="0.00 0.00 1631.00 379.00" xmlns="http://www.w3.org/2000/svg" xmlns:xlink="http://www.w3.org/1999/xlink">
<g id="graph0" class="graph" transform="scale(1 1) rotate(0) translate(4 375)">
<title>libs/dolphin/dvd/fstload.c</title>
<!-- Node1 -->
<g id="node1" class="node">
<title>Node1</title>
<g id="a_node1"><a xlink:title=" ">
<polygon fill="#999999" stroke="#666666" points="388,-371 264,-371 264,-352 388,-352 388,-371"/>
<text text-anchor="middle" x="326" y="-359" font-family="Helvetica,sans-Serif" font-size="10.00">libs/dolphin/dvd/fstload.c</text>
</a>
</g>
</g>
<!-- Node2 -->
<g id="node2" class="node">
<title>Node2</title>
<g id="a_node2"><a xlink:href="fstload_8h.html" target="_top" xlink:title=" ">
<polygon fill="white" stroke="#666666" points="298,-316 192,-316 192,-297 298,-297 298,-316"/>
<text text-anchor="middle" x="245" y="-304" font-family="Helvetica,sans-Serif" font-size="10.00">dolphin/dvd/fstload.h</text>
</a>
</g>
</g>
<!-- Node1&#45;&gt;Node2 -->
<g id="edge1" class="edge">
<title>Node1&#45;&gt;Node2</title>
<path fill="none" stroke="#63b8ff" d="M312.26,-351.51C300.2,-343.62 282.41,-331.98 268.16,-322.65"/>
<polygon fill="#63b8ff" stroke="#63b8ff" points="270.09,-319.73 259.8,-317.19 266.26,-325.59 270.09,-319.73"/>
</g>
<!-- Node3 -->
<g id="node3" class="node">
<title>Node3</title>
<g id="a_node3"><a xlink:href="dvd_8h.html" target="_top" xlink:title=" ">
<polygon fill="white" stroke="#666666" points="92,-261 0,-261 0,-242 92,-242 92,-261"/>
<text text-anchor="middle" x="46" y="-249" font-family="Helvetica,sans-Serif" font-size="10.00">dolphin/dvd/dvd.h</text>
</a>
</g>
</g>
<!-- Node1&#45;&gt;Node3 -->
<g id="edge2" class="edge">
<title>Node1&#45;&gt;Node3</title>
<path fill="none" stroke="#63b8ff" d="M326.1,-351.59C325.73,-337.7 322.86,-311.03 307,-297 299.4,-290.27 177.97,-271.63 103.45,-260.73"/>
<polygon fill="#63b8ff" stroke="#63b8ff" points="104.27,-257.31 93.87,-259.33 103.26,-264.24 104.27,-257.31"/>
</g>
<!-- Node6 -->
<g id="node6" class="node">
<title>Node6</title>
<g id="a_node6"><a xlink:href="OS_8h.html" target="_top" xlink:title=" ">
<polygon fill="white" stroke="#666666" points="763,-316 677,-316 677,-297 763,-297 763,-316"/>
<text text-anchor="middle" x="720" y="-304" font-family="Helvetica,sans-Serif" font-size="10.00">dolphin/os/OS.h</text>
</a>
</g>
</g>
<!-- Node1&#45;&gt;Node6 -->
<g id="edge5" class="edge">
<title>Node1&#45;&gt;Node6</title>
<path fill="none" stroke="#63b8ff" d="M388.43,-352.1C464.84,-341.82 593,-324.58 665.57,-314.82"/>
<polygon fill="#63b8ff" stroke="#63b8ff" points="665.78,-318.32 675.23,-313.52 664.85,-311.39 665.78,-318.32"/>
</g>
<!-- Node4 -->
<g id="node4" class="node">
<title>Node4</title>
<g id="a_node4"><a xlink:href="types_8h.html" target="_top" xlink:title=" ">
<polygon fill="white" stroke="#666666" points="818.5,-85 737.5,-85 737.5,-66 818.5,-66 818.5,-85"/>
<text text-anchor="middle" x="778" y="-73" font-family="Helvetica,sans-Serif" font-size="10.00">dolphin/types.h</text>
</a>
</g>
</g>
<!-- Node3&#45;&gt;Node4 -->
<g id="edge3" class="edge">
<title>Node3&#45;&gt;Node4</title>
<path fill="none" stroke="#63b8ff" d="M45.07,-241.66C44.15,-228.34 44.39,-202.99 57,-187 102.85,-128.84 138.11,-138.8 210,-121 307.08,-96.96 605.23,-83.13 726.19,-78.38"/>
<polygon fill="#63b8ff" stroke="#63b8ff" points="725.97,-81.9 735.82,-78.01 725.7,-74.9 725.97,-81.9"/>
</g>
<!-- Node5 -->
<g id="node5" class="node">
<title>Node5</title>
<g id="a_node5"><a xlink:href="stddef_8h.html" target="_top" xlink:title=" ">
<polygon fill="white" stroke="#666666" points="846,-30 710,-30 710,0 846,0 846,-30"/>
<text text-anchor="start" x="718" y="-18" font-family="Helvetica,sans-Serif" font-size="10.00">MSL_C/MSL_Common/Src</text>
<text text-anchor="middle" x="778" y="-7" font-family="Helvetica,sans-Serif" font-size="10.00">/stddef.h</text>
</a>
</g>
</g>
<!-- Node4&#45;&gt;Node5 -->
<g id="edge4" class="edge">
<title>Node4&#45;&gt;Node5</title>
<path fill="none" stroke="#63b8ff" d="M778,-65.87C778,-59.4 778,-50.2 778,-41.45"/>
<polygon fill="#63b8ff" stroke="#63b8ff" points="781.5,-41.63 778,-31.63 774.5,-41.63 781.5,-41.63"/>
</g>
<!-- Node6&#45;&gt;Node3 -->
<g id="edge8" class="edge">
<title>Node6&#45;&gt;Node3</title>
<path fill="none" stroke="#63b8ff" d="M676.73,-303.38C576.3,-298.25 319.6,-283.84 106,-261 105.18,-260.91 104.35,-260.82 103.51,-260.73"/>
<polygon fill="#63b8ff" stroke="#63b8ff" points="104.32,-257.3 93.98,-259.58 103.49,-264.25 104.32,-257.3"/>
</g>
<!-- Node7 -->
<g id="node7" class="node">
<title>Node7</title>
<g id="a_node7"><a xlink:href="____va__arg_8h.html" target="_top" xlink:title=" ">
<polygon fill="white" stroke="#666666" points="1623,-151 1513,-151 1513,-121 1623,-121 1623,-151"/>
<text text-anchor="start" x="1521" y="-139" font-family="Helvetica,sans-Serif" font-size="10.00">Runtime.PPCEABI.H/</text>
<text text-anchor="middle" x="1568" y="-128" font-family="Helvetica,sans-Serif" font-size="10.00">__va_arg.h</text>
</a>
</g>
</g>
<!-- Node6&#45;&gt;Node7 -->
<g id="edge6" class="edge">
<title>Node6&#45;&gt;Node7</title>
<path fill="none" stroke="#63b8ff" d="M763.34,-304.67C929.56,-301.28 1518.59,-287.44 1548,-261 1575.24,-236.51 1575.34,-190.76 1572.19,-162.2"/>
<polygon fill="#63b8ff" stroke="#63b8ff" points="1575.71,-162.08 1570.91,-152.63 1568.77,-163 1575.71,-162.08"/>
</g>
<!-- Node8 -->
<g id="node8" class="node">
<title>Node8</title>
<g id="a_node8"><a xlink:href="OSAlarm_8h.html" target="_top" xlink:title=" ">
<polygon fill="white" stroke="#666666" points="259.5,-261 148.5,-261 148.5,-242 259.5,-242 259.5,-261"/>
<text text-anchor="middle" x="204" y="-249" font-family="Helvetica,sans-Serif" font-size="10.00">dolphin/os/OSAlarm.h</text>
</a>
</g>
</g>
<!-- Node6&#45;&gt;Node8 -->
<g id="edge9" class="edge">
<title>Node6&#45;&gt;Node8</title>
<path fill="none" stroke="#63b8ff" d="M676.6,-301.48C596.83,-294.02 421.53,-277.32 274,-261 272.99,-260.89 271.97,-260.77 270.94,-260.66"/>
<polygon fill="#63b8ff" stroke="#63b8ff" points="271.61,-257.21 261.28,-259.55 270.81,-264.17 271.61,-257.21"/>
</g>
<!-- Node9 -->
<g id="node9" class="node">
<title>Node9</title>
<g id="a_node9"><a xlink:href="OSError_8h.html" target="_top" xlink:title=" ">
<polygon fill="white" stroke="#666666" points="172,-206 66,-206 66,-187 172,-187 172,-206"/>
<text text-anchor="middle" x="119" y="-194" font-family="Helvetica,sans-Serif" font-size="10.00">dolphin/os/OSError.h</text>
</a>
</g>
</g>
<!-- Node6&#45;&gt;Node9 -->
<g id="edge23" class="edge">
<title>Node6&#45;&gt;Node9</title>
<path fill="none" stroke="#63b8ff" d="M676.78,-304.94C549.26,-302.92 180.84,-294.22 139,-261 125.98,-250.66 121.28,-231.89 119.65,-217.43"/>
<polygon fill="#63b8ff" stroke="#63b8ff" points="123.16,-217.4 118.99,-207.66 116.18,-217.87 123.16,-217.4"/>
</g>
<!-- Node10 -->
<g id="node10" class="node">
<title>Node10</title>
<g id="a_node10"><a xlink:href="OSTime_8h.html" target="_top" xlink:title=" ">
<polygon fill="white" stroke="#666666" points="297.5,-206 190.5,-206 190.5,-187 297.5,-187 297.5,-206"/>
<text text-anchor="middle" x="244" y="-194" font-family="Helvetica,sans-Serif" font-size="10.00">dolphin/os/OSTime.h</text>
</a>
</g>
</g>
<!-- Node6&#45;&gt;Node10 -->
<g id="edge49" class="edge">
<title>Node6&#45;&gt;Node10</title>
<path fill="none" stroke="#63b8ff" d="M676.54,-304.21C585.12,-300.94 376.12,-290.4 312,-261 289.6,-250.73 269.74,-230.14 257.36,-215.19"/>
<polygon fill="#63b8ff" stroke="#63b8ff" points="260.24,-213.19 251.29,-207.52 254.75,-217.54 260.24,-213.19"/>
</g>
<!-- Node11 -->
<g id="node11" class="node">
<title>Node11</title>
<g id="a_node11"><a xlink:href="OSAlloc_8h.html" target="_top" xlink:title=" ">
<polygon fill="white" stroke="#666666" points="476.5,-145.5 369.5,-145.5 369.5,-126.5 476.5,-126.5 476.5,-145.5"/>
<text text-anchor="middle" x="423" y="-133.5" font-family="Helvetica,sans-Serif" font-size="10.00">dolphin/os/OSAlloc.h</text>
</a>
</g>
</g>
<!-- Node6&#45;&gt;Node11 -->
<g id="edge14" class="edge">
<title>Node6&#45;&gt;Node11</title>
<path fill="none" stroke="#63b8ff" d="M676.81,-304.81C595.18,-302.74 422.14,-294.41 374,-261 344.98,-240.86 328.05,-217.99 345,-187 353.99,-170.56 370.95,-158.73 386.76,-150.72"/>
<polygon fill="#63b8ff" stroke="#63b8ff" points="387.94,-154.03 395.52,-146.63 384.98,-147.69 387.94,-154.03"/>
</g>
<!-- Node12 -->
<g id="node12" class="node">
<title>Node12</title>
<g id="a_node12"><a xlink:href="OSArena_8h.html" target="_top" xlink:title=" ">
<polygon fill="white" stroke="#666666" points="465.5,-206 354.5,-206 354.5,-187 465.5,-187 465.5,-206"/>
<text text-anchor="middle" x="410" y="-194" font-family="Helvetica,sans-Serif" font-size="10.00">dolphin/os/OSArena.h</text>
</a>
</g>
</g>
<!-- Node6&#45;&gt;Node12 -->
<g id="edge16" class="edge">
<title>Node6&#45;&gt;Node12</title>
<path fill="none" stroke="#63b8ff" d="M676.61,-302.92C589.96,-297.32 402.09,-282.77 383,-261 371.32,-247.68 382.14,-228.56 393.37,-214.79"/>
<polygon fill="#63b8ff" stroke="#63b8ff" points="395.92,-217.18 399.93,-207.37 390.68,-212.54 395.92,-217.18"/>
</g>
<!-- Node13 -->
<g id="node13" class="node">
<title>Node13</title>
<g id="a_node13"><a xlink:href="OSAudioSystem_8h.html" target="_top" xlink:title=" ">
<polygon fill="white" stroke="#666666" points="535.5,-261 392.5,-261 392.5,-242 535.5,-242 535.5,-261"/>
<text text-anchor="middle" x="464" y="-249" font-family="Helvetica,sans-Serif" font-size="10.00">dolphin/os/OSAudioSystem.h</text>
</a>
</g>
</g>
<!-- Node6&#45;&gt;Node13 -->
<g id="edge18" class="edge">
<title>Node6&#45;&gt;Node13</title>
<path fill="none" stroke="#63b8ff" d="M676.57,-296.51C632.95,-287.48 565.61,-273.54 518.44,-263.77"/>
<polygon fill="#63b8ff" stroke="#63b8ff" points="519.2,-260.35 508.69,-261.75 517.78,-267.21 519.2,-260.35"/>
</g>
<!-- Node14 -->
<g id="node14" class="node">
<title>Node14</title>
<g id="a_node14"><a xlink:href="OSCache_8h.html" target="_top" xlink:title=" ">
<polygon fill="white" stroke="#666666" points="596.5,-206 483.5,-206 483.5,-187 596.5,-187 596.5,-206"/>
<text text-anchor="middle" x="540" y="-194" font-family="Helvetica,sans-Serif" font-size="10.00">dolphin/os/OSCache.h</text>
</a>
</g>
</g>
<!-- Node6&#45;&gt;Node14 -->
<g id="edge19" class="edge">
<title>Node6&#45;&gt;Node14</title>
<path fill="none" stroke="#63b8ff" d="M695.02,-296.61C674.02,-288.64 643.56,-275.93 619,-261 596.33,-247.23 572.97,-227.66 557.59,-213.9"/>
<polygon fill="#63b8ff" stroke="#63b8ff" points="559.99,-211.35 550.24,-207.2 555.28,-216.52 559.99,-211.35"/>
</g>
<!-- Node15 -->
<g id="node15" class="node">
<title>Node15</title>
<g id="a_node15"><a xlink:href="OSContext_8h.html" target="_top" xlink:title=" ">
<polygon fill="white" stroke="#666666" points="902.5,-145.5 783.5,-145.5 783.5,-126.5 902.5,-126.5 902.5,-145.5"/>
<text text-anchor="middle" x="843" y="-133.5" font-family="Helvetica,sans-Serif" font-size="10.00">dolphin/os/OSContext.h</text>
</a>
</g>
</g>
<!-- Node6&#45;&gt;Node15 -->
<g id="edge21" class="edge">
<title>Node6&#45;&gt;Node15</title>
<path fill="none" stroke="#63b8ff" d="M763.34,-304.24C827.79,-301.35 944.13,-291.88 970,-261 1006.52,-217.41 924.39,-172.23 875.7,-150.4"/>
<polygon fill="#63b8ff" stroke="#63b8ff" points="877.24,-147.26 866.68,-146.47 874.44,-153.67 877.24,-147.26"/>
</g>
<!-- Node16 -->
<g id="node16" class="node">
<title>Node16</title>
<g id="a_node16"><a xlink:href="OSExec_8h.html" target="_top" xlink:title=" ">
<polygon fill="white" stroke="#666666" points="721.5,-206 614.5,-206 614.5,-187 721.5,-187 721.5,-206"/>
<text text-anchor="middle" x="668" y="-194" font-family="Helvetica,sans-Serif" font-size="10.00">dolphin/os/OSExec.h</text>
</a>
</g>
</g>
<!-- Node6&#45;&gt;Node16 -->
<g id="edge24" class="edge">
<title>Node6&#45;&gt;Node16</title>
<path fill="none" stroke="#63b8ff" d="M677.92,-296.51C658.61,-290.05 637.49,-279.15 626,-261 615.7,-244.72 630.74,-226.4 645.61,-213.63"/>
<polygon fill="#63b8ff" stroke="#63b8ff" points="647.78,-216.37 653.43,-207.41 643.42,-210.9 647.78,-216.37"/>
</g>
<!-- Node17 -->
<g id="node17" class="node">
<title>Node17</title>
<g id="a_node17"><a xlink:href="OSFont_8h.html" target="_top" xlink:title=" ">
<polygon fill="white" stroke="#666666" points="765.5,-145.5 660.5,-145.5 660.5,-126.5 765.5,-126.5 765.5,-145.5"/>
<text text-anchor="middle" x="713" y="-133.5" font-family="Helvetica,sans-Serif" font-size="10.00">dolphin/os/OSFont.h</text>
</a>
</g>
</g>
<!-- Node6&#45;&gt;Node17 -->
<g id="edge26" class="edge">
<title>Node6&#45;&gt;Node17</title>
<path fill="none" stroke="#63b8ff" d="M711.23,-296.52C703.68,-288.13 693.34,-274.83 689,-261 686.47,-252.94 685.52,-249.69 689,-242 699,-219.91 720,-228.09 730,-206 737.31,-189.86 731.07,-170.11 724.18,-155.89"/>
<polygon fill="#63b8ff" stroke="#63b8ff" points="727.3,-154.31 719.48,-147.17 721.14,-157.63 727.3,-154.31"/>
</g>
<!-- Node18 -->
<g id="node18" class="node">
<title>Node18</title>
<g id="a_node18"><a xlink:href="OSInterrupt_8h.html" target="_top" xlink:title=" ">
<polygon fill="white" stroke="#666666" points="1128,-206 1006,-206 1006,-187 1128,-187 1128,-206"/>
<text text-anchor="middle" x="1067" y="-194" font-family="Helvetica,sans-Serif" font-size="10.00">dolphin/os/OSInterrupt.h</text>
</a>
</g>
</g>
<!-- Node6&#45;&gt;Node18 -->
<g id="edge28" class="edge">
<title>Node6&#45;&gt;Node18</title>
<path fill="none" stroke="#63b8ff" d="M763.31,-304.21C866.77,-300.67 1121.61,-289.17 1147,-261 1165,-241.03 1133.61,-222.44 1105.03,-210.6"/>
<polygon fill="#63b8ff" stroke="#63b8ff" points="1106.31,-207.34 1095.72,-206.96 1103.76,-213.86 1106.31,-207.34"/>
</g>
<!-- Node19 -->
<g id="node19" class="node">
<title>Node19</title>
<g id="a_node19"><a xlink:href="OSLink_8h.html" target="_top" xlink:title=" ">
<polygon fill="white" stroke="#666666" points="1063,-145.5 959,-145.5 959,-126.5 1063,-126.5 1063,-145.5"/>
<text text-anchor="middle" x="1011" y="-133.5" font-family="Helvetica,sans-Serif" font-size="10.00">dolphin/os/OSLink.h</text>
</a>
</g>
</g>
<!-- Node6&#45;&gt;Node19 -->
<g id="edge30" class="edge">
<title>Node6&#45;&gt;Node19</title>
<path fill="none" stroke="#63b8ff" d="M763.45,-304.39C869.98,-301.21 1137.43,-290.37 1164,-261 1183.15,-239.84 1159.02,-207.35 1137,-187 1124.05,-175.03 1083.1,-159.95 1051.36,-149.49"/>
<polygon fill="#63b8ff" stroke="#63b8ff" points="1052.61,-146.22 1042.01,-146.46 1050.45,-152.88 1052.61,-146.22"/>
</g>
<!-- Node20 -->
<g id="node20" class="node">
<title>Node20</title>
<g id="a_node20"><a xlink:href="OSMemory_8h.html" target="_top" xlink:title=" ">
<polygon fill="white" stroke="#666666" points="1138,-261 1018,-261 1018,-242 1138,-242 1138,-261"/>
<text text-anchor="middle" x="1078" y="-249" font-family="Helvetica,sans-Serif" font-size="10.00">dolphin/os/OSMemory.h</text>
</a>
</g>
</g>
<!-- Node6&#45;&gt;Node20 -->
<g id="edge32" class="edge">
<title>Node6&#45;&gt;Node20</title>
<path fill="none" stroke="#63b8ff" d="M763.18,-299.11C823.47,-290.18 933.61,-273.88 1006.31,-263.11"/>
<polygon fill="#63b8ff" stroke="#63b8ff" points="1006.77,-266.58 1016.15,-261.66 1005.74,-259.66 1006.77,-266.58"/>
</g>
<!-- Node21 -->
<g id="node21" class="node">
<title>Node21</title>
<g id="a_node21"><a xlink:href="OSMessage_8h.html" target="_top" xlink:title=" ">
<polygon fill="white" stroke="#666666" points="961.5,-261 836.5,-261 836.5,-242 961.5,-242 961.5,-261"/>
<text text-anchor="middle" x="899" y="-249" font-family="Helvetica,sans-Serif" font-size="10.00">dolphin/os/OSMessage.h</text>
</a>
</g>
</g>
<!-- Node6&#45;&gt;Node21 -->
<g id="edge34" class="edge">
<title>Node6&#45;&gt;Node21</title>
<path fill="none" stroke="#63b8ff" d="M750.36,-296.51C779.9,-287.76 824.98,-274.42 857.75,-264.71"/>
<polygon fill="#63b8ff" stroke="#63b8ff" points="858.74,-268.07 867.33,-261.88 856.75,-261.36 858.74,-268.07"/>
</g>
<!-- Node22 -->
<g id="node22" class="node">
<title>Node22</title>
<g id="a_node22"><a xlink:href="OSThread_8h.html" target="_top" xlink:title=" ">
<polygon fill="white" stroke="#666666" points="898,-206 782,-206 782,-187 898,-187 898,-206"/>
<text text-anchor="middle" x="840" y="-194" font-family="Helvetica,sans-Serif" font-size="10.00">dolphin/os/OSThread.h</text>
</a>
</g>
</g>
<!-- Node6&#45;&gt;Node22 -->
<g id="edge48" class="edge">
<title>Node6&#45;&gt;Node22</title>
<path fill="none" stroke="#63b8ff" d="M711.81,-296.53C700.94,-283.49 684.49,-259 697,-242 707.22,-228.11 745.24,-216.67 779.51,-208.87"/>
<polygon fill="#63b8ff" stroke="#63b8ff" points="779.97,-212.35 788.99,-206.79 778.47,-205.51 779.97,-212.35"/>
</g>
<!-- Node23 -->
<g id="node23" class="node">
<title>Node23</title>
<g id="a_node23"><a xlink:href="OSMutex_8h.html" target="_top" xlink:title=" ">
<polygon fill="white" stroke="#666666" points="818,-261 706,-261 706,-242 818,-242 818,-261"/>
<text text-anchor="middle" x="762" y="-249" font-family="Helvetica,sans-Serif" font-size="10.00">dolphin/os/OSMutex.h</text>
</a>
</g>
</g>
<!-- Node6&#45;&gt;Node23 -->
<g id="edge37" class="edge">
<title>Node6&#45;&gt;Node23</title>
<path fill="none" stroke="#63b8ff" d="M726.94,-296.75C732.62,-289.58 740.84,-279.2 747.89,-270.3"/>
<polygon fill="#63b8ff" stroke="#63b8ff" points="750.51,-272.64 753.97,-262.63 745.02,-268.29 750.51,-272.64"/>
</g>
<!-- Node24 -->
<g id="node24" class="node">
<title>Node24</title>
<g id="a_node24"><a xlink:href="OSReboot_8h.html" target="_top" xlink:title=" ">
<polygon fill="white" stroke="#666666" points="1300,-206 1184,-206 1184,-187 1300,-187 1300,-206"/>
<text text-anchor="middle" x="1242" y="-194" font-family="Helvetica,sans-Serif" font-size="10.00">dolphin/os/OSReboot.h</text>
</a>
</g>
</g>
<!-- Node6&#45;&gt;Node24 -->
<g id="edge39" class="edge">
<title>Node6&#45;&gt;Node24</title>
<path fill="none" stroke="#63b8ff" d="M763.4,-304.23C877.97,-300.52 1182.18,-288.19 1218,-261 1231.5,-250.75 1237.41,-231.97 1239.99,-217.48"/>
<polygon fill="#63b8ff" stroke="#63b8ff" points="1243.45,-218.05 1241.31,-207.67 1236.51,-217.12 1243.45,-218.05"/>
</g>
<!-- Node25 -->
<g id="node25" class="node">
<title>Node25</title>
<g id="a_node25"><a xlink:href="OSReset_8h.html" target="_top" xlink:title=" ">
<polygon fill="white" stroke="#666666" points="1230.5,-145.5 1119.5,-145.5 1119.5,-126.5 1230.5,-126.5 1230.5,-145.5"/>
<text text-anchor="middle" x="1175" y="-133.5" font-family="Helvetica,sans-Serif" font-size="10.00">dolphin/os/OSReset.h</text>
</a>
</g>
</g>
<!-- Node6&#45;&gt;Node25 -->
<g id="edge41" class="edge">
<title>Node6&#45;&gt;Node25</title>
<path fill="none" stroke="#63b8ff" d="M763.42,-305C872.17,-303.23 1153.72,-295.38 1240,-261 1281.77,-244.36 1334.64,-223.94 1309,-187 1298.78,-172.28 1257.47,-158.26 1223.38,-148.83"/>
<polygon fill="#63b8ff" stroke="#63b8ff" points="1224.65,-145.55 1214.08,-146.33 1222.83,-152.31 1224.65,-145.55"/>
</g>
<!-- Node26 -->
<g id="node26" class="node">
<title>Node26</title>
<g id="a_node26"><a xlink:href="OSResetSW_8h.html" target="_top" xlink:title=" ">
<polygon fill="white" stroke="#666666" points="1375.5,-145.5 1248.5,-145.5 1248.5,-126.5 1375.5,-126.5 1375.5,-145.5"/>
<text text-anchor="middle" x="1312" y="-133.5" font-family="Helvetica,sans-Serif" font-size="10.00">dolphin/os/OSResetSW.h</text>
</a>
</g>
</g>
<!-- Node6&#45;&gt;Node26 -->
<g id="edge43" class="edge">
<title>Node6&#45;&gt;Node26</title>
<path fill="none" stroke="#63b8ff" d="M763.4,-306.04C877.95,-306.84 1185.82,-304.73 1276,-261 1306,-246.46 1314.83,-237.03 1327,-206 1333.43,-189.61 1327.92,-169.9 1321.85,-155.74"/>
<polygon fill="#63b8ff" stroke="#63b8ff" points="1325.2,-154.63 1317.73,-147.12 1318.89,-157.65 1325.2,-154.63"/>
</g>
<!-- Node27 -->
<g id="node27" class="node">
<title>Node27</title>
<g id="a_node27"><a xlink:href="OSRtc_8h.html" target="_top" xlink:title=" ">
<polygon fill="white" stroke="#666666" points="1494.5,-145.5 1393.5,-145.5 1393.5,-126.5 1494.5,-126.5 1494.5,-145.5"/>
<text text-anchor="middle" x="1444" y="-133.5" font-family="Helvetica,sans-Serif" font-size="10.00">dolphin/os/OSRtc.h</text>
</a>
</g>
</g>
<!-- Node6&#45;&gt;Node27 -->
<g id="edge45" class="edge">
<title>Node6&#45;&gt;Node27</title>
<path fill="none" stroke="#63b8ff" d="M763.28,-305.77C881.47,-305.93 1207.4,-302.51 1305,-261 1360.37,-237.45 1408.68,-182.63 1430.94,-154.43"/>
<polygon fill="#63b8ff" stroke="#63b8ff" points="1433.44,-156.92 1436.78,-146.87 1427.9,-152.65 1433.44,-156.92"/>
</g>
<!-- Node28 -->
<g id="node28" class="node">
<title>Node28</title>
<g id="a_node28"><a xlink:href="OSSync_8h.html" target="_top" xlink:title=" ">
<polygon fill="white" stroke="#666666" points="1539.5,-261 1432.5,-261 1432.5,-242 1539.5,-242 1539.5,-261"/>
<text text-anchor="middle" x="1486" y="-249" font-family="Helvetica,sans-Serif" font-size="10.00">dolphin/os/OSSync.h</text>
</a>
</g>
</g>
<!-- Node6&#45;&gt;Node28 -->
<g id="edge47" class="edge">
<title>Node6&#45;&gt;Node28</title>
<path fill="none" stroke="#63b8ff" d="M763.36,-303.65C873.12,-298.78 1170.78,-284.31 1418,-261 1419.01,-260.9 1420.03,-260.81 1421.05,-260.71"/>
<polygon fill="#63b8ff" stroke="#63b8ff" points="1421.13,-264.22 1430.71,-259.69 1420.39,-257.26 1421.13,-264.22"/>
</g>
<!-- Node7&#45;&gt;Node4 -->
<g id="edge7" class="edge">
<title>Node7&#45;&gt;Node4</title>
<path fill="none" stroke="#63b8ff" d="M1512.78,-122.51C1509.48,-121.95 1506.2,-121.44 1503,-121 1252.43,-86.53 949.46,-78.76 830.01,-77.01"/>
<polygon fill="#63b8ff" stroke="#63b8ff" points="830.25,-73.51 820.21,-76.87 830.16,-80.51 830.25,-73.51"/>
</g>
<!-- Node8&#45;&gt;Node9 -->
<g id="edge10" class="edge">
<title>Node8&#45;&gt;Node9</title>
<path fill="none" stroke="#63b8ff" d="M189.58,-241.51C176.8,-233.54 157.9,-221.75 142.87,-212.38"/>
<polygon fill="#63b8ff" stroke="#63b8ff" points="144.83,-209.48 134.49,-207.16 141.12,-215.42 144.83,-209.48"/>
</g>
<!-- Node8&#45;&gt;Node10 -->
<g id="edge12" class="edge">
<title>Node8&#45;&gt;Node10</title>
<path fill="none" stroke="#63b8ff" d="M210.61,-241.75C215.96,-234.66 223.68,-224.42 230.35,-215.59"/>
<polygon fill="#63b8ff" stroke="#63b8ff" points="233.11,-217.74 236.34,-207.65 227.52,-213.52 233.11,-217.74"/>
</g>
<!-- Node9&#45;&gt;Node4 -->
<g id="edge11" class="edge">
<title>Node9&#45;&gt;Node4</title>
<path fill="none" stroke="#63b8ff" d="M135.89,-186.53C167.24,-170.36 236.98,-136.53 300,-121 451.41,-83.68 636.83,-77.14 725.67,-76.33"/>
<polygon fill="#63b8ff" stroke="#63b8ff" points="725.55,-79.83 735.52,-76.26 725.5,-72.83 725.55,-79.83"/>
</g>
<!-- Node10&#45;&gt;Node4 -->
<g id="edge13" class="edge">
<title>Node10&#45;&gt;Node4</title>
<path fill="none" stroke="#63b8ff" d="M254,-186.72C273.08,-170.54 316.65,-136.26 360,-121 426.32,-97.66 629.58,-84.24 726.09,-79.04"/>
<polygon fill="#63b8ff" stroke="#63b8ff" points="726,-82.55 735.8,-78.52 725.63,-75.56 726,-82.55"/>
</g>
<!-- Node11&#45;&gt;Node4 -->
<g id="edge15" class="edge">
<title>Node11&#45;&gt;Node4</title>
<path fill="none" stroke="#63b8ff" d="M476.92,-126.12C544.48,-114.98 659.48,-96.03 726.09,-85.05"/>
<polygon fill="#63b8ff" stroke="#63b8ff" points="726.36,-88.56 735.66,-83.48 725.22,-81.65 726.36,-88.56"/>
</g>
<!-- Node12&#45;&gt;Node4 -->
<g id="edge17" class="edge">
<title>Node12&#45;&gt;Node4</title>
<path fill="none" stroke="#63b8ff" d="M429.03,-186.57C461.76,-171.47 531.07,-140.63 592,-121 636.54,-106.65 688.4,-94.62 726.03,-86.69"/>
<polygon fill="#63b8ff" stroke="#63b8ff" points="726.67,-90.14 735.75,-84.68 725.25,-83.28 726.67,-90.14"/>
</g>
<!-- Node14&#45;&gt;Node4 -->
<g id="edge20" class="edge">
<title>Node14&#45;&gt;Node4</title>
<path fill="none" stroke="#63b8ff" d="M550,-186.5C567.5,-171.17 605.31,-139.8 642,-121 669.57,-106.87 702.54,-95.95 729.12,-88.46"/>
<polygon fill="#63b8ff" stroke="#63b8ff" points="729.9,-91.88 738.62,-85.86 728.06,-85.13 729.9,-91.88"/>
</g>
<!-- Node15&#45;&gt;Node4 -->
<g id="edge22" class="edge">
<title>Node15&#45;&gt;Node4</title>
<path fill="none" stroke="#63b8ff" d="M833.13,-126.12C823.39,-117.35 808.28,-103.75 796.34,-93"/>
<polygon fill="#63b8ff" stroke="#63b8ff" points="798.86,-90.57 789.09,-86.48 794.18,-95.77 798.86,-90.57"/>
</g>
<!-- Node16&#45;&gt;Node4 -->
<g id="edge25" class="edge">
<title>Node16&#45;&gt;Node4</title>
<path fill="none" stroke="#63b8ff" d="M661.98,-186.83C652.5,-171.99 636.57,-141.34 651,-121 667.97,-97.07 698.85,-85.91 725.9,-80.75"/>
<polygon fill="#63b8ff" stroke="#63b8ff" points="726.42,-84.21 735.72,-79.13 725.28,-77.3 726.42,-84.21"/>
</g>
<!-- Node17&#45;&gt;Node4 -->
<g id="edge27" class="edge">
<title>Node17&#45;&gt;Node4</title>
<path fill="none" stroke="#63b8ff" d="M722.87,-126.12C732.61,-117.35 747.72,-103.75 759.66,-93"/>
<polygon fill="#63b8ff" stroke="#63b8ff" points="761.82,-95.77 766.91,-86.48 757.14,-90.57 761.82,-95.77"/>
</g>
<!-- Node18&#45;&gt;Node4 -->
<g id="edge29" class="edge">
<title>Node18&#45;&gt;Node4</title>
<path fill="none" stroke="#63b8ff" d="M1036.6,-186.64C1012.33,-178.94 977.89,-166.58 950,-151 930.91,-140.33 930.3,-131.28 911,-121 884.42,-106.84 852.47,-95.98 826.55,-88.53"/>
<polygon fill="#63b8ff" stroke="#63b8ff" points="827.51,-85.16 816.94,-85.85 825.63,-91.91 827.51,-85.16"/>
</g>
<!-- Node19&#45;&gt;Node4 -->
<g id="edge31" class="edge">
<title>Node19&#45;&gt;Node4</title>
<path fill="none" stroke="#63b8ff" d="M975.36,-126.05C935.02,-115.92 869.15,-99.39 824.72,-88.23"/>
<polygon fill="#63b8ff" stroke="#63b8ff" points="825.66,-84.86 815.11,-85.82 823.95,-91.65 825.66,-84.86"/>
</g>
<!-- Node20&#45;&gt;Node18 -->
<g id="edge33" class="edge">
<title>Node20&#45;&gt;Node18</title>
<path fill="none" stroke="#63b8ff" d="M1076.18,-241.75C1074.82,-235.19 1072.9,-225.95 1071.17,-217.6"/>
<polygon fill="#63b8ff" stroke="#63b8ff" points="1074.62,-217 1069.16,-207.92 1067.77,-218.43 1074.62,-217"/>
</g>
<!-- Node21&#45;&gt;Node22 -->
<g id="edge35" class="edge">
<title>Node21&#45;&gt;Node22</title>
<path fill="none" stroke="#63b8ff" d="M888.99,-241.51C880.63,-234 868.5,-223.1 858.4,-214.03"/>
<polygon fill="#63b8ff" stroke="#63b8ff" points="860.76,-211.45 850.99,-207.37 856.09,-216.66 860.76,-211.45"/>
</g>
<!-- Node22&#45;&gt;Node15 -->
<g id="edge36" class="edge">
<title>Node22&#45;&gt;Node15</title>
<path fill="none" stroke="#63b8ff" d="M840.44,-186.87C840.85,-179 841.46,-167.1 841.98,-156.89"/>
<polygon fill="#63b8ff" stroke="#63b8ff" points="845.46,-157.35 842.48,-147.18 838.47,-156.99 845.46,-157.35"/>
</g>
<!-- Node23&#45;&gt;Node22 -->
<g id="edge38" class="edge">
<title>Node23&#45;&gt;Node22</title>
<path fill="none" stroke="#63b8ff" d="M775.23,-241.51C786.84,-233.62 803.97,-221.98 817.7,-212.65"/>
<polygon fill="#63b8ff" stroke="#63b8ff" points="819.41,-215.72 825.71,-207.21 815.47,-209.93 819.41,-215.72"/>
</g>
<!-- Node24&#45;&gt;Node4 -->
<g id="edge40" class="edge">
<title>Node24&#45;&gt;Node4</title>
<path fill="none" stroke="#63b8ff" d="M1204.46,-186.54C1177.24,-179.18 1140.08,-167.31 1110,-151 1091.08,-140.75 1091.74,-129.56 1072,-121 992.36,-86.46 890.49,-78.09 829.96,-76.42"/>
<polygon fill="#63b8ff" stroke="#63b8ff" points="830.37,-72.93 820.3,-76.21 830.22,-79.93 830.37,-72.93"/>
</g>
<!-- Node25&#45;&gt;Node4 -->
<g id="edge42" class="edge">
<title>Node25&#45;&gt;Node4</title>
<path fill="none" stroke="#63b8ff" d="M1132.51,-126.06C1123.45,-124.28 1113.92,-122.5 1105,-121 1008.25,-104.76 894.64,-90.34 830.01,-82.57"/>
<polygon fill="#63b8ff" stroke="#63b8ff" points="830.75,-79.13 820.41,-81.42 829.92,-86.08 830.75,-79.13"/>
</g>
<!-- Node26&#45;&gt;Node4 -->
<g id="edge44" class="edge">
<title>Node26&#45;&gt;Node4</title>
<path fill="none" stroke="#63b8ff" d="M1268.88,-126.04C1259.09,-124.2 1248.71,-122.4 1239,-121 1091.54,-99.79 916.04,-85.97 830.34,-79.96"/>
<polygon fill="#63b8ff" stroke="#63b8ff" points="830.58,-76.46 820.36,-79.26 830.1,-83.45 830.58,-76.46"/>
</g>
<!-- Node27&#45;&gt;Node4 -->
<g id="edge46" class="edge">
<title>Node27&#45;&gt;Node4</title>
<path fill="none" stroke="#63b8ff" d="M1409.6,-126C1401.27,-124.09 1392.35,-122.27 1384,-121 1180.45,-89.97 935.02,-80.39 829.89,-77.59"/>
<polygon fill="#63b8ff" stroke="#63b8ff" points="830.27,-74.1 820.18,-77.34 830.09,-81.09 830.27,-74.1"/>
</g>
</g>
</svg>
