<?xml version="1.0" encoding="UTF-8" standalone="no"?>
<!DOCTYPE svg PUBLIC "-//W3C//DTD SVG 1.1//EN"
 "http://www.w3.org/Graphics/SVG/1.1/DTD/svg11.dtd">
<!-- Generated by graphviz version 7.0.5 (20221223.1930)
 -->
<!-- Title: libs/dolphin/gf/GFGeometry.cpp Pages: 1 -->
<svg width="1192pt" height="555pt"
 viewBox="0.00 0.00 1191.50 555.00" xmlns="http://www.w3.org/2000/svg" xmlns:xlink="http://www.w3.org/1999/xlink">
<g id="graph0" class="graph" transform="scale(1 1) rotate(0) translate(4 551)">
<title>libs/dolphin/gf/GFGeometry.cpp</title>
<!-- Node1 -->
<g id="node1" class="node">
<title>Node1</title>
<g id="a_node1"><a xlink:title=" ">
<polygon fill="#999999" stroke="#666666" points="825,-547 672,-547 672,-528 825,-528 825,-547"/>
<text text-anchor="middle" x="748.5" y="-535" font-family="Helvetica,sans-Serif" font-size="10.00">libs/dolphin/gf/GFGeometry.cpp</text>
</a>
</g>
</g>
<!-- Node2 -->
<g id="node2" class="node">
<title>Node2</title>
<g id="a_node2"><a xlink:href="GFGeometry_8h.html" target="_top" xlink:title=" ">
<polygon fill="white" stroke="#666666" points="700,-481 575,-481 575,-462 700,-462 700,-481"/>
<text text-anchor="middle" x="637.5" y="-469" font-family="Helvetica,sans-Serif" font-size="10.00">dolphin/gf/GFGeometry.h</text>
</a>
</g>
</g>
<!-- Node1&#45;&gt;Node2 -->
<g id="edge1" class="edge">
<title>Node1&#45;&gt;Node2</title>
<path fill="none" stroke="#63b8ff" d="M733.07,-527.6C714.84,-517.09 684.27,-499.47 662.62,-486.99"/>
<polygon fill="#63b8ff" stroke="#63b8ff" points="664.53,-484.04 654.11,-482.08 661.03,-490.11 664.53,-484.04"/>
</g>
<!-- Node29 -->
<g id="node29" class="node">
<title>Node29</title>
<g id="a_node29"><a xlink:href="dol2asm_8h.html" target="_top" xlink:title=" ">
<polygon fill="white" stroke="#666666" points="779,-481 718,-481 718,-462 779,-462 779,-481"/>
<text text-anchor="middle" x="748.5" y="-469" font-family="Helvetica,sans-Serif" font-size="10.00">dol2asm.h</text>
</a>
</g>
</g>
<!-- Node1&#45;&gt;Node29 -->
<g id="edge52" class="edge">
<title>Node1&#45;&gt;Node29</title>
<path fill="none" stroke="#63b8ff" d="M748.5,-527.6C748.5,-518.62 748.5,-504.45 748.5,-492.72"/>
<polygon fill="#63b8ff" stroke="#63b8ff" points="752,-492.84 748.5,-482.84 745,-492.84 752,-492.84"/>
</g>
<!-- Node30 -->
<g id="node30" class="node">
<title>Node30</title>
<g id="a_node30"><a xlink:title=" ">
<polygon fill="#e0e0e0" stroke="#999999" points="970,-492 797,-492 797,-451 970,-451 970,-492"/>
<text text-anchor="start" x="805" y="-480" font-family="Helvetica,sans-Serif" font-size="10.00">asm/dolphin/gf/GFGeometry</text>
<text text-anchor="start" x="805" y="-469" font-family="Helvetica,sans-Serif" font-size="10.00">/GFSetGenMode2__FUcUcUcUc11</text>
<text text-anchor="middle" x="883.5" y="-458" font-family="Helvetica,sans-Serif" font-size="10.00">_GXCullMode.s</text>
</a>
</g>
</g>
<!-- Node1&#45;&gt;Node30 -->
<g id="edge53" class="edge">
<title>Node1&#45;&gt;Node30</title>
<path fill="none" stroke="#63b8ff" d="M767.27,-527.6C783.86,-519.74 808.85,-507.89 831.41,-497.19"/>
<polygon fill="#63b8ff" stroke="#63b8ff" points="832.67,-500.47 840.2,-493.03 829.67,-494.15 832.67,-500.47"/>
</g>
<!-- Node3 -->
<g id="node3" class="node">
<title>Node3</title>
<g id="a_node3"><a xlink:href="GX_8h.html" target="_top" xlink:title=" ">
<polygon fill="white" stroke="#666666" points="680,-415 595,-415 595,-396 680,-396 680,-415"/>
<text text-anchor="middle" x="637.5" y="-403" font-family="Helvetica,sans-Serif" font-size="10.00">dolphin/gx/GX.h</text>
</a>
</g>
</g>
<!-- Node2&#45;&gt;Node3 -->
<g id="edge2" class="edge">
<title>Node2&#45;&gt;Node3</title>
<path fill="none" stroke="#63b8ff" d="M637.5,-461.6C637.5,-452.62 637.5,-438.45 637.5,-426.72"/>
<polygon fill="#63b8ff" stroke="#63b8ff" points="641,-426.84 637.5,-416.84 634,-426.84 641,-426.84"/>
</g>
<!-- Node4 -->
<g id="node4" class="node">
<title>Node4</title>
<g id="a_node4"><a xlink:href="GXAttr_8h.html" target="_top" xlink:title=" ">
<polygon fill="white" stroke="#666666" points="174,-360 73,-360 73,-341 174,-341 174,-360"/>
<text text-anchor="middle" x="123.5" y="-348" font-family="Helvetica,sans-Serif" font-size="10.00">dolphin/gx/GXAttr.h</text>
</a>
</g>
</g>
<!-- Node3&#45;&gt;Node4 -->
<g id="edge3" class="edge">
<title>Node3&#45;&gt;Node4</title>
<path fill="none" stroke="#63b8ff" d="M594.77,-400.98C515.97,-394.33 342.19,-379.03 185.57,-360.33"/>
<polygon fill="#63b8ff" stroke="#63b8ff" points="186.18,-356.87 175.83,-359.15 185.34,-363.82 186.18,-356.87"/>
</g>
<!-- Node8 -->
<g id="node8" class="node">
<title>Node8</title>
<g id="a_node8"><a xlink:href="GXBump_8h.html" target="_top" xlink:title=" ">
<polygon fill="white" stroke="#666666" points="447.5,-360 337.5,-360 337.5,-341 447.5,-341 447.5,-360"/>
<text text-anchor="middle" x="392.5" y="-348" font-family="Helvetica,sans-Serif" font-size="10.00">dolphin/gx/GXBump.h</text>
</a>
</g>
</g>
<!-- Node3&#45;&gt;Node8 -->
<g id="edge7" class="edge">
<title>Node3&#45;&gt;Node8</title>
<path fill="none" stroke="#63b8ff" d="M595.94,-395.51C554.28,-386.5 490.02,-372.6 444.89,-362.83"/>
<polygon fill="#63b8ff" stroke="#63b8ff" points="445.85,-359.46 435.33,-360.77 444.37,-366.3 445.85,-359.46"/>
</g>
<!-- Node9 -->
<g id="node9" class="node">
<title>Node9</title>
<g id="a_node9"><a xlink:href="GXDisplayList_8h.html" target="_top" xlink:title=" ">
<polygon fill="white" stroke="#666666" points="1139,-140 1006,-140 1006,-121 1139,-121 1139,-140"/>
<text text-anchor="middle" x="1072.5" y="-128" font-family="Helvetica,sans-Serif" font-size="10.00">dolphin/gx/GXDisplayList.h</text>
</a>
</g>
</g>
<!-- Node3&#45;&gt;Node9 -->
<g id="edge9" class="edge">
<title>Node3&#45;&gt;Node9</title>
<path fill="none" stroke="#63b8ff" d="M680.34,-405.1C809.06,-405.77 1183.5,-398.93 1183.5,-296.5 1183.5,-296.5 1183.5,-296.5 1183.5,-239.5 1183.5,-194.74 1136.56,-162.52 1103.73,-145.46"/>
<polygon fill="#63b8ff" stroke="#63b8ff" points="1105.51,-142.44 1095,-141.13 1102.4,-148.71 1105.51,-142.44"/>
</g>
<!-- Node10 -->
<g id="node10" class="node">
<title>Node10</title>
<g id="a_node10"><a xlink:href="GXFifo_8h.html" target="_top" xlink:title=" ">
<polygon fill="white" stroke="#666666" points="337,-305 236,-305 236,-286 337,-286 337,-305"/>
<text text-anchor="middle" x="286.5" y="-293" font-family="Helvetica,sans-Serif" font-size="10.00">dolphin/gx/GXFifo.h</text>
</a>
</g>
</g>
<!-- Node3&#45;&gt;Node10 -->
<g id="edge11" class="edge">
<title>Node3&#45;&gt;Node10</title>
<path fill="none" stroke="#63b8ff" d="M603.15,-395.5C573.84,-387.42 530.8,-374.61 494.5,-360 476.98,-352.95 474.17,-347.65 456.5,-341 419.17,-326.96 375.64,-315.65 341.97,-307.95"/>
<polygon fill="#63b8ff" stroke="#63b8ff" points="342.96,-304.59 332.43,-305.81 341.42,-311.42 342.96,-304.59"/>
</g>
<!-- Node15 -->
<g id="node15" class="node">
<title>Node15</title>
<g id="a_node15"><a xlink:href="GXFrameBuf_8h.html" target="_top" xlink:title=" ">
<polygon fill="white" stroke="#666666" points="641.5,-305 513.5,-305 513.5,-286 641.5,-286 641.5,-305"/>
<text text-anchor="middle" x="577.5" y="-293" font-family="Helvetica,sans-Serif" font-size="10.00">dolphin/gx/GXFrameBuf.h</text>
</a>
</g>
</g>
<!-- Node3&#45;&gt;Node15 -->
<g id="edge19" class="edge">
<title>Node3&#45;&gt;Node15</title>
<path fill="none" stroke="#63b8ff" d="M643.11,-395.71C650.52,-382.9 661.5,-358.69 651.5,-341 643.68,-327.17 629.65,-317.16 615.89,-310.19"/>
<polygon fill="#63b8ff" stroke="#63b8ff" points="617.46,-307.05 606.91,-306.06 614.54,-313.41 617.46,-307.05"/>
</g>
<!-- Node16 -->
<g id="node16" class="node">
<title>Node16</title>
<g id="a_node16"><a xlink:href="GXGeometry_8h.html" target="_top" xlink:title=" ">
<polygon fill="white" stroke="#666666" points="319,-360 192,-360 192,-341 319,-341 319,-360"/>
<text text-anchor="middle" x="255.5" y="-348" font-family="Helvetica,sans-Serif" font-size="10.00">dolphin/gx/GXGeometry.h</text>
</a>
</g>
</g>
<!-- Node3&#45;&gt;Node16 -->
<g id="edge22" class="edge">
<title>Node3&#45;&gt;Node16</title>
<path fill="none" stroke="#63b8ff" d="M594.79,-398.57C530.96,-389.72 409.74,-372.9 330.81,-361.95"/>
<polygon fill="#63b8ff" stroke="#63b8ff" points="331.37,-358.49 320.98,-360.59 330.41,-365.43 331.37,-358.49"/>
</g>
<!-- Node17 -->
<g id="node17" class="node">
<title>Node17</title>
<g id="a_node17"><a xlink:href="GXLight_8h.html" target="_top" xlink:title=" ">
<polygon fill="white" stroke="#666666" points="767,-305 660,-305 660,-286 767,-286 767,-305"/>
<text text-anchor="middle" x="713.5" y="-293" font-family="Helvetica,sans-Serif" font-size="10.00">dolphin/gx/GXLight.h</text>
</a>
</g>
</g>
<!-- Node3&#45;&gt;Node17 -->
<g id="edge24" class="edge">
<title>Node3&#45;&gt;Node17</title>
<path fill="none" stroke="#63b8ff" d="M643.72,-395.66C656.13,-378.02 684.21,-338.12 700.71,-314.67"/>
<polygon fill="#63b8ff" stroke="#63b8ff" points="703.43,-316.89 706.32,-306.7 697.71,-312.86 703.43,-316.89"/>
</g>
<!-- Node18 -->
<g id="node18" class="node">
<title>Node18</title>
<g id="a_node18"><a xlink:href="GXMisc_8h.html" target="_top" xlink:title=" ">
<polygon fill="white" stroke="#666666" points="609.5,-360 503.5,-360 503.5,-341 609.5,-341 609.5,-360"/>
<text text-anchor="middle" x="556.5" y="-348" font-family="Helvetica,sans-Serif" font-size="10.00">dolphin/gx/GXMisc.h</text>
</a>
</g>
</g>
<!-- Node3&#45;&gt;Node18 -->
<g id="edge27" class="edge">
<title>Node3&#45;&gt;Node18</title>
<path fill="none" stroke="#63b8ff" d="M623.76,-395.51C611.7,-387.62 593.91,-375.98 579.66,-366.65"/>
<polygon fill="#63b8ff" stroke="#63b8ff" points="581.59,-363.73 571.3,-361.19 577.76,-369.59 581.59,-363.73"/>
</g>
<!-- Node19 -->
<g id="node19" class="node">
<title>Node19</title>
<g id="a_node19"><a xlink:href="GXPerf_8h.html" target="_top" xlink:title=" ">
<polygon fill="white" stroke="#666666" points="103,-305 0,-305 0,-286 103,-286 103,-305"/>
<text text-anchor="middle" x="51.5" y="-293" font-family="Helvetica,sans-Serif" font-size="10.00">dolphin/gx/GXPerf.h</text>
</a>
</g>
</g>
<!-- Node3&#45;&gt;Node19 -->
<g id="edge29" class="edge">
<title>Node3&#45;&gt;Node19</title>
<path fill="none" stroke="#63b8ff" d="M594.62,-404.13C468.11,-402.62 102.81,-395.23 63.5,-360 51.61,-349.34 49.23,-330.91 49.46,-316.64"/>
<polygon fill="#63b8ff" stroke="#63b8ff" points="52.94,-317.18 50.07,-306.98 45.95,-316.75 52.94,-317.18"/>
</g>
<!-- Node20 -->
<g id="node20" class="node">
<title>Node20</title>
<g id="a_node20"><a xlink:href="GXPixel_8h.html" target="_top" xlink:title=" ">
<polygon fill="white" stroke="#666666" points="891.5,-305 785.5,-305 785.5,-286 891.5,-286 891.5,-305"/>
<text text-anchor="middle" x="838.5" y="-293" font-family="Helvetica,sans-Serif" font-size="10.00">dolphin/gx/GXPixel.h</text>
</a>
</g>
</g>
<!-- Node3&#45;&gt;Node20 -->
<g id="edge32" class="edge">
<title>Node3&#45;&gt;Node20</title>
<path fill="none" stroke="#63b8ff" d="M653.95,-395.66C688.62,-377.03 769.49,-333.58 811.73,-310.89"/>
<polygon fill="#63b8ff" stroke="#63b8ff" points="813.34,-313.99 820.49,-306.18 810.03,-307.83 813.34,-313.99"/>
</g>
<!-- Node21 -->
<g id="node21" class="node">
<title>Node21</title>
<g id="a_node21"><a xlink:href="GXTev_8h.html" target="_top" xlink:title=" ">
<polygon fill="white" stroke="#666666" points="495,-305 394,-305 394,-286 495,-286 495,-305"/>
<text text-anchor="middle" x="444.5" y="-293" font-family="Helvetica,sans-Serif" font-size="10.00">dolphin/gx/GXTev.h</text>
</a>
</g>
</g>
<!-- Node3&#45;&gt;Node21 -->
<g id="edge35" class="edge">
<title>Node3&#45;&gt;Node21</title>
<path fill="none" stroke="#63b8ff" d="M637.46,-395.74C636.91,-382.05 633.77,-355.67 618.5,-341 602.4,-325.53 549.86,-313.45 506.69,-305.8"/>
<polygon fill="#63b8ff" stroke="#63b8ff" points="507.32,-302.35 496.87,-304.11 506.13,-309.25 507.32,-302.35"/>
</g>
<!-- Node22 -->
<g id="node22" class="node">
<title>Node22</title>
<g id="a_node22"><a xlink:href="GXTexture_8h.html" target="_top" xlink:title=" ">
<polygon fill="white" stroke="#666666" points="1103,-360 986,-360 986,-341 1103,-341 1103,-360"/>
<text text-anchor="middle" x="1044.5" y="-348" font-family="Helvetica,sans-Serif" font-size="10.00">dolphin/gx/GXTexture.h</text>
</a>
</g>
</g>
<!-- Node3&#45;&gt;Node22 -->
<g id="edge38" class="edge">
<title>Node3&#45;&gt;Node22</title>
<path fill="none" stroke="#63b8ff" d="M680.29,-398.93C750.24,-389.82 889.75,-371.65 974.34,-360.64"/>
<polygon fill="#63b8ff" stroke="#63b8ff" points="974.68,-364.12 984.15,-359.36 973.78,-357.18 974.68,-364.12"/>
</g>
<!-- Node28 -->
<g id="node28" class="node">
<title>Node28</title>
<g id="a_node28"><a xlink:href="GXTransform_8h.html" target="_top" xlink:title=" ">
<polygon fill="white" stroke="#666666" points="1039,-305 910,-305 910,-286 1039,-286 1039,-305"/>
<text text-anchor="middle" x="974.5" y="-293" font-family="Helvetica,sans-Serif" font-size="10.00">dolphin/gx/GXTransform.h</text>
</a>
</g>
</g>
<!-- Node3&#45;&gt;Node28 -->
<g id="edge49" class="edge">
<title>Node3&#45;&gt;Node28</title>
<path fill="none" stroke="#63b8ff" d="M665.36,-395.57C725.42,-376.33 867.14,-330.9 935.84,-308.89"/>
<polygon fill="#63b8ff" stroke="#63b8ff" points="936.71,-312.29 945.16,-305.9 934.57,-305.62 936.71,-312.29"/>
</g>
<!-- Node5 -->
<g id="node5" class="node">
<title>Node5</title>
<g id="a_node5"><a xlink:href="GXEnum_8h.html" target="_top" xlink:title=" ">
<polygon fill="white" stroke="#666666" points="499.5,-250 389.5,-250 389.5,-231 499.5,-231 499.5,-250"/>
<text text-anchor="middle" x="444.5" y="-238" font-family="Helvetica,sans-Serif" font-size="10.00">dolphin/gx/GXEnum.h</text>
</a>
</g>
</g>
<!-- Node4&#45;&gt;Node5 -->
<g id="edge4" class="edge">
<title>Node4&#45;&gt;Node5</title>
<path fill="none" stroke="#63b8ff" d="M132.91,-340.51C148.13,-326.52 179.66,-299.72 211.5,-286 240.8,-273.38 319.96,-259.73 377.91,-250.93"/>
<polygon fill="#63b8ff" stroke="#63b8ff" points="378.33,-254.41 387.7,-249.46 377.29,-247.48 378.33,-254.41"/>
</g>
<!-- Node6 -->
<g id="node6" class="node">
<title>Node6</title>
<g id="a_node6"><a xlink:href="types_8h.html" target="_top" xlink:title=" ">
<polygon fill="white" stroke="#666666" points="723,-85 642,-85 642,-66 723,-66 723,-85"/>
<text text-anchor="middle" x="682.5" y="-73" font-family="Helvetica,sans-Serif" font-size="10.00">dolphin/types.h</text>
</a>
</g>
</g>
<!-- Node5&#45;&gt;Node6 -->
<g id="edge5" class="edge">
<title>Node5&#45;&gt;Node6</title>
<path fill="none" stroke="#63b8ff" d="M457.63,-230.5C496.48,-203.9 611.15,-125.36 660.03,-91.89"/>
<polygon fill="#63b8ff" stroke="#63b8ff" points="661.88,-94.86 668.16,-86.32 657.93,-89.09 661.88,-94.86"/>
</g>
<!-- Node7 -->
<g id="node7" class="node">
<title>Node7</title>
<g id="a_node7"><a xlink:href="stddef_8h.html" target="_top" xlink:title=" ">
<polygon fill="white" stroke="#666666" points="750.5,-30 614.5,-30 614.5,0 750.5,0 750.5,-30"/>
<text text-anchor="start" x="622.5" y="-18" font-family="Helvetica,sans-Serif" font-size="10.00">MSL_C/MSL_Common/Src</text>
<text text-anchor="middle" x="682.5" y="-7" font-family="Helvetica,sans-Serif" font-size="10.00">/stddef.h</text>
</a>
</g>
</g>
<!-- Node6&#45;&gt;Node7 -->
<g id="edge6" class="edge">
<title>Node6&#45;&gt;Node7</title>
<path fill="none" stroke="#63b8ff" d="M682.5,-65.87C682.5,-59.4 682.5,-50.2 682.5,-41.45"/>
<polygon fill="#63b8ff" stroke="#63b8ff" points="686,-41.63 682.5,-31.63 679,-41.63 686,-41.63"/>
</g>
<!-- Node8&#45;&gt;Node5 -->
<g id="edge8" class="edge">
<title>Node8&#45;&gt;Node5</title>
<path fill="none" stroke="#63b8ff" d="M337.26,-341.99C294.41,-334.9 240.08,-322.7 226.5,-305 221.36,-298.3 221.16,-292.54 226.5,-286 236.19,-274.13 317.57,-259.89 378.08,-250.77"/>
<polygon fill="#63b8ff" stroke="#63b8ff" points="378.24,-254.28 387.62,-249.35 377.21,-247.36 378.24,-254.28"/>
</g>
<!-- Node9&#45;&gt;Node6 -->
<g id="edge10" class="edge">
<title>Node9&#45;&gt;Node6</title>
<path fill="none" stroke="#63b8ff" d="M1006.34,-120.51C929.66,-110.09 804.86,-93.13 734.69,-83.59"/>
<polygon fill="#63b8ff" stroke="#63b8ff" points="735.37,-80.15 724.99,-82.27 734.43,-87.09 735.37,-80.15"/>
</g>
<!-- Node10&#45;&gt;Node5 -->
<g id="edge15" class="edge">
<title>Node10&#45;&gt;Node5</title>
<path fill="none" stroke="#63b8ff" d="M313.3,-285.51C339.03,-276.88 378.13,-263.76 406.95,-254.1"/>
<polygon fill="#63b8ff" stroke="#63b8ff" points="408.03,-257.43 416.4,-250.93 405.8,-250.79 408.03,-257.43"/>
</g>
<!-- Node11 -->
<g id="node11" class="node">
<title>Node11</title>
<g id="a_node11"><a xlink:href="GXStruct_8h.html" target="_top" xlink:title=" ">
<polygon fill="white" stroke="#666666" points="689,-250 578,-250 578,-231 689,-231 689,-250"/>
<text text-anchor="middle" x="633.5" y="-238" font-family="Helvetica,sans-Serif" font-size="10.00">dolphin/gx/GXStruct.h</text>
</a>
</g>
</g>
<!-- Node10&#45;&gt;Node11 -->
<g id="edge12" class="edge">
<title>Node10&#45;&gt;Node11</title>
<path fill="none" stroke="#63b8ff" d="M337.33,-286.74C397.92,-277.48 499.38,-261.98 566.38,-251.75"/>
<polygon fill="#63b8ff" stroke="#63b8ff" points="566.79,-255.23 576.15,-250.26 565.74,-248.31 566.79,-255.23"/>
</g>
<!-- Node13 -->
<g id="node13" class="node">
<title>Node13</title>
<g id="a_node13"><a xlink:href="OSThread_8h.html" target="_top" xlink:title=" ">
<polygon fill="white" stroke="#666666" points="358.5,-250 242.5,-250 242.5,-231 358.5,-231 358.5,-250"/>
<text text-anchor="middle" x="300.5" y="-238" font-family="Helvetica,sans-Serif" font-size="10.00">dolphin/os/OSThread.h</text>
</a>
</g>
</g>
<!-- Node10&#45;&gt;Node13 -->
<g id="edge16" class="edge">
<title>Node10&#45;&gt;Node13</title>
<path fill="none" stroke="#63b8ff" d="M288.81,-285.75C290.56,-279.11 293.04,-269.73 295.27,-261.31"/>
<polygon fill="#63b8ff" stroke="#63b8ff" points="298.58,-262.47 297.75,-251.91 291.81,-260.68 298.58,-262.47"/>
</g>
<!-- Node12 -->
<g id="node12" class="node">
<title>Node12</title>
<g id="a_node12"><a xlink:href="global_8h.html" target="_top" xlink:title=" ">
<polygon fill="white" stroke="#666666" points="658.5,-195 608.5,-195 608.5,-176 658.5,-176 658.5,-195"/>
<text text-anchor="middle" x="633.5" y="-183" font-family="Helvetica,sans-Serif" font-size="10.00">global.h</text>
</a>
</g>
</g>
<!-- Node11&#45;&gt;Node12 -->
<g id="edge13" class="edge">
<title>Node11&#45;&gt;Node12</title>
<path fill="none" stroke="#63b8ff" d="M633.5,-230.75C633.5,-224.27 633.5,-215.16 633.5,-206.9"/>
<polygon fill="#63b8ff" stroke="#63b8ff" points="637,-206.96 633.5,-196.96 630,-206.96 637,-206.96"/>
</g>
<!-- Node12&#45;&gt;Node6 -->
<g id="edge14" class="edge">
<title>Node12&#45;&gt;Node6</title>
<path fill="none" stroke="#63b8ff" d="M637.23,-175.84C642.54,-163.59 652.6,-140.51 661.5,-121 665.31,-112.65 669.63,-103.46 673.35,-95.62"/>
<polygon fill="#63b8ff" stroke="#63b8ff" points="676.45,-97.23 677.6,-86.7 670.14,-94.22 676.45,-97.23"/>
</g>
<!-- Node14 -->
<g id="node14" class="node">
<title>Node14</title>
<g id="a_node14"><a xlink:href="OSContext_8h.html" target="_top" xlink:title=" ">
<polygon fill="white" stroke="#666666" points="436,-195 317,-195 317,-176 436,-176 436,-195"/>
<text text-anchor="middle" x="376.5" y="-183" font-family="Helvetica,sans-Serif" font-size="10.00">dolphin/os/OSContext.h</text>
</a>
</g>
</g>
<!-- Node13&#45;&gt;Node14 -->
<g id="edge17" class="edge">
<title>Node13&#45;&gt;Node14</title>
<path fill="none" stroke="#63b8ff" d="M313.39,-230.51C324.6,-222.7 341.07,-211.21 354.38,-201.93"/>
<polygon fill="#63b8ff" stroke="#63b8ff" points="356.36,-204.81 362.56,-196.22 352.35,-199.07 356.36,-204.81"/>
</g>
<!-- Node14&#45;&gt;Node6 -->
<g id="edge18" class="edge">
<title>Node14&#45;&gt;Node6</title>
<path fill="none" stroke="#63b8ff" d="M386.71,-175.61C403.17,-161.75 437.13,-135.13 470.5,-121 522.48,-98.99 586.38,-87.49 630.36,-81.75"/>
<polygon fill="#63b8ff" stroke="#63b8ff" points="630.65,-85.24 640.14,-80.53 629.79,-78.29 630.65,-85.24"/>
</g>
<!-- Node15&#45;&gt;Node5 -->
<g id="edge21" class="edge">
<title>Node15&#45;&gt;Node5</title>
<path fill="none" stroke="#63b8ff" d="M554.94,-285.51C533.6,-277.01 501.34,-264.15 477.19,-254.53"/>
<polygon fill="#63b8ff" stroke="#63b8ff" points="478.72,-251.37 468.13,-250.92 476.13,-257.87 478.72,-251.37"/>
</g>
<!-- Node15&#45;&gt;Node11 -->
<g id="edge20" class="edge">
<title>Node15&#45;&gt;Node11</title>
<path fill="none" stroke="#63b8ff" d="M587,-285.51C594.93,-278 606.45,-267.1 616.04,-258.03"/>
<polygon fill="#63b8ff" stroke="#63b8ff" points="618.18,-260.81 623.04,-251.4 613.37,-255.73 618.18,-260.81"/>
</g>
<!-- Node16&#45;&gt;Node5 -->
<g id="edge23" class="edge">
<title>Node16&#45;&gt;Node5</title>
<path fill="none" stroke="#63b8ff" d="M244.04,-340.69C228.7,-327.86 205.02,-303.63 219.5,-286 229.63,-273.66 315.37,-259.32 378.01,-250.33"/>
<polygon fill="#63b8ff" stroke="#63b8ff" points="378.11,-253.85 387.52,-248.98 377.13,-246.92 378.11,-253.85"/>
</g>
<!-- Node17&#45;&gt;Node5 -->
<g id="edge26" class="edge">
<title>Node17&#45;&gt;Node5</title>
<path fill="none" stroke="#63b8ff" d="M667.87,-285.51C621.84,-276.44 550.67,-262.42 501.08,-252.65"/>
<polygon fill="#63b8ff" stroke="#63b8ff" points="501.88,-249.24 491.39,-250.74 500.53,-256.11 501.88,-249.24"/>
</g>
<!-- Node17&#45;&gt;Node11 -->
<g id="edge25" class="edge">
<title>Node17&#45;&gt;Node11</title>
<path fill="none" stroke="#63b8ff" d="M699.93,-285.51C688.02,-277.62 670.45,-265.98 656.37,-256.65"/>
<polygon fill="#63b8ff" stroke="#63b8ff" points="658.4,-253.8 648.13,-251.19 654.54,-259.63 658.4,-253.8"/>
</g>
<!-- Node18&#45;&gt;Node5 -->
<g id="edge28" class="edge">
<title>Node18&#45;&gt;Node5</title>
<path fill="none" stroke="#63b8ff" d="M503.14,-342.77C458.51,-335.92 399.9,-323.63 385.5,-305 371.74,-287.2 394.18,-268.53 415.23,-256.08"/>
<polygon fill="#63b8ff" stroke="#63b8ff" points="416.92,-259.14 423.96,-251.23 413.52,-253.02 416.92,-259.14"/>
</g>
<!-- Node19&#45;&gt;Node5 -->
<g id="edge31" class="edge">
<title>Node19&#45;&gt;Node5</title>
<path fill="none" stroke="#63b8ff" d="M103.28,-287.52C173.91,-277.99 300.49,-260.92 378.04,-250.46"/>
<polygon fill="#63b8ff" stroke="#63b8ff" points="378.18,-253.98 387.62,-249.17 377.24,-247.04 378.18,-253.98"/>
</g>
<!-- Node19&#45;&gt;Node6 -->
<g id="edge30" class="edge">
<title>Node19&#45;&gt;Node6</title>
<path fill="none" stroke="#63b8ff" d="M66.93,-285.67C117.61,-257.07 284.32,-166.2 433.5,-121 499.98,-100.86 579.37,-88.62 630.33,-82.2"/>
<polygon fill="#63b8ff" stroke="#63b8ff" points="630.7,-85.68 640.2,-80.99 629.85,-78.74 630.7,-85.68"/>
</g>
<!-- Node20&#45;&gt;Node5 -->
<g id="edge34" class="edge">
<title>Node20&#45;&gt;Node5</title>
<path fill="none" stroke="#63b8ff" d="M785.07,-287.16C782.17,-286.77 779.3,-286.38 776.5,-286 684.44,-273.52 577.98,-259.29 510.95,-250.35"/>
<polygon fill="#63b8ff" stroke="#63b8ff" points="511.6,-246.9 501.23,-249.05 510.68,-253.84 511.6,-246.9"/>
</g>
<!-- Node20&#45;&gt;Node11 -->
<g id="edge33" class="edge">
<title>Node20&#45;&gt;Node11</title>
<path fill="none" stroke="#63b8ff" d="M803.72,-285.51C769.31,-276.61 716.46,-262.95 678.78,-253.21"/>
<polygon fill="#63b8ff" stroke="#63b8ff" points="680.13,-249.94 669.57,-250.83 678.37,-256.72 680.13,-249.94"/>
</g>
<!-- Node21&#45;&gt;Node5 -->
<g id="edge36" class="edge">
<title>Node21&#45;&gt;Node5</title>
<path fill="none" stroke="#63b8ff" d="M444.5,-285.75C444.5,-279.27 444.5,-270.16 444.5,-261.9"/>
<polygon fill="#63b8ff" stroke="#63b8ff" points="448,-261.96 444.5,-251.96 441,-261.96 448,-261.96"/>
</g>
<!-- Node21&#45;&gt;Node11 -->
<g id="edge37" class="edge">
<title>Node21&#45;&gt;Node11</title>
<path fill="none" stroke="#63b8ff" d="M476.56,-285.51C508.02,-276.69 556.18,-263.18 590.85,-253.46"/>
<polygon fill="#63b8ff" stroke="#63b8ff" points="591.46,-256.93 600.14,-250.85 589.57,-250.19 591.46,-256.93"/>
</g>
<!-- Node23 -->
<g id="node23" class="node">
<title>Node23</title>
<g id="a_node23"><a xlink:href="GXInit_8h.html" target="_top" xlink:title=" ">
<polygon fill="white" stroke="#666666" points="1155.5,-305 1057.5,-305 1057.5,-286 1155.5,-286 1155.5,-305"/>
<text text-anchor="middle" x="1106.5" y="-293" font-family="Helvetica,sans-Serif" font-size="10.00">dolphin/gx/GXInit.h</text>
</a>
</g>
</g>
<!-- Node22&#45;&gt;Node23 -->
<g id="edge39" class="edge">
<title>Node22&#45;&gt;Node23</title>
<path fill="none" stroke="#63b8ff" d="M1055.02,-340.51C1063.89,-332.93 1076.81,-321.88 1087.49,-312.75"/>
<polygon fill="#63b8ff" stroke="#63b8ff" points="1089.66,-315.5 1094.99,-306.34 1085.11,-310.18 1089.66,-315.5"/>
</g>
<!-- Node23&#45;&gt;Node5 -->
<g id="edge40" class="edge">
<title>Node23&#45;&gt;Node5</title>
<path fill="none" stroke="#63b8ff" d="M1057.17,-287.02C1054.24,-286.66 1051.33,-286.31 1048.5,-286 996.28,-280.26 657.53,-256.36 511.42,-246.16"/>
<polygon fill="#63b8ff" stroke="#63b8ff" points="511.71,-242.67 501.49,-245.46 511.22,-249.65 511.71,-242.67"/>
</g>
<!-- Node23&#45;&gt;Node11 -->
<g id="edge41" class="edge">
<title>Node23&#45;&gt;Node11</title>
<path fill="none" stroke="#63b8ff" d="M1057.16,-287.14C1054.23,-286.74 1051.33,-286.36 1048.5,-286 926.07,-270.47 782.87,-255.91 700.72,-247.9"/>
<polygon fill="#63b8ff" stroke="#63b8ff" points="701.09,-244.42 690.8,-246.94 700.41,-251.39 701.09,-244.42"/>
</g>
<!-- Node24 -->
<g id="node24" class="node">
<title>Node24</title>
<g id="a_node24"><a xlink:href="mtx_8h.html" target="_top" xlink:title=" ">
<polygon fill="white" stroke="#666666" points="926.5,-250 834.5,-250 834.5,-231 926.5,-231 926.5,-250"/>
<text text-anchor="middle" x="880.5" y="-238" font-family="Helvetica,sans-Serif" font-size="10.00">dolphin/mtx/mtx.h</text>
</a>
</g>
</g>
<!-- Node23&#45;&gt;Node24 -->
<g id="edge42" class="edge">
<title>Node23&#45;&gt;Node24</title>
<path fill="none" stroke="#63b8ff" d="M1068.16,-285.51C1029.98,-276.55 971.21,-262.77 929.62,-253.02"/>
<polygon fill="#63b8ff" stroke="#63b8ff" points="930.66,-249.67 920.12,-250.79 929.06,-256.48 930.66,-249.67"/>
</g>
<!-- Node24&#45;&gt;Node6 -->
<g id="edge48" class="edge">
<title>Node24&#45;&gt;Node6</title>
<path fill="none" stroke="#63b8ff" d="M874.25,-230.75C858.81,-209.65 816.83,-155.13 771.5,-121 754.59,-108.26 733.47,-97.52 716.05,-89.79"/>
<polygon fill="#63b8ff" stroke="#63b8ff" points="717.71,-86.69 707.14,-85.96 714.95,-93.12 717.71,-86.69"/>
</g>
<!-- Node25 -->
<g id="node25" class="node">
<title>Node25</title>
<g id="a_node25"><a xlink:href="mtx44_8h.html" target="_top" xlink:title=" ">
<polygon fill="white" stroke="#666666" points="932,-140 829,-140 829,-121 932,-121 932,-140"/>
<text text-anchor="middle" x="880.5" y="-128" font-family="Helvetica,sans-Serif" font-size="10.00">dolphin/mtx/mtx44.h</text>
</a>
</g>
</g>
<!-- Node24&#45;&gt;Node25 -->
<g id="edge43" class="edge">
<title>Node24&#45;&gt;Node25</title>
<path fill="none" stroke="#63b8ff" d="M880.5,-230.66C880.5,-213.57 880.5,-175.61 880.5,-151.92"/>
<polygon fill="#63b8ff" stroke="#63b8ff" points="884,-151.97 880.5,-141.97 877,-151.97 884,-151.97"/>
</g>
<!-- Node26 -->
<g id="node26" class="node">
<title>Node26</title>
<g id="a_node26"><a xlink:href="quat_8h.html" target="_top" xlink:title=" ">
<polygon fill="white" stroke="#666666" points="772,-195 677,-195 677,-176 772,-176 772,-195"/>
<text text-anchor="middle" x="724.5" y="-183" font-family="Helvetica,sans-Serif" font-size="10.00">dolphin/mtx/quat.h</text>
</a>
</g>
</g>
<!-- Node24&#45;&gt;Node26 -->
<g id="edge45" class="edge">
<title>Node24&#45;&gt;Node26</title>
<path fill="none" stroke="#63b8ff" d="M854.04,-230.51C828.64,-221.88 790.03,-208.76 761.58,-199.1"/>
<polygon fill="#63b8ff" stroke="#63b8ff" points="762.86,-195.84 752.27,-195.93 760.61,-202.46 762.86,-195.84"/>
</g>
<!-- Node25&#45;&gt;Node6 -->
<g id="edge44" class="edge">
<title>Node25&#45;&gt;Node6</title>
<path fill="none" stroke="#63b8ff" d="M846.91,-120.51C813.82,-111.65 763.07,-98.07 726.71,-88.33"/>
<polygon fill="#63b8ff" stroke="#63b8ff" points="727.95,-85.04 717.38,-85.84 726.14,-91.8 727.95,-85.04"/>
</g>
<!-- Node27 -->
<g id="node27" class="node">
<title>Node27</title>
<g id="a_node27"><a xlink:href="vec_8h.html" target="_top" xlink:title=" ">
<polygon fill="white" stroke="#666666" points="762.5,-140 670.5,-140 670.5,-121 762.5,-121 762.5,-140"/>
<text text-anchor="middle" x="716.5" y="-128" font-family="Helvetica,sans-Serif" font-size="10.00">dolphin/mtx/vec.h</text>
</a>
</g>
</g>
<!-- Node26&#45;&gt;Node27 -->
<g id="edge46" class="edge">
<title>Node26&#45;&gt;Node27</title>
<path fill="none" stroke="#63b8ff" d="M723.18,-175.75C722.19,-169.19 720.79,-159.95 719.53,-151.6"/>
<polygon fill="#63b8ff" stroke="#63b8ff" points="723.03,-151.3 718.08,-141.94 716.11,-152.35 723.03,-151.3"/>
</g>
<!-- Node27&#45;&gt;Node6 -->
<g id="edge47" class="edge">
<title>Node27&#45;&gt;Node6</title>
<path fill="none" stroke="#63b8ff" d="M710.89,-120.75C706.38,-113.73 699.91,-103.64 694.29,-94.87"/>
<polygon fill="#63b8ff" stroke="#63b8ff" points="697.4,-93.24 689.05,-86.72 691.51,-97.02 697.4,-93.24"/>
</g>
<!-- Node28&#45;&gt;Node5 -->
<g id="edge50" class="edge">
<title>Node28&#45;&gt;Node5</title>
<path fill="none" stroke="#63b8ff" d="M909.53,-286.97C906.48,-286.64 903.46,-286.31 900.5,-286 762.21,-271.31 600.12,-255.93 511.24,-247.65"/>
<polygon fill="#63b8ff" stroke="#63b8ff" points="511.77,-244.19 501.49,-246.75 511.12,-251.16 511.77,-244.19"/>
</g>
<!-- Node28&#45;&gt;Node24 -->
<g id="edge51" class="edge">
<title>Node28&#45;&gt;Node24</title>
<path fill="none" stroke="#63b8ff" d="M958.55,-285.51C944.15,-277.39 922.71,-265.3 905.94,-255.85"/>
<polygon fill="#63b8ff" stroke="#63b8ff" points="907.96,-252.96 897.53,-251.1 904.52,-259.06 907.96,-252.96"/>
</g>
</g>
</svg>
