<?xml version="1.0" encoding="UTF-8" standalone="no"?>
<!DOCTYPE svg PUBLIC "-//W3C//DTD SVG 1.1//EN"
 "http://www.w3.org/Graphics/SVG/1.1/DTD/svg11.dtd">
<!-- Generated by graphviz version 7.0.5 (20221223.1930)
 -->
<!-- Title: include/dolphin/gx/GXFrameBuf.h Pages: 1 -->
<svg width="210pt" height="269pt"
 viewBox="0.00 0.00 209.50 269.00" xmlns="http://www.w3.org/2000/svg" xmlns:xlink="http://www.w3.org/1999/xlink">
<g id="graph0" class="graph" transform="scale(1 1) rotate(0) translate(4 265)">
<title>include/dolphin/gx/GXFrameBuf.h</title>
<!-- Node1 -->
<g id="node1" class="node">
<title>Node1</title>
<g id="a_node1"><a xlink:title=" ">
<polygon fill="#999999" stroke="#666666" points="144.5,-261 50.5,-261 50.5,-231 144.5,-231 144.5,-261"/>
<text text-anchor="start" x="58.5" y="-249" font-family="Helvetica,sans-Serif" font-size="10.00">include/dolphin/gx</text>
<text text-anchor="middle" x="97.5" y="-238" font-family="Helvetica,sans-Serif" font-size="10.00">/GXFrameBuf.h</text>
</a>
</g>
</g>
<!-- Node2 -->
<g id="node2" class="node">
<title>Node2</title>
<g id="a_node2"><a xlink:href="GXStruct_8h.html" target="_top" xlink:title=" ">
<polygon fill="white" stroke="#666666" points="111,-195 0,-195 0,-176 111,-176 111,-195"/>
<text text-anchor="middle" x="55.5" y="-183" font-family="Helvetica,sans-Serif" font-size="10.00">dolphin/gx/GXStruct.h</text>
</a>
</g>
</g>
<!-- Node1&#45;&gt;Node2 -->
<g id="edge1" class="edge">
<title>Node1&#45;&gt;Node2</title>
<path fill="none" stroke="#63b8ff" d="M87.12,-230.54C81.45,-222.65 74.39,-212.81 68.38,-204.44"/>
<polygon fill="#63b8ff" stroke="#63b8ff" points="71.29,-202.49 62.61,-196.4 65.6,-206.57 71.29,-202.49"/>
</g>
<!-- Node6 -->
<g id="node6" class="node">
<title>Node6</title>
<g id="a_node6"><a xlink:href="GXEnum_8h.html" target="_top" xlink:title=" ">
<polygon fill="white" stroke="#666666" points="201.5,-140 91.5,-140 91.5,-121 201.5,-121 201.5,-140"/>
<text text-anchor="middle" x="146.5" y="-128" font-family="Helvetica,sans-Serif" font-size="10.00">dolphin/gx/GXEnum.h</text>
</a>
</g>
</g>
<!-- Node1&#45;&gt;Node6 -->
<g id="edge5" class="edge">
<title>Node1&#45;&gt;Node6</title>
<path fill="none" stroke="#63b8ff" d="M104.31,-230.63C108.97,-220.68 115.25,-207.09 120.5,-195 126.9,-180.26 133.78,-163.43 138.85,-150.79"/>
<polygon fill="#63b8ff" stroke="#63b8ff" points="142.07,-152.17 142.52,-141.58 135.57,-149.57 142.07,-152.17"/>
</g>
<!-- Node3 -->
<g id="node3" class="node">
<title>Node3</title>
<g id="a_node3"><a xlink:href="global_8h.html" target="_top" xlink:title=" ">
<polygon fill="white" stroke="#666666" points="73.5,-140 23.5,-140 23.5,-121 73.5,-121 73.5,-140"/>
<text text-anchor="middle" x="48.5" y="-128" font-family="Helvetica,sans-Serif" font-size="10.00">global.h</text>
</a>
</g>
</g>
<!-- Node2&#45;&gt;Node3 -->
<g id="edge2" class="edge">
<title>Node2&#45;&gt;Node3</title>
<path fill="none" stroke="#63b8ff" d="M54.34,-175.75C53.48,-169.19 52.26,-159.95 51.16,-151.6"/>
<polygon fill="#63b8ff" stroke="#63b8ff" points="54.66,-151.4 49.88,-141.94 47.72,-152.31 54.66,-151.4"/>
</g>
<!-- Node4 -->
<g id="node4" class="node">
<title>Node4</title>
<g id="a_node4"><a xlink:href="types_8h.html" target="_top" xlink:title=" ">
<polygon fill="white" stroke="#666666" points="138,-85 57,-85 57,-66 138,-66 138,-85"/>
<text text-anchor="middle" x="97.5" y="-73" font-family="Helvetica,sans-Serif" font-size="10.00">dolphin/types.h</text>
</a>
</g>
</g>
<!-- Node3&#45;&gt;Node4 -->
<g id="edge3" class="edge">
<title>Node3&#45;&gt;Node4</title>
<path fill="none" stroke="#63b8ff" d="M56.59,-120.75C63.36,-113.43 73.22,-102.76 81.56,-93.74"/>
<polygon fill="#63b8ff" stroke="#63b8ff" points="83.99,-96.27 88.21,-86.55 78.85,-91.52 83.99,-96.27"/>
</g>
<!-- Node5 -->
<g id="node5" class="node">
<title>Node5</title>
<g id="a_node5"><a xlink:href="stddef_8h.html" target="_top" xlink:title=" ">
<polygon fill="white" stroke="#666666" points="165.5,-30 29.5,-30 29.5,0 165.5,0 165.5,-30"/>
<text text-anchor="start" x="37.5" y="-18" font-family="Helvetica,sans-Serif" font-size="10.00">MSL_C/MSL_Common/Src</text>
<text text-anchor="middle" x="97.5" y="-7" font-family="Helvetica,sans-Serif" font-size="10.00">/stddef.h</text>
</a>
</g>
</g>
<!-- Node4&#45;&gt;Node5 -->
<g id="edge4" class="edge">
<title>Node4&#45;&gt;Node5</title>
<path fill="none" stroke="#63b8ff" d="M97.5,-65.87C97.5,-59.4 97.5,-50.2 97.5,-41.45"/>
<polygon fill="#63b8ff" stroke="#63b8ff" points="101,-41.63 97.5,-31.63 94,-41.63 101,-41.63"/>
</g>
<!-- Node6&#45;&gt;Node4 -->
<g id="edge6" class="edge">
<title>Node6&#45;&gt;Node4</title>
<path fill="none" stroke="#63b8ff" d="M138.41,-120.75C131.64,-113.43 121.78,-102.76 113.44,-93.74"/>
<polygon fill="#63b8ff" stroke="#63b8ff" points="116.15,-91.52 106.79,-86.55 111.01,-96.27 116.15,-91.52"/>
</g>
</g>
</svg>
