<?xml version="1.0" encoding="UTF-8" standalone="no"?>
<!DOCTYPE svg PUBLIC "-//W3C//DTD SVG 1.1//EN"
 "http://www.w3.org/Graphics/SVG/1.1/DTD/svg11.dtd">
<!-- Generated by graphviz version 7.0.5 (20221223.1930)
 -->
<!-- Title: libs/dolphin/gx/GXMisc.c Pages: 1 -->
<svg width="2107pt" height="489pt"
 viewBox="0.00 0.00 2106.50 489.00" xmlns="http://www.w3.org/2000/svg" xmlns:xlink="http://www.w3.org/1999/xlink">
<g id="graph0" class="graph" transform="scale(1 1) rotate(0) translate(4 485)">
<title>libs/dolphin/gx/GXMisc.c</title>
<!-- Node1 -->
<g id="node1" class="node">
<title>Node1</title>
<g id="a_node1"><a xlink:title=" ">
<polygon fill="#999999" stroke="#666666" points="1387,-481 1263,-481 1263,-462 1387,-462 1387,-481"/>
<text text-anchor="middle" x="1325" y="-469" font-family="Helvetica,sans-Serif" font-size="10.00">libs/dolphin/gx/GXMisc.c</text>
</a>
</g>
</g>
<!-- Node2 -->
<g id="node2" class="node">
<title>Node2</title>
<g id="a_node2"><a xlink:href="GXMisc_8h.html" target="_top" xlink:title=" ">
<polygon fill="white" stroke="#666666" points="134,-360 28,-360 28,-341 134,-341 134,-360"/>
<text text-anchor="middle" x="81" y="-348" font-family="Helvetica,sans-Serif" font-size="10.00">dolphin/gx/GXMisc.h</text>
</a>
</g>
</g>
<!-- Node1&#45;&gt;Node2 -->
<g id="edge1" class="edge">
<title>Node1&#45;&gt;Node2</title>
<path fill="none" stroke="#63b8ff" d="M1262.71,-468.4C1136.98,-463.77 843.96,-451.08 599,-426 434.46,-409.15 242,-378.59 144.52,-362.34"/>
<polygon fill="#63b8ff" stroke="#63b8ff" points="145.33,-358.93 134.89,-360.73 144.18,-365.83 145.33,-358.93"/>
</g>
<!-- Node4 -->
<g id="node4" class="node">
<title>Node4</title>
<g id="a_node4"><a xlink:href="types_8h.html" target="_top" xlink:title=" ">
<polygon fill="white" stroke="#666666" points="875.5,-85 794.5,-85 794.5,-66 875.5,-66 875.5,-85"/>
<text text-anchor="middle" x="835" y="-73" font-family="Helvetica,sans-Serif" font-size="10.00">dolphin/types.h</text>
</a>
</g>
</g>
<!-- Node1&#45;&gt;Node4 -->
<g id="edge60" class="edge">
<title>Node1&#45;&gt;Node4</title>
<path fill="none" stroke="#63b8ff" d="M1262.61,-470.62C1109.61,-470.27 703.76,-465.36 368,-426 202.26,-406.57 0,-518.37 0,-351.5 0,-351.5 0,-351.5 0,-184.5 0,-105.21 599.89,-82.74 782.73,-77.74"/>
<polygon fill="#63b8ff" stroke="#63b8ff" points="782.74,-81.24 792.65,-77.47 782.56,-74.24 782.74,-81.24"/>
</g>
<!-- Node6 -->
<g id="node6" class="node">
<title>Node6</title>
<g id="a_node6"><a xlink:href="GX_8h.html" target="_top" xlink:title=" ">
<polygon fill="white" stroke="#666666" points="693.5,-420.5 608.5,-420.5 608.5,-401.5 693.5,-401.5 693.5,-420.5"/>
<text text-anchor="middle" x="651" y="-408.5" font-family="Helvetica,sans-Serif" font-size="10.00">dolphin/gx/GX.h</text>
</a>
</g>
</g>
<!-- Node1&#45;&gt;Node6 -->
<g id="edge5" class="edge">
<title>Node1&#45;&gt;Node6</title>
<path fill="none" stroke="#63b8ff" d="M1262.8,-465.1C1131.78,-453.73 829.3,-427.48 705.41,-416.72"/>
<polygon fill="#63b8ff" stroke="#63b8ff" points="705.77,-413.24 695.5,-415.86 705.16,-420.21 705.77,-413.24"/>
</g>
<!-- Node14 -->
<g id="node14" class="node">
<title>Node14</title>
<g id="a_node14"><a xlink:href="OSContext_8h.html" target="_top" xlink:title=" ">
<polygon fill="white" stroke="#666666" points="1081.5,-195 962.5,-195 962.5,-176 1081.5,-176 1081.5,-195"/>
<text text-anchor="middle" x="1022" y="-183" font-family="Helvetica,sans-Serif" font-size="10.00">dolphin/os/OSContext.h</text>
</a>
</g>
</g>
<!-- Node1&#45;&gt;Node14 -->
<g id="edge52" class="edge">
<title>Node1&#45;&gt;Node14</title>
<path fill="none" stroke="#63b8ff" d="M1310.72,-461.56C1299.03,-453.56 1282.88,-440.84 1273,-426 1253.72,-397.04 1249,-386.29 1249,-351.5 1249,-351.5 1249,-351.5 1249,-294.5 1249,-264.91 1250.88,-250.92 1229,-231 1209.19,-212.96 1144.8,-201.03 1093.03,-194.11"/>
<polygon fill="#63b8ff" stroke="#63b8ff" points="1093.73,-190.67 1083.37,-192.86 1092.84,-197.61 1093.73,-190.67"/>
</g>
<!-- Node22 -->
<g id="node22" class="node">
<title>Node22</title>
<g id="a_node22"><a xlink:href="GXInit_8h.html" target="_top" xlink:title=" ">
<polygon fill="white" stroke="#666666" points="1063,-305 965,-305 965,-286 1063,-286 1063,-305"/>
<text text-anchor="middle" x="1014" y="-293" font-family="Helvetica,sans-Serif" font-size="10.00">dolphin/gx/GXInit.h</text>
</a>
</g>
</g>
<!-- Node1&#45;&gt;Node22 -->
<g id="edge59" class="edge">
<title>Node1&#45;&gt;Node22</title>
<path fill="none" stroke="#63b8ff" d="M1305.84,-461.51C1287.48,-452.78 1259.09,-438.99 1235,-426 1162.06,-386.66 1078.21,-335.98 1037.98,-311.31"/>
<polygon fill="#63b8ff" stroke="#63b8ff" points="1039.92,-308.39 1029.57,-306.14 1036.25,-314.35 1039.92,-308.39"/>
</g>
<!-- Node28 -->
<g id="node28" class="node">
<title>Node28</title>
<g id="a_node28"><a xlink:href="OSInterrupt_8h.html" target="_top" xlink:title=" ">
<polygon fill="white" stroke="#666666" points="1153,-140 1031,-140 1031,-121 1153,-121 1153,-140"/>
<text text-anchor="middle" x="1092" y="-128" font-family="Helvetica,sans-Serif" font-size="10.00">dolphin/os/OSInterrupt.h</text>
</a>
</g>
</g>
<!-- Node1&#45;&gt;Node28 -->
<g id="edge53" class="edge">
<title>Node1&#45;&gt;Node28</title>
<path fill="none" stroke="#63b8ff" d="M1320.03,-461.56C1309.73,-442.14 1287,-394.44 1287,-351.5 1287,-351.5 1287,-351.5 1287,-239.5 1287,-181.36 1219.84,-154.26 1164.35,-141.8"/>
<polygon fill="#63b8ff" stroke="#63b8ff" points="1165.42,-138.45 1154.91,-139.81 1163.98,-145.3 1165.42,-138.45"/>
</g>
<!-- Node29 -->
<g id="node29" class="node">
<title>Node29</title>
<g id="a_node29"><a xlink:href="OSReset_8h.html" target="_top" xlink:title=" ">
<polygon fill="white" stroke="#666666" points="1287.5,-140 1176.5,-140 1176.5,-121 1287.5,-121 1287.5,-140"/>
<text text-anchor="middle" x="1232" y="-128" font-family="Helvetica,sans-Serif" font-size="10.00">dolphin/os/OSReset.h</text>
</a>
</g>
</g>
<!-- Node1&#45;&gt;Node29 -->
<g id="edge55" class="edge">
<title>Node1&#45;&gt;Node29</title>
<path fill="none" stroke="#63b8ff" d="M1325,-461.54C1325,-441.72 1325,-392.61 1325,-351.5 1325,-351.5 1325,-351.5 1325,-239.5 1325,-209.33 1319.96,-199.47 1301,-176 1290.82,-163.4 1276.08,-153.22 1262.84,-145.79"/>
<polygon fill="#63b8ff" stroke="#63b8ff" points="1264.48,-142.7 1254,-141.14 1261.21,-148.89 1264.48,-142.7"/>
</g>
<!-- Node30 -->
<g id="node30" class="node">
<title>Node30</title>
<g id="a_node30"><a xlink:href="OSTime_8h.html" target="_top" xlink:title=" ">
<polygon fill="white" stroke="#666666" points="1415.5,-140 1308.5,-140 1308.5,-121 1415.5,-121 1415.5,-140"/>
<text text-anchor="middle" x="1362" y="-128" font-family="Helvetica,sans-Serif" font-size="10.00">dolphin/os/OSTime.h</text>
</a>
</g>
</g>
<!-- Node1&#45;&gt;Node30 -->
<g id="edge57" class="edge">
<title>Node1&#45;&gt;Node30</title>
<path fill="none" stroke="#63b8ff" d="M1329.97,-461.56C1340.27,-442.14 1363,-394.44 1363,-351.5 1363,-351.5 1363,-351.5 1363,-239.5 1363,-208.92 1362.59,-173.48 1362.3,-151.77"/>
<polygon fill="#63b8ff" stroke="#63b8ff" points="1365.8,-151.92 1362.16,-141.97 1358.8,-152.02 1365.8,-151.92"/>
</g>
<!-- Node31 -->
<g id="node31" class="node">
<title>Node31</title>
<g id="a_node31"><a xlink:title=" ">
<polygon fill="#e0e0e0" stroke="#999999" points="1511,-426 1391,-426 1391,-396 1511,-396 1511,-426"/>
<text text-anchor="start" x="1399" y="-414" font-family="Helvetica,sans-Serif" font-size="10.00">asm/dolphin/gx/GXMisc</text>
<text text-anchor="middle" x="1451" y="-403" font-family="Helvetica,sans-Serif" font-size="10.00">/__GXAbort.s</text>
</a>
</g>
</g>
<!-- Node1&#45;&gt;Node31 -->
<g id="edge61" class="edge">
<title>Node1&#45;&gt;Node31</title>
<path fill="none" stroke="#63b8ff" d="M1344.14,-461.62C1361.41,-453.59 1387.42,-441.52 1409.46,-431.29"/>
<polygon fill="#63b8ff" stroke="#63b8ff" points="1410.93,-434.46 1418.53,-427.08 1407.98,-428.11 1410.93,-434.46"/>
</g>
<!-- Node32 -->
<g id="node32" class="node">
<title>Node32</title>
<g id="a_node32"><a xlink:title=" ">
<polygon fill="#e0e0e0" stroke="#999999" points="1649,-426 1529,-426 1529,-396 1649,-396 1649,-426"/>
<text text-anchor="start" x="1537" y="-414" font-family="Helvetica,sans-Serif" font-size="10.00">asm/dolphin/gx/GXMisc</text>
<text text-anchor="middle" x="1589" y="-403" font-family="Helvetica,sans-Serif" font-size="10.00">/GXAbortFrame.s</text>
</a>
</g>
</g>
<!-- Node1&#45;&gt;Node32 -->
<g id="edge62" class="edge">
<title>Node1&#45;&gt;Node32</title>
<path fill="none" stroke="#63b8ff" d="M1365.38,-461.55C1405.72,-452.61 1468.57,-438.69 1517.39,-427.87"/>
<polygon fill="#63b8ff" stroke="#63b8ff" points="1518.04,-431.31 1527.04,-425.73 1516.52,-424.48 1518.04,-431.31"/>
</g>
<!-- Node33 -->
<g id="node33" class="node">
<title>Node33</title>
<g id="a_node33"><a xlink:title=" ">
<polygon fill="#e0e0e0" stroke="#999999" points="1787,-426 1667,-426 1667,-396 1787,-396 1787,-426"/>
<text text-anchor="start" x="1675" y="-414" font-family="Helvetica,sans-Serif" font-size="10.00">asm/dolphin/gx/GXMisc</text>
<text text-anchor="middle" x="1727" y="-403" font-family="Helvetica,sans-Serif" font-size="10.00">/GXPokeBlendMode.s</text>
</a>
</g>
</g>
<!-- Node1&#45;&gt;Node33 -->
<g id="edge63" class="edge">
<title>Node1&#45;&gt;Node33</title>
<path fill="none" stroke="#63b8ff" d="M1387.48,-463.42C1452.12,-455.82 1556.24,-442.77 1655.67,-426.32"/>
<polygon fill="#63b8ff" stroke="#63b8ff" points="1656.05,-429.8 1665.34,-424.71 1654.9,-422.9 1656.05,-429.8"/>
</g>
<!-- Node34 -->
<g id="node34" class="node">
<title>Node34</title>
<g id="a_node34"><a xlink:title=" ">
<polygon fill="#e0e0e0" stroke="#999999" points="1943,-426 1805,-426 1805,-396 1943,-396 1943,-426"/>
<text text-anchor="start" x="1813" y="-414" font-family="Helvetica,sans-Serif" font-size="10.00">asm/dolphin/gx/GXMisc</text>
<text text-anchor="middle" x="1874" y="-403" font-family="Helvetica,sans-Serif" font-size="10.00">/GXTokenInterruptHandler.s</text>
</a>
</g>
</g>
<!-- Node1&#45;&gt;Node34 -->
<g id="edge64" class="edge">
<title>Node1&#45;&gt;Node34</title>
<path fill="none" stroke="#63b8ff" d="M1387.29,-466.28C1475.41,-459.94 1641.76,-446.62 1793.37,-426.28"/>
<polygon fill="#63b8ff" stroke="#63b8ff" points="1793.79,-429.76 1803.23,-424.95 1792.85,-422.82 1793.79,-429.76"/>
</g>
<!-- Node35 -->
<g id="node35" class="node">
<title>Node35</title>
<g id="a_node35"><a xlink:title=" ">
<polygon fill="#e0e0e0" stroke="#999999" points="2098.5,-426 1961.5,-426 1961.5,-396 2098.5,-396 2098.5,-426"/>
<text text-anchor="start" x="1969.5" y="-414" font-family="Helvetica,sans-Serif" font-size="10.00">asm/dolphin/gx/GXMisc</text>
<text text-anchor="middle" x="2030" y="-403" font-family="Helvetica,sans-Serif" font-size="10.00">/GXFinishInterruptHandler.s</text>
</a>
</g>
</g>
<!-- Node1&#45;&gt;Node35 -->
<g id="edge65" class="edge">
<title>Node1&#45;&gt;Node35</title>
<path fill="none" stroke="#63b8ff" d="M1387.06,-468.29C1497.9,-463.87 1737.37,-452.15 1949.78,-426.18"/>
<polygon fill="#63b8ff" stroke="#63b8ff" points="1950.16,-429.66 1959.66,-424.95 1949.3,-422.71 1950.16,-429.66"/>
</g>
<!-- Node3 -->
<g id="node3" class="node">
<title>Node3</title>
<g id="a_node3"><a xlink:href="GXEnum_8h.html" target="_top" xlink:title=" ">
<polygon fill="white" stroke="#666666" points="558,-250 448,-250 448,-231 558,-231 558,-250"/>
<text text-anchor="middle" x="503" y="-238" font-family="Helvetica,sans-Serif" font-size="10.00">dolphin/gx/GXEnum.h</text>
</a>
</g>
</g>
<!-- Node2&#45;&gt;Node3 -->
<g id="edge2" class="edge">
<title>Node2&#45;&gt;Node3</title>
<path fill="none" stroke="#63b8ff" d="M72.53,-340.64C60.81,-327.29 42.61,-301.9 57,-286 81.95,-258.43 318.27,-247.22 436.42,-243.31"/>
<polygon fill="#63b8ff" stroke="#63b8ff" points="436.42,-246.82 446.3,-243 436.19,-239.82 436.42,-246.82"/>
</g>
<!-- Node3&#45;&gt;Node4 -->
<g id="edge3" class="edge">
<title>Node3&#45;&gt;Node4</title>
<path fill="none" stroke="#63b8ff" d="M510.44,-230.74C529.73,-208.63 583.93,-150.23 642,-121 686.59,-98.56 742.67,-87.26 782.87,-81.68"/>
<polygon fill="#63b8ff" stroke="#63b8ff" points="783.32,-85.15 792.79,-80.39 782.42,-78.21 783.32,-85.15"/>
</g>
<!-- Node5 -->
<g id="node5" class="node">
<title>Node5</title>
<g id="a_node5"><a xlink:href="stddef_8h.html" target="_top" xlink:title=" ">
<polygon fill="white" stroke="#666666" points="903,-30 767,-30 767,0 903,0 903,-30"/>
<text text-anchor="start" x="775" y="-18" font-family="Helvetica,sans-Serif" font-size="10.00">MSL_C/MSL_Common/Src</text>
<text text-anchor="middle" x="835" y="-7" font-family="Helvetica,sans-Serif" font-size="10.00">/stddef.h</text>
</a>
</g>
</g>
<!-- Node4&#45;&gt;Node5 -->
<g id="edge4" class="edge">
<title>Node4&#45;&gt;Node5</title>
<path fill="none" stroke="#63b8ff" d="M835,-65.87C835,-59.4 835,-50.2 835,-41.45"/>
<polygon fill="#63b8ff" stroke="#63b8ff" points="838.5,-41.63 835,-31.63 831.5,-41.63 838.5,-41.63"/>
</g>
<!-- Node6&#45;&gt;Node2 -->
<g id="edge28" class="edge">
<title>Node6&#45;&gt;Node2</title>
<path fill="none" stroke="#63b8ff" d="M608.23,-406.14C521.4,-398.23 318.26,-379.26 148,-360 147.17,-359.91 146.33,-359.81 145.49,-359.71"/>
<polygon fill="#63b8ff" stroke="#63b8ff" points="146.22,-356.28 135.88,-358.58 145.4,-363.23 146.22,-356.28"/>
</g>
<!-- Node7 -->
<g id="node7" class="node">
<title>Node7</title>
<g id="a_node7"><a xlink:href="GXAttr_8h.html" target="_top" xlink:title=" ">
<polygon fill="white" stroke="#666666" points="291.5,-360 190.5,-360 190.5,-341 291.5,-341 291.5,-360"/>
<text text-anchor="middle" x="241" y="-348" font-family="Helvetica,sans-Serif" font-size="10.00">dolphin/gx/GXAttr.h</text>
</a>
</g>
</g>
<!-- Node6&#45;&gt;Node7 -->
<g id="edge6" class="edge">
<title>Node6&#45;&gt;Node7</title>
<path fill="none" stroke="#63b8ff" d="M608.28,-403.91C535.53,-393.53 387.31,-372.38 303.1,-360.36"/>
<polygon fill="#63b8ff" stroke="#63b8ff" points="303.8,-356.93 293.41,-358.98 302.81,-363.86 303.8,-356.93"/>
</g>
<!-- Node8 -->
<g id="node8" class="node">
<title>Node8</title>
<g id="a_node8"><a xlink:href="GXBump_8h.html" target="_top" xlink:title=" ">
<polygon fill="white" stroke="#666666" points="420,-360 310,-360 310,-341 420,-341 420,-360"/>
<text text-anchor="middle" x="365" y="-348" font-family="Helvetica,sans-Serif" font-size="10.00">dolphin/gx/GXBump.h</text>
</a>
</g>
</g>
<!-- Node6&#45;&gt;Node8 -->
<g id="edge8" class="edge">
<title>Node6&#45;&gt;Node8</title>
<path fill="none" stroke="#63b8ff" d="M608.18,-401.24C557.99,-390.98 474.71,-373.94 419.84,-362.72"/>
<polygon fill="#63b8ff" stroke="#63b8ff" points="420.56,-359.29 410.06,-360.72 419.16,-366.15 420.56,-359.29"/>
</g>
<!-- Node9 -->
<g id="node9" class="node">
<title>Node9</title>
<g id="a_node9"><a xlink:href="GXDisplayList_8h.html" target="_top" xlink:title=" ">
<polygon fill="white" stroke="#666666" points="1220.5,-250 1087.5,-250 1087.5,-231 1220.5,-231 1220.5,-250"/>
<text text-anchor="middle" x="1154" y="-238" font-family="Helvetica,sans-Serif" font-size="10.00">dolphin/gx/GXDisplayList.h</text>
</a>
</g>
</g>
<!-- Node6&#45;&gt;Node9 -->
<g id="edge10" class="edge">
<title>Node6&#45;&gt;Node9</title>
<path fill="none" stroke="#63b8ff" d="M693.95,-409.14C770.64,-406.68 935.57,-397.11 1069,-360 1126.3,-344.06 1158.72,-354.96 1191,-305 1201.05,-289.44 1187.8,-271.1 1174.44,-258.15"/>
<polygon fill="#63b8ff" stroke="#63b8ff" points="1176.81,-255.56 1167.02,-251.5 1172.14,-260.78 1176.81,-255.56"/>
</g>
<!-- Node10 -->
<g id="node10" class="node">
<title>Node10</title>
<g id="a_node10"><a xlink:href="GXFifo_8h.html" target="_top" xlink:title=" ">
<polygon fill="white" stroke="#666666" points="1182.5,-305 1081.5,-305 1081.5,-286 1182.5,-286 1182.5,-305"/>
<text text-anchor="middle" x="1132" y="-293" font-family="Helvetica,sans-Serif" font-size="10.00">dolphin/gx/GXFifo.h</text>
</a>
</g>
</g>
<!-- Node6&#45;&gt;Node10 -->
<g id="edge12" class="edge">
<title>Node6&#45;&gt;Node10</title>
<path fill="none" stroke="#63b8ff" d="M693.8,-410.66C766.5,-410.43 917.74,-404.08 1036,-360 1065.36,-349.06 1094.78,-327.69 1113.16,-312.78"/>
<polygon fill="#63b8ff" stroke="#63b8ff" points="1115.33,-315.52 1120.77,-306.43 1110.85,-310.15 1115.33,-315.52"/>
</g>
<!-- Node15 -->
<g id="node15" class="node">
<title>Node15</title>
<g id="a_node15"><a xlink:href="GXFrameBuf_8h.html" target="_top" xlink:title=" ">
<polygon fill="white" stroke="#666666" points="702,-305 574,-305 574,-286 702,-286 702,-305"/>
<text text-anchor="middle" x="638" y="-293" font-family="Helvetica,sans-Serif" font-size="10.00">dolphin/gx/GXFrameBuf.h</text>
</a>
</g>
</g>
<!-- Node6&#45;&gt;Node15 -->
<g id="edge20" class="edge">
<title>Node6&#45;&gt;Node15</title>
<path fill="none" stroke="#63b8ff" d="M650.65,-401.04C650.07,-387.85 648.7,-362.45 646,-341 644.98,-332.92 643.48,-324.08 642.04,-316.42"/>
<polygon fill="#63b8ff" stroke="#63b8ff" points="645.52,-315.95 640.16,-306.81 638.65,-317.29 645.52,-315.95"/>
</g>
<!-- Node16 -->
<g id="node16" class="node">
<title>Node16</title>
<g id="a_node16"><a xlink:href="GXGeometry_8h.html" target="_top" xlink:title=" ">
<polygon fill="white" stroke="#666666" points="565.5,-360 438.5,-360 438.5,-341 565.5,-341 565.5,-360"/>
<text text-anchor="middle" x="502" y="-348" font-family="Helvetica,sans-Serif" font-size="10.00">dolphin/gx/GXGeometry.h</text>
</a>
</g>
</g>
<!-- Node6&#45;&gt;Node16 -->
<g id="edge23" class="edge">
<title>Node6&#45;&gt;Node16</title>
<path fill="none" stroke="#63b8ff" d="M628.37,-401.12C603.65,-391.41 563.79,-375.76 535.46,-364.64"/>
<polygon fill="#63b8ff" stroke="#63b8ff" points="536.84,-361.42 526.25,-361.02 534.28,-367.93 536.84,-361.42"/>
</g>
<!-- Node17 -->
<g id="node17" class="node">
<title>Node17</title>
<g id="a_node17"><a xlink:href="GXLight_8h.html" target="_top" xlink:title=" ">
<polygon fill="white" stroke="#666666" points="827.5,-305 720.5,-305 720.5,-286 827.5,-286 827.5,-305"/>
<text text-anchor="middle" x="774" y="-293" font-family="Helvetica,sans-Serif" font-size="10.00">dolphin/gx/GXLight.h</text>
</a>
</g>
</g>
<!-- Node6&#45;&gt;Node17 -->
<g id="edge25" class="edge">
<title>Node6&#45;&gt;Node17</title>
<path fill="none" stroke="#63b8ff" d="M660.65,-401.09C681.22,-382.11 729.64,-337.43 756.05,-313.06"/>
<polygon fill="#63b8ff" stroke="#63b8ff" points="758.31,-315.75 763.28,-306.39 753.56,-310.6 758.31,-315.75"/>
</g>
<!-- Node18 -->
<g id="node18" class="node">
<title>Node18</title>
<g id="a_node18"><a xlink:href="GXPerf_8h.html" target="_top" xlink:title=" ">
<polygon fill="white" stroke="#666666" points="169.5,-305 66.5,-305 66.5,-286 169.5,-286 169.5,-305"/>
<text text-anchor="middle" x="118" y="-293" font-family="Helvetica,sans-Serif" font-size="10.00">dolphin/gx/GXPerf.h</text>
</a>
</g>
</g>
<!-- Node6&#45;&gt;Node18 -->
<g id="edge29" class="edge">
<title>Node6&#45;&gt;Node18</title>
<path fill="none" stroke="#63b8ff" d="M608.19,-409.08C507,-406.34 255.99,-396.01 181,-360 159.84,-349.84 141.71,-329.55 130.4,-314.62"/>
<polygon fill="#63b8ff" stroke="#63b8ff" points="133.29,-312.64 124.6,-306.57 127.61,-316.73 133.29,-312.64"/>
</g>
<!-- Node19 -->
<g id="node19" class="node">
<title>Node19</title>
<g id="a_node19"><a xlink:href="GXPixel_8h.html" target="_top" xlink:title=" ">
<polygon fill="white" stroke="#666666" points="556,-305 450,-305 450,-286 556,-286 556,-305"/>
<text text-anchor="middle" x="503" y="-293" font-family="Helvetica,sans-Serif" font-size="10.00">dolphin/gx/GXPixel.h</text>
</a>
</g>
</g>
<!-- Node6&#45;&gt;Node19 -->
<g id="edge32" class="edge">
<title>Node6&#45;&gt;Node19</title>
<path fill="none" stroke="#63b8ff" d="M647.59,-401.17C641.61,-386.75 627.96,-358.06 608,-341 590.98,-326.46 568.52,-316.08 548.73,-309.03"/>
<polygon fill="#63b8ff" stroke="#63b8ff" points="550.1,-305.79 539.5,-305.92 547.87,-312.43 550.1,-305.79"/>
</g>
<!-- Node20 -->
<g id="node20" class="node">
<title>Node20</title>
<g id="a_node20"><a xlink:href="GXTev_8h.html" target="_top" xlink:title=" ">
<polygon fill="white" stroke="#666666" points="946.5,-305 845.5,-305 845.5,-286 946.5,-286 946.5,-305"/>
<text text-anchor="middle" x="896" y="-293" font-family="Helvetica,sans-Serif" font-size="10.00">dolphin/gx/GXTev.h</text>
</a>
</g>
</g>
<!-- Node6&#45;&gt;Node20 -->
<g id="edge35" class="edge">
<title>Node6&#45;&gt;Node20</title>
<path fill="none" stroke="#63b8ff" d="M670.22,-401.09C712.89,-381.33 815.74,-333.68 866.56,-310.14"/>
<polygon fill="#63b8ff" stroke="#63b8ff" points="867.89,-313.38 875.49,-306 864.95,-307.03 867.89,-313.38"/>
</g>
<!-- Node21 -->
<g id="node21" class="node">
<title>Node21</title>
<g id="a_node21"><a xlink:href="GXTexture_8h.html" target="_top" xlink:title=" ">
<polygon fill="white" stroke="#666666" points="1027.5,-360 910.5,-360 910.5,-341 1027.5,-341 1027.5,-360"/>
<text text-anchor="middle" x="969" y="-348" font-family="Helvetica,sans-Serif" font-size="10.00">dolphin/gx/GXTexture.h</text>
</a>
</g>
</g>
<!-- Node6&#45;&gt;Node21 -->
<g id="edge38" class="edge">
<title>Node6&#45;&gt;Node21</title>
<path fill="none" stroke="#63b8ff" d="M693.89,-402.11C749.35,-391.91 846.25,-374.08 908.99,-362.54"/>
<polygon fill="#63b8ff" stroke="#63b8ff" points="909.61,-365.99 918.81,-360.73 908.34,-359.1 909.61,-365.99"/>
</g>
<!-- Node27 -->
<g id="node27" class="node">
<title>Node27</title>
<g id="a_node27"><a xlink:href="GXTransform_8h.html" target="_top" xlink:title=" ">
<polygon fill="white" stroke="#666666" points="431.5,-305 302.5,-305 302.5,-286 431.5,-286 431.5,-305"/>
<text text-anchor="middle" x="367" y="-293" font-family="Helvetica,sans-Serif" font-size="10.00">dolphin/gx/GXTransform.h</text>
</a>
</g>
</g>
<!-- Node6&#45;&gt;Node27 -->
<g id="edge49" class="edge">
<title>Node6&#45;&gt;Node27</title>
<path fill="none" stroke="#63b8ff" d="M643.95,-401.22C631.5,-386.35 604.07,-356.32 574,-341 550.1,-328.82 486.16,-316.06 435.61,-307.35"/>
<polygon fill="#63b8ff" stroke="#63b8ff" points="436.33,-303.92 425.88,-305.69 435.16,-310.82 436.33,-303.92"/>
</g>
<!-- Node7&#45;&gt;Node3 -->
<g id="edge7" class="edge">
<title>Node7&#45;&gt;Node3</title>
<path fill="none" stroke="#63b8ff" d="M243.45,-340.94C247.9,-327.05 258.67,-299.77 278,-286 303,-268.18 379.54,-255.68 436.44,-248.56"/>
<polygon fill="#63b8ff" stroke="#63b8ff" points="436.53,-252.07 446.03,-247.39 435.68,-245.12 436.53,-252.07"/>
</g>
<!-- Node8&#45;&gt;Node3 -->
<g id="edge9" class="edge">
<title>Node8&#45;&gt;Node3</title>
<path fill="none" stroke="#63b8ff" d="M337.58,-340.57C307.89,-329.46 267.15,-309.11 286,-286 304.73,-263.03 379.57,-251.59 436.16,-246.12"/>
<polygon fill="#63b8ff" stroke="#63b8ff" points="436.43,-249.61 446.07,-245.21 435.79,-242.64 436.43,-249.61"/>
</g>
<!-- Node9&#45;&gt;Node4 -->
<g id="edge11" class="edge">
<title>Node9&#45;&gt;Node4</title>
<path fill="none" stroke="#63b8ff" d="M1096.65,-230.5C1046.28,-221.93 977.35,-208.39 953,-195 928.9,-181.75 875.82,-123.19 849.87,-93.65"/>
<polygon fill="#63b8ff" stroke="#63b8ff" points="852.68,-91.55 843.47,-86.32 847.41,-96.15 852.68,-91.55"/>
</g>
<!-- Node10&#45;&gt;Node3 -->
<g id="edge16" class="edge">
<title>Node10&#45;&gt;Node3</title>
<path fill="none" stroke="#63b8ff" d="M1081.29,-287.09C1078.15,-286.7 1075.03,-286.33 1072,-286 1023.2,-280.64 708.96,-256.91 569.5,-246.46"/>
<polygon fill="#63b8ff" stroke="#63b8ff" points="569.91,-242.99 559.67,-245.73 569.38,-249.97 569.91,-242.99"/>
</g>
<!-- Node11 -->
<g id="node11" class="node">
<title>Node11</title>
<g id="a_node11"><a xlink:href="GXStruct_8h.html" target="_top" xlink:title=" ">
<polygon fill="white" stroke="#666666" points="934.5,-250 823.5,-250 823.5,-231 934.5,-231 934.5,-250"/>
<text text-anchor="middle" x="879" y="-238" font-family="Helvetica,sans-Serif" font-size="10.00">dolphin/gx/GXStruct.h</text>
</a>
</g>
</g>
<!-- Node10&#45;&gt;Node11 -->
<g id="edge13" class="edge">
<title>Node10&#45;&gt;Node11</title>
<path fill="none" stroke="#63b8ff" d="M1089.08,-285.51C1045.97,-276.48 979.42,-262.54 932.81,-252.77"/>
<polygon fill="#63b8ff" stroke="#63b8ff" points="933.69,-249.38 923.19,-250.76 932.26,-256.23 933.69,-249.38"/>
</g>
<!-- Node13 -->
<g id="node13" class="node">
<title>Node13</title>
<g id="a_node13"><a xlink:href="OSThread_8h.html" target="_top" xlink:title=" ">
<polygon fill="white" stroke="#666666" points="1069,-250 953,-250 953,-231 1069,-231 1069,-250"/>
<text text-anchor="middle" x="1011" y="-238" font-family="Helvetica,sans-Serif" font-size="10.00">dolphin/os/OSThread.h</text>
</a>
</g>
</g>
<!-- Node10&#45;&gt;Node13 -->
<g id="edge17" class="edge">
<title>Node10&#45;&gt;Node13</title>
<path fill="none" stroke="#63b8ff" d="M1111.47,-285.51C1092.32,-277.12 1063.5,-264.5 1041.63,-254.92"/>
<polygon fill="#63b8ff" stroke="#63b8ff" points="1043.17,-251.77 1032.61,-250.97 1040.36,-258.18 1043.17,-251.77"/>
</g>
<!-- Node12 -->
<g id="node12" class="node">
<title>Node12</title>
<g id="a_node12"><a xlink:href="global_8h.html" target="_top" xlink:title=" ">
<polygon fill="white" stroke="#666666" points="906,-195 856,-195 856,-176 906,-176 906,-195"/>
<text text-anchor="middle" x="881" y="-183" font-family="Helvetica,sans-Serif" font-size="10.00">global.h</text>
</a>
</g>
</g>
<!-- Node11&#45;&gt;Node12 -->
<g id="edge14" class="edge">
<title>Node11&#45;&gt;Node12</title>
<path fill="none" stroke="#63b8ff" d="M879.33,-230.75C879.57,-224.27 879.92,-215.16 880.23,-206.9"/>
<polygon fill="#63b8ff" stroke="#63b8ff" points="883.73,-207.08 880.61,-196.95 876.73,-206.82 883.73,-207.08"/>
</g>
<!-- Node12&#45;&gt;Node4 -->
<g id="edge15" class="edge">
<title>Node12&#45;&gt;Node4</title>
<path fill="none" stroke="#63b8ff" d="M877.24,-175.66C869.86,-158.34 853.34,-119.55 843.28,-95.95"/>
<polygon fill="#63b8ff" stroke="#63b8ff" points="846.55,-94.68 839.41,-86.85 840.11,-97.42 846.55,-94.68"/>
</g>
<!-- Node13&#45;&gt;Node14 -->
<g id="edge18" class="edge">
<title>Node13&#45;&gt;Node14</title>
<path fill="none" stroke="#63b8ff" d="M1012.82,-230.75C1014.18,-224.19 1016.1,-214.95 1017.83,-206.6"/>
<polygon fill="#63b8ff" stroke="#63b8ff" points="1021.23,-207.43 1019.84,-196.92 1014.38,-206 1021.23,-207.43"/>
</g>
<!-- Node14&#45;&gt;Node4 -->
<g id="edge19" class="edge">
<title>Node14&#45;&gt;Node4</title>
<path fill="none" stroke="#63b8ff" d="M1013.64,-175.64C1000.66,-162.29 974.39,-136.9 948,-121 925.6,-107.5 898.37,-96.64 876.26,-89.02"/>
<polygon fill="#63b8ff" stroke="#63b8ff" points="877.57,-85.77 866.98,-85.93 875.35,-92.41 877.57,-85.77"/>
</g>
<!-- Node15&#45;&gt;Node3 -->
<g id="edge22" class="edge">
<title>Node15&#45;&gt;Node3</title>
<path fill="none" stroke="#63b8ff" d="M615.1,-285.51C593.44,-277.01 560.69,-264.15 536.18,-254.53"/>
<polygon fill="#63b8ff" stroke="#63b8ff" points="537.56,-251.31 526.97,-250.91 535,-257.82 537.56,-251.31"/>
</g>
<!-- Node15&#45;&gt;Node11 -->
<g id="edge21" class="edge">
<title>Node15&#45;&gt;Node11</title>
<path fill="none" stroke="#63b8ff" d="M678.88,-285.51C719.77,-276.52 782.81,-262.65 827.18,-252.9"/>
<polygon fill="#63b8ff" stroke="#63b8ff" points="827.83,-256.34 836.84,-250.77 826.32,-249.5 827.83,-256.34"/>
</g>
<!-- Node16&#45;&gt;Node3 -->
<g id="edge24" class="edge">
<title>Node16&#45;&gt;Node3</title>
<path fill="none" stroke="#63b8ff" d="M441.17,-340.5C382.89,-331.26 302.41,-316.62 293,-305 287.69,-298.44 287.68,-292.56 293,-286 310.85,-263.97 381.68,-252.41 436.2,-246.65"/>
<polygon fill="#63b8ff" stroke="#63b8ff" points="436.46,-250.14 446.06,-245.66 435.76,-243.18 436.46,-250.14"/>
</g>
<!-- Node17&#45;&gt;Node3 -->
<g id="edge27" class="edge">
<title>Node17&#45;&gt;Node3</title>
<path fill="none" stroke="#63b8ff" d="M728.03,-285.51C681.66,-276.44 609.96,-262.42 560,-252.65"/>
<polygon fill="#63b8ff" stroke="#63b8ff" points="560.72,-249.22 550.23,-250.74 559.37,-256.09 560.72,-249.22"/>
</g>
<!-- Node17&#45;&gt;Node11 -->
<g id="edge26" class="edge">
<title>Node17&#45;&gt;Node11</title>
<path fill="none" stroke="#63b8ff" d="M791.81,-285.51C808.13,-277.27 832.53,-264.96 851.37,-255.45"/>
<polygon fill="#63b8ff" stroke="#63b8ff" points="852.75,-258.67 860.1,-251.04 849.6,-252.42 852.75,-258.67"/>
</g>
<!-- Node18&#45;&gt;Node3 -->
<g id="edge31" class="edge">
<title>Node18&#45;&gt;Node3</title>
<path fill="none" stroke="#63b8ff" d="M169.92,-287.35C238.84,-277.87 360.61,-261.1 436.27,-250.69"/>
<polygon fill="#63b8ff" stroke="#63b8ff" points="436.62,-254.17 446.05,-249.34 435.66,-247.24 436.62,-254.17"/>
</g>
<!-- Node18&#45;&gt;Node4 -->
<g id="edge30" class="edge">
<title>Node18&#45;&gt;Node4</title>
<path fill="none" stroke="#63b8ff" d="M139.61,-285.56C207.51,-257.74 423.02,-171.59 608,-121 667.28,-104.79 736.8,-92.06 783.14,-84.44"/>
<polygon fill="#63b8ff" stroke="#63b8ff" points="783.6,-87.91 792.91,-82.85 782.48,-81 783.6,-87.91"/>
</g>
<!-- Node19&#45;&gt;Node3 -->
<g id="edge34" class="edge">
<title>Node19&#45;&gt;Node3</title>
<path fill="none" stroke="#63b8ff" d="M503,-285.75C503,-279.27 503,-270.16 503,-261.9"/>
<polygon fill="#63b8ff" stroke="#63b8ff" points="506.5,-261.96 503,-251.96 499.5,-261.96 506.5,-261.96"/>
</g>
<!-- Node19&#45;&gt;Node11 -->
<g id="edge33" class="edge">
<title>Node19&#45;&gt;Node11</title>
<path fill="none" stroke="#63b8ff" d="M556.47,-286.96C623.64,-277.5 738.91,-261.25 811.92,-250.96"/>
<polygon fill="#63b8ff" stroke="#63b8ff" points="812.35,-254.43 821.76,-249.57 811.37,-247.5 812.35,-254.43"/>
</g>
<!-- Node20&#45;&gt;Node3 -->
<g id="edge36" class="edge">
<title>Node20&#45;&gt;Node3</title>
<path fill="none" stroke="#63b8ff" d="M845.26,-287.28C842.13,-286.85 839.02,-286.42 836,-286 743.69,-273.29 636.91,-259.12 569.67,-250.25"/>
<polygon fill="#63b8ff" stroke="#63b8ff" points="570.28,-246.8 559.9,-248.97 569.36,-253.74 570.28,-246.8"/>
</g>
<!-- Node20&#45;&gt;Node11 -->
<g id="edge37" class="edge">
<title>Node20&#45;&gt;Node11</title>
<path fill="none" stroke="#63b8ff" d="M893.19,-285.75C891.06,-279.11 888.06,-269.73 885.36,-261.31"/>
<polygon fill="#63b8ff" stroke="#63b8ff" points="888.72,-260.34 882.33,-251.88 882.05,-262.47 888.72,-260.34"/>
</g>
<!-- Node21&#45;&gt;Node22 -->
<g id="edge39" class="edge">
<title>Node21&#45;&gt;Node22</title>
<path fill="none" stroke="#63b8ff" d="M976.43,-340.75C982.58,-333.5 991.51,-322.98 999.13,-314.02"/>
<polygon fill="#63b8ff" stroke="#63b8ff" points="1001.62,-316.48 1005.43,-306.6 996.29,-311.95 1001.62,-316.48"/>
</g>
<!-- Node22&#45;&gt;Node3 -->
<g id="edge40" class="edge">
<title>Node22&#45;&gt;Node3</title>
<path fill="none" stroke="#63b8ff" d="M964.77,-287.24C961.46,-286.8 958.18,-286.39 955,-286 818.47,-269.45 658.16,-254.8 569.86,-247.14"/>
<polygon fill="#63b8ff" stroke="#63b8ff" points="570.18,-243.65 559.91,-246.28 569.57,-250.62 570.18,-243.65"/>
</g>
<!-- Node22&#45;&gt;Node11 -->
<g id="edge41" class="edge">
<title>Node22&#45;&gt;Node11</title>
<path fill="none" stroke="#63b8ff" d="M991.1,-285.51C969.44,-277.01 936.69,-264.15 912.18,-254.53"/>
<polygon fill="#63b8ff" stroke="#63b8ff" points="913.56,-251.31 902.97,-250.91 911,-257.82 913.56,-251.31"/>
</g>
<!-- Node23 -->
<g id="node23" class="node">
<title>Node23</title>
<g id="a_node23"><a xlink:href="mtx_8h.html" target="_top" xlink:title=" ">
<polygon fill="white" stroke="#666666" points="719,-250 627,-250 627,-231 719,-231 719,-250"/>
<text text-anchor="middle" x="673" y="-238" font-family="Helvetica,sans-Serif" font-size="10.00">dolphin/mtx/mtx.h</text>
</a>
</g>
</g>
<!-- Node22&#45;&gt;Node23 -->
<g id="edge42" class="edge">
<title>Node22&#45;&gt;Node23</title>
<path fill="none" stroke="#63b8ff" d="M964.78,-286.85C902.71,-277.2 796.18,-260.65 730.45,-250.43"/>
<polygon fill="#63b8ff" stroke="#63b8ff" points="731.38,-247.03 720.96,-248.95 730.31,-253.95 731.38,-247.03"/>
</g>
<!-- Node23&#45;&gt;Node4 -->
<g id="edge48" class="edge">
<title>Node23&#45;&gt;Node4</title>
<path fill="none" stroke="#63b8ff" d="M652.89,-230.59C630.38,-219.28 598.7,-198.5 612,-176 647.45,-116.04 729.26,-92.06 783.32,-82.57"/>
<polygon fill="#63b8ff" stroke="#63b8ff" points="783.61,-86.07 792.91,-81.01 782.48,-79.16 783.61,-86.07"/>
</g>
<!-- Node24 -->
<g id="node24" class="node">
<title>Node24</title>
<g id="a_node24"><a xlink:href="mtx44_8h.html" target="_top" xlink:title=" ">
<polygon fill="white" stroke="#666666" points="724.5,-195 621.5,-195 621.5,-176 724.5,-176 724.5,-195"/>
<text text-anchor="middle" x="673" y="-183" font-family="Helvetica,sans-Serif" font-size="10.00">dolphin/mtx/mtx44.h</text>
</a>
</g>
</g>
<!-- Node23&#45;&gt;Node24 -->
<g id="edge43" class="edge">
<title>Node23&#45;&gt;Node24</title>
<path fill="none" stroke="#63b8ff" d="M673,-230.75C673,-224.27 673,-215.16 673,-206.9"/>
<polygon fill="#63b8ff" stroke="#63b8ff" points="676.5,-206.96 673,-196.96 669.5,-206.96 676.5,-206.96"/>
</g>
<!-- Node25 -->
<g id="node25" class="node">
<title>Node25</title>
<g id="a_node25"><a xlink:href="quat_8h.html" target="_top" xlink:title=" ">
<polygon fill="white" stroke="#666666" points="837.5,-195 742.5,-195 742.5,-176 837.5,-176 837.5,-195"/>
<text text-anchor="middle" x="790" y="-183" font-family="Helvetica,sans-Serif" font-size="10.00">dolphin/mtx/quat.h</text>
</a>
</g>
</g>
<!-- Node23&#45;&gt;Node25 -->
<g id="edge45" class="edge">
<title>Node23&#45;&gt;Node25</title>
<path fill="none" stroke="#63b8ff" d="M692.85,-230.51C711.28,-222.16 738.98,-209.61 760.09,-200.05"/>
<polygon fill="#63b8ff" stroke="#63b8ff" points="761.4,-203.3 769.07,-195.98 758.51,-196.92 761.4,-203.3"/>
</g>
<!-- Node24&#45;&gt;Node4 -->
<g id="edge44" class="edge">
<title>Node24&#45;&gt;Node4</title>
<path fill="none" stroke="#63b8ff" d="M680.37,-175.75C691.83,-162.54 715.12,-137.34 739,-121 757.76,-108.17 780.81,-97.34 799.62,-89.59"/>
<polygon fill="#63b8ff" stroke="#63b8ff" points="800.75,-92.9 808.73,-85.94 798.15,-86.4 800.75,-92.9"/>
</g>
<!-- Node26 -->
<g id="node26" class="node">
<title>Node26</title>
<g id="a_node26"><a xlink:href="vec_8h.html" target="_top" xlink:title=" ">
<polygon fill="white" stroke="#666666" points="840,-140 748,-140 748,-121 840,-121 840,-140"/>
<text text-anchor="middle" x="794" y="-128" font-family="Helvetica,sans-Serif" font-size="10.00">dolphin/mtx/vec.h</text>
</a>
</g>
</g>
<!-- Node25&#45;&gt;Node26 -->
<g id="edge46" class="edge">
<title>Node25&#45;&gt;Node26</title>
<path fill="none" stroke="#63b8ff" d="M790.66,-175.75C791.15,-169.27 791.84,-160.16 792.46,-151.9"/>
<polygon fill="#63b8ff" stroke="#63b8ff" points="795.95,-152.19 793.21,-141.95 788.97,-151.66 795.95,-152.19"/>
</g>
<!-- Node26&#45;&gt;Node4 -->
<g id="edge47" class="edge">
<title>Node26&#45;&gt;Node4</title>
<path fill="none" stroke="#63b8ff" d="M800.77,-120.75C806.32,-113.58 814.34,-103.2 821.23,-94.3"/>
<polygon fill="#63b8ff" stroke="#63b8ff" points="823.81,-96.69 827.16,-86.64 818.27,-92.41 823.81,-96.69"/>
</g>
<!-- Node27&#45;&gt;Node3 -->
<g id="edge50" class="edge">
<title>Node27&#45;&gt;Node3</title>
<path fill="none" stroke="#63b8ff" d="M390.07,-285.51C411.89,-277.01 444.88,-264.15 469.58,-254.53"/>
<polygon fill="#63b8ff" stroke="#63b8ff" points="470.81,-257.8 478.86,-250.91 468.27,-251.28 470.81,-257.8"/>
</g>
<!-- Node27&#45;&gt;Node23 -->
<g id="edge51" class="edge">
<title>Node27&#45;&gt;Node23</title>
<path fill="none" stroke="#63b8ff" d="M418.91,-285.51C473.47,-276.06 559.06,-261.23 615.6,-251.44"/>
<polygon fill="#63b8ff" stroke="#63b8ff" points="616.1,-254.91 625.36,-249.75 614.91,-248.01 616.1,-254.91"/>
</g>
<!-- Node28&#45;&gt;Node4 -->
<g id="edge54" class="edge">
<title>Node28&#45;&gt;Node4</title>
<path fill="none" stroke="#63b8ff" d="M1048.4,-120.51C1003.82,-111.31 934.55,-97.03 887.1,-87.24"/>
<polygon fill="#63b8ff" stroke="#63b8ff" points="887.82,-83.82 877.32,-85.23 886.4,-90.67 887.82,-83.82"/>
</g>
<!-- Node29&#45;&gt;Node4 -->
<g id="edge56" class="edge">
<title>Node29&#45;&gt;Node4</title>
<path fill="none" stroke="#63b8ff" d="M1176.38,-122.07C1099.45,-111.8 961.62,-93.4 886.78,-83.41"/>
<polygon fill="#63b8ff" stroke="#63b8ff" points="887.64,-80 877.27,-82.14 886.72,-86.94 887.64,-80"/>
</g>
<!-- Node30&#45;&gt;Node4 -->
<g id="edge58" class="edge">
<title>Node30&#45;&gt;Node4</title>
<path fill="none" stroke="#63b8ff" d="M1308.35,-122.45C1304.17,-121.94 1300.02,-121.45 1296,-121 1147.95,-104.33 972.72,-88.48 887.2,-80.99"/>
<polygon fill="#63b8ff" stroke="#63b8ff" points="887.52,-77.51 877.25,-80.13 886.91,-84.48 887.52,-77.51"/>
</g>
</g>
</svg>
