<?xml version="1.0" encoding="UTF-8" standalone="no"?>
<!DOCTYPE svg PUBLIC "-//W3C//DTD SVG 1.1//EN"
 "http://www.w3.org/Graphics/SVG/1.1/DTD/svg11.dtd">
<!-- Generated by graphviz version 7.0.5 (20221223.1930)
 -->
<!-- Title: include/dolphin/gx/GXTransform.h Pages: 1 -->
<svg width="391pt" height="324pt"
 viewBox="0.00 0.00 390.50 324.00" xmlns="http://www.w3.org/2000/svg" xmlns:xlink="http://www.w3.org/1999/xlink">
<g id="graph0" class="graph" transform="scale(1 1) rotate(0) translate(4 320)">
<title>include/dolphin/gx/GXTransform.h</title>
<!-- Node1 -->
<g id="node1" class="node">
<title>Node1</title>
<g id="a_node1"><a xlink:title=" ">
<polygon fill="#999999" stroke="#666666" points="162,-316 68,-316 68,-286 162,-286 162,-316"/>
<text text-anchor="start" x="76" y="-304" font-family="Helvetica,sans-Serif" font-size="10.00">include/dolphin/gx</text>
<text text-anchor="middle" x="115" y="-293" font-family="Helvetica,sans-Serif" font-size="10.00">/GXTransform.h</text>
</a>
</g>
</g>
<!-- Node2 -->
<g id="node2" class="node">
<title>Node2</title>
<g id="a_node2"><a xlink:href="GXEnum_8h.html" target="_top" xlink:title=" ">
<polygon fill="white" stroke="#666666" points="110,-140 0,-140 0,-121 110,-121 110,-140"/>
<text text-anchor="middle" x="55" y="-128" font-family="Helvetica,sans-Serif" font-size="10.00">dolphin/gx/GXEnum.h</text>
</a>
</g>
</g>
<!-- Node1&#45;&gt;Node2 -->
<g id="edge1" class="edge">
<title>Node1&#45;&gt;Node2</title>
<path fill="none" stroke="#63b8ff" d="M109.88,-285.63C99.09,-255.31 73.96,-184.74 61.81,-150.63"/>
<polygon fill="#63b8ff" stroke="#63b8ff" points="65.26,-149.89 58.61,-141.64 58.67,-152.24 65.26,-149.89"/>
</g>
<!-- Node5 -->
<g id="node5" class="node">
<title>Node5</title>
<g id="a_node5"><a xlink:href="mtx_8h.html" target="_top" xlink:title=" ">
<polygon fill="white" stroke="#666666" points="220,-250 128,-250 128,-231 220,-231 220,-250"/>
<text text-anchor="middle" x="174" y="-238" font-family="Helvetica,sans-Serif" font-size="10.00">dolphin/mtx/mtx.h</text>
</a>
</g>
</g>
<!-- Node1&#45;&gt;Node5 -->
<g id="edge4" class="edge">
<title>Node1&#45;&gt;Node5</title>
<path fill="none" stroke="#63b8ff" d="M129.58,-285.54C137.98,-277.22 148.56,-266.72 157.29,-258.07"/>
<polygon fill="#63b8ff" stroke="#63b8ff" points="159.54,-260.77 164.18,-251.24 154.61,-255.8 159.54,-260.77"/>
</g>
<!-- Node3 -->
<g id="node3" class="node">
<title>Node3</title>
<g id="a_node3"><a xlink:href="types_8h.html" target="_top" xlink:title=" ">
<polygon fill="white" stroke="#666666" points="218.5,-85 137.5,-85 137.5,-66 218.5,-66 218.5,-85"/>
<text text-anchor="middle" x="178" y="-73" font-family="Helvetica,sans-Serif" font-size="10.00">dolphin/types.h</text>
</a>
</g>
</g>
<!-- Node2&#45;&gt;Node3 -->
<g id="edge2" class="edge">
<title>Node2&#45;&gt;Node3</title>
<path fill="none" stroke="#63b8ff" d="M75.87,-120.51C95.42,-112.08 124.9,-99.38 147.17,-89.79"/>
<polygon fill="#63b8ff" stroke="#63b8ff" points="148.25,-93.13 156.05,-85.96 145.48,-86.7 148.25,-93.13"/>
</g>
<!-- Node4 -->
<g id="node4" class="node">
<title>Node4</title>
<g id="a_node4"><a xlink:href="stddef_8h.html" target="_top" xlink:title=" ">
<polygon fill="white" stroke="#666666" points="246,-30 110,-30 110,0 246,0 246,-30"/>
<text text-anchor="start" x="118" y="-18" font-family="Helvetica,sans-Serif" font-size="10.00">MSL_C/MSL_Common/Src</text>
<text text-anchor="middle" x="178" y="-7" font-family="Helvetica,sans-Serif" font-size="10.00">/stddef.h</text>
</a>
</g>
</g>
<!-- Node3&#45;&gt;Node4 -->
<g id="edge3" class="edge">
<title>Node3&#45;&gt;Node4</title>
<path fill="none" stroke="#63b8ff" d="M178,-65.87C178,-59.4 178,-50.2 178,-41.45"/>
<polygon fill="#63b8ff" stroke="#63b8ff" points="181.5,-41.63 178,-31.63 174.5,-41.63 181.5,-41.63"/>
</g>
<!-- Node5&#45;&gt;Node3 -->
<g id="edge10" class="edge">
<title>Node5&#45;&gt;Node3</title>
<path fill="none" stroke="#63b8ff" d="M169.48,-230.58C165.29,-221.79 159.37,-207.85 157,-195 150.58,-160.18 161.86,-119.53 170.22,-96.03"/>
<polygon fill="#63b8ff" stroke="#63b8ff" points="173.43,-97.44 173.68,-86.84 166.88,-94.97 173.43,-97.44"/>
</g>
<!-- Node6 -->
<g id="node6" class="node">
<title>Node6</title>
<g id="a_node6"><a xlink:href="mtx44_8h.html" target="_top" xlink:title=" ">
<polygon fill="white" stroke="#666666" points="269.5,-195 166.5,-195 166.5,-176 269.5,-176 269.5,-195"/>
<text text-anchor="middle" x="218" y="-183" font-family="Helvetica,sans-Serif" font-size="10.00">dolphin/mtx/mtx44.h</text>
</a>
</g>
</g>
<!-- Node5&#45;&gt;Node6 -->
<g id="edge5" class="edge">
<title>Node5&#45;&gt;Node6</title>
<path fill="none" stroke="#63b8ff" d="M181.27,-230.75C187.28,-223.5 196.01,-212.98 203.46,-204.02"/>
<polygon fill="#63b8ff" stroke="#63b8ff" points="205.92,-206.54 209.61,-196.61 200.53,-202.07 205.92,-206.54"/>
</g>
<!-- Node7 -->
<g id="node7" class="node">
<title>Node7</title>
<g id="a_node7"><a xlink:href="quat_8h.html" target="_top" xlink:title=" ">
<polygon fill="white" stroke="#666666" points="382.5,-195 287.5,-195 287.5,-176 382.5,-176 382.5,-195"/>
<text text-anchor="middle" x="335" y="-183" font-family="Helvetica,sans-Serif" font-size="10.00">dolphin/mtx/quat.h</text>
</a>
</g>
</g>
<!-- Node5&#45;&gt;Node7 -->
<g id="edge7" class="edge">
<title>Node5&#45;&gt;Node7</title>
<path fill="none" stroke="#63b8ff" d="M201.31,-230.51C227.64,-221.84 267.72,-208.65 297.13,-198.97"/>
<polygon fill="#63b8ff" stroke="#63b8ff" points="297.98,-202.37 306.39,-195.92 295.79,-195.72 297.98,-202.37"/>
</g>
<!-- Node6&#45;&gt;Node3 -->
<g id="edge6" class="edge">
<title>Node6&#45;&gt;Node3</title>
<path fill="none" stroke="#63b8ff" d="M214.73,-175.66C208.31,-158.34 193.94,-119.55 185.2,-95.95"/>
<polygon fill="#63b8ff" stroke="#63b8ff" points="188.6,-95.04 181.84,-86.88 182.04,-97.47 188.6,-95.04"/>
</g>
<!-- Node8 -->
<g id="node8" class="node">
<title>Node8</title>
<g id="a_node8"><a xlink:href="vec_8h.html" target="_top" xlink:title=" ">
<polygon fill="white" stroke="#666666" points="339,-140 247,-140 247,-121 339,-121 339,-140"/>
<text text-anchor="middle" x="293" y="-128" font-family="Helvetica,sans-Serif" font-size="10.00">dolphin/mtx/vec.h</text>
</a>
</g>
</g>
<!-- Node7&#45;&gt;Node8 -->
<g id="edge8" class="edge">
<title>Node7&#45;&gt;Node8</title>
<path fill="none" stroke="#63b8ff" d="M328.06,-175.75C322.38,-168.58 314.16,-158.2 307.11,-149.3"/>
<polygon fill="#63b8ff" stroke="#63b8ff" points="309.98,-147.29 301.03,-141.63 304.49,-151.64 309.98,-147.29"/>
</g>
<!-- Node8&#45;&gt;Node3 -->
<g id="edge9" class="edge">
<title>Node8&#45;&gt;Node3</title>
<path fill="none" stroke="#63b8ff" d="M273.49,-120.51C255.37,-112.16 228.15,-99.61 207.4,-90.05"/>
<polygon fill="#63b8ff" stroke="#63b8ff" points="209.14,-87 198.59,-85.99 206.21,-93.36 209.14,-87"/>
</g>
</g>
</svg>
