<?xml version="1.0" encoding="UTF-8" standalone="no"?>
<!DOCTYPE svg PUBLIC "-//W3C//DTD SVG 1.1//EN"
 "http://www.w3.org/Graphics/SVG/1.1/DTD/svg11.dtd">
<!-- Generated by graphviz version 7.0.5 (20221223.1930)
 -->
<!-- Title: Graphical Class Hierarchy Pages: 1 -->
<svg width="212pt" height="64pt"
 viewBox="0.00 0.00 212.00 64.00" xmlns="http://www.w3.org/2000/svg" xmlns:xlink="http://www.w3.org/1999/xlink">
<g id="graph0" class="graph" transform="scale(1 1) rotate(0) translate(4 60)">
<title>Graphical Class Hierarchy</title>
<!-- Node0 -->
<g id="node1" class="node">
<title>Node0</title>
<g id="a_node1"><a xlink:href="structdStage__dt__c.html" target="_top" xlink:title=" ">
<polygon fill="white" stroke="#666666" points="71,-37 0,-37 0,-18 71,-18 71,-37"/>
<text text-anchor="middle" x="35.5" y="-25" font-family="Helvetica,sans-Serif" font-size="10.00">dStage_dt_c</text>
</a>
</g>
</g>
<!-- Node1 -->
<g id="node2" class="node">
<title>Node1</title>
<g id="a_node2"><a xlink:href="classdStage__roomDt__c.html" target="_top" xlink:title=" ">
<polygon fill="white" stroke="#666666" points="203,-56 108,-56 108,-37 203,-37 203,-56"/>
<text text-anchor="middle" x="155.5" y="-44" font-family="Helvetica,sans-Serif" font-size="10.00">dStage_roomDt_c</text>
</a>
</g>
</g>
<!-- Node0&#45;&gt;Node1 -->
<g id="edge1" class="edge">
<title>Node0&#45;&gt;Node1</title>
<path fill="none" stroke="#63b8ff" d="M82.62,-34.93C90.87,-36.25 99.47,-37.64 107.74,-38.97"/>
<polygon fill="#63b8ff" stroke="#63b8ff" points="83.19,-31.47 72.76,-33.34 82.08,-38.38 83.19,-31.47"/>
</g>
<!-- Node2 -->
<g id="node3" class="node">
<title>Node2</title>
<g id="a_node3"><a xlink:href="classdStage__stageDt__c.html" target="_top" xlink:title=" ">
<polygon fill="white" stroke="#666666" points="204,-19 107,-19 107,0 204,0 204,-19"/>
<text text-anchor="middle" x="155.5" y="-7" font-family="Helvetica,sans-Serif" font-size="10.00">dStage_stageDt_c</text>
</a>
</g>
</g>
<!-- Node0&#45;&gt;Node2 -->
<g id="edge2" class="edge">
<title>Node0&#45;&gt;Node2</title>
<path fill="none" stroke="#63b8ff" d="M82.62,-20.46C90.58,-19.25 98.87,-17.99 106.87,-16.77"/>
<polygon fill="#63b8ff" stroke="#63b8ff" points="82.12,-17 72.76,-21.97 83.18,-23.92 82.12,-17"/>
</g>
</g>
</svg>
