<?xml version="1.0" encoding="UTF-8" standalone="no"?>
<!DOCTYPE svg PUBLIC "-//W3C//DTD SVG 1.1//EN"
 "http://www.w3.org/Graphics/SVG/1.1/DTD/svg11.dtd">
<!-- Generated by graphviz version 7.0.5 (20221223.1930)
 -->
<!-- Title: Graphical Class Hierarchy Pages: 1 -->
<svg width="202pt" height="64pt"
 viewBox="0.00 0.00 202.00 64.00" xmlns="http://www.w3.org/2000/svg" xmlns:xlink="http://www.w3.org/1999/xlink">
<g id="graph0" class="graph" transform="scale(1 1) rotate(0) translate(4 60)">
<title>Graphical Class Hierarchy</title>
<!-- Node0 -->
<g id="node1" class="node">
<title>Node0</title>
<g id="a_node1"><a xlink:href="classJKRFileFinder.html" target="_top" xlink:title=" ">
<polygon fill="white" stroke="#666666" points="78,-37 0,-37 0,-18 78,-18 78,-37"/>
<text text-anchor="middle" x="39" y="-25" font-family="Helvetica,sans-Serif" font-size="10.00">JKRFileFinder</text>
</a>
</g>
</g>
<!-- Node1 -->
<g id="node2" class="node">
<title>Node1</title>
<g id="a_node2"><a xlink:href="classJKRArcFinder.html" target="_top" xlink:title=" ">
<polygon fill="white" stroke="#666666" points="192.5,-56 115.5,-56 115.5,-37 192.5,-37 192.5,-56"/>
<text text-anchor="middle" x="154" y="-44" font-family="Helvetica,sans-Serif" font-size="10.00">JKRArcFinder</text>
</a>
</g>
</g>
<!-- Node0&#45;&gt;Node1 -->
<g id="edge1" class="edge">
<title>Node0&#45;&gt;Node1</title>
<path fill="none" stroke="#63b8ff" d="M89.41,-35.81C98.05,-37.26 106.91,-38.75 115.17,-40.14"/>
<polygon fill="#63b8ff" stroke="#63b8ff" points="90.19,-32.39 79.75,-34.18 89.03,-39.29 90.19,-32.39"/>
</g>
<!-- Node2 -->
<g id="node3" class="node">
<title>Node2</title>
<g id="a_node3"><a xlink:href="classJKRDvdFinder.html" target="_top" xlink:title=" ">
<polygon fill="white" stroke="#666666" points="194,-19 114,-19 114,0 194,0 194,-19"/>
<text text-anchor="middle" x="154" y="-7" font-family="Helvetica,sans-Serif" font-size="10.00">JKRDvdFinder</text>
</a>
</g>
</g>
<!-- Node0&#45;&gt;Node2 -->
<g id="edge2" class="edge">
<title>Node0&#45;&gt;Node2</title>
<path fill="none" stroke="#63b8ff" d="M89.48,-19.62C97.56,-18.33 105.83,-17.01 113.63,-15.77"/>
<polygon fill="#63b8ff" stroke="#63b8ff" points="89.08,-16.14 79.75,-21.17 90.18,-23.05 89.08,-16.14"/>
</g>
</g>
</svg>
