<?xml version="1.0" encoding="UTF-8" standalone="no"?>
<!DOCTYPE svg PUBLIC "-//W3C//DTD SVG 1.1//EN"
 "http://www.w3.org/Graphics/SVG/1.1/DTD/svg11.dtd">
<!-- Generated by graphviz version 7.0.5 (20221223.1930)
 -->
<!-- Title: Graphical Class Hierarchy Pages: 1 -->
<svg width="211pt" height="101pt"
 viewBox="0.00 0.00 211.00 101.00" xmlns="http://www.w3.org/2000/svg" xmlns:xlink="http://www.w3.org/1999/xlink">
<g id="graph0" class="graph" transform="scale(1 1) rotate(0) translate(4 97)">
<title>Graphical Class Hierarchy</title>
<!-- Node0 -->
<g id="node1" class="node">
<title>Node0</title>
<g id="a_node1"><a xlink:title=" ">
<polygon fill="#e0e0e0" stroke="#999999" points="29,-56 0,-56 0,-37 29,-37 29,-56"/>
<text text-anchor="middle" x="14.5" y="-44" font-family="Helvetica,sans-Serif" font-size="10.00">T</text>
</a>
</g>
</g>
<!-- Node1 -->
<g id="node2" class="node">
<title>Node1</title>
<g id="a_node2"><a xlink:href="structJGeometry_1_1TMatrix34.html" target="_top" xlink:title=" ">
<polygon fill="white" stroke="#666666" points="201,-93 67,-93 67,-74 201,-74 201,-93"/>
<text text-anchor="middle" x="134" y="-81" font-family="Helvetica,sans-Serif" font-size="10.00">JGeometry::TMatrix34&lt; T &gt;</text>
</a>
</g>
</g>
<!-- Node0&#45;&gt;Node1 -->
<g id="edge1" class="edge">
<title>Node0&#45;&gt;Node1</title>
<path fill="none" stroke="#63b8ff" d="M39.7,-56.39C47.69,-59.49 56.67,-62.81 65,-65.5 73.83,-68.35 83.41,-71.1 92.52,-73.55"/>
<polygon fill="#63b8ff" stroke="#63b8ff" points="41.22,-53.22 30.63,-52.79 38.63,-59.73 41.22,-53.22"/>
</g>
<!-- Node2 -->
<g id="node3" class="node">
<title>Node2</title>
<g id="a_node3"><a xlink:href="structJGeometry_1_1TPosition3.html" target="_top" xlink:title=" ">
<polygon fill="white" stroke="#666666" points="202.5,-56 65.5,-56 65.5,-37 202.5,-37 202.5,-56"/>
<text text-anchor="middle" x="134" y="-44" font-family="Helvetica,sans-Serif" font-size="10.00">JGeometry::TPosition3&lt; T &gt;</text>
</a>
</g>
</g>
<!-- Node0&#45;&gt;Node2 -->
<g id="edge2" class="edge">
<title>Node0&#45;&gt;Node2</title>
<path fill="none" stroke="#63b8ff" d="M40.94,-46.5C48.23,-46.5 56.54,-46.5 65.11,-46.5"/>
<polygon fill="#63b8ff" stroke="#63b8ff" points="40.95,-43 30.95,-46.5 40.95,-50 40.95,-43"/>
</g>
<!-- Node3 -->
<g id="node4" class="node">
<title>Node3</title>
<g id="a_node4"><a xlink:href="structJGeometry_1_1TRotation3.html" target="_top" xlink:title=" ">
<polygon fill="white" stroke="#666666" points="203,-19 65,-19 65,0 203,0 203,-19"/>
<text text-anchor="middle" x="134" y="-7" font-family="Helvetica,sans-Serif" font-size="10.00">JGeometry::TRotation3&lt; T &gt;</text>
</a>
</g>
</g>
<!-- Node0&#45;&gt;Node3 -->
<g id="edge3" class="edge">
<title>Node0&#45;&gt;Node3</title>
<path fill="none" stroke="#63b8ff" d="M40.03,-37.16C47.96,-34.26 56.81,-31.13 65,-28.5 74.8,-25.35 85.5,-22.23 95.44,-19.44"/>
<polygon fill="#63b8ff" stroke="#63b8ff" points="38.84,-33.87 30.69,-40.64 41.28,-40.43 38.84,-33.87"/>
</g>
</g>
</svg>
