<?xml version="1.0" encoding="UTF-8" standalone="no"?>
<!DOCTYPE svg PUBLIC "-//W3C//DTD SVG 1.1//EN"
 "http://www.w3.org/Graphics/SVG/1.1/DTD/svg11.dtd">
<!-- Generated by graphviz version 7.0.5 (20221223.1930)
 -->
<!-- Title: Graphical Class Hierarchy Pages: 1 -->
<svg width="205pt" height="64pt"
 viewBox="0.00 0.00 205.00 64.00" xmlns="http://www.w3.org/2000/svg" xmlns:xlink="http://www.w3.org/1999/xlink">
<g id="graph0" class="graph" transform="scale(1 1) rotate(0) translate(4 60)">
<title>Graphical Class Hierarchy</title>
<!-- Node0 -->
<g id="node1" class="node">
<title>Node0</title>
<g id="a_node1"><a xlink:href="classJ3DIndBlock.html" target="_top" xlink:title=" ">
<polygon fill="white" stroke="#666666" points="72,-37 0,-37 0,-18 72,-18 72,-37"/>
<text text-anchor="middle" x="36" y="-25" font-family="Helvetica,sans-Serif" font-size="10.00">J3DIndBlock</text>
</a>
</g>
</g>
<!-- Node1 -->
<g id="node2" class="node">
<title>Node1</title>
<g id="a_node2"><a xlink:href="classJ3DIndBlockFull.html" target="_top" xlink:title=" ">
<polygon fill="white" stroke="#666666" points="196.5,-56 108.5,-56 108.5,-37 196.5,-37 196.5,-56"/>
<text text-anchor="middle" x="152.5" y="-44" font-family="Helvetica,sans-Serif" font-size="10.00">J3DIndBlockFull</text>
</a>
</g>
</g>
<!-- Node0&#45;&gt;Node1 -->
<g id="edge1" class="edge">
<title>Node0&#45;&gt;Node1</title>
<path fill="none" stroke="#63b8ff" d="M83.49,-35.21C91.61,-36.56 100.02,-37.96 108.05,-39.29"/>
<polygon fill="#63b8ff" stroke="#63b8ff" points="84.22,-31.79 73.78,-33.6 83.07,-38.69 84.22,-31.79"/>
</g>
<!-- Node2 -->
<g id="node3" class="node">
<title>Node2</title>
<g id="a_node3"><a xlink:href="classJ3DIndBlockNull.html" target="_top" xlink:title=" ">
<polygon fill="white" stroke="#666666" points="197,-19 108,-19 108,0 197,0 197,-19"/>
<text text-anchor="middle" x="152.5" y="-7" font-family="Helvetica,sans-Serif" font-size="10.00">J3DIndBlockNull</text>
</a>
</g>
</g>
<!-- Node0&#45;&gt;Node2 -->
<g id="edge2" class="edge">
<title>Node0&#45;&gt;Node2</title>
<path fill="none" stroke="#63b8ff" d="M83.63,-20.17C91.57,-18.92 99.78,-17.63 107.64,-16.4"/>
<polygon fill="#63b8ff" stroke="#63b8ff" points="83.12,-16.71 73.78,-21.72 84.21,-23.62 83.12,-16.71"/>
</g>
</g>
</svg>
