<?xml version="1.0" encoding="UTF-8" standalone="no"?>
<!DOCTYPE svg PUBLIC "-//W3C//DTD SVG 1.1//EN"
 "http://www.w3.org/Graphics/SVG/1.1/DTD/svg11.dtd">
<!-- Generated by graphviz version 7.0.5 (20221223.1930)
 -->
<!-- Title: Graphical Class Hierarchy Pages: 1 -->
<svg width="451pt" height="187pt"
 viewBox="0.00 0.00 451.00 186.50" xmlns="http://www.w3.org/2000/svg" xmlns:xlink="http://www.w3.org/1999/xlink">
<g id="graph0" class="graph" transform="scale(1 1) rotate(0) translate(4 182.5)">
<title>Graphical Class Hierarchy</title>
<!-- Node0 -->
<g id="node1" class="node">
<title>Node0</title>
<g id="a_node1"><a xlink:href="structJAIStreamDataMgr.html" target="_top" xlink:title=" ">
<polygon fill="white" stroke="#666666" points="246.5,-141.5 146.5,-141.5 146.5,-122.5 246.5,-122.5 246.5,-141.5"/>
<text text-anchor="middle" x="196.5" y="-129.5" font-family="Helvetica,sans-Serif" font-size="10.00">JAIStreamDataMgr</text>
</a>
</g>
</g>
<!-- Node1 -->
<g id="node2" class="node">
<title>Node1</title>
<g id="a_node2"><a xlink:href="structJAUStreamDataMgr__StreamFileTable.html" target="_top" xlink:title=" ">
<polygon fill="white" stroke="#666666" points="443,-157 286,-157 286,-127 443,-127 443,-157"/>
<text text-anchor="start" x="294" y="-145" font-family="Helvetica,sans-Serif" font-size="10.00">JAUStreamDataMgr_StreamFile</text>
<text text-anchor="middle" x="364.5" y="-134" font-family="Helvetica,sans-Serif" font-size="10.00">Table</text>
</a>
</g>
</g>
<!-- Node0&#45;&gt;Node1 -->
<g id="edge1" class="edge">
<title>Node0&#45;&gt;Node1</title>
<path fill="none" stroke="#63b8ff" d="M258.33,-135.66C267.24,-136.2 276.53,-136.76 285.72,-137.31"/>
<polygon fill="#63b8ff" stroke="#63b8ff" points="258.56,-132.17 248.37,-135.06 258.14,-139.16 258.56,-132.17"/>
</g>
<!-- Node3 -->
<g id="node3" class="node">
<title>Node3</title>
<g id="a_node3"><a xlink:href="structZ2SoundInfo.html" target="_top" xlink:title=" ">
<polygon fill="white" stroke="#666666" points="400.5,-93.5 328.5,-93.5 328.5,-74.5 400.5,-74.5 400.5,-93.5"/>
<text text-anchor="middle" x="364.5" y="-81.5" font-family="Helvetica,sans-Serif" font-size="10.00">Z2SoundInfo</text>
</a>
</g>
</g>
<!-- Node0&#45;&gt;Node3 -->
<g id="edge2" class="edge">
<title>Node0&#45;&gt;Node3</title>
<path fill="none" stroke="#63b8ff" d="M242.72,-118.92C269.97,-111.05 304.12,-101.17 329.15,-93.93"/>
<polygon fill="#63b8ff" stroke="#63b8ff" points="241.98,-115.49 233.35,-121.63 243.93,-122.22 241.98,-115.49"/>
</g>
<!-- Node5 -->
<g id="node4" class="node">
<title>Node5</title>
<g id="a_node4"><a xlink:href="classJASGlobalInstance.html" target="_top" xlink:title=" ">
<polygon fill="white" stroke="#666666" points="107,-115 0,-115 0,-85 107,-85 107,-115"/>
<text text-anchor="start" x="8" y="-103" font-family="Helvetica,sans-Serif" font-size="10.00">JASGlobalInstance&lt;</text>
<text text-anchor="middle" x="53.5" y="-92" font-family="Helvetica,sans-Serif" font-size="10.00"> JAISoundInfo &gt;</text>
</a>
</g>
</g>
<!-- Node4 -->
<g id="node5" class="node">
<title>Node4</title>
<g id="a_node5"><a xlink:href="structJAISoundInfo.html" target="_top" xlink:title=" ">
<polygon fill="white" stroke="#666666" points="234.5,-104.5 158.5,-104.5 158.5,-85.5 234.5,-85.5 234.5,-104.5"/>
<text text-anchor="middle" x="196.5" y="-92.5" font-family="Helvetica,sans-Serif" font-size="10.00">JAISoundInfo</text>
</a>
</g>
</g>
<!-- Node5&#45;&gt;Node4 -->
<g id="edge3" class="edge">
<title>Node5&#45;&gt;Node4</title>
<path fill="none" stroke="#63b8ff" d="M118.64,-97.73C132.16,-97.25 146,-96.76 158.14,-96.32"/>
<polygon fill="#63b8ff" stroke="#63b8ff" points="118.79,-94.22 108.92,-98.07 119.03,-101.21 118.79,-94.22"/>
</g>
<!-- Node4&#45;&gt;Node3 -->
<g id="edge4" class="edge">
<title>Node4&#45;&gt;Node3</title>
<path fill="none" stroke="#63b8ff" d="M246,-91.79C272.28,-90.04 304.16,-87.93 328.08,-86.35"/>
<polygon fill="#63b8ff" stroke="#63b8ff" points="246.01,-88.28 236.26,-92.43 246.47,-95.26 246.01,-88.28"/>
</g>
<!-- Node7 -->
<g id="node6" class="node">
<title>Node7</title>
<g id="a_node6"><a xlink:href="classJASGlobalInstance.html" target="_top" xlink:title=" ">
<polygon fill="white" stroke="#666666" points="107,-67 0,-67 0,-37 107,-37 107,-67"/>
<text text-anchor="start" x="8" y="-55" font-family="Helvetica,sans-Serif" font-size="10.00">JASGlobalInstance&lt;</text>
<text text-anchor="middle" x="53.5" y="-44" font-family="Helvetica,sans-Serif" font-size="10.00"> JAUSoundInfo &gt;</text>
</a>
</g>
</g>
<!-- Node6 -->
<g id="node7" class="node">
<title>Node6</title>
<g id="a_node7"><a xlink:href="classJAUSoundInfo.html" target="_top" xlink:title=" ">
<polygon fill="white" stroke="#666666" points="236.5,-67.5 156.5,-67.5 156.5,-48.5 236.5,-48.5 236.5,-67.5"/>
<text text-anchor="middle" x="196.5" y="-55.5" font-family="Helvetica,sans-Serif" font-size="10.00">JAUSoundInfo</text>
</a>
</g>
</g>
<!-- Node7&#45;&gt;Node6 -->
<g id="edge5" class="edge">
<title>Node7&#45;&gt;Node6</title>
<path fill="none" stroke="#63b8ff" d="M118.61,-54.73C131.5,-55.28 144.68,-55.84 156.4,-56.34"/>
<polygon fill="#63b8ff" stroke="#63b8ff" points="119.06,-51.24 108.92,-54.32 118.76,-58.24 119.06,-51.24"/>
</g>
<!-- Node6&#45;&gt;Node3 -->
<g id="edge6" class="edge">
<title>Node6&#45;&gt;Node3</title>
<path fill="none" stroke="#63b8ff" d="M247.97,-65.9C273.86,-69.96 304.78,-74.8 328.12,-78.46"/>
<polygon fill="#63b8ff" stroke="#63b8ff" points="248.76,-62.49 238.33,-64.4 247.67,-69.4 248.76,-62.49"/>
</g>
<!-- Node8 -->
<g id="node8" class="node">
<title>Node8</title>
<g id="a_node8"><a xlink:href="classJASGlobalInstance.html" target="_top" xlink:title=" ">
<polygon fill="white" stroke="#666666" points="250,-30 143,-30 143,0 250,0 250,-30"/>
<text text-anchor="start" x="151" y="-18" font-family="Helvetica,sans-Serif" font-size="10.00">JASGlobalInstance&lt;</text>
<text text-anchor="middle" x="196.5" y="-7" font-family="Helvetica,sans-Serif" font-size="10.00"> Z2SoundInfo &gt;</text>
</a>
</g>
</g>
<!-- Node8&#45;&gt;Node3 -->
<g id="edge7" class="edge">
<title>Node8&#45;&gt;Node3</title>
<path fill="none" stroke="#63b8ff" d="M245.32,-34.88C276.25,-47.73 315.17,-63.91 339.71,-74.11"/>
<polygon fill="#63b8ff" stroke="#63b8ff" points="246.73,-31.67 236.15,-31.07 244.04,-38.14 246.73,-31.67"/>
</g>
<!-- Node2 -->
<g id="node9" class="node">
<title>Node2</title>
<g id="a_node9"><a xlink:href="structJAUStreamFileTable.html" target="_top" xlink:title=" ">
<polygon fill="white" stroke="#666666" points="250,-178.5 143,-178.5 143,-159.5 250,-159.5 250,-178.5"/>
<text text-anchor="middle" x="196.5" y="-166.5" font-family="Helvetica,sans-Serif" font-size="10.00">JAUStreamFileTable</text>
</a>
</g>
</g>
<!-- Node2&#45;&gt;Node1 -->
<g id="edge8" class="edge">
<title>Node2&#45;&gt;Node1</title>
<path fill="none" stroke="#63b8ff" d="M261.74,-158.55C269.56,-157.28 277.62,-155.97 285.61,-154.67"/>
<polygon fill="#63b8ff" stroke="#63b8ff" points="261.28,-155.08 251.97,-160.14 262.41,-161.99 261.28,-155.08"/>
</g>
</g>
</svg>
