<?xml version="1.0" encoding="UTF-8" standalone="no"?>
<!DOCTYPE svg PUBLIC "-//W3C//DTD SVG 1.1//EN"
 "http://www.w3.org/Graphics/SVG/1.1/DTD/svg11.dtd">
<!-- Generated by graphviz version 7.0.5 (20221223.1930)
 -->
<!-- Title: Graphical Class Hierarchy Pages: 1 -->
<svg width="263pt" height="619pt"
 viewBox="0.00 0.00 263.00 619.00" xmlns="http://www.w3.org/2000/svg" xmlns:xlink="http://www.w3.org/1999/xlink">
<g id="graph0" class="graph" transform="scale(1 1) rotate(0) translate(4 615)">
<title>Graphical Class Hierarchy</title>
<!-- Node0 -->
<g id="node1" class="node">
<title>Node0</title>
<g id="a_node1"><a xlink:href="structmDoHIO__entry__c.html" target="_top" xlink:title=" ">
<polygon fill="white" stroke="#666666" points="92,-315 0,-315 0,-296 92,-296 92,-315"/>
<text text-anchor="middle" x="46" y="-303" font-family="Helvetica,sans-Serif" font-size="10.00">mDoHIO_entry_c</text>
</a>
</g>
</g>
<!-- Node1 -->
<g id="node2" class="node">
<title>Node1</title>
<g id="a_node2"><a xlink:href="classdGov__HIO__c.html" target="_top" xlink:title=" ">
<polygon fill="white" stroke="#666666" points="228.5,-611 154.5,-611 154.5,-592 228.5,-592 228.5,-611"/>
<text text-anchor="middle" x="191.5" y="-599" font-family="Helvetica,sans-Serif" font-size="10.00">dGov_HIO_c</text>
</a>
</g>
</g>
<!-- Node0&#45;&gt;Node1 -->
<g id="edge1" class="edge">
<title>Node0&#45;&gt;Node1</title>
<path fill="none" stroke="#63b8ff" d="M46.68,-326.49C47.08,-377.9 55.47,-511.19 128,-583.5 135.04,-590.52 144.62,-594.83 154.17,-597.48"/>
<polygon fill="#63b8ff" stroke="#63b8ff" points="50.18,-326.79 46.71,-316.78 43.18,-326.77 50.18,-326.79"/>
</g>
<!-- Node2 -->
<g id="node3" class="node">
<title>Node2</title>
<g id="a_node3"><a xlink:href="classdScnPly__preLoad__HIO__c.html" target="_top" xlink:title=" ">
<polygon fill="white" stroke="#666666" points="255,-574 128,-574 128,-555 255,-555 255,-574"/>
<text text-anchor="middle" x="191.5" y="-562" font-family="Helvetica,sans-Serif" font-size="10.00">dScnPly_preLoad_HIO_c</text>
</a>
</g>
</g>
<!-- Node0&#45;&gt;Node2 -->
<g id="edge2" class="edge">
<title>Node0&#45;&gt;Node2</title>
<path fill="none" stroke="#63b8ff" d="M47.81,-326.8C50.76,-373.53 64.46,-485.68 128,-546.5 131.34,-549.7 135.22,-552.34 139.37,-554.51"/>
<polygon fill="#63b8ff" stroke="#63b8ff" points="51.31,-326.78 47.31,-316.97 44.32,-327.13 51.31,-326.78"/>
</g>
<!-- Node3 -->
<g id="node4" class="node">
<title>Node3</title>
<g id="a_node4"><a xlink:href="classdaBarDesk__HIO__c.html" target="_top" xlink:title=" ">
<polygon fill="white" stroke="#666666" points="240.5,-537 142.5,-537 142.5,-518 240.5,-518 240.5,-537"/>
<text text-anchor="middle" x="191.5" y="-525" font-family="Helvetica,sans-Serif" font-size="10.00">daBarDesk_HIO_c</text>
</a>
</g>
</g>
<!-- Node0&#45;&gt;Node3 -->
<g id="edge3" class="edge">
<title>Node0&#45;&gt;Node3</title>
<path fill="none" stroke="#63b8ff" d="M49.28,-326.59C54.88,-367.89 73.12,-459.73 128,-509.5 132.1,-513.22 136.92,-516.17 142.03,-518.52"/>
<polygon fill="#63b8ff" stroke="#63b8ff" points="52.77,-326.29 48.08,-316.79 45.82,-327.14 52.77,-326.29"/>
</g>
<!-- Node4 -->
<g id="node5" class="node">
<title>Node4</title>
<g id="a_node5"><a xlink:href="classdaHsTarget__HIO__c.html" target="_top" xlink:title=" ">
<polygon fill="white" stroke="#666666" points="242,-500 141,-500 141,-481 242,-481 242,-500"/>
<text text-anchor="middle" x="191.5" y="-488" font-family="Helvetica,sans-Serif" font-size="10.00">daHsTarget_HIO_c</text>
</a>
</g>
</g>
<!-- Node0&#45;&gt;Node4 -->
<g id="edge4" class="edge">
<title>Node0&#45;&gt;Node4</title>
<path fill="none" stroke="#8b1a1a" d="M51.2,-325.91C59.52,-361.14 81.47,-433.33 128,-472.5 131.89,-475.77 136.34,-478.45 141.04,-480.64"/>
<polygon fill="#8b1a1a" stroke="#8b1a1a" points="54.71,-325.59 49.13,-316.58 47.88,-327.11 54.71,-325.59"/>
</g>
<!-- Node5 -->
<g id="node6" class="node">
<title>Node5</title>
<g id="a_node6"><a xlink:href="classdaLv1Cdl00__HIO__c.html" target="_top" xlink:title=" ">
<polygon fill="white" stroke="#666666" points="242.5,-463 140.5,-463 140.5,-444 242.5,-444 242.5,-463"/>
<text text-anchor="middle" x="191.5" y="-451" font-family="Helvetica,sans-Serif" font-size="10.00">daLv1Cdl00_HIO_c</text>
</a>
</g>
</g>
<!-- Node0&#45;&gt;Node5 -->
<g id="edge5" class="edge">
<title>Node0&#45;&gt;Node5</title>
<path fill="none" stroke="#63b8ff" d="M54.21,-325.78C65.47,-354.51 89.96,-406.76 128,-435.5 132.32,-438.77 137.22,-441.44 142.33,-443.63"/>
<polygon fill="#63b8ff" stroke="#63b8ff" points="57.63,-324.92 50.84,-316.78 51.07,-327.37 57.63,-324.92"/>
</g>
<!-- Node6 -->
<g id="node7" class="node">
<title>Node6</title>
<g id="a_node7"><a xlink:href="classdaLv1Cdl01__HIO__c.html" target="_top" xlink:title=" ">
<polygon fill="white" stroke="#666666" points="242.5,-426 140.5,-426 140.5,-407 242.5,-407 242.5,-426"/>
<text text-anchor="middle" x="191.5" y="-414" font-family="Helvetica,sans-Serif" font-size="10.00">daLv1Cdl01_HIO_c</text>
</a>
</g>
</g>
<!-- Node0&#45;&gt;Node6 -->
<g id="edge6" class="edge">
<title>Node0&#45;&gt;Node6</title>
<path fill="none" stroke="#63b8ff" d="M58.89,-324.83C72.88,-345.98 98.03,-379.4 128,-398.5 133.05,-401.72 138.68,-404.37 144.45,-406.56"/>
<polygon fill="#63b8ff" stroke="#63b8ff" points="61.94,-323.11 53.6,-316.57 56.04,-326.88 61.94,-323.11"/>
</g>
<!-- Node7 -->
<g id="node8" class="node">
<title>Node7</title>
<g id="a_node8"><a xlink:href="classdaLv2Candle__HIO__c.html" target="_top" xlink:title=" ">
<polygon fill="white" stroke="#666666" points="245,-389 138,-389 138,-370 245,-370 245,-389"/>
<text text-anchor="middle" x="191.5" y="-377" font-family="Helvetica,sans-Serif" font-size="10.00">daLv2Candle_HIO_c</text>
</a>
</g>
</g>
<!-- Node0&#45;&gt;Node7 -->
<g id="edge7" class="edge">
<title>Node0&#45;&gt;Node7</title>
<path fill="none" stroke="#63b8ff" d="M67.41,-322.41C83.14,-334.72 105.87,-351.01 128,-361.5 134.53,-364.6 141.7,-367.27 148.79,-369.54"/>
<polygon fill="#63b8ff" stroke="#63b8ff" points="69.77,-319.81 59.78,-316.29 65.39,-325.28 69.77,-319.81"/>
</g>
<!-- Node8 -->
<g id="node9" class="node">
<title>Node8</title>
<g id="a_node9"><a xlink:href="classdaLv4Gate__HIO__c.html" target="_top" xlink:title=" ">
<polygon fill="white" stroke="#666666" points="240.5,-352 142.5,-352 142.5,-333 240.5,-333 240.5,-352"/>
<text text-anchor="middle" x="191.5" y="-340" font-family="Helvetica,sans-Serif" font-size="10.00">daLv4Gate_HIO_c</text>
</a>
</g>
</g>
<!-- Node0&#45;&gt;Node8 -->
<g id="edge8" class="edge">
<title>Node0&#45;&gt;Node8</title>
<path fill="none" stroke="#63b8ff" d="M96.44,-318.25C114.6,-322.93 134.87,-328.16 151.94,-332.56"/>
<polygon fill="#63b8ff" stroke="#63b8ff" points="97.48,-314.9 86.92,-315.79 95.73,-321.68 97.48,-314.9"/>
</g>
<!-- Node9 -->
<g id="node10" class="node">
<title>Node9</title>
<g id="a_node10"><a xlink:href="classdaLv4HsTarget__HIO__c.html" target="_top" xlink:title=" ">
<polygon fill="white" stroke="#666666" points="250.5,-315 132.5,-315 132.5,-296 250.5,-296 250.5,-315"/>
<text text-anchor="middle" x="191.5" y="-303" font-family="Helvetica,sans-Serif" font-size="10.00">daLv4HsTarget_HIO_c</text>
</a>
</g>
</g>
<!-- Node0&#45;&gt;Node9 -->
<g id="edge9" class="edge">
<title>Node0&#45;&gt;Node9</title>
<path fill="none" stroke="#63b8ff" d="M103.64,-305.5C113.04,-305.5 122.8,-305.5 132.24,-305.5"/>
<polygon fill="#63b8ff" stroke="#63b8ff" points="103.92,-302 93.92,-305.5 103.92,-309 103.92,-302"/>
</g>
<!-- Node10 -->
<g id="node11" class="node">
<title>Node10</title>
<g id="a_node11"><a xlink:href="classdaLv4PoGate__HIO__c.html" target="_top" xlink:title=" ">
<polygon fill="white" stroke="#666666" points="246.5,-278 136.5,-278 136.5,-259 246.5,-259 246.5,-278"/>
<text text-anchor="middle" x="191.5" y="-266" font-family="Helvetica,sans-Serif" font-size="10.00">daLv4PoGate_HIO_c</text>
</a>
</g>
</g>
<!-- Node0&#45;&gt;Node10 -->
<g id="edge10" class="edge">
<title>Node0&#45;&gt;Node10</title>
<path fill="none" stroke="#63b8ff" d="M96.44,-292.75C114.6,-288.07 134.87,-282.84 151.94,-278.44"/>
<polygon fill="#63b8ff" stroke="#63b8ff" points="95.73,-289.32 86.92,-295.21 97.48,-296.1 95.73,-289.32"/>
</g>
<!-- Node11 -->
<g id="node12" class="node">
<title>Node11</title>
<g id="a_node12"><a xlink:href="classdaLv6CstaSw__HIO__c.html" target="_top" xlink:title=" ">
<polygon fill="white" stroke="#666666" points="247.5,-241 135.5,-241 135.5,-222 247.5,-222 247.5,-241"/>
<text text-anchor="middle" x="191.5" y="-229" font-family="Helvetica,sans-Serif" font-size="10.00">daLv6CstaSw_HIO_c</text>
</a>
</g>
</g>
<!-- Node0&#45;&gt;Node11 -->
<g id="edge11" class="edge">
<title>Node0&#45;&gt;Node11</title>
<path fill="none" stroke="#63b8ff" d="M67.78,-288.8C83.54,-276.79 106.15,-260.94 128,-250.5 135.27,-247.03 143.31,-244.02 151.14,-241.49"/>
<polygon fill="#63b8ff" stroke="#63b8ff" points="65.86,-285.86 60.11,-294.76 70.15,-291.38 65.86,-285.86"/>
</g>
<!-- Node12 -->
<g id="node13" class="node">
<title>Node12</title>
<g id="a_node13"><a xlink:href="classdaMyna__HIO__c.html" target="_top" xlink:title=" ">
<polygon fill="white" stroke="#666666" points="233.5,-204 149.5,-204 149.5,-185 233.5,-185 233.5,-204"/>
<text text-anchor="middle" x="191.5" y="-192" font-family="Helvetica,sans-Serif" font-size="10.00">daMyna_HIO_c</text>
</a>
</g>
</g>
<!-- Node0&#45;&gt;Node12 -->
<g id="edge12" class="edge">
<title>Node0&#45;&gt;Node12</title>
<path fill="none" stroke="#63b8ff" d="M59.21,-286.14C73.33,-265.27 98.46,-232.52 128,-213.5 134.39,-209.39 141.71,-206.13 149.05,-203.55"/>
<polygon fill="#63b8ff" stroke="#63b8ff" points="56.41,-284.02 53.86,-294.3 62.27,-287.86 56.41,-284.02"/>
</g>
<!-- Node13 -->
<g id="node14" class="node">
<title>Node13</title>
<g id="a_node14"><a xlink:href="classdaSnowEffTag__HIO__c.html" target="_top" xlink:title=" ">
<polygon fill="white" stroke="#666666" points="248,-167 135,-167 135,-148 248,-148 248,-167"/>
<text text-anchor="middle" x="191.5" y="-155" font-family="Helvetica,sans-Serif" font-size="10.00">daSnowEffTag_HIO_c</text>
</a>
</g>
</g>
<!-- Node0&#45;&gt;Node13 -->
<g id="edge13" class="edge">
<title>Node0&#45;&gt;Node13</title>
<path fill="none" stroke="#63b8ff" d="M54.46,-285.07C65.91,-256.57 90.5,-205.17 128,-176.5 132.87,-172.78 138.46,-169.79 144.26,-167.37"/>
<polygon fill="#63b8ff" stroke="#63b8ff" points="51.22,-283.75 50.91,-294.34 57.76,-286.26 51.22,-283.75"/>
</g>
<!-- Node14 -->
<g id="node15" class="node">
<title>Node14</title>
<g id="a_node15"><a xlink:href="classdaTagCstaSw__HIO__c.html" target="_top" xlink:title=" ">
<polygon fill="white" stroke="#666666" points="247.5,-130 135.5,-130 135.5,-111 247.5,-111 247.5,-130"/>
<text text-anchor="middle" x="191.5" y="-118" font-family="Helvetica,sans-Serif" font-size="10.00">daTagCstaSw_HIO_c</text>
</a>
</g>
</g>
<!-- Node0&#45;&gt;Node14 -->
<g id="edge14" class="edge">
<title>Node0&#45;&gt;Node14</title>
<path fill="none" stroke="#63b8ff" d="M51.42,-284.78C59.98,-249.69 82.16,-178.58 128,-139.5 132.32,-135.82 137.33,-132.85 142.6,-130.46"/>
<polygon fill="#63b8ff" stroke="#63b8ff" points="48.1,-283.57 49.28,-294.1 54.93,-285.14 48.1,-283.57"/>
</g>
<!-- Node15 -->
<g id="node16" class="node">
<title>Node15</title>
<g id="a_node16"><a xlink:href="classdaTagPoFire__HIO__c.html" target="_top" xlink:title=" ">
<polygon fill="white" stroke="#666666" points="244.5,-93 138.5,-93 138.5,-74 244.5,-74 244.5,-93"/>
<text text-anchor="middle" x="191.5" y="-81" font-family="Helvetica,sans-Serif" font-size="10.00">daTagPoFire_HIO_c</text>
</a>
</g>
</g>
<!-- Node0&#45;&gt;Node15 -->
<g id="edge15" class="edge">
<title>Node0&#45;&gt;Node15</title>
<path fill="none" stroke="#63b8ff" d="M49.38,-284.58C55.15,-243.6 73.68,-152.42 128,-102.5 132.01,-98.82 136.71,-95.85 141.71,-93.45"/>
<polygon fill="#63b8ff" stroke="#63b8ff" points="45.93,-283.93 48.14,-294.29 52.87,-284.82 45.93,-283.93"/>
</g>
<!-- Node16 -->
<g id="node17" class="node">
<title>Node16</title>
<g id="a_node17"><a xlink:href="classdaTbox__HIO__c.html" target="_top" xlink:title=" ">
<polygon fill="white" stroke="#666666" points="232.5,-56 150.5,-56 150.5,-37 232.5,-37 232.5,-56"/>
<text text-anchor="middle" x="191.5" y="-44" font-family="Helvetica,sans-Serif" font-size="10.00">daTbox_HIO_c</text>
</a>
</g>
</g>
<!-- Node0&#45;&gt;Node16 -->
<g id="edge16" class="edge">
<title>Node0&#45;&gt;Node16</title>
<path fill="none" stroke="#8b1a1a" d="M47.9,-284.35C51.05,-237.95 65.1,-126.51 128,-65.5 134.11,-59.58 142,-55.49 150.11,-52.68"/>
<polygon fill="#8b1a1a" stroke="#8b1a1a" points="44.42,-283.93 47.36,-294.11 51.41,-284.32 44.42,-283.93"/>
</g>
<!-- Node17 -->
<g id="node18" class="node">
<title>Node17</title>
<g id="a_node18"><a xlink:href="classdalv4CandleTag__HIO__c.html" target="_top" xlink:title=" ">
<polygon fill="white" stroke="#666666" points="251.5,-19 131.5,-19 131.5,0 251.5,0 251.5,-19"/>
<text text-anchor="middle" x="191.5" y="-7" font-family="Helvetica,sans-Serif" font-size="10.00">dalv4CandleTag_HIO_c</text>
</a>
</g>
</g>
<!-- Node0&#45;&gt;Node17 -->
<g id="edge17" class="edge">
<title>Node0&#45;&gt;Node17</title>
<path fill="none" stroke="#63b8ff" d="M46.78,-284.3C47.42,-232.97 56.37,-100.9 128,-28.5 131.67,-24.79 136.04,-21.8 140.74,-19.39"/>
<polygon fill="#63b8ff" stroke="#63b8ff" points="43.28,-284.01 46.76,-294.01 50.28,-284.02 43.28,-284.01"/>
</g>
</g>
</svg>
