<?xml version="1.0" encoding="UTF-8" standalone="no"?>
<!DOCTYPE svg PUBLIC "-//W3C//DTD SVG 1.1//EN"
 "http://www.w3.org/Graphics/SVG/1.1/DTD/svg11.dtd">
<!-- Generated by graphviz version 7.0.5 (20221223.1930)
 -->
<!-- Title: Graphical Class Hierarchy Pages: 1 -->
<svg width="300pt" height="64pt"
 viewBox="0.00 0.00 300.00 64.00" xmlns="http://www.w3.org/2000/svg" xmlns:xlink="http://www.w3.org/1999/xlink">
<g id="graph0" class="graph" transform="scale(1 1) rotate(0) translate(4 60)">
<title>Graphical Class Hierarchy</title>
<!-- Node0 -->
<g id="node1" class="node">
<title>Node0</title>
<g id="a_node1"><a xlink:href="structJMessage_1_1TReference.html" target="_top" xlink:title=" ">
<polygon fill="white" stroke="#666666" points="116,-37 0,-37 0,-18 116,-18 116,-37"/>
<text text-anchor="middle" x="58" y="-25" font-family="Helvetica,sans-Serif" font-size="10.00">JMessage::TReference</text>
</a>
</g>
</g>
<!-- Node1 -->
<g id="node2" class="node">
<title>Node1</title>
<g id="a_node2"><a xlink:href="structjmessage__string__tReference.html" target="_top" xlink:title=" ">
<polygon fill="white" stroke="#666666" points="292,-56 152,-56 152,-37 292,-37 292,-56"/>
<text text-anchor="middle" x="222" y="-44" font-family="Helvetica,sans-Serif" font-size="10.00">jmessage_string_tReference</text>
</a>
</g>
</g>
<!-- Node0&#45;&gt;Node1 -->
<g id="edge1" class="edge">
<title>Node0&#45;&gt;Node1</title>
<path fill="none" stroke="#63b8ff" d="M127.33,-35.51C135.36,-36.46 143.57,-37.42 151.62,-38.36"/>
<polygon fill="#63b8ff" stroke="#63b8ff" points="127.96,-32.06 117.62,-34.38 127.14,-39.02 127.96,-32.06"/>
</g>
<!-- Node2 -->
<g id="node3" class="node">
<title>Node2</title>
<g id="a_node3"><a xlink:href="structjmessage__tReference.html" target="_top" xlink:title=" ">
<polygon fill="white" stroke="#666666" points="277.5,-19 166.5,-19 166.5,0 277.5,0 277.5,-19"/>
<text text-anchor="middle" x="222" y="-7" font-family="Helvetica,sans-Serif" font-size="10.00">jmessage_tReference</text>
</a>
</g>
</g>
<!-- Node0&#45;&gt;Node2 -->
<g id="edge2" class="edge">
<title>Node0&#45;&gt;Node2</title>
<path fill="none" stroke="#63b8ff" d="M127.32,-19.91C140.23,-18.47 153.59,-16.99 166.03,-15.61"/>
<polygon fill="#63b8ff" stroke="#63b8ff" points="127.17,-16.4 117.62,-20.99 127.94,-23.36 127.17,-16.4"/>
</g>
</g>
</svg>
