<?xml version="1.0" encoding="UTF-8" standalone="no"?>
<!DOCTYPE svg PUBLIC "-//W3C//DTD SVG 1.1//EN"
 "http://www.w3.org/Graphics/SVG/1.1/DTD/svg11.dtd">
<!-- Generated by graphviz version 7.0.5 (20221223.1930)
 -->
<!-- Title: Graphical Class Hierarchy Pages: 1 -->
<svg width="481pt" height="440pt"
 viewBox="0.00 0.00 481.00 439.50" xmlns="http://www.w3.org/2000/svg" xmlns:xlink="http://www.w3.org/1999/xlink">
<g id="graph0" class="graph" transform="scale(1 1) rotate(0) translate(4 435.5)">
<title>Graphical Class Hierarchy</title>
<!-- Node0 -->
<g id="node1" class="node">
<title>Node0</title>
<g id="a_node1"><a xlink:href="classJASGlobalInstance.html" target="_top" xlink:title=" ">
<polygon fill="white" stroke="#666666" points="217,-431.5 110,-431.5 110,-401.5 217,-401.5 217,-431.5"/>
<text text-anchor="start" x="118" y="-419.5" font-family="Helvetica,sans-Serif" font-size="10.00">JASGlobalInstance&lt;</text>
<text text-anchor="middle" x="163.5" y="-408.5" font-family="Helvetica,sans-Serif" font-size="10.00"> JASAudioThread &gt;</text>
</a>
</g>
</g>
<!-- Node1 -->
<g id="node2" class="node">
<title>Node1</title>
<g id="a_node2"><a xlink:href="structJASAudioThread.html" target="_top" xlink:title=" ">
<polygon fill="white" stroke="#666666" points="343,-426 253,-426 253,-407 343,-407 343,-426"/>
<text text-anchor="middle" x="298" y="-414" font-family="Helvetica,sans-Serif" font-size="10.00">JASAudioThread</text>
</a>
</g>
</g>
<!-- Node0&#45;&gt;Node1 -->
<g id="edge1" class="edge">
<title>Node0&#45;&gt;Node1</title>
<path fill="none" stroke="#63b8ff" d="M228.61,-416.5C236.71,-416.5 244.84,-416.5 252.54,-416.5"/>
<polygon fill="#63b8ff" stroke="#63b8ff" points="228.76,-413 218.76,-416.5 228.76,-420 228.76,-413"/>
</g>
<!-- Node8 -->
<g id="node3" class="node">
<title>Node8</title>
<g id="a_node3"><a xlink:href="classJKRDisposer.html" target="_top" xlink:title=" ">
<polygon fill="white" stroke="#666666" points="74,-130 0,-130 0,-111 74,-111 74,-130"/>
<text text-anchor="middle" x="37" y="-118" font-family="Helvetica,sans-Serif" font-size="10.00">JKRDisposer</text>
</a>
</g>
</g>
<!-- Node9 -->
<g id="node4" class="node">
<title>Node9</title>
<g id="a_node4"><a xlink:href="classJKRAramHeap.html" target="_top" xlink:title=" ">
<polygon fill="white" stroke="#666666" points="204.5,-204 122.5,-204 122.5,-185 204.5,-185 204.5,-204"/>
<text text-anchor="middle" x="163.5" y="-192" font-family="Helvetica,sans-Serif" font-size="10.00">JKRAramHeap</text>
</a>
</g>
</g>
<!-- Node8&#45;&gt;Node9 -->
<g id="edge2" class="edge">
<title>Node8&#45;&gt;Node9</title>
<path fill="none" stroke="#63b8ff" d="M56.62,-137.8C70.49,-149.95 90.35,-165.87 110,-176.5 115.68,-179.57 121.98,-182.27 128.19,-184.57"/>
<polygon fill="#63b8ff" stroke="#63b8ff" points="59.34,-135.53 49.56,-131.46 54.66,-140.74 59.34,-135.53"/>
</g>
<!-- Node10 -->
<g id="node5" class="node">
<title>Node10</title>
<g id="a_node5"><a xlink:href="classJKRFile.html" target="_top" xlink:title=" ">
<polygon fill="white" stroke="#666666" points="189,-167 138,-167 138,-148 189,-148 189,-167"/>
<text text-anchor="middle" x="163.5" y="-155" font-family="Helvetica,sans-Serif" font-size="10.00">JKRFile</text>
</a>
</g>
</g>
<!-- Node8&#45;&gt;Node10 -->
<g id="edge3" class="edge">
<title>Node8&#45;&gt;Node10</title>
<path fill="none" stroke="#63b8ff" d="M82.3,-133.67C100.93,-139.2 121.91,-145.44 137.74,-150.14"/>
<polygon fill="#63b8ff" stroke="#63b8ff" points="83.4,-130.34 72.81,-130.85 81.4,-137.05 83.4,-130.34"/>
</g>
<!-- Node12 -->
<g id="node7" class="node">
<title>Node12</title>
<g id="a_node7"><a xlink:href="structJKRFileLoader.html" target="_top" xlink:title=" ">
<polygon fill="white" stroke="#666666" points="204,-130 123,-130 123,-111 204,-111 204,-130"/>
<text text-anchor="middle" x="163.5" y="-118" font-family="Helvetica,sans-Serif" font-size="10.00">JKRFileLoader</text>
</a>
</g>
</g>
<!-- Node8&#45;&gt;Node12 -->
<g id="edge5" class="edge">
<title>Node8&#45;&gt;Node12</title>
<path fill="none" stroke="#63b8ff" d="M85.78,-120.5C98.02,-120.5 111.06,-120.5 122.84,-120.5"/>
<polygon fill="#63b8ff" stroke="#63b8ff" points="85.86,-117 75.86,-120.5 85.86,-124 85.86,-117"/>
</g>
<!-- Node19 -->
<g id="node14" class="node">
<title>Node19</title>
<g id="a_node14"><a xlink:href="structJKRHeap.html" target="_top" xlink:title=" ">
<polygon fill="white" stroke="#666666" points="193,-93 134,-93 134,-74 193,-74 193,-93"/>
<text text-anchor="middle" x="163.5" y="-81" font-family="Helvetica,sans-Serif" font-size="10.00">JKRHeap</text>
</a>
</g>
</g>
<!-- Node8&#45;&gt;Node19 -->
<g id="edge12" class="edge">
<title>Node8&#45;&gt;Node19</title>
<path fill="none" stroke="#63b8ff" d="M82.25,-107.35C99.35,-102.27 118.44,-96.6 133.7,-92.06"/>
<polygon fill="#63b8ff" stroke="#63b8ff" points="81.4,-103.95 72.81,-110.15 83.4,-110.66 81.4,-103.95"/>
</g>
<!-- Node2 -->
<g id="node18" class="node">
<title>Node2</title>
<g id="a_node18"><a xlink:href="classJKRThread.html" target="_top" xlink:title=" ">
<polygon fill="white" stroke="#666666" points="196,-315 131,-315 131,-296 196,-296 196,-315"/>
<text text-anchor="middle" x="163.5" y="-303" font-family="Helvetica,sans-Serif" font-size="10.00">JKRThread</text>
</a>
</g>
</g>
<!-- Node8&#45;&gt;Node2 -->
<g id="edge16" class="edge">
<title>Node8&#45;&gt;Node2</title>
<path fill="none" stroke="#8b1a1a" d="M51.06,-139.91C77.37,-179.01 135.93,-266.02 155.77,-295.5"/>
<polygon fill="#8b1a1a" stroke="#8b1a1a" points="54.03,-138.04 45.54,-131.7 48.22,-141.95 54.03,-138.04"/>
</g>
<!-- Node23 -->
<g id="node24" class="node">
<title>Node23</title>
<g id="a_node24"><a xlink:href="classJUTConsole.html" target="_top" xlink:title=" ">
<polygon fill="white" stroke="#666666" points="199,-56 128,-56 128,-37 199,-37 199,-56"/>
<text text-anchor="middle" x="163.5" y="-44" font-family="Helvetica,sans-Serif" font-size="10.00">JUTConsole</text>
</a>
</g>
</g>
<!-- Node8&#45;&gt;Node23 -->
<g id="edge23" class="edge">
<title>Node8&#45;&gt;Node23</title>
<path fill="none" stroke="#63b8ff" d="M56.62,-103.2C70.49,-91.05 90.35,-75.13 110,-64.5 115.68,-61.43 121.98,-58.73 128.19,-56.43"/>
<polygon fill="#63b8ff" stroke="#63b8ff" points="54.66,-100.26 49.56,-109.54 59.34,-105.47 54.66,-100.26"/>
</g>
<!-- Node24 -->
<g id="node25" class="node">
<title>Node24</title>
<g id="a_node25"><a xlink:href="structJUTGamePad.html" target="_top" xlink:title=" ">
<polygon fill="white" stroke="#666666" points="203,-19 124,-19 124,0 203,0 203,-19"/>
<text text-anchor="middle" x="163.5" y="-7" font-family="Helvetica,sans-Serif" font-size="10.00">JUTGamePad</text>
</a>
</g>
</g>
<!-- Node8&#45;&gt;Node24 -->
<g id="edge24" class="edge">
<title>Node8&#45;&gt;Node24</title>
<path fill="none" stroke="#63b8ff" d="M48.58,-100.79C60.78,-79.81 82.71,-47.03 110,-27.5 114.47,-24.3 119.55,-21.64 124.75,-19.43"/>
<polygon fill="#63b8ff" stroke="#63b8ff" points="45.69,-98.79 43.85,-109.22 51.8,-102.21 45.69,-98.79"/>
</g>
<!-- Node11 -->
<g id="node6" class="node">
<title>Node11</title>
<g id="a_node6"><a xlink:href="classJKRDvdFile.html" target="_top" xlink:title=" ">
<polygon fill="white" stroke="#666666" points="332,-204 264,-204 264,-185 332,-185 332,-204"/>
<text text-anchor="middle" x="298" y="-192" font-family="Helvetica,sans-Serif" font-size="10.00">JKRDvdFile</text>
</a>
</g>
</g>
<!-- Node10&#45;&gt;Node11 -->
<g id="edge4" class="edge">
<title>Node10&#45;&gt;Node11</title>
<path fill="none" stroke="#63b8ff" d="M200.43,-167.53C220.13,-173.03 244.4,-179.81 263.68,-185.2"/>
<polygon fill="#63b8ff" stroke="#63b8ff" points="201.45,-164.19 190.88,-164.87 199.57,-170.93 201.45,-164.19"/>
</g>
<!-- Node13 -->
<g id="node8" class="node">
<title>Node13</title>
<g id="a_node8"><a xlink:href="structJKRArchive.html" target="_top" xlink:title=" ">
<polygon fill="white" stroke="#666666" points="332,-167 264,-167 264,-148 332,-148 332,-167"/>
<text text-anchor="middle" x="298" y="-155" font-family="Helvetica,sans-Serif" font-size="10.00">JKRArchive</text>
</a>
</g>
</g>
<!-- Node12&#45;&gt;Node13 -->
<g id="edge6" class="edge">
<title>Node12&#45;&gt;Node13</title>
<path fill="none" stroke="#63b8ff" d="M211.07,-133.5C228.42,-138.35 247.75,-143.75 263.67,-148.19"/>
<polygon fill="#63b8ff" stroke="#63b8ff" points="212.04,-130.14 201.47,-130.82 210.16,-136.88 212.04,-130.14"/>
</g>
<!-- Node18 -->
<g id="node13" class="node">
<title>Node18</title>
<g id="a_node13"><a xlink:href="classJKRFileCache.html" target="_top" xlink:title=" ">
<polygon fill="white" stroke="#666666" points="337.5,-130 258.5,-130 258.5,-111 337.5,-111 337.5,-130"/>
<text text-anchor="middle" x="298" y="-118" font-family="Helvetica,sans-Serif" font-size="10.00">JKRFileCache</text>
</a>
</g>
</g>
<!-- Node12&#45;&gt;Node18 -->
<g id="edge11" class="edge">
<title>Node12&#45;&gt;Node18</title>
<path fill="none" stroke="#63b8ff" d="M215.38,-120.5C229.59,-120.5 244.8,-120.5 258.19,-120.5"/>
<polygon fill="#63b8ff" stroke="#63b8ff" points="215.77,-117 205.77,-120.5 215.77,-124 215.77,-117"/>
</g>
<!-- Node14 -->
<g id="node9" class="node">
<title>Node14</title>
<g id="a_node9"><a xlink:href="structJKRAramArchive.html" target="_top" xlink:title=" ">
<polygon fill="white" stroke="#666666" points="472,-222 380,-222 380,-203 472,-203 472,-222"/>
<text text-anchor="middle" x="426" y="-210" font-family="Helvetica,sans-Serif" font-size="10.00">JKRAramArchive</text>
</a>
</g>
</g>
<!-- Node13&#45;&gt;Node14 -->
<g id="edge7" class="edge">
<title>Node13&#45;&gt;Node14</title>
<path fill="none" stroke="#63b8ff" d="M332.72,-171.83C336.2,-173.38 339.68,-174.96 343,-176.5 359.22,-184.05 362.65,-187.23 379,-194.5 385.27,-197.29 392.11,-200.09 398.56,-202.63"/>
<polygon fill="#63b8ff" stroke="#63b8ff" points="334.35,-168.72 323.79,-167.92 331.55,-175.14 334.35,-168.72"/>
</g>
<!-- Node15 -->
<g id="node10" class="node">
<title>Node15</title>
<g id="a_node10"><a xlink:href="classJKRCompArchive.html" target="_top" xlink:title=" ">
<polygon fill="white" stroke="#666666" points="473,-185 379,-185 379,-166 473,-166 473,-185"/>
<text text-anchor="middle" x="426" y="-173" font-family="Helvetica,sans-Serif" font-size="10.00">JKRCompArchive</text>
</a>
</g>
</g>
<!-- Node13&#45;&gt;Node15 -->
<g id="edge8" class="edge">
<title>Node13&#45;&gt;Node15</title>
<path fill="none" stroke="#63b8ff" d="M343.82,-163.9C355.1,-165.51 367.24,-167.25 378.6,-168.87"/>
<polygon fill="#63b8ff" stroke="#63b8ff" points="344.33,-160.44 333.93,-162.49 343.34,-167.37 344.33,-160.44"/>
</g>
<!-- Node16 -->
<g id="node11" class="node">
<title>Node16</title>
<g id="a_node11"><a xlink:href="classJKRDvdArchive.html" target="_top" xlink:title=" ">
<polygon fill="white" stroke="#666666" points="469,-148 383,-148 383,-129 469,-129 469,-148"/>
<text text-anchor="middle" x="426" y="-136" font-family="Helvetica,sans-Serif" font-size="10.00">JKRDvdArchive</text>
</a>
</g>
</g>
<!-- Node13&#45;&gt;Node16 -->
<g id="edge9" class="edge">
<title>Node13&#45;&gt;Node16</title>
<path fill="none" stroke="#63b8ff" d="M343.74,-150.75C356.46,-148.84 370.26,-146.75 382.82,-144.86"/>
<polygon fill="#63b8ff" stroke="#63b8ff" points="343.3,-147.28 333.93,-152.23 344.34,-154.2 343.3,-147.28"/>
</g>
<!-- Node17 -->
<g id="node12" class="node">
<title>Node17</title>
<g id="a_node12"><a xlink:href="classJKRMemArchive.html" target="_top" xlink:title=" ">
<polygon fill="white" stroke="#666666" points="471,-111 381,-111 381,-92 471,-92 471,-111"/>
<text text-anchor="middle" x="426" y="-99" font-family="Helvetica,sans-Serif" font-size="10.00">JKRMemArchive</text>
</a>
</g>
</g>
<!-- Node13&#45;&gt;Node17 -->
<g id="edge10" class="edge">
<title>Node13&#45;&gt;Node17</title>
<path fill="none" stroke="#63b8ff" d="M334.91,-143.15C337.66,-141.95 340.38,-140.72 343,-139.5 359.39,-131.84 362.62,-128.18 379,-120.5 385.73,-117.34 393.13,-114.16 399.99,-111.33"/>
<polygon fill="#63b8ff" stroke="#63b8ff" points="333.55,-139.92 325.71,-147.05 336.28,-146.37 333.55,-139.92"/>
</g>
<!-- Node20 -->
<g id="node15" class="node">
<title>Node20</title>
<g id="a_node15"><a xlink:href="classJKRAssertHeap.html" target="_top" xlink:title=" ">
<polygon fill="white" stroke="#666666" points="341.5,-93 254.5,-93 254.5,-74 341.5,-74 341.5,-93"/>
<text text-anchor="middle" x="298" y="-81" font-family="Helvetica,sans-Serif" font-size="10.00">JKRAssertHeap</text>
</a>
</g>
</g>
<!-- Node19&#45;&gt;Node20 -->
<g id="edge13" class="edge">
<title>Node19&#45;&gt;Node20</title>
<path fill="none" stroke="#63b8ff" d="M204.7,-83.5C220.35,-83.5 238.31,-83.5 254.21,-83.5"/>
<polygon fill="#63b8ff" stroke="#63b8ff" points="204.76,-80 194.76,-83.5 204.76,-87 204.76,-80"/>
</g>
<!-- Node21 -->
<g id="node16" class="node">
<title>Node21</title>
<g id="a_node16"><a xlink:href="structJKRExpHeap.html" target="_top" xlink:title=" ">
<polygon fill="white" stroke="#666666" points="335,-56 261,-56 261,-37 335,-37 335,-56"/>
<text text-anchor="middle" x="298" y="-44" font-family="Helvetica,sans-Serif" font-size="10.00">JKRExpHeap</text>
</a>
</g>
</g>
<!-- Node19&#45;&gt;Node21 -->
<g id="edge14" class="edge">
<title>Node19&#45;&gt;Node21</title>
<path fill="none" stroke="#63b8ff" d="M204.33,-72.38C222.41,-67.33 243.64,-61.4 261.21,-56.49"/>
<polygon fill="#63b8ff" stroke="#63b8ff" points="203.4,-69 194.71,-75.06 205.28,-75.75 203.4,-69"/>
</g>
<!-- Node22 -->
<g id="node17" class="node">
<title>Node22</title>
<g id="a_node17"><a xlink:href="classJKRSolidHeap.html" target="_top" xlink:title=" ">
<polygon fill="white" stroke="#666666" points="338,-19 258,-19 258,0 338,0 338,-19"/>
<text text-anchor="middle" x="298" y="-7" font-family="Helvetica,sans-Serif" font-size="10.00">JKRSolidHeap</text>
</a>
</g>
</g>
<!-- Node19&#45;&gt;Node22 -->
<g id="edge15" class="edge">
<title>Node19&#45;&gt;Node22</title>
<path fill="none" stroke="#63b8ff" d="M204,-71.44C208.53,-69.41 212.97,-67.1 217,-64.5 236.28,-52.06 233.98,-40.34 253,-27.5 257.52,-24.45 262.63,-21.78 267.73,-19.49"/>
<polygon fill="#63b8ff" stroke="#63b8ff" points="202.79,-68.15 194.8,-75.11 205.39,-74.65 202.79,-68.15"/>
</g>
<!-- Node2&#45;&gt;Node1 -->
<g id="edge17" class="edge">
<title>Node2&#45;&gt;Node1</title>
<path fill="none" stroke="#63b8ff" d="M178.34,-324.22C194.35,-344.78 222.47,-377.65 253,-398.5 257.5,-401.57 262.6,-404.26 267.7,-406.55"/>
<polygon fill="#63b8ff" stroke="#63b8ff" points="181.25,-322.26 172.4,-316.42 175.68,-326.5 181.25,-322.26"/>
</g>
<!-- Node3 -->
<g id="node19" class="node">
<title>Node3</title>
<g id="a_node19"><a xlink:href="structJASTaskThread.html" target="_top" xlink:title=" ">
<polygon fill="white" stroke="#666666" points="341.5,-389 254.5,-389 254.5,-370 341.5,-370 341.5,-389"/>
<text text-anchor="middle" x="298" y="-377" font-family="Helvetica,sans-Serif" font-size="10.00">JASTaskThread</text>
</a>
</g>
</g>
<!-- Node2&#45;&gt;Node3 -->
<g id="edge18" class="edge">
<title>Node2&#45;&gt;Node3</title>
<path fill="none" stroke="#63b8ff" d="M187.83,-321.86C205.3,-333.7 230.04,-349.65 253,-361.5 258.57,-364.38 264.72,-367.13 270.6,-369.58"/>
<polygon fill="#63b8ff" stroke="#63b8ff" points="189.92,-319.05 179.7,-316.27 185.96,-324.82 189.92,-319.05"/>
</g>
<!-- Node4 -->
<g id="node20" class="node">
<title>Node4</title>
<g id="a_node20"><a xlink:href="structJKRAram.html" target="_top" xlink:title=" ">
<polygon fill="white" stroke="#666666" points="327.5,-352 268.5,-352 268.5,-333 327.5,-333 327.5,-352"/>
<text text-anchor="middle" x="298" y="-340" font-family="Helvetica,sans-Serif" font-size="10.00">JKRAram</text>
</a>
</g>
</g>
<!-- Node2&#45;&gt;Node4 -->
<g id="edge19" class="edge">
<title>Node2&#45;&gt;Node4</title>
<path fill="none" stroke="#63b8ff" d="M207.23,-317.43C227.19,-323 250.41,-329.49 268.23,-334.47"/>
<polygon fill="#63b8ff" stroke="#63b8ff" points="208.27,-314.09 197.69,-314.77 206.38,-320.83 208.27,-314.09"/>
</g>
<!-- Node5 -->
<g id="node21" class="node">
<title>Node5</title>
<g id="a_node21"><a xlink:href="classJKRAramStream.html" target="_top" xlink:title=" ">
<polygon fill="white" stroke="#666666" points="343,-315 253,-315 253,-296 343,-296 343,-315"/>
<text text-anchor="middle" x="298" y="-303" font-family="Helvetica,sans-Serif" font-size="10.00">JKRAramStream</text>
</a>
</g>
</g>
<!-- Node2&#45;&gt;Node5 -->
<g id="edge20" class="edge">
<title>Node2&#45;&gt;Node5</title>
<path fill="none" stroke="#63b8ff" d="M207.44,-305.5C221.94,-305.5 238.15,-305.5 252.75,-305.5"/>
<polygon fill="#63b8ff" stroke="#63b8ff" points="207.75,-302 197.75,-305.5 207.75,-309 207.75,-302"/>
</g>
<!-- Node6 -->
<g id="node22" class="node">
<title>Node6</title>
<g id="a_node22"><a xlink:href="classJKRDecomp.html" target="_top" xlink:title=" ">
<polygon fill="white" stroke="#666666" points="333.5,-278 262.5,-278 262.5,-259 333.5,-259 333.5,-278"/>
<text text-anchor="middle" x="298" y="-266" font-family="Helvetica,sans-Serif" font-size="10.00">JKRDecomp</text>
</a>
</g>
</g>
<!-- Node2&#45;&gt;Node6 -->
<g id="edge21" class="edge">
<title>Node2&#45;&gt;Node6</title>
<path fill="none" stroke="#63b8ff" d="M207.21,-293.57C225.01,-288.6 245.41,-282.91 262.27,-278.2"/>
<polygon fill="#63b8ff" stroke="#63b8ff" points="206.38,-290.17 197.69,-296.23 208.27,-296.91 206.38,-290.17"/>
</g>
<!-- Node7 -->
<g id="node23" class="node">
<title>Node7</title>
<g id="a_node23"><a xlink:href="classJUTException.html" target="_top" xlink:title=" ">
<polygon fill="white" stroke="#666666" points="336.5,-241 259.5,-241 259.5,-222 336.5,-222 336.5,-241"/>
<text text-anchor="middle" x="298" y="-229" font-family="Helvetica,sans-Serif" font-size="10.00">JUTException</text>
</a>
</g>
</g>
<!-- Node2&#45;&gt;Node7 -->
<g id="edge22" class="edge">
<title>Node2&#45;&gt;Node7</title>
<path fill="none" stroke="#63b8ff" d="M188.25,-289.4C205.75,-277.86 230.35,-262.34 253,-250.5 259.19,-247.26 266.06,-244.1 272.49,-241.32"/>
<polygon fill="#63b8ff" stroke="#63b8ff" points="186.47,-286.37 180.09,-294.83 190.35,-292.2 186.47,-286.37"/>
</g>
</g>
</svg>
