<?xml version="1.0" encoding="UTF-8" standalone="no"?>
<!DOCTYPE svg PUBLIC "-//W3C//DTD SVG 1.1//EN"
 "http://www.w3.org/Graphics/SVG/1.1/DTD/svg11.dtd">
<!-- Generated by graphviz version 7.0.5 (20221223.1930)
 -->
<!-- Title: libs/JSystem/J2DGraph/J2DWindowEx.cpp Pages: 1 -->
<svg width="3366pt" height="742pt"
 viewBox="0.00 0.00 3366.00 742.00" xmlns="http://www.w3.org/2000/svg" xmlns:xlink="http://www.w3.org/1999/xlink">
<g id="graph0" class="graph" transform="scale(1 1) rotate(0) translate(4 738)">
<title>libs/JSystem/J2DGraph/J2DWindowEx.cpp</title>
<!-- Node1 -->
<g id="node1" class="node">
<title>Node1</title>
<g id="a_node1"><a xlink:title=" ">
<polygon fill="#999999" stroke="#666666" points="2151.5,-734 2032.5,-734 2032.5,-704 2151.5,-704 2151.5,-734"/>
<text text-anchor="start" x="2040.5" y="-722" font-family="Helvetica,sans-Serif" font-size="10.00">libs/JSystem/J2DGraph</text>
<text text-anchor="middle" x="2092" y="-711" font-family="Helvetica,sans-Serif" font-size="10.00">/J2DWindowEx.cpp</text>
</a>
</g>
</g>
<!-- Node2 -->
<g id="node2" class="node">
<title>Node2</title>
<g id="a_node2"><a xlink:href="J2DWindowEx_8h.html" target="_top" xlink:title=" ">
<polygon fill="white" stroke="#666666" points="1334,-651.5 1160,-651.5 1160,-632.5 1334,-632.5 1334,-651.5"/>
<text text-anchor="middle" x="1247" y="-639.5" font-family="Helvetica,sans-Serif" font-size="10.00">JSystem/J2DGraph/J2DWindowEx.h</text>
</a>
</g>
</g>
<!-- Node1&#45;&gt;Node2 -->
<g id="edge1" class="edge">
<title>Node1&#45;&gt;Node2</title>
<path fill="none" stroke="#63b8ff" d="M2032.34,-717.81C1904.92,-716.58 1597.07,-709.19 1343,-668 1324.17,-664.95 1303.67,-659.86 1286.46,-655.06"/>
<polygon fill="#63b8ff" stroke="#63b8ff" points="1287.72,-651.78 1277.14,-652.4 1285.79,-658.51 1287.72,-651.78"/>
</g>
<!-- Node56 -->
<g id="node37" class="node">
<title>Node56</title>
<g id="a_node37"><a xlink:href="JUTTexture_8h.html" target="_top" xlink:title=" ">
<polygon fill="white" stroke="#666666" points="765.5,-404 616.5,-404 616.5,-385 765.5,-385 765.5,-404"/>
<text text-anchor="middle" x="691" y="-392" font-family="Helvetica,sans-Serif" font-size="10.00">JSystem/JUtility/JUTTexture.h</text>
</a>
</g>
</g>
<!-- Node1&#45;&gt;Node56 -->
<g id="edge58" class="edge">
<title>Node1&#45;&gt;Node56</title>
<path fill="none" stroke="#63b8ff" d="M2032.13,-717.56C1772.76,-714.86 759,-696 759,-566 759,-566 759,-566 759,-503.5 759,-466.44 729.98,-431.71 709.85,-412.08"/>
<polygon fill="#63b8ff" stroke="#63b8ff" points="712.43,-409.7 702.73,-405.43 707.65,-414.81 712.43,-409.7"/>
</g>
<!-- Node57 -->
<g id="node38" class="node">
<title>Node57</title>
<g id="a_node38"><a xlink:href="JSURandomInputStream_8h.html" target="_top" xlink:title=" ">
<polygon fill="white" stroke="#666666" points="1507.5,-657 1352.5,-657 1352.5,-627 1507.5,-627 1507.5,-657"/>
<text text-anchor="start" x="1360.5" y="-645" font-family="Helvetica,sans-Serif" font-size="10.00">JSystem/JSupport/JSURandom</text>
<text text-anchor="middle" x="1430" y="-634" font-family="Helvetica,sans-Serif" font-size="10.00">InputStream.h</text>
</a>
</g>
</g>
<!-- Node1&#45;&gt;Node57 -->
<g id="edge61" class="edge">
<title>Node1&#45;&gt;Node57</title>
<path fill="none" stroke="#63b8ff" d="M2032.31,-716.6C1927.29,-713.29 1702.97,-702.47 1517,-668 1506.45,-666.04 1495.34,-663.35 1484.71,-660.46"/>
<polygon fill="#63b8ff" stroke="#63b8ff" points="1485.9,-657.16 1475.32,-657.8 1483.99,-663.89 1485.9,-657.16"/>
</g>
<!-- Node60 -->
<g id="node41" class="node">
<title>Node60</title>
<g id="a_node41"><a xlink:href="dol2asm_8h.html" target="_top" xlink:title=" ">
<polygon fill="white" stroke="#666666" points="1586.5,-651.5 1525.5,-651.5 1525.5,-632.5 1586.5,-632.5 1586.5,-651.5"/>
<text text-anchor="middle" x="1556" y="-639.5" font-family="Helvetica,sans-Serif" font-size="10.00">dol2asm.h</text>
</a>
</g>
</g>
<!-- Node1&#45;&gt;Node60 -->
<g id="edge65" class="edge">
<title>Node1&#45;&gt;Node60</title>
<path fill="none" stroke="#63b8ff" d="M2032.35,-715.38C1918.69,-709.83 1675.33,-695.13 1596,-668 1589.25,-665.69 1582.46,-662.06 1576.44,-658.27"/>
<polygon fill="#63b8ff" stroke="#63b8ff" points="1578.66,-655.55 1568.43,-652.81 1574.72,-661.33 1578.66,-655.55"/>
</g>
<!-- Node61 -->
<g id="node42" class="node">
<title>Node61</title>
<g id="a_node42"><a xlink:title=" ">
<polygon fill="#e0e0e0" stroke="#999999" points="1815.5,-668 1604.5,-668 1604.5,-616 1815.5,-616 1815.5,-668"/>
<text text-anchor="start" x="1612.5" y="-656" font-family="Helvetica,sans-Serif" font-size="10.00">asm/JSystem/J2DGraph</text>
<text text-anchor="start" x="1612.5" y="-645" font-family="Helvetica,sans-Serif" font-size="10.00">/J2DWindowEx/__ct__11J2DWindow</text>
<text text-anchor="start" x="1612.5" y="-634" font-family="Helvetica,sans-Serif" font-size="10.00">ExFP7J2DPaneP20JSURandomInputStream</text>
<text text-anchor="middle" x="1710" y="-623" font-family="Helvetica,sans-Serif" font-size="10.00">UlP11J2DMaterial.s</text>
</a>
</g>
</g>
<!-- Node1&#45;&gt;Node61 -->
<g id="edge66" class="edge">
<title>Node1&#45;&gt;Node61</title>
<path fill="none" stroke="#63b8ff" d="M2032.25,-707.32C1980.62,-697.98 1903.7,-683.78 1827.16,-668.41"/>
<polygon fill="#63b8ff" stroke="#63b8ff" points="1827.85,-664.98 1817.36,-666.44 1826.47,-671.84 1827.85,-664.98"/>
</g>
<!-- Node62 -->
<g id="node43" class="node">
<title>Node62</title>
<g id="a_node43"><a xlink:title=" ">
<polygon fill="#e0e0e0" stroke="#999999" points="1994.5,-657 1833.5,-657 1833.5,-627 1994.5,-627 1994.5,-657"/>
<text text-anchor="start" x="1841.5" y="-645" font-family="Helvetica,sans-Serif" font-size="10.00">asm/JSystem/J2DGraph</text>
<text text-anchor="middle" x="1914" y="-634" font-family="Helvetica,sans-Serif" font-size="10.00">/J2DWindowEx/func_803012CC.s</text>
</a>
</g>
</g>
<!-- Node1&#45;&gt;Node62 -->
<g id="edge67" class="edge">
<title>Node1&#45;&gt;Node62</title>
<path fill="none" stroke="#63b8ff" d="M2057.68,-703.54C2029.48,-691.66 1989.33,-674.74 1958.64,-661.81"/>
<polygon fill="#63b8ff" stroke="#63b8ff" points="1960.18,-658.66 1949.61,-658 1957.47,-665.11 1960.18,-658.66"/>
</g>
<!-- Node63 -->
<g id="node44" class="node">
<title>Node63</title>
<g id="a_node44"><a xlink:title=" ">
<polygon fill="#e0e0e0" stroke="#999999" points="2171,-657 2013,-657 2013,-627 2171,-627 2171,-657"/>
<text text-anchor="start" x="2021" y="-645" font-family="Helvetica,sans-Serif" font-size="10.00">asm/JSystem/J2DGraph</text>
<text text-anchor="middle" x="2092" y="-634" font-family="Helvetica,sans-Serif" font-size="10.00">/J2DWindowEx/func_80301994.s</text>
</a>
</g>
</g>
<!-- Node1&#45;&gt;Node63 -->
<g id="edge68" class="edge">
<title>Node1&#45;&gt;Node63</title>
<path fill="none" stroke="#63b8ff" d="M2092,-703.54C2092,-693.68 2092,-680.36 2092,-668.72"/>
<polygon fill="#63b8ff" stroke="#63b8ff" points="2095.5,-668.93 2092,-658.93 2088.5,-668.93 2095.5,-668.93"/>
</g>
<!-- Node64 -->
<g id="node45" class="node">
<title>Node64</title>
<g id="a_node45"><a xlink:title=" ">
<polygon fill="#e0e0e0" stroke="#999999" points="2438.5,-662.5 2189.5,-662.5 2189.5,-621.5 2438.5,-621.5 2438.5,-662.5"/>
<text text-anchor="start" x="2197.5" y="-650.5" font-family="Helvetica,sans-Serif" font-size="10.00">asm/JSystem/J2DGraph</text>
<text text-anchor="start" x="2197.5" y="-639.5" font-family="Helvetica,sans-Serif" font-size="10.00">/J2DWindowEx/drawFrameTexture</text>
<text text-anchor="middle" x="2314" y="-628.5" font-family="Helvetica,sans-Serif" font-size="10.00">__11J2DWindowExFffffUsUsUsUsP11J2DMaterialb.s</text>
</a>
</g>
</g>
<!-- Node1&#45;&gt;Node64 -->
<g id="edge69" class="edge">
<title>Node1&#45;&gt;Node64</title>
<path fill="none" stroke="#63b8ff" d="M2134.8,-703.54C2165.75,-693.09 2208.24,-678.73 2244.08,-666.62"/>
<polygon fill="#63b8ff" stroke="#63b8ff" points="2245.18,-669.95 2253.53,-663.43 2242.94,-663.31 2245.18,-669.95"/>
</g>
<!-- Node65 -->
<g id="node46" class="node">
<title>Node65</title>
<g id="a_node46"><a xlink:title=" ">
<polygon fill="#e0e0e0" stroke="#999999" points="2617.5,-657 2456.5,-657 2456.5,-627 2617.5,-627 2617.5,-657"/>
<text text-anchor="start" x="2464.5" y="-645" font-family="Helvetica,sans-Serif" font-size="10.00">asm/JSystem/J2DGraph</text>
<text text-anchor="middle" x="2537" y="-634" font-family="Helvetica,sans-Serif" font-size="10.00">/J2DWindowEx/func_80301FC8.s</text>
</a>
</g>
</g>
<!-- Node1&#45;&gt;Node65 -->
<g id="edge70" class="edge">
<title>Node1&#45;&gt;Node65</title>
<path fill="none" stroke="#63b8ff" d="M2151.95,-712.07C2223.05,-704.46 2344.92,-689.61 2448,-668 2458.15,-665.87 2468.85,-663.22 2479.17,-660.46"/>
<polygon fill="#63b8ff" stroke="#63b8ff" points="2480.01,-663.86 2488.72,-657.83 2478.15,-657.11 2480.01,-663.86"/>
</g>
<!-- Node66 -->
<g id="node47" class="node">
<title>Node66</title>
<g id="a_node47"><a xlink:title=" ">
<polygon fill="#e0e0e0" stroke="#999999" points="2794,-657 2636,-657 2636,-627 2794,-627 2794,-657"/>
<text text-anchor="start" x="2644" y="-645" font-family="Helvetica,sans-Serif" font-size="10.00">asm/JSystem/J2DGraph</text>
<text text-anchor="middle" x="2715" y="-634" font-family="Helvetica,sans-Serif" font-size="10.00">/J2DWindowEx/func_80302164.s</text>
</a>
</g>
</g>
<!-- Node1&#45;&gt;Node66 -->
<g id="edge71" class="edge">
<title>Node1&#45;&gt;Node66</title>
<path fill="none" stroke="#63b8ff" d="M2151.87,-715.99C2251.31,-711.85 2456.45,-699.92 2627,-668 2637.54,-666.03 2648.65,-663.35 2659.29,-660.49"/>
<polygon fill="#63b8ff" stroke="#63b8ff" points="2660.01,-663.92 2668.7,-657.86 2658.13,-657.18 2660.01,-663.92"/>
</g>
<!-- Node67 -->
<g id="node48" class="node">
<title>Node67</title>
<g id="a_node48"><a xlink:title=" ">
<polygon fill="#e0e0e0" stroke="#999999" points="2952,-662.5 2812,-662.5 2812,-621.5 2952,-621.5 2952,-662.5"/>
<text text-anchor="start" x="2820" y="-650.5" font-family="Helvetica,sans-Serif" font-size="10.00">asm/JSystem/J2DGraph</text>
<text text-anchor="start" x="2820" y="-639.5" font-family="Helvetica,sans-Serif" font-size="10.00">/J2DWindowEx/setTevStage</text>
<text text-anchor="middle" x="2882" y="-628.5" font-family="Helvetica,sans-Serif" font-size="10.00">__11J2DWindowExFb.s</text>
</a>
</g>
</g>
<!-- Node1&#45;&gt;Node67 -->
<g id="edge72" class="edge">
<title>Node1&#45;&gt;Node67</title>
<path fill="none" stroke="#63b8ff" d="M2151.6,-718.53C2274.55,-718.6 2564.75,-713.41 2803,-668 2806.53,-667.33 2810.13,-666.55 2813.74,-665.69"/>
<polygon fill="#63b8ff" stroke="#63b8ff" points="2814.31,-669.15 2823.12,-663.27 2812.57,-662.38 2814.31,-669.15"/>
</g>
<!-- Node68 -->
<g id="node49" class="node">
<title>Node68</title>
<g id="a_node49"><a xlink:title=" ">
<polygon fill="#e0e0e0" stroke="#999999" points="3152,-668 2970,-668 2970,-616 3152,-616 3152,-668"/>
<text text-anchor="start" x="2978" y="-656" font-family="Helvetica,sans-Serif" font-size="10.00">asm/JSystem/J2DGraph</text>
<text text-anchor="start" x="2978" y="-645" font-family="Helvetica,sans-Serif" font-size="10.00">/J2DWindowEx/setStage</text>
<text text-anchor="start" x="2978" y="-634" font-family="Helvetica,sans-Serif" font-size="10.00">__11J2DWindowExFP11J2DTevStage</text>
<text text-anchor="middle" x="3061" y="-623" font-family="Helvetica,sans-Serif" font-size="10.00">Q211J2DWindowEx10stage_enum.s</text>
</a>
</g>
</g>
<!-- Node1&#45;&gt;Node68 -->
<g id="edge73" class="edge">
<title>Node1&#45;&gt;Node68</title>
<path fill="none" stroke="#63b8ff" d="M2151.93,-718.4C2291.81,-718.52 2650.7,-714.04 2958.21,-668.3"/>
<polygon fill="#63b8ff" stroke="#63b8ff" points="2958.72,-671.76 2968.09,-666.81 2957.68,-664.84 2958.72,-671.76"/>
</g>
<!-- Node69 -->
<g id="node50" class="node">
<title>Node69</title>
<g id="a_node50"><a xlink:title=" ">
<polygon fill="#e0e0e0" stroke="#999999" points="3358,-668 3170,-668 3170,-616 3358,-616 3358,-668"/>
<text text-anchor="start" x="3178" y="-656" font-family="Helvetica,sans-Serif" font-size="10.00">asm/JSystem/J2DGraph</text>
<text text-anchor="start" x="3178" y="-645" font-family="Helvetica,sans-Serif" font-size="10.00">/J2DWindowEx/setBlackWhite</text>
<text text-anchor="start" x="3178" y="-634" font-family="Helvetica,sans-Serif" font-size="10.00">__11J2DWindowExFQ28JUtility6TColor</text>
<text text-anchor="middle" x="3264" y="-623" font-family="Helvetica,sans-Serif" font-size="10.00">Q28JUtility6TColor.s</text>
</a>
</g>
</g>
<!-- Node1&#45;&gt;Node69 -->
<g id="edge74" class="edge">
<title>Node1&#45;&gt;Node69</title>
<path fill="none" stroke="#63b8ff" d="M2151.96,-716.71C2343.83,-712.33 2942.32,-696.83 3158.34,-668.21"/>
<polygon fill="#63b8ff" stroke="#63b8ff" points="3158.64,-671.71 3168.06,-666.87 3157.68,-664.77 3158.64,-671.71"/>
</g>
<!-- Node3 -->
<g id="node3" class="node">
<title>Node3</title>
<g id="a_node3"><a xlink:href="J2DWindow_8h.html" target="_top" xlink:title=" ">
<polygon fill="white" stroke="#666666" points="1242,-574.5 1078,-574.5 1078,-555.5 1242,-555.5 1242,-574.5"/>
<text text-anchor="middle" x="1160" y="-562.5" font-family="Helvetica,sans-Serif" font-size="10.00">JSystem/J2DGraph/J2DWindow.h</text>
</a>
</g>
</g>
<!-- Node2&#45;&gt;Node3 -->
<g id="edge2" class="edge">
<title>Node2&#45;&gt;Node3</title>
<path fill="none" stroke="#63b8ff" d="M1236.68,-632.1C1222.42,-619.81 1196.45,-597.42 1178.72,-582.14"/>
<polygon fill="#63b8ff" stroke="#63b8ff" points="1181.31,-579.75 1171.45,-575.87 1176.74,-585.06 1181.31,-579.75"/>
</g>
<!-- Node13 -->
<g id="node10" class="node">
<title>Node13</title>
<g id="a_node10"><a xlink:href="types_8h.html" target="_top" xlink:title=" ">
<polygon fill="white" stroke="#666666" points="822.5,-85 741.5,-85 741.5,-66 822.5,-66 822.5,-85"/>
<text text-anchor="middle" x="782" y="-73" font-family="Helvetica,sans-Serif" font-size="10.00">dolphin/types.h</text>
</a>
</g>
</g>
<!-- Node2&#45;&gt;Node13 -->
<g id="edge57" class="edge">
<title>Node2&#45;&gt;Node13</title>
<path fill="none" stroke="#63b8ff" d="M1276.47,-632.12C1324.41,-615.65 1414,-575.51 1414,-505.5 1414,-505.5 1414,-505.5 1414,-201 1414,-148.47 1375.12,-142.06 1327,-121 1239.47,-82.7 952.62,-77.12 834.03,-76.48"/>
<polygon fill="#63b8ff" stroke="#63b8ff" points="834.28,-72.98 824.27,-76.44 834.25,-79.98 834.28,-72.98"/>
</g>
<!-- Node4 -->
<g id="node4" class="node">
<title>Node4</title>
<g id="a_node4"><a xlink:href="J2DMaterial_8h.html" target="_top" xlink:title=" ">
<polygon fill="white" stroke="#666666" points="1021,-514 857,-514 857,-495 1021,-495 1021,-514"/>
<text text-anchor="middle" x="939" y="-502" font-family="Helvetica,sans-Serif" font-size="10.00">JSystem/J2DGraph/J2DMaterial.h</text>
</a>
</g>
</g>
<!-- Node3&#45;&gt;Node4 -->
<g id="edge3" class="edge">
<title>Node3&#45;&gt;Node4</title>
<path fill="none" stroke="#63b8ff" d="M1126.43,-555.12C1088.39,-545.04 1026.17,-528.58 983.96,-517.4"/>
<polygon fill="#63b8ff" stroke="#63b8ff" points="984.91,-514.03 974.34,-514.86 983.12,-520.8 984.91,-514.03"/>
</g>
<!-- Node54 -->
<g id="node30" class="node">
<title>Node54</title>
<g id="a_node30"><a xlink:href="J2DPane_8h.html" target="_top" xlink:title=" ">
<polygon fill="white" stroke="#666666" points="1236,-343.5 1084,-343.5 1084,-324.5 1236,-324.5 1236,-343.5"/>
<text text-anchor="middle" x="1160" y="-331.5" font-family="Helvetica,sans-Serif" font-size="10.00">JSystem/J2DGraph/J2DPane.h</text>
</a>
</g>
</g>
<!-- Node3&#45;&gt;Node54 -->
<g id="edge45" class="edge">
<title>Node3&#45;&gt;Node54</title>
<path fill="none" stroke="#63b8ff" d="M1160,-555.02C1160,-521.46 1160,-402.86 1160,-355.13"/>
<polygon fill="#63b8ff" stroke="#63b8ff" points="1163.5,-355.18 1160,-345.18 1156.5,-355.18 1163.5,-355.18"/>
</g>
<!-- Node5 -->
<g id="node5" class="node">
<title>Node5</title>
<g id="a_node5"><a xlink:href="J2DAnimation_8h.html" target="_top" xlink:title=" ">
<polygon fill="white" stroke="#666666" points="598.5,-404 425.5,-404 425.5,-385 598.5,-385 598.5,-404"/>
<text text-anchor="middle" x="512" y="-392" font-family="Helvetica,sans-Serif" font-size="10.00">JSystem/J2DGraph/J2DAnimation.h</text>
</a>
</g>
</g>
<!-- Node4&#45;&gt;Node5 -->
<g id="edge4" class="edge">
<title>Node4&#45;&gt;Node5</title>
<path fill="none" stroke="#63b8ff" d="M903.69,-494.57C826.82,-475.13 644.31,-428.97 558.33,-407.22"/>
<polygon fill="#63b8ff" stroke="#63b8ff" points="559.37,-403.87 548.82,-404.81 557.65,-410.66 559.37,-403.87"/>
</g>
<!-- Node51 -->
<g id="node21" class="node">
<title>Node51</title>
<g id="a_node21"><a xlink:href="J2DMatBlock_8h.html" target="_top" xlink:title=" ">
<polygon fill="white" stroke="#666666" points="1024,-459 854,-459 854,-440 1024,-440 1024,-459"/>
<text text-anchor="middle" x="939" y="-447" font-family="Helvetica,sans-Serif" font-size="10.00">JSystem/J2DGraph/J2DMatBlock.h</text>
</a>
</g>
</g>
<!-- Node4&#45;&gt;Node51 -->
<g id="edge30" class="edge">
<title>Node4&#45;&gt;Node51</title>
<path fill="none" stroke="#63b8ff" d="M939,-494.75C939,-488.27 939,-479.16 939,-470.9"/>
<polygon fill="#63b8ff" stroke="#63b8ff" points="942.5,-470.96 939,-460.96 935.5,-470.96 942.5,-470.96"/>
</g>
<!-- Node6 -->
<g id="node6" class="node">
<title>Node6</title>
<g id="a_node6"><a xlink:href="J3DAnimation_8h.html" target="_top" xlink:title=" ">
<polygon fill="white" stroke="#666666" points="613,-349 473,-349 473,-319 613,-319 613,-349"/>
<text text-anchor="start" x="481" y="-337" font-family="Helvetica,sans-Serif" font-size="10.00">JSystem/J3DGraphAnimator</text>
<text text-anchor="middle" x="543" y="-326" font-family="Helvetica,sans-Serif" font-size="10.00">/J3DAnimation.h</text>
</a>
</g>
</g>
<!-- Node5&#45;&gt;Node6 -->
<g id="edge5" class="edge">
<title>Node5&#45;&gt;Node6</title>
<path fill="none" stroke="#63b8ff" d="M516.57,-384.87C520.16,-378.11 525.33,-368.35 530.14,-359.26"/>
<polygon fill="#63b8ff" stroke="#63b8ff" points="533.22,-360.93 534.81,-350.45 527.04,-357.65 533.22,-360.93"/>
</g>
<!-- Node35 -->
<g id="node20" class="node">
<title>Node35</title>
<g id="a_node20"><a xlink:href="global_8h.html" target="_top" xlink:title=" ">
<polygon fill="white" stroke="#666666" points="788,-277.5 738,-277.5 738,-258.5 788,-258.5 788,-277.5"/>
<text text-anchor="middle" x="763" y="-265.5" font-family="Helvetica,sans-Serif" font-size="10.00">global.h</text>
</a>
</g>
</g>
<!-- Node5&#45;&gt;Node35 -->
<g id="edge29" class="edge">
<title>Node5&#45;&gt;Node35</title>
<path fill="none" stroke="#63b8ff" d="M536.87,-384.51C559.43,-376.11 593.44,-362.81 622,-349 664.47,-328.47 711.76,-300.54 739.36,-283.69"/>
<polygon fill="#63b8ff" stroke="#63b8ff" points="740.95,-286.82 747.63,-278.61 737.28,-280.86 740.95,-286.82"/>
</g>
<!-- Node7 -->
<g id="node7" class="node">
<title>Node7</title>
<g id="a_node7"><a xlink:href="J3DModelData_8h.html" target="_top" xlink:title=" ">
<polygon fill="white" stroke="#666666" points="462,-283 322,-283 322,-253 462,-253 462,-283"/>
<text text-anchor="start" x="330" y="-271" font-family="Helvetica,sans-Serif" font-size="10.00">JSystem/J3DGraphAnimator</text>
<text text-anchor="middle" x="392" y="-260" font-family="Helvetica,sans-Serif" font-size="10.00">/J3DModelData.h</text>
</a>
</g>
</g>
<!-- Node6&#45;&gt;Node7 -->
<g id="edge6" class="edge">
<title>Node6&#45;&gt;Node7</title>
<path fill="none" stroke="#63b8ff" d="M509.11,-318.64C487.62,-309.53 459.59,-297.65 436.34,-287.79"/>
<polygon fill="#63b8ff" stroke="#63b8ff" points="438,-284.7 427.43,-284.02 435.27,-291.14 438,-284.7"/>
</g>
<!-- Node50 -->
<g id="node19" class="node">
<title>Node50</title>
<g id="a_node19"><a xlink:href="JUTNameTab_8h.html" target="_top" xlink:title=" ">
<polygon fill="white" stroke="#666666" points="735,-151 599,-151 599,-121 735,-121 735,-151"/>
<text text-anchor="start" x="607" y="-139" font-family="Helvetica,sans-Serif" font-size="10.00">JSystem/JUtility/JUTName</text>
<text text-anchor="middle" x="667" y="-128" font-family="Helvetica,sans-Serif" font-size="10.00">Tab.h</text>
</a>
</g>
</g>
<!-- Node6&#45;&gt;Node50 -->
<g id="edge25" class="edge">
<title>Node6&#45;&gt;Node50</title>
<path fill="none" stroke="#63b8ff" d="M575.79,-318.52C611.88,-300.56 667.96,-266.19 692,-217 700.84,-198.92 692.83,-177.03 683.6,-160.72"/>
<polygon fill="#63b8ff" stroke="#63b8ff" points="686.86,-159.33 678.63,-152.66 680.9,-163.01 686.86,-159.33"/>
</g>
<!-- Node6&#45;&gt;Node35 -->
<g id="edge27" class="edge">
<title>Node6&#45;&gt;Node35</title>
<path fill="none" stroke="#63b8ff" d="M599.58,-318.54C635.43,-309.09 682.67,-296.11 724,-283 725.54,-282.51 727.12,-282 728.7,-281.47"/>
<polygon fill="#63b8ff" stroke="#63b8ff" points="729.42,-284.93 737.74,-278.37 727.15,-278.31 729.42,-284.93"/>
</g>
<!-- Node8 -->
<g id="node8" class="node">
<title>Node8</title>
<g id="a_node8"><a xlink:href="J3DJointTree_8h.html" target="_top" xlink:title=" ">
<polygon fill="white" stroke="#666666" points="541,-217 401,-217 401,-187 541,-187 541,-217"/>
<text text-anchor="start" x="409" y="-205" font-family="Helvetica,sans-Serif" font-size="10.00">JSystem/J3DGraphAnimator</text>
<text text-anchor="middle" x="471" y="-194" font-family="Helvetica,sans-Serif" font-size="10.00">/J3DJointTree.h</text>
</a>
</g>
</g>
<!-- Node7&#45;&gt;Node8 -->
<g id="edge7" class="edge">
<title>Node7&#45;&gt;Node8</title>
<path fill="none" stroke="#63b8ff" d="M409.53,-252.8C419.79,-244.49 432.95,-233.83 444.46,-224.5"/>
<polygon fill="#63b8ff" stroke="#63b8ff" points="446.5,-227.35 452.07,-218.34 442.09,-221.91 446.5,-227.35"/>
</g>
<!-- Node23 -->
<g id="node12" class="node">
<title>Node23</title>
<g id="a_node12"><a xlink:href="J3DMaterialAttach_8h.html" target="_top" xlink:title=" ">
<polygon fill="white" stroke="#666666" points="383,-217 243,-217 243,-187 383,-187 383,-217"/>
<text text-anchor="start" x="251" y="-205" font-family="Helvetica,sans-Serif" font-size="10.00">JSystem/J3DGraphAnimator</text>
<text text-anchor="middle" x="313" y="-194" font-family="Helvetica,sans-Serif" font-size="10.00">/J3DMaterialAttach.h</text>
</a>
</g>
</g>
<!-- Node7&#45;&gt;Node23 -->
<g id="edge11" class="edge">
<title>Node7&#45;&gt;Node23</title>
<path fill="none" stroke="#63b8ff" d="M374.47,-252.8C364.21,-244.49 351.05,-233.83 339.54,-224.5"/>
<polygon fill="#63b8ff" stroke="#63b8ff" points="341.91,-221.91 331.93,-218.34 337.5,-227.35 341.91,-221.91"/>
</g>
<!-- Node24 -->
<g id="node13" class="node">
<title>Node24</title>
<g id="a_node13"><a xlink:href="J3DShapeTable_8h.html" target="_top" xlink:title=" ">
<polygon fill="white" stroke="#666666" points="225,-217 85,-217 85,-187 225,-187 225,-217"/>
<text text-anchor="start" x="93" y="-205" font-family="Helvetica,sans-Serif" font-size="10.00">JSystem/J3DGraphAnimator</text>
<text text-anchor="middle" x="155" y="-194" font-family="Helvetica,sans-Serif" font-size="10.00">/J3DShapeTable.h</text>
</a>
</g>
</g>
<!-- Node7&#45;&gt;Node24 -->
<g id="edge13" class="edge">
<title>Node7&#45;&gt;Node24</title>
<path fill="none" stroke="#63b8ff" d="M338.52,-252.56C303.1,-242.99 256.47,-230.4 219.07,-220.3"/>
<polygon fill="#63b8ff" stroke="#63b8ff" points="220.32,-217.01 209.75,-217.78 218.49,-223.77 220.32,-217.01"/>
</g>
<!-- Node48 -->
<g id="node16" class="node">
<title>Node48</title>
<g id="a_node16"><a xlink:href="J3DSys_8h.html" target="_top" xlink:title=" ">
<polygon fill="white" stroke="#666666" points="124,-151 0,-151 0,-121 124,-121 124,-151"/>
<text text-anchor="start" x="8" y="-139" font-family="Helvetica,sans-Serif" font-size="10.00">JSystem/J3DGraphBase</text>
<text text-anchor="middle" x="62" y="-128" font-family="Helvetica,sans-Serif" font-size="10.00">/J3DSys.h</text>
</a>
</g>
</g>
<!-- Node7&#45;&gt;Node48 -->
<g id="edge18" class="edge">
<title>Node7&#45;&gt;Node48</title>
<path fill="none" stroke="#63b8ff" d="M321.82,-265.14C239.47,-261.43 109.85,-250.31 76,-217 61.87,-203.1 59.04,-180.35 59.35,-162.65"/>
<polygon fill="#63b8ff" stroke="#63b8ff" points="62.84,-163.07 59.89,-152.89 55.85,-162.68 62.84,-163.07"/>
</g>
<!-- Node49 -->
<g id="node17" class="node">
<title>Node49</title>
<g id="a_node17"><a xlink:href="J3DVertex_8h.html" target="_top" xlink:title=" ">
<polygon fill="#fff0f0" stroke="red" points="683,-217 559,-217 559,-187 683,-187 683,-217"/>
<text text-anchor="start" x="567" y="-205" font-family="Helvetica,sans-Serif" font-size="10.00">JSystem/J3DGraphBase</text>
<text text-anchor="middle" x="621" y="-194" font-family="Helvetica,sans-Serif" font-size="10.00">/J3DVertex.h</text>
</a>
</g>
</g>
<!-- Node7&#45;&gt;Node49 -->
<g id="edge21" class="edge">
<title>Node7&#45;&gt;Node49</title>
<path fill="none" stroke="#63b8ff" d="M443.68,-252.56C477.75,-243.04 522.57,-230.51 558.62,-220.43"/>
<polygon fill="#63b8ff" stroke="#63b8ff" points="559.36,-223.86 568.05,-217.8 557.48,-217.12 559.36,-223.86"/>
</g>
<!-- Node9 -->
<g id="node9" class="node">
<title>Node9</title>
<g id="a_node9"><a xlink:href="J3DJoint_8h.html" target="_top" xlink:title=" ">
<polygon fill="#fff0f0" stroke="red" points="505,-151 365,-151 365,-121 505,-121 505,-151"/>
<text text-anchor="start" x="373" y="-139" font-family="Helvetica,sans-Serif" font-size="10.00">JSystem/J3DGraphAnimator</text>
<text text-anchor="middle" x="435" y="-128" font-family="Helvetica,sans-Serif" font-size="10.00">/J3DJoint.h</text>
</a>
</g>
</g>
<!-- Node8&#45;&gt;Node9 -->
<g id="edge8" class="edge">
<title>Node8&#45;&gt;Node9</title>
<path fill="none" stroke="#63b8ff" d="M463.01,-186.8C458.77,-179.26 453.44,-169.78 448.57,-161.13"/>
<polygon fill="#63b8ff" stroke="#63b8ff" points="451.66,-159.48 443.71,-152.48 445.56,-162.91 451.66,-159.48"/>
</g>
<!-- Node8&#45;&gt;Node13 -->
<g id="edge9" class="edge">
<title>Node8&#45;&gt;Node13</title>
<path fill="none" stroke="#63b8ff" d="M486.45,-186.52C506.61,-168.42 543.75,-137.78 581,-121 628.95,-99.39 688.2,-87.92 729.9,-82.07"/>
<polygon fill="#63b8ff" stroke="#63b8ff" points="730.23,-85.56 739.68,-80.77 729.3,-78.62 730.23,-85.56"/>
</g>
<!-- Node14 -->
<g id="node11" class="node">
<title>Node14</title>
<g id="a_node11"><a xlink:href="stddef_8h.html" target="_top" xlink:title=" ">
<polygon fill="white" stroke="#666666" points="850,-30 714,-30 714,0 850,0 850,-30"/>
<text text-anchor="start" x="722" y="-18" font-family="Helvetica,sans-Serif" font-size="10.00">MSL_C/MSL_Common/Src</text>
<text text-anchor="middle" x="782" y="-7" font-family="Helvetica,sans-Serif" font-size="10.00">/stddef.h</text>
</a>
</g>
</g>
<!-- Node13&#45;&gt;Node14 -->
<g id="edge10" class="edge">
<title>Node13&#45;&gt;Node14</title>
<path fill="none" stroke="#63b8ff" d="M782,-65.87C782,-59.4 782,-50.2 782,-41.45"/>
<polygon fill="#63b8ff" stroke="#63b8ff" points="785.5,-41.63 782,-31.63 778.5,-41.63 785.5,-41.63"/>
</g>
<!-- Node23&#45;&gt;Node13 -->
<g id="edge12" class="edge">
<title>Node23&#45;&gt;Node13</title>
<path fill="none" stroke="#63b8ff" d="M316.31,-186.66C321.4,-168.11 333.08,-136.37 356,-121 415.92,-80.81 629.8,-75.98 729.79,-76"/>
<polygon fill="#63b8ff" stroke="#63b8ff" points="729.59,-79.5 739.6,-76.02 729.6,-72.5 729.59,-79.5"/>
</g>
<!-- Node24&#45;&gt;Node13 -->
<g id="edge17" class="edge">
<title>Node24&#45;&gt;Node13</title>
<path fill="none" stroke="#63b8ff" d="M193.12,-186.57C216.99,-177.18 248.19,-164.25 275,-151 298.92,-139.18 301.59,-129.15 327,-121 400.77,-97.34 626.64,-83.89 729.72,-78.83"/>
<polygon fill="#63b8ff" stroke="#63b8ff" points="729.74,-82.34 739.56,-78.36 729.41,-75.34 729.74,-82.34"/>
</g>
<!-- Node25 -->
<g id="node14" class="node">
<title>Node25</title>
<g id="a_node14"><a xlink:href="J3DShape_8h.html" target="_top" xlink:title=" ">
<polygon fill="#fff0f0" stroke="red" points="266,-151 142,-151 142,-121 266,-121 266,-151"/>
<text text-anchor="start" x="150" y="-139" font-family="Helvetica,sans-Serif" font-size="10.00">JSystem/J3DGraphBase</text>
<text text-anchor="middle" x="204" y="-128" font-family="Helvetica,sans-Serif" font-size="10.00">/J3DShape.h</text>
</a>
</g>
</g>
<!-- Node24&#45;&gt;Node25 -->
<g id="edge14" class="edge">
<title>Node24&#45;&gt;Node25</title>
<path fill="none" stroke="#63b8ff" d="M165.87,-186.8C171.84,-179.01 179.38,-169.16 186.18,-160.28"/>
<polygon fill="#63b8ff" stroke="#63b8ff" points="188.94,-162.43 192.24,-152.37 183.38,-158.18 188.94,-162.43"/>
</g>
<!-- Node25&#45;&gt;Node13 -->
<g id="edge16" class="edge">
<title>Node25&#45;&gt;Node13</title>
<path fill="none" stroke="#63b8ff" d="M266.45,-123.42C272.04,-122.54 277.62,-121.72 283,-121 445.3,-99.42 638.73,-85.52 729.75,-79.67"/>
<polygon fill="#63b8ff" stroke="#63b8ff" points="729.85,-83.17 739.61,-79.04 729.41,-76.18 729.85,-83.17"/>
</g>
<!-- Node28 -->
<g id="node15" class="node">
<title>Node28</title>
<g id="a_node15"><a xlink:href="GX_8h.html" target="_top" xlink:title=" ">
<polygon fill="#fff0f0" stroke="red" points="175.5,-85 90.5,-85 90.5,-66 175.5,-66 175.5,-85"/>
<text text-anchor="middle" x="133" y="-73" font-family="Helvetica,sans-Serif" font-size="10.00">dolphin/gx/GX.h</text>
</a>
</g>
</g>
<!-- Node25&#45;&gt;Node28 -->
<g id="edge15" class="edge">
<title>Node25&#45;&gt;Node28</title>
<path fill="none" stroke="#63b8ff" d="M186.45,-120.54C176.03,-111.96 162.82,-101.07 152.13,-92.26"/>
<polygon fill="#63b8ff" stroke="#63b8ff" points="154.64,-89.8 144.7,-86.14 150.19,-95.2 154.64,-89.8"/>
</g>
<!-- Node48&#45;&gt;Node13 -->
<g id="edge20" class="edge">
<title>Node48&#45;&gt;Node13</title>
<path fill="none" stroke="#63b8ff" d="M124.26,-122.26C127.21,-121.8 130.14,-121.38 133,-121 353.64,-91.8 619.18,-81.19 729.74,-77.85"/>
<polygon fill="#63b8ff" stroke="#63b8ff" points="729.79,-81.35 739.68,-77.55 729.58,-74.35 729.79,-81.35"/>
</g>
<!-- Node48&#45;&gt;Node28 -->
<g id="edge19" class="edge">
<title>Node48&#45;&gt;Node28</title>
<path fill="none" stroke="#63b8ff" d="M79.55,-120.54C89.97,-111.96 103.18,-101.07 113.87,-92.26"/>
<polygon fill="#63b8ff" stroke="#63b8ff" points="115.81,-95.2 121.3,-86.14 111.36,-89.8 115.81,-95.2"/>
</g>
<!-- Node49&#45;&gt;Node13 -->
<g id="edge24" class="edge">
<title>Node49&#45;&gt;Node13</title>
<path fill="none" stroke="#63b8ff" d="M607.52,-186.69C593.09,-169.6 574.25,-140.82 590,-121 607.18,-99.38 679.04,-87.33 729.78,-81.38"/>
<polygon fill="#63b8ff" stroke="#63b8ff" points="730.17,-84.86 739.72,-80.27 729.39,-77.9 730.17,-84.86"/>
</g>
<!-- Node12 -->
<g id="node18" class="node">
<title>Node12</title>
<g id="a_node18"><a xlink:href="vec_8h.html" target="_top" xlink:title=" ">
<polygon fill="white" stroke="#666666" points="1081,-145.5 989,-145.5 989,-126.5 1081,-126.5 1081,-145.5"/>
<text text-anchor="middle" x="1035" y="-133.5" font-family="Helvetica,sans-Serif" font-size="10.00">dolphin/mtx/vec.h</text>
</a>
</g>
</g>
<!-- Node49&#45;&gt;Node12 -->
<g id="edge22" class="edge">
<title>Node49&#45;&gt;Node12</title>
<path fill="none" stroke="#63b8ff" d="M683.43,-191.35C763.3,-179 900.54,-157.79 977.81,-145.84"/>
<polygon fill="#63b8ff" stroke="#63b8ff" points="977.92,-149.37 987.27,-144.38 976.85,-142.45 977.92,-149.37"/>
</g>
<!-- Node12&#45;&gt;Node13 -->
<g id="edge23" class="edge">
<title>Node12&#45;&gt;Node13</title>
<path fill="none" stroke="#63b8ff" d="M996.59,-126.02C989.42,-124.35 981.98,-122.62 975,-121 926.37,-109.72 870.83,-96.92 831.86,-87.96"/>
<polygon fill="#63b8ff" stroke="#63b8ff" points="832.83,-84.59 822.3,-85.76 831.26,-91.41 832.83,-84.59"/>
</g>
<!-- Node50&#45;&gt;Node13 -->
<g id="edge26" class="edge">
<title>Node50&#45;&gt;Node13</title>
<path fill="none" stroke="#63b8ff" d="M695.43,-120.54C713.47,-111.36 736.69,-99.55 754.54,-90.47"/>
<polygon fill="#63b8ff" stroke="#63b8ff" points="755.93,-93.69 763.26,-86.03 752.76,-87.45 755.93,-93.69"/>
</g>
<!-- Node35&#45;&gt;Node13 -->
<g id="edge28" class="edge">
<title>Node35&#45;&gt;Node13</title>
<path fill="none" stroke="#63b8ff" d="M763.89,-258.07C766.78,-229.13 775.92,-137.46 780,-96.55"/>
<polygon fill="#63b8ff" stroke="#63b8ff" points="783.47,-97 780.98,-86.7 776.51,-96.3 783.47,-97"/>
</g>
<!-- Node51&#45;&gt;Node13 -->
<g id="edge44" class="edge">
<title>Node51&#45;&gt;Node13</title>
<path fill="none" stroke="#63b8ff" d="M936.88,-439.65C933.74,-427.16 927.33,-403.81 919,-385 911.5,-368.06 906.91,-365.24 898,-349 882.13,-320.07 877.66,-313.04 864,-283 833.3,-215.49 802.46,-132.91 789.01,-95.97"/>
<polygon fill="#63b8ff" stroke="#63b8ff" points="792.35,-94.92 785.65,-86.71 785.77,-97.3 792.35,-94.92"/>
</g>
<!-- Node52 -->
<g id="node22" class="node">
<title>Node52</title>
<g id="a_node22"><a xlink:href="J2DTevs_8h.html" target="_top" xlink:title=" ">
<polygon fill="white" stroke="#666666" points="1118.5,-404 967.5,-404 967.5,-385 1118.5,-385 1118.5,-404"/>
<text text-anchor="middle" x="1043" y="-392" font-family="Helvetica,sans-Serif" font-size="10.00">JSystem/J2DGraph/J2DTevs.h</text>
</a>
</g>
</g>
<!-- Node51&#45;&gt;Node52 -->
<g id="edge31" class="edge">
<title>Node51&#45;&gt;Node52</title>
<path fill="none" stroke="#63b8ff" d="M956.64,-439.51C972.73,-431.31 996.75,-419.07 1015.37,-409.58"/>
<polygon fill="#63b8ff" stroke="#63b8ff" points="1016.95,-412.7 1024.27,-405.05 1013.77,-406.47 1016.95,-412.7"/>
</g>
<!-- Node53 -->
<g id="node28" class="node">
<title>Node53</title>
<g id="a_node28"><a xlink:href="TColor_8h.html" target="_top" xlink:title=" ">
<polygon fill="white" stroke="#666666" points="910.5,-404 783.5,-404 783.5,-385 910.5,-385 910.5,-404"/>
<text text-anchor="middle" x="847" y="-392" font-family="Helvetica,sans-Serif" font-size="10.00">JSystem/JUtility/TColor.h</text>
</a>
</g>
</g>
<!-- Node51&#45;&gt;Node53 -->
<g id="edge41" class="edge">
<title>Node51&#45;&gt;Node53</title>
<path fill="none" stroke="#63b8ff" d="M923.39,-439.51C909.3,-431.39 888.31,-419.3 871.9,-409.85"/>
<polygon fill="#63b8ff" stroke="#63b8ff" points="874.1,-407.07 863.69,-405.11 870.61,-413.14 874.1,-407.07"/>
</g>
<!-- Node30 -->
<g id="node23" class="node">
<title>Node30</title>
<g id="a_node23"><a xlink:href="GXEnum_8h.html" target="_top" xlink:title=" ">
<polygon fill="white" stroke="#666666" points="1093,-277.5 983,-277.5 983,-258.5 1093,-258.5 1093,-277.5"/>
<text text-anchor="middle" x="1038" y="-265.5" font-family="Helvetica,sans-Serif" font-size="10.00">dolphin/gx/GXEnum.h</text>
</a>
</g>
</g>
<!-- Node52&#45;&gt;Node30 -->
<g id="edge32" class="edge">
<title>Node52&#45;&gt;Node30</title>
<path fill="none" stroke="#63b8ff" d="M1042.64,-384.55C1041.84,-364.72 1039.91,-316.68 1038.81,-289.19"/>
<polygon fill="#63b8ff" stroke="#63b8ff" points="1042.32,-289.24 1038.42,-279.38 1035.32,-289.52 1042.32,-289.24"/>
</g>
<!-- Node19 -->
<g id="node24" class="node">
<title>Node19</title>
<g id="a_node24"><a xlink:href="mtxvec_8h.html" target="_top" xlink:title=" ">
<polygon fill="white" stroke="#666666" points="1015,-343.5 907,-343.5 907,-324.5 1015,-324.5 1015,-343.5"/>
<text text-anchor="middle" x="961" y="-331.5" font-family="Helvetica,sans-Serif" font-size="10.00">dolphin/mtx/mtxvec.h</text>
</a>
</g>
</g>
<!-- Node52&#45;&gt;Node19 -->
<g id="edge34" class="edge">
<title>Node52&#45;&gt;Node19</title>
<path fill="none" stroke="#63b8ff" d="M1030.55,-384.62C1017.9,-375.6 998.07,-361.45 982.81,-350.56"/>
<polygon fill="#63b8ff" stroke="#63b8ff" points="984.98,-347.81 974.8,-344.85 980.91,-353.5 984.98,-347.81"/>
</g>
<!-- Node30&#45;&gt;Node13 -->
<g id="edge33" class="edge">
<title>Node30&#45;&gt;Node13</title>
<path fill="none" stroke="#63b8ff" d="M1046.34,-258.34C1068.86,-233.92 1126.81,-163.51 1090,-121 1057.51,-83.48 913.03,-76.9 834.03,-76.17"/>
<polygon fill="#63b8ff" stroke="#63b8ff" points="834.41,-72.67 824.39,-76.11 834.36,-79.67 834.41,-72.67"/>
</g>
<!-- Node20 -->
<g id="node25" class="node">
<title>Node20</title>
<g id="a_node25"><a xlink:href="mtx_8h.html" target="_top" xlink:title=" ">
<polygon fill="white" stroke="#666666" points="965,-277.5 873,-277.5 873,-258.5 965,-258.5 965,-277.5"/>
<text text-anchor="middle" x="919" y="-265.5" font-family="Helvetica,sans-Serif" font-size="10.00">dolphin/mtx/mtx.h</text>
</a>
</g>
</g>
<!-- Node19&#45;&gt;Node20 -->
<g id="edge35" class="edge">
<title>Node19&#45;&gt;Node20</title>
<path fill="none" stroke="#63b8ff" d="M955.16,-324.1C948.95,-314.64 938.97,-299.42 931.06,-287.37"/>
<polygon fill="#63b8ff" stroke="#63b8ff" points="934.03,-285.53 925.62,-279.09 928.18,-289.37 934.03,-285.53"/>
</g>
<!-- Node20&#45;&gt;Node13 -->
<g id="edge40" class="edge">
<title>Node20&#45;&gt;Node13</title>
<path fill="none" stroke="#63b8ff" d="M921.06,-258.23C927.95,-228.39 949.37,-132.03 941,-121 927.98,-103.83 875.4,-91.48 834.22,-84.21"/>
<polygon fill="#63b8ff" stroke="#63b8ff" points="834.89,-80.77 824.45,-82.55 833.72,-87.67 834.89,-80.77"/>
</g>
<!-- Node21 -->
<g id="node26" class="node">
<title>Node21</title>
<g id="a_node26"><a xlink:href="mtx44_8h.html" target="_top" xlink:title=" ">
<polygon fill="white" stroke="#666666" points="932.5,-145.5 829.5,-145.5 829.5,-126.5 932.5,-126.5 932.5,-145.5"/>
<text text-anchor="middle" x="881" y="-133.5" font-family="Helvetica,sans-Serif" font-size="10.00">dolphin/mtx/mtx44.h</text>
</a>
</g>
</g>
<!-- Node20&#45;&gt;Node21 -->
<g id="edge36" class="edge">
<title>Node20&#45;&gt;Node21</title>
<path fill="none" stroke="#63b8ff" d="M916.39,-258.06C910.31,-237.28 895.12,-185.31 886.75,-156.68"/>
<polygon fill="#63b8ff" stroke="#63b8ff" points="890.22,-156.07 884.05,-147.45 883.5,-158.03 890.22,-156.07"/>
</g>
<!-- Node22 -->
<g id="node27" class="node">
<title>Node22</title>
<g id="a_node27"><a xlink:href="quat_8h.html" target="_top" xlink:title=" ">
<polygon fill="white" stroke="#666666" points="1042.5,-211.5 947.5,-211.5 947.5,-192.5 1042.5,-192.5 1042.5,-211.5"/>
<text text-anchor="middle" x="995" y="-199.5" font-family="Helvetica,sans-Serif" font-size="10.00">dolphin/mtx/quat.h</text>
</a>
</g>
</g>
<!-- Node20&#45;&gt;Node22 -->
<g id="edge38" class="edge">
<title>Node20&#45;&gt;Node22</title>
<path fill="none" stroke="#63b8ff" d="M929.57,-258.1C941.48,-248.07 961.09,-231.56 975.74,-219.22"/>
<polygon fill="#63b8ff" stroke="#63b8ff" points="977.97,-221.92 983.36,-212.8 973.46,-216.56 977.97,-221.92"/>
</g>
<!-- Node21&#45;&gt;Node13 -->
<g id="edge37" class="edge">
<title>Node21&#45;&gt;Node13</title>
<path fill="none" stroke="#63b8ff" d="M865.96,-126.12C850.34,-116.88 825.61,-102.27 807.03,-91.29"/>
<polygon fill="#63b8ff" stroke="#63b8ff" points="808.87,-88.31 798.48,-86.24 805.31,-94.34 808.87,-88.31"/>
</g>
<!-- Node22&#45;&gt;Node12 -->
<g id="edge39" class="edge">
<title>Node22&#45;&gt;Node12</title>
<path fill="none" stroke="#63b8ff" d="M1000.56,-192.1C1006.47,-182.64 1015.99,-167.42 1023.52,-155.37"/>
<polygon fill="#63b8ff" stroke="#63b8ff" points="1026.35,-157.44 1028.68,-147.11 1020.42,-153.73 1026.35,-157.44"/>
</g>
<!-- Node34 -->
<g id="node29" class="node">
<title>Node34</title>
<g id="a_node29"><a xlink:href="GXStruct_8h.html" target="_top" xlink:title=" ">
<polygon fill="white" stroke="#666666" points="812.5,-343.5 701.5,-343.5 701.5,-324.5 812.5,-324.5 812.5,-343.5"/>
<text text-anchor="middle" x="757" y="-331.5" font-family="Helvetica,sans-Serif" font-size="10.00">dolphin/gx/GXStruct.h</text>
</a>
</g>
</g>
<!-- Node53&#45;&gt;Node34 -->
<g id="edge42" class="edge">
<title>Node53&#45;&gt;Node34</title>
<path fill="none" stroke="#63b8ff" d="M833.33,-384.62C819.19,-375.42 796.86,-360.91 779.99,-349.94"/>
<polygon fill="#63b8ff" stroke="#63b8ff" points="782.36,-347.31 772.07,-344.79 778.54,-353.18 782.36,-347.31"/>
</g>
<!-- Node34&#45;&gt;Node35 -->
<g id="edge43" class="edge">
<title>Node34&#45;&gt;Node35</title>
<path fill="none" stroke="#63b8ff" d="M757.83,-324.1C758.68,-315.12 760.01,-300.95 761.1,-289.22"/>
<polygon fill="#63b8ff" stroke="#63b8ff" points="764.58,-289.61 762.03,-279.33 757.61,-288.96 764.58,-289.61"/>
</g>
<!-- Node54&#45;&gt;Node30 -->
<g id="edge55" class="edge">
<title>Node54&#45;&gt;Node30</title>
<path fill="none" stroke="#63b8ff" d="M1143.04,-324.1C1122.82,-313.5 1088.8,-295.65 1064.97,-283.15"/>
<polygon fill="#63b8ff" stroke="#63b8ff" points="1066.64,-280.07 1056.16,-278.53 1063.39,-286.27 1066.64,-280.07"/>
</g>
<!-- Node54&#45;&gt;Node20 -->
<g id="edge56" class="edge">
<title>Node54&#45;&gt;Node20</title>
<path fill="none" stroke="#63b8ff" d="M1126.24,-324.03C1083.75,-312.75 1010.66,-293.34 963.61,-280.85"/>
<polygon fill="#63b8ff" stroke="#63b8ff" points="964.56,-277.48 954,-278.29 962.76,-284.24 964.56,-277.48"/>
</g>
<!-- Node11 -->
<g id="node31" class="node">
<title>Node11</title>
<g id="a_node31"><a xlink:href="JGeometry_8h.html" target="_top" xlink:title=" ">
<polygon fill="white" stroke="#666666" points="1224.5,-277.5 1111.5,-277.5 1111.5,-258.5 1224.5,-258.5 1224.5,-277.5"/>
<text text-anchor="middle" x="1168" y="-265.5" font-family="Helvetica,sans-Serif" font-size="10.00">JSystem/JGeometry.h</text>
</a>
</g>
</g>
<!-- Node54&#45;&gt;Node11 -->
<g id="edge46" class="edge">
<title>Node54&#45;&gt;Node11</title>
<path fill="none" stroke="#63b8ff" d="M1161.11,-324.1C1162.23,-315.12 1164.01,-300.95 1165.47,-289.22"/>
<polygon fill="#63b8ff" stroke="#63b8ff" points="1168.94,-289.68 1166.71,-279.33 1162,-288.81 1168.94,-289.68"/>
</g>
<!-- Node55 -->
<g id="node36" class="node">
<title>Node55</title>
<g id="a_node36"><a xlink:href="JSUList_8h.html" target="_top" xlink:title=" ">
<polygon fill="white" stroke="#666666" points="1385.5,-277.5 1242.5,-277.5 1242.5,-258.5 1385.5,-258.5 1385.5,-277.5"/>
<text text-anchor="middle" x="1314" y="-265.5" font-family="Helvetica,sans-Serif" font-size="10.00">JSystem/JSupport/JSUList.h</text>
</a>
</g>
</g>
<!-- Node54&#45;&gt;Node55 -->
<g id="edge53" class="edge">
<title>Node54&#45;&gt;Node55</title>
<path fill="none" stroke="#63b8ff" d="M1181.41,-324.1C1207.62,-313.21 1252.21,-294.68 1282.37,-282.14"/>
<polygon fill="#63b8ff" stroke="#63b8ff" points="1283.48,-285.47 1291.37,-278.4 1280.79,-279.01 1283.48,-285.47"/>
</g>
<!-- Node11&#45;&gt;Node12 -->
<g id="edge47" class="edge">
<title>Node11&#45;&gt;Node12</title>
<path fill="none" stroke="#63b8ff" d="M1158.86,-258.06C1136.84,-236.54 1080.58,-181.55 1052.09,-153.7"/>
<polygon fill="#63b8ff" stroke="#63b8ff" points="1054.89,-151.54 1045.29,-147.06 1049.99,-156.55 1054.89,-151.54"/>
</g>
<!-- Node15 -->
<g id="node32" class="node">
<title>Node15</title>
<g id="a_node32"><a xlink:href="float_8h.html" target="_top" xlink:title=" ">
<polygon fill="white" stroke="#666666" points="1215,-211.5 1137,-211.5 1137,-192.5 1215,-192.5 1215,-211.5"/>
<text text-anchor="middle" x="1176" y="-199.5" font-family="Helvetica,sans-Serif" font-size="10.00">MSL_C/float.h</text>
</a>
</g>
</g>
<!-- Node11&#45;&gt;Node15 -->
<g id="edge48" class="edge">
<title>Node11&#45;&gt;Node15</title>
<path fill="none" stroke="#63b8ff" d="M1169.11,-258.1C1170.23,-249.12 1172.01,-234.95 1173.47,-223.22"/>
<polygon fill="#63b8ff" stroke="#63b8ff" points="1176.94,-223.68 1174.71,-213.33 1170,-222.81 1176.94,-223.68"/>
</g>
<!-- Node18 -->
<g id="node35" class="node">
<title>Node18</title>
<g id="a_node35"><a xlink:href="math_8h.html" target="_top" xlink:title=" ">
<polygon fill="white" stroke="#666666" points="1315,-211.5 1233,-211.5 1233,-192.5 1315,-192.5 1315,-211.5"/>
<text text-anchor="middle" x="1274" y="-199.5" font-family="Helvetica,sans-Serif" font-size="10.00">MSL_C/math.h</text>
</a>
</g>
</g>
<!-- Node11&#45;&gt;Node18 -->
<g id="edge51" class="edge">
<title>Node11&#45;&gt;Node18</title>
<path fill="none" stroke="#63b8ff" d="M1182.74,-258.1C1200.06,-247.64 1229.07,-230.13 1249.73,-217.66"/>
<polygon fill="#63b8ff" stroke="#63b8ff" points="1251.34,-220.77 1258.09,-212.61 1247.72,-214.78 1251.34,-220.77"/>
</g>
<!-- Node16 -->
<g id="node33" class="node">
<title>Node16</title>
<g id="a_node33"><a xlink:href="MSL__Common_2Src_2float_8h.html" target="_top" xlink:title=" ">
<polygon fill="white" stroke="#666666" points="1294,-151 1158,-151 1158,-121 1294,-121 1294,-151"/>
<text text-anchor="start" x="1166" y="-139" font-family="Helvetica,sans-Serif" font-size="10.00">MSL_C/MSL_Common/Src</text>
<text text-anchor="middle" x="1226" y="-128" font-family="Helvetica,sans-Serif" font-size="10.00">/float.h</text>
</a>
</g>
</g>
<!-- Node15&#45;&gt;Node16 -->
<g id="edge49" class="edge">
<title>Node15&#45;&gt;Node16</title>
<path fill="none" stroke="#63b8ff" d="M1182.95,-192.1C1189.41,-183.84 1199.3,-171.17 1207.98,-160.06"/>
<polygon fill="#63b8ff" stroke="#63b8ff" points="1210.55,-162.46 1213.95,-152.43 1205.03,-158.15 1210.55,-162.46"/>
</g>
<!-- Node17 -->
<g id="node34" class="node">
<title>Node17</title>
<g id="a_node34"><a xlink:href="fdlibm_8h.html" target="_top" xlink:title=" ">
<polygon fill="white" stroke="#666666" points="1251,-85 1201,-85 1201,-66 1251,-66 1251,-85"/>
<text text-anchor="middle" x="1226" y="-73" font-family="Helvetica,sans-Serif" font-size="10.00">fdlibm.h</text>
</a>
</g>
</g>
<!-- Node16&#45;&gt;Node17 -->
<g id="edge50" class="edge">
<title>Node16&#45;&gt;Node17</title>
<path fill="none" stroke="#63b8ff" d="M1226,-120.54C1226,-113.34 1226,-104.53 1226,-96.68"/>
<polygon fill="#63b8ff" stroke="#63b8ff" points="1229.5,-96.69 1226,-86.69 1222.5,-96.69 1229.5,-96.69"/>
</g>
<!-- Node18&#45;&gt;Node16 -->
<g id="edge52" class="edge">
<title>Node18&#45;&gt;Node16</title>
<path fill="none" stroke="#63b8ff" d="M1267.33,-192.1C1261.19,-183.92 1251.82,-171.42 1243.55,-160.4"/>
<polygon fill="#63b8ff" stroke="#63b8ff" points="1246.38,-158.34 1237.58,-152.44 1240.78,-162.54 1246.38,-158.34"/>
</g>
<!-- Node55&#45;&gt;Node13 -->
<g id="edge54" class="edge">
<title>Node55&#45;&gt;Node13</title>
<path fill="none" stroke="#63b8ff" d="M1316.98,-258.16C1325.21,-231.95 1344.91,-154.47 1303,-121 1266.92,-92.19 959.17,-81.07 834.31,-77.71"/>
<polygon fill="#63b8ff" stroke="#63b8ff" points="834.41,-74.21 824.33,-77.45 834.23,-81.21 834.41,-74.21"/>
</g>
<!-- Node56&#45;&gt;Node30 -->
<g id="edge59" class="edge">
<title>Node56&#45;&gt;Node30</title>
<path fill="none" stroke="#63b8ff" d="M718.26,-384.54C744.64,-375.78 785.71,-361.91 821,-349 855.49,-336.38 863.59,-331.84 898,-319 933.01,-305.93 973.2,-291.65 1001.51,-281.71"/>
<polygon fill="#63b8ff" stroke="#63b8ff" points="1002.41,-285.11 1010.69,-278.5 1000.09,-278.5 1002.41,-285.11"/>
</g>
<!-- Node56&#45;&gt;Node34 -->
<g id="edge60" class="edge">
<title>Node56&#45;&gt;Node34</title>
<path fill="none" stroke="#63b8ff" d="M701.02,-384.62C710.91,-375.85 726.26,-362.25 738.38,-351.5"/>
<polygon fill="#63b8ff" stroke="#63b8ff" points="740.59,-354.22 745.75,-344.97 735.94,-348.99 740.59,-354.22"/>
</g>
<!-- Node58 -->
<g id="node39" class="node">
<title>Node58</title>
<g id="a_node39"><a xlink:href="JSUInputStream_8h.html" target="_top" xlink:title=" ">
<polygon fill="white" stroke="#666666" points="1588.5,-580 1447.5,-580 1447.5,-550 1588.5,-550 1588.5,-580"/>
<text text-anchor="start" x="1455.5" y="-568" font-family="Helvetica,sans-Serif" font-size="10.00">JSystem/JSupport/JSUInput</text>
<text text-anchor="middle" x="1518" y="-557" font-family="Helvetica,sans-Serif" font-size="10.00">Stream.h</text>
</a>
</g>
</g>
<!-- Node57&#45;&gt;Node58 -->
<g id="edge62" class="edge">
<title>Node57&#45;&gt;Node58</title>
<path fill="none" stroke="#63b8ff" d="M1446.97,-626.54C1459.87,-615.54 1477.84,-600.23 1492.48,-587.75"/>
<polygon fill="#63b8ff" stroke="#63b8ff" points="1494.59,-590.55 1499.93,-581.4 1490.05,-585.22 1494.59,-590.55"/>
</g>
<!-- Node59 -->
<g id="node40" class="node">
<title>Node59</title>
<g id="a_node40"><a xlink:href="JSUIosBase_8h.html" target="_top" xlink:title=" ">
<polygon fill="white" stroke="#666666" points="1605.5,-459 1442.5,-459 1442.5,-440 1605.5,-440 1605.5,-459"/>
<text text-anchor="middle" x="1524" y="-447" font-family="Helvetica,sans-Serif" font-size="10.00">JSystem/JSupport/JSUIosBase.h</text>
</a>
</g>
</g>
<!-- Node58&#45;&gt;Node59 -->
<g id="edge63" class="edge">
<title>Node58&#45;&gt;Node59</title>
<path fill="none" stroke="#63b8ff" d="M1518.76,-549.63C1519.82,-529.59 1521.74,-493.17 1522.94,-470.49"/>
<polygon fill="#63b8ff" stroke="#63b8ff" points="1526.43,-470.91 1523.46,-460.74 1519.44,-470.54 1526.43,-470.91"/>
</g>
<!-- Node59&#45;&gt;Node13 -->
<g id="edge64" class="edge">
<title>Node59&#45;&gt;Node13</title>
<path fill="none" stroke="#63b8ff" d="M1519.14,-439.68C1509.32,-420.98 1488,-375.72 1488,-335 1488,-335 1488,-335 1488,-201 1488,-156.56 1467.05,-142.23 1428,-121 1376.38,-92.93 978.15,-81.03 833.93,-77.61"/>
<polygon fill="#63b8ff" stroke="#63b8ff" points="834.37,-74.12 824.3,-77.38 834.21,-81.12 834.37,-74.12"/>
</g>
</g>
</svg>
