<?xml version="1.0" encoding="UTF-8" standalone="no"?>
<!DOCTYPE svg PUBLIC "-//W3C//DTD SVG 1.1//EN"
 "http://www.w3.org/Graphics/SVG/1.1/DTD/svg11.dtd">
<!-- Generated by graphviz version 7.0.5 (20221223.1930)
 -->
<!-- Title: libs/JSystem/J3DGraphLoader/J3DClusterLoader.cpp Pages: 1 -->
<!--zoomable 423 -->
<svg id="main" version="1.1" xmlns="http://www.w3.org/2000/svg" xmlns:xlink="http://www.w3.org/1999/xlink" xml:space="preserve" onload="init(evt)">
<style type="text/css"><![CDATA[
.edge:hover path { stroke: red; }
.edge:hover polygon { stroke: red; fill: red; }
]]></style>
<script type="text/javascript"><![CDATA[
var edges = document.getElementsByTagName('g');
if (edges && edges.length) {
  for (var i=0;i<edges.length;i++) {
    if (edges[i].id.substr(0,4)=='edge') {
      edges[i].setAttribute('class','edge');
    }
  }
}
]]></script>
        <defs>
                <circle id="rim" cx="0" cy="0" r="7"/>
                <circle id="rim2" cx="0" cy="0" r="3.5"/>
                <g id="zoomPlus">
                        <use xlink:href="#rim" fill="#404040">
                                <set attributeName="fill" to="#808080" begin="zoomplus.mouseover" end="zoomplus.mouseout"/>
                        </use>
                        <path d="M-4,0h8M0,-4v8" fill="none" stroke="white" stroke-width="1.5" pointer-events="none"/>
                </g>
                <g id="zoomMin">
                        <use xlink:href="#rim" fill="#404040">
                                <set attributeName="fill" to="#808080" begin="zoomminus.mouseover" end="zoomminus.mouseout"/>
                        </use>
                        <path d="M-4,0h8" fill="none" stroke="white" stroke-width="1.5" pointer-events="none"/>
                </g>
                <g id="dirArrow">
                        <path fill="none" stroke="white" stroke-width="1.5" d="M0,-3.0v7 M-2.5,-0.5L0,-3.0L2.5,-0.5"/>
                </g>
               <g id="resetDef">
                       <use xlink:href="#rim2" fill="#404040">
                               <set attributeName="fill" to="#808080" begin="reset.mouseover" end="reset.mouseout"/>
                       </use>
               </g>
        </defs>

<script type="text/javascript">
var viewWidth = 2612;
var viewHeight = 423;
var sectionId = 'dynsection-0';
</script>
<script xlink:href="svgpan.js"/>
<svg id="graph" class="graph">
<g id="viewport">
<title>libs/JSystem/J3DGraphLoader/J3DClusterLoader.cpp</title>
<!-- Node1 -->
<g id="node1" class="node">
<title>Node1</title>
<g id="a_node1"><a xlink:title=" ">
<polygon fill="#999999" stroke="#666666" points="1524.5,-415 1375.5,-415 1375.5,-385 1524.5,-385 1524.5,-415"/>
<text text-anchor="start" x="1383.5" y="-403" font-family="Helvetica,sans-Serif" font-size="10.00">libs/JSystem/J3DGraphLoader</text>
<text text-anchor="middle" x="1450" y="-392" font-family="Helvetica,sans-Serif" font-size="10.00">/J3DClusterLoader.cpp</text>
</a>
</g>
</g>
<!-- Node2 -->
<g id="node2" class="node">
<title>Node2</title>
<g id="a_node2"><a xlink:href="J3DClusterLoader_8h.html" target="_top" xlink:title=" ">
<polygon fill="white" stroke="#666666" points="709.5,-338 578.5,-338 578.5,-308 709.5,-308 709.5,-338"/>
<text text-anchor="start" x="586.5" y="-326" font-family="Helvetica,sans-Serif" font-size="10.00">JSystem/J3DGraphLoader</text>
<text text-anchor="middle" x="644" y="-315" font-family="Helvetica,sans-Serif" font-size="10.00">/J3DClusterLoader.h</text>
</a>
</g>
</g>
<!-- Node1&#45;&gt;Node2 -->
<g id="edge1" class="edge">
<title>Node1&#45;&gt;Node2</title>
<path fill="none" stroke="#63b8ff" d="M1375.17,-396.33C1214.73,-390.22 842.13,-373.78 718,-349 709.3,-347.26 700.22,-344.78 691.52,-342.05"/>
<polygon fill="#63b8ff" stroke="#63b8ff" points="692.79,-338.79 682.19,-338.97 690.59,-345.43 692.79,-338.79"/>
</g>
<!-- Node3 -->
<g id="node3" class="node">
<title>Node3</title>
<g id="a_node3"><a xlink:href="dol2asm_8h.html" target="_top" xlink:title=" ">
<polygon fill="white" stroke="#666666" points="788.5,-332.5 727.5,-332.5 727.5,-313.5 788.5,-313.5 788.5,-332.5"/>
<text text-anchor="middle" x="758" y="-320.5" font-family="Helvetica,sans-Serif" font-size="10.00">dol2asm.h</text>
</a>
</g>
</g>
<!-- Node1&#45;&gt;Node3 -->
<g id="edge2" class="edge">
<title>Node1&#45;&gt;Node3</title>
<path fill="none" stroke="#63b8ff" d="M1375.06,-397.74C1227.24,-394.51 903.29,-383.61 798,-349 791.12,-346.74 784.22,-343.06 778.14,-339.21"/>
<polygon fill="#63b8ff" stroke="#63b8ff" points="780.29,-336.44 770.06,-333.65 776.32,-342.2 780.29,-336.44"/>
</g>
<!-- Node4 -->
<g id="node4" class="node">
<title>Node4</title>
<g id="a_node4"><a xlink:href="OS_8h.html" target="_top" xlink:title=" ">
<polygon fill="white" stroke="#666666" points="893,-332.5 807,-332.5 807,-313.5 893,-313.5 893,-332.5"/>
<text text-anchor="middle" x="850" y="-320.5" font-family="Helvetica,sans-Serif" font-size="10.00">dolphin/os/OS.h</text>
</a>
</g>
</g>
<!-- Node1&#45;&gt;Node4 -->
<g id="edge3" class="edge">
<title>Node1&#45;&gt;Node4</title>
<path fill="none" stroke="#63b8ff" d="M1375.18,-395.47C1246.58,-388.86 989.08,-373.06 902,-349 892.87,-346.48 883.39,-342.41 875.06,-338.28"/>
<polygon fill="#63b8ff" stroke="#63b8ff" points="876.73,-335.2 866.25,-333.64 873.47,-341.39 876.73,-335.2"/>
</g>
<!-- Node30 -->
<g id="node30" class="node">
<title>Node30</title>
<g id="a_node30"><a xlink:title=" ">
<polygon fill="#e0e0e0" stroke="#999999" points="1096.5,-343.5 911.5,-343.5 911.5,-302.5 1096.5,-302.5 1096.5,-343.5"/>
<text text-anchor="start" x="919.5" y="-331.5" font-family="Helvetica,sans-Serif" font-size="10.00">asm/JSystem/J3DGraphLoader</text>
<text text-anchor="start" x="919.5" y="-320.5" font-family="Helvetica,sans-Serif" font-size="10.00">/J3DClusterLoader/load_</text>
<text text-anchor="middle" x="1004" y="-309.5" font-family="Helvetica,sans-Serif" font-size="10.00">_24J3DClusterLoaderDataBaseFPCv.s</text>
</a>
</g>
</g>
<!-- Node1&#45;&gt;Node30 -->
<g id="edge50" class="edge">
<title>Node1&#45;&gt;Node30</title>
<path fill="none" stroke="#63b8ff" d="M1375.28,-390.33C1305.15,-381.69 1197.51,-367.11 1105,-349 1100.9,-348.2 1096.72,-347.34 1092.51,-346.43"/>
<polygon fill="#63b8ff" stroke="#63b8ff" points="1093.3,-343.03 1082.78,-344.29 1091.79,-349.86 1093.3,-343.03"/>
</g>
<!-- Node31 -->
<g id="node31" class="node">
<title>Node31</title>
<g id="a_node31"><a xlink:title=" ">
<polygon fill="#e0e0e0" stroke="#999999" points="1267.5,-343.5 1114.5,-343.5 1114.5,-302.5 1267.5,-302.5 1267.5,-343.5"/>
<text text-anchor="start" x="1122.5" y="-331.5" font-family="Helvetica,sans-Serif" font-size="10.00">asm/JSystem/J3DGraphLoader</text>
<text text-anchor="start" x="1122.5" y="-320.5" font-family="Helvetica,sans-Serif" font-size="10.00">/J3DClusterLoader/__ct_</text>
<text text-anchor="middle" x="1191" y="-309.5" font-family="Helvetica,sans-Serif" font-size="10.00">_20J3DClusterLoader_v15Fv.s</text>
</a>
</g>
</g>
<!-- Node1&#45;&gt;Node31 -->
<g id="edge51" class="edge">
<title>Node1&#45;&gt;Node31</title>
<path fill="none" stroke="#63b8ff" d="M1399.34,-384.53C1364.62,-374.59 1317.5,-361.07 1276,-349 1273.9,-348.39 1271.76,-347.77 1269.61,-347.14"/>
<polygon fill="#63b8ff" stroke="#63b8ff" points="1270.76,-343.83 1260.18,-344.39 1268.8,-350.55 1270.76,-343.83"/>
</g>
<!-- Node32 -->
<g id="node32" class="node">
<title>Node32</title>
<g id="a_node32"><a xlink:title=" ">
<polygon fill="#e0e0e0" stroke="#999999" points="1438.5,-343.5 1285.5,-343.5 1285.5,-302.5 1438.5,-302.5 1438.5,-343.5"/>
<text text-anchor="start" x="1293.5" y="-331.5" font-family="Helvetica,sans-Serif" font-size="10.00">asm/JSystem/J3DGraphLoader</text>
<text text-anchor="start" x="1293.5" y="-320.5" font-family="Helvetica,sans-Serif" font-size="10.00">/J3DClusterLoader/__dt_</text>
<text text-anchor="middle" x="1362" y="-309.5" font-family="Helvetica,sans-Serif" font-size="10.00">_20J3DClusterLoader_v15Fv.s</text>
</a>
</g>
</g>
<!-- Node1&#45;&gt;Node32 -->
<g id="edge52" class="edge">
<title>Node1&#45;&gt;Node32</title>
<path fill="none" stroke="#63b8ff" d="M1433.03,-384.54C1421.89,-375.04 1406.97,-362.32 1393.68,-351"/>
<polygon fill="#63b8ff" stroke="#63b8ff" points="1396.27,-348.61 1386.39,-344.79 1391.73,-353.94 1396.27,-348.61"/>
</g>
<!-- Node33 -->
<g id="node33" class="node">
<title>Node33</title>
<g id="a_node33"><a xlink:title=" ">
<polygon fill="#e0e0e0" stroke="#999999" points="1621,-343.5 1457,-343.5 1457,-302.5 1621,-302.5 1621,-343.5"/>
<text text-anchor="start" x="1465" y="-331.5" font-family="Helvetica,sans-Serif" font-size="10.00">asm/JSystem/J3DGraphLoader</text>
<text text-anchor="start" x="1465" y="-320.5" font-family="Helvetica,sans-Serif" font-size="10.00">/J3DClusterLoader/load_</text>
<text text-anchor="middle" x="1539" y="-309.5" font-family="Helvetica,sans-Serif" font-size="10.00">_20J3DClusterLoader_v15FPCv.s</text>
</a>
</g>
</g>
<!-- Node1&#45;&gt;Node33 -->
<g id="edge53" class="edge">
<title>Node1&#45;&gt;Node33</title>
<path fill="none" stroke="#63b8ff" d="M1467.16,-384.54C1478.43,-375.04 1493.52,-362.32 1506.96,-351"/>
<polygon fill="#63b8ff" stroke="#63b8ff" points="1508.95,-353.9 1514.34,-344.78 1504.44,-348.55 1508.95,-353.9"/>
</g>
<!-- Node34 -->
<g id="node34" class="node">
<title>Node34</title>
<g id="a_node34"><a xlink:title=" ">
<polygon fill="#e0e0e0" stroke="#999999" points="1854.5,-349 1639.5,-349 1639.5,-297 1854.5,-297 1854.5,-349"/>
<text text-anchor="start" x="1647.5" y="-337" font-family="Helvetica,sans-Serif" font-size="10.00">asm/JSystem/J3DGraphLoader</text>
<text text-anchor="start" x="1647.5" y="-326" font-family="Helvetica,sans-Serif" font-size="10.00">/J3DClusterLoader/readCluster</text>
<text text-anchor="start" x="1647.5" y="-315" font-family="Helvetica,sans-Serif" font-size="10.00">__20J3DClusterLoader_v15FPC15J3DCluster</text>
<text text-anchor="middle" x="1747" y="-304" font-family="Helvetica,sans-Serif" font-size="10.00">Block.s</text>
</a>
</g>
</g>
<!-- Node1&#45;&gt;Node34 -->
<g id="edge54" class="edge">
<title>Node1&#45;&gt;Node34</title>
<path fill="none" stroke="#63b8ff" d="M1507.26,-384.54C1543.55,-375.38 1591.7,-363.22 1635.32,-352.2"/>
<polygon fill="#63b8ff" stroke="#63b8ff" points="1636,-355.64 1644.84,-349.8 1634.29,-348.85 1636,-355.64"/>
</g>
<!-- Node35 -->
<g id="node35" class="node">
<title>Node35</title>
<g id="a_node35"><a xlink:title=" ">
<polygon fill="#e0e0e0" stroke="#999999" points="2025.5,-343.5 1872.5,-343.5 1872.5,-302.5 2025.5,-302.5 2025.5,-343.5"/>
<text text-anchor="start" x="1880.5" y="-331.5" font-family="Helvetica,sans-Serif" font-size="10.00">asm/JSystem/J3DGraphLoader</text>
<text text-anchor="start" x="1880.5" y="-320.5" font-family="Helvetica,sans-Serif" font-size="10.00">/J3DClusterLoader/__dt_</text>
<text text-anchor="middle" x="1949" y="-309.5" font-family="Helvetica,sans-Serif" font-size="10.00">_16J3DClusterLoaderFv.s</text>
</a>
</g>
</g>
<!-- Node1&#45;&gt;Node35 -->
<g id="edge55" class="edge">
<title>Node1&#45;&gt;Node35</title>
<path fill="none" stroke="#63b8ff" d="M1524.64,-393.73C1608,-386.99 1746.65,-373.17 1864,-349 1867.36,-348.31 1870.77,-347.55 1874.21,-346.74"/>
<polygon fill="#63b8ff" stroke="#63b8ff" points="1874.91,-350.17 1883.77,-344.35 1873.22,-343.38 1874.91,-350.17"/>
</g>
<!-- Node36 -->
<g id="node36" class="node">
<title>Node36</title>
<g id="a_node36"><a xlink:title=" ">
<polygon fill="#e0e0e0" stroke="#999999" points="2218,-338 2044,-338 2044,-308 2218,-308 2218,-338"/>
<text text-anchor="start" x="2052" y="-326" font-family="Helvetica,sans-Serif" font-size="10.00">asm/JSystem/J3DGraphLoader</text>
<text text-anchor="middle" x="2131" y="-315" font-family="Helvetica,sans-Serif" font-size="10.00">/J3DClusterLoader/func_80334644.s</text>
</a>
</g>
</g>
<!-- Node1&#45;&gt;Node36 -->
<g id="edge56" class="edge">
<title>Node1&#45;&gt;Node36</title>
<path fill="none" stroke="#63b8ff" d="M1524.85,-396.66C1636.62,-392.25 1853.41,-380.17 2035,-349 2046.71,-346.99 2059.07,-344.25 2070.89,-341.32"/>
<polygon fill="#63b8ff" stroke="#63b8ff" points="2071.73,-344.71 2080.55,-338.84 2070,-337.93 2071.73,-344.71"/>
</g>
<!-- Node37 -->
<g id="node37" class="node">
<title>Node37</title>
<g id="a_node37"><a xlink:title=" ">
<polygon fill="#e0e0e0" stroke="#999999" points="2412,-338 2236,-338 2236,-308 2412,-308 2412,-338"/>
<text text-anchor="start" x="2244" y="-326" font-family="Helvetica,sans-Serif" font-size="10.00">asm/JSystem/J3DGraphLoader</text>
<text text-anchor="middle" x="2324" y="-315" font-family="Helvetica,sans-Serif" font-size="10.00">/J3DClusterLoader/func_8033465C.s</text>
</a>
</g>
</g>
<!-- Node1&#45;&gt;Node37 -->
<g id="edge57" class="edge">
<title>Node1&#45;&gt;Node37</title>
<path fill="none" stroke="#63b8ff" d="M1524.98,-398.84C1664.2,-397.51 1971.71,-389.74 2227,-349 2239.23,-347.05 2252.16,-344.25 2264.45,-341.22"/>
<polygon fill="#63b8ff" stroke="#63b8ff" points="2265.24,-344.64 2274.06,-338.77 2263.51,-337.85 2265.24,-344.64"/>
</g>
<!-- Node38 -->
<g id="node38" class="node">
<title>Node38</title>
<g id="a_node38"><a xlink:title=" ">
<polygon fill="#e0e0e0" stroke="#999999" points="2604,-338 2430,-338 2430,-308 2604,-308 2604,-338"/>
<text text-anchor="start" x="2438" y="-326" font-family="Helvetica,sans-Serif" font-size="10.00">asm/JSystem/J3DGraphLoader</text>
<text text-anchor="middle" x="2517" y="-315" font-family="Helvetica,sans-Serif" font-size="10.00">/J3DClusterLoader/func_80334674.s</text>
</a>
</g>
</g>
<!-- Node1&#45;&gt;Node38 -->
<g id="edge58" class="edge">
<title>Node1&#45;&gt;Node38</title>
<path fill="none" stroke="#63b8ff" d="M1524.84,-397.12C1721.31,-391.85 2248.54,-375.61 2421,-349 2433.25,-347.11 2446.2,-344.31 2458.49,-341.25"/>
<polygon fill="#63b8ff" stroke="#63b8ff" points="2459.27,-344.66 2468.08,-338.78 2457.52,-337.89 2459.27,-344.66"/>
</g>
<!-- Node5 -->
<g id="node5" class="node">
<title>Node5</title>
<g id="a_node5"><a xlink:href="____va__arg_8h.html" target="_top" xlink:title=" ">
<polygon fill="white" stroke="#666666" points="110,-206 0,-206 0,-176 110,-176 110,-206"/>
<text text-anchor="start" x="8" y="-194" font-family="Helvetica,sans-Serif" font-size="10.00">Runtime.PPCEABI.H/</text>
<text text-anchor="middle" x="55" y="-183" font-family="Helvetica,sans-Serif" font-size="10.00">__va_arg.h</text>
</a>
</g>
</g>
<!-- Node4&#45;&gt;Node5 -->
<g id="edge4" class="edge">
<title>Node4&#45;&gt;Node5</title>
<path fill="none" stroke="#63b8ff" d="M835.26,-313.2C824.93,-307.51 810.59,-300.52 797,-297 560.7,-235.86 488.04,-310.37 249,-261 195.08,-249.86 135.82,-227.15 97.16,-210.82"/>
<polygon fill="#63b8ff" stroke="#63b8ff" points="98.79,-207.71 88.22,-207 96.03,-214.15 98.79,-207.71"/>
</g>
<!-- Node8 -->
<g id="node8" class="node">
<title>Node8</title>
<g id="a_node8"><a xlink:href="dvd_8h.html" target="_top" xlink:title=" ">
<polygon fill="white" stroke="#666666" points="220,-200.5 128,-200.5 128,-181.5 220,-181.5 220,-200.5"/>
<text text-anchor="middle" x="174" y="-188.5" font-family="Helvetica,sans-Serif" font-size="10.00">dolphin/dvd/dvd.h</text>
</a>
</g>
</g>
<!-- Node4&#45;&gt;Node8 -->
<g id="edge7" class="edge">
<title>Node4&#45;&gt;Node8</title>
<path fill="none" stroke="#63b8ff" d="M835.26,-313.23C824.92,-307.54 810.58,-300.56 797,-297 580.18,-240.23 508.34,-326.51 294,-261 256.16,-249.43 217.36,-224.21 194.49,-207.67"/>
<polygon fill="#63b8ff" stroke="#63b8ff" points="196.77,-205.01 186.65,-201.88 192.61,-210.64 196.77,-205.01"/>
</g>
<!-- Node9 -->
<g id="node9" class="node">
<title>Node9</title>
<g id="a_node9"><a xlink:href="OSAlarm_8h.html" target="_top" xlink:title=" ">
<polygon fill="white" stroke="#666666" points="431.5,-261 320.5,-261 320.5,-242 431.5,-242 431.5,-261"/>
<text text-anchor="middle" x="376" y="-249" font-family="Helvetica,sans-Serif" font-size="10.00">dolphin/os/OSAlarm.h</text>
</a>
</g>
</g>
<!-- Node4&#45;&gt;Node9 -->
<g id="edge9" class="edge">
<title>Node4&#45;&gt;Node9</title>
<path fill="none" stroke="#63b8ff" d="M834.77,-313.12C824.45,-307.53 810.33,-300.71 797,-297 645.93,-254.95 601.84,-278.45 446,-261 444.99,-260.89 443.97,-260.77 442.94,-260.66"/>
<polygon fill="#63b8ff" stroke="#63b8ff" points="443.61,-257.21 433.28,-259.54 442.81,-264.16 443.61,-257.21"/>
</g>
<!-- Node10 -->
<g id="node10" class="node">
<title>Node10</title>
<g id="a_node10"><a xlink:href="OSError_8h.html" target="_top" xlink:title=" ">
<polygon fill="white" stroke="#666666" points="344,-200.5 238,-200.5 238,-181.5 344,-181.5 344,-200.5"/>
<text text-anchor="middle" x="291" y="-188.5" font-family="Helvetica,sans-Serif" font-size="10.00">dolphin/os/OSError.h</text>
</a>
</g>
</g>
<!-- Node4&#45;&gt;Node10 -->
<g id="edge23" class="edge">
<title>Node4&#45;&gt;Node10</title>
<path fill="none" stroke="#63b8ff" d="M835.25,-313.24C824.92,-307.56 810.58,-300.57 797,-297 692.27,-269.44 395.12,-329.21 311,-261 296.63,-249.35 292.2,-228.03 291.01,-212.16"/>
<polygon fill="#63b8ff" stroke="#63b8ff" points="294.52,-212.28 290.68,-202.41 287.52,-212.52 294.52,-212.28"/>
</g>
<!-- Node11 -->
<g id="node11" class="node">
<title>Node11</title>
<g id="a_node11"><a xlink:href="OSTime_8h.html" target="_top" xlink:title=" ">
<polygon fill="white" stroke="#666666" points="469.5,-200.5 362.5,-200.5 362.5,-181.5 469.5,-181.5 469.5,-200.5"/>
<text text-anchor="middle" x="416" y="-188.5" font-family="Helvetica,sans-Serif" font-size="10.00">dolphin/os/OSTime.h</text>
</a>
</g>
</g>
<!-- Node4&#45;&gt;Node11 -->
<g id="edge49" class="edge">
<title>Node4&#45;&gt;Node11</title>
<path fill="none" stroke="#63b8ff" d="M834.75,-313.17C824.43,-307.61 810.31,-300.79 797,-297 662.33,-258.62 609.87,-322.36 484,-261 460.21,-249.4 439.98,-226 427.91,-209.68"/>
<polygon fill="#63b8ff" stroke="#63b8ff" points="431,-207.98 422.37,-201.84 425.29,-212.02 431,-207.98"/>
</g>
<!-- Node12 -->
<g id="node12" class="node">
<title>Node12</title>
<g id="a_node12"><a xlink:href="OSAlloc_8h.html" target="_top" xlink:title=" ">
<polygon fill="white" stroke="#666666" points="551.5,-140 444.5,-140 444.5,-121 551.5,-121 551.5,-140"/>
<text text-anchor="middle" x="498" y="-128" font-family="Helvetica,sans-Serif" font-size="10.00">dolphin/os/OSAlloc.h</text>
</a>
</g>
</g>
<!-- Node4&#45;&gt;Node12 -->
<g id="edge14" class="edge">
<title>Node4&#45;&gt;Node12</title>
<path fill="none" stroke="#63b8ff" d="M834.26,-313.04C823.97,-307.57 810.06,-300.91 797,-297 687.77,-264.31 631.04,-333.45 543,-261 509.86,-233.73 501.08,-180.63 498.78,-151.61"/>
<polygon fill="#63b8ff" stroke="#63b8ff" points="502.3,-151.77 498.22,-141.99 495.31,-152.17 502.3,-151.77"/>
</g>
<!-- Node13 -->
<g id="node13" class="node">
<title>Node13</title>
<g id="a_node13"><a xlink:href="OSArena_8h.html" target="_top" xlink:title=" ">
<polygon fill="white" stroke="#666666" points="680.5,-140 569.5,-140 569.5,-121 680.5,-121 680.5,-140"/>
<text text-anchor="middle" x="625" y="-128" font-family="Helvetica,sans-Serif" font-size="10.00">dolphin/os/OSArena.h</text>
</a>
</g>
</g>
<!-- Node4&#45;&gt;Node13 -->
<g id="edge16" class="edge">
<title>Node4&#45;&gt;Node13</title>
<path fill="none" stroke="#63b8ff" d="M834.25,-313.07C823.96,-307.62 810.05,-300.95 797,-297 744.97,-281.23 590.5,-302.18 555,-261 524.15,-225.22 574.36,-173.58 604.65,-147.65"/>
<polygon fill="#63b8ff" stroke="#63b8ff" points="606.67,-150.52 612.13,-141.44 602.2,-145.13 606.67,-150.52"/>
</g>
<!-- Node14 -->
<g id="node14" class="node">
<title>Node14</title>
<g id="a_node14"><a xlink:href="OSAudioSystem_8h.html" target="_top" xlink:title=" ">
<polygon fill="white" stroke="#666666" points="707.5,-261 564.5,-261 564.5,-242 707.5,-242 707.5,-261"/>
<text text-anchor="middle" x="636" y="-249" font-family="Helvetica,sans-Serif" font-size="10.00">dolphin/os/OSAudioSystem.h</text>
</a>
</g>
</g>
<!-- Node4&#45;&gt;Node14 -->
<g id="edge18" class="edge">
<title>Node4&#45;&gt;Node14</title>
<path fill="none" stroke="#63b8ff" d="M833.13,-313.14C822.87,-307.97 809.4,-301.6 797,-297 760.76,-283.56 718.61,-272.05 686.54,-264.11"/>
<polygon fill="#63b8ff" stroke="#63b8ff" points="687.65,-260.78 677.11,-261.81 685.99,-267.58 687.65,-260.78"/>
</g>
<!-- Node15 -->
<g id="node15" class="node">
<title>Node15</title>
<g id="a_node15"><a xlink:href="OSCache_8h.html" target="_top" xlink:title=" ">
<polygon fill="white" stroke="#666666" points="811.5,-140 698.5,-140 698.5,-121 811.5,-121 811.5,-140"/>
<text text-anchor="middle" x="755" y="-128" font-family="Helvetica,sans-Serif" font-size="10.00">dolphin/os/OSCache.h</text>
</a>
</g>
</g>
<!-- Node4&#45;&gt;Node15 -->
<g id="edge19" class="edge">
<title>Node4&#45;&gt;Node15</title>
<path fill="none" stroke="#63b8ff" d="M840.89,-313.29C829.65,-302.12 810.63,-281.7 799,-261 778.71,-224.89 765.64,-177.86 759.37,-151.56"/>
<polygon fill="#63b8ff" stroke="#63b8ff" points="762.81,-150.9 757.18,-141.93 755.99,-152.45 762.81,-150.9"/>
</g>
<!-- Node16 -->
<g id="node16" class="node">
<title>Node16</title>
<g id="a_node16"><a xlink:href="OSContext_8h.html" target="_top" xlink:title=" ">
<polygon fill="white" stroke="#666666" points="1112.5,-140 993.5,-140 993.5,-121 1112.5,-121 1112.5,-140"/>
<text text-anchor="middle" x="1053" y="-128" font-family="Helvetica,sans-Serif" font-size="10.00">dolphin/os/OSContext.h</text>
</a>
</g>
</g>
<!-- Node4&#45;&gt;Node16 -->
<g id="edge21" class="edge">
<title>Node4&#45;&gt;Node16</title>
<path fill="none" stroke="#63b8ff" d="M865.43,-313.07C875.53,-307.61 889.17,-300.95 902,-297 953.54,-281.14 1106.81,-301.86 1142,-261 1159.01,-241.25 1101.01,-178.8 1070.52,-148.43"/>
<polygon fill="#63b8ff" stroke="#63b8ff" points="1073.06,-146.01 1063.48,-141.5 1068.16,-151.01 1073.06,-146.01"/>
</g>
<!-- Node17 -->
<g id="node17" class="node">
<title>Node17</title>
<g id="a_node17"><a xlink:href="OSExec_8h.html" target="_top" xlink:title=" ">
<polygon fill="white" stroke="#666666" points="936.5,-140 829.5,-140 829.5,-121 936.5,-121 936.5,-140"/>
<text text-anchor="middle" x="883" y="-128" font-family="Helvetica,sans-Serif" font-size="10.00">dolphin/os/OSExec.h</text>
</a>
</g>
</g>
<!-- Node4&#45;&gt;Node17 -->
<g id="edge24" class="edge">
<title>Node4&#45;&gt;Node17</title>
<path fill="none" stroke="#63b8ff" d="M842.54,-313.22C823.45,-289.64 776.24,-223.49 804,-176 812.31,-161.78 827.02,-151.75 841.51,-144.87"/>
<polygon fill="#63b8ff" stroke="#63b8ff" points="842.73,-148.15 850.54,-140.99 839.97,-141.72 842.73,-148.15"/>
</g>
<!-- Node18 -->
<g id="node18" class="node">
<title>Node18</title>
<g id="a_node18"><a xlink:href="OSFont_8h.html" target="_top" xlink:title=" ">
<polygon fill="white" stroke="#666666" points="918.5,-200.5 813.5,-200.5 813.5,-181.5 918.5,-181.5 918.5,-200.5"/>
<text text-anchor="middle" x="866" y="-188.5" font-family="Helvetica,sans-Serif" font-size="10.00">dolphin/os/OSFont.h</text>
</a>
</g>
</g>
<!-- Node4&#45;&gt;Node18 -->
<g id="edge26" class="edge">
<title>Node4&#45;&gt;Node18</title>
<path fill="none" stroke="#63b8ff" d="M846.06,-313.47C839.79,-298.72 828.92,-267.55 836,-242 839.18,-230.52 845.78,-219.02 851.98,-209.96"/>
<polygon fill="#63b8ff" stroke="#63b8ff" points="854.64,-212.24 857.71,-202.1 848.99,-208.11 854.64,-212.24"/>
</g>
<!-- Node19 -->
<g id="node19" class="node">
<title>Node19</title>
<g id="a_node19"><a xlink:href="OSInterrupt_8h.html" target="_top" xlink:title=" ">
<polygon fill="white" stroke="#666666" points="1264,-200.5 1142,-200.5 1142,-181.5 1264,-181.5 1264,-200.5"/>
<text text-anchor="middle" x="1203" y="-188.5" font-family="Helvetica,sans-Serif" font-size="10.00">dolphin/os/OSInterrupt.h</text>
</a>
</g>
</g>
<!-- Node4&#45;&gt;Node19 -->
<g id="edge28" class="edge">
<title>Node4&#45;&gt;Node19</title>
<path fill="none" stroke="#63b8ff" d="M864.9,-313.04C875.01,-307.43 888.86,-300.6 902,-297 991.71,-272.45 1256.12,-329.54 1319,-261 1343.09,-234.74 1297.63,-215.34 1256.75,-203.9"/>
<polygon fill="#63b8ff" stroke="#63b8ff" points="1257.71,-200.53 1247.14,-201.35 1255.91,-207.3 1257.71,-200.53"/>
</g>
<!-- Node20 -->
<g id="node20" class="node">
<title>Node20</title>
<g id="a_node20"><a xlink:href="OSLink_8h.html" target="_top" xlink:title=" ">
<polygon fill="white" stroke="#666666" points="1386,-200.5 1282,-200.5 1282,-181.5 1386,-181.5 1386,-200.5"/>
<text text-anchor="middle" x="1334" y="-188.5" font-family="Helvetica,sans-Serif" font-size="10.00">dolphin/os/OSLink.h</text>
</a>
</g>
</g>
<!-- Node4&#45;&gt;Node20 -->
<g id="edge30" class="edge">
<title>Node4&#45;&gt;Node20</title>
<path fill="none" stroke="#63b8ff" d="M864.9,-313.03C875,-307.41 888.85,-300.57 902,-297 948.8,-284.28 1304.15,-296.68 1337,-261 1349.04,-247.93 1346.13,-226.86 1341.55,-211.44"/>
<polygon fill="#63b8ff" stroke="#63b8ff" points="1345,-210.72 1338.43,-202.41 1338.38,-213 1345,-210.72"/>
</g>
<!-- Node21 -->
<g id="node21" class="node">
<title>Node21</title>
<g id="a_node21"><a xlink:href="OSMemory_8h.html" target="_top" xlink:title=" ">
<polygon fill="white" stroke="#666666" points="1310,-261 1190,-261 1190,-242 1310,-242 1310,-261"/>
<text text-anchor="middle" x="1250" y="-249" font-family="Helvetica,sans-Serif" font-size="10.00">dolphin/os/OSMemory.h</text>
</a>
</g>
</g>
<!-- Node4&#45;&gt;Node21 -->
<g id="edge32" class="edge">
<title>Node4&#45;&gt;Node21</title>
<path fill="none" stroke="#63b8ff" d="M864.95,-313.22C875.08,-307.68 888.94,-300.87 902,-297 915.08,-293.13 1080.29,-272.88 1178.29,-261.08"/>
<polygon fill="#63b8ff" stroke="#63b8ff" points="1178.59,-264.56 1188.1,-259.9 1177.76,-257.62 1178.59,-264.56"/>
</g>
<!-- Node22 -->
<g id="node22" class="node">
<title>Node22</title>
<g id="a_node22"><a xlink:href="OSMessage_8h.html" target="_top" xlink:title=" ">
<polygon fill="white" stroke="#666666" points="1133.5,-261 1008.5,-261 1008.5,-242 1133.5,-242 1133.5,-261"/>
<text text-anchor="middle" x="1071" y="-249" font-family="Helvetica,sans-Serif" font-size="10.00">dolphin/os/OSMessage.h</text>
</a>
</g>
</g>
<!-- Node4&#45;&gt;Node22 -->
<g id="edge34" class="edge">
<title>Node4&#45;&gt;Node22</title>
<path fill="none" stroke="#63b8ff" d="M866.51,-313.06C876.56,-307.88 889.78,-301.5 902,-297 939.6,-283.15 983.39,-271.75 1016.97,-263.95"/>
<polygon fill="#63b8ff" stroke="#63b8ff" points="1017.49,-267.42 1026.46,-261.79 1015.94,-260.6 1017.49,-267.42"/>
</g>
<!-- Node23 -->
<g id="node23" class="node">
<title>Node23</title>
<g id="a_node23"><a xlink:href="OSThread_8h.html" target="_top" xlink:title=" ">
<polygon fill="white" stroke="#666666" points="1075,-200.5 959,-200.5 959,-181.5 1075,-181.5 1075,-200.5"/>
<text text-anchor="middle" x="1017" y="-188.5" font-family="Helvetica,sans-Serif" font-size="10.00">dolphin/os/OSThread.h</text>
</a>
</g>
</g>
<!-- Node4&#45;&gt;Node23 -->
<g id="edge48" class="edge">
<title>Node4&#45;&gt;Node23</title>
<path fill="none" stroke="#63b8ff" d="M849.5,-313.04C849.1,-296.77 850.63,-262.15 869,-242 889.24,-219.79 919.68,-207.44 947.7,-200.58"/>
<polygon fill="#63b8ff" stroke="#63b8ff" points="948.23,-204.04 957.23,-198.45 946.71,-197.21 948.23,-204.04"/>
</g>
<!-- Node24 -->
<g id="node24" class="node">
<title>Node24</title>
<g id="a_node24"><a xlink:href="OSMutex_8h.html" target="_top" xlink:title=" ">
<polygon fill="white" stroke="#666666" points="990,-261 878,-261 878,-242 990,-242 990,-261"/>
<text text-anchor="middle" x="934" y="-249" font-family="Helvetica,sans-Serif" font-size="10.00">dolphin/os/OSMutex.h</text>
</a>
</g>
</g>
<!-- Node4&#45;&gt;Node24 -->
<g id="edge37" class="edge">
<title>Node4&#45;&gt;Node24</title>
<path fill="none" stroke="#63b8ff" d="M860.64,-313.2C874.2,-301.98 897.89,-282.38 914.67,-268.49"/>
<polygon fill="#63b8ff" stroke="#63b8ff" points="916.54,-271.49 922.02,-262.42 912.08,-266.09 916.54,-271.49"/>
</g>
<!-- Node25 -->
<g id="node25" class="node">
<title>Node25</title>
<g id="a_node25"><a xlink:href="OSReboot_8h.html" target="_top" xlink:title=" ">
<polygon fill="white" stroke="#666666" points="1347,-140 1231,-140 1231,-121 1347,-121 1347,-140"/>
<text text-anchor="middle" x="1289" y="-128" font-family="Helvetica,sans-Serif" font-size="10.00">dolphin/os/OSReboot.h</text>
</a>
</g>
</g>
<!-- Node4&#45;&gt;Node25 -->
<g id="edge39" class="edge">
<title>Node4&#45;&gt;Node25</title>
<path fill="none" stroke="#63b8ff" d="M864.9,-313.01C874.99,-307.38 888.85,-300.55 902,-297 999.49,-270.68 1266.9,-310.36 1355,-261 1391.43,-240.59 1418.11,-210.77 1395,-176 1384.89,-160.79 1368.46,-150.77 1351.53,-144.17"/>
<polygon fill="#63b8ff" stroke="#63b8ff" points="1352.99,-140.97 1342.4,-140.98 1350.69,-147.58 1352.99,-140.97"/>
</g>
<!-- Node26 -->
<g id="node26" class="node">
<title>Node26</title>
<g id="a_node26"><a xlink:href="OSReset_8h.html" target="_top" xlink:title=" ">
<polygon fill="white" stroke="#666666" points="1477.5,-140 1366.5,-140 1366.5,-121 1477.5,-121 1477.5,-140"/>
<text text-anchor="middle" x="1422" y="-128" font-family="Helvetica,sans-Serif" font-size="10.00">dolphin/os/OSReset.h</text>
</a>
</g>
</g>
<!-- Node4&#45;&gt;Node26 -->
<g id="edge41" class="edge">
<title>Node4&#45;&gt;Node26</title>
<path fill="none" stroke="#63b8ff" d="M864.45,-313.24C874.58,-307.56 888.65,-300.57 902,-297 1005.55,-269.3 1292.53,-318.49 1383,-261 1419.24,-237.97 1423.61,-181.76 1423.14,-151.52"/>
<polygon fill="#63b8ff" stroke="#63b8ff" points="1426.65,-151.71 1422.78,-141.84 1419.66,-151.97 1426.65,-151.71"/>
</g>
<!-- Node27 -->
<g id="node27" class="node">
<title>Node27</title>
<g id="a_node27"><a xlink:href="OSResetSW_8h.html" target="_top" xlink:title=" ">
<polygon fill="white" stroke="#666666" points="1607.5,-261 1480.5,-261 1480.5,-242 1607.5,-242 1607.5,-261"/>
<text text-anchor="middle" x="1544" y="-249" font-family="Helvetica,sans-Serif" font-size="10.00">dolphin/os/OSResetSW.h</text>
</a>
</g>
</g>
<!-- Node4&#45;&gt;Node27 -->
<g id="edge43" class="edge">
<title>Node4&#45;&gt;Node27</title>
<path fill="none" stroke="#63b8ff" d="M864.44,-313.19C874.56,-307.49 888.63,-300.5 902,-297 1144.99,-233.41 1215.75,-282.61 1466,-261 1467.01,-260.91 1468.03,-260.82 1469.05,-260.73"/>
<polygon fill="#63b8ff" stroke="#63b8ff" points="1469.03,-264.25 1478.67,-259.83 1468.38,-257.28 1469.03,-264.25"/>
</g>
<!-- Node28 -->
<g id="node28" class="node">
<title>Node28</title>
<g id="a_node28"><a xlink:href="OSRtc_8h.html" target="_top" xlink:title=" ">
<polygon fill="white" stroke="#666666" points="1669.5,-140 1568.5,-140 1568.5,-121 1669.5,-121 1669.5,-140"/>
<text text-anchor="middle" x="1619" y="-128" font-family="Helvetica,sans-Serif" font-size="10.00">dolphin/os/OSRtc.h</text>
</a>
</g>
</g>
<!-- Node4&#45;&gt;Node28 -->
<g id="edge45" class="edge">
<title>Node4&#45;&gt;Node28</title>
<path fill="none" stroke="#63b8ff" d="M864.42,-313.14C874.54,-307.41 888.6,-300.41 902,-297 979.09,-277.38 1561.74,-318.22 1617,-261 1645.17,-231.84 1634.65,-179.51 1625.96,-151.12"/>
<polygon fill="#63b8ff" stroke="#63b8ff" points="1629.3,-150.07 1622.84,-141.67 1622.66,-152.27 1629.3,-150.07"/>
</g>
<!-- Node29 -->
<g id="node29" class="node">
<title>Node29</title>
<g id="a_node29"><a xlink:href="OSSync_8h.html" target="_top" xlink:title=" ">
<polygon fill="white" stroke="#666666" points="1771.5,-261 1664.5,-261 1664.5,-242 1771.5,-242 1771.5,-261"/>
<text text-anchor="middle" x="1718" y="-249" font-family="Helvetica,sans-Serif" font-size="10.00">dolphin/os/OSSync.h</text>
</a>
</g>
</g>
<!-- Node4&#45;&gt;Node29 -->
<g id="edge47" class="edge">
<title>Node4&#45;&gt;Node29</title>
<path fill="none" stroke="#63b8ff" d="M864.42,-313.13C874.54,-307.39 888.6,-300.39 902,-297 1063.32,-256.13 1484.2,-275.33 1650,-261 1651.01,-260.91 1652.03,-260.82 1653.06,-260.73"/>
<polygon fill="#63b8ff" stroke="#63b8ff" points="1653.11,-264.24 1662.71,-259.76 1652.41,-257.27 1653.11,-264.24"/>
</g>
<!-- Node6 -->
<g id="node6" class="node">
<title>Node6</title>
<g id="a_node6"><a xlink:href="types_8h.html" target="_top" xlink:title=" ">
<polygon fill="white" stroke="#666666" points="964.5,-85 883.5,-85 883.5,-66 964.5,-66 964.5,-85"/>
<text text-anchor="middle" x="924" y="-73" font-family="Helvetica,sans-Serif" font-size="10.00">dolphin/types.h</text>
</a>
</g>
</g>
<!-- Node5&#45;&gt;Node6 -->
<g id="edge5" class="edge">
<title>Node5&#45;&gt;Node6</title>
<path fill="none" stroke="#63b8ff" d="M96.63,-175.53C145.08,-159.35 227.8,-133.74 301,-121 510.28,-84.56 764.1,-77.83 871.72,-76.68"/>
<polygon fill="#63b8ff" stroke="#63b8ff" points="871.72,-80.18 881.69,-76.59 871.66,-73.18 871.72,-80.18"/>
</g>
<!-- Node7 -->
<g id="node7" class="node">
<title>Node7</title>
<g id="a_node7"><a xlink:href="stddef_8h.html" target="_top" xlink:title=" ">
<polygon fill="white" stroke="#666666" points="992,-30 856,-30 856,0 992,0 992,-30"/>
<text text-anchor="start" x="864" y="-18" font-family="Helvetica,sans-Serif" font-size="10.00">MSL_C/MSL_Common/Src</text>
<text text-anchor="middle" x="924" y="-7" font-family="Helvetica,sans-Serif" font-size="10.00">/stddef.h</text>
</a>
</g>
</g>
<!-- Node6&#45;&gt;Node7 -->
<g id="edge6" class="edge">
<title>Node6&#45;&gt;Node7</title>
<path fill="none" stroke="#63b8ff" d="M924,-65.87C924,-59.4 924,-50.2 924,-41.45"/>
<polygon fill="#63b8ff" stroke="#63b8ff" points="927.5,-41.63 924,-31.63 920.5,-41.63 927.5,-41.63"/>
</g>
<!-- Node8&#45;&gt;Node6 -->
<g id="edge8" class="edge">
<title>Node8&#45;&gt;Node6</title>
<path fill="none" stroke="#63b8ff" d="M193.93,-181.09C228.95,-165.87 304.17,-135.15 371,-121 552.1,-82.67 772.95,-76.81 871.81,-76.27"/>
<polygon fill="#63b8ff" stroke="#63b8ff" points="871.74,-79.77 881.73,-76.24 871.72,-72.77 871.74,-79.77"/>
</g>
<!-- Node9&#45;&gt;Node10 -->
<g id="edge10" class="edge">
<title>Node9&#45;&gt;Node10</title>
<path fill="none" stroke="#63b8ff" d="M363.09,-241.62C349.86,-232.51 329.03,-218.18 313.16,-207.25"/>
<polygon fill="#63b8ff" stroke="#63b8ff" points="315.5,-204.61 305.28,-201.83 311.53,-210.38 315.5,-204.61"/>
</g>
<!-- Node9&#45;&gt;Node11 -->
<g id="edge12" class="edge">
<title>Node9&#45;&gt;Node11</title>
<path fill="none" stroke="#63b8ff" d="M381.9,-241.87C387.63,-233.49 396.51,-220.51 403.76,-209.89"/>
<polygon fill="#63b8ff" stroke="#63b8ff" points="406.46,-212.15 409.22,-201.92 400.69,-208.2 406.46,-212.15"/>
</g>
<!-- Node10&#45;&gt;Node6 -->
<g id="edge11" class="edge">
<title>Node10&#45;&gt;Node6</title>
<path fill="none" stroke="#63b8ff" d="M303.32,-181.11C325.31,-165.78 373.29,-134.7 419,-121 502.77,-95.9 760.78,-82.95 872.04,-78.42"/>
<polygon fill="#63b8ff" stroke="#63b8ff" points="871.93,-81.92 881.78,-78.03 871.65,-74.93 871.93,-81.92"/>
</g>
<!-- Node11&#45;&gt;Node6 -->
<g id="edge13" class="edge">
<title>Node11&#45;&gt;Node6</title>
<path fill="none" stroke="#63b8ff" d="M415.52,-181.15C415.23,-166.17 417.08,-135.98 435,-121 467.99,-93.41 752.77,-81.67 871.93,-77.93"/>
<polygon fill="#63b8ff" stroke="#63b8ff" points="871.86,-81.43 881.75,-77.63 871.65,-74.44 871.86,-81.43"/>
</g>
<!-- Node12&#45;&gt;Node6 -->
<g id="edge15" class="edge">
<title>Node12&#45;&gt;Node6</title>
<path fill="none" stroke="#63b8ff" d="M551.76,-122.08C554.55,-121.71 557.31,-121.35 560,-121 670.94,-106.61 801.08,-91.01 871.79,-82.64"/>
<polygon fill="#63b8ff" stroke="#63b8ff" points="872.01,-86.14 881.53,-81.49 871.19,-79.19 872.01,-86.14"/>
</g>
<!-- Node13&#45;&gt;Node6 -->
<g id="edge17" class="edge">
<title>Node13&#45;&gt;Node6</title>
<path fill="none" stroke="#63b8ff" d="M675.72,-120.51C730.32,-110.83 816.73,-95.51 871.87,-85.74"/>
<polygon fill="#63b8ff" stroke="#63b8ff" points="872.41,-89.2 881.65,-84.01 871.19,-82.31 872.41,-89.2"/>
</g>
<!-- Node15&#45;&gt;Node6 -->
<g id="edge20" class="edge">
<title>Node15&#45;&gt;Node6</title>
<path fill="none" stroke="#63b8ff" d="M783.67,-120.51C811.43,-111.8 853.75,-98.53 884.65,-88.84"/>
<polygon fill="#63b8ff" stroke="#63b8ff" points="885.53,-92.23 894.03,-85.9 883.44,-85.55 885.53,-92.23"/>
</g>
<!-- Node16&#45;&gt;Node6 -->
<g id="edge22" class="edge">
<title>Node16&#45;&gt;Node6</title>
<path fill="none" stroke="#63b8ff" d="M1031.12,-120.51C1010.51,-112.04 979.41,-99.27 956.02,-89.66"/>
<polygon fill="#63b8ff" stroke="#63b8ff" points="957.54,-86.5 946.96,-85.93 954.88,-92.97 957.54,-86.5"/>
</g>
<!-- Node17&#45;&gt;Node6 -->
<g id="edge25" class="edge">
<title>Node17&#45;&gt;Node6</title>
<path fill="none" stroke="#63b8ff" d="M889.77,-120.75C895.32,-113.58 903.34,-103.2 910.23,-94.3"/>
<polygon fill="#63b8ff" stroke="#63b8ff" points="912.81,-96.69 916.16,-86.64 907.27,-92.41 912.81,-96.69"/>
</g>
<!-- Node18&#45;&gt;Node6 -->
<g id="edge27" class="edge">
<title>Node18&#45;&gt;Node6</title>
<path fill="none" stroke="#63b8ff" d="M892.43,-181.1C910.79,-173.37 933.88,-160.19 945,-140 952.95,-125.55 945.62,-107.59 937.51,-94.46"/>
<polygon fill="#63b8ff" stroke="#63b8ff" points="940.51,-92.65 931.97,-86.37 934.74,-96.6 940.51,-92.65"/>
</g>
<!-- Node19&#45;&gt;Node6 -->
<g id="edge29" class="edge">
<title>Node19&#45;&gt;Node6</title>
<path fill="none" stroke="#63b8ff" d="M1195.35,-181.27C1181.87,-166.48 1152.33,-136.55 1121,-121 1075.02,-98.17 1017.21,-86.9 976.13,-81.43"/>
<polygon fill="#63b8ff" stroke="#63b8ff" points="976.61,-77.97 966.25,-80.2 975.74,-84.91 976.61,-77.97"/>
</g>
<!-- Node20&#45;&gt;Node6 -->
<g id="edge31" class="edge">
<title>Node20&#45;&gt;Node6</title>
<path fill="none" stroke="#63b8ff" d="M1313.67,-181.12C1280.14,-166.75 1210.88,-138.28 1150,-121 1091.31,-104.34 1022.3,-91.73 976.12,-84.26"/>
<polygon fill="#63b8ff" stroke="#63b8ff" points="976.81,-80.83 966.39,-82.71 975.71,-87.74 976.81,-80.83"/>
</g>
<!-- Node21&#45;&gt;Node19 -->
<g id="edge33" class="edge">
<title>Node21&#45;&gt;Node19</title>
<path fill="none" stroke="#63b8ff" d="M1243.06,-241.87C1236.26,-233.4 1225.69,-220.24 1217.11,-209.57"/>
<polygon fill="#63b8ff" stroke="#63b8ff" points="1219.9,-207.45 1210.91,-201.85 1214.45,-211.84 1219.9,-207.45"/>
</g>
<!-- Node22&#45;&gt;Node23 -->
<g id="edge35" class="edge">
<title>Node22&#45;&gt;Node23</title>
<path fill="none" stroke="#63b8ff" d="M1063.03,-241.87C1055.06,-233.23 1042.57,-219.7 1032.61,-208.92"/>
<polygon fill="#63b8ff" stroke="#63b8ff" points="1035.38,-206.75 1026.03,-201.78 1030.24,-211.5 1035.38,-206.75"/>
</g>
<!-- Node23&#45;&gt;Node16 -->
<g id="edge36" class="edge">
<title>Node23&#45;&gt;Node16</title>
<path fill="none" stroke="#63b8ff" d="M1022.31,-181.37C1027.42,-173.07 1035.29,-160.28 1041.79,-149.72"/>
<polygon fill="#63b8ff" stroke="#63b8ff" points="1044.61,-151.81 1046.87,-141.46 1038.65,-148.14 1044.61,-151.81"/>
</g>
<!-- Node24&#45;&gt;Node23 -->
<g id="edge38" class="edge">
<title>Node24&#45;&gt;Node23</title>
<path fill="none" stroke="#63b8ff" d="M946.61,-241.62C959.4,-232.6 979.48,-218.45 994.92,-207.56"/>
<polygon fill="#63b8ff" stroke="#63b8ff" points="996.88,-210.46 1003.04,-201.84 992.85,-204.74 996.88,-210.46"/>
</g>
<!-- Node25&#45;&gt;Node6 -->
<g id="edge40" class="edge">
<title>Node25&#45;&gt;Node6</title>
<path fill="none" stroke="#63b8ff" d="M1230.76,-121.04C1160.46,-110.84 1043.31,-93.82 975.95,-84.04"/>
<polygon fill="#63b8ff" stroke="#63b8ff" points="976.67,-80.61 966.28,-82.64 975.67,-87.54 976.67,-80.61"/>
</g>
<!-- Node26&#45;&gt;Node6 -->
<g id="edge42" class="edge">
<title>Node26&#45;&gt;Node6</title>
<path fill="none" stroke="#63b8ff" d="M1366.2,-122.21C1362.75,-121.79 1359.33,-121.39 1356,-121 1219.12,-105.14 1057.5,-89.24 976.23,-81.45"/>
<polygon fill="#63b8ff" stroke="#63b8ff" points="976.63,-77.97 966.34,-80.5 975.96,-84.94 976.63,-77.97"/>
</g>
<!-- Node27&#45;&gt;Node6 -->
<g id="edge44" class="edge">
<title>Node27&#45;&gt;Node6</title>
<path fill="none" stroke="#63b8ff" d="M1543.06,-241.66C1539.99,-217.57 1527.87,-150.54 1486,-121 1444.9,-92.01 1107.49,-80.88 976.09,-77.63"/>
<polygon fill="#63b8ff" stroke="#63b8ff" points="976.37,-74.13 966.29,-77.39 976.2,-81.13 976.37,-74.13"/>
</g>
<!-- Node28&#45;&gt;Node6 -->
<g id="edge46" class="edge">
<title>Node28&#45;&gt;Node6</title>
<path fill="none" stroke="#63b8ff" d="M1568.15,-124.97C1552.98,-123.65 1536.32,-122.24 1521,-121 1319.75,-104.77 1080.16,-87.55 976.3,-80.18"/>
<polygon fill="#63b8ff" stroke="#63b8ff" points="976.64,-76.7 966.42,-79.48 976.15,-83.68 976.64,-76.7"/>
</g>
</g>
</svg>
        <g id="navigator" transform="translate(0 0)" fill="#404254">
                <rect fill="#f2f5e9" fill-opacity="0.5" stroke="#606060" stroke-width=".5" x="0" y="0" width="60" height="60"/>
                <use id="zoomplus" xlink:href="#zoomPlus" x="17" y="9" onmousedown="handleZoom(evt,'in')"/>
                <use id="zoomminus" xlink:href="#zoomMin" x="42" y="9" onmousedown="handleZoom(evt,'out')"/>
                <use id="reset" xlink:href="#resetDef" x="30" y="36" onmousedown="handleReset()"/>
                <g id="arrowUp" xlink:href="#dirArrow" transform="translate(30 24)" onmousedown="handlePan(0,-1)">
                  <use xlink:href="#rim" fill="#404040">
                        <set attributeName="fill" to="#808080" begin="arrowUp.mouseover" end="arrowUp.mouseout"/>
                  </use>
                  <path fill="none" stroke="white" stroke-width="1.5" d="M0,-3.0v7 M-2.5,-0.5L0,-3.0L2.5,-0.5"/>
                </g>
                <g id="arrowRight" xlink:href="#dirArrow" transform="rotate(90) translate(36 -43)" onmousedown="handlePan(1,0)">
                  <use xlink:href="#rim" fill="#404040">
                        <set attributeName="fill" to="#808080" begin="arrowRight.mouseover" end="arrowRight.mouseout"/>
                  </use>
                  <path fill="none" stroke="white" stroke-width="1.5" d="M0,-3.0v7 M-2.5,-0.5L0,-3.0L2.5,-0.5"/>
                </g>
                <g id="arrowDown" xlink:href="#dirArrow" transform="rotate(180) translate(-30 -48)" onmousedown="handlePan(0,1)">
                  <use xlink:href="#rim" fill="#404040">
                        <set attributeName="fill" to="#808080" begin="arrowDown.mouseover" end="arrowDown.mouseout"/>
                  </use>
                  <path fill="none" stroke="white" stroke-width="1.5" d="M0,-3.0v7 M-2.5,-0.5L0,-3.0L2.5,-0.5"/>
                </g>
                <g id="arrowLeft" xlink:href="#dirArrow" transform="rotate(270) translate(-36 17)" onmousedown="handlePan(-1,0)">
                  <use xlink:href="#rim" fill="#404040">
                        <set attributeName="fill" to="#808080" begin="arrowLeft.mouseover" end="arrowLeft.mouseout"/>
                  </use>
                  <path fill="none" stroke="white" stroke-width="1.5" d="M0,-3.0v7 M-2.5,-0.5L0,-3.0L2.5,-0.5"/>
                </g>
        </g>
        <svg viewBox="0 0 15 15" width="100%" height="30px" preserveAspectRatio="xMaxYMin meet">
         <g id="arrow_out" transform="scale(0.3 0.3)">
          <a xlink:href="J3DClusterLoader_8cpp__incl_org.svg" target="_base">
           <rect id="button" ry="5" rx="5" y="6" x="6" height="38" width="38"
                fill="#f2f5e9" fill-opacity="0.5" stroke="#606060" stroke-width="1.0"/>
           <path id="arrow"
             d="M 11.500037,31.436501 C 11.940474,20.09759 22.043105,11.32322 32.158766,21.979434 L 37.068811,17.246167 C 37.068811,17.246167 37.088388,32 37.088388,32 L 22.160133,31.978069 C 22.160133,31.978069 26.997745,27.140456 26.997745,27.140456 C 18.528582,18.264221 13.291696,25.230495 11.500037,31.436501 z"
             style="fill:#404040;"/>
          </a>
         </g>
        </svg>
</svg>
