<?xml version="1.0" encoding="UTF-8" standalone="no"?>
<!DOCTYPE svg PUBLIC "-//W3C//DTD SVG 1.1//EN"
 "http://www.w3.org/Graphics/SVG/1.1/DTD/svg11.dtd">
<!-- Generated by graphviz version 7.0.5 (20221223.1930)
 -->
<!-- Title: include/JSystem/J3DGraphBase/J3DMatBlock.h Pages: 1 -->
<svg width="4257pt" height="170pt"
 viewBox="0.00 0.00 4257.00 170.00" xmlns="http://www.w3.org/2000/svg" xmlns:xlink="http://www.w3.org/1999/xlink">
<g id="graph0" class="graph" transform="scale(1 1) rotate(0) translate(4 166)">
<title>include/JSystem/J3DGraphBase/J3DMatBlock.h</title>
<!-- Node1 -->
<g id="node1" class="node">
<title>Node1</title>
<g id="a_node1"><a xlink:title=" ">
<polygon fill="#999999" stroke="#666666" points="3666.5,-162 3531.5,-162 3531.5,-132 3666.5,-132 3666.5,-162"/>
<text text-anchor="start" x="3539.5" y="-150" font-family="Helvetica,sans-Serif" font-size="10.00">include/JSystem/J3DGraph</text>
<text text-anchor="middle" x="3599" y="-139" font-family="Helvetica,sans-Serif" font-size="10.00">Base/J3DMatBlock.h</text>
</a>
</g>
</g>
<!-- Node2 -->
<g id="node2" class="node">
<title>Node2</title>
<g id="a_node2"><a xlink:href="J3DMaterial_8h.html" target="_top" xlink:title=" ">
<polygon fill="white" stroke="#666666" points="1580.5,-96 1445.5,-96 1445.5,-66 1580.5,-66 1580.5,-96"/>
<text text-anchor="start" x="1453.5" y="-84" font-family="Helvetica,sans-Serif" font-size="10.00">include/JSystem/J3DGraph</text>
<text text-anchor="middle" x="1513" y="-73" font-family="Helvetica,sans-Serif" font-size="10.00">Base/J3DMaterial.h</text>
</a>
</g>
</g>
<!-- Node1&#45;&gt;Node2 -->
<g id="edge1" class="edge">
<title>Node1&#45;&gt;Node2</title>
<path fill="none" stroke="#63b8ff" d="M3519.58,-143.56C3184.95,-133.3 1892.8,-93.65 1581,-84.09"/>
<polygon fill="#63b8ff" stroke="#63b8ff" points="3519.46,-147.06 3529.56,-143.87 3519.68,-140.06 3519.46,-147.06"/>
</g>
<!-- Node23 -->
<g id="node23" class="node">
<title>Node23</title>
<g id="a_node23"><a xlink:href="d__a__alink_8h.html" target="_top" xlink:title=" ">
<polygon fill="white" stroke="#666666" points="3510,-90.5 3394,-90.5 3394,-71.5 3510,-71.5 3510,-90.5"/>
<text text-anchor="middle" x="3452" y="-78.5" font-family="Helvetica,sans-Serif" font-size="10.00">include/d/a/d_a_alink.h</text>
</a>
</g>
</g>
<!-- Node1&#45;&gt;Node23 -->
<g id="edge22" class="edge">
<title>Node1&#45;&gt;Node23</title>
<path fill="none" stroke="#63b8ff" d="M3555.51,-127.06C3528.13,-115.14 3494.04,-100.3 3472.64,-90.99"/>
<polygon fill="#63b8ff" stroke="#63b8ff" points="3554.06,-130.25 3564.62,-131.03 3556.85,-123.83 3554.06,-130.25"/>
</g>
<!-- Node33 -->
<g id="node33" class="node">
<title>Node33</title>
<g id="a_node33"><a xlink:href="d__a__midna_8h.html" target="_top" xlink:title=" ">
<polygon fill="white" stroke="#666666" points="3282,-96 3176,-96 3176,-66 3282,-66 3282,-96"/>
<text text-anchor="start" x="3184" y="-84" font-family="Helvetica,sans-Serif" font-size="10.00">include/rel/d/a/d_a</text>
<text text-anchor="middle" x="3229" y="-73" font-family="Helvetica,sans-Serif" font-size="10.00">_midna/d_a_midna.h</text>
</a>
</g>
</g>
<!-- Node1&#45;&gt;Node33 -->
<g id="edge33" class="edge">
<title>Node1&#45;&gt;Node33</title>
<path fill="none" stroke="#63b8ff" d="M3519.92,-132.32C3448.27,-119.93 3344.64,-102 3282.35,-91.23"/>
<polygon fill="#63b8ff" stroke="#63b8ff" points="3519.19,-135.75 3529.64,-134 3520.39,-128.85 3519.19,-135.75"/>
</g>
<!-- Node34 -->
<g id="node34" class="node">
<title>Node34</title>
<g id="a_node34"><a xlink:href="J3DMatBlock_8cpp.html" target="_top" xlink:title=" ">
<polygon fill="white" stroke="#666666" points="3670,-96 3528,-96 3528,-66 3670,-66 3670,-96"/>
<text text-anchor="start" x="3536" y="-84" font-family="Helvetica,sans-Serif" font-size="10.00">libs/JSystem/J3DGraphBase</text>
<text text-anchor="middle" x="3599" y="-73" font-family="Helvetica,sans-Serif" font-size="10.00">/J3DMatBlock.cpp</text>
</a>
</g>
</g>
<!-- Node1&#45;&gt;Node34 -->
<g id="edge38" class="edge">
<title>Node1&#45;&gt;Node34</title>
<path fill="none" stroke="#63b8ff" d="M3599,-120.39C3599,-112.13 3599,-103.28 3599,-96.16"/>
<polygon fill="#63b8ff" stroke="#63b8ff" points="3595.5,-120.28 3599,-130.28 3602.5,-120.28 3595.5,-120.28"/>
</g>
<!-- Node35 -->
<g id="node35" class="node">
<title>Node35</title>
<g id="a_node35"><a xlink:href="J3DShapeMtx_8cpp.html" target="_top" xlink:title=" ">
<polygon fill="white" stroke="#666666" points="3830,-96 3688,-96 3688,-66 3830,-66 3830,-96"/>
<text text-anchor="start" x="3696" y="-84" font-family="Helvetica,sans-Serif" font-size="10.00">libs/JSystem/J3DGraphBase</text>
<text text-anchor="middle" x="3759" y="-73" font-family="Helvetica,sans-Serif" font-size="10.00">/J3DShapeMtx.cpp</text>
</a>
</g>
</g>
<!-- Node1&#45;&gt;Node35 -->
<g id="edge39" class="edge">
<title>Node1&#45;&gt;Node35</title>
<path fill="none" stroke="#63b8ff" d="M3645.48,-127.41C3670.16,-117.54 3700.03,-105.59 3722.94,-96.43"/>
<polygon fill="#63b8ff" stroke="#63b8ff" points="3644.3,-124.11 3636.31,-131.08 3646.9,-130.61 3644.3,-124.11"/>
</g>
<!-- Node36 -->
<g id="node36" class="node">
<title>Node36</title>
<g id="a_node36"><a xlink:href="J3DTevs_8cpp.html" target="_top" xlink:title=" ">
<polygon fill="white" stroke="#666666" points="3990,-96 3848,-96 3848,-66 3990,-66 3990,-96"/>
<text text-anchor="start" x="3856" y="-84" font-family="Helvetica,sans-Serif" font-size="10.00">libs/JSystem/J3DGraphBase</text>
<text text-anchor="middle" x="3919" y="-73" font-family="Helvetica,sans-Serif" font-size="10.00">/J3DTevs.cpp</text>
</a>
</g>
</g>
<!-- Node1&#45;&gt;Node36 -->
<g id="edge40" class="edge">
<title>Node1&#45;&gt;Node36</title>
<path fill="none" stroke="#63b8ff" d="M3678.03,-130.19C3729.96,-119.81 3797.33,-106.33 3847.63,-96.27"/>
<polygon fill="#63b8ff" stroke="#63b8ff" points="3677.47,-126.74 3668.35,-132.13 3678.84,-133.6 3677.47,-126.74"/>
</g>
<!-- Node37 -->
<g id="node37" class="node">
<title>Node37</title>
<g id="a_node37"><a xlink:href="d__attention_8cpp.html" target="_top" xlink:title=" ">
<polygon fill="white" stroke="#666666" points="4115.5,-90.5 4008.5,-90.5 4008.5,-71.5 4115.5,-71.5 4115.5,-90.5"/>
<text text-anchor="middle" x="4062" y="-78.5" font-family="Helvetica,sans-Serif" font-size="10.00">src/d/d_attention.cpp</text>
</a>
</g>
</g>
<!-- Node1&#45;&gt;Node37 -->
<g id="edge41" class="edge">
<title>Node1&#45;&gt;Node37</title>
<path fill="none" stroke="#63b8ff" d="M3677.97,-138.35C3758.89,-129.99 3888.19,-115.19 3999,-96 4007.28,-94.57 4016.12,-92.77 4024.47,-90.95"/>
<polygon fill="#63b8ff" stroke="#63b8ff" points="3677.97,-134.83 3668.38,-139.33 3678.69,-141.79 3677.97,-134.83"/>
</g>
<!-- Node3 -->
<g id="node3" class="node">
<title>Node3</title>
<g id="a_node3"><a xlink:href="J3DJoint_8cpp.html" target="_top" xlink:title=" ">
<polygon fill="white" stroke="#666666" points="1240,-30 1082,-30 1082,0 1240,0 1240,-30"/>
<text text-anchor="start" x="1090" y="-18" font-family="Helvetica,sans-Serif" font-size="10.00">libs/JSystem/J3DGraphAnimator</text>
<text text-anchor="middle" x="1161" y="-7" font-family="Helvetica,sans-Serif" font-size="10.00">/J3DJoint.cpp</text>
</a>
</g>
</g>
<!-- Node2&#45;&gt;Node3 -->
<g id="edge2" class="edge">
<title>Node2&#45;&gt;Node3</title>
<path fill="none" stroke="#63b8ff" d="M1433.86,-65.61C1376.11,-55.11 1298.15,-40.94 1240.35,-30.43"/>
<polygon fill="#63b8ff" stroke="#63b8ff" points="1433.18,-69.04 1443.64,-67.39 1434.43,-62.16 1433.18,-69.04"/>
</g>
<!-- Node4 -->
<g id="node4" class="node">
<title>Node4</title>
<g id="a_node4"><a xlink:href="J3DJointTree_8cpp.html" target="_top" xlink:title=" ">
<polygon fill="white" stroke="#666666" points="1416,-30 1258,-30 1258,0 1416,0 1416,-30"/>
<text text-anchor="start" x="1266" y="-18" font-family="Helvetica,sans-Serif" font-size="10.00">libs/JSystem/J3DGraphAnimator</text>
<text text-anchor="middle" x="1337" y="-7" font-family="Helvetica,sans-Serif" font-size="10.00">/J3DJointTree.cpp</text>
</a>
</g>
</g>
<!-- Node2&#45;&gt;Node4 -->
<g id="edge3" class="edge">
<title>Node2&#45;&gt;Node4</title>
<path fill="none" stroke="#63b8ff" d="M1462.96,-61.8C1435.61,-51.86 1402.21,-39.71 1376.67,-30.43"/>
<polygon fill="#63b8ff" stroke="#63b8ff" points="1461.49,-64.99 1472.08,-65.12 1463.88,-58.41 1461.49,-64.99"/>
</g>
<!-- Node5 -->
<g id="node5" class="node">
<title>Node5</title>
<g id="a_node5"><a xlink:href="J3DMaterialAnm_8cpp.html" target="_top" xlink:title=" ">
<polygon fill="white" stroke="#666666" points="1592,-30 1434,-30 1434,0 1592,0 1592,-30"/>
<text text-anchor="start" x="1442" y="-18" font-family="Helvetica,sans-Serif" font-size="10.00">libs/JSystem/J3DGraphAnimator</text>
<text text-anchor="middle" x="1513" y="-7" font-family="Helvetica,sans-Serif" font-size="10.00">/J3DMaterialAnm.cpp</text>
</a>
</g>
</g>
<!-- Node2&#45;&gt;Node5 -->
<g id="edge4" class="edge">
<title>Node2&#45;&gt;Node5</title>
<path fill="none" stroke="#63b8ff" d="M1513,-54.39C1513,-46.13 1513,-37.28 1513,-30.16"/>
<polygon fill="#63b8ff" stroke="#63b8ff" points="1509.5,-54.28 1513,-64.28 1516.5,-54.28 1509.5,-54.28"/>
</g>
<!-- Node6 -->
<g id="node6" class="node">
<title>Node6</title>
<g id="a_node6"><a xlink:href="J3DMaterialAttach_8cpp.html" target="_top" xlink:title=" ">
<polygon fill="white" stroke="#666666" points="1768,-30 1610,-30 1610,0 1768,0 1768,-30"/>
<text text-anchor="start" x="1618" y="-18" font-family="Helvetica,sans-Serif" font-size="10.00">libs/JSystem/J3DGraphAnimator</text>
<text text-anchor="middle" x="1689" y="-7" font-family="Helvetica,sans-Serif" font-size="10.00">/J3DMaterialAttach.cpp</text>
</a>
</g>
</g>
<!-- Node2&#45;&gt;Node6 -->
<g id="edge5" class="edge">
<title>Node2&#45;&gt;Node6</title>
<path fill="none" stroke="#63b8ff" d="M1563.04,-61.8C1590.39,-51.86 1623.79,-39.71 1649.33,-30.43"/>
<polygon fill="#63b8ff" stroke="#63b8ff" points="1562.12,-58.41 1553.92,-65.12 1564.51,-64.99 1562.12,-58.41"/>
</g>
<!-- Node7 -->
<g id="node7" class="node">
<title>Node7</title>
<g id="a_node7"><a xlink:href="J3DModel_8cpp.html" target="_top" xlink:title=" ">
<polygon fill="white" stroke="#666666" points="1944,-30 1786,-30 1786,0 1944,0 1944,-30"/>
<text text-anchor="start" x="1794" y="-18" font-family="Helvetica,sans-Serif" font-size="10.00">libs/JSystem/J3DGraphAnimator</text>
<text text-anchor="middle" x="1865" y="-7" font-family="Helvetica,sans-Serif" font-size="10.00">/J3DModel.cpp</text>
</a>
</g>
</g>
<!-- Node2&#45;&gt;Node7 -->
<g id="edge6" class="edge">
<title>Node2&#45;&gt;Node7</title>
<path fill="none" stroke="#63b8ff" d="M1592.14,-65.61C1649.89,-55.11 1727.85,-40.94 1785.65,-30.43"/>
<polygon fill="#63b8ff" stroke="#63b8ff" points="1591.57,-62.16 1582.36,-67.39 1592.82,-69.04 1591.57,-62.16"/>
</g>
<!-- Node8 -->
<g id="node8" class="node">
<title>Node8</title>
<g id="a_node8"><a xlink:href="J3DModelData_8cpp.html" target="_top" xlink:title=" ">
<polygon fill="white" stroke="#666666" points="2120,-30 1962,-30 1962,0 2120,0 2120,-30"/>
<text text-anchor="start" x="1970" y="-18" font-family="Helvetica,sans-Serif" font-size="10.00">libs/JSystem/J3DGraphAnimator</text>
<text text-anchor="middle" x="2041" y="-7" font-family="Helvetica,sans-Serif" font-size="10.00">/J3DModelData.cpp</text>
</a>
</g>
</g>
<!-- Node2&#45;&gt;Node8 -->
<g id="edge7" class="edge">
<title>Node2&#45;&gt;Node8</title>
<path fill="none" stroke="#63b8ff" d="M1592.21,-72.07C1680.4,-63 1827.11,-47.16 1953,-30 1955.91,-29.6 1958.88,-29.19 1961.87,-28.76"/>
<polygon fill="#63b8ff" stroke="#63b8ff" points="1592.05,-68.57 1582.46,-73.07 1592.77,-75.54 1592.05,-68.57"/>
</g>
<!-- Node9 -->
<g id="node9" class="node">
<title>Node9</title>
<g id="a_node9"><a xlink:href="J3DDrawBuffer_8cpp.html" target="_top" xlink:title=" ">
<polygon fill="white" stroke="#666666" points="2280,-30 2138,-30 2138,0 2280,0 2280,-30"/>
<text text-anchor="start" x="2146" y="-18" font-family="Helvetica,sans-Serif" font-size="10.00">libs/JSystem/J3DGraphBase</text>
<text text-anchor="middle" x="2209" y="-7" font-family="Helvetica,sans-Serif" font-size="10.00">/J3DDrawBuffer.cpp</text>
</a>
</g>
</g>
<!-- Node2&#45;&gt;Node9 -->
<g id="edge8" class="edge">
<title>Node2&#45;&gt;Node9</title>
<path fill="none" stroke="#63b8ff" d="M1592.03,-75.92C1709.48,-69.34 1936.9,-54.55 2129,-30 2131.8,-29.64 2134.65,-29.26 2137.52,-28.85"/>
<polygon fill="#63b8ff" stroke="#63b8ff" points="1591.97,-72.42 1582.18,-76.47 1592.35,-79.41 1591.97,-72.42"/>
</g>
<!-- Node10 -->
<g id="node10" class="node">
<title>Node10</title>
<g id="a_node10"><a xlink:href="J3DMaterial_8cpp.html" target="_top" xlink:title=" ">
<polygon fill="white" stroke="#666666" points="2440,-30 2298,-30 2298,0 2440,0 2440,-30"/>
<text text-anchor="start" x="2306" y="-18" font-family="Helvetica,sans-Serif" font-size="10.00">libs/JSystem/J3DGraphBase</text>
<text text-anchor="middle" x="2369" y="-7" font-family="Helvetica,sans-Serif" font-size="10.00">/J3DMaterial.cpp</text>
</a>
</g>
</g>
<!-- Node2&#45;&gt;Node10 -->
<g id="edge9" class="edge">
<title>Node2&#45;&gt;Node10</title>
<path fill="none" stroke="#63b8ff" d="M1592.44,-77.74C1733.23,-73.09 2035.56,-60.25 2289,-30 2291.8,-29.67 2294.65,-29.3 2297.53,-28.9"/>
<polygon fill="#63b8ff" stroke="#63b8ff" points="1592.35,-74.24 1582.47,-78.06 1592.58,-81.23 1592.35,-74.24"/>
</g>
<!-- Node11 -->
<g id="node11" class="node">
<title>Node11</title>
<g id="a_node11"><a xlink:href="J3DPacket_8cpp.html" target="_top" xlink:title=" ">
<polygon fill="white" stroke="#666666" points="2600,-30 2458,-30 2458,0 2600,0 2600,-30"/>
<text text-anchor="start" x="2466" y="-18" font-family="Helvetica,sans-Serif" font-size="10.00">libs/JSystem/J3DGraphBase</text>
<text text-anchor="middle" x="2529" y="-7" font-family="Helvetica,sans-Serif" font-size="10.00">/J3DPacket.cpp</text>
</a>
</g>
</g>
<!-- Node2&#45;&gt;Node11 -->
<g id="edge10" class="edge">
<title>Node2&#45;&gt;Node11</title>
<path fill="none" stroke="#63b8ff" d="M1592.02,-78.97C1753.5,-76.17 2132.81,-65.98 2449,-30 2451.8,-29.68 2454.65,-29.33 2457.53,-28.94"/>
<polygon fill="#63b8ff" stroke="#63b8ff" points="1592.22,-75.47 1582.28,-79.14 1592.34,-82.47 1592.22,-75.47"/>
</g>
<!-- Node12 -->
<g id="node12" class="node">
<title>Node12</title>
<g id="a_node12"><a xlink:href="J3DModelLoader_8cpp.html" target="_top" xlink:title=" ">
<polygon fill="white" stroke="#666666" points="2767.5,-30 2618.5,-30 2618.5,0 2767.5,0 2767.5,-30"/>
<text text-anchor="start" x="2626.5" y="-18" font-family="Helvetica,sans-Serif" font-size="10.00">libs/JSystem/J3DGraphLoader</text>
<text text-anchor="middle" x="2693" y="-7" font-family="Helvetica,sans-Serif" font-size="10.00">/J3DModelLoader.cpp</text>
</a>
</g>
</g>
<!-- Node2&#45;&gt;Node12 -->
<g id="edge11" class="edge">
<title>Node2&#45;&gt;Node12</title>
<path fill="none" stroke="#63b8ff" d="M1592.39,-79.63C1773.27,-78.06 2229.73,-70.11 2609,-30 2612.09,-29.67 2615.23,-29.31 2618.41,-28.91"/>
<polygon fill="#63b8ff" stroke="#63b8ff" points="1592.36,-76.13 1582.39,-79.71 1592.42,-83.13 1592.36,-76.13"/>
</g>
<!-- Node13 -->
<g id="node13" class="node">
<title>Node13</title>
<g id="a_node13"><a xlink:href="d__a__alink_8cpp.html" target="_top" xlink:title=" ">
<polygon fill="white" stroke="#666666" points="3017.5,-24.5 2908.5,-24.5 2908.5,-5.5 3017.5,-5.5 3017.5,-24.5"/>
<text text-anchor="middle" x="2963" y="-12.5" font-family="Helvetica,sans-Serif" font-size="10.00">src/d/a/d_a_alink.cpp</text>
</a>
</g>
</g>
<!-- Node2&#45;&gt;Node13 -->
<g id="edge12" class="edge">
<title>Node2&#45;&gt;Node13</title>
<path fill="none" stroke="#63b8ff" d="M1592.18,-79.01C1846.89,-75.53 2643.44,-62.3 2899,-30 2908.25,-28.83 2918.14,-26.97 2927.32,-24.99"/>
<polygon fill="#63b8ff" stroke="#63b8ff" points="1592.28,-75.51 1582.33,-79.14 1592.38,-82.51 1592.28,-75.51"/>
</g>
<!-- Node14 -->
<g id="node14" class="node">
<title>Node14</title>
<g id="a_node14"><a xlink:href="d__a__npc_8cpp.html" target="_top" xlink:title=" ">
<polygon fill="white" stroke="#666666" points="2890,-24.5 2786,-24.5 2786,-5.5 2890,-5.5 2890,-24.5"/>
<text text-anchor="middle" x="2838" y="-12.5" font-family="Helvetica,sans-Serif" font-size="10.00">src/d/a/d_a_npc.cpp</text>
</a>
</g>
</g>
<!-- Node2&#45;&gt;Node14 -->
<g id="edge13" class="edge">
<title>Node2&#45;&gt;Node14</title>
<path fill="none" stroke="#63b8ff" d="M1591.99,-78.76C1831.21,-74.71 2545.48,-60.33 2776,-30 2784.97,-28.82 2794.56,-26.96 2803.44,-24.98"/>
<polygon fill="#63b8ff" stroke="#63b8ff" points="1592.08,-75.26 1582.14,-78.93 1592.19,-82.26 1592.08,-75.26"/>
</g>
<!-- Node15 -->
<g id="node15" class="node">
<title>Node15</title>
<g id="a_node15"><a xlink:href="d__k__wmark_8cpp.html" target="_top" xlink:title=" ">
<polygon fill="white" stroke="#666666" points="110,-24.5 0,-24.5 0,-5.5 110,-5.5 110,-24.5"/>
<text text-anchor="middle" x="55" y="-12.5" font-family="Helvetica,sans-Serif" font-size="10.00">src/d/d_k_wmark.cpp</text>
</a>
</g>
</g>
<!-- Node2&#45;&gt;Node15 -->
<g id="edge14" class="edge">
<title>Node2&#45;&gt;Node15</title>
<path fill="none" stroke="#63b8ff" d="M1433.81,-79.03C1178.1,-75.6 376.18,-62.47 119,-30 109.75,-28.83 99.86,-26.98 90.68,-24.99"/>
<polygon fill="#63b8ff" stroke="#63b8ff" points="1433.65,-82.53 1443.7,-79.16 1433.74,-75.53 1433.65,-82.53"/>
</g>
<!-- Node16 -->
<g id="node16" class="node">
<title>Node16</title>
<g id="a_node16"><a xlink:href="d__k__wpillar_8cpp.html" target="_top" xlink:title=" ">
<polygon fill="white" stroke="#666666" points="236,-24.5 128,-24.5 128,-5.5 236,-5.5 236,-24.5"/>
<text text-anchor="middle" x="182" y="-12.5" font-family="Helvetica,sans-Serif" font-size="10.00">src/d/d_k_wpillar.cpp</text>
</a>
</g>
</g>
<!-- Node2&#45;&gt;Node16 -->
<g id="edge15" class="edge">
<title>Node2&#45;&gt;Node16</title>
<path fill="none" stroke="#63b8ff" d="M1433.7,-78.73C1193.55,-74.61 476.48,-60.04 245,-30 235.89,-28.82 226.15,-26.96 217.12,-24.97"/>
<polygon fill="#63b8ff" stroke="#63b8ff" points="1433.54,-82.23 1443.6,-78.9 1433.66,-75.23 1433.54,-82.23"/>
</g>
<!-- Node17 -->
<g id="node17" class="node">
<title>Node17</title>
<g id="a_node17"><a xlink:href="d__model_8cpp.html" target="_top" xlink:title=" ">
<polygon fill="white" stroke="#666666" points="350,-24.5 254,-24.5 254,-5.5 350,-5.5 350,-24.5"/>
<text text-anchor="middle" x="302" y="-12.5" font-family="Helvetica,sans-Serif" font-size="10.00">src/d/d_model.cpp</text>
</a>
</g>
</g>
<!-- Node2&#45;&gt;Node17 -->
<g id="edge16" class="edge">
<title>Node2&#45;&gt;Node17</title>
<path fill="none" stroke="#63b8ff" d="M1433.93,-78.61C1208.79,-74.32 567.17,-59.78 359,-30 350.73,-28.82 341.91,-26.96 333.74,-24.97"/>
<polygon fill="#63b8ff" stroke="#63b8ff" points="1433.71,-82.1 1443.78,-78.79 1433.84,-75.11 1433.71,-82.1"/>
</g>
<!-- Node18 -->
<g id="node18" class="node">
<title>Node18</title>
<g id="a_node18"><a xlink:href="d__resorce_8cpp.html" target="_top" xlink:title=" ">
<polygon fill="white" stroke="#666666" points="470,-24.5 368,-24.5 368,-5.5 470,-5.5 470,-24.5"/>
<text text-anchor="middle" x="419" y="-12.5" font-family="Helvetica,sans-Serif" font-size="10.00">src/d/d_resorce.cpp</text>
</a>
</g>
</g>
<!-- Node2&#45;&gt;Node18 -->
<g id="edge17" class="edge">
<title>Node2&#45;&gt;Node18</title>
<path fill="none" stroke="#63b8ff" d="M1433.62,-78.02C1224.71,-72.52 663.08,-55.71 479,-30 470.31,-28.79 461.04,-26.91 452.44,-24.93"/>
<polygon fill="#63b8ff" stroke="#63b8ff" points="1433.48,-81.52 1443.57,-78.28 1433.67,-74.52 1433.48,-81.52"/>
</g>
<!-- Node19 -->
<g id="node19" class="node">
<title>Node19</title>
<g id="a_node19"><a xlink:href="d__file__select_8cpp.html" target="_top" xlink:title=" ">
<polygon fill="white" stroke="#666666" points="616,-24.5 488,-24.5 488,-5.5 616,-5.5 616,-24.5"/>
<text text-anchor="middle" x="552" y="-12.5" font-family="Helvetica,sans-Serif" font-size="10.00">src/d/file/d_file_select.cpp</text>
</a>
</g>
</g>
<!-- Node2&#45;&gt;Node19 -->
<g id="edge18" class="edge">
<title>Node2&#45;&gt;Node19</title>
<path fill="none" stroke="#63b8ff" d="M1433.75,-79.07C1278.14,-76.47 921.96,-66.67 625,-30 614.75,-28.73 603.78,-26.89 593.54,-24.96"/>
<polygon fill="#63b8ff" stroke="#63b8ff" points="1433.48,-82.57 1443.54,-79.23 1433.59,-75.57 1433.48,-82.57"/>
</g>
<!-- Node20 -->
<g id="node20" class="node">
<title>Node20</title>
<g id="a_node20"><a xlink:href="d__kankyo_8cpp.html" target="_top" xlink:title=" ">
<polygon fill="white" stroke="#666666" points="768,-24.5 634,-24.5 634,-5.5 768,-5.5 768,-24.5"/>
<text text-anchor="middle" x="701" y="-12.5" font-family="Helvetica,sans-Serif" font-size="10.00">src/d/kankyo/d_kankyo.cpp</text>
</a>
</g>
</g>
<!-- Node2&#45;&gt;Node20 -->
<g id="edge19" class="edge">
<title>Node2&#45;&gt;Node20</title>
<path fill="none" stroke="#63b8ff" d="M1433.58,-77.58C1298.33,-72.8 1014.84,-59.89 777,-30 766.48,-28.68 755.22,-26.84 744.67,-24.93"/>
<polygon fill="#63b8ff" stroke="#63b8ff" points="1433.39,-81.08 1443.51,-77.93 1433.63,-74.08 1433.39,-81.08"/>
</g>
<!-- Node21 -->
<g id="node21" class="node">
<title>Node21</title>
<g id="a_node21"><a xlink:href="d__particle_8cpp.html" target="_top" xlink:title=" ">
<polygon fill="white" stroke="#666666" points="922,-24.5 786,-24.5 786,-5.5 922,-5.5 922,-24.5"/>
<text text-anchor="middle" x="854" y="-12.5" font-family="Helvetica,sans-Serif" font-size="10.00">src/d/particle/d_particle.cpp</text>
</a>
</g>
</g>
<!-- Node2&#45;&gt;Node21 -->
<g id="edge20" class="edge">
<title>Node2&#45;&gt;Node21</title>
<path fill="none" stroke="#63b8ff" d="M1433.92,-75.57C1321.72,-68.76 1110.06,-53.92 931,-30 920.63,-28.61 909.53,-26.8 899.08,-24.93"/>
<polygon fill="#63b8ff" stroke="#63b8ff" points="1433.42,-79.05 1443.61,-76.16 1433.84,-72.06 1433.42,-79.05"/>
</g>
<!-- Node22 -->
<g id="node22" class="node">
<title>Node22</title>
<g id="a_node22"><a xlink:href="m__Do__ext_8cpp.html" target="_top" xlink:title=" ">
<polygon fill="white" stroke="#666666" points="1063.5,-24.5 940.5,-24.5 940.5,-5.5 1063.5,-5.5 1063.5,-24.5"/>
<text text-anchor="middle" x="1002" y="-12.5" font-family="Helvetica,sans-Serif" font-size="10.00">src/m_Do/m_Do_ext.cpp</text>
</a>
</g>
</g>
<!-- Node2&#45;&gt;Node22 -->
<g id="edge21" class="edge">
<title>Node2&#45;&gt;Node22</title>
<path fill="none" stroke="#63b8ff" d="M1434.05,-72.98C1345.78,-64.69 1198.73,-49.51 1073,-30 1063.69,-28.56 1053.74,-26.76 1044.32,-24.93"/>
<polygon fill="#63b8ff" stroke="#63b8ff" points="1433.52,-76.45 1443.8,-73.9 1434.17,-69.48 1433.52,-76.45"/>
</g>
<!-- Node23&#45;&gt;Node13 -->
<g id="edge23" class="edge">
<title>Node23&#45;&gt;Node13</title>
<path fill="none" stroke="#63b8ff" d="M3382.42,-73.93C3298,-66.08 3151.51,-50.89 3027,-30 3018.59,-28.59 3009.61,-26.8 3001.12,-24.98"/>
<polygon fill="#63b8ff" stroke="#63b8ff" points="3381.87,-77.39 3392.15,-74.83 3382.51,-70.42 3381.87,-77.39"/>
</g>
<!-- Node24 -->
<g id="node24" class="node">
<title>Node24</title>
<g id="a_node24"><a xlink:href="d__a__player_8cpp.html" target="_top" xlink:title=" ">
<polygon fill="white" stroke="#666666" points="3150,-24.5 3036,-24.5 3036,-5.5 3150,-5.5 3150,-24.5"/>
<text text-anchor="middle" x="3093" y="-12.5" font-family="Helvetica,sans-Serif" font-size="10.00">src/d/a/d_a_player.cpp</text>
</a>
</g>
</g>
<!-- Node23&#45;&gt;Node24 -->
<g id="edge24" class="edge">
<title>Node23&#45;&gt;Node24</title>
<path fill="none" stroke="#63b8ff" d="M3384.31,-69.24C3324.84,-59.59 3236.02,-44.73 3159,-30 3150.95,-28.46 3142.36,-26.71 3134.14,-24.99"/>
<polygon fill="#63b8ff" stroke="#63b8ff" points="3383.51,-72.65 3393.94,-70.79 3384.63,-65.74 3383.51,-72.65"/>
</g>
<!-- Node25 -->
<g id="node25" class="node">
<title>Node25</title>
<g id="a_node25"><a xlink:href="d__com__inf__game_8cpp.html" target="_top" xlink:title=" ">
<polygon fill="white" stroke="#666666" points="3993,-30 3885,-30 3885,0 3993,0 3993,-30"/>
<text text-anchor="start" x="3893" y="-18" font-family="Helvetica,sans-Serif" font-size="10.00">src/d/com/d_com_inf</text>
<text text-anchor="middle" x="3939" y="-7" font-family="Helvetica,sans-Serif" font-size="10.00">_game.cpp</text>
</a>
</g>
</g>
<!-- Node23&#45;&gt;Node25 -->
<g id="edge25" class="edge">
<title>Node23&#45;&gt;Node25</title>
<path fill="none" stroke="#63b8ff" d="M3502.7,-68.82C3508.19,-67.78 3513.7,-66.82 3519,-66 3676.6,-41.66 3718.55,-55.34 3876,-30 3878.88,-29.54 3881.82,-29.02 3884.78,-28.48"/>
<polygon fill="#63b8ff" stroke="#63b8ff" points="3502.17,-65.35 3493.04,-70.72 3503.53,-72.22 3502.17,-65.35"/>
</g>
<!-- Node26 -->
<g id="node26" class="node">
<title>Node26</title>
<g id="a_node26"><a xlink:href="d__camera_8cpp.html" target="_top" xlink:title=" ">
<polygon fill="white" stroke="#666666" points="4113,-24.5 4011,-24.5 4011,-5.5 4113,-5.5 4113,-24.5"/>
<text text-anchor="middle" x="4062" y="-12.5" font-family="Helvetica,sans-Serif" font-size="10.00">src/d/d_camera.cpp</text>
</a>
</g>
</g>
<!-- Node23&#45;&gt;Node26 -->
<g id="edge26" class="edge">
<title>Node23&#45;&gt;Node26</title>
<path fill="none" stroke="#63b8ff" d="M3501.58,-68.88C3507.43,-67.79 3513.34,-66.8 3519,-66 3732.15,-35.92 3789.21,-62.55 4002,-30 4010.35,-28.72 4019.26,-26.9 4027.59,-24.99"/>
<polygon fill="#63b8ff" stroke="#63b8ff" points="3501.09,-65.41 3491.95,-70.77 3502.44,-72.28 3501.09,-65.41"/>
</g>
<!-- Node27 -->
<g id="node27" class="node">
<title>Node27</title>
<g id="a_node27"><a xlink:href="d__ev__camera_8cpp.html" target="_top" xlink:title=" ">
<polygon fill="white" stroke="#666666" points="4249,-24.5 4131,-24.5 4131,-5.5 4249,-5.5 4249,-24.5"/>
<text text-anchor="middle" x="4190" y="-12.5" font-family="Helvetica,sans-Serif" font-size="10.00">src/d/d_ev_camera.cpp</text>
</a>
</g>
</g>
<!-- Node23&#45;&gt;Node27 -->
<g id="edge27" class="edge">
<title>Node23&#45;&gt;Node27</title>
<path fill="none" stroke="#63b8ff" d="M3501.35,-68.84C3507.27,-67.75 3513.26,-66.77 3519,-66 3785.11,-30.45 3855.84,-65.16 4122,-30 4131.56,-28.74 4141.78,-26.9 4151.33,-24.96"/>
<polygon fill="#63b8ff" stroke="#63b8ff" points="3500.73,-65.39 3491.58,-70.74 3502.07,-72.26 3500.73,-65.39"/>
</g>
<!-- Node28 -->
<g id="node28" class="node">
<title>Node28</title>
<g id="a_node28"><a xlink:href="d__event_8cpp.html" target="_top" xlink:title=" ">
<polygon fill="white" stroke="#666666" points="3289.5,-24.5 3168.5,-24.5 3168.5,-5.5 3289.5,-5.5 3289.5,-24.5"/>
<text text-anchor="middle" x="3229" y="-12.5" font-family="Helvetica,sans-Serif" font-size="10.00">src/d/event/d_event.cpp</text>
</a>
</g>
</g>
<!-- Node23&#45;&gt;Node28 -->
<g id="edge28" class="edge">
<title>Node23&#45;&gt;Node28</title>
<path fill="none" stroke="#63b8ff" d="M3410.18,-68C3366.57,-55.48 3299.23,-36.16 3260.1,-24.93"/>
<polygon fill="#63b8ff" stroke="#63b8ff" points="3408.96,-71.29 3419.54,-70.68 3410.89,-64.56 3408.96,-71.29"/>
</g>
<!-- Node29 -->
<g id="node29" class="node">
<title>Node29</title>
<g id="a_node29"><a xlink:href="d__menu__ring_8cpp.html" target="_top" xlink:title=" ">
<polygon fill="white" stroke="#666666" points="3601,-24.5 3459,-24.5 3459,-5.5 3601,-5.5 3601,-24.5"/>
<text text-anchor="middle" x="3530" y="-12.5" font-family="Helvetica,sans-Serif" font-size="10.00">src/d/menu/d_menu_ring.cpp</text>
</a>
</g>
</g>
<!-- Node23&#45;&gt;Node29 -->
<g id="edge29" class="edge">
<title>Node23&#45;&gt;Node29</title>
<path fill="none" stroke="#63b8ff" d="M3471.45,-64.04C3486.56,-51.64 3506.95,-34.92 3519.25,-24.82"/>
<polygon fill="#63b8ff" stroke="#63b8ff" points="3469.53,-61.09 3464.02,-70.14 3473.97,-66.5 3469.53,-61.09"/>
</g>
<!-- Node30 -->
<g id="node30" class="node">
<title>Node30</title>
<g id="a_node30"><a xlink:href="d__meter2__draw_8cpp.html" target="_top" xlink:title=" ">
<polygon fill="white" stroke="#666666" points="3729,-30 3619,-30 3619,0 3729,0 3729,-30"/>
<text text-anchor="start" x="3627" y="-18" font-family="Helvetica,sans-Serif" font-size="10.00">src/d/meter/d_meter2</text>
<text text-anchor="middle" x="3674" y="-7" font-family="Helvetica,sans-Serif" font-size="10.00">_draw.cpp</text>
</a>
</g>
</g>
<!-- Node23&#45;&gt;Node30 -->
<g id="edge30" class="edge">
<title>Node23&#45;&gt;Node30</title>
<path fill="none" stroke="#63b8ff" d="M3493.74,-67.97C3530.63,-57.33 3584.54,-41.79 3623.78,-30.48"/>
<polygon fill="#63b8ff" stroke="#63b8ff" points="3492.96,-64.55 3484.32,-70.68 3494.9,-71.27 3492.96,-64.55"/>
</g>
<!-- Node31 -->
<g id="node31" class="node">
<title>Node31</title>
<g id="a_node31"><a xlink:href="d__msg__flow_8cpp.html" target="_top" xlink:title=" ">
<polygon fill="white" stroke="#666666" points="3440.5,-24.5 3307.5,-24.5 3307.5,-5.5 3440.5,-5.5 3440.5,-24.5"/>
<text text-anchor="middle" x="3374" y="-12.5" font-family="Helvetica,sans-Serif" font-size="10.00">src/d/msg/d_msg_flow.cpp</text>
</a>
</g>
</g>
<!-- Node23&#45;&gt;Node31 -->
<g id="edge31" class="edge">
<title>Node23&#45;&gt;Node31</title>
<path fill="none" stroke="#63b8ff" d="M3432.55,-64.04C3417.44,-51.64 3397.05,-34.92 3384.75,-24.82"/>
<polygon fill="#63b8ff" stroke="#63b8ff" points="3430.03,-66.5 3439.98,-70.14 3434.47,-61.09 3430.03,-66.5"/>
</g>
<!-- Node32 -->
<g id="node32" class="node">
<title>Node32</title>
<g id="a_node32"><a xlink:href="f__op__actor_8cpp.html" target="_top" xlink:title=" ">
<polygon fill="white" stroke="#666666" points="3866.5,-24.5 3747.5,-24.5 3747.5,-5.5 3866.5,-5.5 3866.5,-24.5"/>
<text text-anchor="middle" x="3807" y="-12.5" font-family="Helvetica,sans-Serif" font-size="10.00">src/f_op/f_op_actor.cpp</text>
</a>
</g>
</g>
<!-- Node23&#45;&gt;Node32 -->
<g id="edge32" class="edge">
<title>Node23&#45;&gt;Node32</title>
<path fill="none" stroke="#63b8ff" d="M3504.65,-68.78C3509.49,-67.81 3514.33,-66.87 3519,-66 3615.97,-47.91 3640.98,-47.81 3738,-30 3746.42,-28.46 3755.39,-26.71 3763.98,-24.99"/>
<polygon fill="#63b8ff" stroke="#63b8ff" points="3503.99,-65.34 3494.89,-70.76 3505.38,-72.2 3503.99,-65.34"/>
</g>
<!-- Node33&#45;&gt;Node13 -->
<g id="edge34" class="edge">
<title>Node33&#45;&gt;Node13</title>
<path fill="none" stroke="#63b8ff" d="M3164.8,-64.55C3113.32,-52.17 3042.85,-35.21 3000.25,-24.96"/>
<polygon fill="#63b8ff" stroke="#63b8ff" points="3163.8,-67.91 3174.34,-66.85 3165.43,-61.11 3163.8,-67.91"/>
</g>
<!-- Node33&#45;&gt;Node24 -->
<g id="edge35" class="edge">
<title>Node33&#45;&gt;Node24</title>
<path fill="none" stroke="#63b8ff" d="M3188.09,-60.75C3162.87,-48.88 3131.72,-34.22 3112.09,-24.99"/>
<polygon fill="#63b8ff" stroke="#63b8ff" points="3186.57,-63.9 3197.11,-64.99 3189.55,-57.57 3186.57,-63.9"/>
</g>
<!-- Node33&#45;&gt;Node28 -->
<g id="edge36" class="edge">
<title>Node33&#45;&gt;Node28</title>
<path fill="none" stroke="#63b8ff" d="M3229,-54.59C3229,-44.06 3229,-32.53 3229,-24.84"/>
<polygon fill="#63b8ff" stroke="#63b8ff" points="3225.5,-54.28 3229,-64.28 3232.5,-54.28 3225.5,-54.28"/>
</g>
<!-- Node33&#45;&gt;Node31 -->
<g id="edge37" class="edge">
<title>Node33&#45;&gt;Node31</title>
<path fill="none" stroke="#63b8ff" d="M3271.9,-61.06C3298.91,-49.14 3332.54,-34.3 3353.64,-24.99"/>
<polygon fill="#63b8ff" stroke="#63b8ff" points="3270.66,-57.79 3262.93,-65.03 3273.49,-64.19 3270.66,-57.79"/>
</g>
</g>
</svg>
