<?xml version="1.0" encoding="UTF-8" standalone="no"?>
<!DOCTYPE svg PUBLIC "-//W3C//DTD SVG 1.1//EN"
 "http://www.w3.org/Graphics/SVG/1.1/DTD/svg11.dtd">
<!-- Generated by graphviz version 7.0.5 (20221223.1930)
 -->
<!-- Title: include/JSystem/J3DGraphBase/J3DShapeMtx.h Pages: 1 -->
<svg width="4282pt" height="555pt"
 viewBox="0.00 0.00 4281.72 555.00" xmlns="http://www.w3.org/2000/svg" xmlns:xlink="http://www.w3.org/1999/xlink">
<g id="graph0" class="graph" transform="scale(1 1) rotate(0) translate(4 551)">
<title>include/JSystem/J3DGraphBase/J3DShapeMtx.h</title>
<!-- Node1 -->
<g id="node1" class="node">
<title>Node1</title>
<g id="a_node1"><a xlink:title=" ">
<polygon fill="#999999" stroke="#666666" points="1678.5,-547 1543.5,-547 1543.5,-517 1678.5,-517 1678.5,-547"/>
<text text-anchor="start" x="1551.5" y="-535" font-family="Helvetica,sans-Serif" font-size="10.00">include/JSystem/J3DGraph</text>
<text text-anchor="middle" x="1611" y="-524" font-family="Helvetica,sans-Serif" font-size="10.00">Base/J3DShapeMtx.h</text>
</a>
</g>
</g>
<!-- Node2 -->
<g id="node2" class="node">
<title>Node2</title>
<g id="a_node2"><a xlink:href="J3DShape_8h.html" target="_top" xlink:title=" ">
<polygon fill="white" stroke="#666666" points="1521.5,-481 1386.5,-481 1386.5,-451 1521.5,-451 1521.5,-481"/>
<text text-anchor="start" x="1394.5" y="-469" font-family="Helvetica,sans-Serif" font-size="10.00">include/JSystem/J3DGraph</text>
<text text-anchor="middle" x="1454" y="-458" font-family="Helvetica,sans-Serif" font-size="10.00">Base/J3DShape.h</text>
</a>
</g>
</g>
<!-- Node1&#45;&gt;Node2 -->
<g id="edge1" class="edge">
<title>Node1&#45;&gt;Node2</title>
<path fill="none" stroke="#63b8ff" d="M1565.39,-512.41C1541.18,-502.54 1511.86,-490.59 1489.39,-481.43"/>
<polygon fill="#63b8ff" stroke="#63b8ff" points="1563.78,-515.53 1574.36,-516.07 1566.43,-509.05 1563.78,-515.53"/>
</g>
<!-- Node480 -->
<g id="node49" class="node">
<title>Node480</title>
<g id="a_node49"><a xlink:href="J3DShapeMtx_8cpp.html" target="_top" xlink:title=" ">
<polygon fill="white" stroke="#666666" points="1682,-481 1540,-481 1540,-451 1682,-451 1682,-481"/>
<text text-anchor="start" x="1548" y="-469" font-family="Helvetica,sans-Serif" font-size="10.00">libs/JSystem/J3DGraphBase</text>
<text text-anchor="middle" x="1611" y="-458" font-family="Helvetica,sans-Serif" font-size="10.00">/J3DShapeMtx.cpp</text>
</a>
</g>
</g>
<!-- Node1&#45;&gt;Node480 -->
<g id="edge65" class="edge">
<title>Node1&#45;&gt;Node480</title>
<path fill="none" stroke="#63b8ff" d="M1611,-505.39C1611,-497.13 1611,-488.28 1611,-481.16"/>
<polygon fill="#63b8ff" stroke="#63b8ff" points="1607.5,-505.28 1611,-515.28 1614.5,-505.28 1607.5,-505.28"/>
</g>
<!-- Node490 -->
<g id="node50" class="node">
<title>Node490</title>
<g id="a_node50"><a xlink:href="J3DUDL_8cpp.html" target="_top" xlink:title=" ">
<polygon fill="white" stroke="#666666" points="1859.5,-475.5 1700.5,-475.5 1700.5,-456.5 1859.5,-456.5 1859.5,-475.5"/>
<text text-anchor="middle" x="1780" y="-463.5" font-family="Helvetica,sans-Serif" font-size="10.00">libs/JSystem/J3DU/J3DUDL.cpp</text>
</a>
</g>
</g>
<!-- Node1&#45;&gt;Node490 -->
<g id="edge66" class="edge">
<title>Node1&#45;&gt;Node490</title>
<path fill="none" stroke="#63b8ff" d="M1659.34,-512.69C1691.09,-500.67 1731.24,-485.47 1756.27,-475.99"/>
<polygon fill="#63b8ff" stroke="#63b8ff" points="1658.45,-509.29 1650.34,-516.1 1660.93,-515.83 1658.45,-509.29"/>
</g>
<!-- Node3 -->
<g id="node3" class="node">
<title>Node3</title>
<g id="a_node3"><a xlink:href="J3DShapeTable_8h.html" target="_top" xlink:title=" ">
<polygon fill="white" stroke="#666666" points="1443.5,-415 1308.5,-415 1308.5,-385 1443.5,-385 1443.5,-415"/>
<text text-anchor="start" x="1316.5" y="-403" font-family="Helvetica,sans-Serif" font-size="10.00">include/JSystem/J3DGraph</text>
<text text-anchor="middle" x="1376" y="-392" font-family="Helvetica,sans-Serif" font-size="10.00">Animator/J3DShapeTable.h</text>
</a>
</g>
</g>
<!-- Node2&#45;&gt;Node3 -->
<g id="edge2" class="edge">
<title>Node2&#45;&gt;Node3</title>
<path fill="none" stroke="#63b8ff" d="M1428.04,-443.7C1416.7,-434.4 1403.7,-423.73 1393.53,-415.39"/>
<polygon fill="#63b8ff" stroke="#63b8ff" points="1425.57,-446.2 1435.52,-449.84 1430.01,-440.79 1425.57,-446.2"/>
</g>
<!-- Node485 -->
<g id="node38" class="node">
<title>Node485</title>
<g id="a_node38"><a xlink:href="J3DMaterial_8h.html" target="_top" xlink:title=" ">
<polygon fill="white" stroke="#666666" points="1294.5,-217 1159.5,-217 1159.5,-187 1294.5,-187 1294.5,-217"/>
<text text-anchor="start" x="1167.5" y="-205" font-family="Helvetica,sans-Serif" font-size="10.00">include/JSystem/J3DGraph</text>
<text text-anchor="middle" x="1227" y="-194" font-family="Helvetica,sans-Serif" font-size="10.00">Base/J3DMaterial.h</text>
</a>
</g>
</g>
<!-- Node2&#45;&gt;Node485 -->
<g id="edge42" class="edge">
<title>Node2&#45;&gt;Node485</title>
<path fill="none" stroke="#63b8ff" d="M1375.13,-454.35C1348.06,-447.17 1319.45,-435.14 1299,-415 1241.81,-358.68 1230.03,-255.28 1227.62,-217.4"/>
<polygon fill="#63b8ff" stroke="#63b8ff" points="1374.2,-457.73 1384.74,-456.7 1375.85,-450.93 1374.2,-457.73"/>
</g>
<!-- Node488 -->
<g id="node47" class="node">
<title>Node488</title>
<g id="a_node47"><a xlink:href="J3DShape_8cpp.html" target="_top" xlink:title=" ">
<polygon fill="white" stroke="#666666" points="1604,-415 1462,-415 1462,-385 1604,-385 1604,-415"/>
<text text-anchor="start" x="1470" y="-403" font-family="Helvetica,sans-Serif" font-size="10.00">libs/JSystem/J3DGraphBase</text>
<text text-anchor="middle" x="1533" y="-392" font-family="Helvetica,sans-Serif" font-size="10.00">/J3DShape.cpp</text>
</a>
</g>
</g>
<!-- Node2&#45;&gt;Node488 -->
<g id="edge63" class="edge">
<title>Node2&#45;&gt;Node488</title>
<path fill="none" stroke="#63b8ff" d="M1480.29,-443.7C1491.78,-434.4 1504.94,-423.73 1515.24,-415.39"/>
<polygon fill="#63b8ff" stroke="#63b8ff" points="1478.28,-440.83 1472.71,-449.84 1482.68,-446.27 1478.28,-440.83"/>
</g>
<!-- Node489 -->
<g id="node48" class="node">
<title>Node489</title>
<g id="a_node48"><a xlink:href="J3DShapeFactory_8cpp.html" target="_top" xlink:title=" ">
<polygon fill="white" stroke="#666666" points="1771.5,-415 1622.5,-415 1622.5,-385 1771.5,-385 1771.5,-415"/>
<text text-anchor="start" x="1630.5" y="-403" font-family="Helvetica,sans-Serif" font-size="10.00">libs/JSystem/J3DGraphLoader</text>
<text text-anchor="middle" x="1697" y="-392" font-family="Helvetica,sans-Serif" font-size="10.00">/J3DShapeFactory.cpp</text>
</a>
</g>
</g>
<!-- Node2&#45;&gt;Node489 -->
<g id="edge64" class="edge">
<title>Node2&#45;&gt;Node489</title>
<path fill="none" stroke="#63b8ff" d="M1519.91,-447.64C1558.28,-437.53 1606.09,-424.94 1642.36,-415.39"/>
<polygon fill="#63b8ff" stroke="#63b8ff" points="1519.08,-444.24 1510.3,-450.17 1520.86,-451.01 1519.08,-444.24"/>
</g>
<!-- Node4 -->
<g id="node4" class="node">
<title>Node4</title>
<g id="a_node4"><a xlink:href="J3DModelData_8h.html" target="_top" xlink:title=" ">
<polygon fill="white" stroke="#666666" points="1926.5,-349 1791.5,-349 1791.5,-319 1926.5,-319 1926.5,-349"/>
<text text-anchor="start" x="1799.5" y="-337" font-family="Helvetica,sans-Serif" font-size="10.00">include/JSystem/J3DGraph</text>
<text text-anchor="middle" x="1859" y="-326" font-family="Helvetica,sans-Serif" font-size="10.00">Animator/J3DModelData.h</text>
</a>
</g>
</g>
<!-- Node3&#45;&gt;Node4 -->
<g id="edge3" class="edge">
<title>Node3&#45;&gt;Node4</title>
<path fill="none" stroke="#63b8ff" d="M1455.23,-384.72C1579.74,-365.99 1712.95,-350.67 1791.31,-342.14"/>
<polygon fill="#63b8ff" stroke="#63b8ff" points="1454.84,-381.24 1445.48,-386.19 1455.89,-388.16 1454.84,-381.24"/>
</g>
<!-- Node483 -->
<g id="node36" class="node">
<title>Node483</title>
<g id="a_node36"><a xlink:href="J3DJointTree_8cpp.html" target="_top" xlink:title=" ">
<polygon fill="white" stroke="#666666" points="1354,-151 1196,-151 1196,-121 1354,-121 1354,-151"/>
<text text-anchor="start" x="1204" y="-139" font-family="Helvetica,sans-Serif" font-size="10.00">libs/JSystem/J3DGraphAnimator</text>
<text text-anchor="middle" x="1275" y="-128" font-family="Helvetica,sans-Serif" font-size="10.00">/J3DJointTree.cpp</text>
</a>
</g>
</g>
<!-- Node3&#45;&gt;Node483 -->
<g id="edge40" class="edge">
<title>Node3&#45;&gt;Node483</title>
<path fill="none" stroke="#63b8ff" d="M1357.41,-375.43C1351.79,-367.41 1346.05,-358.14 1342,-349 1312.03,-281.28 1330.01,-255.95 1303,-187 1298.06,-174.4 1290.47,-161.08 1284.44,-151.35"/>
<polygon fill="#63b8ff" stroke="#63b8ff" points="1354.44,-377.31 1363.18,-383.3 1360.09,-373.17 1354.44,-377.31"/>
</g>
<!-- Node484 -->
<g id="node37" class="node">
<title>Node484</title>
<g id="a_node37"><a xlink:href="J3DShapeTable_8cpp.html" target="_top" xlink:title=" ">
<polygon fill="white" stroke="#666666" points="1509,-349 1351,-349 1351,-319 1509,-319 1509,-349"/>
<text text-anchor="start" x="1359" y="-337" font-family="Helvetica,sans-Serif" font-size="10.00">libs/JSystem/J3DGraphAnimator</text>
<text text-anchor="middle" x="1430" y="-326" font-family="Helvetica,sans-Serif" font-size="10.00">/J3DShapeTable.cpp</text>
</a>
</g>
</g>
<!-- Node3&#45;&gt;Node484 -->
<g id="edge41" class="edge">
<title>Node3&#45;&gt;Node484</title>
<path fill="none" stroke="#63b8ff" d="M1395.2,-376.24C1402.82,-367.21 1411.34,-357.11 1418.05,-349.16"/>
<polygon fill="#63b8ff" stroke="#63b8ff" points="1392.73,-373.74 1388.96,-383.64 1398.08,-378.25 1392.73,-373.74"/>
</g>
<!-- Node5 -->
<g id="node5" class="node">
<title>Node5</title>
<g id="a_node5"><a xlink:href="J3DAnimation_8h.html" target="_top" xlink:title=" ">
<polygon fill="white" stroke="#666666" points="2907.5,-283 2772.5,-283 2772.5,-253 2907.5,-253 2907.5,-283"/>
<text text-anchor="start" x="2780.5" y="-271" font-family="Helvetica,sans-Serif" font-size="10.00">include/JSystem/J3DGraph</text>
<text text-anchor="middle" x="2840" y="-260" font-family="Helvetica,sans-Serif" font-size="10.00">Animator/J3DAnimation.h</text>
</a>
</g>
</g>
<!-- Node4&#45;&gt;Node5 -->
<g id="edge4" class="edge">
<title>Node4&#45;&gt;Node5</title>
<path fill="none" stroke="#63b8ff" d="M1938.3,-328.49C2082.43,-320.2 2396.95,-301.67 2662,-283 2698.49,-280.43 2739.16,-277.25 2772.4,-274.58"/>
<polygon fill="#63b8ff" stroke="#63b8ff" points="1938.27,-324.99 1928.48,-329.06 1938.67,-331.98 1938.27,-324.99"/>
</g>
<!-- Node86 -->
<g id="node23" class="node">
<title>Node86</title>
<g id="a_node23"><a xlink:href="J3DModelData_8cpp.html" target="_top" xlink:title=" ">
<polygon fill="white" stroke="#666666" points="2832,-151 2674,-151 2674,-121 2832,-121 2832,-151"/>
<text text-anchor="start" x="2682" y="-139" font-family="Helvetica,sans-Serif" font-size="10.00">libs/JSystem/J3DGraphAnimator</text>
<text text-anchor="middle" x="2753" y="-128" font-family="Helvetica,sans-Serif" font-size="10.00">/J3DModelData.cpp</text>
</a>
</g>
</g>
<!-- Node4&#45;&gt;Node86 -->
<g id="edge38" class="edge">
<title>Node4&#45;&gt;Node86</title>
<path fill="none" stroke="#63b8ff" d="M1938.31,-323.5C2064.05,-307.47 2316.3,-271.39 2525,-217 2594.62,-198.86 2673.28,-169.12 2717.63,-151.46"/>
<polygon fill="#63b8ff" stroke="#63b8ff" points="1937.89,-320.02 1928.41,-324.75 1938.77,-326.97 1937.89,-320.02"/>
</g>
<!-- Node473 -->
<g id="node32" class="node">
<title>Node473</title>
<g id="a_node32"><a xlink:href="J3DMtxBuffer_8h.html" target="_top" xlink:title=" ">
<polygon fill="white" stroke="#666666" points="1926.5,-283 1791.5,-283 1791.5,-253 1926.5,-253 1926.5,-283"/>
<text text-anchor="start" x="1799.5" y="-271" font-family="Helvetica,sans-Serif" font-size="10.00">include/JSystem/J3DGraph</text>
<text text-anchor="middle" x="1859" y="-260" font-family="Helvetica,sans-Serif" font-size="10.00">Animator/J3DMtxBuffer.h</text>
</a>
</g>
</g>
<!-- Node4&#45;&gt;Node473 -->
<g id="edge35" class="edge">
<title>Node4&#45;&gt;Node473</title>
<path fill="none" stroke="#63b8ff" d="M1859,-307.39C1859,-299.13 1859,-290.28 1859,-283.16"/>
<polygon fill="#63b8ff" stroke="#63b8ff" points="1855.5,-307.28 1859,-317.28 1862.5,-307.28 1855.5,-307.28"/>
</g>
<!-- Node482 -->
<g id="node35" class="node">
<title>Node482</title>
<g id="a_node35"><a xlink:href="J3DModelLoader_8cpp.html" target="_top" xlink:title=" ">
<polygon fill="white" stroke="#666666" points="1521.5,-151 1372.5,-151 1372.5,-121 1521.5,-121 1521.5,-151"/>
<text text-anchor="start" x="1380.5" y="-139" font-family="Helvetica,sans-Serif" font-size="10.00">libs/JSystem/J3DGraphLoader</text>
<text text-anchor="middle" x="1447" y="-128" font-family="Helvetica,sans-Serif" font-size="10.00">/J3DModelLoader.cpp</text>
</a>
</g>
</g>
<!-- Node4&#45;&gt;Node482 -->
<g id="edge39" class="edge">
<title>Node4&#45;&gt;Node482</title>
<path fill="none" stroke="#63b8ff" d="M1818.48,-313.72C1736.02,-274.5 1550.38,-186.18 1477.34,-151.43"/>
<polygon fill="#63b8ff" stroke="#63b8ff" points="1816.8,-316.8 1827.34,-317.94 1819.81,-310.48 1816.8,-316.8"/>
</g>
<!-- Node6 -->
<g id="node6" class="node">
<title>Node6</title>
<g id="a_node6"><a xlink:href="J2DAnimation_8h.html" target="_top" xlink:title=" ">
<polygon fill="white" stroke="#666666" points="3916.5,-217 3781.5,-217 3781.5,-187 3916.5,-187 3916.5,-217"/>
<text text-anchor="start" x="3789.5" y="-205" font-family="Helvetica,sans-Serif" font-size="10.00">include/JSystem/J2DGraph</text>
<text text-anchor="middle" x="3849" y="-194" font-family="Helvetica,sans-Serif" font-size="10.00">/J2DAnimation.h</text>
</a>
</g>
</g>
<!-- Node5&#45;&gt;Node6 -->
<g id="edge5" class="edge">
<title>Node5&#45;&gt;Node6</title>
<path fill="none" stroke="#63b8ff" d="M2919.19,-261.98C3111.6,-249.77 3601.13,-218.72 3781.19,-207.3"/>
<polygon fill="#63b8ff" stroke="#63b8ff" points="2919.04,-258.48 2909.28,-262.61 2919.48,-265.47 2919.04,-258.48"/>
</g>
<!-- Node64 -->
<g id="node15" class="node">
<title>Node64</title>
<g id="a_node15"><a xlink:href="J3DMaterialAnm_8h.html" target="_top" xlink:title=" ">
<polygon fill="white" stroke="#666666" points="2516,-217 2378,-217 2378,-187 2516,-187 2516,-217"/>
<text text-anchor="start" x="2386" y="-205" font-family="Helvetica,sans-Serif" font-size="10.00">include/JSystem/J3DGraph</text>
<text text-anchor="middle" x="2447" y="-194" font-family="Helvetica,sans-Serif" font-size="10.00">Animator/J3DMaterialAnm.h</text>
</a>
</g>
</g>
<!-- Node5&#45;&gt;Node64 -->
<g id="edge14" class="edge">
<title>Node5&#45;&gt;Node64</title>
<path fill="none" stroke="#63b8ff" d="M2761.24,-254.17C2689.59,-242.51 2584.86,-225.45 2516.32,-214.29"/>
<polygon fill="#63b8ff" stroke="#63b8ff" points="2760.51,-257.6 2770.95,-255.75 2761.64,-250.69 2760.51,-257.6"/>
</g>
<!-- Node89 -->
<g id="node27" class="node">
<title>Node89</title>
<g id="a_node27"><a xlink:href="m__Do__ext_8h.html" target="_top" xlink:title=" ">
<polygon fill="#fff0f0" stroke="red" points="3152,-211.5 3022,-211.5 3022,-192.5 3152,-192.5 3152,-211.5"/>
<text text-anchor="middle" x="3087" y="-199.5" font-family="Helvetica,sans-Serif" font-size="10.00">include/m_Do/m_Do_ext.h</text>
</a>
</g>
</g>
<!-- Node5&#45;&gt;Node89 -->
<g id="edge28" class="edge">
<title>Node5&#45;&gt;Node89</title>
<path fill="none" stroke="#63b8ff" d="M2906.76,-249.7C2953.77,-237.52 3014.8,-221.71 3052.41,-211.96"/>
<polygon fill="#63b8ff" stroke="#63b8ff" points="2906.01,-246.28 2897.2,-252.18 2907.76,-253.06 2906.01,-246.28"/>
</g>
<!-- Node472 -->
<g id="node31" class="node">
<title>Node472</title>
<g id="a_node31"><a xlink:href="J3DAnimation_8cpp.html" target="_top" xlink:title=" ">
<polygon fill="white" stroke="#666666" points="2919,-217 2761,-217 2761,-187 2919,-187 2919,-217"/>
<text text-anchor="start" x="2769" y="-205" font-family="Helvetica,sans-Serif" font-size="10.00">libs/JSystem/J3DGraphAnimator</text>
<text text-anchor="middle" x="2840" y="-194" font-family="Helvetica,sans-Serif" font-size="10.00">/J3DAnimation.cpp</text>
</a>
</g>
</g>
<!-- Node5&#45;&gt;Node472 -->
<g id="edge34" class="edge">
<title>Node5&#45;&gt;Node472</title>
<path fill="none" stroke="#63b8ff" d="M2840,-241.39C2840,-233.13 2840,-224.28 2840,-217.16"/>
<polygon fill="#63b8ff" stroke="#63b8ff" points="2836.5,-241.28 2840,-251.28 2843.5,-241.28 2836.5,-241.28"/>
</g>
<!-- Node7 -->
<g id="node7" class="node">
<title>Node7</title>
<g id="a_node7"><a xlink:href="J2DAnmLoader_8h.html" target="_top" xlink:title=" ">
<polygon fill="#fff0f0" stroke="red" points="3712.5,-85 3577.5,-85 3577.5,-55 3712.5,-55 3712.5,-85"/>
<text text-anchor="start" x="3585.5" y="-73" font-family="Helvetica,sans-Serif" font-size="10.00">include/JSystem/J2DGraph</text>
<text text-anchor="middle" x="3645" y="-62" font-family="Helvetica,sans-Serif" font-size="10.00">/J2DAnmLoader.h</text>
</a>
</g>
</g>
<!-- Node6&#45;&gt;Node7 -->
<g id="edge6" class="edge">
<title>Node6&#45;&gt;Node7</title>
<path fill="none" stroke="#63b8ff" d="M3928.17,-197.11C4043.1,-190.64 4244.93,-175.86 4267,-151 4275.85,-141.03 4276.04,-130.8 4267,-121 4230.01,-80.92 3866.34,-72.96 3712.82,-71.38"/>
<polygon fill="#63b8ff" stroke="#63b8ff" points="3928.29,-193.6 3918.49,-197.65 3928.67,-200.59 3928.29,-193.6"/>
</g>
<!-- Node14 -->
<g id="node9" class="node">
<title>Node14</title>
<g id="a_node9"><a xlink:href="J2DMaterial_8h.html" target="_top" xlink:title=" ">
<polygon fill="#fff0f0" stroke="red" points="3567.5,-151 3432.5,-151 3432.5,-121 3567.5,-121 3567.5,-151"/>
<text text-anchor="start" x="3440.5" y="-139" font-family="Helvetica,sans-Serif" font-size="10.00">include/JSystem/J2DGraph</text>
<text text-anchor="middle" x="3500" y="-128" font-family="Helvetica,sans-Serif" font-size="10.00">/J2DMaterial.h</text>
</a>
</g>
</g>
<!-- Node6&#45;&gt;Node14 -->
<g id="edge8" class="edge">
<title>Node6&#45;&gt;Node14</title>
<path fill="none" stroke="#63b8ff" d="M3770.19,-186.55C3709.26,-175.37 3625.79,-160.07 3567.81,-149.44"/>
<polygon fill="#63b8ff" stroke="#63b8ff" points="3769.34,-189.95 3779.81,-188.31 3770.6,-183.06 3769.34,-189.95"/>
</g>
<!-- Node59 -->
<g id="node10" class="node">
<title>Node59</title>
<g id="a_node10"><a xlink:href="J2DAnimation_8cpp.html" target="_top" xlink:title=" ">
<polygon fill="white" stroke="#666666" points="3704.5,-151 3585.5,-151 3585.5,-121 3704.5,-121 3704.5,-151"/>
<text text-anchor="start" x="3593.5" y="-139" font-family="Helvetica,sans-Serif" font-size="10.00">libs/JSystem/J2DGraph</text>
<text text-anchor="middle" x="3645" y="-128" font-family="Helvetica,sans-Serif" font-size="10.00">/J2DAnimation.cpp</text>
</a>
</g>
</g>
<!-- Node6&#45;&gt;Node59 -->
<g id="edge9" class="edge">
<title>Node6&#45;&gt;Node59</title>
<path fill="none" stroke="#63b8ff" d="M3792.01,-183.12C3760.08,-173.1 3720.79,-160.78 3690.87,-151.39"/>
<polygon fill="#63b8ff" stroke="#63b8ff" points="3790.93,-186.45 3801.52,-186.1 3793.03,-179.77 3790.93,-186.45"/>
</g>
<!-- Node60 -->
<g id="node11" class="node">
<title>Node60</title>
<g id="a_node11"><a xlink:href="J2DPane_8cpp.html" target="_top" xlink:title=" ">
<polygon fill="white" stroke="#666666" points="3841.5,-151 3722.5,-151 3722.5,-121 3841.5,-121 3841.5,-151"/>
<text text-anchor="start" x="3730.5" y="-139" font-family="Helvetica,sans-Serif" font-size="10.00">libs/JSystem/J2DGraph</text>
<text text-anchor="middle" x="3782" y="-128" font-family="Helvetica,sans-Serif" font-size="10.00">/J2DPane.cpp</text>
</a>
</g>
</g>
<!-- Node6&#45;&gt;Node60 -->
<g id="edge10" class="edge">
<title>Node6&#45;&gt;Node60</title>
<path fill="none" stroke="#63b8ff" d="M3826.06,-179.09C3816.39,-169.85 3805.41,-159.36 3796.83,-151.16"/>
<polygon fill="#63b8ff" stroke="#63b8ff" points="3823.39,-181.37 3833.04,-185.75 3828.22,-176.31 3823.39,-181.37"/>
</g>
<!-- Node61 -->
<g id="node12" class="node">
<title>Node61</title>
<g id="a_node12"><a xlink:href="JPAMath_8cpp.html" target="_top" xlink:title=" ">
<polygon fill="white" stroke="#666666" points="3974,-151 3860,-151 3860,-121 3974,-121 3974,-151"/>
<text text-anchor="start" x="3868" y="-139" font-family="Helvetica,sans-Serif" font-size="10.00">libs/JSystem/JParticle</text>
<text text-anchor="middle" x="3917" y="-128" font-family="Helvetica,sans-Serif" font-size="10.00">/JPAMath.cpp</text>
</a>
</g>
</g>
<!-- Node6&#45;&gt;Node61 -->
<g id="edge11" class="edge">
<title>Node6&#45;&gt;Node61</title>
<path fill="none" stroke="#63b8ff" d="M3872.28,-179.09C3882.1,-169.85 3893.24,-159.36 3901.95,-151.16"/>
<polygon fill="#63b8ff" stroke="#63b8ff" points="3870.08,-176.36 3865.19,-185.76 3874.87,-181.45 3870.08,-176.36"/>
</g>
<!-- Node62 -->
<g id="node13" class="node">
<title>Node62</title>
<g id="a_node13"><a xlink:href="d__select__cursor_8cpp.html" target="_top" xlink:title=" ">
<polygon fill="white" stroke="#666666" points="4120,-145.5 3992,-145.5 3992,-126.5 4120,-126.5 4120,-145.5"/>
<text text-anchor="middle" x="4056" y="-133.5" font-family="Helvetica,sans-Serif" font-size="10.00">src/d/d_select_cursor.cpp</text>
</a>
</g>
</g>
<!-- Node6&#45;&gt;Node62 -->
<g id="edge12" class="edge">
<title>Node6&#45;&gt;Node62</title>
<path fill="none" stroke="#63b8ff" d="M3906.7,-183.16C3945.85,-171.06 3995.95,-155.56 4027.01,-145.96"/>
<polygon fill="#63b8ff" stroke="#63b8ff" points="3905.68,-179.81 3897.16,-186.11 3907.75,-186.5 3905.68,-179.81"/>
</g>
<!-- Node63 -->
<g id="node14" class="node">
<title>Node63</title>
<g id="a_node14"><a xlink:href="d__select__icon_8cpp.html" target="_top" xlink:title=" ">
<polygon fill="white" stroke="#666666" points="4257.5,-145.5 4138.5,-145.5 4138.5,-126.5 4257.5,-126.5 4257.5,-145.5"/>
<text text-anchor="middle" x="4198" y="-133.5" font-family="Helvetica,sans-Serif" font-size="10.00">src/d/d_select_icon.cpp</text>
</a>
</g>
</g>
<!-- Node6&#45;&gt;Node63 -->
<g id="edge13" class="edge">
<title>Node6&#45;&gt;Node63</title>
<path fill="none" stroke="#63b8ff" d="M3928.27,-187.36C3984.38,-177.57 4061.38,-163.89 4129,-151 4137.28,-149.42 4146.12,-147.67 4154.6,-145.97"/>
<polygon fill="#63b8ff" stroke="#63b8ff" points="3927.72,-183.9 3918.47,-189.06 3928.92,-190.79 3927.72,-183.9"/>
</g>
<!-- Node9 -->
<g id="node8" class="node">
<title>Node9</title>
<g id="a_node8"><a xlink:href="d__a__alink_8cpp.html" target="_top" xlink:title=" ">
<polygon fill="white" stroke="#666666" points="2849.5,-19 2740.5,-19 2740.5,0 2849.5,0 2849.5,-19"/>
<text text-anchor="middle" x="2795" y="-7" font-family="Helvetica,sans-Serif" font-size="10.00">src/d/a/d_a_alink.cpp</text>
</a>
</g>
</g>
<!-- Node7&#45;&gt;Node9 -->
<g id="edge7" class="edge">
<title>Node7&#45;&gt;Node9</title>
<path fill="none" stroke="#63b8ff" d="M3565.84,-63.55C3395.15,-51.8 2996.12,-24.34 2849.93,-14.28"/>
<polygon fill="#63b8ff" stroke="#63b8ff" points="3565.51,-67.04 3575.73,-64.23 3565.99,-60.05 3565.51,-67.04"/>
</g>
<!-- Node65 -->
<g id="node16" class="node">
<title>Node65</title>
<g id="a_node16"><a xlink:href="d__a__alink_8h.html" target="_top" xlink:title=" ">
<polygon fill="#fff0f0" stroke="red" points="2918,-79.5 2802,-79.5 2802,-60.5 2918,-60.5 2918,-79.5"/>
<text text-anchor="middle" x="2860" y="-67.5" font-family="Helvetica,sans-Serif" font-size="10.00">include/d/a/d_a_alink.h</text>
</a>
</g>
</g>
<!-- Node64&#45;&gt;Node65 -->
<g id="edge15" class="edge">
<title>Node64&#45;&gt;Node65</title>
<path fill="none" stroke="#63b8ff" d="M2527.72,-201.25C2629.39,-199.83 2796.24,-191.21 2841,-151 2861.5,-132.59 2861.89,-96.47 2860.84,-79.8"/>
<polygon fill="#63b8ff" stroke="#63b8ff" points="2527.74,-197.75 2517.78,-201.36 2527.82,-204.75 2527.74,-197.75"/>
</g>
<!-- Node73 -->
<g id="node17" class="node">
<title>Node73</title>
<g id="a_node17"><a xlink:href="d__a__npc_8h.html" target="_top" xlink:title=" ">
<polygon fill="#fff0f0" stroke="red" points="2655.5,-145.5 2544.5,-145.5 2544.5,-126.5 2655.5,-126.5 2655.5,-145.5"/>
<text text-anchor="middle" x="2600" y="-133.5" font-family="Helvetica,sans-Serif" font-size="10.00">include/d/a/d_a_npc.h</text>
</a>
</g>
</g>
<!-- Node64&#45;&gt;Node73 -->
<g id="edge17" class="edge">
<title>Node64&#45;&gt;Node73</title>
<path fill="none" stroke="#63b8ff" d="M2491.89,-182.22C2520.45,-170.27 2556.15,-155.34 2578.52,-145.99"/>
<polygon fill="#63b8ff" stroke="#63b8ff" points="2490.61,-178.97 2482.73,-186.05 2493.31,-185.42 2490.61,-178.97"/>
</g>
<!-- Node82 -->
<g id="node19" class="node">
<title>Node82</title>
<g id="a_node19"><a xlink:href="J3DJoint_8cpp.html" target="_top" xlink:title=" ">
<polygon fill="white" stroke="#666666" points="2526,-151 2368,-151 2368,-121 2526,-121 2526,-151"/>
<text text-anchor="start" x="2376" y="-139" font-family="Helvetica,sans-Serif" font-size="10.00">libs/JSystem/J3DGraphAnimator</text>
<text text-anchor="middle" x="2447" y="-128" font-family="Helvetica,sans-Serif" font-size="10.00">/J3DJoint.cpp</text>
</a>
</g>
</g>
<!-- Node64&#45;&gt;Node82 -->
<g id="edge20" class="edge">
<title>Node64&#45;&gt;Node82</title>
<path fill="none" stroke="#63b8ff" d="M2447,-175.39C2447,-167.13 2447,-158.28 2447,-151.16"/>
<polygon fill="#63b8ff" stroke="#63b8ff" points="2443.5,-175.28 2447,-185.28 2450.5,-175.28 2443.5,-175.28"/>
</g>
<!-- Node83 -->
<g id="node20" class="node">
<title>Node83</title>
<g id="a_node20"><a xlink:href="J3DMaterialAnm_8cpp.html" target="_top" xlink:title=" ">
<polygon fill="white" stroke="#666666" points="1698,-151 1540,-151 1540,-121 1698,-121 1698,-151"/>
<text text-anchor="start" x="1548" y="-139" font-family="Helvetica,sans-Serif" font-size="10.00">libs/JSystem/J3DGraphAnimator</text>
<text text-anchor="middle" x="1619" y="-128" font-family="Helvetica,sans-Serif" font-size="10.00">/J3DMaterialAnm.cpp</text>
</a>
</g>
</g>
<!-- Node64&#45;&gt;Node83 -->
<g id="edge21" class="edge">
<title>Node64&#45;&gt;Node83</title>
<path fill="none" stroke="#63b8ff" d="M2366.57,-197.95C2230.44,-192.25 1946.1,-178.04 1707,-151 1704.08,-150.67 1701.11,-150.31 1698.11,-149.93"/>
<polygon fill="#63b8ff" stroke="#63b8ff" points="2366.04,-201.43 2376.18,-198.34 2366.33,-194.43 2366.04,-201.43"/>
</g>
<!-- Node84 -->
<g id="node21" class="node">
<title>Node84</title>
<g id="a_node21"><a xlink:href="J3DMaterialAttach_8cpp.html" target="_top" xlink:title=" ">
<polygon fill="white" stroke="#666666" points="1874,-151 1716,-151 1716,-121 1874,-121 1874,-151"/>
<text text-anchor="start" x="1724" y="-139" font-family="Helvetica,sans-Serif" font-size="10.00">libs/JSystem/J3DGraphAnimator</text>
<text text-anchor="middle" x="1795" y="-128" font-family="Helvetica,sans-Serif" font-size="10.00">/J3DMaterialAttach.cpp</text>
</a>
</g>
</g>
<!-- Node64&#45;&gt;Node84 -->
<g id="edge22" class="edge">
<title>Node64&#45;&gt;Node84</title>
<path fill="none" stroke="#63b8ff" d="M2366.53,-195.63C2256.94,-187.91 2054.72,-172.25 1883,-151 1880.08,-150.64 1877.11,-150.25 1874.12,-149.85"/>
<polygon fill="#63b8ff" stroke="#63b8ff" points="2366.08,-199.11 2376.3,-196.31 2366.57,-192.12 2366.08,-199.11"/>
</g>
<!-- Node85 -->
<g id="node22" class="node">
<title>Node85</title>
<g id="a_node22"><a xlink:href="J3DModel_8cpp.html" target="_top" xlink:title=" ">
<polygon fill="white" stroke="#666666" points="2050,-151 1892,-151 1892,-121 2050,-121 2050,-151"/>
<text text-anchor="start" x="1900" y="-139" font-family="Helvetica,sans-Serif" font-size="10.00">libs/JSystem/J3DGraphAnimator</text>
<text text-anchor="middle" x="1971" y="-128" font-family="Helvetica,sans-Serif" font-size="10.00">/J3DModel.cpp</text>
</a>
</g>
</g>
<!-- Node64&#45;&gt;Node85 -->
<g id="edge23" class="edge">
<title>Node64&#45;&gt;Node85</title>
<path fill="none" stroke="#63b8ff" d="M2366.27,-191.3C2287.72,-181.7 2165.04,-166.26 2059,-151 2056.09,-150.58 2053.13,-150.15 2050.14,-149.7"/>
<polygon fill="#63b8ff" stroke="#63b8ff" points="2365.67,-194.76 2376.03,-192.49 2366.52,-187.81 2365.67,-194.76"/>
</g>
<!-- Node64&#45;&gt;Node86 -->
<g id="edge24" class="edge">
<title>Node64&#45;&gt;Node86</title>
<path fill="none" stroke="#63b8ff" d="M2527.19,-184.23C2575.88,-174.04 2637.4,-161.18 2683.93,-151.45"/>
<polygon fill="#63b8ff" stroke="#63b8ff" points="2526.61,-180.77 2517.54,-186.25 2528.04,-187.63 2526.61,-180.77"/>
</g>
<!-- Node41 -->
<g id="node24" class="node">
<title>Node41</title>
<g id="a_node24"><a xlink:href="d__file__select_8cpp.html" target="_top" xlink:title=" ">
<polygon fill="white" stroke="#666666" points="2196,-145.5 2068,-145.5 2068,-126.5 2196,-126.5 2196,-145.5"/>
<text text-anchor="middle" x="2132" y="-133.5" font-family="Helvetica,sans-Serif" font-size="10.00">src/d/file/d_file_select.cpp</text>
</a>
</g>
</g>
<!-- Node64&#45;&gt;Node41 -->
<g id="edge25" class="edge">
<title>Node64&#45;&gt;Node41</title>
<path fill="none" stroke="#63b8ff" d="M2366.82,-184.71C2306.3,-172.41 2225.53,-156 2176.22,-145.98"/>
<polygon fill="#63b8ff" stroke="#63b8ff" points="2365.89,-188.09 2376.39,-186.65 2367.29,-181.23 2365.89,-188.09"/>
</g>
<!-- Node87 -->
<g id="node25" class="node">
<title>Node87</title>
<g id="a_node25"><a xlink:href="d__particle_8cpp.html" target="_top" xlink:title=" ">
<polygon fill="white" stroke="#666666" points="2350,-145.5 2214,-145.5 2214,-126.5 2350,-126.5 2350,-145.5"/>
<text text-anchor="middle" x="2282" y="-133.5" font-family="Helvetica,sans-Serif" font-size="10.00">src/d/particle/d_particle.cpp</text>
</a>
</g>
</g>
<!-- Node64&#45;&gt;Node87 -->
<g id="edge26" class="edge">
<title>Node64&#45;&gt;Node87</title>
<path fill="none" stroke="#63b8ff" d="M2399.4,-182.54C2368.46,-170.54 2329.5,-155.43 2305.17,-145.99"/>
<polygon fill="#63b8ff" stroke="#63b8ff" points="2397.97,-185.74 2408.56,-186.09 2400.5,-179.21 2397.97,-185.74"/>
</g>
<!-- Node88 -->
<g id="node26" class="node">
<title>Node88</title>
<g id="a_node26"><a xlink:href="m__Do__ext_8cpp.html" target="_top" xlink:title=" ">
<polygon fill="white" stroke="#666666" points="3011.5,-145.5 2888.5,-145.5 2888.5,-126.5 3011.5,-126.5 3011.5,-145.5"/>
<text text-anchor="middle" x="2950" y="-133.5" font-family="Helvetica,sans-Serif" font-size="10.00">src/m_Do/m_Do_ext.cpp</text>
</a>
</g>
</g>
<!-- Node64&#45;&gt;Node88 -->
<g id="edge27" class="edge">
<title>Node64&#45;&gt;Node88</title>
<path fill="none" stroke="#63b8ff" d="M2527.59,-193.16C2613.59,-184.41 2753.74,-169.1 2874,-151 2883.68,-149.54 2894.03,-147.78 2903.86,-146"/>
<polygon fill="#63b8ff" stroke="#63b8ff" points="2527.44,-189.65 2517.84,-194.14 2528.14,-196.62 2527.44,-189.65"/>
</g>
<!-- Node65&#45;&gt;Node9 -->
<g id="edge16" class="edge">
<title>Node65&#45;&gt;Node9</title>
<path fill="none" stroke="#63b8ff" d="M2841.78,-52.6C2829.85,-41.87 2814.73,-28.26 2804.97,-19.47"/>
<polygon fill="#63b8ff" stroke="#63b8ff" points="2839.23,-55.01 2849,-59.1 2843.91,-49.81 2839.23,-55.01"/>
</g>
<!-- Node73&#45;&gt;Node9 -->
<g id="edge18" class="edge">
<title>Node73&#45;&gt;Node9</title>
<path fill="none" stroke="#63b8ff" d="M2623.49,-120.01C2664.52,-93.8 2748.06,-40.47 2781.1,-19.37"/>
<polygon fill="#63b8ff" stroke="#63b8ff" points="2621.84,-116.9 2615.3,-125.23 2625.61,-122.8 2621.84,-116.9"/>
</g>
<!-- Node81 -->
<g id="node18" class="node">
<title>Node81</title>
<g id="a_node18"><a xlink:href="d__a__npc_8cpp.html" target="_top" xlink:title=" ">
<polygon fill="white" stroke="#666666" points="1928,-79.5 1824,-79.5 1824,-60.5 1928,-60.5 1928,-79.5"/>
<text text-anchor="middle" x="1876" y="-67.5" font-family="Helvetica,sans-Serif" font-size="10.00">src/d/a/d_a_npc.cpp</text>
</a>
</g>
</g>
<!-- Node73&#45;&gt;Node81 -->
<g id="edge19" class="edge">
<title>Node73&#45;&gt;Node81</title>
<path fill="none" stroke="#63b8ff" d="M2551.47,-123.79C2545.94,-122.74 2540.36,-121.78 2535,-121 2310.73,-88.5 2040.27,-76.39 1928.38,-72.55"/>
<polygon fill="#63b8ff" stroke="#63b8ff" points="2550.71,-127.21 2561.21,-125.75 2552.1,-120.35 2550.71,-127.21"/>
</g>
<!-- Node89&#45;&gt;Node88 -->
<g id="edge33" class="edge">
<title>Node89&#45;&gt;Node88</title>
<path fill="none" stroke="#63b8ff" d="M3057.61,-187.27C3030.75,-174.72 2991.82,-156.54 2968.89,-145.82"/>
<polygon fill="#63b8ff" stroke="#63b8ff" points="3056.04,-190.4 3066.58,-191.46 3059,-184.06 3056.04,-190.4"/>
</g>
<!-- Node90 -->
<g id="node28" class="node">
<title>Node90</title>
<g id="a_node28"><a xlink:href="d__attention_8h.html" target="_top" xlink:title=" ">
<polygon fill="#fff0f0" stroke="red" points="3144,-145.5 3030,-145.5 3030,-126.5 3144,-126.5 3144,-145.5"/>
<text text-anchor="middle" x="3087" y="-133.5" font-family="Helvetica,sans-Serif" font-size="10.00">include/d/d_attention.h</text>
</a>
</g>
</g>
<!-- Node89&#45;&gt;Node90 -->
<g id="edge29" class="edge">
<title>Node89&#45;&gt;Node90</title>
<path fill="none" stroke="#63b8ff" d="M3087,-180.68C3087,-168.94 3087,-154.77 3087,-145.82"/>
<polygon fill="#63b8ff" stroke="#63b8ff" points="3083.5,-180.59 3087,-190.59 3090.5,-180.59 3083.5,-180.59"/>
</g>
<!-- Node281 -->
<g id="node29" class="node">
<title>Node281</title>
<g id="a_node29"><a xlink:href="d__drawlist_8h.html" target="_top" xlink:title=" ">
<polygon fill="#fff0f0" stroke="red" points="3414,-145.5 3304,-145.5 3304,-126.5 3414,-126.5 3414,-145.5"/>
<text text-anchor="middle" x="3359" y="-133.5" font-family="Helvetica,sans-Serif" font-size="10.00">include/d/d_drawlist.h</text>
</a>
</g>
</g>
<!-- Node89&#45;&gt;Node281 -->
<g id="edge31" class="edge">
<title>Node89&#45;&gt;Node281</title>
<path fill="none" stroke="#63b8ff" d="M3136.29,-189.4C3189.45,-176.89 3272.92,-157.25 3321.15,-145.91"/>
<polygon fill="#63b8ff" stroke="#63b8ff" points="3135.51,-185.99 3126.58,-191.69 3137.12,-192.8 3135.51,-185.99"/>
</g>
<!-- Node317 -->
<g id="node30" class="node">
<title>Node317</title>
<g id="a_node30"><a xlink:href="d__ky__thunder_8h.html" target="_top" xlink:title=" ">
<polygon fill="#fff0f0" stroke="red" points="3286,-145.5 3162,-145.5 3162,-126.5 3286,-126.5 3286,-145.5"/>
<text text-anchor="middle" x="3224" y="-133.5" font-family="Helvetica,sans-Serif" font-size="10.00">include/d/d_ky_thunder.h</text>
</a>
</g>
</g>
<!-- Node89&#45;&gt;Node317 -->
<g id="edge32" class="edge">
<title>Node89&#45;&gt;Node317</title>
<path fill="none" stroke="#63b8ff" d="M3116.39,-187.27C3143.25,-174.72 3182.18,-156.54 3205.11,-145.82"/>
<polygon fill="#63b8ff" stroke="#63b8ff" points="3115,-184.06 3107.42,-191.46 3117.96,-190.4 3115,-184.06"/>
</g>
<!-- Node90&#45;&gt;Node65 -->
<g id="edge30" class="edge">
<title>Node90&#45;&gt;Node65</title>
<path fill="none" stroke="#63b8ff" d="M3044.43,-123C3000.04,-110.48 2931.49,-91.16 2891.66,-79.93"/>
<polygon fill="#63b8ff" stroke="#63b8ff" points="3043.41,-126.35 3053.98,-125.69 3045.3,-119.61 3043.41,-126.35"/>
</g>
<!-- Node474 -->
<g id="node33" class="node">
<title>Node474</title>
<g id="a_node33"><a xlink:href="J3DSkinDeform_8h.html" target="_top" xlink:title=" ">
<polygon fill="#fff0f0" stroke="red" points="2047.5,-217 1912.5,-217 1912.5,-187 2047.5,-187 2047.5,-217"/>
<text text-anchor="start" x="1920.5" y="-205" font-family="Helvetica,sans-Serif" font-size="10.00">include/JSystem/J3DGraph</text>
<text text-anchor="middle" x="1980" y="-194" font-family="Helvetica,sans-Serif" font-size="10.00">Animator/J3DSkinDeform.h</text>
</a>
</g>
</g>
<!-- Node473&#45;&gt;Node474 -->
<g id="edge36" class="edge">
<title>Node473&#45;&gt;Node474</title>
<path fill="none" stroke="#63b8ff" d="M1896.21,-247.32C1914.53,-237.63 1936.22,-226.16 1952.94,-217.31"/>
<polygon fill="#63b8ff" stroke="#63b8ff" points="1894.7,-244.16 1887.49,-251.93 1897.97,-250.35 1894.7,-244.16"/>
</g>
<!-- Node481 -->
<g id="node34" class="node">
<title>Node481</title>
<g id="a_node34"><a xlink:href="J3DMtxBuffer_8cpp.html" target="_top" xlink:title=" ">
<polygon fill="white" stroke="#666666" points="1894,-217 1736,-217 1736,-187 1894,-187 1894,-217"/>
<text text-anchor="start" x="1744" y="-205" font-family="Helvetica,sans-Serif" font-size="10.00">libs/JSystem/J3DGraphAnimator</text>
<text text-anchor="middle" x="1815" y="-194" font-family="Helvetica,sans-Serif" font-size="10.00">/J3DMtxBuffer.cpp</text>
</a>
</g>
</g>
<!-- Node473&#45;&gt;Node481 -->
<g id="edge37" class="edge">
<title>Node473&#45;&gt;Node481</title>
<path fill="none" stroke="#63b8ff" d="M1842.77,-243.39C1836.72,-234.59 1830.03,-224.86 1824.74,-217.16"/>
<polygon fill="#63b8ff" stroke="#63b8ff" points="1839.83,-245.29 1848.38,-251.55 1845.6,-241.33 1839.83,-245.29"/>
</g>
<!-- Node485&#45;&gt;Node9 -->
<g id="edge53" class="edge">
<title>Node485&#45;&gt;Node9</title>
<path fill="none" stroke="#63b8ff" d="M1147.78,-199.65C928.88,-195.54 329.93,-181.53 301,-151 291.83,-141.32 291.78,-130.63 301,-121 388.24,-29.81 2381.6,-13.08 2740.05,-10.81"/>
<polygon fill="#63b8ff" stroke="#63b8ff" points="1147.58,-203.15 1157.65,-199.83 1147.71,-196.15 1147.58,-203.15"/>
</g>
<!-- Node485&#45;&gt;Node81 -->
<g id="edge54" class="edge">
<title>Node485&#45;&gt;Node81</title>
<path fill="none" stroke="#63b8ff" d="M1202.67,-178.61C1186.76,-161.32 1171.55,-137.61 1187,-121 1230.09,-74.67 1670.21,-70.75 1823.61,-70.8"/>
<polygon fill="#63b8ff" stroke="#63b8ff" points="1199.85,-180.74 1209.35,-185.44 1204.86,-175.84 1199.85,-180.74"/>
</g>
<!-- Node485&#45;&gt;Node82 -->
<g id="edge43" class="edge">
<title>Node485&#45;&gt;Node82</title>
<path fill="none" stroke="#63b8ff" d="M1306.02,-198.68C1527.98,-191.98 2154.24,-171.74 2359,-151 2361.92,-150.7 2364.9,-150.37 2367.9,-150.02"/>
<polygon fill="#63b8ff" stroke="#63b8ff" points="1306.22,-195.17 1296.33,-198.97 1306.43,-202.17 1306.22,-195.17"/>
</g>
<!-- Node485&#45;&gt;Node83 -->
<g id="edge45" class="edge">
<title>Node485&#45;&gt;Node83</title>
<path fill="none" stroke="#63b8ff" d="M1305.89,-188.12C1373.83,-177.03 1471.4,-161.1 1539.51,-149.98"/>
<polygon fill="#63b8ff" stroke="#63b8ff" points="1305.63,-184.62 1296.33,-189.68 1306.76,-191.52 1305.63,-184.62"/>
</g>
<!-- Node485&#45;&gt;Node84 -->
<g id="edge46" class="edge">
<title>Node485&#45;&gt;Node84</title>
<path fill="none" stroke="#63b8ff" d="M1305.97,-194.09C1401.22,-185.45 1566.11,-169.53 1707,-151 1709.91,-150.62 1712.88,-150.21 1715.88,-149.79"/>
<polygon fill="#63b8ff" stroke="#63b8ff" points="1305.86,-190.59 1296.21,-194.97 1306.48,-197.56 1305.86,-190.59"/>
</g>
<!-- Node485&#45;&gt;Node85 -->
<g id="edge47" class="edge">
<title>Node485&#45;&gt;Node85</title>
<path fill="none" stroke="#63b8ff" d="M1305.89,-197.07C1429.29,-190.46 1675.37,-175.39 1883,-151 1885.92,-150.66 1888.89,-150.29 1891.89,-149.9"/>
<polygon fill="#63b8ff" stroke="#63b8ff" points="1306.01,-193.56 1296.21,-197.59 1306.38,-200.55 1306.01,-193.56"/>
</g>
<!-- Node485&#45;&gt;Node86 -->
<g id="edge48" class="edge">
<title>Node485&#45;&gt;Node86</title>
<path fill="none" stroke="#63b8ff" d="M1306.15,-198.82C1587.53,-190.98 2529.88,-164.05 2665,-151 2667.93,-150.72 2670.9,-150.4 2673.9,-150.05"/>
<polygon fill="#63b8ff" stroke="#63b8ff" points="1306.25,-195.31 1296.35,-199.09 1306.44,-202.31 1306.25,-195.31"/>
</g>
<!-- Node485&#45;&gt;Node41 -->
<g id="edge59" class="edge">
<title>Node485&#45;&gt;Node41</title>
<path fill="none" stroke="#63b8ff" d="M1306.16,-199.65C1454.43,-196.37 1783.85,-185.5 2059,-151 2069.24,-149.72 2080.21,-147.87 2090.46,-145.93"/>
<polygon fill="#63b8ff" stroke="#63b8ff" points="1306.38,-196.15 1296.46,-199.86 1306.53,-203.14 1306.38,-196.15"/>
</g>
<!-- Node485&#45;&gt;Node87 -->
<g id="edge61" class="edge">
<title>Node485&#45;&gt;Node87</title>
<path fill="none" stroke="#63b8ff" d="M1306.23,-198.27C1506.91,-191.14 2031.57,-171.11 2205,-151 2215.8,-149.75 2227.37,-147.91 2238.17,-145.98"/>
<polygon fill="#63b8ff" stroke="#63b8ff" points="1306.3,-194.76 1296.43,-198.62 1306.54,-201.76 1306.3,-194.76"/>
</g>
<!-- Node485&#45;&gt;Node88 -->
<g id="edge62" class="edge">
<title>Node485&#45;&gt;Node88</title>
<path fill="none" stroke="#63b8ff" d="M1305.9,-198.77C1619.42,-189.87 2763.88,-157.13 2841,-151 2856.41,-149.77 2872.97,-147.92 2888.43,-145.96"/>
<polygon fill="#63b8ff" stroke="#63b8ff" points="1306.07,-195.26 1296.17,-199.04 1306.27,-202.26 1306.07,-195.26"/>
</g>
<!-- Node485&#45;&gt;Node482 -->
<g id="edge52" class="edge">
<title>Node485&#45;&gt;Node482</title>
<path fill="none" stroke="#63b8ff" d="M1287.56,-183.38C1322.16,-173.32 1364.98,-160.86 1397.53,-151.39"/>
<polygon fill="#63b8ff" stroke="#63b8ff" points="1286.72,-179.98 1278.1,-186.13 1288.68,-186.7 1286.72,-179.98"/>
</g>
<!-- Node485&#45;&gt;Node483 -->
<g id="edge44" class="edge">
<title>Node485&#45;&gt;Node483</title>
<path fill="none" stroke="#63b8ff" d="M1244.49,-177.68C1251.15,-168.79 1258.54,-158.95 1264.38,-151.16"/>
<polygon fill="#63b8ff" stroke="#63b8ff" points="1241.76,-175.49 1238.56,-185.59 1247.36,-179.69 1241.76,-175.49"/>
</g>
<!-- Node486 -->
<g id="node39" class="node">
<title>Node486</title>
<g id="a_node39"><a xlink:href="J3DDrawBuffer_8cpp.html" target="_top" xlink:title=" ">
<polygon fill="white" stroke="#666666" points="452,-151 310,-151 310,-121 452,-121 452,-151"/>
<text text-anchor="start" x="318" y="-139" font-family="Helvetica,sans-Serif" font-size="10.00">libs/JSystem/J3DGraphBase</text>
<text text-anchor="middle" x="381" y="-128" font-family="Helvetica,sans-Serif" font-size="10.00">/J3DDrawBuffer.cpp</text>
</a>
</g>
</g>
<!-- Node485&#45;&gt;Node486 -->
<g id="edge49" class="edge">
<title>Node485&#45;&gt;Node486</title>
<path fill="none" stroke="#63b8ff" d="M1147.78,-198.65C1008.46,-193.89 710.69,-180.91 461,-151 458.2,-150.66 455.35,-150.3 452.47,-149.9"/>
<polygon fill="#63b8ff" stroke="#63b8ff" points="1147.52,-202.14 1157.63,-198.98 1147.76,-195.15 1147.52,-202.14"/>
</g>
<!-- Node487 -->
<g id="node40" class="node">
<title>Node487</title>
<g id="a_node40"><a xlink:href="J3DMaterial_8cpp.html" target="_top" xlink:title=" ">
<polygon fill="white" stroke="#666666" points="612,-151 470,-151 470,-121 612,-121 612,-151"/>
<text text-anchor="start" x="478" y="-139" font-family="Helvetica,sans-Serif" font-size="10.00">libs/JSystem/J3DGraphBase</text>
<text text-anchor="middle" x="541" y="-128" font-family="Helvetica,sans-Serif" font-size="10.00">/J3DMaterial.cpp</text>
</a>
</g>
</g>
<!-- Node485&#45;&gt;Node487 -->
<g id="edge50" class="edge">
<title>Node485&#45;&gt;Node487</title>
<path fill="none" stroke="#63b8ff" d="M1147.86,-196.77C1031.92,-190.06 809.22,-175.18 621,-151 618.2,-150.64 615.35,-150.25 612.48,-149.84"/>
<polygon fill="#63b8ff" stroke="#63b8ff" points="1147.39,-200.25 1157.57,-197.33 1147.79,-193.26 1147.39,-200.25"/>
</g>
<!-- Node479 -->
<g id="node41" class="node">
<title>Node479</title>
<g id="a_node41"><a xlink:href="J3DPacket_8cpp.html" target="_top" xlink:title=" ">
<polygon fill="white" stroke="#666666" points="772,-151 630,-151 630,-121 772,-121 772,-151"/>
<text text-anchor="start" x="638" y="-139" font-family="Helvetica,sans-Serif" font-size="10.00">libs/JSystem/J3DGraphBase</text>
<text text-anchor="middle" x="701" y="-128" font-family="Helvetica,sans-Serif" font-size="10.00">/J3DPacket.cpp</text>
</a>
</g>
</g>
<!-- Node485&#45;&gt;Node479 -->
<g id="edge51" class="edge">
<title>Node485&#45;&gt;Node479</title>
<path fill="none" stroke="#63b8ff" d="M1147.82,-193.61C1058.51,-184.93 909.01,-169.36 781,-151 778.21,-150.6 775.37,-150.18 772.49,-149.74"/>
<polygon fill="#63b8ff" stroke="#63b8ff" points="1147.41,-197.09 1157.7,-194.57 1148.09,-190.12 1147.41,-197.09"/>
</g>
<!-- Node245 -->
<g id="node42" class="node">
<title>Node245</title>
<g id="a_node42"><a xlink:href="d__k__wmark_8cpp.html" target="_top" xlink:title=" ">
<polygon fill="white" stroke="#666666" points="900,-145.5 790,-145.5 790,-126.5 900,-126.5 900,-145.5"/>
<text text-anchor="middle" x="845" y="-133.5" font-family="Helvetica,sans-Serif" font-size="10.00">src/d/d_k_wmark.cpp</text>
</a>
</g>
</g>
<!-- Node485&#45;&gt;Node245 -->
<g id="edge55" class="edge">
<title>Node485&#45;&gt;Node245</title>
<path fill="none" stroke="#63b8ff" d="M1147.89,-189.89C1083.41,-180.52 990.09,-166.23 909,-151 900.95,-149.49 892.37,-147.72 884.19,-145.96"/>
<polygon fill="#63b8ff" stroke="#63b8ff" points="1147.29,-193.34 1157.68,-191.31 1148.29,-186.42 1147.29,-193.34"/>
</g>
<!-- Node246 -->
<g id="node43" class="node">
<title>Node246</title>
<g id="a_node43"><a xlink:href="d__k__wpillar_8cpp.html" target="_top" xlink:title=" ">
<polygon fill="white" stroke="#666666" points="1026,-145.5 918,-145.5 918,-126.5 1026,-126.5 1026,-145.5"/>
<text text-anchor="middle" x="972" y="-133.5" font-family="Helvetica,sans-Serif" font-size="10.00">src/d/d_k_wpillar.cpp</text>
</a>
</g>
</g>
<!-- Node485&#45;&gt;Node246 -->
<g id="edge56" class="edge">
<title>Node485&#45;&gt;Node246</title>
<path fill="none" stroke="#63b8ff" d="M1158.39,-183.78C1109.81,-171.59 1046.63,-155.73 1007.71,-145.96"/>
<polygon fill="#63b8ff" stroke="#63b8ff" points="1157.44,-187.15 1167.99,-186.19 1159.14,-180.36 1157.44,-187.15"/>
</g>
<!-- Node250 -->
<g id="node44" class="node">
<title>Node250</title>
<g id="a_node44"><a xlink:href="d__model_8cpp.html" target="_top" xlink:title=" ">
<polygon fill="white" stroke="#666666" points="1140,-145.5 1044,-145.5 1044,-126.5 1140,-126.5 1140,-145.5"/>
<text text-anchor="middle" x="1092" y="-133.5" font-family="Helvetica,sans-Serif" font-size="10.00">src/d/d_model.cpp</text>
</a>
</g>
</g>
<!-- Node485&#45;&gt;Node250 -->
<g id="edge57" class="edge">
<title>Node485&#45;&gt;Node250</title>
<path fill="none" stroke="#63b8ff" d="M1186.39,-181.75C1161.36,-169.88 1130.43,-155.22 1110.95,-145.99"/>
<polygon fill="#63b8ff" stroke="#63b8ff" points="1184.8,-184.87 1195.34,-185.99 1187.8,-178.54 1184.8,-184.87"/>
</g>
<!-- Node252 -->
<g id="node45" class="node">
<title>Node252</title>
<g id="a_node45"><a xlink:href="d__resorce_8cpp.html" target="_top" xlink:title=" ">
<polygon fill="white" stroke="#666666" points="102,-145.5 0,-145.5 0,-126.5 102,-126.5 102,-145.5"/>
<text text-anchor="middle" x="51" y="-133.5" font-family="Helvetica,sans-Serif" font-size="10.00">src/d/d_resorce.cpp</text>
</a>
</g>
</g>
<!-- Node485&#45;&gt;Node252 -->
<g id="edge58" class="edge">
<title>Node485&#45;&gt;Node252</title>
<path fill="none" stroke="#63b8ff" d="M1147.91,-199.35C927.89,-194.47 311.66,-178.66 111,-151 102.31,-149.8 93.03,-147.94 84.43,-145.95"/>
<polygon fill="#63b8ff" stroke="#63b8ff" points="1147.75,-202.85 1157.82,-199.57 1147.9,-195.85 1147.75,-202.85"/>
</g>
<!-- Node124 -->
<g id="node46" class="node">
<title>Node124</title>
<g id="a_node46"><a xlink:href="d__kankyo_8cpp.html" target="_top" xlink:title=" ">
<polygon fill="white" stroke="#666666" points="254,-145.5 120,-145.5 120,-126.5 254,-126.5 254,-145.5"/>
<text text-anchor="middle" x="187" y="-133.5" font-family="Helvetica,sans-Serif" font-size="10.00">src/d/kankyo/d_kankyo.cpp</text>
</a>
</g>
</g>
<!-- Node485&#45;&gt;Node124 -->
<g id="edge60" class="edge">
<title>Node485&#45;&gt;Node124</title>
<path fill="none" stroke="#63b8ff" d="M1147.59,-200.05C983.03,-197.39 593.01,-187.43 268,-151 256.65,-149.73 244.49,-147.88 233.13,-145.95"/>
<polygon fill="#63b8ff" stroke="#63b8ff" points="1147.48,-203.55 1157.53,-200.21 1147.59,-196.55 1147.48,-203.55"/>
</g>
</g>
</svg>
