<?xml version="1.0" encoding="UTF-8" standalone="no"?>
<!DOCTYPE svg PUBLIC "-//W3C//DTD SVG 1.1//EN"
 "http://www.w3.org/Graphics/SVG/1.1/DTD/svg11.dtd">
<!-- Generated by graphviz version 7.0.5 (20221223.1930)
 -->
<!-- Title: include/JSystem/J3DGraphBase/J3DStruct.h Pages: 1 -->
<svg width="3840pt" height="302pt"
 viewBox="0.00 0.00 3840.00 302.00" xmlns="http://www.w3.org/2000/svg" xmlns:xlink="http://www.w3.org/1999/xlink">
<g id="graph0" class="graph" transform="scale(1 1) rotate(0) translate(4 298)">
<title>include/JSystem/J3DGraphBase/J3DStruct.h</title>
<!-- Node1 -->
<g id="node1" class="node">
<title>Node1</title>
<g id="a_node1"><a xlink:title=" ">
<polygon fill="#999999" stroke="#666666" points="2507.5,-294 2372.5,-294 2372.5,-264 2507.5,-264 2507.5,-294"/>
<text text-anchor="start" x="2380.5" y="-282" font-family="Helvetica,sans-Serif" font-size="10.00">include/JSystem/J3DGraph</text>
<text text-anchor="middle" x="2440" y="-271" font-family="Helvetica,sans-Serif" font-size="10.00">Base/J3DStruct.h</text>
</a>
</g>
</g>
<!-- Node2 -->
<g id="node2" class="node">
<title>Node2</title>
<g id="a_node2"><a xlink:href="J3DMatBlock_8h.html" target="_top" xlink:title=" ">
<polygon fill="white" stroke="#666666" points="1910.5,-162 1775.5,-162 1775.5,-132 1910.5,-132 1910.5,-162"/>
<text text-anchor="start" x="1783.5" y="-150" font-family="Helvetica,sans-Serif" font-size="10.00">include/JSystem/J3DGraph</text>
<text text-anchor="middle" x="1843" y="-139" font-family="Helvetica,sans-Serif" font-size="10.00">Base/J3DMatBlock.h</text>
</a>
</g>
</g>
<!-- Node1&#45;&gt;Node2 -->
<g id="edge1" class="edge">
<title>Node1&#45;&gt;Node2</title>
<path fill="none" stroke="#63b8ff" d="M2361.04,-275.38C2276.56,-270.98 2139.27,-259.26 2025,-228 1967.07,-212.15 1903.81,-180.89 1869.23,-162.49"/>
<polygon fill="#63b8ff" stroke="#63b8ff" points="2360.68,-278.86 2370.84,-275.86 2361.02,-271.87 2360.68,-278.86"/>
</g>
<!-- Node39 -->
<g id="node36" class="node">
<title>Node39</title>
<g id="a_node36"><a xlink:href="J3DTexture_8h.html" target="_top" xlink:title=" ">
<polygon fill="white" stroke="#666666" points="2168.5,-228 2033.5,-228 2033.5,-198 2168.5,-198 2168.5,-228"/>
<text text-anchor="start" x="2041.5" y="-216" font-family="Helvetica,sans-Serif" font-size="10.00">include/JSystem/J3DGraph</text>
<text text-anchor="middle" x="2101" y="-205" font-family="Helvetica,sans-Serif" font-size="10.00">Base/J3DTexture.h</text>
</a>
</g>
</g>
<!-- Node1&#45;&gt;Node39 -->
<g id="edge39" class="edge">
<title>Node1&#45;&gt;Node39</title>
<path fill="none" stroke="#63b8ff" d="M2361.22,-263.13C2302.97,-252.13 2224.46,-237.31 2168.96,-226.83"/>
<polygon fill="#63b8ff" stroke="#63b8ff" points="2360.25,-266.51 2370.73,-264.92 2361.55,-259.63 2360.25,-266.51"/>
</g>
<!-- Node44 -->
<g id="node41" class="node">
<title>Node44</title>
<g id="a_node41"><a xlink:href="d__kankyo_8h.html" target="_top" xlink:title=" ">
<polygon fill="white" stroke="#666666" points="2755,-228 2657,-228 2657,-198 2755,-198 2755,-228"/>
<text text-anchor="start" x="2665" y="-216" font-family="Helvetica,sans-Serif" font-size="10.00">include/d/kankyo/d</text>
<text text-anchor="middle" x="2706" y="-205" font-family="Helvetica,sans-Serif" font-size="10.00">_kankyo.h</text>
</a>
</g>
</g>
<!-- Node1&#45;&gt;Node44 -->
<g id="edge47" class="edge">
<title>Node1&#45;&gt;Node44</title>
<path fill="none" stroke="#63b8ff" d="M2511.14,-260.88C2557.19,-249.8 2615.97,-235.66 2656.87,-225.82"/>
<polygon fill="#63b8ff" stroke="#63b8ff" points="2510.4,-257.46 2501.5,-263.2 2512.04,-264.27 2510.4,-257.46"/>
</g>
<!-- Node414 -->
<g id="node50" class="node">
<title>Node414</title>
<g id="a_node50"><a xlink:href="J3DStruct_8cpp.html" target="_top" xlink:title=" ">
<polygon fill="white" stroke="#666666" points="2915,-228 2773,-228 2773,-198 2915,-198 2915,-228"/>
<text text-anchor="start" x="2781" y="-216" font-family="Helvetica,sans-Serif" font-size="10.00">libs/JSystem/J3DGraphBase</text>
<text text-anchor="middle" x="2844" y="-205" font-family="Helvetica,sans-Serif" font-size="10.00">/J3DStruct.cpp</text>
</a>
</g>
</g>
<!-- Node1&#45;&gt;Node414 -->
<g id="edge62" class="edge">
<title>Node1&#45;&gt;Node414</title>
<path fill="none" stroke="#63b8ff" d="M2518.79,-266.3C2584.44,-256.43 2680.39,-241.77 2764,-228 2766.92,-227.52 2769.9,-227.02 2772.91,-226.52"/>
<polygon fill="#63b8ff" stroke="#63b8ff" points="2518.57,-262.79 2509.2,-267.73 2519.61,-269.71 2518.57,-262.79"/>
</g>
<!-- Node3 -->
<g id="node3" class="node">
<title>Node3</title>
<g id="a_node3"><a xlink:href="J3DMaterial_8h.html" target="_top" xlink:title=" ">
<polygon fill="white" stroke="#666666" points="1678.5,-96 1543.5,-96 1543.5,-66 1678.5,-66 1678.5,-96"/>
<text text-anchor="start" x="1551.5" y="-84" font-family="Helvetica,sans-Serif" font-size="10.00">include/JSystem/J3DGraph</text>
<text text-anchor="middle" x="1611" y="-73" font-family="Helvetica,sans-Serif" font-size="10.00">Base/J3DMaterial.h</text>
</a>
</g>
</g>
<!-- Node2&#45;&gt;Node3 -->
<g id="edge2" class="edge">
<title>Node2&#45;&gt;Node3</title>
<path fill="none" stroke="#63b8ff" d="M1779.61,-128.51C1743.05,-118.43 1697.64,-105.9 1663.16,-96.39"/>
<polygon fill="#63b8ff" stroke="#63b8ff" points="1778.62,-131.87 1789.19,-131.15 1780.48,-125.12 1778.62,-131.87"/>
</g>
<!-- Node24 -->
<g id="node24" class="node">
<title>Node24</title>
<g id="a_node24"><a xlink:href="d__a__alink_8h.html" target="_top" xlink:title=" ">
<polygon fill="#fff0f0" stroke="red" points="3287,-90.5 3171,-90.5 3171,-71.5 3287,-71.5 3287,-90.5"/>
<text text-anchor="middle" x="3229" y="-78.5" font-family="Helvetica,sans-Serif" font-size="10.00">include/d/a/d_a_alink.h</text>
</a>
</g>
</g>
<!-- Node2&#45;&gt;Node24 -->
<g id="edge23" class="edge">
<title>Node2&#45;&gt;Node24</title>
<path fill="none" stroke="#63b8ff" d="M1922.19,-135.51C1934.49,-134.15 1947.08,-132.92 1959,-132 2437.41,-95.22 2558.86,-121.54 3038,-96 3082.49,-93.63 3132.74,-89.9 3170.52,-86.89"/>
<polygon fill="#63b8ff" stroke="#63b8ff" points="1922.03,-132.01 1912.49,-136.62 1922.82,-138.96 1922.03,-132.01"/>
</g>
<!-- Node34 -->
<g id="node31" class="node">
<title>Node34</title>
<g id="a_node31"><a xlink:href="d__a__midna_8h.html" target="_top" xlink:title=" ">
<polygon fill="#fff0f0" stroke="red" points="3029,-96 2923,-96 2923,-66 3029,-66 3029,-96"/>
<text text-anchor="start" x="2931" y="-84" font-family="Helvetica,sans-Serif" font-size="10.00">include/rel/d/a/d_a</text>
<text text-anchor="middle" x="2976" y="-73" font-family="Helvetica,sans-Serif" font-size="10.00">_midna/d_a_midna.h</text>
</a>
</g>
</g>
<!-- Node2&#45;&gt;Node34 -->
<g id="edge31" class="edge">
<title>Node2&#45;&gt;Node34</title>
<path fill="none" stroke="#63b8ff" d="M1922.19,-135.62C1934.5,-134.24 1947.08,-132.98 1959,-132 2327.45,-101.83 2420.97,-117.88 2790,-96 2834.77,-93.35 2885.54,-89.47 2922.71,-86.46"/>
<polygon fill="#63b8ff" stroke="#63b8ff" points="1922.04,-132.12 1912.5,-136.73 1922.83,-139.07 1922.04,-132.12"/>
</g>
<!-- Node35 -->
<g id="node32" class="node">
<title>Node35</title>
<g id="a_node32"><a xlink:href="J3DMatBlock_8cpp.html" target="_top" xlink:title=" ">
<polygon fill="white" stroke="#666666" points="1839,-96 1697,-96 1697,-66 1839,-66 1839,-96"/>
<text text-anchor="start" x="1705" y="-84" font-family="Helvetica,sans-Serif" font-size="10.00">libs/JSystem/J3DGraphBase</text>
<text text-anchor="middle" x="1768" y="-73" font-family="Helvetica,sans-Serif" font-size="10.00">/J3DMatBlock.cpp</text>
</a>
</g>
</g>
<!-- Node2&#45;&gt;Node35 -->
<g id="edge35" class="edge">
<title>Node2&#45;&gt;Node35</title>
<path fill="none" stroke="#63b8ff" d="M1817.71,-124.42C1806.89,-115.18 1794.54,-104.65 1784.86,-96.39"/>
<polygon fill="#63b8ff" stroke="#63b8ff" points="1815.32,-126.99 1825.2,-130.81 1819.87,-121.66 1815.32,-126.99"/>
</g>
<!-- Node36 -->
<g id="node33" class="node">
<title>Node36</title>
<g id="a_node33"><a xlink:href="J3DShapeMtx_8cpp.html" target="_top" xlink:title=" ">
<polygon fill="white" stroke="#666666" points="1999,-96 1857,-96 1857,-66 1999,-66 1999,-96"/>
<text text-anchor="start" x="1865" y="-84" font-family="Helvetica,sans-Serif" font-size="10.00">libs/JSystem/J3DGraphBase</text>
<text text-anchor="middle" x="1928" y="-73" font-family="Helvetica,sans-Serif" font-size="10.00">/J3DShapeMtx.cpp</text>
</a>
</g>
</g>
<!-- Node2&#45;&gt;Node36 -->
<g id="edge36" class="edge">
<title>Node2&#45;&gt;Node36</title>
<path fill="none" stroke="#63b8ff" d="M1870.92,-124.97C1883.37,-115.61 1897.7,-104.81 1908.89,-96.39"/>
<polygon fill="#63b8ff" stroke="#63b8ff" points="1868.96,-122.07 1863.07,-130.89 1873.17,-127.67 1868.96,-122.07"/>
</g>
<!-- Node37 -->
<g id="node34" class="node">
<title>Node37</title>
<g id="a_node34"><a xlink:href="J3DTevs_8cpp.html" target="_top" xlink:title=" ">
<polygon fill="white" stroke="#666666" points="2285,-96 2143,-96 2143,-66 2285,-66 2285,-96"/>
<text text-anchor="start" x="2151" y="-84" font-family="Helvetica,sans-Serif" font-size="10.00">libs/JSystem/J3DGraphBase</text>
<text text-anchor="middle" x="2214" y="-73" font-family="Helvetica,sans-Serif" font-size="10.00">/J3DTevs.cpp</text>
</a>
</g>
</g>
<!-- Node2&#45;&gt;Node37 -->
<g id="edge37" class="edge">
<title>Node2&#45;&gt;Node37</title>
<path fill="none" stroke="#63b8ff" d="M1921.94,-132.5C1980.48,-122.48 2062.23,-108.45 2134,-96 2136.92,-95.49 2139.89,-94.98 2142.9,-94.45"/>
<polygon fill="#63b8ff" stroke="#63b8ff" points="1921.68,-129 1912.41,-134.14 1922.86,-135.9 1921.68,-129"/>
</g>
<!-- Node38 -->
<g id="node35" class="node">
<title>Node38</title>
<g id="a_node35"><a xlink:href="d__attention_8cpp.html" target="_top" xlink:title=" ">
<polygon fill="white" stroke="#666666" points="2124.5,-90.5 2017.5,-90.5 2017.5,-71.5 2124.5,-71.5 2124.5,-90.5"/>
<text text-anchor="middle" x="2071" y="-78.5" font-family="Helvetica,sans-Serif" font-size="10.00">src/d/d_attention.cpp</text>
</a>
</g>
</g>
<!-- Node2&#45;&gt;Node38 -->
<g id="edge38" class="edge">
<title>Node2&#45;&gt;Node38</title>
<path fill="none" stroke="#63b8ff" d="M1905.45,-128.47C1948.73,-116.32 2004.57,-100.65 2039.07,-90.96"/>
<polygon fill="#63b8ff" stroke="#63b8ff" points="1904.59,-125.08 1895.91,-131.15 1906.48,-131.82 1904.59,-125.08"/>
</g>
<!-- Node4 -->
<g id="node4" class="node">
<title>Node4</title>
<g id="a_node4"><a xlink:href="J3DJoint_8cpp.html" target="_top" xlink:title=" ">
<polygon fill="white" stroke="#666666" points="158,-30 0,-30 0,0 158,0 158,-30"/>
<text text-anchor="start" x="8" y="-18" font-family="Helvetica,sans-Serif" font-size="10.00">libs/JSystem/J3DGraphAnimator</text>
<text text-anchor="middle" x="79" y="-7" font-family="Helvetica,sans-Serif" font-size="10.00">/J3DJoint.cpp</text>
</a>
</g>
</g>
<!-- Node3&#45;&gt;Node4 -->
<g id="edge3" class="edge">
<title>Node3&#45;&gt;Node4</title>
<path fill="none" stroke="#63b8ff" d="M1531.83,-80.67C1313.7,-81.8 685.8,-80.06 167,-30 164.07,-29.72 161.1,-29.4 158.1,-29.05"/>
<polygon fill="#63b8ff" stroke="#63b8ff" points="1531.65,-84.18 1541.63,-80.62 1531.61,-77.18 1531.65,-84.18"/>
</g>
<!-- Node5 -->
<g id="node5" class="node">
<title>Node5</title>
<g id="a_node5"><a xlink:href="J3DJointTree_8cpp.html" target="_top" xlink:title=" ">
<polygon fill="white" stroke="#666666" points="334,-30 176,-30 176,0 334,0 334,-30"/>
<text text-anchor="start" x="184" y="-18" font-family="Helvetica,sans-Serif" font-size="10.00">libs/JSystem/J3DGraphAnimator</text>
<text text-anchor="middle" x="255" y="-7" font-family="Helvetica,sans-Serif" font-size="10.00">/J3DJointTree.cpp</text>
</a>
</g>
</g>
<!-- Node3&#45;&gt;Node5 -->
<g id="edge4" class="edge">
<title>Node3&#45;&gt;Node5</title>
<path fill="none" stroke="#63b8ff" d="M1531.86,-80.13C1332.04,-79.74 791.14,-74.33 343,-30 340.07,-29.71 337.1,-29.39 334.1,-29.04"/>
<polygon fill="#63b8ff" stroke="#63b8ff" points="1531.59,-83.63 1541.59,-80.14 1531.6,-76.63 1531.59,-83.63"/>
</g>
<!-- Node6 -->
<g id="node6" class="node">
<title>Node6</title>
<g id="a_node6"><a xlink:href="J3DMaterialAnm_8cpp.html" target="_top" xlink:title=" ">
<polygon fill="white" stroke="#666666" points="510,-30 352,-30 352,0 510,0 510,-30"/>
<text text-anchor="start" x="360" y="-18" font-family="Helvetica,sans-Serif" font-size="10.00">libs/JSystem/J3DGraphAnimator</text>
<text text-anchor="middle" x="431" y="-7" font-family="Helvetica,sans-Serif" font-size="10.00">/J3DMaterialAnm.cpp</text>
</a>
</g>
</g>
<!-- Node3&#45;&gt;Node6 -->
<g id="edge5" class="edge">
<title>Node3&#45;&gt;Node6</title>
<path fill="none" stroke="#63b8ff" d="M1531.59,-79.41C1351.19,-77.4 896.8,-68.58 519,-30 516.08,-29.7 513.1,-29.37 510.1,-29.01"/>
<polygon fill="#63b8ff" stroke="#63b8ff" points="1531.53,-82.91 1541.56,-79.51 1531.6,-75.91 1531.53,-82.91"/>
</g>
<!-- Node7 -->
<g id="node7" class="node">
<title>Node7</title>
<g id="a_node7"><a xlink:href="J3DMaterialAttach_8cpp.html" target="_top" xlink:title=" ">
<polygon fill="white" stroke="#666666" points="686,-30 528,-30 528,0 686,0 686,-30"/>
<text text-anchor="start" x="536" y="-18" font-family="Helvetica,sans-Serif" font-size="10.00">libs/JSystem/J3DGraphAnimator</text>
<text text-anchor="middle" x="607" y="-7" font-family="Helvetica,sans-Serif" font-size="10.00">/J3DMaterialAttach.cpp</text>
</a>
</g>
</g>
<!-- Node3&#45;&gt;Node7 -->
<g id="edge6" class="edge">
<title>Node3&#45;&gt;Node7</title>
<path fill="none" stroke="#63b8ff" d="M1531.93,-78.43C1372.98,-74.67 1003.54,-62.87 695,-30 692.08,-29.69 689.1,-29.35 686.1,-28.98"/>
<polygon fill="#63b8ff" stroke="#63b8ff" points="1531.42,-81.92 1541.5,-78.65 1531.58,-74.92 1531.42,-81.92"/>
</g>
<!-- Node8 -->
<g id="node8" class="node">
<title>Node8</title>
<g id="a_node8"><a xlink:href="J3DModel_8cpp.html" target="_top" xlink:title=" ">
<polygon fill="white" stroke="#666666" points="862,-30 704,-30 704,0 862,0 862,-30"/>
<text text-anchor="start" x="712" y="-18" font-family="Helvetica,sans-Serif" font-size="10.00">libs/JSystem/J3DGraphAnimator</text>
<text text-anchor="middle" x="783" y="-7" font-family="Helvetica,sans-Serif" font-size="10.00">/J3DModel.cpp</text>
</a>
</g>
</g>
<!-- Node3&#45;&gt;Node8 -->
<g id="edge7" class="edge">
<title>Node3&#45;&gt;Node8</title>
<path fill="none" stroke="#63b8ff" d="M1531.75,-77C1396.09,-71.33 1110.79,-57.12 871,-30 868.08,-29.67 865.11,-29.31 862.11,-28.93"/>
<polygon fill="#63b8ff" stroke="#63b8ff" points="1531.57,-80.49 1541.71,-77.41 1531.86,-73.5 1531.57,-80.49"/>
</g>
<!-- Node9 -->
<g id="node9" class="node">
<title>Node9</title>
<g id="a_node9"><a xlink:href="J3DModelData_8cpp.html" target="_top" xlink:title=" ">
<polygon fill="white" stroke="#666666" points="1038,-30 880,-30 880,0 1038,0 1038,-30"/>
<text text-anchor="start" x="888" y="-18" font-family="Helvetica,sans-Serif" font-size="10.00">libs/JSystem/J3DGraphAnimator</text>
<text text-anchor="middle" x="959" y="-7" font-family="Helvetica,sans-Serif" font-size="10.00">/J3DModelData.cpp</text>
</a>
</g>
</g>
<!-- Node3&#45;&gt;Node9 -->
<g id="edge8" class="edge">
<title>Node3&#45;&gt;Node9</title>
<path fill="none" stroke="#63b8ff" d="M1531.88,-74.72C1422.6,-67.04 1219.43,-51.33 1047,-30 1044.08,-29.64 1041.11,-29.25 1038.12,-28.85"/>
<polygon fill="#63b8ff" stroke="#63b8ff" points="1531.39,-78.2 1541.61,-75.4 1531.88,-71.22 1531.39,-78.2"/>
</g>
<!-- Node10 -->
<g id="node10" class="node">
<title>Node10</title>
<g id="a_node10"><a xlink:href="J3DDrawBuffer_8cpp.html" target="_top" xlink:title=" ">
<polygon fill="white" stroke="#666666" points="1198,-30 1056,-30 1056,0 1198,0 1198,-30"/>
<text text-anchor="start" x="1064" y="-18" font-family="Helvetica,sans-Serif" font-size="10.00">libs/JSystem/J3DGraphBase</text>
<text text-anchor="middle" x="1127" y="-7" font-family="Helvetica,sans-Serif" font-size="10.00">/J3DDrawBuffer.cpp</text>
</a>
</g>
</g>
<!-- Node3&#45;&gt;Node10 -->
<g id="edge9" class="edge">
<title>Node3&#45;&gt;Node10</title>
<path fill="none" stroke="#63b8ff" d="M1532.14,-71.42C1450.59,-62.28 1319.66,-46.82 1207,-30 1204.07,-29.56 1201.09,-29.1 1198.07,-28.63"/>
<polygon fill="#63b8ff" stroke="#63b8ff" points="1531.48,-74.87 1541.8,-72.5 1532.25,-67.91 1531.48,-74.87"/>
</g>
<!-- Node11 -->
<g id="node11" class="node">
<title>Node11</title>
<g id="a_node11"><a xlink:href="J3DMaterial_8cpp.html" target="_top" xlink:title=" ">
<polygon fill="white" stroke="#666666" points="1358,-30 1216,-30 1216,0 1358,0 1358,-30"/>
<text text-anchor="start" x="1224" y="-18" font-family="Helvetica,sans-Serif" font-size="10.00">libs/JSystem/J3DGraphBase</text>
<text text-anchor="middle" x="1287" y="-7" font-family="Helvetica,sans-Serif" font-size="10.00">/J3DMaterial.cpp</text>
</a>
</g>
</g>
<!-- Node3&#45;&gt;Node11 -->
<g id="edge10" class="edge">
<title>Node3&#45;&gt;Node11</title>
<path fill="none" stroke="#63b8ff" d="M1532.03,-64.4C1479.05,-53.94 1409.83,-40.26 1358.48,-30.12"/>
<polygon fill="#63b8ff" stroke="#63b8ff" points="1531.11,-67.79 1541.59,-66.29 1532.46,-60.92 1531.11,-67.79"/>
</g>
<!-- Node12 -->
<g id="node12" class="node">
<title>Node12</title>
<g id="a_node12"><a xlink:href="J3DPacket_8cpp.html" target="_top" xlink:title=" ">
<polygon fill="white" stroke="#666666" points="1518,-30 1376,-30 1376,0 1518,0 1518,-30"/>
<text text-anchor="start" x="1384" y="-18" font-family="Helvetica,sans-Serif" font-size="10.00">libs/JSystem/J3DGraphBase</text>
<text text-anchor="middle" x="1447" y="-7" font-family="Helvetica,sans-Serif" font-size="10.00">/J3DPacket.cpp</text>
</a>
</g>
</g>
<!-- Node3&#45;&gt;Node12 -->
<g id="edge11" class="edge">
<title>Node3&#45;&gt;Node12</title>
<path fill="none" stroke="#63b8ff" d="M1563.7,-61.54C1538.34,-51.64 1507.55,-39.63 1483.97,-30.43"/>
<polygon fill="#63b8ff" stroke="#63b8ff" points="1562.2,-64.71 1572.79,-65.09 1564.74,-58.19 1562.2,-64.71"/>
</g>
<!-- Node13 -->
<g id="node13" class="node">
<title>Node13</title>
<g id="a_node13"><a xlink:href="J3DModelLoader_8cpp.html" target="_top" xlink:title=" ">
<polygon fill="white" stroke="#666666" points="1685.5,-30 1536.5,-30 1536.5,0 1685.5,0 1685.5,-30"/>
<text text-anchor="start" x="1544.5" y="-18" font-family="Helvetica,sans-Serif" font-size="10.00">libs/JSystem/J3DGraphLoader</text>
<text text-anchor="middle" x="1611" y="-7" font-family="Helvetica,sans-Serif" font-size="10.00">/J3DModelLoader.cpp</text>
</a>
</g>
</g>
<!-- Node3&#45;&gt;Node13 -->
<g id="edge12" class="edge">
<title>Node3&#45;&gt;Node13</title>
<path fill="none" stroke="#63b8ff" d="M1611,-54.39C1611,-46.13 1611,-37.28 1611,-30.16"/>
<polygon fill="#63b8ff" stroke="#63b8ff" points="1607.5,-54.28 1611,-64.28 1614.5,-54.28 1607.5,-54.28"/>
</g>
<!-- Node14 -->
<g id="node14" class="node">
<title>Node14</title>
<g id="a_node14"><a xlink:href="d__a__alink_8cpp.html" target="_top" xlink:title=" ">
<polygon fill="white" stroke="#666666" points="3017.5,-24.5 2908.5,-24.5 2908.5,-5.5 3017.5,-5.5 3017.5,-24.5"/>
<text text-anchor="middle" x="2963" y="-12.5" font-family="Helvetica,sans-Serif" font-size="10.00">src/d/a/d_a_alink.cpp</text>
</a>
</g>
</g>
<!-- Node3&#45;&gt;Node14 -->
<g id="edge13" class="edge">
<title>Node3&#45;&gt;Node14</title>
<path fill="none" stroke="#63b8ff" d="M1690.05,-65.92C2225.45,-10.85 2368.23,-95.37 2899,-30 2908.37,-28.85 2918.39,-26.97 2927.66,-24.96"/>
<polygon fill="#63b8ff" stroke="#63b8ff" points="1690.03,-62.4 1680.45,-66.92 1690.75,-69.36 1690.03,-62.4"/>
</g>
<!-- Node15 -->
<g id="node15" class="node">
<title>Node15</title>
<g id="a_node15"><a xlink:href="d__a__npc_8cpp.html" target="_top" xlink:title=" ">
<polygon fill="white" stroke="#666666" points="1808,-24.5 1704,-24.5 1704,-5.5 1808,-5.5 1808,-24.5"/>
<text text-anchor="middle" x="1756" y="-12.5" font-family="Helvetica,sans-Serif" font-size="10.00">src/d/a/d_a_npc.cpp</text>
</a>
</g>
</g>
<!-- Node3&#45;&gt;Node15 -->
<g id="edge14" class="edge">
<title>Node3&#45;&gt;Node15</title>
<path fill="none" stroke="#63b8ff" d="M1653.9,-61.06C1680.91,-49.14 1714.54,-34.3 1735.64,-24.99"/>
<polygon fill="#63b8ff" stroke="#63b8ff" points="1652.66,-57.79 1644.93,-65.03 1655.49,-64.19 1652.66,-57.79"/>
</g>
<!-- Node16 -->
<g id="node16" class="node">
<title>Node16</title>
<g id="a_node16"><a xlink:href="d__k__wmark_8cpp.html" target="_top" xlink:title=" ">
<polygon fill="white" stroke="#666666" points="2610,-24.5 2500,-24.5 2500,-5.5 2610,-5.5 2610,-24.5"/>
<text text-anchor="middle" x="2555" y="-12.5" font-family="Helvetica,sans-Serif" font-size="10.00">src/d/d_k_wmark.cpp</text>
</a>
</g>
</g>
<!-- Node3&#45;&gt;Node16 -->
<g id="edge15" class="edge">
<title>Node3&#45;&gt;Node16</title>
<path fill="none" stroke="#63b8ff" d="M1690.32,-65.87C2044.99,-27 2140.49,-75.85 2491,-30 2500.25,-28.79 2510.14,-26.92 2519.31,-24.93"/>
<polygon fill="#63b8ff" stroke="#63b8ff" points="1690,-62.38 1680.45,-66.96 1690.78,-69.34 1690,-62.38"/>
</g>
<!-- Node17 -->
<g id="node17" class="node">
<title>Node17</title>
<g id="a_node17"><a xlink:href="d__k__wpillar_8cpp.html" target="_top" xlink:title=" ">
<polygon fill="white" stroke="#666666" points="2736,-24.5 2628,-24.5 2628,-5.5 2736,-5.5 2736,-24.5"/>
<text text-anchor="middle" x="2682" y="-12.5" font-family="Helvetica,sans-Serif" font-size="10.00">src/d/d_k_wpillar.cpp</text>
</a>
</g>
</g>
<!-- Node3&#45;&gt;Node17 -->
<g id="edge16" class="edge">
<title>Node3&#45;&gt;Node17</title>
<path fill="none" stroke="#63b8ff" d="M1690.27,-65.88C2101.61,-21.97 2212.05,-82.65 2619,-30 2628.11,-28.82 2637.85,-26.96 2646.88,-24.98"/>
<polygon fill="#63b8ff" stroke="#63b8ff" points="1690.01,-62.39 1680.45,-66.95 1690.77,-69.35 1690.01,-62.39"/>
</g>
<!-- Node18 -->
<g id="node18" class="node">
<title>Node18</title>
<g id="a_node18"><a xlink:href="d__model_8cpp.html" target="_top" xlink:title=" ">
<polygon fill="white" stroke="#666666" points="1922,-24.5 1826,-24.5 1826,-5.5 1922,-5.5 1922,-24.5"/>
<text text-anchor="middle" x="1874" y="-12.5" font-family="Helvetica,sans-Serif" font-size="10.00">src/d/d_model.cpp</text>
</a>
</g>
</g>
<!-- Node3&#45;&gt;Node18 -->
<g id="edge17" class="edge">
<title>Node3&#45;&gt;Node18</title>
<path fill="none" stroke="#63b8ff" d="M1681.69,-62.89C1721.45,-53.26 1772,-40.99 1817,-30 1823.63,-28.38 1830.7,-26.65 1837.51,-24.98"/>
<polygon fill="#63b8ff" stroke="#63b8ff" points="1680.87,-59.49 1671.98,-65.25 1682.52,-66.29 1680.87,-59.49"/>
</g>
<!-- Node19 -->
<g id="node19" class="node">
<title>Node19</title>
<g id="a_node19"><a xlink:href="d__resorce_8cpp.html" target="_top" xlink:title=" ">
<polygon fill="white" stroke="#666666" points="2042,-24.5 1940,-24.5 1940,-5.5 2042,-5.5 2042,-24.5"/>
<text text-anchor="middle" x="1991" y="-12.5" font-family="Helvetica,sans-Serif" font-size="10.00">src/d/d_resorce.cpp</text>
</a>
</g>
</g>
<!-- Node3&#45;&gt;Node19 -->
<g id="edge18" class="edge">
<title>Node3&#45;&gt;Node19</title>
<path fill="none" stroke="#63b8ff" d="M1690.34,-65.66C1797.67,-48.35 1827.31,-49.74 1931,-30 1938.67,-28.54 1946.85,-26.77 1954.61,-25"/>
<polygon fill="#63b8ff" stroke="#63b8ff" points="1689.8,-62.2 1680.49,-67.27 1690.93,-69.11 1689.8,-62.2"/>
</g>
<!-- Node20 -->
<g id="node20" class="node">
<title>Node20</title>
<g id="a_node20"><a xlink:href="d__file__select_8cpp.html" target="_top" xlink:title=" ">
<polygon fill="white" stroke="#666666" points="2188,-24.5 2060,-24.5 2060,-5.5 2188,-5.5 2188,-24.5"/>
<text text-anchor="middle" x="2124" y="-12.5" font-family="Helvetica,sans-Serif" font-size="10.00">src/d/file/d_file_select.cpp</text>
</a>
</g>
</g>
<!-- Node3&#45;&gt;Node20 -->
<g id="edge19" class="edge">
<title>Node3&#45;&gt;Node20</title>
<path fill="none" stroke="#63b8ff" d="M1690.21,-65.78C1850.5,-43.9 1894.16,-52.77 2051,-30 2060.71,-28.59 2071.08,-26.78 2080.88,-24.94"/>
<polygon fill="#63b8ff" stroke="#63b8ff" points="1689.9,-62.29 1680.47,-67.13 1690.86,-69.22 1689.9,-62.29"/>
</g>
<!-- Node21 -->
<g id="node21" class="node">
<title>Node21</title>
<g id="a_node21"><a xlink:href="d__kankyo_8cpp.html" target="_top" xlink:title=" ">
<polygon fill="white" stroke="#666666" points="2482,-24.5 2348,-24.5 2348,-5.5 2482,-5.5 2482,-24.5"/>
<text text-anchor="middle" x="2415" y="-12.5" font-family="Helvetica,sans-Serif" font-size="10.00">src/d/kankyo/d_kankyo.cpp</text>
</a>
</g>
</g>
<!-- Node3&#45;&gt;Node21 -->
<g id="edge20" class="edge">
<title>Node3&#45;&gt;Node21</title>
<path fill="none" stroke="#63b8ff" d="M1690.15,-65.86C1977.73,-32.83 2054.92,-63.88 2339,-30 2349.66,-28.73 2361.08,-26.89 2371.74,-24.95"/>
<polygon fill="#63b8ff" stroke="#63b8ff" points="1689.98,-62.36 1680.45,-67 1690.79,-69.31 1689.98,-62.36"/>
</g>
<!-- Node22 -->
<g id="node22" class="node">
<title>Node22</title>
<g id="a_node22"><a xlink:href="d__particle_8cpp.html" target="_top" xlink:title=" ">
<polygon fill="white" stroke="#666666" points="2890,-24.5 2754,-24.5 2754,-5.5 2890,-5.5 2890,-24.5"/>
<text text-anchor="middle" x="2822" y="-12.5" font-family="Helvetica,sans-Serif" font-size="10.00">src/d/particle/d_particle.cpp</text>
</a>
</g>
</g>
<!-- Node3&#45;&gt;Node22 -->
<g id="edge21" class="edge">
<title>Node3&#45;&gt;Node22</title>
<path fill="none" stroke="#63b8ff" d="M1690.39,-65.88C2157.36,-16.85 2281.4,-79.77 2745,-30 2756.08,-28.81 2767.96,-26.95 2778.99,-24.96"/>
<polygon fill="#63b8ff" stroke="#63b8ff" points="1690.02,-62.39 1680.45,-66.93 1690.76,-69.36 1690.02,-62.39"/>
</g>
<!-- Node23 -->
<g id="node23" class="node">
<title>Node23</title>
<g id="a_node23"><a xlink:href="m__Do__ext_8cpp.html" target="_top" xlink:title=" ">
<polygon fill="white" stroke="#666666" points="2329.5,-24.5 2206.5,-24.5 2206.5,-5.5 2329.5,-5.5 2329.5,-24.5"/>
<text text-anchor="middle" x="2268" y="-12.5" font-family="Helvetica,sans-Serif" font-size="10.00">src/m_Do/m_Do_ext.cpp</text>
</a>
</g>
</g>
<!-- Node3&#45;&gt;Node23 -->
<g id="edge22" class="edge">
<title>Node3&#45;&gt;Node23</title>
<path fill="none" stroke="#63b8ff" d="M1690.14,-65.84C1914.96,-38.38 1975.83,-59.51 2197,-30 2206.84,-28.69 2217.37,-26.85 2227.22,-24.94"/>
<polygon fill="#63b8ff" stroke="#63b8ff" points="1689.95,-62.34 1680.46,-67.04 1690.82,-69.28 1689.95,-62.34"/>
</g>
<!-- Node24&#45;&gt;Node14 -->
<g id="edge24" class="edge">
<title>Node24&#45;&gt;Node14</title>
<path fill="none" stroke="#63b8ff" d="M3180.79,-68.4C3128.81,-55.89 3047.18,-36.25 3000.01,-24.91"/>
<polygon fill="#63b8ff" stroke="#63b8ff" points="3179.72,-71.74 3190.26,-70.68 3181.36,-64.94 3179.72,-71.74"/>
</g>
<!-- Node25 -->
<g id="node25" class="node">
<title>Node25</title>
<g id="a_node25"><a xlink:href="d__a__player_8cpp.html" target="_top" xlink:title=" ">
<polygon fill="white" stroke="#666666" points="3150,-24.5 3036,-24.5 3036,-5.5 3150,-5.5 3150,-24.5"/>
<text text-anchor="middle" x="3093" y="-12.5" font-family="Helvetica,sans-Serif" font-size="10.00">src/d/a/d_a_player.cpp</text>
</a>
</g>
</g>
<!-- Node24&#45;&gt;Node25 -->
<g id="edge25" class="edge">
<title>Node24&#45;&gt;Node25</title>
<path fill="none" stroke="#63b8ff" d="M3199.82,-66.27C3173.16,-53.72 3134.51,-35.54 3111.75,-24.82"/>
<polygon fill="#63b8ff" stroke="#63b8ff" points="3198.18,-69.37 3208.72,-70.46 3201.16,-63.03 3198.18,-69.37"/>
</g>
<!-- Node26 -->
<g id="node26" class="node">
<title>Node26</title>
<g id="a_node26"><a xlink:href="d__com__inf__game_8cpp.html" target="_top" xlink:title=" ">
<polygon fill="white" stroke="#666666" points="3416,-30 3308,-30 3308,0 3416,0 3416,-30"/>
<text text-anchor="start" x="3316" y="-18" font-family="Helvetica,sans-Serif" font-size="10.00">src/d/com/d_com_inf</text>
<text text-anchor="middle" x="3362" y="-7" font-family="Helvetica,sans-Serif" font-size="10.00">_game.cpp</text>
</a>
</g>
</g>
<!-- Node24&#45;&gt;Node26 -->
<g id="edge26" class="edge">
<title>Node24&#45;&gt;Node26</title>
<path fill="none" stroke="#63b8ff" d="M3257.81,-66.13C3279.7,-55.6 3309.72,-41.16 3331.91,-30.48"/>
<polygon fill="#63b8ff" stroke="#63b8ff" points="3256.35,-62.95 3248.86,-70.44 3259.39,-69.26 3256.35,-62.95"/>
</g>
<!-- Node27 -->
<g id="node27" class="node">
<title>Node27</title>
<g id="a_node27"><a xlink:href="d__camera_8cpp.html" target="_top" xlink:title=" ">
<polygon fill="white" stroke="#666666" points="3536,-24.5 3434,-24.5 3434,-5.5 3536,-5.5 3536,-24.5"/>
<text text-anchor="middle" x="3485" y="-12.5" font-family="Helvetica,sans-Serif" font-size="10.00">src/d/d_camera.cpp</text>
</a>
</g>
</g>
<!-- Node24&#45;&gt;Node27 -->
<g id="edge27" class="edge">
<title>Node24&#45;&gt;Node27</title>
<path fill="none" stroke="#63b8ff" d="M3276.02,-68.24C3326.08,-55.73 3404.17,-36.21 3449.38,-24.91"/>
<polygon fill="#63b8ff" stroke="#63b8ff" points="3275.19,-64.85 3266.33,-70.67 3276.88,-71.64 3275.19,-64.85"/>
</g>
<!-- Node28 -->
<g id="node28" class="node">
<title>Node28</title>
<g id="a_node28"><a xlink:href="d__ev__camera_8cpp.html" target="_top" xlink:title=" ">
<polygon fill="white" stroke="#666666" points="3672,-24.5 3554,-24.5 3554,-5.5 3672,-5.5 3672,-24.5"/>
<text text-anchor="middle" x="3613" y="-12.5" font-family="Helvetica,sans-Serif" font-size="10.00">src/d/d_ev_camera.cpp</text>
</a>
</g>
</g>
<!-- Node24&#45;&gt;Node28 -->
<g id="edge28" class="edge">
<title>Node24&#45;&gt;Node28</title>
<path fill="none" stroke="#63b8ff" d="M3298.56,-69.94C3362.69,-60.43 3460.46,-45.38 3545,-30 3553.42,-28.47 3562.4,-26.71 3570.98,-24.97"/>
<polygon fill="#63b8ff" stroke="#63b8ff" points="3298.26,-66.44 3288.88,-71.37 3299.28,-73.37 3298.26,-66.44"/>
</g>
<!-- Node29 -->
<g id="node29" class="node">
<title>Node29</title>
<g id="a_node29"><a xlink:href="d__event_8cpp.html" target="_top" xlink:title=" ">
<polygon fill="white" stroke="#666666" points="3289.5,-24.5 3168.5,-24.5 3168.5,-5.5 3289.5,-5.5 3289.5,-24.5"/>
<text text-anchor="middle" x="3229" y="-12.5" font-family="Helvetica,sans-Serif" font-size="10.00">src/d/event/d_event.cpp</text>
</a>
</g>
</g>
<!-- Node24&#45;&gt;Node29 -->
<g id="edge29" class="edge">
<title>Node24&#45;&gt;Node29</title>
<path fill="none" stroke="#63b8ff" d="M3229,-59.68C3229,-47.94 3229,-33.77 3229,-24.82"/>
<polygon fill="#63b8ff" stroke="#63b8ff" points="3225.5,-59.59 3229,-69.59 3232.5,-59.59 3225.5,-59.59"/>
</g>
<!-- Node30 -->
<g id="node30" class="node">
<title>Node30</title>
<g id="a_node30"><a xlink:href="d__menu__ring_8cpp.html" target="_top" xlink:title=" ">
<polygon fill="white" stroke="#666666" points="3832,-24.5 3690,-24.5 3690,-5.5 3832,-5.5 3832,-24.5"/>
<text text-anchor="middle" x="3761" y="-12.5" font-family="Helvetica,sans-Serif" font-size="10.00">src/d/menu/d_menu_ring.cpp</text>
</a>
</g>
</g>
<!-- Node24&#45;&gt;Node30 -->
<g id="edge30" class="edge">
<title>Node24&#45;&gt;Node30</title>
<path fill="none" stroke="#63b8ff" d="M3298.58,-73.68C3387.49,-65.28 3546.03,-49.25 3681,-30 3691.33,-28.53 3702.37,-26.73 3712.85,-24.93"/>
<polygon fill="#63b8ff" stroke="#63b8ff" points="3298.44,-70.18 3288.81,-74.6 3299.09,-77.14 3298.44,-70.18"/>
</g>
<!-- Node34&#45;&gt;Node14 -->
<g id="edge32" class="edge">
<title>Node34&#45;&gt;Node14</title>
<path fill="none" stroke="#63b8ff" d="M2970.84,-54.59C2968.7,-44.06 2966.36,-32.53 2964.8,-24.84"/>
<polygon fill="#63b8ff" stroke="#63b8ff" points="2967.39,-55.21 2972.81,-64.31 2974.25,-53.82 2967.39,-55.21"/>
</g>
<!-- Node34&#45;&gt;Node25 -->
<g id="edge33" class="edge">
<title>Node34&#45;&gt;Node25</title>
<path fill="none" stroke="#63b8ff" d="M3012.07,-60.27C3033.61,-48.49 3059.92,-34.1 3076.57,-24.99"/>
<polygon fill="#63b8ff" stroke="#63b8ff" points="3010.68,-57.04 3003.58,-64.91 3014.04,-63.18 3010.68,-57.04"/>
</g>
<!-- Node34&#45;&gt;Node29 -->
<g id="edge34" class="edge">
<title>Node34&#45;&gt;Node29</title>
<path fill="none" stroke="#63b8ff" d="M3040.4,-63.71C3089.06,-51.4 3154.01,-34.97 3193.61,-24.95"/>
<polygon fill="#63b8ff" stroke="#63b8ff" points="3039.65,-60.29 3030.81,-66.13 3041.37,-67.07 3039.65,-60.29"/>
</g>
<!-- Node39&#45;&gt;Node2 -->
<g id="edge40" class="edge">
<title>Node39&#45;&gt;Node2</title>
<path fill="none" stroke="#63b8ff" d="M2031.81,-194.84C1990.93,-184.7 1939.76,-172 1901.01,-162.39"/>
<polygon fill="#63b8ff" stroke="#63b8ff" points="2030.76,-198.18 2041.31,-197.19 2032.45,-191.39 2030.76,-198.18"/>
</g>
<!-- Node39&#45;&gt;Node3 -->
<g id="edge41" class="edge">
<title>Node39&#45;&gt;Node3</title>
<path fill="none" stroke="#63b8ff" d="M2022.15,-207.44C1953.41,-201.77 1851.73,-189.25 1767,-162 1716.58,-145.78 1662.63,-114.65 1633.25,-96.37"/>
<polygon fill="#63b8ff" stroke="#63b8ff" points="2021.56,-210.9 2031.81,-208.2 2022.12,-203.92 2021.56,-210.9"/>
</g>
<!-- Node39&#45;&gt;Node37 -->
<g id="edge44" class="edge">
<title>Node39&#45;&gt;Node37</title>
<path fill="none" stroke="#63b8ff" d="M2022.43,-195.88C1977.35,-183.02 1934.2,-162.14 1959,-132 1961.97,-128.39 2068.31,-108.44 2142.71,-94.85"/>
<polygon fill="#63b8ff" stroke="#63b8ff" points="2021.25,-199.19 2031.81,-198.42 2023.08,-192.43 2021.25,-199.19"/>
</g>
<!-- Node40 -->
<g id="node37" class="node">
<title>Node40</title>
<g id="a_node37"><a xlink:href="J2DAnimation_8cpp.html" target="_top" xlink:title=" ">
<polygon fill="white" stroke="#666666" points="2086.5,-162 1967.5,-162 1967.5,-132 2086.5,-132 2086.5,-162"/>
<text text-anchor="start" x="1975.5" y="-150" font-family="Helvetica,sans-Serif" font-size="10.00">libs/JSystem/J2DGraph</text>
<text text-anchor="middle" x="2027" y="-139" font-family="Helvetica,sans-Serif" font-size="10.00">/J2DAnimation.cpp</text>
</a>
</g>
</g>
<!-- Node39&#45;&gt;Node40 -->
<g id="edge42" class="edge">
<title>Node39&#45;&gt;Node40</title>
<path fill="none" stroke="#63b8ff" d="M2076.05,-190.42C2065.37,-181.18 2053.19,-170.65 2043.63,-162.39"/>
<polygon fill="#63b8ff" stroke="#63b8ff" points="2073.58,-192.91 2083.43,-196.81 2078.16,-187.62 2073.58,-192.91"/>
</g>
<!-- Node41 -->
<g id="node38" class="node">
<title>Node41</title>
<g id="a_node38"><a xlink:href="J3DSys_8cpp.html" target="_top" xlink:title=" ">
<polygon fill="white" stroke="#666666" points="2247,-162 2105,-162 2105,-132 2247,-132 2247,-162"/>
<text text-anchor="start" x="2113" y="-150" font-family="Helvetica,sans-Serif" font-size="10.00">libs/JSystem/J3DGraphBase</text>
<text text-anchor="middle" x="2176" y="-139" font-family="Helvetica,sans-Serif" font-size="10.00">/J3DSys.cpp</text>
</a>
</g>
</g>
<!-- Node39&#45;&gt;Node41 -->
<g id="edge43" class="edge">
<title>Node39&#45;&gt;Node41</title>
<path fill="none" stroke="#63b8ff" d="M2126.29,-190.42C2137.11,-181.18 2149.46,-170.65 2159.14,-162.39"/>
<polygon fill="#63b8ff" stroke="#63b8ff" points="2124.13,-187.66 2118.8,-196.81 2128.68,-192.99 2124.13,-187.66"/>
</g>
<!-- Node42 -->
<g id="node39" class="node">
<title>Node42</title>
<g id="a_node39"><a xlink:href="J3DTexture_8cpp.html" target="_top" xlink:title=" ">
<polygon fill="white" stroke="#666666" points="2407,-162 2265,-162 2265,-132 2407,-132 2407,-162"/>
<text text-anchor="start" x="2273" y="-150" font-family="Helvetica,sans-Serif" font-size="10.00">libs/JSystem/J3DGraphBase</text>
<text text-anchor="middle" x="2336" y="-139" font-family="Helvetica,sans-Serif" font-size="10.00">/J3DTexture.cpp</text>
</a>
</g>
</g>
<!-- Node39&#45;&gt;Node42 -->
<g id="edge45" class="edge">
<title>Node39&#45;&gt;Node42</title>
<path fill="none" stroke="#63b8ff" d="M2164.74,-194.64C2201.85,-184.53 2248.09,-171.94 2283.16,-162.39"/>
<polygon fill="#63b8ff" stroke="#63b8ff" points="2164.22,-191.15 2155.49,-197.16 2166.06,-197.91 2164.22,-191.15"/>
</g>
<!-- Node43 -->
<g id="node40" class="node">
<title>Node43</title>
<g id="a_node40"><a xlink:href="d__eye__hl_8cpp.html" target="_top" xlink:title=" ">
<polygon fill="white" stroke="#666666" points="2523,-156.5 2425,-156.5 2425,-137.5 2523,-137.5 2523,-156.5"/>
<text text-anchor="middle" x="2474" y="-144.5" font-family="Helvetica,sans-Serif" font-size="10.00">src/d/d_eye_hl.cpp</text>
</a>
</g>
</g>
<!-- Node39&#45;&gt;Node43 -->
<g id="edge46" class="edge">
<title>Node39&#45;&gt;Node43</title>
<path fill="none" stroke="#63b8ff" d="M2180.06,-201.23C2243.96,-192.09 2336.09,-177.96 2416,-162 2423.42,-160.52 2431.32,-158.74 2438.83,-156.96"/>
<polygon fill="#63b8ff" stroke="#63b8ff" points="2179.78,-197.73 2170.37,-202.6 2180.76,-204.66 2179.78,-197.73"/>
</g>
<!-- Node44&#45;&gt;Node21 -->
<g id="edge59" class="edge">
<title>Node44&#45;&gt;Node21</title>
<path fill="none" stroke="#63b8ff" d="M2666.02,-192.35C2649.05,-183.59 2629.24,-172.83 2612,-162 2537.38,-115.13 2454.63,-48.6 2425.69,-24.85"/>
<polygon fill="#63b8ff" stroke="#63b8ff" points="2664.32,-195.41 2674.82,-196.83 2667.5,-189.17 2664.32,-195.41"/>
</g>
<!-- Node45 -->
<g id="node42" class="node">
<title>Node45</title>
<g id="a_node42"><a xlink:href="d__k__wmark_8h.html" target="_top" xlink:title=" ">
<polygon fill="white" stroke="#666666" points="2647,-90.5 2531,-90.5 2531,-71.5 2647,-71.5 2647,-90.5"/>
<text text-anchor="middle" x="2589" y="-78.5" font-family="Helvetica,sans-Serif" font-size="10.00">include/d/d_k_wmark.h</text>
</a>
</g>
</g>
<!-- Node44&#45;&gt;Node45 -->
<g id="edge48" class="edge">
<title>Node44&#45;&gt;Node45</title>
<path fill="none" stroke="#63b8ff" d="M2672.34,-191.14C2660.66,-182.94 2647.99,-172.87 2638,-162 2617.06,-139.21 2600.21,-106.18 2592.92,-90.67"/>
<polygon fill="#63b8ff" stroke="#63b8ff" points="2670.34,-194.02 2680.59,-196.72 2674.27,-188.22 2670.34,-194.02"/>
</g>
<!-- Node46 -->
<g id="node43" class="node">
<title>Node46</title>
<g id="a_node43"><a xlink:href="d__k__wpillar_8h.html" target="_top" xlink:title=" ">
<polygon fill="white" stroke="#666666" points="2780.5,-90.5 2665.5,-90.5 2665.5,-71.5 2780.5,-71.5 2780.5,-90.5"/>
<text text-anchor="middle" x="2723" y="-78.5" font-family="Helvetica,sans-Serif" font-size="10.00">include/d/d_k_wpillar.h</text>
</a>
</g>
</g>
<!-- Node44&#45;&gt;Node46 -->
<g id="edge50" class="edge">
<title>Node44&#45;&gt;Node46</title>
<path fill="none" stroke="#63b8ff" d="M2671.15,-190.83C2661.51,-183.07 2652.26,-173.36 2647,-162 2641.39,-149.9 2640.67,-143.74 2647,-132 2657.79,-111.98 2680.49,-98.66 2698.29,-90.84"/>
<polygon fill="#63b8ff" stroke="#63b8ff" points="2669.06,-193.64 2679.18,-196.77 2673.22,-188.01 2669.06,-193.64"/>
</g>
<!-- Node47 -->
<g id="node44" class="node">
<title>Node47</title>
<g id="a_node44"><a xlink:href="d__stage_8h.html" target="_top" xlink:title=" ">
<polygon fill="#fff0f0" stroke="red" points="2756.5,-156.5 2655.5,-156.5 2655.5,-137.5 2756.5,-137.5 2756.5,-156.5"/>
<text text-anchor="middle" x="2706" y="-144.5" font-family="Helvetica,sans-Serif" font-size="10.00">include/d/d_stage.h</text>
</a>
</g>
</g>
<!-- Node44&#45;&gt;Node47 -->
<g id="edge52" class="edge">
<title>Node44&#45;&gt;Node47</title>
<path fill="none" stroke="#63b8ff" d="M2706,-186.59C2706,-176.06 2706,-164.53 2706,-156.84"/>
<polygon fill="#63b8ff" stroke="#63b8ff" points="2702.5,-186.28 2706,-196.28 2709.5,-186.28 2702.5,-186.28"/>
</g>
<!-- Node267 -->
<g id="node45" class="node">
<title>Node267</title>
<g id="a_node45"><a xlink:href="d__menu__collect_8h.html" target="_top" xlink:title=" ">
<polygon fill="#fff0f0" stroke="red" points="2895,-162 2775,-162 2775,-132 2895,-132 2895,-162"/>
<text text-anchor="start" x="2783" y="-150" font-family="Helvetica,sans-Serif" font-size="10.00">include/d/menu/d_menu</text>
<text text-anchor="middle" x="2835" y="-139" font-family="Helvetica,sans-Serif" font-size="10.00">_collect.h</text>
</a>
</g>
</g>
<!-- Node44&#45;&gt;Node267 -->
<g id="edge53" class="edge">
<title>Node44&#45;&gt;Node267</title>
<path fill="none" stroke="#63b8ff" d="M2745.13,-192.59C2764.77,-182.84 2788.16,-171.24 2806.15,-162.31"/>
<polygon fill="#63b8ff" stroke="#63b8ff" points="2743.71,-189.38 2736.31,-196.96 2746.82,-195.66 2743.71,-189.38"/>
</g>
<!-- Node268 -->
<g id="node46" class="node">
<title>Node268</title>
<g id="a_node46"><a xlink:href="d__particle_8h.html" target="_top" xlink:title=" ">
<polygon fill="#fff0f0" stroke="red" points="3147,-162 3057,-162 3057,-132 3147,-132 3147,-162"/>
<text text-anchor="start" x="3065" y="-150" font-family="Helvetica,sans-Serif" font-size="10.00">include/d/particle</text>
<text text-anchor="middle" x="3102" y="-139" font-family="Helvetica,sans-Serif" font-size="10.00">/d_particle.h</text>
</a>
</g>
</g>
<!-- Node44&#45;&gt;Node268 -->
<g id="edge54" class="edge">
<title>Node44&#45;&gt;Node268</title>
<path fill="none" stroke="#63b8ff" d="M2766.42,-197.7C2891.14,-175.63 2926.59,-185.33 3048,-162 3050.85,-161.45 3053.78,-160.84 3056.72,-160.19"/>
<polygon fill="#63b8ff" stroke="#63b8ff" points="2765.99,-194.22 2756.77,-199.44 2767.23,-201.11 2765.99,-194.22"/>
</g>
<!-- Node274 -->
<g id="node47" class="node">
<title>Node274</title>
<g id="a_node47"><a xlink:href="f__op__actor_8h.html" target="_top" xlink:title=" ">
<polygon fill="#fff0f0" stroke="red" points="3038.5,-156.5 2913.5,-156.5 2913.5,-137.5 3038.5,-137.5 3038.5,-156.5"/>
<text text-anchor="middle" x="2976" y="-144.5" font-family="Helvetica,sans-Serif" font-size="10.00">include/f_op/f_op_actor.h</text>
</a>
</g>
</g>
<!-- Node44&#45;&gt;Node274 -->
<g id="edge57" class="edge">
<title>Node44&#45;&gt;Node274</title>
<path fill="none" stroke="#63b8ff" d="M2766.33,-197.45C2832.05,-181.79 2897.46,-166.41 2937.69,-156.97"/>
<polygon fill="#63b8ff" stroke="#63b8ff" points="2765.74,-193.99 2756.83,-199.72 2767.37,-200.8 2765.74,-193.99"/>
</g>
<!-- Node234 -->
<g id="node48" class="node">
<title>Node234</title>
<g id="a_node48"><a xlink:href="d__kankyo__wether_8cpp.html" target="_top" xlink:title=" ">
<polygon fill="white" stroke="#666666" points="3281,-162 3165,-162 3165,-132 3281,-132 3281,-162"/>
<text text-anchor="start" x="3173" y="-150" font-family="Helvetica,sans-Serif" font-size="10.00">src/d/kankyo/d_kankyo</text>
<text text-anchor="middle" x="3223" y="-139" font-family="Helvetica,sans-Serif" font-size="10.00">_wether.cpp</text>
</a>
</g>
</g>
<!-- Node44&#45;&gt;Node234 -->
<g id="edge60" class="edge">
<title>Node44&#45;&gt;Node234</title>
<path fill="none" stroke="#63b8ff" d="M2766.51,-197.76C2938.6,-170.16 2986.61,-187.39 3156,-162 3158.82,-161.58 3161.7,-161.11 3164.61,-160.61"/>
<polygon fill="#63b8ff" stroke="#63b8ff" points="2766.06,-194.28 2756.75,-199.35 2767.19,-201.19 2766.06,-194.28"/>
</g>
<!-- Node413 -->
<g id="node49" class="node">
<title>Node413</title>
<g id="a_node49"><a xlink:href="d__msg__unit_8cpp.html" target="_top" xlink:title=" ">
<polygon fill="white" stroke="#666666" points="3430.5,-156.5 3299.5,-156.5 3299.5,-137.5 3430.5,-137.5 3430.5,-156.5"/>
<text text-anchor="middle" x="3365" y="-144.5" font-family="Helvetica,sans-Serif" font-size="10.00">src/d/msg/d_msg_unit.cpp</text>
</a>
</g>
</g>
<!-- Node44&#45;&gt;Node413 -->
<g id="edge61" class="edge">
<title>Node44&#45;&gt;Node413</title>
<path fill="none" stroke="#63b8ff" d="M2766.39,-197.82C2997.58,-163.28 3061.18,-191.09 3290,-162 3300.38,-160.68 3311.5,-158.84 3321.91,-156.93"/>
<polygon fill="#63b8ff" stroke="#63b8ff" points="2766.11,-194.32 2756.74,-199.29 2767.16,-201.25 2766.11,-194.32"/>
</g>
<!-- Node45&#45;&gt;Node16 -->
<g id="edge49" class="edge">
<title>Node45&#45;&gt;Node16</title>
<path fill="none" stroke="#63b8ff" d="M2578.99,-61.16C2572.61,-49.16 2564.64,-34.15 2559.69,-24.82"/>
<polygon fill="#63b8ff" stroke="#63b8ff" points="2575.78,-62.58 2583.56,-69.76 2581.96,-59.29 2575.78,-62.58"/>
</g>
<!-- Node46&#45;&gt;Node17 -->
<g id="edge51" class="edge">
<title>Node46&#45;&gt;Node17</title>
<path fill="none" stroke="#63b8ff" d="M2711.17,-61.53C2703.44,-49.46 2693.69,-34.25 2687.65,-24.82"/>
<polygon fill="#63b8ff" stroke="#63b8ff" points="2708.14,-63.29 2716.48,-69.83 2714.04,-59.52 2708.14,-63.29"/>
</g>
<!-- Node268&#45;&gt;Node22 -->
<g id="edge56" class="edge">
<title>Node268&#45;&gt;Node22</title>
<path fill="none" stroke="#63b8ff" d="M3045.64,-131.34C2991.36,-117.16 2917.02,-97.6 2914,-96 2878.1,-76.95 2844.3,-41.48 2829.64,-24.93"/>
<polygon fill="#63b8ff" stroke="#63b8ff" points="3044.52,-134.66 3055.08,-133.8 3046.29,-127.89 3044.52,-134.66"/>
</g>
<!-- Node268&#45;&gt;Node24 -->
<g id="edge55" class="edge">
<title>Node268&#45;&gt;Node24</title>
<path fill="none" stroke="#63b8ff" d="M3140.52,-126.59C3164.01,-114.75 3192.93,-100.18 3211.17,-90.99"/>
<polygon fill="#63b8ff" stroke="#63b8ff" points="3139.21,-123.33 3131.85,-130.96 3142.36,-129.58 3139.21,-123.33"/>
</g>
<!-- Node274&#45;&gt;Node34 -->
<g id="edge58" class="edge">
<title>Node274&#45;&gt;Node34</title>
<path fill="none" stroke="#63b8ff" d="M2976,-125.78C2976,-116.17 2976,-104.92 2976,-96.23"/>
<polygon fill="#63b8ff" stroke="#63b8ff" points="2972.5,-125.59 2976,-135.59 2979.5,-125.59 2972.5,-125.59"/>
</g>
</g>
</svg>
