<?xml version="1.0" encoding="UTF-8" standalone="no"?>
<!DOCTYPE svg PUBLIC "-//W3C//DTD SVG 1.1//EN"
 "http://www.w3.org/Graphics/SVG/1.1/DTD/svg11.dtd">
<!-- Generated by graphviz version 7.0.5 (20221223.1930)
 -->
<!-- Title: libs/JSystem/J3DGraphBase/J3DTransform.cpp Pages: 1 -->
<!--zoomable 467 -->
<svg id="main" version="1.1" xmlns="http://www.w3.org/2000/svg" xmlns:xlink="http://www.w3.org/1999/xlink" xml:space="preserve" onload="init(evt)">
<style type="text/css"><![CDATA[
.edge:hover path { stroke: red; }
.edge:hover polygon { stroke: red; fill: red; }
]]></style>
<script type="text/javascript"><![CDATA[
var edges = document.getElementsByTagName('g');
if (edges && edges.length) {
  for (var i=0;i<edges.length;i++) {
    if (edges[i].id.substr(0,4)=='edge') {
      edges[i].setAttribute('class','edge');
    }
  }
}
]]></script>
        <defs>
                <circle id="rim" cx="0" cy="0" r="7"/>
                <circle id="rim2" cx="0" cy="0" r="3.5"/>
                <g id="zoomPlus">
                        <use xlink:href="#rim" fill="#404040">
                                <set attributeName="fill" to="#808080" begin="zoomplus.mouseover" end="zoomplus.mouseout"/>
                        </use>
                        <path d="M-4,0h8M0,-4v8" fill="none" stroke="white" stroke-width="1.5" pointer-events="none"/>
                </g>
                <g id="zoomMin">
                        <use xlink:href="#rim" fill="#404040">
                                <set attributeName="fill" to="#808080" begin="zoomminus.mouseover" end="zoomminus.mouseout"/>
                        </use>
                        <path d="M-4,0h8" fill="none" stroke="white" stroke-width="1.5" pointer-events="none"/>
                </g>
                <g id="dirArrow">
                        <path fill="none" stroke="white" stroke-width="1.5" d="M0,-3.0v7 M-2.5,-0.5L0,-3.0L2.5,-0.5"/>
                </g>
               <g id="resetDef">
                       <use xlink:href="#rim2" fill="#404040">
                               <set attributeName="fill" to="#808080" begin="reset.mouseover" end="reset.mouseout"/>
                       </use>
               </g>
        </defs>

<script type="text/javascript">
var viewWidth = 3209;
var viewHeight = 467;
var sectionId = 'dynsection-0';
</script>
<script xlink:href="svgpan.js"/>
<svg id="graph" class="graph">
<g id="viewport">
<title>libs/JSystem/J3DGraphBase/J3DTransform.cpp</title>
<!-- Node1 -->
<g id="node1" class="node">
<title>Node1</title>
<g id="a_node1"><a xlink:title=" ">
<polygon fill="#999999" stroke="#666666" points="1605,-459 1463,-459 1463,-429 1605,-429 1605,-459"/>
<text text-anchor="start" x="1471" y="-447" font-family="Helvetica,sans-Serif" font-size="10.00">libs/JSystem/J3DGraphBase</text>
<text text-anchor="middle" x="1534" y="-436" font-family="Helvetica,sans-Serif" font-size="10.00">/J3DTransform.cpp</text>
</a>
</g>
</g>
<!-- Node2 -->
<g id="node2" class="node">
<title>Node2</title>
<g id="a_node2"><a xlink:href="J3DTransform_8h.html" target="_top" xlink:title=" ">
<polygon fill="white" stroke="#666666" points="290,-387.5 166,-387.5 166,-357.5 290,-357.5 290,-387.5"/>
<text text-anchor="start" x="174" y="-375.5" font-family="Helvetica,sans-Serif" font-size="10.00">JSystem/J3DGraphBase</text>
<text text-anchor="middle" x="228" y="-364.5" font-family="Helvetica,sans-Serif" font-size="10.00">/J3DTransform.h</text>
</a>
</g>
</g>
<!-- Node1&#45;&gt;Node2 -->
<g id="edge1" class="edge">
<title>Node1&#45;&gt;Node2</title>
<path fill="none" stroke="#63b8ff" d="M1462.77,-442.21C1235.06,-439.35 526.49,-427.81 300,-393 295.59,-392.32 291.06,-391.47 286.53,-390.51"/>
<polygon fill="#63b8ff" stroke="#63b8ff" points="287.32,-387.1 276.79,-388.27 285.75,-393.92 287.32,-387.1"/>
</g>
<!-- Node15 -->
<g id="node15" class="node">
<title>Node15</title>
<g id="a_node15"><a xlink:href="dol2asm_8h.html" target="_top" xlink:title=" ">
<polygon fill="white" stroke="#666666" points="369.5,-382 308.5,-382 308.5,-363 369.5,-363 369.5,-382"/>
<text text-anchor="middle" x="339" y="-370" font-family="Helvetica,sans-Serif" font-size="10.00">dol2asm.h</text>
</a>
</g>
</g>
<!-- Node1&#45;&gt;Node15 -->
<g id="edge18" class="edge">
<title>Node1&#45;&gt;Node15</title>
<path fill="none" stroke="#63b8ff" d="M1462.66,-441.6C1227.16,-436.76 483.57,-419.53 379,-393 373.89,-391.7 368.67,-389.71 363.75,-387.49"/>
<polygon fill="#63b8ff" stroke="#63b8ff" points="365.5,-384.46 354.99,-383.11 362.37,-390.72 365.5,-384.46"/>
</g>
<!-- Node16 -->
<g id="node16" class="node">
<title>Node16</title>
<g id="a_node16"><a xlink:title=" ">
<polygon fill="#e0e0e0" stroke="#999999" points="542,-393 388,-393 388,-352 542,-352 542,-393"/>
<text text-anchor="start" x="396" y="-381" font-family="Helvetica,sans-Serif" font-size="10.00">asm/JSystem/J3DGraphBase</text>
<text text-anchor="start" x="396" y="-370" font-family="Helvetica,sans-Serif" font-size="10.00">/J3DTransform/J3DGQRSetup7</text>
<text text-anchor="middle" x="465" y="-359" font-family="Helvetica,sans-Serif" font-size="10.00">__FUlUlUlUl.s</text>
</a>
</g>
</g>
<!-- Node1&#45;&gt;Node16 -->
<g id="edge19" class="edge">
<title>Node1&#45;&gt;Node16</title>
<path fill="none" stroke="#63b8ff" d="M1462.76,-443.5C1302.13,-443.73 899.47,-439.34 553.45,-393.04"/>
<polygon fill="#63b8ff" stroke="#63b8ff" points="554.08,-389.59 543.7,-391.72 553.14,-396.53 554.08,-389.59"/>
</g>
<!-- Node17 -->
<g id="node17" class="node">
<title>Node17</title>
<g id="a_node17"><a xlink:title=" ">
<polygon fill="#e0e0e0" stroke="#999999" points="729.5,-393 560.5,-393 560.5,-352 729.5,-352 729.5,-393"/>
<text text-anchor="start" x="568.5" y="-381" font-family="Helvetica,sans-Serif" font-size="10.00">asm/JSystem/J3DGraphBase</text>
<text text-anchor="start" x="568.5" y="-370" font-family="Helvetica,sans-Serif" font-size="10.00">/J3DTransform/J3DCalcBBoardMtx</text>
<text text-anchor="middle" x="645" y="-359" font-family="Helvetica,sans-Serif" font-size="10.00">__FPA4_f.s</text>
</a>
</g>
</g>
<!-- Node1&#45;&gt;Node17 -->
<g id="edge20" class="edge">
<title>Node1&#45;&gt;Node17</title>
<path fill="none" stroke="#63b8ff" d="M1462.67,-441.9C1325.02,-439.03 1013.06,-428.97 741.24,-393.19"/>
<polygon fill="#63b8ff" stroke="#63b8ff" points="741.84,-389.74 731.46,-391.89 740.91,-396.68 741.84,-389.74"/>
</g>
<!-- Node18 -->
<g id="node18" class="node">
<title>Node18</title>
<g id="a_node18"><a xlink:title=" ">
<polygon fill="#e0e0e0" stroke="#999999" points="924,-393 748,-393 748,-352 924,-352 924,-393"/>
<text text-anchor="start" x="756" y="-381" font-family="Helvetica,sans-Serif" font-size="10.00">asm/JSystem/J3DGraphBase</text>
<text text-anchor="start" x="756" y="-370" font-family="Helvetica,sans-Serif" font-size="10.00">/J3DTransform/J3DCalcYBBoardMtx</text>
<text text-anchor="middle" x="836" y="-359" font-family="Helvetica,sans-Serif" font-size="10.00">__FPA4_f.s</text>
</a>
</g>
</g>
<!-- Node1&#45;&gt;Node18 -->
<g id="edge21" class="edge">
<title>Node1&#45;&gt;Node18</title>
<path fill="none" stroke="#63b8ff" d="M1462.59,-439.67C1351.95,-433.93 1132.28,-420.24 935.47,-393.11"/>
<polygon fill="#63b8ff" stroke="#63b8ff" points="936.22,-389.68 925.83,-391.76 935.25,-396.61 936.22,-389.68"/>
</g>
<!-- Node19 -->
<g id="node19" class="node">
<title>Node19</title>
<g id="a_node19"><a xlink:title=" ">
<polygon fill="#e0e0e0" stroke="#999999" points="1109.5,-393 942.5,-393 942.5,-352 1109.5,-352 1109.5,-393"/>
<text text-anchor="start" x="950.5" y="-381" font-family="Helvetica,sans-Serif" font-size="10.00">asm/JSystem/J3DGraphBase</text>
<text text-anchor="start" x="950.5" y="-370" font-family="Helvetica,sans-Serif" font-size="10.00">/J3DTransform/J3DPSCalcInverse</text>
<text text-anchor="middle" x="1026" y="-359" font-family="Helvetica,sans-Serif" font-size="10.00">Transpose__FPA4_fPA3_f.s</text>
</a>
</g>
</g>
<!-- Node1&#45;&gt;Node19 -->
<g id="edge22" class="edge">
<title>Node1&#45;&gt;Node19</title>
<path fill="none" stroke="#63b8ff" d="M1462.5,-436.29C1381.94,-428.3 1246.86,-413.62 1120.83,-393.23"/>
<polygon fill="#63b8ff" stroke="#63b8ff" points="1121.77,-389.83 1111.33,-391.67 1120.64,-396.74 1121.77,-389.83"/>
</g>
<!-- Node20 -->
<g id="node20" class="node">
<title>Node20</title>
<g id="a_node20"><a xlink:title=" ">
<polygon fill="#e0e0e0" stroke="#999999" points="1314,-393 1128,-393 1128,-352 1314,-352 1314,-393"/>
<text text-anchor="start" x="1136" y="-381" font-family="Helvetica,sans-Serif" font-size="10.00">asm/JSystem/J3DGraphBase</text>
<text text-anchor="start" x="1136" y="-370" font-family="Helvetica,sans-Serif" font-size="10.00">/J3DTransform/J3DGetTranslateRotate</text>
<text text-anchor="middle" x="1221" y="-359" font-family="Helvetica,sans-Serif" font-size="10.00">Mtx__FRC16J3DTransformInfoPA4_f.s</text>
</a>
</g>
</g>
<!-- Node1&#45;&gt;Node20 -->
<g id="edge23" class="edge">
<title>Node1&#45;&gt;Node20</title>
<path fill="none" stroke="#63b8ff" d="M1468.77,-428.52C1426.3,-419.09 1370.05,-406.6 1321.88,-395.9"/>
<polygon fill="#63b8ff" stroke="#63b8ff" points="1322.78,-392.51 1312.26,-393.76 1321.26,-399.35 1322.78,-392.51"/>
</g>
<!-- Node21 -->
<g id="node21" class="node">
<title>Node21</title>
<g id="a_node21"><a xlink:title=" ">
<polygon fill="#e0e0e0" stroke="#999999" points="1518,-393 1332,-393 1332,-352 1518,-352 1518,-393"/>
<text text-anchor="start" x="1340" y="-381" font-family="Helvetica,sans-Serif" font-size="10.00">asm/JSystem/J3DGraphBase</text>
<text text-anchor="start" x="1340" y="-370" font-family="Helvetica,sans-Serif" font-size="10.00">/J3DTransform/J3DGetTranslateRotate</text>
<text text-anchor="middle" x="1425" y="-359" font-family="Helvetica,sans-Serif" font-size="10.00">Mtx__FsssfffPA4_f.s</text>
</a>
</g>
</g>
<!-- Node1&#45;&gt;Node21 -->
<g id="edge24" class="edge">
<title>Node1&#45;&gt;Node21</title>
<path fill="none" stroke="#63b8ff" d="M1511.42,-428.6C1498.2,-420.17 1481.11,-409.28 1465.62,-399.4"/>
<polygon fill="#63b8ff" stroke="#63b8ff" points="1467.82,-396.65 1457.51,-394.23 1464.06,-402.56 1467.82,-396.65"/>
</g>
<!-- Node22 -->
<g id="node22" class="node">
<title>Node22</title>
<g id="a_node22"><a xlink:title=" ">
<polygon fill="#e0e0e0" stroke="#999999" points="1749.5,-393 1536.5,-393 1536.5,-352 1749.5,-352 1749.5,-393"/>
<text text-anchor="start" x="1544.5" y="-381" font-family="Helvetica,sans-Serif" font-size="10.00">asm/JSystem/J3DGraphBase</text>
<text text-anchor="start" x="1544.5" y="-370" font-family="Helvetica,sans-Serif" font-size="10.00">/J3DTransform/J3DGetTextureMtx</text>
<text text-anchor="middle" x="1643" y="-359" font-family="Helvetica,sans-Serif" font-size="10.00">__FRC17J3DTextureSRTInfoRC3VecPA4_f.s</text>
</a>
</g>
</g>
<!-- Node1&#45;&gt;Node22 -->
<g id="edge25" class="edge">
<title>Node1&#45;&gt;Node22</title>
<path fill="none" stroke="#63b8ff" d="M1556.58,-428.6C1569.8,-420.17 1586.89,-409.28 1602.38,-399.4"/>
<polygon fill="#63b8ff" stroke="#63b8ff" points="1603.94,-402.56 1610.49,-394.23 1600.18,-396.65 1603.94,-402.56"/>
</g>
<!-- Node23 -->
<g id="node23" class="node">
<title>Node23</title>
<g id="a_node23"><a xlink:title=" ">
<polygon fill="#e0e0e0" stroke="#999999" points="1996,-393 1768,-393 1768,-352 1996,-352 1996,-393"/>
<text text-anchor="start" x="1776" y="-381" font-family="Helvetica,sans-Serif" font-size="10.00">asm/JSystem/J3DGraphBase</text>
<text text-anchor="start" x="1776" y="-370" font-family="Helvetica,sans-Serif" font-size="10.00">/J3DTransform/J3DGetTextureMtx</text>
<text text-anchor="middle" x="1882" y="-359" font-family="Helvetica,sans-Serif" font-size="10.00">Old__FRC17J3DTextureSRTInfoRC3VecPA4_f.s</text>
</a>
</g>
</g>
<!-- Node1&#45;&gt;Node23 -->
<g id="edge26" class="edge">
<title>Node1&#45;&gt;Node23</title>
<path fill="none" stroke="#63b8ff" d="M1605.26,-428.77C1652.98,-419.24 1716.76,-406.5 1771.06,-395.66"/>
<polygon fill="#63b8ff" stroke="#63b8ff" points="1771.54,-399.13 1780.66,-393.74 1770.17,-392.27 1771.54,-399.13"/>
</g>
<!-- Node24 -->
<g id="node24" class="node">
<title>Node24</title>
<g id="a_node24"><a xlink:title=" ">
<polygon fill="#e0e0e0" stroke="#999999" points="2214,-393 2014,-393 2014,-352 2214,-352 2214,-393"/>
<text text-anchor="start" x="2022" y="-381" font-family="Helvetica,sans-Serif" font-size="10.00">asm/JSystem/J3DGraphBase</text>
<text text-anchor="start" x="2022" y="-370" font-family="Helvetica,sans-Serif" font-size="10.00">/J3DTransform/J3DGetTextureMtx</text>
<text text-anchor="middle" x="2114" y="-359" font-family="Helvetica,sans-Serif" font-size="10.00">Maya__FRC17J3DTextureSRTInfoPA4_f.s</text>
</a>
</g>
</g>
<!-- Node1&#45;&gt;Node24 -->
<g id="edge27" class="edge">
<title>Node1&#45;&gt;Node24</title>
<path fill="none" stroke="#63b8ff" d="M1605.21,-437.03C1695.37,-429.12 1855.69,-413.87 2002.66,-393.28"/>
<polygon fill="#63b8ff" stroke="#63b8ff" points="2002.76,-396.8 2012.17,-391.94 2001.78,-389.87 2002.76,-396.8"/>
</g>
<!-- Node25 -->
<g id="node25" class="node">
<title>Node25</title>
<g id="a_node25"><a xlink:title=" ">
<polygon fill="#e0e0e0" stroke="#999999" points="2447.5,-393 2232.5,-393 2232.5,-352 2447.5,-352 2447.5,-393"/>
<text text-anchor="start" x="2240.5" y="-381" font-family="Helvetica,sans-Serif" font-size="10.00">asm/JSystem/J3DGraphBase</text>
<text text-anchor="start" x="2240.5" y="-370" font-family="Helvetica,sans-Serif" font-size="10.00">/J3DTransform/J3DGetTextureMtx</text>
<text text-anchor="middle" x="2340" y="-359" font-family="Helvetica,sans-Serif" font-size="10.00">MayaOld__FRC17J3DTextureSRTInfoPA4_f.s</text>
</a>
</g>
</g>
<!-- Node1&#45;&gt;Node25 -->
<g id="edge28" class="edge">
<title>Node1&#45;&gt;Node25</title>
<path fill="none" stroke="#63b8ff" d="M1605.13,-440.02C1728.33,-434.37 1989.63,-420.29 2220.97,-393.18"/>
<polygon fill="#63b8ff" stroke="#63b8ff" points="2221.29,-396.66 2230.81,-392.01 2220.47,-389.71 2221.29,-396.66"/>
</g>
<!-- Node26 -->
<g id="node26" class="node">
<title>Node26</title>
<g id="a_node26"><a xlink:title=" ">
<polygon fill="#e0e0e0" stroke="#999999" points="2626.5,-393 2465.5,-393 2465.5,-352 2626.5,-352 2626.5,-393"/>
<text text-anchor="start" x="2473.5" y="-381" font-family="Helvetica,sans-Serif" font-size="10.00">asm/JSystem/J3DGraphBase</text>
<text text-anchor="start" x="2473.5" y="-370" font-family="Helvetica,sans-Serif" font-size="10.00">/J3DTransform/J3DScaleNrmMtx</text>
<text text-anchor="middle" x="2546" y="-359" font-family="Helvetica,sans-Serif" font-size="10.00">__FPA4_fRC3Vec.s</text>
</a>
</g>
</g>
<!-- Node1&#45;&gt;Node26 -->
<g id="edge29" class="edge">
<title>Node1&#45;&gt;Node26</title>
<path fill="none" stroke="#63b8ff" d="M1605.3,-443.05C1758.92,-442.31 2132.65,-435.97 2453.69,-393.34"/>
<polygon fill="#63b8ff" stroke="#63b8ff" points="2454.15,-396.81 2463.59,-392.01 2453.22,-389.87 2454.15,-396.81"/>
</g>
<!-- Node27 -->
<g id="node27" class="node">
<title>Node27</title>
<g id="a_node27"><a xlink:title=" ">
<polygon fill="#e0e0e0" stroke="#999999" points="2815.5,-393 2644.5,-393 2644.5,-352 2815.5,-352 2815.5,-393"/>
<text text-anchor="start" x="2652.5" y="-381" font-family="Helvetica,sans-Serif" font-size="10.00">asm/JSystem/J3DGraphBase</text>
<text text-anchor="start" x="2652.5" y="-370" font-family="Helvetica,sans-Serif" font-size="10.00">/J3DTransform/J3DScaleNrmMtx33</text>
<text text-anchor="middle" x="2730" y="-359" font-family="Helvetica,sans-Serif" font-size="10.00">__FPA3_fRC3Vec.s</text>
</a>
</g>
</g>
<!-- Node1&#45;&gt;Node27 -->
<g id="edge30" class="edge">
<title>Node1&#45;&gt;Node27</title>
<path fill="none" stroke="#63b8ff" d="M1605.24,-443.68C1779.37,-444.51 2240.41,-441.62 2632.74,-393.31"/>
<polygon fill="#63b8ff" stroke="#63b8ff" points="2633.04,-396.8 2642.53,-392.09 2632.17,-389.85 2633.04,-396.8"/>
</g>
<!-- Node28 -->
<g id="node28" class="node">
<title>Node28</title>
<g id="a_node28"><a xlink:title=" ">
<polygon fill="#e0e0e0" stroke="#999999" points="2998.5,-393 2833.5,-393 2833.5,-352 2998.5,-352 2998.5,-393"/>
<text text-anchor="start" x="2841.5" y="-381" font-family="Helvetica,sans-Serif" font-size="10.00">asm/JSystem/J3DGraphBase</text>
<text text-anchor="start" x="2841.5" y="-370" font-family="Helvetica,sans-Serif" font-size="10.00">/J3DTransform/J3DMtxProjConcat</text>
<text text-anchor="middle" x="2916" y="-359" font-family="Helvetica,sans-Serif" font-size="10.00">__FPA4_fPA4_fPA4_f.s</text>
</a>
</g>
</g>
<!-- Node1&#45;&gt;Node28 -->
<g id="edge31" class="edge">
<title>Node1&#45;&gt;Node28</title>
<path fill="none" stroke="#63b8ff" d="M1605.14,-441.86C1836.08,-437.91 2564.27,-423.44 2822.09,-393.22"/>
<polygon fill="#63b8ff" stroke="#63b8ff" points="2822.27,-396.72 2831.77,-392.04 2821.43,-389.77 2822.27,-396.72"/>
</g>
<!-- Node29 -->
<g id="node29" class="node">
<title>Node29</title>
<g id="a_node29"><a xlink:title=" ">
<polygon fill="#e0e0e0" stroke="#999999" points="3201,-393 3017,-393 3017,-352 3201,-352 3201,-393"/>
<text text-anchor="start" x="3025" y="-381" font-family="Helvetica,sans-Serif" font-size="10.00">asm/JSystem/J3DGraphBase</text>
<text text-anchor="start" x="3025" y="-370" font-family="Helvetica,sans-Serif" font-size="10.00">/J3DTransform/J3DPSMtxArrayConcat</text>
<text text-anchor="middle" x="3109" y="-359" font-family="Helvetica,sans-Serif" font-size="10.00">__FPA4_fPA4_fPA4_fUl.s</text>
</a>
</g>
</g>
<!-- Node1&#45;&gt;Node29 -->
<g id="edge32" class="edge">
<title>Node1&#45;&gt;Node29</title>
<path fill="none" stroke="#63b8ff" d="M1605.21,-442.07C1857.54,-438.52 2709.3,-424.57 3005.47,-393.16"/>
<polygon fill="#63b8ff" stroke="#63b8ff" points="3005.56,-396.67 3015.12,-392.1 3004.79,-389.71 3005.56,-396.67"/>
</g>
<!-- Node3 -->
<g id="node3" class="node">
<title>Node3</title>
<g id="a_node3"><a xlink:href="JGeometry_8h.html" target="_top" xlink:title=" ">
<polygon fill="white" stroke="#666666" points="220.5,-316 107.5,-316 107.5,-297 220.5,-297 220.5,-316"/>
<text text-anchor="middle" x="164" y="-304" font-family="Helvetica,sans-Serif" font-size="10.00">JSystem/JGeometry.h</text>
</a>
</g>
</g>
<!-- Node2&#45;&gt;Node3 -->
<g id="edge2" class="edge">
<title>Node2&#45;&gt;Node3</title>
<path fill="none" stroke="#63b8ff" d="M213.8,-357.3C204.01,-347.51 190.98,-334.48 180.7,-324.2"/>
<polygon fill="#63b8ff" stroke="#63b8ff" points="183.46,-322.01 173.91,-317.41 178.51,-326.96 183.46,-322.01"/>
</g>
<!-- Node11 -->
<g id="node11" class="node">
<title>Node11</title>
<g id="a_node11"><a xlink:href="mtxvec_8h.html" target="_top" xlink:title=" ">
<polygon fill="white" stroke="#666666" points="360,-316 252,-316 252,-297 360,-297 360,-316"/>
<text text-anchor="middle" x="306" y="-304" font-family="Helvetica,sans-Serif" font-size="10.00">dolphin/mtx/mtxvec.h</text>
</a>
</g>
</g>
<!-- Node2&#45;&gt;Node11 -->
<g id="edge11" class="edge">
<title>Node2&#45;&gt;Node11</title>
<path fill="none" stroke="#63b8ff" d="M245.31,-357.3C257.47,-347.32 273.76,-333.96 286.4,-323.59"/>
<polygon fill="#63b8ff" stroke="#63b8ff" points="288.54,-326.35 294.05,-317.3 284.1,-320.94 288.54,-326.35"/>
</g>
<!-- Node4 -->
<g id="node4" class="node">
<title>Node4</title>
<g id="a_node4"><a xlink:href="vec_8h.html" target="_top" xlink:title=" ">
<polygon fill="white" stroke="#666666" points="328,-140 236,-140 236,-121 328,-121 328,-140"/>
<text text-anchor="middle" x="282" y="-128" font-family="Helvetica,sans-Serif" font-size="10.00">dolphin/mtx/vec.h</text>
</a>
</g>
</g>
<!-- Node3&#45;&gt;Node4 -->
<g id="edge3" class="edge">
<title>Node3&#45;&gt;Node4</title>
<path fill="none" stroke="#63b8ff" d="M168.7,-296.7C173.44,-287.76 180.9,-273.51 187,-261 205.21,-223.64 200.36,-208.71 226,-176 234.91,-164.63 247.3,-154.4 258.15,-146.62"/>
<polygon fill="#63b8ff" stroke="#63b8ff" points="260.01,-149.59 266.3,-141.06 256.06,-143.81 260.01,-149.59"/>
</g>
<!-- Node7 -->
<g id="node7" class="node">
<title>Node7</title>
<g id="a_node7"><a xlink:href="float_8h.html" target="_top" xlink:title=" ">
<polygon fill="white" stroke="#666666" points="78,-261 0,-261 0,-242 78,-242 78,-261"/>
<text text-anchor="middle" x="39" y="-249" font-family="Helvetica,sans-Serif" font-size="10.00">MSL_C/float.h</text>
</a>
</g>
</g>
<!-- Node3&#45;&gt;Node7 -->
<g id="edge6" class="edge">
<title>Node3&#45;&gt;Node7</title>
<path fill="none" stroke="#63b8ff" d="M142.8,-296.51C122.92,-288.08 92.97,-275.38 70.34,-265.79"/>
<polygon fill="#63b8ff" stroke="#63b8ff" points="71.86,-262.63 61.28,-261.95 69.13,-269.07 71.86,-262.63"/>
</g>
<!-- Node10 -->
<g id="node10" class="node">
<title>Node10</title>
<g id="a_node10"><a xlink:href="math_8h.html" target="_top" xlink:title=" ">
<polygon fill="white" stroke="#666666" points="178,-261 96,-261 96,-242 178,-242 178,-261"/>
<text text-anchor="middle" x="137" y="-249" font-family="Helvetica,sans-Serif" font-size="10.00">MSL_C/math.h</text>
</a>
</g>
</g>
<!-- Node3&#45;&gt;Node10 -->
<g id="edge9" class="edge">
<title>Node3&#45;&gt;Node10</title>
<path fill="none" stroke="#63b8ff" d="M159.54,-296.75C156.05,-289.88 151.05,-280.08 146.65,-271.45"/>
<polygon fill="#63b8ff" stroke="#63b8ff" points="149.9,-270.11 142.24,-262.79 143.66,-273.29 149.9,-270.11"/>
</g>
<!-- Node5 -->
<g id="node5" class="node">
<title>Node5</title>
<g id="a_node5"><a xlink:href="types_8h.html" target="_top" xlink:title=" ">
<polygon fill="white" stroke="#666666" points="398.5,-85 317.5,-85 317.5,-66 398.5,-66 398.5,-85"/>
<text text-anchor="middle" x="358" y="-73" font-family="Helvetica,sans-Serif" font-size="10.00">dolphin/types.h</text>
</a>
</g>
</g>
<!-- Node4&#45;&gt;Node5 -->
<g id="edge4" class="edge">
<title>Node4&#45;&gt;Node5</title>
<path fill="none" stroke="#63b8ff" d="M294.89,-120.51C306.1,-112.7 322.57,-101.21 335.88,-91.93"/>
<polygon fill="#63b8ff" stroke="#63b8ff" points="337.86,-94.81 344.06,-86.22 333.85,-89.07 337.86,-94.81"/>
</g>
<!-- Node6 -->
<g id="node6" class="node">
<title>Node6</title>
<g id="a_node6"><a xlink:href="stddef_8h.html" target="_top" xlink:title=" ">
<polygon fill="white" stroke="#666666" points="426,-30 290,-30 290,0 426,0 426,-30"/>
<text text-anchor="start" x="298" y="-18" font-family="Helvetica,sans-Serif" font-size="10.00">MSL_C/MSL_Common/Src</text>
<text text-anchor="middle" x="358" y="-7" font-family="Helvetica,sans-Serif" font-size="10.00">/stddef.h</text>
</a>
</g>
</g>
<!-- Node5&#45;&gt;Node6 -->
<g id="edge5" class="edge">
<title>Node5&#45;&gt;Node6</title>
<path fill="none" stroke="#63b8ff" d="M358,-65.87C358,-59.4 358,-50.2 358,-41.45"/>
<polygon fill="#63b8ff" stroke="#63b8ff" points="361.5,-41.63 358,-31.63 354.5,-41.63 361.5,-41.63"/>
</g>
<!-- Node8 -->
<g id="node8" class="node">
<title>Node8</title>
<g id="a_node8"><a xlink:href="MSL__Common_2Src_2float_8h.html" target="_top" xlink:title=" ">
<polygon fill="white" stroke="#666666" points="143,-206 7,-206 7,-176 143,-176 143,-206"/>
<text text-anchor="start" x="15" y="-194" font-family="Helvetica,sans-Serif" font-size="10.00">MSL_C/MSL_Common/Src</text>
<text text-anchor="middle" x="75" y="-183" font-family="Helvetica,sans-Serif" font-size="10.00">/float.h</text>
</a>
</g>
</g>
<!-- Node7&#45;&gt;Node8 -->
<g id="edge7" class="edge">
<title>Node7&#45;&gt;Node8</title>
<path fill="none" stroke="#63b8ff" d="M44.31,-241.87C48.56,-234.96 54.74,-224.93 60.43,-215.67"/>
<polygon fill="#63b8ff" stroke="#63b8ff" points="63.26,-217.75 65.52,-207.4 57.3,-214.09 63.26,-217.75"/>
</g>
<!-- Node9 -->
<g id="node9" class="node">
<title>Node9</title>
<g id="a_node9"><a xlink:href="fdlibm_8h.html" target="_top" xlink:title=" ">
<polygon fill="white" stroke="#666666" points="100,-140 50,-140 50,-121 100,-121 100,-140"/>
<text text-anchor="middle" x="75" y="-128" font-family="Helvetica,sans-Serif" font-size="10.00">fdlibm.h</text>
</a>
</g>
</g>
<!-- Node8&#45;&gt;Node9 -->
<g id="edge8" class="edge">
<title>Node8&#45;&gt;Node9</title>
<path fill="none" stroke="#63b8ff" d="M75,-175.54C75,-168.34 75,-159.53 75,-151.68"/>
<polygon fill="#63b8ff" stroke="#63b8ff" points="78.5,-151.69 75,-141.69 71.5,-151.69 78.5,-151.69"/>
</g>
<!-- Node10&#45;&gt;Node8 -->
<g id="edge10" class="edge">
<title>Node10&#45;&gt;Node8</title>
<path fill="none" stroke="#63b8ff" d="M127.58,-241.62C119.86,-234.32 108.58,-223.68 98.44,-214.12"/>
<polygon fill="#63b8ff" stroke="#63b8ff" points="101.08,-211.8 91.4,-207.48 96.28,-216.89 101.08,-211.8"/>
</g>
<!-- Node12 -->
<g id="node12" class="node">
<title>Node12</title>
<g id="a_node12"><a xlink:href="mtx_8h.html" target="_top" xlink:title=" ">
<polygon fill="white" stroke="#666666" points="366,-261 274,-261 274,-242 366,-242 366,-261"/>
<text text-anchor="middle" x="320" y="-249" font-family="Helvetica,sans-Serif" font-size="10.00">dolphin/mtx/mtx.h</text>
</a>
</g>
</g>
<!-- Node11&#45;&gt;Node12 -->
<g id="edge12" class="edge">
<title>Node11&#45;&gt;Node12</title>
<path fill="none" stroke="#63b8ff" d="M308.31,-296.75C310.06,-290.11 312.54,-280.73 314.77,-272.31"/>
<polygon fill="#63b8ff" stroke="#63b8ff" points="318.08,-273.47 317.25,-262.91 311.31,-271.68 318.08,-273.47"/>
</g>
<!-- Node12&#45;&gt;Node5 -->
<g id="edge17" class="edge">
<title>Node12&#45;&gt;Node5</title>
<path fill="none" stroke="#63b8ff" d="M324.64,-241.55C329.01,-232.73 335.4,-218.78 339,-206 349.65,-168.2 354.58,-122.43 356.66,-96.67"/>
<polygon fill="#63b8ff" stroke="#63b8ff" points="360.13,-97.2 357.37,-86.97 353.15,-96.68 360.13,-97.2"/>
</g>
<!-- Node13 -->
<g id="node13" class="node">
<title>Node13</title>
<g id="a_node13"><a xlink:href="mtx44_8h.html" target="_top" xlink:title=" ">
<polygon fill="white" stroke="#666666" points="489.5,-140 386.5,-140 386.5,-121 489.5,-121 489.5,-140"/>
<text text-anchor="middle" x="438" y="-128" font-family="Helvetica,sans-Serif" font-size="10.00">dolphin/mtx/mtx44.h</text>
</a>
</g>
</g>
<!-- Node12&#45;&gt;Node13 -->
<g id="edge13" class="edge">
<title>Node12&#45;&gt;Node13</title>
<path fill="none" stroke="#63b8ff" d="M331.14,-241.72C341.94,-233.03 358.61,-219.16 372,-206 390.98,-187.34 411.01,-164.17 423.96,-148.66"/>
<polygon fill="#63b8ff" stroke="#63b8ff" points="426.39,-151.21 430.07,-141.28 421,-146.75 426.39,-151.21"/>
</g>
<!-- Node14 -->
<g id="node14" class="node">
<title>Node14</title>
<g id="a_node14"><a xlink:href="quat_8h.html" target="_top" xlink:title=" ">
<polygon fill="white" stroke="#666666" points="329.5,-200.5 234.5,-200.5 234.5,-181.5 329.5,-181.5 329.5,-200.5"/>
<text text-anchor="middle" x="282" y="-188.5" font-family="Helvetica,sans-Serif" font-size="10.00">dolphin/mtx/quat.h</text>
</a>
</g>
</g>
<!-- Node12&#45;&gt;Node14 -->
<g id="edge15" class="edge">
<title>Node12&#45;&gt;Node14</title>
<path fill="none" stroke="#63b8ff" d="M314.39,-241.87C309,-233.57 300.69,-220.78 293.84,-210.22"/>
<polygon fill="#63b8ff" stroke="#63b8ff" points="296.84,-208.42 288.45,-201.94 290.97,-212.23 296.84,-208.42"/>
</g>
<!-- Node13&#45;&gt;Node5 -->
<g id="edge14" class="edge">
<title>Node13&#45;&gt;Node5</title>
<path fill="none" stroke="#63b8ff" d="M424.43,-120.51C412.52,-112.62 394.95,-100.98 380.87,-91.65"/>
<polygon fill="#63b8ff" stroke="#63b8ff" points="382.9,-88.8 372.63,-86.19 379.04,-94.63 382.9,-88.8"/>
</g>
<!-- Node14&#45;&gt;Node4 -->
<g id="edge16" class="edge">
<title>Node14&#45;&gt;Node4</title>
<path fill="none" stroke="#63b8ff" d="M282,-181.37C282,-173.5 282,-161.6 282,-151.39"/>
<polygon fill="#63b8ff" stroke="#63b8ff" points="285.5,-151.68 282,-141.68 278.5,-151.68 285.5,-151.68"/>
</g>
</g>
</svg>
        <g id="navigator" transform="translate(0 0)" fill="#404254">
                <rect fill="#f2f5e9" fill-opacity="0.5" stroke="#606060" stroke-width=".5" x="0" y="0" width="60" height="60"/>
                <use id="zoomplus" xlink:href="#zoomPlus" x="17" y="9" onmousedown="handleZoom(evt,'in')"/>
                <use id="zoomminus" xlink:href="#zoomMin" x="42" y="9" onmousedown="handleZoom(evt,'out')"/>
                <use id="reset" xlink:href="#resetDef" x="30" y="36" onmousedown="handleReset()"/>
                <g id="arrowUp" xlink:href="#dirArrow" transform="translate(30 24)" onmousedown="handlePan(0,-1)">
                  <use xlink:href="#rim" fill="#404040">
                        <set attributeName="fill" to="#808080" begin="arrowUp.mouseover" end="arrowUp.mouseout"/>
                  </use>
                  <path fill="none" stroke="white" stroke-width="1.5" d="M0,-3.0v7 M-2.5,-0.5L0,-3.0L2.5,-0.5"/>
                </g>
                <g id="arrowRight" xlink:href="#dirArrow" transform="rotate(90) translate(36 -43)" onmousedown="handlePan(1,0)">
                  <use xlink:href="#rim" fill="#404040">
                        <set attributeName="fill" to="#808080" begin="arrowRight.mouseover" end="arrowRight.mouseout"/>
                  </use>
                  <path fill="none" stroke="white" stroke-width="1.5" d="M0,-3.0v7 M-2.5,-0.5L0,-3.0L2.5,-0.5"/>
                </g>
                <g id="arrowDown" xlink:href="#dirArrow" transform="rotate(180) translate(-30 -48)" onmousedown="handlePan(0,1)">
                  <use xlink:href="#rim" fill="#404040">
                        <set attributeName="fill" to="#808080" begin="arrowDown.mouseover" end="arrowDown.mouseout"/>
                  </use>
                  <path fill="none" stroke="white" stroke-width="1.5" d="M0,-3.0v7 M-2.5,-0.5L0,-3.0L2.5,-0.5"/>
                </g>
                <g id="arrowLeft" xlink:href="#dirArrow" transform="rotate(270) translate(-36 17)" onmousedown="handlePan(-1,0)">
                  <use xlink:href="#rim" fill="#404040">
                        <set attributeName="fill" to="#808080" begin="arrowLeft.mouseover" end="arrowLeft.mouseout"/>
                  </use>
                  <path fill="none" stroke="white" stroke-width="1.5" d="M0,-3.0v7 M-2.5,-0.5L0,-3.0L2.5,-0.5"/>
                </g>
        </g>
        <svg viewBox="0 0 15 15" width="100%" height="30px" preserveAspectRatio="xMaxYMin meet">
         <g id="arrow_out" transform="scale(0.3 0.3)">
          <a xlink:href="J3DTransform_8cpp__incl_org.svg" target="_base">
           <rect id="button" ry="5" rx="5" y="6" x="6" height="38" width="38"
                fill="#f2f5e9" fill-opacity="0.5" stroke="#606060" stroke-width="1.0"/>
           <path id="arrow"
             d="M 11.500037,31.436501 C 11.940474,20.09759 22.043105,11.32322 32.158766,21.979434 L 37.068811,17.246167 C 37.068811,17.246167 37.088388,32 37.088388,32 L 22.160133,31.978069 C 22.160133,31.978069 26.997745,27.140456 26.997745,27.140456 C 18.528582,18.264221 13.291696,25.230495 11.500037,31.436501 z"
             style="fill:#404040;"/>
          </a>
         </g>
        </svg>
</svg>
