<?xml version="1.0" encoding="UTF-8" standalone="no"?>
<!DOCTYPE svg PUBLIC "-//W3C//DTD SVG 1.1//EN"
 "http://www.w3.org/Graphics/SVG/1.1/DTD/svg11.dtd">
<!-- Generated by graphviz version 7.0.5 (20221223.1930)
 -->
<!-- Title: libs/JSystem/JAudio2/JAIAudience.cpp Pages: 1 -->
<svg width="348pt" height="335pt"
 viewBox="0.00 0.00 348.00 335.00" xmlns="http://www.w3.org/2000/svg" xmlns:xlink="http://www.w3.org/1999/xlink">
<g id="graph0" class="graph" transform="scale(1 1) rotate(0) translate(4 331)">
<title>libs/JSystem/JAudio2/JAIAudience.cpp</title>
<!-- Node1 -->
<g id="node1" class="node">
<title>Node1</title>
<g id="a_node1"><a xlink:title=" ">
<polygon fill="#999999" stroke="#666666" points="282.5,-327 171.5,-327 171.5,-297 282.5,-297 282.5,-327"/>
<text text-anchor="start" x="179.5" y="-315" font-family="Helvetica,sans-Serif" font-size="10.00">libs/JSystem/JAudio2</text>
<text text-anchor="middle" x="227" y="-304" font-family="Helvetica,sans-Serif" font-size="10.00">/JAIAudience.cpp</text>
</a>
</g>
</g>
<!-- Node2 -->
<g id="node2" class="node">
<title>Node2</title>
<g id="a_node2"><a xlink:href="JAIAudience_8h.html" target="_top" xlink:title=" ">
<polygon fill="white" stroke="#666666" points="252.5,-261 93.5,-261 93.5,-242 252.5,-242 252.5,-261"/>
<text text-anchor="middle" x="173" y="-249" font-family="Helvetica,sans-Serif" font-size="10.00">JSystem/JAudio2/JAIAudience.h</text>
</a>
</g>
</g>
<!-- Node1&#45;&gt;Node2 -->
<g id="edge1" class="edge">
<title>Node1&#45;&gt;Node2</title>
<path fill="none" stroke="#63b8ff" d="M213.65,-296.54C206.13,-288.39 196.69,-278.16 188.8,-269.61"/>
<polygon fill="#63b8ff" stroke="#63b8ff" points="191.39,-267.26 182.03,-262.29 186.25,-272.01 191.39,-267.26"/>
</g>
<!-- Node5 -->
<g id="node5" class="node">
<title>Node5</title>
<g id="a_node5"><a xlink:href="types_8h.html" target="_top" xlink:title=" ">
<polygon fill="white" stroke="#666666" points="312.5,-90.5 231.5,-90.5 231.5,-71.5 312.5,-71.5 312.5,-90.5"/>
<text text-anchor="middle" x="272" y="-78.5" font-family="Helvetica,sans-Serif" font-size="10.00">dolphin/types.h</text>
</a>
</g>
</g>
<!-- Node1&#45;&gt;Node5 -->
<g id="edge11" class="edge">
<title>Node1&#45;&gt;Node5</title>
<path fill="none" stroke="#63b8ff" d="M238.65,-296.85C246.13,-287.22 255.61,-273.92 262,-261 284.75,-215.02 289.13,-201.7 297,-151 298.3,-142.66 298.94,-140.22 297,-132 294.4,-120.99 288.98,-109.63 283.85,-100.54"/>
<polygon fill="#63b8ff" stroke="#63b8ff" points="286.89,-98.79 278.73,-92.03 280.89,-102.4 286.89,-98.79"/>
</g>
<!-- Node3 -->
<g id="node3" class="node">
<title>Node3</title>
<g id="a_node3"><a xlink:href="JGeometry_8h.html" target="_top" xlink:title=" ">
<polygon fill="white" stroke="#666666" points="211.5,-206 98.5,-206 98.5,-187 211.5,-187 211.5,-206"/>
<text text-anchor="middle" x="155" y="-194" font-family="Helvetica,sans-Serif" font-size="10.00">JSystem/JGeometry.h</text>
</a>
</g>
</g>
<!-- Node2&#45;&gt;Node3 -->
<g id="edge2" class="edge">
<title>Node2&#45;&gt;Node3</title>
<path fill="none" stroke="#63b8ff" d="M170.03,-241.75C167.77,-235.11 164.59,-225.73 161.73,-217.31"/>
<polygon fill="#63b8ff" stroke="#63b8ff" points="165.05,-216.22 158.52,-207.88 158.43,-218.47 165.05,-216.22"/>
</g>
<!-- Node4 -->
<g id="node4" class="node">
<title>Node4</title>
<g id="a_node4"><a xlink:href="vec_8h.html" target="_top" xlink:title=" ">
<polygon fill="white" stroke="#666666" points="288,-151 196,-151 196,-132 288,-132 288,-151"/>
<text text-anchor="middle" x="242" y="-139" font-family="Helvetica,sans-Serif" font-size="10.00">dolphin/mtx/vec.h</text>
</a>
</g>
</g>
<!-- Node3&#45;&gt;Node4 -->
<g id="edge3" class="edge">
<title>Node3&#45;&gt;Node4</title>
<path fill="none" stroke="#63b8ff" d="M169.76,-186.51C182.96,-178.47 202.56,-166.53 218.01,-157.11"/>
<polygon fill="#63b8ff" stroke="#63b8ff" points="219.45,-160.34 226.17,-152.15 215.81,-154.36 219.45,-160.34"/>
</g>
<!-- Node7 -->
<g id="node7" class="node">
<title>Node7</title>
<g id="a_node7"><a xlink:href="float_8h.html" target="_top" xlink:title=" ">
<polygon fill="white" stroke="#666666" points="78,-151 0,-151 0,-132 78,-132 78,-151"/>
<text text-anchor="middle" x="39" y="-139" font-family="Helvetica,sans-Serif" font-size="10.00">MSL_C/float.h</text>
</a>
</g>
</g>
<!-- Node3&#45;&gt;Node7 -->
<g id="edge6" class="edge">
<title>Node3&#45;&gt;Node7</title>
<path fill="none" stroke="#63b8ff" d="M135.32,-186.51C117.05,-178.16 89.59,-165.61 68.65,-156.05"/>
<polygon fill="#63b8ff" stroke="#63b8ff" points="70.31,-152.96 59.76,-151.99 67.4,-159.33 70.31,-152.96"/>
</g>
<!-- Node10 -->
<g id="node10" class="node">
<title>Node10</title>
<g id="a_node10"><a xlink:href="math_8h.html" target="_top" xlink:title=" ">
<polygon fill="white" stroke="#666666" points="178,-151 96,-151 96,-132 178,-132 178,-151"/>
<text text-anchor="middle" x="137" y="-139" font-family="Helvetica,sans-Serif" font-size="10.00">MSL_C/math.h</text>
</a>
</g>
</g>
<!-- Node3&#45;&gt;Node10 -->
<g id="edge9" class="edge">
<title>Node3&#45;&gt;Node10</title>
<path fill="none" stroke="#63b8ff" d="M152.03,-186.75C149.77,-180.11 146.59,-170.73 143.73,-162.31"/>
<polygon fill="#63b8ff" stroke="#63b8ff" points="147.05,-161.22 140.52,-152.88 140.43,-163.47 147.05,-161.22"/>
</g>
<!-- Node4&#45;&gt;Node5 -->
<g id="edge4" class="edge">
<title>Node4&#45;&gt;Node5</title>
<path fill="none" stroke="#63b8ff" d="M246.43,-131.87C250.59,-123.75 256.97,-111.31 262.32,-100.89"/>
<polygon fill="#63b8ff" stroke="#63b8ff" points="265.42,-102.51 266.86,-92.01 259.19,-99.32 265.42,-102.51"/>
</g>
<!-- Node6 -->
<g id="node6" class="node">
<title>Node6</title>
<g id="a_node6"><a xlink:href="stddef_8h.html" target="_top" xlink:title=" ">
<polygon fill="white" stroke="#666666" points="340,-30 204,-30 204,0 340,0 340,-30"/>
<text text-anchor="start" x="212" y="-18" font-family="Helvetica,sans-Serif" font-size="10.00">MSL_C/MSL_Common/Src</text>
<text text-anchor="middle" x="272" y="-7" font-family="Helvetica,sans-Serif" font-size="10.00">/stddef.h</text>
</a>
</g>
</g>
<!-- Node5&#45;&gt;Node6 -->
<g id="edge5" class="edge">
<title>Node5&#45;&gt;Node6</title>
<path fill="none" stroke="#63b8ff" d="M272,-71.1C272,-63.41 272,-51.92 272,-41.42"/>
<polygon fill="#63b8ff" stroke="#63b8ff" points="275.5,-41.75 272,-31.75 268.5,-41.75 275.5,-41.75"/>
</g>
<!-- Node8 -->
<g id="node8" class="node">
<title>Node8</title>
<g id="a_node8"><a xlink:href="MSL__Common_2Src_2float_8h.html" target="_top" xlink:title=" ">
<polygon fill="white" stroke="#666666" points="175,-96 39,-96 39,-66 175,-66 175,-96"/>
<text text-anchor="start" x="47" y="-84" font-family="Helvetica,sans-Serif" font-size="10.00">MSL_C/MSL_Common/Src</text>
<text text-anchor="middle" x="107" y="-73" font-family="Helvetica,sans-Serif" font-size="10.00">/float.h</text>
</a>
</g>
</g>
<!-- Node7&#45;&gt;Node8 -->
<g id="edge7" class="edge">
<title>Node7&#45;&gt;Node8</title>
<path fill="none" stroke="#63b8ff" d="M49.33,-131.62C57.89,-124.25 70.42,-113.47 81.62,-103.83"/>
<polygon fill="#63b8ff" stroke="#63b8ff" points="83.77,-106.6 89.07,-97.43 79.2,-101.3 83.77,-106.6"/>
</g>
<!-- Node9 -->
<g id="node9" class="node">
<title>Node9</title>
<g id="a_node9"><a xlink:href="fdlibm_8h.html" target="_top" xlink:title=" ">
<polygon fill="white" stroke="#666666" points="132,-24.5 82,-24.5 82,-5.5 132,-5.5 132,-24.5"/>
<text text-anchor="middle" x="107" y="-12.5" font-family="Helvetica,sans-Serif" font-size="10.00">fdlibm.h</text>
</a>
</g>
</g>
<!-- Node8&#45;&gt;Node9 -->
<g id="edge8" class="edge">
<title>Node8&#45;&gt;Node9</title>
<path fill="none" stroke="#63b8ff" d="M107,-65.8C107,-57.09 107,-45.81 107,-36.18"/>
<polygon fill="#63b8ff" stroke="#63b8ff" points="110.5,-36.36 107,-26.36 103.5,-36.36 110.5,-36.36"/>
</g>
<!-- Node10&#45;&gt;Node8 -->
<g id="edge10" class="edge">
<title>Node10&#45;&gt;Node8</title>
<path fill="none" stroke="#63b8ff" d="M132.57,-131.87C129.11,-125.11 124.1,-115.35 119.44,-106.26"/>
<polygon fill="#63b8ff" stroke="#63b8ff" points="122.61,-104.76 114.93,-97.46 116.38,-107.96 122.61,-104.76"/>
</g>
</g>
</svg>
