<?xml version="1.0" encoding="UTF-8" standalone="no"?>
<!DOCTYPE svg PUBLIC "-//W3C//DTD SVG 1.1//EN"
 "http://www.w3.org/Graphics/SVG/1.1/DTD/svg11.dtd">
<!-- Generated by graphviz version 7.0.5 (20221223.1930)
 -->
<!-- Title: libs/JSystem/JAudio2/JAISeqDataMgr.cpp Pages: 1 -->
<svg width="462pt" height="478pt"
 viewBox="0.00 0.00 462.00 478.00" xmlns="http://www.w3.org/2000/svg" xmlns:xlink="http://www.w3.org/1999/xlink">
<g id="graph0" class="graph" transform="scale(1 1) rotate(0) translate(4 474)">
<title>libs/JSystem/JAudio2/JAISeqDataMgr.cpp</title>
<!-- Node1 -->
<g id="node1" class="node">
<title>Node1</title>
<g id="a_node1"><a xlink:title=" ">
<polygon fill="#999999" stroke="#666666" points="407.5,-470 296.5,-470 296.5,-440 407.5,-440 407.5,-470"/>
<text text-anchor="start" x="304.5" y="-458" font-family="Helvetica,sans-Serif" font-size="10.00">libs/JSystem/JAudio2</text>
<text text-anchor="middle" x="352" y="-447" font-family="Helvetica,sans-Serif" font-size="10.00">/JAISeqDataMgr.cpp</text>
</a>
</g>
</g>
<!-- Node2 -->
<g id="node2" class="node">
<title>Node2</title>
<g id="a_node2"><a xlink:href="JAISeqDataMgr_8h.html" target="_top" xlink:title=" ">
<polygon fill="white" stroke="#666666" points="375.5,-404 226.5,-404 226.5,-374 375.5,-374 375.5,-404"/>
<text text-anchor="start" x="234.5" y="-392" font-family="Helvetica,sans-Serif" font-size="10.00">JSystem/JAudio2/JAISeqData</text>
<text text-anchor="middle" x="301" y="-381" font-family="Helvetica,sans-Serif" font-size="10.00">Mgr.h</text>
</a>
</g>
</g>
<!-- Node1&#45;&gt;Node2 -->
<g id="edge1" class="edge">
<title>Node1&#45;&gt;Node2</title>
<path fill="none" stroke="#63b8ff" d="M340.68,-439.8C334.41,-431.92 326.46,-421.95 319.32,-412.99"/>
<polygon fill="#63b8ff" stroke="#63b8ff" points="322.2,-410.99 313.23,-405.35 316.73,-415.35 322.2,-410.99"/>
</g>
<!-- Node6 -->
<g id="node6" class="node">
<title>Node6</title>
<g id="a_node6"><a xlink:href="types_8h.html" target="_top" xlink:title=" ">
<polygon fill="white" stroke="#666666" points="375.5,-90.5 294.5,-90.5 294.5,-71.5 375.5,-71.5 375.5,-90.5"/>
<text text-anchor="middle" x="335" y="-78.5" font-family="Helvetica,sans-Serif" font-size="10.00">dolphin/types.h</text>
</a>
</g>
</g>
<!-- Node1&#45;&gt;Node6 -->
<g id="edge18" class="edge">
<title>Node1&#45;&gt;Node6</title>
<path fill="none" stroke="#63b8ff" d="M375.66,-439.53C405.79,-419.08 454,-378.68 454,-329.5 454,-329.5 454,-329.5 454,-201 454,-150.87 400.55,-114.49 365.3,-95.94"/>
<polygon fill="#63b8ff" stroke="#63b8ff" points="367.31,-93.03 356.81,-91.65 364.16,-99.28 367.31,-93.03"/>
</g>
<!-- Node3 -->
<g id="node3" class="node">
<title>Node3</title>
<g id="a_node3"><a xlink:href="JAISound_8h.html" target="_top" xlink:title=" ">
<polygon fill="white" stroke="#666666" points="346,-338 200,-338 200,-319 346,-319 346,-338"/>
<text text-anchor="middle" x="273" y="-326" font-family="Helvetica,sans-Serif" font-size="10.00">JSystem/JAudio2/JAISound.h</text>
</a>
</g>
</g>
<!-- Node2&#45;&gt;Node3 -->
<g id="edge2" class="edge">
<title>Node2&#45;&gt;Node3</title>
<path fill="none" stroke="#63b8ff" d="M294.08,-373.54C290.47,-366 286.01,-356.67 282.12,-348.55"/>
<polygon fill="#63b8ff" stroke="#63b8ff" points="285.28,-347.05 277.81,-339.54 278.97,-350.07 285.28,-347.05"/>
</g>
<!-- Node4 -->
<g id="node4" class="node">
<title>Node4</title>
<g id="a_node4"><a xlink:href="JAISoundParams_8h.html" target="_top" xlink:title=" ">
<polygon fill="white" stroke="#666666" points="417.5,-283 278.5,-283 278.5,-253 417.5,-253 417.5,-283"/>
<text text-anchor="start" x="286.5" y="-271" font-family="Helvetica,sans-Serif" font-size="10.00">JSystem/JAudio2/JAISound</text>
<text text-anchor="middle" x="348" y="-260" font-family="Helvetica,sans-Serif" font-size="10.00">Params.h</text>
</a>
</g>
</g>
<!-- Node3&#45;&gt;Node4 -->
<g id="edge3" class="edge">
<title>Node3&#45;&gt;Node4</title>
<path fill="none" stroke="#63b8ff" d="M284.39,-318.62C294.02,-311.1 308.21,-300.04 320.74,-290.26"/>
<polygon fill="#63b8ff" stroke="#63b8ff" points="322.56,-293.28 328.29,-284.37 318.26,-287.76 322.56,-293.28"/>
</g>
<!-- Node8 -->
<g id="node8" class="node">
<title>Node8</title>
<g id="a_node8"><a xlink:href="JAIAudible_8h.html" target="_top" xlink:title=" ">
<polygon fill="white" stroke="#666666" points="216.5,-277.5 65.5,-277.5 65.5,-258.5 216.5,-258.5 216.5,-277.5"/>
<text text-anchor="middle" x="141" y="-265.5" font-family="Helvetica,sans-Serif" font-size="10.00">JSystem/JAudio2/JAIAudible.h</text>
</a>
</g>
</g>
<!-- Node3&#45;&gt;Node8 -->
<g id="edge7" class="edge">
<title>Node3&#45;&gt;Node8</title>
<path fill="none" stroke="#63b8ff" d="M252.95,-318.62C231.34,-309.04 196.68,-293.68 171.64,-282.58"/>
<polygon fill="#63b8ff" stroke="#63b8ff" points="173.18,-279.43 162.62,-278.58 170.34,-285.83 173.18,-279.43"/>
</g>
<!-- Node15 -->
<g id="node15" class="node">
<title>Node15</title>
<g id="a_node15"><a xlink:href="global_8h.html" target="_top" xlink:title=" ">
<polygon fill="white" stroke="#666666" points="264,-211.5 214,-211.5 214,-192.5 264,-192.5 264,-211.5"/>
<text text-anchor="middle" x="239" y="-199.5" font-family="Helvetica,sans-Serif" font-size="10.00">global.h</text>
</a>
</g>
</g>
<!-- Node3&#45;&gt;Node15 -->
<g id="edge16" class="edge">
<title>Node3&#45;&gt;Node15</title>
<path fill="none" stroke="#63b8ff" d="M270.55,-318.55C265.11,-298.63 251.9,-250.24 244.41,-222.82"/>
<polygon fill="#63b8ff" stroke="#63b8ff" points="247.83,-222.06 241.82,-213.33 241.08,-223.9 247.83,-222.06"/>
</g>
<!-- Node5 -->
<g id="node5" class="node">
<title>Node5</title>
<g id="a_node5"><a xlink:href="JASSoundParams_8h.html" target="_top" xlink:title=" ">
<polygon fill="white" stroke="#666666" points="425.5,-217 282.5,-217 282.5,-187 425.5,-187 425.5,-217"/>
<text text-anchor="start" x="290.5" y="-205" font-family="Helvetica,sans-Serif" font-size="10.00">JSystem/JAudio2/JASSound</text>
<text text-anchor="middle" x="354" y="-194" font-family="Helvetica,sans-Serif" font-size="10.00">Params.h</text>
</a>
</g>
</g>
<!-- Node4&#45;&gt;Node5 -->
<g id="edge4" class="edge">
<title>Node4&#45;&gt;Node5</title>
<path fill="none" stroke="#63b8ff" d="M349.33,-252.8C350,-245.67 350.83,-236.82 351.6,-228.56"/>
<polygon fill="#63b8ff" stroke="#63b8ff" points="355.08,-228.95 352.53,-218.67 348.11,-228.3 355.08,-228.95"/>
</g>
<!-- Node5&#45;&gt;Node6 -->
<g id="edge5" class="edge">
<title>Node5&#45;&gt;Node6</title>
<path fill="none" stroke="#63b8ff" d="M351.75,-186.88C348.38,-165.8 342.02,-126 338.19,-101.95"/>
<polygon fill="#63b8ff" stroke="#63b8ff" points="341.66,-101.53 336.63,-92.21 334.75,-102.63 341.66,-101.53"/>
</g>
<!-- Node7 -->
<g id="node7" class="node">
<title>Node7</title>
<g id="a_node7"><a xlink:href="stddef_8h.html" target="_top" xlink:title=" ">
<polygon fill="white" stroke="#666666" points="403,-30 267,-30 267,0 403,0 403,-30"/>
<text text-anchor="start" x="275" y="-18" font-family="Helvetica,sans-Serif" font-size="10.00">MSL_C/MSL_Common/Src</text>
<text text-anchor="middle" x="335" y="-7" font-family="Helvetica,sans-Serif" font-size="10.00">/stddef.h</text>
</a>
</g>
</g>
<!-- Node6&#45;&gt;Node7 -->
<g id="edge6" class="edge">
<title>Node6&#45;&gt;Node7</title>
<path fill="none" stroke="#63b8ff" d="M335,-71.1C335,-63.41 335,-51.92 335,-41.42"/>
<polygon fill="#63b8ff" stroke="#63b8ff" points="338.5,-41.75 335,-31.75 331.5,-41.75 338.5,-41.75"/>
</g>
<!-- Node9 -->
<g id="node9" class="node">
<title>Node9</title>
<g id="a_node9"><a xlink:href="JGeometry_8h.html" target="_top" xlink:title=" ">
<polygon fill="white" stroke="#666666" points="195.5,-211.5 82.5,-211.5 82.5,-192.5 195.5,-192.5 195.5,-211.5"/>
<text text-anchor="middle" x="139" y="-199.5" font-family="Helvetica,sans-Serif" font-size="10.00">JSystem/JGeometry.h</text>
</a>
</g>
</g>
<!-- Node8&#45;&gt;Node9 -->
<g id="edge8" class="edge">
<title>Node8&#45;&gt;Node9</title>
<path fill="none" stroke="#63b8ff" d="M140.72,-258.1C140.44,-249.12 140,-234.95 139.63,-223.22"/>
<polygon fill="#63b8ff" stroke="#63b8ff" points="143.13,-223.22 139.32,-213.34 136.14,-223.44 143.13,-223.22"/>
</g>
<!-- Node10 -->
<g id="node10" class="node">
<title>Node10</title>
<g id="a_node10"><a xlink:href="vec_8h.html" target="_top" xlink:title=" ">
<polygon fill="white" stroke="#666666" points="288,-151 196,-151 196,-132 288,-132 288,-151"/>
<text text-anchor="middle" x="242" y="-139" font-family="Helvetica,sans-Serif" font-size="10.00">dolphin/mtx/vec.h</text>
</a>
</g>
</g>
<!-- Node9&#45;&gt;Node10 -->
<g id="edge9" class="edge">
<title>Node9&#45;&gt;Node10</title>
<path fill="none" stroke="#63b8ff" d="M154.64,-192.12C170.98,-182.84 196.87,-168.13 216.23,-157.14"/>
<polygon fill="#63b8ff" stroke="#63b8ff" points="217.93,-160.2 224.89,-152.22 214.47,-154.11 217.93,-160.2"/>
</g>
<!-- Node11 -->
<g id="node11" class="node">
<title>Node11</title>
<g id="a_node11"><a xlink:href="float_8h.html" target="_top" xlink:title=" ">
<polygon fill="white" stroke="#666666" points="178,-151 100,-151 100,-132 178,-132 178,-151"/>
<text text-anchor="middle" x="139" y="-139" font-family="Helvetica,sans-Serif" font-size="10.00">MSL_C/float.h</text>
</a>
</g>
</g>
<!-- Node9&#45;&gt;Node11 -->
<g id="edge11" class="edge">
<title>Node9&#45;&gt;Node11</title>
<path fill="none" stroke="#63b8ff" d="M139,-192.37C139,-184.5 139,-172.6 139,-162.39"/>
<polygon fill="#63b8ff" stroke="#63b8ff" points="142.5,-162.68 139,-152.68 135.5,-162.68 142.5,-162.68"/>
</g>
<!-- Node14 -->
<g id="node14" class="node">
<title>Node14</title>
<g id="a_node14"><a xlink:href="math_8h.html" target="_top" xlink:title=" ">
<polygon fill="white" stroke="#666666" points="82,-151 0,-151 0,-132 82,-132 82,-151"/>
<text text-anchor="middle" x="41" y="-139" font-family="Helvetica,sans-Serif" font-size="10.00">MSL_C/math.h</text>
</a>
</g>
</g>
<!-- Node9&#45;&gt;Node14 -->
<g id="edge14" class="edge">
<title>Node9&#45;&gt;Node14</title>
<path fill="none" stroke="#63b8ff" d="M124.12,-192.12C108.65,-182.88 84.17,-168.27 65.78,-157.29"/>
<polygon fill="#63b8ff" stroke="#63b8ff" points="67.7,-154.36 57.32,-152.24 64.12,-160.38 67.7,-154.36"/>
</g>
<!-- Node10&#45;&gt;Node6 -->
<g id="edge10" class="edge">
<title>Node10&#45;&gt;Node6</title>
<path fill="none" stroke="#63b8ff" d="M256.12,-131.62C270.74,-122.42 293.82,-107.91 311.24,-96.94"/>
<polygon fill="#63b8ff" stroke="#63b8ff" points="312.86,-100.06 319.46,-91.77 309.13,-94.14 312.86,-100.06"/>
</g>
<!-- Node12 -->
<g id="node12" class="node">
<title>Node12</title>
<g id="a_node12"><a xlink:href="MSL__Common_2Src_2float_8h.html" target="_top" xlink:title=" ">
<polygon fill="white" stroke="#666666" points="158,-96 22,-96 22,-66 158,-66 158,-96"/>
<text text-anchor="start" x="30" y="-84" font-family="Helvetica,sans-Serif" font-size="10.00">MSL_C/MSL_Common/Src</text>
<text text-anchor="middle" x="90" y="-73" font-family="Helvetica,sans-Serif" font-size="10.00">/float.h</text>
</a>
</g>
</g>
<!-- Node11&#45;&gt;Node12 -->
<g id="edge12" class="edge">
<title>Node11&#45;&gt;Node12</title>
<path fill="none" stroke="#63b8ff" d="M131.77,-131.87C125.8,-124.74 117.04,-114.28 109.09,-104.79"/>
<polygon fill="#63b8ff" stroke="#63b8ff" points="111.9,-102.69 102.79,-97.27 106.53,-107.19 111.9,-102.69"/>
</g>
<!-- Node13 -->
<g id="node13" class="node">
<title>Node13</title>
<g id="a_node13"><a xlink:href="fdlibm_8h.html" target="_top" xlink:title=" ">
<polygon fill="white" stroke="#666666" points="115,-24.5 65,-24.5 65,-5.5 115,-5.5 115,-24.5"/>
<text text-anchor="middle" x="90" y="-12.5" font-family="Helvetica,sans-Serif" font-size="10.00">fdlibm.h</text>
</a>
</g>
</g>
<!-- Node12&#45;&gt;Node13 -->
<g id="edge13" class="edge">
<title>Node12&#45;&gt;Node13</title>
<path fill="none" stroke="#63b8ff" d="M90,-65.8C90,-57.09 90,-45.81 90,-36.18"/>
<polygon fill="#63b8ff" stroke="#63b8ff" points="93.5,-36.36 90,-26.36 86.5,-36.36 93.5,-36.36"/>
</g>
<!-- Node14&#45;&gt;Node12 -->
<g id="edge15" class="edge">
<title>Node14&#45;&gt;Node12</title>
<path fill="none" stroke="#63b8ff" d="M48.23,-131.87C54.2,-124.74 62.96,-114.28 70.91,-104.79"/>
<polygon fill="#63b8ff" stroke="#63b8ff" points="73.47,-107.19 77.21,-97.27 68.1,-102.69 73.47,-107.19"/>
</g>
<!-- Node15&#45;&gt;Node6 -->
<g id="edge17" class="edge">
<title>Node15&#45;&gt;Node6</title>
<path fill="none" stroke="#63b8ff" d="M251.7,-192.15C264.3,-182.92 283.6,-167.52 297,-151 309.51,-135.58 320.05,-115.46 326.83,-100.92"/>
<polygon fill="#63b8ff" stroke="#63b8ff" points="329.92,-102.6 330.81,-92.05 323.53,-99.74 329.92,-102.6"/>
</g>
</g>
</svg>
