<?xml version="1.0" encoding="UTF-8" standalone="no"?>
<!DOCTYPE svg PUBLIC "-//W3C//DTD SVG 1.1//EN"
 "http://www.w3.org/Graphics/SVG/1.1/DTD/svg11.dtd">
<!-- Generated by graphviz version 7.0.5 (20221223.1930)
 -->
<!-- Title: include/JSystem/JAudio2/JAIStreamMgr.h Pages: 1 -->
<svg width="2384pt" height="533pt"
 viewBox="0.00 0.00 2384.00 533.00" xmlns="http://www.w3.org/2000/svg" xmlns:xlink="http://www.w3.org/1999/xlink">
<g id="graph0" class="graph" transform="scale(1 1) rotate(0) translate(4 529)">
<title>include/JSystem/JAudio2/JAIStreamMgr.h</title>
<!-- Node1 -->
<g id="node1" class="node">
<title>Node1</title>
<g id="a_node1"><a xlink:title=" ">
<polygon fill="#999999" stroke="#666666" points="1986.5,-525 1859.5,-525 1859.5,-495 1986.5,-495 1986.5,-525"/>
<text text-anchor="start" x="1867.5" y="-513" font-family="Helvetica,sans-Serif" font-size="10.00">include/JSystem/JAudio2</text>
<text text-anchor="middle" x="1923" y="-502" font-family="Helvetica,sans-Serif" font-size="10.00">/JAIStreamMgr.h</text>
</a>
</g>
</g>
<!-- Node2 -->
<g id="node2" class="node">
<title>Node2</title>
<g id="a_node2"><a xlink:href="JAISound_8h.html" target="_top" xlink:title=" ">
<polygon fill="white" stroke="#666666" points="2133,-349 1987,-349 1987,-330 2133,-330 2133,-349"/>
<text text-anchor="middle" x="2060" y="-337" font-family="Helvetica,sans-Serif" font-size="10.00">JSystem/JAudio2/JAISound.h</text>
</a>
</g>
</g>
<!-- Node1&#45;&gt;Node2 -->
<g id="edge1" class="edge">
<title>Node1&#45;&gt;Node2</title>
<path fill="none" stroke="#63b8ff" d="M1938.75,-494.69C1959.53,-475.36 1996.54,-439.22 2023,-404 2033.67,-389.8 2043.68,-372.26 2050.59,-359.22"/>
<polygon fill="#63b8ff" stroke="#63b8ff" points="2053.63,-360.95 2055.11,-350.46 2047.41,-357.74 2053.63,-360.95"/>
</g>
<!-- Node15 -->
<g id="node15" class="node">
<title>Node15</title>
<g id="a_node15"><a xlink:href="JASGadget_8h.html" target="_top" xlink:title=" ">
<polygon fill="white" stroke="#666666" points="1856,-459 1702,-459 1702,-440 1856,-440 1856,-459"/>
<text text-anchor="middle" x="1779" y="-447" font-family="Helvetica,sans-Serif" font-size="10.00">JSystem/JAudio2/JASGadget.h</text>
</a>
</g>
</g>
<!-- Node1&#45;&gt;Node15 -->
<g id="edge17" class="edge">
<title>Node1&#45;&gt;Node15</title>
<path fill="none" stroke="#63b8ff" d="M1887.4,-494.54C1864.07,-485.06 1833.82,-472.77 1811.2,-463.58"/>
<polygon fill="#63b8ff" stroke="#63b8ff" points="1812.76,-460.44 1802.18,-459.92 1810.12,-466.92 1812.76,-460.44"/>
</g>
<!-- Node16 -->
<g id="node16" class="node">
<title>Node16</title>
<g id="a_node16"><a xlink:href="JUTAssert_8h.html" target="_top" xlink:title=" ">
<polygon fill="white" stroke="#666666" points="1852,-404 1706,-404 1706,-385 1852,-385 1852,-404"/>
<text text-anchor="middle" x="1779" y="-392" font-family="Helvetica,sans-Serif" font-size="10.00">JSystem/JUtility/JUTAssert.h</text>
</a>
</g>
</g>
<!-- Node1&#45;&gt;Node16 -->
<g id="edge74" class="edge">
<title>Node1&#45;&gt;Node16</title>
<path fill="none" stroke="#63b8ff" d="M1913.48,-494.61C1902.99,-479.55 1884.92,-455.93 1865,-440 1849.17,-427.34 1829.17,-416.73 1812.44,-409.05"/>
<polygon fill="#63b8ff" stroke="#63b8ff" points="1813.95,-405.89 1803.38,-405.05 1811.12,-412.29 1813.95,-405.89"/>
</g>
<!-- Node45 -->
<g id="node45" class="node">
<title>Node45</title>
<g id="a_node45"><a xlink:href="JSUList_8h.html" target="_top" xlink:title=" ">
<polygon fill="white" stroke="#666666" points="2013.5,-404 1870.5,-404 1870.5,-385 2013.5,-385 2013.5,-404"/>
<text text-anchor="middle" x="1942" y="-392" font-family="Helvetica,sans-Serif" font-size="10.00">JSystem/JSupport/JSUList.h</text>
</a>
</g>
</g>
<!-- Node1&#45;&gt;Node45 -->
<g id="edge72" class="edge">
<title>Node1&#45;&gt;Node45</title>
<path fill="none" stroke="#63b8ff" d="M1925.41,-494.63C1928.76,-474.59 1934.86,-438.17 1938.65,-415.49"/>
<polygon fill="#63b8ff" stroke="#63b8ff" points="1942.09,-416.16 1940.29,-405.72 1935.19,-415.01 1942.09,-416.16"/>
</g>
<!-- Node3 -->
<g id="node3" class="node">
<title>Node3</title>
<g id="a_node3"><a xlink:href="JAISoundParams_8h.html" target="_top" xlink:title=" ">
<polygon fill="white" stroke="#666666" points="2147.5,-294 2008.5,-294 2008.5,-264 2147.5,-264 2147.5,-294"/>
<text text-anchor="start" x="2016.5" y="-282" font-family="Helvetica,sans-Serif" font-size="10.00">JSystem/JAudio2/JAISound</text>
<text text-anchor="middle" x="2078" y="-271" font-family="Helvetica,sans-Serif" font-size="10.00">Params.h</text>
</a>
</g>
</g>
<!-- Node2&#45;&gt;Node3 -->
<g id="edge2" class="edge">
<title>Node2&#45;&gt;Node3</title>
<path fill="none" stroke="#63b8ff" d="M2062.66,-329.87C2064.69,-323.25 2067.61,-313.78 2070.35,-304.86"/>
<polygon fill="#63b8ff" stroke="#63b8ff" points="2073.62,-306.15 2073.21,-295.56 2066.93,-304.09 2073.62,-306.15"/>
</g>
<!-- Node7 -->
<g id="node7" class="node">
<title>Node7</title>
<g id="a_node7"><a xlink:href="JAIAudible_8h.html" target="_top" xlink:title=" ">
<polygon fill="white" stroke="#666666" points="2316.5,-288.5 2165.5,-288.5 2165.5,-269.5 2316.5,-269.5 2316.5,-288.5"/>
<text text-anchor="middle" x="2241" y="-276.5" font-family="Helvetica,sans-Serif" font-size="10.00">JSystem/JAudio2/JAIAudible.h</text>
</a>
</g>
</g>
<!-- Node2&#45;&gt;Node7 -->
<g id="edge6" class="edge">
<title>Node2&#45;&gt;Node7</title>
<path fill="none" stroke="#63b8ff" d="M2087.49,-329.62C2118.19,-319.69 2168.09,-303.57 2202.62,-292.4"/>
<polygon fill="#63b8ff" stroke="#63b8ff" points="2203.37,-295.84 2211.81,-289.43 2201.22,-289.18 2203.37,-295.84"/>
</g>
<!-- Node14 -->
<g id="node14" class="node">
<title>Node14</title>
<g id="a_node14"><a xlink:href="global_8h.html" target="_top" xlink:title=" ">
<polygon fill="white" stroke="#666666" points="2020,-156.5 1970,-156.5 1970,-137.5 2020,-137.5 2020,-156.5"/>
<text text-anchor="middle" x="1995" y="-144.5" font-family="Helvetica,sans-Serif" font-size="10.00">global.h</text>
</a>
</g>
</g>
<!-- Node2&#45;&gt;Node14 -->
<g id="edge15" class="edge">
<title>Node2&#45;&gt;Node14</title>
<path fill="none" stroke="#63b8ff" d="M2039.99,-329.59C2026.08,-322.21 2008.56,-310.31 2000,-294 1978.74,-253.51 1984.95,-197.62 1990.48,-168.12"/>
<polygon fill="#63b8ff" stroke="#63b8ff" points="1993.9,-168.87 1992.49,-158.37 1987.04,-167.46 1993.9,-168.87"/>
</g>
<!-- Node4 -->
<g id="node4" class="node">
<title>Node4</title>
<g id="a_node4"><a xlink:href="JASSoundParams_8h.html" target="_top" xlink:title=" ">
<polygon fill="white" stroke="#666666" points="2151.5,-228 2008.5,-228 2008.5,-198 2151.5,-198 2151.5,-228"/>
<text text-anchor="start" x="2016.5" y="-216" font-family="Helvetica,sans-Serif" font-size="10.00">JSystem/JAudio2/JASSound</text>
<text text-anchor="middle" x="2080" y="-205" font-family="Helvetica,sans-Serif" font-size="10.00">Params.h</text>
</a>
</g>
</g>
<!-- Node3&#45;&gt;Node4 -->
<g id="edge3" class="edge">
<title>Node3&#45;&gt;Node4</title>
<path fill="none" stroke="#63b8ff" d="M2078.44,-263.8C2078.67,-256.67 2078.94,-247.82 2079.2,-239.56"/>
<polygon fill="#63b8ff" stroke="#63b8ff" points="2082.7,-239.78 2079.51,-229.68 2075.7,-239.56 2082.7,-239.78"/>
</g>
<!-- Node5 -->
<g id="node5" class="node">
<title>Node5</title>
<g id="a_node5"><a xlink:href="types_8h.html" target="_top" xlink:title=" ">
<polygon fill="white" stroke="#666666" points="1336.5,-90.5 1255.5,-90.5 1255.5,-71.5 1336.5,-71.5 1336.5,-90.5"/>
<text text-anchor="middle" x="1296" y="-78.5" font-family="Helvetica,sans-Serif" font-size="10.00">dolphin/types.h</text>
</a>
</g>
</g>
<!-- Node4&#45;&gt;Node5 -->
<g id="edge4" class="edge">
<title>Node4&#45;&gt;Node5</title>
<path fill="none" stroke="#63b8ff" d="M2075.47,-197.78C2068.69,-179.06 2053.93,-146.8 2029,-132 1970.85,-97.48 1506.03,-85.84 1348.21,-82.86"/>
<polygon fill="#63b8ff" stroke="#63b8ff" points="1348.53,-79.37 1338.47,-82.68 1348.4,-86.37 1348.53,-79.37"/>
</g>
<!-- Node6 -->
<g id="node6" class="node">
<title>Node6</title>
<g id="a_node6"><a xlink:href="stddef_8h.html" target="_top" xlink:title=" ">
<polygon fill="white" stroke="#666666" points="444,-30 308,-30 308,0 444,0 444,-30"/>
<text text-anchor="start" x="316" y="-18" font-family="Helvetica,sans-Serif" font-size="10.00">MSL_C/MSL_Common/Src</text>
<text text-anchor="middle" x="376" y="-7" font-family="Helvetica,sans-Serif" font-size="10.00">/stddef.h</text>
</a>
</g>
</g>
<!-- Node5&#45;&gt;Node6 -->
<g id="edge5" class="edge">
<title>Node5&#45;&gt;Node6</title>
<path fill="none" stroke="#63b8ff" d="M1255.28,-77.17C1114.2,-67.35 644.6,-34.69 455.71,-21.54"/>
<polygon fill="#63b8ff" stroke="#63b8ff" points="456.21,-18.07 446,-20.87 455.73,-25.05 456.21,-18.07"/>
</g>
<!-- Node8 -->
<g id="node8" class="node">
<title>Node8</title>
<g id="a_node8"><a xlink:href="JGeometry_8h.html" target="_top" xlink:title=" ">
<polygon fill="white" stroke="#666666" points="2296.5,-222.5 2183.5,-222.5 2183.5,-203.5 2296.5,-203.5 2296.5,-222.5"/>
<text text-anchor="middle" x="2240" y="-210.5" font-family="Helvetica,sans-Serif" font-size="10.00">JSystem/JGeometry.h</text>
</a>
</g>
</g>
<!-- Node7&#45;&gt;Node8 -->
<g id="edge7" class="edge">
<title>Node7&#45;&gt;Node8</title>
<path fill="none" stroke="#63b8ff" d="M2240.86,-269.1C2240.72,-260.12 2240.5,-245.95 2240.32,-234.22"/>
<polygon fill="#63b8ff" stroke="#63b8ff" points="2243.82,-234.28 2240.16,-224.34 2236.82,-234.39 2243.82,-234.28"/>
</g>
<!-- Node9 -->
<g id="node9" class="node">
<title>Node9</title>
<g id="a_node9"><a xlink:href="vec_8h.html" target="_top" xlink:title=" ">
<polygon fill="white" stroke="#666666" points="2178,-156.5 2086,-156.5 2086,-137.5 2178,-137.5 2178,-156.5"/>
<text text-anchor="middle" x="2132" y="-144.5" font-family="Helvetica,sans-Serif" font-size="10.00">dolphin/mtx/vec.h</text>
</a>
</g>
</g>
<!-- Node8&#45;&gt;Node9 -->
<g id="edge8" class="edge">
<title>Node8&#45;&gt;Node9</title>
<path fill="none" stroke="#63b8ff" d="M2224.98,-203.1C2207.33,-192.64 2177.78,-175.13 2156.73,-162.66"/>
<polygon fill="#63b8ff" stroke="#63b8ff" points="2158.58,-159.68 2148.19,-157.59 2155.01,-165.7 2158.58,-159.68"/>
</g>
<!-- Node10 -->
<g id="node10" class="node">
<title>Node10</title>
<g id="a_node10"><a xlink:href="float_8h.html" target="_top" xlink:title=" ">
<polygon fill="white" stroke="#666666" points="2376,-156.5 2298,-156.5 2298,-137.5 2376,-137.5 2376,-156.5"/>
<text text-anchor="middle" x="2337" y="-144.5" font-family="Helvetica,sans-Serif" font-size="10.00">MSL_C/float.h</text>
</a>
</g>
</g>
<!-- Node8&#45;&gt;Node10 -->
<g id="edge10" class="edge">
<title>Node8&#45;&gt;Node10</title>
<path fill="none" stroke="#63b8ff" d="M2253.49,-203.1C2269.2,-192.74 2295.4,-175.45 2314.27,-163"/>
<polygon fill="#63b8ff" stroke="#63b8ff" points="2315.94,-166.09 2322.36,-157.66 2312.09,-160.24 2315.94,-166.09"/>
</g>
<!-- Node13 -->
<g id="node13" class="node">
<title>Node13</title>
<g id="a_node13"><a xlink:href="math_8h.html" target="_top" xlink:title=" ">
<polygon fill="white" stroke="#666666" points="2280,-156.5 2198,-156.5 2198,-137.5 2280,-137.5 2280,-156.5"/>
<text text-anchor="middle" x="2239" y="-144.5" font-family="Helvetica,sans-Serif" font-size="10.00">MSL_C/math.h</text>
</a>
</g>
</g>
<!-- Node8&#45;&gt;Node13 -->
<g id="edge13" class="edge">
<title>Node8&#45;&gt;Node13</title>
<path fill="none" stroke="#63b8ff" d="M2239.86,-203.1C2239.72,-194.12 2239.5,-179.95 2239.32,-168.22"/>
<polygon fill="#63b8ff" stroke="#63b8ff" points="2242.82,-168.28 2239.16,-158.34 2235.82,-168.39 2242.82,-168.28"/>
</g>
<!-- Node9&#45;&gt;Node5 -->
<g id="edge9" class="edge">
<title>Node9&#45;&gt;Node5</title>
<path fill="none" stroke="#63b8ff" d="M2096.19,-137.04C2087.35,-135.11 2077.87,-133.27 2069,-132 1799.77,-93.61 1473.53,-84.67 1348.35,-82.61"/>
<polygon fill="#63b8ff" stroke="#63b8ff" points="1348.44,-79.11 1338.39,-82.45 1348.33,-86.11 1348.44,-79.11"/>
</g>
<!-- Node11 -->
<g id="node11" class="node">
<title>Node11</title>
<g id="a_node11"><a xlink:href="MSL__Common_2Src_2float_8h.html" target="_top" xlink:title=" ">
<polygon fill="white" stroke="#666666" points="2356,-96 2220,-96 2220,-66 2356,-66 2356,-96"/>
<text text-anchor="start" x="2228" y="-84" font-family="Helvetica,sans-Serif" font-size="10.00">MSL_C/MSL_Common/Src</text>
<text text-anchor="middle" x="2288" y="-73" font-family="Helvetica,sans-Serif" font-size="10.00">/float.h</text>
</a>
</g>
</g>
<!-- Node10&#45;&gt;Node11 -->
<g id="edge11" class="edge">
<title>Node10&#45;&gt;Node11</title>
<path fill="none" stroke="#63b8ff" d="M2330.19,-137.1C2323.86,-128.84 2314.16,-116.17 2305.66,-105.06"/>
<polygon fill="#63b8ff" stroke="#63b8ff" points="2308.68,-103.25 2299.82,-97.44 2303.12,-107.5 2308.68,-103.25"/>
</g>
<!-- Node12 -->
<g id="node12" class="node">
<title>Node12</title>
<g id="a_node12"><a xlink:href="fdlibm_8h.html" target="_top" xlink:title=" ">
<polygon fill="white" stroke="#666666" points="2313,-24.5 2263,-24.5 2263,-5.5 2313,-5.5 2313,-24.5"/>
<text text-anchor="middle" x="2288" y="-12.5" font-family="Helvetica,sans-Serif" font-size="10.00">fdlibm.h</text>
</a>
</g>
</g>
<!-- Node11&#45;&gt;Node12 -->
<g id="edge12" class="edge">
<title>Node11&#45;&gt;Node12</title>
<path fill="none" stroke="#63b8ff" d="M2288,-65.8C2288,-57.09 2288,-45.81 2288,-36.18"/>
<polygon fill="#63b8ff" stroke="#63b8ff" points="2291.5,-36.36 2288,-26.36 2284.5,-36.36 2291.5,-36.36"/>
</g>
<!-- Node13&#45;&gt;Node11 -->
<g id="edge14" class="edge">
<title>Node13&#45;&gt;Node11</title>
<path fill="none" stroke="#63b8ff" d="M2245.81,-137.1C2252.14,-128.84 2261.84,-116.17 2270.34,-105.06"/>
<polygon fill="#63b8ff" stroke="#63b8ff" points="2272.88,-107.5 2276.18,-97.44 2267.32,-103.25 2272.88,-107.5"/>
</g>
<!-- Node14&#45;&gt;Node5 -->
<g id="edge16" class="edge">
<title>Node14&#45;&gt;Node5</title>
<path fill="none" stroke="#63b8ff" d="M1973.44,-137.09C1967.84,-135.11 1961.77,-133.23 1956,-132 1733.49,-84.54 1460.37,-80.59 1348.03,-81.23"/>
<polygon fill="#63b8ff" stroke="#63b8ff" points="1348.2,-77.73 1338.23,-81.3 1348.25,-84.73 1348.2,-77.73"/>
</g>
<!-- Node15&#45;&gt;Node16 -->
<g id="edge18" class="edge">
<title>Node15&#45;&gt;Node16</title>
<path fill="none" stroke="#63b8ff" d="M1779,-439.75C1779,-433.27 1779,-424.16 1779,-415.9"/>
<polygon fill="#63b8ff" stroke="#63b8ff" points="1782.5,-415.96 1779,-405.96 1775.5,-415.96 1782.5,-415.96"/>
</g>
<!-- Node41 -->
<g id="node41" class="node">
<title>Node41</title>
<g id="a_node41"><a xlink:href="string_8h.html" target="_top" xlink:title=" ">
<polygon fill="white" stroke="#666666" points="187,-156.5 103,-156.5 103,-137.5 187,-137.5 187,-156.5"/>
<text text-anchor="middle" x="145" y="-144.5" font-family="Helvetica,sans-Serif" font-size="10.00">MSL_C/string.h</text>
</a>
</g>
</g>
<!-- Node15&#45;&gt;Node41 -->
<g id="edge66" class="edge">
<title>Node15&#45;&gt;Node41</title>
<path fill="none" stroke="#63b8ff" d="M1701.67,-447.55C1374.9,-443.06 124,-420.61 124,-340.5 124,-340.5 124,-340.5 124,-278 124,-238.49 133.57,-193.09 139.79,-167.75"/>
<polygon fill="#63b8ff" stroke="#63b8ff" points="143.14,-168.77 142.22,-158.21 136.36,-167.04 143.14,-168.77"/>
</g>
<!-- Node16&#45;&gt;Node5 -->
<g id="edge19" class="edge">
<title>Node16&#45;&gt;Node5</title>
<path fill="none" stroke="#63b8ff" d="M1802.81,-384.54C1839.07,-369.16 1904,-334.08 1904,-280 1904,-280 1904,-280 1904,-212 1904,-98.76 1495.58,-83.82 1348.22,-82.11"/>
<polygon fill="#63b8ff" stroke="#63b8ff" points="1348.38,-78.61 1338.35,-82.01 1348.32,-85.61 1348.38,-78.61"/>
</g>
<!-- Node17 -->
<g id="node17" class="node">
<title>Node17</title>
<g id="a_node17"><a xlink:href="OS_8h.html" target="_top" xlink:title=" ">
<polygon fill="white" stroke="#666666" points="1207,-349 1121,-349 1121,-330 1207,-330 1207,-349"/>
<text text-anchor="middle" x="1164" y="-337" font-family="Helvetica,sans-Serif" font-size="10.00">dolphin/os/OS.h</text>
</a>
</g>
</g>
<!-- Node16&#45;&gt;Node17 -->
<g id="edge20" class="edge">
<title>Node16&#45;&gt;Node17</title>
<path fill="none" stroke="#63b8ff" d="M1705.73,-387.19C1580.84,-376.42 1329.5,-354.76 1218.65,-345.21"/>
<polygon fill="#63b8ff" stroke="#63b8ff" points="1219.19,-341.74 1208.92,-344.37 1218.59,-348.72 1219.19,-341.74"/>
</g>
<!-- Node18 -->
<g id="node18" class="node">
<title>Node18</title>
<g id="a_node18"><a xlink:href="____va__arg_8h.html" target="_top" xlink:title=" ">
<polygon fill="white" stroke="#666666" points="1596,-162 1486,-162 1486,-132 1596,-132 1596,-162"/>
<text text-anchor="start" x="1494" y="-150" font-family="Helvetica,sans-Serif" font-size="10.00">Runtime.PPCEABI.H/</text>
<text text-anchor="middle" x="1541" y="-139" font-family="Helvetica,sans-Serif" font-size="10.00">__va_arg.h</text>
</a>
</g>
</g>
<!-- Node17&#45;&gt;Node18 -->
<g id="edge21" class="edge">
<title>Node17&#45;&gt;Node18</title>
<path fill="none" stroke="#63b8ff" d="M1202.36,-329.54C1231.76,-321.97 1272.93,-309.83 1307,-294 1329.47,-283.56 1333.03,-277.2 1354,-264 1407.87,-230.1 1470.83,-191.19 1508.23,-168.15"/>
<polygon fill="#63b8ff" stroke="#63b8ff" points="1509.65,-171.39 1516.33,-163.16 1505.98,-165.43 1509.65,-171.39"/>
</g>
<!-- Node19 -->
<g id="node19" class="node">
<title>Node19</title>
<g id="a_node19"><a xlink:href="dvd_8h.html" target="_top" xlink:title=" ">
<polygon fill="white" stroke="#666666" points="1626,-222.5 1534,-222.5 1534,-203.5 1626,-203.5 1626,-222.5"/>
<text text-anchor="middle" x="1580" y="-210.5" font-family="Helvetica,sans-Serif" font-size="10.00">dolphin/dvd/dvd.h</text>
</a>
</g>
</g>
<!-- Node17&#45;&gt;Node19 -->
<g id="edge23" class="edge">
<title>Node17&#45;&gt;Node19</title>
<path fill="none" stroke="#63b8ff" d="M1207.27,-337.71C1319.12,-335.2 1611.15,-325.68 1640,-294 1659.32,-272.79 1628.7,-245.63 1604.56,-229.04"/>
<polygon fill="#63b8ff" stroke="#63b8ff" points="1606.65,-226.22 1596.37,-223.66 1602.81,-232.07 1606.65,-226.22"/>
</g>
<!-- Node20 -->
<g id="node20" class="node">
<title>Node20</title>
<g id="a_node20"><a xlink:href="OSAlarm_8h.html" target="_top" xlink:title=" ">
<polygon fill="white" stroke="#666666" points="1837.5,-288.5 1726.5,-288.5 1726.5,-269.5 1837.5,-269.5 1837.5,-288.5"/>
<text text-anchor="middle" x="1782" y="-276.5" font-family="Helvetica,sans-Serif" font-size="10.00">dolphin/os/OSAlarm.h</text>
</a>
</g>
</g>
<!-- Node17&#45;&gt;Node20 -->
<g id="edge25" class="edge">
<title>Node17&#45;&gt;Node20</title>
<path fill="none" stroke="#63b8ff" d="M1207.17,-336.7C1299.94,-332.47 1525.07,-320.19 1712,-294 1717.98,-293.16 1724.23,-292.13 1730.41,-291.02"/>
<polygon fill="#63b8ff" stroke="#63b8ff" points="1730.75,-294.52 1739.93,-289.23 1729.46,-287.64 1730.75,-294.52"/>
</g>
<!-- Node21 -->
<g id="node21" class="node">
<title>Node21</title>
<g id="a_node21"><a xlink:href="OSError_8h.html" target="_top" xlink:title=" ">
<polygon fill="white" stroke="#666666" points="1750,-222.5 1644,-222.5 1644,-203.5 1750,-203.5 1750,-222.5"/>
<text text-anchor="middle" x="1697" y="-210.5" font-family="Helvetica,sans-Serif" font-size="10.00">dolphin/os/OSError.h</text>
</a>
</g>
</g>
<!-- Node17&#45;&gt;Node21 -->
<g id="edge39" class="edge">
<title>Node17&#45;&gt;Node21</title>
<path fill="none" stroke="#63b8ff" d="M1207.33,-337.01C1320.97,-332.78 1621.31,-319.29 1658,-294 1678.15,-280.11 1688.29,-252.79 1693.1,-233.97"/>
<polygon fill="#63b8ff" stroke="#63b8ff" points="1696.5,-234.81 1695.26,-224.29 1689.67,-233.29 1696.5,-234.81"/>
</g>
<!-- Node22 -->
<g id="node22" class="node">
<title>Node22</title>
<g id="a_node22"><a xlink:href="OSTime_8h.html" target="_top" xlink:title=" ">
<polygon fill="white" stroke="#666666" points="1875.5,-222.5 1768.5,-222.5 1768.5,-203.5 1875.5,-203.5 1875.5,-222.5"/>
<text text-anchor="middle" x="1822" y="-210.5" font-family="Helvetica,sans-Serif" font-size="10.00">dolphin/os/OSTime.h</text>
</a>
</g>
</g>
<!-- Node17&#45;&gt;Node22 -->
<g id="edge65" class="edge">
<title>Node17&#45;&gt;Node22</title>
<path fill="none" stroke="#63b8ff" d="M1207.02,-339.02C1349.94,-340.29 1802.35,-340.6 1846,-294 1861.9,-277.03 1848.45,-249.91 1836.19,-232.03"/>
<polygon fill="#63b8ff" stroke="#63b8ff" points="1839.15,-230.15 1830.41,-224.16 1833.51,-234.3 1839.15,-230.15"/>
</g>
<!-- Node23 -->
<g id="node23" class="node">
<title>Node23</title>
<g id="a_node23"><a xlink:href="OSAlloc_8h.html" target="_top" xlink:title=" ">
<polygon fill="white" stroke="#666666" points="259.5,-222.5 152.5,-222.5 152.5,-203.5 259.5,-203.5 259.5,-222.5"/>
<text text-anchor="middle" x="206" y="-210.5" font-family="Helvetica,sans-Serif" font-size="10.00">dolphin/os/OSAlloc.h</text>
</a>
</g>
</g>
<!-- Node17&#45;&gt;Node23 -->
<g id="edge30" class="edge">
<title>Node17&#45;&gt;Node23</title>
<path fill="none" stroke="#63b8ff" d="M1120.63,-337.56C959.36,-333.9 399.7,-319.45 324,-294 284.15,-280.6 245.23,-249.76 223.55,-230.53"/>
<polygon fill="#63b8ff" stroke="#63b8ff" points="225.98,-228.01 216.23,-223.86 221.27,-233.18 225.98,-228.01"/>
</g>
<!-- Node24 -->
<g id="node24" class="node">
<title>Node24</title>
<g id="a_node24"><a xlink:href="OSArena_8h.html" target="_top" xlink:title=" ">
<polygon fill="white" stroke="#666666" points="388.5,-222.5 277.5,-222.5 277.5,-203.5 388.5,-203.5 388.5,-222.5"/>
<text text-anchor="middle" x="333" y="-210.5" font-family="Helvetica,sans-Serif" font-size="10.00">dolphin/os/OSArena.h</text>
</a>
</g>
</g>
<!-- Node17&#45;&gt;Node24 -->
<g id="edge32" class="edge">
<title>Node17&#45;&gt;Node24</title>
<path fill="none" stroke="#63b8ff" d="M1120.53,-337.72C954.51,-334.52 368.27,-321.34 340,-294 324.29,-278.8 325.2,-252.2 328.26,-233.88"/>
<polygon fill="#63b8ff" stroke="#63b8ff" points="331.66,-234.73 330.24,-224.23 324.8,-233.32 331.66,-234.73"/>
</g>
<!-- Node25 -->
<g id="node25" class="node">
<title>Node25</title>
<g id="a_node25"><a xlink:href="OSAudioSystem_8h.html" target="_top" xlink:title=" ">
<polygon fill="white" stroke="#666666" points="1506.5,-288.5 1363.5,-288.5 1363.5,-269.5 1506.5,-269.5 1506.5,-288.5"/>
<text text-anchor="middle" x="1435" y="-276.5" font-family="Helvetica,sans-Serif" font-size="10.00">dolphin/os/OSAudioSystem.h</text>
</a>
</g>
</g>
<!-- Node17&#45;&gt;Node25 -->
<g id="edge34" class="edge">
<title>Node17&#45;&gt;Node25</title>
<path fill="none" stroke="#63b8ff" d="M1205.45,-329.55C1252.97,-319.29 1330.94,-302.46 1382.62,-291.31"/>
<polygon fill="#63b8ff" stroke="#63b8ff" points="1383.03,-294.8 1392.07,-289.27 1381.56,-287.96 1383.03,-294.8"/>
</g>
<!-- Node26 -->
<g id="node26" class="node">
<title>Node26</title>
<g id="a_node26"><a xlink:href="OSCache_8h.html" target="_top" xlink:title=" ">
<polygon fill="white" stroke="#666666" points="519.5,-222.5 406.5,-222.5 406.5,-203.5 519.5,-203.5 519.5,-222.5"/>
<text text-anchor="middle" x="463" y="-210.5" font-family="Helvetica,sans-Serif" font-size="10.00">dolphin/os/OSCache.h</text>
</a>
</g>
</g>
<!-- Node17&#45;&gt;Node26 -->
<g id="edge35" class="edge">
<title>Node17&#45;&gt;Node26</title>
<path fill="none" stroke="#63b8ff" d="M1120.76,-337.76C956.3,-334.75 377.67,-322.16 351,-294 324.01,-265.49 377.81,-240.62 419.81,-226.46"/>
<polygon fill="#63b8ff" stroke="#63b8ff" points="420.84,-229.81 429.28,-223.4 418.68,-223.15 420.84,-229.81"/>
</g>
<!-- Node27 -->
<g id="node27" class="node">
<title>Node27</title>
<g id="a_node27"><a xlink:href="OSContext_8h.html" target="_top" xlink:title=" ">
<polygon fill="white" stroke="#666666" points="741.5,-156.5 622.5,-156.5 622.5,-137.5 741.5,-137.5 741.5,-156.5"/>
<text text-anchor="middle" x="682" y="-144.5" font-family="Helvetica,sans-Serif" font-size="10.00">dolphin/os/OSContext.h</text>
</a>
</g>
</g>
<!-- Node17&#45;&gt;Node27 -->
<g id="edge37" class="edge">
<title>Node17&#45;&gt;Node27</title>
<path fill="none" stroke="#63b8ff" d="M1120.54,-337.35C1011.12,-334.05 730.82,-322.84 701,-294 667.08,-261.21 672.2,-199.81 677.69,-168.1"/>
<polygon fill="#63b8ff" stroke="#63b8ff" points="681.12,-168.8 679.59,-158.32 674.25,-167.47 681.12,-168.8"/>
</g>
<!-- Node28 -->
<g id="node28" class="node">
<title>Node28</title>
<g id="a_node28"><a xlink:href="OSExec_8h.html" target="_top" xlink:title=" ">
<polygon fill="white" stroke="#666666" points="817.5,-288.5 710.5,-288.5 710.5,-269.5 817.5,-269.5 817.5,-288.5"/>
<text text-anchor="middle" x="764" y="-276.5" font-family="Helvetica,sans-Serif" font-size="10.00">dolphin/os/OSExec.h</text>
</a>
</g>
</g>
<!-- Node17&#45;&gt;Node28 -->
<g id="edge40" class="edge">
<title>Node17&#45;&gt;Node28</title>
<path fill="none" stroke="#63b8ff" d="M1120.59,-334.07C1056.07,-327.19 931.17,-312.76 826,-294 821.6,-293.22 817.05,-292.33 812.49,-291.39"/>
<polygon fill="#63b8ff" stroke="#63b8ff" points="813.25,-287.98 802.74,-289.31 811.79,-294.82 813.25,-287.98"/>
</g>
<!-- Node29 -->
<g id="node29" class="node">
<title>Node29</title>
<g id="a_node29"><a xlink:href="OSFont_8h.html" target="_top" xlink:title=" ">
<polygon fill="white" stroke="#666666" points="940.5,-288.5 835.5,-288.5 835.5,-269.5 940.5,-269.5 940.5,-288.5"/>
<text text-anchor="middle" x="888" y="-276.5" font-family="Helvetica,sans-Serif" font-size="10.00">dolphin/os/OSFont.h</text>
</a>
</g>
</g>
<!-- Node17&#45;&gt;Node29 -->
<g id="edge42" class="edge">
<title>Node17&#45;&gt;Node29</title>
<path fill="none" stroke="#63b8ff" d="M1120.51,-329.68C1077.24,-320.86 1008.97,-306.79 950,-294 946.22,-293.18 942.31,-292.32 938.38,-291.45"/>
<polygon fill="#63b8ff" stroke="#63b8ff" points="939.34,-288.08 928.81,-289.32 937.81,-294.91 939.34,-288.08"/>
</g>
<!-- Node30 -->
<g id="node30" class="node">
<title>Node30</title>
<g id="a_node30"><a xlink:href="OSInterrupt_8h.html" target="_top" xlink:title=" ">
<polygon fill="white" stroke="#666666" points="1080,-222.5 958,-222.5 958,-203.5 1080,-203.5 1080,-222.5"/>
<text text-anchor="middle" x="1019" y="-210.5" font-family="Helvetica,sans-Serif" font-size="10.00">dolphin/os/OSInterrupt.h</text>
</a>
</g>
</g>
<!-- Node17&#45;&gt;Node30 -->
<g id="edge44" class="edge">
<title>Node17&#45;&gt;Node30</title>
<path fill="none" stroke="#63b8ff" d="M1155.95,-329.81C1142.48,-315.45 1114.26,-286.17 1088,-264 1073.17,-251.48 1055.43,-238.66 1041.64,-229.14"/>
<polygon fill="#63b8ff" stroke="#63b8ff" points="1043.89,-226.44 1033.66,-223.69 1039.95,-232.22 1043.89,-226.44"/>
</g>
<!-- Node31 -->
<g id="node31" class="node">
<title>Node31</title>
<g id="a_node31"><a xlink:href="OSLink_8h.html" target="_top" xlink:title=" ">
<polygon fill="white" stroke="#666666" points="1046,-156.5 942,-156.5 942,-137.5 1046,-137.5 1046,-156.5"/>
<text text-anchor="middle" x="994" y="-144.5" font-family="Helvetica,sans-Serif" font-size="10.00">dolphin/os/OSLink.h</text>
</a>
</g>
</g>
<!-- Node17&#45;&gt;Node31 -->
<g id="edge46" class="edge">
<title>Node17&#45;&gt;Node31</title>
<path fill="none" stroke="#63b8ff" d="M1161.38,-329.81C1153.81,-305.96 1129.79,-238.55 1089,-198 1072.68,-181.78 1050.01,-169.57 1030.91,-161.28"/>
<polygon fill="#63b8ff" stroke="#63b8ff" points="1032.41,-158.12 1021.83,-157.55 1029.75,-164.59 1032.41,-158.12"/>
</g>
<!-- Node32 -->
<g id="node32" class="node">
<title>Node32</title>
<g id="a_node32"><a xlink:href="OSMemory_8h.html" target="_top" xlink:title=" ">
<polygon fill="white" stroke="#666666" points="1079,-288.5 959,-288.5 959,-269.5 1079,-269.5 1079,-288.5"/>
<text text-anchor="middle" x="1019" y="-276.5" font-family="Helvetica,sans-Serif" font-size="10.00">dolphin/os/OSMemory.h</text>
</a>
</g>
</g>
<!-- Node17&#45;&gt;Node32 -->
<g id="edge48" class="edge">
<title>Node17&#45;&gt;Node32</title>
<path fill="none" stroke="#63b8ff" d="M1141.98,-329.62C1117.92,-319.91 1079.13,-304.26 1051.56,-293.14"/>
<polygon fill="#63b8ff" stroke="#63b8ff" points="1053.22,-290.03 1042.63,-289.53 1050.6,-296.52 1053.22,-290.03"/>
</g>
<!-- Node33 -->
<g id="node33" class="node">
<title>Node33</title>
<g id="a_node33"><a xlink:href="OSMessage_8h.html" target="_top" xlink:title=" ">
<polygon fill="white" stroke="#666666" points="653.5,-288.5 528.5,-288.5 528.5,-269.5 653.5,-269.5 653.5,-288.5"/>
<text text-anchor="middle" x="591" y="-276.5" font-family="Helvetica,sans-Serif" font-size="10.00">dolphin/os/OSMessage.h</text>
</a>
</g>
</g>
<!-- Node17&#45;&gt;Node33 -->
<g id="edge50" class="edge">
<title>Node17&#45;&gt;Node33</title>
<path fill="none" stroke="#63b8ff" d="M1120.73,-335.94C1034.38,-330.53 834.64,-316.58 668,-294 661.44,-293.11 654.6,-292.06 647.81,-290.93"/>
<polygon fill="#63b8ff" stroke="#63b8ff" points="648.43,-287.48 637.98,-289.23 647.24,-294.38 648.43,-287.48"/>
</g>
<!-- Node34 -->
<g id="node34" class="node">
<title>Node34</title>
<g id="a_node34"><a xlink:href="OSThread_8h.html" target="_top" xlink:title=" ">
<polygon fill="white" stroke="#666666" points="654,-222.5 538,-222.5 538,-203.5 654,-203.5 654,-222.5"/>
<text text-anchor="middle" x="596" y="-210.5" font-family="Helvetica,sans-Serif" font-size="10.00">dolphin/os/OSThread.h</text>
</a>
</g>
</g>
<!-- Node17&#45;&gt;Node34 -->
<g id="edge64" class="edge">
<title>Node17&#45;&gt;Node34</title>
<path fill="none" stroke="#63b8ff" d="M1120.92,-338.84C983.17,-339.5 559.98,-337.9 519,-294 497.11,-270.55 536.2,-243.79 566.25,-227.93"/>
<polygon fill="#63b8ff" stroke="#63b8ff" points="567.7,-231.12 575.04,-223.48 564.54,-224.87 567.7,-231.12"/>
</g>
<!-- Node35 -->
<g id="node35" class="node">
<title>Node35</title>
<g id="a_node35"><a xlink:href="OSMutex_8h.html" target="_top" xlink:title=" ">
<polygon fill="white" stroke="#666666" points="472,-288.5 360,-288.5 360,-269.5 472,-269.5 472,-288.5"/>
<text text-anchor="middle" x="416" y="-276.5" font-family="Helvetica,sans-Serif" font-size="10.00">dolphin/os/OSMutex.h</text>
</a>
</g>
</g>
<!-- Node17&#45;&gt;Node35 -->
<g id="edge53" class="edge">
<title>Node17&#45;&gt;Node35</title>
<path fill="none" stroke="#63b8ff" d="M1120.58,-337.63C1012.75,-335.05 724.27,-325.51 486,-294 479.93,-293.2 473.6,-292.18 467.34,-291.07"/>
<polygon fill="#63b8ff" stroke="#63b8ff" points="468.16,-287.66 457.68,-289.26 466.87,-294.54 468.16,-287.66"/>
</g>
<!-- Node36 -->
<g id="node36" class="node">
<title>Node36</title>
<g id="a_node36"><a xlink:href="OSReboot_8h.html" target="_top" xlink:title=" ">
<polygon fill="white" stroke="#666666" points="1180,-156.5 1064,-156.5 1064,-137.5 1180,-137.5 1180,-156.5"/>
<text text-anchor="middle" x="1122" y="-144.5" font-family="Helvetica,sans-Serif" font-size="10.00">dolphin/os/OSReboot.h</text>
</a>
</g>
</g>
<!-- Node17&#45;&gt;Node36 -->
<g id="edge55" class="edge">
<title>Node17&#45;&gt;Node36</title>
<path fill="none" stroke="#63b8ff" d="M1165.45,-329.62C1168.79,-306.92 1175.51,-245.23 1159,-198 1154.77,-185.89 1146.5,-174.26 1138.85,-165.27"/>
<polygon fill="#63b8ff" stroke="#63b8ff" points="1141.63,-163.12 1132.32,-158.06 1136.44,-167.82 1141.63,-163.12"/>
</g>
<!-- Node37 -->
<g id="node37" class="node">
<title>Node37</title>
<g id="a_node37"><a xlink:href="OSReset_8h.html" target="_top" xlink:title=" ">
<polygon fill="white" stroke="#666666" points="1309.5,-156.5 1198.5,-156.5 1198.5,-137.5 1309.5,-137.5 1309.5,-156.5"/>
<text text-anchor="middle" x="1254" y="-144.5" font-family="Helvetica,sans-Serif" font-size="10.00">dolphin/os/OSReset.h</text>
</a>
</g>
</g>
<!-- Node17&#45;&gt;Node37 -->
<g id="edge57" class="edge">
<title>Node17&#45;&gt;Node37</title>
<path fill="none" stroke="#63b8ff" d="M1168.22,-329.57C1182.01,-300.38 1225.95,-207.37 1245.02,-167"/>
<polygon fill="#63b8ff" stroke="#63b8ff" points="1248.14,-168.6 1249.25,-158.06 1241.81,-165.61 1248.14,-168.6"/>
</g>
<!-- Node38 -->
<g id="node38" class="node">
<title>Node38</title>
<g id="a_node38"><a xlink:href="OSResetSW_8h.html" target="_top" xlink:title=" ">
<polygon fill="white" stroke="#666666" points="1376.5,-222.5 1249.5,-222.5 1249.5,-203.5 1376.5,-203.5 1376.5,-222.5"/>
<text text-anchor="middle" x="1313" y="-210.5" font-family="Helvetica,sans-Serif" font-size="10.00">dolphin/os/OSResetSW.h</text>
</a>
</g>
</g>
<!-- Node17&#45;&gt;Node38 -->
<g id="edge59" class="edge">
<title>Node17&#45;&gt;Node38</title>
<path fill="none" stroke="#63b8ff" d="M1180.53,-329.64C1195.41,-321.31 1217.57,-308.07 1235,-294 1259.2,-274.47 1283.68,-248.03 1298.6,-230.99"/>
<polygon fill="#63b8ff" stroke="#63b8ff" points="1300.97,-233.6 1304.85,-223.74 1295.67,-229.03 1300.97,-233.6"/>
</g>
<!-- Node39 -->
<g id="node39" class="node">
<title>Node39</title>
<g id="a_node39"><a xlink:href="OSRtc_8h.html" target="_top" xlink:title=" ">
<polygon fill="white" stroke="#666666" points="1467.5,-156.5 1366.5,-156.5 1366.5,-137.5 1467.5,-137.5 1467.5,-156.5"/>
<text text-anchor="middle" x="1417" y="-144.5" font-family="Helvetica,sans-Serif" font-size="10.00">dolphin/os/OSRtc.h</text>
</a>
</g>
</g>
<!-- Node17&#45;&gt;Node39 -->
<g id="edge61" class="edge">
<title>Node17&#45;&gt;Node39</title>
<path fill="none" stroke="#63b8ff" d="M1185.53,-329.66C1206.15,-321.04 1238.03,-307.33 1265,-294 1268.41,-292.31 1382.48,-230.85 1385,-228 1400.15,-210.87 1408.62,-185.67 1412.98,-168.14"/>
<polygon fill="#63b8ff" stroke="#63b8ff" points="1416.39,-168.96 1415.14,-158.44 1409.55,-167.44 1416.39,-168.96"/>
</g>
<!-- Node40 -->
<g id="node40" class="node">
<title>Node40</title>
<g id="a_node40"><a xlink:href="OSSync_8h.html" target="_top" xlink:title=" ">
<polygon fill="white" stroke="#666666" points="1631.5,-288.5 1524.5,-288.5 1524.5,-269.5 1631.5,-269.5 1631.5,-288.5"/>
<text text-anchor="middle" x="1578" y="-276.5" font-family="Helvetica,sans-Serif" font-size="10.00">dolphin/os/OSSync.h</text>
</a>
</g>
</g>
<!-- Node17&#45;&gt;Node40 -->
<g id="edge63" class="edge">
<title>Node17&#45;&gt;Node40</title>
<path fill="none" stroke="#63b8ff" d="M1207.42,-334.3C1273.92,-327.58 1404.86,-313.18 1515,-294 1519.66,-293.19 1524.49,-292.27 1529.31,-291.29"/>
<polygon fill="#63b8ff" stroke="#63b8ff" points="1529.92,-294.74 1538.99,-289.25 1528.48,-287.89 1529.92,-294.74"/>
</g>
<!-- Node18&#45;&gt;Node5 -->
<g id="edge22" class="edge">
<title>Node18&#45;&gt;Node5</title>
<path fill="none" stroke="#63b8ff" d="M1485.71,-131.56C1442.11,-120.17 1382.05,-104.48 1341.27,-93.83"/>
<polygon fill="#63b8ff" stroke="#63b8ff" points="1342.34,-90.49 1331.78,-91.35 1340.57,-97.26 1342.34,-90.49"/>
</g>
<!-- Node19&#45;&gt;Node5 -->
<g id="edge24" class="edge">
<title>Node19&#45;&gt;Node5</title>
<path fill="none" stroke="#63b8ff" d="M1587.5,-203.24C1600.23,-187.28 1623.01,-153.16 1605,-132 1572.6,-93.94 1427.22,-84.76 1347.95,-82.61"/>
<polygon fill="#63b8ff" stroke="#63b8ff" points="1348.35,-79.12 1338.27,-82.37 1348.18,-86.11 1348.35,-79.12"/>
</g>
<!-- Node20&#45;&gt;Node21 -->
<g id="edge26" class="edge">
<title>Node20&#45;&gt;Node21</title>
<path fill="none" stroke="#63b8ff" d="M1770.18,-269.1C1756.61,-258.88 1734.09,-241.93 1717.61,-229.52"/>
<polygon fill="#63b8ff" stroke="#63b8ff" points="1720.02,-226.95 1709.93,-223.73 1715.81,-232.54 1720.02,-226.95"/>
</g>
<!-- Node20&#45;&gt;Node22 -->
<g id="edge28" class="edge">
<title>Node20&#45;&gt;Node22</title>
<path fill="none" stroke="#63b8ff" d="M1787.56,-269.1C1793.47,-259.64 1802.99,-244.42 1810.52,-232.37"/>
<polygon fill="#63b8ff" stroke="#63b8ff" points="1813.35,-234.44 1815.68,-224.11 1807.42,-230.73 1813.35,-234.44"/>
</g>
<!-- Node21&#45;&gt;Node5 -->
<g id="edge27" class="edge">
<title>Node21&#45;&gt;Node5</title>
<path fill="none" stroke="#63b8ff" d="M1691.79,-203.22C1681.2,-186.28 1655.42,-149.21 1623,-132 1576.34,-107.23 1427.9,-92.24 1348.04,-85.77"/>
<polygon fill="#63b8ff" stroke="#63b8ff" points="1348.52,-82.29 1338.28,-84.99 1347.97,-89.27 1348.52,-82.29"/>
</g>
<!-- Node22&#45;&gt;Node5 -->
<g id="edge29" class="edge">
<title>Node22&#45;&gt;Node5</title>
<path fill="none" stroke="#63b8ff" d="M1807.53,-203.1C1779.44,-186.26 1715.1,-149.87 1656,-132 1549.58,-99.83 1419.12,-88.26 1348.12,-84.17"/>
<polygon fill="#63b8ff" stroke="#63b8ff" points="1348.52,-80.69 1338.34,-83.64 1348.14,-87.68 1348.52,-80.69"/>
</g>
<!-- Node23&#45;&gt;Node5 -->
<g id="edge31" class="edge">
<title>Node23&#45;&gt;Node5</title>
<path fill="none" stroke="#63b8ff" d="M226.51,-203.03C267.11,-185.74 360.98,-148.09 444,-132 598.51,-102.05 1083.28,-87.38 1243.8,-83.25"/>
<polygon fill="#63b8ff" stroke="#63b8ff" points="1243.81,-86.75 1253.72,-83 1243.63,-79.75 1243.81,-86.75"/>
</g>
<!-- Node24&#45;&gt;Node5 -->
<g id="edge33" class="edge">
<title>Node24&#45;&gt;Node5</title>
<path fill="none" stroke="#63b8ff" d="M350.79,-203.03C386.04,-185.76 467.7,-148.13 541,-132 675.43,-102.41 1095.75,-87.76 1243.78,-83.42"/>
<polygon fill="#63b8ff" stroke="#63b8ff" points="1243.79,-86.92 1253.68,-83.13 1243.59,-79.92 1243.79,-86.92"/>
</g>
<!-- Node26&#45;&gt;Node5 -->
<g id="edge36" class="edge">
<title>Node26&#45;&gt;Node5</title>
<path fill="none" stroke="#63b8ff" d="M475.07,-203.26C499.62,-186.04 557.71,-147.99 613,-132 731.33,-97.78 1105.58,-86.2 1243.93,-83.03"/>
<polygon fill="#63b8ff" stroke="#63b8ff" points="1243.98,-86.53 1253.9,-82.8 1243.82,-79.53 1243.98,-86.53"/>
</g>
<!-- Node27&#45;&gt;Node5 -->
<g id="edge38" class="edge">
<title>Node27&#45;&gt;Node5</title>
<path fill="none" stroke="#63b8ff" d="M741.82,-137.39C755.66,-135.51 770.33,-133.6 784,-132 951.79,-112.3 1151.16,-94.41 1243.83,-86.42"/>
<polygon fill="#63b8ff" stroke="#63b8ff" points="1243.95,-89.92 1253.62,-85.58 1243.35,-82.94 1243.95,-89.92"/>
</g>
<!-- Node28&#45;&gt;Node5 -->
<g id="edge41" class="edge">
<title>Node28&#45;&gt;Node5</title>
<path fill="none" stroke="#63b8ff" d="M768.99,-269.14C784.29,-242.89 833.5,-165.3 898,-132 957.12,-101.48 1149.71,-88.66 1243.6,-84.13"/>
<polygon fill="#63b8ff" stroke="#63b8ff" points="1243.75,-87.62 1253.57,-83.66 1243.42,-80.63 1243.75,-87.62"/>
</g>
<!-- Node29&#45;&gt;Node5 -->
<g id="edge43" class="edge">
<title>Node29&#45;&gt;Node5</title>
<path fill="none" stroke="#63b8ff" d="M887.05,-269.11C884.85,-243.43 882.37,-168.68 923,-132 969.11,-90.37 1152.54,-83 1243.83,-81.96"/>
<polygon fill="#63b8ff" stroke="#63b8ff" points="1243.8,-85.46 1253.77,-81.87 1243.74,-78.46 1243.8,-85.46"/>
</g>
<!-- Node30&#45;&gt;Node5 -->
<g id="edge45" class="edge">
<title>Node30&#45;&gt;Node5</title>
<path fill="none" stroke="#63b8ff" d="M996.03,-203.06C962.96,-188.92 908.48,-160.13 933,-132 972.7,-86.46 1153.29,-80.97 1243.87,-81.17"/>
<polygon fill="#63b8ff" stroke="#63b8ff" points="1243.71,-84.67 1253.73,-81.22 1243.75,-77.67 1243.71,-84.67"/>
</g>
<!-- Node31&#45;&gt;Node5 -->
<g id="edge47" class="edge">
<title>Node31&#45;&gt;Node5</title>
<path fill="none" stroke="#63b8ff" d="M1032.37,-137.06C1039.87,-135.35 1047.68,-133.6 1055,-132 1119.93,-117.82 1194.92,-102.41 1243.78,-92.5"/>
<polygon fill="#63b8ff" stroke="#63b8ff" points="1244.42,-95.95 1253.52,-90.53 1243.03,-89.09 1244.42,-95.95"/>
</g>
<!-- Node32&#45;&gt;Node30 -->
<g id="edge49" class="edge">
<title>Node32&#45;&gt;Node30</title>
<path fill="none" stroke="#63b8ff" d="M1019,-269.1C1019,-260.12 1019,-245.95 1019,-234.22"/>
<polygon fill="#63b8ff" stroke="#63b8ff" points="1022.5,-234.34 1019,-224.34 1015.5,-234.34 1022.5,-234.34"/>
</g>
<!-- Node33&#45;&gt;Node34 -->
<g id="edge51" class="edge">
<title>Node33&#45;&gt;Node34</title>
<path fill="none" stroke="#63b8ff" d="M591.7,-269.1C592.4,-260.12 593.5,-245.95 594.42,-234.22"/>
<polygon fill="#63b8ff" stroke="#63b8ff" points="597.9,-234.57 595.19,-224.33 590.92,-234.03 597.9,-234.57"/>
</g>
<!-- Node34&#45;&gt;Node27 -->
<g id="edge52" class="edge">
<title>Node34&#45;&gt;Node27</title>
<path fill="none" stroke="#63b8ff" d="M607.96,-203.1C621.69,-192.88 644.48,-175.93 661.15,-163.52"/>
<polygon fill="#63b8ff" stroke="#63b8ff" points="663,-166.5 668.93,-157.73 658.82,-160.89 663,-166.5"/>
</g>
<!-- Node35&#45;&gt;Node34 -->
<g id="edge54" class="edge">
<title>Node35&#45;&gt;Node34</title>
<path fill="none" stroke="#63b8ff" d="M441.03,-269.1C471.97,-258.1 524.86,-239.3 560.12,-226.76"/>
<polygon fill="#63b8ff" stroke="#63b8ff" points="561.22,-230.08 569.47,-223.43 558.87,-223.49 561.22,-230.08"/>
</g>
<!-- Node36&#45;&gt;Node5 -->
<g id="edge56" class="edge">
<title>Node36&#45;&gt;Node5</title>
<path fill="none" stroke="#63b8ff" d="M1146.19,-137.1C1176.11,-126.1 1227.23,-107.3 1261.31,-94.76"/>
<polygon fill="#63b8ff" stroke="#63b8ff" points="1262.13,-98.19 1270.31,-91.45 1259.72,-91.62 1262.13,-98.19"/>
</g>
<!-- Node37&#45;&gt;Node5 -->
<g id="edge58" class="edge">
<title>Node37&#45;&gt;Node5</title>
<path fill="none" stroke="#63b8ff" d="M1259.84,-137.1C1266.05,-127.64 1276.03,-112.42 1283.94,-100.37"/>
<polygon fill="#63b8ff" stroke="#63b8ff" points="1286.82,-102.37 1289.38,-92.09 1280.97,-98.53 1286.82,-102.37"/>
</g>
<!-- Node38&#45;&gt;Node5 -->
<g id="edge60" class="edge">
<title>Node38&#45;&gt;Node5</title>
<path fill="none" stroke="#63b8ff" d="M1315.11,-203.01C1318.27,-188.08 1323.33,-157.33 1318,-132 1315.75,-121.3 1311.06,-110.09 1306.59,-101.01"/>
<polygon fill="#63b8ff" stroke="#63b8ff" points="1309.7,-99.4 1301.95,-92.17 1303.5,-102.65 1309.7,-99.4"/>
</g>
<!-- Node39&#45;&gt;Node5 -->
<g id="edge62" class="edge">
<title>Node39&#45;&gt;Node5</title>
<path fill="none" stroke="#63b8ff" d="M1400.18,-137.1C1380.13,-126.5 1346.38,-108.65 1322.74,-96.15"/>
<polygon fill="#63b8ff" stroke="#63b8ff" points="1324.5,-93.11 1314.02,-91.53 1321.22,-99.3 1324.5,-93.11"/>
</g>
<!-- Node42 -->
<g id="node42" class="node">
<title>Node42</title>
<g id="a_node42"><a xlink:href="extras_8h.html" target="_top" xlink:title=" ">
<polygon fill="white" stroke="#666666" points="290,-96 154,-96 154,-66 290,-66 290,-96"/>
<text text-anchor="start" x="162" y="-84" font-family="Helvetica,sans-Serif" font-size="10.00">MSL_C/MSL_Common/Src</text>
<text text-anchor="middle" x="222" y="-73" font-family="Helvetica,sans-Serif" font-size="10.00">/extras.h</text>
</a>
</g>
</g>
<!-- Node41&#45;&gt;Node42 -->
<g id="edge67" class="edge">
<title>Node41&#45;&gt;Node42</title>
<path fill="none" stroke="#63b8ff" d="M155.71,-137.1C166.08,-128.48 182.22,-115.07 195.97,-103.63"/>
<polygon fill="#63b8ff" stroke="#63b8ff" points="197.96,-106.53 203.42,-97.45 193.49,-101.15 197.96,-106.53"/>
</g>
<!-- Node43 -->
<g id="node43" class="node">
<title>Node43</title>
<g id="a_node43"><a xlink:href="mem_8h.html" target="_top" xlink:title=" ">
<polygon fill="white" stroke="#666666" points="444,-96 308,-96 308,-66 444,-66 444,-96"/>
<text text-anchor="start" x="316" y="-84" font-family="Helvetica,sans-Serif" font-size="10.00">MSL_C/MSL_Common/Src</text>
<text text-anchor="middle" x="376" y="-73" font-family="Helvetica,sans-Serif" font-size="10.00">/mem.h</text>
</a>
</g>
</g>
<!-- Node41&#45;&gt;Node43 -->
<g id="edge68" class="edge">
<title>Node41&#45;&gt;Node43</title>
<path fill="none" stroke="#63b8ff" d="M177.12,-137.1C212.09,-127.41 268.9,-111.67 312.86,-99.49"/>
<polygon fill="#63b8ff" stroke="#63b8ff" points="313.58,-102.92 322.29,-96.88 311.71,-96.18 313.58,-102.92"/>
</g>
<!-- Node44 -->
<g id="node44" class="node">
<title>Node44</title>
<g id="a_node44"><a xlink:href="MSL__Common_2Src_2string_8h.html" target="_top" xlink:title=" ">
<polygon fill="white" stroke="#666666" points="136,-96 0,-96 0,-66 136,-66 136,-96"/>
<text text-anchor="start" x="8" y="-84" font-family="Helvetica,sans-Serif" font-size="10.00">MSL_C/MSL_Common/Src</text>
<text text-anchor="middle" x="68" y="-73" font-family="Helvetica,sans-Serif" font-size="10.00">/string.h</text>
</a>
</g>
</g>
<!-- Node41&#45;&gt;Node44 -->
<g id="edge70" class="edge">
<title>Node41&#45;&gt;Node44</title>
<path fill="none" stroke="#63b8ff" d="M134.29,-137.1C123.92,-128.48 107.78,-115.07 94.03,-103.63"/>
<polygon fill="#63b8ff" stroke="#63b8ff" points="96.51,-101.15 86.58,-97.45 92.04,-106.53 96.51,-101.15"/>
</g>
<!-- Node43&#45;&gt;Node6 -->
<g id="edge69" class="edge">
<title>Node43&#45;&gt;Node6</title>
<path fill="none" stroke="#63b8ff" d="M376,-65.8C376,-58.67 376,-49.82 376,-41.56"/>
<polygon fill="#63b8ff" stroke="#63b8ff" points="379.5,-41.68 376,-31.68 372.5,-41.68 379.5,-41.68"/>
</g>
<!-- Node44&#45;&gt;Node6 -->
<g id="edge71" class="edge">
<title>Node44&#45;&gt;Node6</title>
<path fill="none" stroke="#63b8ff" d="M136.36,-65.8C183.72,-55.95 246.95,-42.82 296.56,-32.51"/>
<polygon fill="#63b8ff" stroke="#63b8ff" points="297.01,-35.99 306.09,-30.53 295.59,-29.13 297.01,-35.99"/>
</g>
<!-- Node45&#45;&gt;Node5 -->
<g id="edge73" class="edge">
<title>Node45&#45;&gt;Node5</title>
<path fill="none" stroke="#63b8ff" d="M1942,-384.67C1942,-365.58 1942,-319.02 1942,-280 1942,-280 1942,-280 1942,-212 1942,-159.14 1902.4,-153.24 1854,-132 1764.14,-92.56 1469.27,-84.23 1348.4,-82.47"/>
<polygon fill="#63b8ff" stroke="#63b8ff" points="1348.47,-78.97 1338.43,-82.34 1348.38,-85.97 1348.47,-78.97"/>
</g>
</g>
</svg>
