<?xml version="1.0" encoding="UTF-8" standalone="no"?>
<!DOCTYPE svg PUBLIC "-//W3C//DTD SVG 1.1//EN"
 "http://www.w3.org/Graphics/SVG/1.1/DTD/svg11.dtd">
<!-- Generated by graphviz version 7.0.5 (20221223.1930)
 -->
<!-- Title: libs/JSystem/JAudio2/JAIStream.cpp Pages: 1 -->
<svg width="2497pt" height="500pt"
 viewBox="0.00 0.00 2497.00 500.00" xmlns="http://www.w3.org/2000/svg" xmlns:xlink="http://www.w3.org/1999/xlink">
<g id="graph0" class="graph" transform="scale(1 1) rotate(0) translate(4 496)">
<title>libs/JSystem/JAudio2/JAIStream.cpp</title>
<!-- Node1 -->
<g id="node1" class="node">
<title>Node1</title>
<g id="a_node1"><a xlink:title=" ">
<polygon fill="#999999" stroke="#666666" points="1443.5,-492 1332.5,-492 1332.5,-462 1443.5,-462 1443.5,-492"/>
<text text-anchor="start" x="1340.5" y="-480" font-family="Helvetica,sans-Serif" font-size="10.00">libs/JSystem/JAudio2</text>
<text text-anchor="middle" x="1388" y="-469" font-family="Helvetica,sans-Serif" font-size="10.00">/JAIStream.cpp</text>
</a>
</g>
</g>
<!-- Node2 -->
<g id="node2" class="node">
<title>Node2</title>
<g id="a_node2"><a xlink:href="JAIStream_8h.html" target="_top" xlink:title=" ">
<polygon fill="white" stroke="#666666" points="496,-409.5 346,-409.5 346,-390.5 496,-390.5 496,-409.5"/>
<text text-anchor="middle" x="421" y="-397.5" font-family="Helvetica,sans-Serif" font-size="10.00">JSystem/JAudio2/JAIStream.h</text>
</a>
</g>
</g>
<!-- Node1&#45;&gt;Node2 -->
<g id="edge1" class="edge">
<title>Node1&#45;&gt;Node2</title>
<path fill="none" stroke="#63b8ff" d="M1332.03,-474.53C1163.9,-469.86 665.05,-453.95 505,-426 488.76,-423.16 471.21,-418.25 456.38,-413.52"/>
<polygon fill="#63b8ff" stroke="#63b8ff" points="457.66,-410.26 447.07,-410.46 455.47,-416.91 457.66,-410.26"/>
</g>
<!-- Node21 -->
<g id="node21" class="node">
<title>Node21</title>
<g id="a_node21"><a xlink:href="dol2asm_8h.html" target="_top" xlink:title=" ">
<polygon fill="white" stroke="#666666" points="575.5,-409.5 514.5,-409.5 514.5,-390.5 575.5,-390.5 575.5,-409.5"/>
<text text-anchor="middle" x="545" y="-397.5" font-family="Helvetica,sans-Serif" font-size="10.00">dol2asm.h</text>
</a>
</g>
</g>
<!-- Node1&#45;&gt;Node21 -->
<g id="edge25" class="edge">
<title>Node1&#45;&gt;Node21</title>
<path fill="none" stroke="#63b8ff" d="M1332.22,-476.07C1173.93,-475.73 724.41,-470.72 585,-426 578.11,-423.79 571.2,-420.12 565.12,-416.27"/>
<polygon fill="#63b8ff" stroke="#63b8ff" points="567.27,-413.5 557.05,-410.7 563.29,-419.26 567.27,-413.5"/>
</g>
<!-- Node22 -->
<g id="node22" class="node">
<title>Node22</title>
<g id="a_node22"><a xlink:title=" ">
<polygon fill="#e0e0e0" stroke="#999999" points="752,-426 594,-426 594,-374 752,-374 752,-426"/>
<text text-anchor="start" x="602" y="-414" font-family="Helvetica,sans-Serif" font-size="10.00">asm/JSystem/JAudio2</text>
<text text-anchor="start" x="602" y="-403" font-family="Helvetica,sans-Serif" font-size="10.00">/JAIStream/JAIStream</text>
<text text-anchor="start" x="602" y="-392" font-family="Helvetica,sans-Serif" font-size="10.00">_JASAramStreamCallback</text>
<text text-anchor="middle" x="673" y="-381" font-family="Helvetica,sans-Serif" font-size="10.00">___FUlP13JASAramStreamPv.s</text>
</a>
</g>
</g>
<!-- Node1&#45;&gt;Node22 -->
<g id="edge26" class="edge">
<title>Node1&#45;&gt;Node22</title>
<path fill="none" stroke="#63b8ff" d="M1332.17,-475.23C1223.94,-472.94 978.08,-463.87 763.62,-426.32"/>
<polygon fill="#63b8ff" stroke="#63b8ff" points="764.41,-422.9 753.95,-424.6 763.18,-429.79 764.41,-422.9"/>
</g>
<!-- Node23 -->
<g id="node23" class="node">
<title>Node23</title>
<g id="a_node23"><a xlink:title=" ">
<polygon fill="#e0e0e0" stroke="#999999" points="914,-415 770,-415 770,-385 914,-385 914,-415"/>
<text text-anchor="start" x="778" y="-403" font-family="Helvetica,sans-Serif" font-size="10.00">asm/JSystem/JAudio2</text>
<text text-anchor="middle" x="842" y="-392" font-family="Helvetica,sans-Serif" font-size="10.00">/JAIStream/func_802A3104.s</text>
</a>
</g>
</g>
<!-- Node1&#45;&gt;Node23 -->
<g id="edge27" class="edge">
<title>Node1&#45;&gt;Node23</title>
<path fill="none" stroke="#63b8ff" d="M1332.35,-473.48C1244.57,-468.72 1068.93,-456.07 923,-426 913.57,-424.06 903.67,-421.48 894.16,-418.71"/>
<polygon fill="#63b8ff" stroke="#63b8ff" points="895.26,-415.38 884.67,-415.84 893.23,-422.08 895.26,-415.38"/>
</g>
<!-- Node24 -->
<g id="node24" class="node">
<title>Node24</title>
<g id="a_node24"><a xlink:title=" ">
<polygon fill="#e0e0e0" stroke="#999999" points="1078,-415 932,-415 932,-385 1078,-385 1078,-415"/>
<text text-anchor="start" x="940" y="-403" font-family="Helvetica,sans-Serif" font-size="10.00">asm/JSystem/JAudio2</text>
<text text-anchor="middle" x="1005" y="-392" font-family="Helvetica,sans-Serif" font-size="10.00">/JAIStream/func_802A319C.s</text>
</a>
</g>
</g>
<!-- Node1&#45;&gt;Node24 -->
<g id="edge28" class="edge">
<title>Node1&#45;&gt;Node24</title>
<path fill="none" stroke="#63b8ff" d="M1332.01,-468.84C1271.43,-460.59 1172.21,-445.62 1088,-426 1078.83,-423.87 1069.2,-421.28 1059.86,-418.6"/>
<polygon fill="#63b8ff" stroke="#63b8ff" points="1061.12,-415.32 1050.54,-415.85 1059.14,-422.03 1061.12,-415.32"/>
</g>
<!-- Node25 -->
<g id="node25" class="node">
<title>Node25</title>
<g id="a_node25"><a xlink:title=" ">
<polygon fill="#e0e0e0" stroke="#999999" points="1235.5,-420.5 1096.5,-420.5 1096.5,-379.5 1235.5,-379.5 1235.5,-420.5"/>
<text text-anchor="start" x="1104.5" y="-408.5" font-family="Helvetica,sans-Serif" font-size="10.00">asm/JSystem/JAudio2</text>
<text text-anchor="start" x="1104.5" y="-397.5" font-family="Helvetica,sans-Serif" font-size="10.00">/JAIStream/prepare_prepare</text>
<text text-anchor="middle" x="1166" y="-386.5" font-family="Helvetica,sans-Serif" font-size="10.00">Stream___9JAIStreamFv.s</text>
</a>
</g>
</g>
<!-- Node1&#45;&gt;Node25 -->
<g id="edge29" class="edge">
<title>Node1&#45;&gt;Node25</title>
<path fill="none" stroke="#63b8ff" d="M1345.2,-461.54C1314.25,-451.09 1271.76,-436.73 1235.92,-424.62"/>
<polygon fill="#63b8ff" stroke="#63b8ff" points="1237.06,-421.31 1226.47,-421.43 1234.82,-427.95 1237.06,-421.31"/>
</g>
<!-- Node26 -->
<g id="node26" class="node">
<title>Node26</title>
<g id="a_node26"><a xlink:title=" ">
<polygon fill="#e0e0e0" stroke="#999999" points="1368.5,-420.5 1253.5,-420.5 1253.5,-379.5 1368.5,-379.5 1368.5,-420.5"/>
<text text-anchor="start" x="1261.5" y="-408.5" font-family="Helvetica,sans-Serif" font-size="10.00">asm/JSystem/JAudio2</text>
<text text-anchor="start" x="1261.5" y="-397.5" font-family="Helvetica,sans-Serif" font-size="10.00">/JAIStream/prepare_</text>
<text text-anchor="middle" x="1311" y="-386.5" font-family="Helvetica,sans-Serif" font-size="10.00">__9JAIStreamFv.s</text>
</a>
</g>
</g>
<!-- Node1&#45;&gt;Node26 -->
<g id="edge30" class="edge">
<title>Node1&#45;&gt;Node26</title>
<path fill="none" stroke="#63b8ff" d="M1373.15,-461.54C1363.59,-452.22 1350.84,-439.81 1339.38,-428.65"/>
<polygon fill="#63b8ff" stroke="#63b8ff" points="1342.02,-426.33 1332.42,-421.86 1337.14,-431.34 1342.02,-426.33"/>
</g>
<!-- Node27 -->
<g id="node27" class="node">
<title>Node27</title>
<g id="a_node27"><a xlink:title=" ">
<polygon fill="#e0e0e0" stroke="#999999" points="1545,-420.5 1387,-420.5 1387,-379.5 1545,-379.5 1545,-420.5"/>
<text text-anchor="start" x="1395" y="-408.5" font-family="Helvetica,sans-Serif" font-size="10.00">asm/JSystem/JAudio2</text>
<text text-anchor="start" x="1395" y="-397.5" font-family="Helvetica,sans-Serif" font-size="10.00">/JAIStream/prepare_startStream</text>
<text text-anchor="middle" x="1466" y="-386.5" font-family="Helvetica,sans-Serif" font-size="10.00">___9JAIStreamFv.s</text>
</a>
</g>
</g>
<!-- Node1&#45;&gt;Node27 -->
<g id="edge31" class="edge">
<title>Node1&#45;&gt;Node27</title>
<path fill="none" stroke="#63b8ff" d="M1403.04,-461.54C1412.73,-452.22 1425.64,-439.81 1437.25,-428.65"/>
<polygon fill="#63b8ff" stroke="#63b8ff" points="1439.53,-431.31 1444.31,-421.85 1434.68,-426.26 1439.53,-431.31"/>
</g>
<!-- Node28 -->
<g id="node28" class="node">
<title>Node28</title>
<g id="a_node28"><a xlink:title=" ">
<polygon fill="#e0e0e0" stroke="#999999" points="1760.5,-426 1563.5,-426 1563.5,-374 1760.5,-374 1760.5,-426"/>
<text text-anchor="start" x="1571.5" y="-414" font-family="Helvetica,sans-Serif" font-size="10.00">asm/JSystem/JAudio2</text>
<text text-anchor="start" x="1571.5" y="-403" font-family="Helvetica,sans-Serif" font-size="10.00">/JAIStream/JAIStreamMgr</text>
<text text-anchor="start" x="1571.5" y="-392" font-family="Helvetica,sans-Serif" font-size="10.00">_mixOut___9JAIStreamFRC14JASSound</text>
<text text-anchor="middle" x="1662" y="-381" font-family="Helvetica,sans-Serif" font-size="10.00">Params16JAISoundActivity.s</text>
</a>
</g>
</g>
<!-- Node1&#45;&gt;Node28 -->
<g id="edge32" class="edge">
<title>Node1&#45;&gt;Node28</title>
<path fill="none" stroke="#63b8ff" d="M1440.83,-461.54C1474.09,-452.43 1518.16,-440.37 1558.2,-429.41"/>
<polygon fill="#63b8ff" stroke="#63b8ff" points="1558.92,-432.84 1567.64,-426.83 1557.08,-426.09 1558.92,-432.84"/>
</g>
<!-- Node29 -->
<g id="node29" class="node">
<title>Node29</title>
<g id="a_node29"><a xlink:title=" ">
<polygon fill="#e0e0e0" stroke="#999999" points="1913,-420.5 1779,-420.5 1779,-379.5 1913,-379.5 1913,-420.5"/>
<text text-anchor="start" x="1787" y="-408.5" font-family="Helvetica,sans-Serif" font-size="10.00">asm/JSystem/JAudio2</text>
<text text-anchor="start" x="1787" y="-397.5" font-family="Helvetica,sans-Serif" font-size="10.00">/JAIStream/die_JAIStream</text>
<text text-anchor="middle" x="1846" y="-386.5" font-family="Helvetica,sans-Serif" font-size="10.00">___9JAIStreamFv.s</text>
</a>
</g>
</g>
<!-- Node1&#45;&gt;Node29 -->
<g id="edge33" class="edge">
<title>Node1&#45;&gt;Node29</title>
<path fill="none" stroke="#63b8ff" d="M1443.93,-471.98C1518.88,-465.86 1655.71,-452.03 1770,-426 1772.78,-425.37 1775.61,-424.67 1778.46,-423.93"/>
<polygon fill="#63b8ff" stroke="#63b8ff" points="1779.31,-427.33 1788.01,-421.29 1777.44,-420.58 1779.31,-427.33"/>
</g>
<!-- Node30 -->
<g id="node30" class="node">
<title>Node30</title>
<g id="a_node30"><a xlink:title=" ">
<polygon fill="#e0e0e0" stroke="#999999" points="2064.5,-420.5 1931.5,-420.5 1931.5,-379.5 2064.5,-379.5 2064.5,-420.5"/>
<text text-anchor="start" x="1939.5" y="-408.5" font-family="Helvetica,sans-Serif" font-size="10.00">asm/JSystem/JAudio2</text>
<text text-anchor="start" x="1939.5" y="-397.5" font-family="Helvetica,sans-Serif" font-size="10.00">/JAIStream/JAISound</text>
<text text-anchor="middle" x="1998" y="-386.5" font-family="Helvetica,sans-Serif" font-size="10.00">_tryDie___9JAIStreamFv.s</text>
</a>
</g>
</g>
<!-- Node1&#45;&gt;Node30 -->
<g id="edge34" class="edge">
<title>Node1&#45;&gt;Node30</title>
<path fill="none" stroke="#63b8ff" d="M1443.96,-474.88C1541.87,-472 1750.18,-461.83 1922,-426 1924.96,-425.38 1927.96,-424.69 1930.98,-423.94"/>
<polygon fill="#63b8ff" stroke="#63b8ff" points="1931.73,-427.36 1940.48,-421.39 1929.91,-420.6 1931.73,-427.36"/>
</g>
<!-- Node31 -->
<g id="node31" class="node">
<title>Node31</title>
<g id="a_node31"><a xlink:title=" ">
<polygon fill="#e0e0e0" stroke="#999999" points="2215,-420.5 2083,-420.5 2083,-379.5 2215,-379.5 2215,-420.5"/>
<text text-anchor="start" x="2091" y="-408.5" font-family="Helvetica,sans-Serif" font-size="10.00">asm/JSystem/JAudio2</text>
<text text-anchor="start" x="2091" y="-397.5" font-family="Helvetica,sans-Serif" font-size="10.00">/JAIStream/JAIStreamMgr</text>
<text text-anchor="middle" x="2149" y="-386.5" font-family="Helvetica,sans-Serif" font-size="10.00">_calc___9JAIStreamFv.s</text>
</a>
</g>
</g>
<!-- Node1&#45;&gt;Node31 -->
<g id="edge35" class="edge">
<title>Node1&#45;&gt;Node31</title>
<path fill="none" stroke="#63b8ff" d="M1443.76,-476.6C1561.44,-476.86 1843.32,-472.1 2074,-426 2077.15,-425.37 2080.36,-424.65 2083.58,-423.85"/>
<polygon fill="#63b8ff" stroke="#63b8ff" points="2084.33,-427.27 2093.08,-421.29 2082.51,-420.51 2084.33,-427.27"/>
</g>
<!-- Node32 -->
<g id="node32" class="node">
<title>Node32</title>
<g id="a_node32"><a xlink:title=" ">
<polygon fill="#e0e0e0" stroke="#999999" points="2348.5,-420.5 2233.5,-420.5 2233.5,-379.5 2348.5,-379.5 2348.5,-420.5"/>
<text text-anchor="start" x="2241.5" y="-408.5" font-family="Helvetica,sans-Serif" font-size="10.00">asm/JSystem/JAudio2</text>
<text text-anchor="start" x="2241.5" y="-397.5" font-family="Helvetica,sans-Serif" font-size="10.00">/JAIStream/getChild</text>
<text text-anchor="middle" x="2291" y="-386.5" font-family="Helvetica,sans-Serif" font-size="10.00">__9JAIStreamFi.s</text>
</a>
</g>
</g>
<!-- Node1&#45;&gt;Node32 -->
<g id="edge36" class="edge">
<title>Node1&#45;&gt;Node32</title>
<path fill="none" stroke="#63b8ff" d="M1443.94,-474.82C1606.1,-471.05 2074.37,-457.65 2224,-426 2226.61,-425.45 2229.26,-424.81 2231.92,-424.11"/>
<polygon fill="#63b8ff" stroke="#63b8ff" points="2232.78,-427.5 2241.38,-421.33 2230.8,-420.79 2232.78,-427.5"/>
</g>
<!-- Node33 -->
<g id="node33" class="node">
<title>Node33</title>
<g id="a_node33"><a xlink:title=" ">
<polygon fill="#e0e0e0" stroke="#999999" points="2489,-420.5 2367,-420.5 2367,-379.5 2489,-379.5 2489,-420.5"/>
<text text-anchor="start" x="2375" y="-408.5" font-family="Helvetica,sans-Serif" font-size="10.00">asm/JSystem/JAudio2</text>
<text text-anchor="start" x="2375" y="-397.5" font-family="Helvetica,sans-Serif" font-size="10.00">/JAIStream/releaseChild</text>
<text text-anchor="middle" x="2428" y="-386.5" font-family="Helvetica,sans-Serif" font-size="10.00">__9JAIStreamFi.s</text>
</a>
</g>
</g>
<!-- Node1&#45;&gt;Node33 -->
<g id="edge37" class="edge">
<title>Node1&#45;&gt;Node33</title>
<path fill="none" stroke="#63b8ff" d="M1443.79,-475.25C1622.77,-472.53 2181.17,-461.34 2358,-426 2360.82,-425.44 2363.69,-424.78 2366.56,-424.05"/>
<polygon fill="#63b8ff" stroke="#63b8ff" points="2367.51,-427.42 2376.19,-421.35 2365.61,-420.68 2367.51,-427.42"/>
</g>
<!-- Node3 -->
<g id="node3" class="node">
<title>Node3</title>
<g id="a_node3"><a xlink:href="JAISound_8h.html" target="_top" xlink:title=" ">
<polygon fill="white" stroke="#666666" points="314,-338 168,-338 168,-319 314,-319 314,-338"/>
<text text-anchor="middle" x="241" y="-326" font-family="Helvetica,sans-Serif" font-size="10.00">JSystem/JAudio2/JAISound.h</text>
</a>
</g>
</g>
<!-- Node2&#45;&gt;Node3 -->
<g id="edge2" class="edge">
<title>Node2&#45;&gt;Node3</title>
<path fill="none" stroke="#63b8ff" d="M397.84,-390.06C366.51,-377.96 310.45,-356.32 274.53,-342.44"/>
<polygon fill="#63b8ff" stroke="#63b8ff" points="276.08,-339.29 265.49,-338.95 273.55,-345.82 276.08,-339.29"/>
</g>
<!-- Node16 -->
<g id="node16" class="node">
<title>Node16</title>
<g id="a_node16"><a xlink:href="JASAramStream_8h.html" target="_top" xlink:title=" ">
<polygon fill="white" stroke="#666666" points="509.5,-338 332.5,-338 332.5,-319 509.5,-319 509.5,-338"/>
<text text-anchor="middle" x="421" y="-326" font-family="Helvetica,sans-Serif" font-size="10.00">JSystem/JAudio2/JASAramStream.h</text>
</a>
</g>
</g>
<!-- Node2&#45;&gt;Node16 -->
<g id="edge18" class="edge">
<title>Node2&#45;&gt;Node16</title>
<path fill="none" stroke="#63b8ff" d="M421,-390.2C421,-380.12 421,-363.29 421,-349.9"/>
<polygon fill="#63b8ff" stroke="#63b8ff" points="424.5,-349.96 421,-339.96 417.5,-349.96 424.5,-349.96"/>
</g>
<!-- Node20 -->
<g id="node20" class="node">
<title>Node20</title>
<g id="a_node20"><a xlink:href="JSUList_8h.html" target="_top" xlink:title=" ">
<polygon fill="white" stroke="#666666" points="670.5,-338 527.5,-338 527.5,-319 670.5,-319 670.5,-338"/>
<text text-anchor="middle" x="599" y="-326" font-family="Helvetica,sans-Serif" font-size="10.00">JSystem/JSupport/JSUList.h</text>
</a>
</g>
</g>
<!-- Node2&#45;&gt;Node20 -->
<g id="edge23" class="edge">
<title>Node2&#45;&gt;Node20</title>
<path fill="none" stroke="#63b8ff" d="M443.91,-390.06C474.88,-377.96 530.32,-356.32 565.85,-342.44"/>
<polygon fill="#63b8ff" stroke="#63b8ff" points="566.73,-345.86 574.77,-338.96 564.18,-339.34 566.73,-345.86"/>
</g>
<!-- Node4 -->
<g id="node4" class="node">
<title>Node4</title>
<g id="a_node4"><a xlink:href="JAISoundParams_8h.html" target="_top" xlink:title=" ">
<polygon fill="white" stroke="#666666" points="411.5,-283 272.5,-283 272.5,-253 411.5,-253 411.5,-283"/>
<text text-anchor="start" x="280.5" y="-271" font-family="Helvetica,sans-Serif" font-size="10.00">JSystem/JAudio2/JAISound</text>
<text text-anchor="middle" x="342" y="-260" font-family="Helvetica,sans-Serif" font-size="10.00">Params.h</text>
</a>
</g>
</g>
<!-- Node3&#45;&gt;Node4 -->
<g id="edge3" class="edge">
<title>Node3&#45;&gt;Node4</title>
<path fill="none" stroke="#63b8ff" d="M256.34,-318.62C269.81,-310.81 289.91,-299.17 307.25,-289.13"/>
<polygon fill="#63b8ff" stroke="#63b8ff" points="308.86,-292.24 315.76,-284.2 305.35,-286.18 308.86,-292.24"/>
</g>
<!-- Node8 -->
<g id="node8" class="node">
<title>Node8</title>
<g id="a_node8"><a xlink:href="JAIAudible_8h.html" target="_top" xlink:title=" ">
<polygon fill="white" stroke="#666666" points="212.5,-277.5 61.5,-277.5 61.5,-258.5 212.5,-258.5 212.5,-277.5"/>
<text text-anchor="middle" x="137" y="-265.5" font-family="Helvetica,sans-Serif" font-size="10.00">JSystem/JAudio2/JAIAudible.h</text>
</a>
</g>
</g>
<!-- Node3&#45;&gt;Node8 -->
<g id="edge7" class="edge">
<title>Node3&#45;&gt;Node8</title>
<path fill="none" stroke="#63b8ff" d="M225.2,-318.62C208.64,-309.29 182.33,-294.5 162.75,-283.49"/>
<polygon fill="#63b8ff" stroke="#63b8ff" points="164.69,-280.56 154.26,-278.71 161.26,-286.66 164.69,-280.56"/>
</g>
<!-- Node15 -->
<g id="node15" class="node">
<title>Node15</title>
<g id="a_node15"><a xlink:href="global_8h.html" target="_top" xlink:title=" ">
<polygon fill="white" stroke="#666666" points="263,-211.5 213,-211.5 213,-192.5 263,-192.5 263,-211.5"/>
<text text-anchor="middle" x="238" y="-199.5" font-family="Helvetica,sans-Serif" font-size="10.00">global.h</text>
</a>
</g>
</g>
<!-- Node3&#45;&gt;Node15 -->
<g id="edge16" class="edge">
<title>Node3&#45;&gt;Node15</title>
<path fill="none" stroke="#63b8ff" d="M240.78,-318.55C240.31,-298.72 239.15,-250.68 238.49,-223.19"/>
<polygon fill="#63b8ff" stroke="#63b8ff" points="241.99,-223.3 238.25,-213.39 234.99,-223.47 241.99,-223.3"/>
</g>
<!-- Node5 -->
<g id="node5" class="node">
<title>Node5</title>
<g id="a_node5"><a xlink:href="JASSoundParams_8h.html" target="_top" xlink:title=" ">
<polygon fill="white" stroke="#666666" points="424.5,-217 281.5,-217 281.5,-187 424.5,-187 424.5,-217"/>
<text text-anchor="start" x="289.5" y="-205" font-family="Helvetica,sans-Serif" font-size="10.00">JSystem/JAudio2/JASSound</text>
<text text-anchor="middle" x="353" y="-194" font-family="Helvetica,sans-Serif" font-size="10.00">Params.h</text>
</a>
</g>
</g>
<!-- Node4&#45;&gt;Node5 -->
<g id="edge4" class="edge">
<title>Node4&#45;&gt;Node5</title>
<path fill="none" stroke="#63b8ff" d="M344.44,-252.8C345.68,-245.59 347.22,-236.61 348.66,-228.27"/>
<polygon fill="#63b8ff" stroke="#63b8ff" points="352.06,-229.1 350.31,-218.66 345.17,-227.92 352.06,-229.1"/>
</g>
<!-- Node6 -->
<g id="node6" class="node">
<title>Node6</title>
<g id="a_node6"><a xlink:href="types_8h.html" target="_top" xlink:title=" ">
<polygon fill="white" stroke="#666666" points="394.5,-90.5 313.5,-90.5 313.5,-71.5 394.5,-71.5 394.5,-90.5"/>
<text text-anchor="middle" x="354" y="-78.5" font-family="Helvetica,sans-Serif" font-size="10.00">dolphin/types.h</text>
</a>
</g>
</g>
<!-- Node5&#45;&gt;Node6 -->
<g id="edge5" class="edge">
<title>Node5&#45;&gt;Node6</title>
<path fill="none" stroke="#63b8ff" d="M353.12,-186.88C353.3,-165.8 353.63,-126 353.83,-101.95"/>
<polygon fill="#63b8ff" stroke="#63b8ff" points="357.33,-102.25 353.91,-92.22 350.33,-102.19 357.33,-102.25"/>
</g>
<!-- Node7 -->
<g id="node7" class="node">
<title>Node7</title>
<g id="a_node7"><a xlink:href="stddef_8h.html" target="_top" xlink:title=" ">
<polygon fill="white" stroke="#666666" points="422,-30 286,-30 286,0 422,0 422,-30"/>
<text text-anchor="start" x="294" y="-18" font-family="Helvetica,sans-Serif" font-size="10.00">MSL_C/MSL_Common/Src</text>
<text text-anchor="middle" x="354" y="-7" font-family="Helvetica,sans-Serif" font-size="10.00">/stddef.h</text>
</a>
</g>
</g>
<!-- Node6&#45;&gt;Node7 -->
<g id="edge6" class="edge">
<title>Node6&#45;&gt;Node7</title>
<path fill="none" stroke="#63b8ff" d="M354,-71.1C354,-63.41 354,-51.92 354,-41.42"/>
<polygon fill="#63b8ff" stroke="#63b8ff" points="357.5,-41.75 354,-31.75 350.5,-41.75 357.5,-41.75"/>
</g>
<!-- Node9 -->
<g id="node9" class="node">
<title>Node9</title>
<g id="a_node9"><a xlink:href="JGeometry_8h.html" target="_top" xlink:title=" ">
<polygon fill="white" stroke="#666666" points="193.5,-211.5 80.5,-211.5 80.5,-192.5 193.5,-192.5 193.5,-211.5"/>
<text text-anchor="middle" x="137" y="-199.5" font-family="Helvetica,sans-Serif" font-size="10.00">JSystem/JGeometry.h</text>
</a>
</g>
</g>
<!-- Node8&#45;&gt;Node9 -->
<g id="edge8" class="edge">
<title>Node8&#45;&gt;Node9</title>
<path fill="none" stroke="#63b8ff" d="M137,-258.1C137,-249.12 137,-234.95 137,-223.22"/>
<polygon fill="#63b8ff" stroke="#63b8ff" points="140.5,-223.34 137,-213.34 133.5,-223.34 140.5,-223.34"/>
</g>
<!-- Node10 -->
<g id="node10" class="node">
<title>Node10</title>
<g id="a_node10"><a xlink:href="vec_8h.html" target="_top" xlink:title=" ">
<polygon fill="white" stroke="#666666" points="288,-151 196,-151 196,-132 288,-132 288,-151"/>
<text text-anchor="middle" x="242" y="-139" font-family="Helvetica,sans-Serif" font-size="10.00">dolphin/mtx/vec.h</text>
</a>
</g>
</g>
<!-- Node9&#45;&gt;Node10 -->
<g id="edge9" class="edge">
<title>Node9&#45;&gt;Node10</title>
<path fill="none" stroke="#63b8ff" d="M152.95,-192.12C169.68,-182.79 196.23,-168 216,-156.99"/>
<polygon fill="#63b8ff" stroke="#63b8ff" points="217.55,-160.13 224.58,-152.21 214.14,-154.01 217.55,-160.13"/>
</g>
<!-- Node11 -->
<g id="node11" class="node">
<title>Node11</title>
<g id="a_node11"><a xlink:href="float_8h.html" target="_top" xlink:title=" ">
<polygon fill="white" stroke="#666666" points="78,-151 0,-151 0,-132 78,-132 78,-151"/>
<text text-anchor="middle" x="39" y="-139" font-family="Helvetica,sans-Serif" font-size="10.00">MSL_C/float.h</text>
</a>
</g>
</g>
<!-- Node9&#45;&gt;Node11 -->
<g id="edge11" class="edge">
<title>Node9&#45;&gt;Node11</title>
<path fill="none" stroke="#63b8ff" d="M122.12,-192.12C106.65,-182.88 82.17,-168.27 63.78,-157.29"/>
<polygon fill="#63b8ff" stroke="#63b8ff" points="65.7,-154.36 55.32,-152.24 62.12,-160.38 65.7,-154.36"/>
</g>
<!-- Node14 -->
<g id="node14" class="node">
<title>Node14</title>
<g id="a_node14"><a xlink:href="math_8h.html" target="_top" xlink:title=" ">
<polygon fill="white" stroke="#666666" points="178,-151 96,-151 96,-132 178,-132 178,-151"/>
<text text-anchor="middle" x="137" y="-139" font-family="Helvetica,sans-Serif" font-size="10.00">MSL_C/math.h</text>
</a>
</g>
</g>
<!-- Node9&#45;&gt;Node14 -->
<g id="edge14" class="edge">
<title>Node9&#45;&gt;Node14</title>
<path fill="none" stroke="#63b8ff" d="M137,-192.37C137,-184.5 137,-172.6 137,-162.39"/>
<polygon fill="#63b8ff" stroke="#63b8ff" points="140.5,-162.68 137,-152.68 133.5,-162.68 140.5,-162.68"/>
</g>
<!-- Node10&#45;&gt;Node6 -->
<g id="edge10" class="edge">
<title>Node10&#45;&gt;Node6</title>
<path fill="none" stroke="#63b8ff" d="M259.01,-131.62C277.02,-122.21 305.71,-107.22 326.85,-96.18"/>
<polygon fill="#63b8ff" stroke="#63b8ff" points="328.24,-99.4 335.49,-91.67 325,-93.2 328.24,-99.4"/>
</g>
<!-- Node12 -->
<g id="node12" class="node">
<title>Node12</title>
<g id="a_node12"><a xlink:href="MSL__Common_2Src_2float_8h.html" target="_top" xlink:title=" ">
<polygon fill="white" stroke="#666666" points="156,-96 20,-96 20,-66 156,-66 156,-96"/>
<text text-anchor="start" x="28" y="-84" font-family="Helvetica,sans-Serif" font-size="10.00">MSL_C/MSL_Common/Src</text>
<text text-anchor="middle" x="88" y="-73" font-family="Helvetica,sans-Serif" font-size="10.00">/float.h</text>
</a>
</g>
</g>
<!-- Node11&#45;&gt;Node12 -->
<g id="edge12" class="edge">
<title>Node11&#45;&gt;Node12</title>
<path fill="none" stroke="#63b8ff" d="M46.23,-131.87C52.2,-124.74 60.96,-114.28 68.91,-104.79"/>
<polygon fill="#63b8ff" stroke="#63b8ff" points="71.47,-107.19 75.21,-97.27 66.1,-102.69 71.47,-107.19"/>
</g>
<!-- Node13 -->
<g id="node13" class="node">
<title>Node13</title>
<g id="a_node13"><a xlink:href="fdlibm_8h.html" target="_top" xlink:title=" ">
<polygon fill="white" stroke="#666666" points="113,-24.5 63,-24.5 63,-5.5 113,-5.5 113,-24.5"/>
<text text-anchor="middle" x="88" y="-12.5" font-family="Helvetica,sans-Serif" font-size="10.00">fdlibm.h</text>
</a>
</g>
</g>
<!-- Node12&#45;&gt;Node13 -->
<g id="edge13" class="edge">
<title>Node12&#45;&gt;Node13</title>
<path fill="none" stroke="#63b8ff" d="M88,-65.8C88,-57.09 88,-45.81 88,-36.18"/>
<polygon fill="#63b8ff" stroke="#63b8ff" points="91.5,-36.36 88,-26.36 84.5,-36.36 91.5,-36.36"/>
</g>
<!-- Node14&#45;&gt;Node12 -->
<g id="edge15" class="edge">
<title>Node14&#45;&gt;Node12</title>
<path fill="none" stroke="#63b8ff" d="M129.77,-131.87C123.8,-124.74 115.04,-114.28 107.09,-104.79"/>
<polygon fill="#63b8ff" stroke="#63b8ff" points="109.9,-102.69 100.79,-97.27 104.53,-107.19 109.9,-102.69"/>
</g>
<!-- Node15&#45;&gt;Node6 -->
<g id="edge17" class="edge">
<title>Node15&#45;&gt;Node6</title>
<path fill="none" stroke="#63b8ff" d="M249.39,-192.34C261.67,-182.78 281.53,-166.67 297,-151 313.14,-134.65 329.66,-114.17 340.72,-99.78"/>
<polygon fill="#63b8ff" stroke="#63b8ff" points="343.28,-102.21 346.53,-92.13 337.7,-97.98 343.28,-102.21"/>
</g>
<!-- Node17 -->
<g id="node17" class="node">
<title>Node17</title>
<g id="a_node17"><a xlink:href="OSMessage_8h.html" target="_top" xlink:title=" ">
<polygon fill="white" stroke="#666666" points="560.5,-277.5 435.5,-277.5 435.5,-258.5 560.5,-258.5 560.5,-277.5"/>
<text text-anchor="middle" x="498" y="-265.5" font-family="Helvetica,sans-Serif" font-size="10.00">dolphin/os/OSMessage.h</text>
</a>
</g>
</g>
<!-- Node16&#45;&gt;Node17 -->
<g id="edge19" class="edge">
<title>Node16&#45;&gt;Node17</title>
<path fill="none" stroke="#63b8ff" d="M432.69,-318.62C444.45,-309.68 462.84,-295.72 477.11,-284.87"/>
<polygon fill="#63b8ff" stroke="#63b8ff" points="479.14,-287.72 484.99,-278.88 474.91,-282.15 479.14,-287.72"/>
</g>
<!-- Node18 -->
<g id="node18" class="node">
<title>Node18</title>
<g id="a_node18"><a xlink:href="OSThread_8h.html" target="_top" xlink:title=" ">
<polygon fill="white" stroke="#666666" points="559,-211.5 443,-211.5 443,-192.5 559,-192.5 559,-211.5"/>
<text text-anchor="middle" x="501" y="-199.5" font-family="Helvetica,sans-Serif" font-size="10.00">dolphin/os/OSThread.h</text>
</a>
</g>
</g>
<!-- Node17&#45;&gt;Node18 -->
<g id="edge20" class="edge">
<title>Node17&#45;&gt;Node18</title>
<path fill="none" stroke="#63b8ff" d="M498.42,-258.1C498.84,-249.12 499.5,-234.95 500.05,-223.22"/>
<polygon fill="#63b8ff" stroke="#63b8ff" points="503.54,-223.49 500.52,-213.34 496.55,-223.16 503.54,-223.49"/>
</g>
<!-- Node19 -->
<g id="node19" class="node">
<title>Node19</title>
<g id="a_node19"><a xlink:href="OSContext_8h.html" target="_top" xlink:title=" ">
<polygon fill="white" stroke="#666666" points="531.5,-151 412.5,-151 412.5,-132 531.5,-132 531.5,-151"/>
<text text-anchor="middle" x="472" y="-139" font-family="Helvetica,sans-Serif" font-size="10.00">dolphin/os/OSContext.h</text>
</a>
</g>
</g>
<!-- Node18&#45;&gt;Node19 -->
<g id="edge21" class="edge">
<title>Node18&#45;&gt;Node19</title>
<path fill="none" stroke="#63b8ff" d="M496.72,-192.37C492.69,-184.25 486.53,-171.81 481.36,-161.39"/>
<polygon fill="#63b8ff" stroke="#63b8ff" points="484.55,-159.93 476.97,-152.52 478.27,-163.04 484.55,-159.93"/>
</g>
<!-- Node19&#45;&gt;Node6 -->
<g id="edge22" class="edge">
<title>Node19&#45;&gt;Node6</title>
<path fill="none" stroke="#63b8ff" d="M454.08,-131.62C435.02,-122.17 404.6,-107.09 382.3,-96.03"/>
<polygon fill="#63b8ff" stroke="#63b8ff" points="383.96,-92.95 373.45,-91.64 380.85,-99.22 383.96,-92.95"/>
</g>
<!-- Node20&#45;&gt;Node6 -->
<g id="edge24" class="edge">
<title>Node20&#45;&gt;Node6</title>
<path fill="none" stroke="#63b8ff" d="M599.47,-318.64C600.6,-287.23 599.76,-180.45 540,-132 501.98,-101.17 446.62,-89.25 406.18,-84.69"/>
<polygon fill="#63b8ff" stroke="#63b8ff" points="406.74,-81.23 396.44,-83.72 406.05,-88.2 406.74,-81.23"/>
</g>
</g>
</svg>
