<?xml version="1.0" encoding="UTF-8" standalone="no"?>
<!DOCTYPE svg PUBLIC "-//W3C//DTD SVG 1.1//EN"
 "http://www.w3.org/Graphics/SVG/1.1/DTD/svg11.dtd">
<!-- Generated by graphviz version 7.0.5 (20221223.1930)
 -->
<!-- Title: include/JSystem/JAudio2/JASBasicWaveBank.h Pages: 1 -->
<svg width="528pt" height="445pt"
 viewBox="0.00 0.00 527.50 445.00" xmlns="http://www.w3.org/2000/svg" xmlns:xlink="http://www.w3.org/1999/xlink">
<g id="graph0" class="graph" transform="scale(1 1) rotate(0) translate(4 441)">
<title>include/JSystem/JAudio2/JASBasicWaveBank.h</title>
<!-- Node1 -->
<g id="node1" class="node">
<title>Node1</title>
<g id="a_node1"><a xlink:title=" ">
<polygon fill="#999999" stroke="#666666" points="462,-437 335,-437 335,-407 462,-407 462,-437"/>
<text text-anchor="start" x="343" y="-425" font-family="Helvetica,sans-Serif" font-size="10.00">include/JSystem/JAudio2</text>
<text text-anchor="middle" x="398.5" y="-414" font-family="Helvetica,sans-Serif" font-size="10.00">/JASBasicWaveBank.h</text>
</a>
</g>
</g>
<!-- Node2 -->
<g id="node2" class="node">
<title>Node2</title>
<g id="a_node2"><a xlink:href="JASWaveArcLoader_8h.html" target="_top" xlink:title=" ">
<polygon fill="white" stroke="#666666" points="358,-371 203,-371 203,-341 358,-341 358,-371"/>
<text text-anchor="start" x="211" y="-359" font-family="Helvetica,sans-Serif" font-size="10.00">JSystem/JAudio2/JASWaveArc</text>
<text text-anchor="middle" x="280.5" y="-348" font-family="Helvetica,sans-Serif" font-size="10.00">Loader.h</text>
</a>
</g>
</g>
<!-- Node1&#45;&gt;Node2 -->
<g id="edge1" class="edge">
<title>Node1&#45;&gt;Node2</title>
<path fill="none" stroke="#63b8ff" d="M372.02,-406.64C355.77,-397.83 334.74,-386.42 316.94,-376.77"/>
<polygon fill="#63b8ff" stroke="#63b8ff" points="318.68,-373.73 308.22,-372.04 315.35,-379.88 318.68,-373.73"/>
</g>
<!-- Node8 -->
<g id="node8" class="node">
<title>Node8</title>
<g id="a_node8"><a xlink:href="OSMutex_8h.html" target="_top" xlink:title=" ">
<polygon fill="white" stroke="#666666" points="336.5,-250 224.5,-250 224.5,-231 336.5,-231 336.5,-250"/>
<text text-anchor="middle" x="280.5" y="-238" font-family="Helvetica,sans-Serif" font-size="10.00">dolphin/os/OSMutex.h</text>
</a>
</g>
</g>
<!-- Node1&#45;&gt;Node8 -->
<g id="edge17" class="edge">
<title>Node1&#45;&gt;Node8</title>
<path fill="none" stroke="#63b8ff" d="M400.65,-406.72C403.83,-380.11 406.79,-322.34 379.5,-286 368.21,-270.96 350.68,-260.89 333.49,-254.19"/>
<polygon fill="#63b8ff" stroke="#63b8ff" points="334.91,-250.98 324.31,-250.95 332.57,-257.58 334.91,-250.98"/>
</g>
<!-- Node12 -->
<g id="node12" class="node">
<title>Node12</title>
<g id="a_node12"><a xlink:href="JASWaveInfo_8h.html" target="_top" xlink:title=" ">
<polygon fill="white" stroke="#666666" points="519.5,-195 355.5,-195 355.5,-176 519.5,-176 519.5,-195"/>
<text text-anchor="middle" x="437.5" y="-183" font-family="Helvetica,sans-Serif" font-size="10.00">JSystem/JAudio2/JASWaveInfo.h</text>
</a>
</g>
</g>
<!-- Node1&#45;&gt;Node12 -->
<g id="edge15" class="edge">
<title>Node1&#45;&gt;Node12</title>
<path fill="none" stroke="#63b8ff" d="M404.22,-406.79C407.98,-396.9 412.7,-383.34 415.5,-371 428.86,-312.14 434.44,-240.77 436.48,-206.61"/>
<polygon fill="#63b8ff" stroke="#63b8ff" points="439.96,-207.13 437.01,-196.96 432.97,-206.75 439.96,-207.13"/>
</g>
<!-- Node3 -->
<g id="node3" class="node">
<title>Node3</title>
<g id="a_node3"><a xlink:href="JASHeapCtrl_8h.html" target="_top" xlink:title=" ">
<polygon fill="white" stroke="#666666" points="252,-305 91,-305 91,-286 252,-286 252,-305"/>
<text text-anchor="middle" x="171.5" y="-293" font-family="Helvetica,sans-Serif" font-size="10.00">JSystem/JAudio2/JASHeapCtrl.h</text>
</a>
</g>
</g>
<!-- Node2&#45;&gt;Node3 -->
<g id="edge2" class="edge">
<title>Node2&#45;&gt;Node3</title>
<path fill="none" stroke="#63b8ff" d="M253.56,-340.54C236.54,-331.4 214.65,-319.66 197.76,-310.6"/>
<polygon fill="#63b8ff" stroke="#63b8ff" points="199.78,-307.71 189.32,-306.06 196.47,-313.87 199.78,-307.71"/>
</g>
<!-- Node4 -->
<g id="node4" class="node">
<title>Node4</title>
<g id="a_node4"><a xlink:href="JSUList_8h.html" target="_top" xlink:title=" ">
<polygon fill="white" stroke="#666666" points="143,-250 0,-250 0,-231 143,-231 143,-250"/>
<text text-anchor="middle" x="71.5" y="-238" font-family="Helvetica,sans-Serif" font-size="10.00">JSystem/JSupport/JSUList.h</text>
</a>
</g>
</g>
<!-- Node2&#45;&gt;Node4 -->
<g id="edge12" class="edge">
<title>Node2&#45;&gt;Node4</title>
<path fill="none" stroke="#63b8ff" d="M202.68,-344.4C154.2,-336.16 98.02,-323.08 81.5,-305 70.89,-293.39 68.93,-275.33 69.31,-261.43"/>
<polygon fill="#63b8ff" stroke="#63b8ff" points="72.79,-261.88 70.03,-251.66 65.81,-261.37 72.79,-261.88"/>
</g>
<!-- Node2&#45;&gt;Node8 -->
<g id="edge14" class="edge">
<title>Node2&#45;&gt;Node8</title>
<path fill="none" stroke="#63b8ff" d="M280.5,-340.63C280.5,-320.59 280.5,-284.17 280.5,-261.49"/>
<polygon fill="#63b8ff" stroke="#63b8ff" points="284,-261.74 280.5,-251.74 277,-261.74 284,-261.74"/>
</g>
<!-- Node11 -->
<g id="node11" class="node">
<title>Node11</title>
<g id="a_node11"><a xlink:href="dol2asm_8h.html" target="_top" xlink:title=" ">
<polygon fill="white" stroke="#666666" points="370,-305 309,-305 309,-286 370,-286 370,-305"/>
<text text-anchor="middle" x="339.5" y="-293" font-family="Helvetica,sans-Serif" font-size="10.00">dol2asm.h</text>
</a>
</g>
</g>
<!-- Node2&#45;&gt;Node11 -->
<g id="edge13" class="edge">
<title>Node2&#45;&gt;Node11</title>
<path fill="none" stroke="#63b8ff" d="M295.08,-340.54C303.48,-332.22 314.06,-321.72 322.79,-313.07"/>
<polygon fill="#63b8ff" stroke="#63b8ff" points="325.04,-315.77 329.68,-306.24 320.11,-310.8 325.04,-315.77"/>
</g>
<!-- Node3&#45;&gt;Node4 -->
<g id="edge3" class="edge">
<title>Node3&#45;&gt;Node4</title>
<path fill="none" stroke="#63b8ff" d="M154.54,-285.51C139.14,-277.35 116.19,-265.19 98.31,-255.71"/>
<polygon fill="#63b8ff" stroke="#63b8ff" points="100.03,-252.66 89.55,-251.07 96.75,-258.84 100.03,-252.66"/>
</g>
<!-- Node7 -->
<g id="node7" class="node">
<title>Node7</title>
<g id="a_node7"><a xlink:href="OSInterrupt_8h.html" target="_top" xlink:title=" ">
<polygon fill="white" stroke="#666666" points="229.5,-140 107.5,-140 107.5,-121 229.5,-121 229.5,-140"/>
<text text-anchor="middle" x="168.5" y="-128" font-family="Helvetica,sans-Serif" font-size="10.00">dolphin/os/OSInterrupt.h</text>
</a>
</g>
</g>
<!-- Node3&#45;&gt;Node7 -->
<g id="edge6" class="edge">
<title>Node3&#45;&gt;Node7</title>
<path fill="none" stroke="#63b8ff" d="M171.34,-285.74C170.87,-260.53 169.53,-187.36 168.87,-151.62"/>
<polygon fill="#63b8ff" stroke="#63b8ff" points="172.37,-151.75 168.69,-141.82 165.37,-151.88 172.37,-151.75"/>
</g>
<!-- Node3&#45;&gt;Node8 -->
<g id="edge8" class="edge">
<title>Node3&#45;&gt;Node8</title>
<path fill="none" stroke="#63b8ff" d="M189.99,-285.51C207,-277.24 232.49,-264.84 252.09,-255.31"/>
<polygon fill="#63b8ff" stroke="#63b8ff" points="253.46,-258.54 260.92,-251.02 250.4,-252.25 253.46,-258.54"/>
</g>
<!-- Node5 -->
<g id="node5" class="node">
<title>Node5</title>
<g id="a_node5"><a xlink:href="types_8h.html" target="_top" xlink:title=" ">
<polygon fill="white" stroke="#666666" points="278,-85 197,-85 197,-66 278,-66 278,-85"/>
<text text-anchor="middle" x="237.5" y="-73" font-family="Helvetica,sans-Serif" font-size="10.00">dolphin/types.h</text>
</a>
</g>
</g>
<!-- Node4&#45;&gt;Node5 -->
<g id="edge4" class="edge">
<title>Node4&#45;&gt;Node5</title>
<path fill="none" stroke="#63b8ff" d="M70.79,-230.74C69.53,-209.13 69.4,-152.71 98.5,-121 120.66,-96.86 155.9,-85.75 185.36,-80.67"/>
<polygon fill="#63b8ff" stroke="#63b8ff" points="185.88,-84.13 195.24,-79.17 184.83,-77.21 185.88,-84.13"/>
</g>
<!-- Node6 -->
<g id="node6" class="node">
<title>Node6</title>
<g id="a_node6"><a xlink:href="stddef_8h.html" target="_top" xlink:title=" ">
<polygon fill="white" stroke="#666666" points="305.5,-30 169.5,-30 169.5,0 305.5,0 305.5,-30"/>
<text text-anchor="start" x="177.5" y="-18" font-family="Helvetica,sans-Serif" font-size="10.00">MSL_C/MSL_Common/Src</text>
<text text-anchor="middle" x="237.5" y="-7" font-family="Helvetica,sans-Serif" font-size="10.00">/stddef.h</text>
</a>
</g>
</g>
<!-- Node5&#45;&gt;Node6 -->
<g id="edge5" class="edge">
<title>Node5&#45;&gt;Node6</title>
<path fill="none" stroke="#63b8ff" d="M237.5,-65.87C237.5,-59.4 237.5,-50.2 237.5,-41.45"/>
<polygon fill="#63b8ff" stroke="#63b8ff" points="241,-41.63 237.5,-31.63 234,-41.63 241,-41.63"/>
</g>
<!-- Node7&#45;&gt;Node5 -->
<g id="edge7" class="edge">
<title>Node7&#45;&gt;Node5</title>
<path fill="none" stroke="#63b8ff" d="M180.2,-120.51C190.28,-112.77 205.04,-101.43 217.06,-92.2"/>
<polygon fill="#63b8ff" stroke="#63b8ff" points="218.97,-95.15 224.77,-86.28 214.71,-89.6 218.97,-95.15"/>
</g>
<!-- Node9 -->
<g id="node9" class="node">
<title>Node9</title>
<g id="a_node9"><a xlink:href="OSThread_8h.html" target="_top" xlink:title=" ">
<polygon fill="white" stroke="#666666" points="337.5,-195 221.5,-195 221.5,-176 337.5,-176 337.5,-195"/>
<text text-anchor="middle" x="279.5" y="-183" font-family="Helvetica,sans-Serif" font-size="10.00">dolphin/os/OSThread.h</text>
</a>
</g>
</g>
<!-- Node8&#45;&gt;Node9 -->
<g id="edge9" class="edge">
<title>Node8&#45;&gt;Node9</title>
<path fill="none" stroke="#63b8ff" d="M280.33,-230.75C280.21,-224.27 280.04,-215.16 279.88,-206.9"/>
<polygon fill="#63b8ff" stroke="#63b8ff" points="283.39,-206.89 279.7,-196.96 276.39,-207.02 283.39,-206.89"/>
</g>
<!-- Node10 -->
<g id="node10" class="node">
<title>Node10</title>
<g id="a_node10"><a xlink:href="OSContext_8h.html" target="_top" xlink:title=" ">
<polygon fill="white" stroke="#666666" points="367,-140 248,-140 248,-121 367,-121 367,-140"/>
<text text-anchor="middle" x="307.5" y="-128" font-family="Helvetica,sans-Serif" font-size="10.00">dolphin/os/OSContext.h</text>
</a>
</g>
</g>
<!-- Node9&#45;&gt;Node10 -->
<g id="edge10" class="edge">
<title>Node9&#45;&gt;Node10</title>
<path fill="none" stroke="#63b8ff" d="M284.12,-175.75C287.75,-168.88 292.93,-159.08 297.49,-150.45"/>
<polygon fill="#63b8ff" stroke="#63b8ff" points="300.49,-152.26 302.07,-141.78 294.3,-148.99 300.49,-152.26"/>
</g>
<!-- Node10&#45;&gt;Node5 -->
<g id="edge11" class="edge">
<title>Node10&#45;&gt;Node5</title>
<path fill="none" stroke="#63b8ff" d="M295.63,-120.51C285.41,-112.77 270.43,-101.43 258.24,-92.2"/>
<polygon fill="#63b8ff" stroke="#63b8ff" points="260.49,-89.52 250.41,-86.27 256.27,-95.1 260.49,-89.52"/>
</g>
<!-- Node12&#45;&gt;Node5 -->
<g id="edge16" class="edge">
<title>Node12&#45;&gt;Node5</title>
<path fill="none" stroke="#63b8ff" d="M431.4,-175.79C421.44,-162.18 400.37,-135.89 376.5,-121 349.95,-104.44 316.67,-93.5 289.33,-86.62"/>
<polygon fill="#63b8ff" stroke="#63b8ff" points="290.42,-83.28 279.88,-84.35 288.79,-90.08 290.42,-83.28"/>
</g>
</g>
</svg>
