<?xml version="1.0" encoding="UTF-8" standalone="no"?>
<!DOCTYPE svg PUBLIC "-//W3C//DTD SVG 1.1//EN"
 "http://www.w3.org/Graphics/SVG/1.1/DTD/svg11.dtd">
<!-- Generated by graphviz version 7.0.5 (20221223.1930)
 -->
<!-- Title: include/JSystem/JAudio2/JASDriverIF.h Pages: 1 -->
<svg width="168pt" height="214pt"
 viewBox="0.00 0.00 168.00 214.00" xmlns="http://www.w3.org/2000/svg" xmlns:xlink="http://www.w3.org/1999/xlink">
<g id="graph0" class="graph" transform="scale(1 1) rotate(0) translate(4 210)">
<title>include/JSystem/JAudio2/JASDriverIF.h</title>
<!-- Node1 -->
<g id="node1" class="node">
<title>Node1</title>
<g id="a_node1"><a xlink:title=" ">
<polygon fill="#999999" stroke="#666666" points="143.5,-206 16.5,-206 16.5,-176 143.5,-176 143.5,-206"/>
<text text-anchor="start" x="24.5" y="-194" font-family="Helvetica,sans-Serif" font-size="10.00">include/JSystem/JAudio2</text>
<text text-anchor="middle" x="80" y="-183" font-family="Helvetica,sans-Serif" font-size="10.00">/JASDriverIF.h</text>
</a>
</g>
</g>
<!-- Node2 -->
<g id="node2" class="node">
<title>Node2</title>
<g id="a_node2"><a xlink:href="JASCallback_8h.html" target="_top" xlink:title=" ">
<polygon fill="white" stroke="#666666" points="160,-140 0,-140 0,-121 160,-121 160,-140"/>
<text text-anchor="middle" x="80" y="-128" font-family="Helvetica,sans-Serif" font-size="10.00">JSystem/JAudio2/JASCallback.h</text>
</a>
</g>
</g>
<!-- Node1&#45;&gt;Node2 -->
<g id="edge1" class="edge">
<title>Node1&#45;&gt;Node2</title>
<path fill="none" stroke="#63b8ff" d="M80,-175.54C80,-168.34 80,-159.53 80,-151.68"/>
<polygon fill="#63b8ff" stroke="#63b8ff" points="83.5,-151.69 80,-141.69 76.5,-151.69 83.5,-151.69"/>
</g>
<!-- Node3 -->
<g id="node3" class="node">
<title>Node3</title>
<g id="a_node3"><a xlink:href="types_8h.html" target="_top" xlink:title=" ">
<polygon fill="white" stroke="#666666" points="120.5,-85 39.5,-85 39.5,-66 120.5,-66 120.5,-85"/>
<text text-anchor="middle" x="80" y="-73" font-family="Helvetica,sans-Serif" font-size="10.00">dolphin/types.h</text>
</a>
</g>
</g>
<!-- Node2&#45;&gt;Node3 -->
<g id="edge2" class="edge">
<title>Node2&#45;&gt;Node3</title>
<path fill="none" stroke="#63b8ff" d="M80,-120.75C80,-114.27 80,-105.16 80,-96.9"/>
<polygon fill="#63b8ff" stroke="#63b8ff" points="83.5,-96.96 80,-86.96 76.5,-96.96 83.5,-96.96"/>
</g>
<!-- Node4 -->
<g id="node4" class="node">
<title>Node4</title>
<g id="a_node4"><a xlink:href="stddef_8h.html" target="_top" xlink:title=" ">
<polygon fill="white" stroke="#666666" points="148,-30 12,-30 12,0 148,0 148,-30"/>
<text text-anchor="start" x="20" y="-18" font-family="Helvetica,sans-Serif" font-size="10.00">MSL_C/MSL_Common/Src</text>
<text text-anchor="middle" x="80" y="-7" font-family="Helvetica,sans-Serif" font-size="10.00">/stddef.h</text>
</a>
</g>
</g>
<!-- Node3&#45;&gt;Node4 -->
<g id="edge3" class="edge">
<title>Node3&#45;&gt;Node4</title>
<path fill="none" stroke="#63b8ff" d="M80,-65.87C80,-59.4 80,-50.2 80,-41.45"/>
<polygon fill="#63b8ff" stroke="#63b8ff" points="83.5,-41.63 80,-31.63 76.5,-41.63 83.5,-41.63"/>
</g>
</g>
</svg>
