<?xml version="1.0" encoding="UTF-8" standalone="no"?>
<!DOCTYPE svg PUBLIC "-//W3C//DTD SVG 1.1//EN"
 "http://www.w3.org/Graphics/SVG/1.1/DTD/svg11.dtd">
<!-- Generated by graphviz version 7.0.5 (20221223.1930)
 -->
<!-- Title: libs/JSystem/JAudio2/JASSeqReader.cpp Pages: 1 -->
<svg width="178pt" height="214pt"
 viewBox="0.00 0.00 178.00 214.00" xmlns="http://www.w3.org/2000/svg" xmlns:xlink="http://www.w3.org/1999/xlink">
<g id="graph0" class="graph" transform="scale(1 1) rotate(0) translate(4 210)">
<title>libs/JSystem/JAudio2/JASSeqReader.cpp</title>
<!-- Node1 -->
<g id="node1" class="node">
<title>Node1</title>
<g id="a_node1"><a xlink:title=" ">
<polygon fill="#999999" stroke="#666666" points="140.5,-206 29.5,-206 29.5,-176 140.5,-176 140.5,-206"/>
<text text-anchor="start" x="37.5" y="-194" font-family="Helvetica,sans-Serif" font-size="10.00">libs/JSystem/JAudio2</text>
<text text-anchor="middle" x="85" y="-183" font-family="Helvetica,sans-Serif" font-size="10.00">/JASSeqReader.cpp</text>
</a>
</g>
</g>
<!-- Node2 -->
<g id="node2" class="node">
<title>Node2</title>
<g id="a_node2"><a xlink:href="JASSeqReader_8h.html" target="_top" xlink:title=" ">
<polygon fill="white" stroke="#666666" points="170,-140 0,-140 0,-121 170,-121 170,-140"/>
<text text-anchor="middle" x="85" y="-128" font-family="Helvetica,sans-Serif" font-size="10.00">JSystem/JAudio2/JASSeqReader.h</text>
</a>
</g>
</g>
<!-- Node1&#45;&gt;Node2 -->
<g id="edge1" class="edge">
<title>Node1&#45;&gt;Node2</title>
<path fill="none" stroke="#63b8ff" d="M85,-175.54C85,-168.34 85,-159.53 85,-151.68"/>
<polygon fill="#63b8ff" stroke="#63b8ff" points="88.5,-151.69 85,-141.69 81.5,-151.69 88.5,-151.69"/>
</g>
<!-- Node3 -->
<g id="node3" class="node">
<title>Node3</title>
<g id="a_node3"><a xlink:href="types_8h.html" target="_top" xlink:title=" ">
<polygon fill="white" stroke="#666666" points="125.5,-85 44.5,-85 44.5,-66 125.5,-66 125.5,-85"/>
<text text-anchor="middle" x="85" y="-73" font-family="Helvetica,sans-Serif" font-size="10.00">dolphin/types.h</text>
</a>
</g>
</g>
<!-- Node2&#45;&gt;Node3 -->
<g id="edge2" class="edge">
<title>Node2&#45;&gt;Node3</title>
<path fill="none" stroke="#63b8ff" d="M85,-120.75C85,-114.27 85,-105.16 85,-96.9"/>
<polygon fill="#63b8ff" stroke="#63b8ff" points="88.5,-96.96 85,-86.96 81.5,-96.96 88.5,-96.96"/>
</g>
<!-- Node4 -->
<g id="node4" class="node">
<title>Node4</title>
<g id="a_node4"><a xlink:href="stddef_8h.html" target="_top" xlink:title=" ">
<polygon fill="white" stroke="#666666" points="153,-30 17,-30 17,0 153,0 153,-30"/>
<text text-anchor="start" x="25" y="-18" font-family="Helvetica,sans-Serif" font-size="10.00">MSL_C/MSL_Common/Src</text>
<text text-anchor="middle" x="85" y="-7" font-family="Helvetica,sans-Serif" font-size="10.00">/stddef.h</text>
</a>
</g>
</g>
<!-- Node3&#45;&gt;Node4 -->
<g id="edge3" class="edge">
<title>Node3&#45;&gt;Node4</title>
<path fill="none" stroke="#63b8ff" d="M85,-65.87C85,-59.4 85,-50.2 85,-41.45"/>
<polygon fill="#63b8ff" stroke="#63b8ff" points="88.5,-41.63 85,-31.63 81.5,-41.63 88.5,-41.63"/>
</g>
</g>
</svg>
