<?xml version="1.0" encoding="UTF-8" standalone="no"?>
<!DOCTYPE svg PUBLIC "-//W3C//DTD SVG 1.1//EN"
 "http://www.w3.org/Graphics/SVG/1.1/DTD/svg11.dtd">
<!-- Generated by graphviz version 7.0.5 (20221223.1930)
 -->
<!-- Title: libs/JSystem/JAudio2/JASWSParser.cpp Pages: 1 -->
<svg width="2349pt" height="181pt"
 viewBox="0.00 0.00 2349.00 181.00" xmlns="http://www.w3.org/2000/svg" xmlns:xlink="http://www.w3.org/1999/xlink">
<g id="graph0" class="graph" transform="scale(1 1) rotate(0) translate(4 177)">
<title>libs/JSystem/JAudio2/JASWSParser.cpp</title>
<!-- Node1 -->
<g id="node1" class="node">
<title>Node1</title>
<g id="a_node1"><a xlink:title=" ">
<polygon fill="#999999" stroke="#666666" points="1247,-173 1136,-173 1136,-143 1247,-143 1247,-173"/>
<text text-anchor="start" x="1144" y="-161" font-family="Helvetica,sans-Serif" font-size="10.00">libs/JSystem/JAudio2</text>
<text text-anchor="middle" x="1191.5" y="-150" font-family="Helvetica,sans-Serif" font-size="10.00">/JASWSParser.cpp</text>
</a>
</g>
</g>
<!-- Node2 -->
<g id="node2" class="node">
<title>Node2</title>
<g id="a_node2"><a xlink:href="JASWSParser_8h.html" target="_top" xlink:title=" ">
<polygon fill="white" stroke="#666666" points="167,-96 0,-96 0,-77 167,-77 167,-96"/>
<text text-anchor="middle" x="83.5" y="-84" font-family="Helvetica,sans-Serif" font-size="10.00">JSystem/JAudio2/JASWSParser.h</text>
</a>
</g>
</g>
<!-- Node1&#45;&gt;Node2 -->
<g id="edge1" class="edge">
<title>Node1&#45;&gt;Node2</title>
<path fill="none" stroke="#63b8ff" d="M1135.66,-157.33C981.98,-157.56 540.03,-153.77 176.5,-107 161.38,-105.05 145.05,-101.97 130.36,-98.83"/>
<polygon fill="#63b8ff" stroke="#63b8ff" points="131.49,-95.49 120.97,-96.75 129.98,-102.33 131.49,-95.49"/>
</g>
<!-- Node3 -->
<g id="node3" class="node">
<title>Node3</title>
<g id="a_node3"><a xlink:href="types_8h.html" target="_top" xlink:title=" ">
<polygon fill="white" stroke="#666666" points="266,-96 185,-96 185,-77 266,-77 266,-96"/>
<text text-anchor="middle" x="225.5" y="-84" font-family="Helvetica,sans-Serif" font-size="10.00">dolphin/types.h</text>
</a>
</g>
</g>
<!-- Node1&#45;&gt;Node3 -->
<g id="edge2" class="edge">
<title>Node1&#45;&gt;Node3</title>
<path fill="none" stroke="#63b8ff" d="M1135.77,-156.27C963.47,-153.63 440.98,-142.82 275.5,-107 268.45,-105.47 261.09,-103.09 254.25,-100.5"/>
<polygon fill="#63b8ff" stroke="#63b8ff" points="256.04,-97.45 245.46,-96.93 253.41,-103.93 256.04,-97.45"/>
</g>
<!-- Node5 -->
<g id="node5" class="node">
<title>Node5</title>
<g id="a_node5"><a xlink:title=" ">
<polygon fill="#e0e0e0" stroke="#999999" points="435,-107 284,-107 284,-66 435,-66 435,-107"/>
<text text-anchor="start" x="292" y="-95" font-family="Helvetica,sans-Serif" font-size="10.00">asm/JSystem/JAudio2</text>
<text text-anchor="start" x="292" y="-84" font-family="Helvetica,sans-Serif" font-size="10.00">/JASWSParser/getGroupCount</text>
<text text-anchor="middle" x="359.5" y="-73" font-family="Helvetica,sans-Serif" font-size="10.00">__11JASWSParserFPCv.s</text>
</a>
</g>
</g>
<!-- Node1&#45;&gt;Node5 -->
<g id="edge4" class="edge">
<title>Node1&#45;&gt;Node5</title>
<path fill="none" stroke="#63b8ff" d="M1135.89,-156.29C1013.16,-154.07 709.79,-145.03 446.7,-107.19"/>
<polygon fill="#63b8ff" stroke="#63b8ff" points="447.28,-103.73 436.88,-105.76 446.28,-110.66 447.28,-103.73"/>
</g>
<!-- Node6 -->
<g id="node6" class="node">
<title>Node6</title>
<g id="a_node6"><a xlink:title=" ">
<polygon fill="#e0e0e0" stroke="#999999" points="640,-107 453,-107 453,-66 640,-66 640,-107"/>
<text text-anchor="start" x="461" y="-95" font-family="Helvetica,sans-Serif" font-size="10.00">asm/JSystem/JAudio2</text>
<text text-anchor="start" x="461" y="-84" font-family="Helvetica,sans-Serif" font-size="10.00">/JASWSParser/createWaveBank</text>
<text text-anchor="middle" x="546.5" y="-73" font-family="Helvetica,sans-Serif" font-size="10.00">__11JASWSParserFPCvP7JKRHeap.s</text>
</a>
</g>
</g>
<!-- Node1&#45;&gt;Node6 -->
<g id="edge5" class="edge">
<title>Node1&#45;&gt;Node6</title>
<path fill="none" stroke="#63b8ff" d="M1135.51,-153.6C1038.91,-147.34 834.52,-132.42 651.64,-107.23"/>
<polygon fill="#63b8ff" stroke="#63b8ff" points="652.35,-103.79 641.96,-105.88 651.38,-110.73 652.35,-103.79"/>
</g>
<!-- Node7 -->
<g id="node7" class="node">
<title>Node7</title>
<g id="a_node7"><a xlink:title=" ">
<polygon fill="#e0e0e0" stroke="#999999" points="867,-107 658,-107 658,-66 867,-66 867,-107"/>
<text text-anchor="start" x="666" y="-95" font-family="Helvetica,sans-Serif" font-size="10.00">asm/JSystem/JAudio2</text>
<text text-anchor="start" x="666" y="-84" font-family="Helvetica,sans-Serif" font-size="10.00">/JASWSParser/createBasicWave</text>
<text text-anchor="middle" x="762.5" y="-73" font-family="Helvetica,sans-Serif" font-size="10.00">Bank__11JASWSParserFPCvP7JKRHeap.s</text>
</a>
</g>
</g>
<!-- Node1&#45;&gt;Node7 -->
<g id="edge6" class="edge">
<title>Node1&#45;&gt;Node7</title>
<path fill="none" stroke="#63b8ff" d="M1135.7,-148.35C1075.05,-138.9 974.97,-123.18 878.59,-107.34"/>
<polygon fill="#63b8ff" stroke="#63b8ff" points="879.4,-103.92 868.96,-105.75 878.26,-110.83 879.4,-103.92"/>
</g>
<!-- Node8 -->
<g id="node8" class="node">
<title>Node8</title>
<g id="a_node8"><a xlink:title=" ">
<polygon fill="#e0e0e0" stroke="#999999" points="1094,-107 885,-107 885,-66 1094,-66 1094,-107"/>
<text text-anchor="start" x="893" y="-95" font-family="Helvetica,sans-Serif" font-size="10.00">asm/JSystem/JAudio2</text>
<text text-anchor="start" x="893" y="-84" font-family="Helvetica,sans-Serif" font-size="10.00">/JASWSParser/createSimpleWave</text>
<text text-anchor="middle" x="989.5" y="-73" font-family="Helvetica,sans-Serif" font-size="10.00">Bank__11JASWSParserFPCvP7JKRHeap.s</text>
</a>
</g>
</g>
<!-- Node1&#45;&gt;Node8 -->
<g id="edge7" class="edge">
<title>Node1&#45;&gt;Node8</title>
<path fill="none" stroke="#63b8ff" d="M1149.65,-142.6C1123.18,-133.49 1088.35,-121.51 1057.94,-111.05"/>
<polygon fill="#63b8ff" stroke="#63b8ff" points="1059.41,-107.85 1048.82,-107.91 1057.13,-114.47 1059.41,-107.85"/>
</g>
<!-- Node9 -->
<g id="node9" class="node">
<title>Node9</title>
<g id="a_node9"><a xlink:title=" ">
<polygon fill="#e0e0e0" stroke="#999999" points="1271,-101.5 1112,-101.5 1112,-71.5 1271,-71.5 1271,-101.5"/>
<text text-anchor="start" x="1120" y="-89.5" font-family="Helvetica,sans-Serif" font-size="10.00">asm/JSystem/JAudio2</text>
<text text-anchor="middle" x="1191.5" y="-78.5" font-family="Helvetica,sans-Serif" font-size="10.00">/JASWSParser/func_80299490.s</text>
</a>
</g>
</g>
<!-- Node1&#45;&gt;Node9 -->
<g id="edge8" class="edge">
<title>Node1&#45;&gt;Node9</title>
<path fill="none" stroke="#63b8ff" d="M1191.5,-142.6C1191.5,-134.12 1191.5,-123.14 1191.5,-113.22"/>
<polygon fill="#63b8ff" stroke="#63b8ff" points="1195,-113.4 1191.5,-103.4 1188,-113.4 1195,-113.4"/>
</g>
<!-- Node10 -->
<g id="node10" class="node">
<title>Node10</title>
<g id="a_node10"><a xlink:title=" ">
<polygon fill="#e0e0e0" stroke="#999999" points="1450,-101.5 1289,-101.5 1289,-71.5 1450,-71.5 1450,-101.5"/>
<text text-anchor="start" x="1297" y="-89.5" font-family="Helvetica,sans-Serif" font-size="10.00">asm/JSystem/JAudio2</text>
<text text-anchor="middle" x="1369.5" y="-78.5" font-family="Helvetica,sans-Serif" font-size="10.00">/JASWSParser/func_802994A8.s</text>
</a>
</g>
</g>
<!-- Node1&#45;&gt;Node10 -->
<g id="edge9" class="edge">
<title>Node1&#45;&gt;Node10</title>
<path fill="none" stroke="#63b8ff" d="M1228.38,-142.6C1255.59,-131.98 1292.83,-117.44 1322.22,-105.96"/>
<polygon fill="#63b8ff" stroke="#63b8ff" points="1323.21,-109.33 1331.26,-102.43 1320.67,-102.81 1323.21,-109.33"/>
</g>
<!-- Node11 -->
<g id="node11" class="node">
<title>Node11</title>
<g id="a_node11"><a xlink:title=" ">
<polygon fill="#e0e0e0" stroke="#999999" points="1629,-101.5 1468,-101.5 1468,-71.5 1629,-71.5 1629,-101.5"/>
<text text-anchor="start" x="1476" y="-89.5" font-family="Helvetica,sans-Serif" font-size="10.00">asm/JSystem/JAudio2</text>
<text text-anchor="middle" x="1548.5" y="-78.5" font-family="Helvetica,sans-Serif" font-size="10.00">/JASWSParser/func_802994C0.s</text>
</a>
</g>
</g>
<!-- Node1&#45;&gt;Node11 -->
<g id="edge10" class="edge">
<title>Node1&#45;&gt;Node11</title>
<path fill="none" stroke="#63b8ff" d="M1247.29,-147.12C1301.57,-137.38 1386.33,-121.84 1459.5,-107 1463.82,-106.12 1468.26,-105.21 1472.74,-104.27"/>
<polygon fill="#63b8ff" stroke="#63b8ff" points="1473.36,-107.71 1482.42,-102.22 1471.91,-100.87 1473.36,-107.71"/>
</g>
<!-- Node12 -->
<g id="node12" class="node">
<title>Node12</title>
<g id="a_node12"><a xlink:title=" ">
<polygon fill="#e0e0e0" stroke="#999999" points="1808,-101.5 1647,-101.5 1647,-71.5 1808,-71.5 1808,-101.5"/>
<text text-anchor="start" x="1655" y="-89.5" font-family="Helvetica,sans-Serif" font-size="10.00">asm/JSystem/JAudio2</text>
<text text-anchor="middle" x="1727.5" y="-78.5" font-family="Helvetica,sans-Serif" font-size="10.00">/JASWSParser/func_802994D8.s</text>
</a>
</g>
</g>
<!-- Node1&#45;&gt;Node12 -->
<g id="edge11" class="edge">
<title>Node1&#45;&gt;Node12</title>
<path fill="none" stroke="#63b8ff" d="M1247.16,-152.65C1331.96,-145.61 1498.47,-130.11 1638.5,-107 1643.69,-106.14 1649.03,-105.18 1654.4,-104.15"/>
<polygon fill="#63b8ff" stroke="#63b8ff" points="1654.8,-107.64 1663.93,-102.26 1653.44,-100.78 1654.8,-107.64"/>
</g>
<!-- Node13 -->
<g id="node13" class="node">
<title>Node13</title>
<g id="a_node13"><a xlink:title=" ">
<polygon fill="#e0e0e0" stroke="#999999" points="1986.5,-101.5 1826.5,-101.5 1826.5,-71.5 1986.5,-71.5 1986.5,-101.5"/>
<text text-anchor="start" x="1834.5" y="-89.5" font-family="Helvetica,sans-Serif" font-size="10.00">asm/JSystem/JAudio2</text>
<text text-anchor="middle" x="1906.5" y="-78.5" font-family="Helvetica,sans-Serif" font-size="10.00">/JASWSParser/func_802994F0.s</text>
</a>
</g>
</g>
<!-- Node1&#45;&gt;Node13 -->
<g id="edge12" class="edge">
<title>Node1&#45;&gt;Node13</title>
<path fill="none" stroke="#63b8ff" d="M1247.48,-155.08C1357.31,-150.76 1608.56,-138.09 1817.5,-107 1823.13,-106.16 1828.93,-105.18 1834.74,-104.1"/>
<polygon fill="#63b8ff" stroke="#63b8ff" points="1835.27,-107.56 1844.42,-102.22 1833.93,-100.69 1835.27,-107.56"/>
</g>
<!-- Node14 -->
<g id="node14" class="node">
<title>Node14</title>
<g id="a_node14"><a xlink:title=" ">
<polygon fill="#e0e0e0" stroke="#999999" points="2164,-101.5 2005,-101.5 2005,-71.5 2164,-71.5 2164,-101.5"/>
<text text-anchor="start" x="2013" y="-89.5" font-family="Helvetica,sans-Serif" font-size="10.00">asm/JSystem/JAudio2</text>
<text text-anchor="middle" x="2084.5" y="-78.5" font-family="Helvetica,sans-Serif" font-size="10.00">/JASWSParser/func_80299508.s</text>
</a>
</g>
</g>
<!-- Node1&#45;&gt;Node14 -->
<g id="edge13" class="edge">
<title>Node1&#45;&gt;Node14</title>
<path fill="none" stroke="#63b8ff" d="M1247.36,-156.47C1378.56,-154.59 1716.41,-146.02 1995.5,-107 2001.37,-106.18 2007.44,-105.18 2013.51,-104.07"/>
<polygon fill="#63b8ff" stroke="#63b8ff" points="2013.76,-107.59 2022.92,-102.26 2012.44,-100.71 2013.76,-107.59"/>
</g>
<!-- Node15 -->
<g id="node15" class="node">
<title>Node15</title>
<g id="a_node15"><a xlink:title=" ">
<polygon fill="#e0e0e0" stroke="#999999" points="2341,-101.5 2182,-101.5 2182,-71.5 2341,-71.5 2341,-101.5"/>
<text text-anchor="start" x="2190" y="-89.5" font-family="Helvetica,sans-Serif" font-size="10.00">asm/JSystem/JAudio2</text>
<text text-anchor="middle" x="2261.5" y="-78.5" font-family="Helvetica,sans-Serif" font-size="10.00">/JASWSParser/func_80299520.s</text>
</a>
</g>
</g>
<!-- Node1&#45;&gt;Node15 -->
<g id="edge14" class="edge">
<title>Node1&#45;&gt;Node15</title>
<path fill="none" stroke="#63b8ff" d="M1247.44,-157.41C1397.91,-157.82 1823.54,-154.35 2173.5,-107 2179.41,-106.2 2185.51,-105.21 2191.62,-104.09"/>
<polygon fill="#63b8ff" stroke="#63b8ff" points="2191.93,-107.6 2201.09,-102.27 2190.61,-100.72 2191.93,-107.6"/>
</g>
<!-- Node4 -->
<g id="node4" class="node">
<title>Node4</title>
<g id="a_node4"><a xlink:href="stddef_8h.html" target="_top" xlink:title=" ">
<polygon fill="white" stroke="#666666" points="293.5,-30 157.5,-30 157.5,0 293.5,0 293.5,-30"/>
<text text-anchor="start" x="165.5" y="-18" font-family="Helvetica,sans-Serif" font-size="10.00">MSL_C/MSL_Common/Src</text>
<text text-anchor="middle" x="225.5" y="-7" font-family="Helvetica,sans-Serif" font-size="10.00">/stddef.h</text>
</a>
</g>
</g>
<!-- Node3&#45;&gt;Node4 -->
<g id="edge3" class="edge">
<title>Node3&#45;&gt;Node4</title>
<path fill="none" stroke="#63b8ff" d="M225.5,-76.7C225.5,-67.93 225.5,-54.05 225.5,-41.77"/>
<polygon fill="#63b8ff" stroke="#63b8ff" points="229,-41.79 225.5,-31.79 222,-41.79 229,-41.79"/>
</g>
</g>
</svg>
