<?xml version="1.0" encoding="UTF-8" standalone="no"?>
<!DOCTYPE svg PUBLIC "-//W3C//DTD SVG 1.1//EN"
 "http://www.w3.org/Graphics/SVG/1.1/DTD/svg11.dtd">
<!-- Generated by graphviz version 7.0.5 (20221223.1930)
 -->
<!-- Title: libs/JSystem/JAudio2/JAUClusterSound.cpp Pages: 1 -->
<svg width="402pt" height="181pt"
 viewBox="0.00 0.00 402.00 181.00" xmlns="http://www.w3.org/2000/svg" xmlns:xlink="http://www.w3.org/1999/xlink">
<g id="graph0" class="graph" transform="scale(1 1) rotate(0) translate(4 177)">
<title>libs/JSystem/JAudio2/JAUClusterSound.cpp</title>
<!-- Node1 -->
<g id="node1" class="node">
<title>Node1</title>
<g id="a_node1"><a xlink:title=" ">
<polygon fill="#999999" stroke="#666666" points="263,-173 147,-173 147,-143 263,-143 263,-173"/>
<text text-anchor="start" x="155" y="-161" font-family="Helvetica,sans-Serif" font-size="10.00">libs/JSystem/JAudio2</text>
<text text-anchor="middle" x="205" y="-150" font-family="Helvetica,sans-Serif" font-size="10.00">/JAUClusterSound.cpp</text>
</a>
</g>
</g>
<!-- Node2 -->
<g id="node2" class="node">
<title>Node2</title>
<g id="a_node2"><a xlink:href="JAUClusterSound_8h.html" target="_top" xlink:title=" ">
<polygon fill="white" stroke="#666666" points="146,-101.5 0,-101.5 0,-71.5 146,-71.5 146,-101.5"/>
<text text-anchor="start" x="8" y="-89.5" font-family="Helvetica,sans-Serif" font-size="10.00">JSystem/JAudio2/JAUCluster</text>
<text text-anchor="middle" x="73" y="-78.5" font-family="Helvetica,sans-Serif" font-size="10.00">Sound.h</text>
</a>
</g>
</g>
<!-- Node1&#45;&gt;Node2 -->
<g id="edge1" class="edge">
<title>Node1&#45;&gt;Node2</title>
<path fill="none" stroke="#63b8ff" d="M177.65,-142.6C158.18,-132.35 131.78,-118.45 110.37,-107.18"/>
<polygon fill="#63b8ff" stroke="#63b8ff" points="112.13,-104.15 101.65,-102.59 108.87,-110.34 112.13,-104.15"/>
</g>
<!-- Node3 -->
<g id="node3" class="node">
<title>Node3</title>
<g id="a_node3"><a xlink:href="types_8h.html" target="_top" xlink:title=" ">
<polygon fill="white" stroke="#666666" points="245.5,-96 164.5,-96 164.5,-77 245.5,-77 245.5,-96"/>
<text text-anchor="middle" x="205" y="-84" font-family="Helvetica,sans-Serif" font-size="10.00">dolphin/types.h</text>
</a>
</g>
</g>
<!-- Node1&#45;&gt;Node3 -->
<g id="edge2" class="edge">
<title>Node1&#45;&gt;Node3</title>
<path fill="none" stroke="#63b8ff" d="M205,-142.6C205,-132.43 205,-118.67 205,-107.45"/>
<polygon fill="#63b8ff" stroke="#63b8ff" points="208.5,-107.69 205,-97.69 201.5,-107.69 208.5,-107.69"/>
</g>
<!-- Node5 -->
<g id="node5" class="node">
<title>Node5</title>
<g id="a_node5"><a xlink:title=" ">
<polygon fill="#e0e0e0" stroke="#999999" points="394,-107 264,-107 264,-66 394,-66 394,-107"/>
<text text-anchor="start" x="272" y="-95" font-family="Helvetica,sans-Serif" font-size="10.00">asm/JSystem/JAudio2</text>
<text text-anchor="start" x="272" y="-84" font-family="Helvetica,sans-Serif" font-size="10.00">/JAUClusterSound/__ct</text>
<text text-anchor="middle" x="329" y="-73" font-family="Helvetica,sans-Serif" font-size="10.00">__14JAISoundHandleFv.s</text>
</a>
</g>
</g>
<!-- Node1&#45;&gt;Node5 -->
<g id="edge4" class="edge">
<title>Node1&#45;&gt;Node5</title>
<path fill="none" stroke="#63b8ff" d="M230.69,-142.6C246.02,-134.01 265.91,-122.86 283.78,-112.84"/>
<polygon fill="#63b8ff" stroke="#63b8ff" points="285.13,-116.1 292.15,-108.16 281.71,-109.99 285.13,-116.1"/>
</g>
<!-- Node4 -->
<g id="node4" class="node">
<title>Node4</title>
<g id="a_node4"><a xlink:href="stddef_8h.html" target="_top" xlink:title=" ">
<polygon fill="white" stroke="#666666" points="273,-30 137,-30 137,0 273,0 273,-30"/>
<text text-anchor="start" x="145" y="-18" font-family="Helvetica,sans-Serif" font-size="10.00">MSL_C/MSL_Common/Src</text>
<text text-anchor="middle" x="205" y="-7" font-family="Helvetica,sans-Serif" font-size="10.00">/stddef.h</text>
</a>
</g>
</g>
<!-- Node3&#45;&gt;Node4 -->
<g id="edge3" class="edge">
<title>Node3&#45;&gt;Node4</title>
<path fill="none" stroke="#63b8ff" d="M205,-76.7C205,-67.93 205,-54.05 205,-41.77"/>
<polygon fill="#63b8ff" stroke="#63b8ff" points="208.5,-41.79 205,-31.79 201.5,-41.79 208.5,-41.79"/>
</g>
</g>
</svg>
