<?xml version="1.0" encoding="UTF-8" standalone="no"?>
<!DOCTYPE svg PUBLIC "-//W3C//DTD SVG 1.1//EN"
 "http://www.w3.org/Graphics/SVG/1.1/DTD/svg11.dtd">
<!-- Generated by graphviz version 7.0.5 (20221223.1930)
 -->
<!-- Title: libs/JSystem/JAudio2/JAUSeqDataBlockMgr.cpp Pages: 1 -->
<!--zoomable 511 -->
<svg id="main" version="1.1" xmlns="http://www.w3.org/2000/svg" xmlns:xlink="http://www.w3.org/1999/xlink" xml:space="preserve" onload="init(evt)">
<style type="text/css"><![CDATA[
.edge:hover path { stroke: red; }
.edge:hover polygon { stroke: red; fill: red; }
]]></style>
<script type="text/javascript"><![CDATA[
var edges = document.getElementsByTagName('g');
if (edges && edges.length) {
  for (var i=0;i<edges.length;i++) {
    if (edges[i].id.substr(0,4)=='edge') {
      edges[i].setAttribute('class','edge');
    }
  }
}
]]></script>
        <defs>
                <circle id="rim" cx="0" cy="0" r="7"/>
                <circle id="rim2" cx="0" cy="0" r="3.5"/>
                <g id="zoomPlus">
                        <use xlink:href="#rim" fill="#404040">
                                <set attributeName="fill" to="#808080" begin="zoomplus.mouseover" end="zoomplus.mouseout"/>
                        </use>
                        <path d="M-4,0h8M0,-4v8" fill="none" stroke="white" stroke-width="1.5" pointer-events="none"/>
                </g>
                <g id="zoomMin">
                        <use xlink:href="#rim" fill="#404040">
                                <set attributeName="fill" to="#808080" begin="zoomminus.mouseover" end="zoomminus.mouseout"/>
                        </use>
                        <path d="M-4,0h8" fill="none" stroke="white" stroke-width="1.5" pointer-events="none"/>
                </g>
                <g id="dirArrow">
                        <path fill="none" stroke="white" stroke-width="1.5" d="M0,-3.0v7 M-2.5,-0.5L0,-3.0L2.5,-0.5"/>
                </g>
               <g id="resetDef">
                       <use xlink:href="#rim2" fill="#404040">
                               <set attributeName="fill" to="#808080" begin="reset.mouseover" end="reset.mouseout"/>
                       </use>
               </g>
        </defs>

<script type="text/javascript">
var viewWidth = 2873;
var viewHeight = 511;
var sectionId = 'dynsection-0';
</script>
<script xlink:href="svgpan.js"/>
<svg id="graph" class="graph">
<g id="viewport">
<title>libs/JSystem/JAudio2/JAUSeqDataBlockMgr.cpp</title>
<!-- Node1 -->
<g id="node1" class="node">
<title>Node1</title>
<g id="a_node1"><a xlink:title=" ">
<polygon fill="#999999" stroke="#666666" points="1284.38,-503 1148.38,-503 1148.38,-473 1284.38,-473 1284.38,-503"/>
<text text-anchor="start" x="1156.38" y="-491" font-family="Helvetica,sans-Serif" font-size="10.00">libs/JSystem/JAudio2</text>
<text text-anchor="middle" x="1216.38" y="-480" font-family="Helvetica,sans-Serif" font-size="10.00">/JAUSeqDataBlockMgr.cpp</text>
</a>
</g>
</g>
<!-- Node2 -->
<g id="node2" class="node">
<title>Node2</title>
<g id="a_node2"><a xlink:href="JAUSeqDataBlockMgr_8h.html" target="_top" xlink:title=" ">
<polygon fill="white" stroke="#666666" points="185.88,-420.5 32.88,-420.5 32.88,-390.5 185.88,-390.5 185.88,-420.5"/>
<text text-anchor="start" x="40.88" y="-408.5" font-family="Helvetica,sans-Serif" font-size="10.00">JSystem/JAudio2/JAUSeqData</text>
<text text-anchor="middle" x="109.38" y="-397.5" font-family="Helvetica,sans-Serif" font-size="10.00">BlockMgr.h</text>
</a>
</g>
</g>
<!-- Node1&#45;&gt;Node2 -->
<g id="edge1" class="edge">
<title>Node1&#45;&gt;Node2</title>
<path fill="none" stroke="#63b8ff" d="M1148.1,-486.25C950.16,-483.65 378.52,-473.15 195.38,-437 181.41,-434.24 166.66,-429.67 153.39,-424.88"/>
<polygon fill="#63b8ff" stroke="#63b8ff" points="154.65,-421.62 144.06,-421.39 152.19,-428.17 154.65,-421.62"/>
</g>
<!-- Node6 -->
<g id="node6" class="node">
<title>Node6</title>
<g id="a_node6"><a xlink:href="types_8h.html" target="_top" xlink:title=" ">
<polygon fill="white" stroke="#666666" points="197.88,-90.5 116.88,-90.5 116.88,-71.5 197.88,-71.5 197.88,-90.5"/>
<text text-anchor="middle" x="157.38" y="-78.5" font-family="Helvetica,sans-Serif" font-size="10.00">dolphin/types.h</text>
</a>
</g>
</g>
<!-- Node1&#45;&gt;Node6 -->
<g id="edge20" class="edge">
<title>Node1&#45;&gt;Node6</title>
<path fill="none" stroke="#63b8ff" d="M1148.13,-486.48C901.11,-484.3 65.89,-474.2 23.38,-437 -13.13,-405.05 4.38,-378.02 4.38,-329.5 4.38,-329.5 4.38,-329.5 4.38,-201 4.38,-144.73 69.65,-111.2 114.93,-94.71"/>
<polygon fill="#63b8ff" stroke="#63b8ff" points="115.95,-98.06 124.25,-91.47 113.65,-91.45 115.95,-98.06"/>
</g>
<!-- Node17 -->
<g id="node17" class="node">
<title>Node17</title>
<g id="a_node17"><a xlink:title=" ">
<polygon fill="#e0e0e0" stroke="#999999" points="364.38,-426 204.38,-426 204.38,-385 364.38,-385 364.38,-426"/>
<text text-anchor="start" x="212.38" y="-414" font-family="Helvetica,sans-Serif" font-size="10.00">asm/JSystem/JAudio2</text>
<text text-anchor="start" x="212.38" y="-403" font-family="Helvetica,sans-Serif" font-size="10.00">/JAUSeqDataBlockMgr</text>
<text text-anchor="middle" x="284.38" y="-392" font-family="Helvetica,sans-Serif" font-size="10.00">/__ct__15JAUSeqDataBlockFv.s</text>
</a>
</g>
</g>
<!-- Node1&#45;&gt;Node17 -->
<g id="edge21" class="edge">
<title>Node1&#45;&gt;Node17</title>
<path fill="none" stroke="#63b8ff" d="M1147.93,-485.29C974.66,-480.59 521.96,-465.85 374.38,-437 365.18,-435.2 355.64,-432.7 346.36,-429.9"/>
<polygon fill="#63b8ff" stroke="#63b8ff" points="347.64,-426.64 337.05,-426.95 345.53,-433.31 347.64,-426.64"/>
</g>
<!-- Node18 -->
<g id="node18" class="node">
<title>Node18</title>
<g id="a_node18"><a xlink:title=" ">
<polygon fill="#e0e0e0" stroke="#999999" points="561.88,-431.5 382.88,-431.5 382.88,-379.5 561.88,-379.5 561.88,-431.5"/>
<text text-anchor="start" x="390.88" y="-419.5" font-family="Helvetica,sans-Serif" font-size="10.00">asm/JSystem/JAudio2</text>
<text text-anchor="start" x="390.88" y="-408.5" font-family="Helvetica,sans-Serif" font-size="10.00">/JAUSeqDataBlockMgr</text>
<text text-anchor="start" x="390.88" y="-397.5" font-family="Helvetica,sans-Serif" font-size="10.00">/getSeqData__16JAUSeqDataBlocks</text>
<text text-anchor="middle" x="472.38" y="-386.5" font-family="Helvetica,sans-Serif" font-size="10.00">F10JAISoundID.s</text>
</a>
</g>
</g>
<!-- Node1&#45;&gt;Node18 -->
<g id="edge22" class="edge">
<title>Node1&#45;&gt;Node18</title>
<path fill="none" stroke="#63b8ff" d="M1147.93,-486.65C1029.43,-484.94 778.81,-476.49 571.38,-437 567.76,-436.31 564.08,-435.54 560.38,-434.69"/>
<polygon fill="#63b8ff" stroke="#63b8ff" points="561.26,-431.31 550.72,-432.34 559.61,-438.11 561.26,-431.31"/>
</g>
<!-- Node19 -->
<g id="node19" class="node">
<title>Node19</title>
<g id="a_node19"><a xlink:title=" ">
<polygon fill="#e0e0e0" stroke="#999999" points="742.88,-431.5 579.88,-431.5 579.88,-379.5 742.88,-379.5 742.88,-431.5"/>
<text text-anchor="start" x="587.88" y="-419.5" font-family="Helvetica,sans-Serif" font-size="10.00">asm/JSystem/JAudio2</text>
<text text-anchor="start" x="587.88" y="-408.5" font-family="Helvetica,sans-Serif" font-size="10.00">/JAUSeqDataBlockMgr</text>
<text text-anchor="start" x="587.88" y="-397.5" font-family="Helvetica,sans-Serif" font-size="10.00">/seekFreeBlock__16JAUSeqData</text>
<text text-anchor="middle" x="661.38" y="-386.5" font-family="Helvetica,sans-Serif" font-size="10.00">BlocksFUl.s</text>
</a>
</g>
</g>
<!-- Node1&#45;&gt;Node19 -->
<g id="edge23" class="edge">
<title>Node1&#45;&gt;Node19</title>
<path fill="none" stroke="#63b8ff" d="M1148.02,-484.25C1056.86,-479.54 890.89,-467.3 752.38,-437 749.43,-436.35 746.44,-435.65 743.43,-434.89"/>
<polygon fill="#63b8ff" stroke="#63b8ff" points="744.53,-431.56 733.96,-432.35 742.71,-438.32 744.53,-431.56"/>
</g>
<!-- Node20 -->
<g id="node20" class="node">
<title>Node20</title>
<g id="a_node20"><a xlink:title=" ">
<polygon fill="#e0e0e0" stroke="#999999" points="879.38,-426 761.38,-426 761.38,-385 879.38,-385 879.38,-426"/>
<text text-anchor="start" x="769.38" y="-414" font-family="Helvetica,sans-Serif" font-size="10.00">asm/JSystem/JAudio2</text>
<text text-anchor="start" x="769.38" y="-403" font-family="Helvetica,sans-Serif" font-size="10.00">/JAUSeqDataBlockMgr</text>
<text text-anchor="middle" x="820.38" y="-392" font-family="Helvetica,sans-Serif" font-size="10.00">/func_802A69D8.s</text>
</a>
</g>
</g>
<!-- Node1&#45;&gt;Node20 -->
<g id="edge24" class="edge">
<title>Node1&#45;&gt;Node20</title>
<path fill="none" stroke="#63b8ff" d="M1148,-481.99C1080.82,-475.82 975.96,-462.8 888.38,-437 882.48,-435.26 876.43,-433.12 870.49,-430.78"/>
<polygon fill="#63b8ff" stroke="#63b8ff" points="871.94,-427.6 861.36,-426.99 869.26,-434.06 871.94,-427.6"/>
</g>
<!-- Node21 -->
<g id="node21" class="node">
<title>Node21</title>
<g id="a_node21"><a xlink:title=" ">
<polygon fill="#e0e0e0" stroke="#999999" points="1015.38,-426 897.38,-426 897.38,-385 1015.38,-385 1015.38,-426"/>
<text text-anchor="start" x="905.38" y="-414" font-family="Helvetica,sans-Serif" font-size="10.00">asm/JSystem/JAudio2</text>
<text text-anchor="start" x="905.38" y="-403" font-family="Helvetica,sans-Serif" font-size="10.00">/JAUSeqDataBlockMgr</text>
<text text-anchor="middle" x="956.38" y="-392" font-family="Helvetica,sans-Serif" font-size="10.00">/func_802A69F8.s</text>
</a>
</g>
</g>
<!-- Node1&#45;&gt;Node21 -->
<g id="edge25" class="edge">
<title>Node1&#45;&gt;Node21</title>
<path fill="none" stroke="#63b8ff" d="M1149.8,-472.55C1112.47,-463.74 1065.32,-451.4 1024.38,-437 1019.1,-435.14 1013.66,-433.04 1008.27,-430.83"/>
<polygon fill="#63b8ff" stroke="#63b8ff" points="1009.98,-427.76 999.4,-427.08 1007.25,-434.2 1009.98,-427.76"/>
</g>
<!-- Node22 -->
<g id="node22" class="node">
<title>Node22</title>
<g id="a_node22"><a xlink:title=" ">
<polygon fill="#e0e0e0" stroke="#999999" points="1197.38,-431.5 1033.38,-431.5 1033.38,-379.5 1197.38,-379.5 1197.38,-431.5"/>
<text text-anchor="start" x="1041.38" y="-419.5" font-family="Helvetica,sans-Serif" font-size="10.00">asm/JSystem/JAudio2</text>
<text text-anchor="start" x="1041.38" y="-408.5" font-family="Helvetica,sans-Serif" font-size="10.00">/JAUSeqDataBlockMgr</text>
<text text-anchor="start" x="1041.38" y="-397.5" font-family="Helvetica,sans-Serif" font-size="10.00">/hasFailedBlock__16JAUSeqData</text>
<text text-anchor="middle" x="1115.38" y="-386.5" font-family="Helvetica,sans-Serif" font-size="10.00">BlocksF10JAISoundID.s</text>
</a>
</g>
</g>
<!-- Node1&#45;&gt;Node22 -->
<g id="edge26" class="edge">
<title>Node1&#45;&gt;Node22</title>
<path fill="none" stroke="#63b8ff" d="M1198.32,-472.61C1186.57,-463.25 1170.77,-450.65 1156.1,-438.96"/>
<polygon fill="#63b8ff" stroke="#63b8ff" points="1158.35,-436.27 1148.35,-432.78 1153.99,-441.75 1158.35,-436.27"/>
</g>
<!-- Node23 -->
<g id="node23" class="node">
<title>Node23</title>
<g id="a_node23"><a xlink:title=" ">
<polygon fill="#e0e0e0" stroke="#999999" points="1418.88,-426 1215.88,-426 1215.88,-385 1418.88,-385 1418.88,-426"/>
<text text-anchor="start" x="1223.88" y="-414" font-family="Helvetica,sans-Serif" font-size="10.00">asm/JSystem/JAudio2</text>
<text text-anchor="start" x="1223.88" y="-403" font-family="Helvetica,sans-Serif" font-size="10.00">/JAUSeqDataBlockMgr</text>
<text text-anchor="middle" x="1317.38" y="-392" font-family="Helvetica,sans-Serif" font-size="10.00">/__ct__23JAUDynamicSeqDataBlocksFv.s</text>
</a>
</g>
</g>
<!-- Node1&#45;&gt;Node23 -->
<g id="edge27" class="edge">
<title>Node1&#45;&gt;Node23</title>
<path fill="none" stroke="#63b8ff" d="M1234.43,-472.61C1248.13,-461.7 1267.34,-446.38 1283.82,-433.24"/>
<polygon fill="#63b8ff" stroke="#63b8ff" points="1285.83,-436.12 1291.46,-427.15 1281.46,-430.65 1285.83,-436.12"/>
</g>
<!-- Node24 -->
<g id="node24" class="node">
<title>Node24</title>
<g id="a_node24"><a xlink:title=" ">
<polygon fill="#e0e0e0" stroke="#999999" points="1555.38,-426 1437.38,-426 1437.38,-385 1555.38,-385 1555.38,-426"/>
<text text-anchor="start" x="1445.38" y="-414" font-family="Helvetica,sans-Serif" font-size="10.00">asm/JSystem/JAudio2</text>
<text text-anchor="start" x="1445.38" y="-403" font-family="Helvetica,sans-Serif" font-size="10.00">/JAUSeqDataBlockMgr</text>
<text text-anchor="middle" x="1496.38" y="-392" font-family="Helvetica,sans-Serif" font-size="10.00">/func_802A6AA8.s</text>
</a>
</g>
</g>
<!-- Node1&#45;&gt;Node24 -->
<g id="edge28" class="edge">
<title>Node1&#45;&gt;Node24</title>
<path fill="none" stroke="#63b8ff" d="M1284.61,-474.35C1326.63,-465.71 1381.28,-452.95 1428.38,-437 1433.75,-435.18 1439.29,-433.09 1444.76,-430.87"/>
<polygon fill="#63b8ff" stroke="#63b8ff" points="1445.91,-434.18 1453.77,-427.07 1443.19,-427.73 1445.91,-434.18"/>
</g>
<!-- Node25 -->
<g id="node25" class="node">
<title>Node25</title>
<g id="a_node25"><a xlink:title=" ">
<polygon fill="#e0e0e0" stroke="#999999" points="1795.38,-437 1573.38,-437 1573.38,-374 1795.38,-374 1795.38,-437"/>
<text text-anchor="start" x="1581.38" y="-425" font-family="Helvetica,sans-Serif" font-size="10.00">asm/JSystem/JAudio2</text>
<text text-anchor="start" x="1581.38" y="-414" font-family="Helvetica,sans-Serif" font-size="10.00">/JAUSeqDataBlockMgr</text>
<text text-anchor="start" x="1581.38" y="-403" font-family="Helvetica,sans-Serif" font-size="10.00">/appendDynamicSeqDataBlock</text>
<text text-anchor="start" x="1581.38" y="-392" font-family="Helvetica,sans-Serif" font-size="10.00">__23JAUDynamicSeqDataBlocksFP15JAUSeq</text>
<text text-anchor="middle" x="1684.38" y="-381" font-family="Helvetica,sans-Serif" font-size="10.00">DataBlock.s</text>
</a>
</g>
</g>
<!-- Node1&#45;&gt;Node25 -->
<g id="edge29" class="edge">
<title>Node1&#45;&gt;Node25</title>
<path fill="none" stroke="#63b8ff" d="M1284.76,-479.35C1352.72,-471.26 1460.11,-457.15 1561.9,-437.41"/>
<polygon fill="#63b8ff" stroke="#63b8ff" points="1562.38,-440.89 1571.52,-435.53 1561.03,-434.02 1562.38,-440.89"/>
</g>
<!-- Node26 -->
<g id="node26" class="node">
<title>Node26</title>
<g id="a_node26"><a xlink:title=" ">
<polygon fill="#e0e0e0" stroke="#999999" points="1957.38,-431.5 1813.38,-431.5 1813.38,-379.5 1957.38,-379.5 1957.38,-431.5"/>
<text text-anchor="start" x="1821.38" y="-419.5" font-family="Helvetica,sans-Serif" font-size="10.00">asm/JSystem/JAudio2</text>
<text text-anchor="start" x="1821.38" y="-408.5" font-family="Helvetica,sans-Serif" font-size="10.00">/JAUSeqDataBlockMgr</text>
<text text-anchor="start" x="1821.38" y="-397.5" font-family="Helvetica,sans-Serif" font-size="10.00">/JAUDynamicSeqDataBlocks</text>
<text text-anchor="middle" x="1885.38" y="-386.5" font-family="Helvetica,sans-Serif" font-size="10.00">_receiveLoaded___FUlUl.s</text>
</a>
</g>
</g>
<!-- Node1&#45;&gt;Node26 -->
<g id="edge30" class="edge">
<title>Node1&#45;&gt;Node26</title>
<path fill="none" stroke="#63b8ff" d="M1284.77,-487.24C1395.37,-486.29 1619.76,-478.76 1804.38,-437 1806.97,-436.41 1809.6,-435.76 1812.24,-435.06"/>
<polygon fill="#63b8ff" stroke="#63b8ff" points="1813.03,-438.47 1821.65,-432.31 1811.07,-431.75 1813.03,-438.47"/>
</g>
<!-- Node27 -->
<g id="node27" class="node">
<title>Node27</title>
<g id="a_node27"><a xlink:title=" ">
<polygon fill="#e0e0e0" stroke="#999999" points="2183.38,-437 1975.38,-437 1975.38,-374 2183.38,-374 2183.38,-437"/>
<text text-anchor="start" x="1983.38" y="-425" font-family="Helvetica,sans-Serif" font-size="10.00">asm/JSystem/JAudio2</text>
<text text-anchor="start" x="1983.38" y="-414" font-family="Helvetica,sans-Serif" font-size="10.00">/JAUSeqDataBlockMgr</text>
<text text-anchor="start" x="1983.38" y="-403" font-family="Helvetica,sans-Serif" font-size="10.00">/loadDynamicSeq__23JAUDynamic</text>
<text text-anchor="start" x="1983.38" y="-392" font-family="Helvetica,sans-Serif" font-size="10.00">SeqDataBlocksF10JAISoundIDbP14JAISeq</text>
<text text-anchor="middle" x="2079.38" y="-381" font-family="Helvetica,sans-Serif" font-size="10.00">DataUser.s</text>
</a>
</g>
</g>
<!-- Node1&#45;&gt;Node27 -->
<g id="edge31" class="edge">
<title>Node1&#45;&gt;Node27</title>
<path fill="none" stroke="#63b8ff" d="M1284.63,-486.93C1415.1,-485.83 1708.85,-478.66 1963.84,-437.29"/>
<polygon fill="#63b8ff" stroke="#63b8ff" points="1964.39,-440.75 1973.69,-435.67 1963.25,-433.84 1964.39,-440.75"/>
</g>
<!-- Node28 -->
<g id="node28" class="node">
<title>Node28</title>
<g id="a_node28"><a xlink:title=" ">
<polygon fill="#e0e0e0" stroke="#999999" points="2419.38,-437 2201.38,-437 2201.38,-374 2419.38,-374 2419.38,-437"/>
<text text-anchor="start" x="2209.38" y="-425" font-family="Helvetica,sans-Serif" font-size="10.00">asm/JSystem/JAudio2</text>
<text text-anchor="start" x="2209.38" y="-414" font-family="Helvetica,sans-Serif" font-size="10.00">/JAUSeqDataBlockMgr</text>
<text text-anchor="start" x="2209.38" y="-403" font-family="Helvetica,sans-Serif" font-size="10.00">/releaseIdleDynamicSeqDataBlock</text>
<text text-anchor="start" x="2209.38" y="-392" font-family="Helvetica,sans-Serif" font-size="10.00">__23JAUDynamicSeqDataBlocksFP14JAISeq</text>
<text text-anchor="middle" x="2310.38" y="-381" font-family="Helvetica,sans-Serif" font-size="10.00">DataUser.s</text>
</a>
</g>
</g>
<!-- Node1&#45;&gt;Node28 -->
<g id="edge32" class="edge">
<title>Node1&#45;&gt;Node28</title>
<path fill="none" stroke="#63b8ff" d="M1284.58,-485.3C1472.47,-480.33 1995.92,-464.52 2189.74,-437.23"/>
<polygon fill="#63b8ff" stroke="#63b8ff" points="2190.05,-440.73 2199.43,-435.81 2189.03,-433.8 2190.05,-440.73"/>
</g>
<!-- Node29 -->
<g id="node29" class="node">
<title>Node29</title>
<g id="a_node29"><a xlink:title=" ">
<polygon fill="#e0e0e0" stroke="#999999" points="2660.88,-437 2437.88,-437 2437.88,-374 2660.88,-374 2660.88,-437"/>
<text text-anchor="start" x="2445.88" y="-425" font-family="Helvetica,sans-Serif" font-size="10.00">asm/JSystem/JAudio2</text>
<text text-anchor="start" x="2445.88" y="-414" font-family="Helvetica,sans-Serif" font-size="10.00">/JAUSeqDataBlockMgr</text>
<text text-anchor="start" x="2445.88" y="-403" font-family="Helvetica,sans-Serif" font-size="10.00">/releaseIdleDynamicSeqDataBlock</text>
<text text-anchor="start" x="2445.88" y="-392" font-family="Helvetica,sans-Serif" font-size="10.00">___23JAUDynamicSeqDataBlocksFP14JAISeq</text>
<text text-anchor="middle" x="2549.38" y="-381" font-family="Helvetica,sans-Serif" font-size="10.00">DataUserUl.s</text>
</a>
</g>
</g>
<!-- Node1&#45;&gt;Node29 -->
<g id="edge33" class="edge">
<title>Node1&#45;&gt;Node29</title>
<path fill="none" stroke="#63b8ff" d="M1284.76,-486.03C1503.17,-482.64 2183.4,-469.8 2426.24,-437.14"/>
<polygon fill="#63b8ff" stroke="#63b8ff" points="2426.55,-440.63 2435.97,-435.78 2425.58,-433.7 2426.55,-440.63"/>
</g>
<!-- Node30 -->
<g id="node30" class="node">
<title>Node30</title>
<g id="a_node30"><a xlink:title=" ">
<polygon fill="#e0e0e0" stroke="#999999" points="2865.38,-431.5 2679.38,-431.5 2679.38,-379.5 2865.38,-379.5 2865.38,-431.5"/>
<text text-anchor="start" x="2687.38" y="-419.5" font-family="Helvetica,sans-Serif" font-size="10.00">asm/JSystem/JAudio2</text>
<text text-anchor="start" x="2687.38" y="-408.5" font-family="Helvetica,sans-Serif" font-size="10.00">/JAUSeqDataBlockMgr</text>
<text text-anchor="start" x="2687.38" y="-397.5" font-family="Helvetica,sans-Serif" font-size="10.00">/rearrangeLoadingSeqs</text>
<text text-anchor="middle" x="2772.38" y="-386.5" font-family="Helvetica,sans-Serif" font-size="10.00">___23JAUDynamicSeqDataBlocksFv.s</text>
</a>
</g>
</g>
<!-- Node1&#45;&gt;Node30 -->
<g id="edge34" class="edge">
<title>Node1&#45;&gt;Node30</title>
<path fill="none" stroke="#63b8ff" d="M1284.59,-486.97C1534.35,-486.48 2398.54,-481.56 2670.38,-437 2674.72,-436.29 2679.13,-435.45 2683.57,-434.5"/>
<polygon fill="#63b8ff" stroke="#63b8ff" points="2684.17,-437.96 2693.14,-432.31 2682.61,-431.13 2684.17,-437.96"/>
</g>
<!-- Node3 -->
<g id="node3" class="node">
<title>Node3</title>
<g id="a_node3"><a xlink:href="JAISound_8h.html" target="_top" xlink:title=" ">
<polygon fill="white" stroke="#666666" points="340.38,-338 194.38,-338 194.38,-319 340.38,-319 340.38,-338"/>
<text text-anchor="middle" x="267.38" y="-326" font-family="Helvetica,sans-Serif" font-size="10.00">JSystem/JAudio2/JAISound.h</text>
</a>
</g>
</g>
<!-- Node2&#45;&gt;Node3 -->
<g id="edge2" class="edge">
<title>Node2&#45;&gt;Node3</title>
<path fill="none" stroke="#63b8ff" d="M139.84,-390.04C168.34,-376.51 210.6,-356.45 238.56,-343.18"/>
<polygon fill="#63b8ff" stroke="#63b8ff" points="239.97,-346.39 247.5,-338.94 236.96,-340.06 239.97,-346.39"/>
</g>
<!-- Node16 -->
<g id="node16" class="node">
<title>Node16</title>
<g id="a_node16"><a xlink:href="JSUList_8h.html" target="_top" xlink:title=" ">
<polygon fill="white" stroke="#666666" points="175.88,-338 32.88,-338 32.88,-319 175.88,-319 175.88,-338"/>
<text text-anchor="middle" x="104.38" y="-326" font-family="Helvetica,sans-Serif" font-size="10.00">JSystem/JSupport/JSUList.h</text>
</a>
</g>
</g>
<!-- Node2&#45;&gt;Node16 -->
<g id="edge18" class="edge">
<title>Node2&#45;&gt;Node16</title>
<path fill="none" stroke="#63b8ff" d="M108.41,-390.04C107.65,-378.55 106.57,-362.34 105.72,-349.59"/>
<polygon fill="#63b8ff" stroke="#63b8ff" points="109.22,-349.54 105.06,-339.8 102.24,-350.01 109.22,-349.54"/>
</g>
<!-- Node4 -->
<g id="node4" class="node">
<title>Node4</title>
<g id="a_node4"><a xlink:href="JAISoundParams_8h.html" target="_top" xlink:title=" ">
<polygon fill="white" stroke="#666666" points="333.88,-283 194.88,-283 194.88,-253 333.88,-253 333.88,-283"/>
<text text-anchor="start" x="202.88" y="-271" font-family="Helvetica,sans-Serif" font-size="10.00">JSystem/JAudio2/JAISound</text>
<text text-anchor="middle" x="264.38" y="-260" font-family="Helvetica,sans-Serif" font-size="10.00">Params.h</text>
</a>
</g>
</g>
<!-- Node3&#45;&gt;Node4 -->
<g id="edge3" class="edge">
<title>Node3&#45;&gt;Node4</title>
<path fill="none" stroke="#63b8ff" d="M266.94,-318.87C266.6,-312.4 266.13,-303.2 265.68,-294.45"/>
<polygon fill="#63b8ff" stroke="#63b8ff" points="269.19,-294.43 265.18,-284.63 262.2,-294.79 269.19,-294.43"/>
</g>
<!-- Node8 -->
<g id="node8" class="node">
<title>Node8</title>
<g id="a_node8"><a xlink:href="JAIAudible_8h.html" target="_top" xlink:title=" ">
<polygon fill="white" stroke="#666666" points="502.88,-277.5 351.88,-277.5 351.88,-258.5 502.88,-258.5 502.88,-277.5"/>
<text text-anchor="middle" x="427.38" y="-265.5" font-family="Helvetica,sans-Serif" font-size="10.00">JSystem/JAudio2/JAIAudible.h</text>
</a>
</g>
</g>
<!-- Node3&#45;&gt;Node8 -->
<g id="edge7" class="edge">
<title>Node3&#45;&gt;Node8</title>
<path fill="none" stroke="#63b8ff" d="M291.68,-318.62C318.46,-308.82 361.78,-292.98 392.26,-281.84"/>
<polygon fill="#63b8ff" stroke="#63b8ff" points="393.24,-285.21 401.43,-278.49 390.83,-278.64 393.24,-285.21"/>
</g>
<!-- Node15 -->
<g id="node15" class="node">
<title>Node15</title>
<g id="a_node15"><a xlink:href="global_8h.html" target="_top" xlink:title=" ">
<polygon fill="white" stroke="#666666" points="182.38,-211.5 132.38,-211.5 132.38,-192.5 182.38,-192.5 182.38,-211.5"/>
<text text-anchor="middle" x="157.38" y="-199.5" font-family="Helvetica,sans-Serif" font-size="10.00">global.h</text>
</a>
</g>
</g>
<!-- Node3&#45;&gt;Node15 -->
<g id="edge16" class="edge">
<title>Node3&#45;&gt;Node15</title>
<path fill="none" stroke="#63b8ff" d="M240.79,-318.57C223.19,-311.44 200.78,-299.82 186.38,-283 171.69,-265.84 164.2,-240.64 160.55,-223.13"/>
<polygon fill="#63b8ff" stroke="#63b8ff" points="164.03,-222.66 158.8,-213.45 157.14,-223.91 164.03,-222.66"/>
</g>
<!-- Node5 -->
<g id="node5" class="node">
<title>Node5</title>
<g id="a_node5"><a xlink:href="JASSoundParams_8h.html" target="_top" xlink:title=" ">
<polygon fill="white" stroke="#666666" points="343.88,-217 200.88,-217 200.88,-187 343.88,-187 343.88,-217"/>
<text text-anchor="start" x="208.88" y="-205" font-family="Helvetica,sans-Serif" font-size="10.00">JSystem/JAudio2/JASSound</text>
<text text-anchor="middle" x="272.38" y="-194" font-family="Helvetica,sans-Serif" font-size="10.00">Params.h</text>
</a>
</g>
</g>
<!-- Node4&#45;&gt;Node5 -->
<g id="edge4" class="edge">
<title>Node4&#45;&gt;Node5</title>
<path fill="none" stroke="#63b8ff" d="M266.15,-252.8C267.04,-245.67 268.15,-236.82 269.18,-228.56"/>
<polygon fill="#63b8ff" stroke="#63b8ff" points="272.65,-229.02 270.42,-218.67 265.71,-228.15 272.65,-229.02"/>
</g>
<!-- Node5&#45;&gt;Node6 -->
<g id="edge5" class="edge">
<title>Node5&#45;&gt;Node6</title>
<path fill="none" stroke="#63b8ff" d="M258.73,-186.88C237.42,-164.83 196.31,-122.29 173.55,-98.73"/>
<polygon fill="#63b8ff" stroke="#63b8ff" points="176.31,-96.56 166.85,-91.8 171.28,-101.42 176.31,-96.56"/>
</g>
<!-- Node7 -->
<g id="node7" class="node">
<title>Node7</title>
<g id="a_node7"><a xlink:href="stddef_8h.html" target="_top" xlink:title=" ">
<polygon fill="white" stroke="#666666" points="225.38,-30 89.38,-30 89.38,0 225.38,0 225.38,-30"/>
<text text-anchor="start" x="97.38" y="-18" font-family="Helvetica,sans-Serif" font-size="10.00">MSL_C/MSL_Common/Src</text>
<text text-anchor="middle" x="157.38" y="-7" font-family="Helvetica,sans-Serif" font-size="10.00">/stddef.h</text>
</a>
</g>
</g>
<!-- Node6&#45;&gt;Node7 -->
<g id="edge6" class="edge">
<title>Node6&#45;&gt;Node7</title>
<path fill="none" stroke="#63b8ff" d="M157.38,-71.1C157.38,-63.41 157.38,-51.92 157.38,-41.42"/>
<polygon fill="#63b8ff" stroke="#63b8ff" points="160.88,-41.75 157.38,-31.75 153.88,-41.75 160.88,-41.75"/>
</g>
<!-- Node9 -->
<g id="node9" class="node">
<title>Node9</title>
<g id="a_node9"><a xlink:href="JGeometry_8h.html" target="_top" xlink:title=" ">
<polygon fill="white" stroke="#666666" points="480.88,-211.5 367.88,-211.5 367.88,-192.5 480.88,-192.5 480.88,-211.5"/>
<text text-anchor="middle" x="424.38" y="-199.5" font-family="Helvetica,sans-Serif" font-size="10.00">JSystem/JGeometry.h</text>
</a>
</g>
</g>
<!-- Node8&#45;&gt;Node9 -->
<g id="edge8" class="edge">
<title>Node8&#45;&gt;Node9</title>
<path fill="none" stroke="#63b8ff" d="M426.96,-258.1C426.54,-249.12 425.88,-234.95 425.33,-223.22"/>
<polygon fill="#63b8ff" stroke="#63b8ff" points="428.83,-223.16 424.86,-213.34 421.83,-223.49 428.83,-223.16"/>
</g>
<!-- Node10 -->
<g id="node10" class="node">
<title>Node10</title>
<g id="a_node10"><a xlink:href="vec_8h.html" target="_top" xlink:title=" ">
<polygon fill="white" stroke="#666666" points="354.38,-151 262.38,-151 262.38,-132 354.38,-132 354.38,-151"/>
<text text-anchor="middle" x="308.38" y="-139" font-family="Helvetica,sans-Serif" font-size="10.00">dolphin/mtx/vec.h</text>
</a>
</g>
</g>
<!-- Node9&#45;&gt;Node10 -->
<g id="edge9" class="edge">
<title>Node9&#45;&gt;Node10</title>
<path fill="none" stroke="#63b8ff" d="M406.76,-192.12C388.02,-182.67 358.12,-167.59 336.2,-156.53"/>
<polygon fill="#63b8ff" stroke="#63b8ff" points="338.02,-153.53 327.51,-152.15 334.87,-159.78 338.02,-153.53"/>
</g>
<!-- Node11 -->
<g id="node11" class="node">
<title>Node11</title>
<g id="a_node11"><a xlink:href="float_8h.html" target="_top" xlink:title=" ">
<polygon fill="white" stroke="#666666" points="456.38,-151 378.38,-151 378.38,-132 456.38,-132 456.38,-151"/>
<text text-anchor="middle" x="417.38" y="-139" font-family="Helvetica,sans-Serif" font-size="10.00">MSL_C/float.h</text>
</a>
</g>
</g>
<!-- Node9&#45;&gt;Node11 -->
<g id="edge11" class="edge">
<title>Node9&#45;&gt;Node11</title>
<path fill="none" stroke="#63b8ff" d="M423.35,-192.37C422.4,-184.5 420.98,-172.6 419.76,-162.39"/>
<polygon fill="#63b8ff" stroke="#63b8ff" points="423.26,-162.18 418.6,-152.67 416.31,-163.02 423.26,-162.18"/>
</g>
<!-- Node14 -->
<g id="node14" class="node">
<title>Node14</title>
<g id="a_node14"><a xlink:href="math_8h.html" target="_top" xlink:title=" ">
<polygon fill="white" stroke="#666666" points="556.38,-151 474.38,-151 474.38,-132 556.38,-132 556.38,-151"/>
<text text-anchor="middle" x="515.38" y="-139" font-family="Helvetica,sans-Serif" font-size="10.00">MSL_C/math.h</text>
</a>
</g>
</g>
<!-- Node9&#45;&gt;Node14 -->
<g id="edge14" class="edge">
<title>Node9&#45;&gt;Node14</title>
<path fill="none" stroke="#63b8ff" d="M438.2,-192.12C452.5,-182.92 475.08,-168.41 492.13,-157.44"/>
<polygon fill="#63b8ff" stroke="#63b8ff" points="493.63,-160.64 500.15,-152.29 489.85,-154.75 493.63,-160.64"/>
</g>
<!-- Node10&#45;&gt;Node6 -->
<g id="edge10" class="edge">
<title>Node10&#45;&gt;Node6</title>
<path fill="none" stroke="#63b8ff" d="M285.44,-131.62C260.28,-121.87 219.64,-106.12 190.9,-94.99"/>
<polygon fill="#63b8ff" stroke="#63b8ff" points="192.53,-91.86 181.94,-91.52 190,-98.39 192.53,-91.86"/>
</g>
<!-- Node12 -->
<g id="node12" class="node">
<title>Node12</title>
<g id="a_node12"><a xlink:href="MSL__Common_2Src_2float_8h.html" target="_top" xlink:title=" ">
<polygon fill="white" stroke="#666666" points="534.38,-96 398.38,-96 398.38,-66 534.38,-66 534.38,-96"/>
<text text-anchor="start" x="406.38" y="-84" font-family="Helvetica,sans-Serif" font-size="10.00">MSL_C/MSL_Common/Src</text>
<text text-anchor="middle" x="466.38" y="-73" font-family="Helvetica,sans-Serif" font-size="10.00">/float.h</text>
</a>
</g>
</g>
<!-- Node11&#45;&gt;Node12 -->
<g id="edge12" class="edge">
<title>Node11&#45;&gt;Node12</title>
<path fill="none" stroke="#63b8ff" d="M424.61,-131.87C430.58,-124.74 439.34,-114.28 447.29,-104.79"/>
<polygon fill="#63b8ff" stroke="#63b8ff" points="449.85,-107.19 453.58,-97.27 444.48,-102.69 449.85,-107.19"/>
</g>
<!-- Node13 -->
<g id="node13" class="node">
<title>Node13</title>
<g id="a_node13"><a xlink:href="fdlibm_8h.html" target="_top" xlink:title=" ">
<polygon fill="white" stroke="#666666" points="491.38,-24.5 441.38,-24.5 441.38,-5.5 491.38,-5.5 491.38,-24.5"/>
<text text-anchor="middle" x="466.38" y="-12.5" font-family="Helvetica,sans-Serif" font-size="10.00">fdlibm.h</text>
</a>
</g>
</g>
<!-- Node12&#45;&gt;Node13 -->
<g id="edge13" class="edge">
<title>Node12&#45;&gt;Node13</title>
<path fill="none" stroke="#63b8ff" d="M466.38,-65.8C466.38,-57.09 466.38,-45.81 466.38,-36.18"/>
<polygon fill="#63b8ff" stroke="#63b8ff" points="469.88,-36.36 466.38,-26.36 462.88,-36.36 469.88,-36.36"/>
</g>
<!-- Node14&#45;&gt;Node12 -->
<g id="edge15" class="edge">
<title>Node14&#45;&gt;Node12</title>
<path fill="none" stroke="#63b8ff" d="M508.15,-131.87C502.18,-124.74 493.42,-114.28 485.46,-104.79"/>
<polygon fill="#63b8ff" stroke="#63b8ff" points="488.28,-102.69 479.17,-97.27 482.91,-107.19 488.28,-102.69"/>
</g>
<!-- Node15&#45;&gt;Node6 -->
<g id="edge17" class="edge">
<title>Node15&#45;&gt;Node6</title>
<path fill="none" stroke="#63b8ff" d="M157.38,-192.06C157.38,-173.1 157.38,-128.47 157.38,-102.23"/>
<polygon fill="#63b8ff" stroke="#63b8ff" points="160.88,-102.24 157.38,-92.24 153.88,-102.24 160.88,-102.24"/>
</g>
<!-- Node16&#45;&gt;Node6 -->
<g id="edge19" class="edge">
<title>Node16&#45;&gt;Node6</title>
<path fill="none" stroke="#63b8ff" d="M105.03,-318.52C106.79,-296.11 112.23,-235.96 123.38,-187 130.31,-156.54 142.2,-122.3 149.92,-101.44"/>
<polygon fill="#63b8ff" stroke="#63b8ff" points="153.13,-102.85 153.39,-92.25 146.58,-100.38 153.13,-102.85"/>
</g>
</g>
</svg>
        <g id="navigator" transform="translate(0 0)" fill="#404254">
                <rect fill="#f2f5e9" fill-opacity="0.5" stroke="#606060" stroke-width=".5" x="0" y="0" width="60" height="60"/>
                <use id="zoomplus" xlink:href="#zoomPlus" x="17" y="9" onmousedown="handleZoom(evt,'in')"/>
                <use id="zoomminus" xlink:href="#zoomMin" x="42" y="9" onmousedown="handleZoom(evt,'out')"/>
                <use id="reset" xlink:href="#resetDef" x="30" y="36" onmousedown="handleReset()"/>
                <g id="arrowUp" xlink:href="#dirArrow" transform="translate(30 24)" onmousedown="handlePan(0,-1)">
                  <use xlink:href="#rim" fill="#404040">
                        <set attributeName="fill" to="#808080" begin="arrowUp.mouseover" end="arrowUp.mouseout"/>
                  </use>
                  <path fill="none" stroke="white" stroke-width="1.5" d="M0,-3.0v7 M-2.5,-0.5L0,-3.0L2.5,-0.5"/>
                </g>
                <g id="arrowRight" xlink:href="#dirArrow" transform="rotate(90) translate(36 -43)" onmousedown="handlePan(1,0)">
                  <use xlink:href="#rim" fill="#404040">
                        <set attributeName="fill" to="#808080" begin="arrowRight.mouseover" end="arrowRight.mouseout"/>
                  </use>
                  <path fill="none" stroke="white" stroke-width="1.5" d="M0,-3.0v7 M-2.5,-0.5L0,-3.0L2.5,-0.5"/>
                </g>
                <g id="arrowDown" xlink:href="#dirArrow" transform="rotate(180) translate(-30 -48)" onmousedown="handlePan(0,1)">
                  <use xlink:href="#rim" fill="#404040">
                        <set attributeName="fill" to="#808080" begin="arrowDown.mouseover" end="arrowDown.mouseout"/>
                  </use>
                  <path fill="none" stroke="white" stroke-width="1.5" d="M0,-3.0v7 M-2.5,-0.5L0,-3.0L2.5,-0.5"/>
                </g>
                <g id="arrowLeft" xlink:href="#dirArrow" transform="rotate(270) translate(-36 17)" onmousedown="handlePan(-1,0)">
                  <use xlink:href="#rim" fill="#404040">
                        <set attributeName="fill" to="#808080" begin="arrowLeft.mouseover" end="arrowLeft.mouseout"/>
                  </use>
                  <path fill="none" stroke="white" stroke-width="1.5" d="M0,-3.0v7 M-2.5,-0.5L0,-3.0L2.5,-0.5"/>
                </g>
        </g>
        <svg viewBox="0 0 15 15" width="100%" height="30px" preserveAspectRatio="xMaxYMin meet">
         <g id="arrow_out" transform="scale(0.3 0.3)">
          <a xlink:href="JAUSeqDataBlockMgr_8cpp__incl_org.svg" target="_base">
           <rect id="button" ry="5" rx="5" y="6" x="6" height="38" width="38"
                fill="#f2f5e9" fill-opacity="0.5" stroke="#606060" stroke-width="1.0"/>
           <path id="arrow"
             d="M 11.500037,31.436501 C 11.940474,20.09759 22.043105,11.32322 32.158766,21.979434 L 37.068811,17.246167 C 37.068811,17.246167 37.088388,32 37.088388,32 L 22.160133,31.978069 C 22.160133,31.978069 26.997745,27.140456 26.997745,27.140456 C 18.528582,18.264221 13.291696,25.230495 11.500037,31.436501 z"
             style="fill:#404040;"/>
          </a>
         </g>
        </svg>
</svg>
