<?xml version="1.0" encoding="UTF-8" standalone="no"?>
<!DOCTYPE svg PUBLIC "-//W3C//DTD SVG 1.1//EN"
 "http://www.w3.org/Graphics/SVG/1.1/DTD/svg11.dtd">
<!-- Generated by graphviz version 7.0.5 (20221223.1930)
 -->
<!-- Title: include/JSystem/JKernel/JKRAram.h Pages: 1 -->
<!--zoomable 434 -->
<svg id="main" version="1.1" xmlns="http://www.w3.org/2000/svg" xmlns:xlink="http://www.w3.org/1999/xlink" xml:space="preserve" onload="init(evt)">
<style type="text/css"><![CDATA[
.edge:hover path { stroke: red; }
.edge:hover polygon { stroke: red; fill: red; }
]]></style>
<script type="text/javascript"><![CDATA[
var edges = document.getElementsByTagName('g');
if (edges && edges.length) {
  for (var i=0;i<edges.length;i++) {
    if (edges[i].id.substr(0,4)=='edge') {
      edges[i].setAttribute('class','edge');
    }
  }
}
]]></script>
        <defs>
                <circle id="rim" cx="0" cy="0" r="7"/>
                <circle id="rim2" cx="0" cy="0" r="3.5"/>
                <g id="zoomPlus">
                        <use xlink:href="#rim" fill="#404040">
                                <set attributeName="fill" to="#808080" begin="zoomplus.mouseover" end="zoomplus.mouseout"/>
                        </use>
                        <path d="M-4,0h8M0,-4v8" fill="none" stroke="white" stroke-width="1.5" pointer-events="none"/>
                </g>
                <g id="zoomMin">
                        <use xlink:href="#rim" fill="#404040">
                                <set attributeName="fill" to="#808080" begin="zoomminus.mouseover" end="zoomminus.mouseout"/>
                        </use>
                        <path d="M-4,0h8" fill="none" stroke="white" stroke-width="1.5" pointer-events="none"/>
                </g>
                <g id="dirArrow">
                        <path fill="none" stroke="white" stroke-width="1.5" d="M0,-3.0v7 M-2.5,-0.5L0,-3.0L2.5,-0.5"/>
                </g>
               <g id="resetDef">
                       <use xlink:href="#rim2" fill="#404040">
                               <set attributeName="fill" to="#808080" begin="reset.mouseover" end="reset.mouseout"/>
                       </use>
               </g>
        </defs>

<script type="text/javascript">
var viewWidth = 840;
var viewHeight = 434;
var sectionId = 'dynsection-0';
</script>
<script xlink:href="svgpan.js"/>
<svg id="graph" class="graph">
<g id="viewport">
<title>include/JSystem/JKernel/JKRAram.h</title>
<!-- Node1 -->
<g id="node1" class="node">
<title>Node1</title>
<g id="a_node1"><a xlink:title=" ">
<polygon fill="#999999" stroke="#666666" points="353.42,-426 228.42,-426 228.42,-396 353.42,-396 353.42,-426"/>
<text text-anchor="start" x="236.42" y="-414" font-family="Helvetica,sans-Serif" font-size="10.00">include/JSystem/JKernel</text>
<text text-anchor="middle" x="290.92" y="-403" font-family="Helvetica,sans-Serif" font-size="10.00">/JKRAram.h</text>
</a>
</g>
</g>
<!-- Node2 -->
<g id="node2" class="node">
<title>Node2</title>
<g id="a_node2"><a xlink:href="JKRAramHeap_8h.html" target="_top" xlink:title=" ">
<polygon fill="white" stroke="#666666" points="374.42,-305 207.42,-305 207.42,-286 374.42,-286 374.42,-305"/>
<text text-anchor="middle" x="290.92" y="-293" font-family="Helvetica,sans-Serif" font-size="10.00">JSystem/JKernel/JKRAramHeap.h</text>
</a>
</g>
</g>
<!-- Node1&#45;&gt;Node2 -->
<g id="edge1" class="edge">
<title>Node1&#45;&gt;Node2</title>
<path fill="none" stroke="#63b8ff" d="M290.92,-395.63C290.92,-375.59 290.92,-339.17 290.92,-316.49"/>
<polygon fill="#63b8ff" stroke="#63b8ff" points="294.42,-316.74 290.92,-306.74 287.42,-316.74 294.42,-316.74"/>
</g>
<!-- Node11 -->
<g id="node11" class="node">
<title>Node11</title>
<g id="a_node11"><a xlink:href="JKRDvdRipper_8h.html" target="_top" xlink:title=" ">
<polygon fill="white" stroke="#666666" points="183.42,-360 18.42,-360 18.42,-341 183.42,-341 183.42,-360"/>
<text text-anchor="middle" x="100.92" y="-348" font-family="Helvetica,sans-Serif" font-size="10.00">JSystem/JKernel/JKRDvdRipper.h</text>
</a>
</g>
</g>
<!-- Node1&#45;&gt;Node11 -->
<g id="edge12" class="edge">
<title>Node1&#45;&gt;Node11</title>
<path fill="none" stroke="#63b8ff" d="M243.95,-395.54C212.28,-385.79 170.95,-373.06 140.86,-363.8"/>
<polygon fill="#63b8ff" stroke="#63b8ff" points="141.96,-360.48 131.37,-360.88 139.9,-367.17 141.96,-360.48"/>
</g>
<!-- Node13 -->
<g id="node13" class="node">
<title>Node13</title>
<g id="a_node13"><a xlink:href="JKRThread_8h.html" target="_top" xlink:title=" ">
<polygon fill="white" stroke="#666666" points="638.92,-360 488.92,-360 488.92,-341 638.92,-341 638.92,-360"/>
<text text-anchor="middle" x="563.92" y="-348" font-family="Helvetica,sans-Serif" font-size="10.00">JSystem/JKernel/JKRThread.h</text>
</a>
</g>
</g>
<!-- Node1&#45;&gt;Node13 -->
<g id="edge15" class="edge">
<title>Node1&#45;&gt;Node13</title>
<path fill="none" stroke="#63b8ff" d="M353.89,-396.51C401.5,-386.3 466.13,-372.45 511.07,-362.82"/>
<polygon fill="#63b8ff" stroke="#63b8ff" points="511.52,-366.31 520.57,-360.79 510.06,-359.46 511.52,-366.31"/>
</g>
<!-- Node3 -->
<g id="node3" class="node">
<title>Node3</title>
<g id="a_node3"><a xlink:href="JKRAramBlock_8h.html" target="_top" xlink:title=" ">
<polygon fill="white" stroke="#666666" points="217.92,-250 49.92,-250 49.92,-231 217.92,-231 217.92,-250"/>
<text text-anchor="middle" x="133.92" y="-238" font-family="Helvetica,sans-Serif" font-size="10.00">JSystem/JKernel/JKRAramBlock.h</text>
</a>
</g>
</g>
<!-- Node2&#45;&gt;Node3 -->
<g id="edge2" class="edge">
<title>Node2&#45;&gt;Node3</title>
<path fill="none" stroke="#63b8ff" d="M264.28,-285.51C238.72,-276.88 199.87,-263.76 171.23,-254.1"/>
<polygon fill="#63b8ff" stroke="#63b8ff" points="172.44,-250.81 161.85,-250.93 170.21,-257.45 172.44,-250.81"/>
</g>
<!-- Node7 -->
<g id="node7" class="node">
<title>Node7</title>
<g id="a_node7"><a xlink:href="JKRDisposer_8h.html" target="_top" xlink:title=" ">
<polygon fill="white" stroke="#666666" points="393.92,-250 235.92,-250 235.92,-231 393.92,-231 393.92,-250"/>
<text text-anchor="middle" x="314.92" y="-238" font-family="Helvetica,sans-Serif" font-size="10.00">JSystem/JKernel/JKRDisposer.h</text>
</a>
</g>
</g>
<!-- Node2&#45;&gt;Node7 -->
<g id="edge6" class="edge">
<title>Node2&#45;&gt;Node7</title>
<path fill="none" stroke="#63b8ff" d="M294.88,-285.75C297.95,-278.96 302.33,-269.3 306.2,-260.73"/>
<polygon fill="#63b8ff" stroke="#63b8ff" points="309.3,-262.37 310.24,-251.82 302.93,-259.49 309.3,-262.37"/>
</g>
<!-- Node8 -->
<g id="node8" class="node">
<title>Node8</title>
<g id="a_node8"><a xlink:href="OSMutex_8h.html" target="_top" xlink:title=" ">
<polygon fill="white" stroke="#666666" points="523.92,-250 411.92,-250 411.92,-231 523.92,-231 523.92,-250"/>
<text text-anchor="middle" x="467.92" y="-238" font-family="Helvetica,sans-Serif" font-size="10.00">dolphin/os/OSMutex.h</text>
</a>
</g>
</g>
<!-- Node2&#45;&gt;Node8 -->
<g id="edge8" class="edge">
<title>Node2&#45;&gt;Node8</title>
<path fill="none" stroke="#63b8ff" d="M320.94,-285.51C350.14,-276.76 394.72,-263.42 427.13,-253.71"/>
<polygon fill="#63b8ff" stroke="#63b8ff" points="428.01,-257.1 436.59,-250.88 426,-250.4 428.01,-257.1"/>
</g>
<!-- Node4 -->
<g id="node4" class="node">
<title>Node4</title>
<g id="a_node4"><a xlink:href="JSUList_8h.html" target="_top" xlink:title=" ">
<polygon fill="white" stroke="#666666" points="296.42,-195 153.42,-195 153.42,-176 296.42,-176 296.42,-195"/>
<text text-anchor="middle" x="224.92" y="-183" font-family="Helvetica,sans-Serif" font-size="10.00">JSystem/JSupport/JSUList.h</text>
</a>
</g>
</g>
<!-- Node3&#45;&gt;Node4 -->
<g id="edge3" class="edge">
<title>Node3&#45;&gt;Node4</title>
<path fill="none" stroke="#63b8ff" d="M149.35,-230.51C163.16,-222.47 183.66,-210.53 199.82,-201.11"/>
<polygon fill="#63b8ff" stroke="#63b8ff" points="201.52,-204.18 208.4,-196.12 198,-198.13 201.52,-204.18"/>
</g>
<!-- Node5 -->
<g id="node5" class="node">
<title>Node5</title>
<g id="a_node5"><a xlink:href="types_8h.html" target="_top" xlink:title=" ">
<polygon fill="white" stroke="#666666" points="644.42,-85 563.42,-85 563.42,-66 644.42,-66 644.42,-85"/>
<text text-anchor="middle" x="603.92" y="-73" font-family="Helvetica,sans-Serif" font-size="10.00">dolphin/types.h</text>
</a>
</g>
</g>
<!-- Node4&#45;&gt;Node5 -->
<g id="edge4" class="edge">
<title>Node4&#45;&gt;Node5</title>
<path fill="none" stroke="#63b8ff" d="M256.25,-175.57C324.21,-156.21 485.15,-110.34 561.86,-88.49"/>
<polygon fill="#63b8ff" stroke="#63b8ff" points="562.43,-91.96 571.09,-85.86 560.51,-85.23 562.43,-91.96"/>
</g>
<!-- Node6 -->
<g id="node6" class="node">
<title>Node6</title>
<g id="a_node6"><a xlink:href="stddef_8h.html" target="_top" xlink:title=" ">
<polygon fill="white" stroke="#666666" points="671.92,-30 535.92,-30 535.92,0 671.92,0 671.92,-30"/>
<text text-anchor="start" x="543.92" y="-18" font-family="Helvetica,sans-Serif" font-size="10.00">MSL_C/MSL_Common/Src</text>
<text text-anchor="middle" x="603.92" y="-7" font-family="Helvetica,sans-Serif" font-size="10.00">/stddef.h</text>
</a>
</g>
</g>
<!-- Node5&#45;&gt;Node6 -->
<g id="edge5" class="edge">
<title>Node5&#45;&gt;Node6</title>
<path fill="none" stroke="#63b8ff" d="M603.92,-65.87C603.92,-59.4 603.92,-50.2 603.92,-41.45"/>
<polygon fill="#63b8ff" stroke="#63b8ff" points="607.42,-41.63 603.92,-31.63 600.42,-41.63 607.42,-41.63"/>
</g>
<!-- Node7&#45;&gt;Node4 -->
<g id="edge7" class="edge">
<title>Node7&#45;&gt;Node4</title>
<path fill="none" stroke="#63b8ff" d="M299.65,-230.51C285.99,-222.47 265.72,-210.53 249.73,-201.11"/>
<polygon fill="#63b8ff" stroke="#63b8ff" points="251.65,-198.18 241.26,-196.13 248.1,-204.22 251.65,-198.18"/>
</g>
<!-- Node9 -->
<g id="node9" class="node">
<title>Node9</title>
<g id="a_node9"><a xlink:href="OSThread_8h.html" target="_top" xlink:title=" ">
<polygon fill="white" stroke="#666666" points="705.92,-195 589.92,-195 589.92,-176 705.92,-176 705.92,-195"/>
<text text-anchor="middle" x="647.92" y="-183" font-family="Helvetica,sans-Serif" font-size="10.00">dolphin/os/OSThread.h</text>
</a>
</g>
</g>
<!-- Node8&#45;&gt;Node9 -->
<g id="edge9" class="edge">
<title>Node8&#45;&gt;Node9</title>
<path fill="none" stroke="#63b8ff" d="M498.45,-230.51C528.28,-221.73 573.88,-208.3 606.87,-198.59"/>
<polygon fill="#63b8ff" stroke="#63b8ff" points="607.48,-202.06 616.08,-195.87 605.5,-195.34 607.48,-202.06"/>
</g>
<!-- Node10 -->
<g id="node10" class="node">
<title>Node10</title>
<g id="a_node10"><a xlink:href="OSContext_8h.html" target="_top" xlink:title=" ">
<polygon fill="white" stroke="#666666" points="707.42,-140 588.42,-140 588.42,-121 707.42,-121 707.42,-140"/>
<text text-anchor="middle" x="647.92" y="-128" font-family="Helvetica,sans-Serif" font-size="10.00">dolphin/os/OSContext.h</text>
</a>
</g>
</g>
<!-- Node9&#45;&gt;Node10 -->
<g id="edge10" class="edge">
<title>Node9&#45;&gt;Node10</title>
<path fill="none" stroke="#63b8ff" d="M647.92,-175.75C647.92,-169.27 647.92,-160.16 647.92,-151.9"/>
<polygon fill="#63b8ff" stroke="#63b8ff" points="651.42,-151.96 647.92,-141.96 644.42,-151.96 651.42,-151.96"/>
</g>
<!-- Node10&#45;&gt;Node5 -->
<g id="edge11" class="edge">
<title>Node10&#45;&gt;Node5</title>
<path fill="none" stroke="#63b8ff" d="M640.65,-120.75C634.63,-113.5 625.9,-102.98 618.46,-94.02"/>
<polygon fill="#63b8ff" stroke="#63b8ff" points="621.39,-92.07 612.31,-86.61 616,-96.54 621.39,-92.07"/>
</g>
<!-- Node11&#45;&gt;Node4 -->
<g id="edge14" class="edge">
<title>Node11&#45;&gt;Node4</title>
<path fill="none" stroke="#63b8ff" d="M55.83,-340.56C36.06,-334.16 14.7,-323.3 2.92,-305 -1.66,-297.9 0.4,-294.06 2.92,-286 11.76,-257.64 16.42,-247.82 40.92,-231 70.49,-210.69 108.3,-199.61 141.94,-193.58"/>
<polygon fill="#63b8ff" stroke="#63b8ff" points="142.38,-197.06 151.68,-191.97 141.24,-190.15 142.38,-197.06"/>
</g>
<!-- Node12 -->
<g id="node12" class="node">
<title>Node12</title>
<g id="a_node12"><a xlink:href="JKRCompression_8h.html" target="_top" xlink:title=" ">
<polygon fill="white" stroke="#666666" points="189.42,-305 12.42,-305 12.42,-286 189.42,-286 189.42,-305"/>
<text text-anchor="middle" x="100.92" y="-293" font-family="Helvetica,sans-Serif" font-size="10.00">JSystem/JKernel/JKRCompression.h</text>
</a>
</g>
</g>
<!-- Node11&#45;&gt;Node12 -->
<g id="edge13" class="edge">
<title>Node11&#45;&gt;Node12</title>
<path fill="none" stroke="#63b8ff" d="M100.92,-340.75C100.92,-334.27 100.92,-325.16 100.92,-316.9"/>
<polygon fill="#63b8ff" stroke="#63b8ff" points="104.42,-316.96 100.92,-306.96 97.42,-316.96 104.42,-316.96"/>
</g>
<!-- Node13&#45;&gt;Node5 -->
<g id="edge23" class="edge">
<title>Node13&#45;&gt;Node5</title>
<path fill="none" stroke="#63b8ff" d="M563.21,-340.55C561.05,-309.45 555.99,-203.5 579.92,-121 582.54,-111.95 587.19,-102.66 591.7,-94.92"/>
<polygon fill="#63b8ff" stroke="#63b8ff" points="594.63,-96.84 596.95,-86.5 588.69,-93.13 594.63,-96.84"/>
</g>
<!-- Node14 -->
<g id="node14" class="node">
<title>Node14</title>
<g id="a_node14"><a xlink:href="JKRHeap_8h.html" target="_top" xlink:title=" ">
<polygon fill="white" stroke="#666666" points="535.42,-305 392.42,-305 392.42,-286 535.42,-286 535.42,-305"/>
<text text-anchor="middle" x="463.92" y="-293" font-family="Helvetica,sans-Serif" font-size="10.00">JSystem/JKernel/JKRHeap.h</text>
</a>
</g>
</g>
<!-- Node13&#45;&gt;Node14 -->
<g id="edge16" class="edge">
<title>Node13&#45;&gt;Node14</title>
<path fill="none" stroke="#63b8ff" d="M546.95,-340.51C531.56,-332.35 508.6,-320.19 490.73,-310.71"/>
<polygon fill="#63b8ff" stroke="#63b8ff" points="492.44,-307.66 481.97,-306.07 489.16,-313.84 492.44,-307.66"/>
</g>
<!-- Node15 -->
<g id="node15" class="node">
<title>Node15</title>
<g id="a_node15"><a xlink:href="OSMessage_8h.html" target="_top" xlink:title=" ">
<polygon fill="white" stroke="#666666" points="713.42,-250 588.42,-250 588.42,-231 713.42,-231 713.42,-250"/>
<text text-anchor="middle" x="650.92" y="-238" font-family="Helvetica,sans-Serif" font-size="10.00">dolphin/os/OSMessage.h</text>
</a>
</g>
</g>
<!-- Node13&#45;&gt;Node15 -->
<g id="edge19" class="edge">
<title>Node13&#45;&gt;Node15</title>
<path fill="none" stroke="#63b8ff" d="M571.03,-340.66C585.31,-322.94 617.67,-282.77 636.53,-259.35"/>
<polygon fill="#63b8ff" stroke="#63b8ff" points="639.2,-261.62 642.75,-251.64 633.75,-257.23 639.2,-261.62"/>
</g>
<!-- Node16 -->
<g id="node16" class="node">
<title>Node16</title>
<g id="a_node16"><a xlink:href="OSTime_8h.html" target="_top" xlink:title=" ">
<polygon fill="white" stroke="#666666" points="832.42,-140 725.42,-140 725.42,-121 832.42,-121 832.42,-140"/>
<text text-anchor="middle" x="778.92" y="-128" font-family="Helvetica,sans-Serif" font-size="10.00">dolphin/os/OSTime.h</text>
</a>
</g>
</g>
<!-- Node13&#45;&gt;Node16 -->
<g id="edge21" class="edge">
<title>Node13&#45;&gt;Node16</title>
<path fill="none" stroke="#63b8ff" d="M585.95,-340.59C619.44,-326.07 683.44,-294.42 722.92,-250 749.16,-220.46 765.57,-176.47 773.41,-151.22"/>
<polygon fill="#63b8ff" stroke="#63b8ff" points="776.76,-152.23 776.23,-141.65 770.05,-150.25 776.76,-152.23"/>
</g>
<!-- Node14&#45;&gt;Node7 -->
<g id="edge17" class="edge">
<title>Node14&#45;&gt;Node7</title>
<path fill="none" stroke="#63b8ff" d="M438.64,-285.51C414.41,-276.89 377.61,-263.8 350.44,-254.14"/>
<polygon fill="#63b8ff" stroke="#63b8ff" points="351.84,-250.92 341.24,-250.87 349.49,-257.51 351.84,-250.92"/>
</g>
<!-- Node14&#45;&gt;Node8 -->
<g id="edge18" class="edge">
<title>Node14&#45;&gt;Node8</title>
<path fill="none" stroke="#63b8ff" d="M464.58,-285.75C465.06,-279.27 465.75,-270.16 466.38,-261.9"/>
<polygon fill="#63b8ff" stroke="#63b8ff" points="469.86,-262.19 467.13,-251.95 462.88,-261.66 469.86,-262.19"/>
</g>
<!-- Node15&#45;&gt;Node9 -->
<g id="edge20" class="edge">
<title>Node15&#45;&gt;Node9</title>
<path fill="none" stroke="#63b8ff" d="M650.42,-230.75C650.05,-224.27 649.54,-215.16 649.07,-206.9"/>
<polygon fill="#63b8ff" stroke="#63b8ff" points="652.57,-206.74 648.51,-196.95 645.58,-207.13 652.57,-206.74"/>
</g>
<!-- Node16&#45;&gt;Node5 -->
<g id="edge22" class="edge">
<title>Node16&#45;&gt;Node5</title>
<path fill="none" stroke="#63b8ff" d="M749.23,-120.51C720.36,-111.76 676.28,-98.42 644.24,-88.71"/>
<polygon fill="#63b8ff" stroke="#63b8ff" points="645.49,-85.43 634.9,-85.88 643.46,-92.13 645.49,-85.43"/>
</g>
</g>
</svg>
        <g id="navigator" transform="translate(0 0)" fill="#404254">
                <rect fill="#f2f5e9" fill-opacity="0.5" stroke="#606060" stroke-width=".5" x="0" y="0" width="60" height="60"/>
                <use id="zoomplus" xlink:href="#zoomPlus" x="17" y="9" onmousedown="handleZoom(evt,'in')"/>
                <use id="zoomminus" xlink:href="#zoomMin" x="42" y="9" onmousedown="handleZoom(evt,'out')"/>
                <use id="reset" xlink:href="#resetDef" x="30" y="36" onmousedown="handleReset()"/>
                <g id="arrowUp" xlink:href="#dirArrow" transform="translate(30 24)" onmousedown="handlePan(0,-1)">
                  <use xlink:href="#rim" fill="#404040">
                        <set attributeName="fill" to="#808080" begin="arrowUp.mouseover" end="arrowUp.mouseout"/>
                  </use>
                  <path fill="none" stroke="white" stroke-width="1.5" d="M0,-3.0v7 M-2.5,-0.5L0,-3.0L2.5,-0.5"/>
                </g>
                <g id="arrowRight" xlink:href="#dirArrow" transform="rotate(90) translate(36 -43)" onmousedown="handlePan(1,0)">
                  <use xlink:href="#rim" fill="#404040">
                        <set attributeName="fill" to="#808080" begin="arrowRight.mouseover" end="arrowRight.mouseout"/>
                  </use>
                  <path fill="none" stroke="white" stroke-width="1.5" d="M0,-3.0v7 M-2.5,-0.5L0,-3.0L2.5,-0.5"/>
                </g>
                <g id="arrowDown" xlink:href="#dirArrow" transform="rotate(180) translate(-30 -48)" onmousedown="handlePan(0,1)">
                  <use xlink:href="#rim" fill="#404040">
                        <set attributeName="fill" to="#808080" begin="arrowDown.mouseover" end="arrowDown.mouseout"/>
                  </use>
                  <path fill="none" stroke="white" stroke-width="1.5" d="M0,-3.0v7 M-2.5,-0.5L0,-3.0L2.5,-0.5"/>
                </g>
                <g id="arrowLeft" xlink:href="#dirArrow" transform="rotate(270) translate(-36 17)" onmousedown="handlePan(-1,0)">
                  <use xlink:href="#rim" fill="#404040">
                        <set attributeName="fill" to="#808080" begin="arrowLeft.mouseover" end="arrowLeft.mouseout"/>
                  </use>
                  <path fill="none" stroke="white" stroke-width="1.5" d="M0,-3.0v7 M-2.5,-0.5L0,-3.0L2.5,-0.5"/>
                </g>
        </g>
        <svg viewBox="0 0 15 15" width="100%" height="30px" preserveAspectRatio="xMaxYMin meet">
         <g id="arrow_out" transform="scale(0.3 0.3)">
          <a xlink:href="JKRAram_8h__incl_org.svg" target="_base">
           <rect id="button" ry="5" rx="5" y="6" x="6" height="38" width="38"
                fill="#f2f5e9" fill-opacity="0.5" stroke="#606060" stroke-width="1.0"/>
           <path id="arrow"
             d="M 11.500037,31.436501 C 11.940474,20.09759 22.043105,11.32322 32.158766,21.979434 L 37.068811,17.246167 C 37.068811,17.246167 37.088388,32 37.088388,32 L 22.160133,31.978069 C 22.160133,31.978069 26.997745,27.140456 26.997745,27.140456 C 18.528582,18.264221 13.291696,25.230495 11.500037,31.436501 z"
             style="fill:#404040;"/>
          </a>
         </g>
        </svg>
</svg>
