<?xml version="1.0" encoding="UTF-8" standalone="no"?>
<!DOCTYPE svg PUBLIC "-//W3C//DTD SVG 1.1//EN"
 "http://www.w3.org/Graphics/SVG/1.1/DTD/svg11.dtd">
<!-- Generated by graphviz version 7.0.5 (20221223.1930)
 -->
<!-- Title: include/JSystem/JKernel/JKRAramPiece.h Pages: 1 -->
<svg width="464pt" height="324pt"
 viewBox="0.00 0.00 463.50 324.00" xmlns="http://www.w3.org/2000/svg" xmlns:xlink="http://www.w3.org/1999/xlink">
<g id="graph0" class="graph" transform="scale(1 1) rotate(0) translate(4 320)">
<title>include/JSystem/JKernel/JKRAramPiece.h</title>
<!-- Node1 -->
<g id="node1" class="node">
<title>Node1</title>
<g id="a_node1"><a xlink:title=" ">
<polygon fill="#999999" stroke="#666666" points="279,-316 154,-316 154,-286 279,-286 279,-316"/>
<text text-anchor="start" x="162" y="-304" font-family="Helvetica,sans-Serif" font-size="10.00">include/JSystem/JKernel</text>
<text text-anchor="middle" x="216.5" y="-293" font-family="Helvetica,sans-Serif" font-size="10.00">/JKRAramPiece.h</text>
</a>
</g>
</g>
<!-- Node2 -->
<g id="node2" class="node">
<title>Node2</title>
<g id="a_node2"><a xlink:href="JSUList_8h.html" target="_top" xlink:title=" ">
<polygon fill="white" stroke="#666666" points="143,-195 0,-195 0,-176 143,-176 143,-195"/>
<text text-anchor="middle" x="71.5" y="-183" font-family="Helvetica,sans-Serif" font-size="10.00">JSystem/JSupport/JSUList.h</text>
</a>
</g>
</g>
<!-- Node1&#45;&gt;Node2 -->
<g id="edge1" class="edge">
<title>Node1&#45;&gt;Node2</title>
<path fill="none" stroke="#63b8ff" d="M198.14,-285.63C170.87,-264.28 119.86,-224.36 91.62,-202.25"/>
<polygon fill="#63b8ff" stroke="#63b8ff" points="93.88,-199.57 83.84,-196.16 89.56,-205.08 93.88,-199.57"/>
</g>
<!-- Node5 -->
<g id="node5" class="node">
<title>Node5</title>
<g id="a_node5"><a xlink:href="arq_8h.html" target="_top" xlink:title=" ">
<polygon fill="white" stroke="#666666" points="199,-140 116,-140 116,-121 199,-121 199,-140"/>
<text text-anchor="middle" x="157.5" y="-128" font-family="Helvetica,sans-Serif" font-size="10.00">dolphin/ar/arq.h</text>
</a>
</g>
</g>
<!-- Node1&#45;&gt;Node5 -->
<g id="edge4" class="edge">
<title>Node1&#45;&gt;Node5</title>
<path fill="none" stroke="#63b8ff" d="M207.93,-285.5C202.41,-275.72 195.38,-262.38 190.5,-250 177.22,-216.32 167.06,-175.28 161.71,-151.4"/>
<polygon fill="#63b8ff" stroke="#63b8ff" points="165.17,-150.83 159.62,-141.81 158.33,-152.32 165.17,-150.83"/>
</g>
<!-- Node6 -->
<g id="node6" class="node">
<title>Node6</title>
<g id="a_node6"><a xlink:href="OSMessage_8h.html" target="_top" xlink:title=" ">
<polygon fill="white" stroke="#666666" points="325,-250 200,-250 200,-231 325,-231 325,-250"/>
<text text-anchor="middle" x="262.5" y="-238" font-family="Helvetica,sans-Serif" font-size="10.00">dolphin/os/OSMessage.h</text>
</a>
</g>
</g>
<!-- Node1&#45;&gt;Node6 -->
<g id="edge6" class="edge">
<title>Node1&#45;&gt;Node6</title>
<path fill="none" stroke="#63b8ff" d="M227.87,-285.54C234.14,-277.56 241.98,-267.59 248.61,-259.16"/>
<polygon fill="#63b8ff" stroke="#63b8ff" points="251.31,-261.39 254.74,-251.36 245.81,-257.06 251.31,-261.39"/>
</g>
<!-- Node9 -->
<g id="node9" class="node">
<title>Node9</title>
<g id="a_node9"><a xlink:href="OSMutex_8h.html" target="_top" xlink:title=" ">
<polygon fill="white" stroke="#666666" points="455.5,-250 343.5,-250 343.5,-231 455.5,-231 455.5,-250"/>
<text text-anchor="middle" x="399.5" y="-238" font-family="Helvetica,sans-Serif" font-size="10.00">dolphin/os/OSMutex.h</text>
</a>
</g>
</g>
<!-- Node1&#45;&gt;Node9 -->
<g id="edge10" class="edge">
<title>Node1&#45;&gt;Node9</title>
<path fill="none" stroke="#63b8ff" d="M261.74,-285.54C292.1,-275.83 331.7,-263.17 360.64,-253.92"/>
<polygon fill="#63b8ff" stroke="#63b8ff" points="361.66,-257.27 370.12,-250.89 359.53,-250.6 361.66,-257.27"/>
</g>
<!-- Node3 -->
<g id="node3" class="node">
<title>Node3</title>
<g id="a_node3"><a xlink:href="types_8h.html" target="_top" xlink:title=" ">
<polygon fill="white" stroke="#666666" points="198,-85 117,-85 117,-66 198,-66 198,-85"/>
<text text-anchor="middle" x="157.5" y="-73" font-family="Helvetica,sans-Serif" font-size="10.00">dolphin/types.h</text>
</a>
</g>
</g>
<!-- Node2&#45;&gt;Node3 -->
<g id="edge2" class="edge">
<title>Node2&#45;&gt;Node3</title>
<path fill="none" stroke="#63b8ff" d="M75.16,-175.7C80.75,-162.87 92.28,-138.64 106.5,-121 115.11,-110.32 126.47,-100.13 136.28,-92.21"/>
<polygon fill="#63b8ff" stroke="#63b8ff" points="138.14,-95.19 143.88,-86.28 133.84,-89.67 138.14,-95.19"/>
</g>
<!-- Node4 -->
<g id="node4" class="node">
<title>Node4</title>
<g id="a_node4"><a xlink:href="stddef_8h.html" target="_top" xlink:title=" ">
<polygon fill="white" stroke="#666666" points="225.5,-30 89.5,-30 89.5,0 225.5,0 225.5,-30"/>
<text text-anchor="start" x="97.5" y="-18" font-family="Helvetica,sans-Serif" font-size="10.00">MSL_C/MSL_Common/Src</text>
<text text-anchor="middle" x="157.5" y="-7" font-family="Helvetica,sans-Serif" font-size="10.00">/stddef.h</text>
</a>
</g>
</g>
<!-- Node3&#45;&gt;Node4 -->
<g id="edge3" class="edge">
<title>Node3&#45;&gt;Node4</title>
<path fill="none" stroke="#63b8ff" d="M157.5,-65.87C157.5,-59.4 157.5,-50.2 157.5,-41.45"/>
<polygon fill="#63b8ff" stroke="#63b8ff" points="161,-41.63 157.5,-31.63 154,-41.63 161,-41.63"/>
</g>
<!-- Node5&#45;&gt;Node3 -->
<g id="edge5" class="edge">
<title>Node5&#45;&gt;Node3</title>
<path fill="none" stroke="#63b8ff" d="M157.5,-120.75C157.5,-114.27 157.5,-105.16 157.5,-96.9"/>
<polygon fill="#63b8ff" stroke="#63b8ff" points="161,-96.96 157.5,-86.96 154,-96.96 161,-96.96"/>
</g>
<!-- Node7 -->
<g id="node7" class="node">
<title>Node7</title>
<g id="a_node7"><a xlink:href="OSThread_8h.html" target="_top" xlink:title=" ">
<polygon fill="white" stroke="#666666" points="334.5,-195 218.5,-195 218.5,-176 334.5,-176 334.5,-195"/>
<text text-anchor="middle" x="276.5" y="-183" font-family="Helvetica,sans-Serif" font-size="10.00">dolphin/os/OSThread.h</text>
</a>
</g>
</g>
<!-- Node6&#45;&gt;Node7 -->
<g id="edge7" class="edge">
<title>Node6&#45;&gt;Node7</title>
<path fill="none" stroke="#63b8ff" d="M264.81,-230.75C266.56,-224.11 269.04,-214.73 271.27,-206.31"/>
<polygon fill="#63b8ff" stroke="#63b8ff" points="274.58,-207.47 273.75,-196.91 267.81,-205.68 274.58,-207.47"/>
</g>
<!-- Node8 -->
<g id="node8" class="node">
<title>Node8</title>
<g id="a_node8"><a xlink:href="OSContext_8h.html" target="_top" xlink:title=" ">
<polygon fill="white" stroke="#666666" points="336,-140 217,-140 217,-121 336,-121 336,-140"/>
<text text-anchor="middle" x="276.5" y="-128" font-family="Helvetica,sans-Serif" font-size="10.00">dolphin/os/OSContext.h</text>
</a>
</g>
</g>
<!-- Node7&#45;&gt;Node8 -->
<g id="edge8" class="edge">
<title>Node7&#45;&gt;Node8</title>
<path fill="none" stroke="#63b8ff" d="M276.5,-175.75C276.5,-169.27 276.5,-160.16 276.5,-151.9"/>
<polygon fill="#63b8ff" stroke="#63b8ff" points="280,-151.96 276.5,-141.96 273,-151.96 280,-151.96"/>
</g>
<!-- Node8&#45;&gt;Node3 -->
<g id="edge9" class="edge">
<title>Node8&#45;&gt;Node3</title>
<path fill="none" stroke="#63b8ff" d="M256.31,-120.51C237.48,-112.12 209.13,-99.5 187.63,-89.92"/>
<polygon fill="#63b8ff" stroke="#63b8ff" points="189.33,-86.85 178.77,-85.97 186.48,-93.24 189.33,-86.85"/>
</g>
<!-- Node9&#45;&gt;Node7 -->
<g id="edge11" class="edge">
<title>Node9&#45;&gt;Node7</title>
<path fill="none" stroke="#63b8ff" d="M378.63,-230.51C359.08,-222.08 329.6,-209.38 307.33,-199.79"/>
<polygon fill="#63b8ff" stroke="#63b8ff" points="309.02,-196.7 298.45,-195.96 306.25,-203.13 309.02,-196.7"/>
</g>
</g>
</svg>
