<?xml version="1.0" encoding="UTF-8" standalone="no"?>
<!DOCTYPE svg PUBLIC "-//W3C//DTD SVG 1.1//EN"
 "http://www.w3.org/Graphics/SVG/1.1/DTD/svg11.dtd">
<!-- Generated by graphviz version 7.0.5 (20221223.1930)
 -->
<!-- Title: include/JSystem/JKernel/JKRExpHeap.h Pages: 1 -->
<svg width="4684pt" height="225pt"
 viewBox="0.00 0.00 4683.50 225.00" xmlns="http://www.w3.org/2000/svg" xmlns:xlink="http://www.w3.org/1999/xlink">
<g id="graph0" class="graph" transform="scale(1 1) rotate(0) translate(4 221)">
<title>include/JSystem/JKernel/JKRExpHeap.h</title>
<!-- Node1 -->
<g id="node1" class="node">
<title>Node1</title>
<g id="a_node1"><a xlink:title=" ">
<polygon fill="#999999" stroke="#666666" points="2612,-217 2487,-217 2487,-187 2612,-187 2612,-217"/>
<text text-anchor="start" x="2495" y="-205" font-family="Helvetica,sans-Serif" font-size="10.00">include/JSystem/JKernel</text>
<text text-anchor="middle" x="2549.5" y="-194" font-family="Helvetica,sans-Serif" font-size="10.00">/JKRExpHeap.h</text>
</a>
</g>
</g>
<!-- Node2 -->
<g id="node2" class="node">
<title>Node2</title>
<g id="a_node2"><a xlink:href="m__Do__main_8h.html" target="_top" xlink:title=" ">
<polygon fill="white" stroke="#666666" points="586.5,-145.5 448.5,-145.5 448.5,-126.5 586.5,-126.5 586.5,-145.5"/>
<text text-anchor="middle" x="517.5" y="-133.5" font-family="Helvetica,sans-Serif" font-size="10.00">include/m_Do/m_Do_main.h</text>
</a>
</g>
</g>
<!-- Node1&#45;&gt;Node2 -->
<g id="edge1" class="edge">
<title>Node1&#45;&gt;Node2</title>
<path fill="none" stroke="#63b8ff" d="M2475.67,-200.59C2166.08,-198.65 971.3,-188.79 596.5,-151 585,-149.84 572.65,-147.96 561.21,-145.95"/>
<polygon fill="#63b8ff" stroke="#63b8ff" points="2475.2,-204.09 2485.22,-200.65 2475.25,-197.09 2475.2,-204.09"/>
</g>
<!-- Node11 -->
<g id="node11" class="node">
<title>Node11</title>
<g id="a_node11"><a xlink:href="JASHeapCtrl_8cpp.html" target="_top" xlink:title=" ">
<polygon fill="white" stroke="#666666" points="716,-151 605,-151 605,-121 716,-121 716,-151"/>
<text text-anchor="start" x="613" y="-139" font-family="Helvetica,sans-Serif" font-size="10.00">libs/JSystem/JAudio2</text>
<text text-anchor="middle" x="660.5" y="-128" font-family="Helvetica,sans-Serif" font-size="10.00">/JASHeapCtrl.cpp</text>
</a>
</g>
</g>
<!-- Node1&#45;&gt;Node11 -->
<g id="edge10" class="edge">
<title>Node1&#45;&gt;Node11</title>
<path fill="none" stroke="#63b8ff" d="M2475.22,-200.79C2177.87,-199.69 1072.73,-192.79 725.5,-151 722.52,-150.64 719.48,-150.21 716.41,-149.73"/>
<polygon fill="#63b8ff" stroke="#63b8ff" points="2475.18,-204.29 2485.19,-200.83 2475.2,-197.29 2475.18,-204.29"/>
</g>
<!-- Node12 -->
<g id="node12" class="node">
<title>Node12</title>
<g id="a_node12"><a xlink:href="JFWSystem_8cpp.html" target="_top" xlink:title=" ">
<polygon fill="white" stroke="#666666" points="864.5,-151 734.5,-151 734.5,-121 864.5,-121 864.5,-151"/>
<text text-anchor="start" x="742.5" y="-139" font-family="Helvetica,sans-Serif" font-size="10.00">libs/JSystem/JFramework</text>
<text text-anchor="middle" x="799.5" y="-128" font-family="Helvetica,sans-Serif" font-size="10.00">/JFWSystem.cpp</text>
</a>
</g>
</g>
<!-- Node1&#45;&gt;Node12 -->
<g id="edge11" class="edge">
<title>Node1&#45;&gt;Node12</title>
<path fill="none" stroke="#63b8ff" d="M2475.31,-200.31C2193.8,-197.47 1191.54,-185.12 874.5,-151 871.34,-150.66 868.11,-150.26 864.86,-149.82"/>
<polygon fill="#63b8ff" stroke="#63b8ff" points="2475.05,-203.81 2485.09,-200.41 2475.12,-196.81 2475.05,-203.81"/>
</g>
<!-- Node13 -->
<g id="node13" class="node">
<title>Node13</title>
<g id="a_node13"><a xlink:href="JKRAram_8cpp.html" target="_top" xlink:title=" ">
<polygon fill="white" stroke="#666666" points="992,-151 883,-151 883,-121 992,-121 992,-151"/>
<text text-anchor="start" x="891" y="-139" font-family="Helvetica,sans-Serif" font-size="10.00">libs/JSystem/JKernel</text>
<text text-anchor="middle" x="937.5" y="-128" font-family="Helvetica,sans-Serif" font-size="10.00">/JKRAram.cpp</text>
</a>
</g>
</g>
<!-- Node1&#45;&gt;Node13 -->
<g id="edge12" class="edge">
<title>Node1&#45;&gt;Node13</title>
<path fill="none" stroke="#63b8ff" d="M2475.2,-200.4C2207.36,-197.97 1291.87,-187.14 1001.5,-151 998.45,-150.62 995.34,-150.17 992.2,-149.66"/>
<polygon fill="#63b8ff" stroke="#63b8ff" points="2475.17,-203.9 2485.2,-200.49 2475.23,-196.9 2475.17,-203.9"/>
</g>
<!-- Node14 -->
<g id="node14" class="node">
<title>Node14</title>
<g id="a_node14"><a xlink:href="JKRExpHeap_8cpp.html" target="_top" xlink:title=" ">
<polygon fill="white" stroke="#666666" points="1119,-151 1010,-151 1010,-121 1119,-121 1119,-151"/>
<text text-anchor="start" x="1018" y="-139" font-family="Helvetica,sans-Serif" font-size="10.00">libs/JSystem/JKernel</text>
<text text-anchor="middle" x="1064.5" y="-128" font-family="Helvetica,sans-Serif" font-size="10.00">/JKRExpHeap.cpp</text>
</a>
</g>
</g>
<!-- Node1&#45;&gt;Node14 -->
<g id="edge13" class="edge">
<title>Node1&#45;&gt;Node14</title>
<path fill="none" stroke="#63b8ff" d="M2475.4,-200.16C2222.26,-197 1392.93,-184.3 1128.5,-151 1125.45,-150.62 1122.34,-150.16 1119.2,-149.64"/>
<polygon fill="#63b8ff" stroke="#63b8ff" points="2475.1,-203.65 2485.14,-200.28 2475.19,-196.65 2475.1,-203.65"/>
</g>
<!-- Node15 -->
<g id="node15" class="node">
<title>Node15</title>
<g id="a_node15"><a xlink:href="DynamicLink_8cpp.html" target="_top" xlink:title=" ">
<polygon fill="white" stroke="#666666" points="1244,-145.5 1137,-145.5 1137,-126.5 1244,-126.5 1244,-145.5"/>
<text text-anchor="middle" x="1190.5" y="-133.5" font-family="Helvetica,sans-Serif" font-size="10.00">src/DynamicLink.cpp</text>
</a>
</g>
</g>
<!-- Node1&#45;&gt;Node15 -->
<g id="edge14" class="edge">
<title>Node1&#45;&gt;Node15</title>
<path fill="none" stroke="#63b8ff" d="M2475.57,-199.9C2237.5,-196.08 1492.43,-181.9 1253.5,-151 1244.39,-149.82 1234.65,-147.96 1225.62,-145.98"/>
<polygon fill="#63b8ff" stroke="#63b8ff" points="2475.29,-203.4 2485.34,-200.05 2475.4,-196.4 2475.29,-203.4"/>
</g>
<!-- Node16 -->
<g id="node16" class="node">
<title>Node16</title>
<g id="a_node16"><a xlink:href="c__dylink_8cpp.html" target="_top" xlink:title=" ">
<polygon fill="white" stroke="#666666" points="1357,-145.5 1262,-145.5 1262,-126.5 1357,-126.5 1357,-145.5"/>
<text text-anchor="middle" x="1309.5" y="-133.5" font-family="Helvetica,sans-Serif" font-size="10.00">src/c/c_dylink.cpp</text>
</a>
</g>
</g>
<!-- Node1&#45;&gt;Node16 -->
<g id="edge15" class="edge">
<title>Node1&#45;&gt;Node16</title>
<path fill="none" stroke="#63b8ff" d="M2475.21,-199.79C2250.79,-195.83 1582.03,-181.71 1366.5,-151 1358.23,-149.82 1349.41,-147.96 1341.24,-145.98"/>
<polygon fill="#63b8ff" stroke="#63b8ff" points="2474.93,-203.29 2484.99,-199.96 2475.06,-196.29 2474.93,-203.29"/>
</g>
<!-- Node17 -->
<g id="node17" class="node">
<title>Node17</title>
<g id="a_node17"><a xlink:href="d__a__alink_8cpp.html" target="_top" xlink:title=" ">
<polygon fill="white" stroke="#666666" points="1484,-145.5 1375,-145.5 1375,-126.5 1484,-126.5 1484,-145.5"/>
<text text-anchor="middle" x="1429.5" y="-133.5" font-family="Helvetica,sans-Serif" font-size="10.00">src/d/a/d_a_alink.cpp</text>
</a>
</g>
</g>
<!-- Node1&#45;&gt;Node17 -->
<g id="edge16" class="edge">
<title>Node1&#45;&gt;Node17</title>
<path fill="none" stroke="#63b8ff" d="M2475.19,-201.76C2302.21,-202.59 1859.47,-199.34 1493.5,-151 1484.37,-149.79 1474.61,-147.95 1465.53,-145.99"/>
<polygon fill="#63b8ff" stroke="#63b8ff" points="2475.19,-205.26 2485.17,-201.7 2475.15,-198.26 2475.19,-205.26"/>
</g>
<!-- Node18 -->
<g id="node18" class="node">
<title>Node18</title>
<g id="a_node18"><a xlink:href="d__com__inf__game_8cpp.html" target="_top" xlink:title=" ">
<polygon fill="white" stroke="#666666" points="1610.5,-151 1502.5,-151 1502.5,-121 1610.5,-121 1610.5,-151"/>
<text text-anchor="start" x="1510.5" y="-139" font-family="Helvetica,sans-Serif" font-size="10.00">src/d/com/d_com_inf</text>
<text text-anchor="middle" x="1556.5" y="-128" font-family="Helvetica,sans-Serif" font-size="10.00">_game.cpp</text>
</a>
</g>
</g>
<!-- Node1&#45;&gt;Node18 -->
<g id="edge17" class="edge">
<title>Node1&#45;&gt;Node18</title>
<path fill="none" stroke="#63b8ff" d="M2475.12,-201.15C2316.9,-200.56 1935.58,-194.32 1619.5,-151 1616.61,-150.6 1613.66,-150.14 1610.69,-149.64"/>
<polygon fill="#63b8ff" stroke="#63b8ff" points="2475.05,-204.65 2485.06,-201.18 2475.07,-197.65 2475.05,-204.65"/>
</g>
<!-- Node19 -->
<g id="node19" class="node">
<title>Node19</title>
<g id="a_node19"><a xlink:href="d__stage_8cpp.html" target="_top" xlink:title=" ">
<polygon fill="white" stroke="#666666" points="1722.5,-145.5 1628.5,-145.5 1628.5,-126.5 1722.5,-126.5 1722.5,-145.5"/>
<text text-anchor="middle" x="1675.5" y="-133.5" font-family="Helvetica,sans-Serif" font-size="10.00">src/d/d_stage.cpp</text>
</a>
</g>
</g>
<!-- Node1&#45;&gt;Node19 -->
<g id="edge18" class="edge">
<title>Node1&#45;&gt;Node19</title>
<path fill="none" stroke="#63b8ff" d="M2475.27,-200.91C2331.22,-199.74 2004.02,-192.31 1732.5,-151 1724.34,-149.76 1715.64,-147.9 1707.55,-145.94"/>
<polygon fill="#63b8ff" stroke="#63b8ff" points="2475.03,-204.4 2485.06,-200.98 2475.08,-197.4 2475.03,-204.4"/>
</g>
<!-- Node20 -->
<g id="node20" class="node">
<title>Node20</title>
<g id="a_node20"><a xlink:href="d__menu__collect_8cpp.html" target="_top" xlink:title=" ">
<polygon fill="white" stroke="#666666" points="1896,-145.5 1741,-145.5 1741,-126.5 1896,-126.5 1896,-145.5"/>
<text text-anchor="middle" x="1818.5" y="-133.5" font-family="Helvetica,sans-Serif" font-size="10.00">src/d/menu/d_menu_collect.cpp</text>
</a>
</g>
</g>
<!-- Node1&#45;&gt;Node20 -->
<g id="edge19" class="edge">
<title>Node1&#45;&gt;Node20</title>
<path fill="none" stroke="#63b8ff" d="M2475.5,-197.23C2355.53,-190.68 2111.27,-175.5 1905.5,-151 1893.95,-149.63 1881.6,-147.83 1869.93,-145.99"/>
<polygon fill="#63b8ff" stroke="#63b8ff" points="2475.03,-200.71 2485.2,-197.76 2475.4,-193.72 2475.03,-200.71"/>
</g>
<!-- Node21 -->
<g id="node21" class="node">
<title>Node21</title>
<g id="a_node21"><a xlink:href="d__menu__insect_8cpp.html" target="_top" xlink:title=" ">
<polygon fill="white" stroke="#666666" points="2066.5,-145.5 1914.5,-145.5 1914.5,-126.5 2066.5,-126.5 2066.5,-145.5"/>
<text text-anchor="middle" x="1990.5" y="-133.5" font-family="Helvetica,sans-Serif" font-size="10.00">src/d/menu/d_menu_insect.cpp</text>
</a>
</g>
</g>
<!-- Node1&#45;&gt;Node21 -->
<g id="edge20" class="edge">
<title>Node1&#45;&gt;Node21</title>
<path fill="none" stroke="#63b8ff" d="M2475.34,-194.46C2382.08,-185.93 2217.13,-169.86 2076.5,-151 2065.56,-149.53 2053.86,-147.76 2042.73,-145.98"/>
<polygon fill="#63b8ff" stroke="#63b8ff" points="2474.84,-197.93 2485.12,-195.35 2475.48,-190.96 2474.84,-197.93"/>
</g>
<!-- Node22 -->
<g id="node22" class="node">
<title>Node22</title>
<g id="a_node22"><a xlink:href="d__menu__item__explain_8cpp.html" target="_top" xlink:title=" ">
<polygon fill="white" stroke="#666666" points="2212,-151 2085,-151 2085,-121 2212,-121 2212,-151"/>
<text text-anchor="start" x="2093" y="-139" font-family="Helvetica,sans-Serif" font-size="10.00">src/d/menu/d_menu_item</text>
<text text-anchor="middle" x="2148.5" y="-128" font-family="Helvetica,sans-Serif" font-size="10.00">_explain.cpp</text>
</a>
</g>
</g>
<!-- Node1&#45;&gt;Node22 -->
<g id="edge21" class="edge">
<title>Node1&#45;&gt;Node22</title>
<path fill="none" stroke="#63b8ff" d="M2475.3,-190.51C2408.73,-180.91 2308.44,-165.96 2221.5,-151 2218.45,-150.47 2215.33,-149.93 2212.18,-149.36"/>
<polygon fill="#63b8ff" stroke="#63b8ff" points="2474.61,-193.95 2485.01,-191.91 2475.61,-187.02 2474.61,-193.95"/>
</g>
<!-- Node23 -->
<g id="node23" class="node">
<title>Node23</title>
<g id="a_node23"><a xlink:href="d__menu__ring_8cpp.html" target="_top" xlink:title=" ">
<polygon fill="white" stroke="#666666" points="2372.5,-145.5 2230.5,-145.5 2230.5,-126.5 2372.5,-126.5 2372.5,-145.5"/>
<text text-anchor="middle" x="2301.5" y="-133.5" font-family="Helvetica,sans-Serif" font-size="10.00">src/d/menu/d_menu_ring.cpp</text>
</a>
</g>
</g>
<!-- Node1&#45;&gt;Node23 -->
<g id="edge22" class="edge">
<title>Node1&#45;&gt;Node23</title>
<path fill="none" stroke="#63b8ff" d="M2482.47,-183.7C2435.27,-171.52 2374,-155.71 2336.23,-145.96"/>
<polygon fill="#63b8ff" stroke="#63b8ff" points="2481.51,-187.07 2492.07,-186.18 2483.26,-180.29 2481.51,-187.07"/>
</g>
<!-- Node24 -->
<g id="node24" class="node">
<title>Node24</title>
<g id="a_node24"><a xlink:href="d__menu__save_8cpp.html" target="_top" xlink:title=" ">
<polygon fill="white" stroke="#666666" points="2538,-145.5 2391,-145.5 2391,-126.5 2538,-126.5 2538,-145.5"/>
<text text-anchor="middle" x="2464.5" y="-133.5" font-family="Helvetica,sans-Serif" font-size="10.00">src/d/menu/d_menu_save.cpp</text>
</a>
</g>
</g>
<!-- Node1&#45;&gt;Node24 -->
<g id="edge23" class="edge">
<title>Node1&#45;&gt;Node24</title>
<path fill="none" stroke="#63b8ff" d="M2521.52,-179.93C2506.14,-168.35 2487.88,-154.61 2476.25,-145.84"/>
<polygon fill="#63b8ff" stroke="#63b8ff" points="2519.33,-182.67 2529.43,-185.89 2523.54,-177.07 2519.33,-182.67"/>
</g>
<!-- Node25 -->
<g id="node25" class="node">
<title>Node25</title>
<g id="a_node25"><a xlink:href="d__menu__window_8cpp.html" target="_top" xlink:title=" ">
<polygon fill="white" stroke="#666666" points="2715,-145.5 2556,-145.5 2556,-126.5 2715,-126.5 2715,-145.5"/>
<text text-anchor="middle" x="2635.5" y="-133.5" font-family="Helvetica,sans-Serif" font-size="10.00">src/d/menu/d_menu_window.cpp</text>
</a>
</g>
</g>
<!-- Node1&#45;&gt;Node25 -->
<g id="edge24" class="edge">
<title>Node1&#45;&gt;Node25</title>
<path fill="none" stroke="#63b8ff" d="M2577.81,-179.93C2593.37,-168.35 2611.84,-154.61 2623.62,-145.84"/>
<polygon fill="#63b8ff" stroke="#63b8ff" points="2575.73,-177.11 2569.8,-185.89 2579.91,-182.73 2575.73,-177.11"/>
</g>
<!-- Node26 -->
<g id="node26" class="node">
<title>Node26</title>
<g id="a_node26"><a xlink:href="d__meter2_8cpp.html" target="_top" xlink:title=" ">
<polygon fill="white" stroke="#666666" points="2861.5,-145.5 2733.5,-145.5 2733.5,-126.5 2861.5,-126.5 2861.5,-145.5"/>
<text text-anchor="middle" x="2797.5" y="-133.5" font-family="Helvetica,sans-Serif" font-size="10.00">src/d/meter/d_meter2.cpp</text>
</a>
</g>
</g>
<!-- Node1&#45;&gt;Node26 -->
<g id="edge25" class="edge">
<title>Node1&#45;&gt;Node26</title>
<path fill="none" stroke="#63b8ff" d="M2616.53,-183.7C2663.73,-171.52 2725,-155.71 2762.77,-145.96"/>
<polygon fill="#63b8ff" stroke="#63b8ff" points="2615.74,-180.29 2606.93,-186.18 2617.49,-187.07 2615.74,-180.29"/>
</g>
<!-- Node27 -->
<g id="node27" class="node">
<title>Node27</title>
<g id="a_node27"><a xlink:href="d__meter2__draw_8cpp.html" target="_top" xlink:title=" ">
<polygon fill="white" stroke="#666666" points="2989.5,-151 2879.5,-151 2879.5,-121 2989.5,-121 2989.5,-151"/>
<text text-anchor="start" x="2887.5" y="-139" font-family="Helvetica,sans-Serif" font-size="10.00">src/d/meter/d_meter2</text>
<text text-anchor="middle" x="2934.5" y="-128" font-family="Helvetica,sans-Serif" font-size="10.00">_draw.cpp</text>
</a>
</g>
</g>
<!-- Node1&#45;&gt;Node27 -->
<g id="edge26" class="edge">
<title>Node1&#45;&gt;Node27</title>
<path fill="none" stroke="#63b8ff" d="M2623.82,-190.73C2689.02,-181.41 2786.3,-166.75 2870.5,-151 2873.29,-150.48 2876.15,-149.92 2879.04,-149.35"/>
<polygon fill="#63b8ff" stroke="#63b8ff" points="2623.34,-187.27 2613.93,-192.14 2624.32,-194.2 2623.34,-187.27"/>
</g>
<!-- Node28 -->
<g id="node28" class="node">
<title>Node28</title>
<g id="a_node28"><a xlink:href="d__meter__HIO_8cpp.html" target="_top" xlink:title=" ">
<polygon fill="white" stroke="#666666" points="3111.5,-151 3007.5,-151 3007.5,-121 3111.5,-121 3111.5,-151"/>
<text text-anchor="start" x="3015.5" y="-139" font-family="Helvetica,sans-Serif" font-size="10.00">src/d/meter/d_meter</text>
<text text-anchor="middle" x="3059.5" y="-128" font-family="Helvetica,sans-Serif" font-size="10.00">_HIO.cpp</text>
</a>
</g>
</g>
<!-- Node1&#45;&gt;Node28 -->
<g id="edge27" class="edge">
<title>Node1&#45;&gt;Node28</title>
<path fill="none" stroke="#63b8ff" d="M2623.65,-195.37C2712.97,-187.98 2867.38,-173.27 2998.5,-151 3001.29,-150.53 3004.13,-150.01 3007,-149.45"/>
<polygon fill="#63b8ff" stroke="#63b8ff" points="2623.47,-191.87 2613.79,-196.17 2624.04,-198.85 2623.47,-191.87"/>
</g>
<!-- Node29 -->
<g id="node29" class="node">
<title>Node29</title>
<g id="a_node29"><a xlink:href="d__pane__class_8cpp.html" target="_top" xlink:title=" ">
<polygon fill="white" stroke="#666666" points="3273,-145.5 3130,-145.5 3130,-126.5 3273,-126.5 3273,-145.5"/>
<text text-anchor="middle" x="3201.5" y="-133.5" font-family="Helvetica,sans-Serif" font-size="10.00">src/d/pane/d_pane_class.cpp</text>
</a>
</g>
</g>
<!-- Node1&#45;&gt;Node29 -->
<g id="edge28" class="edge">
<title>Node1&#45;&gt;Node29</title>
<path fill="none" stroke="#63b8ff" d="M2623.4,-196.52C2732.45,-189.45 2942.75,-174.1 3120.5,-151 3131.26,-149.6 3142.76,-147.8 3153.63,-145.96"/>
<polygon fill="#63b8ff" stroke="#63b8ff" points="2623.48,-193 2613.72,-197.14 2623.92,-199.99 2623.48,-193"/>
</g>
<!-- Node30 -->
<g id="node30" class="node">
<title>Node30</title>
<g id="a_node30"><a xlink:href="d__pane__class__alpha_8cpp.html" target="_top" xlink:title=" ">
<polygon fill="white" stroke="#666666" points="3416,-151 3291,-151 3291,-121 3416,-121 3416,-151"/>
<text text-anchor="start" x="3299" y="-139" font-family="Helvetica,sans-Serif" font-size="10.00">src/d/pane/d_pane_class</text>
<text text-anchor="middle" x="3353.5" y="-128" font-family="Helvetica,sans-Serif" font-size="10.00">_alpha.cpp</text>
</a>
</g>
</g>
<!-- Node1&#45;&gt;Node30 -->
<g id="edge29" class="edge">
<title>Node1&#45;&gt;Node30</title>
<path fill="none" stroke="#63b8ff" d="M2623.22,-199.06C2755.69,-194.88 3042.59,-182.71 3282.5,-151 3285.24,-150.64 3288.03,-150.23 3290.85,-149.8"/>
<polygon fill="#63b8ff" stroke="#63b8ff" points="2623.43,-195.55 2613.54,-199.36 2623.65,-202.54 2623.43,-195.55"/>
</g>
<!-- Node31 -->
<g id="node31" class="node">
<title>Node31</title>
<g id="a_node31"><a xlink:href="d__particle_8cpp.html" target="_top" xlink:title=" ">
<polygon fill="white" stroke="#666666" points="3570.5,-145.5 3434.5,-145.5 3434.5,-126.5 3570.5,-126.5 3570.5,-145.5"/>
<text text-anchor="middle" x="3502.5" y="-133.5" font-family="Helvetica,sans-Serif" font-size="10.00">src/d/particle/d_particle.cpp</text>
</a>
</g>
</g>
<!-- Node1&#45;&gt;Node31 -->
<g id="edge30" class="edge">
<title>Node1&#45;&gt;Node31</title>
<path fill="none" stroke="#63b8ff" d="M2623.81,-199.83C2775.18,-196.78 3129.92,-186.17 3425.5,-151 3436.29,-149.72 3447.86,-147.87 3458.66,-145.93"/>
<polygon fill="#63b8ff" stroke="#63b8ff" points="2623.85,-196.33 2613.92,-200.03 2623.98,-203.33 2623.85,-196.33"/>
</g>
<!-- Node32 -->
<g id="node32" class="node">
<title>Node32</title>
<g id="a_node32"><a xlink:href="d__s__logo_8cpp.html" target="_top" xlink:title=" ">
<polygon fill="white" stroke="#666666" points="3696,-145.5 3589,-145.5 3589,-126.5 3696,-126.5 3696,-145.5"/>
<text text-anchor="middle" x="3642.5" y="-133.5" font-family="Helvetica,sans-Serif" font-size="10.00">src/d/s/d_s_logo.cpp</text>
</a>
</g>
</g>
<!-- Node1&#45;&gt;Node32 -->
<g id="edge31" class="edge">
<title>Node1&#45;&gt;Node32</title>
<path fill="none" stroke="#63b8ff" d="M2623.53,-201.71C2793.36,-202.4 3223.71,-198.81 3579.5,-151 3588.49,-149.79 3598.1,-147.95 3607.04,-145.99"/>
<polygon fill="#63b8ff" stroke="#63b8ff" points="2623.77,-198.21 2613.76,-201.66 2623.74,-205.21 2623.77,-198.21"/>
</g>
<!-- Node33 -->
<g id="node33" class="node">
<title>Node33</title>
<g id="a_node33"><a xlink:href="d__s__name_8cpp.html" target="_top" xlink:title=" ">
<polygon fill="white" stroke="#666666" points="3827,-145.5 3714,-145.5 3714,-126.5 3827,-126.5 3827,-145.5"/>
<text text-anchor="middle" x="3770.5" y="-133.5" font-family="Helvetica,sans-Serif" font-size="10.00">src/d/s/d_s_name.cpp</text>
</a>
</g>
</g>
<!-- Node1&#45;&gt;Node33 -->
<g id="edge32" class="edge">
<title>Node1&#45;&gt;Node33</title>
<path fill="none" stroke="#63b8ff" d="M2623.92,-199.43C2844.93,-194.49 3495.07,-178.02 3705.5,-151 3714.89,-149.79 3724.93,-147.93 3734.25,-145.94"/>
<polygon fill="#63b8ff" stroke="#63b8ff" points="2623.91,-195.92 2613.99,-199.65 2624.06,-202.92 2623.91,-195.92"/>
</g>
<!-- Node34 -->
<g id="node34" class="node">
<title>Node34</title>
<g id="a_node34"><a xlink:href="d__s__room_8cpp.html" target="_top" xlink:title=" ">
<polygon fill="white" stroke="#666666" points="3955.5,-145.5 3845.5,-145.5 3845.5,-126.5 3955.5,-126.5 3955.5,-145.5"/>
<text text-anchor="middle" x="3900.5" y="-133.5" font-family="Helvetica,sans-Serif" font-size="10.00">src/d/s/d_s_room.cpp</text>
</a>
</g>
</g>
<!-- Node1&#45;&gt;Node34 -->
<g id="edge33" class="edge">
<title>Node1&#45;&gt;Node34</title>
<path fill="none" stroke="#63b8ff" d="M2623.73,-199.84C2861.01,-195.86 3599.45,-181.29 3836.5,-151 3845.75,-149.82 3855.64,-147.96 3864.81,-145.97"/>
<polygon fill="#63b8ff" stroke="#63b8ff" points="2623.93,-196.34 2613.99,-200 2624.05,-203.33 2623.93,-196.34"/>
</g>
<!-- Node35 -->
<g id="node35" class="node">
<title>Node35</title>
<g id="a_node35"><a xlink:href="f__op__actor__mng_8cpp.html" target="_top" xlink:title=" ">
<polygon fill="white" stroke="#666666" points="4075,-151 3974,-151 3974,-121 4075,-121 4075,-151"/>
<text text-anchor="start" x="3982" y="-139" font-family="Helvetica,sans-Serif" font-size="10.00">src/f_op/f_op_actor</text>
<text text-anchor="middle" x="4024.5" y="-128" font-family="Helvetica,sans-Serif" font-size="10.00">_mng.cpp</text>
</a>
</g>
</g>
<!-- Node1&#45;&gt;Node35 -->
<g id="edge34" class="edge">
<title>Node1&#45;&gt;Node35</title>
<path fill="none" stroke="#63b8ff" d="M2623.31,-200.28C2875.43,-197.53 3701.42,-186 3964.5,-151 3967.47,-150.6 3970.51,-150.13 3973.56,-149.59"/>
<polygon fill="#63b8ff" stroke="#63b8ff" points="2623.57,-196.78 2613.61,-200.39 2623.64,-203.78 2623.57,-196.78"/>
</g>
<!-- Node36 -->
<g id="node36" class="node">
<title>Node36</title>
<g id="a_node36"><a xlink:href="f__op__msg__mng_8cpp.html" target="_top" xlink:title=" ">
<polygon fill="white" stroke="#666666" points="4233.5,-145.5 4093.5,-145.5 4093.5,-126.5 4233.5,-126.5 4233.5,-145.5"/>
<text text-anchor="middle" x="4163.5" y="-133.5" font-family="Helvetica,sans-Serif" font-size="10.00">src/f_op/f_op_msg_mng.cpp</text>
</a>
</g>
</g>
<!-- Node1&#45;&gt;Node36 -->
<g id="edge35" class="edge">
<title>Node1&#45;&gt;Node36</title>
<path fill="none" stroke="#63b8ff" d="M2623.58,-199.99C2889.6,-196.15 3796.08,-181.1 4084.5,-151 4095.86,-149.81 4108.05,-147.95 4119.37,-145.97"/>
<polygon fill="#63b8ff" stroke="#63b8ff" points="2623.61,-196.49 2613.66,-200.13 2623.71,-203.49 2623.61,-196.49"/>
</g>
<!-- Node37 -->
<g id="node37" class="node">
<title>Node37</title>
<g id="a_node37"><a xlink:href="m__Do__dvd__thread_8cpp.html" target="_top" xlink:title=" ">
<polygon fill="white" stroke="#666666" points="4409.5,-145.5 4251.5,-145.5 4251.5,-126.5 4409.5,-126.5 4409.5,-145.5"/>
<text text-anchor="middle" x="4330.5" y="-133.5" font-family="Helvetica,sans-Serif" font-size="10.00">src/m_Do/m_Do_dvd_thread.cpp</text>
</a>
</g>
</g>
<!-- Node1&#45;&gt;Node37 -->
<g id="edge36" class="edge">
<title>Node1&#45;&gt;Node37</title>
<path fill="none" stroke="#63b8ff" d="M2623.5,-200.08C2906.62,-196.36 3921.25,-181.17 4242.5,-151 4255.13,-149.81 4268.7,-147.95 4281.31,-145.97"/>
<polygon fill="#63b8ff" stroke="#63b8ff" points="2623.62,-196.58 2613.67,-200.21 2623.71,-203.58 2623.62,-196.58"/>
</g>
<!-- Node38 -->
<g id="node38" class="node">
<title>Node38</title>
<g id="a_node38"><a xlink:href="m__Do__ext_8cpp.html" target="_top" xlink:title=" ">
<polygon fill="white" stroke="#666666" points="4551,-145.5 4428,-145.5 4428,-126.5 4551,-126.5 4551,-145.5"/>
<text text-anchor="middle" x="4489.5" y="-133.5" font-family="Helvetica,sans-Serif" font-size="10.00">src/m_Do/m_Do_ext.cpp</text>
</a>
</g>
</g>
<!-- Node1&#45;&gt;Node38 -->
<g id="edge37" class="edge">
<title>Node1&#45;&gt;Node38</title>
<path fill="none" stroke="#63b8ff" d="M2623.62,-200.68C2925.27,-199.12 4061.57,-190.68 4418.5,-151 4428.86,-149.85 4439.97,-147.97 4450.25,-145.96"/>
<polygon fill="#63b8ff" stroke="#63b8ff" points="2623.89,-197.18 2613.91,-200.73 2623.93,-204.18 2623.89,-197.18"/>
</g>
<!-- Node39 -->
<g id="node39" class="node">
<title>Node39</title>
<g id="a_node39"><a xlink:href="d__msg__scrn__tree_8cpp.html" target="_top" xlink:title=" ">
<polygon fill="white" stroke="#666666" points="4675.5,-151 4569.5,-151 4569.5,-121 4675.5,-121 4675.5,-151"/>
<text text-anchor="start" x="4577.5" y="-139" font-family="Helvetica,sans-Serif" font-size="10.00">src/msg/scrn/d_msg</text>
<text text-anchor="middle" x="4622.5" y="-128" font-family="Helvetica,sans-Serif" font-size="10.00">_scrn_tree.cpp</text>
</a>
</g>
</g>
<!-- Node1&#45;&gt;Node39 -->
<g id="edge38" class="edge">
<title>Node1&#45;&gt;Node39</title>
<path fill="none" stroke="#63b8ff" d="M2623.46,-201.11C2939.09,-201.3 4174.71,-198.88 4560.5,-151 4563.35,-150.65 4566.26,-150.22 4569.18,-149.74"/>
<polygon fill="#63b8ff" stroke="#63b8ff" points="2623.7,-197.61 2613.7,-201.11 2623.7,-204.61 2623.7,-197.61"/>
</g>
<!-- Node3 -->
<g id="node3" class="node">
<title>Node3</title>
<g id="a_node3"><a xlink:href="m__Do__printf_8h.html" target="_top" xlink:title=" ">
<polygon fill="white" stroke="#666666" points="139,-79.5 0,-79.5 0,-60.5 139,-60.5 139,-79.5"/>
<text text-anchor="middle" x="69.5" y="-67.5" font-family="Helvetica,sans-Serif" font-size="10.00">include/m_Do/m_Do_printf.h</text>
</a>
</g>
</g>
<!-- Node2&#45;&gt;Node3 -->
<g id="edge2" class="edge">
<title>Node2&#45;&gt;Node3</title>
<path fill="none" stroke="#63b8ff" d="M436.8,-125.03C361.95,-115.55 247.53,-100.48 148.5,-85 138.73,-83.47 128.3,-81.72 118.33,-79.97"/>
<polygon fill="#63b8ff" stroke="#63b8ff" points="436.15,-128.47 446.51,-126.25 437.02,-121.53 436.15,-128.47"/>
</g>
<!-- Node5 -->
<g id="node5" class="node">
<title>Node5</title>
<g id="a_node5"><a xlink:href="f__ap__game_8cpp.html" target="_top" xlink:title=" ">
<polygon fill="white" stroke="#666666" points="278,-79.5 157,-79.5 157,-60.5 278,-60.5 278,-79.5"/>
<text text-anchor="middle" x="217.5" y="-67.5" font-family="Helvetica,sans-Serif" font-size="10.00">src/f_ap/f_ap_game.cpp</text>
</a>
</g>
</g>
<!-- Node2&#45;&gt;Node5 -->
<g id="edge4" class="edge">
<title>Node2&#45;&gt;Node5</title>
<path fill="none" stroke="#63b8ff" d="M464.24,-123.64C405.66,-111.14 312.77,-91.33 259.25,-79.91"/>
<polygon fill="#63b8ff" stroke="#63b8ff" points="463.48,-127.05 473.99,-125.72 464.94,-120.21 463.48,-127.05"/>
</g>
<!-- Node6 -->
<g id="node6" class="node">
<title>Node6</title>
<g id="a_node6"><a xlink:href="m__Do__controller__pad_8cpp.html" target="_top" xlink:title=" ">
<polygon fill="white" stroke="#666666" points="428.5,-85 296.5,-85 296.5,-55 428.5,-55 428.5,-85"/>
<text text-anchor="start" x="304.5" y="-73" font-family="Helvetica,sans-Serif" font-size="10.00">src/m_Do/m_Do_controller</text>
<text text-anchor="middle" x="362.5" y="-62" font-family="Helvetica,sans-Serif" font-size="10.00">_pad.cpp</text>
</a>
</g>
</g>
<!-- Node2&#45;&gt;Node6 -->
<g id="edge5" class="edge">
<title>Node2&#45;&gt;Node6</title>
<path fill="none" stroke="#63b8ff" d="M485.31,-121.71C459.69,-111.13 423.9,-96.35 397.56,-85.48"/>
<polygon fill="#63b8ff" stroke="#63b8ff" points="483.97,-124.94 494.55,-125.52 486.64,-118.47 483.97,-124.94"/>
</g>
<!-- Node7 -->
<g id="node7" class="node">
<title>Node7</title>
<g id="a_node7"><a xlink:href="m__Do__graphic_8cpp.html" target="_top" xlink:title=" ">
<polygon fill="white" stroke="#666666" points="588.5,-79.5 446.5,-79.5 446.5,-60.5 588.5,-60.5 588.5,-79.5"/>
<text text-anchor="middle" x="517.5" y="-67.5" font-family="Helvetica,sans-Serif" font-size="10.00">src/m_Do/m_Do_graphic.cpp</text>
</a>
</g>
</g>
<!-- Node2&#45;&gt;Node7 -->
<g id="edge6" class="edge">
<title>Node2&#45;&gt;Node7</title>
<path fill="none" stroke="#63b8ff" d="M517.5,-114.68C517.5,-102.94 517.5,-88.77 517.5,-79.82"/>
<polygon fill="#63b8ff" stroke="#63b8ff" points="514,-114.59 517.5,-124.59 521,-114.59 514,-114.59"/>
</g>
<!-- Node8 -->
<g id="node8" class="node">
<title>Node8</title>
<g id="a_node8"><a xlink:href="m__Do__machine_8cpp.html" target="_top" xlink:title=" ">
<polygon fill="white" stroke="#666666" points="754,-79.5 607,-79.5 607,-60.5 754,-60.5 754,-79.5"/>
<text text-anchor="middle" x="680.5" y="-67.5" font-family="Helvetica,sans-Serif" font-size="10.00">src/m_Do/m_Do_machine.cpp</text>
</a>
</g>
</g>
<!-- Node2&#45;&gt;Node8 -->
<g id="edge7" class="edge">
<title>Node2&#45;&gt;Node8</title>
<path fill="none" stroke="#63b8ff" d="M550.75,-121.95C582.65,-109.42 629.95,-90.85 657.77,-79.93"/>
<polygon fill="#63b8ff" stroke="#63b8ff" points="549.6,-118.64 541.57,-125.55 552.16,-125.15 549.6,-118.64"/>
</g>
<!-- Node9 -->
<g id="node9" class="node">
<title>Node9</title>
<g id="a_node9"><a xlink:href="m__Do__machine__exception_8cpp.html" target="_top" xlink:title=" ">
<polygon fill="white" stroke="#666666" points="901,-85 772,-85 772,-55 901,-55 901,-85"/>
<text text-anchor="start" x="780" y="-73" font-family="Helvetica,sans-Serif" font-size="10.00">src/m_Do/m_Do_machine</text>
<text text-anchor="middle" x="836.5" y="-62" font-family="Helvetica,sans-Serif" font-size="10.00">_exception.cpp</text>
</a>
</g>
</g>
<!-- Node2&#45;&gt;Node9 -->
<g id="edge8" class="edge">
<title>Node2&#45;&gt;Node9</title>
<path fill="none" stroke="#63b8ff" d="M573.19,-123.83C628.53,-112.72 713.35,-95.71 771.68,-84"/>
<polygon fill="#63b8ff" stroke="#63b8ff" points="572.79,-120.34 563.68,-125.74 574.17,-127.2 572.79,-120.34"/>
</g>
<!-- Node10 -->
<g id="node10" class="node">
<title>Node10</title>
<g id="a_node10"><a xlink:href="m__Do__main_8cpp.html" target="_top" xlink:title=" ">
<polygon fill="white" stroke="#666666" points="1050,-79.5 919,-79.5 919,-60.5 1050,-60.5 1050,-79.5"/>
<text text-anchor="middle" x="984.5" y="-67.5" font-family="Helvetica,sans-Serif" font-size="10.00">src/m_Do/m_Do_main.cpp</text>
</a>
</g>
</g>
<!-- Node2&#45;&gt;Node10 -->
<g id="edge9" class="edge">
<title>Node2&#45;&gt;Node10</title>
<path fill="none" stroke="#63b8ff" d="M576.64,-124.11C583.33,-123 590.05,-121.94 596.5,-121 735.5,-100.73 771.62,-106.07 910.5,-85 920.07,-83.55 930.29,-81.77 939.98,-79.97"/>
<polygon fill="#63b8ff" stroke="#63b8ff" points="576.23,-120.63 566.96,-125.76 577.4,-127.53 576.23,-120.63"/>
</g>
<!-- Node4 -->
<g id="node4" class="node">
<title>Node4</title>
<g id="a_node4"><a xlink:href="m__Do__printf_8cpp.html" target="_top" xlink:title=" ">
<polygon fill="white" stroke="#666666" points="135.5,-19 3.5,-19 3.5,0 135.5,0 135.5,-19"/>
<text text-anchor="middle" x="69.5" y="-7" font-family="Helvetica,sans-Serif" font-size="10.00">src/m_Do/m_Do_printf.cpp</text>
</a>
</g>
</g>
<!-- Node3&#45;&gt;Node4 -->
<g id="edge3" class="edge">
<title>Node3&#45;&gt;Node4</title>
<path fill="none" stroke="#63b8ff" d="M69.5,-49.16C69.5,-38.95 69.5,-27.04 69.5,-19.17"/>
<polygon fill="#63b8ff" stroke="#63b8ff" points="66,-48.85 69.5,-58.85 73,-48.85 66,-48.85"/>
</g>
</g>
</svg>
