<?xml version="1.0" encoding="UTF-8" standalone="no"?>
<!DOCTYPE svg PUBLIC "-//W3C//DTD SVG 1.1//EN"
 "http://www.w3.org/Graphics/SVG/1.1/DTD/svg11.dtd">
<!-- Generated by graphviz version 7.0.5 (20221223.1930)
 -->
<!-- Title: include/JSystem/JKernel/JKRFileLoader.h Pages: 1 -->
<svg width="3315pt" height="368pt"
 viewBox="0.00 0.00 3315.00 368.00" xmlns="http://www.w3.org/2000/svg" xmlns:xlink="http://www.w3.org/1999/xlink">
<g id="graph0" class="graph" transform="scale(1 1) rotate(0) translate(4 364)">
<title>include/JSystem/JKernel/JKRFileLoader.h</title>
<!-- Node1 -->
<g id="node1" class="node">
<title>Node1</title>
<g id="a_node1"><a xlink:title=" ">
<polygon fill="#999999" stroke="#666666" points="2222,-360 2097,-360 2097,-330 2222,-330 2222,-360"/>
<text text-anchor="start" x="2105" y="-348" font-family="Helvetica,sans-Serif" font-size="10.00">include/JSystem/JKernel</text>
<text text-anchor="middle" x="2159.5" y="-337" font-family="Helvetica,sans-Serif" font-size="10.00">/JKRFileLoader.h</text>
</a>
</g>
</g>
<!-- Node2 -->
<g id="node2" class="node">
<title>Node2</title>
<g id="a_node2"><a xlink:href="JKRArchive_8h.html" target="_top" xlink:title=" ">
<polygon fill="white" stroke="#666666" points="1623,-294 1498,-294 1498,-264 1623,-264 1623,-294"/>
<text text-anchor="start" x="1506" y="-282" font-family="Helvetica,sans-Serif" font-size="10.00">include/JSystem/JKernel</text>
<text text-anchor="middle" x="1560.5" y="-271" font-family="Helvetica,sans-Serif" font-size="10.00">/JKRArchive.h</text>
</a>
</g>
</g>
<!-- Node1&#45;&gt;Node2 -->
<g id="edge1" class="edge">
<title>Node1&#45;&gt;Node2</title>
<path fill="none" stroke="#63b8ff" d="M2085.36,-336.08C1966.25,-323.35 1734.39,-298.58 1623.08,-286.69"/>
<polygon fill="#63b8ff" stroke="#63b8ff" points="2084.71,-339.53 2095.02,-337.11 2085.45,-332.57 2084.71,-339.53"/>
</g>
<!-- Node265 -->
<g id="node48" class="node">
<title>Node265</title>
<g id="a_node48"><a xlink:href="JKRFileCache_8h.html" target="_top" xlink:title=" ">
<polygon fill="white" stroke="#666666" points="2730,-228 2605,-228 2605,-198 2730,-198 2730,-228"/>
<text text-anchor="start" x="2613" y="-216" font-family="Helvetica,sans-Serif" font-size="10.00">include/JSystem/JKernel</text>
<text text-anchor="middle" x="2667.5" y="-205" font-family="Helvetica,sans-Serif" font-size="10.00">/JKRFileCache.h</text>
</a>
</g>
</g>
<!-- Node1&#45;&gt;Node265 -->
<g id="edge66" class="edge">
<title>Node1&#45;&gt;Node265</title>
<path fill="none" stroke="#63b8ff" d="M2158.67,-318.14C2159.61,-300.16 2164.1,-277.13 2179.5,-264 2250.28,-203.66 2504.4,-241.02 2596.5,-228 2599.24,-227.61 2602.03,-227.19 2604.84,-226.74"/>
<polygon fill="#63b8ff" stroke="#63b8ff" points="2155.18,-318.04 2158.53,-328.1 2162.18,-318.15 2155.18,-318.04"/>
</g>
<!-- Node267 -->
<g id="node50" class="node">
<title>Node267</title>
<g id="a_node50"><a xlink:href="JKRFileLoader_8cpp.html" target="_top" xlink:title=" ">
<polygon fill="white" stroke="#666666" points="2297,-294 2188,-294 2188,-264 2297,-264 2297,-294"/>
<text text-anchor="start" x="2196" y="-282" font-family="Helvetica,sans-Serif" font-size="10.00">libs/JSystem/JKernel</text>
<text text-anchor="middle" x="2242.5" y="-271" font-family="Helvetica,sans-Serif" font-size="10.00">/JKRFileLoader.cpp</text>
</a>
</g>
</g>
<!-- Node1&#45;&gt;Node267 -->
<g id="edge70" class="edge">
<title>Node1&#45;&gt;Node267</title>
<path fill="none" stroke="#63b8ff" d="M2186.77,-322.97C2198.92,-313.61 2212.92,-302.81 2223.84,-294.39"/>
<polygon fill="#63b8ff" stroke="#63b8ff" points="2184.9,-319.99 2179.12,-328.87 2189.18,-325.54 2184.9,-319.99"/>
</g>
<!-- Node3 -->
<g id="node3" class="node">
<title>Node3</title>
<g id="a_node3"><a xlink:href="JASResArcLoader_8h.html" target="_top" xlink:title=" ">
<polygon fill="white" stroke="#666666" points="334,-228 207,-228 207,-198 334,-198 334,-228"/>
<text text-anchor="start" x="215" y="-216" font-family="Helvetica,sans-Serif" font-size="10.00">include/JSystem/JAudio2</text>
<text text-anchor="middle" x="270.5" y="-205" font-family="Helvetica,sans-Serif" font-size="10.00">/JASResArcLoader.h</text>
</a>
</g>
</g>
<!-- Node2&#45;&gt;Node3 -->
<g id="edge2" class="edge">
<title>Node2&#45;&gt;Node3</title>
<path fill="none" stroke="#63b8ff" d="M1486.2,-275.65C1306.51,-269.75 834.19,-252.99 440.5,-228 405.33,-225.77 366.12,-222.59 334.23,-219.82"/>
<polygon fill="#63b8ff" stroke="#63b8ff" points="1485.99,-279.14 1496.1,-275.97 1486.22,-272.15 1485.99,-279.14"/>
</g>
<!-- Node7 -->
<g id="node7" class="node">
<title>Node7</title>
<g id="a_node7"><a xlink:href="JKRAramArchive_8h.html" target="_top" xlink:title=" ">
<polygon fill="white" stroke="#666666" points="464,-96 339,-96 339,-66 464,-66 464,-96"/>
<text text-anchor="start" x="347" y="-84" font-family="Helvetica,sans-Serif" font-size="10.00">include/JSystem/JKernel</text>
<text text-anchor="middle" x="401.5" y="-73" font-family="Helvetica,sans-Serif" font-size="10.00">/JKRAramArchive.h</text>
</a>
</g>
</g>
<!-- Node2&#45;&gt;Node7 -->
<g id="edge6" class="edge">
<title>Node2&#45;&gt;Node7</title>
<path fill="none" stroke="#63b8ff" d="M1486.44,-276.7C1249.04,-272.25 520.1,-256.33 478.5,-228 439.86,-201.68 458.29,-172.82 435.5,-132 428.54,-119.53 419.38,-106.2 412.32,-96.44"/>
<polygon fill="#63b8ff" stroke="#63b8ff" points="1486.12,-280.19 1496.19,-276.88 1486.25,-273.19 1486.12,-280.19"/>
</g>
<!-- Node9 -->
<g id="node9" class="node">
<title>Node9</title>
<g id="a_node9"><a xlink:href="JKRArchivePub_8cpp.html" target="_top" xlink:title=" ">
<polygon fill="white" stroke="#666666" points="408,-30 299,-30 299,0 408,0 408,-30"/>
<text text-anchor="start" x="307" y="-18" font-family="Helvetica,sans-Serif" font-size="10.00">libs/JSystem/JKernel</text>
<text text-anchor="middle" x="353.5" y="-7" font-family="Helvetica,sans-Serif" font-size="10.00">/JKRArchivePub.cpp</text>
</a>
</g>
</g>
<!-- Node2&#45;&gt;Node9 -->
<g id="edge58" class="edge">
<title>Node2&#45;&gt;Node9</title>
<path fill="none" stroke="#63b8ff" d="M1486.08,-276.85C1370.52,-273.96 1141.33,-263.79 950.5,-228 849.33,-209.03 827.07,-191.64 728.5,-162 631.96,-132.97 601.12,-142.15 511.5,-96 492.06,-85.99 491.4,-76.99 472.5,-66 447.99,-51.75 418.65,-39.37 395.23,-30.5"/>
<polygon fill="#63b8ff" stroke="#63b8ff" points="1485.99,-280.35 1496.07,-277.09 1486.16,-273.35 1485.99,-280.35"/>
</g>
<!-- Node12 -->
<g id="node12" class="node">
<title>Node12</title>
<g id="a_node12"><a xlink:href="JKRCompArchive_8h.html" target="_top" xlink:title=" ">
<polygon fill="white" stroke="#666666" points="646,-96 521,-96 521,-66 646,-66 646,-96"/>
<text text-anchor="start" x="529" y="-84" font-family="Helvetica,sans-Serif" font-size="10.00">include/JSystem/JKernel</text>
<text text-anchor="middle" x="583.5" y="-73" font-family="Helvetica,sans-Serif" font-size="10.00">/JKRCompArchive.h</text>
</a>
</g>
</g>
<!-- Node2&#45;&gt;Node12 -->
<g id="edge11" class="edge">
<title>Node2&#45;&gt;Node12</title>
<path fill="none" stroke="#63b8ff" d="M1486.2,-274.32C1392.01,-268.71 1224.99,-255.62 1084.5,-228 909.82,-193.66 708.12,-126.02 623.8,-96.43"/>
<polygon fill="#63b8ff" stroke="#63b8ff" points="1485.9,-277.81 1496.08,-274.89 1486.3,-270.82 1485.9,-277.81"/>
</g>
<!-- Node13 -->
<g id="node13" class="node">
<title>Node13</title>
<g id="a_node13"><a xlink:href="JKRDvdArchive_8h.html" target="_top" xlink:title=" ">
<polygon fill="white" stroke="#666666" points="789,-96 664,-96 664,-66 789,-66 789,-96"/>
<text text-anchor="start" x="672" y="-84" font-family="Helvetica,sans-Serif" font-size="10.00">include/JSystem/JKernel</text>
<text text-anchor="middle" x="726.5" y="-73" font-family="Helvetica,sans-Serif" font-size="10.00">/JKRDvdArchive.h</text>
</a>
</g>
</g>
<!-- Node2&#45;&gt;Node13 -->
<g id="edge14" class="edge">
<title>Node2&#45;&gt;Node13</title>
<path fill="none" stroke="#63b8ff" d="M1486.23,-271.1C1413.39,-263.53 1299.48,-249.5 1202.5,-228 1037.52,-191.42 846.92,-125.56 766.05,-96.48"/>
<polygon fill="#63b8ff" stroke="#63b8ff" points="1485.74,-274.57 1496.05,-272.11 1486.46,-267.61 1485.74,-274.57"/>
</g>
<!-- Node15 -->
<g id="node15" class="node">
<title>Node15</title>
<g id="a_node15"><a xlink:href="JKRMemArchive_8h.html" target="_top" xlink:title=" ">
<polygon fill="white" stroke="#666666" points="1389,-96 1264,-96 1264,-66 1389,-66 1389,-96"/>
<text text-anchor="start" x="1272" y="-84" font-family="Helvetica,sans-Serif" font-size="10.00">include/JSystem/JKernel</text>
<text text-anchor="middle" x="1326.5" y="-73" font-family="Helvetica,sans-Serif" font-size="10.00">/JKRMemArchive.h</text>
</a>
</g>
</g>
<!-- Node2&#45;&gt;Node15 -->
<g id="edge18" class="edge">
<title>Node2&#45;&gt;Node15</title>
<path fill="none" stroke="#63b8ff" d="M1486.6,-278.06C1396.38,-276.38 1251.57,-267.4 1217.5,-228 1177.88,-182.18 1258.53,-123.21 1301.68,-96.41"/>
<polygon fill="#63b8ff" stroke="#63b8ff" points="1486.3,-281.56 1496.35,-278.21 1486.41,-274.56 1486.3,-281.56"/>
</g>
<!-- Node26 -->
<g id="node26" class="node">
<title>Node26</title>
<g id="a_node26"><a xlink:href="m__Do__dvd__thread_8h.html" target="_top" xlink:title=" ">
<polygon fill="white" stroke="#666666" points="1351,-228 1226,-228 1226,-198 1351,-198 1351,-228"/>
<text text-anchor="start" x="1234" y="-216" font-family="Helvetica,sans-Serif" font-size="10.00">include/m_Do/m_Do_dvd</text>
<text text-anchor="middle" x="1288.5" y="-205" font-family="Helvetica,sans-Serif" font-size="10.00">_thread.h</text>
</a>
</g>
</g>
<!-- Node2&#45;&gt;Node26 -->
<g id="edge31" class="edge">
<title>Node2&#45;&gt;Node26</title>
<path fill="none" stroke="#63b8ff" d="M1488.11,-260.97C1444.92,-250.81 1390.69,-238.04 1349.66,-228.39"/>
<polygon fill="#63b8ff" stroke="#63b8ff" points="1487.11,-264.33 1497.65,-263.21 1488.71,-257.51 1487.11,-264.33"/>
</g>
<!-- Node257 -->
<g id="node39" class="node">
<title>Node257</title>
<g id="a_node39"><a xlink:href="J2DScreen_8cpp.html" target="_top" xlink:title=" ">
<polygon fill="white" stroke="#666666" points="1488,-228 1369,-228 1369,-198 1488,-198 1488,-228"/>
<text text-anchor="start" x="1377" y="-216" font-family="Helvetica,sans-Serif" font-size="10.00">libs/JSystem/J2DGraph</text>
<text text-anchor="middle" x="1428.5" y="-205" font-family="Helvetica,sans-Serif" font-size="10.00">/J2DScreen.cpp</text>
</a>
</g>
</g>
<!-- Node2&#45;&gt;Node257 -->
<g id="edge56" class="edge">
<title>Node2&#45;&gt;Node257</title>
<path fill="none" stroke="#63b8ff" d="M1520.74,-258.72C1500.58,-248.95 1476.52,-237.28 1458.02,-228.31"/>
<polygon fill="#63b8ff" stroke="#63b8ff" points="1518.99,-261.76 1529.51,-262.98 1522.04,-255.46 1518.99,-261.76"/>
</g>
<!-- Node258 -->
<g id="node40" class="node">
<title>Node258</title>
<g id="a_node40"><a xlink:href="JKRArchivePri_8cpp.html" target="_top" xlink:title=" ">
<polygon fill="white" stroke="#666666" points="1615,-228 1506,-228 1506,-198 1615,-198 1615,-228"/>
<text text-anchor="start" x="1514" y="-216" font-family="Helvetica,sans-Serif" font-size="10.00">libs/JSystem/JKernel</text>
<text text-anchor="middle" x="1560.5" y="-205" font-family="Helvetica,sans-Serif" font-size="10.00">/JKRArchivePri.cpp</text>
</a>
</g>
</g>
<!-- Node2&#45;&gt;Node258 -->
<g id="edge57" class="edge">
<title>Node2&#45;&gt;Node258</title>
<path fill="none" stroke="#63b8ff" d="M1560.5,-252.39C1560.5,-244.13 1560.5,-235.28 1560.5,-228.16"/>
<polygon fill="#63b8ff" stroke="#63b8ff" points="1557,-252.28 1560.5,-262.28 1564,-252.28 1557,-252.28"/>
</g>
<!-- Node259 -->
<g id="node41" class="node">
<title>Node259</title>
<g id="a_node41"><a xlink:href="JKRDvdRipper_8cpp.html" target="_top" xlink:title=" ">
<polygon fill="white" stroke="#666666" points="1742,-228 1633,-228 1633,-198 1742,-198 1742,-228"/>
<text text-anchor="start" x="1641" y="-216" font-family="Helvetica,sans-Serif" font-size="10.00">libs/JSystem/JKernel</text>
<text text-anchor="middle" x="1687.5" y="-205" font-family="Helvetica,sans-Serif" font-size="10.00">/JKRDvdRipper.cpp</text>
</a>
</g>
</g>
<!-- Node2&#45;&gt;Node259 -->
<g id="edge59" class="edge">
<title>Node2&#45;&gt;Node259</title>
<path fill="none" stroke="#63b8ff" d="M1599.02,-258.59C1618.36,-248.84 1641.38,-237.24 1659.09,-228.31"/>
<polygon fill="#63b8ff" stroke="#63b8ff" points="1597.71,-255.33 1590.35,-262.96 1600.86,-261.58 1597.71,-255.33"/>
</g>
<!-- Node260 -->
<g id="node42" class="node">
<title>Node260</title>
<g id="a_node42"><a xlink:href="JKRFileFinder_8cpp.html" target="_top" xlink:title=" ">
<polygon fill="white" stroke="#666666" points="1869,-228 1760,-228 1760,-198 1869,-198 1869,-228"/>
<text text-anchor="start" x="1768" y="-216" font-family="Helvetica,sans-Serif" font-size="10.00">libs/JSystem/JKernel</text>
<text text-anchor="middle" x="1814.5" y="-205" font-family="Helvetica,sans-Serif" font-size="10.00">/JKRFileFinder.cpp</text>
</a>
</g>
</g>
<!-- Node2&#45;&gt;Node260 -->
<g id="edge60" class="edge">
<title>Node2&#45;&gt;Node260</title>
<path fill="none" stroke="#63b8ff" d="M1628.81,-260.79C1669.79,-250.46 1721.23,-237.5 1759.57,-227.84"/>
<polygon fill="#63b8ff" stroke="#63b8ff" points="1628.13,-257.35 1619.29,-263.19 1629.84,-264.14 1628.13,-257.35"/>
</g>
<!-- Node261 -->
<g id="node43" class="node">
<title>Node261</title>
<g id="a_node43"><a xlink:href="JUTResource_8cpp.html" target="_top" xlink:title=" ">
<polygon fill="white" stroke="#666666" points="1993.5,-228 1887.5,-228 1887.5,-198 1993.5,-198 1993.5,-228"/>
<text text-anchor="start" x="1895.5" y="-216" font-family="Helvetica,sans-Serif" font-size="10.00">libs/JSystem/JUtility</text>
<text text-anchor="middle" x="1940.5" y="-205" font-family="Helvetica,sans-Serif" font-size="10.00">/JUTResource.cpp</text>
</a>
</g>
</g>
<!-- Node2&#45;&gt;Node261 -->
<g id="edge61" class="edge">
<title>Node2&#45;&gt;Node261</title>
<path fill="none" stroke="#63b8ff" d="M1634.75,-267.74C1699.35,-258.48 1795.39,-243.9 1878.5,-228 1881.32,-227.46 1884.2,-226.89 1887.11,-226.29"/>
<polygon fill="#63b8ff" stroke="#63b8ff" points="1634.37,-264.26 1624.96,-269.14 1635.36,-271.19 1634.37,-264.26"/>
</g>
<!-- Node57 -->
<g id="node44" class="node">
<title>Node57</title>
<g id="a_node44"><a xlink:href="d__bright__check_8cpp.html" target="_top" xlink:title=" ">
<polygon fill="white" stroke="#666666" points="2137,-222.5 2012,-222.5 2012,-203.5 2137,-203.5 2137,-222.5"/>
<text text-anchor="middle" x="2074.5" y="-210.5" font-family="Helvetica,sans-Serif" font-size="10.00">src/d/d_bright_check.cpp</text>
</a>
</g>
</g>
<!-- Node2&#45;&gt;Node57 -->
<g id="edge62" class="edge">
<title>Node2&#45;&gt;Node57</title>
<path fill="none" stroke="#63b8ff" d="M1634.49,-271.44C1722.46,-263.22 1873.62,-247.79 2002.5,-228 2011.81,-226.57 2021.76,-224.8 2031.19,-223"/>
<polygon fill="#63b8ff" stroke="#63b8ff" points="1634.43,-267.93 1624.8,-272.34 1635.08,-274.9 1634.43,-267.93"/>
</g>
<!-- Node262 -->
<g id="node45" class="node">
<title>Node262</title>
<g id="a_node45"><a xlink:href="d__menu__fmap_8cpp.html" target="_top" xlink:title=" ">
<polygon fill="white" stroke="#666666" points="2303.5,-222.5 2155.5,-222.5 2155.5,-203.5 2303.5,-203.5 2303.5,-222.5"/>
<text text-anchor="middle" x="2229.5" y="-210.5" font-family="Helvetica,sans-Serif" font-size="10.00">src/d/menu/d_menu_fmap.cpp</text>
</a>
</g>
</g>
<!-- Node2&#45;&gt;Node262 -->
<g id="edge63" class="edge">
<title>Node2&#45;&gt;Node262</title>
<path fill="none" stroke="#63b8ff" d="M1634.54,-273.64C1745.92,-266.63 1963.06,-251.26 2146.5,-228 2157.52,-226.6 2169.31,-224.8 2180.44,-222.96"/>
<polygon fill="#63b8ff" stroke="#63b8ff" points="1634.39,-270.14 1624.63,-274.25 1634.83,-277.12 1634.39,-270.14"/>
</g>
<!-- Node263 -->
<g id="node46" class="node">
<title>Node263</title>
<g id="a_node46"><a xlink:href="d__meter__HIO_8cpp.html" target="_top" xlink:title=" ">
<polygon fill="white" stroke="#666666" points="2425.5,-228 2321.5,-228 2321.5,-198 2425.5,-198 2425.5,-228"/>
<text text-anchor="start" x="2329.5" y="-216" font-family="Helvetica,sans-Serif" font-size="10.00">src/d/meter/d_meter</text>
<text text-anchor="middle" x="2373.5" y="-205" font-family="Helvetica,sans-Serif" font-size="10.00">_HIO.cpp</text>
</a>
</g>
</g>
<!-- Node2&#45;&gt;Node263 -->
<g id="edge64" class="edge">
<title>Node2&#45;&gt;Node263</title>
<path fill="none" stroke="#63b8ff" d="M1634.67,-276.97C1770.05,-274.24 2065.96,-264.25 2312.5,-228 2315.3,-227.59 2318.15,-227.12 2321.03,-226.6"/>
<polygon fill="#63b8ff" stroke="#63b8ff" points="1634.69,-273.47 1624.76,-277.17 1634.83,-280.47 1634.69,-273.47"/>
</g>
<!-- Node264 -->
<g id="node47" class="node">
<title>Node264</title>
<g id="a_node47"><a xlink:href="d__pane__class_8cpp.html" target="_top" xlink:title=" ">
<polygon fill="white" stroke="#666666" points="2587,-222.5 2444,-222.5 2444,-203.5 2587,-203.5 2587,-222.5"/>
<text text-anchor="middle" x="2515.5" y="-210.5" font-family="Helvetica,sans-Serif" font-size="10.00">src/d/pane/d_pane_class.cpp</text>
</a>
</g>
</g>
<!-- Node2&#45;&gt;Node264 -->
<g id="edge65" class="edge">
<title>Node2&#45;&gt;Node264</title>
<path fill="none" stroke="#63b8ff" d="M1634.62,-276.61C1785.59,-273.15 2139.44,-261.83 2434.5,-228 2445.7,-226.72 2457.7,-224.89 2468.94,-222.98"/>
<polygon fill="#63b8ff" stroke="#63b8ff" points="1634.67,-273.11 1624.75,-276.83 1634.83,-280.1 1634.67,-273.11"/>
</g>
<!-- Node4 -->
<g id="node4" class="node">
<title>Node4</title>
<g id="a_node4"><a xlink:href="JASResArcLoader_8cpp.html" target="_top" xlink:title=" ">
<polygon fill="white" stroke="#666666" points="119,-162 0,-162 0,-132 119,-132 119,-162"/>
<text text-anchor="start" x="8" y="-150" font-family="Helvetica,sans-Serif" font-size="10.00">libs/JSystem/JAudio2</text>
<text text-anchor="middle" x="59.5" y="-139" font-family="Helvetica,sans-Serif" font-size="10.00">/JASResArcLoader.cpp</text>
</a>
</g>
</g>
<!-- Node3&#45;&gt;Node4 -->
<g id="edge3" class="edge">
<title>Node3&#45;&gt;Node4</title>
<path fill="none" stroke="#63b8ff" d="M211.98,-194.25C178.88,-184.21 138.03,-171.82 106.94,-162.39"/>
<polygon fill="#63b8ff" stroke="#63b8ff" points="210.85,-197.56 221.44,-197.12 212.88,-190.87 210.85,-197.56"/>
</g>
<!-- Node5 -->
<g id="node5" class="node">
<title>Node5</title>
<g id="a_node5"><a xlink:href="JAUSectionHeap_8cpp.html" target="_top" xlink:title=" ">
<polygon fill="white" stroke="#666666" points="250,-162 137,-162 137,-132 250,-132 250,-162"/>
<text text-anchor="start" x="145" y="-150" font-family="Helvetica,sans-Serif" font-size="10.00">libs/JSystem/JAudio2</text>
<text text-anchor="middle" x="193.5" y="-139" font-family="Helvetica,sans-Serif" font-size="10.00">/JAUSectionHeap.cpp</text>
</a>
</g>
</g>
<!-- Node3&#45;&gt;Node5 -->
<g id="edge4" class="edge">
<title>Node3&#45;&gt;Node5</title>
<path fill="none" stroke="#63b8ff" d="M244.87,-190.7C233.68,-181.4 220.85,-170.73 210.81,-162.39"/>
<polygon fill="#63b8ff" stroke="#63b8ff" points="242.32,-193.13 252.25,-196.83 246.79,-187.75 242.32,-193.13"/>
</g>
<!-- Node6 -->
<g id="node6" class="node">
<title>Node6</title>
<g id="a_node6"><a xlink:href="Z2AudioMgr_8cpp.html" target="_top" xlink:title=" ">
<polygon fill="white" stroke="#666666" points="426.5,-156.5 268.5,-156.5 268.5,-137.5 426.5,-137.5 426.5,-156.5"/>
<text text-anchor="middle" x="347.5" y="-144.5" font-family="Helvetica,sans-Serif" font-size="10.00">libs/Z2AudioLib/Z2AudioMgr.cpp</text>
</a>
</g>
</g>
<!-- Node3&#45;&gt;Node6 -->
<g id="edge5" class="edge">
<title>Node3&#45;&gt;Node6</title>
<path fill="none" stroke="#63b8ff" d="M296.24,-190.6C310.09,-179.1 326.42,-165.52 336.86,-156.84"/>
<polygon fill="#63b8ff" stroke="#63b8ff" points="294.21,-187.75 288.75,-196.83 298.68,-193.13 294.21,-187.75"/>
</g>
<!-- Node8 -->
<g id="node8" class="node">
<title>Node8</title>
<g id="a_node8"><a xlink:href="JKRAramArchive_8cpp.html" target="_top" xlink:title=" ">
<polygon fill="white" stroke="#666666" points="281,-30 168,-30 168,0 281,0 281,-30"/>
<text text-anchor="start" x="176" y="-18" font-family="Helvetica,sans-Serif" font-size="10.00">libs/JSystem/JKernel</text>
<text text-anchor="middle" x="224.5" y="-7" font-family="Helvetica,sans-Serif" font-size="10.00">/JKRAramArchive.cpp</text>
</a>
</g>
</g>
<!-- Node7&#45;&gt;Node8 -->
<g id="edge7" class="edge">
<title>Node7&#45;&gt;Node8</title>
<path fill="none" stroke="#63b8ff" d="M351.18,-61.8C323.67,-51.86 290.08,-39.71 264.4,-30.43"/>
<polygon fill="#63b8ff" stroke="#63b8ff" points="349.76,-65.01 360.35,-65.12 352.14,-58.43 349.76,-65.01"/>
</g>
<!-- Node7&#45;&gt;Node9 -->
<g id="edge8" class="edge">
<title>Node7&#45;&gt;Node9</title>
<path fill="none" stroke="#63b8ff" d="M384.01,-56.68C377.35,-47.79 369.96,-37.95 364.12,-30.16"/>
<polygon fill="#63b8ff" stroke="#63b8ff" points="381.14,-58.69 389.94,-64.59 386.74,-54.49 381.14,-58.69"/>
</g>
<!-- Node10 -->
<g id="node10" class="node">
<title>Node10</title>
<g id="a_node10"><a xlink:href="JKRCompArchive_8cpp.html" target="_top" xlink:title=" ">
<polygon fill="white" stroke="#666666" points="541,-30 426,-30 426,0 541,0 541,-30"/>
<text text-anchor="start" x="434" y="-18" font-family="Helvetica,sans-Serif" font-size="10.00">libs/JSystem/JKernel</text>
<text text-anchor="middle" x="483.5" y="-7" font-family="Helvetica,sans-Serif" font-size="10.00">/JKRCompArchive.cpp</text>
</a>
</g>
</g>
<!-- Node7&#45;&gt;Node10 -->
<g id="edge9" class="edge">
<title>Node7&#45;&gt;Node10</title>
<path fill="none" stroke="#63b8ff" d="M428.44,-58.97C440.44,-49.61 454.27,-38.81 465.07,-30.39"/>
<polygon fill="#63b8ff" stroke="#63b8ff" points="426.62,-55.95 420.89,-64.87 430.93,-61.47 426.62,-55.95"/>
</g>
<!-- Node11 -->
<g id="node11" class="node">
<title>Node11</title>
<g id="a_node11"><a xlink:href="d__stage_8cpp.html" target="_top" xlink:title=" ">
<polygon fill="white" stroke="#666666" points="653.5,-24.5 559.5,-24.5 559.5,-5.5 653.5,-5.5 653.5,-24.5"/>
<text text-anchor="middle" x="606.5" y="-12.5" font-family="Helvetica,sans-Serif" font-size="10.00">src/d/d_stage.cpp</text>
</a>
</g>
</g>
<!-- Node7&#45;&gt;Node11 -->
<g id="edge10" class="edge">
<title>Node7&#45;&gt;Node11</title>
<path fill="none" stroke="#63b8ff" d="M458.39,-62.24C497.2,-50.12 546.97,-34.59 577.79,-24.96"/>
<polygon fill="#63b8ff" stroke="#63b8ff" points="457.71,-58.79 449.21,-65.11 459.8,-65.47 457.71,-58.79"/>
</g>
<!-- Node12&#45;&gt;Node9 -->
<g id="edge12" class="edge">
<title>Node12&#45;&gt;Node9</title>
<path fill="none" stroke="#63b8ff" d="M520.65,-62.51C484.41,-52.43 439.39,-39.9 405.21,-30.39"/>
<polygon fill="#63b8ff" stroke="#63b8ff" points="519.57,-65.84 530.14,-65.15 521.44,-59.1 519.57,-65.84"/>
</g>
<!-- Node12&#45;&gt;Node10 -->
<g id="edge13" class="edge">
<title>Node12&#45;&gt;Node10</title>
<path fill="none" stroke="#63b8ff" d="M551.93,-59.8C537.01,-50.24 519.53,-39.06 505.98,-30.39"/>
<polygon fill="#63b8ff" stroke="#63b8ff" points="549.72,-62.54 560.03,-64.98 553.5,-56.64 549.72,-62.54"/>
</g>
<!-- Node13&#45;&gt;Node9 -->
<g id="edge15" class="edge">
<title>Node13&#45;&gt;Node9</title>
<path fill="none" stroke="#63b8ff" d="M652.57,-65.72C547.17,-47.88 518.18,-48.96 416.5,-30 413.86,-29.51 411.16,-28.98 408.43,-28.44"/>
<polygon fill="#63b8ff" stroke="#63b8ff" points="651.76,-69.13 662.21,-67.37 652.94,-62.24 651.76,-69.13"/>
</g>
<!-- Node13&#45;&gt;Node10 -->
<g id="edge16" class="edge">
<title>Node13&#45;&gt;Node10</title>
<path fill="none" stroke="#63b8ff" d="M660.59,-62.64C622.22,-52.53 574.41,-39.94 538.14,-30.39"/>
<polygon fill="#63b8ff" stroke="#63b8ff" points="659.64,-66.01 670.2,-65.17 661.42,-59.24 659.64,-66.01"/>
</g>
<!-- Node14 -->
<g id="node14" class="node">
<title>Node14</title>
<g id="a_node14"><a xlink:href="JKRDvdArchive_8cpp.html" target="_top" xlink:title=" ">
<polygon fill="white" stroke="#666666" points="781,-30 672,-30 672,0 781,0 781,-30"/>
<text text-anchor="start" x="680" y="-18" font-family="Helvetica,sans-Serif" font-size="10.00">libs/JSystem/JKernel</text>
<text text-anchor="middle" x="726.5" y="-7" font-family="Helvetica,sans-Serif" font-size="10.00">/JKRDvdArchive.cpp</text>
</a>
</g>
</g>
<!-- Node13&#45;&gt;Node14 -->
<g id="edge17" class="edge">
<title>Node13&#45;&gt;Node14</title>
<path fill="none" stroke="#63b8ff" d="M726.5,-54.39C726.5,-46.13 726.5,-37.28 726.5,-30.16"/>
<polygon fill="#63b8ff" stroke="#63b8ff" points="723,-54.28 726.5,-64.28 730,-54.28 723,-54.28"/>
</g>
<!-- Node15&#45;&gt;Node9 -->
<g id="edge19" class="edge">
<title>Node15&#45;&gt;Node9</title>
<path fill="none" stroke="#63b8ff" d="M1252.27,-80.03C1096.59,-79.18 724.82,-72.44 416.5,-30 413.84,-29.63 411.12,-29.21 408.38,-28.75"/>
<polygon fill="#63b8ff" stroke="#63b8ff" points="1252.02,-83.52 1262.04,-80.07 1252.05,-76.52 1252.02,-83.52"/>
</g>
<!-- Node15&#45;&gt;Node10 -->
<g id="edge20" class="edge">
<title>Node15&#45;&gt;Node10</title>
<path fill="none" stroke="#63b8ff" d="M1252.31,-78.71C1113.79,-75.53 806.66,-64.84 550.5,-30 547.44,-29.58 544.31,-29.11 541.15,-28.59"/>
<polygon fill="#63b8ff" stroke="#63b8ff" points="1252,-82.21 1262.07,-78.93 1252.15,-75.21 1252,-82.21"/>
</g>
<!-- Node16 -->
<g id="node16" class="node">
<title>Node16</title>
<g id="a_node16"><a xlink:href="JKRMemArchive_8cpp.html" target="_top" xlink:title=" ">
<polygon fill="white" stroke="#666666" points="1087,-30 976,-30 976,0 1087,0 1087,-30"/>
<text text-anchor="start" x="984" y="-18" font-family="Helvetica,sans-Serif" font-size="10.00">libs/JSystem/JKernel</text>
<text text-anchor="middle" x="1031.5" y="-7" font-family="Helvetica,sans-Serif" font-size="10.00">/JKRMemArchive.cpp</text>
</a>
</g>
</g>
<!-- Node15&#45;&gt;Node16 -->
<g id="edge21" class="edge">
<title>Node15&#45;&gt;Node16</title>
<path fill="none" stroke="#63b8ff" d="M1252.57,-63.96C1201.32,-52.84 1134.15,-38.27 1087.36,-28.12"/>
<polygon fill="#63b8ff" stroke="#63b8ff" points="1251.58,-67.33 1262.1,-66.03 1253.07,-60.49 1251.58,-67.33"/>
</g>
<!-- Node17 -->
<g id="node17" class="node">
<title>Node17</title>
<g id="a_node17"><a xlink:href="d__resorce_8cpp.html" target="_top" xlink:title=" ">
<polygon fill="white" stroke="#666666" points="1377.5,-24.5 1275.5,-24.5 1275.5,-5.5 1377.5,-5.5 1377.5,-24.5"/>
<text text-anchor="middle" x="1326.5" y="-12.5" font-family="Helvetica,sans-Serif" font-size="10.00">src/d/d_resorce.cpp</text>
</a>
</g>
</g>
<!-- Node15&#45;&gt;Node17 -->
<g id="edge22" class="edge">
<title>Node15&#45;&gt;Node17</title>
<path fill="none" stroke="#63b8ff" d="M1326.5,-54.59C1326.5,-44.06 1326.5,-32.53 1326.5,-24.84"/>
<polygon fill="#63b8ff" stroke="#63b8ff" points="1323,-54.28 1326.5,-64.28 1330,-54.28 1323,-54.28"/>
</g>
<!-- Node18 -->
<g id="node18" class="node">
<title>Node18</title>
<g id="a_node18"><a xlink:href="d__menu__fishing_8cpp.html" target="_top" xlink:title=" ">
<polygon fill="white" stroke="#666666" points="1549.5,-24.5 1395.5,-24.5 1395.5,-5.5 1549.5,-5.5 1549.5,-24.5"/>
<text text-anchor="middle" x="1472.5" y="-12.5" font-family="Helvetica,sans-Serif" font-size="10.00">src/d/menu/d_menu_fishing.cpp</text>
</a>
</g>
</g>
<!-- Node15&#45;&gt;Node18 -->
<g id="edge23" class="edge">
<title>Node15&#45;&gt;Node18</title>
<path fill="none" stroke="#63b8ff" d="M1369.7,-61.06C1396.89,-49.14 1430.75,-34.3 1452,-24.99"/>
<polygon fill="#63b8ff" stroke="#63b8ff" points="1368.4,-57.81 1360.65,-65.03 1371.22,-64.22 1368.4,-57.81"/>
</g>
<!-- Node19 -->
<g id="node19" class="node">
<title>Node19</title>
<g id="a_node19"><a xlink:href="d__menu__insect_8cpp.html" target="_top" xlink:title=" ">
<polygon fill="white" stroke="#666666" points="1257.5,-24.5 1105.5,-24.5 1105.5,-5.5 1257.5,-5.5 1257.5,-24.5"/>
<text text-anchor="middle" x="1181.5" y="-12.5" font-family="Helvetica,sans-Serif" font-size="10.00">src/d/menu/d_menu_insect.cpp</text>
</a>
</g>
</g>
<!-- Node15&#45;&gt;Node19 -->
<g id="edge24" class="edge">
<title>Node15&#45;&gt;Node19</title>
<path fill="none" stroke="#63b8ff" d="M1283.6,-61.06C1256.59,-49.14 1222.96,-34.3 1201.86,-24.99"/>
<polygon fill="#63b8ff" stroke="#63b8ff" points="1282.01,-64.19 1292.57,-65.03 1284.84,-57.79 1282.01,-64.19"/>
</g>
<!-- Node20 -->
<g id="node20" class="node">
<title>Node20</title>
<g id="a_node20"><a xlink:href="d__menu__item__explain_8cpp.html" target="_top" xlink:title=" ">
<polygon fill="white" stroke="#666666" points="1695,-30 1568,-30 1568,0 1695,0 1695,-30"/>
<text text-anchor="start" x="1576" y="-18" font-family="Helvetica,sans-Serif" font-size="10.00">src/d/menu/d_menu_item</text>
<text text-anchor="middle" x="1631.5" y="-7" font-family="Helvetica,sans-Serif" font-size="10.00">_explain.cpp</text>
</a>
</g>
</g>
<!-- Node15&#45;&gt;Node20 -->
<g id="edge25" class="edge">
<title>Node15&#45;&gt;Node20</title>
<path fill="none" stroke="#63b8ff" d="M1400.31,-64.51C1451.46,-53.78 1518.88,-39.63 1567.71,-29.39"/>
<polygon fill="#63b8ff" stroke="#63b8ff" points="1399.88,-61.03 1390.81,-66.51 1401.31,-67.88 1399.88,-61.03"/>
</g>
<!-- Node21 -->
<g id="node21" class="node">
<title>Node21</title>
<g id="a_node21"><a xlink:href="d__menu__letter_8cpp.html" target="_top" xlink:title=" ">
<polygon fill="white" stroke="#666666" points="1861.5,-24.5 1713.5,-24.5 1713.5,-5.5 1861.5,-5.5 1861.5,-24.5"/>
<text text-anchor="middle" x="1787.5" y="-12.5" font-family="Helvetica,sans-Serif" font-size="10.00">src/d/menu/d_menu_letter.cpp</text>
</a>
</g>
</g>
<!-- Node15&#45;&gt;Node21 -->
<g id="edge26" class="edge">
<title>Node15&#45;&gt;Node21</title>
<path fill="none" stroke="#63b8ff" d="M1400.85,-70.96C1477.16,-61.49 1599.27,-45.83 1704.5,-30 1714.76,-28.46 1725.71,-26.69 1736.19,-24.95"/>
<polygon fill="#63b8ff" stroke="#63b8ff" points="1400.46,-67.48 1390.97,-72.18 1401.32,-74.43 1400.46,-67.48"/>
</g>
<!-- Node22 -->
<g id="node22" class="node">
<title>Node22</title>
<g id="a_node22"><a xlink:href="d__menu__option_8cpp.html" target="_top" xlink:title=" ">
<polygon fill="white" stroke="#666666" points="2031.5,-24.5 1879.5,-24.5 1879.5,-5.5 2031.5,-5.5 2031.5,-24.5"/>
<text text-anchor="middle" x="1955.5" y="-12.5" font-family="Helvetica,sans-Serif" font-size="10.00">src/d/menu/d_menu_option.cpp</text>
</a>
</g>
</g>
<!-- Node15&#45;&gt;Node22 -->
<g id="edge27" class="edge">
<title>Node15&#45;&gt;Node22</title>
<path fill="none" stroke="#63b8ff" d="M1400.89,-74.86C1505.83,-67.22 1703.21,-51.44 1870.5,-30 1881.63,-28.57 1893.53,-26.78 1904.8,-24.96"/>
<polygon fill="#63b8ff" stroke="#63b8ff" points="1400.72,-71.36 1390.99,-75.57 1401.22,-78.34 1400.72,-71.36"/>
</g>
<!-- Node23 -->
<g id="node23" class="node">
<title>Node23</title>
<g id="a_node23"><a xlink:href="d__menu__save_8cpp.html" target="_top" xlink:title=" ">
<polygon fill="white" stroke="#666666" points="2197,-24.5 2050,-24.5 2050,-5.5 2197,-5.5 2197,-24.5"/>
<text text-anchor="middle" x="2123.5" y="-12.5" font-family="Helvetica,sans-Serif" font-size="10.00">src/d/menu/d_menu_save.cpp</text>
</a>
</g>
</g>
<!-- Node15&#45;&gt;Node23 -->
<g id="edge28" class="edge">
<title>Node15&#45;&gt;Node23</title>
<path fill="none" stroke="#63b8ff" d="M1400.61,-77.19C1530.56,-71.72 1807.84,-57.7 2040.5,-30 2051.82,-28.65 2063.94,-26.83 2075.34,-24.94"/>
<polygon fill="#63b8ff" stroke="#63b8ff" points="1400.61,-73.68 1390.76,-77.59 1400.9,-80.68 1400.61,-73.68"/>
</g>
<!-- Node24 -->
<g id="node24" class="node">
<title>Node24</title>
<g id="a_node24"><a xlink:href="d__menu__skill_8cpp.html" target="_top" xlink:title=" ">
<polygon fill="white" stroke="#666666" points="2358,-24.5 2215,-24.5 2215,-5.5 2358,-5.5 2358,-24.5"/>
<text text-anchor="middle" x="2286.5" y="-12.5" font-family="Helvetica,sans-Serif" font-size="10.00">src/d/menu/d_menu_skill.cpp</text>
</a>
</g>
</g>
<!-- Node15&#45;&gt;Node24 -->
<g id="edge29" class="edge">
<title>Node15&#45;&gt;Node24</title>
<path fill="none" stroke="#63b8ff" d="M1400.85,-78.7C1552.71,-75.39 1909.27,-64.33 2206.5,-30 2217.57,-28.72 2229.42,-26.9 2240.52,-24.99"/>
<polygon fill="#63b8ff" stroke="#63b8ff" points="1400.84,-75.19 1390.92,-78.91 1400.99,-82.19 1400.84,-75.19"/>
</g>
<!-- Node25 -->
<g id="node25" class="node">
<title>Node25</title>
<g id="a_node25"><a xlink:href="m__Do__dvd__thread_8cpp.html" target="_top" xlink:title=" ">
<polygon fill="white" stroke="#666666" points="957.5,-24.5 799.5,-24.5 799.5,-5.5 957.5,-5.5 957.5,-24.5"/>
<text text-anchor="middle" x="878.5" y="-12.5" font-family="Helvetica,sans-Serif" font-size="10.00">src/m_Do/m_Do_dvd_thread.cpp</text>
</a>
</g>
</g>
<!-- Node15&#45;&gt;Node25 -->
<g id="edge30" class="edge">
<title>Node15&#45;&gt;Node25</title>
<path fill="none" stroke="#63b8ff" d="M1252.52,-66.47C1251.5,-66.31 1250.5,-66.15 1249.5,-66 1124.63,-46.69 1092.59,-47.82 967.5,-30 956.66,-28.46 945.09,-26.71 934.01,-24.99"/>
<polygon fill="#63b8ff" stroke="#63b8ff" points="1251.59,-69.87 1262.02,-68.02 1252.71,-62.96 1251.59,-69.87"/>
</g>
<!-- Node26&#45;&gt;Node25 -->
<g id="edge53" class="edge">
<title>Node26&#45;&gt;Node25</title>
<path fill="none" stroke="#63b8ff" d="M1248.1,-192.69C1161.2,-151.14 959.37,-54.66 897.12,-24.9"/>
<polygon fill="#63b8ff" stroke="#63b8ff" points="1246.45,-195.78 1256.99,-196.93 1249.47,-189.46 1246.45,-195.78"/>
</g>
<!-- Node27 -->
<g id="node27" class="node">
<title>Node27</title>
<g id="a_node27"><a xlink:href="d__resorce_8h.html" target="_top" xlink:title=" ">
<polygon fill="white" stroke="#666666" points="1472,-156.5 1363,-156.5 1363,-137.5 1472,-137.5 1472,-156.5"/>
<text text-anchor="middle" x="1417.5" y="-144.5" font-family="Helvetica,sans-Serif" font-size="10.00">include/d/d_resorce.h</text>
</a>
</g>
</g>
<!-- Node26&#45;&gt;Node27 -->
<g id="edge32" class="edge">
<title>Node26&#45;&gt;Node27</title>
<path fill="none" stroke="#63b8ff" d="M1327.63,-192.59C1351.49,-180.75 1380.86,-166.18 1399.39,-156.99"/>
<polygon fill="#63b8ff" stroke="#63b8ff" points="1326.21,-189.38 1318.81,-196.96 1329.32,-195.66 1326.21,-189.38"/>
</g>
<!-- Node247 -->
<g id="node34" class="node">
<title>Node247</title>
<g id="a_node34"><a xlink:href="m__Do__audio_8cpp.html" target="_top" xlink:title=" ">
<polygon fill="white" stroke="#666666" points="3044.5,-24.5 2910.5,-24.5 2910.5,-5.5 3044.5,-5.5 3044.5,-24.5"/>
<text text-anchor="middle" x="2977.5" y="-12.5" font-family="Helvetica,sans-Serif" font-size="10.00">src/m_Do/m_Do_audio.cpp</text>
</a>
</g>
</g>
<!-- Node26&#45;&gt;Node247 -->
<g id="edge52" class="edge">
<title>Node26&#45;&gt;Node247</title>
<path fill="none" stroke="#63b8ff" d="M1362.6,-197.71C1664.9,-147.59 1761.22,-207.96 2042.5,-96 2064.15,-87.38 2063.43,-73.48 2085.5,-66 2257.41,-7.76 2721.15,-50.49 2901.5,-30 2912.3,-28.77 2923.87,-26.92 2934.65,-24.96"/>
<polygon fill="#63b8ff" stroke="#63b8ff" points="1362.07,-194.25 1352.79,-199.37 1363.23,-201.16 1362.07,-194.25"/>
</g>
<!-- Node252 -->
<g id="node35" class="node">
<title>Node252</title>
<g id="a_node35"><a xlink:href="m__Do__main_8cpp.html" target="_top" xlink:title=" ">
<polygon fill="white" stroke="#666666" points="3194,-24.5 3063,-24.5 3063,-5.5 3194,-5.5 3194,-24.5"/>
<text text-anchor="middle" x="3128.5" y="-12.5" font-family="Helvetica,sans-Serif" font-size="10.00">src/m_Do/m_Do_main.cpp</text>
</a>
</g>
</g>
<!-- Node26&#45;&gt;Node252 -->
<g id="edge55" class="edge">
<title>Node26&#45;&gt;Node252</title>
<path fill="none" stroke="#63b8ff" d="M1362.39,-197.88C1593.44,-168.23 1655.24,-184.35 1883.5,-162 1988.73,-151.7 2014.5,-144.41 2119.5,-132 2171.34,-125.88 3001.86,-37.63 3053.5,-30 3063.2,-28.57 3073.55,-26.79 3083.38,-24.99"/>
<polygon fill="#63b8ff" stroke="#63b8ff" points="1362.22,-194.37 1352.76,-199.13 1363.12,-201.31 1362.22,-194.37"/>
</g>
<!-- Node254 -->
<g id="node36" class="node">
<title>Node254</title>
<g id="a_node36"><a xlink:href="DynamicLink_8cpp.html" target="_top" xlink:title=" ">
<polygon fill="white" stroke="#666666" points="2593,-156.5 2486,-156.5 2486,-137.5 2593,-137.5 2593,-156.5"/>
<text text-anchor="middle" x="2539.5" y="-144.5" font-family="Helvetica,sans-Serif" font-size="10.00">src/DynamicLink.cpp</text>
</a>
</g>
</g>
<!-- Node26&#45;&gt;Node254 -->
<g id="edge50" class="edge">
<title>Node26&#45;&gt;Node254</title>
<path fill="none" stroke="#63b8ff" d="M1362.35,-197.95C1845.4,-144.43 1973.41,-208.79 2453.5,-162 2465.85,-160.8 2479.11,-158.93 2491.43,-156.94"/>
<polygon fill="#63b8ff" stroke="#63b8ff" points="1362.29,-194.43 1352.74,-199.02 1363.07,-201.39 1362.29,-194.43"/>
</g>
<!-- Node255 -->
<g id="node37" class="node">
<title>Node255</title>
<g id="a_node37"><a xlink:href="m__Do__DVDError_8cpp.html" target="_top" xlink:title=" ">
<polygon fill="white" stroke="#666666" points="2279,-156.5 2128,-156.5 2128,-137.5 2279,-137.5 2279,-156.5"/>
<text text-anchor="middle" x="2203.5" y="-144.5" font-family="Helvetica,sans-Serif" font-size="10.00">src/m_Do/m_Do_DVDError.cpp</text>
</a>
</g>
</g>
<!-- Node26&#45;&gt;Node255 -->
<g id="edge51" class="edge">
<title>Node26&#45;&gt;Node255</title>
<path fill="none" stroke="#63b8ff" d="M1362.67,-197.88C1695.13,-158.76 1783.9,-195.42 2113.5,-162 2126.09,-160.72 2139.59,-158.88 2152.22,-156.94"/>
<polygon fill="#63b8ff" stroke="#63b8ff" points="1362.26,-194.41 1352.75,-199.07 1363.09,-201.36 1362.26,-194.41"/>
</g>
<!-- Node256 -->
<g id="node38" class="node">
<title>Node256</title>
<g id="a_node38"><a xlink:href="m__Do__machine_8cpp.html" target="_top" xlink:title=" ">
<polygon fill="white" stroke="#666666" points="2444,-156.5 2297,-156.5 2297,-137.5 2444,-137.5 2444,-156.5"/>
<text text-anchor="middle" x="2370.5" y="-144.5" font-family="Helvetica,sans-Serif" font-size="10.00">src/m_Do/m_Do_machine.cpp</text>
</a>
</g>
</g>
<!-- Node26&#45;&gt;Node256 -->
<g id="edge54" class="edge">
<title>Node26&#45;&gt;Node256</title>
<path fill="none" stroke="#63b8ff" d="M1362.53,-197.92C1772.48,-151.44 1881.68,-204.44 2288.5,-162 2300.13,-160.79 2312.62,-158.94 2324.24,-156.98"/>
<polygon fill="#63b8ff" stroke="#63b8ff" points="1362.28,-194.42 1352.74,-199.04 1363.08,-201.38 1362.28,-194.42"/>
</g>
<!-- Node27&#45;&gt;Node17 -->
<g id="edge49" class="edge">
<title>Node27&#45;&gt;Node17</title>
<path fill="none" stroke="#63b8ff" d="M1416.67,-125.79C1415.1,-108.57 1410.68,-83.86 1398.5,-66 1385.64,-47.14 1363.13,-33.22 1346.7,-24.92"/>
<polygon fill="#63b8ff" stroke="#63b8ff" points="1413.18,-125.99 1417.31,-135.75 1420.17,-125.54 1413.18,-125.99"/>
</g>
<!-- Node28 -->
<g id="node28" class="node">
<title>Node28</title>
<g id="a_node28"><a xlink:href="d__com__inf__game_8h.html" target="_top" xlink:title=" ">
<polygon fill="#fff0f0" stroke="red" points="2033.5,-96 1923.5,-96 1923.5,-66 2033.5,-66 2033.5,-96"/>
<text text-anchor="start" x="1931.5" y="-84" font-family="Helvetica,sans-Serif" font-size="10.00">include/d/com/d_com</text>
<text text-anchor="middle" x="1978.5" y="-73" font-family="Helvetica,sans-Serif" font-size="10.00">_inf_game.h</text>
</a>
</g>
</g>
<!-- Node27&#45;&gt;Node28 -->
<g id="edge33" class="edge">
<title>Node27&#45;&gt;Node28</title>
<path fill="none" stroke="#63b8ff" d="M1483.74,-138.44C1595.41,-125.7 1819.11,-100.18 1923.05,-88.33"/>
<polygon fill="#63b8ff" stroke="#63b8ff" points="1483.36,-134.96 1473.82,-139.58 1484.15,-141.92 1483.36,-134.96"/>
</g>
<!-- Node28&#45;&gt;Node11 -->
<g id="edge40" class="edge">
<title>Node28&#45;&gt;Node11</title>
<path fill="none" stroke="#63b8ff" d="M1911.82,-78.28C1661.59,-71.7 786.44,-47.65 662.5,-30 654.27,-28.83 645.48,-26.94 637.38,-24.93"/>
<polygon fill="#63b8ff" stroke="#63b8ff" points="1911.66,-81.77 1921.75,-78.54 1911.84,-74.78 1911.66,-81.77"/>
</g>
<!-- Node28&#45;&gt;Node17 -->
<g id="edge39" class="edge">
<title>Node28&#45;&gt;Node17</title>
<path fill="none" stroke="#63b8ff" d="M1911.85,-77.52C1801.86,-72.73 1575.67,-59.9 1386.5,-30 1378.15,-28.68 1369.24,-26.84 1360.91,-24.93"/>
<polygon fill="#63b8ff" stroke="#63b8ff" points="1911.44,-81.01 1921.58,-77.94 1911.73,-74.01 1911.44,-81.01"/>
</g>
<!-- Node28&#45;&gt;Node18 -->
<g id="edge41" class="edge">
<title>Node28&#45;&gt;Node18</title>
<path fill="none" stroke="#63b8ff" d="M1911.92,-72.9C1829.17,-63.89 1683.71,-47.4 1559.5,-30 1548.59,-28.47 1536.94,-26.7 1525.82,-24.93"/>
<polygon fill="#63b8ff" stroke="#63b8ff" points="1911.34,-76.36 1921.66,-73.96 1912.1,-69.4 1911.34,-76.36"/>
</g>
<!-- Node28&#45;&gt;Node20 -->
<g id="edge42" class="edge">
<title>Node28&#45;&gt;Node20</title>
<path fill="none" stroke="#63b8ff" d="M1912.01,-68.04C1856.51,-58.01 1775.31,-43.25 1704.5,-30 1701.46,-29.43 1698.34,-28.84 1695.19,-28.25"/>
<polygon fill="#63b8ff" stroke="#63b8ff" points="1911.16,-71.44 1921.62,-69.77 1912.4,-64.55 1911.16,-71.44"/>
</g>
<!-- Node28&#45;&gt;Node21 -->
<g id="edge43" class="edge">
<title>Node28&#45;&gt;Node21</title>
<path fill="none" stroke="#63b8ff" d="M1924.8,-62.01C1888.77,-49.93 1842.86,-34.55 1814.32,-24.99"/>
<polygon fill="#63b8ff" stroke="#63b8ff" points="1923.61,-65.3 1934.2,-65.16 1925.83,-58.66 1923.61,-65.3"/>
</g>
<!-- Node28&#45;&gt;Node22 -->
<g id="edge44" class="edge">
<title>Node28&#45;&gt;Node22</title>
<path fill="none" stroke="#63b8ff" d="M1969.61,-55.27C1965.76,-44.55 1961.5,-32.7 1958.68,-24.84"/>
<polygon fill="#63b8ff" stroke="#63b8ff" points="1966.21,-56.14 1972.88,-64.37 1972.8,-53.78 1966.21,-56.14"/>
</g>
<!-- Node28&#45;&gt;Node23 -->
<g id="edge45" class="edge">
<title>Node28&#45;&gt;Node23</title>
<path fill="none" stroke="#63b8ff" d="M2021.4,-61.06C2048.41,-49.14 2082.04,-34.3 2103.14,-24.99"/>
<polygon fill="#63b8ff" stroke="#63b8ff" points="2020.16,-57.79 2012.43,-65.03 2022.99,-64.19 2020.16,-57.79"/>
</g>
<!-- Node28&#45;&gt;Node24 -->
<g id="edge46" class="edge">
<title>Node28&#45;&gt;Node24</title>
<path fill="none" stroke="#63b8ff" d="M2044.83,-66.22C2104.97,-53.72 2191.88,-35.66 2243.44,-24.95"/>
<polygon fill="#63b8ff" stroke="#63b8ff" points="2044.48,-62.71 2035.4,-68.18 2045.9,-69.57 2044.48,-62.71"/>
</g>
<!-- Node29 -->
<g id="node29" class="node">
<title>Node29</title>
<g id="a_node29"><a xlink:href="d__a__npc_8h.html" target="_top" xlink:title=" ">
<polygon fill="#fff0f0" stroke="red" points="2487,-24.5 2376,-24.5 2376,-5.5 2487,-5.5 2487,-24.5"/>
<text text-anchor="middle" x="2431.5" y="-12.5" font-family="Helvetica,sans-Serif" font-size="10.00">include/d/a/d_a_npc.h</text>
</a>
</g>
</g>
<!-- Node28&#45;&gt;Node29 -->
<g id="edge34" class="edge">
<title>Node28&#45;&gt;Node29</title>
<path fill="none" stroke="#63b8ff" d="M2044.97,-66.4C2045.82,-66.27 2046.66,-66.13 2047.5,-66 2188.88,-43.75 2226.29,-53.32 2367.5,-30 2376.03,-28.59 2385.13,-26.79 2393.72,-24.94"/>
<polygon fill="#63b8ff" stroke="#63b8ff" points="2044.53,-62.93 2035.28,-68.08 2045.73,-69.83 2044.53,-62.93"/>
</g>
<!-- Node41 -->
<g id="node30" class="node">
<title>Node41</title>
<g id="a_node30"><a xlink:href="d__a__npc__cd_8h.html" target="_top" xlink:title=" ">
<polygon fill="#fff0f0" stroke="red" points="2632,-24.5 2505,-24.5 2505,-5.5 2632,-5.5 2632,-24.5"/>
<text text-anchor="middle" x="2568.5" y="-12.5" font-family="Helvetica,sans-Serif" font-size="10.00">include/d/a/d_a_npc_cd.h</text>
</a>
</g>
</g>
<!-- Node28&#45;&gt;Node41 -->
<g id="edge35" class="edge">
<title>Node28&#45;&gt;Node41</title>
<path fill="none" stroke="#63b8ff" d="M2044.97,-66.37C2045.82,-66.24 2046.66,-66.12 2047.5,-66 2245.73,-38.05 2298.15,-57.15 2496.5,-30 2506.34,-28.65 2516.87,-26.83 2526.75,-24.94"/>
<polygon fill="#63b8ff" stroke="#63b8ff" points="2044.57,-62.89 2035.25,-67.94 2045.69,-69.8 2044.57,-62.89"/>
</g>
<!-- Node43 -->
<g id="node31" class="node">
<title>Node43</title>
<g id="a_node31"><a xlink:href="d__a__npc__cd2_8h.html" target="_top" xlink:title=" ">
<polygon fill="#fff0f0" stroke="red" points="2754.5,-30 2650.5,-30 2650.5,0 2754.5,0 2754.5,-30"/>
<text text-anchor="start" x="2658.5" y="-18" font-family="Helvetica,sans-Serif" font-size="10.00">include/d/a/d_a_npc</text>
<text text-anchor="middle" x="2702.5" y="-7" font-family="Helvetica,sans-Serif" font-size="10.00">_cd2.h</text>
</a>
</g>
</g>
<!-- Node28&#45;&gt;Node43 -->
<g id="edge36" class="edge">
<title>Node28&#45;&gt;Node43</title>
<path fill="none" stroke="#63b8ff" d="M2044.96,-66.34C2045.81,-66.22 2046.66,-66.11 2047.5,-66 2309.74,-31.62 2379.72,-67.71 2641.5,-30 2644.3,-29.6 2647.15,-29.13 2650.03,-28.62"/>
<polygon fill="#63b8ff" stroke="#63b8ff" points="2044.59,-62.86 2035.24,-67.85 2045.66,-69.78 2044.59,-62.86"/>
</g>
<!-- Node45 -->
<g id="node32" class="node">
<title>Node45</title>
<g id="a_node32"><a xlink:href="d__cc__uty_8h.html" target="_top" xlink:title=" ">
<polygon fill="#fff0f0" stroke="red" points="2892,-24.5 2773,-24.5 2773,-5.5 2892,-5.5 2892,-24.5"/>
<text text-anchor="middle" x="2832.5" y="-12.5" font-family="Helvetica,sans-Serif" font-size="10.00">include/d/cc/d_cc_uty.h</text>
</a>
</g>
</g>
<!-- Node28&#45;&gt;Node45 -->
<g id="edge37" class="edge">
<title>Node28&#45;&gt;Node45</title>
<path fill="none" stroke="#63b8ff" d="M2044.96,-66.33C2045.81,-66.22 2046.66,-66.11 2047.5,-66 2363.63,-26.21 2447.37,-69.79 2763.5,-30 2773.32,-28.76 2783.84,-26.91 2793.62,-24.95"/>
<polygon fill="#63b8ff" stroke="#63b8ff" points="2044.6,-62.85 2035.24,-67.81 2045.65,-69.77 2044.6,-62.85"/>
</g>
<!-- Node196 -->
<g id="node33" class="node">
<title>Node196</title>
<g id="a_node33"><a xlink:href="c__dylink_8cpp.html" target="_top" xlink:title=" ">
<polygon fill="white" stroke="#666666" points="3307,-24.5 3212,-24.5 3212,-5.5 3307,-5.5 3307,-24.5"/>
<text text-anchor="middle" x="3259.5" y="-12.5" font-family="Helvetica,sans-Serif" font-size="10.00">src/c/c_dylink.cpp</text>
</a>
</g>
</g>
<!-- Node28&#45;&gt;Node196 -->
<g id="edge38" class="edge">
<title>Node28&#45;&gt;Node196</title>
<path fill="none" stroke="#63b8ff" d="M2045.19,-79.07C2266.73,-75.71 2976.99,-62.59 3203.5,-30 3211.63,-28.83 3220.3,-26.97 3228.33,-24.99"/>
<polygon fill="#63b8ff" stroke="#63b8ff" points="2045.23,-75.57 2035.28,-79.22 2045.33,-82.57 2045.23,-75.57"/>
</g>
<!-- Node28&#45;&gt;Node247 -->
<g id="edge47" class="edge">
<title>Node28&#45;&gt;Node247</title>
<path fill="none" stroke="#63b8ff" d="M2044.96,-66.32C2045.81,-66.21 2046.66,-66.1 2047.5,-66 2424.61,-20.09 2523.99,-72.52 2901.5,-30 2912.3,-28.78 2923.87,-26.94 2934.65,-24.98"/>
<polygon fill="#63b8ff" stroke="#63b8ff" points="2044.61,-62.84 2035.23,-67.77 2045.64,-69.76 2044.61,-62.84"/>
</g>
<!-- Node28&#45;&gt;Node252 -->
<g id="edge48" class="edge">
<title>Node28&#45;&gt;Node252</title>
<path fill="none" stroke="#63b8ff" d="M2045,-70.33C2058.39,-68.65 2072.37,-67.1 2085.5,-66 2514.51,-30.03 2625.62,-77.63 3053.5,-30 3064.29,-28.8 3075.87,-26.93 3086.62,-24.95"/>
<polygon fill="#63b8ff" stroke="#63b8ff" points="2044.9,-66.81 2035.43,-71.56 2045.8,-73.75 2044.9,-66.81"/>
</g>
<!-- Node265&#45;&gt;Node196 -->
<g id="edge69" class="edge">
<title>Node265&#45;&gt;Node196</title>
<path fill="none" stroke="#63b8ff" d="M2667.14,-186.33C2668.32,-168.63 2672.92,-145.87 2687.5,-132 2856.87,29.13 2975.37,-81.03 3203.5,-30 3210.44,-28.45 3217.84,-26.68 3224.91,-24.93"/>
<polygon fill="#63b8ff" stroke="#63b8ff" points="2663.65,-185.99 2666.83,-196.1 2670.64,-186.21 2663.65,-185.99"/>
</g>
<!-- Node265&#45;&gt;Node254 -->
<g id="edge68" class="edge">
<title>Node265&#45;&gt;Node254</title>
<path fill="none" stroke="#63b8ff" d="M2628.68,-192.59C2605,-180.75 2575.86,-166.18 2557.47,-156.99"/>
<polygon fill="#63b8ff" stroke="#63b8ff" points="2626.91,-195.62 2637.42,-196.96 2630.04,-189.36 2626.91,-195.62"/>
</g>
<!-- Node266 -->
<g id="node49" class="node">
<title>Node266</title>
<g id="a_node49"><a xlink:href="JKRFileCache_8cpp.html" target="_top" xlink:title=" ">
<polygon fill="white" stroke="#666666" points="2805,-162 2696,-162 2696,-132 2805,-132 2805,-162"/>
<text text-anchor="start" x="2704" y="-150" font-family="Helvetica,sans-Serif" font-size="10.00">libs/JSystem/JKernel</text>
<text text-anchor="middle" x="2750.5" y="-139" font-family="Helvetica,sans-Serif" font-size="10.00">/JKRFileCache.cpp</text>
</a>
</g>
</g>
<!-- Node265&#45;&gt;Node266 -->
<g id="edge67" class="edge">
<title>Node265&#45;&gt;Node266</title>
<path fill="none" stroke="#63b8ff" d="M2694.77,-190.97C2706.92,-181.61 2720.92,-170.81 2731.84,-162.39"/>
<polygon fill="#63b8ff" stroke="#63b8ff" points="2692.9,-187.99 2687.12,-196.87 2697.18,-193.54 2692.9,-187.99"/>
</g>
</g>
</svg>
