<?xml version="1.0" encoding="UTF-8" standalone="no"?>
<!DOCTYPE svg PUBLIC "-//W3C//DTD SVG 1.1//EN"
 "http://www.w3.org/Graphics/SVG/1.1/DTD/svg11.dtd">
<!-- Generated by graphviz version 7.0.5 (20221223.1930)
 -->
<!-- Title: include/JSystem/JKernel/JKRFile.h Pages: 1 -->
<svg width="905pt" height="170pt"
 viewBox="0.00 0.00 905.00 170.00" xmlns="http://www.w3.org/2000/svg" xmlns:xlink="http://www.w3.org/1999/xlink">
<g id="graph0" class="graph" transform="scale(1 1) rotate(0) translate(4 166)">
<title>include/JSystem/JKernel/JKRFile.h</title>
<!-- Node1 -->
<g id="node1" class="node">
<title>Node1</title>
<g id="a_node1"><a xlink:title=" ">
<polygon fill="#999999" stroke="#666666" points="659,-162 534,-162 534,-132 659,-132 659,-162"/>
<text text-anchor="start" x="542" y="-150" font-family="Helvetica,sans-Serif" font-size="10.00">include/JSystem/JKernel</text>
<text text-anchor="middle" x="596.5" y="-139" font-family="Helvetica,sans-Serif" font-size="10.00">/JKRFile.h</text>
</a>
</g>
</g>
<!-- Node2 -->
<g id="node2" class="node">
<title>Node2</title>
<g id="a_node2"><a xlink:href="JKRDvdFile_8h.html" target="_top" xlink:title=" ">
<polygon fill="white" stroke="#666666" points="524,-96 399,-96 399,-66 524,-66 524,-96"/>
<text text-anchor="start" x="407" y="-84" font-family="Helvetica,sans-Serif" font-size="10.00">include/JSystem/JKernel</text>
<text text-anchor="middle" x="461.5" y="-73" font-family="Helvetica,sans-Serif" font-size="10.00">/JKRDvdFile.h</text>
</a>
</g>
</g>
<!-- Node1&#45;&gt;Node2 -->
<g id="edge1" class="edge">
<title>Node1&#45;&gt;Node2</title>
<path fill="none" stroke="#63b8ff" d="M555.84,-126.72C535.22,-116.95 510.61,-105.28 491.7,-96.31"/>
<polygon fill="#63b8ff" stroke="#63b8ff" points="554.3,-129.87 564.84,-130.99 557.3,-123.54 554.3,-129.87"/>
</g>
<!-- Node10 -->
<g id="node10" class="node">
<title>Node10</title>
<g id="a_node10"><a xlink:href="JKRFile_8cpp.html" target="_top" xlink:title=" ">
<polygon fill="white" stroke="#666666" points="651,-96 542,-96 542,-66 651,-66 651,-96"/>
<text text-anchor="start" x="550" y="-84" font-family="Helvetica,sans-Serif" font-size="10.00">libs/JSystem/JKernel</text>
<text text-anchor="middle" x="596.5" y="-73" font-family="Helvetica,sans-Serif" font-size="10.00">/JKRFile.cpp</text>
</a>
</g>
</g>
<!-- Node1&#45;&gt;Node10 -->
<g id="edge9" class="edge">
<title>Node1&#45;&gt;Node10</title>
<path fill="none" stroke="#63b8ff" d="M596.5,-120.39C596.5,-112.13 596.5,-103.28 596.5,-96.16"/>
<polygon fill="#63b8ff" stroke="#63b8ff" points="593,-120.28 596.5,-130.28 600,-120.28 593,-120.28"/>
</g>
<!-- Node11 -->
<g id="node11" class="node">
<title>Node11</title>
<g id="a_node11"><a xlink:href="JSUFileStream_8cpp.html" target="_top" xlink:title=" ">
<polygon fill="white" stroke="#666666" points="784,-96 669,-96 669,-66 784,-66 784,-96"/>
<text text-anchor="start" x="677" y="-84" font-family="Helvetica,sans-Serif" font-size="10.00">libs/JSystem/JSupport</text>
<text text-anchor="middle" x="726.5" y="-73" font-family="Helvetica,sans-Serif" font-size="10.00">/JSUFileStream.cpp</text>
</a>
</g>
</g>
<!-- Node1&#45;&gt;Node11 -->
<g id="edge10" class="edge">
<title>Node1&#45;&gt;Node11</title>
<path fill="none" stroke="#63b8ff" d="M635.93,-126.59C655.73,-116.84 679.29,-105.24 697.42,-96.31"/>
<polygon fill="#63b8ff" stroke="#63b8ff" points="634.46,-123.41 627.03,-130.97 637.55,-129.69 634.46,-123.41"/>
</g>
<!-- Node3 -->
<g id="node3" class="node">
<title>Node3</title>
<g id="a_node3"><a xlink:href="JKRAramArchive_8cpp.html" target="_top" xlink:title=" ">
<polygon fill="white" stroke="#666666" points="113,-30 0,-30 0,0 113,0 113,-30"/>
<text text-anchor="start" x="8" y="-18" font-family="Helvetica,sans-Serif" font-size="10.00">libs/JSystem/JKernel</text>
<text text-anchor="middle" x="56.5" y="-7" font-family="Helvetica,sans-Serif" font-size="10.00">/JKRAramArchive.cpp</text>
</a>
</g>
</g>
<!-- Node2&#45;&gt;Node3 -->
<g id="edge2" class="edge">
<title>Node2&#45;&gt;Node3</title>
<path fill="none" stroke="#63b8ff" d="M387.45,-70.55C318.42,-61.39 212.7,-46.51 121.5,-30 118.77,-29.51 115.99,-28.98 113.18,-28.44"/>
<polygon fill="#63b8ff" stroke="#63b8ff" points="386.76,-73.99 397.13,-71.82 387.68,-67.05 386.76,-73.99"/>
</g>
<!-- Node4 -->
<g id="node4" class="node">
<title>Node4</title>
<g id="a_node4"><a xlink:href="JKRCompArchive_8cpp.html" target="_top" xlink:title=" ">
<polygon fill="white" stroke="#666666" points="246,-30 131,-30 131,0 246,0 246,-30"/>
<text text-anchor="start" x="139" y="-18" font-family="Helvetica,sans-Serif" font-size="10.00">libs/JSystem/JKernel</text>
<text text-anchor="middle" x="188.5" y="-7" font-family="Helvetica,sans-Serif" font-size="10.00">/JKRCompArchive.cpp</text>
</a>
</g>
</g>
<!-- Node2&#45;&gt;Node4 -->
<g id="edge3" class="edge">
<title>Node2&#45;&gt;Node4</title>
<path fill="none" stroke="#63b8ff" d="M388.81,-62.96C344.15,-52.49 287.72,-39.26 246.15,-29.52"/>
<polygon fill="#63b8ff" stroke="#63b8ff" points="387.88,-66.34 398.42,-65.21 389.48,-59.52 387.88,-66.34"/>
</g>
<!-- Node5 -->
<g id="node5" class="node">
<title>Node5</title>
<g id="a_node5"><a xlink:href="JKRDvdAramRipper_8cpp.html" target="_top" xlink:title=" ">
<polygon fill="white" stroke="#666666" points="389,-30 264,-30 264,0 389,0 389,-30"/>
<text text-anchor="start" x="272" y="-18" font-family="Helvetica,sans-Serif" font-size="10.00">libs/JSystem/JKernel</text>
<text text-anchor="middle" x="326.5" y="-7" font-family="Helvetica,sans-Serif" font-size="10.00">/JKRDvdAramRipper.cpp</text>
</a>
</g>
</g>
<!-- Node2&#45;&gt;Node5 -->
<g id="edge4" class="edge">
<title>Node2&#45;&gt;Node5</title>
<path fill="none" stroke="#63b8ff" d="M420.84,-60.72C400.22,-50.95 375.61,-39.28 356.7,-30.31"/>
<polygon fill="#63b8ff" stroke="#63b8ff" points="419.3,-63.87 429.84,-64.99 422.3,-57.54 419.3,-63.87"/>
</g>
<!-- Node6 -->
<g id="node6" class="node">
<title>Node6</title>
<g id="a_node6"><a xlink:href="JKRDvdArchive_8cpp.html" target="_top" xlink:title=" ">
<polygon fill="white" stroke="#666666" points="516,-30 407,-30 407,0 516,0 516,-30"/>
<text text-anchor="start" x="415" y="-18" font-family="Helvetica,sans-Serif" font-size="10.00">libs/JSystem/JKernel</text>
<text text-anchor="middle" x="461.5" y="-7" font-family="Helvetica,sans-Serif" font-size="10.00">/JKRDvdArchive.cpp</text>
</a>
</g>
</g>
<!-- Node2&#45;&gt;Node6 -->
<g id="edge5" class="edge">
<title>Node2&#45;&gt;Node6</title>
<path fill="none" stroke="#63b8ff" d="M461.5,-54.39C461.5,-46.13 461.5,-37.28 461.5,-30.16"/>
<polygon fill="#63b8ff" stroke="#63b8ff" points="458,-54.28 461.5,-64.28 465,-54.28 458,-54.28"/>
</g>
<!-- Node7 -->
<g id="node7" class="node">
<title>Node7</title>
<g id="a_node7"><a xlink:href="JKRDvdFile_8cpp.html" target="_top" xlink:title=" ">
<polygon fill="white" stroke="#666666" points="643,-30 534,-30 534,0 643,0 643,-30"/>
<text text-anchor="start" x="542" y="-18" font-family="Helvetica,sans-Serif" font-size="10.00">libs/JSystem/JKernel</text>
<text text-anchor="middle" x="588.5" y="-7" font-family="Helvetica,sans-Serif" font-size="10.00">/JKRDvdFile.cpp</text>
</a>
</g>
</g>
<!-- Node2&#45;&gt;Node7 -->
<g id="edge6" class="edge">
<title>Node2&#45;&gt;Node7</title>
<path fill="none" stroke="#63b8ff" d="M500.02,-60.59C519.36,-50.84 542.38,-39.24 560.09,-30.31"/>
<polygon fill="#63b8ff" stroke="#63b8ff" points="498.71,-57.33 491.35,-64.96 501.86,-63.58 498.71,-57.33"/>
</g>
<!-- Node8 -->
<g id="node8" class="node">
<title>Node8</title>
<g id="a_node8"><a xlink:href="JKRDvdRipper_8cpp.html" target="_top" xlink:title=" ">
<polygon fill="white" stroke="#666666" points="770,-30 661,-30 661,0 770,0 770,-30"/>
<text text-anchor="start" x="669" y="-18" font-family="Helvetica,sans-Serif" font-size="10.00">libs/JSystem/JKernel</text>
<text text-anchor="middle" x="715.5" y="-7" font-family="Helvetica,sans-Serif" font-size="10.00">/JKRDvdRipper.cpp</text>
</a>
</g>
</g>
<!-- Node2&#45;&gt;Node8 -->
<g id="edge7" class="edge">
<title>Node2&#45;&gt;Node8</title>
<path fill="none" stroke="#63b8ff" d="M529.81,-62.79C570.79,-52.46 622.23,-39.5 660.57,-29.84"/>
<polygon fill="#63b8ff" stroke="#63b8ff" points="529.13,-59.35 520.29,-65.19 530.84,-66.14 529.13,-59.35"/>
</g>
<!-- Node9 -->
<g id="node9" class="node">
<title>Node9</title>
<g id="a_node9"><a xlink:href="JKRFileCache_8cpp.html" target="_top" xlink:title=" ">
<polygon fill="white" stroke="#666666" points="897,-30 788,-30 788,0 897,0 897,-30"/>
<text text-anchor="start" x="796" y="-18" font-family="Helvetica,sans-Serif" font-size="10.00">libs/JSystem/JKernel</text>
<text text-anchor="middle" x="842.5" y="-7" font-family="Helvetica,sans-Serif" font-size="10.00">/JKRFileCache.cpp</text>
</a>
</g>
</g>
<!-- Node2&#45;&gt;Node9 -->
<g id="edge8" class="edge">
<title>Node2&#45;&gt;Node9</title>
<path fill="none" stroke="#63b8ff" d="M535.44,-65.73C644.34,-47.59 674.33,-49.35 779.5,-30 782.14,-29.51 784.85,-28.99 787.57,-28.45"/>
<polygon fill="#63b8ff" stroke="#63b8ff" points="535.07,-62.24 525.79,-67.36 536.23,-69.15 535.07,-62.24"/>
</g>
</g>
</svg>
