<?xml version="1.0" encoding="UTF-8" standalone="no"?>
<!DOCTYPE svg PUBLIC "-//W3C//DTD SVG 1.1//EN"
 "http://www.w3.org/Graphics/SVG/1.1/DTD/svg11.dtd">
<!-- Generated by graphviz version 7.0.5 (20221223.1930)
 -->
<!-- Title: libs/JSystem/JParticle/JPAExTexShape.cpp Pages: 1 -->
<svg width="2480pt" height="522pt"
 viewBox="0.00 0.00 2479.50 522.00" xmlns="http://www.w3.org/2000/svg" xmlns:xlink="http://www.w3.org/1999/xlink">
<g id="graph0" class="graph" transform="scale(1 1) rotate(0) translate(4 518)">
<title>libs/JSystem/JParticle/JPAExTexShape.cpp</title>
<!-- Node1 -->
<g id="node1" class="node">
<title>Node1</title>
<g id="a_node1"><a xlink:title=" ">
<polygon fill="#999999" stroke="#666666" points="1033,-514 919,-514 919,-484 1033,-484 1033,-514"/>
<text text-anchor="start" x="927" y="-502" font-family="Helvetica,sans-Serif" font-size="10.00">libs/JSystem/JParticle</text>
<text text-anchor="middle" x="976" y="-491" font-family="Helvetica,sans-Serif" font-size="10.00">/JPAExTexShape.cpp</text>
</a>
</g>
</g>
<!-- Node2 -->
<g id="node2" class="node">
<title>Node2</title>
<g id="a_node2"><a xlink:href="JPAExTexShape_8h.html" target="_top" xlink:title=" ">
<polygon fill="white" stroke="#666666" points="144,-151 0,-151 0,-121 144,-121 144,-151"/>
<text text-anchor="start" x="8" y="-139" font-family="Helvetica,sans-Serif" font-size="10.00">JSystem/JParticle/JPAExTex</text>
<text text-anchor="middle" x="72" y="-128" font-family="Helvetica,sans-Serif" font-size="10.00">Shape.h</text>
</a>
</g>
</g>
<!-- Node1&#45;&gt;Node2 -->
<g id="edge1" class="edge">
<title>Node1&#45;&gt;Node2</title>
<path fill="none" stroke="#63b8ff" d="M918.73,-496.58C772.82,-492.53 389.97,-479.19 267,-448 189.4,-428.32 103,-453.56 103,-373.5 103,-373.5 103,-373.5 103,-250.5 103,-219.05 91.78,-184.37 82.85,-161.72"/>
<polygon fill="#63b8ff" stroke="#63b8ff" points="86.19,-160.66 79.15,-152.75 79.72,-163.33 86.19,-160.66"/>
</g>
<!-- Node3 -->
<g id="node3" class="node">
<title>Node3</title>
<g id="a_node3"><a xlink:href="types_8h.html" target="_top" xlink:title=" ">
<polygon fill="white" stroke="#666666" points="1391.5,-85 1310.5,-85 1310.5,-66 1391.5,-66 1391.5,-85"/>
<text text-anchor="middle" x="1351" y="-73" font-family="Helvetica,sans-Serif" font-size="10.00">dolphin/types.h</text>
</a>
</g>
</g>
<!-- Node1&#45;&gt;Node3 -->
<g id="edge81" class="edge">
<title>Node1&#45;&gt;Node3</title>
<path fill="none" stroke="#63b8ff" d="M1033.45,-493.94C1171.62,-483.17 1517.86,-449.94 1609,-382 1702.01,-312.67 1695.05,-200.95 1611,-121 1581.83,-93.25 1470.08,-82.63 1402.94,-78.7"/>
<polygon fill="#63b8ff" stroke="#63b8ff" points="1403.46,-75.22 1393.28,-78.16 1403.07,-82.21 1403.46,-75.22"/>
</g>
<!-- Node5 -->
<g id="node5" class="node">
<title>Node5</title>
<g id="a_node5"><a xlink:href="JPAResourceManager_8h.html" target="_top" xlink:title=" ">
<polygon fill="white" stroke="#666666" points="435.5,-448 276.5,-448 276.5,-418 435.5,-418 435.5,-448"/>
<text text-anchor="start" x="284.5" y="-436" font-family="Helvetica,sans-Serif" font-size="10.00">JSystem/JParticle/JPAResource</text>
<text text-anchor="middle" x="356" y="-425" font-family="Helvetica,sans-Serif" font-size="10.00">Manager.h</text>
</a>
</g>
</g>
<!-- Node1&#45;&gt;Node5 -->
<g id="edge4" class="edge">
<title>Node1&#45;&gt;Node5</title>
<path fill="none" stroke="#63b8ff" d="M918.51,-492.07C810.61,-480.93 577.02,-456.82 447.36,-443.43"/>
<polygon fill="#63b8ff" stroke="#63b8ff" points="447.73,-439.95 437.42,-442.4 447.01,-446.91 447.73,-439.95"/>
</g>
<!-- Node11 -->
<g id="node11" class="node">
<title>Node11</title>
<g id="a_node11"><a xlink:href="JPAEmitter_8h.html" target="_top" xlink:title=" ">
<polygon fill="white" stroke="#666666" points="1918,-382 1762,-382 1762,-363 1918,-363 1918,-382"/>
<text text-anchor="middle" x="1840" y="-370" font-family="Helvetica,sans-Serif" font-size="10.00">JSystem/JParticle/JPAEmitter.h</text>
</a>
</g>
</g>
<!-- Node1&#45;&gt;Node11 -->
<g id="edge14" class="edge">
<title>Node1&#45;&gt;Node11</title>
<path fill="none" stroke="#63b8ff" d="M1033.35,-497.53C1183.86,-495.75 1587.21,-487.33 1714,-448 1754.78,-435.35 1796.3,-407.22 1820.02,-389.37"/>
<polygon fill="#63b8ff" stroke="#63b8ff" points="1822.06,-392.22 1827.85,-383.35 1817.79,-386.68 1822.06,-392.22"/>
</g>
<!-- Node27 -->
<g id="node27" class="node">
<title>Node27</title>
<g id="a_node27"><a xlink:href="GX_8h.html" target="_top" xlink:title=" ">
<polygon fill="white" stroke="#666666" points="1018.5,-442.5 933.5,-442.5 933.5,-423.5 1018.5,-423.5 1018.5,-442.5"/>
<text text-anchor="middle" x="976" y="-430.5" font-family="Helvetica,sans-Serif" font-size="10.00">dolphin/gx/GX.h</text>
</a>
</g>
</g>
<!-- Node1&#45;&gt;Node27 -->
<g id="edge41" class="edge">
<title>Node1&#45;&gt;Node27</title>
<path fill="none" stroke="#63b8ff" d="M976,-483.8C976,-475.09 976,-463.81 976,-454.18"/>
<polygon fill="#63b8ff" stroke="#63b8ff" points="979.5,-454.36 976,-444.36 972.5,-454.36 979.5,-454.36"/>
</g>
<!-- Node2&#45;&gt;Node3 -->
<g id="edge2" class="edge">
<title>Node2&#45;&gt;Node3</title>
<path fill="none" stroke="#63b8ff" d="M144.18,-122.58C148.85,-121.99 153.48,-121.45 158,-121 597.57,-77.19 1132.14,-75.48 1298.83,-76.14"/>
<polygon fill="#63b8ff" stroke="#63b8ff" points="1298.66,-79.64 1308.68,-76.18 1298.69,-72.64 1298.66,-79.64"/>
</g>
<!-- Node4 -->
<g id="node4" class="node">
<title>Node4</title>
<g id="a_node4"><a xlink:href="stddef_8h.html" target="_top" xlink:title=" ">
<polygon fill="white" stroke="#666666" points="1419,-30 1283,-30 1283,0 1419,0 1419,-30"/>
<text text-anchor="start" x="1291" y="-18" font-family="Helvetica,sans-Serif" font-size="10.00">MSL_C/MSL_Common/Src</text>
<text text-anchor="middle" x="1351" y="-7" font-family="Helvetica,sans-Serif" font-size="10.00">/stddef.h</text>
</a>
</g>
</g>
<!-- Node3&#45;&gt;Node4 -->
<g id="edge3" class="edge">
<title>Node3&#45;&gt;Node4</title>
<path fill="none" stroke="#63b8ff" d="M1351,-65.87C1351,-59.4 1351,-50.2 1351,-41.45"/>
<polygon fill="#63b8ff" stroke="#63b8ff" points="1354.5,-41.63 1351,-31.63 1347.5,-41.63 1354.5,-41.63"/>
</g>
<!-- Node5&#45;&gt;Node3 -->
<g id="edge13" class="edge">
<title>Node5&#45;&gt;Node3</title>
<path fill="none" stroke="#63b8ff" d="M289.05,-417.51C236.44,-401.73 172,-370.64 172,-313 172,-313 172,-313 172,-195.5 172,-141.84 216.65,-139.55 267,-121 364.26,-85.16 1095.67,-78.05 1298.81,-76.77"/>
<polygon fill="#63b8ff" stroke="#63b8ff" points="1298.82,-80.27 1308.79,-76.7 1298.77,-73.27 1298.82,-80.27"/>
</g>
<!-- Node6 -->
<g id="node6" class="node">
<title>Node6</title>
<g id="a_node6"><a xlink:href="JPATexture_8h.html" target="_top" xlink:title=" ">
<polygon fill="white" stroke="#666666" points="435,-382 277,-382 277,-363 435,-363 435,-382"/>
<text text-anchor="middle" x="356" y="-370" font-family="Helvetica,sans-Serif" font-size="10.00">JSystem/JParticle/JPATexture.h</text>
</a>
</g>
</g>
<!-- Node5&#45;&gt;Node6 -->
<g id="edge5" class="edge">
<title>Node5&#45;&gt;Node6</title>
<path fill="none" stroke="#63b8ff" d="M356,-417.54C356,-410.34 356,-401.53 356,-393.68"/>
<polygon fill="#63b8ff" stroke="#63b8ff" points="359.5,-393.69 356,-383.69 352.5,-393.69 359.5,-393.69"/>
</g>
<!-- Node6&#45;&gt;Node3 -->
<g id="edge12" class="edge">
<title>Node6&#45;&gt;Node3</title>
<path fill="none" stroke="#63b8ff" d="M294.18,-362.55C270.85,-356.23 245.89,-345.43 229,-327 205.92,-301.81 210,-286.67 210,-252.5 210,-252.5 210,-252.5 210,-195.5 210,-84.52 1074.92,-76.58 1298.67,-76.39"/>
<polygon fill="#63b8ff" stroke="#63b8ff" points="1298.54,-79.89 1308.54,-76.38 1298.54,-72.89 1298.54,-79.89"/>
</g>
<!-- Node7 -->
<g id="node7" class="node">
<title>Node7</title>
<g id="a_node7"><a xlink:href="JUTTexture_8h.html" target="_top" xlink:title=" ">
<polygon fill="white" stroke="#666666" points="506.5,-321.5 357.5,-321.5 357.5,-302.5 506.5,-302.5 506.5,-321.5"/>
<text text-anchor="middle" x="432" y="-309.5" font-family="Helvetica,sans-Serif" font-size="10.00">JSystem/JUtility/JUTTexture.h</text>
</a>
</g>
</g>
<!-- Node6&#45;&gt;Node7 -->
<g id="edge6" class="edge">
<title>Node6&#45;&gt;Node7</title>
<path fill="none" stroke="#63b8ff" d="M367.54,-362.62C379.15,-353.68 397.29,-339.72 411.38,-328.87"/>
<polygon fill="#63b8ff" stroke="#63b8ff" points="413.36,-331.76 419.15,-322.89 409.09,-326.22 413.36,-331.76"/>
</g>
<!-- Node8 -->
<g id="node8" class="node">
<title>Node8</title>
<g id="a_node8"><a xlink:href="GXEnum_8h.html" target="_top" xlink:title=" ">
<polygon fill="white" stroke="#666666" points="1225,-261 1115,-261 1115,-242 1225,-242 1225,-261"/>
<text text-anchor="middle" x="1170" y="-249" font-family="Helvetica,sans-Serif" font-size="10.00">dolphin/gx/GXEnum.h</text>
</a>
</g>
</g>
<!-- Node7&#45;&gt;Node8 -->
<g id="edge7" class="edge">
<title>Node7&#45;&gt;Node8</title>
<path fill="none" stroke="#63b8ff" d="M480.16,-302.04C491.55,-300.16 503.68,-298.34 515,-297 627.55,-283.72 960.49,-264.22 1103.5,-256.18"/>
<polygon fill="#63b8ff" stroke="#63b8ff" points="1103.4,-259.69 1113.18,-255.63 1103,-252.7 1103.4,-259.69"/>
</g>
<!-- Node9 -->
<g id="node9" class="node">
<title>Node9</title>
<g id="a_node9"><a xlink:href="GXStruct_8h.html" target="_top" xlink:title=" ">
<polygon fill="white" stroke="#666666" points="998.5,-261 887.5,-261 887.5,-242 998.5,-242 998.5,-261"/>
<text text-anchor="middle" x="943" y="-249" font-family="Helvetica,sans-Serif" font-size="10.00">dolphin/gx/GXStruct.h</text>
</a>
</g>
</g>
<!-- Node7&#45;&gt;Node9 -->
<g id="edge9" class="edge">
<title>Node7&#45;&gt;Node9</title>
<path fill="none" stroke="#63b8ff" d="M481.96,-302.05C492.83,-300.24 504.29,-298.46 515,-297 642.21,-279.68 791.5,-265.56 875.9,-258.15"/>
<polygon fill="#63b8ff" stroke="#63b8ff" points="875.95,-261.66 885.61,-257.3 875.35,-254.68 875.95,-261.66"/>
</g>
<!-- Node8&#45;&gt;Node3 -->
<g id="edge8" class="edge">
<title>Node8&#45;&gt;Node3</title>
<path fill="none" stroke="#63b8ff" d="M1179.22,-241.63C1208.04,-213.94 1296.65,-128.75 1334.06,-92.79"/>
<polygon fill="#63b8ff" stroke="#63b8ff" points="1336.13,-95.65 1340.92,-86.19 1331.28,-90.6 1336.13,-95.65"/>
</g>
<!-- Node10 -->
<g id="node10" class="node">
<title>Node10</title>
<g id="a_node10"><a xlink:href="global_8h.html" target="_top" xlink:title=" ">
<polygon fill="white" stroke="#666666" points="1151,-145.5 1101,-145.5 1101,-126.5 1151,-126.5 1151,-145.5"/>
<text text-anchor="middle" x="1126" y="-133.5" font-family="Helvetica,sans-Serif" font-size="10.00">global.h</text>
</a>
</g>
</g>
<!-- Node9&#45;&gt;Node10 -->
<g id="edge10" class="edge">
<title>Node9&#45;&gt;Node10</title>
<path fill="none" stroke="#63b8ff" d="M957.36,-241.59C988.76,-222.12 1063.81,-175.57 1102.32,-151.69"/>
<polygon fill="#63b8ff" stroke="#63b8ff" points="1103.77,-154.91 1110.42,-146.66 1100.08,-148.96 1103.77,-154.91"/>
</g>
<!-- Node10&#45;&gt;Node3 -->
<g id="edge11" class="edge">
<title>Node10&#45;&gt;Node3</title>
<path fill="none" stroke="#63b8ff" d="M1151.37,-128.4C1188.75,-118.69 1259.17,-100.37 1305.59,-88.31"/>
<polygon fill="#63b8ff" stroke="#63b8ff" points="1306.29,-91.74 1315.09,-85.84 1304.53,-84.97 1306.29,-91.74"/>
</g>
<!-- Node11&#45;&gt;Node8 -->
<g id="edge15" class="edge">
<title>Node11&#45;&gt;Node8</title>
<path fill="none" stroke="#63b8ff" d="M1817.4,-362.62C1775.98,-346.73 1684.83,-313.56 1605,-297 1476.37,-270.33 1322.88,-259.38 1236.91,-255.09"/>
<polygon fill="#63b8ff" stroke="#63b8ff" points="1237.16,-251.6 1227,-254.61 1236.82,-258.59 1237.16,-251.6"/>
</g>
<!-- Node11&#45;&gt;Node9 -->
<g id="edge16" class="edge">
<title>Node11&#45;&gt;Node9</title>
<path fill="none" stroke="#63b8ff" d="M1761.8,-369.9C1650.67,-366.62 1440.98,-356.72 1265,-327 1213.34,-318.28 1201.96,-309.15 1151,-297 1099.67,-284.76 1040.83,-272.32 998.87,-263.72"/>
<polygon fill="#63b8ff" stroke="#63b8ff" points="999.75,-260.32 989.25,-261.75 998.35,-267.18 999.75,-260.32"/>
</g>
<!-- Node12 -->
<g id="node12" class="node">
<title>Node12</title>
<g id="a_node12"><a xlink:href="JPAResource_8h.html" target="_top" xlink:title=" ">
<polygon fill="white" stroke="#666666" points="1886.5,-261 1719.5,-261 1719.5,-242 1886.5,-242 1886.5,-261"/>
<text text-anchor="middle" x="1803" y="-249" font-family="Helvetica,sans-Serif" font-size="10.00">JSystem/JParticle/JPAResource.h</text>
</a>
</g>
</g>
<!-- Node11&#45;&gt;Node12 -->
<g id="edge17" class="edge">
<title>Node11&#45;&gt;Node12</title>
<path fill="none" stroke="#63b8ff" d="M1806.95,-362.61C1789.1,-355.94 1768.6,-344.82 1758,-327 1751.18,-315.54 1752.86,-309.3 1758,-297 1762.71,-285.71 1771.84,-275.83 1780.64,-268.26"/>
<polygon fill="#63b8ff" stroke="#63b8ff" points="1782.65,-271.13 1788.32,-262.19 1778.31,-265.64 1782.65,-271.13"/>
</g>
<!-- Node13 -->
<g id="node13" class="node">
<title>Node13</title>
<g id="a_node13"><a xlink:href="JPAList_8h.html" target="_top" xlink:title=" ">
<polygon fill="white" stroke="#666666" points="2074,-321.5 1932,-321.5 1932,-302.5 2074,-302.5 2074,-321.5"/>
<text text-anchor="middle" x="2003" y="-309.5" font-family="Helvetica,sans-Serif" font-size="10.00">JSystem/JParticle/JPAList.h</text>
</a>
</g>
</g>
<!-- Node11&#45;&gt;Node13 -->
<g id="edge19" class="edge">
<title>Node11&#45;&gt;Node13</title>
<path fill="none" stroke="#63b8ff" d="M1864.76,-362.62C1892.04,-352.82 1936.17,-336.98 1967.22,-325.84"/>
<polygon fill="#63b8ff" stroke="#63b8ff" points="1968.36,-329.15 1976.59,-322.48 1965.99,-322.56 1968.36,-329.15"/>
</g>
<!-- Node14 -->
<g id="node14" class="node">
<title>Node14</title>
<g id="a_node14"><a xlink:href="JPARandom_8h.html" target="_top" xlink:title=" ">
<polygon fill="white" stroke="#666666" points="2253.5,-321.5 2092.5,-321.5 2092.5,-302.5 2253.5,-302.5 2253.5,-321.5"/>
<text text-anchor="middle" x="2173" y="-309.5" font-family="Helvetica,sans-Serif" font-size="10.00">JSystem/JParticle/JPARandom.h</text>
</a>
</g>
</g>
<!-- Node11&#45;&gt;Node14 -->
<g id="edge20" class="edge">
<title>Node11&#45;&gt;Node14</title>
<path fill="none" stroke="#63b8ff" d="M1890.94,-362.55C1949.98,-352.18 2047.27,-335.09 2110.74,-323.94"/>
<polygon fill="#63b8ff" stroke="#63b8ff" points="2111.06,-327.44 2120.3,-322.26 2109.85,-320.54 2111.06,-327.44"/>
</g>
<!-- Node15 -->
<g id="node15" class="node">
<title>Node15</title>
<g id="a_node15"><a xlink:href="JPAMath_8h.html" target="_top" xlink:title=" ">
<polygon fill="white" stroke="#666666" points="1913.5,-321.5 1766.5,-321.5 1766.5,-302.5 1913.5,-302.5 1913.5,-321.5"/>
<text text-anchor="middle" x="1840" y="-309.5" font-family="Helvetica,sans-Serif" font-size="10.00">JSystem/JParticle/JPAMath.h</text>
</a>
</g>
</g>
<!-- Node11&#45;&gt;Node15 -->
<g id="edge21" class="edge">
<title>Node11&#45;&gt;Node15</title>
<path fill="none" stroke="#63b8ff" d="M1840,-362.87C1840,-355 1840,-343.1 1840,-332.89"/>
<polygon fill="#63b8ff" stroke="#63b8ff" points="1843.5,-333.18 1840,-323.18 1836.5,-333.18 1843.5,-333.18"/>
</g>
<!-- Node25 -->
<g id="node25" class="node">
<title>Node25</title>
<g id="a_node25"><a xlink:href="JPADynamicsBlock_8h.html" target="_top" xlink:title=" ">
<polygon fill="white" stroke="#666666" points="2471.5,-327 2310.5,-327 2310.5,-297 2471.5,-297 2471.5,-327"/>
<text text-anchor="start" x="2318.5" y="-315" font-family="Helvetica,sans-Serif" font-size="10.00">JSystem/JParticle/JPADynamics</text>
<text text-anchor="middle" x="2391" y="-304" font-family="Helvetica,sans-Serif" font-size="10.00">Block.h</text>
</a>
</g>
</g>
<!-- Node11&#45;&gt;Node25 -->
<g id="edge36" class="edge">
<title>Node11&#45;&gt;Node25</title>
<path fill="none" stroke="#63b8ff" d="M1918.4,-365.03C2009.35,-357.24 2163.75,-343.19 2296,-327 2297.01,-326.88 2298.03,-326.75 2299.06,-326.62"/>
<polygon fill="#63b8ff" stroke="#63b8ff" points="2299.22,-330.13 2308.69,-325.38 2298.32,-323.19 2299.22,-330.13"/>
</g>
<!-- Node26 -->
<g id="node26" class="node">
<title>Node26</title>
<g id="a_node26"><a xlink:href="JSUList_8h.html" target="_top" xlink:title=" ">
<polygon fill="white" stroke="#666666" points="2155.5,-145.5 2012.5,-145.5 2012.5,-126.5 2155.5,-126.5 2155.5,-145.5"/>
<text text-anchor="middle" x="2084" y="-133.5" font-family="Helvetica,sans-Serif" font-size="10.00">JSystem/JSupport/JSUList.h</text>
</a>
</g>
</g>
<!-- Node11&#45;&gt;Node26 -->
<g id="edge39" class="edge">
<title>Node11&#45;&gt;Node26</title>
<path fill="none" stroke="#63b8ff" d="M1918.06,-368.83C2033.95,-364.06 2240.4,-352.11 2263,-327 2271.92,-317.09 2268.45,-309.17 2263,-297 2246.26,-259.58 2149.59,-185.22 2105.68,-152.76"/>
<polygon fill="#63b8ff" stroke="#63b8ff" points="2107.8,-149.98 2097.67,-146.88 2103.65,-155.62 2107.8,-149.98"/>
</g>
<!-- Node12&#45;&gt;Node3 -->
<g id="edge18" class="edge">
<title>Node12&#45;&gt;Node3</title>
<path fill="none" stroke="#63b8ff" d="M1805.23,-241.7C1810.58,-218.26 1821.36,-153.9 1788,-121 1761.05,-94.42 1513.12,-82.31 1403.13,-78.2"/>
<polygon fill="#63b8ff" stroke="#63b8ff" points="1403.31,-74.71 1393.19,-77.84 1403.05,-81.7 1403.31,-74.71"/>
</g>
<!-- Node16 -->
<g id="node16" class="node">
<title>Node16</title>
<g id="a_node16"><a xlink:href="mtx_8h.html" target="_top" xlink:title=" ">
<polygon fill="white" stroke="#666666" points="1527,-261 1435,-261 1435,-242 1527,-242 1527,-261"/>
<text text-anchor="middle" x="1481" y="-249" font-family="Helvetica,sans-Serif" font-size="10.00">dolphin/mtx/mtx.h</text>
</a>
</g>
</g>
<!-- Node15&#45;&gt;Node16 -->
<g id="edge22" class="edge">
<title>Node15&#45;&gt;Node16</title>
<path fill="none" stroke="#63b8ff" d="M1785.08,-302.05C1718.43,-291.19 1606.54,-272.96 1538.66,-261.9"/>
<polygon fill="#63b8ff" stroke="#63b8ff" points="1539.27,-258.45 1528.84,-260.3 1538.14,-265.36 1539.27,-258.45"/>
</g>
<!-- Node20 -->
<g id="node20" class="node">
<title>Node20</title>
<g id="a_node20"><a xlink:href="JGeometry_8h.html" target="_top" xlink:title=" ">
<polygon fill="white" stroke="#666666" points="2360.5,-261 2247.5,-261 2247.5,-242 2360.5,-242 2360.5,-261"/>
<text text-anchor="middle" x="2304" y="-249" font-family="Helvetica,sans-Serif" font-size="10.00">JSystem/JGeometry.h</text>
</a>
</g>
</g>
<!-- Node15&#45;&gt;Node20 -->
<g id="edge29" class="edge">
<title>Node15&#45;&gt;Node20</title>
<path fill="none" stroke="#63b8ff" d="M1890.85,-302C1901.46,-300.24 1912.58,-298.49 1923,-297 2032.11,-281.44 2159.39,-267.4 2235.73,-259.42"/>
<polygon fill="#63b8ff" stroke="#63b8ff" points="2235.99,-262.91 2245.57,-258.39 2235.27,-255.95 2235.99,-262.91"/>
</g>
<!-- Node16&#45;&gt;Node3 -->
<g id="edge28" class="edge">
<title>Node16&#45;&gt;Node3</title>
<path fill="none" stroke="#63b8ff" d="M1434.77,-243.11C1411.84,-237.02 1385.75,-225.97 1370,-206 1344.98,-174.27 1345.55,-124.13 1348.24,-96.47"/>
<polygon fill="#63b8ff" stroke="#63b8ff" points="1351.69,-97.03 1349.4,-86.69 1344.74,-96.2 1351.69,-97.03"/>
</g>
<!-- Node17 -->
<g id="node17" class="node">
<title>Node17</title>
<g id="a_node17"><a xlink:href="mtx44_8h.html" target="_top" xlink:title=" ">
<polygon fill="white" stroke="#666666" points="1482.5,-206 1379.5,-206 1379.5,-187 1482.5,-187 1482.5,-206"/>
<text text-anchor="middle" x="1431" y="-194" font-family="Helvetica,sans-Serif" font-size="10.00">dolphin/mtx/mtx44.h</text>
</a>
</g>
</g>
<!-- Node16&#45;&gt;Node17 -->
<g id="edge23" class="edge">
<title>Node16&#45;&gt;Node17</title>
<path fill="none" stroke="#63b8ff" d="M1472.74,-241.75C1465.84,-234.43 1455.78,-223.76 1447.26,-214.74"/>
<polygon fill="#63b8ff" stroke="#63b8ff" points="1449.88,-212.42 1440.47,-207.54 1444.79,-217.22 1449.88,-212.42"/>
</g>
<!-- Node18 -->
<g id="node18" class="node">
<title>Node18</title>
<g id="a_node18"><a xlink:href="quat_8h.html" target="_top" xlink:title=" ">
<polygon fill="white" stroke="#666666" points="1595.5,-206 1500.5,-206 1500.5,-187 1595.5,-187 1595.5,-206"/>
<text text-anchor="middle" x="1548" y="-194" font-family="Helvetica,sans-Serif" font-size="10.00">dolphin/mtx/quat.h</text>
</a>
</g>
</g>
<!-- Node16&#45;&gt;Node18 -->
<g id="edge25" class="edge">
<title>Node16&#45;&gt;Node18</title>
<path fill="none" stroke="#63b8ff" d="M1492.37,-241.51C1502.05,-233.85 1516.2,-222.66 1527.81,-213.47"/>
<polygon fill="#63b8ff" stroke="#63b8ff" points="1529.94,-216.25 1535.62,-207.3 1525.6,-210.76 1529.94,-216.25"/>
</g>
<!-- Node17&#45;&gt;Node3 -->
<g id="edge24" class="edge">
<title>Node17&#45;&gt;Node3</title>
<path fill="none" stroke="#63b8ff" d="M1424.99,-186.56C1411.89,-167.08 1380.58,-120.5 1363.18,-94.62"/>
<polygon fill="#63b8ff" stroke="#63b8ff" points="1366.19,-92.83 1357.71,-86.48 1360.38,-96.73 1366.19,-92.83"/>
</g>
<!-- Node19 -->
<g id="node19" class="node">
<title>Node19</title>
<g id="a_node19"><a xlink:href="vec_8h.html" target="_top" xlink:title=" ">
<polygon fill="white" stroke="#666666" points="1779,-145.5 1687,-145.5 1687,-126.5 1779,-126.5 1779,-145.5"/>
<text text-anchor="middle" x="1733" y="-133.5" font-family="Helvetica,sans-Serif" font-size="10.00">dolphin/mtx/vec.h</text>
</a>
</g>
</g>
<!-- Node18&#45;&gt;Node19 -->
<g id="edge26" class="edge">
<title>Node18&#45;&gt;Node19</title>
<path fill="none" stroke="#63b8ff" d="M1576.1,-186.62C1607.47,-176.69 1658.48,-160.57 1693.77,-149.4"/>
<polygon fill="#63b8ff" stroke="#63b8ff" points="1694.72,-152.78 1703.19,-146.42 1692.61,-146.1 1694.72,-152.78"/>
</g>
<!-- Node19&#45;&gt;Node3 -->
<g id="edge27" class="edge">
<title>Node19&#45;&gt;Node3</title>
<path fill="none" stroke="#63b8ff" d="M1696.94,-126.02C1689.08,-124.22 1680.78,-122.44 1673,-121 1578.45,-103.47 1467.11,-89.56 1403.22,-82.22"/>
<polygon fill="#63b8ff" stroke="#63b8ff" points="1403.69,-78.75 1393.36,-81.1 1402.9,-85.71 1403.69,-78.75"/>
</g>
<!-- Node20&#45;&gt;Node19 -->
<g id="edge30" class="edge">
<title>Node20&#45;&gt;Node19</title>
<path fill="none" stroke="#63b8ff" d="M2259.19,-241.59C2156.13,-221.11 1902.39,-170.67 1789.15,-148.16"/>
<polygon fill="#63b8ff" stroke="#63b8ff" points="1789.97,-144.76 1779.48,-146.24 1788.6,-151.62 1789.97,-144.76"/>
</g>
<!-- Node21 -->
<g id="node21" class="node">
<title>Node21</title>
<g id="a_node21"><a xlink:href="float_8h.html" target="_top" xlink:title=" ">
<polygon fill="white" stroke="#666666" points="2325,-206 2247,-206 2247,-187 2325,-187 2325,-206"/>
<text text-anchor="middle" x="2286" y="-194" font-family="Helvetica,sans-Serif" font-size="10.00">MSL_C/float.h</text>
</a>
</g>
</g>
<!-- Node20&#45;&gt;Node21 -->
<g id="edge31" class="edge">
<title>Node20&#45;&gt;Node21</title>
<path fill="none" stroke="#63b8ff" d="M2301.03,-241.75C2298.77,-235.11 2295.59,-225.73 2292.73,-217.31"/>
<polygon fill="#63b8ff" stroke="#63b8ff" points="2296.05,-216.22 2289.52,-207.88 2289.43,-218.47 2296.05,-216.22"/>
</g>
<!-- Node24 -->
<g id="node24" class="node">
<title>Node24</title>
<g id="a_node24"><a xlink:href="math_8h.html" target="_top" xlink:title=" ">
<polygon fill="white" stroke="#666666" points="2425,-206 2343,-206 2343,-187 2425,-187 2425,-206"/>
<text text-anchor="middle" x="2384" y="-194" font-family="Helvetica,sans-Serif" font-size="10.00">MSL_C/math.h</text>
</a>
</g>
</g>
<!-- Node20&#45;&gt;Node24 -->
<g id="edge34" class="edge">
<title>Node20&#45;&gt;Node24</title>
<path fill="none" stroke="#63b8ff" d="M2317.57,-241.51C2329.48,-233.62 2347.05,-221.98 2361.13,-212.65"/>
<polygon fill="#63b8ff" stroke="#63b8ff" points="2362.96,-215.63 2369.37,-207.19 2359.1,-209.8 2362.96,-215.63"/>
</g>
<!-- Node22 -->
<g id="node22" class="node">
<title>Node22</title>
<g id="a_node22"><a xlink:href="MSL__Common_2Src_2float_8h.html" target="_top" xlink:title=" ">
<polygon fill="white" stroke="#666666" points="2389,-151 2253,-151 2253,-121 2389,-121 2389,-151"/>
<text text-anchor="start" x="2261" y="-139" font-family="Helvetica,sans-Serif" font-size="10.00">MSL_C/MSL_Common/Src</text>
<text text-anchor="middle" x="2321" y="-128" font-family="Helvetica,sans-Serif" font-size="10.00">/float.h</text>
</a>
</g>
</g>
<!-- Node21&#45;&gt;Node22 -->
<g id="edge32" class="edge">
<title>Node21&#45;&gt;Node22</title>
<path fill="none" stroke="#63b8ff" d="M2291.16,-186.87C2295.25,-180.03 2301.17,-170.14 2306.66,-160.97"/>
<polygon fill="#63b8ff" stroke="#63b8ff" points="2309.65,-162.79 2311.78,-152.41 2303.64,-159.2 2309.65,-162.79"/>
</g>
<!-- Node23 -->
<g id="node23" class="node">
<title>Node23</title>
<g id="a_node23"><a xlink:href="fdlibm_8h.html" target="_top" xlink:title=" ">
<polygon fill="white" stroke="#666666" points="2346,-85 2296,-85 2296,-66 2346,-66 2346,-85"/>
<text text-anchor="middle" x="2321" y="-73" font-family="Helvetica,sans-Serif" font-size="10.00">fdlibm.h</text>
</a>
</g>
</g>
<!-- Node22&#45;&gt;Node23 -->
<g id="edge33" class="edge">
<title>Node22&#45;&gt;Node23</title>
<path fill="none" stroke="#63b8ff" d="M2321,-120.54C2321,-113.34 2321,-104.53 2321,-96.68"/>
<polygon fill="#63b8ff" stroke="#63b8ff" points="2324.5,-96.69 2321,-86.69 2317.5,-96.69 2324.5,-96.69"/>
</g>
<!-- Node24&#45;&gt;Node22 -->
<g id="edge35" class="edge">
<title>Node24&#45;&gt;Node22</title>
<path fill="none" stroke="#63b8ff" d="M2374.43,-186.62C2366.58,-179.32 2355.12,-168.68 2344.82,-159.12"/>
<polygon fill="#63b8ff" stroke="#63b8ff" points="2347.37,-156.71 2337.66,-152.47 2342.61,-161.84 2347.37,-156.71"/>
</g>
<!-- Node25&#45;&gt;Node3 -->
<g id="edge38" class="edge">
<title>Node25&#45;&gt;Node3</title>
<path fill="none" stroke="#63b8ff" d="M2399.01,-296.61C2409.49,-276.89 2427.3,-240.02 2434,-206 2441.92,-165.75 2432.83,-142.69 2398,-121 2355.42,-94.48 1608.81,-80.62 1403.1,-77.3"/>
<polygon fill="#63b8ff" stroke="#63b8ff" points="1403.31,-73.8 1393.26,-77.14 1403.2,-80.8 1403.31,-73.8"/>
</g>
<!-- Node25&#45;&gt;Node20 -->
<g id="edge37" class="edge">
<title>Node25&#45;&gt;Node20</title>
<path fill="none" stroke="#63b8ff" d="M2369.49,-296.54C2356.42,-287.75 2339.75,-276.54 2326.51,-267.63"/>
<polygon fill="#63b8ff" stroke="#63b8ff" points="2328.66,-264.87 2318.41,-262.19 2324.76,-270.68 2328.66,-264.87"/>
</g>
<!-- Node26&#45;&gt;Node3 -->
<g id="edge40" class="edge">
<title>Node26&#45;&gt;Node3</title>
<path fill="none" stroke="#63b8ff" d="M2012.05,-129.26C1864.79,-117.5 1532.07,-90.95 1403.29,-80.67"/>
<polygon fill="#63b8ff" stroke="#63b8ff" points="1403.59,-77.19 1393.34,-79.88 1403.03,-84.16 1403.59,-77.19"/>
</g>
<!-- Node28 -->
<g id="node28" class="node">
<title>Node28</title>
<g id="a_node28"><a xlink:href="GXAttr_8h.html" target="_top" xlink:title=" ">
<polygon fill="white" stroke="#666666" points="1148.5,-382 1047.5,-382 1047.5,-363 1148.5,-363 1148.5,-382"/>
<text text-anchor="middle" x="1098" y="-370" font-family="Helvetica,sans-Serif" font-size="10.00">dolphin/gx/GXAttr.h</text>
</a>
</g>
</g>
<!-- Node27&#45;&gt;Node28 -->
<g id="edge42" class="edge">
<title>Node27&#45;&gt;Node28</title>
<path fill="none" stroke="#63b8ff" d="M994.53,-423.12C1014.32,-413.62 1045.97,-398.45 1069.05,-387.38"/>
<polygon fill="#63b8ff" stroke="#63b8ff" points="1070.43,-390.6 1077.93,-383.12 1067.4,-384.29 1070.43,-390.6"/>
</g>
<!-- Node29 -->
<g id="node29" class="node">
<title>Node29</title>
<g id="a_node29"><a xlink:href="GXBump_8h.html" target="_top" xlink:title=" ">
<polygon fill="white" stroke="#666666" points="1412,-382 1302,-382 1302,-363 1412,-363 1412,-382"/>
<text text-anchor="middle" x="1357" y="-370" font-family="Helvetica,sans-Serif" font-size="10.00">dolphin/gx/GXBump.h</text>
</a>
</g>
</g>
<!-- Node27&#45;&gt;Node29 -->
<g id="edge44" class="edge">
<title>Node27&#45;&gt;Node29</title>
<path fill="none" stroke="#63b8ff" d="M1018.96,-425.4C1085.09,-415.25 1212.33,-395.71 1290.44,-383.72"/>
<polygon fill="#63b8ff" stroke="#63b8ff" points="1290.75,-387.21 1300.1,-382.24 1289.69,-380.29 1290.75,-387.21"/>
</g>
<!-- Node30 -->
<g id="node30" class="node">
<title>Node30</title>
<g id="a_node30"><a xlink:href="GXDisplayList_8h.html" target="_top" xlink:title=" ">
<polygon fill="white" stroke="#666666" points="1601.5,-145.5 1468.5,-145.5 1468.5,-126.5 1601.5,-126.5 1601.5,-145.5"/>
<text text-anchor="middle" x="1535" y="-133.5" font-family="Helvetica,sans-Serif" font-size="10.00">dolphin/gx/GXDisplayList.h</text>
</a>
</g>
</g>
<!-- Node27&#45;&gt;Node30 -->
<g id="edge46" class="edge">
<title>Node27&#45;&gt;Node30</title>
<path fill="none" stroke="#63b8ff" d="M1018.96,-430.72C1149.48,-426.53 1535.42,-411.73 1583,-382 1613.25,-363.1 1624,-348.67 1624,-313 1624,-313 1624,-313 1624,-250.5 1624,-221.04 1622.13,-210.96 1605,-187 1594.38,-172.14 1577.93,-160.07 1563.64,-151.51"/>
<polygon fill="#63b8ff" stroke="#63b8ff" points="1565.48,-148.53 1555.05,-146.65 1562.04,-154.62 1565.48,-148.53"/>
</g>
<!-- Node31 -->
<g id="node31" class="node">
<title>Node31</title>
<g id="a_node31"><a xlink:href="GXFifo_8h.html" target="_top" xlink:title=" ">
<polygon fill="white" stroke="#666666" points="339.5,-321.5 238.5,-321.5 238.5,-302.5 339.5,-302.5 339.5,-321.5"/>
<text text-anchor="middle" x="289" y="-309.5" font-family="Helvetica,sans-Serif" font-size="10.00">dolphin/gx/GXFifo.h</text>
</a>
</g>
</g>
<!-- Node27&#45;&gt;Node31 -->
<g id="edge48" class="edge">
<title>Node27&#45;&gt;Node31</title>
<path fill="none" stroke="#63b8ff" d="M933.18,-425.86C831.34,-411.03 566.87,-371.21 348,-327 344.17,-326.23 340.21,-325.38 336.24,-324.51"/>
<polygon fill="#63b8ff" stroke="#63b8ff" points="337.11,-321.12 326.59,-322.31 335.56,-327.94 337.11,-321.12"/>
</g>
<!-- Node34 -->
<g id="node34" class="node">
<title>Node34</title>
<g id="a_node34"><a xlink:href="GXFrameBuf_8h.html" target="_top" xlink:title=" ">
<polygon fill="white" stroke="#666666" points="1142,-321.5 1014,-321.5 1014,-302.5 1142,-302.5 1142,-321.5"/>
<text text-anchor="middle" x="1078" y="-309.5" font-family="Helvetica,sans-Serif" font-size="10.00">dolphin/gx/GXFrameBuf.h</text>
</a>
</g>
</g>
<!-- Node27&#45;&gt;Node34 -->
<g id="edge54" class="edge">
<title>Node27&#45;&gt;Node34</title>
<path fill="none" stroke="#63b8ff" d="M957.49,-423.1C933.58,-410.4 896.94,-386.04 914,-363 921.1,-353.41 983.6,-336.23 1029.34,-324.72"/>
<polygon fill="#63b8ff" stroke="#63b8ff" points="1029.95,-328.18 1038.81,-322.36 1028.26,-321.39 1029.95,-328.18"/>
</g>
<!-- Node35 -->
<g id="node35" class="node">
<title>Node35</title>
<g id="a_node35"><a xlink:href="GXGeometry_8h.html" target="_top" xlink:title=" ">
<polygon fill="white" stroke="#666666" points="1557.5,-382 1430.5,-382 1430.5,-363 1557.5,-363 1557.5,-382"/>
<text text-anchor="middle" x="1494" y="-370" font-family="Helvetica,sans-Serif" font-size="10.00">dolphin/gx/GXGeometry.h</text>
</a>
</g>
</g>
<!-- Node27&#45;&gt;Node35 -->
<g id="edge57" class="edge">
<title>Node27&#45;&gt;Node35</title>
<path fill="none" stroke="#63b8ff" d="M1018.96,-427.23C1096.51,-418.61 1265.32,-399.79 1419.24,-382.2"/>
<polygon fill="#63b8ff" stroke="#63b8ff" points="1419.26,-385.72 1428.8,-381.1 1418.46,-378.76 1419.26,-385.72"/>
</g>
<!-- Node36 -->
<g id="node36" class="node">
<title>Node36</title>
<g id="a_node36"><a xlink:href="GXLight_8h.html" target="_top" xlink:title=" ">
<polygon fill="white" stroke="#666666" points="871.5,-321.5 764.5,-321.5 764.5,-302.5 871.5,-302.5 871.5,-321.5"/>
<text text-anchor="middle" x="818" y="-309.5" font-family="Helvetica,sans-Serif" font-size="10.00">dolphin/gx/GXLight.h</text>
</a>
</g>
</g>
<!-- Node27&#45;&gt;Node36 -->
<g id="edge59" class="edge">
<title>Node27&#45;&gt;Node36</title>
<path fill="none" stroke="#63b8ff" d="M950.36,-423.03C928.6,-414.61 897.3,-400.55 874,-382 855.76,-367.48 839.54,-346.06 829.31,-330.94"/>
<polygon fill="#63b8ff" stroke="#63b8ff" points="832.46,-329.37 824.06,-322.91 826.61,-333.2 832.46,-329.37"/>
</g>
<!-- Node37 -->
<g id="node37" class="node">
<title>Node37</title>
<g id="a_node37"><a xlink:href="GXMisc_8h.html" target="_top" xlink:title=" ">
<polygon fill="white" stroke="#666666" points="1029,-382 923,-382 923,-363 1029,-363 1029,-382"/>
<text text-anchor="middle" x="976" y="-370" font-family="Helvetica,sans-Serif" font-size="10.00">dolphin/gx/GXMisc.h</text>
</a>
</g>
</g>
<!-- Node27&#45;&gt;Node37 -->
<g id="edge62" class="edge">
<title>Node27&#45;&gt;Node37</title>
<path fill="none" stroke="#63b8ff" d="M976,-423.37C976,-415.5 976,-403.6 976,-393.39"/>
<polygon fill="#63b8ff" stroke="#63b8ff" points="979.5,-393.68 976,-383.68 972.5,-393.68 979.5,-393.68"/>
</g>
<!-- Node38 -->
<g id="node38" class="node">
<title>Node38</title>
<g id="a_node38"><a xlink:href="GXPerf_8h.html" target="_top" xlink:title=" ">
<polygon fill="white" stroke="#666666" points="627.5,-321.5 524.5,-321.5 524.5,-302.5 627.5,-302.5 627.5,-321.5"/>
<text text-anchor="middle" x="576" y="-309.5" font-family="Helvetica,sans-Serif" font-size="10.00">dolphin/gx/GXPerf.h</text>
</a>
</g>
</g>
<!-- Node27&#45;&gt;Node38 -->
<g id="edge64" class="edge">
<title>Node27&#45;&gt;Node38</title>
<path fill="none" stroke="#63b8ff" d="M945.09,-423.04C910.82,-413.1 853.93,-396.52 805,-382 738.76,-362.34 661.88,-339.08 616.18,-325.22"/>
<polygon fill="#63b8ff" stroke="#63b8ff" points="617.29,-321.9 606.71,-322.34 615.26,-328.59 617.29,-321.9"/>
</g>
<!-- Node39 -->
<g id="node39" class="node">
<title>Node39</title>
<g id="a_node39"><a xlink:href="GXPixel_8h.html" target="_top" xlink:title=" ">
<polygon fill="white" stroke="#666666" points="996,-321.5 890,-321.5 890,-302.5 996,-302.5 996,-321.5"/>
<text text-anchor="middle" x="943" y="-309.5" font-family="Helvetica,sans-Serif" font-size="10.00">dolphin/gx/GXPixel.h</text>
</a>
</g>
</g>
<!-- Node27&#45;&gt;Node39 -->
<g id="edge67" class="edge">
<title>Node27&#45;&gt;Node39</title>
<path fill="none" stroke="#63b8ff" d="M940.15,-423.16C918.95,-415.89 893.81,-403.22 881,-382 868.35,-361.05 892.56,-340.66 914.33,-327.55"/>
<polygon fill="#63b8ff" stroke="#63b8ff" points="916.03,-330.61 923.01,-322.64 912.58,-324.52 916.03,-330.61"/>
</g>
<!-- Node40 -->
<g id="node40" class="node">
<title>Node40</title>
<g id="a_node40"><a xlink:href="GXTev_8h.html" target="_top" xlink:title=" ">
<polygon fill="white" stroke="#666666" points="746.5,-321.5 645.5,-321.5 645.5,-302.5 746.5,-302.5 746.5,-321.5"/>
<text text-anchor="middle" x="696" y="-309.5" font-family="Helvetica,sans-Serif" font-size="10.00">dolphin/gx/GXTev.h</text>
</a>
</g>
</g>
<!-- Node27&#45;&gt;Node40 -->
<g id="edge70" class="edge">
<title>Node27&#45;&gt;Node40</title>
<path fill="none" stroke="#63b8ff" d="M952.85,-423.05C927.68,-413.24 886.31,-396.92 851,-382 807.07,-363.44 756.7,-340.76 725.62,-326.59"/>
<polygon fill="#63b8ff" stroke="#63b8ff" points="727.4,-323.55 716.85,-322.58 724.49,-329.92 727.4,-323.55"/>
</g>
<!-- Node41 -->
<g id="node41" class="node">
<title>Node41</title>
<g id="a_node41"><a xlink:href="GXTexture_8h.html" target="_top" xlink:title=" ">
<polygon fill="white" stroke="#666666" points="1283.5,-382 1166.5,-382 1166.5,-363 1283.5,-363 1283.5,-382"/>
<text text-anchor="middle" x="1225" y="-370" font-family="Helvetica,sans-Serif" font-size="10.00">dolphin/gx/GXTexture.h</text>
</a>
</g>
</g>
<!-- Node27&#45;&gt;Node41 -->
<g id="edge73" class="edge">
<title>Node27&#45;&gt;Node41</title>
<path fill="none" stroke="#63b8ff" d="M1014.09,-423.05C1057.48,-412.86 1128.49,-396.17 1175.97,-385.02"/>
<polygon fill="#63b8ff" stroke="#63b8ff" points="1176.51,-388.49 1185.44,-382.79 1174.91,-381.67 1176.51,-388.49"/>
</g>
<!-- Node43 -->
<g id="node43" class="node">
<title>Node43</title>
<g id="a_node43"><a xlink:href="GXTransform_8h.html" target="_top" xlink:title=" ">
<polygon fill="white" stroke="#666666" points="1595.5,-321.5 1466.5,-321.5 1466.5,-302.5 1595.5,-302.5 1595.5,-321.5"/>
<text text-anchor="middle" x="1531" y="-309.5" font-family="Helvetica,sans-Serif" font-size="10.00">dolphin/gx/GXTransform.h</text>
</a>
</g>
</g>
<!-- Node27&#45;&gt;Node43 -->
<g id="edge78" class="edge">
<title>Node27&#45;&gt;Node43</title>
<path fill="none" stroke="#63b8ff" d="M1018.64,-431.64C1148.1,-430.12 1530.03,-422.23 1567,-382 1581.19,-366.55 1564.93,-344.47 1549.93,-329.47"/>
<polygon fill="#63b8ff" stroke="#63b8ff" points="1552.72,-327.29 1543.04,-323 1547.93,-332.39 1552.72,-327.29"/>
</g>
<!-- Node28&#45;&gt;Node8 -->
<g id="edge43" class="edge">
<title>Node28&#45;&gt;Node8</title>
<path fill="none" stroke="#63b8ff" d="M1133.93,-362.57C1152.32,-355.98 1173.08,-344.95 1184,-327 1194.24,-310.17 1187.72,-287.56 1180.54,-271.67"/>
<polygon fill="#63b8ff" stroke="#63b8ff" points="1183.71,-270.2 1176.1,-262.83 1177.46,-273.33 1183.71,-270.2"/>
</g>
<!-- Node29&#45;&gt;Node8 -->
<g id="edge45" class="edge">
<title>Node29&#45;&gt;Node8</title>
<path fill="none" stroke="#63b8ff" d="M1364.59,-362.72C1376.61,-347.72 1397.09,-316.84 1381,-297 1363.03,-274.84 1291.67,-263.3 1236.86,-257.58"/>
<polygon fill="#63b8ff" stroke="#63b8ff" points="1237.24,-254.1 1226.95,-256.59 1236.55,-261.07 1237.24,-254.1"/>
</g>
<!-- Node30&#45;&gt;Node3 -->
<g id="edge47" class="edge">
<title>Node30&#45;&gt;Node3</title>
<path fill="none" stroke="#63b8ff" d="M1507.05,-126.12C1475.85,-116.19 1425.12,-100.07 1390.01,-88.9"/>
<polygon fill="#63b8ff" stroke="#63b8ff" points="1391.24,-85.62 1380.65,-85.93 1389.12,-92.29 1391.24,-85.62"/>
</g>
<!-- Node31&#45;&gt;Node8 -->
<g id="edge50" class="edge">
<title>Node31&#45;&gt;Node8</title>
<path fill="none" stroke="#63b8ff" d="M322.19,-302.03C330.55,-300.07 339.56,-298.22 348,-297 357.32,-295.65 908.74,-266.35 1103.1,-256.04"/>
<polygon fill="#63b8ff" stroke="#63b8ff" points="1103.24,-259.54 1113.04,-255.52 1102.87,-252.55 1103.24,-259.54"/>
</g>
<!-- Node31&#45;&gt;Node9 -->
<g id="edge49" class="edge">
<title>Node31&#45;&gt;Node9</title>
<path fill="none" stroke="#63b8ff" d="M322.83,-302C331.02,-300.1 339.78,-298.27 348,-297 538.07,-267.53 765.43,-257.4 876,-254.06"/>
<polygon fill="#63b8ff" stroke="#63b8ff" points="875.89,-257.56 885.78,-253.77 875.68,-250.57 875.89,-257.56"/>
</g>
<!-- Node32 -->
<g id="node32" class="node">
<title>Node32</title>
<g id="a_node32"><a xlink:href="OSThread_8h.html" target="_top" xlink:title=" ">
<polygon fill="white" stroke="#666666" points="543,-261 427,-261 427,-242 543,-242 543,-261"/>
<text text-anchor="middle" x="485" y="-249" font-family="Helvetica,sans-Serif" font-size="10.00">dolphin/os/OSThread.h</text>
</a>
</g>
</g>
<!-- Node31&#45;&gt;Node32 -->
<g id="edge51" class="edge">
<title>Node31&#45;&gt;Node32</title>
<path fill="none" stroke="#63b8ff" d="M318.77,-302.12C352.15,-292.15 406.51,-275.93 443.93,-264.76"/>
<polygon fill="#63b8ff" stroke="#63b8ff" points="444.92,-268.12 453.5,-261.9 442.92,-261.41 444.92,-268.12"/>
</g>
<!-- Node33 -->
<g id="node33" class="node">
<title>Node33</title>
<g id="a_node33"><a xlink:href="OSContext_8h.html" target="_top" xlink:title=" ">
<polygon fill="white" stroke="#666666" points="640.5,-206 521.5,-206 521.5,-187 640.5,-187 640.5,-206"/>
<text text-anchor="middle" x="581" y="-194" font-family="Helvetica,sans-Serif" font-size="10.00">dolphin/os/OSContext.h</text>
</a>
</g>
</g>
<!-- Node32&#45;&gt;Node33 -->
<g id="edge52" class="edge">
<title>Node32&#45;&gt;Node33</title>
<path fill="none" stroke="#63b8ff" d="M501.29,-241.51C515.99,-233.39 537.89,-221.3 555.02,-211.85"/>
<polygon fill="#63b8ff" stroke="#63b8ff" points="556.57,-214.99 563.63,-207.09 553.18,-208.86 556.57,-214.99"/>
</g>
<!-- Node33&#45;&gt;Node3 -->
<g id="edge53" class="edge">
<title>Node33&#45;&gt;Node3</title>
<path fill="none" stroke="#63b8ff" d="M591.55,-186.57C611.67,-170.14 657.6,-135.46 703,-121 813.56,-85.78 1165.1,-78.43 1298.75,-76.9"/>
<polygon fill="#63b8ff" stroke="#63b8ff" points="1298.77,-80.4 1308.73,-76.79 1298.7,-73.4 1298.77,-80.4"/>
</g>
<!-- Node34&#45;&gt;Node8 -->
<g id="edge56" class="edge">
<title>Node34&#45;&gt;Node8</title>
<path fill="none" stroke="#63b8ff" d="M1091.97,-302.12C1106.43,-292.92 1129.26,-278.41 1146.5,-267.44"/>
<polygon fill="#63b8ff" stroke="#63b8ff" points="1148.06,-270.6 1154.62,-262.28 1144.3,-264.69 1148.06,-270.6"/>
</g>
<!-- Node34&#45;&gt;Node9 -->
<g id="edge55" class="edge">
<title>Node34&#45;&gt;Node9</title>
<path fill="none" stroke="#63b8ff" d="M1057.5,-302.12C1035.29,-292.49 999.63,-277.04 974,-265.93"/>
<polygon fill="#63b8ff" stroke="#63b8ff" points="975.65,-262.83 965.09,-262.07 972.87,-269.26 975.65,-262.83"/>
</g>
<!-- Node35&#45;&gt;Node8 -->
<g id="edge58" class="edge">
<title>Node35&#45;&gt;Node8</title>
<path fill="none" stroke="#63b8ff" d="M1485.42,-362.5C1469.7,-346.59 1434.5,-313.58 1398,-297 1346.61,-273.66 1283.26,-262.54 1236.39,-257.25"/>
<polygon fill="#63b8ff" stroke="#63b8ff" points="1236.97,-253.79 1226.65,-256.22 1236.23,-260.75 1236.97,-253.79"/>
</g>
<!-- Node36&#45;&gt;Node8 -->
<g id="edge61" class="edge">
<title>Node36&#45;&gt;Node8</title>
<path fill="none" stroke="#63b8ff" d="M856.57,-302.01C864.62,-300.25 873.07,-298.49 881,-297 956.89,-282.74 1044.63,-269.72 1103.34,-261.49"/>
<polygon fill="#63b8ff" stroke="#63b8ff" points="1103.76,-264.97 1113.18,-260.12 1102.8,-258.03 1103.76,-264.97"/>
</g>
<!-- Node36&#45;&gt;Node9 -->
<g id="edge60" class="edge">
<title>Node36&#45;&gt;Node9</title>
<path fill="none" stroke="#63b8ff" d="M836.98,-302.12C857.36,-292.58 889.98,-277.31 913.66,-266.23"/>
<polygon fill="#63b8ff" stroke="#63b8ff" points="914.89,-269.52 922.47,-262.11 911.92,-263.18 914.89,-269.52"/>
</g>
<!-- Node37&#45;&gt;Node8 -->
<g id="edge63" class="edge">
<title>Node37&#45;&gt;Node8</title>
<path fill="none" stroke="#63b8ff" d="M1029.07,-364.06C1074.07,-356.7 1133.93,-344.06 1151,-327 1165.3,-312.71 1169.33,-289.27 1170.24,-272.49"/>
<polygon fill="#63b8ff" stroke="#63b8ff" points="1173.73,-272.8 1170.41,-262.74 1166.73,-272.68 1173.73,-272.8"/>
</g>
<!-- Node38&#45;&gt;Node3 -->
<g id="edge65" class="edge">
<title>Node38&#45;&gt;Node3</title>
<path fill="none" stroke="#63b8ff" d="M596.21,-302.02C664.54,-272.01 893.73,-174.06 1092,-121 1162.48,-102.14 1245.96,-89.48 1298.71,-82.63"/>
<polygon fill="#63b8ff" stroke="#63b8ff" points="1299.15,-86.1 1308.63,-81.37 1298.27,-79.16 1299.15,-86.1"/>
</g>
<!-- Node38&#45;&gt;Node8 -->
<g id="edge66" class="edge">
<title>Node38&#45;&gt;Node8</title>
<path fill="none" stroke="#63b8ff" d="M610.41,-302.06C618.74,-300.15 627.65,-298.31 636,-297 724.25,-283.1 980.63,-265.01 1103.21,-256.84"/>
<polygon fill="#63b8ff" stroke="#63b8ff" points="1103.39,-260.34 1113.13,-256.18 1102.92,-253.35 1103.39,-260.34"/>
</g>
<!-- Node39&#45;&gt;Node8 -->
<g id="edge69" class="edge">
<title>Node39&#45;&gt;Node8</title>
<path fill="none" stroke="#63b8ff" d="M977.48,-302.12C1016.64,-292.02 1080.73,-275.51 1124.1,-264.33"/>
<polygon fill="#63b8ff" stroke="#63b8ff" points="1124.92,-267.73 1133.73,-261.85 1123.18,-260.95 1124.92,-267.73"/>
</g>
<!-- Node39&#45;&gt;Node9 -->
<g id="edge68" class="edge">
<title>Node39&#45;&gt;Node9</title>
<path fill="none" stroke="#63b8ff" d="M943,-302.37C943,-294.5 943,-282.6 943,-272.39"/>
<polygon fill="#63b8ff" stroke="#63b8ff" points="946.5,-272.68 943,-262.68 939.5,-272.68 946.5,-272.68"/>
</g>
<!-- Node40&#45;&gt;Node8 -->
<g id="edge71" class="edge">
<title>Node40&#45;&gt;Node8</title>
<path fill="none" stroke="#63b8ff" d="M730.48,-302.05C738.49,-300.18 747.01,-298.37 755,-297 876.97,-276.08 1020.9,-263.26 1103.21,-257.05"/>
<polygon fill="#63b8ff" stroke="#63b8ff" points="1103.43,-260.55 1113.14,-256.32 1102.91,-253.57 1103.43,-260.55"/>
</g>
<!-- Node40&#45;&gt;Node9 -->
<g id="edge72" class="edge">
<title>Node40&#45;&gt;Node9</title>
<path fill="none" stroke="#63b8ff" d="M733.77,-302.03C740.82,-300.36 748.14,-298.63 755,-297 802.38,-285.77 856.48,-272.97 894.44,-263.99"/>
<polygon fill="#63b8ff" stroke="#63b8ff" points="894.79,-267.5 903.72,-261.79 893.18,-260.69 894.79,-267.5"/>
</g>
<!-- Node42 -->
<g id="node42" class="node">
<title>Node42</title>
<g id="a_node42"><a xlink:href="GXInit_8h.html" target="_top" xlink:title=" ">
<polygon fill="white" stroke="#666666" points="1372,-321.5 1274,-321.5 1274,-302.5 1372,-302.5 1372,-321.5"/>
<text text-anchor="middle" x="1323" y="-309.5" font-family="Helvetica,sans-Serif" font-size="10.00">dolphin/gx/GXInit.h</text>
</a>
</g>
</g>
<!-- Node41&#45;&gt;Node42 -->
<g id="edge74" class="edge">
<title>Node41&#45;&gt;Node42</title>
<path fill="none" stroke="#63b8ff" d="M1239.88,-362.62C1255.35,-353.38 1279.83,-338.77 1298.22,-327.79"/>
<polygon fill="#63b8ff" stroke="#63b8ff" points="1299.88,-330.88 1306.68,-322.74 1296.3,-324.86 1299.88,-330.88"/>
</g>
<!-- Node42&#45;&gt;Node8 -->
<g id="edge75" class="edge">
<title>Node42&#45;&gt;Node8</title>
<path fill="none" stroke="#63b8ff" d="M1299.76,-302.12C1274.26,-292.37 1233.09,-276.62 1203.97,-265.49"/>
<polygon fill="#63b8ff" stroke="#63b8ff" points="1205.46,-262.31 1194.87,-262.01 1202.96,-268.85 1205.46,-262.31"/>
</g>
<!-- Node42&#45;&gt;Node9 -->
<g id="edge76" class="edge">
<title>Node42&#45;&gt;Node9</title>
<path fill="none" stroke="#63b8ff" d="M1273.71,-303.41C1206.47,-293.06 1085.75,-274.48 1010.25,-262.85"/>
<polygon fill="#63b8ff" stroke="#63b8ff" points="1010.91,-259.41 1000.49,-261.35 1009.84,-266.33 1010.91,-259.41"/>
</g>
<!-- Node42&#45;&gt;Node16 -->
<g id="edge77" class="edge">
<title>Node42&#45;&gt;Node16</title>
<path fill="none" stroke="#63b8ff" d="M1347,-302.12C1373.45,-292.32 1416.22,-276.48 1446.32,-265.34"/>
<polygon fill="#63b8ff" stroke="#63b8ff" points="1447.2,-268.75 1455.36,-261.99 1444.76,-262.18 1447.2,-268.75"/>
</g>
<!-- Node43&#45;&gt;Node8 -->
<g id="edge79" class="edge">
<title>Node43&#45;&gt;Node8</title>
<path fill="none" stroke="#63b8ff" d="M1481.3,-302.04C1471.59,-300.34 1461.48,-298.59 1452,-297 1378.33,-284.66 1293.67,-271.43 1236.49,-262.63"/>
<polygon fill="#63b8ff" stroke="#63b8ff" points="1237.34,-259.22 1226.93,-261.16 1236.28,-266.14 1237.34,-259.22"/>
</g>
<!-- Node43&#45;&gt;Node16 -->
<g id="edge80" class="edge">
<title>Node43&#45;&gt;Node16</title>
<path fill="none" stroke="#63b8ff" d="M1523.62,-302.37C1516.31,-293.81 1504.91,-280.47 1495.74,-269.74"/>
<polygon fill="#63b8ff" stroke="#63b8ff" points="1498.55,-267.65 1489.39,-262.32 1493.23,-272.19 1498.55,-267.65"/>
</g>
</g>
</svg>
