<?xml version="1.0" encoding="UTF-8" standalone="no"?>
<!DOCTYPE svg PUBLIC "-//W3C//DTD SVG 1.1//EN"
 "http://www.w3.org/Graphics/SVG/1.1/DTD/svg11.dtd">
<!-- Generated by graphviz version 7.0.5 (20221223.1930)
 -->
<!-- Title: libs/JSystem/JParticle/JPAFieldBlock.cpp Pages: 1 -->
<!--zoomable 258 -->
<svg id="main" version="1.1" xmlns="http://www.w3.org/2000/svg" xmlns:xlink="http://www.w3.org/1999/xlink" xml:space="preserve" onload="init(evt)">
<style type="text/css"><![CDATA[
.edge:hover path { stroke: red; }
.edge:hover polygon { stroke: red; fill: red; }
]]></style>
<script type="text/javascript"><![CDATA[
var edges = document.getElementsByTagName('g');
if (edges && edges.length) {
  for (var i=0;i<edges.length;i++) {
    if (edges[i].id.substr(0,4)=='edge') {
      edges[i].setAttribute('class','edge');
    }
  }
}
]]></script>
        <defs>
                <circle id="rim" cx="0" cy="0" r="7"/>
                <circle id="rim2" cx="0" cy="0" r="3.5"/>
                <g id="zoomPlus">
                        <use xlink:href="#rim" fill="#404040">
                                <set attributeName="fill" to="#808080" begin="zoomplus.mouseover" end="zoomplus.mouseout"/>
                        </use>
                        <path d="M-4,0h8M0,-4v8" fill="none" stroke="white" stroke-width="1.5" pointer-events="none"/>
                </g>
                <g id="zoomMin">
                        <use xlink:href="#rim" fill="#404040">
                                <set attributeName="fill" to="#808080" begin="zoomminus.mouseover" end="zoomminus.mouseout"/>
                        </use>
                        <path d="M-4,0h8" fill="none" stroke="white" stroke-width="1.5" pointer-events="none"/>
                </g>
                <g id="dirArrow">
                        <path fill="none" stroke="white" stroke-width="1.5" d="M0,-3.0v7 M-2.5,-0.5L0,-3.0L2.5,-0.5"/>
                </g>
               <g id="resetDef">
                       <use xlink:href="#rim2" fill="#404040">
                               <set attributeName="fill" to="#808080" begin="reset.mouseover" end="reset.mouseout"/>
                       </use>
               </g>
        </defs>

<script type="text/javascript">
var viewWidth = 6068;
var viewHeight = 258;
var sectionId = 'dynsection-0';
</script>
<script xlink:href="svgpan.js"/>
<svg id="graph" class="graph">
<g id="viewport">
<title>libs/JSystem/JParticle/JPAFieldBlock.cpp</title>
<!-- Node1 -->
<g id="node1" class="node">
<title>Node1</title>
<g id="a_node1"><a xlink:title=" ">
<polygon fill="#999999" stroke="#666666" points="3441.5,-250 3327.5,-250 3327.5,-220 3441.5,-220 3441.5,-250"/>
<text text-anchor="start" x="3335.5" y="-238" font-family="Helvetica,sans-Serif" font-size="10.00">libs/JSystem/JParticle</text>
<text text-anchor="middle" x="3384.5" y="-227" font-family="Helvetica,sans-Serif" font-size="10.00">/JPAFieldBlock.cpp</text>
</a>
</g>
</g>
<!-- Node2 -->
<g id="node2" class="node">
<title>Node2</title>
<g id="a_node2"><a xlink:href="JPAFieldBlock_8h.html" target="_top" xlink:title=" ">
<polygon fill="white" stroke="#666666" points="139,-167.5 0,-167.5 0,-137.5 139,-137.5 139,-167.5"/>
<text text-anchor="start" x="8" y="-155.5" font-family="Helvetica,sans-Serif" font-size="10.00">JSystem/JParticle/JPAField</text>
<text text-anchor="middle" x="69.5" y="-144.5" font-family="Helvetica,sans-Serif" font-size="10.00">Block.h</text>
</a>
</g>
</g>
<!-- Node1&#45;&gt;Node2 -->
<g id="edge1" class="edge">
<title>Node1&#45;&gt;Node2</title>
<path fill="none" stroke="#63b8ff" d="M3327.03,-233.69C2906.09,-231.32 310.65,-215.51 148.5,-184 135.55,-181.48 121.98,-176.98 109.8,-172.2"/>
<polygon fill="#63b8ff" stroke="#63b8ff" points="111.5,-169.11 100.92,-168.55 108.83,-175.59 111.5,-169.11"/>
</g>
<!-- Node5 -->
<g id="node5" class="node">
<title>Node5</title>
<g id="a_node5"><a xlink:href="dol2asm_8h.html" target="_top" xlink:title=" ">
<polygon fill="white" stroke="#666666" points="218,-162 157,-162 157,-143 218,-143 218,-162"/>
<text text-anchor="middle" x="187.5" y="-150" font-family="Helvetica,sans-Serif" font-size="10.00">dol2asm.h</text>
</a>
</g>
</g>
<!-- Node1&#45;&gt;Node5 -->
<g id="edge4" class="edge">
<title>Node1&#45;&gt;Node5</title>
<path fill="none" stroke="#63b8ff" d="M3327.33,-234.11C2912.76,-234.78 379.64,-236.73 227.5,-184 218.88,-181.01 210.63,-175.38 203.89,-169.76"/>
<polygon fill="#63b8ff" stroke="#63b8ff" points="206.61,-167.51 196.85,-163.38 201.9,-172.69 206.61,-167.51"/>
</g>
<!-- Node6 -->
<g id="node6" class="node">
<title>Node6</title>
<g id="a_node6"><a xlink:title=" ">
<polygon fill="#e0e0e0" stroke="#999999" points="424.5,-178.5 236.5,-178.5 236.5,-126.5 424.5,-126.5 424.5,-178.5"/>
<text text-anchor="start" x="244.5" y="-166.5" font-family="Helvetica,sans-Serif" font-size="10.00">asm/JSystem/JParticle</text>
<text text-anchor="start" x="244.5" y="-155.5" font-family="Helvetica,sans-Serif" font-size="10.00">/JPAFieldBlock/calcAffect</text>
<text text-anchor="start" x="244.5" y="-144.5" font-family="Helvetica,sans-Serif" font-size="10.00">__12JPAFieldBaseFP13JPAFieldBlock</text>
<text text-anchor="middle" x="330.5" y="-133.5" font-family="Helvetica,sans-Serif" font-size="10.00">P15JPABaseParticle.s</text>
</a>
</g>
</g>
<!-- Node1&#45;&gt;Node6 -->
<g id="edge5" class="edge">
<title>Node1&#45;&gt;Node6</title>
<path fill="none" stroke="#63b8ff" d="M3327.3,-233.95C2941.88,-233.51 730.18,-229.02 434.5,-184 429.84,-183.29 425.1,-182.43 420.34,-181.45"/>
<polygon fill="#63b8ff" stroke="#63b8ff" points="421.21,-178.06 410.69,-179.3 419.69,-184.89 421.21,-178.06"/>
</g>
<!-- Node7 -->
<g id="node7" class="node">
<title>Node7</title>
<g id="a_node7"><a xlink:title=" ">
<polygon fill="#e0e0e0" stroke="#999999" points="648,-173 443,-173 443,-132 648,-132 648,-173"/>
<text text-anchor="start" x="451" y="-161" font-family="Helvetica,sans-Serif" font-size="10.00">asm/JSystem/JParticle</text>
<text text-anchor="start" x="451" y="-150" font-family="Helvetica,sans-Serif" font-size="10.00">/JPAFieldBlock/calcFadeAffect</text>
<text text-anchor="middle" x="545.5" y="-139" font-family="Helvetica,sans-Serif" font-size="10.00">__12JPAFieldBaseCFP13JPAFieldBlockf.s</text>
</a>
</g>
</g>
<!-- Node1&#45;&gt;Node7 -->
<g id="edge6" class="edge">
<title>Node1&#45;&gt;Node7</title>
<path fill="none" stroke="#63b8ff" d="M3327.26,-233.8C2959.02,-232.41 930.1,-223 657.5,-184 644.92,-182.2 631.75,-179.44 619.04,-176.3"/>
<polygon fill="#63b8ff" stroke="#63b8ff" points="620.03,-172.94 609.48,-173.83 618.28,-179.72 620.03,-172.94"/>
</g>
<!-- Node8 -->
<g id="node8" class="node">
<title>Node8</title>
<g id="a_node8"><a xlink:title=" ">
<polygon fill="#e0e0e0" stroke="#999999" points="847,-178.5 666,-178.5 666,-126.5 847,-126.5 847,-178.5"/>
<text text-anchor="start" x="674" y="-166.5" font-family="Helvetica,sans-Serif" font-size="10.00">asm/JSystem/JParticle</text>
<text text-anchor="start" x="674" y="-155.5" font-family="Helvetica,sans-Serif" font-size="10.00">/JPAFieldBlock/prepare</text>
<text text-anchor="start" x="674" y="-144.5" font-family="Helvetica,sans-Serif" font-size="10.00">__15JPAFieldGravityFP18JPAEmitter</text>
<text text-anchor="middle" x="756.5" y="-133.5" font-family="Helvetica,sans-Serif" font-size="10.00">WorkDataP13JPAFieldBlock.s</text>
</a>
</g>
</g>
<!-- Node1&#45;&gt;Node8 -->
<g id="edge7" class="edge">
<title>Node1&#45;&gt;Node8</title>
<path fill="none" stroke="#63b8ff" d="M3327.22,-233.81C2974.82,-232.55 1107.6,-223.98 856.5,-184 852.14,-183.31 847.7,-182.47 843.24,-181.52"/>
<polygon fill="#63b8ff" stroke="#63b8ff" points="844.16,-178.14 833.63,-179.3 842.58,-184.96 844.16,-178.14"/>
</g>
<!-- Node9 -->
<g id="node9" class="node">
<title>Node9</title>
<g id="a_node9"><a xlink:title=" ">
<polygon fill="#e0e0e0" stroke="#999999" points="1105.5,-178.5 865.5,-178.5 865.5,-126.5 1105.5,-126.5 1105.5,-178.5"/>
<text text-anchor="start" x="873.5" y="-166.5" font-family="Helvetica,sans-Serif" font-size="10.00">asm/JSystem/JParticle</text>
<text text-anchor="start" x="873.5" y="-155.5" font-family="Helvetica,sans-Serif" font-size="10.00">/JPAFieldBlock/calc_</text>
<text text-anchor="start" x="873.5" y="-144.5" font-family="Helvetica,sans-Serif" font-size="10.00">_15JPAFieldGravityFP18JPAEmitter</text>
<text text-anchor="middle" x="985.5" y="-133.5" font-family="Helvetica,sans-Serif" font-size="10.00">WorkDataP13JPAFieldBlockP15JPABaseParticle.s</text>
</a>
</g>
</g>
<!-- Node1&#45;&gt;Node9 -->
<g id="edge8" class="edge">
<title>Node1&#45;&gt;Node9</title>
<path fill="none" stroke="#63b8ff" d="M3327.08,-233.45C2996.26,-230.19 1340.5,-212.56 1115.5,-184 1109.02,-183.18 1102.39,-182.17 1095.72,-181.02"/>
<polygon fill="#63b8ff" stroke="#63b8ff" points="1096.44,-177.59 1085.97,-179.24 1095.18,-184.48 1096.44,-177.59"/>
</g>
<!-- Node10 -->
<g id="node10" class="node">
<title>Node10</title>
<g id="a_node10"><a xlink:title=" ">
<polygon fill="#e0e0e0" stroke="#999999" points="1309,-178.5 1124,-178.5 1124,-126.5 1309,-126.5 1309,-178.5"/>
<text text-anchor="start" x="1132" y="-166.5" font-family="Helvetica,sans-Serif" font-size="10.00">asm/JSystem/JParticle</text>
<text text-anchor="start" x="1132" y="-155.5" font-family="Helvetica,sans-Serif" font-size="10.00">/JPAFieldBlock/prepare</text>
<text text-anchor="start" x="1132" y="-144.5" font-family="Helvetica,sans-Serif" font-size="10.00">__11JPAFieldAirFP18JPAEmitterWork</text>
<text text-anchor="middle" x="1216.5" y="-133.5" font-family="Helvetica,sans-Serif" font-size="10.00">DataP13JPAFieldBlock.s</text>
</a>
</g>
</g>
<!-- Node1&#45;&gt;Node10 -->
<g id="edge9" class="edge">
<title>Node1&#45;&gt;Node10</title>
<path fill="none" stroke="#63b8ff" d="M3327.17,-233.52C3014.48,-230.8 1521.37,-216.19 1318.5,-184 1314.11,-183.3 1309.64,-182.47 1305.15,-181.53"/>
<polygon fill="#63b8ff" stroke="#63b8ff" points="1305.97,-178.12 1295.45,-179.32 1304.42,-184.95 1305.97,-178.12"/>
</g>
<!-- Node11 -->
<g id="node11" class="node">
<title>Node11</title>
<g id="a_node11"><a xlink:title=" ">
<polygon fill="#e0e0e0" stroke="#999999" points="1527.5,-184 1327.5,-184 1327.5,-121 1527.5,-121 1527.5,-184"/>
<text text-anchor="start" x="1335.5" y="-172" font-family="Helvetica,sans-Serif" font-size="10.00">asm/JSystem/JParticle</text>
<text text-anchor="start" x="1335.5" y="-161" font-family="Helvetica,sans-Serif" font-size="10.00">/JPAFieldBlock/calc_</text>
<text text-anchor="start" x="1335.5" y="-150" font-family="Helvetica,sans-Serif" font-size="10.00">_11JPAFieldAirFP18JPAEmitter</text>
<text text-anchor="start" x="1335.5" y="-139" font-family="Helvetica,sans-Serif" font-size="10.00">WorkDataP13JPAFieldBlockP15JPABase</text>
<text text-anchor="middle" x="1427.5" y="-128" font-family="Helvetica,sans-Serif" font-size="10.00">Particle.s</text>
</a>
</g>
</g>
<!-- Node1&#45;&gt;Node11 -->
<g id="edge10" class="edge">
<title>Node1&#45;&gt;Node11</title>
<path fill="none" stroke="#63b8ff" d="M3327.29,-234.34C3058.37,-235.66 1917.47,-238.01 1539.21,-184.23"/>
<polygon fill="#63b8ff" stroke="#63b8ff" points="1539.87,-180.79 1529.47,-182.8 1538.85,-187.72 1539.87,-180.79"/>
</g>
<!-- Node12 -->
<g id="node12" class="node">
<title>Node12</title>
<g id="a_node12"><a xlink:title=" ">
<polygon fill="#e0e0e0" stroke="#999999" points="1727.5,-178.5 1545.5,-178.5 1545.5,-126.5 1727.5,-126.5 1727.5,-178.5"/>
<text text-anchor="start" x="1553.5" y="-166.5" font-family="Helvetica,sans-Serif" font-size="10.00">asm/JSystem/JParticle</text>
<text text-anchor="start" x="1553.5" y="-155.5" font-family="Helvetica,sans-Serif" font-size="10.00">/JPAFieldBlock/prepare</text>
<text text-anchor="start" x="1553.5" y="-144.5" font-family="Helvetica,sans-Serif" font-size="10.00">__14JPAFieldMagnetFP18JPAEmitter</text>
<text text-anchor="middle" x="1636.5" y="-133.5" font-family="Helvetica,sans-Serif" font-size="10.00">WorkDataP13JPAFieldBlock.s</text>
</a>
</g>
</g>
<!-- Node1&#45;&gt;Node12 -->
<g id="edge11" class="edge">
<title>Node1&#45;&gt;Node12</title>
<path fill="none" stroke="#63b8ff" d="M3327.25,-234.3C3073.9,-235.3 2052.3,-236 1736.5,-184 1732.19,-183.29 1727.81,-182.44 1723.4,-181.49"/>
<polygon fill="#63b8ff" stroke="#63b8ff" points="1724.45,-178.14 1713.91,-179.28 1722.86,-184.96 1724.45,-178.14"/>
</g>
<!-- Node13 -->
<g id="node13" class="node">
<title>Node13</title>
<g id="a_node13"><a xlink:title=" ">
<polygon fill="#e0e0e0" stroke="#999999" points="1985.5,-178.5 1745.5,-178.5 1745.5,-126.5 1985.5,-126.5 1985.5,-178.5"/>
<text text-anchor="start" x="1753.5" y="-166.5" font-family="Helvetica,sans-Serif" font-size="10.00">asm/JSystem/JParticle</text>
<text text-anchor="start" x="1753.5" y="-155.5" font-family="Helvetica,sans-Serif" font-size="10.00">/JPAFieldBlock/calc_</text>
<text text-anchor="start" x="1753.5" y="-144.5" font-family="Helvetica,sans-Serif" font-size="10.00">_14JPAFieldMagnetFP18JPAEmitter</text>
<text text-anchor="middle" x="1865.5" y="-133.5" font-family="Helvetica,sans-Serif" font-size="10.00">WorkDataP13JPAFieldBlockP15JPABaseParticle.s</text>
</a>
</g>
</g>
<!-- Node1&#45;&gt;Node13 -->
<g id="edge12" class="edge">
<title>Node1&#45;&gt;Node13</title>
<path fill="none" stroke="#63b8ff" d="M3327.33,-233.44C3099.85,-230.98 2258.49,-219.6 1994.5,-184 1988.22,-183.15 1981.79,-182.13 1975.33,-180.99"/>
<polygon fill="#63b8ff" stroke="#63b8ff" points="1976.4,-177.63 1965.92,-179.24 1975.11,-184.51 1976.4,-177.63"/>
</g>
<!-- Node14 -->
<g id="node14" class="node">
<title>Node14</title>
<g id="a_node14"><a xlink:title=" ">
<polygon fill="#e0e0e0" stroke="#999999" points="2187.5,-178.5 2003.5,-178.5 2003.5,-126.5 2187.5,-126.5 2187.5,-178.5"/>
<text text-anchor="start" x="2011.5" y="-166.5" font-family="Helvetica,sans-Serif" font-size="10.00">asm/JSystem/JParticle</text>
<text text-anchor="start" x="2011.5" y="-155.5" font-family="Helvetica,sans-Serif" font-size="10.00">/JPAFieldBlock/prepare</text>
<text text-anchor="start" x="2011.5" y="-144.5" font-family="Helvetica,sans-Serif" font-size="10.00">__14JPAFieldNewtonFP18JPAEmitter</text>
<text text-anchor="middle" x="2095.5" y="-133.5" font-family="Helvetica,sans-Serif" font-size="10.00">WorkDataP13JPAFieldBlock.s</text>
</a>
</g>
</g>
<!-- Node1&#45;&gt;Node14 -->
<g id="edge13" class="edge">
<title>Node1&#45;&gt;Node14</title>
<path fill="none" stroke="#63b8ff" d="M3327.35,-233.49C3121.43,-231.37 2417.97,-221.49 2196.5,-184 2192.37,-183.3 2188.18,-182.49 2183.96,-181.58"/>
<polygon fill="#63b8ff" stroke="#63b8ff" points="2184.79,-178.18 2174.25,-179.32 2183.2,-184.99 2184.79,-178.18"/>
</g>
<!-- Node15 -->
<g id="node15" class="node">
<title>Node15</title>
<g id="a_node15"><a xlink:title=" ">
<polygon fill="#e0e0e0" stroke="#999999" points="2445.5,-178.5 2205.5,-178.5 2205.5,-126.5 2445.5,-126.5 2445.5,-178.5"/>
<text text-anchor="start" x="2213.5" y="-166.5" font-family="Helvetica,sans-Serif" font-size="10.00">asm/JSystem/JParticle</text>
<text text-anchor="start" x="2213.5" y="-155.5" font-family="Helvetica,sans-Serif" font-size="10.00">/JPAFieldBlock/calc_</text>
<text text-anchor="start" x="2213.5" y="-144.5" font-family="Helvetica,sans-Serif" font-size="10.00">_14JPAFieldNewtonFP18JPAEmitter</text>
<text text-anchor="middle" x="2325.5" y="-133.5" font-family="Helvetica,sans-Serif" font-size="10.00">WorkDataP13JPAFieldBlockP15JPABaseParticle.s</text>
</a>
</g>
</g>
<!-- Node1&#45;&gt;Node15 -->
<g id="edge14" class="edge">
<title>Node1&#45;&gt;Node15</title>
<path fill="none" stroke="#63b8ff" d="M3327,-234.46C3180.61,-234.87 2782.19,-231.16 2454.5,-184 2448.59,-183.15 2442.56,-182.16 2436.48,-181.06"/>
<polygon fill="#63b8ff" stroke="#63b8ff" points="2437.48,-177.69 2427.01,-179.27 2436.18,-184.57 2437.48,-177.69"/>
</g>
<!-- Node16 -->
<g id="node16" class="node">
<title>Node16</title>
<g id="a_node16"><a xlink:title=" ">
<polygon fill="#e0e0e0" stroke="#999999" points="2641.5,-178.5 2463.5,-178.5 2463.5,-126.5 2641.5,-126.5 2641.5,-178.5"/>
<text text-anchor="start" x="2471.5" y="-166.5" font-family="Helvetica,sans-Serif" font-size="10.00">asm/JSystem/JParticle</text>
<text text-anchor="start" x="2471.5" y="-155.5" font-family="Helvetica,sans-Serif" font-size="10.00">/JPAFieldBlock/prepare</text>
<text text-anchor="start" x="2471.5" y="-144.5" font-family="Helvetica,sans-Serif" font-size="10.00">__14JPAFieldVortexFP18JPAEmitter</text>
<text text-anchor="middle" x="2552.5" y="-133.5" font-family="Helvetica,sans-Serif" font-size="10.00">WorkDataP13JPAFieldBlock.s</text>
</a>
</g>
</g>
<!-- Node1&#45;&gt;Node16 -->
<g id="edge15" class="edge">
<title>Node1&#45;&gt;Node16</title>
<path fill="none" stroke="#63b8ff" d="M3327.29,-234.62C3202.99,-234.99 2899.4,-230.55 2650.5,-184 2646.87,-183.32 2643.18,-182.55 2639.47,-181.71"/>
<polygon fill="#63b8ff" stroke="#63b8ff" points="2640.31,-178.31 2629.77,-179.35 2638.66,-185.12 2640.31,-178.31"/>
</g>
<!-- Node17 -->
<g id="node17" class="node">
<title>Node17</title>
<g id="a_node17"><a xlink:title=" ">
<polygon fill="#e0e0e0" stroke="#999999" points="2899.5,-178.5 2659.5,-178.5 2659.5,-126.5 2899.5,-126.5 2899.5,-178.5"/>
<text text-anchor="start" x="2667.5" y="-166.5" font-family="Helvetica,sans-Serif" font-size="10.00">asm/JSystem/JParticle</text>
<text text-anchor="start" x="2667.5" y="-155.5" font-family="Helvetica,sans-Serif" font-size="10.00">/JPAFieldBlock/calc_</text>
<text text-anchor="start" x="2667.5" y="-144.5" font-family="Helvetica,sans-Serif" font-size="10.00">_14JPAFieldVortexFP18JPAEmitter</text>
<text text-anchor="middle" x="2779.5" y="-133.5" font-family="Helvetica,sans-Serif" font-size="10.00">WorkDataP13JPAFieldBlockP15JPABaseParticle.s</text>
</a>
</g>
</g>
<!-- Node1&#45;&gt;Node17 -->
<g id="edge16" class="edge">
<title>Node1&#45;&gt;Node17</title>
<path fill="none" stroke="#63b8ff" d="M3327.15,-230.3C3237.55,-223.99 3059.12,-209.32 2909.5,-184 2904.34,-183.13 2899.08,-182.17 2893.78,-181.15"/>
<polygon fill="#63b8ff" stroke="#63b8ff" points="2894.84,-177.79 2884.35,-179.28 2893.47,-184.66 2894.84,-177.79"/>
</g>
<!-- Node18 -->
<g id="node18" class="node">
<title>Node18</title>
<g id="a_node18"><a xlink:title=" ">
<polygon fill="#e0e0e0" stroke="#999999" points="3117,-178.5 2918,-178.5 2918,-126.5 3117,-126.5 3117,-178.5"/>
<text text-anchor="start" x="2926" y="-166.5" font-family="Helvetica,sans-Serif" font-size="10.00">asm/JSystem/JParticle</text>
<text text-anchor="start" x="2926" y="-155.5" font-family="Helvetica,sans-Serif" font-size="10.00">/JPAFieldBlock/prepare</text>
<text text-anchor="start" x="2926" y="-144.5" font-family="Helvetica,sans-Serif" font-size="10.00">__18JPAFieldConvectionFP18JPAEmitter</text>
<text text-anchor="middle" x="3017.5" y="-133.5" font-family="Helvetica,sans-Serif" font-size="10.00">WorkDataP13JPAFieldBlock.s</text>
</a>
</g>
</g>
<!-- Node1&#45;&gt;Node18 -->
<g id="edge17" class="edge">
<title>Node1&#45;&gt;Node18</title>
<path fill="none" stroke="#63b8ff" d="M3327.09,-224.26C3274.61,-215.02 3194.99,-200.19 3126.5,-184 3123.51,-183.29 3120.48,-182.56 3117.42,-181.8"/>
<polygon fill="#63b8ff" stroke="#63b8ff" points="3118.3,-178.41 3107.74,-179.36 3116.58,-185.2 3118.3,-178.41"/>
</g>
<!-- Node19 -->
<g id="node19" class="node">
<title>Node19</title>
<g id="a_node19"><a xlink:title=" ">
<polygon fill="#e0e0e0" stroke="#999999" points="3375.5,-178.5 3135.5,-178.5 3135.5,-126.5 3375.5,-126.5 3375.5,-178.5"/>
<text text-anchor="start" x="3143.5" y="-166.5" font-family="Helvetica,sans-Serif" font-size="10.00">asm/JSystem/JParticle</text>
<text text-anchor="start" x="3143.5" y="-155.5" font-family="Helvetica,sans-Serif" font-size="10.00">/JPAFieldBlock/calc_</text>
<text text-anchor="start" x="3143.5" y="-144.5" font-family="Helvetica,sans-Serif" font-size="10.00">_18JPAFieldConvectionFP18JPAEmitter</text>
<text text-anchor="middle" x="3255.5" y="-133.5" font-family="Helvetica,sans-Serif" font-size="10.00">WorkDataP13JPAFieldBlockP15JPABaseParticle.s</text>
</a>
</g>
</g>
<!-- Node1&#45;&gt;Node19 -->
<g id="edge18" class="edge">
<title>Node1&#45;&gt;Node19</title>
<path fill="none" stroke="#63b8ff" d="M3361.44,-219.61C3346,-209.97 3325.07,-196.91 3305.89,-184.95"/>
<polygon fill="#63b8ff" stroke="#63b8ff" points="3307.98,-182.12 3297.64,-179.8 3304.27,-188.06 3307.98,-182.12"/>
</g>
<!-- Node20 -->
<g id="node20" class="node">
<title>Node20</title>
<g id="a_node20"><a xlink:title=" ">
<polygon fill="#e0e0e0" stroke="#999999" points="3633.5,-178.5 3393.5,-178.5 3393.5,-126.5 3633.5,-126.5 3633.5,-178.5"/>
<text text-anchor="start" x="3401.5" y="-166.5" font-family="Helvetica,sans-Serif" font-size="10.00">asm/JSystem/JParticle</text>
<text text-anchor="start" x="3401.5" y="-155.5" font-family="Helvetica,sans-Serif" font-size="10.00">/JPAFieldBlock/calc_</text>
<text text-anchor="start" x="3401.5" y="-144.5" font-family="Helvetica,sans-Serif" font-size="10.00">_14JPAFieldRandomFP18JPAEmitter</text>
<text text-anchor="middle" x="3513.5" y="-133.5" font-family="Helvetica,sans-Serif" font-size="10.00">WorkDataP13JPAFieldBlockP15JPABaseParticle.s</text>
</a>
</g>
</g>
<!-- Node1&#45;&gt;Node20 -->
<g id="edge19" class="edge">
<title>Node1&#45;&gt;Node20</title>
<path fill="none" stroke="#63b8ff" d="M3407.56,-219.61C3423,-209.97 3443.93,-196.91 3463.11,-184.95"/>
<polygon fill="#63b8ff" stroke="#63b8ff" points="3464.73,-188.06 3471.36,-179.8 3461.02,-182.12 3464.73,-188.06"/>
</g>
<!-- Node21 -->
<g id="node21" class="node">
<title>Node21</title>
<g id="a_node21"><a xlink:title=" ">
<polygon fill="#e0e0e0" stroke="#999999" points="3851.5,-184 3651.5,-184 3651.5,-121 3851.5,-121 3851.5,-184"/>
<text text-anchor="start" x="3659.5" y="-172" font-family="Helvetica,sans-Serif" font-size="10.00">asm/JSystem/JParticle</text>
<text text-anchor="start" x="3659.5" y="-161" font-family="Helvetica,sans-Serif" font-size="10.00">/JPAFieldBlock/calc_</text>
<text text-anchor="start" x="3659.5" y="-150" font-family="Helvetica,sans-Serif" font-size="10.00">_12JPAFieldDragFP18JPAEmitter</text>
<text text-anchor="start" x="3659.5" y="-139" font-family="Helvetica,sans-Serif" font-size="10.00">WorkDataP13JPAFieldBlockP15JPABase</text>
<text text-anchor="middle" x="3751.5" y="-128" font-family="Helvetica,sans-Serif" font-size="10.00">Particle.s</text>
</a>
</g>
</g>
<!-- Node1&#45;&gt;Node21 -->
<g id="edge20" class="edge">
<title>Node1&#45;&gt;Node21</title>
<path fill="none" stroke="#63b8ff" d="M3441.91,-224.26C3491.93,-215.46 3566.61,-201.57 3640.34,-184.44"/>
<polygon fill="#63b8ff" stroke="#63b8ff" points="3640.8,-187.93 3649.73,-182.24 3639.2,-181.12 3640.8,-187.93"/>
</g>
<!-- Node22 -->
<g id="node22" class="node">
<title>Node22</title>
<g id="a_node22"><a xlink:title=" ">
<polygon fill="#e0e0e0" stroke="#999999" points="4039.5,-178.5 3869.5,-178.5 3869.5,-126.5 4039.5,-126.5 4039.5,-178.5"/>
<text text-anchor="start" x="3877.5" y="-166.5" font-family="Helvetica,sans-Serif" font-size="10.00">asm/JSystem/JParticle</text>
<text text-anchor="start" x="3877.5" y="-155.5" font-family="Helvetica,sans-Serif" font-size="10.00">/JPAFieldBlock/prepare</text>
<text text-anchor="start" x="3877.5" y="-144.5" font-family="Helvetica,sans-Serif" font-size="10.00">__12JPAFieldSpinFP18JPAEmitter</text>
<text text-anchor="middle" x="3954.5" y="-133.5" font-family="Helvetica,sans-Serif" font-size="10.00">WorkDataP13JPAFieldBlock.s</text>
</a>
</g>
</g>
<!-- Node1&#45;&gt;Node22 -->
<g id="edge21" class="edge">
<title>Node1&#45;&gt;Node22</title>
<path fill="none" stroke="#63b8ff" d="M3441.89,-231.84C3531.94,-227.59 3711.55,-215.62 3860.5,-184 3863.65,-183.33 3866.84,-182.6 3870.05,-181.81"/>
<polygon fill="#63b8ff" stroke="#63b8ff" points="3870.75,-185.25 3879.54,-179.34 3868.98,-178.47 3870.75,-185.25"/>
</g>
<!-- Node23 -->
<g id="node23" class="node">
<title>Node23</title>
<g id="a_node23"><a xlink:title=" ">
<polygon fill="#e0e0e0" stroke="#999999" points="4257.5,-184 4057.5,-184 4057.5,-121 4257.5,-121 4257.5,-184"/>
<text text-anchor="start" x="4065.5" y="-172" font-family="Helvetica,sans-Serif" font-size="10.00">asm/JSystem/JParticle</text>
<text text-anchor="start" x="4065.5" y="-161" font-family="Helvetica,sans-Serif" font-size="10.00">/JPAFieldBlock/calc_</text>
<text text-anchor="start" x="4065.5" y="-150" font-family="Helvetica,sans-Serif" font-size="10.00">_12JPAFieldSpinFP18JPAEmitter</text>
<text text-anchor="start" x="4065.5" y="-139" font-family="Helvetica,sans-Serif" font-size="10.00">WorkDataP13JPAFieldBlockP15JPABase</text>
<text text-anchor="middle" x="4157.5" y="-128" font-family="Helvetica,sans-Serif" font-size="10.00">Particle.s</text>
</a>
</g>
</g>
<!-- Node1&#45;&gt;Node23 -->
<g id="edge22" class="edge">
<title>Node1&#45;&gt;Node23</title>
<path fill="none" stroke="#63b8ff" d="M3441.82,-233.48C3555.57,-231.64 3817.85,-223.3 4045.83,-184.34"/>
<polygon fill="#63b8ff" stroke="#63b8ff" points="4046.26,-187.82 4055.51,-182.66 4045.06,-180.92 4046.26,-187.82"/>
</g>
<!-- Node24 -->
<g id="node24" class="node">
<title>Node24</title>
<g id="a_node24"><a xlink:title=" ">
<polygon fill="#e0e0e0" stroke="#999999" points="4467,-173 4276,-173 4276,-132 4467,-132 4467,-173"/>
<text text-anchor="start" x="4284" y="-161" font-family="Helvetica,sans-Serif" font-size="10.00">asm/JSystem/JParticle</text>
<text text-anchor="start" x="4284" y="-150" font-family="Helvetica,sans-Serif" font-size="10.00">/JPAFieldBlock/__ct_</text>
<text text-anchor="middle" x="4371.5" y="-139" font-family="Helvetica,sans-Serif" font-size="10.00">_13JPAFieldBlockFPCUcP7JKRHeap.s</text>
</a>
</g>
</g>
<!-- Node1&#45;&gt;Node24 -->
<g id="edge23" class="edge">
<title>Node1&#45;&gt;Node24</title>
<path fill="none" stroke="#63b8ff" d="M3441.89,-232.44C3611.26,-227.57 4107.02,-211.32 4266.5,-184 4277.7,-182.08 4289.41,-179.39 4300.77,-176.4"/>
<polygon fill="#63b8ff" stroke="#63b8ff" points="4301.35,-179.87 4310.06,-173.85 4299.49,-173.12 4301.35,-179.87"/>
</g>
<!-- Node25 -->
<g id="node25" class="node">
<title>Node25</title>
<g id="a_node25"><a xlink:title=" ">
<polygon fill="#e0e0e0" stroke="#999999" points="4649.5,-173 4485.5,-173 4485.5,-132 4649.5,-132 4649.5,-173"/>
<text text-anchor="start" x="4493.5" y="-161" font-family="Helvetica,sans-Serif" font-size="10.00">asm/JSystem/JParticle</text>
<text text-anchor="start" x="4493.5" y="-150" font-family="Helvetica,sans-Serif" font-size="10.00">/JPAFieldBlock/init_</text>
<text text-anchor="middle" x="4567.5" y="-139" font-family="Helvetica,sans-Serif" font-size="10.00">_13JPAFieldBlockFP7JKRHeap.s</text>
</a>
</g>
</g>
<!-- Node1&#45;&gt;Node25 -->
<g id="edge24" class="edge">
<title>Node1&#45;&gt;Node25</title>
<path fill="none" stroke="#63b8ff" d="M3441.73,-233.47C3636.87,-231.34 4275.13,-221.6 4476.5,-184 4486.02,-182.22 4495.91,-179.68 4505.51,-176.81"/>
<polygon fill="#63b8ff" stroke="#63b8ff" points="4506.25,-180.25 4514.74,-173.91 4504.15,-173.57 4506.25,-180.25"/>
</g>
<!-- Node26 -->
<g id="node26" class="node">
<title>Node26</title>
<g id="a_node26"><a xlink:title=" ">
<polygon fill="#e0e0e0" stroke="#999999" points="4785.5,-173 4667.5,-173 4667.5,-132 4785.5,-132 4785.5,-173"/>
<text text-anchor="start" x="4675.5" y="-161" font-family="Helvetica,sans-Serif" font-size="10.00">asm/JSystem/JParticle</text>
<text text-anchor="start" x="4675.5" y="-150" font-family="Helvetica,sans-Serif" font-size="10.00">/JPAFieldBlock/__dt_</text>
<text text-anchor="middle" x="4726.5" y="-139" font-family="Helvetica,sans-Serif" font-size="10.00">_12JPAFieldBaseFv.s</text>
</a>
</g>
</g>
<!-- Node1&#45;&gt;Node26 -->
<g id="edge25" class="edge">
<title>Node1&#45;&gt;Node26</title>
<path fill="none" stroke="#63b8ff" d="M3441.96,-233.03C3674.54,-228.94 4539.3,-211.96 4658.5,-184 4665.2,-182.43 4672.04,-180.2 4678.69,-177.64"/>
<polygon fill="#63b8ff" stroke="#63b8ff" points="4679.61,-181.05 4687.52,-173.99 4676.94,-174.58 4679.61,-181.05"/>
</g>
<!-- Node27 -->
<g id="node27" class="node">
<title>Node27</title>
<g id="a_node27"><a xlink:title=" ">
<polygon fill="#e0e0e0" stroke="#999999" points="4921.5,-173 4803.5,-173 4803.5,-132 4921.5,-132 4921.5,-173"/>
<text text-anchor="start" x="4811.5" y="-161" font-family="Helvetica,sans-Serif" font-size="10.00">asm/JSystem/JParticle</text>
<text text-anchor="start" x="4811.5" y="-150" font-family="Helvetica,sans-Serif" font-size="10.00">/JPAFieldBlock/__dt_</text>
<text text-anchor="middle" x="4862.5" y="-139" font-family="Helvetica,sans-Serif" font-size="10.00">_12JPAFieldSpinFv.s</text>
</a>
</g>
</g>
<!-- Node1&#45;&gt;Node27 -->
<g id="edge26" class="edge">
<title>Node1&#45;&gt;Node27</title>
<path fill="none" stroke="#63b8ff" d="M3441.7,-233.27C3689.21,-229.93 4661.42,-214.95 4794.5,-184 4801.2,-182.44 4808.05,-180.22 4814.7,-177.67"/>
<polygon fill="#63b8ff" stroke="#63b8ff" points="4815.62,-181.07 4823.53,-174.02 4812.95,-174.6 4815.62,-181.07"/>
</g>
<!-- Node28 -->
<g id="node28" class="node">
<title>Node28</title>
<g id="a_node28"><a xlink:title=" ">
<polygon fill="#e0e0e0" stroke="#999999" points="5057.5,-173 4939.5,-173 4939.5,-132 5057.5,-132 5057.5,-173"/>
<text text-anchor="start" x="4947.5" y="-161" font-family="Helvetica,sans-Serif" font-size="10.00">asm/JSystem/JParticle</text>
<text text-anchor="start" x="4947.5" y="-150" font-family="Helvetica,sans-Serif" font-size="10.00">/JPAFieldBlock/__dt_</text>
<text text-anchor="middle" x="4998.5" y="-139" font-family="Helvetica,sans-Serif" font-size="10.00">_12JPAFieldDragFv.s</text>
</a>
</g>
</g>
<!-- Node1&#45;&gt;Node28 -->
<g id="edge27" class="edge">
<title>Node1&#45;&gt;Node28</title>
<path fill="none" stroke="#63b8ff" d="M3441.85,-233.46C3704.21,-230.81 4783.56,-217.94 4930.5,-184 4937.2,-182.45 4944.05,-180.23 4950.7,-177.69"/>
<polygon fill="#63b8ff" stroke="#63b8ff" points="4951.62,-181.09 4959.53,-174.04 4948.95,-174.62 4951.62,-181.09"/>
</g>
<!-- Node29 -->
<g id="node29" class="node">
<title>Node29</title>
<g id="a_node29"><a xlink:title=" ">
<polygon fill="#e0e0e0" stroke="#999999" points="5203,-173 5076,-173 5076,-132 5203,-132 5203,-173"/>
<text text-anchor="start" x="5084" y="-161" font-family="Helvetica,sans-Serif" font-size="10.00">asm/JSystem/JParticle</text>
<text text-anchor="start" x="5084" y="-150" font-family="Helvetica,sans-Serif" font-size="10.00">/JPAFieldBlock/__dt_</text>
<text text-anchor="middle" x="5139.5" y="-139" font-family="Helvetica,sans-Serif" font-size="10.00">_14JPAFieldRandomFv.s</text>
</a>
</g>
</g>
<!-- Node1&#45;&gt;Node29 -->
<g id="edge28" class="edge">
<title>Node1&#45;&gt;Node29</title>
<path fill="none" stroke="#63b8ff" d="M3441.74,-233.54C3717.81,-231.14 4905.16,-218.85 5066.5,-184 5073.72,-182.44 5081.13,-180.19 5088.33,-177.61"/>
<polygon fill="#63b8ff" stroke="#63b8ff" points="5089.56,-180.88 5097.63,-174.02 5087.04,-174.35 5089.56,-180.88"/>
</g>
<!-- Node30 -->
<g id="node30" class="node">
<title>Node30</title>
<g id="a_node30"><a xlink:title=" ">
<polygon fill="#e0e0e0" stroke="#999999" points="5361.5,-173 5221.5,-173 5221.5,-132 5361.5,-132 5361.5,-173"/>
<text text-anchor="start" x="5229.5" y="-161" font-family="Helvetica,sans-Serif" font-size="10.00">asm/JSystem/JParticle</text>
<text text-anchor="start" x="5229.5" y="-150" font-family="Helvetica,sans-Serif" font-size="10.00">/JPAFieldBlock/__dt_</text>
<text text-anchor="middle" x="5291.5" y="-139" font-family="Helvetica,sans-Serif" font-size="10.00">_18JPAFieldConvectionFv.s</text>
</a>
</g>
</g>
<!-- Node1&#45;&gt;Node30 -->
<g id="edge29" class="edge">
<title>Node1&#45;&gt;Node30</title>
<path fill="none" stroke="#63b8ff" d="M3441.8,-233.59C3732.31,-231.37 5035.65,-219.46 5212.5,-184 5220.53,-182.39 5228.8,-180.04 5236.83,-177.34"/>
<polygon fill="#63b8ff" stroke="#63b8ff" points="5237.93,-180.67 5246.17,-174 5235.57,-174.08 5237.93,-180.67"/>
</g>
<!-- Node31 -->
<g id="node31" class="node">
<title>Node31</title>
<g id="a_node31"><a xlink:title=" ">
<polygon fill="#e0e0e0" stroke="#999999" points="5499,-173 5380,-173 5380,-132 5499,-132 5499,-173"/>
<text text-anchor="start" x="5388" y="-161" font-family="Helvetica,sans-Serif" font-size="10.00">asm/JSystem/JParticle</text>
<text text-anchor="start" x="5388" y="-150" font-family="Helvetica,sans-Serif" font-size="10.00">/JPAFieldBlock/__dt_</text>
<text text-anchor="middle" x="5439.5" y="-139" font-family="Helvetica,sans-Serif" font-size="10.00">_14JPAFieldVortexFv.s</text>
</a>
</g>
</g>
<!-- Node1&#45;&gt;Node31 -->
<g id="edge30" class="edge">
<title>Node1&#45;&gt;Node31</title>
<path fill="none" stroke="#63b8ff" d="M3441.92,-233.89C3747.74,-233.1 5178.31,-227.12 5370.5,-184 5377.38,-182.46 5384.41,-180.22 5391.23,-177.64"/>
<polygon fill="#63b8ff" stroke="#63b8ff" points="5392.39,-180.95 5400.32,-173.93 5389.74,-174.46 5392.39,-180.95"/>
</g>
<!-- Node32 -->
<g id="node32" class="node">
<title>Node32</title>
<g id="a_node32"><a xlink:title=" ">
<polygon fill="#e0e0e0" stroke="#999999" points="5642,-173 5517,-173 5517,-132 5642,-132 5642,-173"/>
<text text-anchor="start" x="5525" y="-161" font-family="Helvetica,sans-Serif" font-size="10.00">asm/JSystem/JParticle</text>
<text text-anchor="start" x="5525" y="-150" font-family="Helvetica,sans-Serif" font-size="10.00">/JPAFieldBlock/__dt_</text>
<text text-anchor="middle" x="5579.5" y="-139" font-family="Helvetica,sans-Serif" font-size="10.00">_14JPAFieldNewtonFv.s</text>
</a>
</g>
</g>
<!-- Node1&#45;&gt;Node32 -->
<g id="edge31" class="edge">
<title>Node1&#45;&gt;Node32</title>
<path fill="none" stroke="#63b8ff" d="M3441.94,-233.95C3760.35,-233.51 5301.84,-229.05 5508.5,-184 5515.64,-182.44 5522.95,-180.17 5530.04,-177.55"/>
<polygon fill="#63b8ff" stroke="#63b8ff" points="5531.17,-180.87 5539.18,-173.93 5528.59,-174.36 5531.17,-180.87"/>
</g>
<!-- Node33 -->
<g id="node33" class="node">
<title>Node33</title>
<g id="a_node33"><a xlink:title=" ">
<polygon fill="#e0e0e0" stroke="#999999" points="5783,-173 5660,-173 5660,-132 5783,-132 5783,-173"/>
<text text-anchor="start" x="5668" y="-161" font-family="Helvetica,sans-Serif" font-size="10.00">asm/JSystem/JParticle</text>
<text text-anchor="start" x="5668" y="-150" font-family="Helvetica,sans-Serif" font-size="10.00">/JPAFieldBlock/__dt_</text>
<text text-anchor="middle" x="5721.5" y="-139" font-family="Helvetica,sans-Serif" font-size="10.00">_14JPAFieldMagnetFv.s</text>
</a>
</g>
</g>
<!-- Node1&#45;&gt;Node33 -->
<g id="edge32" class="edge">
<title>Node1&#45;&gt;Node33</title>
<path fill="none" stroke="#63b8ff" d="M3441.98,-234.06C3773.1,-234.24 5430.18,-232.67 5651.5,-184 5658.47,-182.47 5665.6,-180.23 5672.52,-177.66"/>
<polygon fill="#63b8ff" stroke="#63b8ff" points="5673.78,-180.92 5681.75,-173.95 5671.17,-174.43 5673.78,-180.92"/>
</g>
<!-- Node34 -->
<g id="node34" class="node">
<title>Node34</title>
<g id="a_node34"><a xlink:title=" ">
<polygon fill="#e0e0e0" stroke="#999999" points="5919.5,-173 5801.5,-173 5801.5,-132 5919.5,-132 5919.5,-173"/>
<text text-anchor="start" x="5809.5" y="-161" font-family="Helvetica,sans-Serif" font-size="10.00">asm/JSystem/JParticle</text>
<text text-anchor="start" x="5809.5" y="-150" font-family="Helvetica,sans-Serif" font-size="10.00">/JPAFieldBlock/__dt_</text>
<text text-anchor="middle" x="5860.5" y="-139" font-family="Helvetica,sans-Serif" font-size="10.00">_11JPAFieldAirFv.s</text>
</a>
</g>
</g>
<!-- Node1&#45;&gt;Node34 -->
<g id="edge33" class="edge">
<title>Node1&#45;&gt;Node34</title>
<path fill="none" stroke="#63b8ff" d="M3441.89,-234.18C3784.87,-235.06 5556.84,-236.99 5792.5,-184 5799.29,-182.47 5806.23,-180.24 5812.96,-177.66"/>
<polygon fill="#63b8ff" stroke="#63b8ff" points="5814,-181.02 5821.91,-173.97 5811.33,-174.55 5814,-181.02"/>
</g>
<!-- Node35 -->
<g id="node35" class="node">
<title>Node35</title>
<g id="a_node35"><a xlink:title=" ">
<polygon fill="#e0e0e0" stroke="#999999" points="6059.5,-173 5937.5,-173 5937.5,-132 6059.5,-132 6059.5,-173"/>
<text text-anchor="start" x="5945.5" y="-161" font-family="Helvetica,sans-Serif" font-size="10.00">asm/JSystem/JParticle</text>
<text text-anchor="start" x="5945.5" y="-150" font-family="Helvetica,sans-Serif" font-size="10.00">/JPAFieldBlock/__dt_</text>
<text text-anchor="middle" x="5998.5" y="-139" font-family="Helvetica,sans-Serif" font-size="10.00">_15JPAFieldGravityFv.s</text>
</a>
</g>
</g>
<!-- Node1&#45;&gt;Node35 -->
<g id="edge34" class="edge">
<title>Node1&#45;&gt;Node35</title>
<path fill="none" stroke="#63b8ff" d="M3441.93,-234.21C3796.27,-235.33 5678.47,-238.67 5928.5,-184 5935.47,-182.48 5942.6,-180.25 5949.52,-177.67"/>
<polygon fill="#63b8ff" stroke="#63b8ff" points="5950.78,-180.94 5958.76,-173.96 5948.17,-174.44 5950.78,-180.94"/>
</g>
<!-- Node3 -->
<g id="node3" class="node">
<title>Node3</title>
<g id="a_node3"><a xlink:href="types_8h.html" target="_top" xlink:title=" ">
<polygon fill="white" stroke="#666666" points="110,-85 29,-85 29,-66 110,-66 110,-85"/>
<text text-anchor="middle" x="69.5" y="-73" font-family="Helvetica,sans-Serif" font-size="10.00">dolphin/types.h</text>
</a>
</g>
</g>
<!-- Node2&#45;&gt;Node3 -->
<g id="edge2" class="edge">
<title>Node2&#45;&gt;Node3</title>
<path fill="none" stroke="#63b8ff" d="M69.5,-137.04C69.5,-125.55 69.5,-109.34 69.5,-96.59"/>
<polygon fill="#63b8ff" stroke="#63b8ff" points="73,-96.8 69.5,-86.8 66,-96.8 73,-96.8"/>
</g>
<!-- Node4 -->
<g id="node4" class="node">
<title>Node4</title>
<g id="a_node4"><a xlink:href="stddef_8h.html" target="_top" xlink:title=" ">
<polygon fill="white" stroke="#666666" points="137.5,-30 1.5,-30 1.5,0 137.5,0 137.5,-30"/>
<text text-anchor="start" x="9.5" y="-18" font-family="Helvetica,sans-Serif" font-size="10.00">MSL_C/MSL_Common/Src</text>
<text text-anchor="middle" x="69.5" y="-7" font-family="Helvetica,sans-Serif" font-size="10.00">/stddef.h</text>
</a>
</g>
</g>
<!-- Node3&#45;&gt;Node4 -->
<g id="edge3" class="edge">
<title>Node3&#45;&gt;Node4</title>
<path fill="none" stroke="#63b8ff" d="M69.5,-65.87C69.5,-59.4 69.5,-50.2 69.5,-41.45"/>
<polygon fill="#63b8ff" stroke="#63b8ff" points="73,-41.63 69.5,-31.63 66,-41.63 73,-41.63"/>
</g>
</g>
</svg>
        <g id="navigator" transform="translate(0 0)" fill="#404254">
                <rect fill="#f2f5e9" fill-opacity="0.5" stroke="#606060" stroke-width=".5" x="0" y="0" width="60" height="60"/>
                <use id="zoomplus" xlink:href="#zoomPlus" x="17" y="9" onmousedown="handleZoom(evt,'in')"/>
                <use id="zoomminus" xlink:href="#zoomMin" x="42" y="9" onmousedown="handleZoom(evt,'out')"/>
                <use id="reset" xlink:href="#resetDef" x="30" y="36" onmousedown="handleReset()"/>
                <g id="arrowUp" xlink:href="#dirArrow" transform="translate(30 24)" onmousedown="handlePan(0,-1)">
                  <use xlink:href="#rim" fill="#404040">
                        <set attributeName="fill" to="#808080" begin="arrowUp.mouseover" end="arrowUp.mouseout"/>
                  </use>
                  <path fill="none" stroke="white" stroke-width="1.5" d="M0,-3.0v7 M-2.5,-0.5L0,-3.0L2.5,-0.5"/>
                </g>
                <g id="arrowRight" xlink:href="#dirArrow" transform="rotate(90) translate(36 -43)" onmousedown="handlePan(1,0)">
                  <use xlink:href="#rim" fill="#404040">
                        <set attributeName="fill" to="#808080" begin="arrowRight.mouseover" end="arrowRight.mouseout"/>
                  </use>
                  <path fill="none" stroke="white" stroke-width="1.5" d="M0,-3.0v7 M-2.5,-0.5L0,-3.0L2.5,-0.5"/>
                </g>
                <g id="arrowDown" xlink:href="#dirArrow" transform="rotate(180) translate(-30 -48)" onmousedown="handlePan(0,1)">
                  <use xlink:href="#rim" fill="#404040">
                        <set attributeName="fill" to="#808080" begin="arrowDown.mouseover" end="arrowDown.mouseout"/>
                  </use>
                  <path fill="none" stroke="white" stroke-width="1.5" d="M0,-3.0v7 M-2.5,-0.5L0,-3.0L2.5,-0.5"/>
                </g>
                <g id="arrowLeft" xlink:href="#dirArrow" transform="rotate(270) translate(-36 17)" onmousedown="handlePan(-1,0)">
                  <use xlink:href="#rim" fill="#404040">
                        <set attributeName="fill" to="#808080" begin="arrowLeft.mouseover" end="arrowLeft.mouseout"/>
                  </use>
                  <path fill="none" stroke="white" stroke-width="1.5" d="M0,-3.0v7 M-2.5,-0.5L0,-3.0L2.5,-0.5"/>
                </g>
        </g>
        <svg viewBox="0 0 15 15" width="100%" height="30px" preserveAspectRatio="xMaxYMin meet">
         <g id="arrow_out" transform="scale(0.3 0.3)">
          <a xlink:href="JPAFieldBlock_8cpp__incl_org.svg" target="_base">
           <rect id="button" ry="5" rx="5" y="6" x="6" height="38" width="38"
                fill="#f2f5e9" fill-opacity="0.5" stroke="#606060" stroke-width="1.0"/>
           <path id="arrow"
             d="M 11.500037,31.436501 C 11.940474,20.09759 22.043105,11.32322 32.158766,21.979434 L 37.068811,17.246167 C 37.068811,17.246167 37.088388,32 37.088388,32 L 22.160133,31.978069 C 22.160133,31.978069 26.997745,27.140456 26.997745,27.140456 C 18.528582,18.264221 13.291696,25.230495 11.500037,31.436501 z"
             style="fill:#404040;"/>
          </a>
         </g>
        </svg>
</svg>
