<?xml version="1.0" encoding="UTF-8" standalone="no"?>
<!DOCTYPE svg PUBLIC "-//W3C//DTD SVG 1.1//EN"
 "http://www.w3.org/Graphics/SVG/1.1/DTD/svg11.dtd">
<!-- Generated by graphviz version 7.0.5 (20221223.1930)
 -->
<!-- Title: libs/JSystem/JStage/JSGAmbientLight.cpp Pages: 1 -->
<!--zoomable 500 -->
<svg id="main" version="1.1" xmlns="http://www.w3.org/2000/svg" xmlns:xlink="http://www.w3.org/1999/xlink" xml:space="preserve" onload="init(evt)">
<style type="text/css"><![CDATA[
.edge:hover path { stroke: red; }
.edge:hover polygon { stroke: red; fill: red; }
]]></style>
<script type="text/javascript"><![CDATA[
var edges = document.getElementsByTagName('g');
if (edges && edges.length) {
  for (var i=0;i<edges.length;i++) {
    if (edges[i].id.substr(0,4)=='edge') {
      edges[i].setAttribute('class','edge');
    }
  }
}
]]></script>
        <defs>
                <circle id="rim" cx="0" cy="0" r="7"/>
                <circle id="rim2" cx="0" cy="0" r="3.5"/>
                <g id="zoomPlus">
                        <use xlink:href="#rim" fill="#404040">
                                <set attributeName="fill" to="#808080" begin="zoomplus.mouseover" end="zoomplus.mouseout"/>
                        </use>
                        <path d="M-4,0h8M0,-4v8" fill="none" stroke="white" stroke-width="1.5" pointer-events="none"/>
                </g>
                <g id="zoomMin">
                        <use xlink:href="#rim" fill="#404040">
                                <set attributeName="fill" to="#808080" begin="zoomminus.mouseover" end="zoomminus.mouseout"/>
                        </use>
                        <path d="M-4,0h8" fill="none" stroke="white" stroke-width="1.5" pointer-events="none"/>
                </g>
                <g id="dirArrow">
                        <path fill="none" stroke="white" stroke-width="1.5" d="M0,-3.0v7 M-2.5,-0.5L0,-3.0L2.5,-0.5"/>
                </g>
               <g id="resetDef">
                       <use xlink:href="#rim2" fill="#404040">
                               <set attributeName="fill" to="#808080" begin="reset.mouseover" end="reset.mouseout"/>
                       </use>
               </g>
        </defs>

<script type="text/javascript">
var viewWidth = 346;
var viewHeight = 500;
var sectionId = 'dynsection-0';
</script>
<script xlink:href="svgpan.js"/>
<svg id="graph" class="graph">
<g id="viewport">
<title>libs/JSystem/JStage/JSGAmbientLight.cpp</title>
<!-- Node1 -->
<g id="node1" class="node">
<title>Node1</title>
<g id="a_node1"><a xlink:title=" ">
<polygon fill="#999999" stroke="#666666" points="265,-492 150,-492 150,-462 265,-462 265,-492"/>
<text text-anchor="start" x="158" y="-480" font-family="Helvetica,sans-Serif" font-size="10.00">libs/JSystem/JStage</text>
<text text-anchor="middle" x="207.5" y="-469" font-family="Helvetica,sans-Serif" font-size="10.00">/JSGAmbientLight.cpp</text>
</a>
</g>
</g>
<!-- Node2 -->
<g id="node2" class="node">
<title>Node2</title>
<g id="a_node2"><a xlink:href="JSGAmbientLight_8h.html" target="_top" xlink:title=" ">
<polygon fill="white" stroke="#666666" points="281,-426 134,-426 134,-396 281,-396 281,-426"/>
<text text-anchor="start" x="142" y="-414" font-family="Helvetica,sans-Serif" font-size="10.00">JSystem/JStage/JSGAmbient</text>
<text text-anchor="middle" x="207.5" y="-403" font-family="Helvetica,sans-Serif" font-size="10.00">Light.h</text>
</a>
</g>
</g>
<!-- Node1&#45;&gt;Node2 -->
<g id="edge1" class="edge">
<title>Node1&#45;&gt;Node2</title>
<path fill="none" stroke="#63b8ff" d="M207.5,-461.8C207.5,-454.67 207.5,-445.82 207.5,-437.56"/>
<polygon fill="#63b8ff" stroke="#63b8ff" points="211,-437.68 207.5,-427.68 204,-437.68 211,-437.68"/>
</g>
<!-- Node3 -->
<g id="node3" class="node">
<title>Node3</title>
<g id="a_node3"><a xlink:href="JSGObject_8h.html" target="_top" xlink:title=" ">
<polygon fill="white" stroke="#666666" points="208,-360 61,-360 61,-341 208,-341 208,-360"/>
<text text-anchor="middle" x="134.5" y="-348" font-family="Helvetica,sans-Serif" font-size="10.00">JSystem/JStage/JSGObject.h</text>
</a>
</g>
</g>
<!-- Node2&#45;&gt;Node3 -->
<g id="edge2" class="edge">
<title>Node2&#45;&gt;Node3</title>
<path fill="none" stroke="#63b8ff" d="M189.46,-395.54C178.74,-386.96 165.16,-376.07 154.17,-367.26"/>
<polygon fill="#63b8ff" stroke="#63b8ff" points="156.5,-364.64 146.51,-361.12 152.12,-370.11 156.5,-364.64"/>
</g>
<!-- Node11 -->
<g id="node11" class="node">
<title>Node11</title>
<g id="a_node11"><a xlink:href="GXStruct_8h.html" target="_top" xlink:title=" ">
<polygon fill="white" stroke="#666666" points="338,-360 227,-360 227,-341 338,-341 338,-360"/>
<text text-anchor="middle" x="282.5" y="-348" font-family="Helvetica,sans-Serif" font-size="10.00">dolphin/gx/GXStruct.h</text>
</a>
</g>
</g>
<!-- Node2&#45;&gt;Node11 -->
<g id="edge12" class="edge">
<title>Node2&#45;&gt;Node11</title>
<path fill="none" stroke="#63b8ff" d="M226.04,-395.54C237.15,-386.87 251.29,-375.85 262.63,-367"/>
<polygon fill="#63b8ff" stroke="#63b8ff" points="264.45,-370.02 270.18,-361.11 260.15,-364.5 264.45,-370.02"/>
</g>
<!-- Node4 -->
<g id="node4" class="node">
<title>Node4</title>
<g id="a_node4"><a xlink:href="mtxvec_8h.html" target="_top" xlink:title=" ">
<polygon fill="white" stroke="#666666" points="187.5,-305 79.5,-305 79.5,-286 187.5,-286 187.5,-305"/>
<text text-anchor="middle" x="133.5" y="-293" font-family="Helvetica,sans-Serif" font-size="10.00">dolphin/mtx/mtxvec.h</text>
</a>
</g>
</g>
<!-- Node3&#45;&gt;Node4 -->
<g id="edge3" class="edge">
<title>Node3&#45;&gt;Node4</title>
<path fill="none" stroke="#63b8ff" d="M134.33,-340.75C134.21,-334.27 134.04,-325.16 133.88,-316.9"/>
<polygon fill="#63b8ff" stroke="#63b8ff" points="137.39,-316.89 133.7,-306.96 130.39,-317.02 137.39,-316.89"/>
</g>
<!-- Node5 -->
<g id="node5" class="node">
<title>Node5</title>
<g id="a_node5"><a xlink:href="mtx_8h.html" target="_top" xlink:title=" ">
<polygon fill="white" stroke="#666666" points="177.5,-250 85.5,-250 85.5,-231 177.5,-231 177.5,-250"/>
<text text-anchor="middle" x="131.5" y="-238" font-family="Helvetica,sans-Serif" font-size="10.00">dolphin/mtx/mtx.h</text>
</a>
</g>
</g>
<!-- Node4&#45;&gt;Node5 -->
<g id="edge4" class="edge">
<title>Node4&#45;&gt;Node5</title>
<path fill="none" stroke="#63b8ff" d="M133.17,-285.75C132.93,-279.27 132.58,-270.16 132.27,-261.9"/>
<polygon fill="#63b8ff" stroke="#63b8ff" points="135.77,-261.82 131.89,-251.95 128.77,-262.08 135.77,-261.82"/>
</g>
<!-- Node6 -->
<g id="node6" class="node">
<title>Node6</title>
<g id="a_node6"><a xlink:href="mtx44_8h.html" target="_top" xlink:title=" ">
<polygon fill="white" stroke="#666666" points="103,-140 0,-140 0,-121 103,-121 103,-140"/>
<text text-anchor="middle" x="51.5" y="-128" font-family="Helvetica,sans-Serif" font-size="10.00">dolphin/mtx/mtx44.h</text>
</a>
</g>
</g>
<!-- Node5&#45;&gt;Node6 -->
<g id="edge5" class="edge">
<title>Node5&#45;&gt;Node6</title>
<path fill="none" stroke="#63b8ff" d="M124.95,-230.66C111.89,-213.02 82.33,-173.12 64.96,-149.67"/>
<polygon fill="#63b8ff" stroke="#63b8ff" points="67.8,-147.63 59.04,-141.68 62.18,-151.8 67.8,-147.63"/>
</g>
<!-- Node7 -->
<g id="node7" class="node">
<title>Node7</title>
<g id="a_node7"><a xlink:href="types_8h.html" target="_top" xlink:title=" ">
<polygon fill="white" stroke="#666666" points="210,-85 129,-85 129,-66 210,-66 210,-85"/>
<text text-anchor="middle" x="169.5" y="-73" font-family="Helvetica,sans-Serif" font-size="10.00">dolphin/types.h</text>
</a>
</g>
</g>
<!-- Node5&#45;&gt;Node7 -->
<g id="edge11" class="edge">
<title>Node5&#45;&gt;Node7</title>
<path fill="none" stroke="#63b8ff" d="M132.32,-230.73C134.32,-210.89 140.14,-161.15 151.5,-121 153.91,-112.48 157.42,-103.37 160.7,-95.62"/>
<polygon fill="#63b8ff" stroke="#63b8ff" points="163.87,-97.11 164.72,-86.55 157.47,-94.27 163.87,-97.11"/>
</g>
<!-- Node9 -->
<g id="node9" class="node">
<title>Node9</title>
<g id="a_node9"><a xlink:href="quat_8h.html" target="_top" xlink:title=" ">
<polygon fill="white" stroke="#666666" points="255,-195 160,-195 160,-176 255,-176 255,-195"/>
<text text-anchor="middle" x="207.5" y="-183" font-family="Helvetica,sans-Serif" font-size="10.00">dolphin/mtx/quat.h</text>
</a>
</g>
</g>
<!-- Node5&#45;&gt;Node9 -->
<g id="edge8" class="edge">
<title>Node5&#45;&gt;Node9</title>
<path fill="none" stroke="#63b8ff" d="M144.39,-230.51C155.6,-222.7 172.07,-211.21 185.38,-201.93"/>
<polygon fill="#63b8ff" stroke="#63b8ff" points="187.36,-204.81 193.56,-196.22 183.35,-199.07 187.36,-204.81"/>
</g>
<!-- Node6&#45;&gt;Node7 -->
<g id="edge6" class="edge">
<title>Node6&#45;&gt;Node7</title>
<path fill="none" stroke="#63b8ff" d="M71.52,-120.51C90.11,-112.16 118.04,-99.61 139.33,-90.05"/>
<polygon fill="#63b8ff" stroke="#63b8ff" points="140.71,-93.27 148.4,-85.98 137.84,-86.88 140.71,-93.27"/>
</g>
<!-- Node8 -->
<g id="node8" class="node">
<title>Node8</title>
<g id="a_node8"><a xlink:href="stddef_8h.html" target="_top" xlink:title=" ">
<polygon fill="white" stroke="#666666" points="237.5,-30 101.5,-30 101.5,0 237.5,0 237.5,-30"/>
<text text-anchor="start" x="109.5" y="-18" font-family="Helvetica,sans-Serif" font-size="10.00">MSL_C/MSL_Common/Src</text>
<text text-anchor="middle" x="169.5" y="-7" font-family="Helvetica,sans-Serif" font-size="10.00">/stddef.h</text>
</a>
</g>
</g>
<!-- Node7&#45;&gt;Node8 -->
<g id="edge7" class="edge">
<title>Node7&#45;&gt;Node8</title>
<path fill="none" stroke="#63b8ff" d="M169.5,-65.87C169.5,-59.4 169.5,-50.2 169.5,-41.45"/>
<polygon fill="#63b8ff" stroke="#63b8ff" points="173,-41.63 169.5,-31.63 166,-41.63 173,-41.63"/>
</g>
<!-- Node10 -->
<g id="node10" class="node">
<title>Node10</title>
<g id="a_node10"><a xlink:href="vec_8h.html" target="_top" xlink:title=" ">
<polygon fill="white" stroke="#666666" points="252.5,-140 160.5,-140 160.5,-121 252.5,-121 252.5,-140"/>
<text text-anchor="middle" x="206.5" y="-128" font-family="Helvetica,sans-Serif" font-size="10.00">dolphin/mtx/vec.h</text>
</a>
</g>
</g>
<!-- Node9&#45;&gt;Node10 -->
<g id="edge9" class="edge">
<title>Node9&#45;&gt;Node10</title>
<path fill="none" stroke="#63b8ff" d="M207.33,-175.75C207.21,-169.27 207.04,-160.16 206.88,-151.9"/>
<polygon fill="#63b8ff" stroke="#63b8ff" points="210.39,-151.89 206.7,-141.96 203.39,-152.02 210.39,-151.89"/>
</g>
<!-- Node10&#45;&gt;Node7 -->
<g id="edge10" class="edge">
<title>Node10&#45;&gt;Node7</title>
<path fill="none" stroke="#63b8ff" d="M200.39,-120.75C195.49,-113.73 188.45,-103.64 182.33,-94.87"/>
<polygon fill="#63b8ff" stroke="#63b8ff" points="185.2,-92.88 176.61,-86.68 179.46,-96.89 185.2,-92.88"/>
</g>
<!-- Node12 -->
<g id="node12" class="node">
<title>Node12</title>
<g id="a_node12"><a xlink:href="global_8h.html" target="_top" xlink:title=" ">
<polygon fill="white" stroke="#666666" points="307.5,-250 257.5,-250 257.5,-231 307.5,-231 307.5,-250"/>
<text text-anchor="middle" x="282.5" y="-238" font-family="Helvetica,sans-Serif" font-size="10.00">global.h</text>
</a>
</g>
</g>
<!-- Node11&#45;&gt;Node12 -->
<g id="edge13" class="edge">
<title>Node11&#45;&gt;Node12</title>
<path fill="none" stroke="#63b8ff" d="M282.5,-340.66C282.5,-323.57 282.5,-285.61 282.5,-261.92"/>
<polygon fill="#63b8ff" stroke="#63b8ff" points="286,-261.97 282.5,-251.97 279,-261.97 286,-261.97"/>
</g>
<!-- Node12&#45;&gt;Node7 -->
<g id="edge14" class="edge">
<title>Node12&#45;&gt;Node7</title>
<path fill="none" stroke="#63b8ff" d="M283.46,-230.71C285.3,-209.52 287.1,-154.82 261.5,-121 250.43,-106.38 233.31,-96.31 216.82,-89.5"/>
<polygon fill="#63b8ff" stroke="#63b8ff" points="218.15,-86.26 207.56,-86.01 215.68,-92.81 218.15,-86.26"/>
</g>
</g>
</svg>
        <g id="navigator" transform="translate(0 0)" fill="#404254">
                <rect fill="#f2f5e9" fill-opacity="0.5" stroke="#606060" stroke-width=".5" x="0" y="0" width="60" height="60"/>
                <use id="zoomplus" xlink:href="#zoomPlus" x="17" y="9" onmousedown="handleZoom(evt,'in')"/>
                <use id="zoomminus" xlink:href="#zoomMin" x="42" y="9" onmousedown="handleZoom(evt,'out')"/>
                <use id="reset" xlink:href="#resetDef" x="30" y="36" onmousedown="handleReset()"/>
                <g id="arrowUp" xlink:href="#dirArrow" transform="translate(30 24)" onmousedown="handlePan(0,-1)">
                  <use xlink:href="#rim" fill="#404040">
                        <set attributeName="fill" to="#808080" begin="arrowUp.mouseover" end="arrowUp.mouseout"/>
                  </use>
                  <path fill="none" stroke="white" stroke-width="1.5" d="M0,-3.0v7 M-2.5,-0.5L0,-3.0L2.5,-0.5"/>
                </g>
                <g id="arrowRight" xlink:href="#dirArrow" transform="rotate(90) translate(36 -43)" onmousedown="handlePan(1,0)">
                  <use xlink:href="#rim" fill="#404040">
                        <set attributeName="fill" to="#808080" begin="arrowRight.mouseover" end="arrowRight.mouseout"/>
                  </use>
                  <path fill="none" stroke="white" stroke-width="1.5" d="M0,-3.0v7 M-2.5,-0.5L0,-3.0L2.5,-0.5"/>
                </g>
                <g id="arrowDown" xlink:href="#dirArrow" transform="rotate(180) translate(-30 -48)" onmousedown="handlePan(0,1)">
                  <use xlink:href="#rim" fill="#404040">
                        <set attributeName="fill" to="#808080" begin="arrowDown.mouseover" end="arrowDown.mouseout"/>
                  </use>
                  <path fill="none" stroke="white" stroke-width="1.5" d="M0,-3.0v7 M-2.5,-0.5L0,-3.0L2.5,-0.5"/>
                </g>
                <g id="arrowLeft" xlink:href="#dirArrow" transform="rotate(270) translate(-36 17)" onmousedown="handlePan(-1,0)">
                  <use xlink:href="#rim" fill="#404040">
                        <set attributeName="fill" to="#808080" begin="arrowLeft.mouseover" end="arrowLeft.mouseout"/>
                  </use>
                  <path fill="none" stroke="white" stroke-width="1.5" d="M0,-3.0v7 M-2.5,-0.5L0,-3.0L2.5,-0.5"/>
                </g>
        </g>
        <svg viewBox="0 0 15 15" width="100%" height="30px" preserveAspectRatio="xMaxYMin meet">
         <g id="arrow_out" transform="scale(0.3 0.3)">
          <a xlink:href="JSGAmbientLight_8cpp__incl_org.svg" target="_base">
           <rect id="button" ry="5" rx="5" y="6" x="6" height="38" width="38"
                fill="#f2f5e9" fill-opacity="0.5" stroke="#606060" stroke-width="1.0"/>
           <path id="arrow"
             d="M 11.500037,31.436501 C 11.940474,20.09759 22.043105,11.32322 32.158766,21.979434 L 37.068811,17.246167 C 37.068811,17.246167 37.088388,32 37.088388,32 L 22.160133,31.978069 C 22.160133,31.978069 26.997745,27.140456 26.997745,27.140456 C 18.528582,18.264221 13.291696,25.230495 11.500037,31.436501 z"
             style="fill:#404040;"/>
          </a>
         </g>
        </svg>
</svg>
