<?xml version="1.0" encoding="UTF-8" standalone="no"?>
<!DOCTYPE svg PUBLIC "-//W3C//DTD SVG 1.1//EN"
 "http://www.w3.org/Graphics/SVG/1.1/DTD/svg11.dtd">
<!-- Generated by graphviz version 7.0.5 (20221223.1930)
 -->
<!-- Title: libs/JSystem/JStage/JSGCamera.cpp Pages: 1 -->
<svg width="368pt" height="500pt"
 viewBox="0.00 0.00 367.50 500.00" xmlns="http://www.w3.org/2000/svg" xmlns:xlink="http://www.w3.org/1999/xlink">
<g id="graph0" class="graph" transform="scale(1 1) rotate(0) translate(4 496)">
<title>libs/JSystem/JStage/JSGCamera.cpp</title>
<!-- Node1 -->
<g id="node1" class="node">
<title>Node1</title>
<g id="a_node1"><a xlink:title=" ">
<polygon fill="#999999" stroke="#666666" points="264,-492 157,-492 157,-462 264,-462 264,-492"/>
<text text-anchor="start" x="165" y="-480" font-family="Helvetica,sans-Serif" font-size="10.00">libs/JSystem/JStage</text>
<text text-anchor="middle" x="210.5" y="-469" font-family="Helvetica,sans-Serif" font-size="10.00">/JSGCamera.cpp</text>
</a>
</g>
</g>
<!-- Node2 -->
<g id="node2" class="node">
<title>Node2</title>
<g id="a_node2"><a xlink:href="JSGCamera_8h.html" target="_top" xlink:title=" ">
<polygon fill="white" stroke="#666666" points="220.5,-426 68.5,-426 68.5,-407 220.5,-407 220.5,-426"/>
<text text-anchor="middle" x="144.5" y="-414" font-family="Helvetica,sans-Serif" font-size="10.00">JSystem/JStage/JSGCamera.h</text>
</a>
</g>
</g>
<!-- Node1&#45;&gt;Node2 -->
<g id="edge1" class="edge">
<title>Node1&#45;&gt;Node2</title>
<path fill="none" stroke="#63b8ff" d="M194.19,-461.54C184.7,-453.13 172.71,-442.51 162.89,-433.8"/>
<polygon fill="#63b8ff" stroke="#63b8ff" points="165.23,-431.19 155.42,-427.18 160.58,-436.43 165.23,-431.19"/>
</g>
<!-- Node11 -->
<g id="node11" class="node">
<title>Node11</title>
<g id="a_node11"><a xlink:href="float_8h.html" target="_top" xlink:title=" ">
<polygon fill="white" stroke="#666666" points="323.5,-426 245.5,-426 245.5,-407 323.5,-407 323.5,-426"/>
<text text-anchor="middle" x="284.5" y="-414" font-family="Helvetica,sans-Serif" font-size="10.00">MSL_C/float.h</text>
</a>
</g>
</g>
<!-- Node1&#45;&gt;Node11 -->
<g id="edge12" class="edge">
<title>Node1&#45;&gt;Node11</title>
<path fill="none" stroke="#63b8ff" d="M228.79,-461.54C239.65,-452.96 253.42,-442.07 264.56,-433.26"/>
<polygon fill="#63b8ff" stroke="#63b8ff" points="266.66,-436.06 272.34,-427.11 262.32,-430.57 266.66,-436.06"/>
</g>
<!-- Node3 -->
<g id="node3" class="node">
<title>Node3</title>
<g id="a_node3"><a xlink:href="JSGObject_8h.html" target="_top" xlink:title=" ">
<polygon fill="white" stroke="#666666" points="205,-365.5 58,-365.5 58,-346.5 205,-346.5 205,-365.5"/>
<text text-anchor="middle" x="131.5" y="-353.5" font-family="Helvetica,sans-Serif" font-size="10.00">JSystem/JStage/JSGObject.h</text>
</a>
</g>
</g>
<!-- Node2&#45;&gt;Node3 -->
<g id="edge2" class="edge">
<title>Node2&#45;&gt;Node3</title>
<path fill="none" stroke="#63b8ff" d="M142.58,-406.87C140.83,-399 138.19,-387.1 135.92,-376.89"/>
<polygon fill="#63b8ff" stroke="#63b8ff" points="139.34,-376.15 133.75,-367.14 132.51,-377.67 139.34,-376.15"/>
</g>
<!-- Node4 -->
<g id="node4" class="node">
<title>Node4</title>
<g id="a_node4"><a xlink:href="mtxvec_8h.html" target="_top" xlink:title=" ">
<polygon fill="white" stroke="#666666" points="185.5,-305 77.5,-305 77.5,-286 185.5,-286 185.5,-305"/>
<text text-anchor="middle" x="131.5" y="-293" font-family="Helvetica,sans-Serif" font-size="10.00">dolphin/mtx/mtxvec.h</text>
</a>
</g>
</g>
<!-- Node3&#45;&gt;Node4 -->
<g id="edge3" class="edge">
<title>Node3&#45;&gt;Node4</title>
<path fill="none" stroke="#63b8ff" d="M131.5,-346.37C131.5,-338.5 131.5,-326.6 131.5,-316.39"/>
<polygon fill="#63b8ff" stroke="#63b8ff" points="135,-316.68 131.5,-306.68 128,-316.68 135,-316.68"/>
</g>
<!-- Node5 -->
<g id="node5" class="node">
<title>Node5</title>
<g id="a_node5"><a xlink:href="mtx_8h.html" target="_top" xlink:title=" ">
<polygon fill="white" stroke="#666666" points="177.5,-250 85.5,-250 85.5,-231 177.5,-231 177.5,-250"/>
<text text-anchor="middle" x="131.5" y="-238" font-family="Helvetica,sans-Serif" font-size="10.00">dolphin/mtx/mtx.h</text>
</a>
</g>
</g>
<!-- Node4&#45;&gt;Node5 -->
<g id="edge4" class="edge">
<title>Node4&#45;&gt;Node5</title>
<path fill="none" stroke="#63b8ff" d="M131.5,-285.75C131.5,-279.27 131.5,-270.16 131.5,-261.9"/>
<polygon fill="#63b8ff" stroke="#63b8ff" points="135,-261.96 131.5,-251.96 128,-261.96 135,-261.96"/>
</g>
<!-- Node6 -->
<g id="node6" class="node">
<title>Node6</title>
<g id="a_node6"><a xlink:href="mtx44_8h.html" target="_top" xlink:title=" ">
<polygon fill="white" stroke="#666666" points="103,-140 0,-140 0,-121 103,-121 103,-140"/>
<text text-anchor="middle" x="51.5" y="-128" font-family="Helvetica,sans-Serif" font-size="10.00">dolphin/mtx/mtx44.h</text>
</a>
</g>
</g>
<!-- Node5&#45;&gt;Node6 -->
<g id="edge5" class="edge">
<title>Node5&#45;&gt;Node6</title>
<path fill="none" stroke="#63b8ff" d="M124.95,-230.66C111.89,-213.02 82.33,-173.12 64.96,-149.67"/>
<polygon fill="#63b8ff" stroke="#63b8ff" points="67.8,-147.63 59.04,-141.68 62.18,-151.8 67.8,-147.63"/>
</g>
<!-- Node7 -->
<g id="node7" class="node">
<title>Node7</title>
<g id="a_node7"><a xlink:href="types_8h.html" target="_top" xlink:title=" ">
<polygon fill="white" stroke="#666666" points="172,-85 91,-85 91,-66 172,-66 172,-85"/>
<text text-anchor="middle" x="131.5" y="-73" font-family="Helvetica,sans-Serif" font-size="10.00">dolphin/types.h</text>
</a>
</g>
</g>
<!-- Node5&#45;&gt;Node7 -->
<g id="edge11" class="edge">
<title>Node5&#45;&gt;Node7</title>
<path fill="none" stroke="#63b8ff" d="M131.5,-230.74C131.5,-205.53 131.5,-132.36 131.5,-96.62"/>
<polygon fill="#63b8ff" stroke="#63b8ff" points="135,-96.82 131.5,-86.82 128,-96.82 135,-96.82"/>
</g>
<!-- Node9 -->
<g id="node9" class="node">
<title>Node9</title>
<g id="a_node9"><a xlink:href="quat_8h.html" target="_top" xlink:title=" ">
<polygon fill="white" stroke="#666666" points="255,-195 160,-195 160,-176 255,-176 255,-195"/>
<text text-anchor="middle" x="207.5" y="-183" font-family="Helvetica,sans-Serif" font-size="10.00">dolphin/mtx/quat.h</text>
</a>
</g>
</g>
<!-- Node5&#45;&gt;Node9 -->
<g id="edge8" class="edge">
<title>Node5&#45;&gt;Node9</title>
<path fill="none" stroke="#63b8ff" d="M144.39,-230.51C155.6,-222.7 172.07,-211.21 185.38,-201.93"/>
<polygon fill="#63b8ff" stroke="#63b8ff" points="187.36,-204.81 193.56,-196.22 183.35,-199.07 187.36,-204.81"/>
</g>
<!-- Node6&#45;&gt;Node7 -->
<g id="edge6" class="edge">
<title>Node6&#45;&gt;Node7</title>
<path fill="none" stroke="#63b8ff" d="M65.07,-120.51C76.98,-112.62 94.55,-100.98 108.63,-91.65"/>
<polygon fill="#63b8ff" stroke="#63b8ff" points="110.46,-94.63 116.87,-86.19 106.6,-88.8 110.46,-94.63"/>
</g>
<!-- Node8 -->
<g id="node8" class="node">
<title>Node8</title>
<g id="a_node8"><a xlink:href="stddef_8h.html" target="_top" xlink:title=" ">
<polygon fill="white" stroke="#666666" points="199.5,-30 63.5,-30 63.5,0 199.5,0 199.5,-30"/>
<text text-anchor="start" x="71.5" y="-18" font-family="Helvetica,sans-Serif" font-size="10.00">MSL_C/MSL_Common/Src</text>
<text text-anchor="middle" x="131.5" y="-7" font-family="Helvetica,sans-Serif" font-size="10.00">/stddef.h</text>
</a>
</g>
</g>
<!-- Node7&#45;&gt;Node8 -->
<g id="edge7" class="edge">
<title>Node7&#45;&gt;Node8</title>
<path fill="none" stroke="#63b8ff" d="M131.5,-65.87C131.5,-59.4 131.5,-50.2 131.5,-41.45"/>
<polygon fill="#63b8ff" stroke="#63b8ff" points="135,-41.63 131.5,-31.63 128,-41.63 135,-41.63"/>
</g>
<!-- Node10 -->
<g id="node10" class="node">
<title>Node10</title>
<g id="a_node10"><a xlink:href="vec_8h.html" target="_top" xlink:title=" ">
<polygon fill="white" stroke="#666666" points="252.5,-140 160.5,-140 160.5,-121 252.5,-121 252.5,-140"/>
<text text-anchor="middle" x="206.5" y="-128" font-family="Helvetica,sans-Serif" font-size="10.00">dolphin/mtx/vec.h</text>
</a>
</g>
</g>
<!-- Node9&#45;&gt;Node10 -->
<g id="edge9" class="edge">
<title>Node9&#45;&gt;Node10</title>
<path fill="none" stroke="#63b8ff" d="M207.33,-175.75C207.21,-169.27 207.04,-160.16 206.88,-151.9"/>
<polygon fill="#63b8ff" stroke="#63b8ff" points="210.39,-151.89 206.7,-141.96 203.39,-152.02 210.39,-151.89"/>
</g>
<!-- Node10&#45;&gt;Node7 -->
<g id="edge10" class="edge">
<title>Node10&#45;&gt;Node7</title>
<path fill="none" stroke="#63b8ff" d="M193.78,-120.51C182.72,-112.7 166.46,-101.21 153.33,-91.93"/>
<polygon fill="#63b8ff" stroke="#63b8ff" points="155.46,-89.14 145.27,-86.23 151.42,-94.86 155.46,-89.14"/>
</g>
<!-- Node12 -->
<g id="node12" class="node">
<title>Node12</title>
<g id="a_node12"><a xlink:href="MSL__Common_2Src_2float_8h.html" target="_top" xlink:title=" ">
<polygon fill="white" stroke="#666666" points="359.5,-371 223.5,-371 223.5,-341 359.5,-341 359.5,-371"/>
<text text-anchor="start" x="231.5" y="-359" font-family="Helvetica,sans-Serif" font-size="10.00">MSL_C/MSL_Common/Src</text>
<text text-anchor="middle" x="291.5" y="-348" font-family="Helvetica,sans-Serif" font-size="10.00">/float.h</text>
</a>
</g>
</g>
<!-- Node11&#45;&gt;Node12 -->
<g id="edge13" class="edge">
<title>Node11&#45;&gt;Node12</title>
<path fill="none" stroke="#63b8ff" d="M285.53,-406.87C286.31,-400.4 287.41,-391.2 288.45,-382.45"/>
<polygon fill="#63b8ff" stroke="#63b8ff" points="291.92,-382.96 289.63,-372.62 284.97,-382.13 291.92,-382.96"/>
</g>
<!-- Node13 -->
<g id="node13" class="node">
<title>Node13</title>
<g id="a_node13"><a xlink:href="fdlibm_8h.html" target="_top" xlink:title=" ">
<polygon fill="white" stroke="#666666" points="316.5,-305 266.5,-305 266.5,-286 316.5,-286 316.5,-305"/>
<text text-anchor="middle" x="291.5" y="-293" font-family="Helvetica,sans-Serif" font-size="10.00">fdlibm.h</text>
</a>
</g>
</g>
<!-- Node12&#45;&gt;Node13 -->
<g id="edge14" class="edge">
<title>Node12&#45;&gt;Node13</title>
<path fill="none" stroke="#63b8ff" d="M291.5,-340.54C291.5,-333.34 291.5,-324.53 291.5,-316.68"/>
<polygon fill="#63b8ff" stroke="#63b8ff" points="295,-316.69 291.5,-306.69 288,-316.69 295,-316.69"/>
</g>
</g>
</svg>
