<?xml version="1.0" encoding="UTF-8" standalone="no"?>
<!DOCTYPE svg PUBLIC "-//W3C//DTD SVG 1.1//EN"
 "http://www.w3.org/Graphics/SVG/1.1/DTD/svg11.dtd">
<!-- Generated by graphviz version 7.0.5 (20221223.1930)
 -->
<!-- Title: libs/JSystem/JStage/JSGFog.cpp Pages: 1 -->
<!--zoomable 500 -->
<svg id="main" version="1.1" xmlns="http://www.w3.org/2000/svg" xmlns:xlink="http://www.w3.org/1999/xlink" xml:space="preserve" onload="init(evt)">
<style type="text/css"><![CDATA[
.edge:hover path { stroke: red; }
.edge:hover polygon { stroke: red; fill: red; }
]]></style>
<script type="text/javascript"><![CDATA[
var edges = document.getElementsByTagName('g');
if (edges && edges.length) {
  for (var i=0;i<edges.length;i++) {
    if (edges[i].id.substr(0,4)=='edge') {
      edges[i].setAttribute('class','edge');
    }
  }
}
]]></script>
        <defs>
                <circle id="rim" cx="0" cy="0" r="7"/>
                <circle id="rim2" cx="0" cy="0" r="3.5"/>
                <g id="zoomPlus">
                        <use xlink:href="#rim" fill="#404040">
                                <set attributeName="fill" to="#808080" begin="zoomplus.mouseover" end="zoomplus.mouseout"/>
                        </use>
                        <path d="M-4,0h8M0,-4v8" fill="none" stroke="white" stroke-width="1.5" pointer-events="none"/>
                </g>
                <g id="zoomMin">
                        <use xlink:href="#rim" fill="#404040">
                                <set attributeName="fill" to="#808080" begin="zoomminus.mouseover" end="zoomminus.mouseout"/>
                        </use>
                        <path d="M-4,0h8" fill="none" stroke="white" stroke-width="1.5" pointer-events="none"/>
                </g>
                <g id="dirArrow">
                        <path fill="none" stroke="white" stroke-width="1.5" d="M0,-3.0v7 M-2.5,-0.5L0,-3.0L2.5,-0.5"/>
                </g>
               <g id="resetDef">
                       <use xlink:href="#rim2" fill="#404040">
                               <set attributeName="fill" to="#808080" begin="reset.mouseover" end="reset.mouseout"/>
                       </use>
               </g>
        </defs>

<script type="text/javascript">
var viewWidth = 555;
var viewHeight = 500;
var sectionId = 'dynsection-0';
</script>
<script xlink:href="svgpan.js"/>
<svg id="graph" class="graph">
<g id="viewport">
<title>libs/JSystem/JStage/JSGFog.cpp</title>
<!-- Node1 -->
<g id="node1" class="node">
<title>Node1</title>
<g id="a_node1"><a xlink:title=" ">
<polygon fill="#999999" stroke="#666666" points="410,-492 303,-492 303,-462 410,-462 410,-492"/>
<text text-anchor="start" x="311" y="-480" font-family="Helvetica,sans-Serif" font-size="10.00">libs/JSystem/JStage</text>
<text text-anchor="middle" x="356.5" y="-469" font-family="Helvetica,sans-Serif" font-size="10.00">/JSGFog.cpp</text>
</a>
</g>
</g>
<!-- Node2 -->
<g id="node2" class="node">
<title>Node2</title>
<g id="a_node2"><a xlink:href="JSGFog_8h.html" target="_top" xlink:title=" ">
<polygon fill="white" stroke="#666666" points="362,-426 227,-426 227,-407 362,-407 362,-426"/>
<text text-anchor="middle" x="294.5" y="-414" font-family="Helvetica,sans-Serif" font-size="10.00">JSystem/JStage/JSGFog.h</text>
</a>
</g>
</g>
<!-- Node1&#45;&gt;Node2 -->
<g id="edge1" class="edge">
<title>Node1&#45;&gt;Node2</title>
<path fill="none" stroke="#63b8ff" d="M341.17,-461.54C332.35,-453.22 321.23,-442.72 312.06,-434.07"/>
<polygon fill="#63b8ff" stroke="#63b8ff" points="314.47,-431.53 304.8,-427.21 309.67,-436.62 314.47,-431.53"/>
</g>
<!-- Node14 -->
<g id="node14" class="node">
<title>Node14</title>
<g id="a_node14"><a xlink:href="float_8h.html" target="_top" xlink:title=" ">
<polygon fill="white" stroke="#666666" points="487.5,-426 409.5,-426 409.5,-407 487.5,-407 487.5,-426"/>
<text text-anchor="middle" x="448.5" y="-414" font-family="Helvetica,sans-Serif" font-size="10.00">MSL_C/float.h</text>
</a>
</g>
</g>
<!-- Node1&#45;&gt;Node14 -->
<g id="edge17" class="edge">
<title>Node1&#45;&gt;Node14</title>
<path fill="none" stroke="#63b8ff" d="M379.24,-461.54C393.2,-452.66 411.04,-441.32 425.11,-432.37"/>
<polygon fill="#63b8ff" stroke="#63b8ff" points="426.75,-435.48 433.31,-427.16 422.99,-429.57 426.75,-435.48"/>
</g>
<!-- Node3 -->
<g id="node3" class="node">
<title>Node3</title>
<g id="a_node3"><a xlink:href="JSGObject_8h.html" target="_top" xlink:title=" ">
<polygon fill="white" stroke="#666666" points="220,-365.5 73,-365.5 73,-346.5 220,-346.5 220,-365.5"/>
<text text-anchor="middle" x="146.5" y="-353.5" font-family="Helvetica,sans-Serif" font-size="10.00">JSystem/JStage/JSGObject.h</text>
</a>
</g>
</g>
<!-- Node2&#45;&gt;Node3 -->
<g id="edge2" class="edge">
<title>Node2&#45;&gt;Node3</title>
<path fill="none" stroke="#63b8ff" d="M272.02,-406.62C247.46,-396.91 207.88,-381.26 179.73,-370.14"/>
<polygon fill="#63b8ff" stroke="#63b8ff" points="181.18,-366.95 170.6,-366.52 178.61,-373.46 181.18,-366.95"/>
</g>
<!-- Node11 -->
<g id="node11" class="node">
<title>Node11</title>
<g id="a_node11"><a xlink:href="GXEnum_8h.html" target="_top" xlink:title=" ">
<polygon fill="white" stroke="#666666" points="308.5,-250 198.5,-250 198.5,-231 308.5,-231 308.5,-250"/>
<text text-anchor="middle" x="253.5" y="-238" font-family="Helvetica,sans-Serif" font-size="10.00">dolphin/gx/GXEnum.h</text>
</a>
</g>
</g>
<!-- Node2&#45;&gt;Node11 -->
<g id="edge12" class="edge">
<title>Node2&#45;&gt;Node11</title>
<path fill="none" stroke="#63b8ff" d="M288.8,-406.69C283.45,-397.98 275.66,-384.1 271.5,-371 259.57,-333.43 255.54,-287.24 254.18,-261.41"/>
<polygon fill="#63b8ff" stroke="#63b8ff" points="257.69,-261.56 253.77,-251.72 250.7,-261.86 257.69,-261.56"/>
</g>
<!-- Node12 -->
<g id="node12" class="node">
<title>Node12</title>
<g id="a_node12"><a xlink:href="GXStruct_8h.html" target="_top" xlink:title=" ">
<polygon fill="white" stroke="#666666" points="392,-365.5 281,-365.5 281,-346.5 392,-346.5 392,-365.5"/>
<text text-anchor="middle" x="336.5" y="-353.5" font-family="Helvetica,sans-Serif" font-size="10.00">dolphin/gx/GXStruct.h</text>
</a>
</g>
</g>
<!-- Node2&#45;&gt;Node12 -->
<g id="edge14" class="edge">
<title>Node2&#45;&gt;Node12</title>
<path fill="none" stroke="#63b8ff" d="M300.7,-406.87C306.71,-398.49 316.03,-385.51 323.65,-374.89"/>
<polygon fill="#63b8ff" stroke="#63b8ff" points="326.41,-377.06 329.39,-366.9 320.72,-372.98 326.41,-377.06"/>
</g>
<!-- Node4 -->
<g id="node4" class="node">
<title>Node4</title>
<g id="a_node4"><a xlink:href="mtxvec_8h.html" target="_top" xlink:title=" ">
<polygon fill="white" stroke="#666666" points="192.5,-305 84.5,-305 84.5,-286 192.5,-286 192.5,-305"/>
<text text-anchor="middle" x="138.5" y="-293" font-family="Helvetica,sans-Serif" font-size="10.00">dolphin/mtx/mtxvec.h</text>
</a>
</g>
</g>
<!-- Node3&#45;&gt;Node4 -->
<g id="edge3" class="edge">
<title>Node3&#45;&gt;Node4</title>
<path fill="none" stroke="#63b8ff" d="M145.32,-346.37C144.24,-338.5 142.62,-326.6 141.22,-316.39"/>
<polygon fill="#63b8ff" stroke="#63b8ff" points="144.71,-316.1 139.89,-306.67 137.78,-317.05 144.71,-316.1"/>
</g>
<!-- Node5 -->
<g id="node5" class="node">
<title>Node5</title>
<g id="a_node5"><a xlink:href="mtx_8h.html" target="_top" xlink:title=" ">
<polygon fill="white" stroke="#666666" points="179.5,-250 87.5,-250 87.5,-231 179.5,-231 179.5,-250"/>
<text text-anchor="middle" x="133.5" y="-238" font-family="Helvetica,sans-Serif" font-size="10.00">dolphin/mtx/mtx.h</text>
</a>
</g>
</g>
<!-- Node4&#45;&gt;Node5 -->
<g id="edge4" class="edge">
<title>Node4&#45;&gt;Node5</title>
<path fill="none" stroke="#63b8ff" d="M137.67,-285.75C137.06,-279.27 136.2,-270.16 135.42,-261.9"/>
<polygon fill="#63b8ff" stroke="#63b8ff" points="138.91,-261.58 134.49,-251.95 131.94,-262.23 138.91,-261.58"/>
</g>
<!-- Node6 -->
<g id="node6" class="node">
<title>Node6</title>
<g id="a_node6"><a xlink:href="mtx44_8h.html" target="_top" xlink:title=" ">
<polygon fill="white" stroke="#666666" points="103,-195 0,-195 0,-176 103,-176 103,-195"/>
<text text-anchor="middle" x="51.5" y="-183" font-family="Helvetica,sans-Serif" font-size="10.00">dolphin/mtx/mtx44.h</text>
</a>
</g>
</g>
<!-- Node5&#45;&gt;Node6 -->
<g id="edge5" class="edge">
<title>Node5&#45;&gt;Node6</title>
<path fill="none" stroke="#63b8ff" d="M119.59,-230.51C107.26,-222.54 89.03,-210.75 74.53,-201.38"/>
<polygon fill="#63b8ff" stroke="#63b8ff" points="76.77,-198.67 66.48,-196.18 72.97,-204.55 76.77,-198.67"/>
</g>
<!-- Node7 -->
<g id="node7" class="node">
<title>Node7</title>
<g id="a_node7"><a xlink:href="types_8h.html" target="_top" xlink:title=" ">
<polygon fill="white" stroke="#666666" points="248,-85 167,-85 167,-66 248,-66 248,-85"/>
<text text-anchor="middle" x="207.5" y="-73" font-family="Helvetica,sans-Serif" font-size="10.00">dolphin/types.h</text>
</a>
</g>
</g>
<!-- Node5&#45;&gt;Node7 -->
<g id="edge11" class="edge">
<title>Node5&#45;&gt;Node7</title>
<path fill="none" stroke="#63b8ff" d="M132.86,-230.77C131.77,-210.15 131.41,-157.42 152.5,-121 159.38,-109.12 170.74,-99.13 181.35,-91.64"/>
<polygon fill="#63b8ff" stroke="#63b8ff" points="183.03,-94.73 189.47,-86.32 179.19,-88.87 183.03,-94.73"/>
</g>
<!-- Node9 -->
<g id="node9" class="node">
<title>Node9</title>
<g id="a_node9"><a xlink:href="quat_8h.html" target="_top" xlink:title=" ">
<polygon fill="white" stroke="#666666" points="255,-195 160,-195 160,-176 255,-176 255,-195"/>
<text text-anchor="middle" x="207.5" y="-183" font-family="Helvetica,sans-Serif" font-size="10.00">dolphin/mtx/quat.h</text>
</a>
</g>
</g>
<!-- Node5&#45;&gt;Node9 -->
<g id="edge8" class="edge">
<title>Node5&#45;&gt;Node9</title>
<path fill="none" stroke="#63b8ff" d="M146.05,-230.51C156.96,-222.7 173,-211.21 185.96,-201.93"/>
<polygon fill="#63b8ff" stroke="#63b8ff" points="187.81,-204.91 193.9,-196.24 183.73,-199.22 187.81,-204.91"/>
</g>
<!-- Node6&#45;&gt;Node7 -->
<g id="edge6" class="edge">
<title>Node6&#45;&gt;Node7</title>
<path fill="none" stroke="#63b8ff" d="M58.92,-175.82C70.45,-162.72 93.82,-137.64 117.5,-121 135.1,-108.63 156.64,-97.85 174.24,-90"/>
<polygon fill="#63b8ff" stroke="#63b8ff" points="175.44,-93.29 183.22,-86.1 172.66,-86.87 175.44,-93.29"/>
</g>
<!-- Node8 -->
<g id="node8" class="node">
<title>Node8</title>
<g id="a_node8"><a xlink:href="stddef_8h.html" target="_top" xlink:title=" ">
<polygon fill="white" stroke="#666666" points="275.5,-30 139.5,-30 139.5,0 275.5,0 275.5,-30"/>
<text text-anchor="start" x="147.5" y="-18" font-family="Helvetica,sans-Serif" font-size="10.00">MSL_C/MSL_Common/Src</text>
<text text-anchor="middle" x="207.5" y="-7" font-family="Helvetica,sans-Serif" font-size="10.00">/stddef.h</text>
</a>
</g>
</g>
<!-- Node7&#45;&gt;Node8 -->
<g id="edge7" class="edge">
<title>Node7&#45;&gt;Node8</title>
<path fill="none" stroke="#63b8ff" d="M207.5,-65.87C207.5,-59.4 207.5,-50.2 207.5,-41.45"/>
<polygon fill="#63b8ff" stroke="#63b8ff" points="211,-41.63 207.5,-31.63 204,-41.63 211,-41.63"/>
</g>
<!-- Node10 -->
<g id="node10" class="node">
<title>Node10</title>
<g id="a_node10"><a xlink:href="vec_8h.html" target="_top" xlink:title=" ">
<polygon fill="white" stroke="#666666" points="253.5,-140 161.5,-140 161.5,-121 253.5,-121 253.5,-140"/>
<text text-anchor="middle" x="207.5" y="-128" font-family="Helvetica,sans-Serif" font-size="10.00">dolphin/mtx/vec.h</text>
</a>
</g>
</g>
<!-- Node9&#45;&gt;Node10 -->
<g id="edge9" class="edge">
<title>Node9&#45;&gt;Node10</title>
<path fill="none" stroke="#63b8ff" d="M207.5,-175.75C207.5,-169.27 207.5,-160.16 207.5,-151.9"/>
<polygon fill="#63b8ff" stroke="#63b8ff" points="211,-151.96 207.5,-141.96 204,-151.96 211,-151.96"/>
</g>
<!-- Node10&#45;&gt;Node7 -->
<g id="edge10" class="edge">
<title>Node10&#45;&gt;Node7</title>
<path fill="none" stroke="#63b8ff" d="M207.5,-120.75C207.5,-114.27 207.5,-105.16 207.5,-96.9"/>
<polygon fill="#63b8ff" stroke="#63b8ff" points="211,-96.96 207.5,-86.96 204,-96.96 211,-96.96"/>
</g>
<!-- Node11&#45;&gt;Node7 -->
<g id="edge13" class="edge">
<title>Node11&#45;&gt;Node7</title>
<path fill="none" stroke="#63b8ff" d="M257.09,-230.6C264.77,-210.06 280.7,-158.26 262.5,-121 256.56,-108.83 245.53,-98.89 234.9,-91.52"/>
<polygon fill="#63b8ff" stroke="#63b8ff" points="237.01,-88.7 226.69,-86.29 233.25,-94.61 237.01,-88.7"/>
</g>
<!-- Node13 -->
<g id="node13" class="node">
<title>Node13</title>
<g id="a_node13"><a xlink:href="global_8h.html" target="_top" xlink:title=" ">
<polygon fill="white" stroke="#666666" points="361.5,-140 311.5,-140 311.5,-121 361.5,-121 361.5,-140"/>
<text text-anchor="middle" x="336.5" y="-128" font-family="Helvetica,sans-Serif" font-size="10.00">global.h</text>
</a>
</g>
</g>
<!-- Node12&#45;&gt;Node13 -->
<g id="edge15" class="edge">
<title>Node12&#45;&gt;Node13</title>
<path fill="none" stroke="#63b8ff" d="M336.5,-346.24C336.5,-313.63 336.5,-198.77 336.5,-151.78"/>
<polygon fill="#63b8ff" stroke="#63b8ff" points="340,-151.96 336.5,-141.96 333,-151.96 340,-151.96"/>
</g>
<!-- Node13&#45;&gt;Node7 -->
<g id="edge16" class="edge">
<title>Node13&#45;&gt;Node7</title>
<path fill="none" stroke="#63b8ff" d="M314.62,-120.51C294.01,-112.04 262.91,-99.27 239.52,-89.66"/>
<polygon fill="#63b8ff" stroke="#63b8ff" points="241.04,-86.5 230.46,-85.93 238.38,-92.97 241.04,-86.5"/>
</g>
<!-- Node15 -->
<g id="node15" class="node">
<title>Node15</title>
<g id="a_node15"><a xlink:href="MSL__Common_2Src_2float_8h.html" target="_top" xlink:title=" ">
<polygon fill="white" stroke="#666666" points="546.5,-371 410.5,-371 410.5,-341 546.5,-341 546.5,-371"/>
<text text-anchor="start" x="418.5" y="-359" font-family="Helvetica,sans-Serif" font-size="10.00">MSL_C/MSL_Common/Src</text>
<text text-anchor="middle" x="478.5" y="-348" font-family="Helvetica,sans-Serif" font-size="10.00">/float.h</text>
</a>
</g>
</g>
<!-- Node14&#45;&gt;Node15 -->
<g id="edge18" class="edge">
<title>Node14&#45;&gt;Node15</title>
<path fill="none" stroke="#63b8ff" d="M452.93,-406.87C456.39,-400.11 461.4,-390.35 466.06,-381.26"/>
<polygon fill="#63b8ff" stroke="#63b8ff" points="469.12,-382.96 470.57,-372.46 462.89,-379.76 469.12,-382.96"/>
</g>
<!-- Node16 -->
<g id="node16" class="node">
<title>Node16</title>
<g id="a_node16"><a xlink:href="fdlibm_8h.html" target="_top" xlink:title=" ">
<polygon fill="white" stroke="#666666" points="503.5,-305 453.5,-305 453.5,-286 503.5,-286 503.5,-305"/>
<text text-anchor="middle" x="478.5" y="-293" font-family="Helvetica,sans-Serif" font-size="10.00">fdlibm.h</text>
</a>
</g>
</g>
<!-- Node15&#45;&gt;Node16 -->
<g id="edge19" class="edge">
<title>Node15&#45;&gt;Node16</title>
<path fill="none" stroke="#63b8ff" d="M478.5,-340.54C478.5,-333.34 478.5,-324.53 478.5,-316.68"/>
<polygon fill="#63b8ff" stroke="#63b8ff" points="482,-316.69 478.5,-306.69 475,-316.69 482,-316.69"/>
</g>
</g>
</svg>
        <g id="navigator" transform="translate(0 0)" fill="#404254">
                <rect fill="#f2f5e9" fill-opacity="0.5" stroke="#606060" stroke-width=".5" x="0" y="0" width="60" height="60"/>
                <use id="zoomplus" xlink:href="#zoomPlus" x="17" y="9" onmousedown="handleZoom(evt,'in')"/>
                <use id="zoomminus" xlink:href="#zoomMin" x="42" y="9" onmousedown="handleZoom(evt,'out')"/>
                <use id="reset" xlink:href="#resetDef" x="30" y="36" onmousedown="handleReset()"/>
                <g id="arrowUp" xlink:href="#dirArrow" transform="translate(30 24)" onmousedown="handlePan(0,-1)">
                  <use xlink:href="#rim" fill="#404040">
                        <set attributeName="fill" to="#808080" begin="arrowUp.mouseover" end="arrowUp.mouseout"/>
                  </use>
                  <path fill="none" stroke="white" stroke-width="1.5" d="M0,-3.0v7 M-2.5,-0.5L0,-3.0L2.5,-0.5"/>
                </g>
                <g id="arrowRight" xlink:href="#dirArrow" transform="rotate(90) translate(36 -43)" onmousedown="handlePan(1,0)">
                  <use xlink:href="#rim" fill="#404040">
                        <set attributeName="fill" to="#808080" begin="arrowRight.mouseover" end="arrowRight.mouseout"/>
                  </use>
                  <path fill="none" stroke="white" stroke-width="1.5" d="M0,-3.0v7 M-2.5,-0.5L0,-3.0L2.5,-0.5"/>
                </g>
                <g id="arrowDown" xlink:href="#dirArrow" transform="rotate(180) translate(-30 -48)" onmousedown="handlePan(0,1)">
                  <use xlink:href="#rim" fill="#404040">
                        <set attributeName="fill" to="#808080" begin="arrowDown.mouseover" end="arrowDown.mouseout"/>
                  </use>
                  <path fill="none" stroke="white" stroke-width="1.5" d="M0,-3.0v7 M-2.5,-0.5L0,-3.0L2.5,-0.5"/>
                </g>
                <g id="arrowLeft" xlink:href="#dirArrow" transform="rotate(270) translate(-36 17)" onmousedown="handlePan(-1,0)">
                  <use xlink:href="#rim" fill="#404040">
                        <set attributeName="fill" to="#808080" begin="arrowLeft.mouseover" end="arrowLeft.mouseout"/>
                  </use>
                  <path fill="none" stroke="white" stroke-width="1.5" d="M0,-3.0v7 M-2.5,-0.5L0,-3.0L2.5,-0.5"/>
                </g>
        </g>
        <svg viewBox="0 0 15 15" width="100%" height="30px" preserveAspectRatio="xMaxYMin meet">
         <g id="arrow_out" transform="scale(0.3 0.3)">
          <a xlink:href="JSGFog_8cpp__incl_org.svg" target="_base">
           <rect id="button" ry="5" rx="5" y="6" x="6" height="38" width="38"
                fill="#f2f5e9" fill-opacity="0.5" stroke="#606060" stroke-width="1.0"/>
           <path id="arrow"
             d="M 11.500037,31.436501 C 11.940474,20.09759 22.043105,11.32322 32.158766,21.979434 L 37.068811,17.246167 C 37.068811,17.246167 37.088388,32 37.088388,32 L 22.160133,31.978069 C 22.160133,31.978069 26.997745,27.140456 26.997745,27.140456 C 18.528582,18.264221 13.291696,25.230495 11.500037,31.436501 z"
             style="fill:#404040;"/>
          </a>
         </g>
        </svg>
</svg>
