<?xml version="1.0" encoding="UTF-8" standalone="no"?>
<!DOCTYPE svg PUBLIC "-//W3C//DTD SVG 1.1//EN"
 "http://www.w3.org/Graphics/SVG/1.1/DTD/svg11.dtd">
<!-- Generated by graphviz version 7.0.5 (20221223.1930)
 -->
<!-- Title: include/JSystem/JStudio/JStudio/jstudio&#45;object.h Pages: 1 -->
<svg width="1671pt" height="324pt"
 viewBox="0.00 0.00 1671.00 324.00" xmlns="http://www.w3.org/2000/svg" xmlns:xlink="http://www.w3.org/1999/xlink">
<g id="graph0" class="graph" transform="scale(1 1) rotate(0) translate(4 320)">
<title>include/JSystem/JStudio/JStudio/jstudio&#45;object.h</title>
<!-- Node1 -->
<g id="node1" class="node">
<title>Node1</title>
<g id="a_node1"><a xlink:title=" ">
<polygon fill="#999999" stroke="#666666" points="877,-316 752,-316 752,-286 877,-286 877,-316"/>
<text text-anchor="start" x="760" y="-304" font-family="Helvetica,sans-Serif" font-size="10.00">include/JSystem/JStudio</text>
<text text-anchor="middle" x="814.5" y="-293" font-family="Helvetica,sans-Serif" font-size="10.00">/JStudio/jstudio&#45;object.h</text>
</a>
</g>
</g>
<!-- Node2 -->
<g id="node2" class="node">
<title>Node2</title>
<g id="a_node2"><a xlink:href="JStudio_2JStudio__JAudio2_2control_8h.html" target="_top" xlink:title=" ">
<polygon fill="white" stroke="#666666" points="641,-250 508,-250 508,-220 641,-220 641,-250"/>
<text text-anchor="start" x="516" y="-238" font-family="Helvetica,sans-Serif" font-size="10.00">include/JSystem/JStudio</text>
<text text-anchor="middle" x="574.5" y="-227" font-family="Helvetica,sans-Serif" font-size="10.00">/JStudio_JAudio2/control.h</text>
</a>
</g>
</g>
<!-- Node1&#45;&gt;Node2 -->
<g id="edge1" class="edge">
<title>Node1&#45;&gt;Node2</title>
<path fill="none" stroke="#63b8ff" d="M749.41,-282.64C711.5,-272.53 664.28,-259.94 628.46,-250.39"/>
<polygon fill="#63b8ff" stroke="#63b8ff" points="748.31,-285.97 758.88,-285.17 750.12,-279.21 748.31,-285.97"/>
</g>
<!-- Node14 -->
<g id="node14" class="node">
<title>Node14</title>
<g id="a_node14"><a xlink:href="JStudio_2JStudio__JParticle_2control_8h.html" target="_top" xlink:title=" ">
<polygon fill="white" stroke="#666666" points="284.5,-250 148.5,-250 148.5,-220 284.5,-220 284.5,-250"/>
<text text-anchor="start" x="156.5" y="-238" font-family="Helvetica,sans-Serif" font-size="10.00">include/JSystem/JStudio</text>
<text text-anchor="middle" x="216.5" y="-227" font-family="Helvetica,sans-Serif" font-size="10.00">/JStudio_JParticle/control.h</text>
</a>
</g>
</g>
<!-- Node1&#45;&gt;Node14 -->
<g id="edge13" class="edge">
<title>Node1&#45;&gt;Node14</title>
<path fill="none" stroke="#63b8ff" d="M740.33,-292.06C623.45,-279.55 398.11,-255.44 284.91,-243.32"/>
<polygon fill="#63b8ff" stroke="#63b8ff" points="739.81,-295.53 750.13,-293.11 740.56,-288.57 739.81,-295.53"/>
</g>
<!-- Node18 -->
<g id="node18" class="node">
<title>Node18</title>
<g id="a_node18"><a xlink:href="JStudio_2JStudio__JStage_2control_8h.html" target="_top" xlink:title=" ">
<polygon fill="white" stroke="#666666" points="1074.5,-250 946.5,-250 946.5,-220 1074.5,-220 1074.5,-250"/>
<text text-anchor="start" x="954.5" y="-238" font-family="Helvetica,sans-Serif" font-size="10.00">include/JSystem/JStudio</text>
<text text-anchor="middle" x="1010.5" y="-227" font-family="Helvetica,sans-Serif" font-size="10.00">/JStudio_JStage/control.h</text>
</a>
</g>
</g>
<!-- Node1&#45;&gt;Node18 -->
<g id="edge18" class="edge">
<title>Node1&#45;&gt;Node18</title>
<path fill="none" stroke="#63b8ff" d="M869.42,-282.07C900.02,-272.07 937.63,-259.79 966.32,-250.43"/>
<polygon fill="#63b8ff" stroke="#63b8ff" points="868.34,-278.74 859.93,-285.17 870.52,-285.39 868.34,-278.74"/>
</g>
<!-- Node32 -->
<g id="node32" class="node">
<title>Node32</title>
<g id="a_node32"><a xlink:href="jstudio-object_8cpp.html" target="_top" xlink:title=" ">
<polygon fill="white" stroke="#666666" points="1224,-250 1093,-250 1093,-220 1224,-220 1224,-250"/>
<text text-anchor="start" x="1101" y="-238" font-family="Helvetica,sans-Serif" font-size="10.00">libs/JSystem/JStudio</text>
<text text-anchor="middle" x="1158.5" y="-227" font-family="Helvetica,sans-Serif" font-size="10.00">/JStudio/jstudio&#45;object.cpp</text>
</a>
</g>
</g>
<!-- Node1&#45;&gt;Node32 -->
<g id="edge33" class="edge">
<title>Node1&#45;&gt;Node32</title>
<path fill="none" stroke="#63b8ff" d="M888.48,-286.26C942.52,-276.23 1017.56,-262.28 1083.5,-250 1086.5,-249.44 1089.56,-248.87 1092.65,-248.29"/>
<polygon fill="#63b8ff" stroke="#63b8ff" points="887.96,-282.8 878.77,-288.07 889.24,-289.68 887.96,-282.8"/>
</g>
<!-- Node3 -->
<g id="node3" class="node">
<title>Node3</title>
<g id="a_node3"><a xlink:href="d__demo_8h.html" target="_top" xlink:title=" ">
<polygon fill="white" stroke="#666666" points="647,-96 546,-96 546,-77 647,-77 647,-96"/>
<text text-anchor="middle" x="596.5" y="-84" font-family="Helvetica,sans-Serif" font-size="10.00">include/d/d_demo.h</text>
</a>
</g>
</g>
<!-- Node2&#45;&gt;Node3 -->
<g id="edge2" class="edge">
<title>Node2&#45;&gt;Node3</title>
<path fill="none" stroke="#63b8ff" d="M589.86,-210.15C594.18,-202.16 598.3,-192.99 600.5,-184 608.18,-152.56 602.01,-113.68 598.5,-96.44"/>
<polygon fill="#63b8ff" stroke="#63b8ff" points="586.97,-208.15 584.96,-218.55 593.02,-211.67 586.97,-208.15"/>
</g>
<!-- Node12 -->
<g id="node12" class="node">
<title>Node12</title>
<g id="a_node12"><a xlink:href="JStudio_2JStudio__JAudio2_2control_8cpp.html" target="_top" xlink:title=" ">
<polygon fill="white" stroke="#666666" points="451,-178.5 308,-178.5 308,-148.5 451,-148.5 451,-178.5"/>
<text text-anchor="start" x="316" y="-166.5" font-family="Helvetica,sans-Serif" font-size="10.00">libs/JSystem/JStudio</text>
<text text-anchor="middle" x="379.5" y="-155.5" font-family="Helvetica,sans-Serif" font-size="10.00">/JStudio_JAudio2/control.cpp</text>
</a>
</g>
</g>
<!-- Node2&#45;&gt;Node12 -->
<g id="edge11" class="edge">
<title>Node2&#45;&gt;Node12</title>
<path fill="none" stroke="#63b8ff" d="M523.5,-215.82C491.16,-204.3 449.91,-189.59 419.85,-178.88"/>
<polygon fill="#63b8ff" stroke="#63b8ff" points="522.08,-219.03 532.67,-219.09 524.43,-212.44 522.08,-219.03"/>
</g>
<!-- Node13 -->
<g id="node13" class="node">
<title>Node13</title>
<g id="a_node13"><a xlink:href="object-sound_8cpp.html" target="_top" xlink:title=" ">
<polygon fill="white" stroke="#666666" points="591.5,-184 469.5,-184 469.5,-143 591.5,-143 591.5,-184"/>
<text text-anchor="start" x="477.5" y="-172" font-family="Helvetica,sans-Serif" font-size="10.00">libs/JSystem/JStudio</text>
<text text-anchor="start" x="477.5" y="-161" font-family="Helvetica,sans-Serif" font-size="10.00">/JStudio_JAudio2/object</text>
<text text-anchor="middle" x="530.5" y="-150" font-family="Helvetica,sans-Serif" font-size="10.00">&#45;sound.cpp</text>
</a>
</g>
</g>
<!-- Node2&#45;&gt;Node13 -->
<g id="edge12" class="edge">
<title>Node2&#45;&gt;Node13</title>
<path fill="none" stroke="#63b8ff" d="M559.32,-210.02C554.03,-201.67 548.16,-192.4 543.11,-184.42"/>
<polygon fill="#63b8ff" stroke="#63b8ff" points="556.27,-211.74 564.57,-218.32 562.18,-208 556.27,-211.74"/>
</g>
<!-- Node4 -->
<g id="node4" class="node">
<title>Node4</title>
<g id="a_node4"><a xlink:href="Z2WolfHowlMgr_8cpp.html" target="_top" xlink:title=" ">
<polygon fill="white" stroke="#666666" points="180.5,-30 40.5,-30 40.5,0 180.5,0 180.5,-30"/>
<text text-anchor="start" x="48.5" y="-18" font-family="Helvetica,sans-Serif" font-size="10.00">libs/Z2AudioLib/Z2WolfHowl</text>
<text text-anchor="middle" x="110.5" y="-7" font-family="Helvetica,sans-Serif" font-size="10.00">Mgr.cpp</text>
</a>
</g>
</g>
<!-- Node3&#45;&gt;Node4 -->
<g id="edge3" class="edge">
<title>Node3&#45;&gt;Node4</title>
<path fill="none" stroke="#63b8ff" d="M534.32,-77.8C454.39,-67.73 311.38,-49.1 189.5,-30 186.61,-29.55 183.66,-29.07 180.69,-28.59"/>
<polygon fill="#63b8ff" stroke="#63b8ff" points="533.78,-81.26 544.14,-79.04 534.66,-74.32 533.78,-81.26"/>
</g>
<!-- Node5 -->
<g id="node5" class="node">
<title>Node5</title>
<g id="a_node5"><a xlink:href="d__com__static_8cpp.html" target="_top" xlink:title=" ">
<polygon fill="white" stroke="#666666" points="338.5,-24.5 198.5,-24.5 198.5,-5.5 338.5,-5.5 338.5,-24.5"/>
<text text-anchor="middle" x="268.5" y="-12.5" font-family="Helvetica,sans-Serif" font-size="10.00">src/d/com/d_com_static.cpp</text>
</a>
</g>
</g>
<!-- Node3&#45;&gt;Node5 -->
<g id="edge4" class="edge">
<title>Node3&#45;&gt;Node5</title>
<path fill="none" stroke="#63b8ff" d="M543.1,-74.18C478.25,-60.44 370.19,-37.55 310.81,-24.96"/>
<polygon fill="#63b8ff" stroke="#63b8ff" points="542.3,-77.59 552.81,-76.24 543.75,-70.75 542.3,-77.59"/>
</g>
<!-- Node6 -->
<g id="node6" class="node">
<title>Node6</title>
<g id="a_node6"><a xlink:href="d__demo_8cpp.html" target="_top" xlink:title=" ">
<polygon fill="white" stroke="#666666" points="450.5,-24.5 356.5,-24.5 356.5,-5.5 450.5,-5.5 450.5,-24.5"/>
<text text-anchor="middle" x="403.5" y="-12.5" font-family="Helvetica,sans-Serif" font-size="10.00">src/d/d_demo.cpp</text>
</a>
</g>
</g>
<!-- Node3&#45;&gt;Node6 -->
<g id="edge5" class="edge">
<title>Node3&#45;&gt;Node6</title>
<path fill="none" stroke="#63b8ff" d="M560.94,-72.69C522.4,-58.82 461.92,-37.04 428.24,-24.91"/>
<polygon fill="#63b8ff" stroke="#63b8ff" points="559.65,-75.95 570.24,-76.04 562.02,-69.36 559.65,-75.95"/>
</g>
<!-- Node7 -->
<g id="node7" class="node">
<title>Node7</title>
<g id="a_node7"><a xlink:href="d__ev__camera_8cpp.html" target="_top" xlink:title=" ">
<polygon fill="white" stroke="#666666" points="586.5,-24.5 468.5,-24.5 468.5,-5.5 586.5,-5.5 586.5,-24.5"/>
<text text-anchor="middle" x="527.5" y="-12.5" font-family="Helvetica,sans-Serif" font-size="10.00">src/d/d_ev_camera.cpp</text>
</a>
</g>
</g>
<!-- Node3&#45;&gt;Node7 -->
<g id="edge6" class="edge">
<title>Node3&#45;&gt;Node7</title>
<path fill="none" stroke="#63b8ff" d="M580.04,-68.92C566.35,-55.13 547.39,-36.03 536.39,-24.95"/>
<polygon fill="#63b8ff" stroke="#63b8ff" points="577.17,-70.99 586.69,-75.62 582.13,-66.06 577.17,-70.99"/>
</g>
<!-- Node8 -->
<g id="node8" class="node">
<title>Node8</title>
<g id="a_node8"><a xlink:href="d__event_8cpp.html" target="_top" xlink:title=" ">
<polygon fill="white" stroke="#666666" points="726,-24.5 605,-24.5 605,-5.5 726,-5.5 726,-24.5"/>
<text text-anchor="middle" x="665.5" y="-12.5" font-family="Helvetica,sans-Serif" font-size="10.00">src/d/event/d_event.cpp</text>
</a>
</g>
</g>
<!-- Node3&#45;&gt;Node8 -->
<g id="edge7" class="edge">
<title>Node3&#45;&gt;Node8</title>
<path fill="none" stroke="#63b8ff" d="M612.96,-68.92C626.65,-55.13 645.61,-36.03 656.61,-24.95"/>
<polygon fill="#63b8ff" stroke="#63b8ff" points="610.87,-66.06 606.31,-75.62 615.83,-70.99 610.87,-66.06"/>
</g>
<!-- Node9 -->
<g id="node9" class="node">
<title>Node9</title>
<g id="a_node9"><a xlink:href="d__meter2_8cpp.html" target="_top" xlink:title=" ">
<polygon fill="white" stroke="#666666" points="872.5,-24.5 744.5,-24.5 744.5,-5.5 872.5,-5.5 872.5,-24.5"/>
<text text-anchor="middle" x="808.5" y="-12.5" font-family="Helvetica,sans-Serif" font-size="10.00">src/d/meter/d_meter2.cpp</text>
</a>
</g>
</g>
<!-- Node3&#45;&gt;Node9 -->
<g id="edge8" class="edge">
<title>Node3&#45;&gt;Node9</title>
<path fill="none" stroke="#63b8ff" d="M634.48,-73.05C676.75,-59.19 744.01,-37.14 781.32,-24.91"/>
<polygon fill="#63b8ff" stroke="#63b8ff" points="633.63,-69.64 625.22,-76.08 635.81,-76.3 633.63,-69.64"/>
</g>
<!-- Node10 -->
<g id="node10" class="node">
<title>Node10</title>
<g id="a_node10"><a xlink:href="d__s__play_8cpp.html" target="_top" xlink:title=" ">
<polygon fill="white" stroke="#666666" points="996.5,-24.5 890.5,-24.5 890.5,-5.5 996.5,-5.5 996.5,-24.5"/>
<text text-anchor="middle" x="943.5" y="-12.5" font-family="Helvetica,sans-Serif" font-size="10.00">src/d/s/d_s_play.cpp</text>
</a>
</g>
</g>
<!-- Node3&#45;&gt;Node10 -->
<g id="edge9" class="edge">
<title>Node3&#45;&gt;Node10</title>
<path fill="none" stroke="#63b8ff" d="M631.95,-72.97C639.96,-70.42 648.47,-67.94 656.5,-66 754.95,-42.28 782.06,-49.16 881.5,-30 889.3,-28.5 897.62,-26.73 905.55,-24.97"/>
<polygon fill="#63b8ff" stroke="#63b8ff" points="630.9,-69.63 622.5,-76.09 633.1,-76.28 630.9,-69.63"/>
</g>
<!-- Node11 -->
<g id="node11" class="node">
<title>Node11</title>
<g id="a_node11"><a xlink:href="f__op__actor_8cpp.html" target="_top" xlink:title=" ">
<polygon fill="white" stroke="#666666" points="1134,-24.5 1015,-24.5 1015,-5.5 1134,-5.5 1134,-24.5"/>
<text text-anchor="middle" x="1074.5" y="-12.5" font-family="Helvetica,sans-Serif" font-size="10.00">src/f_op/f_op_actor.cpp</text>
</a>
</g>
</g>
<!-- Node3&#45;&gt;Node11 -->
<g id="edge10" class="edge">
<title>Node3&#45;&gt;Node11</title>
<path fill="none" stroke="#63b8ff" d="M630.94,-72.93C639.22,-70.29 648.1,-67.78 656.5,-66 809.06,-33.72 851.35,-53.53 1005.5,-30 1014.68,-28.6 1024.5,-26.79 1033.75,-24.95"/>
<polygon fill="#63b8ff" stroke="#63b8ff" points="629.94,-69.58 621.56,-76.06 632.16,-76.22 629.94,-69.58"/>
</g>
<!-- Node15 -->
<g id="node15" class="node">
<title>Node15</title>
<g id="a_node15"><a xlink:href="object-particle_8h.html" target="_top" xlink:title=" ">
<polygon fill="white" stroke="#666666" points="125,-184 0,-184 0,-143 125,-143 125,-184"/>
<text text-anchor="start" x="8" y="-172" font-family="Helvetica,sans-Serif" font-size="10.00">include/JSystem/JStudio</text>
<text text-anchor="start" x="8" y="-161" font-family="Helvetica,sans-Serif" font-size="10.00">/JStudio_JParticle/object</text>
<text text-anchor="middle" x="62.5" y="-150" font-family="Helvetica,sans-Serif" font-size="10.00">&#45;particle.h</text>
</a>
</g>
</g>
<!-- Node14&#45;&gt;Node15 -->
<g id="edge14" class="edge">
<title>Node14&#45;&gt;Node15</title>
<path fill="none" stroke="#63b8ff" d="M174.35,-214.98C153.33,-205.49 127.92,-194.02 106.63,-184.42"/>
<polygon fill="#63b8ff" stroke="#63b8ff" points="172.66,-218.05 183.21,-218.98 175.54,-211.67 172.66,-218.05"/>
</g>
<!-- Node17 -->
<g id="node17" class="node">
<title>Node17</title>
<g id="a_node17"><a xlink:href="JStudio_2JStudio__JParticle_2control_8cpp.html" target="_top" xlink:title=" ">
<polygon fill="white" stroke="#666666" points="289.5,-178.5 143.5,-178.5 143.5,-148.5 289.5,-148.5 289.5,-178.5"/>
<text text-anchor="start" x="151.5" y="-166.5" font-family="Helvetica,sans-Serif" font-size="10.00">libs/JSystem/JStudio</text>
<text text-anchor="middle" x="216.5" y="-155.5" font-family="Helvetica,sans-Serif" font-size="10.00">/JStudio_JParticle/control.cpp</text>
</a>
</g>
</g>
<!-- Node14&#45;&gt;Node17 -->
<g id="edge17" class="edge">
<title>Node14&#45;&gt;Node17</title>
<path fill="none" stroke="#63b8ff" d="M216.5,-208.26C216.5,-198.33 216.5,-187.36 216.5,-178.88"/>
<polygon fill="#63b8ff" stroke="#63b8ff" points="213,-208.09 216.5,-218.09 220,-208.09 213,-208.09"/>
</g>
<!-- Node15&#45;&gt;Node3 -->
<g id="edge15" class="edge">
<title>Node15&#45;&gt;Node3</title>
<path fill="none" stroke="#63b8ff" d="M136.29,-142.81C290.67,-113.49 462.01,-97.77 545.54,-91.19"/>
<polygon fill="#63b8ff" stroke="#63b8ff" points="135.85,-139.33 126.69,-144.66 137.17,-146.2 135.85,-139.33"/>
</g>
<!-- Node16 -->
<g id="node16" class="node">
<title>Node16</title>
<g id="a_node16"><a xlink:href="object-particle_8cpp.html" target="_top" xlink:title=" ">
<polygon fill="white" stroke="#666666" points="125,-107 0,-107 0,-66 125,-66 125,-107"/>
<text text-anchor="start" x="8" y="-95" font-family="Helvetica,sans-Serif" font-size="10.00">libs/JSystem/JStudio</text>
<text text-anchor="start" x="8" y="-84" font-family="Helvetica,sans-Serif" font-size="10.00">/JStudio_JParticle/object</text>
<text text-anchor="middle" x="62.5" y="-73" font-family="Helvetica,sans-Serif" font-size="10.00">&#45;particle.cpp</text>
</a>
</g>
</g>
<!-- Node15&#45;&gt;Node16 -->
<g id="edge16" class="edge">
<title>Node15&#45;&gt;Node16</title>
<path fill="none" stroke="#63b8ff" d="M62.5,-131.36C62.5,-123.24 62.5,-114.7 62.5,-107.33"/>
<polygon fill="#63b8ff" stroke="#63b8ff" points="59,-131.28 62.5,-141.28 66,-131.28 59,-131.28"/>
</g>
<!-- Node19 -->
<g id="node19" class="node">
<title>Node19</title>
<g id="a_node19"><a xlink:href="object-actor_8h.html" target="_top" xlink:title=" ">
<polygon fill="white" stroke="#666666" points="1073,-184 948,-184 948,-143 1073,-143 1073,-184"/>
<text text-anchor="start" x="956" y="-172" font-family="Helvetica,sans-Serif" font-size="10.00">include/JSystem/JStudio</text>
<text text-anchor="start" x="956" y="-161" font-family="Helvetica,sans-Serif" font-size="10.00">/JStudio_JStage/object</text>
<text text-anchor="middle" x="1010.5" y="-150" font-family="Helvetica,sans-Serif" font-size="10.00">&#45;actor.h</text>
</a>
</g>
</g>
<!-- Node18&#45;&gt;Node19 -->
<g id="edge19" class="edge">
<title>Node18&#45;&gt;Node19</title>
<path fill="none" stroke="#63b8ff" d="M1010.5,-208.36C1010.5,-200.45 1010.5,-191.87 1010.5,-184.42"/>
<polygon fill="#63b8ff" stroke="#63b8ff" points="1007,-208.09 1010.5,-218.09 1014,-208.09 1007,-208.09"/>
</g>
<!-- Node21 -->
<g id="node21" class="node">
<title>Node21</title>
<g id="a_node21"><a xlink:href="object-ambientlight_8h.html" target="_top" xlink:title=" ">
<polygon fill="white" stroke="#666666" points="1216,-184 1091,-184 1091,-143 1216,-143 1216,-184"/>
<text text-anchor="start" x="1099" y="-172" font-family="Helvetica,sans-Serif" font-size="10.00">include/JSystem/JStudio</text>
<text text-anchor="start" x="1099" y="-161" font-family="Helvetica,sans-Serif" font-size="10.00">/JStudio_JStage/object</text>
<text text-anchor="middle" x="1153.5" y="-150" font-family="Helvetica,sans-Serif" font-size="10.00">&#45;ambientlight.h</text>
</a>
</g>
</g>
<!-- Node18&#45;&gt;Node21 -->
<g id="edge21" class="edge">
<title>Node18&#45;&gt;Node21</title>
<path fill="none" stroke="#63b8ff" d="M1050.44,-214.59C1069.8,-205.18 1093.03,-193.89 1112.52,-184.42"/>
<polygon fill="#63b8ff" stroke="#63b8ff" points="1048.96,-211.42 1041.49,-218.94 1052.01,-217.71 1048.96,-211.42"/>
</g>
<!-- Node23 -->
<g id="node23" class="node">
<title>Node23</title>
<g id="a_node23"><a xlink:href="object-camera_8h.html" target="_top" xlink:title=" ">
<polygon fill="white" stroke="#666666" points="1359,-184 1234,-184 1234,-143 1359,-143 1359,-184"/>
<text text-anchor="start" x="1242" y="-172" font-family="Helvetica,sans-Serif" font-size="10.00">include/JSystem/JStudio</text>
<text text-anchor="start" x="1242" y="-161" font-family="Helvetica,sans-Serif" font-size="10.00">/JStudio_JStage/object</text>
<text text-anchor="middle" x="1296.5" y="-150" font-family="Helvetica,sans-Serif" font-size="10.00">&#45;camera.h</text>
</a>
</g>
</g>
<!-- Node18&#45;&gt;Node23 -->
<g id="edge23" class="edge">
<title>Node18&#45;&gt;Node23</title>
<path fill="none" stroke="#63b8ff" d="M1085.81,-217.08C1126.88,-207.68 1178.58,-195.58 1224.5,-184 1227.51,-183.24 1230.6,-182.45 1233.71,-181.65"/>
<polygon fill="#63b8ff" stroke="#63b8ff" points="1085.23,-213.62 1076.26,-219.26 1086.79,-220.45 1085.23,-213.62"/>
</g>
<!-- Node25 -->
<g id="node25" class="node">
<title>Node25</title>
<g id="a_node25"><a xlink:href="object-fog_8h.html" target="_top" xlink:title=" ">
<polygon fill="white" stroke="#666666" points="1519.5,-178.5 1377.5,-178.5 1377.5,-148.5 1519.5,-148.5 1519.5,-178.5"/>
<text text-anchor="start" x="1385.5" y="-166.5" font-family="Helvetica,sans-Serif" font-size="10.00">include/JSystem/JStudio</text>
<text text-anchor="middle" x="1448.5" y="-155.5" font-family="Helvetica,sans-Serif" font-size="10.00">/JStudio_JStage/object&#45;fog.h</text>
</a>
</g>
</g>
<!-- Node18&#45;&gt;Node25 -->
<g id="edge25" class="edge">
<title>Node18&#45;&gt;Node25</title>
<path fill="none" stroke="#63b8ff" d="M1086.11,-219.66C1211.11,-200.38 1245.89,-206.28 1367.5,-184 1375.47,-182.54 1383.83,-180.79 1392.02,-178.94"/>
<polygon fill="#63b8ff" stroke="#63b8ff" points="1085.78,-216.17 1076.44,-221.18 1086.86,-223.08 1085.78,-216.17"/>
</g>
<!-- Node27 -->
<g id="node27" class="node">
<title>Node27</title>
<g id="a_node27"><a xlink:href="object-light_8h.html" target="_top" xlink:title=" ">
<polygon fill="white" stroke="#666666" points="1663,-184 1538,-184 1538,-143 1663,-143 1663,-184"/>
<text text-anchor="start" x="1546" y="-172" font-family="Helvetica,sans-Serif" font-size="10.00">include/JSystem/JStudio</text>
<text text-anchor="start" x="1546" y="-161" font-family="Helvetica,sans-Serif" font-size="10.00">/JStudio_JStage/object</text>
<text text-anchor="middle" x="1600.5" y="-150" font-family="Helvetica,sans-Serif" font-size="10.00">&#45;light.h</text>
</a>
</g>
</g>
<!-- Node18&#45;&gt;Node27 -->
<g id="edge27" class="edge">
<title>Node18&#45;&gt;Node27</title>
<path fill="none" stroke="#63b8ff" d="M1086.19,-219.75C1282.13,-194.17 1336.65,-217.45 1528.5,-184 1531.56,-183.47 1534.68,-182.86 1537.82,-182.2"/>
<polygon fill="#63b8ff" stroke="#63b8ff" points="1085.87,-216.26 1076.42,-221.05 1086.8,-223.2 1085.87,-216.26"/>
</g>
<!-- Node29 -->
<g id="node29" class="node">
<title>Node29</title>
<g id="a_node29"><a xlink:href="object_8h.html" target="_top" xlink:title=" ">
<polygon fill="white" stroke="#666666" points="773,-178.5 648,-178.5 648,-148.5 773,-148.5 773,-178.5"/>
<text text-anchor="start" x="656" y="-166.5" font-family="Helvetica,sans-Serif" font-size="10.00">include/JSystem/JStudio</text>
<text text-anchor="middle" x="710.5" y="-155.5" font-family="Helvetica,sans-Serif" font-size="10.00">/JStudio_JStage/object.h</text>
</a>
</g>
</g>
<!-- Node18&#45;&gt;Node29 -->
<g id="edge29" class="edge">
<title>Node18&#45;&gt;Node29</title>
<path fill="none" stroke="#63b8ff" d="M935.04,-218.58C890.28,-209.16 832.5,-196.56 781.5,-184 775.17,-182.44 768.54,-180.73 761.99,-178.99"/>
<polygon fill="#63b8ff" stroke="#63b8ff" points="934.14,-221.96 944.65,-220.59 935.58,-215.11 934.14,-221.96"/>
</g>
<!-- Node31 -->
<g id="node31" class="node">
<title>Node31</title>
<g id="a_node31"><a xlink:href="JStudio_2JStudio__JStage_2control_8cpp.html" target="_top" xlink:title=" ">
<polygon fill="white" stroke="#666666" points="930,-178.5 791,-178.5 791,-148.5 930,-148.5 930,-178.5"/>
<text text-anchor="start" x="799" y="-166.5" font-family="Helvetica,sans-Serif" font-size="10.00">libs/JSystem/JStudio</text>
<text text-anchor="middle" x="860.5" y="-155.5" font-family="Helvetica,sans-Serif" font-size="10.00">/JStudio_JStage/control.cpp</text>
</a>
</g>
</g>
<!-- Node18&#45;&gt;Node31 -->
<g id="edge32" class="edge">
<title>Node18&#45;&gt;Node31</title>
<path fill="none" stroke="#63b8ff" d="M968.98,-214.76C944.47,-203.41 913.96,-189.27 891.54,-178.88"/>
<polygon fill="#63b8ff" stroke="#63b8ff" points="967.5,-217.93 978.05,-218.96 970.44,-211.58 967.5,-217.93"/>
</g>
<!-- Node20 -->
<g id="node20" class="node">
<title>Node20</title>
<g id="a_node20"><a xlink:href="object-actor_8cpp.html" target="_top" xlink:title=" ">
<polygon fill="white" stroke="#666666" points="1069.5,-107 951.5,-107 951.5,-66 1069.5,-66 1069.5,-107"/>
<text text-anchor="start" x="959.5" y="-95" font-family="Helvetica,sans-Serif" font-size="10.00">libs/JSystem/JStudio</text>
<text text-anchor="start" x="959.5" y="-84" font-family="Helvetica,sans-Serif" font-size="10.00">/JStudio_JStage/object</text>
<text text-anchor="middle" x="1010.5" y="-73" font-family="Helvetica,sans-Serif" font-size="10.00">&#45;actor.cpp</text>
</a>
</g>
</g>
<!-- Node19&#45;&gt;Node20 -->
<g id="edge20" class="edge">
<title>Node19&#45;&gt;Node20</title>
<path fill="none" stroke="#63b8ff" d="M1010.5,-131.36C1010.5,-123.24 1010.5,-114.7 1010.5,-107.33"/>
<polygon fill="#63b8ff" stroke="#63b8ff" points="1007,-131.28 1010.5,-141.28 1014,-131.28 1007,-131.28"/>
</g>
<!-- Node22 -->
<g id="node22" class="node">
<title>Node22</title>
<g id="a_node22"><a xlink:href="object-ambientlight_8cpp.html" target="_top" xlink:title=" ">
<polygon fill="white" stroke="#666666" points="1212.5,-107 1094.5,-107 1094.5,-66 1212.5,-66 1212.5,-107"/>
<text text-anchor="start" x="1102.5" y="-95" font-family="Helvetica,sans-Serif" font-size="10.00">libs/JSystem/JStudio</text>
<text text-anchor="start" x="1102.5" y="-84" font-family="Helvetica,sans-Serif" font-size="10.00">/JStudio_JStage/object</text>
<text text-anchor="middle" x="1153.5" y="-73" font-family="Helvetica,sans-Serif" font-size="10.00">&#45;ambientlight.cpp</text>
</a>
</g>
</g>
<!-- Node21&#45;&gt;Node22 -->
<g id="edge22" class="edge">
<title>Node21&#45;&gt;Node22</title>
<path fill="none" stroke="#63b8ff" d="M1153.5,-131.36C1153.5,-123.24 1153.5,-114.7 1153.5,-107.33"/>
<polygon fill="#63b8ff" stroke="#63b8ff" points="1150,-131.28 1153.5,-141.28 1157,-131.28 1150,-131.28"/>
</g>
<!-- Node24 -->
<g id="node24" class="node">
<title>Node24</title>
<g id="a_node24"><a xlink:href="object-camera_8cpp.html" target="_top" xlink:title=" ">
<polygon fill="white" stroke="#666666" points="1355.5,-107 1237.5,-107 1237.5,-66 1355.5,-66 1355.5,-107"/>
<text text-anchor="start" x="1245.5" y="-95" font-family="Helvetica,sans-Serif" font-size="10.00">libs/JSystem/JStudio</text>
<text text-anchor="start" x="1245.5" y="-84" font-family="Helvetica,sans-Serif" font-size="10.00">/JStudio_JStage/object</text>
<text text-anchor="middle" x="1296.5" y="-73" font-family="Helvetica,sans-Serif" font-size="10.00">&#45;camera.cpp</text>
</a>
</g>
</g>
<!-- Node23&#45;&gt;Node24 -->
<g id="edge24" class="edge">
<title>Node23&#45;&gt;Node24</title>
<path fill="none" stroke="#63b8ff" d="M1296.5,-131.36C1296.5,-123.24 1296.5,-114.7 1296.5,-107.33"/>
<polygon fill="#63b8ff" stroke="#63b8ff" points="1293,-131.28 1296.5,-141.28 1300,-131.28 1293,-131.28"/>
</g>
<!-- Node26 -->
<g id="node26" class="node">
<title>Node26</title>
<g id="a_node26"><a xlink:href="object-fog_8cpp.html" target="_top" xlink:title=" ">
<polygon fill="white" stroke="#666666" points="1507.5,-107 1389.5,-107 1389.5,-66 1507.5,-66 1507.5,-107"/>
<text text-anchor="start" x="1397.5" y="-95" font-family="Helvetica,sans-Serif" font-size="10.00">libs/JSystem/JStudio</text>
<text text-anchor="start" x="1397.5" y="-84" font-family="Helvetica,sans-Serif" font-size="10.00">/JStudio_JStage/object</text>
<text text-anchor="middle" x="1448.5" y="-73" font-family="Helvetica,sans-Serif" font-size="10.00">&#45;fog.cpp</text>
</a>
</g>
</g>
<!-- Node25&#45;&gt;Node26 -->
<g id="edge26" class="edge">
<title>Node25&#45;&gt;Node26</title>
<path fill="none" stroke="#63b8ff" d="M1448.5,-136.68C1448.5,-127.06 1448.5,-116.3 1448.5,-107.3"/>
<polygon fill="#63b8ff" stroke="#63b8ff" points="1445,-136.53 1448.5,-146.53 1452,-136.53 1445,-136.53"/>
</g>
<!-- Node28 -->
<g id="node28" class="node">
<title>Node28</title>
<g id="a_node28"><a xlink:href="object-light_8cpp.html" target="_top" xlink:title=" ">
<polygon fill="white" stroke="#666666" points="1659.5,-107 1541.5,-107 1541.5,-66 1659.5,-66 1659.5,-107"/>
<text text-anchor="start" x="1549.5" y="-95" font-family="Helvetica,sans-Serif" font-size="10.00">libs/JSystem/JStudio</text>
<text text-anchor="start" x="1549.5" y="-84" font-family="Helvetica,sans-Serif" font-size="10.00">/JStudio_JStage/object</text>
<text text-anchor="middle" x="1600.5" y="-73" font-family="Helvetica,sans-Serif" font-size="10.00">&#45;light.cpp</text>
</a>
</g>
</g>
<!-- Node27&#45;&gt;Node28 -->
<g id="edge28" class="edge">
<title>Node27&#45;&gt;Node28</title>
<path fill="none" stroke="#63b8ff" d="M1600.5,-131.36C1600.5,-123.24 1600.5,-114.7 1600.5,-107.33"/>
<polygon fill="#63b8ff" stroke="#63b8ff" points="1597,-131.28 1600.5,-141.28 1604,-131.28 1597,-131.28"/>
</g>
<!-- Node29&#45;&gt;Node3 -->
<g id="edge30" class="edge">
<title>Node29&#45;&gt;Node3</title>
<path fill="none" stroke="#63b8ff" d="M678.94,-141.74C656.22,-126.79 626.7,-107.37 609.86,-96.29"/>
<polygon fill="#63b8ff" stroke="#63b8ff" points="676.98,-144.64 687.26,-147.21 680.82,-138.79 676.98,-144.64"/>
</g>
<!-- Node30 -->
<g id="node30" class="node">
<title>Node30</title>
<g id="a_node30"><a xlink:href="object_8cpp.html" target="_top" xlink:title=" ">
<polygon fill="white" stroke="#666666" points="801.5,-101.5 665.5,-101.5 665.5,-71.5 801.5,-71.5 801.5,-101.5"/>
<text text-anchor="start" x="673.5" y="-89.5" font-family="Helvetica,sans-Serif" font-size="10.00">libs/JSystem/JStudio</text>
<text text-anchor="middle" x="733.5" y="-78.5" font-family="Helvetica,sans-Serif" font-size="10.00">/JStudio_JStage/object.cpp</text>
</a>
</g>
</g>
<!-- Node29&#45;&gt;Node30 -->
<g id="edge31" class="edge">
<title>Node29&#45;&gt;Node30</title>
<path fill="none" stroke="#63b8ff" d="M718.29,-137.1C721.89,-125.37 726.03,-111.87 729.08,-101.92"/>
<polygon fill="#63b8ff" stroke="#63b8ff" points="714.96,-136.01 715.38,-146.59 721.66,-138.06 714.96,-136.01"/>
</g>
</g>
</svg>
