<?xml version="1.0" encoding="UTF-8" standalone="no"?>
<!DOCTYPE svg PUBLIC "-//W3C//DTD SVG 1.1//EN"
 "http://www.w3.org/Graphics/SVG/1.1/DTD/svg11.dtd">
<!-- Generated by graphviz version 7.0.5 (20221223.1930)
 -->
<!-- Title: libs/JSystem/JStudio/JStudio/jstudio&#45;math.cpp Pages: 1 -->
<!--zoomable 478 -->
<svg id="main" version="1.1" xmlns="http://www.w3.org/2000/svg" xmlns:xlink="http://www.w3.org/1999/xlink" xml:space="preserve" onload="init(evt)">
<style type="text/css"><![CDATA[
.edge:hover path { stroke: red; }
.edge:hover polygon { stroke: red; fill: red; }
]]></style>
<script type="text/javascript"><![CDATA[
var edges = document.getElementsByTagName('g');
if (edges && edges.length) {
  for (var i=0;i<edges.length;i++) {
    if (edges[i].id.substr(0,4)=='edge') {
      edges[i].setAttribute('class','edge');
    }
  }
}
]]></script>
        <defs>
                <circle id="rim" cx="0" cy="0" r="7"/>
                <circle id="rim2" cx="0" cy="0" r="3.5"/>
                <g id="zoomPlus">
                        <use xlink:href="#rim" fill="#404040">
                                <set attributeName="fill" to="#808080" begin="zoomplus.mouseover" end="zoomplus.mouseout"/>
                        </use>
                        <path d="M-4,0h8M0,-4v8" fill="none" stroke="white" stroke-width="1.5" pointer-events="none"/>
                </g>
                <g id="zoomMin">
                        <use xlink:href="#rim" fill="#404040">
                                <set attributeName="fill" to="#808080" begin="zoomminus.mouseover" end="zoomminus.mouseout"/>
                        </use>
                        <path d="M-4,0h8" fill="none" stroke="white" stroke-width="1.5" pointer-events="none"/>
                </g>
                <g id="dirArrow">
                        <path fill="none" stroke="white" stroke-width="1.5" d="M0,-3.0v7 M-2.5,-0.5L0,-3.0L2.5,-0.5"/>
                </g>
               <g id="resetDef">
                       <use xlink:href="#rim2" fill="#404040">
                               <set attributeName="fill" to="#808080" begin="reset.mouseover" end="reset.mouseout"/>
                       </use>
               </g>
        </defs>

<script type="text/javascript">
var viewWidth = 885;
var viewHeight = 478;
var sectionId = 'dynsection-0';
</script>
<script xlink:href="svgpan.js"/>
<svg id="graph" class="graph">
<g id="viewport">
<title>libs/JSystem/JStudio/JStudio/jstudio&#45;math.cpp</title>
<!-- Node1 -->
<g id="node1" class="node">
<title>Node1</title>
<g id="a_node1"><a xlink:title=" ">
<polygon fill="#999999" stroke="#666666" points="444,-470 317,-470 317,-440 444,-440 444,-470"/>
<text text-anchor="start" x="325" y="-458" font-family="Helvetica,sans-Serif" font-size="10.00">libs/JSystem/JStudio</text>
<text text-anchor="middle" x="380.5" y="-447" font-family="Helvetica,sans-Serif" font-size="10.00">/JStudio/jstudio&#45;math.cpp</text>
</a>
</g>
</g>
<!-- Node2 -->
<g id="node2" class="node">
<title>Node2</title>
<g id="a_node2"><a xlink:href="jstudio-math_8h.html" target="_top" xlink:title=" ">
<polygon fill="white" stroke="#666666" points="195,-387.5 68,-387.5 68,-357.5 195,-357.5 195,-387.5"/>
<text text-anchor="start" x="76" y="-375.5" font-family="Helvetica,sans-Serif" font-size="10.00">JSystem/JStudio/JStudio</text>
<text text-anchor="middle" x="131.5" y="-364.5" font-family="Helvetica,sans-Serif" font-size="10.00">/jstudio&#45;math.h</text>
</a>
</g>
</g>
<!-- Node1&#45;&gt;Node2 -->
<g id="edge1" class="edge">
<title>Node1&#45;&gt;Node2</title>
<path fill="none" stroke="#63b8ff" d="M323.29,-439.59C288.6,-430.4 243.63,-417.68 204.5,-404 194.5,-400.51 183.9,-396.35 173.97,-392.25"/>
<polygon fill="#63b8ff" stroke="#63b8ff" points="175.49,-389.09 164.92,-388.44 172.78,-395.54 175.49,-389.09"/>
</g>
<!-- Node10 -->
<g id="node10" class="node">
<title>Node10</title>
<g id="a_node10"><a xlink:href="dol2asm_8h.html" target="_top" xlink:title=" ">
<polygon fill="white" stroke="#666666" points="274,-382 213,-382 213,-363 274,-363 274,-382"/>
<text text-anchor="middle" x="243.5" y="-370" font-family="Helvetica,sans-Serif" font-size="10.00">dol2asm.h</text>
</a>
</g>
</g>
<!-- Node1&#45;&gt;Node10 -->
<g id="edge11" class="edge">
<title>Node1&#45;&gt;Node10</title>
<path fill="none" stroke="#63b8ff" d="M349.15,-439.58C329.77,-430.24 304.64,-417.36 283.5,-404 276.46,-399.55 269.11,-394.18 262.66,-389.19"/>
<polygon fill="#63b8ff" stroke="#63b8ff" points="265.19,-386.73 255.18,-383.26 260.84,-392.22 265.19,-386.73"/>
</g>
<!-- Node11 -->
<g id="node11" class="node">
<title>Node11</title>
<g id="a_node11"><a xlink:title=" ">
<polygon fill="#e0e0e0" stroke="#999999" points="468.5,-398.5 292.5,-398.5 292.5,-346.5 468.5,-346.5 468.5,-398.5"/>
<text text-anchor="start" x="300.5" y="-386.5" font-family="Helvetica,sans-Serif" font-size="10.00">asm/JSystem/JStudio</text>
<text text-anchor="start" x="300.5" y="-375.5" font-family="Helvetica,sans-Serif" font-size="10.00">/JStudio/jstudio&#45;math</text>
<text text-anchor="start" x="300.5" y="-364.5" font-family="Helvetica,sans-Serif" font-size="10.00">/getRotation_xyz__Q27JStudio4math</text>
<text text-anchor="middle" x="380.5" y="-353.5" font-family="Helvetica,sans-Serif" font-size="10.00">FPA4_ffff.s</text>
</a>
</g>
</g>
<!-- Node1&#45;&gt;Node11 -->
<g id="edge12" class="edge">
<title>Node1&#45;&gt;Node11</title>
<path fill="none" stroke="#63b8ff" d="M380.5,-439.61C380.5,-431.39 380.5,-420.69 380.5,-410.29"/>
<polygon fill="#63b8ff" stroke="#63b8ff" points="384,-410.35 380.5,-400.35 377,-410.35 384,-410.35"/>
</g>
<!-- Node12 -->
<g id="node12" class="node">
<title>Node12</title>
<g id="a_node12"><a xlink:title=" ">
<polygon fill="#e0e0e0" stroke="#999999" points="680,-404 487,-404 487,-341 680,-341 680,-404"/>
<text text-anchor="start" x="495" y="-392" font-family="Helvetica,sans-Serif" font-size="10.00">asm/JSystem/JStudio</text>
<text text-anchor="start" x="495" y="-381" font-family="Helvetica,sans-Serif" font-size="10.00">/JStudio/jstudio&#45;math</text>
<text text-anchor="start" x="495" y="-370" font-family="Helvetica,sans-Serif" font-size="10.00">/getTransformation_SRxyzT</text>
<text text-anchor="start" x="495" y="-359" font-family="Helvetica,sans-Serif" font-size="10.00">__Q27JStudio4mathFPA4_fRC3VecRC3</text>
<text text-anchor="middle" x="583.5" y="-348" font-family="Helvetica,sans-Serif" font-size="10.00">VecRC3Vec.s</text>
</a>
</g>
</g>
<!-- Node1&#45;&gt;Node12 -->
<g id="edge13" class="edge">
<title>Node1&#45;&gt;Node12</title>
<path fill="none" stroke="#63b8ff" d="M416.79,-439.61C438.64,-430.95 467.46,-419.51 495,-408.6"/>
<polygon fill="#63b8ff" stroke="#63b8ff" points="496.06,-411.94 504.06,-405 493.48,-405.43 496.06,-411.94"/>
</g>
<!-- Node13 -->
<g id="node13" class="node">
<title>Node13</title>
<g id="a_node13"><a xlink:title=" ">
<polygon fill="#e0e0e0" stroke="#999999" points="877,-404 698,-404 698,-341 877,-341 877,-404"/>
<text text-anchor="start" x="706" y="-392" font-family="Helvetica,sans-Serif" font-size="10.00">asm/JSystem/JStudio</text>
<text text-anchor="start" x="706" y="-381" font-family="Helvetica,sans-Serif" font-size="10.00">/JStudio/jstudio&#45;math</text>
<text text-anchor="start" x="706" y="-370" font-family="Helvetica,sans-Serif" font-size="10.00">/getFromTransformation</text>
<text text-anchor="start" x="706" y="-359" font-family="Helvetica,sans-Serif" font-size="10.00">_SRxyzT__Q27JStudio4mathFP3Vec</text>
<text text-anchor="middle" x="787.5" y="-348" font-family="Helvetica,sans-Serif" font-size="10.00">P3VecP3VecPA4_Cf.s</text>
</a>
</g>
</g>
<!-- Node1&#45;&gt;Node13 -->
<g id="edge14" class="edge">
<title>Node1&#45;&gt;Node13</title>
<path fill="none" stroke="#63b8ff" d="M444.34,-446.35C504.67,-438.52 597.83,-424.87 686.57,-404.58"/>
<polygon fill="#63b8ff" stroke="#63b8ff" points="687.23,-408.02 696.18,-402.35 685.65,-401.2 687.23,-408.02"/>
</g>
<!-- Node3 -->
<g id="node3" class="node">
<title>Node3</title>
<g id="a_node3"><a xlink:href="mtxvec_8h.html" target="_top" xlink:title=" ">
<polygon fill="white" stroke="#666666" points="185.5,-305 77.5,-305 77.5,-286 185.5,-286 185.5,-305"/>
<text text-anchor="middle" x="131.5" y="-293" font-family="Helvetica,sans-Serif" font-size="10.00">dolphin/mtx/mtxvec.h</text>
</a>
</g>
</g>
<!-- Node2&#45;&gt;Node3 -->
<g id="edge2" class="edge">
<title>Node2&#45;&gt;Node3</title>
<path fill="none" stroke="#63b8ff" d="M131.5,-357.04C131.5,-345.55 131.5,-329.34 131.5,-316.59"/>
<polygon fill="#63b8ff" stroke="#63b8ff" points="135,-316.8 131.5,-306.8 128,-316.8 135,-316.8"/>
</g>
<!-- Node4 -->
<g id="node4" class="node">
<title>Node4</title>
<g id="a_node4"><a xlink:href="mtx_8h.html" target="_top" xlink:title=" ">
<polygon fill="white" stroke="#666666" points="177.5,-250 85.5,-250 85.5,-231 177.5,-231 177.5,-250"/>
<text text-anchor="middle" x="131.5" y="-238" font-family="Helvetica,sans-Serif" font-size="10.00">dolphin/mtx/mtx.h</text>
</a>
</g>
</g>
<!-- Node3&#45;&gt;Node4 -->
<g id="edge3" class="edge">
<title>Node3&#45;&gt;Node4</title>
<path fill="none" stroke="#63b8ff" d="M131.5,-285.75C131.5,-279.27 131.5,-270.16 131.5,-261.9"/>
<polygon fill="#63b8ff" stroke="#63b8ff" points="135,-261.96 131.5,-251.96 128,-261.96 135,-261.96"/>
</g>
<!-- Node5 -->
<g id="node5" class="node">
<title>Node5</title>
<g id="a_node5"><a xlink:href="mtx44_8h.html" target="_top" xlink:title=" ">
<polygon fill="white" stroke="#666666" points="103,-140 0,-140 0,-121 103,-121 103,-140"/>
<text text-anchor="middle" x="51.5" y="-128" font-family="Helvetica,sans-Serif" font-size="10.00">dolphin/mtx/mtx44.h</text>
</a>
</g>
</g>
<!-- Node4&#45;&gt;Node5 -->
<g id="edge4" class="edge">
<title>Node4&#45;&gt;Node5</title>
<path fill="none" stroke="#63b8ff" d="M124.95,-230.66C111.89,-213.02 82.33,-173.12 64.96,-149.67"/>
<polygon fill="#63b8ff" stroke="#63b8ff" points="67.8,-147.63 59.04,-141.68 62.18,-151.8 67.8,-147.63"/>
</g>
<!-- Node6 -->
<g id="node6" class="node">
<title>Node6</title>
<g id="a_node6"><a xlink:href="types_8h.html" target="_top" xlink:title=" ">
<polygon fill="white" stroke="#666666" points="172,-85 91,-85 91,-66 172,-66 172,-85"/>
<text text-anchor="middle" x="131.5" y="-73" font-family="Helvetica,sans-Serif" font-size="10.00">dolphin/types.h</text>
</a>
</g>
</g>
<!-- Node4&#45;&gt;Node6 -->
<g id="edge10" class="edge">
<title>Node4&#45;&gt;Node6</title>
<path fill="none" stroke="#63b8ff" d="M131.5,-230.74C131.5,-205.53 131.5,-132.36 131.5,-96.62"/>
<polygon fill="#63b8ff" stroke="#63b8ff" points="135,-96.82 131.5,-86.82 128,-96.82 135,-96.82"/>
</g>
<!-- Node8 -->
<g id="node8" class="node">
<title>Node8</title>
<g id="a_node8"><a xlink:href="quat_8h.html" target="_top" xlink:title=" ">
<polygon fill="white" stroke="#666666" points="255,-195 160,-195 160,-176 255,-176 255,-195"/>
<text text-anchor="middle" x="207.5" y="-183" font-family="Helvetica,sans-Serif" font-size="10.00">dolphin/mtx/quat.h</text>
</a>
</g>
</g>
<!-- Node4&#45;&gt;Node8 -->
<g id="edge7" class="edge">
<title>Node4&#45;&gt;Node8</title>
<path fill="none" stroke="#63b8ff" d="M144.39,-230.51C155.6,-222.7 172.07,-211.21 185.38,-201.93"/>
<polygon fill="#63b8ff" stroke="#63b8ff" points="187.36,-204.81 193.56,-196.22 183.35,-199.07 187.36,-204.81"/>
</g>
<!-- Node5&#45;&gt;Node6 -->
<g id="edge5" class="edge">
<title>Node5&#45;&gt;Node6</title>
<path fill="none" stroke="#63b8ff" d="M65.07,-120.51C76.98,-112.62 94.55,-100.98 108.63,-91.65"/>
<polygon fill="#63b8ff" stroke="#63b8ff" points="110.46,-94.63 116.87,-86.19 106.6,-88.8 110.46,-94.63"/>
</g>
<!-- Node7 -->
<g id="node7" class="node">
<title>Node7</title>
<g id="a_node7"><a xlink:href="stddef_8h.html" target="_top" xlink:title=" ">
<polygon fill="white" stroke="#666666" points="199.5,-30 63.5,-30 63.5,0 199.5,0 199.5,-30"/>
<text text-anchor="start" x="71.5" y="-18" font-family="Helvetica,sans-Serif" font-size="10.00">MSL_C/MSL_Common/Src</text>
<text text-anchor="middle" x="131.5" y="-7" font-family="Helvetica,sans-Serif" font-size="10.00">/stddef.h</text>
</a>
</g>
</g>
<!-- Node6&#45;&gt;Node7 -->
<g id="edge6" class="edge">
<title>Node6&#45;&gt;Node7</title>
<path fill="none" stroke="#63b8ff" d="M131.5,-65.87C131.5,-59.4 131.5,-50.2 131.5,-41.45"/>
<polygon fill="#63b8ff" stroke="#63b8ff" points="135,-41.63 131.5,-31.63 128,-41.63 135,-41.63"/>
</g>
<!-- Node9 -->
<g id="node9" class="node">
<title>Node9</title>
<g id="a_node9"><a xlink:href="vec_8h.html" target="_top" xlink:title=" ">
<polygon fill="white" stroke="#666666" points="252.5,-140 160.5,-140 160.5,-121 252.5,-121 252.5,-140"/>
<text text-anchor="middle" x="206.5" y="-128" font-family="Helvetica,sans-Serif" font-size="10.00">dolphin/mtx/vec.h</text>
</a>
</g>
</g>
<!-- Node8&#45;&gt;Node9 -->
<g id="edge8" class="edge">
<title>Node8&#45;&gt;Node9</title>
<path fill="none" stroke="#63b8ff" d="M207.33,-175.75C207.21,-169.27 207.04,-160.16 206.88,-151.9"/>
<polygon fill="#63b8ff" stroke="#63b8ff" points="210.39,-151.89 206.7,-141.96 203.39,-152.02 210.39,-151.89"/>
</g>
<!-- Node9&#45;&gt;Node6 -->
<g id="edge9" class="edge">
<title>Node9&#45;&gt;Node6</title>
<path fill="none" stroke="#63b8ff" d="M193.78,-120.51C182.72,-112.7 166.46,-101.21 153.33,-91.93"/>
<polygon fill="#63b8ff" stroke="#63b8ff" points="155.46,-89.14 145.27,-86.23 151.42,-94.86 155.46,-89.14"/>
</g>
</g>
</svg>
        <g id="navigator" transform="translate(0 0)" fill="#404254">
                <rect fill="#f2f5e9" fill-opacity="0.5" stroke="#606060" stroke-width=".5" x="0" y="0" width="60" height="60"/>
                <use id="zoomplus" xlink:href="#zoomPlus" x="17" y="9" onmousedown="handleZoom(evt,'in')"/>
                <use id="zoomminus" xlink:href="#zoomMin" x="42" y="9" onmousedown="handleZoom(evt,'out')"/>
                <use id="reset" xlink:href="#resetDef" x="30" y="36" onmousedown="handleReset()"/>
                <g id="arrowUp" xlink:href="#dirArrow" transform="translate(30 24)" onmousedown="handlePan(0,-1)">
                  <use xlink:href="#rim" fill="#404040">
                        <set attributeName="fill" to="#808080" begin="arrowUp.mouseover" end="arrowUp.mouseout"/>
                  </use>
                  <path fill="none" stroke="white" stroke-width="1.5" d="M0,-3.0v7 M-2.5,-0.5L0,-3.0L2.5,-0.5"/>
                </g>
                <g id="arrowRight" xlink:href="#dirArrow" transform="rotate(90) translate(36 -43)" onmousedown="handlePan(1,0)">
                  <use xlink:href="#rim" fill="#404040">
                        <set attributeName="fill" to="#808080" begin="arrowRight.mouseover" end="arrowRight.mouseout"/>
                  </use>
                  <path fill="none" stroke="white" stroke-width="1.5" d="M0,-3.0v7 M-2.5,-0.5L0,-3.0L2.5,-0.5"/>
                </g>
                <g id="arrowDown" xlink:href="#dirArrow" transform="rotate(180) translate(-30 -48)" onmousedown="handlePan(0,1)">
                  <use xlink:href="#rim" fill="#404040">
                        <set attributeName="fill" to="#808080" begin="arrowDown.mouseover" end="arrowDown.mouseout"/>
                  </use>
                  <path fill="none" stroke="white" stroke-width="1.5" d="M0,-3.0v7 M-2.5,-0.5L0,-3.0L2.5,-0.5"/>
                </g>
                <g id="arrowLeft" xlink:href="#dirArrow" transform="rotate(270) translate(-36 17)" onmousedown="handlePan(-1,0)">
                  <use xlink:href="#rim" fill="#404040">
                        <set attributeName="fill" to="#808080" begin="arrowLeft.mouseover" end="arrowLeft.mouseout"/>
                  </use>
                  <path fill="none" stroke="white" stroke-width="1.5" d="M0,-3.0v7 M-2.5,-0.5L0,-3.0L2.5,-0.5"/>
                </g>
        </g>
        <svg viewBox="0 0 15 15" width="100%" height="30px" preserveAspectRatio="xMaxYMin meet">
         <g id="arrow_out" transform="scale(0.3 0.3)">
          <a xlink:href="jstudio-math_8cpp__incl_org.svg" target="_base">
           <rect id="button" ry="5" rx="5" y="6" x="6" height="38" width="38"
                fill="#f2f5e9" fill-opacity="0.5" stroke="#606060" stroke-width="1.0"/>
           <path id="arrow"
             d="M 11.500037,31.436501 C 11.940474,20.09759 22.043105,11.32322 32.158766,21.979434 L 37.068811,17.246167 C 37.068811,17.246167 37.088388,32 37.088388,32 L 22.160133,31.978069 C 22.160133,31.978069 26.997745,27.140456 26.997745,27.140456 C 18.528582,18.264221 13.291696,25.230495 11.500037,31.436501 z"
             style="fill:#404040;"/>
          </a>
         </g>
        </svg>
</svg>
