<?xml version="1.0" encoding="UTF-8" standalone="no"?>
<!DOCTYPE svg PUBLIC "-//W3C//DTD SVG 1.1//EN"
 "http://www.w3.org/Graphics/SVG/1.1/DTD/svg11.dtd">
<!-- Generated by graphviz version 7.0.5 (20221223.1930)
 -->
<!-- Title: include/JSystem/JSupport/JSUInputStream.h Pages: 1 -->
<svg width="1555pt" height="236pt"
 viewBox="0.00 0.00 1554.50 236.00" xmlns="http://www.w3.org/2000/svg" xmlns:xlink="http://www.w3.org/1999/xlink">
<g id="graph0" class="graph" transform="scale(1 1) rotate(0) translate(4 232)">
<title>include/JSystem/JSupport/JSUInputStream.h</title>
<!-- Node1 -->
<g id="node1" class="node">
<title>Node1</title>
<g id="a_node1"><a xlink:title=" ">
<polygon fill="#999999" stroke="#666666" points="1384,-228 1253,-228 1253,-198 1384,-198 1384,-228"/>
<text text-anchor="start" x="1261" y="-216" font-family="Helvetica,sans-Serif" font-size="10.00">include/JSystem/JSupport</text>
<text text-anchor="middle" x="1318.5" y="-205" font-family="Helvetica,sans-Serif" font-size="10.00">/JSUInputStream.h</text>
</a>
</g>
</g>
<!-- Node2 -->
<g id="node2" class="node">
<title>Node2</title>
<g id="a_node2"><a xlink:href="JSURandomInputStream_8h.html" target="_top" xlink:title=" ">
<polygon fill="white" stroke="#666666" points="1055.5,-162 919.5,-162 919.5,-132 1055.5,-132 1055.5,-162"/>
<text text-anchor="start" x="927.5" y="-150" font-family="Helvetica,sans-Serif" font-size="10.00">include/JSystem/JSupport</text>
<text text-anchor="middle" x="987.5" y="-139" font-family="Helvetica,sans-Serif" font-size="10.00">/JSURandomInputStream.h</text>
</a>
</g>
</g>
<!-- Node1&#45;&gt;Node2 -->
<g id="edge1" class="edge">
<title>Node1&#45;&gt;Node2</title>
<path fill="none" stroke="#63b8ff" d="M1241.73,-197.16C1185.5,-186.28 1109.85,-171.66 1055.73,-161.19"/>
<polygon fill="#63b8ff" stroke="#63b8ff" points="1240.74,-200.53 1251.22,-198.99 1242.07,-193.66 1240.74,-200.53"/>
</g>
<!-- Node17 -->
<g id="node17" class="node">
<title>Node17</title>
<g id="a_node17"><a xlink:href="JSUInputStream_8cpp.html" target="_top" xlink:title=" ">
<polygon fill="white" stroke="#666666" points="1523,-96 1408,-96 1408,-66 1523,-66 1523,-96"/>
<text text-anchor="start" x="1416" y="-84" font-family="Helvetica,sans-Serif" font-size="10.00">libs/JSystem/JSupport</text>
<text text-anchor="middle" x="1465.5" y="-73" font-family="Helvetica,sans-Serif" font-size="10.00">/JSUInputStream.cpp</text>
</a>
</g>
</g>
<!-- Node1&#45;&gt;Node17 -->
<g id="edge18" class="edge">
<title>Node1&#45;&gt;Node17</title>
<path fill="none" stroke="#63b8ff" d="M1300.69,-188.41C1290.16,-171.37 1281.09,-148.54 1293.5,-132 1300.64,-122.49 1360.68,-106.49 1407.84,-95.15"/>
<polygon fill="#63b8ff" stroke="#63b8ff" points="1297.58,-190.06 1306.06,-196.42 1303.4,-186.17 1297.58,-190.06"/>
</g>
<!-- Node18 -->
<g id="node18" class="node">
<title>Node18</title>
<g id="a_node18"><a xlink:href="J2DManage_8cpp.html" target="_top" xlink:title=" ">
<polygon fill="white" stroke="#666666" points="1422,-162 1303,-162 1303,-132 1422,-132 1422,-162"/>
<text text-anchor="start" x="1311" y="-150" font-family="Helvetica,sans-Serif" font-size="10.00">libs/JSystem/J2DGraph</text>
<text text-anchor="middle" x="1362.5" y="-139" font-family="Helvetica,sans-Serif" font-size="10.00">/J2DManage.cpp</text>
</a>
</g>
</g>
<!-- Node1&#45;&gt;Node18 -->
<g id="edge17" class="edge">
<title>Node1&#45;&gt;Node18</title>
<path fill="none" stroke="#63b8ff" d="M1334.73,-188.39C1340.78,-179.59 1347.47,-169.86 1352.76,-162.16"/>
<polygon fill="#63b8ff" stroke="#63b8ff" points="1331.9,-186.33 1329.12,-196.55 1337.67,-190.29 1331.9,-186.33"/>
</g>
<!-- Node19 -->
<g id="node19" class="node">
<title>Node19</title>
<g id="a_node19"><a xlink:href="JUTResource_8cpp.html" target="_top" xlink:title=" ">
<polygon fill="white" stroke="#666666" points="1546.5,-162 1440.5,-162 1440.5,-132 1546.5,-132 1546.5,-162"/>
<text text-anchor="start" x="1448.5" y="-150" font-family="Helvetica,sans-Serif" font-size="10.00">libs/JSystem/JUtility</text>
<text text-anchor="middle" x="1493.5" y="-139" font-family="Helvetica,sans-Serif" font-size="10.00">/JUTResource.cpp</text>
</a>
</g>
</g>
<!-- Node1&#45;&gt;Node19 -->
<g id="edge19" class="edge">
<title>Node1&#45;&gt;Node19</title>
<path fill="none" stroke="#63b8ff" d="M1368.25,-193.8C1395.45,-183.86 1428.67,-171.71 1454.06,-162.43"/>
<polygon fill="#63b8ff" stroke="#63b8ff" points="1367.38,-190.4 1359.19,-197.12 1369.79,-196.97 1367.38,-190.4"/>
</g>
<!-- Node3 -->
<g id="node3" class="node">
<title>Node3</title>
<g id="a_node3"><a xlink:href="JSUFileStream_8h.html" target="_top" xlink:title=" ">
<polygon fill="white" stroke="#666666" points="357,-96 226,-96 226,-66 357,-66 357,-96"/>
<text text-anchor="start" x="234" y="-84" font-family="Helvetica,sans-Serif" font-size="10.00">include/JSystem/JSupport</text>
<text text-anchor="middle" x="291.5" y="-73" font-family="Helvetica,sans-Serif" font-size="10.00">/JSUFileStream.h</text>
</a>
</g>
</g>
<!-- Node2&#45;&gt;Node3 -->
<g id="edge2" class="edge">
<title>Node2&#45;&gt;Node3</title>
<path fill="none" stroke="#63b8ff" d="M908.2,-139.26C799.66,-129.96 598.76,-112.46 427.5,-96 404.58,-93.8 379.51,-91.25 357.2,-88.94"/>
<polygon fill="#63b8ff" stroke="#63b8ff" points="907.6,-142.72 917.86,-140.09 908.2,-135.75 907.6,-142.72"/>
</g>
<!-- Node7 -->
<g id="node7" class="node">
<title>Node7</title>
<g id="a_node7"><a xlink:href="JSUMemoryStream_8h.html" target="_top" xlink:title=" ">
<polygon fill="white" stroke="#666666" points="568,-96 437,-96 437,-66 568,-66 568,-96"/>
<text text-anchor="start" x="445" y="-84" font-family="Helvetica,sans-Serif" font-size="10.00">include/JSystem/JSupport</text>
<text text-anchor="middle" x="502.5" y="-73" font-family="Helvetica,sans-Serif" font-size="10.00">/JSUMemoryStream.h</text>
</a>
</g>
</g>
<!-- Node2&#45;&gt;Node7 -->
<g id="edge6" class="edge">
<title>Node2&#45;&gt;Node7</title>
<path fill="none" stroke="#63b8ff" d="M907.95,-137.89C825,-129.07 691.32,-113.83 576.5,-96 573.79,-95.58 571.02,-95.13 568.23,-94.67"/>
<polygon fill="#63b8ff" stroke="#63b8ff" points="907.5,-141.37 917.81,-138.94 908.23,-134.4 907.5,-141.37"/>
</g>
<!-- Node11 -->
<g id="node11" class="node">
<title>Node11</title>
<g id="a_node11"><a xlink:href="J2DPane_8cpp.html" target="_top" xlink:title=" ">
<polygon fill="white" stroke="#666666" points="705,-96 586,-96 586,-66 705,-66 705,-96"/>
<text text-anchor="start" x="594" y="-84" font-family="Helvetica,sans-Serif" font-size="10.00">libs/JSystem/J2DGraph</text>
<text text-anchor="middle" x="645.5" y="-73" font-family="Helvetica,sans-Serif" font-size="10.00">/J2DPane.cpp</text>
</a>
</g>
</g>
<!-- Node2&#45;&gt;Node11 -->
<g id="edge10" class="edge">
<title>Node2&#45;&gt;Node11</title>
<path fill="none" stroke="#63b8ff" d="M907.99,-131.98C853.25,-122.21 778.89,-108.7 713.5,-96 710.78,-95.47 708,-94.93 705.19,-94.37"/>
<polygon fill="#63b8ff" stroke="#63b8ff" points="907.06,-135.37 917.52,-133.68 908.29,-128.48 907.06,-135.37"/>
</g>
<!-- Node12 -->
<g id="node12" class="node">
<title>Node12</title>
<g id="a_node12"><a xlink:href="J2DPictureEx_8cpp.html" target="_top" xlink:title=" ">
<polygon fill="white" stroke="#666666" points="842,-96 723,-96 723,-66 842,-66 842,-96"/>
<text text-anchor="start" x="731" y="-84" font-family="Helvetica,sans-Serif" font-size="10.00">libs/JSystem/J2DGraph</text>
<text text-anchor="middle" x="782.5" y="-73" font-family="Helvetica,sans-Serif" font-size="10.00">/J2DPictureEx.cpp</text>
</a>
</g>
</g>
<!-- Node2&#45;&gt;Node12 -->
<g id="edge11" class="edge">
<title>Node2&#45;&gt;Node12</title>
<path fill="none" stroke="#63b8ff" d="M930.65,-128.25C898.49,-118.21 858.8,-105.82 828.59,-96.39"/>
<polygon fill="#63b8ff" stroke="#63b8ff" points="929.2,-131.47 939.79,-131.11 931.29,-124.79 929.2,-131.47"/>
</g>
<!-- Node13 -->
<g id="node13" class="node">
<title>Node13</title>
<g id="a_node13"><a xlink:href="J2DTextBox_8cpp.html" target="_top" xlink:title=" ">
<polygon fill="white" stroke="#666666" points="979,-96 860,-96 860,-66 979,-66 979,-96"/>
<text text-anchor="start" x="868" y="-84" font-family="Helvetica,sans-Serif" font-size="10.00">libs/JSystem/J2DGraph</text>
<text text-anchor="middle" x="919.5" y="-73" font-family="Helvetica,sans-Serif" font-size="10.00">/J2DTextBox.cpp</text>
</a>
</g>
</g>
<!-- Node2&#45;&gt;Node13 -->
<g id="edge12" class="edge">
<title>Node2&#45;&gt;Node13</title>
<path fill="none" stroke="#63b8ff" d="M964.22,-124.09C954.4,-114.85 943.26,-104.36 934.55,-96.16"/>
<polygon fill="#63b8ff" stroke="#63b8ff" points="961.63,-126.45 971.31,-130.76 966.42,-121.36 961.63,-126.45"/>
</g>
<!-- Node14 -->
<g id="node14" class="node">
<title>Node14</title>
<g id="a_node14"><a xlink:href="J2DTextBoxEx_8cpp.html" target="_top" xlink:title=" ">
<polygon fill="white" stroke="#666666" points="1116,-96 997,-96 997,-66 1116,-66 1116,-96"/>
<text text-anchor="start" x="1005" y="-84" font-family="Helvetica,sans-Serif" font-size="10.00">libs/JSystem/J2DGraph</text>
<text text-anchor="middle" x="1056.5" y="-73" font-family="Helvetica,sans-Serif" font-size="10.00">/J2DTextBoxEx.cpp</text>
</a>
</g>
</g>
<!-- Node2&#45;&gt;Node14 -->
<g id="edge13" class="edge">
<title>Node2&#45;&gt;Node14</title>
<path fill="none" stroke="#63b8ff" d="M1011.12,-124.09C1021.09,-114.85 1032.39,-104.36 1041.23,-96.16"/>
<polygon fill="#63b8ff" stroke="#63b8ff" points="1008.87,-121.4 1003.92,-130.77 1013.63,-126.53 1008.87,-121.4"/>
</g>
<!-- Node15 -->
<g id="node15" class="node">
<title>Node15</title>
<g id="a_node15"><a xlink:href="J2DWindow_8cpp.html" target="_top" xlink:title=" ">
<polygon fill="white" stroke="#666666" points="1253,-96 1134,-96 1134,-66 1253,-66 1253,-96"/>
<text text-anchor="start" x="1142" y="-84" font-family="Helvetica,sans-Serif" font-size="10.00">libs/JSystem/J2DGraph</text>
<text text-anchor="middle" x="1193.5" y="-73" font-family="Helvetica,sans-Serif" font-size="10.00">/J2DWindow.cpp</text>
</a>
</g>
</g>
<!-- Node2&#45;&gt;Node15 -->
<g id="edge14" class="edge">
<title>Node2&#45;&gt;Node15</title>
<path fill="none" stroke="#63b8ff" d="M1044.63,-128.25C1076.95,-118.21 1116.83,-105.82 1147.18,-96.39"/>
<polygon fill="#63b8ff" stroke="#63b8ff" points="1043.94,-124.8 1035.43,-131.11 1046.02,-131.48 1043.94,-124.8"/>
</g>
<!-- Node16 -->
<g id="node16" class="node">
<title>Node16</title>
<g id="a_node16"><a xlink:href="J2DWindowEx_8cpp.html" target="_top" xlink:title=" ">
<polygon fill="white" stroke="#666666" points="1390,-96 1271,-96 1271,-66 1390,-66 1390,-96"/>
<text text-anchor="start" x="1279" y="-84" font-family="Helvetica,sans-Serif" font-size="10.00">libs/JSystem/J2DGraph</text>
<text text-anchor="middle" x="1330.5" y="-73" font-family="Helvetica,sans-Serif" font-size="10.00">/J2DWindowEx.cpp</text>
</a>
</g>
</g>
<!-- Node2&#45;&gt;Node16 -->
<g id="edge15" class="edge">
<title>Node2&#45;&gt;Node16</title>
<path fill="none" stroke="#63b8ff" d="M1067,-131.92C1121.73,-122.12 1196.09,-108.6 1261.5,-96 1264.5,-95.42 1267.57,-94.82 1270.68,-94.21"/>
<polygon fill="#63b8ff" stroke="#63b8ff" points="1066.69,-128.42 1057.47,-133.62 1067.93,-135.31 1066.69,-128.42"/>
</g>
<!-- Node2&#45;&gt;Node17 -->
<g id="edge16" class="edge">
<title>Node2&#45;&gt;Node17</title>
<path fill="none" stroke="#63b8ff" d="M1067.32,-138.42C1150.54,-130.03 1284.61,-115.12 1399.5,-96 1402.16,-95.56 1404.87,-95.08 1407.61,-94.58"/>
<polygon fill="#63b8ff" stroke="#63b8ff" points="1067.03,-134.93 1057.43,-139.41 1067.73,-141.9 1067.03,-134.93"/>
</g>
<!-- Node4 -->
<g id="node4" class="node">
<title>Node4</title>
<g id="a_node4"><a xlink:href="JKRAramStream_8cpp.html" target="_top" xlink:title=" ">
<polygon fill="white" stroke="#666666" points="111,-30 0,-30 0,0 111,0 111,-30"/>
<text text-anchor="start" x="8" y="-18" font-family="Helvetica,sans-Serif" font-size="10.00">libs/JSystem/JKernel</text>
<text text-anchor="middle" x="55.5" y="-7" font-family="Helvetica,sans-Serif" font-size="10.00">/JKRAramStream.cpp</text>
</a>
</g>
</g>
<!-- Node3&#45;&gt;Node4 -->
<g id="edge3" class="edge">
<title>Node3&#45;&gt;Node4</title>
<path fill="none" stroke="#63b8ff" d="M227.49,-62.64C190.22,-52.53 143.79,-39.94 108.56,-30.39"/>
<polygon fill="#63b8ff" stroke="#63b8ff" points="226.21,-65.92 236.78,-65.16 228.05,-59.17 226.21,-65.92"/>
</g>
<!-- Node5 -->
<g id="node5" class="node">
<title>Node5</title>
<g id="a_node5"><a xlink:href="JKRDvdAramRipper_8cpp.html" target="_top" xlink:title=" ">
<polygon fill="white" stroke="#666666" points="254,-30 129,-30 129,0 254,0 254,-30"/>
<text text-anchor="start" x="137" y="-18" font-family="Helvetica,sans-Serif" font-size="10.00">libs/JSystem/JKernel</text>
<text text-anchor="middle" x="191.5" y="-7" font-family="Helvetica,sans-Serif" font-size="10.00">/JKRDvdAramRipper.cpp</text>
</a>
</g>
</g>
<!-- Node3&#45;&gt;Node5 -->
<g id="edge4" class="edge">
<title>Node3&#45;&gt;Node5</title>
<path fill="none" stroke="#63b8ff" d="M259.93,-59.8C245.01,-50.24 227.53,-39.06 213.98,-30.39"/>
<polygon fill="#63b8ff" stroke="#63b8ff" points="257.72,-62.54 268.03,-64.98 261.5,-56.64 257.72,-62.54"/>
</g>
<!-- Node6 -->
<g id="node6" class="node">
<title>Node6</title>
<g id="a_node6"><a xlink:href="JSUFileStream_8cpp.html" target="_top" xlink:title=" ">
<polygon fill="white" stroke="#666666" points="387,-30 272,-30 272,0 387,0 387,-30"/>
<text text-anchor="start" x="280" y="-18" font-family="Helvetica,sans-Serif" font-size="10.00">libs/JSystem/JSupport</text>
<text text-anchor="middle" x="329.5" y="-7" font-family="Helvetica,sans-Serif" font-size="10.00">/JSUFileStream.cpp</text>
</a>
</g>
</g>
<!-- Node3&#45;&gt;Node6 -->
<g id="edge5" class="edge">
<title>Node3&#45;&gt;Node6</title>
<path fill="none" stroke="#63b8ff" d="M305.68,-56.11C310.87,-47.38 316.57,-37.78 321.09,-30.16"/>
<polygon fill="#63b8ff" stroke="#63b8ff" points="302.8,-54.11 300.71,-64.49 308.82,-57.68 302.8,-54.11"/>
</g>
<!-- Node8 -->
<g id="node8" class="node">
<title>Node8</title>
<g id="a_node8"><a xlink:href="J2DScreen_8cpp.html" target="_top" xlink:title=" ">
<polygon fill="white" stroke="#666666" points="524,-30 405,-30 405,0 524,0 524,-30"/>
<text text-anchor="start" x="413" y="-18" font-family="Helvetica,sans-Serif" font-size="10.00">libs/JSystem/J2DGraph</text>
<text text-anchor="middle" x="464.5" y="-7" font-family="Helvetica,sans-Serif" font-size="10.00">/J2DScreen.cpp</text>
</a>
</g>
</g>
<!-- Node7&#45;&gt;Node8 -->
<g id="edge7" class="edge">
<title>Node7&#45;&gt;Node8</title>
<path fill="none" stroke="#63b8ff" d="M488.32,-56.11C483.13,-47.38 477.43,-37.78 472.91,-30.16"/>
<polygon fill="#63b8ff" stroke="#63b8ff" points="485.18,-57.68 493.29,-64.49 491.2,-54.11 485.18,-57.68"/>
</g>
<!-- Node9 -->
<g id="node9" class="node">
<title>Node9</title>
<g id="a_node9"><a xlink:href="JSUMemoryStream_8cpp.html" target="_top" xlink:title=" ">
<polygon fill="white" stroke="#666666" points="665,-30 542,-30 542,0 665,0 665,-30"/>
<text text-anchor="start" x="550" y="-18" font-family="Helvetica,sans-Serif" font-size="10.00">libs/JSystem/JSupport</text>
<text text-anchor="middle" x="603.5" y="-7" font-family="Helvetica,sans-Serif" font-size="10.00">/JSUMemoryStream.cpp</text>
</a>
</g>
</g>
<!-- Node7&#45;&gt;Node9 -->
<g id="edge8" class="edge">
<title>Node7&#45;&gt;Node9</title>
<path fill="none" stroke="#63b8ff" d="M534.63,-59.64C549.69,-50.09 567.28,-38.95 580.91,-30.31"/>
<polygon fill="#63b8ff" stroke="#63b8ff" points="533.02,-56.52 526.44,-64.83 536.77,-62.43 533.02,-56.52"/>
</g>
<!-- Node10 -->
<g id="node10" class="node">
<title>Node10</title>
<g id="a_node10"><a xlink:href="d__pane__class_8cpp.html" target="_top" xlink:title=" ">
<polygon fill="white" stroke="#666666" points="826,-24.5 683,-24.5 683,-5.5 826,-5.5 826,-24.5"/>
<text text-anchor="middle" x="754.5" y="-12.5" font-family="Helvetica,sans-Serif" font-size="10.00">src/d/pane/d_pane_class.cpp</text>
</a>
</g>
</g>
<!-- Node7&#45;&gt;Node10 -->
<g id="edge9" class="edge">
<title>Node7&#45;&gt;Node10</title>
<path fill="none" stroke="#63b8ff" d="M570.3,-62.78C618.31,-50.59 680.75,-34.73 719.21,-24.96"/>
<polygon fill="#63b8ff" stroke="#63b8ff" points="569.67,-59.33 560.83,-65.18 571.39,-66.12 569.67,-59.33"/>
</g>
</g>
</svg>
