<?xml version="1.0" encoding="UTF-8" standalone="no"?>
<!DOCTYPE svg PUBLIC "-//W3C//DTD SVG 1.1//EN"
 "http://www.w3.org/Graphics/SVG/1.1/DTD/svg11.dtd">
<!-- Generated by graphviz version 7.0.5 (20221223.1930)
 -->
<!-- Title: libs/JSystem/JUtility/JUTFader.cpp Pages: 1 -->
<svg width="641pt" height="467pt"
 viewBox="0.00 0.00 641.28 467.00" xmlns="http://www.w3.org/2000/svg" xmlns:xlink="http://www.w3.org/1999/xlink">
<g id="graph0" class="graph" transform="scale(1 1) rotate(0) translate(4 463)">
<title>libs/JSystem/JUtility/JUTFader.cpp</title>
<!-- Node1 -->
<g id="node1" class="node">
<title>Node1</title>
<g id="a_node1"><a xlink:title=" ">
<polygon fill="#999999" stroke="#666666" points="370,-459 264,-459 264,-429 370,-429 370,-459"/>
<text text-anchor="start" x="272" y="-447" font-family="Helvetica,sans-Serif" font-size="10.00">libs/JSystem/JUtility</text>
<text text-anchor="middle" x="317" y="-436" font-family="Helvetica,sans-Serif" font-size="10.00">/JUTFader.cpp</text>
</a>
</g>
</g>
<!-- Node2 -->
<g id="node2" class="node">
<title>Node2</title>
<g id="a_node2"><a xlink:href="JUTFader_8h.html" target="_top" xlink:title=" ">
<polygon fill="white" stroke="#666666" points="309,-321.5 167,-321.5 167,-302.5 309,-302.5 309,-321.5"/>
<text text-anchor="middle" x="238" y="-309.5" font-family="Helvetica,sans-Serif" font-size="10.00">JSystem/JUtility/JUTFader.h</text>
</a>
</g>
</g>
<!-- Node1&#45;&gt;Node2 -->
<g id="edge1" class="edge">
<title>Node1&#45;&gt;Node2</title>
<path fill="none" stroke="#63b8ff" d="M308.24,-428.59C293.83,-404.87 265.13,-357.64 249.24,-331.49"/>
<polygon fill="#63b8ff" stroke="#63b8ff" points="252.26,-329.73 244.08,-323 246.28,-333.36 252.26,-329.73"/>
</g>
<!-- Node14 -->
<g id="node14" class="node">
<title>Node14</title>
<g id="a_node14"><a xlink:href="J2DOrthoGraph_8h.html" target="_top" xlink:title=" ">
<polygon fill="white" stroke="#666666" points="455,-393 309,-393 309,-363 455,-363 455,-393"/>
<text text-anchor="start" x="317" y="-381" font-family="Helvetica,sans-Serif" font-size="10.00">JSystem/J2DGraph/J2DOrtho</text>
<text text-anchor="middle" x="382" y="-370" font-family="Helvetica,sans-Serif" font-size="10.00">Graph.h</text>
</a>
</g>
</g>
<!-- Node1&#45;&gt;Node14 -->
<g id="edge15" class="edge">
<title>Node1&#45;&gt;Node14</title>
<path fill="none" stroke="#63b8ff" d="M331.43,-428.8C339.67,-420.68 350.2,-410.31 359.51,-401.15"/>
<polygon fill="#63b8ff" stroke="#63b8ff" points="361.87,-403.74 366.54,-394.23 356.95,-398.75 361.87,-403.74"/>
</g>
<!-- Node3 -->
<g id="node3" class="node">
<title>Node3</title>
<g id="a_node3"><a xlink:href="JGeometry_8h.html" target="_top" xlink:title=" ">
<polygon fill="white" stroke="#666666" points="225.5,-261 112.5,-261 112.5,-242 225.5,-242 225.5,-261"/>
<text text-anchor="middle" x="169" y="-249" font-family="Helvetica,sans-Serif" font-size="10.00">JSystem/JGeometry.h</text>
</a>
</g>
</g>
<!-- Node2&#45;&gt;Node3 -->
<g id="edge2" class="edge">
<title>Node2&#45;&gt;Node3</title>
<path fill="none" stroke="#63b8ff" d="M227.52,-302.12C217.08,-293.27 200.83,-279.48 188.09,-268.69"/>
<polygon fill="#63b8ff" stroke="#63b8ff" points="190.62,-266.24 180.73,-262.45 186.1,-271.58 190.62,-266.24"/>
</g>
<!-- Node11 -->
<g id="node11" class="node">
<title>Node11</title>
<g id="a_node11"><a xlink:href="TColor_8h.html" target="_top" xlink:title=" ">
<polygon fill="white" stroke="#666666" points="370.5,-261 243.5,-261 243.5,-242 370.5,-242 370.5,-261"/>
<text text-anchor="middle" x="307" y="-249" font-family="Helvetica,sans-Serif" font-size="10.00">JSystem/JUtility/TColor.h</text>
</a>
</g>
</g>
<!-- Node2&#45;&gt;Node11 -->
<g id="edge11" class="edge">
<title>Node2&#45;&gt;Node11</title>
<path fill="none" stroke="#63b8ff" d="M248.48,-302.12C258.92,-293.27 275.17,-279.48 287.91,-268.69"/>
<polygon fill="#63b8ff" stroke="#63b8ff" points="289.9,-271.58 295.27,-262.45 285.38,-266.24 289.9,-271.58"/>
</g>
<!-- Node4 -->
<g id="node4" class="node">
<title>Node4</title>
<g id="a_node4"><a xlink:href="vec_8h.html" target="_top" xlink:title=" ">
<polygon fill="white" stroke="#666666" points="391,-145.5 299,-145.5 299,-126.5 391,-126.5 391,-145.5"/>
<text text-anchor="middle" x="345" y="-133.5" font-family="Helvetica,sans-Serif" font-size="10.00">dolphin/mtx/vec.h</text>
</a>
</g>
</g>
<!-- Node3&#45;&gt;Node4 -->
<g id="edge3" class="edge">
<title>Node3&#45;&gt;Node4</title>
<path fill="none" stroke="#63b8ff" d="M175.03,-241.57C184.49,-228.13 204.03,-202.63 226,-187 249.33,-170.4 279.01,-157.91 302.9,-149.57"/>
<polygon fill="#63b8ff" stroke="#63b8ff" points="303.96,-152.91 312.32,-146.4 301.73,-146.27 303.96,-152.91"/>
</g>
<!-- Node7 -->
<g id="node7" class="node">
<title>Node7</title>
<g id="a_node7"><a xlink:href="float_8h.html" target="_top" xlink:title=" ">
<polygon fill="white" stroke="#666666" points="78,-206 0,-206 0,-187 78,-187 78,-206"/>
<text text-anchor="middle" x="39" y="-194" font-family="Helvetica,sans-Serif" font-size="10.00">MSL_C/float.h</text>
</a>
</g>
</g>
<!-- Node3&#45;&gt;Node7 -->
<g id="edge6" class="edge">
<title>Node3&#45;&gt;Node7</title>
<path fill="none" stroke="#63b8ff" d="M146.95,-241.51C126.19,-233.04 94.84,-220.27 71.27,-210.66"/>
<polygon fill="#63b8ff" stroke="#63b8ff" points="72.71,-207.46 62.13,-206.93 70.07,-213.95 72.71,-207.46"/>
</g>
<!-- Node10 -->
<g id="node10" class="node">
<title>Node10</title>
<g id="a_node10"><a xlink:href="math_8h.html" target="_top" xlink:title=" ">
<polygon fill="white" stroke="#666666" points="178,-206 96,-206 96,-187 178,-187 178,-206"/>
<text text-anchor="middle" x="137" y="-194" font-family="Helvetica,sans-Serif" font-size="10.00">MSL_C/math.h</text>
</a>
</g>
</g>
<!-- Node3&#45;&gt;Node10 -->
<g id="edge9" class="edge">
<title>Node3&#45;&gt;Node10</title>
<path fill="none" stroke="#63b8ff" d="M163.72,-241.75C159.53,-234.81 153.52,-224.86 148.27,-216.16"/>
<polygon fill="#63b8ff" stroke="#63b8ff" points="151.35,-214.49 143.18,-207.74 145.35,-218.11 151.35,-214.49"/>
</g>
<!-- Node5 -->
<g id="node5" class="node">
<title>Node5</title>
<g id="a_node5"><a xlink:href="types_8h.html" target="_top" xlink:title=" ">
<polygon fill="white" stroke="#666666" points="527.5,-85 446.5,-85 446.5,-66 527.5,-66 527.5,-85"/>
<text text-anchor="middle" x="487" y="-73" font-family="Helvetica,sans-Serif" font-size="10.00">dolphin/types.h</text>
</a>
</g>
</g>
<!-- Node4&#45;&gt;Node5 -->
<g id="edge4" class="edge">
<title>Node4&#45;&gt;Node5</title>
<path fill="none" stroke="#63b8ff" d="M366.57,-126.12C390.02,-116.45 427.77,-100.9 454.76,-89.78"/>
<polygon fill="#63b8ff" stroke="#63b8ff" points="455.92,-93.09 463.83,-86.05 453.25,-86.62 455.92,-93.09"/>
</g>
<!-- Node6 -->
<g id="node6" class="node">
<title>Node6</title>
<g id="a_node6"><a xlink:href="stddef_8h.html" target="_top" xlink:title=" ">
<polygon fill="white" stroke="#666666" points="555,-30 419,-30 419,0 555,0 555,-30"/>
<text text-anchor="start" x="427" y="-18" font-family="Helvetica,sans-Serif" font-size="10.00">MSL_C/MSL_Common/Src</text>
<text text-anchor="middle" x="487" y="-7" font-family="Helvetica,sans-Serif" font-size="10.00">/stddef.h</text>
</a>
</g>
</g>
<!-- Node5&#45;&gt;Node6 -->
<g id="edge5" class="edge">
<title>Node5&#45;&gt;Node6</title>
<path fill="none" stroke="#63b8ff" d="M487,-65.87C487,-59.4 487,-50.2 487,-41.45"/>
<polygon fill="#63b8ff" stroke="#63b8ff" points="490.5,-41.63 487,-31.63 483.5,-41.63 490.5,-41.63"/>
</g>
<!-- Node8 -->
<g id="node8" class="node">
<title>Node8</title>
<g id="a_node8"><a xlink:href="MSL__Common_2Src_2float_8h.html" target="_top" xlink:title=" ">
<polygon fill="white" stroke="#666666" points="156,-151 20,-151 20,-121 156,-121 156,-151"/>
<text text-anchor="start" x="28" y="-139" font-family="Helvetica,sans-Serif" font-size="10.00">MSL_C/MSL_Common/Src</text>
<text text-anchor="middle" x="88" y="-128" font-family="Helvetica,sans-Serif" font-size="10.00">/float.h</text>
</a>
</g>
</g>
<!-- Node7&#45;&gt;Node8 -->
<g id="edge7" class="edge">
<title>Node7&#45;&gt;Node8</title>
<path fill="none" stroke="#63b8ff" d="M46.23,-186.87C52.2,-179.74 60.96,-169.28 68.91,-159.79"/>
<polygon fill="#63b8ff" stroke="#63b8ff" points="71.47,-162.19 75.21,-152.27 66.1,-157.69 71.47,-162.19"/>
</g>
<!-- Node9 -->
<g id="node9" class="node">
<title>Node9</title>
<g id="a_node9"><a xlink:href="fdlibm_8h.html" target="_top" xlink:title=" ">
<polygon fill="white" stroke="#666666" points="113,-85 63,-85 63,-66 113,-66 113,-85"/>
<text text-anchor="middle" x="88" y="-73" font-family="Helvetica,sans-Serif" font-size="10.00">fdlibm.h</text>
</a>
</g>
</g>
<!-- Node8&#45;&gt;Node9 -->
<g id="edge8" class="edge">
<title>Node8&#45;&gt;Node9</title>
<path fill="none" stroke="#63b8ff" d="M88,-120.54C88,-113.34 88,-104.53 88,-96.68"/>
<polygon fill="#63b8ff" stroke="#63b8ff" points="91.5,-96.69 88,-86.69 84.5,-96.69 91.5,-96.69"/>
</g>
<!-- Node10&#45;&gt;Node8 -->
<g id="edge10" class="edge">
<title>Node10&#45;&gt;Node8</title>
<path fill="none" stroke="#63b8ff" d="M129.77,-186.87C123.8,-179.74 115.04,-169.28 107.09,-159.79"/>
<polygon fill="#63b8ff" stroke="#63b8ff" points="109.9,-157.69 100.79,-152.27 104.53,-162.19 109.9,-157.69"/>
</g>
<!-- Node12 -->
<g id="node12" class="node">
<title>Node12</title>
<g id="a_node12"><a xlink:href="GXStruct_8h.html" target="_top" xlink:title=" ">
<polygon fill="white" stroke="#666666" points="345.5,-206 234.5,-206 234.5,-187 345.5,-187 345.5,-206"/>
<text text-anchor="middle" x="290" y="-194" font-family="Helvetica,sans-Serif" font-size="10.00">dolphin/gx/GXStruct.h</text>
</a>
</g>
</g>
<!-- Node11&#45;&gt;Node12 -->
<g id="edge12" class="edge">
<title>Node11&#45;&gt;Node12</title>
<path fill="none" stroke="#63b8ff" d="M304.19,-241.75C302.06,-235.11 299.06,-225.73 296.36,-217.31"/>
<polygon fill="#63b8ff" stroke="#63b8ff" points="299.72,-216.34 293.33,-207.88 293.05,-218.47 299.72,-216.34"/>
</g>
<!-- Node13 -->
<g id="node13" class="node">
<title>Node13</title>
<g id="a_node13"><a xlink:href="global_8h.html" target="_top" xlink:title=" ">
<polygon fill="white" stroke="#666666" points="459,-145.5 409,-145.5 409,-126.5 459,-126.5 459,-145.5"/>
<text text-anchor="middle" x="434" y="-133.5" font-family="Helvetica,sans-Serif" font-size="10.00">global.h</text>
</a>
</g>
</g>
<!-- Node12&#45;&gt;Node13 -->
<g id="edge13" class="edge">
<title>Node12&#45;&gt;Node13</title>
<path fill="none" stroke="#63b8ff" d="M312.35,-186.51C334.58,-177.55 369.67,-163.38 400,-151 400.63,-150.74 401.26,-150.48 401.9,-150.22"/>
<polygon fill="#63b8ff" stroke="#63b8ff" points="403.1,-153.51 411.02,-146.48 400.44,-147.04 403.1,-153.51"/>
</g>
<!-- Node13&#45;&gt;Node5 -->
<g id="edge14" class="edge">
<title>Node13&#45;&gt;Node5</title>
<path fill="none" stroke="#63b8ff" d="M441.82,-126.37C449.65,-117.73 461.9,-104.2 471.67,-93.42"/>
<polygon fill="#63b8ff" stroke="#63b8ff" points="474.01,-96.05 478.13,-86.29 468.82,-91.35 474.01,-96.05"/>
</g>
<!-- Node15 -->
<g id="node15" class="node">
<title>Node15</title>
<g id="a_node15"><a xlink:href="J2DGrafContext_8h.html" target="_top" xlink:title=" ">
<polygon fill="white" stroke="#666666" points="467,-327 327,-327 327,-297 467,-297 467,-327"/>
<text text-anchor="start" x="335" y="-315" font-family="Helvetica,sans-Serif" font-size="10.00">JSystem/J2DGraph/J2DGraf</text>
<text text-anchor="middle" x="397" y="-304" font-family="Helvetica,sans-Serif" font-size="10.00">Context.h</text>
</a>
</g>
</g>
<!-- Node14&#45;&gt;Node15 -->
<g id="edge16" class="edge">
<title>Node14&#45;&gt;Node15</title>
<path fill="none" stroke="#63b8ff" d="M385.33,-362.8C387.02,-355.59 389.12,-346.61 391.08,-338.27"/>
<polygon fill="#63b8ff" stroke="#63b8ff" points="394.46,-339.17 393.33,-328.64 387.65,-337.58 394.46,-339.17"/>
</g>
<!-- Node15&#45;&gt;Node3 -->
<g id="edge17" class="edge">
<title>Node15&#45;&gt;Node3</title>
<path fill="none" stroke="#63b8ff" d="M340.64,-296.54C301.8,-286.57 250.85,-273.5 214.57,-264.19"/>
<polygon fill="#63b8ff" stroke="#63b8ff" points="215.83,-260.9 205.28,-261.81 214.09,-267.68 215.83,-260.9"/>
</g>
<!-- Node15&#45;&gt;Node5 -->
<g id="edge25" class="edge">
<title>Node15&#45;&gt;Node5</title>
<path fill="none" stroke="#63b8ff" d="M441.42,-296.55C498.3,-275.22 593.62,-229.15 628,-151 633.37,-138.8 635.88,-131.75 628,-121 607.73,-93.34 570.21,-82.43 538.98,-78.32"/>
<polygon fill="#63b8ff" stroke="#63b8ff" points="539.62,-74.87 529.3,-77.26 538.86,-81.83 539.62,-74.87"/>
</g>
<!-- Node15&#45;&gt;Node11 -->
<g id="edge18" class="edge">
<title>Node15&#45;&gt;Node11</title>
<path fill="none" stroke="#63b8ff" d="M374.75,-296.54C361.1,-287.66 343.65,-276.32 329.88,-267.37"/>
<polygon fill="#63b8ff" stroke="#63b8ff" points="332.17,-264.69 321.88,-262.17 328.36,-270.56 332.17,-264.69"/>
</g>
<!-- Node16 -->
<g id="node16" class="node">
<title>Node16</title>
<g id="a_node16"><a xlink:href="mtx_8h.html" target="_top" xlink:title=" ">
<polygon fill="white" stroke="#666666" points="499,-261 407,-261 407,-242 499,-242 499,-261"/>
<text text-anchor="middle" x="453" y="-249" font-family="Helvetica,sans-Serif" font-size="10.00">dolphin/mtx/mtx.h</text>
</a>
</g>
</g>
<!-- Node15&#45;&gt;Node16 -->
<g id="edge19" class="edge">
<title>Node15&#45;&gt;Node16</title>
<path fill="none" stroke="#63b8ff" d="M410.84,-296.54C418.73,-288.3 428.64,-277.94 436.88,-269.34"/>
<polygon fill="#63b8ff" stroke="#63b8ff" points="439.26,-271.91 443.65,-262.27 434.21,-267.07 439.26,-271.91"/>
</g>
<!-- Node16&#45;&gt;Node5 -->
<g id="edge24" class="edge">
<title>Node16&#45;&gt;Node5</title>
<path fill="none" stroke="#63b8ff" d="M456.46,-241.77C459.86,-232.9 464.96,-218.68 468,-206 477.16,-167.82 482.61,-122.18 485.19,-96.54"/>
<polygon fill="#63b8ff" stroke="#63b8ff" points="488.64,-97.19 486.11,-86.9 481.67,-96.53 488.64,-97.19"/>
</g>
<!-- Node17 -->
<g id="node17" class="node">
<title>Node17</title>
<g id="a_node17"><a xlink:href="mtx44_8h.html" target="_top" xlink:title=" ">
<polygon fill="white" stroke="#666666" points="618.5,-145.5 515.5,-145.5 515.5,-126.5 618.5,-126.5 618.5,-145.5"/>
<text text-anchor="middle" x="567" y="-133.5" font-family="Helvetica,sans-Serif" font-size="10.00">dolphin/mtx/mtx44.h</text>
</a>
</g>
</g>
<!-- Node16&#45;&gt;Node17 -->
<g id="edge20" class="edge">
<title>Node16&#45;&gt;Node17</title>
<path fill="none" stroke="#63b8ff" d="M462.72,-241.8C472.53,-232.95 488.04,-218.76 501,-206 518.64,-188.64 538.15,-168.06 551.35,-153.92"/>
<polygon fill="#63b8ff" stroke="#63b8ff" points="553.76,-156.47 558,-146.77 548.63,-151.71 553.76,-156.47"/>
</g>
<!-- Node18 -->
<g id="node18" class="node">
<title>Node18</title>
<g id="a_node18"><a xlink:href="quat_8h.html" target="_top" xlink:title=" ">
<polygon fill="white" stroke="#666666" points="458.5,-206 363.5,-206 363.5,-187 458.5,-187 458.5,-206"/>
<text text-anchor="middle" x="411" y="-194" font-family="Helvetica,sans-Serif" font-size="10.00">dolphin/mtx/quat.h</text>
</a>
</g>
</g>
<!-- Node16&#45;&gt;Node18 -->
<g id="edge22" class="edge">
<title>Node16&#45;&gt;Node18</title>
<path fill="none" stroke="#63b8ff" d="M446.06,-241.75C440.38,-234.58 432.16,-224.2 425.11,-215.3"/>
<polygon fill="#63b8ff" stroke="#63b8ff" points="427.98,-213.29 419.03,-207.63 422.49,-217.64 427.98,-213.29"/>
</g>
<!-- Node17&#45;&gt;Node5 -->
<g id="edge21" class="edge">
<title>Node17&#45;&gt;Node5</title>
<path fill="none" stroke="#63b8ff" d="M554.85,-126.12C542.52,-117.1 523.17,-102.95 508.28,-92.06"/>
<polygon fill="#63b8ff" stroke="#63b8ff" points="510.62,-89.44 500.49,-86.36 506.49,-95.09 510.62,-89.44"/>
</g>
<!-- Node18&#45;&gt;Node4 -->
<g id="edge23" class="edge">
<title>Node18&#45;&gt;Node4</title>
<path fill="none" stroke="#63b8ff" d="M400.98,-186.62C391.09,-177.85 375.74,-164.25 363.62,-153.5"/>
<polygon fill="#63b8ff" stroke="#63b8ff" points="366.06,-150.99 356.25,-146.97 361.41,-156.22 366.06,-150.99"/>
</g>
</g>
</svg>
