<?xml version="1.0" encoding="UTF-8" standalone="no"?>
<!DOCTYPE svg PUBLIC "-//W3C//DTD SVG 1.1//EN"
 "http://www.w3.org/Graphics/SVG/1.1/DTD/svg11.dtd">
<!-- Generated by graphviz version 7.0.5 (20221223.1930)
 -->
<!-- Title: include/JSystem/JUtility/JUTGraphFifo.h Pages: 1 -->
<svg width="1192pt" height="489pt"
 viewBox="0.00 0.00 1191.50 489.00" xmlns="http://www.w3.org/2000/svg" xmlns:xlink="http://www.w3.org/1999/xlink">
<g id="graph0" class="graph" transform="scale(1 1) rotate(0) translate(4 485)">
<title>include/JSystem/JUtility/JUTGraphFifo.h</title>
<!-- Node1 -->
<g id="node1" class="node">
<title>Node1</title>
<g id="a_node1"><a xlink:title=" ">
<polygon fill="#999999" stroke="#666666" points="698.5,-481 576.5,-481 576.5,-451 698.5,-451 698.5,-481"/>
<text text-anchor="start" x="584.5" y="-469" font-family="Helvetica,sans-Serif" font-size="10.00">include/JSystem/JUtility</text>
<text text-anchor="middle" x="637.5" y="-458" font-family="Helvetica,sans-Serif" font-size="10.00">/JUTGraphFifo.h</text>
</a>
</g>
</g>
<!-- Node2 -->
<g id="node2" class="node">
<title>Node2</title>
<g id="a_node2"><a xlink:href="GX_8h.html" target="_top" xlink:title=" ">
<polygon fill="white" stroke="#666666" points="680,-415 595,-415 595,-396 680,-396 680,-415"/>
<text text-anchor="middle" x="637.5" y="-403" font-family="Helvetica,sans-Serif" font-size="10.00">dolphin/gx/GX.h</text>
</a>
</g>
</g>
<!-- Node1&#45;&gt;Node2 -->
<g id="edge1" class="edge">
<title>Node1&#45;&gt;Node2</title>
<path fill="none" stroke="#63b8ff" d="M637.5,-450.54C637.5,-443.34 637.5,-434.53 637.5,-426.68"/>
<polygon fill="#63b8ff" stroke="#63b8ff" points="641,-426.69 637.5,-416.69 634,-426.69 641,-426.69"/>
</g>
<!-- Node3 -->
<g id="node3" class="node">
<title>Node3</title>
<g id="a_node3"><a xlink:href="GXAttr_8h.html" target="_top" xlink:title=" ">
<polygon fill="white" stroke="#666666" points="174,-360 73,-360 73,-341 174,-341 174,-360"/>
<text text-anchor="middle" x="123.5" y="-348" font-family="Helvetica,sans-Serif" font-size="10.00">dolphin/gx/GXAttr.h</text>
</a>
</g>
</g>
<!-- Node2&#45;&gt;Node3 -->
<g id="edge2" class="edge">
<title>Node2&#45;&gt;Node3</title>
<path fill="none" stroke="#63b8ff" d="M594.77,-400.98C515.97,-394.33 342.19,-379.03 185.57,-360.33"/>
<polygon fill="#63b8ff" stroke="#63b8ff" points="186.18,-356.87 175.83,-359.15 185.34,-363.82 186.18,-356.87"/>
</g>
<!-- Node7 -->
<g id="node7" class="node">
<title>Node7</title>
<g id="a_node7"><a xlink:href="GXBump_8h.html" target="_top" xlink:title=" ">
<polygon fill="white" stroke="#666666" points="447.5,-360 337.5,-360 337.5,-341 447.5,-341 447.5,-360"/>
<text text-anchor="middle" x="392.5" y="-348" font-family="Helvetica,sans-Serif" font-size="10.00">dolphin/gx/GXBump.h</text>
</a>
</g>
</g>
<!-- Node2&#45;&gt;Node7 -->
<g id="edge6" class="edge">
<title>Node2&#45;&gt;Node7</title>
<path fill="none" stroke="#63b8ff" d="M595.94,-395.51C554.28,-386.5 490.02,-372.6 444.89,-362.83"/>
<polygon fill="#63b8ff" stroke="#63b8ff" points="445.85,-359.46 435.33,-360.77 444.37,-366.3 445.85,-359.46"/>
</g>
<!-- Node8 -->
<g id="node8" class="node">
<title>Node8</title>
<g id="a_node8"><a xlink:href="GXDisplayList_8h.html" target="_top" xlink:title=" ">
<polygon fill="white" stroke="#666666" points="1108,-140 975,-140 975,-121 1108,-121 1108,-140"/>
<text text-anchor="middle" x="1041.5" y="-128" font-family="Helvetica,sans-Serif" font-size="10.00">dolphin/gx/GXDisplayList.h</text>
</a>
</g>
</g>
<!-- Node2&#45;&gt;Node8 -->
<g id="edge8" class="edge">
<title>Node2&#45;&gt;Node8</title>
<path fill="none" stroke="#63b8ff" d="M680.34,-405.1C809.06,-405.77 1183.5,-398.93 1183.5,-296.5 1183.5,-296.5 1183.5,-296.5 1183.5,-239.5 1183.5,-189.32 1126.62,-159.4 1084.86,-144.19"/>
<polygon fill="#63b8ff" stroke="#63b8ff" points="1086.1,-140.92 1075.51,-140.96 1083.82,-147.53 1086.1,-140.92"/>
</g>
<!-- Node9 -->
<g id="node9" class="node">
<title>Node9</title>
<g id="a_node9"><a xlink:href="GXFifo_8h.html" target="_top" xlink:title=" ">
<polygon fill="white" stroke="#666666" points="337,-305 236,-305 236,-286 337,-286 337,-305"/>
<text text-anchor="middle" x="286.5" y="-293" font-family="Helvetica,sans-Serif" font-size="10.00">dolphin/gx/GXFifo.h</text>
</a>
</g>
</g>
<!-- Node2&#45;&gt;Node9 -->
<g id="edge10" class="edge">
<title>Node2&#45;&gt;Node9</title>
<path fill="none" stroke="#63b8ff" d="M603.15,-395.5C573.84,-387.42 530.8,-374.61 494.5,-360 476.98,-352.95 474.17,-347.65 456.5,-341 419.17,-326.96 375.64,-315.65 341.97,-307.95"/>
<polygon fill="#63b8ff" stroke="#63b8ff" points="342.96,-304.59 332.43,-305.81 341.42,-311.42 342.96,-304.59"/>
</g>
<!-- Node14 -->
<g id="node14" class="node">
<title>Node14</title>
<g id="a_node14"><a xlink:href="GXFrameBuf_8h.html" target="_top" xlink:title=" ">
<polygon fill="white" stroke="#666666" points="641.5,-305 513.5,-305 513.5,-286 641.5,-286 641.5,-305"/>
<text text-anchor="middle" x="577.5" y="-293" font-family="Helvetica,sans-Serif" font-size="10.00">dolphin/gx/GXFrameBuf.h</text>
</a>
</g>
</g>
<!-- Node2&#45;&gt;Node14 -->
<g id="edge18" class="edge">
<title>Node2&#45;&gt;Node14</title>
<path fill="none" stroke="#63b8ff" d="M643.11,-395.71C650.52,-382.9 661.5,-358.69 651.5,-341 643.68,-327.17 629.65,-317.16 615.89,-310.19"/>
<polygon fill="#63b8ff" stroke="#63b8ff" points="617.46,-307.05 606.91,-306.06 614.54,-313.41 617.46,-307.05"/>
</g>
<!-- Node15 -->
<g id="node15" class="node">
<title>Node15</title>
<g id="a_node15"><a xlink:href="GXGeometry_8h.html" target="_top" xlink:title=" ">
<polygon fill="white" stroke="#666666" points="319,-360 192,-360 192,-341 319,-341 319,-360"/>
<text text-anchor="middle" x="255.5" y="-348" font-family="Helvetica,sans-Serif" font-size="10.00">dolphin/gx/GXGeometry.h</text>
</a>
</g>
</g>
<!-- Node2&#45;&gt;Node15 -->
<g id="edge21" class="edge">
<title>Node2&#45;&gt;Node15</title>
<path fill="none" stroke="#63b8ff" d="M594.79,-398.57C530.96,-389.72 409.74,-372.9 330.81,-361.95"/>
<polygon fill="#63b8ff" stroke="#63b8ff" points="331.37,-358.49 320.98,-360.59 330.41,-365.43 331.37,-358.49"/>
</g>
<!-- Node16 -->
<g id="node16" class="node">
<title>Node16</title>
<g id="a_node16"><a xlink:href="GXLight_8h.html" target="_top" xlink:title=" ">
<polygon fill="white" stroke="#666666" points="767,-305 660,-305 660,-286 767,-286 767,-305"/>
<text text-anchor="middle" x="713.5" y="-293" font-family="Helvetica,sans-Serif" font-size="10.00">dolphin/gx/GXLight.h</text>
</a>
</g>
</g>
<!-- Node2&#45;&gt;Node16 -->
<g id="edge23" class="edge">
<title>Node2&#45;&gt;Node16</title>
<path fill="none" stroke="#63b8ff" d="M643.72,-395.66C656.13,-378.02 684.21,-338.12 700.71,-314.67"/>
<polygon fill="#63b8ff" stroke="#63b8ff" points="703.43,-316.89 706.32,-306.7 697.71,-312.86 703.43,-316.89"/>
</g>
<!-- Node17 -->
<g id="node17" class="node">
<title>Node17</title>
<g id="a_node17"><a xlink:href="GXMisc_8h.html" target="_top" xlink:title=" ">
<polygon fill="white" stroke="#666666" points="609.5,-360 503.5,-360 503.5,-341 609.5,-341 609.5,-360"/>
<text text-anchor="middle" x="556.5" y="-348" font-family="Helvetica,sans-Serif" font-size="10.00">dolphin/gx/GXMisc.h</text>
</a>
</g>
</g>
<!-- Node2&#45;&gt;Node17 -->
<g id="edge26" class="edge">
<title>Node2&#45;&gt;Node17</title>
<path fill="none" stroke="#63b8ff" d="M623.76,-395.51C611.7,-387.62 593.91,-375.98 579.66,-366.65"/>
<polygon fill="#63b8ff" stroke="#63b8ff" points="581.59,-363.73 571.3,-361.19 577.76,-369.59 581.59,-363.73"/>
</g>
<!-- Node18 -->
<g id="node18" class="node">
<title>Node18</title>
<g id="a_node18"><a xlink:href="GXPerf_8h.html" target="_top" xlink:title=" ">
<polygon fill="white" stroke="#666666" points="103,-305 0,-305 0,-286 103,-286 103,-305"/>
<text text-anchor="middle" x="51.5" y="-293" font-family="Helvetica,sans-Serif" font-size="10.00">dolphin/gx/GXPerf.h</text>
</a>
</g>
</g>
<!-- Node2&#45;&gt;Node18 -->
<g id="edge28" class="edge">
<title>Node2&#45;&gt;Node18</title>
<path fill="none" stroke="#63b8ff" d="M594.62,-404.13C468.11,-402.62 102.81,-395.23 63.5,-360 51.61,-349.34 49.23,-330.91 49.46,-316.64"/>
<polygon fill="#63b8ff" stroke="#63b8ff" points="52.94,-317.18 50.07,-306.98 45.95,-316.75 52.94,-317.18"/>
</g>
<!-- Node19 -->
<g id="node19" class="node">
<title>Node19</title>
<g id="a_node19"><a xlink:href="GXPixel_8h.html" target="_top" xlink:title=" ">
<polygon fill="white" stroke="#666666" points="891.5,-305 785.5,-305 785.5,-286 891.5,-286 891.5,-305"/>
<text text-anchor="middle" x="838.5" y="-293" font-family="Helvetica,sans-Serif" font-size="10.00">dolphin/gx/GXPixel.h</text>
</a>
</g>
</g>
<!-- Node2&#45;&gt;Node19 -->
<g id="edge31" class="edge">
<title>Node2&#45;&gt;Node19</title>
<path fill="none" stroke="#63b8ff" d="M653.95,-395.66C688.62,-377.03 769.49,-333.58 811.73,-310.89"/>
<polygon fill="#63b8ff" stroke="#63b8ff" points="813.34,-313.99 820.49,-306.18 810.03,-307.83 813.34,-313.99"/>
</g>
<!-- Node20 -->
<g id="node20" class="node">
<title>Node20</title>
<g id="a_node20"><a xlink:href="GXTev_8h.html" target="_top" xlink:title=" ">
<polygon fill="white" stroke="#666666" points="495,-305 394,-305 394,-286 495,-286 495,-305"/>
<text text-anchor="middle" x="444.5" y="-293" font-family="Helvetica,sans-Serif" font-size="10.00">dolphin/gx/GXTev.h</text>
</a>
</g>
</g>
<!-- Node2&#45;&gt;Node20 -->
<g id="edge34" class="edge">
<title>Node2&#45;&gt;Node20</title>
<path fill="none" stroke="#63b8ff" d="M637.46,-395.74C636.91,-382.05 633.77,-355.67 618.5,-341 602.4,-325.53 549.86,-313.45 506.69,-305.8"/>
<polygon fill="#63b8ff" stroke="#63b8ff" points="507.32,-302.35 496.87,-304.11 506.13,-309.25 507.32,-302.35"/>
</g>
<!-- Node21 -->
<g id="node21" class="node">
<title>Node21</title>
<g id="a_node21"><a xlink:href="GXTexture_8h.html" target="_top" xlink:title=" ">
<polygon fill="white" stroke="#666666" points="1103,-360 986,-360 986,-341 1103,-341 1103,-360"/>
<text text-anchor="middle" x="1044.5" y="-348" font-family="Helvetica,sans-Serif" font-size="10.00">dolphin/gx/GXTexture.h</text>
</a>
</g>
</g>
<!-- Node2&#45;&gt;Node21 -->
<g id="edge37" class="edge">
<title>Node2&#45;&gt;Node21</title>
<path fill="none" stroke="#63b8ff" d="M680.29,-398.93C750.24,-389.82 889.75,-371.65 974.34,-360.64"/>
<polygon fill="#63b8ff" stroke="#63b8ff" points="974.68,-364.12 984.15,-359.36 973.78,-357.18 974.68,-364.12"/>
</g>
<!-- Node27 -->
<g id="node27" class="node">
<title>Node27</title>
<g id="a_node27"><a xlink:href="GXTransform_8h.html" target="_top" xlink:title=" ">
<polygon fill="white" stroke="#666666" points="1039,-305 910,-305 910,-286 1039,-286 1039,-305"/>
<text text-anchor="middle" x="974.5" y="-293" font-family="Helvetica,sans-Serif" font-size="10.00">dolphin/gx/GXTransform.h</text>
</a>
</g>
</g>
<!-- Node2&#45;&gt;Node27 -->
<g id="edge48" class="edge">
<title>Node2&#45;&gt;Node27</title>
<path fill="none" stroke="#63b8ff" d="M665.36,-395.57C725.42,-376.33 867.14,-330.9 935.84,-308.89"/>
<polygon fill="#63b8ff" stroke="#63b8ff" points="936.71,-312.29 945.16,-305.9 934.57,-305.62 936.71,-312.29"/>
</g>
<!-- Node4 -->
<g id="node4" class="node">
<title>Node4</title>
<g id="a_node4"><a xlink:href="GXEnum_8h.html" target="_top" xlink:title=" ">
<polygon fill="white" stroke="#666666" points="499.5,-250 389.5,-250 389.5,-231 499.5,-231 499.5,-250"/>
<text text-anchor="middle" x="444.5" y="-238" font-family="Helvetica,sans-Serif" font-size="10.00">dolphin/gx/GXEnum.h</text>
</a>
</g>
</g>
<!-- Node3&#45;&gt;Node4 -->
<g id="edge3" class="edge">
<title>Node3&#45;&gt;Node4</title>
<path fill="none" stroke="#63b8ff" d="M132.91,-340.51C148.13,-326.52 179.66,-299.72 211.5,-286 240.8,-273.38 319.96,-259.73 377.91,-250.93"/>
<polygon fill="#63b8ff" stroke="#63b8ff" points="378.33,-254.41 387.7,-249.46 377.29,-247.48 378.33,-254.41"/>
</g>
<!-- Node5 -->
<g id="node5" class="node">
<title>Node5</title>
<g id="a_node5"><a xlink:href="types_8h.html" target="_top" xlink:title=" ">
<polygon fill="white" stroke="#666666" points="739,-85 658,-85 658,-66 739,-66 739,-85"/>
<text text-anchor="middle" x="698.5" y="-73" font-family="Helvetica,sans-Serif" font-size="10.00">dolphin/types.h</text>
</a>
</g>
</g>
<!-- Node4&#45;&gt;Node5 -->
<g id="edge4" class="edge">
<title>Node4&#45;&gt;Node5</title>
<path fill="none" stroke="#63b8ff" d="M458.52,-230.5C500.06,-203.84 622.87,-125.03 674.84,-91.68"/>
<polygon fill="#63b8ff" stroke="#63b8ff" points="676.73,-94.63 683.25,-86.29 672.95,-88.74 676.73,-94.63"/>
</g>
<!-- Node6 -->
<g id="node6" class="node">
<title>Node6</title>
<g id="a_node6"><a xlink:href="stddef_8h.html" target="_top" xlink:title=" ">
<polygon fill="white" stroke="#666666" points="766.5,-30 630.5,-30 630.5,0 766.5,0 766.5,-30"/>
<text text-anchor="start" x="638.5" y="-18" font-family="Helvetica,sans-Serif" font-size="10.00">MSL_C/MSL_Common/Src</text>
<text text-anchor="middle" x="698.5" y="-7" font-family="Helvetica,sans-Serif" font-size="10.00">/stddef.h</text>
</a>
</g>
</g>
<!-- Node5&#45;&gt;Node6 -->
<g id="edge5" class="edge">
<title>Node5&#45;&gt;Node6</title>
<path fill="none" stroke="#63b8ff" d="M698.5,-65.87C698.5,-59.4 698.5,-50.2 698.5,-41.45"/>
<polygon fill="#63b8ff" stroke="#63b8ff" points="702,-41.63 698.5,-31.63 695,-41.63 702,-41.63"/>
</g>
<!-- Node7&#45;&gt;Node4 -->
<g id="edge7" class="edge">
<title>Node7&#45;&gt;Node4</title>
<path fill="none" stroke="#63b8ff" d="M337.26,-341.99C294.41,-334.9 240.08,-322.7 226.5,-305 221.36,-298.3 221.16,-292.54 226.5,-286 236.19,-274.13 317.57,-259.89 378.08,-250.77"/>
<polygon fill="#63b8ff" stroke="#63b8ff" points="378.24,-254.28 387.62,-249.35 377.21,-247.36 378.24,-254.28"/>
</g>
<!-- Node8&#45;&gt;Node5 -->
<g id="edge9" class="edge">
<title>Node8&#45;&gt;Node5</title>
<path fill="none" stroke="#63b8ff" d="M983.31,-120.51C918.09,-110.43 813.28,-94.24 750.63,-84.56"/>
<polygon fill="#63b8ff" stroke="#63b8ff" points="751.36,-81.13 740.94,-83.06 750.29,-88.04 751.36,-81.13"/>
</g>
<!-- Node9&#45;&gt;Node4 -->
<g id="edge14" class="edge">
<title>Node9&#45;&gt;Node4</title>
<path fill="none" stroke="#63b8ff" d="M313.3,-285.51C339.03,-276.88 378.13,-263.76 406.95,-254.1"/>
<polygon fill="#63b8ff" stroke="#63b8ff" points="408.03,-257.43 416.4,-250.93 405.8,-250.79 408.03,-257.43"/>
</g>
<!-- Node10 -->
<g id="node10" class="node">
<title>Node10</title>
<g id="a_node10"><a xlink:href="GXStruct_8h.html" target="_top" xlink:title=" ">
<polygon fill="white" stroke="#666666" points="701,-250 590,-250 590,-231 701,-231 701,-250"/>
<text text-anchor="middle" x="645.5" y="-238" font-family="Helvetica,sans-Serif" font-size="10.00">dolphin/gx/GXStruct.h</text>
</a>
</g>
</g>
<!-- Node9&#45;&gt;Node10 -->
<g id="edge11" class="edge">
<title>Node9&#45;&gt;Node10</title>
<path fill="none" stroke="#63b8ff" d="M337.17,-287.02C400.34,-277.69 508.49,-261.73 578.46,-251.4"/>
<polygon fill="#63b8ff" stroke="#63b8ff" points="578.9,-254.87 588.28,-249.95 577.87,-247.95 578.9,-254.87"/>
</g>
<!-- Node12 -->
<g id="node12" class="node">
<title>Node12</title>
<g id="a_node12"><a xlink:href="OSThread_8h.html" target="_top" xlink:title=" ">
<polygon fill="white" stroke="#666666" points="357.5,-250 241.5,-250 241.5,-231 357.5,-231 357.5,-250"/>
<text text-anchor="middle" x="299.5" y="-238" font-family="Helvetica,sans-Serif" font-size="10.00">dolphin/os/OSThread.h</text>
</a>
</g>
</g>
<!-- Node9&#45;&gt;Node12 -->
<g id="edge15" class="edge">
<title>Node9&#45;&gt;Node12</title>
<path fill="none" stroke="#63b8ff" d="M288.65,-285.75C290.26,-279.19 292.52,-269.95 294.57,-261.6"/>
<polygon fill="#63b8ff" stroke="#63b8ff" points="297.96,-262.46 296.95,-251.91 291.16,-260.79 297.96,-262.46"/>
</g>
<!-- Node11 -->
<g id="node11" class="node">
<title>Node11</title>
<g id="a_node11"><a xlink:href="global_8h.html" target="_top" xlink:title=" ">
<polygon fill="white" stroke="#666666" points="670.5,-195 620.5,-195 620.5,-176 670.5,-176 670.5,-195"/>
<text text-anchor="middle" x="645.5" y="-183" font-family="Helvetica,sans-Serif" font-size="10.00">global.h</text>
</a>
</g>
</g>
<!-- Node10&#45;&gt;Node11 -->
<g id="edge12" class="edge">
<title>Node10&#45;&gt;Node11</title>
<path fill="none" stroke="#63b8ff" d="M645.5,-230.75C645.5,-224.27 645.5,-215.16 645.5,-206.9"/>
<polygon fill="#63b8ff" stroke="#63b8ff" points="649,-206.96 645.5,-196.96 642,-206.96 649,-206.96"/>
</g>
<!-- Node11&#45;&gt;Node5 -->
<g id="edge13" class="edge">
<title>Node11&#45;&gt;Node5</title>
<path fill="none" stroke="#63b8ff" d="M649.84,-175.66C658.38,-158.26 677.55,-119.19 689.12,-95.62"/>
<polygon fill="#63b8ff" stroke="#63b8ff" points="692.17,-97.34 693.44,-86.82 685.89,-94.25 692.17,-97.34"/>
</g>
<!-- Node13 -->
<g id="node13" class="node">
<title>Node13</title>
<g id="a_node13"><a xlink:href="OSContext_8h.html" target="_top" xlink:title=" ">
<polygon fill="white" stroke="#666666" points="453,-140 334,-140 334,-121 453,-121 453,-140"/>
<text text-anchor="middle" x="393.5" y="-128" font-family="Helvetica,sans-Serif" font-size="10.00">dolphin/os/OSContext.h</text>
</a>
</g>
</g>
<!-- Node12&#45;&gt;Node13 -->
<g id="edge16" class="edge">
<title>Node12&#45;&gt;Node13</title>
<path fill="none" stroke="#63b8ff" d="M307.19,-230.66C322.68,-212.86 357.9,-172.41 378.23,-149.04"/>
<polygon fill="#63b8ff" stroke="#63b8ff" points="380.78,-151.44 384.71,-141.6 375.5,-146.85 380.78,-151.44"/>
</g>
<!-- Node13&#45;&gt;Node5 -->
<g id="edge17" class="edge">
<title>Node13&#45;&gt;Node5</title>
<path fill="none" stroke="#63b8ff" d="M445.24,-120.51C501.37,-110.76 590.46,-95.27 646.63,-85.51"/>
<polygon fill="#63b8ff" stroke="#63b8ff" points="647.01,-89 656.26,-83.84 645.81,-82.1 647.01,-89"/>
</g>
<!-- Node14&#45;&gt;Node4 -->
<g id="edge20" class="edge">
<title>Node14&#45;&gt;Node4</title>
<path fill="none" stroke="#63b8ff" d="M554.94,-285.51C533.6,-277.01 501.34,-264.15 477.19,-254.53"/>
<polygon fill="#63b8ff" stroke="#63b8ff" points="478.72,-251.37 468.13,-250.92 476.13,-257.87 478.72,-251.37"/>
</g>
<!-- Node14&#45;&gt;Node10 -->
<g id="edge19" class="edge">
<title>Node14&#45;&gt;Node10</title>
<path fill="none" stroke="#63b8ff" d="M589.04,-285.51C598.96,-277.77 613.51,-266.43 625.36,-257.2"/>
<polygon fill="#63b8ff" stroke="#63b8ff" points="627.21,-260.2 632.94,-251.29 622.9,-254.68 627.21,-260.2"/>
</g>
<!-- Node15&#45;&gt;Node4 -->
<g id="edge22" class="edge">
<title>Node15&#45;&gt;Node4</title>
<path fill="none" stroke="#63b8ff" d="M244.04,-340.69C228.7,-327.86 205.02,-303.63 219.5,-286 229.63,-273.66 315.37,-259.32 378.01,-250.33"/>
<polygon fill="#63b8ff" stroke="#63b8ff" points="378.11,-253.85 387.52,-248.98 377.13,-246.92 378.11,-253.85"/>
</g>
<!-- Node16&#45;&gt;Node4 -->
<g id="edge25" class="edge">
<title>Node16&#45;&gt;Node4</title>
<path fill="none" stroke="#63b8ff" d="M667.87,-285.51C621.84,-276.44 550.67,-262.42 501.08,-252.65"/>
<polygon fill="#63b8ff" stroke="#63b8ff" points="501.88,-249.24 491.39,-250.74 500.53,-256.11 501.88,-249.24"/>
</g>
<!-- Node16&#45;&gt;Node10 -->
<g id="edge24" class="edge">
<title>Node16&#45;&gt;Node10</title>
<path fill="none" stroke="#63b8ff" d="M701.96,-285.51C692.04,-277.77 677.49,-266.43 665.64,-257.2"/>
<polygon fill="#63b8ff" stroke="#63b8ff" points="668.1,-254.68 658.06,-251.29 663.79,-260.2 668.1,-254.68"/>
</g>
<!-- Node17&#45;&gt;Node4 -->
<g id="edge27" class="edge">
<title>Node17&#45;&gt;Node4</title>
<path fill="none" stroke="#63b8ff" d="M503.14,-342.77C458.51,-335.92 399.9,-323.63 385.5,-305 371.74,-287.2 394.18,-268.53 415.23,-256.08"/>
<polygon fill="#63b8ff" stroke="#63b8ff" points="416.92,-259.14 423.96,-251.23 413.52,-253.02 416.92,-259.14"/>
</g>
<!-- Node18&#45;&gt;Node4 -->
<g id="edge30" class="edge">
<title>Node18&#45;&gt;Node4</title>
<path fill="none" stroke="#63b8ff" d="M103.28,-287.52C173.91,-277.99 300.49,-260.92 378.04,-250.46"/>
<polygon fill="#63b8ff" stroke="#63b8ff" points="378.18,-253.98 387.62,-249.17 377.24,-247.04 378.18,-253.98"/>
</g>
<!-- Node18&#45;&gt;Node5 -->
<g id="edge29" class="edge">
<title>Node18&#45;&gt;Node5</title>
<path fill="none" stroke="#63b8ff" d="M61.56,-285.7C95.7,-256.37 211.44,-161.55 325.5,-121 435.01,-82.06 572.82,-75.77 646.45,-75.54"/>
<polygon fill="#63b8ff" stroke="#63b8ff" points="646.18,-79.04 656.19,-75.55 646.19,-72.04 646.18,-79.04"/>
</g>
<!-- Node19&#45;&gt;Node4 -->
<g id="edge33" class="edge">
<title>Node19&#45;&gt;Node4</title>
<path fill="none" stroke="#63b8ff" d="M785.07,-287.16C782.17,-286.77 779.3,-286.38 776.5,-286 684.44,-273.52 577.98,-259.29 510.95,-250.35"/>
<polygon fill="#63b8ff" stroke="#63b8ff" points="511.6,-246.9 501.23,-249.05 510.68,-253.84 511.6,-246.9"/>
</g>
<!-- Node19&#45;&gt;Node10 -->
<g id="edge32" class="edge">
<title>Node19&#45;&gt;Node10</title>
<path fill="none" stroke="#63b8ff" d="M805.76,-285.51C773.64,-276.69 724.46,-263.18 689.05,-253.46"/>
<polygon fill="#63b8ff" stroke="#63b8ff" points="690.11,-250.12 679.54,-250.85 688.25,-256.87 690.11,-250.12"/>
</g>
<!-- Node20&#45;&gt;Node4 -->
<g id="edge35" class="edge">
<title>Node20&#45;&gt;Node4</title>
<path fill="none" stroke="#63b8ff" d="M444.5,-285.75C444.5,-279.27 444.5,-270.16 444.5,-261.9"/>
<polygon fill="#63b8ff" stroke="#63b8ff" points="448,-261.96 444.5,-251.96 441,-261.96 448,-261.96"/>
</g>
<!-- Node20&#45;&gt;Node10 -->
<g id="edge36" class="edge">
<title>Node20&#45;&gt;Node10</title>
<path fill="none" stroke="#63b8ff" d="M478.6,-285.51C512.19,-276.65 563.71,-263.07 600.62,-253.33"/>
<polygon fill="#63b8ff" stroke="#63b8ff" points="601.33,-256.77 610.11,-250.83 599.55,-250 601.33,-256.77"/>
</g>
<!-- Node22 -->
<g id="node22" class="node">
<title>Node22</title>
<g id="a_node22"><a xlink:href="GXInit_8h.html" target="_top" xlink:title=" ">
<polygon fill="white" stroke="#666666" points="1155.5,-305 1057.5,-305 1057.5,-286 1155.5,-286 1155.5,-305"/>
<text text-anchor="middle" x="1106.5" y="-293" font-family="Helvetica,sans-Serif" font-size="10.00">dolphin/gx/GXInit.h</text>
</a>
</g>
</g>
<!-- Node21&#45;&gt;Node22 -->
<g id="edge38" class="edge">
<title>Node21&#45;&gt;Node22</title>
<path fill="none" stroke="#63b8ff" d="M1055.02,-340.51C1063.89,-332.93 1076.81,-321.88 1087.49,-312.75"/>
<polygon fill="#63b8ff" stroke="#63b8ff" points="1089.66,-315.5 1094.99,-306.34 1085.11,-310.18 1089.66,-315.5"/>
</g>
<!-- Node22&#45;&gt;Node4 -->
<g id="edge39" class="edge">
<title>Node22&#45;&gt;Node4</title>
<path fill="none" stroke="#63b8ff" d="M1057.17,-287.02C1054.24,-286.66 1051.33,-286.31 1048.5,-286 945.93,-274.72 645.58,-254.58 511.03,-245.79"/>
<polygon fill="#63b8ff" stroke="#63b8ff" points="511.41,-242.31 501.21,-245.15 510.96,-249.3 511.41,-242.31"/>
</g>
<!-- Node22&#45;&gt;Node10 -->
<g id="edge40" class="edge">
<title>Node22&#45;&gt;Node10</title>
<path fill="none" stroke="#63b8ff" d="M1057.16,-287.15C1054.23,-286.75 1051.33,-286.36 1048.5,-286 930.55,-270.85 792.77,-256.32 712.7,-248.18"/>
<polygon fill="#63b8ff" stroke="#63b8ff" points="713.12,-244.71 702.82,-247.18 712.41,-251.67 713.12,-244.71"/>
</g>
<!-- Node23 -->
<g id="node23" class="node">
<title>Node23</title>
<g id="a_node23"><a xlink:href="mtx_8h.html" target="_top" xlink:title=" ">
<polygon fill="white" stroke="#666666" points="938.5,-250 846.5,-250 846.5,-231 938.5,-231 938.5,-250"/>
<text text-anchor="middle" x="892.5" y="-238" font-family="Helvetica,sans-Serif" font-size="10.00">dolphin/mtx/mtx.h</text>
</a>
</g>
</g>
<!-- Node22&#45;&gt;Node23 -->
<g id="edge41" class="edge">
<title>Node22&#45;&gt;Node23</title>
<path fill="none" stroke="#63b8ff" d="M1070.2,-285.51C1034.27,-276.61 979.1,-262.95 939.77,-253.21"/>
<polygon fill="#63b8ff" stroke="#63b8ff" points="940.64,-249.82 930.09,-250.81 938.96,-256.61 940.64,-249.82"/>
</g>
<!-- Node23&#45;&gt;Node5 -->
<g id="edge47" class="edge">
<title>Node23&#45;&gt;Node5</title>
<path fill="none" stroke="#63b8ff" d="M877.42,-230.65C864.45,-222.52 845.78,-209.56 832.5,-195 806.56,-166.56 815.82,-147.07 787.5,-121 772.66,-107.34 752.84,-96.88 735.67,-89.55"/>
<polygon fill="#63b8ff" stroke="#63b8ff" points="737.38,-86.46 726.8,-85.95 734.75,-92.95 737.38,-86.46"/>
</g>
<!-- Node24 -->
<g id="node24" class="node">
<title>Node24</title>
<g id="a_node24"><a xlink:href="mtx44_8h.html" target="_top" xlink:title=" ">
<polygon fill="white" stroke="#666666" points="944,-195 841,-195 841,-176 944,-176 944,-195"/>
<text text-anchor="middle" x="892.5" y="-183" font-family="Helvetica,sans-Serif" font-size="10.00">dolphin/mtx/mtx44.h</text>
</a>
</g>
</g>
<!-- Node23&#45;&gt;Node24 -->
<g id="edge42" class="edge">
<title>Node23&#45;&gt;Node24</title>
<path fill="none" stroke="#63b8ff" d="M892.5,-230.75C892.5,-224.27 892.5,-215.16 892.5,-206.9"/>
<polygon fill="#63b8ff" stroke="#63b8ff" points="896,-206.96 892.5,-196.96 889,-206.96 896,-206.96"/>
</g>
<!-- Node25 -->
<g id="node25" class="node">
<title>Node25</title>
<g id="a_node25"><a xlink:href="quat_8h.html" target="_top" xlink:title=" ">
<polygon fill="white" stroke="#666666" points="784,-195 689,-195 689,-176 784,-176 784,-195"/>
<text text-anchor="middle" x="736.5" y="-183" font-family="Helvetica,sans-Serif" font-size="10.00">dolphin/mtx/quat.h</text>
</a>
</g>
</g>
<!-- Node23&#45;&gt;Node25 -->
<g id="edge44" class="edge">
<title>Node23&#45;&gt;Node25</title>
<path fill="none" stroke="#63b8ff" d="M866.04,-230.51C840.64,-221.88 802.03,-208.76 773.58,-199.1"/>
<polygon fill="#63b8ff" stroke="#63b8ff" points="774.86,-195.84 764.27,-195.93 772.61,-202.46 774.86,-195.84"/>
</g>
<!-- Node24&#45;&gt;Node5 -->
<g id="edge43" class="edge">
<title>Node24&#45;&gt;Node5</title>
<path fill="none" stroke="#63b8ff" d="M885.69,-175.89C874.62,-162.41 851.44,-136.3 826.5,-121 802.68,-106.38 773.4,-95.75 748.86,-88.55"/>
<polygon fill="#63b8ff" stroke="#63b8ff" points="749.98,-85.23 739.41,-85.89 748.09,-91.97 749.98,-85.23"/>
</g>
<!-- Node26 -->
<g id="node26" class="node">
<title>Node26</title>
<g id="a_node26"><a xlink:href="vec_8h.html" target="_top" xlink:title=" ">
<polygon fill="white" stroke="#666666" points="778.5,-140 686.5,-140 686.5,-121 778.5,-121 778.5,-140"/>
<text text-anchor="middle" x="732.5" y="-128" font-family="Helvetica,sans-Serif" font-size="10.00">dolphin/mtx/vec.h</text>
</a>
</g>
</g>
<!-- Node25&#45;&gt;Node26 -->
<g id="edge45" class="edge">
<title>Node25&#45;&gt;Node26</title>
<path fill="none" stroke="#63b8ff" d="M735.84,-175.75C735.35,-169.27 734.66,-160.16 734.04,-151.9"/>
<polygon fill="#63b8ff" stroke="#63b8ff" points="737.53,-151.66 733.29,-141.95 730.55,-152.19 737.53,-151.66"/>
</g>
<!-- Node26&#45;&gt;Node5 -->
<g id="edge46" class="edge">
<title>Node26&#45;&gt;Node5</title>
<path fill="none" stroke="#63b8ff" d="M726.89,-120.75C722.38,-113.73 715.91,-103.64 710.29,-94.87"/>
<polygon fill="#63b8ff" stroke="#63b8ff" points="713.4,-93.24 705.05,-86.72 707.51,-97.02 713.4,-93.24"/>
</g>
<!-- Node27&#45;&gt;Node4 -->
<g id="edge49" class="edge">
<title>Node27&#45;&gt;Node4</title>
<path fill="none" stroke="#63b8ff" d="M909.53,-286.97C906.48,-286.64 903.46,-286.31 900.5,-286 762.21,-271.31 600.12,-255.93 511.24,-247.65"/>
<polygon fill="#63b8ff" stroke="#63b8ff" points="511.77,-244.19 501.49,-246.75 511.12,-251.16 511.77,-244.19"/>
</g>
<!-- Node27&#45;&gt;Node23 -->
<g id="edge50" class="edge">
<title>Node27&#45;&gt;Node23</title>
<path fill="none" stroke="#63b8ff" d="M960.59,-285.51C948.26,-277.54 930.03,-265.75 915.53,-256.38"/>
<polygon fill="#63b8ff" stroke="#63b8ff" points="917.77,-253.67 907.48,-251.18 913.97,-259.55 917.77,-253.67"/>
</g>
</g>
</svg>
