<?xml version="1.0" encoding="UTF-8" standalone="no"?>
<!DOCTYPE svg PUBLIC "-//W3C//DTD SVG 1.1//EN"
 "http://www.w3.org/Graphics/SVG/1.1/DTD/svg11.dtd">
<!-- Generated by graphviz version 7.0.5 (20221223.1930)
 -->
<!-- Title: libs/JSystem/JUtility/JUTGamePad.cpp Pages: 1 -->
<svg width="937pt" height="357pt"
 viewBox="0.00 0.00 937.00 357.00" xmlns="http://www.w3.org/2000/svg" xmlns:xlink="http://www.w3.org/1999/xlink">
<g id="graph0" class="graph" transform="scale(1 1) rotate(0) translate(4 353)">
<title>libs/JSystem/JUtility/JUTGamePad.cpp</title>
<!-- Node1 -->
<g id="node1" class="node">
<title>Node1</title>
<g id="a_node1"><a xlink:title=" ">
<polygon fill="#999999" stroke="#666666" points="556,-349 450,-349 450,-319 556,-319 556,-349"/>
<text text-anchor="start" x="458" y="-337" font-family="Helvetica,sans-Serif" font-size="10.00">libs/JSystem/JUtility</text>
<text text-anchor="middle" x="503" y="-326" font-family="Helvetica,sans-Serif" font-size="10.00">/JUTGamePad.cpp</text>
</a>
</g>
</g>
<!-- Node2 -->
<g id="node2" class="node">
<title>Node2</title>
<g id="a_node2"><a xlink:href="JUTGamePad_8h.html" target="_top" xlink:title=" ">
<polygon fill="white" stroke="#666666" points="292,-277.5 156,-277.5 156,-247.5 292,-247.5 292,-277.5"/>
<text text-anchor="start" x="164" y="-265.5" font-family="Helvetica,sans-Serif" font-size="10.00">JSystem/JUtility/JUTGame</text>
<text text-anchor="middle" x="224" y="-254.5" font-family="Helvetica,sans-Serif" font-size="10.00">Pad.h</text>
</a>
</g>
</g>
<!-- Node1&#45;&gt;Node2 -->
<g id="edge1" class="edge">
<title>Node1&#45;&gt;Node2</title>
<path fill="none" stroke="#63b8ff" d="M449.54,-319.68C405.06,-308.6 341.44,-292.75 293.1,-280.71"/>
<polygon fill="#63b8ff" stroke="#63b8ff" points="294.11,-277.36 283.56,-278.34 292.42,-284.15 294.11,-277.36"/>
</g>
<!-- Node9 -->
<g id="node9" class="node">
<title>Node9</title>
<g id="a_node9"><a xlink:href="math_8h.html" target="_top" xlink:title=" ">
<polygon fill="white" stroke="#666666" points="425,-272 343,-272 343,-253 425,-253 425,-272"/>
<text text-anchor="middle" x="384" y="-260" font-family="Helvetica,sans-Serif" font-size="10.00">MSL_C/math.h</text>
</a>
</g>
</g>
<!-- Node1&#45;&gt;Node9 -->
<g id="edge11" class="edge">
<title>Node1&#45;&gt;Node9</title>
<path fill="none" stroke="#63b8ff" d="M478.34,-318.6C458.05,-306.75 429.42,-290.02 409.03,-278.12"/>
<polygon fill="#63b8ff" stroke="#63b8ff" points="410.91,-275.16 400.51,-273.14 407.38,-281.21 410.91,-275.16"/>
</g>
<!-- Node12 -->
<g id="node12" class="node">
<title>Node12</title>
<g id="a_node12"><a xlink:href="dol2asm_8h.html" target="_top" xlink:title=" ">
<polygon fill="white" stroke="#666666" points="504.5,-272 443.5,-272 443.5,-253 504.5,-253 504.5,-272"/>
<text text-anchor="middle" x="474" y="-260" font-family="Helvetica,sans-Serif" font-size="10.00">dol2asm.h</text>
</a>
</g>
</g>
<!-- Node1&#45;&gt;Node12 -->
<g id="edge14" class="edge">
<title>Node1&#45;&gt;Node12</title>
<path fill="none" stroke="#63b8ff" d="M496.99,-318.6C492.66,-308.21 486.76,-294.08 482.02,-282.73"/>
<polygon fill="#63b8ff" stroke="#63b8ff" points="485.29,-281.46 478.2,-273.58 478.83,-284.15 485.29,-281.46"/>
</g>
<!-- Node13 -->
<g id="node13" class="node">
<title>Node13</title>
<g id="a_node13"><a xlink:href="OSResetSW_8h.html" target="_top" xlink:title=" ">
<polygon fill="white" stroke="#666666" points="596.5,-140 469.5,-140 469.5,-121 596.5,-121 596.5,-140"/>
<text text-anchor="middle" x="533" y="-128" font-family="Helvetica,sans-Serif" font-size="10.00">dolphin/os/OSResetSW.h</text>
</a>
</g>
</g>
<!-- Node1&#45;&gt;Node13 -->
<g id="edge15" class="edge">
<title>Node1&#45;&gt;Node13</title>
<path fill="none" stroke="#63b8ff" d="M506.53,-318.63C508.88,-308.67 511.92,-295.09 514,-283 522.04,-236.33 528.11,-181.02 531.05,-151.86"/>
<polygon fill="#63b8ff" stroke="#63b8ff" points="534.53,-152.22 532.02,-141.93 527.56,-151.54 534.53,-152.22"/>
</g>
<!-- Node14 -->
<g id="node14" class="node">
<title>Node14</title>
<g id="a_node14"><a xlink:title=" ">
<polygon fill="#e0e0e0" stroke="#999999" points="731,-283 561,-283 561,-242 731,-242 731,-283"/>
<text text-anchor="start" x="569" y="-271" font-family="Helvetica,sans-Serif" font-size="10.00">asm/JSystem/JUtility</text>
<text text-anchor="start" x="569" y="-260" font-family="Helvetica,sans-Serif" font-size="10.00">/JUTGamePad/read__10JUTGame</text>
<text text-anchor="middle" x="646" y="-249" font-family="Helvetica,sans-Serif" font-size="10.00">PadFv.s</text>
</a>
</g>
</g>
<!-- Node1&#45;&gt;Node14 -->
<g id="edge17" class="edge">
<title>Node1&#45;&gt;Node14</title>
<path fill="none" stroke="#63b8ff" d="M532.63,-318.6C550.55,-309.89 573.88,-298.55 594.71,-288.43"/>
<polygon fill="#63b8ff" stroke="#63b8ff" points="596.2,-291.6 603.66,-284.08 593.14,-285.3 596.2,-291.6"/>
</g>
<!-- Node15 -->
<g id="node15" class="node">
<title>Node15</title>
<g id="a_node15"><a xlink:title=" ">
<polygon fill="#e0e0e0" stroke="#999999" points="929,-283 749,-283 749,-242 929,-242 929,-283"/>
<text text-anchor="start" x="757" y="-271" font-family="Helvetica,sans-Serif" font-size="10.00">asm/JSystem/JUtility</text>
<text text-anchor="start" x="757" y="-260" font-family="Helvetica,sans-Serif" font-size="10.00">/JUTGamePad/update__10JUTGame</text>
<text text-anchor="middle" x="839" y="-249" font-family="Helvetica,sans-Serif" font-size="10.00">PadFv.s</text>
</a>
</g>
</g>
<!-- Node1&#45;&gt;Node15 -->
<g id="edge18" class="edge">
<title>Node1&#45;&gt;Node15</title>
<path fill="none" stroke="#63b8ff" d="M556.24,-321.99C604.84,-311.93 677.99,-296.8 737.71,-284.45"/>
<polygon fill="#63b8ff" stroke="#63b8ff" points="738.13,-287.94 747.22,-282.49 736.71,-281.08 738.13,-287.94"/>
</g>
<!-- Node3 -->
<g id="node3" class="node">
<title>Node3</title>
<g id="a_node3"><a xlink:href="JKRDisposer_8h.html" target="_top" xlink:title=" ">
<polygon fill="white" stroke="#666666" points="158,-200.5 0,-200.5 0,-181.5 158,-181.5 158,-200.5"/>
<text text-anchor="middle" x="79" y="-188.5" font-family="Helvetica,sans-Serif" font-size="10.00">JSystem/JKernel/JKRDisposer.h</text>
</a>
</g>
</g>
<!-- Node2&#45;&gt;Node3 -->
<g id="edge2" class="edge">
<title>Node2&#45;&gt;Node3</title>
<path fill="none" stroke="#63b8ff" d="M193.96,-247.1C168.67,-234.98 132.73,-217.75 107.8,-205.8"/>
<polygon fill="#63b8ff" stroke="#63b8ff" points="109.42,-202.7 98.89,-201.53 106.39,-209.01 109.42,-202.7"/>
</g>
<!-- Node5 -->
<g id="node5" class="node">
<title>Node5</title>
<g id="a_node5"><a xlink:href="types_8h.html" target="_top" xlink:title=" ">
<polygon fill="white" stroke="#666666" points="308.5,-85 227.5,-85 227.5,-66 308.5,-66 308.5,-85"/>
<text text-anchor="middle" x="268" y="-73" font-family="Helvetica,sans-Serif" font-size="10.00">dolphin/types.h</text>
</a>
</g>
</g>
<!-- Node2&#45;&gt;Node5 -->
<g id="edge10" class="edge">
<title>Node2&#45;&gt;Node5</title>
<path fill="none" stroke="#63b8ff" d="M216.77,-247C204.6,-220.41 183.38,-162.75 205,-121 211.74,-107.99 224.22,-97.98 236.3,-90.77"/>
<polygon fill="#63b8ff" stroke="#63b8ff" points="237.78,-93.95 244.9,-86.1 234.44,-87.8 237.78,-93.95"/>
</g>
<!-- Node7 -->
<g id="node7" class="node">
<title>Node7</title>
<g id="a_node7"><a xlink:href="OSTime_8h.html" target="_top" xlink:title=" ">
<polygon fill="white" stroke="#666666" points="321.5,-140 214.5,-140 214.5,-121 321.5,-121 321.5,-140"/>
<text text-anchor="middle" x="268" y="-128" font-family="Helvetica,sans-Serif" font-size="10.00">dolphin/os/OSTime.h</text>
</a>
</g>
</g>
<!-- Node2&#45;&gt;Node7 -->
<g id="edge6" class="edge">
<title>Node2&#45;&gt;Node7</title>
<path fill="none" stroke="#63b8ff" d="M225.87,-247.21C228.42,-229.93 233.77,-200.14 243,-176 246.4,-167.11 251.35,-157.85 255.94,-150.09"/>
<polygon fill="#63b8ff" stroke="#63b8ff" points="258.91,-151.95 261.21,-141.61 252.96,-148.25 258.91,-151.95"/>
</g>
<!-- Node8 -->
<g id="node8" class="node">
<title>Node8</title>
<g id="a_node8"><a xlink:href="Pad_8h.html" target="_top" xlink:title=" ">
<polygon fill="white" stroke="#666666" points="346,-200.5 252,-200.5 252,-181.5 346,-181.5 346,-200.5"/>
<text text-anchor="middle" x="299" y="-188.5" font-family="Helvetica,sans-Serif" font-size="10.00">dolphin/pad/Pad.h</text>
</a>
</g>
</g>
<!-- Node2&#45;&gt;Node8 -->
<g id="edge8" class="edge">
<title>Node2&#45;&gt;Node8</title>
<path fill="none" stroke="#63b8ff" d="M239.54,-247.1C251.69,-235.84 268.6,-220.17 281.28,-208.42"/>
<polygon fill="#63b8ff" stroke="#63b8ff" points="283.57,-211.07 288.52,-201.71 278.81,-205.94 283.57,-211.07"/>
</g>
<!-- Node4 -->
<g id="node4" class="node">
<title>Node4</title>
<g id="a_node4"><a xlink:href="JSUList_8h.html" target="_top" xlink:title=" ">
<polygon fill="white" stroke="#666666" points="154.5,-140 11.5,-140 11.5,-121 154.5,-121 154.5,-140"/>
<text text-anchor="middle" x="83" y="-128" font-family="Helvetica,sans-Serif" font-size="10.00">JSystem/JSupport/JSUList.h</text>
</a>
</g>
</g>
<!-- Node3&#45;&gt;Node4 -->
<g id="edge3" class="edge">
<title>Node3&#45;&gt;Node4</title>
<path fill="none" stroke="#63b8ff" d="M79.59,-181.37C80.13,-173.5 80.94,-161.6 81.64,-151.39"/>
<polygon fill="#63b8ff" stroke="#63b8ff" points="85.11,-151.89 82.3,-141.68 78.13,-151.42 85.11,-151.89"/>
</g>
<!-- Node4&#45;&gt;Node5 -->
<g id="edge4" class="edge">
<title>Node4&#45;&gt;Node5</title>
<path fill="none" stroke="#63b8ff" d="M114.38,-120.51C145.04,-111.73 191.91,-98.3 225.81,-88.59"/>
<polygon fill="#63b8ff" stroke="#63b8ff" points="226.67,-91.98 235.32,-85.86 224.74,-85.25 226.67,-91.98"/>
</g>
<!-- Node6 -->
<g id="node6" class="node">
<title>Node6</title>
<g id="a_node6"><a xlink:href="stddef_8h.html" target="_top" xlink:title=" ">
<polygon fill="white" stroke="#666666" points="336,-30 200,-30 200,0 336,0 336,-30"/>
<text text-anchor="start" x="208" y="-18" font-family="Helvetica,sans-Serif" font-size="10.00">MSL_C/MSL_Common/Src</text>
<text text-anchor="middle" x="268" y="-7" font-family="Helvetica,sans-Serif" font-size="10.00">/stddef.h</text>
</a>
</g>
</g>
<!-- Node5&#45;&gt;Node6 -->
<g id="edge5" class="edge">
<title>Node5&#45;&gt;Node6</title>
<path fill="none" stroke="#63b8ff" d="M268,-65.87C268,-59.4 268,-50.2 268,-41.45"/>
<polygon fill="#63b8ff" stroke="#63b8ff" points="271.5,-41.63 268,-31.63 264.5,-41.63 271.5,-41.63"/>
</g>
<!-- Node7&#45;&gt;Node5 -->
<g id="edge7" class="edge">
<title>Node7&#45;&gt;Node5</title>
<path fill="none" stroke="#63b8ff" d="M268,-120.75C268,-114.27 268,-105.16 268,-96.9"/>
<polygon fill="#63b8ff" stroke="#63b8ff" points="271.5,-96.96 268,-86.96 264.5,-96.96 271.5,-96.96"/>
</g>
<!-- Node8&#45;&gt;Node5 -->
<g id="edge9" class="edge">
<title>Node8&#45;&gt;Node5</title>
<path fill="none" stroke="#63b8ff" d="M308.25,-181.39C321.22,-168.21 342.05,-142.34 331,-121 324.26,-107.99 311.78,-97.98 299.7,-90.77"/>
<polygon fill="#63b8ff" stroke="#63b8ff" points="301.56,-87.8 291.1,-86.1 298.22,-93.95 301.56,-87.8"/>
</g>
<!-- Node10 -->
<g id="node10" class="node">
<title>Node10</title>
<g id="a_node10"><a xlink:href="MSL__Common_2Src_2float_8h.html" target="_top" xlink:title=" ">
<polygon fill="white" stroke="#666666" points="500,-206 364,-206 364,-176 500,-176 500,-206"/>
<text text-anchor="start" x="372" y="-194" font-family="Helvetica,sans-Serif" font-size="10.00">MSL_C/MSL_Common/Src</text>
<text text-anchor="middle" x="432" y="-183" font-family="Helvetica,sans-Serif" font-size="10.00">/float.h</text>
</a>
</g>
</g>
<!-- Node9&#45;&gt;Node10 -->
<g id="edge12" class="edge">
<title>Node9&#45;&gt;Node10</title>
<path fill="none" stroke="#63b8ff" d="M390.08,-252.7C396.51,-243.38 406.94,-228.29 415.78,-215.49"/>
<polygon fill="#63b8ff" stroke="#63b8ff" points="418.48,-217.74 421.28,-207.52 412.72,-213.76 418.48,-217.74"/>
</g>
<!-- Node11 -->
<g id="node11" class="node">
<title>Node11</title>
<g id="a_node11"><a xlink:href="fdlibm_8h.html" target="_top" xlink:title=" ">
<polygon fill="white" stroke="#666666" points="451,-140 401,-140 401,-121 451,-121 451,-140"/>
<text text-anchor="middle" x="426" y="-128" font-family="Helvetica,sans-Serif" font-size="10.00">fdlibm.h</text>
</a>
</g>
</g>
<!-- Node10&#45;&gt;Node11 -->
<g id="edge13" class="edge">
<title>Node10&#45;&gt;Node11</title>
<path fill="none" stroke="#63b8ff" d="M430.52,-175.54C429.77,-168.26 428.85,-159.31 428.04,-151.39"/>
<polygon fill="#63b8ff" stroke="#63b8ff" points="431.55,-151.27 427.04,-141.68 424.58,-151.99 431.55,-151.27"/>
</g>
<!-- Node13&#45;&gt;Node5 -->
<g id="edge16" class="edge">
<title>Node13&#45;&gt;Node5</title>
<path fill="none" stroke="#63b8ff" d="M488.05,-120.51C441.47,-111.19 368.76,-96.65 319.8,-86.86"/>
<polygon fill="#63b8ff" stroke="#63b8ff" points="320.79,-83.49 310.3,-84.96 319.42,-90.35 320.79,-83.49"/>
</g>
</g>
</svg>
