<?xml version="1.0" encoding="UTF-8" standalone="no"?>
<!DOCTYPE svg PUBLIC "-//W3C//DTD SVG 1.1//EN"
 "http://www.w3.org/Graphics/SVG/1.1/DTD/svg11.dtd">
<!-- Generated by graphviz version 7.0.5 (20221223.1930)
 -->
<!-- Title: include/JSystem/JUtility/JUTResFont.h Pages: 1 -->
<svg width="566pt" height="390pt"
 viewBox="0.00 0.00 566.00 390.00" xmlns="http://www.w3.org/2000/svg" xmlns:xlink="http://www.w3.org/1999/xlink">
<g id="graph0" class="graph" transform="scale(1 1) rotate(0) translate(4 386)">
<title>include/JSystem/JUtility/JUTResFont.h</title>
<!-- Node1 -->
<g id="node1" class="node">
<title>Node1</title>
<g id="a_node1"><a xlink:title=" ">
<polygon fill="#999999" stroke="#666666" points="475,-382 353,-382 353,-352 475,-352 475,-382"/>
<text text-anchor="start" x="361" y="-370" font-family="Helvetica,sans-Serif" font-size="10.00">include/JSystem/JUtility</text>
<text text-anchor="middle" x="414" y="-359" font-family="Helvetica,sans-Serif" font-size="10.00">/JUTResFont.h</text>
</a>
</g>
</g>
<!-- Node2 -->
<g id="node2" class="node">
<title>Node2</title>
<g id="a_node2"><a xlink:href="JUTFont_8h.html" target="_top" xlink:title=" ">
<polygon fill="white" stroke="#666666" points="434.5,-316 297.5,-316 297.5,-297 434.5,-297 434.5,-316"/>
<text text-anchor="middle" x="366" y="-304" font-family="Helvetica,sans-Serif" font-size="10.00">JSystem/JUtility/JUTFont.h</text>
</a>
</g>
</g>
<!-- Node1&#45;&gt;Node2 -->
<g id="edge1" class="edge">
<title>Node1&#45;&gt;Node2</title>
<path fill="none" stroke="#63b8ff" d="M402.13,-351.54C395.52,-343.48 387.23,-333.38 380.27,-324.89"/>
<polygon fill="#63b8ff" stroke="#63b8ff" points="383.13,-322.86 374.08,-317.35 377.72,-327.3 383.13,-322.86"/>
</g>
<!-- Node12 -->
<g id="node12" class="node">
<title>Node12</title>
<g id="a_node12"><a xlink:href="GXEnum_8h.html" target="_top" xlink:title=" ">
<polygon fill="white" stroke="#666666" points="558,-261 448,-261 448,-242 558,-242 558,-261"/>
<text text-anchor="middle" x="503" y="-249" font-family="Helvetica,sans-Serif" font-size="10.00">dolphin/gx/GXEnum.h</text>
</a>
</g>
</g>
<!-- Node1&#45;&gt;Node12 -->
<g id="edge13" class="edge">
<title>Node1&#45;&gt;Node12</title>
<path fill="none" stroke="#63b8ff" d="M425.27,-351.63C441.57,-330.84 471.68,-292.44 489.26,-270.02"/>
<polygon fill="#63b8ff" stroke="#63b8ff" points="491.8,-272.45 495.22,-262.42 486.3,-268.13 491.8,-272.45"/>
</g>
<!-- Node3 -->
<g id="node3" class="node">
<title>Node3</title>
<g id="a_node3"><a xlink:href="TColor_8h.html" target="_top" xlink:title=" ">
<polygon fill="white" stroke="#666666" points="429.5,-261 302.5,-261 302.5,-242 429.5,-242 429.5,-261"/>
<text text-anchor="middle" x="366" y="-249" font-family="Helvetica,sans-Serif" font-size="10.00">JSystem/JUtility/TColor.h</text>
</a>
</g>
</g>
<!-- Node2&#45;&gt;Node3 -->
<g id="edge2" class="edge">
<title>Node2&#45;&gt;Node3</title>
<path fill="none" stroke="#63b8ff" d="M366,-296.75C366,-290.27 366,-281.16 366,-272.9"/>
<polygon fill="#63b8ff" stroke="#63b8ff" points="369.5,-272.96 366,-262.96 362.5,-272.96 369.5,-272.96"/>
</g>
<!-- Node8 -->
<g id="node8" class="node">
<title>Node8</title>
<g id="a_node8"><a xlink:href="string_8h.html" target="_top" xlink:title=" ">
<polygon fill="white" stroke="#666666" points="277,-151 193,-151 193,-132 277,-132 277,-151"/>
<text text-anchor="middle" x="235" y="-139" font-family="Helvetica,sans-Serif" font-size="10.00">MSL_C/string.h</text>
</a>
</g>
</g>
<!-- Node2&#45;&gt;Node8 -->
<g id="edge7" class="edge">
<title>Node2&#45;&gt;Node8</title>
<path fill="none" stroke="#63b8ff" d="M344.91,-296.63C328.99,-289.07 307.5,-276.9 293,-261 266.08,-231.47 248.91,-187.16 240.71,-161.92"/>
<polygon fill="#63b8ff" stroke="#63b8ff" points="244.15,-161.18 237.85,-152.66 237.46,-163.25 244.15,-161.18"/>
</g>
<!-- Node4 -->
<g id="node4" class="node">
<title>Node4</title>
<g id="a_node4"><a xlink:href="GXStruct_8h.html" target="_top" xlink:title=" ">
<polygon fill="white" stroke="#666666" points="442.5,-206 331.5,-206 331.5,-187 442.5,-187 442.5,-206"/>
<text text-anchor="middle" x="387" y="-194" font-family="Helvetica,sans-Serif" font-size="10.00">dolphin/gx/GXStruct.h</text>
</a>
</g>
</g>
<!-- Node3&#45;&gt;Node4 -->
<g id="edge3" class="edge">
<title>Node3&#45;&gt;Node4</title>
<path fill="none" stroke="#63b8ff" d="M369.47,-241.75C372.13,-235.04 375.9,-225.52 379.26,-217.02"/>
<polygon fill="#63b8ff" stroke="#63b8ff" points="382.47,-218.44 382.9,-207.85 375.96,-215.86 382.47,-218.44"/>
</g>
<!-- Node5 -->
<g id="node5" class="node">
<title>Node5</title>
<g id="a_node5"><a xlink:href="global_8h.html" target="_top" xlink:title=" ">
<polygon fill="white" stroke="#666666" points="433,-151 383,-151 383,-132 433,-132 433,-151"/>
<text text-anchor="middle" x="408" y="-139" font-family="Helvetica,sans-Serif" font-size="10.00">global.h</text>
</a>
</g>
</g>
<!-- Node4&#45;&gt;Node5 -->
<g id="edge4" class="edge">
<title>Node4&#45;&gt;Node5</title>
<path fill="none" stroke="#63b8ff" d="M390.47,-186.75C393.13,-180.04 396.9,-170.52 400.26,-162.02"/>
<polygon fill="#63b8ff" stroke="#63b8ff" points="403.47,-163.44 403.9,-152.85 396.96,-160.86 403.47,-163.44"/>
</g>
<!-- Node6 -->
<g id="node6" class="node">
<title>Node6</title>
<g id="a_node6"><a xlink:href="types_8h.html" target="_top" xlink:title=" ">
<polygon fill="white" stroke="#666666" points="543.5,-90.5 462.5,-90.5 462.5,-71.5 543.5,-71.5 543.5,-90.5"/>
<text text-anchor="middle" x="503" y="-78.5" font-family="Helvetica,sans-Serif" font-size="10.00">dolphin/types.h</text>
</a>
</g>
</g>
<!-- Node5&#45;&gt;Node6 -->
<g id="edge5" class="edge">
<title>Node5&#45;&gt;Node6</title>
<path fill="none" stroke="#63b8ff" d="M422.43,-131.62C437.35,-122.42 460.93,-107.91 478.73,-96.94"/>
<polygon fill="#63b8ff" stroke="#63b8ff" points="480.47,-99.99 487.15,-91.76 476.8,-94.03 480.47,-99.99"/>
</g>
<!-- Node7 -->
<g id="node7" class="node">
<title>Node7</title>
<g id="a_node7"><a xlink:href="stddef_8h.html" target="_top" xlink:title=" ">
<polygon fill="white" stroke="#666666" points="444,-30 308,-30 308,0 444,0 444,-30"/>
<text text-anchor="start" x="316" y="-18" font-family="Helvetica,sans-Serif" font-size="10.00">MSL_C/MSL_Common/Src</text>
<text text-anchor="middle" x="376" y="-7" font-family="Helvetica,sans-Serif" font-size="10.00">/stddef.h</text>
</a>
</g>
</g>
<!-- Node6&#45;&gt;Node7 -->
<g id="edge6" class="edge">
<title>Node6&#45;&gt;Node7</title>
<path fill="none" stroke="#63b8ff" d="M485.34,-71.1C467.17,-61.95 438.29,-47.39 414.77,-35.54"/>
<polygon fill="#63b8ff" stroke="#63b8ff" points="416.59,-32.53 406.08,-31.16 413.44,-38.78 416.59,-32.53"/>
</g>
<!-- Node9 -->
<g id="node9" class="node">
<title>Node9</title>
<g id="a_node9"><a xlink:href="extras_8h.html" target="_top" xlink:title=" ">
<polygon fill="white" stroke="#666666" points="136,-96 0,-96 0,-66 136,-66 136,-96"/>
<text text-anchor="start" x="8" y="-84" font-family="Helvetica,sans-Serif" font-size="10.00">MSL_C/MSL_Common/Src</text>
<text text-anchor="middle" x="68" y="-73" font-family="Helvetica,sans-Serif" font-size="10.00">/extras.h</text>
</a>
</g>
</g>
<!-- Node8&#45;&gt;Node9 -->
<g id="edge8" class="edge">
<title>Node8&#45;&gt;Node9</title>
<path fill="none" stroke="#63b8ff" d="M209.64,-131.62C185.91,-123.3 149.74,-110.63 119.9,-100.18"/>
<polygon fill="#63b8ff" stroke="#63b8ff" points="121.24,-96.94 110.65,-96.94 118.93,-103.55 121.24,-96.94"/>
</g>
<!-- Node10 -->
<g id="node10" class="node">
<title>Node10</title>
<g id="a_node10"><a xlink:href="mem_8h.html" target="_top" xlink:title=" ">
<polygon fill="white" stroke="#666666" points="290,-96 154,-96 154,-66 290,-66 290,-96"/>
<text text-anchor="start" x="162" y="-84" font-family="Helvetica,sans-Serif" font-size="10.00">MSL_C/MSL_Common/Src</text>
<text text-anchor="middle" x="222" y="-73" font-family="Helvetica,sans-Serif" font-size="10.00">/mem.h</text>
</a>
</g>
</g>
<!-- Node8&#45;&gt;Node10 -->
<g id="edge9" class="edge">
<title>Node8&#45;&gt;Node10</title>
<path fill="none" stroke="#63b8ff" d="M233.08,-131.87C231.63,-125.33 229.55,-115.99 227.59,-107.15"/>
<polygon fill="#63b8ff" stroke="#63b8ff" points="231.05,-106.59 225.46,-97.59 224.22,-108.11 231.05,-106.59"/>
</g>
<!-- Node11 -->
<g id="node11" class="node">
<title>Node11</title>
<g id="a_node11"><a xlink:href="MSL__Common_2Src_2string_8h.html" target="_top" xlink:title=" ">
<polygon fill="white" stroke="#666666" points="444,-96 308,-96 308,-66 444,-66 444,-96"/>
<text text-anchor="start" x="316" y="-84" font-family="Helvetica,sans-Serif" font-size="10.00">MSL_C/MSL_Common/Src</text>
<text text-anchor="middle" x="376" y="-73" font-family="Helvetica,sans-Serif" font-size="10.00">/string.h</text>
</a>
</g>
</g>
<!-- Node8&#45;&gt;Node11 -->
<g id="edge11" class="edge">
<title>Node8&#45;&gt;Node11</title>
<path fill="none" stroke="#63b8ff" d="M256.41,-131.62C276.1,-123.45 305.92,-111.08 330.85,-100.73"/>
<polygon fill="#63b8ff" stroke="#63b8ff" points="331.9,-104.08 339.8,-97.02 329.22,-97.62 331.9,-104.08"/>
</g>
<!-- Node10&#45;&gt;Node7 -->
<g id="edge10" class="edge">
<title>Node10&#45;&gt;Node7</title>
<path fill="none" stroke="#63b8ff" d="M256.56,-65.64C278.48,-56.53 307.07,-44.65 330.78,-34.79"/>
<polygon fill="#63b8ff" stroke="#63b8ff" points="332,-38.08 339.89,-31.01 329.31,-31.61 332,-38.08"/>
</g>
<!-- Node11&#45;&gt;Node7 -->
<g id="edge12" class="edge">
<title>Node11&#45;&gt;Node7</title>
<path fill="none" stroke="#63b8ff" d="M376,-65.8C376,-58.67 376,-49.82 376,-41.56"/>
<polygon fill="#63b8ff" stroke="#63b8ff" points="379.5,-41.68 376,-31.68 372.5,-41.68 379.5,-41.68"/>
</g>
<!-- Node12&#45;&gt;Node6 -->
<g id="edge14" class="edge">
<title>Node12&#45;&gt;Node6</title>
<path fill="none" stroke="#63b8ff" d="M503,-241.91C503,-216.12 503,-138.82 503,-101.97"/>
<polygon fill="#63b8ff" stroke="#63b8ff" points="506.5,-102.29 503,-92.29 499.5,-102.29 506.5,-102.29"/>
</g>
</g>
</svg>
