<?xml version="1.0" encoding="UTF-8" standalone="no"?>
<!DOCTYPE svg PUBLIC "-//W3C//DTD SVG 1.1//EN"
 "http://www.w3.org/Graphics/SVG/1.1/DTD/svg11.dtd">
<!-- Generated by graphviz version 7.0.5 (20221223.1930)
 -->
<!-- Title: include/m_Do/m_Do_printf.h Pages: 1 -->
<svg width="436pt" height="489pt"
 viewBox="0.00 0.00 435.50 489.00" xmlns="http://www.w3.org/2000/svg" xmlns:xlink="http://www.w3.org/1999/xlink">
<g id="graph0" class="graph" transform="scale(1 1) rotate(0) translate(4 485)">
<title>include/m_Do/m_Do_printf.h</title>
<!-- Node1 -->
<g id="node1" class="node">
<title>Node1</title>
<g id="a_node1"><a xlink:title=" ">
<polygon fill="#999999" stroke="#666666" points="220.5,-481 81.5,-481 81.5,-462 220.5,-462 220.5,-481"/>
<text text-anchor="middle" x="151" y="-469" font-family="Helvetica,sans-Serif" font-size="10.00">include/m_Do/m_Do_printf.h</text>
</a>
</g>
</g>
<!-- Node2 -->
<g id="node2" class="node">
<title>Node2</title>
<g id="a_node2"><a xlink:href="____va__arg_8h.html" target="_top" xlink:title=" ">
<polygon fill="white" stroke="#666666" points="110,-316 0,-316 0,-286 110,-286 110,-316"/>
<text text-anchor="start" x="8" y="-304" font-family="Helvetica,sans-Serif" font-size="10.00">Runtime.PPCEABI.H/</text>
<text text-anchor="middle" x="55" y="-293" font-family="Helvetica,sans-Serif" font-size="10.00">__va_arg.h</text>
</a>
</g>
</g>
<!-- Node1&#45;&gt;Node2 -->
<g id="edge1" class="edge">
<title>Node1&#45;&gt;Node2</title>
<path fill="none" stroke="#63b8ff" d="M146.11,-461.91C131.96,-437.09 90.64,-364.56 68.84,-326.29"/>
<polygon fill="#63b8ff" stroke="#63b8ff" points="71.99,-324.75 64,-317.79 65.91,-328.21 71.99,-324.75"/>
</g>
<!-- Node5 -->
<g id="node5" class="node">
<title>Node5</title>
<g id="a_node5"><a xlink:href="m__Do__main_8h.html" target="_top" xlink:title=" ">
<polygon fill="white" stroke="#666666" points="275,-426 171,-426 171,-407 275,-407 275,-426"/>
<text text-anchor="middle" x="223" y="-414" font-family="Helvetica,sans-Serif" font-size="10.00">m_Do/m_Do_main.h</text>
</a>
</g>
</g>
<!-- Node1&#45;&gt;Node5 -->
<g id="edge4" class="edge">
<title>Node1&#45;&gt;Node5</title>
<path fill="none" stroke="#63b8ff" d="M163.21,-461.51C173.83,-453.7 189.44,-442.21 202.04,-432.93"/>
<polygon fill="#63b8ff" stroke="#63b8ff" points="203.77,-436 209.75,-427.26 199.62,-430.36 203.77,-436"/>
</g>
<!-- Node3 -->
<g id="node3" class="node">
<title>Node3</title>
<g id="a_node3"><a xlink:href="types_8h.html" target="_top" xlink:title=" ">
<polygon fill="white" stroke="#666666" points="230.5,-85 149.5,-85 149.5,-66 230.5,-66 230.5,-85"/>
<text text-anchor="middle" x="190" y="-73" font-family="Helvetica,sans-Serif" font-size="10.00">dolphin/types.h</text>
</a>
</g>
</g>
<!-- Node2&#45;&gt;Node3 -->
<g id="edge2" class="edge">
<title>Node2&#45;&gt;Node3</title>
<path fill="none" stroke="#63b8ff" d="M51.34,-285.78C45.92,-261.4 38.43,-210.88 59,-176 82.62,-135.95 129.18,-106.6 159.95,-90.54"/>
<polygon fill="#63b8ff" stroke="#63b8ff" points="161.4,-93.72 168.76,-86.09 158.25,-87.47 161.4,-93.72"/>
</g>
<!-- Node4 -->
<g id="node4" class="node">
<title>Node4</title>
<g id="a_node4"><a xlink:href="stddef_8h.html" target="_top" xlink:title=" ">
<polygon fill="white" stroke="#666666" points="258,-30 122,-30 122,0 258,0 258,-30"/>
<text text-anchor="start" x="130" y="-18" font-family="Helvetica,sans-Serif" font-size="10.00">MSL_C/MSL_Common/Src</text>
<text text-anchor="middle" x="190" y="-7" font-family="Helvetica,sans-Serif" font-size="10.00">/stddef.h</text>
</a>
</g>
</g>
<!-- Node3&#45;&gt;Node4 -->
<g id="edge3" class="edge">
<title>Node3&#45;&gt;Node4</title>
<path fill="none" stroke="#63b8ff" d="M190,-65.87C190,-59.4 190,-50.2 190,-41.45"/>
<polygon fill="#63b8ff" stroke="#63b8ff" points="193.5,-41.63 190,-31.63 186.5,-41.63 193.5,-41.63"/>
</g>
<!-- Node6 -->
<g id="node6" class="node">
<title>Node6</title>
<g id="a_node6"><a xlink:href="JKRExpHeap_8h.html" target="_top" xlink:title=" ">
<polygon fill="white" stroke="#666666" points="302.5,-371 143.5,-371 143.5,-352 302.5,-352 302.5,-371"/>
<text text-anchor="middle" x="223" y="-359" font-family="Helvetica,sans-Serif" font-size="10.00">JSystem/JKernel/JKRExpHeap.h</text>
</a>
</g>
</g>
<!-- Node5&#45;&gt;Node6 -->
<g id="edge5" class="edge">
<title>Node5&#45;&gt;Node6</title>
<path fill="none" stroke="#63b8ff" d="M223,-406.75C223,-400.27 223,-391.16 223,-382.9"/>
<polygon fill="#63b8ff" stroke="#63b8ff" points="226.5,-382.96 223,-372.96 219.5,-382.96 226.5,-382.96"/>
</g>
<!-- Node13 -->
<g id="node13" class="node">
<title>Node13</title>
<g id="a_node13"><a xlink:href="OSTime_8h.html" target="_top" xlink:title=" ">
<polygon fill="white" stroke="#666666" points="427.5,-140 320.5,-140 320.5,-121 427.5,-121 427.5,-140"/>
<text text-anchor="middle" x="374" y="-128" font-family="Helvetica,sans-Serif" font-size="10.00">dolphin/os/OSTime.h</text>
</a>
</g>
</g>
<!-- Node5&#45;&gt;Node13 -->
<g id="edge14" class="edge">
<title>Node5&#45;&gt;Node13</title>
<path fill="none" stroke="#63b8ff" d="M257.34,-406.59C302.45,-392.57 376,-360.71 376,-302 376,-302 376,-302 376,-239.5 376,-208.92 375.19,-173.47 374.6,-151.77"/>
<polygon fill="#63b8ff" stroke="#63b8ff" points="378.1,-151.87 374.32,-141.97 371.11,-152.07 378.1,-151.87"/>
</g>
<!-- Node7 -->
<g id="node7" class="node">
<title>Node7</title>
<g id="a_node7"><a xlink:href="JKRHeap_8h.html" target="_top" xlink:title=" ">
<polygon fill="white" stroke="#666666" points="294.5,-310.5 151.5,-310.5 151.5,-291.5 294.5,-291.5 294.5,-310.5"/>
<text text-anchor="middle" x="223" y="-298.5" font-family="Helvetica,sans-Serif" font-size="10.00">JSystem/JKernel/JKRHeap.h</text>
</a>
</g>
</g>
<!-- Node6&#45;&gt;Node7 -->
<g id="edge6" class="edge">
<title>Node6&#45;&gt;Node7</title>
<path fill="none" stroke="#63b8ff" d="M223,-351.87C223,-344 223,-332.1 223,-321.89"/>
<polygon fill="#63b8ff" stroke="#63b8ff" points="226.5,-322.18 223,-312.18 219.5,-322.18 226.5,-322.18"/>
</g>
<!-- Node8 -->
<g id="node8" class="node">
<title>Node8</title>
<g id="a_node8"><a xlink:href="JKRDisposer_8h.html" target="_top" xlink:title=" ">
<polygon fill="white" stroke="#666666" points="218,-250 60,-250 60,-231 218,-231 218,-250"/>
<text text-anchor="middle" x="139" y="-238" font-family="Helvetica,sans-Serif" font-size="10.00">JSystem/JKernel/JKRDisposer.h</text>
</a>
</g>
</g>
<!-- Node7&#45;&gt;Node8 -->
<g id="edge7" class="edge">
<title>Node7&#45;&gt;Node8</title>
<path fill="none" stroke="#63b8ff" d="M210.24,-291.12C197.17,-282.01 176.59,-267.68 160.9,-256.75"/>
<polygon fill="#63b8ff" stroke="#63b8ff" points="163.33,-254.18 153.12,-251.33 159.33,-259.92 163.33,-254.18"/>
</g>
<!-- Node10 -->
<g id="node10" class="node">
<title>Node10</title>
<g id="a_node10"><a xlink:href="OSMutex_8h.html" target="_top" xlink:title=" ">
<polygon fill="white" stroke="#666666" points="348,-250 236,-250 236,-231 348,-231 348,-250"/>
<text text-anchor="middle" x="292" y="-238" font-family="Helvetica,sans-Serif" font-size="10.00">dolphin/os/OSMutex.h</text>
</a>
</g>
</g>
<!-- Node7&#45;&gt;Node10 -->
<g id="edge10" class="edge">
<title>Node7&#45;&gt;Node10</title>
<path fill="none" stroke="#63b8ff" d="M233.48,-291.12C243.92,-282.27 260.17,-268.48 272.91,-257.69"/>
<polygon fill="#63b8ff" stroke="#63b8ff" points="274.9,-260.58 280.27,-251.45 270.38,-255.24 274.9,-260.58"/>
</g>
<!-- Node9 -->
<g id="node9" class="node">
<title>Node9</title>
<g id="a_node9"><a xlink:href="JSUList_8h.html" target="_top" xlink:title=" ">
<polygon fill="white" stroke="#666666" points="211.5,-195 68.5,-195 68.5,-176 211.5,-176 211.5,-195"/>
<text text-anchor="middle" x="140" y="-183" font-family="Helvetica,sans-Serif" font-size="10.00">JSystem/JSupport/JSUList.h</text>
</a>
</g>
</g>
<!-- Node8&#45;&gt;Node9 -->
<g id="edge8" class="edge">
<title>Node8&#45;&gt;Node9</title>
<path fill="none" stroke="#63b8ff" d="M139.17,-230.75C139.29,-224.27 139.46,-215.16 139.62,-206.9"/>
<polygon fill="#63b8ff" stroke="#63b8ff" points="143.11,-207.02 139.8,-196.96 136.11,-206.89 143.11,-207.02"/>
</g>
<!-- Node9&#45;&gt;Node3 -->
<g id="edge9" class="edge">
<title>Node9&#45;&gt;Node3</title>
<path fill="none" stroke="#63b8ff" d="M144.09,-175.66C152.15,-158.26 170.23,-119.19 181.15,-95.62"/>
<polygon fill="#63b8ff" stroke="#63b8ff" points="184.19,-97.38 185.22,-86.83 177.84,-94.44 184.19,-97.38"/>
</g>
<!-- Node11 -->
<g id="node11" class="node">
<title>Node11</title>
<g id="a_node11"><a xlink:href="OSThread_8h.html" target="_top" xlink:title=" ">
<polygon fill="white" stroke="#666666" points="347,-195 231,-195 231,-176 347,-176 347,-195"/>
<text text-anchor="middle" x="289" y="-183" font-family="Helvetica,sans-Serif" font-size="10.00">dolphin/os/OSThread.h</text>
</a>
</g>
</g>
<!-- Node10&#45;&gt;Node11 -->
<g id="edge11" class="edge">
<title>Node10&#45;&gt;Node11</title>
<path fill="none" stroke="#63b8ff" d="M291.5,-230.75C291.14,-224.27 290.62,-215.16 290.15,-206.9"/>
<polygon fill="#63b8ff" stroke="#63b8ff" points="293.65,-206.74 289.59,-196.95 286.66,-207.13 293.65,-206.74"/>
</g>
<!-- Node12 -->
<g id="node12" class="node">
<title>Node12</title>
<g id="a_node12"><a xlink:href="OSContext_8h.html" target="_top" xlink:title=" ">
<polygon fill="white" stroke="#666666" points="298.5,-140 179.5,-140 179.5,-121 298.5,-121 298.5,-140"/>
<text text-anchor="middle" x="239" y="-128" font-family="Helvetica,sans-Serif" font-size="10.00">dolphin/os/OSContext.h</text>
</a>
</g>
</g>
<!-- Node11&#45;&gt;Node12 -->
<g id="edge12" class="edge">
<title>Node11&#45;&gt;Node12</title>
<path fill="none" stroke="#63b8ff" d="M280.74,-175.75C273.84,-168.43 263.78,-157.76 255.26,-148.74"/>
<polygon fill="#63b8ff" stroke="#63b8ff" points="257.88,-146.42 248.47,-141.54 252.79,-151.22 257.88,-146.42"/>
</g>
<!-- Node12&#45;&gt;Node3 -->
<g id="edge13" class="edge">
<title>Node12&#45;&gt;Node3</title>
<path fill="none" stroke="#63b8ff" d="M230.91,-120.75C224.14,-113.43 214.28,-102.76 205.94,-93.74"/>
<polygon fill="#63b8ff" stroke="#63b8ff" points="208.65,-91.52 199.29,-86.55 203.51,-96.27 208.65,-91.52"/>
</g>
<!-- Node13&#45;&gt;Node3 -->
<g id="edge15" class="edge">
<title>Node13&#45;&gt;Node3</title>
<path fill="none" stroke="#63b8ff" d="M342.79,-120.51C312.3,-111.73 265.68,-98.3 231.96,-88.59"/>
<polygon fill="#63b8ff" stroke="#63b8ff" points="233.09,-85.27 222.51,-85.87 231.15,-92 233.09,-85.27"/>
</g>
</g>
</svg>
