<?xml version="1.0" encoding="UTF-8" standalone="no"?>
<!DOCTYPE svg PUBLIC "-//W3C//DTD SVG 1.1//EN"
 "http://www.w3.org/Graphics/SVG/1.1/DTD/svg11.dtd">
<!-- Generated by graphviz version 7.0.5 (20221223.1930)
 -->
<!-- Title: include/m_Do/m_Do_lib.h Pages: 1 -->
<svg width="4256pt" height="225pt"
 viewBox="0.00 0.00 4256.00 225.00" xmlns="http://www.w3.org/2000/svg" xmlns:xlink="http://www.w3.org/1999/xlink">
<g id="graph0" class="graph" transform="scale(1 1) rotate(0) translate(4 221)">
<title>include/m_Do/m_Do_lib.h</title>
<!-- Node1 -->
<g id="node1" class="node">
<title>Node1</title>
<g id="a_node1"><a xlink:title=" ">
<polygon fill="#999999" stroke="#666666" points="2851.5,-217 2724.5,-217 2724.5,-198 2851.5,-198 2851.5,-217"/>
<text text-anchor="middle" x="2788" y="-205" font-family="Helvetica,sans-Serif" font-size="10.00">include/m_Do/m_Do_lib.h</text>
</a>
</g>
</g>
<!-- Node2 -->
<g id="node2" class="node">
<title>Node2</title>
<g id="a_node2"><a xlink:href="J3DMatBlock_8h.html" target="_top" xlink:title=" ">
<polygon fill="white" stroke="#666666" points="2561.5,-162 2426.5,-162 2426.5,-132 2561.5,-132 2561.5,-162"/>
<text text-anchor="start" x="2434.5" y="-150" font-family="Helvetica,sans-Serif" font-size="10.00">include/JSystem/J3DGraph</text>
<text text-anchor="middle" x="2494" y="-139" font-family="Helvetica,sans-Serif" font-size="10.00">Base/J3DMatBlock.h</text>
</a>
</g>
</g>
<!-- Node1&#45;&gt;Node2 -->
<g id="edge1" class="edge">
<title>Node1&#45;&gt;Node2</title>
<path fill="none" stroke="#63b8ff" d="M2731.83,-195.32C2683.43,-185.69 2613.44,-171.77 2561.91,-161.51"/>
<polygon fill="#63b8ff" stroke="#63b8ff" points="2731.05,-198.74 2741.54,-197.26 2732.42,-191.87 2731.05,-198.74"/>
</g>
<!-- Node15 -->
<g id="node15" class="node">
<title>Node15</title>
<g id="a_node15"><a xlink:href="d__a__npc_8cpp.html" target="_top" xlink:title=" ">
<polygon fill="white" stroke="#666666" points="104,-24.5 0,-24.5 0,-5.5 104,-5.5 104,-24.5"/>
<text text-anchor="middle" x="52" y="-12.5" font-family="Helvetica,sans-Serif" font-size="10.00">src/d/a/d_a_npc.cpp</text>
</a>
</g>
</g>
<!-- Node1&#45;&gt;Node15 -->
<g id="edge43" class="edge">
<title>Node1&#45;&gt;Node15</title>
<path fill="none" stroke="#63b8ff" d="M2712.71,-206.34C2427.43,-205 1385.99,-193.31 535,-96 346.39,-74.43 299.41,-65.92 113,-30 105.21,-28.5 96.9,-26.72 89.01,-24.93"/>
<polygon fill="#63b8ff" stroke="#63b8ff" points="2712.61,-209.84 2722.62,-206.39 2712.64,-202.84 2712.61,-209.84"/>
</g>
<!-- Node16 -->
<g id="node16" class="node">
<title>Node16</title>
<g id="a_node16"><a xlink:href="d__k__wmark_8cpp.html" target="_top" xlink:title=" ">
<polygon fill="white" stroke="#666666" points="232,-24.5 122,-24.5 122,-5.5 232,-5.5 232,-24.5"/>
<text text-anchor="middle" x="177" y="-12.5" font-family="Helvetica,sans-Serif" font-size="10.00">src/d/d_k_wmark.cpp</text>
</a>
</g>
</g>
<!-- Node1&#45;&gt;Node16 -->
<g id="edge47" class="edge">
<title>Node1&#45;&gt;Node16</title>
<path fill="none" stroke="#63b8ff" d="M2713.07,-203.35C2559.29,-196.75 2196.93,-180.55 1893,-162 1487.36,-137.24 1386.07,-128.72 981,-96 651.88,-69.42 567.38,-80.05 241,-30 232.23,-28.66 222.86,-26.83 214.08,-24.94"/>
<polygon fill="#63b8ff" stroke="#63b8ff" points="2712.56,-206.83 2722.71,-203.76 2712.86,-199.83 2712.56,-206.83"/>
</g>
<!-- Node22 -->
<g id="node22" class="node">
<title>Node22</title>
<g id="a_node22"><a xlink:href="d__particle_8cpp.html" target="_top" xlink:title=" ">
<polygon fill="white" stroke="#666666" points="386,-24.5 250,-24.5 250,-5.5 386,-5.5 386,-24.5"/>
<text text-anchor="middle" x="318" y="-12.5" font-family="Helvetica,sans-Serif" font-size="10.00">src/d/particle/d_particle.cpp</text>
</a>
</g>
</g>
<!-- Node1&#45;&gt;Node22 -->
<g id="edge51" class="edge">
<title>Node1&#45;&gt;Node22</title>
<path fill="none" stroke="#63b8ff" d="M2712.64,-200.2C2464.91,-179.58 1653.07,-112.77 981,-66 720.69,-47.89 654.04,-61.39 395,-30 384.34,-28.71 372.93,-26.88 362.25,-24.97"/>
<polygon fill="#63b8ff" stroke="#63b8ff" points="2712.25,-203.68 2722.5,-201.02 2712.83,-196.7 2712.25,-203.68"/>
</g>
<!-- Node25 -->
<g id="node25" class="node">
<title>Node25</title>
<g id="a_node25"><a xlink:href="d__a__player_8cpp.html" target="_top" xlink:title=" ">
<polygon fill="white" stroke="#666666" points="3150,-24.5 3036,-24.5 3036,-5.5 3150,-5.5 3150,-24.5"/>
<text text-anchor="middle" x="3093" y="-12.5" font-family="Helvetica,sans-Serif" font-size="10.00">src/d/a/d_a_player.cpp</text>
</a>
</g>
</g>
<!-- Node1&#45;&gt;Node25 -->
<g id="edge44" class="edge">
<title>Node1&#45;&gt;Node25</title>
<path fill="none" stroke="#63b8ff" d="M2712.95,-200.21C2650.41,-191.96 2576.41,-173.33 2609,-132 2616.03,-123.08 2937.98,-50.57 3052.83,-24.94"/>
<polygon fill="#63b8ff" stroke="#63b8ff" points="2712.21,-203.64 2722.56,-201.4 2713.07,-196.7 2712.21,-203.64"/>
</g>
<!-- Node39 -->
<g id="node39" class="node">
<title>Node39</title>
<g id="a_node39"><a xlink:href="d__drawlist_8cpp.html" target="_top" xlink:title=" ">
<polygon fill="white" stroke="#666666" points="2722,-156.5 2618,-156.5 2618,-137.5 2722,-137.5 2722,-156.5"/>
<text text-anchor="middle" x="2670" y="-144.5" font-family="Helvetica,sans-Serif" font-size="10.00">src/d/d_drawlist.cpp</text>
</a>
</g>
</g>
<!-- Node1&#45;&gt;Node39 -->
<g id="edge45" class="edge">
<title>Node1&#45;&gt;Node39</title>
<path fill="none" stroke="#63b8ff" d="M2759.89,-192.57C2737.64,-181.53 2707.22,-166.45 2688.09,-156.97"/>
<polygon fill="#63b8ff" stroke="#63b8ff" points="2758.21,-195.64 2768.72,-196.94 2761.32,-189.37 2758.21,-195.64"/>
</g>
<!-- Node40 -->
<g id="node40" class="node">
<title>Node40</title>
<g id="a_node40"><a xlink:href="d__insect_8cpp.html" target="_top" xlink:title=" ">
<polygon fill="white" stroke="#666666" points="2836,-156.5 2740,-156.5 2740,-137.5 2836,-137.5 2836,-156.5"/>
<text text-anchor="middle" x="2788" y="-144.5" font-family="Helvetica,sans-Serif" font-size="10.00">src/d/d_insect.cpp</text>
</a>
</g>
</g>
<!-- Node1&#45;&gt;Node40 -->
<g id="edge46" class="edge">
<title>Node1&#45;&gt;Node40</title>
<path fill="none" stroke="#63b8ff" d="M2788,-186.66C2788,-176.45 2788,-164.54 2788,-156.67"/>
<polygon fill="#63b8ff" stroke="#63b8ff" points="2784.5,-186.35 2788,-196.35 2791.5,-186.35 2784.5,-186.35"/>
</g>
<!-- Node41 -->
<g id="node41" class="node">
<title>Node41</title>
<g id="a_node41"><a xlink:href="d__timer_8cpp.html" target="_top" xlink:title=" ">
<polygon fill="white" stroke="#666666" points="2946,-156.5 2854,-156.5 2854,-137.5 2946,-137.5 2946,-156.5"/>
<text text-anchor="middle" x="2900" y="-144.5" font-family="Helvetica,sans-Serif" font-size="10.00">src/d/d_timer.cpp</text>
</a>
</g>
</g>
<!-- Node1&#45;&gt;Node41 -->
<g id="edge48" class="edge">
<title>Node1&#45;&gt;Node41</title>
<path fill="none" stroke="#63b8ff" d="M2814.96,-192.42C2836.06,-181.4 2864.76,-166.41 2882.83,-156.97"/>
<polygon fill="#63b8ff" stroke="#63b8ff" points="2813.6,-189.18 2806.35,-196.91 2816.84,-195.39 2813.6,-189.18"/>
</g>
<!-- Node42 -->
<g id="node42" class="node">
<title>Node42</title>
<g id="a_node42"><a xlink:href="d__kankyo__rain_8cpp.html" target="_top" xlink:title=" ">
<polygon fill="white" stroke="#666666" points="3080,-162 2964,-162 2964,-132 3080,-132 3080,-162"/>
<text text-anchor="start" x="2972" y="-150" font-family="Helvetica,sans-Serif" font-size="10.00">src/d/kankyo/d_kankyo</text>
<text text-anchor="middle" x="3022" y="-139" font-family="Helvetica,sans-Serif" font-size="10.00">_rain.cpp</text>
</a>
</g>
</g>
<!-- Node1&#45;&gt;Node42 -->
<g id="edge49" class="edge">
<title>Node1&#45;&gt;Node42</title>
<path fill="none" stroke="#63b8ff" d="M2834.85,-194.79C2872.15,-185.46 2924.51,-172.37 2964.37,-162.41"/>
<polygon fill="#63b8ff" stroke="#63b8ff" points="2834.12,-191.36 2825.26,-197.18 2835.81,-198.15 2834.12,-191.36"/>
</g>
<!-- Node43 -->
<g id="node43" class="node">
<title>Node43</title>
<g id="a_node43"><a xlink:href="d__map__path_8cpp.html" target="_top" xlink:title=" ">
<polygon fill="white" stroke="#666666" points="3232,-156.5 3098,-156.5 3098,-137.5 3232,-137.5 3232,-156.5"/>
<text text-anchor="middle" x="3165" y="-144.5" font-family="Helvetica,sans-Serif" font-size="10.00">src/d/map/d_map_path.cpp</text>
</a>
</g>
</g>
<!-- Node1&#45;&gt;Node43 -->
<g id="edge50" class="edge">
<title>Node1&#45;&gt;Node43</title>
<path fill="none" stroke="#63b8ff" d="M2862.87,-196.18C2923.84,-187.6 3012.1,-174.76 3089,-162 3098.26,-160.46 3108.15,-158.72 3117.61,-157"/>
<polygon fill="#63b8ff" stroke="#63b8ff" points="2862.73,-192.67 2853.31,-197.52 2863.7,-199.6 2862.73,-192.67"/>
</g>
<!-- Node44 -->
<g id="node44" class="node">
<title>Node44</title>
<g id="a_node44"><a xlink:href="d__shop__system_8cpp.html" target="_top" xlink:title=" ">
<polygon fill="white" stroke="#666666" points="3402,-156.5 3250,-156.5 3250,-137.5 3402,-137.5 3402,-156.5"/>
<text text-anchor="middle" x="3326" y="-144.5" font-family="Helvetica,sans-Serif" font-size="10.00">src/d/shop/d_shop_system.cpp</text>
</a>
</g>
</g>
<!-- Node1&#45;&gt;Node44 -->
<g id="edge52" class="edge">
<title>Node1&#45;&gt;Node44</title>
<path fill="none" stroke="#63b8ff" d="M2863.38,-200.61C2953.42,-193.23 3108.52,-179.4 3241,-162 3251.97,-160.56 3263.7,-158.78 3274.84,-156.98"/>
<polygon fill="#63b8ff" stroke="#63b8ff" points="2863.11,-197.12 2853.43,-201.42 2863.68,-204.1 2863.11,-197.12"/>
</g>
<!-- Node45 -->
<g id="node45" class="node">
<title>Node45</title>
<g id="a_node45"><a xlink:href="f__op__actor__mng_8cpp.html" target="_top" xlink:title=" ">
<polygon fill="white" stroke="#666666" points="3521.5,-162 3420.5,-162 3420.5,-132 3521.5,-132 3521.5,-162"/>
<text text-anchor="start" x="3428.5" y="-150" font-family="Helvetica,sans-Serif" font-size="10.00">src/f_op/f_op_actor</text>
<text text-anchor="middle" x="3471" y="-139" font-family="Helvetica,sans-Serif" font-size="10.00">_mng.cpp</text>
</a>
</g>
</g>
<!-- Node1&#45;&gt;Node45 -->
<g id="edge53" class="edge">
<title>Node1&#45;&gt;Node45</title>
<path fill="none" stroke="#63b8ff" d="M2862.93,-204.96C2980.36,-201.7 3214.64,-191.73 3411,-162 3413.96,-161.55 3416.99,-161.03 3420.04,-160.47"/>
<polygon fill="#63b8ff" stroke="#63b8ff" points="2863.01,-201.46 2853.11,-205.23 2863.2,-208.46 2863.01,-201.46"/>
</g>
<!-- Node46 -->
<g id="node46" class="node">
<title>Node46</title>
<g id="a_node46"><a xlink:href="m__Do__lib_8cpp.html" target="_top" xlink:title=" ">
<polygon fill="white" stroke="#666666" points="3660,-156.5 3540,-156.5 3540,-137.5 3660,-137.5 3660,-156.5"/>
<text text-anchor="middle" x="3600" y="-144.5" font-family="Helvetica,sans-Serif" font-size="10.00">src/m_Do/m_Do_lib.cpp</text>
</a>
</g>
</g>
<!-- Node1&#45;&gt;Node46 -->
<g id="edge54" class="edge">
<title>Node1&#45;&gt;Node46</title>
<path fill="none" stroke="#63b8ff" d="M2863.26,-205.48C2997.8,-202.87 3288.22,-193.74 3531,-162 3540.7,-160.73 3551.07,-158.89 3560.75,-156.96"/>
<polygon fill="#63b8ff" stroke="#63b8ff" points="2863.34,-201.97 2853.41,-205.66 2863.47,-208.97 2863.34,-201.97"/>
</g>
<!-- Node3 -->
<g id="node3" class="node">
<title>Node3</title>
<g id="a_node3"><a xlink:href="J3DMaterial_8h.html" target="_top" xlink:title=" ">
<polygon fill="white" stroke="#666666" points="1694.5,-96 1559.5,-96 1559.5,-66 1694.5,-66 1694.5,-96"/>
<text text-anchor="start" x="1567.5" y="-84" font-family="Helvetica,sans-Serif" font-size="10.00">include/JSystem/J3DGraph</text>
<text text-anchor="middle" x="1627" y="-73" font-family="Helvetica,sans-Serif" font-size="10.00">Base/J3DMaterial.h</text>
</a>
</g>
</g>
<!-- Node2&#45;&gt;Node3 -->
<g id="edge2" class="edge">
<title>Node2&#45;&gt;Node3</title>
<path fill="none" stroke="#63b8ff" d="M2415.06,-140.17C2246.33,-127.72 1853.08,-98.69 1694.79,-87"/>
<polygon fill="#63b8ff" stroke="#63b8ff" points="2414.59,-143.65 2424.82,-140.89 2415.1,-136.67 2414.59,-143.65"/>
</g>
<!-- Node24 -->
<g id="node24" class="node">
<title>Node24</title>
<g id="a_node24"><a xlink:href="d__a__alink_8h.html" target="_top" xlink:title=" ">
<polygon fill="white" stroke="#666666" points="3507,-90.5 3391,-90.5 3391,-71.5 3507,-71.5 3507,-90.5"/>
<text text-anchor="middle" x="3449" y="-78.5" font-family="Helvetica,sans-Serif" font-size="10.00">include/d/a/d_a_alink.h</text>
</a>
</g>
</g>
<!-- Node2&#45;&gt;Node24 -->
<g id="edge23" class="edge">
<title>Node2&#45;&gt;Node24</title>
<path fill="none" stroke="#63b8ff" d="M2573.13,-135.72C2585.14,-134.34 2597.39,-133.05 2609,-132 2761.32,-118.21 3226.37,-93.53 3390.72,-85"/>
<polygon fill="#63b8ff" stroke="#63b8ff" points="2572.76,-132.24 2563.23,-136.87 2573.57,-139.19 2572.76,-132.24"/>
</g>
<!-- Node34 -->
<g id="node34" class="node">
<title>Node34</title>
<g id="a_node34"><a xlink:href="d__a__midna_8h.html" target="_top" xlink:title=" ">
<polygon fill="white" stroke="#666666" points="3146,-96 3040,-96 3040,-66 3146,-66 3146,-96"/>
<text text-anchor="start" x="3048" y="-84" font-family="Helvetica,sans-Serif" font-size="10.00">include/rel/d/a/d_a</text>
<text text-anchor="middle" x="3093" y="-73" font-family="Helvetica,sans-Serif" font-size="10.00">_midna/d_a_midna.h</text>
</a>
</g>
</g>
<!-- Node2&#45;&gt;Node34 -->
<g id="edge34" class="edge">
<title>Node2&#45;&gt;Node34</title>
<path fill="none" stroke="#63b8ff" d="M2573.18,-136.17C2585.18,-134.73 2597.41,-133.3 2609,-132 2765.35,-114.41 2950.39,-95.95 3039.61,-87.19"/>
<polygon fill="#63b8ff" stroke="#63b8ff" points="2572.79,-132.69 2563.28,-137.36 2573.63,-139.64 2572.79,-132.69"/>
</g>
<!-- Node35 -->
<g id="node35" class="node">
<title>Node35</title>
<g id="a_node35"><a xlink:href="J3DMatBlock_8cpp.html" target="_top" xlink:title=" ">
<polygon fill="white" stroke="#666666" points="3667,-96 3525,-96 3525,-66 3667,-66 3667,-96"/>
<text text-anchor="start" x="3533" y="-84" font-family="Helvetica,sans-Serif" font-size="10.00">libs/JSystem/J3DGraphBase</text>
<text text-anchor="middle" x="3596" y="-73" font-family="Helvetica,sans-Serif" font-size="10.00">/J3DMatBlock.cpp</text>
</a>
</g>
</g>
<!-- Node2&#45;&gt;Node35 -->
<g id="edge39" class="edge">
<title>Node2&#45;&gt;Node35</title>
<path fill="none" stroke="#63b8ff" d="M2573.12,-135.51C2585.12,-134.17 2597.38,-132.94 2609,-132 3011.13,-99.6 3114.86,-138.87 3516,-96 3518.8,-95.7 3521.66,-95.36 3524.54,-94.99"/>
<polygon fill="#63b8ff" stroke="#63b8ff" points="2572.75,-132.03 2563.21,-136.65 2573.55,-138.98 2572.75,-132.03"/>
</g>
<!-- Node36 -->
<g id="node36" class="node">
<title>Node36</title>
<g id="a_node36"><a xlink:href="J3DShapeMtx_8cpp.html" target="_top" xlink:title=" ">
<polygon fill="white" stroke="#666666" points="2276,-96 2134,-96 2134,-66 2276,-66 2276,-96"/>
<text text-anchor="start" x="2142" y="-84" font-family="Helvetica,sans-Serif" font-size="10.00">libs/JSystem/J3DGraphBase</text>
<text text-anchor="middle" x="2205" y="-73" font-family="Helvetica,sans-Serif" font-size="10.00">/J3DShapeMtx.cpp</text>
</a>
</g>
</g>
<!-- Node2&#45;&gt;Node36 -->
<g id="edge40" class="edge">
<title>Node2&#45;&gt;Node36</title>
<path fill="none" stroke="#63b8ff" d="M2417.67,-129.1C2371.69,-118.91 2313.76,-106.09 2269.98,-96.39"/>
<polygon fill="#63b8ff" stroke="#63b8ff" points="2416.78,-132.49 2427.3,-131.23 2418.3,-125.65 2416.78,-132.49"/>
</g>
<!-- Node37 -->
<g id="node37" class="node">
<title>Node37</title>
<g id="a_node37"><a xlink:href="J3DTevs_8cpp.html" target="_top" xlink:title=" ">
<polygon fill="white" stroke="#666666" points="2436,-96 2294,-96 2294,-66 2436,-66 2436,-96"/>
<text text-anchor="start" x="2302" y="-84" font-family="Helvetica,sans-Serif" font-size="10.00">libs/JSystem/J3DGraphBase</text>
<text text-anchor="middle" x="2365" y="-73" font-family="Helvetica,sans-Serif" font-size="10.00">/J3DTevs.cpp</text>
</a>
</g>
</g>
<!-- Node2&#45;&gt;Node37 -->
<g id="edge41" class="edge">
<title>Node2&#45;&gt;Node37</title>
<path fill="none" stroke="#63b8ff" d="M2454.87,-126.59C2435.23,-116.84 2411.84,-105.24 2393.85,-96.31"/>
<polygon fill="#63b8ff" stroke="#63b8ff" points="2453.18,-129.66 2463.69,-130.96 2456.29,-123.38 2453.18,-129.66"/>
</g>
<!-- Node38 -->
<g id="node38" class="node">
<title>Node38</title>
<g id="a_node38"><a xlink:href="d__attention_8cpp.html" target="_top" xlink:title=" ">
<polygon fill="white" stroke="#666666" points="2561.5,-90.5 2454.5,-90.5 2454.5,-71.5 2561.5,-71.5 2561.5,-90.5"/>
<text text-anchor="middle" x="2508" y="-78.5" font-family="Helvetica,sans-Serif" font-size="10.00">src/d/d_attention.cpp</text>
</a>
</g>
</g>
<!-- Node2&#45;&gt;Node38 -->
<g id="edge42" class="edge">
<title>Node2&#45;&gt;Node38</title>
<path fill="none" stroke="#63b8ff" d="M2499.56,-120.59C2501.86,-110.06 2504.38,-98.53 2506.07,-90.84"/>
<polygon fill="#63b8ff" stroke="#63b8ff" points="2496.15,-119.8 2497.43,-130.32 2502.99,-121.3 2496.15,-119.8"/>
</g>
<!-- Node4 -->
<g id="node4" class="node">
<title>Node4</title>
<g id="a_node4"><a xlink:href="J3DJoint_8cpp.html" target="_top" xlink:title=" ">
<polygon fill="white" stroke="#666666" points="1002,-30 844,-30 844,0 1002,0 1002,-30"/>
<text text-anchor="start" x="852" y="-18" font-family="Helvetica,sans-Serif" font-size="10.00">libs/JSystem/J3DGraphAnimator</text>
<text text-anchor="middle" x="923" y="-7" font-family="Helvetica,sans-Serif" font-size="10.00">/J3DJoint.cpp</text>
</a>
</g>
</g>
<!-- Node3&#45;&gt;Node4 -->
<g id="edge3" class="edge">
<title>Node3&#45;&gt;Node4</title>
<path fill="none" stroke="#63b8ff" d="M1548.02,-75.54C1430.63,-68.46 1203.28,-53.06 1011,-30 1008.08,-29.65 1005.11,-29.27 1002.11,-28.88"/>
<polygon fill="#63b8ff" stroke="#63b8ff" points="1547.68,-79.02 1557.87,-76.12 1548.09,-72.03 1547.68,-79.02"/>
</g>
<!-- Node5 -->
<g id="node5" class="node">
<title>Node5</title>
<g id="a_node5"><a xlink:href="J3DJointTree_8cpp.html" target="_top" xlink:title=" ">
<polygon fill="white" stroke="#666666" points="1178,-30 1020,-30 1020,0 1178,0 1178,-30"/>
<text text-anchor="start" x="1028" y="-18" font-family="Helvetica,sans-Serif" font-size="10.00">libs/JSystem/J3DGraphAnimator</text>
<text text-anchor="middle" x="1099" y="-7" font-family="Helvetica,sans-Serif" font-size="10.00">/J3DJointTree.cpp</text>
</a>
</g>
</g>
<!-- Node3&#45;&gt;Node5 -->
<g id="edge4" class="edge">
<title>Node3&#45;&gt;Node5</title>
<path fill="none" stroke="#63b8ff" d="M1547.79,-72.07C1459.6,-63 1312.89,-47.16 1187,-30 1184.09,-29.6 1181.12,-29.19 1178.13,-28.76"/>
<polygon fill="#63b8ff" stroke="#63b8ff" points="1547.23,-75.54 1557.54,-73.07 1547.95,-68.57 1547.23,-75.54"/>
</g>
<!-- Node6 -->
<g id="node6" class="node">
<title>Node6</title>
<g id="a_node6"><a xlink:href="J3DMaterialAnm_8cpp.html" target="_top" xlink:title=" ">
<polygon fill="white" stroke="#666666" points="1354,-30 1196,-30 1196,0 1354,0 1354,-30"/>
<text text-anchor="start" x="1204" y="-18" font-family="Helvetica,sans-Serif" font-size="10.00">libs/JSystem/J3DGraphAnimator</text>
<text text-anchor="middle" x="1275" y="-7" font-family="Helvetica,sans-Serif" font-size="10.00">/J3DMaterialAnm.cpp</text>
</a>
</g>
</g>
<!-- Node3&#45;&gt;Node6 -->
<g id="edge5" class="edge">
<title>Node3&#45;&gt;Node6</title>
<path fill="none" stroke="#63b8ff" d="M1547.86,-65.61C1490.11,-55.11 1412.15,-40.94 1354.35,-30.43"/>
<polygon fill="#63b8ff" stroke="#63b8ff" points="1547.18,-69.04 1557.64,-67.39 1548.43,-62.16 1547.18,-69.04"/>
</g>
<!-- Node7 -->
<g id="node7" class="node">
<title>Node7</title>
<g id="a_node7"><a xlink:href="J3DMaterialAttach_8cpp.html" target="_top" xlink:title=" ">
<polygon fill="white" stroke="#666666" points="1530,-30 1372,-30 1372,0 1530,0 1530,-30"/>
<text text-anchor="start" x="1380" y="-18" font-family="Helvetica,sans-Serif" font-size="10.00">libs/JSystem/J3DGraphAnimator</text>
<text text-anchor="middle" x="1451" y="-7" font-family="Helvetica,sans-Serif" font-size="10.00">/J3DMaterialAttach.cpp</text>
</a>
</g>
</g>
<!-- Node3&#45;&gt;Node7 -->
<g id="edge6" class="edge">
<title>Node3&#45;&gt;Node7</title>
<path fill="none" stroke="#63b8ff" d="M1576.96,-61.8C1549.61,-51.86 1516.21,-39.71 1490.67,-30.43"/>
<polygon fill="#63b8ff" stroke="#63b8ff" points="1575.49,-64.99 1586.08,-65.12 1577.88,-58.41 1575.49,-64.99"/>
</g>
<!-- Node8 -->
<g id="node8" class="node">
<title>Node8</title>
<g id="a_node8"><a xlink:href="J3DModel_8cpp.html" target="_top" xlink:title=" ">
<polygon fill="white" stroke="#666666" points="1706,-30 1548,-30 1548,0 1706,0 1706,-30"/>
<text text-anchor="start" x="1556" y="-18" font-family="Helvetica,sans-Serif" font-size="10.00">libs/JSystem/J3DGraphAnimator</text>
<text text-anchor="middle" x="1627" y="-7" font-family="Helvetica,sans-Serif" font-size="10.00">/J3DModel.cpp</text>
</a>
</g>
</g>
<!-- Node3&#45;&gt;Node8 -->
<g id="edge7" class="edge">
<title>Node3&#45;&gt;Node8</title>
<path fill="none" stroke="#63b8ff" d="M1627,-54.39C1627,-46.13 1627,-37.28 1627,-30.16"/>
<polygon fill="#63b8ff" stroke="#63b8ff" points="1623.5,-54.28 1627,-64.28 1630.5,-54.28 1623.5,-54.28"/>
</g>
<!-- Node9 -->
<g id="node9" class="node">
<title>Node9</title>
<g id="a_node9"><a xlink:href="J3DModelData_8cpp.html" target="_top" xlink:title=" ">
<polygon fill="white" stroke="#666666" points="1882,-30 1724,-30 1724,0 1882,0 1882,-30"/>
<text text-anchor="start" x="1732" y="-18" font-family="Helvetica,sans-Serif" font-size="10.00">libs/JSystem/J3DGraphAnimator</text>
<text text-anchor="middle" x="1803" y="-7" font-family="Helvetica,sans-Serif" font-size="10.00">/J3DModelData.cpp</text>
</a>
</g>
</g>
<!-- Node3&#45;&gt;Node9 -->
<g id="edge8" class="edge">
<title>Node3&#45;&gt;Node9</title>
<path fill="none" stroke="#63b8ff" d="M1677.04,-61.8C1704.39,-51.86 1737.79,-39.71 1763.33,-30.43"/>
<polygon fill="#63b8ff" stroke="#63b8ff" points="1676.12,-58.41 1667.92,-65.12 1678.51,-64.99 1676.12,-58.41"/>
</g>
<!-- Node10 -->
<g id="node10" class="node">
<title>Node10</title>
<g id="a_node10"><a xlink:href="J3DDrawBuffer_8cpp.html" target="_top" xlink:title=" ">
<polygon fill="white" stroke="#666666" points="2042,-30 1900,-30 1900,0 2042,0 2042,-30"/>
<text text-anchor="start" x="1908" y="-18" font-family="Helvetica,sans-Serif" font-size="10.00">libs/JSystem/J3DGraphBase</text>
<text text-anchor="middle" x="1971" y="-7" font-family="Helvetica,sans-Serif" font-size="10.00">/J3DDrawBuffer.cpp</text>
</a>
</g>
</g>
<!-- Node3&#45;&gt;Node10 -->
<g id="edge9" class="edge">
<title>Node3&#45;&gt;Node10</title>
<path fill="none" stroke="#63b8ff" d="M1705.98,-65.31C1764.35,-54.45 1843.15,-39.79 1899.63,-29.28"/>
<polygon fill="#63b8ff" stroke="#63b8ff" points="1705.64,-61.81 1696.45,-67.08 1706.92,-68.69 1705.64,-61.81"/>
</g>
<!-- Node11 -->
<g id="node11" class="node">
<title>Node11</title>
<g id="a_node11"><a xlink:href="J3DMaterial_8cpp.html" target="_top" xlink:title=" ">
<polygon fill="white" stroke="#666666" points="2202,-30 2060,-30 2060,0 2202,0 2202,-30"/>
<text text-anchor="start" x="2068" y="-18" font-family="Helvetica,sans-Serif" font-size="10.00">libs/JSystem/J3DGraphBase</text>
<text text-anchor="middle" x="2131" y="-7" font-family="Helvetica,sans-Serif" font-size="10.00">/J3DMaterial.cpp</text>
</a>
</g>
</g>
<!-- Node3&#45;&gt;Node11 -->
<g id="edge10" class="edge">
<title>Node3&#45;&gt;Node11</title>
<path fill="none" stroke="#63b8ff" d="M1706.12,-72C1791.42,-63.07 1931.1,-47.55 2051,-30 2053.79,-29.59 2056.63,-29.16 2059.5,-28.72"/>
<polygon fill="#63b8ff" stroke="#63b8ff" points="1705.8,-68.52 1696.22,-73.04 1706.53,-75.48 1705.8,-68.52"/>
</g>
<!-- Node12 -->
<g id="node12" class="node">
<title>Node12</title>
<g id="a_node12"><a xlink:href="J3DPacket_8cpp.html" target="_top" xlink:title=" ">
<polygon fill="white" stroke="#666666" points="2362,-30 2220,-30 2220,0 2362,0 2362,-30"/>
<text text-anchor="start" x="2228" y="-18" font-family="Helvetica,sans-Serif" font-size="10.00">libs/JSystem/J3DGraphBase</text>
<text text-anchor="middle" x="2291" y="-7" font-family="Helvetica,sans-Serif" font-size="10.00">/J3DPacket.cpp</text>
</a>
</g>
</g>
<!-- Node3&#45;&gt;Node12 -->
<g id="edge11" class="edge">
<title>Node3&#45;&gt;Node12</title>
<path fill="none" stroke="#63b8ff" d="M1705.88,-75.45C1818.31,-68.47 2031,-53.41 2211,-30 2213.8,-29.64 2216.64,-29.24 2219.52,-28.83"/>
<polygon fill="#63b8ff" stroke="#63b8ff" points="1705.93,-71.94 1696.16,-76.05 1706.36,-78.93 1705.93,-71.94"/>
</g>
<!-- Node13 -->
<g id="node13" class="node">
<title>Node13</title>
<g id="a_node13"><a xlink:href="J3DModelLoader_8cpp.html" target="_top" xlink:title=" ">
<polygon fill="white" stroke="#666666" points="2529.5,-30 2380.5,-30 2380.5,0 2529.5,0 2529.5,-30"/>
<text text-anchor="start" x="2388.5" y="-18" font-family="Helvetica,sans-Serif" font-size="10.00">libs/JSystem/J3DGraphLoader</text>
<text text-anchor="middle" x="2455" y="-7" font-family="Helvetica,sans-Serif" font-size="10.00">/J3DModelLoader.cpp</text>
</a>
</g>
</g>
<!-- Node3&#45;&gt;Node13 -->
<g id="edge12" class="edge">
<title>Node3&#45;&gt;Node13</title>
<path fill="none" stroke="#63b8ff" d="M1706.03,-77.24C1842.18,-71.91 2129.61,-58.16 2371,-30 2374.08,-29.64 2377.23,-29.25 2380.4,-28.82"/>
<polygon fill="#63b8ff" stroke="#63b8ff" points="1706.28,-73.72 1696.42,-77.61 1706.55,-80.72 1706.28,-73.72"/>
</g>
<!-- Node14 -->
<g id="node14" class="node">
<title>Node14</title>
<g id="a_node14"><a xlink:href="d__a__alink_8cpp.html" target="_top" xlink:title=" ">
<polygon fill="white" stroke="#666666" points="3017.5,-24.5 2908.5,-24.5 2908.5,-5.5 3017.5,-5.5 3017.5,-24.5"/>
<text text-anchor="middle" x="2963" y="-12.5" font-family="Helvetica,sans-Serif" font-size="10.00">src/d/a/d_a_alink.cpp</text>
</a>
</g>
</g>
<!-- Node3&#45;&gt;Node14 -->
<g id="edge13" class="edge">
<title>Node3&#45;&gt;Node14</title>
<path fill="none" stroke="#63b8ff" d="M1706.06,-77.7C1965.54,-70.05 2781.28,-45.07 2899,-30 2908.25,-28.82 2918.14,-26.95 2927.31,-24.97"/>
<polygon fill="#63b8ff" stroke="#63b8ff" points="1706.27,-74.2 1696.38,-77.99 1706.47,-81.19 1706.27,-74.2"/>
</g>
<!-- Node3&#45;&gt;Node15 -->
<g id="edge14" class="edge">
<title>Node3&#45;&gt;Node15</title>
<path fill="none" stroke="#63b8ff" d="M1547.91,-79.4C1278.03,-77.03 394.53,-66.61 113,-30 104.06,-28.84 94.5,-26.96 85.67,-24.95"/>
<polygon fill="#63b8ff" stroke="#63b8ff" points="1547.62,-82.9 1557.65,-79.48 1547.68,-75.9 1547.62,-82.9"/>
</g>
<!-- Node3&#45;&gt;Node16 -->
<g id="edge15" class="edge">
<title>Node3&#45;&gt;Node16</title>
<path fill="none" stroke="#63b8ff" d="M1547.95,-77.98C1273.34,-70.83 370.38,-46.35 241,-30 231.75,-28.83 221.86,-26.97 212.68,-24.99"/>
<polygon fill="#63b8ff" stroke="#63b8ff" points="1547.79,-81.47 1557.88,-78.23 1547.97,-74.48 1547.79,-81.47"/>
</g>
<!-- Node17 -->
<g id="node17" class="node">
<title>Node17</title>
<g id="a_node17"><a xlink:href="d__k__wpillar_8cpp.html" target="_top" xlink:title=" ">
<polygon fill="white" stroke="#666666" points="2656,-24.5 2548,-24.5 2548,-5.5 2656,-5.5 2656,-24.5"/>
<text text-anchor="middle" x="2602" y="-12.5" font-family="Helvetica,sans-Serif" font-size="10.00">src/d/d_k_wpillar.cpp</text>
</a>
</g>
</g>
<!-- Node3&#45;&gt;Node17 -->
<g id="edge16" class="edge">
<title>Node3&#45;&gt;Node17</title>
<path fill="none" stroke="#63b8ff" d="M1706.26,-77.33C1897.3,-70.61 2379.18,-51.99 2539,-30 2547.99,-28.76 2557.6,-26.91 2566.53,-24.95"/>
<polygon fill="#63b8ff" stroke="#63b8ff" points="1706.3,-73.82 1696.43,-77.67 1706.55,-80.82 1706.3,-73.82"/>
</g>
<!-- Node18 -->
<g id="node18" class="node">
<title>Node18</title>
<g id="a_node18"><a xlink:href="d__model_8cpp.html" target="_top" xlink:title=" ">
<polygon fill="white" stroke="#666666" points="2770,-24.5 2674,-24.5 2674,-5.5 2770,-5.5 2770,-24.5"/>
<text text-anchor="middle" x="2722" y="-12.5" font-family="Helvetica,sans-Serif" font-size="10.00">src/d/d_model.cpp</text>
</a>
</g>
</g>
<!-- Node3&#45;&gt;Node18 -->
<g id="edge17" class="edge">
<title>Node3&#45;&gt;Node18</title>
<path fill="none" stroke="#63b8ff" d="M1706.33,-78.16C1915.8,-72.98 2480.25,-56.88 2665,-30 2673.27,-28.8 2682.09,-26.93 2690.26,-24.94"/>
<polygon fill="#63b8ff" stroke="#63b8ff" points="1706.26,-74.66 1696.35,-78.4 1706.43,-81.66 1706.26,-74.66"/>
</g>
<!-- Node19 -->
<g id="node19" class="node">
<title>Node19</title>
<g id="a_node19"><a xlink:href="d__resorce_8cpp.html" target="_top" xlink:title=" ">
<polygon fill="white" stroke="#666666" points="2890,-24.5 2788,-24.5 2788,-5.5 2890,-5.5 2890,-24.5"/>
<text text-anchor="middle" x="2839" y="-12.5" font-family="Helvetica,sans-Serif" font-size="10.00">src/d/d_resorce.cpp</text>
</a>
</g>
</g>
<!-- Node3&#45;&gt;Node19 -->
<g id="edge18" class="edge">
<title>Node3&#45;&gt;Node19</title>
<path fill="none" stroke="#63b8ff" d="M1705.93,-77.43C1948.58,-69.39 2673.57,-44.46 2779,-30 2787.69,-28.81 2796.97,-26.94 2805.57,-24.96"/>
<polygon fill="#63b8ff" stroke="#63b8ff" points="1706.13,-73.92 1696.25,-77.75 1706.36,-80.91 1706.13,-73.92"/>
</g>
<!-- Node20 -->
<g id="node20" class="node">
<title>Node20</title>
<g id="a_node20"><a xlink:href="d__file__select_8cpp.html" target="_top" xlink:title=" ">
<polygon fill="white" stroke="#666666" points="532,-24.5 404,-24.5 404,-5.5 532,-5.5 532,-24.5"/>
<text text-anchor="middle" x="468" y="-12.5" font-family="Helvetica,sans-Serif" font-size="10.00">src/d/file/d_file_select.cpp</text>
</a>
</g>
</g>
<!-- Node3&#45;&gt;Node20 -->
<g id="edge19" class="edge">
<title>Node3&#45;&gt;Node20</title>
<path fill="none" stroke="#63b8ff" d="M1547.87,-75.46C1497.06,-72.61 1429.65,-68.92 1370,-66 1001.65,-47.97 907.29,-72.84 541,-30 530.62,-28.79 519.5,-26.94 509.15,-24.98"/>
<polygon fill="#63b8ff" stroke="#63b8ff" points="1547.41,-78.94 1557.59,-76.01 1547.8,-71.95 1547.41,-78.94"/>
</g>
<!-- Node21 -->
<g id="node21" class="node">
<title>Node21</title>
<g id="a_node21"><a xlink:href="d__kankyo_8cpp.html" target="_top" xlink:title=" ">
<polygon fill="white" stroke="#666666" points="684,-24.5 550,-24.5 550,-5.5 684,-5.5 684,-24.5"/>
<text text-anchor="middle" x="617" y="-12.5" font-family="Helvetica,sans-Serif" font-size="10.00">src/d/kankyo/d_kankyo.cpp</text>
</a>
</g>
</g>
<!-- Node3&#45;&gt;Node21 -->
<g id="edge20" class="edge">
<title>Node3&#45;&gt;Node21</title>
<path fill="none" stroke="#63b8ff" d="M1547.86,-75.66C1497.04,-72.88 1429.63,-69.21 1370,-66 1069.12,-49.81 992.23,-65.37 693,-30 682.34,-28.74 670.92,-26.9 660.26,-24.97"/>
<polygon fill="#63b8ff" stroke="#63b8ff" points="1547.41,-79.14 1557.58,-76.19 1547.79,-72.15 1547.41,-79.14"/>
</g>
<!-- Node3&#45;&gt;Node22 -->
<g id="edge21" class="edge">
<title>Node3&#45;&gt;Node22</title>
<path fill="none" stroke="#63b8ff" d="M1547.87,-75.33C1497.06,-72.42 1429.65,-68.73 1370,-66 936.82,-46.21 826.08,-76.9 395,-30 383.92,-28.79 372.04,-26.93 361.01,-24.94"/>
<polygon fill="#63b8ff" stroke="#63b8ff" points="1547.41,-78.81 1557.6,-75.89 1547.81,-71.82 1547.41,-78.81"/>
</g>
<!-- Node23 -->
<g id="node23" class="node">
<title>Node23</title>
<g id="a_node23"><a xlink:href="m__Do__ext_8cpp.html" target="_top" xlink:title=" ">
<polygon fill="white" stroke="#666666" points="825.5,-24.5 702.5,-24.5 702.5,-5.5 825.5,-5.5 825.5,-24.5"/>
<text text-anchor="middle" x="764" y="-12.5" font-family="Helvetica,sans-Serif" font-size="10.00">src/m_Do/m_Do_ext.cpp</text>
</a>
</g>
</g>
<!-- Node3&#45;&gt;Node23 -->
<g id="edge22" class="edge">
<title>Node3&#45;&gt;Node23</title>
<path fill="none" stroke="#63b8ff" d="M1547.79,-75.59C1361.17,-65.13 904.3,-38.98 835,-30 825.16,-28.72 814.63,-26.9 804.77,-24.99"/>
<polygon fill="#63b8ff" stroke="#63b8ff" points="1547.46,-79.08 1557.64,-76.15 1547.86,-72.09 1547.46,-79.08"/>
</g>
<!-- Node24&#45;&gt;Node14 -->
<g id="edge24" class="edge">
<title>Node24&#45;&gt;Node14</title>
<path fill="none" stroke="#63b8ff" d="M3379.3,-73.84C3295.38,-65.94 3150.34,-50.75 3027,-30 3018.59,-28.59 3009.61,-26.8 3001.12,-24.98"/>
<polygon fill="#63b8ff" stroke="#63b8ff" points="3378.93,-77.32 3389.22,-74.77 3379.58,-70.35 3378.93,-77.32"/>
</g>
<!-- Node24&#45;&gt;Node25 -->
<g id="edge25" class="edge">
<title>Node24&#45;&gt;Node25</title>
<path fill="none" stroke="#63b8ff" d="M3382.43,-69.16C3323.78,-59.44 3236.08,-44.53 3160,-30 3151.83,-28.44 3143.12,-26.69 3134.77,-24.96"/>
<polygon fill="#63b8ff" stroke="#63b8ff" points="3381.83,-72.6 3392.27,-70.78 3382.97,-65.7 3381.83,-72.6"/>
</g>
<!-- Node26 -->
<g id="node26" class="node">
<title>Node26</title>
<g id="a_node26"><a xlink:href="d__com__inf__game_8cpp.html" target="_top" xlink:title=" ">
<polygon fill="white" stroke="#666666" points="3704,-30 3596,-30 3596,0 3704,0 3704,-30"/>
<text text-anchor="start" x="3604" y="-18" font-family="Helvetica,sans-Serif" font-size="10.00">src/d/com/d_com_inf</text>
<text text-anchor="middle" x="3650" y="-7" font-family="Helvetica,sans-Serif" font-size="10.00">_game.cpp</text>
</a>
</g>
</g>
<!-- Node24&#45;&gt;Node26 -->
<g id="edge26" class="edge">
<title>Node24&#45;&gt;Node26</title>
<path fill="none" stroke="#63b8ff" d="M3487.66,-67.69C3521.04,-57.06 3569.3,-41.69 3604.53,-30.48"/>
<polygon fill="#63b8ff" stroke="#63b8ff" points="3486.86,-64.27 3478.39,-70.64 3488.98,-70.94 3486.86,-64.27"/>
</g>
<!-- Node27 -->
<g id="node27" class="node">
<title>Node27</title>
<g id="a_node27"><a xlink:href="d__camera_8cpp.html" target="_top" xlink:title=" ">
<polygon fill="white" stroke="#666666" points="3824,-24.5 3722,-24.5 3722,-5.5 3824,-5.5 3824,-24.5"/>
<text text-anchor="middle" x="3773" y="-12.5" font-family="Helvetica,sans-Serif" font-size="10.00">src/d/d_camera.cpp</text>
</a>
</g>
</g>
<!-- Node24&#45;&gt;Node27 -->
<g id="edge27" class="edge">
<title>Node24&#45;&gt;Node27</title>
<path fill="none" stroke="#63b8ff" d="M3502.07,-68.78C3506.78,-67.83 3511.47,-66.89 3516,-66 3603.35,-48.9 3625.86,-48.12 3713,-30 3720.44,-28.45 3728.36,-26.69 3735.93,-24.94"/>
<polygon fill="#63b8ff" stroke="#63b8ff" points="3501.72,-65.28 3492.62,-70.72 3503.12,-72.14 3501.72,-65.28"/>
</g>
<!-- Node28 -->
<g id="node28" class="node">
<title>Node28</title>
<g id="a_node28"><a xlink:href="d__ev__camera_8cpp.html" target="_top" xlink:title=" ">
<polygon fill="white" stroke="#666666" points="3960,-24.5 3842,-24.5 3842,-5.5 3960,-5.5 3960,-24.5"/>
<text text-anchor="middle" x="3901" y="-12.5" font-family="Helvetica,sans-Serif" font-size="10.00">src/d/d_ev_camera.cpp</text>
</a>
</g>
</g>
<!-- Node24&#45;&gt;Node28 -->
<g id="edge28" class="edge">
<title>Node24&#45;&gt;Node28</title>
<path fill="none" stroke="#63b8ff" d="M3499.93,-68.84C3505.34,-67.81 3510.78,-66.84 3516,-66 3655.99,-43.47 3692.97,-52.32 3833,-30 3841.93,-28.58 3851.46,-26.79 3860.48,-24.97"/>
<polygon fill="#63b8ff" stroke="#63b8ff" points="3499.54,-65.35 3490.41,-70.73 3500.9,-72.22 3499.54,-65.35"/>
</g>
<!-- Node29 -->
<g id="node29" class="node">
<title>Node29</title>
<g id="a_node29"><a xlink:href="d__event_8cpp.html" target="_top" xlink:title=" ">
<polygon fill="white" stroke="#666666" points="3440.5,-24.5 3319.5,-24.5 3319.5,-5.5 3440.5,-5.5 3440.5,-24.5"/>
<text text-anchor="middle" x="3380" y="-12.5" font-family="Helvetica,sans-Serif" font-size="10.00">src/d/event/d_event.cpp</text>
</a>
</g>
</g>
<!-- Node24&#45;&gt;Node29 -->
<g id="edge29" class="edge">
<title>Node24&#45;&gt;Node29</title>
<path fill="none" stroke="#63b8ff" d="M3431.03,-63.33C3417.75,-51.02 3400.19,-34.73 3389.51,-24.82"/>
<polygon fill="#63b8ff" stroke="#63b8ff" points="3428.58,-65.84 3438.3,-70.07 3433.34,-60.71 3428.58,-65.84"/>
</g>
<!-- Node30 -->
<g id="node30" class="node">
<title>Node30</title>
<g id="a_node30"><a xlink:href="d__menu__ring_8cpp.html" target="_top" xlink:title=" ">
<polygon fill="white" stroke="#666666" points="4120,-24.5 3978,-24.5 3978,-5.5 4120,-5.5 4120,-24.5"/>
<text text-anchor="middle" x="4049" y="-12.5" font-family="Helvetica,sans-Serif" font-size="10.00">src/d/menu/d_menu_ring.cpp</text>
</a>
</g>
</g>
<!-- Node24&#45;&gt;Node30 -->
<g id="edge30" class="edge">
<title>Node24&#45;&gt;Node30</title>
<path fill="none" stroke="#63b8ff" d="M3498.81,-68.87C3504.58,-67.79 3510.41,-66.8 3516,-66 3715.92,-37.29 3768.64,-55.44 3969,-30 3979.77,-28.63 3991.3,-26.82 4002.16,-24.96"/>
<polygon fill="#63b8ff" stroke="#63b8ff" points="3498.45,-65.37 3489.31,-70.73 3499.8,-72.24 3498.45,-65.37"/>
</g>
<!-- Node31 -->
<g id="node31" class="node">
<title>Node31</title>
<g id="a_node31"><a xlink:href="d__meter2__draw_8cpp.html" target="_top" xlink:title=" ">
<polygon fill="white" stroke="#666666" points="4248,-30 4138,-30 4138,0 4248,0 4248,-30"/>
<text text-anchor="start" x="4146" y="-18" font-family="Helvetica,sans-Serif" font-size="10.00">src/d/meter/d_meter2</text>
<text text-anchor="middle" x="4193" y="-7" font-family="Helvetica,sans-Serif" font-size="10.00">_draw.cpp</text>
</a>
</g>
</g>
<!-- Node24&#45;&gt;Node31 -->
<g id="edge31" class="edge">
<title>Node24&#45;&gt;Node31</title>
<path fill="none" stroke="#63b8ff" d="M3498.35,-68.83C3504.27,-67.75 3510.26,-66.76 3516,-66 3786.53,-29.99 3858.64,-67.27 4129,-30 4131.82,-29.61 4134.69,-29.17 4137.59,-28.68"/>
<polygon fill="#63b8ff" stroke="#63b8ff" points="3497.73,-65.39 3488.58,-70.74 3499.07,-72.26 3497.73,-65.39"/>
</g>
<!-- Node32 -->
<g id="node32" class="node">
<title>Node32</title>
<g id="a_node32"><a xlink:href="d__msg__flow_8cpp.html" target="_top" xlink:title=" ">
<polygon fill="white" stroke="#666666" points="3301.5,-24.5 3168.5,-24.5 3168.5,-5.5 3301.5,-5.5 3301.5,-24.5"/>
<text text-anchor="middle" x="3235" y="-12.5" font-family="Helvetica,sans-Serif" font-size="10.00">src/d/msg/d_msg_flow.cpp</text>
</a>
</g>
</g>
<!-- Node24&#45;&gt;Node32 -->
<g id="edge32" class="edge">
<title>Node24&#45;&gt;Node32</title>
<path fill="none" stroke="#63b8ff" d="M3408.33,-67.84C3366.47,-55.32 3302.24,-36.11 3264.85,-24.93"/>
<polygon fill="#63b8ff" stroke="#63b8ff" points="3407.21,-71.16 3417.79,-70.67 3409.22,-64.45 3407.21,-71.16"/>
</g>
<!-- Node33 -->
<g id="node33" class="node">
<title>Node33</title>
<g id="a_node33"><a xlink:href="f__op__actor_8cpp.html" target="_top" xlink:title=" ">
<polygon fill="white" stroke="#666666" points="3577.5,-24.5 3458.5,-24.5 3458.5,-5.5 3577.5,-5.5 3577.5,-24.5"/>
<text text-anchor="middle" x="3518" y="-12.5" font-family="Helvetica,sans-Serif" font-size="10.00">src/f_op/f_op_actor.cpp</text>
</a>
</g>
</g>
<!-- Node24&#45;&gt;Node33 -->
<g id="edge33" class="edge">
<title>Node24&#45;&gt;Node33</title>
<path fill="none" stroke="#63b8ff" d="M3466.97,-63.33C3480.25,-51.02 3497.81,-34.73 3508.49,-24.82"/>
<polygon fill="#63b8ff" stroke="#63b8ff" points="3464.66,-60.71 3459.7,-70.07 3469.42,-65.84 3464.66,-60.71"/>
</g>
<!-- Node34&#45;&gt;Node14 -->
<g id="edge35" class="edge">
<title>Node34&#45;&gt;Node14</title>
<path fill="none" stroke="#63b8ff" d="M3053.57,-60.59C3029.52,-48.75 2999.92,-34.18 2981.25,-24.99"/>
<polygon fill="#63b8ff" stroke="#63b8ff" points="3051.95,-63.69 3062.47,-64.97 3055.04,-57.41 3051.95,-63.69"/>
</g>
<!-- Node34&#45;&gt;Node25 -->
<g id="edge36" class="edge">
<title>Node34&#45;&gt;Node25</title>
<path fill="none" stroke="#63b8ff" d="M3093,-54.59C3093,-44.06 3093,-32.53 3093,-24.84"/>
<polygon fill="#63b8ff" stroke="#63b8ff" points="3089.5,-54.28 3093,-64.28 3096.5,-54.28 3089.5,-54.28"/>
</g>
<!-- Node34&#45;&gt;Node29 -->
<g id="edge37" class="edge">
<title>Node34&#45;&gt;Node29</title>
<path fill="none" stroke="#63b8ff" d="M3157.52,-65.61C3213.46,-53.14 3292.66,-35.48 3339.92,-24.94"/>
<polygon fill="#63b8ff" stroke="#63b8ff" points="3156.79,-62.19 3147.79,-67.78 3158.31,-69.02 3156.79,-62.19"/>
</g>
<!-- Node34&#45;&gt;Node32 -->
<g id="edge38" class="edge">
<title>Node34&#45;&gt;Node32</title>
<path fill="none" stroke="#63b8ff" d="M3135.01,-61.06C3161.46,-49.14 3194.39,-34.3 3215.06,-24.99"/>
<polygon fill="#63b8ff" stroke="#63b8ff" points="3133.93,-57.72 3126.25,-65.02 3136.8,-64.1 3133.93,-57.72"/>
</g>
</g>
</svg>
