<?xml version="1.0" encoding="UTF-8" standalone="no"?>
<!DOCTYPE svg PUBLIC "-//W3C//DTD SVG 1.1//EN"
 "http://www.w3.org/Graphics/SVG/1.1/DTD/svg11.dtd">
<!-- Generated by graphviz version 7.0.5 (20221223.1930)
 -->
<!-- Title: include/m_Do/m_Do_mtx.h Pages: 1 -->
<svg width="564pt" height="401pt"
 viewBox="0.00 0.00 563.50 401.00" xmlns="http://www.w3.org/2000/svg" xmlns:xlink="http://www.w3.org/1999/xlink">
<g id="graph0" class="graph" transform="scale(1 1) rotate(0) translate(4 397)">
<title>include/m_Do/m_Do_mtx.h</title>
<!-- Node1 -->
<g id="node1" class="node">
<title>Node1</title>
<g id="a_node1"><a xlink:title=" ">
<polygon fill="#999999" stroke="#666666" points="477,-393 344,-393 344,-374 477,-374 477,-393"/>
<text text-anchor="middle" x="410.5" y="-381" font-family="Helvetica,sans-Serif" font-size="10.00">include/m_Do/m_Do_mtx.h</text>
</a>
</g>
</g>
<!-- Node2 -->
<g id="node2" class="node">
<title>Node2</title>
<g id="a_node2"><a xlink:href="c__sxyz_8h.html" target="_top" xlink:title=" ">
<polygon fill="white" stroke="#666666" points="527.5,-272 411.5,-272 411.5,-242 527.5,-242 527.5,-272"/>
<text text-anchor="start" x="419.5" y="-260" font-family="Helvetica,sans-Serif" font-size="10.00">SSystem/SComponent</text>
<text text-anchor="middle" x="469.5" y="-249" font-family="Helvetica,sans-Serif" font-size="10.00">/c_sxyz.h</text>
</a>
</g>
</g>
<!-- Node1&#45;&gt;Node2 -->
<g id="edge1" class="edge">
<title>Node1&#45;&gt;Node2</title>
<path fill="none" stroke="#63b8ff" d="M414.74,-373.55C423.65,-354.74 444.58,-310.58 457.83,-282.62"/>
<polygon fill="#63b8ff" stroke="#63b8ff" points="460.89,-284.35 462.01,-273.81 454.56,-281.35 460.89,-284.35"/>
</g>
<!-- Node4 -->
<g id="node4" class="node">
<title>Node4</title>
<g id="a_node4"><a xlink:href="types_8h.html" target="_top" xlink:title=" ">
<polygon fill="white" stroke="#666666" points="248,-85 167,-85 167,-66 248,-66 248,-85"/>
<text text-anchor="middle" x="207.5" y="-73" font-family="Helvetica,sans-Serif" font-size="10.00">dolphin/types.h</text>
</a>
</g>
</g>
<!-- Node1&#45;&gt;Node4 -->
<g id="edge17" class="edge">
<title>Node1&#45;&gt;Node4</title>
<path fill="none" stroke="#63b8ff" d="M437.1,-373.51C478.96,-357.47 555.5,-319.71 555.5,-258 555.5,-258 555.5,-258 555.5,-190 555.5,-128.55 356.91,-95.17 259.77,-82.52"/>
<polygon fill="#63b8ff" stroke="#63b8ff" points="260.31,-79.06 249.94,-81.27 259.42,-86 260.31,-79.06"/>
</g>
<!-- Node6 -->
<g id="node6" class="node">
<title>Node6</title>
<g id="a_node6"><a xlink:href="c__xyz_8h.html" target="_top" xlink:title=" ">
<polygon fill="white" stroke="#666666" points="410.5,-338 294.5,-338 294.5,-308 410.5,-308 410.5,-338"/>
<text text-anchor="start" x="302.5" y="-326" font-family="Helvetica,sans-Serif" font-size="10.00">SSystem/SComponent</text>
<text text-anchor="middle" x="352.5" y="-315" font-family="Helvetica,sans-Serif" font-size="10.00">/c_xyz.h</text>
</a>
</g>
</g>
<!-- Node1&#45;&gt;Node6 -->
<g id="edge5" class="edge">
<title>Node1&#45;&gt;Node6</title>
<path fill="none" stroke="#63b8ff" d="M401.94,-373.87C394.73,-366.59 384.08,-355.85 374.51,-346.2"/>
<polygon fill="#63b8ff" stroke="#63b8ff" points="377.09,-343.83 367.56,-339.19 372.11,-348.76 377.09,-343.83"/>
</g>
<!-- Node10 -->
<g id="node10" class="node">
<title>Node10</title>
<g id="a_node10"><a xlink:href="mtxvec_8h.html" target="_top" xlink:title=" ">
<polygon fill="white" stroke="#666666" points="269.5,-332.5 161.5,-332.5 161.5,-313.5 269.5,-313.5 269.5,-332.5"/>
<text text-anchor="middle" x="215.5" y="-320.5" font-family="Helvetica,sans-Serif" font-size="10.00">dolphin/mtx/mtxvec.h</text>
</a>
</g>
</g>
<!-- Node1&#45;&gt;Node10 -->
<g id="edge10" class="edge">
<title>Node1&#45;&gt;Node10</title>
<path fill="none" stroke="#63b8ff" d="M380.88,-373.62C347.67,-363.65 293.59,-347.43 256.36,-336.26"/>
<polygon fill="#63b8ff" stroke="#63b8ff" points="257.43,-332.92 246.84,-333.4 255.42,-339.63 257.43,-332.92"/>
</g>
<!-- Node3 -->
<g id="node3" class="node">
<title>Node3</title>
<g id="a_node3"><a xlink:href="vec_8h.html" target="_top" xlink:title=" ">
<polygon fill="white" stroke="#666666" points="291.5,-140 199.5,-140 199.5,-121 291.5,-121 291.5,-140"/>
<text text-anchor="middle" x="245.5" y="-128" font-family="Helvetica,sans-Serif" font-size="10.00">dolphin/mtx/vec.h</text>
</a>
</g>
</g>
<!-- Node2&#45;&gt;Node3 -->
<g id="edge2" class="edge">
<title>Node2&#45;&gt;Node3</title>
<path fill="none" stroke="#63b8ff" d="M471.59,-241.78C473.33,-223.95 473.31,-193.61 456.5,-176 435.75,-154.25 358.01,-142.28 302.94,-136.38"/>
<polygon fill="#63b8ff" stroke="#63b8ff" points="303.38,-132.9 293.07,-135.36 302.66,-139.86 303.38,-132.9"/>
</g>
<!-- Node3&#45;&gt;Node4 -->
<g id="edge3" class="edge">
<title>Node3&#45;&gt;Node4</title>
<path fill="none" stroke="#63b8ff" d="M239.23,-120.75C234.14,-113.66 226.8,-103.42 220.47,-94.59"/>
<polygon fill="#63b8ff" stroke="#63b8ff" points="223.46,-92.76 214.79,-86.67 217.78,-96.84 223.46,-92.76"/>
</g>
<!-- Node5 -->
<g id="node5" class="node">
<title>Node5</title>
<g id="a_node5"><a xlink:href="stddef_8h.html" target="_top" xlink:title=" ">
<polygon fill="white" stroke="#666666" points="275.5,-30 139.5,-30 139.5,0 275.5,0 275.5,-30"/>
<text text-anchor="start" x="147.5" y="-18" font-family="Helvetica,sans-Serif" font-size="10.00">MSL_C/MSL_Common/Src</text>
<text text-anchor="middle" x="207.5" y="-7" font-family="Helvetica,sans-Serif" font-size="10.00">/stddef.h</text>
</a>
</g>
</g>
<!-- Node4&#45;&gt;Node5 -->
<g id="edge4" class="edge">
<title>Node4&#45;&gt;Node5</title>
<path fill="none" stroke="#63b8ff" d="M207.5,-65.87C207.5,-59.4 207.5,-50.2 207.5,-41.45"/>
<polygon fill="#63b8ff" stroke="#63b8ff" points="211,-41.63 207.5,-31.63 204,-41.63 211,-41.63"/>
</g>
<!-- Node6&#45;&gt;Node3 -->
<g id="edge9" class="edge">
<title>Node6&#45;&gt;Node3</title>
<path fill="none" stroke="#63b8ff" d="M334.97,-307.68C324.47,-298.38 311.45,-285.51 302.5,-272 302.05,-271.33 268.8,-189.13 253.3,-150.79"/>
<polygon fill="#63b8ff" stroke="#63b8ff" points="256.59,-149.6 249.6,-141.64 250.1,-152.22 256.59,-149.6"/>
</g>
<!-- Node7 -->
<g id="node7" class="node">
<title>Node7</title>
<g id="a_node7"><a xlink:href="math_8h.html" target="_top" xlink:title=" ">
<polygon fill="white" stroke="#666666" points="393.5,-266.5 311.5,-266.5 311.5,-247.5 393.5,-247.5 393.5,-266.5"/>
<text text-anchor="middle" x="352.5" y="-254.5" font-family="Helvetica,sans-Serif" font-size="10.00">MSL_C/math.h</text>
</a>
</g>
</g>
<!-- Node6&#45;&gt;Node7 -->
<g id="edge6" class="edge">
<title>Node6&#45;&gt;Node7</title>
<path fill="none" stroke="#63b8ff" d="M352.5,-307.8C352.5,-299.09 352.5,-287.81 352.5,-278.18"/>
<polygon fill="#63b8ff" stroke="#63b8ff" points="356,-278.36 352.5,-268.36 349,-278.36 356,-278.36"/>
</g>
<!-- Node8 -->
<g id="node8" class="node">
<title>Node8</title>
<g id="a_node8"><a xlink:href="MSL__Common_2Src_2float_8h.html" target="_top" xlink:title=" ">
<polygon fill="white" stroke="#666666" points="447.5,-206 311.5,-206 311.5,-176 447.5,-176 447.5,-206"/>
<text text-anchor="start" x="319.5" y="-194" font-family="Helvetica,sans-Serif" font-size="10.00">MSL_C/MSL_Common/Src</text>
<text text-anchor="middle" x="379.5" y="-183" font-family="Helvetica,sans-Serif" font-size="10.00">/float.h</text>
</a>
</g>
</g>
<!-- Node7&#45;&gt;Node8 -->
<g id="edge7" class="edge">
<title>Node7&#45;&gt;Node8</title>
<path fill="none" stroke="#63b8ff" d="M356.25,-247.1C359.57,-239.25 364.55,-227.43 369.06,-216.74"/>
<polygon fill="#63b8ff" stroke="#63b8ff" points="372.24,-218.2 372.91,-207.63 365.8,-215.48 372.24,-218.2"/>
</g>
<!-- Node9 -->
<g id="node9" class="node">
<title>Node9</title>
<g id="a_node9"><a xlink:href="fdlibm_8h.html" target="_top" xlink:title=" ">
<polygon fill="white" stroke="#666666" points="404.5,-140 354.5,-140 354.5,-121 404.5,-121 404.5,-140"/>
<text text-anchor="middle" x="379.5" y="-128" font-family="Helvetica,sans-Serif" font-size="10.00">fdlibm.h</text>
</a>
</g>
</g>
<!-- Node8&#45;&gt;Node9 -->
<g id="edge8" class="edge">
<title>Node8&#45;&gt;Node9</title>
<path fill="none" stroke="#63b8ff" d="M379.5,-175.54C379.5,-168.34 379.5,-159.53 379.5,-151.68"/>
<polygon fill="#63b8ff" stroke="#63b8ff" points="383,-151.69 379.5,-141.69 376,-151.69 383,-151.69"/>
</g>
<!-- Node11 -->
<g id="node11" class="node">
<title>Node11</title>
<g id="a_node11"><a xlink:href="mtx_8h.html" target="_top" xlink:title=" ">
<polygon fill="white" stroke="#666666" points="215.5,-266.5 123.5,-266.5 123.5,-247.5 215.5,-247.5 215.5,-266.5"/>
<text text-anchor="middle" x="169.5" y="-254.5" font-family="Helvetica,sans-Serif" font-size="10.00">dolphin/mtx/mtx.h</text>
</a>
</g>
</g>
<!-- Node10&#45;&gt;Node11 -->
<g id="edge11" class="edge">
<title>Node10&#45;&gt;Node11</title>
<path fill="none" stroke="#63b8ff" d="M209.1,-313.1C202.24,-303.55 191.15,-288.11 182.44,-276.01"/>
<polygon fill="#63b8ff" stroke="#63b8ff" points="185.4,-274.13 176.73,-268.05 179.72,-278.22 185.4,-274.13"/>
</g>
<!-- Node11&#45;&gt;Node4 -->
<g id="edge16" class="edge">
<title>Node11&#45;&gt;Node4</title>
<path fill="none" stroke="#63b8ff" d="M164.48,-247.08C156.8,-232.26 143.67,-201.66 150.5,-176 158.79,-144.85 179.39,-113.31 193.42,-94.32"/>
<polygon fill="#63b8ff" stroke="#63b8ff" points="196.04,-96.66 199.32,-86.58 190.47,-92.42 196.04,-96.66"/>
</g>
<!-- Node12 -->
<g id="node12" class="node">
<title>Node12</title>
<g id="a_node12"><a xlink:href="mtx44_8h.html" target="_top" xlink:title=" ">
<polygon fill="white" stroke="#666666" points="103,-140 0,-140 0,-121 103,-121 103,-140"/>
<text text-anchor="middle" x="51.5" y="-128" font-family="Helvetica,sans-Serif" font-size="10.00">dolphin/mtx/mtx44.h</text>
</a>
</g>
</g>
<!-- Node11&#45;&gt;Node12 -->
<g id="edge12" class="edge">
<title>Node11&#45;&gt;Node12</title>
<path fill="none" stroke="#63b8ff" d="M159.69,-247.01C149.06,-237.17 131.72,-220.82 117.5,-206 99.27,-187.01 79.36,-164.23 66.22,-148.9"/>
<polygon fill="#63b8ff" stroke="#63b8ff" points="69.13,-146.92 59.98,-141.57 63.8,-151.46 69.13,-146.92"/>
</g>
<!-- Node13 -->
<g id="node13" class="node">
<title>Node13</title>
<g id="a_node13"><a xlink:href="quat_8h.html" target="_top" xlink:title=" ">
<polygon fill="white" stroke="#666666" points="255,-200.5 160,-200.5 160,-181.5 255,-181.5 255,-200.5"/>
<text text-anchor="middle" x="207.5" y="-188.5" font-family="Helvetica,sans-Serif" font-size="10.00">dolphin/mtx/quat.h</text>
</a>
</g>
</g>
<!-- Node11&#45;&gt;Node13 -->
<g id="edge14" class="edge">
<title>Node11&#45;&gt;Node13</title>
<path fill="none" stroke="#63b8ff" d="M174.78,-247.1C180.4,-237.64 189.44,-222.42 196.59,-210.37"/>
<polygon fill="#63b8ff" stroke="#63b8ff" points="199.39,-212.51 201.49,-202.12 193.37,-208.94 199.39,-212.51"/>
</g>
<!-- Node12&#45;&gt;Node4 -->
<g id="edge13" class="edge">
<title>Node12&#45;&gt;Node4</title>
<path fill="none" stroke="#63b8ff" d="M77.96,-120.51C103.36,-111.88 141.97,-98.76 170.42,-89.1"/>
<polygon fill="#63b8ff" stroke="#63b8ff" points="171.39,-92.46 179.73,-85.93 169.14,-85.84 171.39,-92.46"/>
</g>
<!-- Node13&#45;&gt;Node3 -->
<g id="edge15" class="edge">
<title>Node13&#45;&gt;Node3</title>
<path fill="none" stroke="#63b8ff" d="M213.11,-181.37C218.5,-173.07 226.81,-160.28 233.66,-149.72"/>
<polygon fill="#63b8ff" stroke="#63b8ff" points="236.53,-151.73 239.05,-141.44 230.66,-147.92 236.53,-151.73"/>
</g>
</g>
</svg>
