<?xml version="1.0" encoding="UTF-8" standalone="no"?>
<!DOCTYPE svg PUBLIC "-//W3C//DTD SVG 1.1//EN"
 "http://www.w3.org/Graphics/SVG/1.1/DTD/svg11.dtd">
<!-- Generated by graphviz version 7.0.5 (20221223.1930)
 -->
<!-- Title: include/JSystem/JStudio/JStudio_JStage/object.h Pages: 1 -->
<svg width="1102pt" height="170pt"
 viewBox="0.00 0.00 1101.50 170.00" xmlns="http://www.w3.org/2000/svg" xmlns:xlink="http://www.w3.org/1999/xlink">
<g id="graph0" class="graph" transform="scale(1 1) rotate(0) translate(4 166)">
<title>include/JSystem/JStudio/JStudio_JStage/object.h</title>
<!-- Node1 -->
<g id="node1" class="node">
<title>Node1</title>
<g id="a_node1"><a xlink:title=" ">
<polygon fill="#999999" stroke="#666666" points="686.5,-162 561.5,-162 561.5,-132 686.5,-132 686.5,-162"/>
<text text-anchor="start" x="569.5" y="-150" font-family="Helvetica,sans-Serif" font-size="10.00">include/JSystem/JStudio</text>
<text text-anchor="middle" x="624" y="-139" font-family="Helvetica,sans-Serif" font-size="10.00">/JStudio_JStage/object.h</text>
</a>
</g>
</g>
<!-- Node2 -->
<g id="node2" class="node">
<title>Node2</title>
<g id="a_node2"><a xlink:href="d__demo_8h.html" target="_top" xlink:title=" ">
<polygon fill="white" stroke="#666666" points="606.5,-90.5 505.5,-90.5 505.5,-71.5 606.5,-71.5 606.5,-90.5"/>
<text text-anchor="middle" x="556" y="-78.5" font-family="Helvetica,sans-Serif" font-size="10.00">include/d/d_demo.h</text>
</a>
</g>
</g>
<!-- Node1&#45;&gt;Node2 -->
<g id="edge1" class="edge">
<title>Node1&#45;&gt;Node2</title>
<path fill="none" stroke="#63b8ff" d="M600.57,-123.94C588.49,-112.58 574.44,-99.36 565.4,-90.84"/>
<polygon fill="#63b8ff" stroke="#63b8ff" points="598.13,-126.45 607.81,-130.76 602.92,-121.36 598.13,-126.45"/>
</g>
<!-- Node11 -->
<g id="node11" class="node">
<title>Node11</title>
<g id="a_node11"><a xlink:href="object_8cpp.html" target="_top" xlink:title=" ">
<polygon fill="white" stroke="#666666" points="761,-96 625,-96 625,-66 761,-66 761,-96"/>
<text text-anchor="start" x="633" y="-84" font-family="Helvetica,sans-Serif" font-size="10.00">libs/JSystem/JStudio</text>
<text text-anchor="middle" x="693" y="-73" font-family="Helvetica,sans-Serif" font-size="10.00">/JStudio_JStage/object.cpp</text>
</a>
</g>
</g>
<!-- Node1&#45;&gt;Node11 -->
<g id="edge10" class="edge">
<title>Node1&#45;&gt;Node11</title>
<path fill="none" stroke="#63b8ff" d="M647.62,-124.09C657.59,-114.85 668.89,-104.36 677.73,-96.16"/>
<polygon fill="#63b8ff" stroke="#63b8ff" points="645.37,-121.4 640.42,-130.77 650.13,-126.53 645.37,-121.4"/>
</g>
<!-- Node3 -->
<g id="node3" class="node">
<title>Node3</title>
<g id="a_node3"><a xlink:href="Z2WolfHowlMgr_8cpp.html" target="_top" xlink:title=" ">
<polygon fill="white" stroke="#666666" points="140,-30 0,-30 0,0 140,0 140,-30"/>
<text text-anchor="start" x="8" y="-18" font-family="Helvetica,sans-Serif" font-size="10.00">libs/Z2AudioLib/Z2WolfHowl</text>
<text text-anchor="middle" x="70" y="-7" font-family="Helvetica,sans-Serif" font-size="10.00">Mgr.cpp</text>
</a>
</g>
</g>
<!-- Node2&#45;&gt;Node3 -->
<g id="edge2" class="edge">
<title>Node2&#45;&gt;Node3</title>
<path fill="none" stroke="#63b8ff" d="M493.79,-73.4C413.84,-64.67 270.79,-48.26 149,-30 146.11,-29.57 143.16,-29.11 140.18,-28.64"/>
<polygon fill="#63b8ff" stroke="#63b8ff" points="493.3,-76.86 503.62,-74.47 494.05,-69.91 493.3,-76.86"/>
</g>
<!-- Node4 -->
<g id="node4" class="node">
<title>Node4</title>
<g id="a_node4"><a xlink:href="d__com__static_8cpp.html" target="_top" xlink:title=" ">
<polygon fill="white" stroke="#666666" points="298,-24.5 158,-24.5 158,-5.5 298,-5.5 298,-24.5"/>
<text text-anchor="middle" x="228" y="-12.5" font-family="Helvetica,sans-Serif" font-size="10.00">src/d/com/d_com_static.cpp</text>
</a>
</g>
</g>
<!-- Node2&#45;&gt;Node4 -->
<g id="edge3" class="edge">
<title>Node2&#45;&gt;Node4</title>
<path fill="none" stroke="#63b8ff" d="M498.98,-68.87C435.11,-56.41 332.84,-36.46 273.91,-24.96"/>
<polygon fill="#63b8ff" stroke="#63b8ff" points="498.08,-72.26 508.56,-70.74 499.42,-65.39 498.08,-72.26"/>
</g>
<!-- Node5 -->
<g id="node5" class="node">
<title>Node5</title>
<g id="a_node5"><a xlink:href="d__demo_8cpp.html" target="_top" xlink:title=" ">
<polygon fill="white" stroke="#666666" points="410,-24.5 316,-24.5 316,-5.5 410,-5.5 410,-24.5"/>
<text text-anchor="middle" x="363" y="-12.5" font-family="Helvetica,sans-Serif" font-size="10.00">src/d/d_demo.cpp</text>
</a>
</g>
</g>
<!-- Node2&#45;&gt;Node5 -->
<g id="edge4" class="edge">
<title>Node2&#45;&gt;Node5</title>
<path fill="none" stroke="#63b8ff" d="M518.6,-67.6C480.83,-55.07 423.42,-36.04 389.92,-24.93"/>
<polygon fill="#63b8ff" stroke="#63b8ff" points="517.13,-70.8 527.73,-70.62 519.34,-64.15 517.13,-70.8"/>
</g>
<!-- Node6 -->
<g id="node6" class="node">
<title>Node6</title>
<g id="a_node6"><a xlink:href="d__ev__camera_8cpp.html" target="_top" xlink:title=" ">
<polygon fill="white" stroke="#666666" points="546,-24.5 428,-24.5 428,-5.5 546,-5.5 546,-24.5"/>
<text text-anchor="middle" x="487" y="-12.5" font-family="Helvetica,sans-Serif" font-size="10.00">src/d/d_ev_camera.cpp</text>
</a>
</g>
</g>
<!-- Node2&#45;&gt;Node6 -->
<g id="edge5" class="edge">
<title>Node2&#45;&gt;Node6</title>
<path fill="none" stroke="#63b8ff" d="M538.03,-63.33C524.75,-51.02 507.19,-34.73 496.51,-24.82"/>
<polygon fill="#63b8ff" stroke="#63b8ff" points="535.58,-65.84 545.3,-70.07 540.34,-60.71 535.58,-65.84"/>
</g>
<!-- Node7 -->
<g id="node7" class="node">
<title>Node7</title>
<g id="a_node7"><a xlink:href="d__event_8cpp.html" target="_top" xlink:title=" ">
<polygon fill="white" stroke="#666666" points="685.5,-24.5 564.5,-24.5 564.5,-5.5 685.5,-5.5 685.5,-24.5"/>
<text text-anchor="middle" x="625" y="-12.5" font-family="Helvetica,sans-Serif" font-size="10.00">src/d/event/d_event.cpp</text>
</a>
</g>
</g>
<!-- Node2&#45;&gt;Node7 -->
<g id="edge6" class="edge">
<title>Node2&#45;&gt;Node7</title>
<path fill="none" stroke="#63b8ff" d="M573.97,-63.33C587.25,-51.02 604.81,-34.73 615.49,-24.82"/>
<polygon fill="#63b8ff" stroke="#63b8ff" points="571.66,-60.71 566.7,-70.07 576.42,-65.84 571.66,-60.71"/>
</g>
<!-- Node8 -->
<g id="node8" class="node">
<title>Node8</title>
<g id="a_node8"><a xlink:href="d__meter2_8cpp.html" target="_top" xlink:title=" ">
<polygon fill="white" stroke="#666666" points="832,-24.5 704,-24.5 704,-5.5 832,-5.5 832,-24.5"/>
<text text-anchor="middle" x="768" y="-12.5" font-family="Helvetica,sans-Serif" font-size="10.00">src/d/meter/d_meter2.cpp</text>
</a>
</g>
</g>
<!-- Node2&#45;&gt;Node8 -->
<g id="edge7" class="edge">
<title>Node2&#45;&gt;Node8</title>
<path fill="none" stroke="#63b8ff" d="M596.29,-67.84C637.76,-55.32 701.39,-36.11 738.43,-24.93"/>
<polygon fill="#63b8ff" stroke="#63b8ff" points="595.49,-64.42 586.93,-70.66 597.51,-71.12 595.49,-64.42"/>
</g>
<!-- Node9 -->
<g id="node9" class="node">
<title>Node9</title>
<g id="a_node9"><a xlink:href="d__s__play_8cpp.html" target="_top" xlink:title=" ">
<polygon fill="white" stroke="#666666" points="956,-24.5 850,-24.5 850,-5.5 956,-5.5 956,-24.5"/>
<text text-anchor="middle" x="903" y="-12.5" font-family="Helvetica,sans-Serif" font-size="10.00">src/d/s/d_s_play.cpp</text>
</a>
</g>
</g>
<!-- Node2&#45;&gt;Node9 -->
<g id="edge8" class="edge">
<title>Node2&#45;&gt;Node9</title>
<path fill="none" stroke="#63b8ff" d="M603.49,-68.59C607.72,-67.68 611.93,-66.8 616,-66 715.37,-46.48 741.56,-49.16 841,-30 848.8,-28.5 857.12,-26.73 865.05,-24.97"/>
<polygon fill="#63b8ff" stroke="#63b8ff" points="602.87,-65.15 593.88,-70.74 604.4,-71.98 602.87,-65.15"/>
</g>
<!-- Node10 -->
<g id="node10" class="node">
<title>Node10</title>
<g id="a_node10"><a xlink:href="f__op__actor_8cpp.html" target="_top" xlink:title=" ">
<polygon fill="white" stroke="#666666" points="1093.5,-24.5 974.5,-24.5 974.5,-5.5 1093.5,-5.5 1093.5,-24.5"/>
<text text-anchor="middle" x="1034" y="-12.5" font-family="Helvetica,sans-Serif" font-size="10.00">src/f_op/f_op_actor.cpp</text>
</a>
</g>
</g>
<!-- Node2&#45;&gt;Node10 -->
<g id="edge9" class="edge">
<title>Node2&#45;&gt;Node10</title>
<path fill="none" stroke="#63b8ff" d="M601.97,-68.65C606.69,-67.67 611.43,-66.77 616,-66 769.79,-40.23 810.85,-53.53 965,-30 974.18,-28.6 984,-26.79 993.25,-24.95"/>
<polygon fill="#63b8ff" stroke="#63b8ff" points="601.57,-65.16 592.55,-70.71 603.06,-72 601.57,-65.16"/>
</g>
</g>
</svg>
