<?xml version="1.0" encoding="UTF-8" standalone="no"?>
<!DOCTYPE svg PUBLIC "-//W3C//DTD SVG 1.1//EN"
 "http://www.w3.org/Graphics/SVG/1.1/DTD/svg11.dtd">
<!-- Generated by graphviz version 7.0.5 (20221223.1930)
 -->
<!-- Title: libs/JSystem/JStudio/JStudio/object&#45;id.cpp Pages: 1 -->
<svg width="306pt" height="236pt"
 viewBox="0.00 0.00 305.50 236.00" xmlns="http://www.w3.org/2000/svg" xmlns:xlink="http://www.w3.org/1999/xlink">
<g id="graph0" class="graph" transform="scale(1 1) rotate(0) translate(4 232)">
<title>libs/JSystem/JStudio/JStudio/object&#45;id.cpp</title>
<!-- Node1 -->
<g id="node1" class="node">
<title>Node1</title>
<g id="a_node1"><a xlink:title=" ">
<polygon fill="#999999" stroke="#666666" points="210.5,-228 100.5,-228 100.5,-198 210.5,-198 210.5,-228"/>
<text text-anchor="start" x="108.5" y="-216" font-family="Helvetica,sans-Serif" font-size="10.00">libs/JSystem/JStudio</text>
<text text-anchor="middle" x="155.5" y="-205" font-family="Helvetica,sans-Serif" font-size="10.00">/JStudio/object&#45;id.cpp</text>
</a>
</g>
</g>
<!-- Node2 -->
<g id="node2" class="node">
<title>Node2</title>
<g id="a_node2"><a xlink:href="object-id_8h.html" target="_top" xlink:title=" ">
<polygon fill="white" stroke="#666666" points="127,-156.5 0,-156.5 0,-126.5 127,-126.5 127,-156.5"/>
<text text-anchor="start" x="8" y="-144.5" font-family="Helvetica,sans-Serif" font-size="10.00">JSystem/JStudio/JStudio</text>
<text text-anchor="middle" x="63.5" y="-133.5" font-family="Helvetica,sans-Serif" font-size="10.00">/object&#45;id.h</text>
</a>
</g>
</g>
<!-- Node1&#45;&gt;Node2 -->
<g id="edge1" class="edge">
<title>Node1&#45;&gt;Node2</title>
<path fill="none" stroke="#63b8ff" d="M136.44,-197.6C123.49,-187.81 106.13,-174.71 91.6,-163.73"/>
<polygon fill="#63b8ff" stroke="#63b8ff" points="93.83,-161.03 83.75,-157.79 89.62,-166.61 93.83,-161.03"/>
</g>
<!-- Node3 -->
<g id="node3" class="node">
<title>Node3</title>
<g id="a_node3"><a xlink:href="types_8h.html" target="_top" xlink:title=" ">
<polygon fill="white" stroke="#666666" points="150,-85 69,-85 69,-66 150,-66 150,-85"/>
<text text-anchor="middle" x="109.5" y="-73" font-family="Helvetica,sans-Serif" font-size="10.00">dolphin/types.h</text>
</a>
</g>
</g>
<!-- Node1&#45;&gt;Node3 -->
<g id="edge4" class="edge">
<title>Node1&#45;&gt;Node3</title>
<path fill="none" stroke="#63b8ff" d="M154.03,-197.7C151.82,-179.4 146.74,-146.97 136.5,-121 132.9,-111.87 127.49,-102.47 122.46,-94.68"/>
<polygon fill="#63b8ff" stroke="#63b8ff" points="125.4,-92.79 116.89,-86.48 119.61,-96.72 125.4,-92.79"/>
</g>
<!-- Node5 -->
<g id="node5" class="node">
<title>Node5</title>
<g id="a_node5"><a xlink:title=" ">
<polygon fill="#e0e0e0" stroke="#999999" points="297.5,-162 183.5,-162 183.5,-121 297.5,-121 297.5,-162"/>
<text text-anchor="start" x="191.5" y="-150" font-family="Helvetica,sans-Serif" font-size="10.00">asm/JSystem/JStudio</text>
<text text-anchor="start" x="191.5" y="-139" font-family="Helvetica,sans-Serif" font-size="10.00">/JStudio/object&#45;id/func</text>
<text text-anchor="middle" x="240.5" y="-128" font-family="Helvetica,sans-Serif" font-size="10.00">_80288988.s</text>
</a>
</g>
</g>
<!-- Node1&#45;&gt;Node5 -->
<g id="edge5" class="edge">
<title>Node1&#45;&gt;Node5</title>
<path fill="none" stroke="#63b8ff" d="M173.11,-197.6C183.03,-189.49 195.74,-179.09 207.45,-169.52"/>
<polygon fill="#63b8ff" stroke="#63b8ff" points="209.44,-172.41 214.97,-163.37 205.01,-166.99 209.44,-172.41"/>
</g>
<!-- Node2&#45;&gt;Node3 -->
<g id="edge2" class="edge">
<title>Node2&#45;&gt;Node3</title>
<path fill="none" stroke="#63b8ff" d="M73.71,-126.3C80.46,-116.91 89.36,-104.52 96.6,-94.45"/>
<polygon fill="#63b8ff" stroke="#63b8ff" points="99.27,-96.74 102.26,-86.57 93.58,-92.65 99.27,-96.74"/>
</g>
<!-- Node4 -->
<g id="node4" class="node">
<title>Node4</title>
<g id="a_node4"><a xlink:href="stddef_8h.html" target="_top" xlink:title=" ">
<polygon fill="white" stroke="#666666" points="177.5,-30 41.5,-30 41.5,0 177.5,0 177.5,-30"/>
<text text-anchor="start" x="49.5" y="-18" font-family="Helvetica,sans-Serif" font-size="10.00">MSL_C/MSL_Common/Src</text>
<text text-anchor="middle" x="109.5" y="-7" font-family="Helvetica,sans-Serif" font-size="10.00">/stddef.h</text>
</a>
</g>
</g>
<!-- Node3&#45;&gt;Node4 -->
<g id="edge3" class="edge">
<title>Node3&#45;&gt;Node4</title>
<path fill="none" stroke="#63b8ff" d="M109.5,-65.87C109.5,-59.4 109.5,-50.2 109.5,-41.45"/>
<polygon fill="#63b8ff" stroke="#63b8ff" points="113,-41.63 109.5,-31.63 106,-41.63 113,-41.63"/>
</g>
</g>
</svg>
