<?xml version="1.0" encoding="UTF-8" standalone="no"?>
<!DOCTYPE svg PUBLIC "-//W3C//DTD SVG 1.1//EN"
 "http://www.w3.org/Graphics/SVG/1.1/DTD/svg11.dtd">
<!-- Generated by graphviz version 7.0.5 (20221223.1930)
 -->
<!-- Title: include/dolphin/os/OSAlarm.h Pages: 1 -->
<svg width="240pt" height="214pt"
 viewBox="0.00 0.00 239.50 214.00" xmlns="http://www.w3.org/2000/svg" xmlns:xlink="http://www.w3.org/1999/xlink">
<g id="graph0" class="graph" transform="scale(1 1) rotate(0) translate(4 210)">
<title>include/dolphin/os/OSAlarm.h</title>
<!-- Node1 -->
<g id="node1" class="node">
<title>Node1</title>
<g id="a_node1"><a xlink:title=" ">
<polygon fill="#999999" stroke="#666666" points="162.5,-206 67.5,-206 67.5,-176 162.5,-176 162.5,-206"/>
<text text-anchor="start" x="75.5" y="-194" font-family="Helvetica,sans-Serif" font-size="10.00">include/dolphin/os</text>
<text text-anchor="middle" x="115" y="-183" font-family="Helvetica,sans-Serif" font-size="10.00">/OSAlarm.h</text>
</a>
</g>
</g>
<!-- Node2 -->
<g id="node2" class="node">
<title>Node2</title>
<g id="a_node2"><a xlink:href="OSError_8h.html" target="_top" xlink:title=" ">
<polygon fill="white" stroke="#666666" points="106,-140 0,-140 0,-121 106,-121 106,-140"/>
<text text-anchor="middle" x="53" y="-128" font-family="Helvetica,sans-Serif" font-size="10.00">dolphin/os/OSError.h</text>
</a>
</g>
</g>
<!-- Node1&#45;&gt;Node2 -->
<g id="edge1" class="edge">
<title>Node1&#45;&gt;Node2</title>
<path fill="none" stroke="#63b8ff" d="M99.67,-175.54C90.85,-167.22 79.73,-156.72 70.56,-148.07"/>
<polygon fill="#63b8ff" stroke="#63b8ff" points="72.97,-145.53 63.3,-141.21 68.17,-150.62 72.97,-145.53"/>
</g>
<!-- Node5 -->
<g id="node5" class="node">
<title>Node5</title>
<g id="a_node5"><a xlink:href="OSTime_8h.html" target="_top" xlink:title=" ">
<polygon fill="white" stroke="#666666" points="231.5,-140 124.5,-140 124.5,-121 231.5,-121 231.5,-140"/>
<text text-anchor="middle" x="178" y="-128" font-family="Helvetica,sans-Serif" font-size="10.00">dolphin/os/OSTime.h</text>
</a>
</g>
</g>
<!-- Node1&#45;&gt;Node5 -->
<g id="edge4" class="edge">
<title>Node1&#45;&gt;Node5</title>
<path fill="none" stroke="#63b8ff" d="M130.57,-175.54C139.63,-167.13 151.07,-156.51 160.45,-147.8"/>
<polygon fill="#63b8ff" stroke="#63b8ff" points="162.6,-150.57 167.55,-141.21 157.84,-145.44 162.6,-150.57"/>
</g>
<!-- Node3 -->
<g id="node3" class="node">
<title>Node3</title>
<g id="a_node3"><a xlink:href="types_8h.html" target="_top" xlink:title=" ">
<polygon fill="white" stroke="#666666" points="155.5,-85 74.5,-85 74.5,-66 155.5,-66 155.5,-85"/>
<text text-anchor="middle" x="115" y="-73" font-family="Helvetica,sans-Serif" font-size="10.00">dolphin/types.h</text>
</a>
</g>
</g>
<!-- Node2&#45;&gt;Node3 -->
<g id="edge2" class="edge">
<title>Node2&#45;&gt;Node3</title>
<path fill="none" stroke="#63b8ff" d="M63.52,-120.51C72.39,-112.93 85.31,-101.88 95.99,-92.75"/>
<polygon fill="#63b8ff" stroke="#63b8ff" points="98.16,-95.5 103.49,-86.34 93.61,-90.18 98.16,-95.5"/>
</g>
<!-- Node4 -->
<g id="node4" class="node">
<title>Node4</title>
<g id="a_node4"><a xlink:href="stddef_8h.html" target="_top" xlink:title=" ">
<polygon fill="white" stroke="#666666" points="183,-30 47,-30 47,0 183,0 183,-30"/>
<text text-anchor="start" x="55" y="-18" font-family="Helvetica,sans-Serif" font-size="10.00">MSL_C/MSL_Common/Src</text>
<text text-anchor="middle" x="115" y="-7" font-family="Helvetica,sans-Serif" font-size="10.00">/stddef.h</text>
</a>
</g>
</g>
<!-- Node3&#45;&gt;Node4 -->
<g id="edge3" class="edge">
<title>Node3&#45;&gt;Node4</title>
<path fill="none" stroke="#63b8ff" d="M115,-65.87C115,-59.4 115,-50.2 115,-41.45"/>
<polygon fill="#63b8ff" stroke="#63b8ff" points="118.5,-41.63 115,-31.63 111.5,-41.63 118.5,-41.63"/>
</g>
<!-- Node5&#45;&gt;Node3 -->
<g id="edge5" class="edge">
<title>Node5&#45;&gt;Node3</title>
<path fill="none" stroke="#63b8ff" d="M167.31,-120.51C158.3,-112.93 145.17,-101.88 134.32,-92.75"/>
<polygon fill="#63b8ff" stroke="#63b8ff" points="136.59,-90.09 126.69,-86.33 132.09,-95.45 136.59,-90.09"/>
</g>
</g>
</svg>
