<?xml version="1.0" encoding="UTF-8" standalone="no"?>
<!DOCTYPE svg PUBLIC "-//W3C//DTD SVG 1.1//EN"
 "http://www.w3.org/Graphics/SVG/1.1/DTD/svg11.dtd">
<!-- Generated by graphviz version 7.0.5 (20221223.1930)
 -->
<!-- Title: include/dolphin/os/OSAlloc.h Pages: 1 -->
<!--zoomable 236 -->
<svg id="main" version="1.1" xmlns="http://www.w3.org/2000/svg" xmlns:xlink="http://www.w3.org/1999/xlink" xml:space="preserve" onload="init(evt)">
<style type="text/css"><![CDATA[
.edge:hover path { stroke: red; }
.edge:hover polygon { stroke: red; fill: red; }
]]></style>
<script type="text/javascript"><![CDATA[
var edges = document.getElementsByTagName('g');
if (edges && edges.length) {
  for (var i=0;i<edges.length;i++) {
    if (edges[i].id.substr(0,4)=='edge') {
      edges[i].setAttribute('class','edge');
    }
  }
}
]]></script>
        <defs>
                <circle id="rim" cx="0" cy="0" r="7"/>
                <circle id="rim2" cx="0" cy="0" r="3.5"/>
                <g id="zoomPlus">
                        <use xlink:href="#rim" fill="#404040">
                                <set attributeName="fill" to="#808080" begin="zoomplus.mouseover" end="zoomplus.mouseout"/>
                        </use>
                        <path d="M-4,0h8M0,-4v8" fill="none" stroke="white" stroke-width="1.5" pointer-events="none"/>
                </g>
                <g id="zoomMin">
                        <use xlink:href="#rim" fill="#404040">
                                <set attributeName="fill" to="#808080" begin="zoomminus.mouseover" end="zoomminus.mouseout"/>
                        </use>
                        <path d="M-4,0h8" fill="none" stroke="white" stroke-width="1.5" pointer-events="none"/>
                </g>
                <g id="dirArrow">
                        <path fill="none" stroke="white" stroke-width="1.5" d="M0,-3.0v7 M-2.5,-0.5L0,-3.0L2.5,-0.5"/>
                </g>
               <g id="resetDef">
                       <use xlink:href="#rim2" fill="#404040">
                               <set attributeName="fill" to="#808080" begin="reset.mouseover" end="reset.mouseout"/>
                       </use>
               </g>
        </defs>

<script type="text/javascript">
var viewWidth = 6172;
var viewHeight = 236;
var sectionId = 'dynsection-1';
</script>
<script xlink:href="svgpan.js"/>
<svg id="graph" class="graph">
<g id="viewport">
<title>include/dolphin/os/OSAlloc.h</title>
<!-- Node1 -->
<g id="node1" class="node">
<title>Node1</title>
<g id="a_node1"><a xlink:title=" ">
<polygon fill="#999999" stroke="#666666" points="4772.05,-228 4677.05,-228 4677.05,-198 4772.05,-198 4772.05,-228"/>
<text text-anchor="start" x="4685.05" y="-216" font-family="Helvetica,sans-Serif" font-size="10.00">include/dolphin/os</text>
<text text-anchor="middle" x="4724.55" y="-205" font-family="Helvetica,sans-Serif" font-size="10.00">/OSAlloc.h</text>
</a>
</g>
</g>
<!-- Node2 -->
<g id="node2" class="node">
<title>Node2</title>
<g id="a_node2"><a xlink:href="OS_8h.html" target="_top" xlink:title=" ">
<polygon fill="#fff0f0" stroke="red" points="3226.05,-162 3107.05,-162 3107.05,-143 3226.05,-143 3226.05,-162"/>
<text text-anchor="middle" x="3166.55" y="-150" font-family="Helvetica,sans-Serif" font-size="10.00">include/dolphin/os/OS.h</text>
</a>
</g>
</g>
<!-- Node1&#45;&gt;Node2 -->
<g id="edge1" class="edge">
<title>Node1&#45;&gt;Node2</title>
<path fill="none" stroke="#63b8ff" d="M4665.44,-209.78C4418.99,-200.53 3474.55,-165.06 3226.51,-155.75"/>
<polygon fill="#63b8ff" stroke="#63b8ff" points="4665.01,-213.27 4675.13,-210.14 4665.27,-206.27 4665.01,-213.27"/>
</g>
<!-- Node572 -->
<g id="node44" class="node">
<title>Node572</title>
<g id="a_node44"><a xlink:href="GXFifo_8c.html" target="_top" xlink:title=" ">
<polygon fill="white" stroke="#666666" points="6164.05,-96 6045.05,-96 6045.05,-77 6164.05,-77 6164.05,-96"/>
<text text-anchor="middle" x="6104.55" y="-84" font-family="Helvetica,sans-Serif" font-size="10.00">libs/dolphin/gx/GXFifo.c</text>
</a>
</g>
</g>
<!-- Node1&#45;&gt;Node572 -->
<g id="edge52" class="edge">
<title>Node1&#45;&gt;Node572</title>
<path fill="none" stroke="#63b8ff" d="M4705.11,-188.7C4695.2,-173.94 4687.52,-155.36 4699.55,-143 4751.14,-89.99 5957.33,-117.49 6030.55,-107 6046.07,-104.78 6063,-100.46 6076.75,-96.45"/>
<polygon fill="#63b8ff" stroke="#63b8ff" points="4702.12,-190.55 4710.86,-196.53 4707.76,-186.4 4702.12,-190.55"/>
</g>
<!-- Node593 -->
<g id="node49" class="node">
<title>Node593</title>
<g id="a_node49"><a xlink:href="OSAlloc_8c.html" target="_top" xlink:title=" ">
<polygon fill="white" stroke="#666666" points="4833.05,-162 4708.05,-162 4708.05,-143 4833.05,-143 4833.05,-162"/>
<text text-anchor="middle" x="4770.55" y="-150" font-family="Helvetica,sans-Serif" font-size="10.00">libs/dolphin/os/OSAlloc.c</text>
</a>
</g>
</g>
<!-- Node1&#45;&gt;Node593 -->
<g id="edge53" class="edge">
<title>Node1&#45;&gt;Node593</title>
<path fill="none" stroke="#63b8ff" d="M4742.92,-188.64C4750.25,-179.32 4758.24,-169.16 4763.73,-162.18"/>
<polygon fill="#63b8ff" stroke="#63b8ff" points="4740.29,-186.33 4736.86,-196.35 4745.79,-190.65 4740.29,-186.33"/>
</g>
<!-- Node594 -->
<g id="node50" class="node">
<title>Node594</title>
<g id="a_node50"><a xlink:href="OSArena_8c.html" target="_top" xlink:title=" ">
<polygon fill="white" stroke="#666666" points="4980.05,-162 4851.05,-162 4851.05,-143 4980.05,-143 4980.05,-162"/>
<text text-anchor="middle" x="4915.55" y="-150" font-family="Helvetica,sans-Serif" font-size="10.00">libs/dolphin/os/OSArena.c</text>
</a>
</g>
</g>
<!-- Node1&#45;&gt;Node594 -->
<g id="edge54" class="edge">
<title>Node1&#45;&gt;Node594</title>
<path fill="none" stroke="#63b8ff" d="M4782.61,-194.22C4816.92,-183.71 4858.9,-170.85 4886.39,-162.43"/>
<polygon fill="#63b8ff" stroke="#63b8ff" points="4781.75,-190.82 4773.21,-197.1 4783.8,-197.51 4781.75,-190.82"/>
</g>
<!-- Node3 -->
<g id="node3" class="node">
<title>Node3</title>
<g id="a_node3"><a xlink:href="JUTAssert_8h.html" target="_top" xlink:title=" ">
<polygon fill="#fff0f0" stroke="red" points="5950.55,-101.5 5828.55,-101.5 5828.55,-71.5 5950.55,-71.5 5950.55,-101.5"/>
<text text-anchor="start" x="5836.55" y="-89.5" font-family="Helvetica,sans-Serif" font-size="10.00">include/JSystem/JUtility</text>
<text text-anchor="middle" x="5889.55" y="-78.5" font-family="Helvetica,sans-Serif" font-size="10.00">/JUTAssert.h</text>
</a>
</g>
</g>
<!-- Node2&#45;&gt;Node3 -->
<g id="edge2" class="edge">
<title>Node2&#45;&gt;Node3</title>
<path fill="none" stroke="#63b8ff" d="M3237.61,-151.39C3633.45,-150.63 5558.01,-144.99 5819.55,-107 5827.54,-105.84 5835.91,-104.04 5843.97,-101.99"/>
<polygon fill="#63b8ff" stroke="#63b8ff" points="3237.85,-147.89 3227.86,-151.41 3237.87,-154.89 3237.85,-147.89"/>
</g>
<!-- Node522 -->
<g id="node4" class="node">
<title>Node522</title>
<g id="a_node4"><a xlink:href="JFWDisplay_8cpp.html" target="_top" xlink:title=" ">
<polygon fill="white" stroke="#666666" points="4404.55,-30 4274.55,-30 4274.55,0 4404.55,0 4404.55,-30"/>
<text text-anchor="start" x="4282.55" y="-18" font-family="Helvetica,sans-Serif" font-size="10.00">libs/JSystem/JFramework</text>
<text text-anchor="middle" x="4339.55" y="-7" font-family="Helvetica,sans-Serif" font-size="10.00">/JFWDisplay.cpp</text>
</a>
</g>
</g>
<!-- Node2&#45;&gt;Node522 -->
<g id="edge23" class="edge">
<title>Node2&#45;&gt;Node522</title>
<path fill="none" stroke="#63b8ff" d="M3095.58,-151.17C2631.72,-148.95 50.45,-135.3 22.55,-107 9.76,-94.02 9.74,-78.96 22.55,-66 61.62,-26.48 3736.06,-17.27 4274.1,-16.13"/>
<polygon fill="#63b8ff" stroke="#63b8ff" points="3095.25,-154.67 3105.26,-151.22 3095.28,-147.67 3095.25,-154.67"/>
</g>
<!-- Node526 -->
<g id="node5" class="node">
<title>Node526</title>
<g id="a_node5"><a xlink:href="JKRDvdArchive_8cpp.html" target="_top" xlink:title=" ">
<polygon fill="white" stroke="#666666" points="5944.05,-30 5835.05,-30 5835.05,0 5944.05,0 5944.05,-30"/>
<text text-anchor="start" x="5843.05" y="-18" font-family="Helvetica,sans-Serif" font-size="10.00">libs/JSystem/JKernel</text>
<text text-anchor="middle" x="5889.55" y="-7" font-family="Helvetica,sans-Serif" font-size="10.00">/JKRDvdArchive.cpp</text>
</a>
</g>
</g>
<!-- Node2&#45;&gt;Node526 -->
<g id="edge25" class="edge">
<title>Node2&#45;&gt;Node526</title>
<path fill="none" stroke="#63b8ff" d="M3237.64,-151.04C3670.57,-148.18 5934.94,-132.01 5959.55,-107 5972.33,-94.01 5967.89,-82.2 5959.55,-66 5951.55,-50.46 5936.25,-38.68 5921.98,-30.47"/>
<polygon fill="#63b8ff" stroke="#63b8ff" points="3237.75,-147.54 3227.77,-151.11 3237.8,-154.54 3237.75,-147.54"/>
</g>
<!-- Node529 -->
<g id="node6" class="node">
<title>Node529</title>
<g id="a_node6"><a xlink:href="JKRHeap_8cpp.html" target="_top" xlink:title=" ">
<polygon fill="white" stroke="#666666" points="6071.05,-30 5962.05,-30 5962.05,0 6071.05,0 6071.05,-30"/>
<text text-anchor="start" x="5970.05" y="-18" font-family="Helvetica,sans-Serif" font-size="10.00">libs/JSystem/JKernel</text>
<text text-anchor="middle" x="6016.55" y="-7" font-family="Helvetica,sans-Serif" font-size="10.00">/JKRHeap.cpp</text>
</a>
</g>
</g>
<!-- Node2&#45;&gt;Node529 -->
<g id="edge26" class="edge">
<title>Node2&#45;&gt;Node529</title>
<path fill="none" stroke="#63b8ff" d="M3237.97,-150.9C3672.95,-147.16 5948.22,-126.67 5977.55,-107 6003.39,-89.67 6012.18,-51.35 6015.12,-30.39"/>
<polygon fill="#63b8ff" stroke="#63b8ff" points="3238.02,-147.4 3228.05,-150.98 3238.08,-154.4 3238.02,-147.4"/>
</g>
<!-- Node536 -->
<g id="node7" class="node">
<title>Node536</title>
<g id="a_node7"><a xlink:href="JUTConsole_8cpp.html" target="_top" xlink:title=" ">
<polygon fill="white" stroke="#666666" points="1431.55,-30 1325.55,-30 1325.55,0 1431.55,0 1431.55,-30"/>
<text text-anchor="start" x="1333.55" y="-18" font-family="Helvetica,sans-Serif" font-size="10.00">libs/JSystem/JUtility</text>
<text text-anchor="middle" x="1378.55" y="-7" font-family="Helvetica,sans-Serif" font-size="10.00">/JUTConsole.cpp</text>
</a>
</g>
</g>
<!-- Node2&#45;&gt;Node536 -->
<g id="edge29" class="edge">
<title>Node2&#45;&gt;Node536</title>
<path fill="none" stroke="#63b8ff" d="M3095.65,-151.18C2630.89,-148.98 37.58,-135.43 9.55,-107 -3.24,-94.02 -3.1,-79.12 9.55,-66 55.98,-17.85 1078.31,-15.71 1325.23,-15.9"/>
<polygon fill="#63b8ff" stroke="#63b8ff" points="3095.34,-154.68 3105.36,-151.22 3095.38,-147.68 3095.34,-154.68"/>
</g>
<!-- Node539 -->
<g id="node8" class="node">
<title>Node539</title>
<g id="a_node8"><a xlink:href="dolphin__trk__glue_8h.html" target="_top" xlink:title=" ">
<polygon fill="#fff0f0" stroke="red" points="149.55,-107 31.55,-107 31.55,-66 149.55,-66 149.55,-107"/>
<text text-anchor="start" x="39.55" y="-95" font-family="Helvetica,sans-Serif" font-size="10.00">include/TRK_MINNOW</text>
<text text-anchor="start" x="39.55" y="-84" font-family="Helvetica,sans-Serif" font-size="10.00">_DOLPHIN/Os/dolphin</text>
<text text-anchor="middle" x="90.55" y="-73" font-family="Helvetica,sans-Serif" font-size="10.00">/dolphin_trk_glue.h</text>
</a>
</g>
</g>
<!-- Node2&#45;&gt;Node539 -->
<g id="edge7" class="edge">
<title>Node2&#45;&gt;Node539</title>
<path fill="none" stroke="#63b8ff" d="M3095.42,-151.57C2668.75,-151.86 457.1,-151.21 158.55,-107 155.63,-106.57 152.67,-106.05 149.68,-105.45"/>
<polygon fill="#63b8ff" stroke="#63b8ff" points="3095.13,-155.07 3105.13,-151.57 3095.13,-148.07 3095.13,-155.07"/>
</g>
<!-- Node541 -->
<g id="node9" class="node">
<title>Node541</title>
<g id="a_node9"><a xlink:href="J2DAnimation_8cpp.html" target="_top" xlink:title=" ">
<polygon fill="white" stroke="#666666" points="287.05,-101.5 168.05,-101.5 168.05,-71.5 287.05,-71.5 287.05,-101.5"/>
<text text-anchor="start" x="176.05" y="-89.5" font-family="Helvetica,sans-Serif" font-size="10.00">libs/JSystem/J2DGraph</text>
<text text-anchor="middle" x="227.55" y="-78.5" font-family="Helvetica,sans-Serif" font-size="10.00">/J2DAnimation.cpp</text>
</a>
</g>
</g>
<!-- Node2&#45;&gt;Node541 -->
<g id="edge8" class="edge">
<title>Node2&#45;&gt;Node541</title>
<path fill="none" stroke="#63b8ff" d="M3095.41,-151.5C2680.4,-151.37 580.71,-148.63 296.55,-107 288.54,-105.83 280.16,-103.99 272.09,-101.91"/>
<polygon fill="#63b8ff" stroke="#63b8ff" points="3095.11,-155 3105.11,-151.51 3095.11,-148 3095.11,-155"/>
</g>
<!-- Node542 -->
<g id="node10" class="node">
<title>Node542</title>
<g id="a_node10"><a xlink:href="J3DModel_8cpp.html" target="_top" xlink:title=" ">
<polygon fill="white" stroke="#666666" points="463.55,-101.5 305.55,-101.5 305.55,-71.5 463.55,-71.5 463.55,-101.5"/>
<text text-anchor="start" x="313.55" y="-89.5" font-family="Helvetica,sans-Serif" font-size="10.00">libs/JSystem/J3DGraphAnimator</text>
<text text-anchor="middle" x="384.55" y="-78.5" font-family="Helvetica,sans-Serif" font-size="10.00">/J3DModel.cpp</text>
</a>
</g>
</g>
<!-- Node2&#45;&gt;Node542 -->
<g id="edge9" class="edge">
<title>Node2&#45;&gt;Node542</title>
<path fill="none" stroke="#63b8ff" d="M3095.39,-151.18C2695.79,-149.28 739.29,-138.43 472.55,-107 462.6,-105.83 452.13,-104.02 442.02,-101.98"/>
<polygon fill="#63b8ff" stroke="#63b8ff" points="3095.23,-154.68 3105.25,-151.23 3095.26,-147.68 3095.23,-154.68"/>
</g>
<!-- Node543 -->
<g id="node11" class="node">
<title>Node543</title>
<g id="a_node11"><a xlink:href="J3DModelData_8cpp.html" target="_top" xlink:title=" ">
<polygon fill="white" stroke="#666666" points="639.55,-101.5 481.55,-101.5 481.55,-71.5 639.55,-71.5 639.55,-101.5"/>
<text text-anchor="start" x="489.55" y="-89.5" font-family="Helvetica,sans-Serif" font-size="10.00">libs/JSystem/J3DGraphAnimator</text>
<text text-anchor="middle" x="560.55" y="-78.5" font-family="Helvetica,sans-Serif" font-size="10.00">/J3DModelData.cpp</text>
</a>
</g>
</g>
<!-- Node2&#45;&gt;Node543 -->
<g id="edge10" class="edge">
<title>Node2&#45;&gt;Node543</title>
<path fill="none" stroke="#63b8ff" d="M3095.19,-151.09C2710.98,-148.78 896.79,-136.4 648.55,-107 638.6,-105.82 628.13,-104.01 618.02,-101.97"/>
<polygon fill="#63b8ff" stroke="#63b8ff" points="3095.13,-154.59 3105.15,-151.15 3095.17,-147.59 3095.13,-154.59"/>
</g>
<!-- Node544 -->
<g id="node12" class="node">
<title>Node544</title>
<g id="a_node12"><a xlink:href="J3DSkinDeform_8cpp.html" target="_top" xlink:title=" ">
<polygon fill="white" stroke="#666666" points="815.55,-101.5 657.55,-101.5 657.55,-71.5 815.55,-71.5 815.55,-101.5"/>
<text text-anchor="start" x="665.55" y="-89.5" font-family="Helvetica,sans-Serif" font-size="10.00">libs/JSystem/J3DGraphAnimator</text>
<text text-anchor="middle" x="736.55" y="-78.5" font-family="Helvetica,sans-Serif" font-size="10.00">/J3DSkinDeform.cpp</text>
</a>
</g>
</g>
<!-- Node2&#45;&gt;Node544 -->
<g id="edge11" class="edge">
<title>Node2&#45;&gt;Node544</title>
<path fill="none" stroke="#63b8ff" d="M3095.49,-150.99C2728.33,-148.26 1054.43,-134.38 824.55,-107 814.61,-105.82 804.13,-104 794.02,-101.95"/>
<polygon fill="#63b8ff" stroke="#63b8ff" points="3095.19,-154.49 3105.22,-151.06 3095.24,-147.49 3095.19,-154.49"/>
</g>
<!-- Node545 -->
<g id="node13" class="node">
<title>Node545</title>
<g id="a_node13"><a xlink:href="J3DMatBlock_8cpp.html" target="_top" xlink:title=" ">
<polygon fill="white" stroke="#666666" points="975.55,-101.5 833.55,-101.5 833.55,-71.5 975.55,-71.5 975.55,-101.5"/>
<text text-anchor="start" x="841.55" y="-89.5" font-family="Helvetica,sans-Serif" font-size="10.00">libs/JSystem/J3DGraphBase</text>
<text text-anchor="middle" x="904.55" y="-78.5" font-family="Helvetica,sans-Serif" font-size="10.00">/J3DMatBlock.cpp</text>
</a>
</g>
</g>
<!-- Node2&#45;&gt;Node545 -->
<g id="edge12" class="edge">
<title>Node2&#45;&gt;Node545</title>
<path fill="none" stroke="#63b8ff" d="M3095.28,-150.97C2743.14,-148.25 1197.4,-134.77 984.55,-107 975.48,-105.82 965.94,-104.01 956.74,-101.96"/>
<polygon fill="#63b8ff" stroke="#63b8ff" points="3095.03,-154.47 3105.06,-151.05 3095.09,-147.47 3095.03,-154.47"/>
</g>
<!-- Node546 -->
<g id="node14" class="node">
<title>Node546</title>
<g id="a_node14"><a xlink:href="J3DShape_8cpp.html" target="_top" xlink:title=" ">
<polygon fill="white" stroke="#666666" points="1135.55,-101.5 993.55,-101.5 993.55,-71.5 1135.55,-71.5 1135.55,-101.5"/>
<text text-anchor="start" x="1001.55" y="-89.5" font-family="Helvetica,sans-Serif" font-size="10.00">libs/JSystem/J3DGraphBase</text>
<text text-anchor="middle" x="1064.55" y="-78.5" font-family="Helvetica,sans-Serif" font-size="10.00">/J3DShape.cpp</text>
</a>
</g>
</g>
<!-- Node2&#45;&gt;Node546 -->
<g id="edge13" class="edge">
<title>Node2&#45;&gt;Node546</title>
<path fill="none" stroke="#63b8ff" d="M3095.15,-150.85C2758.83,-147.65 1340.72,-132.76 1144.55,-107 1135.48,-105.81 1125.94,-103.99 1116.74,-101.94"/>
<polygon fill="#63b8ff" stroke="#63b8ff" points="3095.11,-154.35 3105.14,-150.94 3095.17,-147.35 3095.11,-154.35"/>
</g>
<!-- Node547 -->
<g id="node15" class="node">
<title>Node547</title>
<g id="a_node15"><a xlink:href="J3DSys_8cpp.html" target="_top" xlink:title=" ">
<polygon fill="white" stroke="#666666" points="1295.55,-101.5 1153.55,-101.5 1153.55,-71.5 1295.55,-71.5 1295.55,-101.5"/>
<text text-anchor="start" x="1161.55" y="-89.5" font-family="Helvetica,sans-Serif" font-size="10.00">libs/JSystem/J3DGraphBase</text>
<text text-anchor="middle" x="1224.55" y="-78.5" font-family="Helvetica,sans-Serif" font-size="10.00">/J3DSys.cpp</text>
</a>
</g>
</g>
<!-- Node2&#45;&gt;Node547 -->
<g id="edge14" class="edge">
<title>Node2&#45;&gt;Node547</title>
<path fill="none" stroke="#63b8ff" d="M3095.21,-151.85C2798.4,-152.97 1660.23,-154.04 1304.55,-107 1295.48,-105.8 1285.94,-103.98 1276.74,-101.93"/>
<polygon fill="#63b8ff" stroke="#63b8ff" points="3095.15,-155.35 3105.14,-151.81 3095.13,-148.35 3095.15,-155.35"/>
</g>
<!-- Node548 -->
<g id="node16" class="node">
<title>Node548</title>
<g id="a_node16"><a xlink:href="J3DClusterLoader_8cpp.html" target="_top" xlink:title=" ">
<polygon fill="white" stroke="#666666" points="1463.05,-101.5 1314.05,-101.5 1314.05,-71.5 1463.05,-71.5 1463.05,-101.5"/>
<text text-anchor="start" x="1322.05" y="-89.5" font-family="Helvetica,sans-Serif" font-size="10.00">libs/JSystem/J3DGraphLoader</text>
<text text-anchor="middle" x="1388.55" y="-78.5" font-family="Helvetica,sans-Serif" font-size="10.00">/J3DClusterLoader.cpp</text>
</a>
</g>
</g>
<!-- Node2&#45;&gt;Node548 -->
<g id="edge15" class="edge">
<title>Node2&#45;&gt;Node548</title>
<path fill="none" stroke="#63b8ff" d="M3095.7,-151.57C2816.65,-151.54 1793.16,-148.56 1471.55,-107 1462.15,-105.79 1452.27,-103.96 1442.73,-101.9"/>
<polygon fill="#63b8ff" stroke="#63b8ff" points="3095.35,-155.07 3105.35,-151.57 3095.35,-148.07 3095.35,-155.07"/>
</g>
<!-- Node549 -->
<g id="node17" class="node">
<title>Node549</title>
<g id="a_node17"><a xlink:href="J3DModelLoader_8cpp.html" target="_top" xlink:title=" ">
<polygon fill="white" stroke="#666666" points="1630.05,-101.5 1481.05,-101.5 1481.05,-71.5 1630.05,-71.5 1630.05,-101.5"/>
<text text-anchor="start" x="1489.05" y="-89.5" font-family="Helvetica,sans-Serif" font-size="10.00">libs/JSystem/J3DGraphLoader</text>
<text text-anchor="middle" x="1555.55" y="-78.5" font-family="Helvetica,sans-Serif" font-size="10.00">/J3DModelLoader.cpp</text>
</a>
</g>
</g>
<!-- Node2&#45;&gt;Node549 -->
<g id="edge16" class="edge">
<title>Node2&#45;&gt;Node549</title>
<path fill="none" stroke="#63b8ff" d="M3095.42,-151.33C2833.87,-150.41 1925.72,-144.53 1638.55,-107 1629.3,-105.79 1619.58,-104 1610.18,-101.98"/>
<polygon fill="#63b8ff" stroke="#63b8ff" points="3095.13,-154.83 3105.14,-151.36 3095.15,-147.83 3095.13,-154.83"/>
</g>
<!-- Node550 -->
<g id="node18" class="node">
<title>Node550</title>
<g id="a_node18"><a xlink:href="J3DShapeFactory_8cpp.html" target="_top" xlink:title=" ">
<polygon fill="white" stroke="#666666" points="1797.05,-101.5 1648.05,-101.5 1648.05,-71.5 1797.05,-71.5 1797.05,-101.5"/>
<text text-anchor="start" x="1656.05" y="-89.5" font-family="Helvetica,sans-Serif" font-size="10.00">libs/JSystem/J3DGraphLoader</text>
<text text-anchor="middle" x="1722.55" y="-78.5" font-family="Helvetica,sans-Serif" font-size="10.00">/J3DShapeFactory.cpp</text>
</a>
</g>
</g>
<!-- Node2&#45;&gt;Node550 -->
<g id="edge17" class="edge">
<title>Node2&#45;&gt;Node550</title>
<path fill="none" stroke="#63b8ff" d="M3095.25,-151.03C2852.39,-149.15 2058.47,-140.51 1805.55,-107 1796.31,-105.78 1786.58,-103.97 1777.18,-101.95"/>
<polygon fill="#63b8ff" stroke="#63b8ff" points="3095.19,-154.53 3105.22,-151.11 3095.25,-147.53 3095.19,-154.53"/>
</g>
<!-- Node491 -->
<g id="node19" class="node">
<title>Node491</title>
<g id="a_node19"><a xlink:href="JASAudioThread_8cpp.html" target="_top" xlink:title=" ">
<polygon fill="white" stroke="#666666" points="1926.05,-101.5 1815.05,-101.5 1815.05,-71.5 1926.05,-71.5 1926.05,-101.5"/>
<text text-anchor="start" x="1823.05" y="-89.5" font-family="Helvetica,sans-Serif" font-size="10.00">libs/JSystem/JAudio2</text>
<text text-anchor="middle" x="1870.55" y="-78.5" font-family="Helvetica,sans-Serif" font-size="10.00">/JASAudioThread.cpp</text>
</a>
</g>
</g>
<!-- Node2&#45;&gt;Node491 -->
<g id="edge18" class="edge">
<title>Node2&#45;&gt;Node491</title>
<path fill="none" stroke="#63b8ff" d="M3095.49,-151.35C2868.13,-150.5 2160.19,-144.79 1934.55,-107 1927.33,-105.79 1919.79,-104 1912.52,-101.98"/>
<polygon fill="#63b8ff" stroke="#63b8ff" points="3095.39,-154.85 3105.4,-151.39 3095.41,-147.85 3095.39,-154.85"/>
</g>
<!-- Node551 -->
<g id="node20" class="node">
<title>Node551</title>
<g id="a_node20"><a xlink:href="JASProbe_8cpp.html" target="_top" xlink:title=" ">
<polygon fill="white" stroke="#666666" points="2055.05,-101.5 1944.05,-101.5 1944.05,-71.5 2055.05,-71.5 2055.05,-101.5"/>
<text text-anchor="start" x="1952.05" y="-89.5" font-family="Helvetica,sans-Serif" font-size="10.00">libs/JSystem/JAudio2</text>
<text text-anchor="middle" x="1999.55" y="-78.5" font-family="Helvetica,sans-Serif" font-size="10.00">/JASProbe.cpp</text>
</a>
</g>
</g>
<!-- Node2&#45;&gt;Node551 -->
<g id="edge19" class="edge">
<title>Node2&#45;&gt;Node551</title>
<path fill="none" stroke="#63b8ff" d="M3095.48,-151C2884.34,-149.14 2263.12,-140.85 2063.55,-107 2056.34,-105.78 2048.8,-103.97 2041.53,-101.95"/>
<polygon fill="#63b8ff" stroke="#63b8ff" points="3095.17,-154.5 3105.2,-151.08 3095.23,-147.5 3095.17,-154.5"/>
</g>
<!-- Node552 -->
<g id="node21" class="node">
<title>Node552</title>
<g id="a_node21"><a xlink:href="JASTaskThread_8cpp.html" target="_top" xlink:title=" ">
<polygon fill="white" stroke="#666666" points="2184.05,-101.5 2073.05,-101.5 2073.05,-71.5 2184.05,-71.5 2184.05,-101.5"/>
<text text-anchor="start" x="2081.05" y="-89.5" font-family="Helvetica,sans-Serif" font-size="10.00">libs/JSystem/JAudio2</text>
<text text-anchor="middle" x="2128.55" y="-78.5" font-family="Helvetica,sans-Serif" font-size="10.00">/JASTaskThread.cpp</text>
</a>
</g>
</g>
<!-- Node2&#45;&gt;Node552 -->
<g id="edge20" class="edge">
<title>Node2&#45;&gt;Node552</title>
<path fill="none" stroke="#63b8ff" d="M3095.31,-150.55C2901.23,-147.6 2366.14,-136.92 2192.55,-107 2185.34,-105.76 2177.8,-103.94 2170.53,-101.92"/>
<polygon fill="#63b8ff" stroke="#63b8ff" points="3095.2,-154.05 3105.25,-150.7 3095.31,-147.05 3095.2,-154.05"/>
</g>
<!-- Node553 -->
<g id="node22" class="node">
<title>Node553</title>
<g id="a_node22"><a xlink:href="dsptask_8cpp.html" target="_top" xlink:title=" ">
<polygon fill="white" stroke="#666666" points="2313.05,-101.5 2202.05,-101.5 2202.05,-71.5 2313.05,-71.5 2313.05,-101.5"/>
<text text-anchor="start" x="2210.05" y="-89.5" font-family="Helvetica,sans-Serif" font-size="10.00">libs/JSystem/JAudio2</text>
<text text-anchor="middle" x="2257.55" y="-78.5" font-family="Helvetica,sans-Serif" font-size="10.00">/dsptask.cpp</text>
</a>
</g>
</g>
<!-- Node2&#45;&gt;Node553 -->
<g id="edge21" class="edge">
<title>Node2&#45;&gt;Node553</title>
<path fill="none" stroke="#63b8ff" d="M3095.13,-149.97C2919.34,-145.84 2469.33,-133 2321.55,-107 2314.46,-105.75 2307.05,-103.96 2299.89,-101.97"/>
<polygon fill="#63b8ff" stroke="#63b8ff" points="3094.96,-153.47 3105.04,-150.2 3095.12,-146.47 3094.96,-153.47"/>
</g>
<!-- Node554 -->
<g id="node23" class="node">
<title>Node554</title>
<g id="a_node23"><a xlink:href="osdsp_8cpp.html" target="_top" xlink:title=" ">
<polygon fill="white" stroke="#666666" points="2442.05,-101.5 2331.05,-101.5 2331.05,-71.5 2442.05,-71.5 2442.05,-101.5"/>
<text text-anchor="start" x="2339.05" y="-89.5" font-family="Helvetica,sans-Serif" font-size="10.00">libs/JSystem/JAudio2</text>
<text text-anchor="middle" x="2386.55" y="-78.5" font-family="Helvetica,sans-Serif" font-size="10.00">/osdsp.cpp</text>
</a>
</g>
</g>
<!-- Node2&#45;&gt;Node554 -->
<g id="edge22" class="edge">
<title>Node2&#45;&gt;Node554</title>
<path fill="none" stroke="#63b8ff" d="M3095.48,-149.2C2939.82,-143.8 2572.88,-129.12 2450.55,-107 2443.46,-105.72 2436.06,-103.91 2428.9,-101.91"/>
<polygon fill="#63b8ff" stroke="#63b8ff" points="3095.14,-152.69 3105.25,-149.53 3095.38,-145.69 3095.14,-152.69"/>
</g>
<!-- Node555 -->
<g id="node24" class="node">
<title>Node555</title>
<g id="a_node24"><a xlink:href="JKRAramPiece_8cpp.html" target="_top" xlink:title=" ">
<polygon fill="white" stroke="#666666" points="2569.05,-101.5 2460.05,-101.5 2460.05,-71.5 2569.05,-71.5 2569.05,-101.5"/>
<text text-anchor="start" x="2468.05" y="-89.5" font-family="Helvetica,sans-Serif" font-size="10.00">libs/JSystem/JKernel</text>
<text text-anchor="middle" x="2514.55" y="-78.5" font-family="Helvetica,sans-Serif" font-size="10.00">/JKRAramPiece.cpp</text>
</a>
</g>
</g>
<!-- Node2&#45;&gt;Node555 -->
<g id="edge24" class="edge">
<title>Node2&#45;&gt;Node555</title>
<path fill="none" stroke="#63b8ff" d="M3095.34,-151.14C2984.08,-149.46 2762.7,-141.58 2578.55,-107 2571.59,-105.69 2564.31,-103.9 2557.26,-101.93"/>
<polygon fill="#63b8ff" stroke="#63b8ff" points="3095.17,-154.64 3105.22,-151.28 3095.27,-147.64 3095.17,-154.64"/>
</g>
<!-- Node556 -->
<g id="node25" class="node">
<title>Node556</title>
<g id="a_node25"><a xlink:href="JPAChildShape_8cpp.html" target="_top" xlink:title=" ">
<polygon fill="white" stroke="#666666" points="2701.55,-101.5 2587.55,-101.5 2587.55,-71.5 2701.55,-71.5 2701.55,-101.5"/>
<text text-anchor="start" x="2595.55" y="-89.5" font-family="Helvetica,sans-Serif" font-size="10.00">libs/JSystem/JParticle</text>
<text text-anchor="middle" x="2644.55" y="-78.5" font-family="Helvetica,sans-Serif" font-size="10.00">/JPAChildShape.cpp</text>
</a>
</g>
</g>
<!-- Node2&#45;&gt;Node556 -->
<g id="edge27" class="edge">
<title>Node2&#45;&gt;Node556</title>
<path fill="none" stroke="#63b8ff" d="M3095.18,-148.73C3004.9,-144.27 2845,-133.18 2710.55,-107 2703.63,-105.65 2696.39,-103.89 2689.36,-101.98"/>
<polygon fill="#63b8ff" stroke="#63b8ff" points="3094.97,-152.23 3105.13,-149.21 3095.3,-145.23 3094.97,-152.23"/>
</g>
<!-- Node557 -->
<g id="node26" class="node">
<title>Node557</title>
<g id="a_node26"><a xlink:href="JPAExtraShape_8cpp.html" target="_top" xlink:title=" ">
<polygon fill="white" stroke="#666666" points="2833.55,-101.5 2719.55,-101.5 2719.55,-71.5 2833.55,-71.5 2833.55,-101.5"/>
<text text-anchor="start" x="2727.55" y="-89.5" font-family="Helvetica,sans-Serif" font-size="10.00">libs/JSystem/JParticle</text>
<text text-anchor="middle" x="2776.55" y="-78.5" font-family="Helvetica,sans-Serif" font-size="10.00">/JPAExtraShape.cpp</text>
</a>
</g>
</g>
<!-- Node2&#45;&gt;Node557 -->
<g id="edge28" class="edge">
<title>Node2&#45;&gt;Node557</title>
<path fill="none" stroke="#63b8ff" d="M3095.57,-144.86C3029.56,-137.96 2928.74,-125.54 2842.55,-107 2835.89,-105.57 2828.93,-103.81 2822.12,-101.93"/>
<polygon fill="#63b8ff" stroke="#63b8ff" points="3094.85,-148.31 3105.16,-145.85 3095.57,-141.35 3094.85,-148.31"/>
</g>
<!-- Node558 -->
<g id="node27" class="node">
<title>Node558</title>
<g id="a_node27"><a xlink:href="JUTException_8cpp.html" target="_top" xlink:title=" ">
<polygon fill="white" stroke="#666666" points="2957.55,-101.5 2851.55,-101.5 2851.55,-71.5 2957.55,-71.5 2957.55,-101.5"/>
<text text-anchor="start" x="2859.55" y="-89.5" font-family="Helvetica,sans-Serif" font-size="10.00">libs/JSystem/JUtility</text>
<text text-anchor="middle" x="2904.55" y="-78.5" font-family="Helvetica,sans-Serif" font-size="10.00">/JUTException.cpp</text>
</a>
</g>
</g>
<!-- Node2&#45;&gt;Node558 -->
<g id="edge30" class="edge">
<title>Node2&#45;&gt;Node558</title>
<path fill="none" stroke="#63b8ff" d="M3109.81,-140.23C3069.6,-131.91 3014.5,-119.85 2966.55,-107 2960.77,-105.45 2954.73,-103.71 2948.78,-101.92"/>
<polygon fill="#63b8ff" stroke="#63b8ff" points="3109.02,-143.64 3119.52,-142.22 3110.43,-136.78 3109.02,-143.64"/>
</g>
<!-- Node559 -->
<g id="node28" class="node">
<title>Node559</title>
<g id="a_node28"><a xlink:href="JUTPalette_8cpp.html" target="_top" xlink:title=" ">
<polygon fill="white" stroke="#666666" points="3081.55,-101.5 2975.55,-101.5 2975.55,-71.5 3081.55,-71.5 3081.55,-101.5"/>
<text text-anchor="start" x="2983.55" y="-89.5" font-family="Helvetica,sans-Serif" font-size="10.00">libs/JSystem/JUtility</text>
<text text-anchor="middle" x="3028.55" y="-78.5" font-family="Helvetica,sans-Serif" font-size="10.00">/JUTPalette.cpp</text>
</a>
</g>
</g>
<!-- Node2&#45;&gt;Node559 -->
<g id="edge31" class="edge">
<title>Node2&#45;&gt;Node559</title>
<path fill="none" stroke="#63b8ff" d="M3136.96,-137.78C3114.23,-127.23 3082.9,-112.71 3059.77,-101.98"/>
<polygon fill="#63b8ff" stroke="#63b8ff" points="3135.44,-140.93 3145.99,-141.96 3138.39,-134.58 3135.44,-140.93"/>
</g>
<!-- Node560 -->
<g id="node29" class="node">
<title>Node560</title>
<g id="a_node29"><a xlink:href="uart__console__io__gcn_8c.html" target="_top" xlink:title=" ">
<polygon fill="white" stroke="#666666" points="3233.55,-101.5 3099.55,-101.5 3099.55,-71.5 3233.55,-71.5 3233.55,-101.5"/>
<text text-anchor="start" x="3107.55" y="-89.5" font-family="Helvetica,sans-Serif" font-size="10.00">libs/MSL_C/PPC_EABI</text>
<text text-anchor="middle" x="3166.55" y="-78.5" font-family="Helvetica,sans-Serif" font-size="10.00">/Src/uart_console_io_gcn.c</text>
</a>
</g>
</g>
<!-- Node2&#45;&gt;Node560 -->
<g id="edge32" class="edge">
<title>Node2&#45;&gt;Node560</title>
<path fill="none" stroke="#63b8ff" d="M3166.55,-131.28C3166.55,-121.67 3166.55,-110.42 3166.55,-101.73"/>
<polygon fill="#63b8ff" stroke="#63b8ff" points="3163.05,-131.09 3166.55,-141.09 3170.05,-131.09 3163.05,-131.09"/>
</g>
<!-- Node561 -->
<g id="node30" class="node">
<title>Node561</title>
<g id="a_node30"><a xlink:href="GCN__Mem__Alloc_8c.html" target="_top" xlink:title=" ">
<polygon fill="white" stroke="#666666" points="3377.05,-101.5 3252.05,-101.5 3252.05,-71.5 3377.05,-71.5 3377.05,-101.5"/>
<text text-anchor="start" x="3260.05" y="-89.5" font-family="Helvetica,sans-Serif" font-size="10.00">libs/Runtime.PPCEABI.H</text>
<text text-anchor="middle" x="3314.55" y="-78.5" font-family="Helvetica,sans-Serif" font-size="10.00">/GCN_Mem_Alloc.c</text>
</a>
</g>
</g>
<!-- Node2&#45;&gt;Node561 -->
<g id="edge33" class="edge">
<title>Node2&#45;&gt;Node561</title>
<path fill="none" stroke="#63b8ff" d="M3197.62,-138.07C3222.05,-127.5 3256.03,-112.8 3281.07,-101.98"/>
<polygon fill="#63b8ff" stroke="#63b8ff" points="3196.31,-134.82 3188.52,-142 3199.09,-141.24 3196.31,-134.82"/>
</g>
<!-- Node445 -->
<g id="node31" class="node">
<title>Node445</title>
<g id="a_node31"><a xlink:href="Z2AudioMgr_8cpp.html" target="_top" xlink:title=" ">
<polygon fill="white" stroke="#666666" points="3553.55,-96 3395.55,-96 3395.55,-77 3553.55,-77 3553.55,-96"/>
<text text-anchor="middle" x="3474.55" y="-84" font-family="Helvetica,sans-Serif" font-size="10.00">libs/Z2AudioLib/Z2AudioMgr.cpp</text>
</a>
</g>
</g>
<!-- Node2&#45;&gt;Node445 -->
<g id="edge34" class="edge">
<title>Node2&#45;&gt;Node445</title>
<path fill="none" stroke="#63b8ff" d="M3222.58,-140.36C3266.86,-131.5 3330.2,-118.69 3385.55,-107 3401.49,-103.63 3419.01,-99.82 3434.26,-96.46"/>
<polygon fill="#63b8ff" stroke="#63b8ff" points="3222.07,-136.89 3212.95,-142.28 3223.45,-143.76 3222.07,-136.89"/>
</g>
<!-- Node176 -->
<g id="node32" class="node">
<title>Node176</title>
<g id="a_node32"><a xlink:href="Z2LinkMgr_8cpp.html" target="_top" xlink:title=" ">
<polygon fill="white" stroke="#666666" points="3723.55,-96 3571.55,-96 3571.55,-77 3723.55,-77 3723.55,-96"/>
<text text-anchor="middle" x="3647.55" y="-84" font-family="Helvetica,sans-Serif" font-size="10.00">libs/Z2AudioLib/Z2LinkMgr.cpp</text>
</a>
</g>
</g>
<!-- Node2&#45;&gt;Node176 -->
<g id="edge35" class="edge">
<title>Node2&#45;&gt;Node176</title>
<path fill="none" stroke="#63b8ff" d="M3237.56,-145.97C3317.07,-139.21 3449.61,-126.24 3562.55,-107 3579.12,-104.18 3597.3,-100.14 3612.58,-96.47"/>
<polygon fill="#63b8ff" stroke="#63b8ff" points="3237.4,-142.47 3227.73,-146.79 3237.99,-149.45 3237.4,-142.47"/>
</g>
<!-- Node449 -->
<g id="node33" class="node">
<title>Node449</title>
<g id="a_node33"><a xlink:href="Z2WolfHowlMgr_8cpp.html" target="_top" xlink:title=" ">
<polygon fill="white" stroke="#666666" points="3881.55,-101.5 3741.55,-101.5 3741.55,-71.5 3881.55,-71.5 3881.55,-101.5"/>
<text text-anchor="start" x="3749.55" y="-89.5" font-family="Helvetica,sans-Serif" font-size="10.00">libs/Z2AudioLib/Z2WolfHowl</text>
<text text-anchor="middle" x="3811.55" y="-78.5" font-family="Helvetica,sans-Serif" font-size="10.00">Mgr.cpp</text>
</a>
</g>
</g>
<!-- Node2&#45;&gt;Node449 -->
<g id="edge36" class="edge">
<title>Node2&#45;&gt;Node449</title>
<path fill="none" stroke="#63b8ff" d="M3237.78,-149.63C3345.51,-145.97 3556.05,-135.53 3732.55,-107 3740.92,-105.65 3749.7,-103.86 3758.25,-101.91"/>
<polygon fill="#63b8ff" stroke="#63b8ff" points="3237.81,-146.13 3227.93,-149.96 3238.04,-153.13 3237.81,-146.13"/>
</g>
<!-- Node562 -->
<g id="node34" class="node">
<title>Node562</title>
<g id="a_node34"><a xlink:href="ai_8c.html" target="_top" xlink:title=" ">
<polygon fill="white" stroke="#666666" points="3993.55,-96 3899.55,-96 3899.55,-77 3993.55,-77 3993.55,-96"/>
<text text-anchor="middle" x="3946.55" y="-84" font-family="Helvetica,sans-Serif" font-size="10.00">libs/dolphin/ai/ai.c</text>
</a>
</g>
</g>
<!-- Node2&#45;&gt;Node562 -->
<g id="edge37" class="edge">
<title>Node2&#45;&gt;Node562</title>
<path fill="none" stroke="#63b8ff" d="M3237.9,-149.59C3395.11,-144.99 3767.16,-131.79 3890.55,-107 3902.36,-104.63 3915.07,-100.35 3925.39,-96.41"/>
<polygon fill="#63b8ff" stroke="#63b8ff" points="3237.92,-146.09 3228.02,-149.88 3238.12,-153.09 3237.92,-146.09"/>
</g>
<!-- Node563 -->
<g id="node35" class="node">
<title>Node563</title>
<g id="a_node35"><a xlink:href="ar_8c.html" target="_top" xlink:title=" ">
<polygon fill="white" stroke="#666666" points="4107.05,-96 4012.05,-96 4012.05,-77 4107.05,-77 4107.05,-96"/>
<text text-anchor="middle" x="4059.55" y="-84" font-family="Helvetica,sans-Serif" font-size="10.00">libs/dolphin/ar/ar.c</text>
</a>
</g>
</g>
<!-- Node2&#45;&gt;Node563 -->
<g id="edge38" class="edge">
<title>Node2&#45;&gt;Node563</title>
<path fill="none" stroke="#63b8ff" d="M3237.58,-150.24C3411.84,-146.73 3856.89,-135.23 4002.55,-107 4014.56,-104.67 4027.5,-100.4 4038.01,-96.44"/>
<polygon fill="#63b8ff" stroke="#63b8ff" points="3237.7,-146.73 3227.77,-150.43 3237.83,-153.73 3237.7,-146.73"/>
</g>
<!-- Node564 -->
<g id="node36" class="node">
<title>Node564</title>
<g id="a_node36"><a xlink:href="CARDBios_8c.html" target="_top" xlink:title=" ">
<polygon fill="white" stroke="#666666" points="4269.55,-96 4125.55,-96 4125.55,-77 4269.55,-77 4269.55,-96"/>
<text text-anchor="middle" x="4197.55" y="-84" font-family="Helvetica,sans-Serif" font-size="10.00">libs/dolphin/card/CARDBios.c</text>
</a>
</g>
</g>
<!-- Node2&#45;&gt;Node564 -->
<g id="edge39" class="edge">
<title>Node2&#45;&gt;Node564</title>
<path fill="none" stroke="#63b8ff" d="M3237.55,-149.89C3427.81,-145.3 3946.1,-130.91 4115.55,-107 4132.36,-104.63 4150.77,-100.4 4165.88,-96.49"/>
<polygon fill="#63b8ff" stroke="#63b8ff" points="3237.74,-146.38 3227.82,-150.12 3237.9,-153.38 3237.74,-146.38"/>
</g>
<!-- Node565 -->
<g id="node37" class="node">
<title>Node565</title>
<g id="a_node37"><a xlink:href="CARDUnlock_8c.html" target="_top" xlink:title=" ">
<polygon fill="white" stroke="#666666" points="4443.05,-96 4288.05,-96 4288.05,-77 4443.05,-77 4443.05,-96"/>
<text text-anchor="middle" x="4365.55" y="-84" font-family="Helvetica,sans-Serif" font-size="10.00">libs/dolphin/card/CARDUnlock.c</text>
</a>
</g>
</g>
<!-- Node2&#45;&gt;Node565 -->
<g id="edge40" class="edge">
<title>Node2&#45;&gt;Node565</title>
<path fill="none" stroke="#63b8ff" d="M3237.72,-150.33C3449.93,-146.58 4076.09,-133.52 4278.55,-107 4296.51,-104.65 4316.22,-100.37 4332.34,-96.42"/>
<polygon fill="#63b8ff" stroke="#63b8ff" points="3237.89,-146.83 3227.95,-150.5 3238.01,-153.83 3237.89,-146.83"/>
</g>
<!-- Node566 -->
<g id="node38" class="node">
<title>Node566</title>
<g id="a_node38"><a xlink:href="db_8c.html" target="_top" xlink:title=" ">
<polygon fill="white" stroke="#666666" points="4561.55,-96 4461.55,-96 4461.55,-77 4561.55,-77 4561.55,-96"/>
<text text-anchor="middle" x="4511.55" y="-84" font-family="Helvetica,sans-Serif" font-size="10.00">libs/dolphin/db/db.c</text>
</a>
</g>
</g>
<!-- Node2&#45;&gt;Node566 -->
<g id="edge41" class="edge">
<title>Node2&#45;&gt;Node566</title>
<path fill="none" stroke="#63b8ff" d="M3237.91,-151.65C3472.08,-151.72 4215.64,-148.57 4451.55,-107 4464.28,-104.76 4478.02,-100.44 4489.14,-96.43"/>
<polygon fill="#63b8ff" stroke="#63b8ff" points="3238,-148.15 3228,-151.64 3238,-155.15 3238,-148.15"/>
</g>
<!-- Node567 -->
<g id="node39" class="node">
<title>Node567</title>
<g id="a_node39"><a xlink:href="dvd_8c.html" target="_top" xlink:title=" ">
<polygon fill="white" stroke="#666666" points="4689.55,-96 4579.55,-96 4579.55,-77 4689.55,-77 4689.55,-96"/>
<text text-anchor="middle" x="4634.55" y="-84" font-family="Helvetica,sans-Serif" font-size="10.00">libs/dolphin/dvd/dvd.c</text>
</a>
</g>
</g>
<!-- Node2&#45;&gt;Node567 -->
<g id="edge42" class="edge">
<title>Node2&#45;&gt;Node567</title>
<path fill="none" stroke="#63b8ff" d="M3237.69,-151.72C3485.54,-152.11 4310.01,-150.04 4570.55,-107 4584.07,-104.77 4598.73,-100.45 4610.6,-96.44"/>
<polygon fill="#63b8ff" stroke="#63b8ff" points="3237.85,-148.22 3227.85,-151.7 3237.84,-155.22 3237.85,-148.22"/>
</g>
<!-- Node568 -->
<g id="node40" class="node">
<title>Node568</title>
<g id="a_node40"><a xlink:href="dvdfs_8c.html" target="_top" xlink:title=" ">
<polygon fill="white" stroke="#666666" points="4827.05,-96 4708.05,-96 4708.05,-77 4827.05,-77 4827.05,-96"/>
<text text-anchor="middle" x="4767.55" y="-84" font-family="Helvetica,sans-Serif" font-size="10.00">libs/dolphin/dvd/dvdfs.c</text>
</a>
</g>
</g>
<!-- Node2&#45;&gt;Node568 -->
<g id="edge43" class="edge">
<title>Node2&#45;&gt;Node568</title>
<path fill="none" stroke="#63b8ff" d="M3237.48,-151.75C3499.34,-152.33 4411.37,-151.06 4698.55,-107 4713.07,-104.77 4728.86,-100.46 4741.67,-96.45"/>
<polygon fill="#63b8ff" stroke="#63b8ff" points="3237.76,-148.25 3227.75,-151.73 3237.74,-155.25 3237.76,-148.25"/>
</g>
<!-- Node569 -->
<g id="node41" class="node">
<title>Node569</title>
<g id="a_node41"><a xlink:href="fstload_8c.html" target="_top" xlink:title=" ">
<polygon fill="white" stroke="#666666" points="4969.55,-96 4845.55,-96 4845.55,-77 4969.55,-77 4969.55,-96"/>
<text text-anchor="middle" x="4907.55" y="-84" font-family="Helvetica,sans-Serif" font-size="10.00">libs/dolphin/dvd/fstload.c</text>
</a>
</g>
</g>
<!-- Node2&#45;&gt;Node569 -->
<g id="edge44" class="edge">
<title>Node2&#45;&gt;Node569</title>
<path fill="none" stroke="#63b8ff" d="M3237.74,-151.89C3514.77,-153.04 4521.02,-153.83 4836.55,-107 4851.47,-104.79 4867.72,-100.47 4880.91,-96.46"/>
<polygon fill="#63b8ff" stroke="#63b8ff" points="3237.79,-148.39 3227.78,-151.84 3237.76,-155.39 3237.79,-148.39"/>
</g>
<!-- Node570 -->
<g id="node42" class="node">
<title>Node570</title>
<g id="a_node42"><a xlink:href="EXIBios_8c.html" target="_top" xlink:title=" ">
<polygon fill="white" stroke="#666666" points="5113.55,-96 4987.55,-96 4987.55,-77 5113.55,-77 5113.55,-96"/>
<text text-anchor="middle" x="5050.55" y="-84" font-family="Helvetica,sans-Serif" font-size="10.00">libs/dolphin/exi/EXIBios.c</text>
</a>
</g>
</g>
<!-- Node2&#45;&gt;Node570 -->
<g id="edge45" class="edge">
<title>Node2&#45;&gt;Node570</title>
<path fill="none" stroke="#63b8ff" d="M3237.34,-150.77C3550.61,-147.38 4804.37,-132.35 4978.55,-107 4993.67,-104.8 5010.15,-100.48 5023.52,-96.47"/>
<polygon fill="#63b8ff" stroke="#63b8ff" points="3237.64,-147.26 3227.68,-150.87 3237.71,-154.26 3237.64,-147.26"/>
</g>
<!-- Node571 -->
<g id="node43" class="node">
<title>Node571</title>
<g id="a_node43"><a xlink:href="EXIUart_8c.html" target="_top" xlink:title=" ">
<polygon fill="white" stroke="#666666" points="5257.05,-96 5132.05,-96 5132.05,-77 5257.05,-77 5257.05,-96"/>
<text text-anchor="middle" x="5194.55" y="-84" font-family="Helvetica,sans-Serif" font-size="10.00">libs/dolphin/exi/EXIUart.c</text>
</a>
</g>
</g>
<!-- Node2&#45;&gt;Node571 -->
<g id="edge46" class="edge">
<title>Node2&#45;&gt;Node571</title>
<path fill="none" stroke="#63b8ff" d="M3237.79,-150.9C3567.06,-147.99 4933.54,-134.33 5122.55,-107 5137.67,-104.81 5154.15,-100.5 5167.52,-96.48"/>
<polygon fill="#63b8ff" stroke="#63b8ff" points="3238,-147.4 3228.03,-150.99 3238.06,-154.4 3238,-147.4"/>
</g>
<!-- Node2&#45;&gt;Node572 -->
<g id="edge47" class="edge">
<title>Node2&#45;&gt;Node572</title>
<path fill="none" stroke="#63b8ff" d="M3237.6,-150.88C3665.7,-147.1 5888.13,-126.58 6030.55,-107 6046.21,-104.85 6063.3,-100.48 6077.11,-96.43"/>
<polygon fill="#63b8ff" stroke="#63b8ff" points="3237.82,-147.38 3227.85,-150.97 3237.88,-154.38 3237.82,-147.38"/>
</g>
<!-- Node573 -->
<g id="node45" class="node">
<title>Node573</title>
<g id="a_node45"><a xlink:href="GXInit_8c.html" target="_top" xlink:title=" ">
<polygon fill="white" stroke="#666666" points="5391.55,-96 5275.55,-96 5275.55,-77 5391.55,-77 5391.55,-96"/>
<text text-anchor="middle" x="5333.55" y="-84" font-family="Helvetica,sans-Serif" font-size="10.00">libs/dolphin/gx/GXInit.c</text>
</a>
</g>
</g>
<!-- Node2&#45;&gt;Node573 -->
<g id="edge48" class="edge">
<title>Node2&#45;&gt;Node573</title>
<path fill="none" stroke="#63b8ff" d="M3237.66,-151.1C3581.41,-149.01 5062.84,-138.25 5266.55,-107 5280.8,-104.81 5296.28,-100.45 5308.77,-96.4"/>
<polygon fill="#63b8ff" stroke="#63b8ff" points="3237.88,-147.6 3227.9,-151.16 3237.92,-154.6 3237.88,-147.6"/>
</g>
<!-- Node574 -->
<g id="node46" class="node">
<title>Node574</title>
<g id="a_node46"><a xlink:href="OS_8c.html" target="_top" xlink:title=" ">
<polygon fill="white" stroke="#666666" points="5513.55,-96 5409.55,-96 5409.55,-77 5513.55,-77 5513.55,-96"/>
<text text-anchor="middle" x="5461.55" y="-84" font-family="Helvetica,sans-Serif" font-size="10.00">libs/dolphin/os/OS.c</text>
</a>
</g>
</g>
<!-- Node2&#45;&gt;Node574 -->
<g id="edge49" class="edge">
<title>Node2&#45;&gt;Node574</title>
<path fill="none" stroke="#63b8ff" d="M3237.8,-151.31C3595.12,-150.16 5183.4,-143.08 5400.55,-107 5413.6,-104.83 5427.7,-100.47 5439.05,-96.41"/>
<polygon fill="#63b8ff" stroke="#63b8ff" points="3237.85,-147.8 3227.86,-151.34 3237.88,-154.8 3237.85,-147.8"/>
</g>
<!-- Node575 -->
<g id="node47" class="node">
<title>Node575</title>
<g id="a_node47"><a xlink:href="OSAlarm_8c.html" target="_top" xlink:title=" ">
<polygon fill="white" stroke="#666666" points="5661.05,-96 5532.05,-96 5532.05,-77 5661.05,-77 5661.05,-96"/>
<text text-anchor="middle" x="5596.55" y="-84" font-family="Helvetica,sans-Serif" font-size="10.00">libs/dolphin/os/OSAlarm.c</text>
</a>
</g>
</g>
<!-- Node2&#45;&gt;Node575 -->
<g id="edge50" class="edge">
<title>Node2&#45;&gt;Node575</title>
<path fill="none" stroke="#63b8ff" d="M3237.76,-151.17C3606.61,-149.31 5291.82,-139.11 5522.55,-107 5538.21,-104.82 5555.3,-100.45 5569.11,-96.4"/>
<polygon fill="#63b8ff" stroke="#63b8ff" points="3237.96,-147.67 3227.98,-151.22 3238,-154.67 3237.96,-147.67"/>
</g>
<!-- Node576 -->
<g id="node48" class="node">
<title>Node576</title>
<g id="a_node48"><a xlink:href="OSCache_8c.html" target="_top" xlink:title=" ">
<polygon fill="white" stroke="#666666" points="5810.05,-96 5679.05,-96 5679.05,-77 5810.05,-77 5810.05,-96"/>
<text text-anchor="middle" x="5744.55" y="-84" font-family="Helvetica,sans-Serif" font-size="10.00">libs/dolphin/os/OSCache.c</text>
</a>
</g>
</g>
<!-- Node2&#45;&gt;Node576 -->
<g id="edge51" class="edge">
<title>Node2&#45;&gt;Node576</title>
<path fill="none" stroke="#63b8ff" d="M3237.85,-151.25C3620.7,-149.79 5424.39,-141.12 5670.55,-107 5686.21,-104.83 5703.3,-100.46 5717.11,-96.41"/>
<polygon fill="#63b8ff" stroke="#63b8ff" points="3237.91,-147.75 3227.92,-151.29 3237.94,-154.75 3237.91,-147.75"/>
</g>
<!-- Node3&#45;&gt;Node522 -->
<g id="edge3" class="edge">
<title>Node3&#45;&gt;Node522</title>
<path fill="none" stroke="#63b8ff" d="M5832.66,-68.45C5828.25,-67.5 5823.85,-66.66 5819.55,-66 5540.84,-23.1 4652.98,-17.01 4404.65,-16.14"/>
<polygon fill="#63b8ff" stroke="#63b8ff" points="5831.57,-71.79 5842.1,-70.68 5833.17,-64.97 5831.57,-71.79"/>
</g>
<!-- Node3&#45;&gt;Node526 -->
<g id="edge4" class="edge">
<title>Node3&#45;&gt;Node526</title>
<path fill="none" stroke="#63b8ff" d="M5889.55,-59.76C5889.55,-49.83 5889.55,-38.86 5889.55,-30.38"/>
<polygon fill="#63b8ff" stroke="#63b8ff" points="5886.05,-59.59 5889.55,-69.59 5893.05,-59.59 5886.05,-59.59"/>
</g>
<!-- Node3&#45;&gt;Node529 -->
<g id="edge5" class="edge">
<title>Node3&#45;&gt;Node529</title>
<path fill="none" stroke="#63b8ff" d="M5925.83,-65.65C5946.38,-54.4 5971.63,-40.58 5990.27,-30.38"/>
<polygon fill="#63b8ff" stroke="#63b8ff" points="5924.28,-62.5 5917.19,-70.37 5927.64,-68.64 5924.28,-62.5"/>
</g>
<!-- Node3&#45;&gt;Node536 -->
<g id="edge6" class="edge">
<title>Node3&#45;&gt;Node536</title>
<path fill="none" stroke="#63b8ff" d="M5833.49,-68.51C5828.81,-67.51 5824.12,-66.65 5819.55,-66 5591.5,-33.52 1918.5,-18.11 1431.68,-16.2"/>
<polygon fill="#63b8ff" stroke="#63b8ff" points="5832.34,-71.84 5842.88,-70.72 5833.94,-65.02 5832.34,-71.84"/>
</g>
</g>
</svg>
        <g id="navigator" transform="translate(0 0)" fill="#404254">
                <rect fill="#f2f5e9" fill-opacity="0.5" stroke="#606060" stroke-width=".5" x="0" y="0" width="60" height="60"/>
                <use id="zoomplus" xlink:href="#zoomPlus" x="17" y="9" onmousedown="handleZoom(evt,'in')"/>
                <use id="zoomminus" xlink:href="#zoomMin" x="42" y="9" onmousedown="handleZoom(evt,'out')"/>
                <use id="reset" xlink:href="#resetDef" x="30" y="36" onmousedown="handleReset()"/>
                <g id="arrowUp" xlink:href="#dirArrow" transform="translate(30 24)" onmousedown="handlePan(0,-1)">
                  <use xlink:href="#rim" fill="#404040">
                        <set attributeName="fill" to="#808080" begin="arrowUp.mouseover" end="arrowUp.mouseout"/>
                  </use>
                  <path fill="none" stroke="white" stroke-width="1.5" d="M0,-3.0v7 M-2.5,-0.5L0,-3.0L2.5,-0.5"/>
                </g>
                <g id="arrowRight" xlink:href="#dirArrow" transform="rotate(90) translate(36 -43)" onmousedown="handlePan(1,0)">
                  <use xlink:href="#rim" fill="#404040">
                        <set attributeName="fill" to="#808080" begin="arrowRight.mouseover" end="arrowRight.mouseout"/>
                  </use>
                  <path fill="none" stroke="white" stroke-width="1.5" d="M0,-3.0v7 M-2.5,-0.5L0,-3.0L2.5,-0.5"/>
                </g>
                <g id="arrowDown" xlink:href="#dirArrow" transform="rotate(180) translate(-30 -48)" onmousedown="handlePan(0,1)">
                  <use xlink:href="#rim" fill="#404040">
                        <set attributeName="fill" to="#808080" begin="arrowDown.mouseover" end="arrowDown.mouseout"/>
                  </use>
                  <path fill="none" stroke="white" stroke-width="1.5" d="M0,-3.0v7 M-2.5,-0.5L0,-3.0L2.5,-0.5"/>
                </g>
                <g id="arrowLeft" xlink:href="#dirArrow" transform="rotate(270) translate(-36 17)" onmousedown="handlePan(-1,0)">
                  <use xlink:href="#rim" fill="#404040">
                        <set attributeName="fill" to="#808080" begin="arrowLeft.mouseover" end="arrowLeft.mouseout"/>
                  </use>
                  <path fill="none" stroke="white" stroke-width="1.5" d="M0,-3.0v7 M-2.5,-0.5L0,-3.0L2.5,-0.5"/>
                </g>
        </g>
        <svg viewBox="0 0 15 15" width="100%" height="30px" preserveAspectRatio="xMaxYMin meet">
         <g id="arrow_out" transform="scale(0.3 0.3)">
          <a xlink:href="OSAlloc_8h__dep__incl_org.svg" target="_base">
           <rect id="button" ry="5" rx="5" y="6" x="6" height="38" width="38"
                fill="#f2f5e9" fill-opacity="0.5" stroke="#606060" stroke-width="1.0"/>
           <path id="arrow"
             d="M 11.500037,31.436501 C 11.940474,20.09759 22.043105,11.32322 32.158766,21.979434 L 37.068811,17.246167 C 37.068811,17.246167 37.088388,32 37.088388,32 L 22.160133,31.978069 C 22.160133,31.978069 26.997745,27.140456 26.997745,27.140456 C 18.528582,18.264221 13.291696,25.230495 11.500037,31.436501 z"
             style="fill:#404040;"/>
          </a>
         </g>
        </svg>
</svg>
