<?xml version="1.0" encoding="UTF-8" standalone="no"?>
<!DOCTYPE svg PUBLIC "-//W3C//DTD SVG 1.1//EN"
 "http://www.w3.org/Graphics/SVG/1.1/DTD/svg11.dtd">
<!-- Generated by graphviz version 7.0.5 (20221223.1930)
 -->
<!-- Title: libs/dolphin/os/OSAudioSystem.c Pages: 1 -->
<svg width="400pt" height="258pt"
 viewBox="0.00 0.00 399.50 258.00" xmlns="http://www.w3.org/2000/svg" xmlns:xlink="http://www.w3.org/1999/xlink">
<g id="graph0" class="graph" transform="scale(1 1) rotate(0) translate(4 254)">
<title>libs/dolphin/os/OSAudioSystem.c</title>
<!-- Node1 -->
<g id="node1" class="node">
<title>Node1</title>
<g id="a_node1"><a xlink:title=" ">
<polygon fill="#999999" stroke="#666666" points="319,-250 158,-250 158,-231 319,-231 319,-250"/>
<text text-anchor="middle" x="238.5" y="-238" font-family="Helvetica,sans-Serif" font-size="10.00">libs/dolphin/os/OSAudioSystem.c</text>
</a>
</g>
</g>
<!-- Node2 -->
<g id="node2" class="node">
<title>Node2</title>
<g id="a_node2"><a xlink:href="OSAudioSystem_8h.html" target="_top" xlink:title=" ">
<polygon fill="white" stroke="#666666" points="143,-195 0,-195 0,-176 143,-176 143,-195"/>
<text text-anchor="middle" x="71.5" y="-183" font-family="Helvetica,sans-Serif" font-size="10.00">dolphin/os/OSAudioSystem.h</text>
</a>
</g>
</g>
<!-- Node1&#45;&gt;Node2 -->
<g id="edge1" class="edge">
<title>Node1&#45;&gt;Node2</title>
<path fill="none" stroke="#63b8ff" d="M210.17,-230.51C182.74,-221.8 140.92,-208.53 110.38,-198.84"/>
<polygon fill="#63b8ff" stroke="#63b8ff" points="111.72,-195.59 101.13,-195.9 109.6,-202.27 111.72,-195.59"/>
</g>
<!-- Node3 -->
<g id="node3" class="node">
<title>Node3</title>
<g id="a_node3"><a xlink:href="dol2asm_8h.html" target="_top" xlink:title=" ">
<polygon fill="white" stroke="#666666" points="222,-195 161,-195 161,-176 222,-176 222,-195"/>
<text text-anchor="middle" x="191.5" y="-183" font-family="Helvetica,sans-Serif" font-size="10.00">dol2asm.h</text>
</a>
</g>
</g>
<!-- Node1&#45;&gt;Node3 -->
<g id="edge2" class="edge">
<title>Node1&#45;&gt;Node3</title>
<path fill="none" stroke="#63b8ff" d="M230.74,-230.75C224.31,-223.5 214.99,-212.98 207.04,-204.02"/>
<polygon fill="#63b8ff" stroke="#63b8ff" points="209.69,-201.73 200.43,-196.57 204.45,-206.38 209.69,-201.73"/>
</g>
<!-- Node4 -->
<g id="node4" class="node">
<title>Node4</title>
<g id="a_node4"><a xlink:href="dsp_8h.html" target="_top" xlink:title=" ">
<polygon fill="white" stroke="#666666" points="332.5,-195 240.5,-195 240.5,-176 332.5,-176 332.5,-195"/>
<text text-anchor="middle" x="286.5" y="-183" font-family="Helvetica,sans-Serif" font-size="10.00">dolphin/dsp/dsp.h</text>
</a>
</g>
</g>
<!-- Node1&#45;&gt;Node4 -->
<g id="edge3" class="edge">
<title>Node1&#45;&gt;Node4</title>
<path fill="none" stroke="#63b8ff" d="M246.43,-230.75C253.06,-223.43 262.72,-212.76 270.89,-203.74"/>
<polygon fill="#63b8ff" stroke="#63b8ff" points="273.27,-206.33 277.39,-196.56 268.08,-201.63 273.27,-206.33"/>
</g>
<!-- Node5 -->
<g id="node5" class="node">
<title>Node5</title>
<g id="a_node5"><a xlink:href="OSTime_8h.html" target="_top" xlink:title=" ">
<polygon fill="white" stroke="#666666" points="377,-140 270,-140 270,-121 377,-121 377,-140"/>
<text text-anchor="middle" x="323.5" y="-128" font-family="Helvetica,sans-Serif" font-size="10.00">dolphin/os/OSTime.h</text>
</a>
</g>
</g>
<!-- Node1&#45;&gt;Node5 -->
<g id="edge7" class="edge">
<title>Node1&#45;&gt;Node5</title>
<path fill="none" stroke="#63b8ff" d="M287.69,-230.58C307.92,-224.22 329.41,-213.39 341.5,-195 350.44,-181.4 343.92,-163.34 336.34,-149.96"/>
<polygon fill="#63b8ff" stroke="#63b8ff" points="339.42,-148.28 331.12,-141.69 333.5,-152.01 339.42,-148.28"/>
</g>
<!-- Node4&#45;&gt;Node5 -->
<g id="edge4" class="edge">
<title>Node4&#45;&gt;Node5</title>
<path fill="none" stroke="#63b8ff" d="M292.61,-175.75C297.51,-168.73 304.55,-158.64 310.67,-149.87"/>
<polygon fill="#63b8ff" stroke="#63b8ff" points="313.54,-151.89 316.39,-141.68 307.8,-147.88 313.54,-151.89"/>
</g>
<!-- Node6 -->
<g id="node6" class="node">
<title>Node6</title>
<g id="a_node6"><a xlink:href="types_8h.html" target="_top" xlink:title=" ">
<polygon fill="white" stroke="#666666" points="364,-85 283,-85 283,-66 364,-66 364,-85"/>
<text text-anchor="middle" x="323.5" y="-73" font-family="Helvetica,sans-Serif" font-size="10.00">dolphin/types.h</text>
</a>
</g>
</g>
<!-- Node5&#45;&gt;Node6 -->
<g id="edge5" class="edge">
<title>Node5&#45;&gt;Node6</title>
<path fill="none" stroke="#63b8ff" d="M323.5,-120.75C323.5,-114.27 323.5,-105.16 323.5,-96.9"/>
<polygon fill="#63b8ff" stroke="#63b8ff" points="327,-96.96 323.5,-86.96 320,-96.96 327,-96.96"/>
</g>
<!-- Node7 -->
<g id="node7" class="node">
<title>Node7</title>
<g id="a_node7"><a xlink:href="stddef_8h.html" target="_top" xlink:title=" ">
<polygon fill="white" stroke="#666666" points="391.5,-30 255.5,-30 255.5,0 391.5,0 391.5,-30"/>
<text text-anchor="start" x="263.5" y="-18" font-family="Helvetica,sans-Serif" font-size="10.00">MSL_C/MSL_Common/Src</text>
<text text-anchor="middle" x="323.5" y="-7" font-family="Helvetica,sans-Serif" font-size="10.00">/stddef.h</text>
</a>
</g>
</g>
<!-- Node6&#45;&gt;Node7 -->
<g id="edge6" class="edge">
<title>Node6&#45;&gt;Node7</title>
<path fill="none" stroke="#63b8ff" d="M323.5,-65.87C323.5,-59.4 323.5,-50.2 323.5,-41.45"/>
<polygon fill="#63b8ff" stroke="#63b8ff" points="327,-41.63 323.5,-31.63 320,-41.63 327,-41.63"/>
</g>
</g>
</svg>
