<?xml version="1.0" encoding="UTF-8" standalone="no"?>
<!DOCTYPE svg PUBLIC "-//W3C//DTD SVG 1.1//EN"
 "http://www.w3.org/Graphics/SVG/1.1/DTD/svg11.dtd">
<!-- Generated by graphviz version 7.0.5 (20221223.1930)
 -->
<!-- Title: libs/dolphin/os/OSCache.c Pages: 1 -->
<svg width="1918pt" height="379pt"
 viewBox="0.00 0.00 1918.00 379.00" xmlns="http://www.w3.org/2000/svg" xmlns:xlink="http://www.w3.org/1999/xlink">
<g id="graph0" class="graph" transform="scale(1 1) rotate(0) translate(4 375)">
<title>libs/dolphin/os/OSCache.c</title>
<!-- Node1 -->
<g id="node1" class="node">
<title>Node1</title>
<g id="a_node1"><a xlink:title=" ">
<polygon fill="#999999" stroke="#666666" points="300.5,-371 169.5,-371 169.5,-352 300.5,-352 300.5,-371"/>
<text text-anchor="middle" x="235" y="-359" font-family="Helvetica,sans-Serif" font-size="10.00">libs/dolphin/os/OSCache.c</text>
</a>
</g>
</g>
<!-- Node2 -->
<g id="node2" class="node">
<title>Node2</title>
<g id="a_node2"><a xlink:href="OSCache_8h.html" target="_top" xlink:title=" ">
<polygon fill="white" stroke="#666666" points="291.5,-261 178.5,-261 178.5,-242 291.5,-242 291.5,-261"/>
<text text-anchor="middle" x="235" y="-249" font-family="Helvetica,sans-Serif" font-size="10.00">dolphin/os/OSCache.h</text>
</a>
</g>
</g>
<!-- Node1&#45;&gt;Node2 -->
<g id="edge1" class="edge">
<title>Node1&#45;&gt;Node2</title>
<path fill="none" stroke="#63b8ff" d="M235,-351.66C235,-334.57 235,-296.61 235,-272.92"/>
<polygon fill="#63b8ff" stroke="#63b8ff" points="238.5,-272.97 235,-262.97 231.5,-272.97 238.5,-272.97"/>
</g>
<!-- Node5 -->
<g id="node5" class="node">
<title>Node5</title>
<g id="a_node5"><a xlink:href="PPCArch_8h.html" target="_top" xlink:title=" ">
<polygon fill="white" stroke="#666666" points="122,-316 0,-316 0,-297 122,-297 122,-316"/>
<text text-anchor="middle" x="61" y="-304" font-family="Helvetica,sans-Serif" font-size="10.00">dolphin/base/PPCArch.h</text>
</a>
</g>
</g>
<!-- Node1&#45;&gt;Node5 -->
<g id="edge4" class="edge">
<title>Node1&#45;&gt;Node5</title>
<path fill="none" stroke="#63b8ff" d="M205.48,-351.51C176.77,-342.76 132.95,-329.42 101.09,-319.71"/>
<polygon fill="#63b8ff" stroke="#63b8ff" points="102.4,-316.45 91.82,-316.89 100.36,-323.15 102.4,-316.45"/>
</g>
<!-- Node6 -->
<g id="node6" class="node">
<title>Node6</title>
<g id="a_node6"><a xlink:href="db_8h.html" target="_top" xlink:title=" ">
<polygon fill="white" stroke="#666666" points="211,-145.5 129,-145.5 129,-126.5 211,-126.5 211,-145.5"/>
<text text-anchor="middle" x="170" y="-133.5" font-family="Helvetica,sans-Serif" font-size="10.00">dolphin/db/db.h</text>
</a>
</g>
</g>
<!-- Node1&#45;&gt;Node6 -->
<g id="edge6" class="edge">
<title>Node1&#45;&gt;Node6</title>
<path fill="none" stroke="#63b8ff" d="M226.37,-351.59C211.22,-335.25 180.37,-298.71 169,-261 158.36,-225.72 162.4,-182.18 166.24,-157.2"/>
<polygon fill="#63b8ff" stroke="#63b8ff" points="169.67,-157.91 167.9,-147.47 162.77,-156.74 169.67,-157.91"/>
</g>
<!-- Node7 -->
<g id="node7" class="node">
<title>Node7</title>
<g id="a_node7"><a xlink:href="OS_8h.html" target="_top" xlink:title=" ">
<polygon fill="white" stroke="#666666" points="1224,-316 1138,-316 1138,-297 1224,-297 1224,-316"/>
<text text-anchor="middle" x="1181" y="-304" font-family="Helvetica,sans-Serif" font-size="10.00">dolphin/os/OS.h</text>
</a>
</g>
</g>
<!-- Node1&#45;&gt;Node7 -->
<g id="edge8" class="edge">
<title>Node1&#45;&gt;Node7</title>
<path fill="none" stroke="#63b8ff" d="M300.77,-356.82C477.95,-346.89 962.86,-319.72 1126.35,-310.56"/>
<polygon fill="#63b8ff" stroke="#63b8ff" points="1126.26,-314.07 1136.05,-310.02 1125.87,-307.08 1126.26,-314.07"/>
</g>
<!-- Node19 -->
<g id="node19" class="node">
<title>Node19</title>
<g id="a_node19"><a xlink:href="OSInterrupt_8h.html" target="_top" xlink:title=" ">
<polygon fill="white" stroke="#666666" points="1685,-206 1563,-206 1563,-187 1685,-187 1685,-206"/>
<text text-anchor="middle" x="1624" y="-194" font-family="Helvetica,sans-Serif" font-size="10.00">dolphin/os/OSInterrupt.h</text>
</a>
</g>
</g>
<!-- Node1&#45;&gt;Node19 -->
<g id="edge53" class="edge">
<title>Node1&#45;&gt;Node19</title>
<path fill="none" stroke="#63b8ff" d="M300.69,-358.54C577.95,-349.93 1640.39,-313.6 1687,-261 1702.7,-243.28 1677.36,-224.15 1654.3,-211.57"/>
<polygon fill="#63b8ff" stroke="#63b8ff" points="1656.18,-208.6 1645.69,-207.13 1652.97,-214.83 1656.18,-208.6"/>
</g>
<!-- Node3 -->
<g id="node3" class="node">
<title>Node3</title>
<g id="a_node3"><a xlink:href="types_8h.html" target="_top" xlink:title=" ">
<polygon fill="white" stroke="#666666" points="1157.5,-85 1076.5,-85 1076.5,-66 1157.5,-66 1157.5,-85"/>
<text text-anchor="middle" x="1117" y="-73" font-family="Helvetica,sans-Serif" font-size="10.00">dolphin/types.h</text>
</a>
</g>
</g>
<!-- Node2&#45;&gt;Node3 -->
<g id="edge2" class="edge">
<title>Node2&#45;&gt;Node3</title>
<path fill="none" stroke="#63b8ff" d="M241.28,-241.75C259.44,-217.27 314.88,-148.12 380,-121 442.74,-94.87 907.28,-81.49 1064.88,-77.67"/>
<polygon fill="#63b8ff" stroke="#63b8ff" points="1064.7,-81.18 1074.61,-77.44 1064.53,-74.18 1064.7,-81.18"/>
</g>
<!-- Node4 -->
<g id="node4" class="node">
<title>Node4</title>
<g id="a_node4"><a xlink:href="stddef_8h.html" target="_top" xlink:title=" ">
<polygon fill="white" stroke="#666666" points="1185,-30 1049,-30 1049,0 1185,0 1185,-30"/>
<text text-anchor="start" x="1057" y="-18" font-family="Helvetica,sans-Serif" font-size="10.00">MSL_C/MSL_Common/Src</text>
<text text-anchor="middle" x="1117" y="-7" font-family="Helvetica,sans-Serif" font-size="10.00">/stddef.h</text>
</a>
</g>
</g>
<!-- Node3&#45;&gt;Node4 -->
<g id="edge3" class="edge">
<title>Node3&#45;&gt;Node4</title>
<path fill="none" stroke="#63b8ff" d="M1117,-65.87C1117,-59.4 1117,-50.2 1117,-41.45"/>
<polygon fill="#63b8ff" stroke="#63b8ff" points="1120.5,-41.63 1117,-31.63 1113.5,-41.63 1120.5,-41.63"/>
</g>
<!-- Node5&#45;&gt;Node3 -->
<g id="edge5" class="edge">
<title>Node5&#45;&gt;Node3</title>
<path fill="none" stroke="#63b8ff" d="M60.65,-296.63C59.97,-266.14 62.3,-165.13 120,-121 157.8,-92.09 865.33,-80.02 1064.96,-77.18"/>
<polygon fill="#63b8ff" stroke="#63b8ff" points="1064.81,-80.69 1074.76,-77.05 1064.71,-73.69 1064.81,-80.69"/>
</g>
<!-- Node6&#45;&gt;Node3 -->
<g id="edge7" class="edge">
<title>Node6&#45;&gt;Node3</title>
<path fill="none" stroke="#63b8ff" d="M211.33,-126.15C221.94,-124.17 233.35,-122.27 244,-121 554.04,-83.94 929.64,-77.71 1065.14,-76.69"/>
<polygon fill="#63b8ff" stroke="#63b8ff" points="1064.88,-80.19 1074.85,-76.62 1064.83,-73.19 1064.88,-80.19"/>
</g>
<!-- Node7&#45;&gt;Node2 -->
<g id="edge23" class="edge">
<title>Node7&#45;&gt;Node2</title>
<path fill="none" stroke="#63b8ff" d="M1137.68,-304.35C1010.09,-300.72 624.65,-288.14 306,-261 305,-260.91 303.99,-260.83 302.97,-260.74"/>
<polygon fill="#63b8ff" stroke="#63b8ff" points="303.73,-257.29 293.44,-259.81 303.05,-264.26 303.73,-257.29"/>
</g>
<!-- Node8 -->
<g id="node8" class="node">
<title>Node8</title>
<g id="a_node8"><a xlink:href="____va__arg_8h.html" target="_top" xlink:title=" ">
<polygon fill="white" stroke="#666666" points="1697,-151 1587,-151 1587,-121 1697,-121 1697,-151"/>
<text text-anchor="start" x="1595" y="-139" font-family="Helvetica,sans-Serif" font-size="10.00">Runtime.PPCEABI.H/</text>
<text text-anchor="middle" x="1642" y="-128" font-family="Helvetica,sans-Serif" font-size="10.00">__va_arg.h</text>
</a>
</g>
</g>
<!-- Node7&#45;&gt;Node8 -->
<g id="edge9" class="edge">
<title>Node7&#45;&gt;Node8</title>
<path fill="none" stroke="#63b8ff" d="M1224.21,-304.75C1340.57,-302.3 1653.95,-292.79 1687,-261 1710.81,-238.1 1706.94,-217.4 1694,-187 1689.36,-176.11 1681.06,-166.45 1672.44,-158.59"/>
<polygon fill="#63b8ff" stroke="#63b8ff" points="1674.89,-156.08 1664.99,-152.33 1670.39,-161.44 1674.89,-156.08"/>
</g>
<!-- Node9 -->
<g id="node9" class="node">
<title>Node9</title>
<g id="a_node9"><a xlink:href="dvd_8h.html" target="_top" xlink:title=" ">
<polygon fill="white" stroke="#666666" points="1200,-145.5 1108,-145.5 1108,-126.5 1200,-126.5 1200,-145.5"/>
<text text-anchor="middle" x="1154" y="-133.5" font-family="Helvetica,sans-Serif" font-size="10.00">dolphin/dvd/dvd.h</text>
</a>
</g>
</g>
<!-- Node7&#45;&gt;Node9 -->
<g id="edge11" class="edge">
<title>Node7&#45;&gt;Node9</title>
<path fill="none" stroke="#63b8ff" d="M1194.31,-296.61C1222.1,-276.91 1281.63,-228.11 1256,-187 1244.78,-169.01 1225,-157.31 1205.82,-149.79"/>
<polygon fill="#63b8ff" stroke="#63b8ff" points="1207,-146.5 1196.41,-146.44 1204.66,-153.09 1207,-146.5"/>
</g>
<!-- Node10 -->
<g id="node10" class="node">
<title>Node10</title>
<g id="a_node10"><a xlink:href="OSAlarm_8h.html" target="_top" xlink:title=" ">
<polygon fill="white" stroke="#666666" points="1095.5,-261 984.5,-261 984.5,-242 1095.5,-242 1095.5,-261"/>
<text text-anchor="middle" x="1040" y="-249" font-family="Helvetica,sans-Serif" font-size="10.00">dolphin/os/OSAlarm.h</text>
</a>
</g>
</g>
<!-- Node7&#45;&gt;Node10 -->
<g id="edge13" class="edge">
<title>Node7&#45;&gt;Node10</title>
<path fill="none" stroke="#63b8ff" d="M1157.08,-296.51C1134.36,-287.97 1099.95,-275.03 1074.31,-265.4"/>
<polygon fill="#63b8ff" stroke="#63b8ff" points="1075.57,-262.13 1064.98,-261.89 1073.11,-268.69 1075.57,-262.13"/>
</g>
<!-- Node11 -->
<g id="node11" class="node">
<title>Node11</title>
<g id="a_node11"><a xlink:href="OSError_8h.html" target="_top" xlink:title=" ">
<polygon fill="white" stroke="#666666" points="835,-206 729,-206 729,-187 835,-187 835,-206"/>
<text text-anchor="middle" x="782" y="-194" font-family="Helvetica,sans-Serif" font-size="10.00">dolphin/os/OSError.h</text>
</a>
</g>
</g>
<!-- Node7&#45;&gt;Node11 -->
<g id="edge26" class="edge">
<title>Node7&#45;&gt;Node11</title>
<path fill="none" stroke="#63b8ff" d="M1137.53,-304.84C1022.87,-302.66 718.97,-293.81 689,-261 669.21,-239.34 704.57,-221.26 737.22,-210"/>
<polygon fill="#63b8ff" stroke="#63b8ff" points="738.25,-213.35 746.67,-206.92 736.08,-206.69 738.25,-213.35"/>
</g>
<!-- Node12 -->
<g id="node12" class="node">
<title>Node12</title>
<g id="a_node12"><a xlink:href="OSTime_8h.html" target="_top" xlink:title=" ">
<polygon fill="white" stroke="#666666" points="1128.5,-206 1021.5,-206 1021.5,-187 1128.5,-187 1128.5,-206"/>
<text text-anchor="middle" x="1075" y="-194" font-family="Helvetica,sans-Serif" font-size="10.00">dolphin/os/OSTime.h</text>
</a>
</g>
</g>
<!-- Node7&#45;&gt;Node12 -->
<g id="edge52" class="edge">
<title>Node7&#45;&gt;Node12</title>
<path fill="none" stroke="#63b8ff" d="M1182.91,-296.76C1185.26,-283.58 1187.65,-258.41 1176,-242 1165.26,-226.86 1148.18,-216.81 1131.1,-210.16"/>
<polygon fill="#63b8ff" stroke="#63b8ff" points="1132.54,-206.95 1121.95,-206.94 1130.22,-213.56 1132.54,-206.95"/>
</g>
<!-- Node13 -->
<g id="node13" class="node">
<title>Node13</title>
<g id="a_node13"><a xlink:href="OSAlloc_8h.html" target="_top" xlink:title=" ">
<polygon fill="white" stroke="#666666" points="1325.5,-145.5 1218.5,-145.5 1218.5,-126.5 1325.5,-126.5 1325.5,-145.5"/>
<text text-anchor="middle" x="1272" y="-133.5" font-family="Helvetica,sans-Serif" font-size="10.00">dolphin/os/OSAlloc.h</text>
</a>
</g>
</g>
<!-- Node7&#45;&gt;Node13 -->
<g id="edge18" class="edge">
<title>Node7&#45;&gt;Node13</title>
<path fill="none" stroke="#63b8ff" d="M1206.62,-296.54C1223.51,-289.39 1244.85,-277.77 1258,-261 1281.43,-231.11 1279.34,-184.01 1275.69,-157.28"/>
<polygon fill="#63b8ff" stroke="#63b8ff" points="1279.15,-156.78 1274.12,-147.46 1272.24,-157.89 1279.15,-156.78"/>
</g>
<!-- Node14 -->
<g id="node14" class="node">
<title>Node14</title>
<g id="a_node14"><a xlink:href="OSArena_8h.html" target="_top" xlink:title=" ">
<polygon fill="white" stroke="#666666" points="1454.5,-145.5 1343.5,-145.5 1343.5,-126.5 1454.5,-126.5 1454.5,-145.5"/>
<text text-anchor="middle" x="1399" y="-133.5" font-family="Helvetica,sans-Serif" font-size="10.00">dolphin/os/OSArena.h</text>
</a>
</g>
</g>
<!-- Node7&#45;&gt;Node14 -->
<g id="edge20" class="edge">
<title>Node7&#45;&gt;Node14</title>
<path fill="none" stroke="#63b8ff" d="M1207.09,-296.54C1227.45,-288.86 1255.89,-276.58 1278,-261 1322.48,-229.66 1364.51,-180.7 1385.35,-154.66"/>
<polygon fill="#63b8ff" stroke="#63b8ff" points="1387.88,-157.1 1391.32,-147.08 1382.38,-152.77 1387.88,-157.1"/>
</g>
<!-- Node15 -->
<g id="node15" class="node">
<title>Node15</title>
<g id="a_node15"><a xlink:href="OSAudioSystem_8h.html" target="_top" xlink:title=" ">
<polygon fill="white" stroke="#666666" points="841.5,-261 698.5,-261 698.5,-242 841.5,-242 841.5,-261"/>
<text text-anchor="middle" x="770" y="-249" font-family="Helvetica,sans-Serif" font-size="10.00">dolphin/os/OSAudioSystem.h</text>
</a>
</g>
</g>
<!-- Node7&#45;&gt;Node15 -->
<g id="edge22" class="edge">
<title>Node7&#45;&gt;Node15</title>
<path fill="none" stroke="#63b8ff" d="M1137.79,-299.93C1069.84,-291.17 936.9,-274.02 850.84,-262.92"/>
<polygon fill="#63b8ff" stroke="#63b8ff" points="851.4,-259.47 841.04,-261.66 850.51,-266.41 851.4,-259.47"/>
</g>
<!-- Node16 -->
<g id="node16" class="node">
<title>Node16</title>
<g id="a_node16"><a xlink:href="OSContext_8h.html" target="_top" xlink:title=" ">
<polygon fill="white" stroke="#666666" points="508.5,-145.5 389.5,-145.5 389.5,-126.5 508.5,-126.5 508.5,-145.5"/>
<text text-anchor="middle" x="449" y="-133.5" font-family="Helvetica,sans-Serif" font-size="10.00">dolphin/os/OSContext.h</text>
</a>
</g>
</g>
<!-- Node7&#45;&gt;Node16 -->
<g id="edge24" class="edge">
<title>Node7&#45;&gt;Node16</title>
<path fill="none" stroke="#63b8ff" d="M1137.76,-304.76C973.3,-301.75 394.67,-289.16 368,-261 354.81,-247.07 363.35,-214.89 382,-187 391.87,-172.24 407.6,-160.17 421.34,-151.59"/>
<polygon fill="#63b8ff" stroke="#63b8ff" points="422.74,-154.83 429.58,-146.74 419.19,-148.8 422.74,-154.83"/>
</g>
<!-- Node17 -->
<g id="node17" class="node">
<title>Node17</title>
<g id="a_node17"><a xlink:href="OSExec_8h.html" target="_top" xlink:title=" ">
<polygon fill="white" stroke="#666666" points="1490.5,-206 1383.5,-206 1383.5,-187 1490.5,-187 1490.5,-206"/>
<text text-anchor="middle" x="1437" y="-194" font-family="Helvetica,sans-Serif" font-size="10.00">dolphin/os/OSExec.h</text>
</a>
</g>
</g>
<!-- Node7&#45;&gt;Node17 -->
<g id="edge27" class="edge">
<title>Node7&#45;&gt;Node17</title>
<path fill="none" stroke="#63b8ff" d="M1224.25,-301.19C1263.15,-295.93 1320.94,-284.62 1366,-261 1388.11,-249.41 1408.83,-229.41 1422.11,-214.95"/>
<polygon fill="#63b8ff" stroke="#63b8ff" points="1424.68,-217.33 1428.7,-207.52 1419.45,-212.68 1424.68,-217.33"/>
</g>
<!-- Node18 -->
<g id="node18" class="node">
<title>Node18</title>
<g id="a_node18"><a xlink:href="OSFont_8h.html" target="_top" xlink:title=" ">
<polygon fill="white" stroke="#666666" points="1523.5,-261 1418.5,-261 1418.5,-242 1523.5,-242 1523.5,-261"/>
<text text-anchor="middle" x="1471" y="-249" font-family="Helvetica,sans-Serif" font-size="10.00">dolphin/os/OSFont.h</text>
</a>
</g>
</g>
<!-- Node7&#45;&gt;Node18 -->
<g id="edge29" class="edge">
<title>Node7&#45;&gt;Node18</title>
<path fill="none" stroke="#63b8ff" d="M1224.42,-297.57C1273.94,-288.51 1355.23,-273.66 1410.84,-263.5"/>
<polygon fill="#63b8ff" stroke="#63b8ff" points="1411.25,-266.98 1420.46,-261.74 1409.99,-260.09 1411.25,-266.98"/>
</g>
<!-- Node7&#45;&gt;Node19 -->
<g id="edge31" class="edge">
<title>Node7&#45;&gt;Node19</title>
<path fill="none" stroke="#63b8ff" d="M1224.29,-304.83C1338.48,-302.61 1641.15,-293.68 1671,-261 1685.1,-245.56 1665.74,-226 1647.78,-212.69"/>
<polygon fill="#63b8ff" stroke="#63b8ff" points="1650.14,-210.07 1639.93,-207.22 1646.14,-215.81 1650.14,-210.07"/>
</g>
<!-- Node20 -->
<g id="node20" class="node">
<title>Node20</title>
<g id="a_node20"><a xlink:href="OSLink_8h.html" target="_top" xlink:title=" ">
<polygon fill="white" stroke="#666666" points="1819,-145.5 1715,-145.5 1715,-126.5 1819,-126.5 1819,-145.5"/>
<text text-anchor="middle" x="1767" y="-133.5" font-family="Helvetica,sans-Serif" font-size="10.00">dolphin/os/OSLink.h</text>
</a>
</g>
</g>
<!-- Node7&#45;&gt;Node20 -->
<g id="edge33" class="edge">
<title>Node7&#45;&gt;Node20</title>
<path fill="none" stroke="#63b8ff" d="M1224.11,-304.28C1342.7,-300.59 1667.59,-288.09 1707,-261 1742.38,-236.68 1757.64,-185.5 1763.61,-157.08"/>
<polygon fill="#63b8ff" stroke="#63b8ff" points="1767.04,-157.77 1765.45,-147.29 1760.16,-156.47 1767.04,-157.77"/>
</g>
<!-- Node21 -->
<g id="node21" class="node">
<title>Node21</title>
<g id="a_node21"><a xlink:href="OSMemory_8h.html" target="_top" xlink:title=" ">
<polygon fill="white" stroke="#666666" points="1662,-261 1542,-261 1542,-242 1662,-242 1662,-261"/>
<text text-anchor="middle" x="1602" y="-249" font-family="Helvetica,sans-Serif" font-size="10.00">dolphin/os/OSMemory.h</text>
</a>
</g>
</g>
<!-- Node7&#45;&gt;Node21 -->
<g id="edge35" class="edge">
<title>Node7&#45;&gt;Node21</title>
<path fill="none" stroke="#63b8ff" d="M1224.47,-300.03C1296.82,-290.92 1442.66,-272.56 1530.38,-261.52"/>
<polygon fill="#63b8ff" stroke="#63b8ff" points="1530.59,-265.02 1540.07,-260.3 1529.71,-258.07 1530.59,-265.02"/>
</g>
<!-- Node22 -->
<g id="node22" class="node">
<title>Node22</title>
<g id="a_node22"><a xlink:href="OSMessage_8h.html" target="_top" xlink:title=" ">
<polygon fill="white" stroke="#666666" points="511.5,-261 386.5,-261 386.5,-242 511.5,-242 511.5,-261"/>
<text text-anchor="middle" x="449" y="-249" font-family="Helvetica,sans-Serif" font-size="10.00">dolphin/os/OSMessage.h</text>
</a>
</g>
</g>
<!-- Node7&#45;&gt;Node22 -->
<g id="edge37" class="edge">
<title>Node7&#45;&gt;Node22</title>
<path fill="none" stroke="#63b8ff" d="M1137.7,-303.33C1033.78,-297.98 761.81,-282.99 523.15,-261.15"/>
<polygon fill="#63b8ff" stroke="#63b8ff" points="523.6,-257.67 513.32,-260.24 522.95,-264.65 523.6,-257.67"/>
</g>
<!-- Node23 -->
<g id="node23" class="node">
<title>Node23</title>
<g id="a_node23"><a xlink:href="OSThread_8h.html" target="_top" xlink:title=" ">
<polygon fill="white" stroke="#666666" points="507,-206 391,-206 391,-187 507,-187 507,-206"/>
<text text-anchor="middle" x="449" y="-194" font-family="Helvetica,sans-Serif" font-size="10.00">dolphin/os/OSThread.h</text>
</a>
</g>
</g>
<!-- Node7&#45;&gt;Node23 -->
<g id="edge51" class="edge">
<title>Node7&#45;&gt;Node23</title>
<path fill="none" stroke="#63b8ff" d="M1137.68,-304.73C974.29,-301.63 403.33,-288.83 377,-261 359.4,-242.4 388.85,-223.26 415.22,-210.92"/>
<polygon fill="#63b8ff" stroke="#63b8ff" points="416.33,-214.26 424.05,-207 413.49,-207.86 416.33,-214.26"/>
</g>
<!-- Node24 -->
<g id="node24" class="node">
<title>Node24</title>
<g id="a_node24"><a xlink:href="OSMutex_8h.html" target="_top" xlink:title=" ">
<polygon fill="white" stroke="#666666" points="642,-261 530,-261 530,-242 642,-242 642,-261"/>
<text text-anchor="middle" x="586" y="-249" font-family="Helvetica,sans-Serif" font-size="10.00">dolphin/os/OSMutex.h</text>
</a>
</g>
</g>
<!-- Node7&#45;&gt;Node24 -->
<g id="edge40" class="edge">
<title>Node7&#45;&gt;Node24</title>
<path fill="none" stroke="#63b8ff" d="M1137.73,-302.37C1047.89,-295.74 834.57,-279.4 656,-261 655.16,-260.91 654.3,-260.82 653.45,-260.73"/>
<polygon fill="#63b8ff" stroke="#63b8ff" points="653.97,-257.27 643.65,-259.66 653.21,-264.23 653.97,-257.27"/>
</g>
<!-- Node25 -->
<g id="node25" class="node">
<title>Node25</title>
<g id="a_node25"><a xlink:href="OSReboot_8h.html" target="_top" xlink:title=" ">
<polygon fill="white" stroke="#666666" points="1910,-206 1794,-206 1794,-187 1910,-187 1910,-206"/>
<text text-anchor="middle" x="1852" y="-194" font-family="Helvetica,sans-Serif" font-size="10.00">dolphin/os/OSReboot.h</text>
</a>
</g>
</g>
<!-- Node7&#45;&gt;Node25 -->
<g id="edge42" class="edge">
<title>Node7&#45;&gt;Node25</title>
<path fill="none" stroke="#63b8ff" d="M1224.43,-305.83C1344.68,-306.18 1679.68,-303.23 1780,-261 1803.66,-251.04 1824.91,-230.08 1838.09,-214.96"/>
<polygon fill="#63b8ff" stroke="#63b8ff" points="1840.51,-217.53 1844.23,-207.61 1835.13,-213.04 1840.51,-217.53"/>
</g>
<!-- Node26 -->
<g id="node26" class="node">
<title>Node26</title>
<g id="a_node26"><a xlink:href="OSReset_8h.html" target="_top" xlink:title=" ">
<polygon fill="white" stroke="#666666" points="964.5,-206 853.5,-206 853.5,-187 964.5,-187 964.5,-206"/>
<text text-anchor="middle" x="909" y="-194" font-family="Helvetica,sans-Serif" font-size="10.00">dolphin/os/OSReset.h</text>
</a>
</g>
</g>
<!-- Node7&#45;&gt;Node26 -->
<g id="edge44" class="edge">
<title>Node7&#45;&gt;Node26</title>
<path fill="none" stroke="#63b8ff" d="M1172.94,-296.59C1159.87,-282.72 1132.61,-256.07 1104,-242 1080.99,-230.69 1019.65,-217.62 971.85,-208.59"/>
<polygon fill="#63b8ff" stroke="#63b8ff" points="972.6,-205.17 962.13,-206.77 971.32,-212.05 972.6,-205.17"/>
</g>
<!-- Node27 -->
<g id="node27" class="node">
<title>Node27</title>
<g id="a_node27"><a xlink:href="OSResetSW_8h.html" target="_top" xlink:title=" ">
<polygon fill="white" stroke="#666666" points="1013.5,-145.5 886.5,-145.5 886.5,-126.5 1013.5,-126.5 1013.5,-145.5"/>
<text text-anchor="middle" x="950" y="-133.5" font-family="Helvetica,sans-Serif" font-size="10.00">dolphin/os/OSResetSW.h</text>
</a>
</g>
</g>
<!-- Node7&#45;&gt;Node27 -->
<g id="edge46" class="edge">
<title>Node7&#45;&gt;Node27</title>
<path fill="none" stroke="#63b8ff" d="M1176.56,-296.7C1169.19,-282.97 1153.11,-256.52 1132,-242 1086.12,-210.44 1059.02,-235.82 1012,-206 991.02,-192.7 972.82,-170.38 961.66,-154.74"/>
<polygon fill="#63b8ff" stroke="#63b8ff" points="964.78,-153.1 956.24,-146.84 959.01,-157.06 964.78,-153.1"/>
</g>
<!-- Node28 -->
<g id="node28" class="node">
<title>Node28</title>
<g id="a_node28"><a xlink:href="OSRtc_8h.html" target="_top" xlink:title=" ">
<polygon fill="white" stroke="#666666" points="1247.5,-206 1146.5,-206 1146.5,-187 1247.5,-187 1247.5,-206"/>
<text text-anchor="middle" x="1197" y="-194" font-family="Helvetica,sans-Serif" font-size="10.00">dolphin/os/OSRtc.h</text>
</a>
</g>
</g>
<!-- Node7&#45;&gt;Node28 -->
<g id="edge48" class="edge">
<title>Node7&#45;&gt;Node28</title>
<path fill="none" stroke="#63b8ff" d="M1190.33,-296.63C1198.36,-288.31 1209.35,-275.06 1214,-261 1218.93,-246.08 1213.64,-228.84 1207.7,-216.1"/>
<polygon fill="#63b8ff" stroke="#63b8ff" points="1210.97,-214.81 1203.25,-207.56 1204.77,-218.05 1210.97,-214.81"/>
</g>
<!-- Node29 -->
<g id="node29" class="node">
<title>Node29</title>
<g id="a_node29"><a xlink:href="OSSync_8h.html" target="_top" xlink:title=" ">
<polygon fill="white" stroke="#666666" points="966.5,-261 859.5,-261 859.5,-242 966.5,-242 966.5,-261"/>
<text text-anchor="middle" x="913" y="-249" font-family="Helvetica,sans-Serif" font-size="10.00">dolphin/os/OSSync.h</text>
</a>
</g>
</g>
<!-- Node7&#45;&gt;Node29 -->
<g id="edge50" class="edge">
<title>Node7&#45;&gt;Node29</title>
<path fill="none" stroke="#63b8ff" d="M1137.64,-296.93C1091.78,-287.86 1019.25,-273.51 969.07,-263.59"/>
<polygon fill="#63b8ff" stroke="#63b8ff" points="970.06,-260.22 959.57,-261.71 968.7,-267.08 970.06,-260.22"/>
</g>
<!-- Node8&#45;&gt;Node3 -->
<g id="edge10" class="edge">
<title>Node8&#45;&gt;Node3</title>
<path fill="none" stroke="#63b8ff" d="M1586.73,-123.26C1582.09,-122.44 1577.47,-121.67 1573,-121 1427.43,-99.19 1254.05,-85.66 1169.12,-79.83"/>
<polygon fill="#63b8ff" stroke="#63b8ff" points="1169.46,-76.35 1159.25,-79.17 1168.99,-83.33 1169.46,-76.35"/>
</g>
<!-- Node9&#45;&gt;Node3 -->
<g id="edge12" class="edge">
<title>Node9&#45;&gt;Node3</title>
<path fill="none" stroke="#63b8ff" d="M1148.54,-126.37C1143.29,-118.07 1135.2,-105.28 1128.53,-94.72"/>
<polygon fill="#63b8ff" stroke="#63b8ff" points="1131.59,-93.03 1123.29,-86.45 1125.68,-96.77 1131.59,-93.03"/>
</g>
<!-- Node10&#45;&gt;Node11 -->
<g id="edge14" class="edge">
<title>Node10&#45;&gt;Node11</title>
<path fill="none" stroke="#63b8ff" d="M996.23,-241.51C952.18,-232.46 884.12,-218.48 836.57,-208.71"/>
<polygon fill="#63b8ff" stroke="#63b8ff" points="837.53,-205.33 827.03,-206.75 836.12,-212.19 837.53,-205.33"/>
</g>
<!-- Node10&#45;&gt;Node12 -->
<g id="edge16" class="edge">
<title>Node10&#45;&gt;Node12</title>
<path fill="none" stroke="#63b8ff" d="M1045.78,-241.75C1050.41,-234.73 1057.07,-224.64 1062.87,-215.87"/>
<polygon fill="#63b8ff" stroke="#63b8ff" points="1065.67,-217.98 1068.26,-207.71 1059.83,-214.12 1065.67,-217.98"/>
</g>
<!-- Node11&#45;&gt;Node3 -->
<g id="edge15" class="edge">
<title>Node11&#45;&gt;Node3</title>
<path fill="none" stroke="#63b8ff" d="M789.23,-186.67C802.84,-170.72 833.95,-137.25 868,-121 931.37,-90.75 1012.73,-80.93 1064.87,-77.82"/>
<polygon fill="#63b8ff" stroke="#63b8ff" points="1064.87,-81.32 1074.67,-77.3 1064.5,-74.33 1064.87,-81.32"/>
</g>
<!-- Node12&#45;&gt;Node3 -->
<g id="edge17" class="edge">
<title>Node12&#45;&gt;Node3</title>
<path fill="none" stroke="#63b8ff" d="M1071.1,-186.78C1065.27,-172.39 1055.97,-143.06 1066,-121 1071.38,-109.16 1081.64,-99.25 1091.55,-91.8"/>
<polygon fill="#63b8ff" stroke="#63b8ff" points="1093.29,-94.85 1099.53,-86.3 1089.31,-89.09 1093.29,-94.85"/>
</g>
<!-- Node13&#45;&gt;Node3 -->
<g id="edge19" class="edge">
<title>Node13&#45;&gt;Node3</title>
<path fill="none" stroke="#63b8ff" d="M1248.46,-126.12C1222.63,-116.37 1180.91,-100.62 1151.41,-89.49"/>
<polygon fill="#63b8ff" stroke="#63b8ff" points="1152.77,-86.26 1142.18,-86 1150.3,-92.81 1152.77,-86.26"/>
</g>
<!-- Node14&#45;&gt;Node3 -->
<g id="edge21" class="edge">
<title>Node14&#45;&gt;Node3</title>
<path fill="none" stroke="#63b8ff" d="M1357.75,-126.05C1349.87,-124.36 1341.68,-122.61 1334,-121 1277.69,-109.16 1213.07,-95.96 1169.09,-87.03"/>
<polygon fill="#63b8ff" stroke="#63b8ff" points="1169.8,-83.6 1159.3,-85.05 1168.41,-90.46 1169.8,-83.6"/>
</g>
<!-- Node16&#45;&gt;Node3 -->
<g id="edge25" class="edge">
<title>Node16&#45;&gt;Node3</title>
<path fill="none" stroke="#63b8ff" d="M508.87,-129.76C638.39,-118.41 942.77,-91.76 1064.92,-81.06"/>
<polygon fill="#63b8ff" stroke="#63b8ff" points="1065,-84.57 1074.65,-80.21 1064.39,-77.59 1065,-84.57"/>
</g>
<!-- Node17&#45;&gt;Node3 -->
<g id="edge28" class="edge">
<title>Node17&#45;&gt;Node3</title>
<path fill="none" stroke="#63b8ff" d="M1445.13,-186.62C1458.01,-171.45 1480.01,-140.34 1463,-121 1443.92,-99.3 1261.01,-85.23 1169.13,-79.46"/>
<polygon fill="#63b8ff" stroke="#63b8ff" points="1169.57,-75.99 1159.37,-78.86 1169.14,-82.97 1169.57,-75.99"/>
</g>
<!-- Node18&#45;&gt;Node3 -->
<g id="edge30" class="edge">
<title>Node18&#45;&gt;Node3</title>
<path fill="none" stroke="#63b8ff" d="M1478.67,-241.7C1485.52,-233.21 1495.05,-219.68 1499,-206 1507.16,-177.72 1484.15,-123.72 1481,-121 1435.49,-81.64 1258.75,-76.14 1169.38,-75.96"/>
<polygon fill="#63b8ff" stroke="#63b8ff" points="1169.4,-72.46 1159.4,-75.97 1169.4,-79.46 1169.4,-72.46"/>
</g>
<!-- Node19&#45;&gt;Node3 -->
<g id="edge32" class="edge">
<title>Node19&#45;&gt;Node3</title>
<path fill="none" stroke="#63b8ff" d="M1614.91,-186.69C1596.13,-168.69 1553.27,-128.76 1535,-121 1470.29,-93.53 1266.22,-82.2 1169.21,-78.28"/>
<polygon fill="#63b8ff" stroke="#63b8ff" points="1169.57,-74.79 1159.44,-77.9 1169.29,-81.78 1169.57,-74.79"/>
</g>
<!-- Node20&#45;&gt;Node3 -->
<g id="edge34" class="edge">
<title>Node20&#45;&gt;Node3</title>
<path fill="none" stroke="#63b8ff" d="M1732.01,-126.02C1723.54,-124.11 1714.49,-122.29 1706,-121 1509.28,-91.17 1272.42,-80.99 1169.26,-77.82"/>
<polygon fill="#63b8ff" stroke="#63b8ff" points="1169.55,-74.32 1159.45,-77.52 1169.34,-81.32 1169.55,-74.32"/>
</g>
<!-- Node21&#45;&gt;Node19 -->
<g id="edge36" class="edge">
<title>Node21&#45;&gt;Node19</title>
<path fill="none" stroke="#63b8ff" d="M1605.63,-241.75C1608.42,-235.04 1612.37,-225.52 1615.9,-217.02"/>
<polygon fill="#63b8ff" stroke="#63b8ff" points="1619.11,-218.42 1619.71,-207.84 1612.64,-215.73 1619.11,-218.42"/>
</g>
<!-- Node22&#45;&gt;Node23 -->
<g id="edge38" class="edge">
<title>Node22&#45;&gt;Node23</title>
<path fill="none" stroke="#63b8ff" d="M449,-241.75C449,-235.27 449,-226.16 449,-217.9"/>
<polygon fill="#63b8ff" stroke="#63b8ff" points="452.5,-217.96 449,-207.96 445.5,-217.96 452.5,-217.96"/>
</g>
<!-- Node23&#45;&gt;Node16 -->
<g id="edge39" class="edge">
<title>Node23&#45;&gt;Node16</title>
<path fill="none" stroke="#63b8ff" d="M449,-186.87C449,-179 449,-167.1 449,-156.89"/>
<polygon fill="#63b8ff" stroke="#63b8ff" points="452.5,-157.18 449,-147.18 445.5,-157.18 452.5,-157.18"/>
</g>
<!-- Node24&#45;&gt;Node23 -->
<g id="edge41" class="edge">
<title>Node24&#45;&gt;Node23</title>
<path fill="none" stroke="#63b8ff" d="M562.76,-241.51C540.68,-232.97 507.25,-220.03 482.33,-210.4"/>
<polygon fill="#63b8ff" stroke="#63b8ff" points="483.9,-207.25 473.31,-206.9 481.37,-213.78 483.9,-207.25"/>
</g>
<!-- Node25&#45;&gt;Node3 -->
<g id="edge43" class="edge">
<title>Node25&#45;&gt;Node3</title>
<path fill="none" stroke="#63b8ff" d="M1852.11,-186.61C1851.77,-170.56 1848.49,-136.93 1828,-121 1776.32,-80.82 1323.89,-76.66 1168.86,-76.43"/>
<polygon fill="#63b8ff" stroke="#63b8ff" points="1169.31,-72.93 1159.3,-76.42 1169.3,-79.93 1169.31,-72.93"/>
</g>
<!-- Node26&#45;&gt;Node3 -->
<g id="edge45" class="edge">
<title>Node26&#45;&gt;Node3</title>
<path fill="none" stroke="#63b8ff" d="M899.84,-186.83C885.27,-171.99 860.08,-141.35 877,-121 900.4,-92.86 1001.51,-82.43 1064.79,-78.63"/>
<polygon fill="#63b8ff" stroke="#63b8ff" points="1064.84,-82.13 1074.63,-78.08 1064.45,-75.14 1064.84,-82.13"/>
</g>
<!-- Node27&#45;&gt;Node3 -->
<g id="edge47" class="edge">
<title>Node27&#45;&gt;Node3</title>
<path fill="none" stroke="#63b8ff" d="M975.36,-126.12C1003.44,-116.28 1048.93,-100.34 1080.76,-89.19"/>
<polygon fill="#63b8ff" stroke="#63b8ff" points="1081.69,-92.58 1089.97,-85.97 1079.37,-85.97 1081.69,-92.58"/>
</g>
<!-- Node28&#45;&gt;Node3 -->
<g id="edge49" class="edge">
<title>Node28&#45;&gt;Node3</title>
<path fill="none" stroke="#63b8ff" d="M1151.92,-186.56C1132.14,-180.16 1110.79,-169.3 1099,-151 1088.11,-134.09 1096.35,-111.19 1104.93,-95.25"/>
<polygon fill="#63b8ff" stroke="#63b8ff" points="1107.85,-97.19 1109.92,-86.8 1101.82,-93.63 1107.85,-97.19"/>
</g>
</g>
</svg>
