<?xml version="1.0" encoding="UTF-8" standalone="no"?>
<!DOCTYPE svg PUBLIC "-//W3C//DTD SVG 1.1//EN"
 "http://www.w3.org/Graphics/SVG/1.1/DTD/svg11.dtd">
<!-- Generated by graphviz version 7.0.5 (20221223.1930)
 -->
<!-- Title: libs/JSystem/JAudio2/osdsp.cpp Pages: 1 -->
<svg width="1666pt" height="401pt"
 viewBox="0.00 0.00 1666.00 401.00" xmlns="http://www.w3.org/2000/svg" xmlns:xlink="http://www.w3.org/1999/xlink">
<g id="graph0" class="graph" transform="scale(1 1) rotate(0) translate(4 397)">
<title>libs/JSystem/JAudio2/osdsp.cpp</title>
<!-- Node1 -->
<g id="node1" class="node">
<title>Node1</title>
<g id="a_node1"><a xlink:title=" ">
<polygon fill="#999999" stroke="#666666" points="805.5,-393 694.5,-393 694.5,-363 805.5,-363 805.5,-393"/>
<text text-anchor="start" x="702.5" y="-381" font-family="Helvetica,sans-Serif" font-size="10.00">libs/JSystem/JAudio2</text>
<text text-anchor="middle" x="750" y="-370" font-family="Helvetica,sans-Serif" font-size="10.00">/osdsp.cpp</text>
</a>
</g>
</g>
<!-- Node2 -->
<g id="node2" class="node">
<title>Node2</title>
<g id="a_node2"><a xlink:href="osdsp_8h.html" target="_top" xlink:title=" ">
<polygon fill="white" stroke="#666666" points="615,-321.5 485,-321.5 485,-302.5 615,-302.5 615,-321.5"/>
<text text-anchor="middle" x="550" y="-309.5" font-family="Helvetica,sans-Serif" font-size="10.00">JSystem/JAudio2/osdsp.h</text>
</a>
</g>
</g>
<!-- Node1&#45;&gt;Node2 -->
<g id="edge1" class="edge">
<title>Node1&#45;&gt;Node2</title>
<path fill="none" stroke="#63b8ff" d="M705.12,-362.64C670.14,-351.45 622.09,-336.07 588.77,-325.41"/>
<polygon fill="#63b8ff" stroke="#63b8ff" points="590.11,-322.16 579.52,-322.45 587.98,-328.83 590.11,-322.16"/>
</g>
<!-- Node3 -->
<g id="node3" class="node">
<title>Node3</title>
<g id="a_node3"><a xlink:href="osdsp__task_8h.html" target="_top" xlink:title=" ">
<polygon fill="white" stroke="#666666" points="1363,-327 1241,-327 1241,-297 1363,-297 1363,-327"/>
<text text-anchor="start" x="1249" y="-315" font-family="Helvetica,sans-Serif" font-size="10.00">JSystem/JAudio2/osdsp</text>
<text text-anchor="middle" x="1302" y="-304" font-family="Helvetica,sans-Serif" font-size="10.00">_task.h</text>
</a>
</g>
</g>
<!-- Node1&#45;&gt;Node3 -->
<g id="edge2" class="edge">
<title>Node1&#45;&gt;Node3</title>
<path fill="none" stroke="#63b8ff" d="M805.97,-370.51C906.66,-358.84 1118.24,-334.31 1229.73,-321.38"/>
<polygon fill="#63b8ff" stroke="#63b8ff" points="1229.82,-324.89 1239.36,-320.26 1229.02,-317.94 1229.82,-324.89"/>
</g>
<!-- Node7 -->
<g id="node7" class="node">
<title>Node7</title>
<g id="a_node7"><a xlink:href="OS_8h.html" target="_top" xlink:title=" ">
<polygon fill="white" stroke="#666666" points="853,-321.5 767,-321.5 767,-302.5 853,-302.5 853,-321.5"/>
<text text-anchor="middle" x="810" y="-309.5" font-family="Helvetica,sans-Serif" font-size="10.00">dolphin/os/OS.h</text>
</a>
</g>
</g>
<!-- Node1&#45;&gt;Node7 -->
<g id="edge6" class="edge">
<title>Node1&#45;&gt;Node7</title>
<path fill="none" stroke="#63b8ff" d="M763.32,-362.8C772.39,-353.11 784.46,-340.24 794.05,-330.01"/>
<polygon fill="#63b8ff" stroke="#63b8ff" points="796.39,-332.64 800.67,-322.95 791.28,-327.85 796.39,-332.64"/>
</g>
<!-- Node30 -->
<g id="node30" class="node">
<title>Node30</title>
<g id="a_node30"><a xlink:href="dsp__task_8h.html" target="_top" xlink:title=" ">
<polygon fill="white" stroke="#666666" points="749,-321.5 633,-321.5 633,-302.5 749,-302.5 749,-321.5"/>
<text text-anchor="middle" x="691" y="-309.5" font-family="Helvetica,sans-Serif" font-size="10.00">dolphin/dsp/dsp_task.h</text>
</a>
</g>
</g>
<!-- Node1&#45;&gt;Node30 -->
<g id="edge51" class="edge">
<title>Node1&#45;&gt;Node30</title>
<path fill="none" stroke="#63b8ff" d="M736.91,-362.8C727.98,-353.11 716.11,-340.24 706.68,-330.01"/>
<polygon fill="#63b8ff" stroke="#63b8ff" points="709.53,-327.94 700.18,-322.96 704.38,-332.68 709.53,-327.94"/>
</g>
<!-- Node4 -->
<g id="node4" class="node">
<title>Node4</title>
<g id="a_node4"><a xlink:href="OSInterrupt_8h.html" target="_top" xlink:title=" ">
<polygon fill="white" stroke="#666666" points="1526,-206 1404,-206 1404,-187 1526,-187 1526,-206"/>
<text text-anchor="middle" x="1465" y="-194" font-family="Helvetica,sans-Serif" font-size="10.00">dolphin/os/OSInterrupt.h</text>
</a>
</g>
</g>
<!-- Node3&#45;&gt;Node4 -->
<g id="edge3" class="edge">
<title>Node3&#45;&gt;Node4</title>
<path fill="none" stroke="#63b8ff" d="M1363.29,-308.75C1436.13,-304.63 1551.19,-293.1 1578,-261 1598.61,-236.32 1561.01,-219.41 1523.75,-209.28"/>
<polygon fill="#63b8ff" stroke="#63b8ff" points="1524.81,-205.94 1514.25,-206.85 1523.08,-212.72 1524.81,-205.94"/>
</g>
<!-- Node5 -->
<g id="node5" class="node">
<title>Node5</title>
<g id="a_node5"><a xlink:href="types_8h.html" target="_top" xlink:title=" ">
<polygon fill="white" stroke="#666666" points="859.5,-85 778.5,-85 778.5,-66 859.5,-66 859.5,-85"/>
<text text-anchor="middle" x="819" y="-73" font-family="Helvetica,sans-Serif" font-size="10.00">dolphin/types.h</text>
</a>
</g>
</g>
<!-- Node4&#45;&gt;Node5 -->
<g id="edge4" class="edge">
<title>Node4&#45;&gt;Node5</title>
<path fill="none" stroke="#63b8ff" d="M1443.7,-186.6C1404.66,-170.68 1318.68,-137.46 1243,-121 1110.99,-92.29 951.68,-81.9 871.11,-78.3"/>
<polygon fill="#63b8ff" stroke="#63b8ff" points="871.46,-74.81 861.32,-77.88 871.16,-81.8 871.46,-74.81"/>
</g>
<!-- Node6 -->
<g id="node6" class="node">
<title>Node6</title>
<g id="a_node6"><a xlink:href="stddef_8h.html" target="_top" xlink:title=" ">
<polygon fill="white" stroke="#666666" points="887,-30 751,-30 751,0 887,0 887,-30"/>
<text text-anchor="start" x="759" y="-18" font-family="Helvetica,sans-Serif" font-size="10.00">MSL_C/MSL_Common/Src</text>
<text text-anchor="middle" x="819" y="-7" font-family="Helvetica,sans-Serif" font-size="10.00">/stddef.h</text>
</a>
</g>
</g>
<!-- Node5&#45;&gt;Node6 -->
<g id="edge5" class="edge">
<title>Node5&#45;&gt;Node6</title>
<path fill="none" stroke="#63b8ff" d="M819,-65.87C819,-59.4 819,-50.2 819,-41.45"/>
<polygon fill="#63b8ff" stroke="#63b8ff" points="822.5,-41.63 819,-31.63 815.5,-41.63 822.5,-41.63"/>
</g>
<!-- Node7&#45;&gt;Node4 -->
<g id="edge30" class="edge">
<title>Node7&#45;&gt;Node4</title>
<path fill="none" stroke="#63b8ff" d="M853.43,-311.13C972.81,-310.88 1303.56,-306.04 1401,-261 1422.68,-250.98 1441.25,-230.35 1452.72,-215.31"/>
<polygon fill="#63b8ff" stroke="#63b8ff" points="1455.25,-217.78 1458.3,-207.63 1449.59,-213.66 1455.25,-217.78"/>
</g>
<!-- Node8 -->
<g id="node8" class="node">
<title>Node8</title>
<g id="a_node8"><a xlink:href="____va__arg_8h.html" target="_top" xlink:title=" ">
<polygon fill="white" stroke="#666666" points="1527,-151 1417,-151 1417,-121 1527,-121 1527,-151"/>
<text text-anchor="start" x="1425" y="-139" font-family="Helvetica,sans-Serif" font-size="10.00">Runtime.PPCEABI.H/</text>
<text text-anchor="middle" x="1472" y="-128" font-family="Helvetica,sans-Serif" font-size="10.00">__va_arg.h</text>
</a>
</g>
</g>
<!-- Node7&#45;&gt;Node8 -->
<g id="edge7" class="edge">
<title>Node7&#45;&gt;Node8</title>
<path fill="none" stroke="#63b8ff" d="M853.28,-309.8C1011.83,-305.21 1553.06,-287.61 1578,-261 1611.26,-225.51 1552.19,-181.83 1509.71,-156.93"/>
<polygon fill="#63b8ff" stroke="#63b8ff" points="1511.6,-153.98 1501.18,-152.06 1508.13,-160.06 1511.6,-153.98"/>
</g>
<!-- Node9 -->
<g id="node9" class="node">
<title>Node9</title>
<g id="a_node9"><a xlink:href="dvd_8h.html" target="_top" xlink:title=" ">
<polygon fill="white" stroke="#666666" points="1658,-145.5 1566,-145.5 1566,-126.5 1658,-126.5 1658,-145.5"/>
<text text-anchor="middle" x="1612" y="-133.5" font-family="Helvetica,sans-Serif" font-size="10.00">dolphin/dvd/dvd.h</text>
</a>
</g>
</g>
<!-- Node7&#45;&gt;Node9 -->
<g id="edge9" class="edge">
<title>Node7&#45;&gt;Node9</title>
<path fill="none" stroke="#63b8ff" d="M853.41,-309.77C1014.45,-304.99 1569.79,-286.71 1597,-261 1625.16,-234.4 1621.32,-184.54 1616.43,-156.84"/>
<polygon fill="#63b8ff" stroke="#63b8ff" points="1619.92,-156.43 1614.52,-147.32 1613.06,-157.81 1619.92,-156.43"/>
</g>
<!-- Node10 -->
<g id="node10" class="node">
<title>Node10</title>
<g id="a_node10"><a xlink:href="OSAlarm_8h.html" target="_top" xlink:title=" ">
<polygon fill="white" stroke="#666666" points="237.5,-261 126.5,-261 126.5,-242 237.5,-242 237.5,-261"/>
<text text-anchor="middle" x="182" y="-249" font-family="Helvetica,sans-Serif" font-size="10.00">dolphin/os/OSAlarm.h</text>
</a>
</g>
</g>
<!-- Node7&#45;&gt;Node10 -->
<g id="edge11" class="edge">
<title>Node7&#45;&gt;Node10</title>
<path fill="none" stroke="#63b8ff" d="M780.52,-302.01C773.22,-300.08 765.38,-298.24 758,-297 535.68,-259.52 476.42,-282.6 252,-261 250.99,-260.9 249.97,-260.8 248.94,-260.7"/>
<polygon fill="#63b8ff" stroke="#63b8ff" points="249.57,-257.25 239.26,-259.68 248.84,-264.21 249.57,-257.25"/>
</g>
<!-- Node11 -->
<g id="node11" class="node">
<title>Node11</title>
<g id="a_node11"><a xlink:href="OSError_8h.html" target="_top" xlink:title=" ">
<polygon fill="white" stroke="#666666" points="106,-206 0,-206 0,-187 106,-187 106,-206"/>
<text text-anchor="middle" x="53" y="-194" font-family="Helvetica,sans-Serif" font-size="10.00">dolphin/os/OSError.h</text>
</a>
</g>
</g>
<!-- Node7&#45;&gt;Node11 -->
<g id="edge25" class="edge">
<title>Node7&#45;&gt;Node11</title>
<path fill="none" stroke="#63b8ff" d="M781.08,-302.03C773.63,-300.05 765.57,-298.19 758,-297 675.47,-284.07 64.64,-321.47 7,-261 -7.32,-245.98 11.72,-226.33 29.47,-212.9"/>
<polygon fill="#63b8ff" stroke="#63b8ff" points="31.11,-216.03 37.22,-207.37 27.05,-210.33 31.11,-216.03"/>
</g>
<!-- Node12 -->
<g id="node12" class="node">
<title>Node12</title>
<g id="a_node12"><a xlink:href="OSTime_8h.html" target="_top" xlink:title=" ">
<polygon fill="white" stroke="#666666" points="231.5,-206 124.5,-206 124.5,-187 231.5,-187 231.5,-206"/>
<text text-anchor="middle" x="178" y="-194" font-family="Helvetica,sans-Serif" font-size="10.00">dolphin/os/OSTime.h</text>
</a>
</g>
</g>
<!-- Node7&#45;&gt;Node12 -->
<g id="edge50" class="edge">
<title>Node7&#45;&gt;Node12</title>
<path fill="none" stroke="#63b8ff" d="M780.51,-302.04C773.21,-300.11 765.37,-298.26 758,-297 552.39,-261.73 489.53,-321.91 290,-261 271.9,-255.47 228.73,-229.47 201.58,-212.5"/>
<polygon fill="#63b8ff" stroke="#63b8ff" points="203.65,-209.67 193.33,-207.3 199.93,-215.59 203.65,-209.67"/>
</g>
<!-- Node13 -->
<g id="node13" class="node">
<title>Node13</title>
<g id="a_node13"><a xlink:href="OSAlloc_8h.html" target="_top" xlink:title=" ">
<polygon fill="white" stroke="#666666" points="315.5,-145.5 208.5,-145.5 208.5,-126.5 315.5,-126.5 315.5,-145.5"/>
<text text-anchor="middle" x="262" y="-133.5" font-family="Helvetica,sans-Serif" font-size="10.00">dolphin/os/OSAlloc.h</text>
</a>
</g>
</g>
<!-- Node7&#45;&gt;Node13 -->
<g id="edge16" class="edge">
<title>Node7&#45;&gt;Node13</title>
<path fill="none" stroke="#63b8ff" d="M780.23,-302.03C773.01,-300.12 765.27,-298.29 758,-297 579.64,-265.33 521.08,-326.01 352,-261 314.08,-246.42 301.38,-239.9 279,-206 269.33,-191.35 265.16,-171.66 263.36,-157.07"/>
<polygon fill="#63b8ff" stroke="#63b8ff" points="266.86,-156.95 262.45,-147.31 259.89,-157.6 266.86,-156.95"/>
</g>
<!-- Node14 -->
<g id="node14" class="node">
<title>Node14</title>
<g id="a_node14"><a xlink:href="OSArena_8h.html" target="_top" xlink:title=" ">
<polygon fill="white" stroke="#666666" points="399.5,-206 288.5,-206 288.5,-187 399.5,-187 399.5,-206"/>
<text text-anchor="middle" x="344" y="-194" font-family="Helvetica,sans-Serif" font-size="10.00">dolphin/os/OSArena.h</text>
</a>
</g>
</g>
<!-- Node7&#45;&gt;Node14 -->
<g id="edge18" class="edge">
<title>Node7&#45;&gt;Node14</title>
<path fill="none" stroke="#63b8ff" d="M780.23,-302.05C773,-300.14 765.27,-298.31 758,-297 672.77,-281.69 439.59,-312.53 370,-261 356.23,-250.8 349.72,-232.01 346.67,-217.51"/>
<polygon fill="#63b8ff" stroke="#63b8ff" points="350.13,-216.97 345.02,-207.68 343.22,-218.12 350.13,-216.97"/>
</g>
<!-- Node15 -->
<g id="node15" class="node">
<title>Node15</title>
<g id="a_node15"><a xlink:href="OSAudioSystem_8h.html" target="_top" xlink:title=" ">
<polygon fill="white" stroke="#666666" points="1267.5,-261 1124.5,-261 1124.5,-242 1267.5,-242 1267.5,-261"/>
<text text-anchor="middle" x="1196" y="-249" font-family="Helvetica,sans-Serif" font-size="10.00">dolphin/os/OSAudioSystem.h</text>
</a>
</g>
</g>
<!-- Node7&#45;&gt;Node15 -->
<g id="edge20" class="edge">
<title>Node7&#45;&gt;Node15</title>
<path fill="none" stroke="#63b8ff" d="M853.16,-304.46C919.16,-294.46 1045.87,-275.25 1125.39,-263.2"/>
<polygon fill="#63b8ff" stroke="#63b8ff" points="1125.91,-266.66 1135.27,-261.7 1124.86,-259.74 1125.91,-266.66"/>
</g>
<!-- Node16 -->
<g id="node16" class="node">
<title>Node16</title>
<g id="a_node16"><a xlink:href="OSCache_8h.html" target="_top" xlink:title=" ">
<polygon fill="white" stroke="#666666" points="485.5,-145.5 372.5,-145.5 372.5,-126.5 485.5,-126.5 485.5,-145.5"/>
<text text-anchor="middle" x="429" y="-133.5" font-family="Helvetica,sans-Serif" font-size="10.00">dolphin/os/OSCache.h</text>
</a>
</g>
</g>
<!-- Node7&#45;&gt;Node16 -->
<g id="edge21" class="edge">
<title>Node7&#45;&gt;Node16</title>
<path fill="none" stroke="#63b8ff" d="M779.65,-302.05C772.59,-300.18 765.07,-298.37 758,-297 692.52,-284.3 510.02,-305.13 460,-261 430.41,-234.89 426.97,-185.22 427.63,-157.32"/>
<polygon fill="#63b8ff" stroke="#63b8ff" points="431.12,-157.55 428.09,-147.39 424.13,-157.22 431.12,-157.55"/>
</g>
<!-- Node17 -->
<g id="node17" class="node">
<title>Node17</title>
<g id="a_node17"><a xlink:href="OSContext_8h.html" target="_top" xlink:title=" ">
<polygon fill="white" stroke="#666666" points="622.5,-145.5 503.5,-145.5 503.5,-126.5 622.5,-126.5 622.5,-145.5"/>
<text text-anchor="middle" x="563" y="-133.5" font-family="Helvetica,sans-Serif" font-size="10.00">dolphin/os/OSContext.h</text>
</a>
</g>
</g>
<!-- Node7&#45;&gt;Node17 -->
<g id="edge23" class="edge">
<title>Node7&#45;&gt;Node17</title>
<path fill="none" stroke="#63b8ff" d="M779.64,-302.07C772.58,-300.2 765.06,-298.39 758,-297 694.71,-284.59 512.68,-309.35 470,-261 456.53,-245.74 466.81,-211.77 485,-187 496.56,-171.26 514.7,-159.2 530.58,-150.88"/>
<polygon fill="#63b8ff" stroke="#63b8ff" points="531.81,-154.17 539.23,-146.61 528.72,-147.89 531.81,-154.17"/>
</g>
<!-- Node18 -->
<g id="node18" class="node">
<title>Node18</title>
<g id="a_node18"><a xlink:href="OSExec_8h.html" target="_top" xlink:title=" ">
<polygon fill="white" stroke="#666666" points="761.5,-145.5 654.5,-145.5 654.5,-126.5 761.5,-126.5 761.5,-145.5"/>
<text text-anchor="middle" x="708" y="-133.5" font-family="Helvetica,sans-Serif" font-size="10.00">dolphin/os/OSExec.h</text>
</a>
</g>
</g>
<!-- Node7&#45;&gt;Node18 -->
<g id="edge26" class="edge">
<title>Node7&#45;&gt;Node18</title>
<path fill="none" stroke="#63b8ff" d="M804.82,-302.11C795.96,-287.6 776.53,-258.78 753,-242 715.9,-215.54 682.96,-243.45 657,-206 643.99,-187.23 664.85,-166.2 683.67,-152.35"/>
<polygon fill="#63b8ff" stroke="#63b8ff" points="685.66,-155.23 691.9,-146.67 681.68,-149.47 685.66,-155.23"/>
</g>
<!-- Node19 -->
<g id="node19" class="node">
<title>Node19</title>
<g id="a_node19"><a xlink:href="OSFont_8h.html" target="_top" xlink:title=" ">
<polygon fill="white" stroke="#666666" points="771.5,-206 666.5,-206 666.5,-187 771.5,-187 771.5,-206"/>
<text text-anchor="middle" x="719" y="-194" font-family="Helvetica,sans-Serif" font-size="10.00">dolphin/os/OSFont.h</text>
</a>
</g>
</g>
<!-- Node7&#45;&gt;Node19 -->
<g id="edge28" class="edge">
<title>Node7&#45;&gt;Node19</title>
<path fill="none" stroke="#63b8ff" d="M808.77,-302.07C806.44,-288.02 800.3,-260.44 786,-242 776.28,-229.46 761.99,-219.29 749.1,-211.85"/>
<polygon fill="#63b8ff" stroke="#63b8ff" points="750.97,-208.88 740.51,-207.2 747.63,-215.04 750.97,-208.88"/>
</g>
<!-- Node20 -->
<g id="node20" class="node">
<title>Node20</title>
<g id="a_node20"><a xlink:href="OSLink_8h.html" target="_top" xlink:title=" ">
<polygon fill="white" stroke="#666666" points="894,-206 790,-206 790,-187 894,-187 894,-206"/>
<text text-anchor="middle" x="842" y="-194" font-family="Helvetica,sans-Serif" font-size="10.00">dolphin/os/OSLink.h</text>
</a>
</g>
</g>
<!-- Node7&#45;&gt;Node20 -->
<g id="edge31" class="edge">
<title>Node7&#45;&gt;Node20</title>
<path fill="none" stroke="#63b8ff" d="M812.51,-302.09C817.63,-283.94 829.37,-242.29 836.4,-217.37"/>
<polygon fill="#63b8ff" stroke="#63b8ff" points="839.74,-218.4 839.09,-207.82 833.01,-216.5 839.74,-218.4"/>
</g>
<!-- Node21 -->
<g id="node21" class="node">
<title>Node21</title>
<g id="a_node21"><a xlink:href="OSMemory_8h.html" target="_top" xlink:title=" ">
<polygon fill="white" stroke="#666666" points="1569,-261 1449,-261 1449,-242 1569,-242 1569,-261"/>
<text text-anchor="middle" x="1509" y="-249" font-family="Helvetica,sans-Serif" font-size="10.00">dolphin/os/OSMemory.h</text>
</a>
</g>
</g>
<!-- Node7&#45;&gt;Node21 -->
<g id="edge33" class="edge">
<title>Node7&#45;&gt;Node21</title>
<path fill="none" stroke="#63b8ff" d="M853.24,-308.06C954.84,-301.03 1216.69,-282.26 1435,-261 1435.84,-260.92 1436.69,-260.83 1437.55,-260.75"/>
<polygon fill="#63b8ff" stroke="#63b8ff" points="1437.75,-264.25 1447.34,-259.74 1437.03,-257.28 1437.75,-264.25"/>
</g>
<!-- Node22 -->
<g id="node22" class="node">
<title>Node22</title>
<g id="a_node22"><a xlink:href="OSMessage_8h.html" target="_top" xlink:title=" ">
<polygon fill="white" stroke="#666666" points="613.5,-261 488.5,-261 488.5,-242 613.5,-242 613.5,-261"/>
<text text-anchor="middle" x="551" y="-249" font-family="Helvetica,sans-Serif" font-size="10.00">dolphin/os/OSMessage.h</text>
</a>
</g>
</g>
<!-- Node7&#45;&gt;Node22 -->
<g id="edge35" class="edge">
<title>Node7&#45;&gt;Node22</title>
<path fill="none" stroke="#63b8ff" d="M777.61,-302.01C771.13,-300.28 764.36,-298.54 758,-297 707.11,-284.69 648.77,-272.3 607.02,-263.73"/>
<polygon fill="#63b8ff" stroke="#63b8ff" points="607.95,-260.35 597.45,-261.78 606.55,-267.21 607.95,-260.35"/>
</g>
<!-- Node23 -->
<g id="node23" class="node">
<title>Node23</title>
<g id="a_node23"><a xlink:href="OSThread_8h.html" target="_top" xlink:title=" ">
<polygon fill="white" stroke="#666666" points="610,-206 494,-206 494,-187 610,-187 610,-206"/>
<text text-anchor="middle" x="552" y="-194" font-family="Helvetica,sans-Serif" font-size="10.00">dolphin/os/OSThread.h</text>
</a>
</g>
</g>
<!-- Node7&#45;&gt;Node23 -->
<g id="edge49" class="edge">
<title>Node7&#45;&gt;Node23</title>
<path fill="none" stroke="#63b8ff" d="M779.37,-302.02C772.38,-300.18 764.97,-298.38 758,-297 696.68,-284.85 520.28,-307.95 479,-261 462.06,-241.73 491.31,-222.85 517.67,-210.76"/>
<polygon fill="#63b8ff" stroke="#63b8ff" points="518.74,-214.11 526.52,-206.92 515.95,-207.69 518.74,-214.11"/>
</g>
<!-- Node24 -->
<g id="node24" class="node">
<title>Node24</title>
<g id="a_node24"><a xlink:href="OSMutex_8h.html" target="_top" xlink:title=" ">
<polygon fill="white" stroke="#666666" points="744,-261 632,-261 632,-242 744,-242 744,-261"/>
<text text-anchor="middle" x="688" y="-249" font-family="Helvetica,sans-Serif" font-size="10.00">dolphin/os/OSMutex.h</text>
</a>
</g>
</g>
<!-- Node7&#45;&gt;Node24 -->
<g id="edge38" class="edge">
<title>Node7&#45;&gt;Node24</title>
<path fill="none" stroke="#63b8ff" d="M791.47,-302.12C771.68,-292.62 740.03,-277.45 716.95,-266.38"/>
<polygon fill="#63b8ff" stroke="#63b8ff" points="718.6,-263.29 708.07,-262.12 715.57,-269.6 718.6,-263.29"/>
</g>
<!-- Node25 -->
<g id="node25" class="node">
<title>Node25</title>
<g id="a_node25"><a xlink:href="OSReboot_8h.html" target="_top" xlink:title=" ">
<polygon fill="white" stroke="#666666" points="992,-261 876,-261 876,-242 992,-242 992,-261"/>
<text text-anchor="middle" x="934" y="-249" font-family="Helvetica,sans-Serif" font-size="10.00">dolphin/os/OSReboot.h</text>
</a>
</g>
</g>
<!-- Node7&#45;&gt;Node25 -->
<g id="edge40" class="edge">
<title>Node7&#45;&gt;Node25</title>
<path fill="none" stroke="#63b8ff" d="M828.83,-302.12C848.95,-292.62 881.11,-277.45 904.58,-266.38"/>
<polygon fill="#63b8ff" stroke="#63b8ff" points="906.07,-269.55 913.62,-262.11 903.08,-263.22 906.07,-269.55"/>
</g>
<!-- Node26 -->
<g id="node26" class="node">
<title>Node26</title>
<g id="a_node26"><a xlink:href="OSReset_8h.html" target="_top" xlink:title=" ">
<polygon fill="white" stroke="#666666" points="1061.5,-206 950.5,-206 950.5,-187 1061.5,-187 1061.5,-206"/>
<text text-anchor="middle" x="1006" y="-194" font-family="Helvetica,sans-Serif" font-size="10.00">dolphin/os/OSReset.h</text>
</a>
</g>
</g>
<!-- Node7&#45;&gt;Node26 -->
<g id="edge42" class="edge">
<title>Node7&#45;&gt;Node26</title>
<path fill="none" stroke="#63b8ff" d="M853.41,-305.49C903.75,-298.15 982.25,-283.41 1001,-261 1010.89,-249.18 1011.49,-231.42 1009.99,-217.68"/>
<polygon fill="#63b8ff" stroke="#63b8ff" points="1013.48,-217.31 1008.46,-207.98 1006.56,-218.4 1013.48,-217.31"/>
</g>
<!-- Node27 -->
<g id="node27" class="node">
<title>Node27</title>
<g id="a_node27"><a xlink:href="OSResetSW_8h.html" target="_top" xlink:title=" ">
<polygon fill="white" stroke="#666666" points="1115.5,-145.5 988.5,-145.5 988.5,-126.5 1115.5,-126.5 1115.5,-145.5"/>
<text text-anchor="middle" x="1052" y="-133.5" font-family="Helvetica,sans-Serif" font-size="10.00">dolphin/os/OSResetSW.h</text>
</a>
</g>
</g>
<!-- Node7&#45;&gt;Node27 -->
<g id="edge44" class="edge">
<title>Node7&#45;&gt;Node27</title>
<path fill="none" stroke="#63b8ff" d="M853.41,-308.17C897.94,-303.62 967.88,-291.77 1020,-261 1048.45,-244.2 1058.09,-236.81 1070,-206 1076.41,-189.42 1069.96,-169.73 1063.07,-155.63"/>
<polygon fill="#63b8ff" stroke="#63b8ff" points="1066.25,-154.15 1058.4,-147.03 1060.09,-157.48 1066.25,-154.15"/>
</g>
<!-- Node28 -->
<g id="node28" class="node">
<title>Node28</title>
<g id="a_node28"><a xlink:href="OSRtc_8h.html" target="_top" xlink:title=" ">
<polygon fill="white" stroke="#666666" points="1234.5,-145.5 1133.5,-145.5 1133.5,-126.5 1234.5,-126.5 1234.5,-145.5"/>
<text text-anchor="middle" x="1184" y="-133.5" font-family="Helvetica,sans-Serif" font-size="10.00">dolphin/os/OSRtc.h</text>
</a>
</g>
</g>
<!-- Node7&#45;&gt;Node28 -->
<g id="edge46" class="edge">
<title>Node7&#45;&gt;Node28</title>
<path fill="none" stroke="#63b8ff" d="M853.09,-308.76C902.59,-304.69 985.05,-293.23 1048,-261 1100.18,-234.29 1147.42,-182.17 1170,-154.79"/>
<polygon fill="#63b8ff" stroke="#63b8ff" points="1172.66,-157.07 1176.22,-147.09 1167.21,-152.67 1172.66,-157.07"/>
</g>
<!-- Node29 -->
<g id="node29" class="node">
<title>Node29</title>
<g id="a_node29"><a xlink:href="OSSync_8h.html" target="_top" xlink:title=" ">
<polygon fill="white" stroke="#666666" points="1392.5,-261 1285.5,-261 1285.5,-242 1392.5,-242 1392.5,-261"/>
<text text-anchor="middle" x="1339" y="-249" font-family="Helvetica,sans-Serif" font-size="10.00">dolphin/os/OSSync.h</text>
</a>
</g>
</g>
<!-- Node7&#45;&gt;Node29 -->
<g id="edge48" class="edge">
<title>Node7&#45;&gt;Node29</title>
<path fill="none" stroke="#63b8ff" d="M853.41,-306.74C934,-298.75 1112.45,-280.64 1273.95,-261.22"/>
<polygon fill="#63b8ff" stroke="#63b8ff" points="1274.05,-264.73 1283.55,-260.06 1273.21,-257.78 1274.05,-264.73"/>
</g>
<!-- Node8&#45;&gt;Node5 -->
<g id="edge8" class="edge">
<title>Node8&#45;&gt;Node5</title>
<path fill="none" stroke="#63b8ff" d="M1416.72,-127.55C1398.95,-125.28 1379.16,-122.89 1361,-121 1181.43,-102.31 967.7,-86.71 871.05,-80.02"/>
<polygon fill="#63b8ff" stroke="#63b8ff" points="871.58,-76.54 861.36,-79.35 871.1,-83.53 871.58,-76.54"/>
</g>
<!-- Node9&#45;&gt;Node5 -->
<g id="edge10" class="edge">
<title>Node9&#45;&gt;Node5</title>
<path fill="none" stroke="#63b8ff" d="M1568.33,-126.03C1557.78,-124.12 1546.52,-122.29 1536,-121 1288.31,-90.61 989.8,-80.54 871.22,-77.59"/>
<polygon fill="#63b8ff" stroke="#63b8ff" points="871.58,-74.1 861.5,-77.36 871.41,-81.1 871.58,-74.1"/>
</g>
<!-- Node10&#45;&gt;Node11 -->
<g id="edge12" class="edge">
<title>Node10&#45;&gt;Node11</title>
<path fill="none" stroke="#63b8ff" d="M160.12,-241.51C139.51,-233.04 108.41,-220.27 85.02,-210.66"/>
<polygon fill="#63b8ff" stroke="#63b8ff" points="86.54,-207.5 75.96,-206.93 83.88,-213.97 86.54,-207.5"/>
</g>
<!-- Node10&#45;&gt;Node12 -->
<g id="edge14" class="edge">
<title>Node10&#45;&gt;Node12</title>
<path fill="none" stroke="#63b8ff" d="M181.34,-241.75C180.85,-235.27 180.16,-226.16 179.54,-217.9"/>
<polygon fill="#63b8ff" stroke="#63b8ff" points="183.03,-217.66 178.79,-207.95 176.05,-218.19 183.03,-217.66"/>
</g>
<!-- Node11&#45;&gt;Node5 -->
<g id="edge13" class="edge">
<title>Node11&#45;&gt;Node5</title>
<path fill="none" stroke="#63b8ff" d="M63.85,-186.58C84.54,-170.15 131.71,-135.49 178,-121 287.41,-86.75 634.36,-78.81 766.87,-77.01"/>
<polygon fill="#63b8ff" stroke="#63b8ff" points="766.8,-80.51 776.76,-76.89 766.71,-73.51 766.8,-80.51"/>
</g>
<!-- Node12&#45;&gt;Node5 -->
<g id="edge15" class="edge">
<title>Node12&#45;&gt;Node5</title>
<path fill="none" stroke="#63b8ff" d="M177.53,-186.67C177.21,-170.71 179.1,-137.22 199,-121 242.53,-85.52 625.15,-78.32 766.67,-76.86"/>
<polygon fill="#63b8ff" stroke="#63b8ff" points="766.55,-80.37 776.51,-76.77 766.48,-73.37 766.55,-80.37"/>
</g>
<!-- Node13&#45;&gt;Node5 -->
<g id="edge17" class="edge">
<title>Node13&#45;&gt;Node5</title>
<path fill="none" stroke="#63b8ff" d="M301.78,-126.03C311.01,-124.17 320.82,-122.36 330,-121 488.18,-97.59 677.09,-84.6 766.78,-79.32"/>
<polygon fill="#63b8ff" stroke="#63b8ff" points="766.95,-82.82 776.73,-78.74 766.55,-75.83 766.95,-82.82"/>
</g>
<!-- Node14&#45;&gt;Node5 -->
<g id="edge19" class="edge">
<title>Node14&#45;&gt;Node5</title>
<path fill="none" stroke="#63b8ff" d="M343.31,-186.74C342.6,-170.9 343.65,-137.6 363,-121 393.13,-95.14 653.7,-82.55 766.88,-78.26"/>
<polygon fill="#63b8ff" stroke="#63b8ff" points="766.95,-81.76 776.81,-77.89 766.69,-74.76 766.95,-81.76"/>
</g>
<!-- Node16&#45;&gt;Node5 -->
<g id="edge22" class="edge">
<title>Node16&#45;&gt;Node5</title>
<path fill="none" stroke="#63b8ff" d="M468.44,-126C476.85,-124.23 485.7,-122.46 494,-121 589.9,-104.13 702.68,-89.94 767.01,-82.38"/>
<polygon fill="#63b8ff" stroke="#63b8ff" points="767.03,-85.9 776.55,-81.27 766.21,-78.95 767.03,-85.9"/>
</g>
<!-- Node17&#45;&gt;Node5 -->
<g id="edge24" class="edge">
<title>Node17&#45;&gt;Node5</title>
<path fill="none" stroke="#63b8ff" d="M602.16,-126.05C646.86,-115.84 720.08,-99.1 768.91,-87.95"/>
<polygon fill="#63b8ff" stroke="#63b8ff" points="769.4,-91.42 778.37,-85.78 767.84,-84.6 769.4,-91.42"/>
</g>
<!-- Node18&#45;&gt;Node5 -->
<g id="edge27" class="edge">
<title>Node18&#45;&gt;Node5</title>
<path fill="none" stroke="#63b8ff" d="M724.86,-126.12C742.62,-116.75 770.88,-101.86 791.8,-90.83"/>
<polygon fill="#63b8ff" stroke="#63b8ff" points="793.43,-93.93 800.64,-86.17 790.17,-87.74 793.43,-93.93"/>
</g>
<!-- Node19&#45;&gt;Node5 -->
<g id="edge29" class="edge">
<title>Node19&#45;&gt;Node5</title>
<path fill="none" stroke="#63b8ff" d="M730.75,-186.76C741.64,-178.31 757.95,-164.81 770,-151 785.38,-133.37 799.68,-110.6 808.81,-94.89"/>
<polygon fill="#63b8ff" stroke="#63b8ff" points="811.62,-97.04 813.51,-86.61 805.53,-93.58 811.62,-97.04"/>
</g>
<!-- Node20&#45;&gt;Node5 -->
<g id="edge32" class="edge">
<title>Node20&#45;&gt;Node5</title>
<path fill="none" stroke="#63b8ff" d="M840.27,-186.56C836.59,-167.51 827.9,-122.56 822.84,-96.37"/>
<polygon fill="#63b8ff" stroke="#63b8ff" points="826.31,-95.86 820.97,-86.71 819.43,-97.19 826.31,-95.86"/>
</g>
<!-- Node21&#45;&gt;Node4 -->
<g id="edge34" class="edge">
<title>Node21&#45;&gt;Node4</title>
<path fill="none" stroke="#63b8ff" d="M1501.73,-241.75C1495.72,-234.5 1486.99,-223.98 1479.54,-215.02"/>
<polygon fill="#63b8ff" stroke="#63b8ff" points="1482.47,-213.07 1473.39,-207.61 1477.08,-217.54 1482.47,-213.07"/>
</g>
<!-- Node22&#45;&gt;Node23 -->
<g id="edge36" class="edge">
<title>Node22&#45;&gt;Node23</title>
<path fill="none" stroke="#63b8ff" d="M551.17,-241.75C551.29,-235.27 551.46,-226.16 551.62,-217.9"/>
<polygon fill="#63b8ff" stroke="#63b8ff" points="555.11,-218.02 551.8,-207.96 548.11,-217.89 555.11,-218.02"/>
</g>
<!-- Node23&#45;&gt;Node17 -->
<g id="edge37" class="edge">
<title>Node23&#45;&gt;Node17</title>
<path fill="none" stroke="#63b8ff" d="M553.62,-186.87C555.1,-179 557.34,-167.1 559.26,-156.89"/>
<polygon fill="#63b8ff" stroke="#63b8ff" points="562.68,-157.63 561.09,-147.15 555.8,-156.34 562.68,-157.63"/>
</g>
<!-- Node24&#45;&gt;Node23 -->
<g id="edge39" class="edge">
<title>Node24&#45;&gt;Node23</title>
<path fill="none" stroke="#63b8ff" d="M664.93,-241.51C643.11,-233.01 610.12,-220.15 585.42,-210.53"/>
<polygon fill="#63b8ff" stroke="#63b8ff" points="586.73,-207.28 576.14,-206.91 584.19,-213.8 586.73,-207.28"/>
</g>
<!-- Node25&#45;&gt;Node5 -->
<g id="edge41" class="edge">
<title>Node25&#45;&gt;Node5</title>
<path fill="none" stroke="#63b8ff" d="M930.31,-241.59C924.97,-229.03 914.45,-205.59 903,-187 881.52,-152.13 851.53,-114.85 833.81,-93.74"/>
<polygon fill="#63b8ff" stroke="#63b8ff" points="836.71,-91.75 827.58,-86.39 831.38,-96.28 836.71,-91.75"/>
</g>
<!-- Node26&#45;&gt;Node5 -->
<g id="edge43" class="edge">
<title>Node26&#45;&gt;Node5</title>
<path fill="none" stroke="#63b8ff" d="M1000.03,-186.94C989.01,-171.71 964.02,-139.76 936,-121 914.6,-106.67 887.95,-96.08 865.49,-88.83"/>
<polygon fill="#63b8ff" stroke="#63b8ff" points="866.54,-85.49 855.96,-85.88 864.48,-92.18 866.54,-85.49"/>
</g>
<!-- Node27&#45;&gt;Node5 -->
<g id="edge45" class="edge">
<title>Node27&#45;&gt;Node5</title>
<path fill="none" stroke="#63b8ff" d="M1016.36,-126.05C976.02,-115.92 910.15,-99.39 865.72,-88.23"/>
<polygon fill="#63b8ff" stroke="#63b8ff" points="866.66,-84.86 856.11,-85.82 864.95,-91.65 866.66,-84.86"/>
</g>
<!-- Node28&#45;&gt;Node5 -->
<g id="edge47" class="edge">
<title>Node28&#45;&gt;Node5</title>
<path fill="none" stroke="#63b8ff" d="M1147.93,-126.07C1140.07,-124.26 1131.78,-122.47 1124,-121 1035.58,-104.27 931.72,-90.31 870.85,-82.71"/>
<polygon fill="#63b8ff" stroke="#63b8ff" points="871.49,-79.26 861.14,-81.51 870.63,-86.21 871.49,-79.26"/>
</g>
<!-- Node31 -->
<g id="node31" class="node">
<title>Node31</title>
<g id="a_node31"><a xlink:href="dsp_8h.html" target="_top" xlink:title=" ">
<polygon fill="white" stroke="#666666" points="108,-261 16,-261 16,-242 108,-242 108,-261"/>
<text text-anchor="middle" x="62" y="-249" font-family="Helvetica,sans-Serif" font-size="10.00">dolphin/dsp/dsp.h</text>
</a>
</g>
</g>
<!-- Node30&#45;&gt;Node31 -->
<g id="edge52" class="edge">
<title>Node30&#45;&gt;Node31</title>
<path fill="none" stroke="#63b8ff" d="M652.54,-302.03C643.24,-300.12 633.3,-298.3 624,-297 403.87,-266.33 343.42,-285.63 119.6,-261.19"/>
<polygon fill="#63b8ff" stroke="#63b8ff" points="120.3,-257.75 109.98,-260.13 119.53,-264.71 120.3,-257.75"/>
</g>
<!-- Node31&#45;&gt;Node12 -->
<g id="edge53" class="edge">
<title>Node31&#45;&gt;Node12</title>
<path fill="none" stroke="#63b8ff" d="M81.68,-241.51C99.95,-233.16 127.41,-220.61 148.35,-211.05"/>
<polygon fill="#63b8ff" stroke="#63b8ff" points="149.6,-214.33 157.24,-206.99 146.69,-207.96 149.6,-214.33"/>
</g>
</g>
</svg>
