<?xml version="1.0" encoding="UTF-8" standalone="no"?>
<!DOCTYPE svg PUBLIC "-//W3C//DTD SVG 1.1//EN"
 "http://www.w3.org/Graphics/SVG/1.1/DTD/svg11.dtd">
<!-- Generated by graphviz version 7.0.5 (20221223.1930)
 -->
<!-- Title: libs/dolphin/os/OSFont.c Pages: 1 -->
<!--zoomable 379 -->
<svg id="main" version="1.1" xmlns="http://www.w3.org/2000/svg" xmlns:xlink="http://www.w3.org/1999/xlink" xml:space="preserve" onload="init(evt)">
<style type="text/css"><![CDATA[
.edge:hover path { stroke: red; }
.edge:hover polygon { stroke: red; fill: red; }
]]></style>
<script type="text/javascript"><![CDATA[
var edges = document.getElementsByTagName('g');
if (edges && edges.length) {
  for (var i=0;i<edges.length;i++) {
    if (edges[i].id.substr(0,4)=='edge') {
      edges[i].setAttribute('class','edge');
    }
  }
}
]]></script>
        <defs>
                <circle id="rim" cx="0" cy="0" r="7"/>
                <circle id="rim2" cx="0" cy="0" r="3.5"/>
                <g id="zoomPlus">
                        <use xlink:href="#rim" fill="#404040">
                                <set attributeName="fill" to="#808080" begin="zoomplus.mouseover" end="zoomplus.mouseout"/>
                        </use>
                        <path d="M-4,0h8M0,-4v8" fill="none" stroke="white" stroke-width="1.5" pointer-events="none"/>
                </g>
                <g id="zoomMin">
                        <use xlink:href="#rim" fill="#404040">
                                <set attributeName="fill" to="#808080" begin="zoomminus.mouseover" end="zoomminus.mouseout"/>
                        </use>
                        <path d="M-4,0h8" fill="none" stroke="white" stroke-width="1.5" pointer-events="none"/>
                </g>
                <g id="dirArrow">
                        <path fill="none" stroke="white" stroke-width="1.5" d="M0,-3.0v7 M-2.5,-0.5L0,-3.0L2.5,-0.5"/>
                </g>
               <g id="resetDef">
                       <use xlink:href="#rim2" fill="#404040">
                               <set attributeName="fill" to="#808080" begin="reset.mouseover" end="reset.mouseout"/>
                       </use>
               </g>
        </defs>

<script type="text/javascript">
var viewWidth = 1754;
var viewHeight = 379;
var sectionId = 'dynsection-0';
</script>
<script xlink:href="svgpan.js"/>
<svg id="graph" class="graph">
<g id="viewport">
<title>libs/dolphin/os/OSFont.c</title>
<!-- Node1 -->
<g id="node1" class="node">
<title>Node1</title>
<g id="a_node1"><a xlink:title=" ">
<polygon fill="#999999" stroke="#666666" points="891,-371 768,-371 768,-352 891,-352 891,-371"/>
<text text-anchor="middle" x="829.5" y="-359" font-family="Helvetica,sans-Serif" font-size="10.00">libs/dolphin/os/OSFont.c</text>
</a>
</g>
</g>
<!-- Node2 -->
<g id="node2" class="node">
<title>Node2</title>
<g id="a_node2"><a xlink:href="OSFont_8h.html" target="_top" xlink:title=" ">
<polygon fill="white" stroke="#666666" points="105,-261 0,-261 0,-242 105,-242 105,-261"/>
<text text-anchor="middle" x="52.5" y="-249" font-family="Helvetica,sans-Serif" font-size="10.00">dolphin/os/OSFont.h</text>
</a>
</g>
</g>
<!-- Node1&#45;&gt;Node2 -->
<g id="edge1" class="edge">
<title>Node1&#45;&gt;Node2</title>
<path fill="none" stroke="#63b8ff" d="M767.55,-351.89C622.75,-331.76 263.29,-281.8 116.49,-261.39"/>
<polygon fill="#63b8ff" stroke="#63b8ff" points="117.34,-257.98 106.96,-260.07 116.38,-264.91 117.34,-257.98"/>
</g>
<!-- Node5 -->
<g id="node5" class="node">
<title>Node5</title>
<g id="a_node5"><a xlink:href="OS_8h.html" target="_top" xlink:title=" ">
<polygon fill="white" stroke="#666666" points="872.5,-316 786.5,-316 786.5,-297 872.5,-297 872.5,-316"/>
<text text-anchor="middle" x="829.5" y="-304" font-family="Helvetica,sans-Serif" font-size="10.00">dolphin/os/OS.h</text>
</a>
</g>
</g>
<!-- Node1&#45;&gt;Node5 -->
<g id="edge4" class="edge">
<title>Node1&#45;&gt;Node5</title>
<path fill="none" stroke="#63b8ff" d="M829.5,-351.75C829.5,-345.27 829.5,-336.16 829.5,-327.9"/>
<polygon fill="#63b8ff" stroke="#63b8ff" points="833,-327.96 829.5,-317.96 826,-327.96 833,-327.96"/>
</g>
<!-- Node28 -->
<g id="node28" class="node">
<title>Node28</title>
<g id="a_node28"><a xlink:href="vi_8h.html" target="_top" xlink:title=" ">
<polygon fill="white" stroke="#666666" points="1745.5,-145.5 1669.5,-145.5 1669.5,-126.5 1745.5,-126.5 1745.5,-145.5"/>
<text text-anchor="middle" x="1707.5" y="-133.5" font-family="Helvetica,sans-Serif" font-size="10.00">dolphin/vi/vi.h</text>
</a>
</g>
</g>
<!-- Node1&#45;&gt;Node28 -->
<g id="edge49" class="edge">
<title>Node1&#45;&gt;Node28</title>
<path fill="none" stroke="#63b8ff" d="M891.46,-356.76C1053.45,-346.35 1486.16,-314.21 1618.5,-261 1656.52,-245.71 1670.29,-240.44 1692.5,-206 1701.96,-191.34 1705.53,-171.66 1706.85,-157.06"/>
<polygon fill="#63b8ff" stroke="#63b8ff" points="1710.33,-157.5 1707.42,-147.32 1703.34,-157.09 1710.33,-157.5"/>
</g>
<!-- Node3 -->
<g id="node3" class="node">
<title>Node3</title>
<g id="a_node3"><a xlink:href="types_8h.html" target="_top" xlink:title=" ">
<polygon fill="white" stroke="#666666" points="971,-85 890,-85 890,-66 971,-66 971,-85"/>
<text text-anchor="middle" x="930.5" y="-73" font-family="Helvetica,sans-Serif" font-size="10.00">dolphin/types.h</text>
</a>
</g>
</g>
<!-- Node2&#45;&gt;Node3 -->
<g id="edge2" class="edge">
<title>Node2&#45;&gt;Node3</title>
<path fill="none" stroke="#63b8ff" d="M53.01,-241.71C54.21,-228.45 58.2,-203.18 71.5,-187 111.39,-138.46 136.01,-137.95 196.5,-121 325.02,-84.99 733.24,-78.12 878.54,-76.81"/>
<polygon fill="#63b8ff" stroke="#63b8ff" points="878.27,-80.31 888.24,-76.73 878.21,-73.31 878.27,-80.31"/>
</g>
<!-- Node4 -->
<g id="node4" class="node">
<title>Node4</title>
<g id="a_node4"><a xlink:href="stddef_8h.html" target="_top" xlink:title=" ">
<polygon fill="white" stroke="#666666" points="998.5,-30 862.5,-30 862.5,0 998.5,0 998.5,-30"/>
<text text-anchor="start" x="870.5" y="-18" font-family="Helvetica,sans-Serif" font-size="10.00">MSL_C/MSL_Common/Src</text>
<text text-anchor="middle" x="930.5" y="-7" font-family="Helvetica,sans-Serif" font-size="10.00">/stddef.h</text>
</a>
</g>
</g>
<!-- Node3&#45;&gt;Node4 -->
<g id="edge3" class="edge">
<title>Node3&#45;&gt;Node4</title>
<path fill="none" stroke="#63b8ff" d="M930.5,-65.87C930.5,-59.4 930.5,-50.2 930.5,-41.45"/>
<polygon fill="#63b8ff" stroke="#63b8ff" points="934,-41.63 930.5,-31.63 927,-41.63 934,-41.63"/>
</g>
<!-- Node5&#45;&gt;Node2 -->
<g id="edge26" class="edge">
<title>Node5&#45;&gt;Node2</title>
<path fill="none" stroke="#63b8ff" d="M786.2,-303.75C675.22,-299.04 371.56,-284.86 119.5,-261 118.65,-260.92 117.79,-260.84 116.92,-260.75"/>
<polygon fill="#63b8ff" stroke="#63b8ff" points="117.31,-257.27 107,-259.7 116.58,-264.23 117.31,-257.27"/>
</g>
<!-- Node6 -->
<g id="node6" class="node">
<title>Node6</title>
<g id="a_node6"><a xlink:href="____va__arg_8h.html" target="_top" xlink:title=" ">
<polygon fill="white" stroke="#666666" points="1609.5,-151 1499.5,-151 1499.5,-121 1609.5,-121 1609.5,-151"/>
<text text-anchor="start" x="1507.5" y="-139" font-family="Helvetica,sans-Serif" font-size="10.00">Runtime.PPCEABI.H/</text>
<text text-anchor="middle" x="1554.5" y="-128" font-family="Helvetica,sans-Serif" font-size="10.00">__va_arg.h</text>
</a>
</g>
</g>
<!-- Node5&#45;&gt;Node6 -->
<g id="edge5" class="edge">
<title>Node5&#45;&gt;Node6</title>
<path fill="none" stroke="#63b8ff" d="M872.99,-304.48C1026.62,-300.65 1535.87,-286.11 1559.5,-261 1584.28,-234.66 1574.41,-189.54 1564.68,-161.6"/>
<polygon fill="#63b8ff" stroke="#63b8ff" points="1568.07,-160.68 1561.29,-152.54 1561.52,-163.14 1568.07,-160.68"/>
</g>
<!-- Node7 -->
<g id="node7" class="node">
<title>Node7</title>
<g id="a_node7"><a xlink:href="dvd_8h.html" target="_top" xlink:title=" ">
<polygon fill="white" stroke="#666666" points="1683.5,-206 1591.5,-206 1591.5,-187 1683.5,-187 1683.5,-206"/>
<text text-anchor="middle" x="1637.5" y="-194" font-family="Helvetica,sans-Serif" font-size="10.00">dolphin/dvd/dvd.h</text>
</a>
</g>
</g>
<!-- Node5&#45;&gt;Node7 -->
<g id="edge7" class="edge">
<title>Node5&#45;&gt;Node7</title>
<path fill="none" stroke="#63b8ff" d="M872.92,-305.17C1025.4,-303.72 1530.65,-296.28 1593.5,-261 1610.83,-251.27 1622.85,-231.52 1629.89,-216.62"/>
<polygon fill="#63b8ff" stroke="#63b8ff" points="1632.94,-218.36 1633.71,-207.8 1626.52,-215.58 1632.94,-218.36"/>
</g>
<!-- Node8 -->
<g id="node8" class="node">
<title>Node8</title>
<g id="a_node8"><a xlink:href="OSAlarm_8h.html" target="_top" xlink:title=" ">
<polygon fill="white" stroke="#666666" points="273,-261 162,-261 162,-242 273,-242 273,-261"/>
<text text-anchor="middle" x="217.5" y="-249" font-family="Helvetica,sans-Serif" font-size="10.00">dolphin/os/OSAlarm.h</text>
</a>
</g>
</g>
<!-- Node5&#45;&gt;Node8 -->
<g id="edge9" class="edge">
<title>Node5&#45;&gt;Node8</title>
<path fill="none" stroke="#63b8ff" d="M786.24,-302.52C694.31,-296.07 472.78,-279.85 287.5,-261 286.49,-260.9 285.47,-260.79 284.44,-260.68"/>
<polygon fill="#63b8ff" stroke="#63b8ff" points="285.09,-257.23 274.77,-259.63 284.33,-264.19 285.09,-257.23"/>
</g>
<!-- Node9 -->
<g id="node9" class="node">
<title>Node9</title>
<g id="a_node9"><a xlink:href="OSError_8h.html" target="_top" xlink:title=" ">
<polygon fill="white" stroke="#666666" points="186.5,-206 80.5,-206 80.5,-187 186.5,-187 186.5,-206"/>
<text text-anchor="middle" x="133.5" y="-194" font-family="Helvetica,sans-Serif" font-size="10.00">dolphin/os/OSError.h</text>
</a>
</g>
</g>
<!-- Node5&#45;&gt;Node9 -->
<g id="edge23" class="edge">
<title>Node5&#45;&gt;Node9</title>
<path fill="none" stroke="#63b8ff" d="M786.15,-304C640.63,-298.81 177.33,-280.79 152.5,-261 139.55,-250.68 135.16,-231.91 133.79,-217.44"/>
<polygon fill="#63b8ff" stroke="#63b8ff" points="137.3,-217.48 133.31,-207.67 130.31,-217.83 137.3,-217.48"/>
</g>
<!-- Node10 -->
<g id="node10" class="node">
<title>Node10</title>
<g id="a_node10"><a xlink:href="OSTime_8h.html" target="_top" xlink:title=" ">
<polygon fill="white" stroke="#666666" points="312,-206 205,-206 205,-187 312,-187 312,-206"/>
<text text-anchor="middle" x="258.5" y="-194" font-family="Helvetica,sans-Serif" font-size="10.00">dolphin/os/OSTime.h</text>
</a>
</g>
</g>
<!-- Node5&#45;&gt;Node10 -->
<g id="edge48" class="edge">
<title>Node5&#45;&gt;Node10</title>
<path fill="none" stroke="#63b8ff" d="M786.07,-305.3C679.4,-304.23 407.29,-297.85 325.5,-261 303.21,-250.96 283.69,-230.33 271.55,-215.3"/>
<polygon fill="#63b8ff" stroke="#63b8ff" points="274.49,-213.38 265.62,-207.6 268.95,-217.66 274.49,-213.38"/>
</g>
<!-- Node11 -->
<g id="node11" class="node">
<title>Node11</title>
<g id="a_node11"><a xlink:href="OSAlloc_8h.html" target="_top" xlink:title=" ">
<polygon fill="white" stroke="#666666" points="402,-145.5 295,-145.5 295,-126.5 402,-126.5 402,-145.5"/>
<text text-anchor="middle" x="348.5" y="-133.5" font-family="Helvetica,sans-Serif" font-size="10.00">dolphin/os/OSAlloc.h</text>
</a>
</g>
</g>
<!-- Node5&#45;&gt;Node11 -->
<g id="edge14" class="edge">
<title>Node5&#45;&gt;Node11</title>
<path fill="none" stroke="#63b8ff" d="M786.29,-306.28C688.05,-307.25 451.55,-304.83 387.5,-261 354.07,-238.12 348.35,-186.36 347.91,-157.47"/>
<polygon fill="#63b8ff" stroke="#63b8ff" points="351.41,-157.53 347.99,-147.5 344.41,-157.48 351.41,-157.53"/>
</g>
<!-- Node12 -->
<g id="node12" class="node">
<title>Node12</title>
<g id="a_node12"><a xlink:href="OSArena_8h.html" target="_top" xlink:title=" ">
<polygon fill="white" stroke="#666666" points="480,-206 369,-206 369,-187 480,-187 480,-206"/>
<text text-anchor="middle" x="424.5" y="-194" font-family="Helvetica,sans-Serif" font-size="10.00">dolphin/os/OSArena.h</text>
</a>
</g>
</g>
<!-- Node5&#45;&gt;Node12 -->
<g id="edge16" class="edge">
<title>Node5&#45;&gt;Node12</title>
<path fill="none" stroke="#63b8ff" d="M786.36,-304.28C681.95,-300.88 422.32,-289.61 396.5,-261 384.45,-247.65 395.98,-228.27 407.68,-214.44"/>
<polygon fill="#63b8ff" stroke="#63b8ff" points="409.96,-217.13 414.13,-207.39 404.8,-212.4 409.96,-217.13"/>
</g>
<!-- Node13 -->
<g id="node13" class="node">
<title>Node13</title>
<g id="a_node13"><a xlink:href="OSAudioSystem_8h.html" target="_top" xlink:title=" ">
<polygon fill="white" stroke="#666666" points="549,-261 406,-261 406,-242 549,-242 549,-261"/>
<text text-anchor="middle" x="477.5" y="-249" font-family="Helvetica,sans-Serif" font-size="10.00">dolphin/os/OSAudioSystem.h</text>
</a>
</g>
</g>
<!-- Node5&#45;&gt;Node13 -->
<g id="edge18" class="edge">
<title>Node5&#45;&gt;Node13</title>
<path fill="none" stroke="#63b8ff" d="M786.34,-299C727,-290.07 619.51,-273.88 548.3,-263.16"/>
<polygon fill="#63b8ff" stroke="#63b8ff" points="549.11,-259.74 538.7,-261.71 548.06,-266.66 549.11,-259.74"/>
</g>
<!-- Node14 -->
<g id="node14" class="node">
<title>Node14</title>
<g id="a_node14"><a xlink:href="OSCache_8h.html" target="_top" xlink:title=" ">
<polygon fill="white" stroke="#666666" points="611,-206 498,-206 498,-187 611,-187 611,-206"/>
<text text-anchor="middle" x="554.5" y="-194" font-family="Helvetica,sans-Serif" font-size="10.00">dolphin/os/OSCache.h</text>
</a>
</g>
</g>
<!-- Node5&#45;&gt;Node14 -->
<g id="edge19" class="edge">
<title>Node5&#45;&gt;Node14</title>
<path fill="none" stroke="#63b8ff" d="M786.2,-306.13C737.65,-304.89 658.28,-296.85 601.5,-261 584.31,-250.15 571.27,-230.57 563.34,-216.02"/>
<polygon fill="#63b8ff" stroke="#63b8ff" points="566.63,-214.76 558.97,-207.44 560.39,-217.94 566.63,-214.76"/>
</g>
<!-- Node15 -->
<g id="node15" class="node">
<title>Node15</title>
<g id="a_node15"><a xlink:href="OSContext_8h.html" target="_top" xlink:title=" ">
<polygon fill="white" stroke="#666666" points="990,-145.5 871,-145.5 871,-126.5 990,-126.5 990,-145.5"/>
<text text-anchor="middle" x="930.5" y="-133.5" font-family="Helvetica,sans-Serif" font-size="10.00">dolphin/os/OSContext.h</text>
</a>
</g>
</g>
<!-- Node5&#45;&gt;Node15 -->
<g id="edge21" class="edge">
<title>Node5&#45;&gt;Node15</title>
<path fill="none" stroke="#63b8ff" d="M872.84,-305.5C946.19,-304.48 1089.96,-297.71 1121.5,-261 1127,-254.59 1125.8,-249.27 1121.5,-242 1091.34,-191 1026.61,-163.1 980.89,-149.13"/>
<polygon fill="#63b8ff" stroke="#63b8ff" points="982.03,-145.82 971.45,-146.38 980.07,-152.54 982.03,-145.82"/>
</g>
<!-- Node16 -->
<g id="node16" class="node">
<title>Node16</title>
<g id="a_node16"><a xlink:href="OSExec_8h.html" target="_top" xlink:title=" ">
<polygon fill="white" stroke="#666666" points="793,-145.5 686,-145.5 686,-126.5 793,-126.5 793,-145.5"/>
<text text-anchor="middle" x="739.5" y="-133.5" font-family="Helvetica,sans-Serif" font-size="10.00">dolphin/os/OSExec.h</text>
</a>
</g>
</g>
<!-- Node5&#45;&gt;Node16 -->
<g id="edge24" class="edge">
<title>Node5&#45;&gt;Node16</title>
<path fill="none" stroke="#63b8ff" d="M786.31,-301.81C734.75,-296.41 653.12,-284.35 634.5,-261 602.14,-220.42 670.53,-174.12 711.56,-151.28"/>
<polygon fill="#63b8ff" stroke="#63b8ff" points="713.11,-154.43 720.24,-146.59 709.78,-148.27 713.11,-154.43"/>
</g>
<!-- Node17 -->
<g id="node17" class="node">
<title>Node17</title>
<g id="a_node17"><a xlink:href="OSInterrupt_8h.html" target="_top" xlink:title=" ">
<polygon fill="white" stroke="#666666" points="852.5,-206 730.5,-206 730.5,-187 852.5,-187 852.5,-206"/>
<text text-anchor="middle" x="791.5" y="-194" font-family="Helvetica,sans-Serif" font-size="10.00">dolphin/os/OSInterrupt.h</text>
</a>
</g>
</g>
<!-- Node5&#45;&gt;Node17 -->
<g id="edge27" class="edge">
<title>Node5&#45;&gt;Node17</title>
<path fill="none" stroke="#63b8ff" d="M826.39,-296.66C820.32,-279.42 806.77,-240.9 798.46,-217.27"/>
<polygon fill="#63b8ff" stroke="#63b8ff" points="801.78,-216.16 795.16,-207.89 795.17,-218.48 801.78,-216.16"/>
</g>
<!-- Node18 -->
<g id="node18" class="node">
<title>Node18</title>
<g id="a_node18"><a xlink:href="OSLink_8h.html" target="_top" xlink:title=" ">
<polygon fill="white" stroke="#666666" points="1273.5,-261 1169.5,-261 1169.5,-242 1273.5,-242 1273.5,-261"/>
<text text-anchor="middle" x="1221.5" y="-249" font-family="Helvetica,sans-Serif" font-size="10.00">dolphin/os/OSLink.h</text>
</a>
</g>
</g>
<!-- Node5&#45;&gt;Node18 -->
<g id="edge29" class="edge">
<title>Node5&#45;&gt;Node18</title>
<path fill="none" stroke="#63b8ff" d="M872.95,-299.63C942.25,-290.26 1078.14,-271.88 1158.23,-261.05"/>
<polygon fill="#63b8ff" stroke="#63b8ff" points="1158.21,-264.59 1167.65,-259.78 1157.28,-257.65 1158.21,-264.59"/>
</g>
<!-- Node19 -->
<g id="node19" class="node">
<title>Node19</title>
<g id="a_node19"><a xlink:href="OSMemory_8h.html" target="_top" xlink:title=" ">
<polygon fill="white" stroke="#666666" points="763.5,-261 643.5,-261 643.5,-242 763.5,-242 763.5,-261"/>
<text text-anchor="middle" x="703.5" y="-249" font-family="Helvetica,sans-Serif" font-size="10.00">dolphin/os/OSMemory.h</text>
</a>
</g>
</g>
<!-- Node5&#45;&gt;Node19 -->
<g id="edge31" class="edge">
<title>Node5&#45;&gt;Node19</title>
<path fill="none" stroke="#63b8ff" d="M808.13,-296.51C788.09,-288.08 757.9,-275.38 735.09,-265.79"/>
<polygon fill="#63b8ff" stroke="#63b8ff" points="736.53,-262.6 725.95,-261.94 733.81,-269.05 736.53,-262.6"/>
</g>
<!-- Node20 -->
<g id="node20" class="node">
<title>Node20</title>
<g id="a_node20"><a xlink:href="OSMessage_8h.html" target="_top" xlink:title=" ">
<polygon fill="white" stroke="#666666" points="1113,-261 988,-261 988,-242 1113,-242 1113,-261"/>
<text text-anchor="middle" x="1050.5" y="-249" font-family="Helvetica,sans-Serif" font-size="10.00">dolphin/os/OSMessage.h</text>
</a>
</g>
</g>
<!-- Node5&#45;&gt;Node20 -->
<g id="edge33" class="edge">
<title>Node5&#45;&gt;Node20</title>
<path fill="none" stroke="#63b8ff" d="M866.99,-296.51C904.25,-287.57 961.55,-273.83 1002.2,-264.08"/>
<polygon fill="#63b8ff" stroke="#63b8ff" points="1002.82,-267.53 1011.72,-261.8 1001.18,-260.73 1002.82,-267.53"/>
</g>
<!-- Node21 -->
<g id="node21" class="node">
<title>Node21</title>
<g id="a_node21"><a xlink:href="OSThread_8h.html" target="_top" xlink:title=" ">
<polygon fill="white" stroke="#666666" points="987.5,-206 871.5,-206 871.5,-187 987.5,-187 987.5,-206"/>
<text text-anchor="middle" x="929.5" y="-194" font-family="Helvetica,sans-Serif" font-size="10.00">dolphin/os/OSThread.h</text>
</a>
</g>
</g>
<!-- Node5&#45;&gt;Node21 -->
<g id="edge47" class="edge">
<title>Node5&#45;&gt;Node21</title>
<path fill="none" stroke="#63b8ff" d="M830.05,-296.73C831.29,-283.51 835.34,-258.29 848.5,-242 859.64,-228.21 876.26,-218.03 891.54,-210.92"/>
<polygon fill="#63b8ff" stroke="#63b8ff" points="892.65,-214.26 900.44,-207.08 889.87,-207.83 892.65,-214.26"/>
</g>
<!-- Node22 -->
<g id="node22" class="node">
<title>Node22</title>
<g id="a_node22"><a xlink:href="OSMutex_8h.html" target="_top" xlink:title=" ">
<polygon fill="white" stroke="#666666" points="969.5,-261 857.5,-261 857.5,-242 969.5,-242 969.5,-261"/>
<text text-anchor="middle" x="913.5" y="-249" font-family="Helvetica,sans-Serif" font-size="10.00">dolphin/os/OSMutex.h</text>
</a>
</g>
</g>
<!-- Node5&#45;&gt;Node22 -->
<g id="edge36" class="edge">
<title>Node5&#45;&gt;Node22</title>
<path fill="none" stroke="#63b8ff" d="M843.75,-296.51C856.38,-288.54 875.06,-276.75 889.91,-267.38"/>
<polygon fill="#63b8ff" stroke="#63b8ff" points="891.59,-270.46 898.18,-262.17 887.86,-264.54 891.59,-270.46"/>
</g>
<!-- Node23 -->
<g id="node23" class="node">
<title>Node23</title>
<g id="a_node23"><a xlink:href="OSReboot_8h.html" target="_top" xlink:title=" ">
<polygon fill="white" stroke="#666666" points="1178.5,-145.5 1062.5,-145.5 1062.5,-126.5 1178.5,-126.5 1178.5,-145.5"/>
<text text-anchor="middle" x="1120.5" y="-133.5" font-family="Helvetica,sans-Serif" font-size="10.00">dolphin/os/OSReboot.h</text>
</a>
</g>
</g>
<!-- Node5&#45;&gt;Node23 -->
<g id="edge38" class="edge">
<title>Node5&#45;&gt;Node23</title>
<path fill="none" stroke="#63b8ff" d="M872.64,-304.49C980.51,-301.52 1255.26,-291.04 1282.5,-261 1288.17,-254.74 1286.53,-249.42 1282.5,-242 1281.53,-240.21 1188.65,-180.62 1143.98,-152.02"/>
<polygon fill="#63b8ff" stroke="#63b8ff" points="1146.07,-149.2 1135.76,-146.76 1142.3,-155.1 1146.07,-149.2"/>
</g>
<!-- Node24 -->
<g id="node24" class="node">
<title>Node24</title>
<g id="a_node24"><a xlink:href="OSReset_8h.html" target="_top" xlink:title=" ">
<polygon fill="white" stroke="#666666" points="1349,-206 1238,-206 1238,-187 1349,-187 1349,-206"/>
<text text-anchor="middle" x="1293.5" y="-194" font-family="Helvetica,sans-Serif" font-size="10.00">dolphin/os/OSReset.h</text>
</a>
</g>
</g>
<!-- Node5&#45;&gt;Node24 -->
<g id="edge40" class="edge">
<title>Node5&#45;&gt;Node24</title>
<path fill="none" stroke="#63b8ff" d="M872.85,-304.79C986.43,-302.49 1285.94,-293.39 1315.5,-261 1327.02,-248.38 1318.16,-229.42 1308.47,-215.5"/>
<polygon fill="#63b8ff" stroke="#63b8ff" points="1311.31,-213.45 1302.46,-207.62 1305.74,-217.7 1311.31,-213.45"/>
</g>
<!-- Node25 -->
<g id="node25" class="node">
<title>Node25</title>
<g id="a_node25"><a xlink:href="OSResetSW_8h.html" target="_top" xlink:title=" ">
<polygon fill="white" stroke="#666666" points="1362,-145.5 1235,-145.5 1235,-126.5 1362,-126.5 1362,-145.5"/>
<text text-anchor="middle" x="1298.5" y="-133.5" font-family="Helvetica,sans-Serif" font-size="10.00">dolphin/os/OSResetSW.h</text>
</a>
</g>
</g>
<!-- Node5&#45;&gt;Node25 -->
<g id="edge42" class="edge">
<title>Node5&#45;&gt;Node25</title>
<path fill="none" stroke="#63b8ff" d="M872.82,-304.14C987.97,-300.19 1295.39,-287.28 1332.5,-261 1360.83,-240.94 1372.09,-218.5 1357.5,-187 1350.73,-172.39 1337.35,-160.49 1325.05,-151.98"/>
<polygon fill="#63b8ff" stroke="#63b8ff" points="1327.13,-149.16 1316.83,-146.7 1323.35,-155.05 1327.13,-149.16"/>
</g>
<!-- Node26 -->
<g id="node26" class="node">
<title>Node26</title>
<g id="a_node26"><a xlink:href="OSRtc_8h.html" target="_top" xlink:title=" ">
<polygon fill="white" stroke="#666666" points="1481,-145.5 1380,-145.5 1380,-126.5 1481,-126.5 1481,-145.5"/>
<text text-anchor="middle" x="1430.5" y="-133.5" font-family="Helvetica,sans-Serif" font-size="10.00">dolphin/os/OSRtc.h</text>
</a>
</g>
</g>
<!-- Node5&#45;&gt;Node26 -->
<g id="edge44" class="edge">
<title>Node5&#45;&gt;Node26</title>
<path fill="none" stroke="#63b8ff" d="M872.67,-304.12C991.42,-300.02 1316.86,-286.56 1357.5,-261 1395.63,-237.02 1416.26,-185.3 1425.13,-156.82"/>
<polygon fill="#63b8ff" stroke="#63b8ff" points="1428.46,-157.9 1427.89,-147.32 1421.74,-155.94 1428.46,-157.9"/>
</g>
<!-- Node27 -->
<g id="node27" class="node">
<title>Node27</title>
<g id="a_node27"><a xlink:href="OSSync_8h.html" target="_top" xlink:title=" ">
<polygon fill="white" stroke="#666666" points="1551,-261 1444,-261 1444,-242 1551,-242 1551,-261"/>
<text text-anchor="middle" x="1497.5" y="-249" font-family="Helvetica,sans-Serif" font-size="10.00">dolphin/os/OSSync.h</text>
</a>
</g>
</g>
<!-- Node5&#45;&gt;Node27 -->
<g id="edge46" class="edge">
<title>Node5&#45;&gt;Node27</title>
<path fill="none" stroke="#63b8ff" d="M872.86,-303.03C971.72,-297.25 1221.36,-281.71 1429.5,-261 1430.51,-260.9 1431.53,-260.8 1432.55,-260.69"/>
<polygon fill="#63b8ff" stroke="#63b8ff" points="1432.64,-264.2 1442.2,-259.64 1431.88,-257.24 1432.64,-264.2"/>
</g>
<!-- Node6&#45;&gt;Node3 -->
<g id="edge6" class="edge">
<title>Node6&#45;&gt;Node3</title>
<path fill="none" stroke="#63b8ff" d="M1499.27,-122.58C1495.97,-122 1492.7,-121.47 1489.5,-121 1304.38,-93.82 1082.16,-82.37 982.88,-78.35"/>
<polygon fill="#63b8ff" stroke="#63b8ff" points="983.03,-74.85 972.9,-77.96 982.76,-81.85 983.03,-74.85"/>
</g>
<!-- Node7&#45;&gt;Node3 -->
<g id="edge8" class="edge">
<title>Node7&#45;&gt;Node3</title>
<path fill="none" stroke="#63b8ff" d="M1638.24,-186.68C1639.04,-170.74 1638.12,-137.28 1618.5,-121 1569.92,-80.67 1134.03,-76.59 982.29,-76.4"/>
<polygon fill="#63b8ff" stroke="#63b8ff" points="982.54,-72.9 972.54,-76.4 982.54,-79.9 982.54,-72.9"/>
</g>
<!-- Node8&#45;&gt;Node9 -->
<g id="edge10" class="edge">
<title>Node8&#45;&gt;Node9</title>
<path fill="none" stroke="#63b8ff" d="M203.25,-241.51C190.62,-233.54 171.94,-221.75 157.09,-212.38"/>
<polygon fill="#63b8ff" stroke="#63b8ff" points="159.14,-209.54 148.82,-207.17 155.41,-215.46 159.14,-209.54"/>
</g>
<!-- Node8&#45;&gt;Node10 -->
<g id="edge12" class="edge">
<title>Node8&#45;&gt;Node10</title>
<path fill="none" stroke="#63b8ff" d="M224.27,-241.75C229.82,-234.58 237.84,-224.2 244.73,-215.3"/>
<polygon fill="#63b8ff" stroke="#63b8ff" points="247.31,-217.69 250.66,-207.64 241.77,-213.41 247.31,-217.69"/>
</g>
<!-- Node9&#45;&gt;Node3 -->
<g id="edge11" class="edge">
<title>Node9&#45;&gt;Node3</title>
<path fill="none" stroke="#63b8ff" d="M144.75,-186.57C166.18,-170.13 214.99,-135.44 262.5,-121 377.44,-86.06 742.34,-78.53 878.56,-76.93"/>
<polygon fill="#63b8ff" stroke="#63b8ff" points="878.4,-80.43 888.36,-76.82 878.32,-73.43 878.4,-80.43"/>
</g>
<!-- Node10&#45;&gt;Node3 -->
<g id="edge13" class="edge">
<title>Node10&#45;&gt;Node3</title>
<path fill="none" stroke="#63b8ff" d="M258.78,-186.59C259.82,-170.5 264.52,-136.82 285.5,-121 332.4,-85.64 733.87,-78.35 878.69,-76.87"/>
<polygon fill="#63b8ff" stroke="#63b8ff" points="878.39,-80.37 888.36,-76.78 878.33,-73.38 878.39,-80.37"/>
</g>
<!-- Node11&#45;&gt;Node3 -->
<g id="edge15" class="edge">
<title>Node11&#45;&gt;Node3</title>
<path fill="none" stroke="#63b8ff" d="M402.47,-129.58C513.95,-118.37 768.37,-92.8 878.31,-81.75"/>
<polygon fill="#63b8ff" stroke="#63b8ff" points="878.63,-85.23 888.23,-80.75 877.93,-78.27 878.63,-85.23"/>
</g>
<!-- Node12&#45;&gt;Node3 -->
<g id="edge17" class="edge">
<title>Node12&#45;&gt;Node3</title>
<path fill="none" stroke="#63b8ff" d="M442.79,-186.6C475.98,-170.84 548.7,-138.06 613.5,-121 704.95,-96.92 814.88,-85.19 878.32,-80.03"/>
<polygon fill="#63b8ff" stroke="#63b8ff" points="878.41,-83.54 888.1,-79.26 877.86,-76.56 878.41,-83.54"/>
</g>
<!-- Node14&#45;&gt;Node3 -->
<g id="edge20" class="edge">
<title>Node14&#45;&gt;Node3</title>
<path fill="none" stroke="#63b8ff" d="M565.85,-186.52C586.55,-170.62 632.38,-137.65 676.5,-121 743.48,-95.73 825.89,-84.66 878.31,-79.92"/>
<polygon fill="#63b8ff" stroke="#63b8ff" points="878.5,-83.42 888.17,-79.08 877.91,-76.44 878.5,-83.42"/>
</g>
<!-- Node15&#45;&gt;Node3 -->
<g id="edge22" class="edge">
<title>Node15&#45;&gt;Node3</title>
<path fill="none" stroke="#63b8ff" d="M930.5,-126.37C930.5,-118.5 930.5,-106.6 930.5,-96.39"/>
<polygon fill="#63b8ff" stroke="#63b8ff" points="934,-96.68 930.5,-86.68 927,-96.68 934,-96.68"/>
</g>
<!-- Node16&#45;&gt;Node3 -->
<g id="edge25" class="edge">
<title>Node16&#45;&gt;Node3</title>
<path fill="none" stroke="#63b8ff" d="M768.51,-126.12C801.04,-116.15 854.01,-99.93 890.47,-88.76"/>
<polygon fill="#63b8ff" stroke="#63b8ff" points="891.23,-92.19 899.77,-85.91 889.18,-85.49 891.23,-92.19"/>
</g>
<!-- Node17&#45;&gt;Node3 -->
<g id="edge28" class="edge">
<title>Node17&#45;&gt;Node3</title>
<path fill="none" stroke="#63b8ff" d="M798.65,-186.58C810.68,-171.88 836.14,-142.13 861.5,-121 874.94,-109.8 891.35,-99.11 904.79,-91.02"/>
<polygon fill="#63b8ff" stroke="#63b8ff" points="906.25,-94.23 913.09,-86.14 902.7,-88.19 906.25,-94.23"/>
</g>
<!-- Node18&#45;&gt;Node3 -->
<g id="edge30" class="edge">
<title>Node18&#45;&gt;Node3</title>
<path fill="none" stroke="#63b8ff" d="M1206.64,-241.76C1177.31,-224.51 1109.92,-184.79 1053.5,-151 1019.2,-130.46 979.69,-106.47 954.9,-91.38"/>
<polygon fill="#63b8ff" stroke="#63b8ff" points="956.89,-88.49 946.53,-86.28 953.25,-94.47 956.89,-88.49"/>
</g>
<!-- Node19&#45;&gt;Node17 -->
<g id="edge32" class="edge">
<title>Node19&#45;&gt;Node17</title>
<path fill="none" stroke="#63b8ff" d="M718.43,-241.51C731.78,-233.47 751.61,-221.53 767.24,-212.11"/>
<polygon fill="#63b8ff" stroke="#63b8ff" points="768.74,-215.3 775.5,-207.14 765.12,-209.3 768.74,-215.3"/>
</g>
<!-- Node20&#45;&gt;Node21 -->
<g id="edge34" class="edge">
<title>Node20&#45;&gt;Node21</title>
<path fill="none" stroke="#63b8ff" d="M1029.97,-241.51C1010.82,-233.12 982,-220.5 960.13,-210.92"/>
<polygon fill="#63b8ff" stroke="#63b8ff" points="961.67,-207.77 951.11,-206.97 958.86,-214.18 961.67,-207.77"/>
</g>
<!-- Node21&#45;&gt;Node15 -->
<g id="edge35" class="edge">
<title>Node21&#45;&gt;Node15</title>
<path fill="none" stroke="#63b8ff" d="M929.65,-186.87C929.78,-179 929.99,-167.1 930.16,-156.89"/>
<polygon fill="#63b8ff" stroke="#63b8ff" points="933.65,-157.24 930.33,-147.18 926.66,-157.12 933.65,-157.24"/>
</g>
<!-- Node22&#45;&gt;Node21 -->
<g id="edge37" class="edge">
<title>Node22&#45;&gt;Node21</title>
<path fill="none" stroke="#63b8ff" d="M916.14,-241.75C918.14,-235.11 920.98,-225.73 923.52,-217.31"/>
<polygon fill="#63b8ff" stroke="#63b8ff" points="926.82,-218.48 926.36,-207.89 920.12,-216.45 926.82,-218.48"/>
</g>
<!-- Node23&#45;&gt;Node3 -->
<g id="edge39" class="edge">
<title>Node23&#45;&gt;Node3</title>
<path fill="none" stroke="#63b8ff" d="M1091.64,-126.12C1059.28,-116.15 1006.58,-99.93 970.32,-88.76"/>
<polygon fill="#63b8ff" stroke="#63b8ff" points="971.66,-85.51 961.08,-85.91 969.6,-92.2 971.66,-85.51"/>
</g>
<!-- Node24&#45;&gt;Node3 -->
<g id="edge41" class="edge">
<title>Node24&#45;&gt;Node3</title>
<path fill="none" stroke="#63b8ff" d="M1279.19,-186.65C1265.25,-177.92 1243.59,-164.02 1225.5,-151 1208.04,-138.43 1207.15,-129.77 1187.5,-121 1120.86,-91.25 1036.26,-81.32 982.73,-78.05"/>
<polygon fill="#63b8ff" stroke="#63b8ff" points="983.16,-74.57 972.98,-77.51 982.77,-81.56 983.16,-74.57"/>
</g>
<!-- Node25&#45;&gt;Node3 -->
<g id="edge43" class="edge">
<title>Node25&#45;&gt;Node3</title>
<path fill="none" stroke="#63b8ff" d="M1249.85,-126.07C1240.14,-124.34 1230,-122.58 1220.5,-121 1137.36,-107.16 1040.54,-92.62 982.46,-84.07"/>
<polygon fill="#63b8ff" stroke="#63b8ff" points="983.27,-80.65 972.87,-82.66 982.26,-87.58 983.27,-80.65"/>
</g>
<!-- Node26&#45;&gt;Node3 -->
<g id="edge45" class="edge">
<title>Node26&#45;&gt;Node3</title>
<path fill="none" stroke="#63b8ff" d="M1395.44,-126.02C1387.29,-124.16 1378.62,-122.35 1370.5,-121 1231.4,-97.84 1065.42,-85 982.72,-79.6"/>
<polygon fill="#63b8ff" stroke="#63b8ff" points="983.09,-76.12 972.89,-78.97 982.64,-83.1 983.09,-76.12"/>
</g>
<!-- Node28&#45;&gt;Node3 -->
<g id="edge50" class="edge">
<title>Node28&#45;&gt;Node3</title>
<path fill="none" stroke="#63b8ff" d="M1676.02,-126.06C1668.07,-124.1 1659.52,-122.24 1651.5,-121 1403.21,-82.63 1102,-77.06 982.73,-76.45"/>
<polygon fill="#63b8ff" stroke="#63b8ff" points="982.96,-72.96 972.95,-76.42 982.93,-79.96 982.96,-72.96"/>
</g>
</g>
</svg>
        <g id="navigator" transform="translate(0 0)" fill="#404254">
                <rect fill="#f2f5e9" fill-opacity="0.5" stroke="#606060" stroke-width=".5" x="0" y="0" width="60" height="60"/>
                <use id="zoomplus" xlink:href="#zoomPlus" x="17" y="9" onmousedown="handleZoom(evt,'in')"/>
                <use id="zoomminus" xlink:href="#zoomMin" x="42" y="9" onmousedown="handleZoom(evt,'out')"/>
                <use id="reset" xlink:href="#resetDef" x="30" y="36" onmousedown="handleReset()"/>
                <g id="arrowUp" xlink:href="#dirArrow" transform="translate(30 24)" onmousedown="handlePan(0,-1)">
                  <use xlink:href="#rim" fill="#404040">
                        <set attributeName="fill" to="#808080" begin="arrowUp.mouseover" end="arrowUp.mouseout"/>
                  </use>
                  <path fill="none" stroke="white" stroke-width="1.5" d="M0,-3.0v7 M-2.5,-0.5L0,-3.0L2.5,-0.5"/>
                </g>
                <g id="arrowRight" xlink:href="#dirArrow" transform="rotate(90) translate(36 -43)" onmousedown="handlePan(1,0)">
                  <use xlink:href="#rim" fill="#404040">
                        <set attributeName="fill" to="#808080" begin="arrowRight.mouseover" end="arrowRight.mouseout"/>
                  </use>
                  <path fill="none" stroke="white" stroke-width="1.5" d="M0,-3.0v7 M-2.5,-0.5L0,-3.0L2.5,-0.5"/>
                </g>
                <g id="arrowDown" xlink:href="#dirArrow" transform="rotate(180) translate(-30 -48)" onmousedown="handlePan(0,1)">
                  <use xlink:href="#rim" fill="#404040">
                        <set attributeName="fill" to="#808080" begin="arrowDown.mouseover" end="arrowDown.mouseout"/>
                  </use>
                  <path fill="none" stroke="white" stroke-width="1.5" d="M0,-3.0v7 M-2.5,-0.5L0,-3.0L2.5,-0.5"/>
                </g>
                <g id="arrowLeft" xlink:href="#dirArrow" transform="rotate(270) translate(-36 17)" onmousedown="handlePan(-1,0)">
                  <use xlink:href="#rim" fill="#404040">
                        <set attributeName="fill" to="#808080" begin="arrowLeft.mouseover" end="arrowLeft.mouseout"/>
                  </use>
                  <path fill="none" stroke="white" stroke-width="1.5" d="M0,-3.0v7 M-2.5,-0.5L0,-3.0L2.5,-0.5"/>
                </g>
        </g>
        <svg viewBox="0 0 15 15" width="100%" height="30px" preserveAspectRatio="xMaxYMin meet">
         <g id="arrow_out" transform="scale(0.3 0.3)">
          <a xlink:href="OSFont_8c__incl_org.svg" target="_base">
           <rect id="button" ry="5" rx="5" y="6" x="6" height="38" width="38"
                fill="#f2f5e9" fill-opacity="0.5" stroke="#606060" stroke-width="1.0"/>
           <path id="arrow"
             d="M 11.500037,31.436501 C 11.940474,20.09759 22.043105,11.32322 32.158766,21.979434 L 37.068811,17.246167 C 37.068811,17.246167 37.088388,32 37.088388,32 L 22.160133,31.978069 C 22.160133,31.978069 26.997745,27.140456 26.997745,27.140456 C 18.528582,18.264221 13.291696,25.230495 11.500037,31.436501 z"
             style="fill:#404040;"/>
          </a>
         </g>
        </svg>
</svg>
