<?xml version="1.0" encoding="UTF-8" standalone="no"?>
<!DOCTYPE svg PUBLIC "-//W3C//DTD SVG 1.1//EN"
 "http://www.w3.org/Graphics/SVG/1.1/DTD/svg11.dtd">
<!-- Generated by graphviz version 7.0.5 (20221223.1930)
 -->
<!-- Title: include/dolphin/os/OSMemory.h Pages: 1 -->
<svg width="6483pt" height="236pt"
 viewBox="0.00 0.00 6482.56 236.00" xmlns="http://www.w3.org/2000/svg" xmlns:xlink="http://www.w3.org/1999/xlink">
<g id="graph0" class="graph" transform="scale(1 1) rotate(0) translate(4 232)">
<title>include/dolphin/os/OSMemory.h</title>
<!-- Node1 -->
<g id="node1" class="node">
<title>Node1</title>
<g id="a_node1"><a xlink:title=" ">
<polygon fill="#999999" stroke="#666666" points="3406.06,-228 3311.06,-228 3311.06,-198 3406.06,-198 3406.06,-228"/>
<text text-anchor="start" x="3319.06" y="-216" font-family="Helvetica,sans-Serif" font-size="10.00">include/dolphin/os</text>
<text text-anchor="middle" x="3358.56" y="-205" font-family="Helvetica,sans-Serif" font-size="10.00">/OSMemory.h</text>
</a>
</g>
</g>
<!-- Node2 -->
<g id="node2" class="node">
<title>Node2</title>
<g id="a_node2"><a xlink:href="OS_8h.html" target="_top" xlink:title=" ">
<polygon fill="#fff0f0" stroke="red" points="3374.06,-162 3255.06,-162 3255.06,-143 3374.06,-143 3374.06,-162"/>
<text text-anchor="middle" x="3314.56" y="-150" font-family="Helvetica,sans-Serif" font-size="10.00">include/dolphin/os/OS.h</text>
</a>
</g>
</g>
<!-- Node1&#45;&gt;Node2 -->
<g id="edge1" class="edge">
<title>Node1&#45;&gt;Node2</title>
<path fill="none" stroke="#63b8ff" d="M3340.77,-188.35C3333.81,-179.11 3326.28,-169.09 3321.08,-162.18"/>
<polygon fill="#63b8ff" stroke="#63b8ff" points="3337.96,-190.44 3346.77,-196.33 3343.56,-186.23 3337.96,-190.44"/>
</g>
<!-- Node582 -->
<g id="node50" class="node">
<title>Node582</title>
<g id="a_node50"><a xlink:href="OSMemory_8c.html" target="_top" xlink:title=" ">
<polygon fill="white" stroke="#666666" points="6474.56,-96 6336.56,-96 6336.56,-77 6474.56,-77 6474.56,-96"/>
<text text-anchor="middle" x="6405.56" y="-84" font-family="Helvetica,sans-Serif" font-size="10.00">libs/dolphin/os/OSMemory.c</text>
</a>
</g>
</g>
<!-- Node1&#45;&gt;Node582 -->
<g id="edge54" class="edge">
<title>Node1&#45;&gt;Node582</title>
<path fill="none" stroke="#63b8ff" d="M3417.79,-211.04C3780.91,-204.98 5709.84,-170.23 6297.56,-107 6319.53,-104.64 6343.77,-100.41 6363.7,-96.5"/>
<polygon fill="#63b8ff" stroke="#63b8ff" points="3417.97,-207.54 3408.03,-211.2 3418.08,-214.54 3417.97,-207.54"/>
</g>
<!-- Node3 -->
<g id="node3" class="node">
<title>Node3</title>
<g id="a_node3"><a xlink:href="JUTAssert_8h.html" target="_top" xlink:title=" ">
<polygon fill="#fff0f0" stroke="red" points="6242.56,-101.5 6120.56,-101.5 6120.56,-71.5 6242.56,-71.5 6242.56,-101.5"/>
<text text-anchor="start" x="6128.56" y="-89.5" font-family="Helvetica,sans-Serif" font-size="10.00">include/JSystem/JUtility</text>
<text text-anchor="middle" x="6181.56" y="-78.5" font-family="Helvetica,sans-Serif" font-size="10.00">/JUTAssert.h</text>
</a>
</g>
</g>
<!-- Node2&#45;&gt;Node3 -->
<g id="edge2" class="edge">
<title>Node2&#45;&gt;Node3</title>
<path fill="none" stroke="#63b8ff" d="M3385.94,-150.88C3808.93,-147.14 5972.83,-127.09 6111.56,-107 6119.67,-105.82 6128.18,-103.99 6136.35,-101.9"/>
<polygon fill="#63b8ff" stroke="#63b8ff" points="3386.01,-147.38 3376.04,-150.97 3386.07,-154.38 3386.01,-147.38"/>
</g>
<!-- Node522 -->
<g id="node4" class="node">
<title>Node522</title>
<g id="a_node4"><a xlink:href="JFWDisplay_8cpp.html" target="_top" xlink:title=" ">
<polygon fill="white" stroke="#666666" points="4623.56,-30 4493.56,-30 4493.56,0 4623.56,0 4623.56,-30"/>
<text text-anchor="start" x="4501.56" y="-18" font-family="Helvetica,sans-Serif" font-size="10.00">libs/JSystem/JFramework</text>
<text text-anchor="middle" x="4558.56" y="-7" font-family="Helvetica,sans-Serif" font-size="10.00">/JFWDisplay.cpp</text>
</a>
</g>
</g>
<!-- Node2&#45;&gt;Node522 -->
<g id="edge23" class="edge">
<title>Node2&#45;&gt;Node522</title>
<path fill="none" stroke="#63b8ff" d="M3243.31,-151.22C2766.07,-149.24 51.84,-136.69 22.56,-107 9.76,-94.03 9.74,-78.96 22.56,-66 63.7,-24.4 3940.74,-16.94 4493.31,-16.09"/>
<polygon fill="#63b8ff" stroke="#63b8ff" points="3243.29,-154.72 3253.31,-151.26 3243.32,-147.72 3243.29,-154.72"/>
</g>
<!-- Node526 -->
<g id="node5" class="node">
<title>Node526</title>
<g id="a_node5"><a xlink:href="JKRDvdArchive_8cpp.html" target="_top" xlink:title=" ">
<polygon fill="white" stroke="#666666" points="6236.06,-30 6127.06,-30 6127.06,0 6236.06,0 6236.06,-30"/>
<text text-anchor="start" x="6135.06" y="-18" font-family="Helvetica,sans-Serif" font-size="10.00">libs/JSystem/JKernel</text>
<text text-anchor="middle" x="6181.56" y="-7" font-family="Helvetica,sans-Serif" font-size="10.00">/JKRDvdArchive.cpp</text>
</a>
</g>
</g>
<!-- Node2&#45;&gt;Node526 -->
<g id="edge25" class="edge">
<title>Node2&#45;&gt;Node526</title>
<path fill="none" stroke="#63b8ff" d="M3385.72,-151.1C3831.9,-148.5 6225.6,-133.35 6251.56,-107 6264.34,-94.02 6259.89,-82.2 6251.56,-66 6243.56,-50.46 6228.25,-38.68 6213.98,-30.47"/>
<polygon fill="#63b8ff" stroke="#63b8ff" points="3385.81,-147.6 3375.83,-151.16 3385.85,-154.6 3385.81,-147.6"/>
</g>
<!-- Node529 -->
<g id="node6" class="node">
<title>Node529</title>
<g id="a_node6"><a xlink:href="JKRHeap_8cpp.html" target="_top" xlink:title=" ">
<polygon fill="white" stroke="#666666" points="6363.06,-30 6254.06,-30 6254.06,0 6363.06,0 6363.06,-30"/>
<text text-anchor="start" x="6262.06" y="-18" font-family="Helvetica,sans-Serif" font-size="10.00">libs/JSystem/JKernel</text>
<text text-anchor="middle" x="6308.56" y="-7" font-family="Helvetica,sans-Serif" font-size="10.00">/JKRHeap.cpp</text>
</a>
</g>
</g>
<!-- Node2&#45;&gt;Node529 -->
<g id="edge26" class="edge">
<title>Node2&#45;&gt;Node529</title>
<path fill="none" stroke="#63b8ff" d="M3385.68,-150.95C3832.89,-147.46 6238.63,-127.73 6269.56,-107 6295.4,-89.68 6304.19,-51.36 6307.13,-30.4"/>
<polygon fill="#63b8ff" stroke="#63b8ff" points="3385.73,-147.45 3375.76,-151.03 3385.79,-154.45 3385.73,-147.45"/>
</g>
<!-- Node536 -->
<g id="node7" class="node">
<title>Node536</title>
<g id="a_node7"><a xlink:href="JUTConsole_8cpp.html" target="_top" xlink:title=" ">
<polygon fill="white" stroke="#666666" points="1504.56,-30 1398.56,-30 1398.56,0 1504.56,0 1504.56,-30"/>
<text text-anchor="start" x="1406.56" y="-18" font-family="Helvetica,sans-Serif" font-size="10.00">libs/JSystem/JUtility</text>
<text text-anchor="middle" x="1451.56" y="-7" font-family="Helvetica,sans-Serif" font-size="10.00">/JUTConsole.cpp</text>
</a>
</g>
</g>
<!-- Node2&#45;&gt;Node536 -->
<g id="edge29" class="edge">
<title>Node2&#45;&gt;Node536</title>
<path fill="none" stroke="#63b8ff" d="M3243.38,-151.22C2765.25,-149.27 38.97,-136.81 9.56,-107 -3.24,-94.03 -3.1,-79.11 9.56,-66 58.69,-15.13 1143.71,-15.1 1398.39,-15.8"/>
<polygon fill="#63b8ff" stroke="#63b8ff" points="3243.06,-154.72 3253.07,-151.26 3243.09,-147.72 3243.06,-154.72"/>
</g>
<!-- Node539 -->
<g id="node8" class="node">
<title>Node539</title>
<g id="a_node8"><a xlink:href="dolphin__trk__glue_8h.html" target="_top" xlink:title=" ">
<polygon fill="#fff0f0" stroke="red" points="149.56,-107 31.56,-107 31.56,-66 149.56,-66 149.56,-107"/>
<text text-anchor="start" x="39.56" y="-95" font-family="Helvetica,sans-Serif" font-size="10.00">include/TRK_MINNOW</text>
<text text-anchor="start" x="39.56" y="-84" font-family="Helvetica,sans-Serif" font-size="10.00">_DOLPHIN/Os/dolphin</text>
<text text-anchor="middle" x="90.56" y="-73" font-family="Helvetica,sans-Serif" font-size="10.00">/dolphin_trk_glue.h</text>
</a>
</g>
</g>
<!-- Node2&#45;&gt;Node539 -->
<g id="edge7" class="edge">
<title>Node2&#45;&gt;Node539</title>
<path fill="none" stroke="#63b8ff" d="M3243.46,-151.63C2804.61,-152.26 472.64,-153.4 158.56,-107 155.64,-106.57 152.67,-106.05 149.69,-105.46"/>
<polygon fill="#63b8ff" stroke="#63b8ff" points="3243.18,-155.13 3253.17,-151.61 3243.17,-148.13 3243.18,-155.13"/>
</g>
<!-- Node541 -->
<g id="node9" class="node">
<title>Node541</title>
<g id="a_node9"><a xlink:href="J2DAnimation_8cpp.html" target="_top" xlink:title=" ">
<polygon fill="white" stroke="#666666" points="287.06,-101.5 168.06,-101.5 168.06,-71.5 287.06,-71.5 287.06,-101.5"/>
<text text-anchor="start" x="176.06" y="-89.5" font-family="Helvetica,sans-Serif" font-size="10.00">libs/JSystem/J2DGraph</text>
<text text-anchor="middle" x="227.56" y="-78.5" font-family="Helvetica,sans-Serif" font-size="10.00">/J2DAnimation.cpp</text>
</a>
</g>
</g>
<!-- Node2&#45;&gt;Node541 -->
<g id="edge8" class="edge">
<title>Node2&#45;&gt;Node541</title>
<path fill="none" stroke="#63b8ff" d="M3243.54,-151.56C2816.3,-151.78 596.26,-150.79 296.56,-107 288.55,-105.83 280.16,-104 272.1,-101.91"/>
<polygon fill="#63b8ff" stroke="#63b8ff" points="3243.26,-155.06 3253.26,-151.56 3243.26,-148.06 3243.26,-155.06"/>
</g>
<!-- Node542 -->
<g id="node10" class="node">
<title>Node542</title>
<g id="a_node10"><a xlink:href="J3DModel_8cpp.html" target="_top" xlink:title=" ">
<polygon fill="white" stroke="#666666" points="463.56,-101.5 305.56,-101.5 305.56,-71.5 463.56,-71.5 463.56,-101.5"/>
<text text-anchor="start" x="313.56" y="-89.5" font-family="Helvetica,sans-Serif" font-size="10.00">libs/JSystem/J3DGraphAnimator</text>
<text text-anchor="middle" x="384.56" y="-78.5" font-family="Helvetica,sans-Serif" font-size="10.00">/J3DModel.cpp</text>
</a>
</g>
</g>
<!-- Node2&#45;&gt;Node542 -->
<g id="edge9" class="edge">
<title>Node2&#45;&gt;Node542</title>
<path fill="none" stroke="#63b8ff" d="M3243.17,-151.25C2830.1,-149.67 754.79,-140.13 472.56,-107 462.61,-105.83 452.14,-104.03 442.02,-101.98"/>
<polygon fill="#63b8ff" stroke="#63b8ff" points="3243.09,-154.75 3253.1,-151.28 3243.12,-147.75 3243.09,-154.75"/>
</g>
<!-- Node543 -->
<g id="node11" class="node">
<title>Node543</title>
<g id="a_node11"><a xlink:href="J3DModelData_8cpp.html" target="_top" xlink:title=" ">
<polygon fill="white" stroke="#666666" points="639.56,-101.5 481.56,-101.5 481.56,-71.5 639.56,-71.5 639.56,-101.5"/>
<text text-anchor="start" x="489.56" y="-89.5" font-family="Helvetica,sans-Serif" font-size="10.00">libs/JSystem/J3DGraphAnimator</text>
<text text-anchor="middle" x="560.56" y="-78.5" font-family="Helvetica,sans-Serif" font-size="10.00">/J3DModelData.cpp</text>
</a>
</g>
</g>
<!-- Node2&#45;&gt;Node543 -->
<g id="edge10" class="edge">
<title>Node2&#45;&gt;Node543</title>
<path fill="none" stroke="#63b8ff" d="M3243.5,-151.17C2846.61,-149.21 912.38,-138.11 648.56,-107 638.61,-105.83 628.14,-104.02 618.02,-101.97"/>
<polygon fill="#63b8ff" stroke="#63b8ff" points="3243.26,-154.67 3253.28,-151.22 3243.29,-147.67 3243.26,-154.67"/>
</g>
<!-- Node544 -->
<g id="node12" class="node">
<title>Node544</title>
<g id="a_node12"><a xlink:href="J3DSkinDeform_8cpp.html" target="_top" xlink:title=" ">
<polygon fill="white" stroke="#666666" points="815.56,-101.5 657.56,-101.5 657.56,-71.5 815.56,-71.5 815.56,-101.5"/>
<text text-anchor="start" x="665.56" y="-89.5" font-family="Helvetica,sans-Serif" font-size="10.00">libs/JSystem/J3DGraphAnimator</text>
<text text-anchor="middle" x="736.56" y="-78.5" font-family="Helvetica,sans-Serif" font-size="10.00">/J3DSkinDeform.cpp</text>
</a>
</g>
</g>
<!-- Node2&#45;&gt;Node544 -->
<g id="edge11" class="edge">
<title>Node2&#45;&gt;Node544</title>
<path fill="none" stroke="#63b8ff" d="M3243.37,-151.08C2862.11,-148.71 1069.9,-136.08 824.56,-107 814.61,-105.82 804.14,-104.01 794.02,-101.96"/>
<polygon fill="#63b8ff" stroke="#63b8ff" points="3243.22,-154.58 3253.25,-151.14 3243.27,-147.58 3243.22,-154.58"/>
</g>
<!-- Node545 -->
<g id="node13" class="node">
<title>Node545</title>
<g id="a_node13"><a xlink:href="J3DMatBlock_8cpp.html" target="_top" xlink:title=" ">
<polygon fill="white" stroke="#666666" points="975.56,-101.5 833.56,-101.5 833.56,-71.5 975.56,-71.5 975.56,-101.5"/>
<text text-anchor="start" x="841.56" y="-89.5" font-family="Helvetica,sans-Serif" font-size="10.00">libs/JSystem/J3DGraphBase</text>
<text text-anchor="middle" x="904.56" y="-78.5" font-family="Helvetica,sans-Serif" font-size="10.00">/J3DMatBlock.cpp</text>
</a>
</g>
</g>
<!-- Node2&#45;&gt;Node545 -->
<g id="edge12" class="edge">
<title>Node2&#45;&gt;Node545</title>
<path fill="none" stroke="#63b8ff" d="M3243.28,-151.07C2876.79,-148.75 1212.84,-136.63 984.56,-107 975.48,-105.82 965.95,-104.01 956.74,-101.97"/>
<polygon fill="#63b8ff" stroke="#63b8ff" points="3243.22,-154.57 3253.24,-151.14 3243.26,-147.57 3243.22,-154.57"/>
</g>
<!-- Node546 -->
<g id="node14" class="node">
<title>Node546</title>
<g id="a_node14"><a xlink:href="J3DShape_8cpp.html" target="_top" xlink:title=" ">
<polygon fill="white" stroke="#666666" points="1135.56,-101.5 993.56,-101.5 993.56,-71.5 1135.56,-71.5 1135.56,-101.5"/>
<text text-anchor="start" x="1001.56" y="-89.5" font-family="Helvetica,sans-Serif" font-size="10.00">libs/JSystem/J3DGraphBase</text>
<text text-anchor="middle" x="1064.56" y="-78.5" font-family="Helvetica,sans-Serif" font-size="10.00">/J3DShape.cpp</text>
</a>
</g>
</g>
<!-- Node2&#45;&gt;Node546 -->
<g id="edge13" class="edge">
<title>Node2&#45;&gt;Node546</title>
<path fill="none" stroke="#63b8ff" d="M3243.13,-150.96C2891.88,-148.2 1356.12,-134.62 1144.56,-107 1135.48,-105.82 1125.95,-104 1116.75,-101.95"/>
<polygon fill="#63b8ff" stroke="#63b8ff" points="3243.1,-154.46 3253.13,-151.04 3243.15,-147.46 3243.1,-154.46"/>
</g>
<!-- Node547 -->
<g id="node15" class="node">
<title>Node547</title>
<g id="a_node15"><a xlink:href="J3DSys_8cpp.html" target="_top" xlink:title=" ">
<polygon fill="white" stroke="#666666" points="1295.56,-101.5 1153.56,-101.5 1153.56,-71.5 1295.56,-71.5 1295.56,-101.5"/>
<text text-anchor="start" x="1161.56" y="-89.5" font-family="Helvetica,sans-Serif" font-size="10.00">libs/JSystem/J3DGraphBase</text>
<text text-anchor="middle" x="1224.56" y="-78.5" font-family="Helvetica,sans-Serif" font-size="10.00">/J3DSys.cpp</text>
</a>
</g>
</g>
<!-- Node2&#45;&gt;Node547 -->
<g id="edge14" class="edge">
<title>Node2&#45;&gt;Node547</title>
<path fill="none" stroke="#63b8ff" d="M3243.3,-150.84C2908.48,-147.61 1499.5,-132.61 1304.56,-107 1295.48,-105.81 1285.95,-103.99 1276.75,-101.94"/>
<polygon fill="#63b8ff" stroke="#63b8ff" points="3243.21,-154.34 3253.24,-150.93 3243.28,-147.34 3243.21,-154.34"/>
</g>
<!-- Node548 -->
<g id="node16" class="node">
<title>Node548</title>
<g id="a_node16"><a xlink:href="J3DClusterLoader_8cpp.html" target="_top" xlink:title=" ">
<polygon fill="white" stroke="#666666" points="1463.06,-101.5 1314.06,-101.5 1314.06,-71.5 1463.06,-71.5 1463.06,-101.5"/>
<text text-anchor="start" x="1322.06" y="-89.5" font-family="Helvetica,sans-Serif" font-size="10.00">libs/JSystem/J3DGraphLoader</text>
<text text-anchor="middle" x="1388.56" y="-78.5" font-family="Helvetica,sans-Serif" font-size="10.00">/J3DClusterLoader.cpp</text>
</a>
</g>
</g>
<!-- Node2&#45;&gt;Node548 -->
<g id="edge15" class="edge">
<title>Node2&#45;&gt;Node548</title>
<path fill="none" stroke="#63b8ff" d="M3243.46,-151.75C2948.96,-152.46 1823.6,-152.11 1471.56,-107 1462.16,-105.8 1452.27,-103.98 1442.73,-101.92"/>
<polygon fill="#63b8ff" stroke="#63b8ff" points="3243.31,-155.25 3253.31,-151.72 3243.3,-148.25 3243.31,-155.25"/>
</g>
<!-- Node549 -->
<g id="node17" class="node">
<title>Node549</title>
<g id="a_node17"><a xlink:href="J3DModelLoader_8cpp.html" target="_top" xlink:title=" ">
<polygon fill="white" stroke="#666666" points="1630.06,-101.5 1481.06,-101.5 1481.06,-71.5 1630.06,-71.5 1630.06,-101.5"/>
<text text-anchor="start" x="1489.06" y="-89.5" font-family="Helvetica,sans-Serif" font-size="10.00">libs/JSystem/J3DGraphLoader</text>
<text text-anchor="middle" x="1555.56" y="-78.5" font-family="Helvetica,sans-Serif" font-size="10.00">/J3DModelLoader.cpp</text>
</a>
</g>
</g>
<!-- Node2&#45;&gt;Node549 -->
<g id="edge16" class="edge">
<title>Node2&#45;&gt;Node549</title>
<path fill="none" stroke="#63b8ff" d="M3243.57,-151.54C2966.31,-151.42 1956.2,-148.09 1638.56,-107 1629.31,-105.8 1619.58,-104.02 1610.18,-102"/>
<polygon fill="#63b8ff" stroke="#63b8ff" points="3243.15,-155.04 3253.16,-151.55 3243.16,-148.04 3243.15,-155.04"/>
</g>
<!-- Node550 -->
<g id="node18" class="node">
<title>Node550</title>
<g id="a_node18"><a xlink:href="J3DShapeFactory_8cpp.html" target="_top" xlink:title=" ">
<polygon fill="white" stroke="#666666" points="1797.06,-101.5 1648.06,-101.5 1648.06,-71.5 1797.06,-71.5 1797.06,-101.5"/>
<text text-anchor="start" x="1656.06" y="-89.5" font-family="Helvetica,sans-Serif" font-size="10.00">libs/JSystem/J3DGraphLoader</text>
<text text-anchor="middle" x="1722.56" y="-78.5" font-family="Helvetica,sans-Serif" font-size="10.00">/J3DShapeFactory.cpp</text>
</a>
</g>
</g>
<!-- Node2&#45;&gt;Node550 -->
<g id="edge17" class="edge">
<title>Node2&#45;&gt;Node550</title>
<path fill="none" stroke="#63b8ff" d="M3243.44,-151.3C2983.99,-150.27 2088.83,-144.07 1805.56,-107 1796.31,-105.79 1786.59,-103.99 1777.18,-101.98"/>
<polygon fill="#63b8ff" stroke="#63b8ff" points="3243.05,-154.8 3253.07,-151.34 3243.08,-147.8 3243.05,-154.8"/>
</g>
<!-- Node491 -->
<g id="node19" class="node">
<title>Node491</title>
<g id="a_node19"><a xlink:href="JASAudioThread_8cpp.html" target="_top" xlink:title=" ">
<polygon fill="white" stroke="#666666" points="1926.06,-101.5 1815.06,-101.5 1815.06,-71.5 1926.06,-71.5 1926.06,-101.5"/>
<text text-anchor="start" x="1823.06" y="-89.5" font-family="Helvetica,sans-Serif" font-size="10.00">libs/JSystem/JAudio2</text>
<text text-anchor="middle" x="1870.56" y="-78.5" font-family="Helvetica,sans-Serif" font-size="10.00">/JASAudioThread.cpp</text>
</a>
</g>
</g>
<!-- Node2&#45;&gt;Node491 -->
<g id="edge18" class="edge">
<title>Node2&#45;&gt;Node491</title>
<path fill="none" stroke="#63b8ff" d="M3243.38,-151.68C2998.26,-151.89 2190.2,-149.3 1934.56,-107 1927.22,-105.79 1919.55,-103.96 1912.18,-101.91"/>
<polygon fill="#63b8ff" stroke="#63b8ff" points="3243.11,-155.18 3253.1,-151.66 3243.1,-148.18 3243.11,-155.18"/>
</g>
<!-- Node551 -->
<g id="node20" class="node">
<title>Node551</title>
<g id="a_node20"><a xlink:href="JASProbe_8cpp.html" target="_top" xlink:title=" ">
<polygon fill="white" stroke="#666666" points="2055.06,-101.5 1944.06,-101.5 1944.06,-71.5 2055.06,-71.5 2055.06,-101.5"/>
<text text-anchor="start" x="1952.06" y="-89.5" font-family="Helvetica,sans-Serif" font-size="10.00">libs/JSystem/JAudio2</text>
<text text-anchor="middle" x="1999.56" y="-78.5" font-family="Helvetica,sans-Serif" font-size="10.00">/JASProbe.cpp</text>
</a>
</g>
</g>
<!-- Node2&#45;&gt;Node551 -->
<g id="edge19" class="edge">
<title>Node2&#45;&gt;Node551</title>
<path fill="none" stroke="#63b8ff" d="M3243.54,-151.4C3013.91,-150.68 2293.05,-145.37 2063.56,-107 2056.34,-105.79 2048.8,-104 2041.53,-101.98"/>
<polygon fill="#63b8ff" stroke="#63b8ff" points="3243.22,-154.9 3253.23,-151.43 3243.24,-147.9 3243.22,-154.9"/>
</g>
<!-- Node552 -->
<g id="node21" class="node">
<title>Node552</title>
<g id="a_node21"><a xlink:href="JASTaskThread_8cpp.html" target="_top" xlink:title=" ">
<polygon fill="white" stroke="#666666" points="2184.06,-101.5 2073.06,-101.5 2073.06,-71.5 2184.06,-71.5 2184.06,-101.5"/>
<text text-anchor="start" x="2081.06" y="-89.5" font-family="Helvetica,sans-Serif" font-size="10.00">libs/JSystem/JAudio2</text>
<text text-anchor="middle" x="2128.56" y="-78.5" font-family="Helvetica,sans-Serif" font-size="10.00">/JASTaskThread.cpp</text>
</a>
</g>
</g>
<!-- Node2&#45;&gt;Node552 -->
<g id="edge20" class="edge">
<title>Node2&#45;&gt;Node552</title>
<path fill="none" stroke="#63b8ff" d="M3243.38,-151.06C3029.69,-149.34 2395.92,-141.43 2192.56,-107 2185.34,-105.78 2177.8,-103.98 2170.53,-101.96"/>
<polygon fill="#63b8ff" stroke="#63b8ff" points="3243.21,-154.55 3253.23,-151.13 3243.26,-147.55 3243.21,-154.55"/>
</g>
<!-- Node553 -->
<g id="node22" class="node">
<title>Node553</title>
<g id="a_node22"><a xlink:href="dsptask_8cpp.html" target="_top" xlink:title=" ">
<polygon fill="white" stroke="#666666" points="2313.06,-101.5 2202.06,-101.5 2202.06,-71.5 2313.06,-71.5 2313.06,-101.5"/>
<text text-anchor="start" x="2210.06" y="-89.5" font-family="Helvetica,sans-Serif" font-size="10.00">libs/JSystem/JAudio2</text>
<text text-anchor="middle" x="2257.56" y="-78.5" font-family="Helvetica,sans-Serif" font-size="10.00">/dsptask.cpp</text>
</a>
</g>
</g>
<!-- Node2&#45;&gt;Node553 -->
<g id="edge21" class="edge">
<title>Node2&#45;&gt;Node553</title>
<path fill="none" stroke="#63b8ff" d="M3243.26,-150.62C3046.54,-147.84 2498.94,-137.5 2321.56,-107 2314.34,-105.76 2306.81,-103.95 2299.54,-101.92"/>
<polygon fill="#63b8ff" stroke="#63b8ff" points="3243.03,-154.12 3253.08,-150.76 3243.13,-147.12 3243.03,-154.12"/>
</g>
<!-- Node554 -->
<g id="node23" class="node">
<title>Node554</title>
<g id="a_node23"><a xlink:href="osdsp_8cpp.html" target="_top" xlink:title=" ">
<polygon fill="white" stroke="#666666" points="2442.06,-101.5 2331.06,-101.5 2331.06,-71.5 2442.06,-71.5 2442.06,-101.5"/>
<text text-anchor="start" x="2339.06" y="-89.5" font-family="Helvetica,sans-Serif" font-size="10.00">libs/JSystem/JAudio2</text>
<text text-anchor="middle" x="2386.56" y="-78.5" font-family="Helvetica,sans-Serif" font-size="10.00">/osdsp.cpp</text>
</a>
</g>
</g>
<!-- Node2&#45;&gt;Node554 -->
<g id="edge22" class="edge">
<title>Node2&#45;&gt;Node554</title>
<path fill="none" stroke="#63b8ff" d="M3243.4,-150.07C3065.01,-146.13 2602.19,-133.59 2450.56,-107 2443.46,-105.76 2436.05,-103.97 2428.89,-101.98"/>
<polygon fill="#63b8ff" stroke="#63b8ff" points="3243.14,-153.57 3253.22,-150.29 3243.3,-146.57 3243.14,-153.57"/>
</g>
<!-- Node555 -->
<g id="node24" class="node">
<title>Node555</title>
<g id="a_node24"><a xlink:href="JKRAramPiece_8cpp.html" target="_top" xlink:title=" ">
<polygon fill="white" stroke="#666666" points="2569.06,-101.5 2460.06,-101.5 2460.06,-71.5 2569.06,-71.5 2569.06,-101.5"/>
<text text-anchor="start" x="2468.06" y="-89.5" font-family="Helvetica,sans-Serif" font-size="10.00">libs/JSystem/JKernel</text>
<text text-anchor="middle" x="2514.56" y="-78.5" font-family="Helvetica,sans-Serif" font-size="10.00">/JKRAramPiece.cpp</text>
</a>
</g>
</g>
<!-- Node2&#45;&gt;Node555 -->
<g id="edge24" class="edge">
<title>Node2&#45;&gt;Node555</title>
<path fill="none" stroke="#63b8ff" d="M3243.73,-149.34C3085.02,-144.16 2704.9,-129.74 2578.56,-107 2571.47,-105.72 2564.06,-103.92 2556.9,-101.93"/>
<polygon fill="#63b8ff" stroke="#63b8ff" points="3243.15,-152.83 3253.26,-149.65 3243.38,-145.83 3243.15,-152.83"/>
</g>
<!-- Node556 -->
<g id="node25" class="node">
<title>Node556</title>
<g id="a_node25"><a xlink:href="JPAChildShape_8cpp.html" target="_top" xlink:title=" ">
<polygon fill="white" stroke="#666666" points="2701.56,-101.5 2587.56,-101.5 2587.56,-71.5 2701.56,-71.5 2701.56,-101.5"/>
<text text-anchor="start" x="2595.56" y="-89.5" font-family="Helvetica,sans-Serif" font-size="10.00">libs/JSystem/JParticle</text>
<text text-anchor="middle" x="2644.56" y="-78.5" font-family="Helvetica,sans-Serif" font-size="10.00">/JPAChildShape.cpp</text>
</a>
</g>
</g>
<!-- Node2&#45;&gt;Node556 -->
<g id="edge27" class="edge">
<title>Node2&#45;&gt;Node556</title>
<path fill="none" stroke="#63b8ff" d="M3243.59,-151.16C3130.08,-149.53 2901.06,-141.75 2710.56,-107 2703.39,-105.69 2695.88,-103.9 2688.62,-101.93"/>
<polygon fill="#63b8ff" stroke="#63b8ff" points="3243.31,-154.66 3253.35,-151.29 3243.4,-147.66 3243.31,-154.66"/>
</g>
<!-- Node557 -->
<g id="node26" class="node">
<title>Node557</title>
<g id="a_node26"><a xlink:href="JPAExtraShape_8cpp.html" target="_top" xlink:title=" ">
<polygon fill="white" stroke="#666666" points="2833.56,-101.5 2719.56,-101.5 2719.56,-71.5 2833.56,-71.5 2833.56,-101.5"/>
<text text-anchor="start" x="2727.56" y="-89.5" font-family="Helvetica,sans-Serif" font-size="10.00">libs/JSystem/JParticle</text>
<text text-anchor="middle" x="2776.56" y="-78.5" font-family="Helvetica,sans-Serif" font-size="10.00">/JPAExtraShape.cpp</text>
</a>
</g>
</g>
<!-- Node2&#45;&gt;Node557 -->
<g id="edge28" class="edge">
<title>Node2&#45;&gt;Node557</title>
<path fill="none" stroke="#63b8ff" d="M3243.57,-149.08C3150.68,-144.94 2983.17,-134.14 2842.56,-107 2835.63,-105.66 2828.4,-103.91 2821.36,-102"/>
<polygon fill="#63b8ff" stroke="#63b8ff" points="3243.14,-152.57 3253.28,-149.5 3243.44,-145.57 3243.14,-152.57"/>
</g>
<!-- Node558 -->
<g id="node27" class="node">
<title>Node558</title>
<g id="a_node27"><a xlink:href="JUTException_8cpp.html" target="_top" xlink:title=" ">
<polygon fill="white" stroke="#666666" points="2957.56,-101.5 2851.56,-101.5 2851.56,-71.5 2957.56,-71.5 2957.56,-101.5"/>
<text text-anchor="start" x="2859.56" y="-89.5" font-family="Helvetica,sans-Serif" font-size="10.00">libs/JSystem/JUtility</text>
<text text-anchor="middle" x="2904.56" y="-78.5" font-family="Helvetica,sans-Serif" font-size="10.00">/JUTException.cpp</text>
</a>
</g>
</g>
<!-- Node2&#45;&gt;Node558 -->
<g id="edge30" class="edge">
<title>Node2&#45;&gt;Node558</title>
<path fill="none" stroke="#63b8ff" d="M3243.14,-146.1C3172.35,-139.88 3061.09,-127.74 2966.56,-107 2960.16,-105.6 2953.48,-103.83 2946.98,-101.93"/>
<polygon fill="#63b8ff" stroke="#63b8ff" points="3242.81,-149.59 3253.07,-146.96 3243.41,-142.61 3242.81,-149.59"/>
</g>
<!-- Node559 -->
<g id="node28" class="node">
<title>Node559</title>
<g id="a_node28"><a xlink:href="JUTPalette_8cpp.html" target="_top" xlink:title=" ">
<polygon fill="white" stroke="#666666" points="3081.56,-101.5 2975.56,-101.5 2975.56,-71.5 3081.56,-71.5 3081.56,-101.5"/>
<text text-anchor="start" x="2983.56" y="-89.5" font-family="Helvetica,sans-Serif" font-size="10.00">libs/JSystem/JUtility</text>
<text text-anchor="middle" x="3028.56" y="-78.5" font-family="Helvetica,sans-Serif" font-size="10.00">/JUTPalette.cpp</text>
</a>
</g>
</g>
<!-- Node2&#45;&gt;Node559 -->
<g id="edge31" class="edge">
<title>Node2&#45;&gt;Node559</title>
<path fill="none" stroke="#63b8ff" d="M3249.72,-140.54C3204.76,-132.48 3143.67,-120.59 3090.56,-107 3084.65,-105.49 3078.48,-103.75 3072.42,-101.94"/>
<polygon fill="#63b8ff" stroke="#63b8ff" points="3248.83,-143.94 3259.29,-142.25 3250.06,-137.05 3248.83,-143.94"/>
</g>
<!-- Node560 -->
<g id="node29" class="node">
<title>Node560</title>
<g id="a_node29"><a xlink:href="uart__console__io__gcn_8c.html" target="_top" xlink:title=" ">
<polygon fill="white" stroke="#666666" points="3233.56,-101.5 3099.56,-101.5 3099.56,-71.5 3233.56,-71.5 3233.56,-101.5"/>
<text text-anchor="start" x="3107.56" y="-89.5" font-family="Helvetica,sans-Serif" font-size="10.00">libs/MSL_C/PPC_EABI</text>
<text text-anchor="middle" x="3166.56" y="-78.5" font-family="Helvetica,sans-Serif" font-size="10.00">/Src/uart_console_io_gcn.c</text>
</a>
</g>
</g>
<!-- Node2&#45;&gt;Node560 -->
<g id="edge32" class="edge">
<title>Node2&#45;&gt;Node560</title>
<path fill="none" stroke="#63b8ff" d="M3283.49,-138.07C3259.05,-127.5 3225.07,-112.8 3200.03,-101.98"/>
<polygon fill="#63b8ff" stroke="#63b8ff" points="3282.02,-141.24 3292.59,-142 3284.8,-134.82 3282.02,-141.24"/>
</g>
<!-- Node561 -->
<g id="node30" class="node">
<title>Node561</title>
<g id="a_node30"><a xlink:href="GCN__Mem__Alloc_8c.html" target="_top" xlink:title=" ">
<polygon fill="white" stroke="#666666" points="3377.06,-101.5 3252.06,-101.5 3252.06,-71.5 3377.06,-71.5 3377.06,-101.5"/>
<text text-anchor="start" x="3260.06" y="-89.5" font-family="Helvetica,sans-Serif" font-size="10.00">libs/Runtime.PPCEABI.H</text>
<text text-anchor="middle" x="3314.56" y="-78.5" font-family="Helvetica,sans-Serif" font-size="10.00">/GCN_Mem_Alloc.c</text>
</a>
</g>
</g>
<!-- Node2&#45;&gt;Node561 -->
<g id="edge33" class="edge">
<title>Node2&#45;&gt;Node561</title>
<path fill="none" stroke="#63b8ff" d="M3314.56,-131.28C3314.56,-121.67 3314.56,-110.42 3314.56,-101.73"/>
<polygon fill="#63b8ff" stroke="#63b8ff" points="3311.06,-131.09 3314.56,-141.09 3318.06,-131.09 3311.06,-131.09"/>
</g>
<!-- Node445 -->
<g id="node31" class="node">
<title>Node445</title>
<g id="a_node31"><a xlink:href="Z2AudioMgr_8cpp.html" target="_top" xlink:title=" ">
<polygon fill="white" stroke="#666666" points="3553.56,-96 3395.56,-96 3395.56,-77 3553.56,-77 3553.56,-96"/>
<text text-anchor="middle" x="3474.56" y="-84" font-family="Helvetica,sans-Serif" font-size="10.00">libs/Z2AudioLib/Z2AudioMgr.cpp</text>
</a>
</g>
</g>
<!-- Node2&#45;&gt;Node445 -->
<g id="edge34" class="edge">
<title>Node2&#45;&gt;Node445</title>
<path fill="none" stroke="#63b8ff" d="M3347.19,-138.45C3378.5,-125.92 3424.94,-107.35 3452.24,-96.43"/>
<polygon fill="#63b8ff" stroke="#63b8ff" points="3346.19,-135.08 3338.21,-142.04 3348.79,-141.57 3346.19,-135.08"/>
</g>
<!-- Node176 -->
<g id="node32" class="node">
<title>Node176</title>
<g id="a_node32"><a xlink:href="Z2LinkMgr_8cpp.html" target="_top" xlink:title=" ">
<polygon fill="white" stroke="#666666" points="3723.56,-96 3571.56,-96 3571.56,-77 3723.56,-77 3723.56,-96"/>
<text text-anchor="middle" x="3647.56" y="-84" font-family="Helvetica,sans-Serif" font-size="10.00">libs/Z2AudioLib/Z2LinkMgr.cpp</text>
</a>
</g>
</g>
<!-- Node2&#45;&gt;Node176 -->
<g id="edge35" class="edge">
<title>Node2&#45;&gt;Node176</title>
<path fill="none" stroke="#63b8ff" d="M3380.2,-140.6C3430.28,-132.08 3500.93,-119.59 3562.56,-107 3578.28,-103.79 3595.55,-99.89 3610.4,-96.43"/>
<polygon fill="#63b8ff" stroke="#63b8ff" points="3379.65,-137.15 3370.37,-142.27 3380.82,-144.05 3379.65,-137.15"/>
</g>
<!-- Node449 -->
<g id="node33" class="node">
<title>Node449</title>
<g id="a_node33"><a xlink:href="Z2WolfHowlMgr_8cpp.html" target="_top" xlink:title=" ">
<polygon fill="white" stroke="#666666" points="3881.56,-101.5 3741.56,-101.5 3741.56,-71.5 3881.56,-71.5 3881.56,-101.5"/>
<text text-anchor="start" x="3749.56" y="-89.5" font-family="Helvetica,sans-Serif" font-size="10.00">libs/Z2AudioLib/Z2WolfHowl</text>
<text text-anchor="middle" x="3811.56" y="-78.5" font-family="Helvetica,sans-Serif" font-size="10.00">Mgr.cpp</text>
</a>
</g>
</g>
<!-- Node2&#45;&gt;Node449 -->
<g id="edge36" class="edge">
<title>Node2&#45;&gt;Node449</title>
<path fill="none" stroke="#63b8ff" d="M3385.83,-146.88C3469.36,-140.77 3611.73,-128.24 3732.56,-107 3740.63,-105.58 3749.09,-103.8 3757.37,-101.9"/>
<polygon fill="#63b8ff" stroke="#63b8ff" points="3385.67,-143.38 3375.95,-147.59 3386.18,-150.36 3385.67,-143.38"/>
</g>
<!-- Node562 -->
<g id="node34" class="node">
<title>Node562</title>
<g id="a_node34"><a xlink:href="ai_8c.html" target="_top" xlink:title=" ">
<polygon fill="white" stroke="#666666" points="3993.56,-96 3899.56,-96 3899.56,-77 3993.56,-77 3993.56,-96"/>
<text text-anchor="middle" x="3946.56" y="-84" font-family="Helvetica,sans-Serif" font-size="10.00">libs/dolphin/ai/ai.c</text>
</a>
</g>
</g>
<!-- Node2&#45;&gt;Node562 -->
<g id="edge37" class="edge">
<title>Node2&#45;&gt;Node562</title>
<path fill="none" stroke="#63b8ff" d="M3385.35,-151.87C3494.85,-151.13 3711.35,-144.47 3890.56,-107 3902.24,-104.56 3914.84,-100.32 3925.12,-96.42"/>
<polygon fill="#63b8ff" stroke="#63b8ff" points="3385.63,-148.36 3375.65,-151.91 3385.67,-155.36 3385.63,-148.36"/>
</g>
<!-- Node563 -->
<g id="node35" class="node">
<title>Node563</title>
<g id="a_node35"><a xlink:href="ar_8c.html" target="_top" xlink:title=" ">
<polygon fill="white" stroke="#666666" points="4107.06,-96 4012.06,-96 4012.06,-77 4107.06,-77 4107.06,-96"/>
<text text-anchor="middle" x="4059.56" y="-84" font-family="Helvetica,sans-Serif" font-size="10.00">libs/dolphin/ar/ar.c</text>
</a>
</g>
</g>
<!-- Node2&#45;&gt;Node563 -->
<g id="edge38" class="edge">
<title>Node2&#45;&gt;Node563</title>
<path fill="none" stroke="#63b8ff" d="M3385.84,-149.28C3537.16,-144.18 3886.16,-130.24 4002.56,-107 4014.45,-104.62 4027.27,-100.4 4037.73,-96.49"/>
<polygon fill="#63b8ff" stroke="#63b8ff" points="3385.81,-145.78 3375.94,-149.61 3386.05,-152.78 3385.81,-145.78"/>
</g>
<!-- Node564 -->
<g id="node36" class="node">
<title>Node564</title>
<g id="a_node36"><a xlink:href="CARDBios_8c.html" target="_top" xlink:title=" ">
<polygon fill="white" stroke="#666666" points="4269.56,-96 4125.56,-96 4125.56,-77 4269.56,-77 4269.56,-96"/>
<text text-anchor="middle" x="4197.56" y="-84" font-family="Helvetica,sans-Serif" font-size="10.00">libs/dolphin/card/CARDBios.c</text>
</a>
</g>
</g>
<!-- Node2&#45;&gt;Node564 -->
<g id="edge39" class="edge">
<title>Node2&#45;&gt;Node564</title>
<path fill="none" stroke="#63b8ff" d="M3385.86,-151.78C3526.3,-151.39 3848.28,-145.89 4115.56,-107 4132.35,-104.56 4150.76,-100.32 4165.88,-96.42"/>
<polygon fill="#63b8ff" stroke="#63b8ff" points="3385.96,-148.28 3375.97,-151.8 3385.97,-155.28 3385.96,-148.28"/>
</g>
<!-- Node565 -->
<g id="node37" class="node">
<title>Node565</title>
<g id="a_node37"><a xlink:href="CARDUnlock_8c.html" target="_top" xlink:title=" ">
<polygon fill="white" stroke="#666666" points="4443.06,-96 4288.06,-96 4288.06,-77 4443.06,-77 4443.06,-96"/>
<text text-anchor="middle" x="4365.56" y="-84" font-family="Helvetica,sans-Serif" font-size="10.00">libs/dolphin/card/CARDUnlock.c</text>
</a>
</g>
</g>
<!-- Node2&#45;&gt;Node565 -->
<g id="edge40" class="edge">
<title>Node2&#45;&gt;Node565</title>
<path fill="none" stroke="#63b8ff" d="M3385.64,-149.83C3578.02,-145.04 4105.96,-130.15 4278.56,-107 4296.35,-104.61 4315.88,-100.39 4331.92,-96.48"/>
<polygon fill="#63b8ff" stroke="#63b8ff" points="3385.7,-146.32 3375.79,-150.07 3385.87,-153.32 3385.7,-146.32"/>
</g>
<!-- Node566 -->
<g id="node38" class="node">
<title>Node566</title>
<g id="a_node38"><a xlink:href="db_8c.html" target="_top" xlink:title=" ">
<polygon fill="white" stroke="#666666" points="4561.56,-96 4461.56,-96 4461.56,-77 4561.56,-77 4561.56,-96"/>
<text text-anchor="middle" x="4511.56" y="-84" font-family="Helvetica,sans-Serif" font-size="10.00">libs/dolphin/db/db.c</text>
</a>
</g>
</g>
<!-- Node2&#45;&gt;Node566 -->
<g id="edge41" class="edge">
<title>Node2&#45;&gt;Node566</title>
<path fill="none" stroke="#63b8ff" d="M3385.96,-151.27C3601.85,-150.16 4245.56,-143.78 4451.56,-107 4464.28,-104.73 4478.02,-100.41 4489.14,-96.41"/>
<polygon fill="#63b8ff" stroke="#63b8ff" points="3385.98,-147.77 3375.99,-151.32 3386.01,-154.77 3385.98,-147.77"/>
</g>
<!-- Node567 -->
<g id="node39" class="node">
<title>Node567</title>
<g id="a_node39"><a xlink:href="dvd_8c.html" target="_top" xlink:title=" ">
<polygon fill="white" stroke="#666666" points="4689.56,-96 4579.56,-96 4579.56,-77 4689.56,-77 4689.56,-96"/>
<text text-anchor="middle" x="4634.56" y="-84" font-family="Helvetica,sans-Serif" font-size="10.00">libs/dolphin/dvd/dvd.c</text>
</a>
</g>
</g>
<!-- Node2&#45;&gt;Node567 -->
<g id="edge42" class="edge">
<title>Node2&#45;&gt;Node567</title>
<path fill="none" stroke="#63b8ff" d="M3385.46,-151.41C3615.57,-150.74 4340.01,-145.53 4570.56,-107 4584.07,-104.74 4598.73,-100.42 4610.6,-96.42"/>
<polygon fill="#63b8ff" stroke="#63b8ff" points="3385.73,-147.91 3375.74,-151.44 3385.75,-154.91 3385.73,-147.91"/>
</g>
<!-- Node568 -->
<g id="node40" class="node">
<title>Node568</title>
<g id="a_node40"><a xlink:href="dvdfs_8c.html" target="_top" xlink:title=" ">
<polygon fill="white" stroke="#666666" points="4827.06,-96 4708.06,-96 4708.06,-77 4827.06,-77 4827.06,-96"/>
<text text-anchor="middle" x="4767.56" y="-84" font-family="Helvetica,sans-Serif" font-size="10.00">libs/dolphin/dvd/dvdfs.c</text>
</a>
</g>
</g>
<!-- Node2&#45;&gt;Node568 -->
<g id="edge43" class="edge">
<title>Node2&#45;&gt;Node568</title>
<path fill="none" stroke="#63b8ff" d="M3385.49,-151.49C3630.72,-151.12 4441.61,-146.83 4698.56,-107 4713.07,-104.75 4728.87,-100.43 4741.67,-96.43"/>
<polygon fill="#63b8ff" stroke="#63b8ff" points="3385.76,-147.99 3375.76,-151.51 3385.76,-154.99 3385.76,-147.99"/>
</g>
<!-- Node569 -->
<g id="node41" class="node">
<title>Node569</title>
<g id="a_node41"><a xlink:href="fstload_8c.html" target="_top" xlink:title=" ">
<polygon fill="white" stroke="#666666" points="4969.56,-96 4845.56,-96 4845.56,-77 4969.56,-77 4969.56,-96"/>
<text text-anchor="middle" x="4907.56" y="-84" font-family="Helvetica,sans-Serif" font-size="10.00">libs/dolphin/dvd/fstload.c</text>
</a>
</g>
</g>
<!-- Node2&#45;&gt;Node569 -->
<g id="edge44" class="edge">
<title>Node2&#45;&gt;Node569</title>
<path fill="none" stroke="#63b8ff" d="M3385.45,-151.67C3646.15,-151.94 4551.26,-149.72 4836.56,-107 4851.47,-104.77 4867.72,-100.45 4880.91,-96.44"/>
<polygon fill="#63b8ff" stroke="#63b8ff" points="3385.77,-148.17 3375.77,-151.66 3385.77,-155.17 3385.77,-148.17"/>
</g>
<!-- Node570 -->
<g id="node42" class="node">
<title>Node570</title>
<g id="a_node42"><a xlink:href="EXIBios_8c.html" target="_top" xlink:title=" ">
<polygon fill="white" stroke="#666666" points="5113.56,-96 4987.56,-96 4987.56,-77 5113.56,-77 5113.56,-96"/>
<text text-anchor="middle" x="5050.56" y="-84" font-family="Helvetica,sans-Serif" font-size="10.00">libs/dolphin/exi/EXIBios.c</text>
</a>
</g>
</g>
<!-- Node2&#45;&gt;Node570 -->
<g id="edge45" class="edge">
<title>Node2&#45;&gt;Node570</title>
<path fill="none" stroke="#63b8ff" d="M3385.95,-151.85C3662.63,-152.84 4664.25,-153.09 4978.56,-107 4993.68,-104.78 5010.15,-100.47 5023.53,-96.46"/>
<polygon fill="#63b8ff" stroke="#63b8ff" points="3386.01,-148.35 3376,-151.81 3385.99,-155.35 3386.01,-148.35"/>
</g>
<!-- Node571 -->
<g id="node43" class="node">
<title>Node571</title>
<g id="a_node43"><a xlink:href="EXIUart_8c.html" target="_top" xlink:title=" ">
<polygon fill="white" stroke="#666666" points="5257.06,-96 5132.06,-96 5132.06,-77 5257.06,-77 5257.06,-96"/>
<text text-anchor="middle" x="5194.56" y="-84" font-family="Helvetica,sans-Serif" font-size="10.00">libs/dolphin/exi/EXIUart.c</text>
</a>
</g>
</g>
<!-- Node2&#45;&gt;Node571 -->
<g id="edge46" class="edge">
<title>Node2&#45;&gt;Node571</title>
<path fill="none" stroke="#63b8ff" d="M3385.71,-150.76C3699.15,-147.35 4948.86,-132.28 5122.56,-107 5137.68,-104.8 5154.16,-100.48 5167.53,-96.47"/>
<polygon fill="#63b8ff" stroke="#63b8ff" points="3386,-147.25 3376.04,-150.86 3386.07,-154.25 3386,-147.25"/>
</g>
<!-- Node572 -->
<g id="node44" class="node">
<title>Node572</title>
<g id="a_node44"><a xlink:href="GXFifo_8c.html" target="_top" xlink:title=" ">
<polygon fill="white" stroke="#666666" points="5394.06,-96 5275.06,-96 5275.06,-77 5394.06,-77 5394.06,-96"/>
<text text-anchor="middle" x="5334.56" y="-84" font-family="Helvetica,sans-Serif" font-size="10.00">libs/dolphin/gx/GXFifo.c</text>
</a>
</g>
</g>
<!-- Node2&#45;&gt;Node572 -->
<g id="edge47" class="edge">
<title>Node2&#45;&gt;Node572</title>
<path fill="none" stroke="#63b8ff" d="M3385.66,-150.96C3714.29,-148.31 5078.14,-135.68 5266.56,-107 5280.88,-104.82 5296.45,-100.51 5309.07,-96.49"/>
<polygon fill="#63b8ff" stroke="#63b8ff" points="3385.89,-147.46 3375.92,-151.04 3385.95,-154.46 3385.89,-147.46"/>
</g>
<!-- Node573 -->
<g id="node45" class="node">
<title>Node573</title>
<g id="a_node45"><a xlink:href="GXInit_8c.html" target="_top" xlink:title=" ">
<polygon fill="white" stroke="#666666" points="5528.56,-96 5412.56,-96 5412.56,-77 5528.56,-77 5528.56,-96"/>
<text text-anchor="middle" x="5470.56" y="-84" font-family="Helvetica,sans-Serif" font-size="10.00">libs/dolphin/gx/GXInit.c</text>
</a>
</g>
</g>
<!-- Node2&#45;&gt;Node573 -->
<g id="edge48" class="edge">
<title>Node2&#45;&gt;Node573</title>
<path fill="none" stroke="#63b8ff" d="M3385.82,-151.09C3728.78,-148.96 5201.02,-138.08 5403.56,-107 5417.8,-104.81 5433.28,-100.45 5445.77,-96.4"/>
<polygon fill="#63b8ff" stroke="#63b8ff" points="3385.83,-147.59 3375.85,-151.15 3385.88,-154.59 3385.83,-147.59"/>
</g>
<!-- Node574 -->
<g id="node46" class="node">
<title>Node574</title>
<g id="a_node46"><a xlink:href="OS_8c.html" target="_top" xlink:title=" ">
<polygon fill="white" stroke="#666666" points="5650.56,-96 5546.56,-96 5546.56,-77 5650.56,-77 5650.56,-96"/>
<text text-anchor="middle" x="5598.56" y="-84" font-family="Helvetica,sans-Serif" font-size="10.00">libs/dolphin/os/OS.c</text>
</a>
</g>
</g>
<!-- Node2&#45;&gt;Node574 -->
<g id="edge49" class="edge">
<title>Node2&#45;&gt;Node574</title>
<path fill="none" stroke="#63b8ff" d="M3385.74,-151.3C3741.88,-150.12 5321.54,-142.91 5537.56,-107 5550.61,-104.83 5564.71,-100.46 5576.06,-96.41"/>
<polygon fill="#63b8ff" stroke="#63b8ff" points="3385.84,-147.8 3375.85,-151.33 3385.86,-154.8 3385.84,-147.8"/>
</g>
<!-- Node575 -->
<g id="node47" class="node">
<title>Node575</title>
<g id="a_node47"><a xlink:href="OSAlarm_8c.html" target="_top" xlink:title=" ">
<polygon fill="white" stroke="#666666" points="5798.06,-96 5669.06,-96 5669.06,-77 5798.06,-77 5798.06,-96"/>
<text text-anchor="middle" x="5733.56" y="-84" font-family="Helvetica,sans-Serif" font-size="10.00">libs/dolphin/os/OSAlarm.c</text>
</a>
</g>
</g>
<!-- Node2&#45;&gt;Node575 -->
<g id="edge50" class="edge">
<title>Node2&#45;&gt;Node575</title>
<path fill="none" stroke="#63b8ff" d="M3385.73,-151.16C3753.47,-149.27 5429.97,-138.96 5659.56,-107 5675.21,-104.82 5692.31,-100.45 5706.11,-96.4"/>
<polygon fill="#63b8ff" stroke="#63b8ff" points="3385.97,-147.66 3375.98,-151.21 3386,-154.66 3385.97,-147.66"/>
</g>
<!-- Node576 -->
<g id="node48" class="node">
<title>Node576</title>
<g id="a_node48"><a xlink:href="OSCache_8c.html" target="_top" xlink:title=" ">
<polygon fill="white" stroke="#666666" points="5947.06,-96 5816.06,-96 5816.06,-77 5947.06,-77 5947.06,-96"/>
<text text-anchor="middle" x="5881.56" y="-84" font-family="Helvetica,sans-Serif" font-size="10.00">libs/dolphin/os/OSCache.c</text>
</a>
</g>
</g>
<!-- Node2&#45;&gt;Node576 -->
<g id="edge51" class="edge">
<title>Node2&#45;&gt;Node576</title>
<path fill="none" stroke="#63b8ff" d="M3385.85,-151.25C3767.68,-149.75 5562.54,-140.97 5807.56,-107 5823.22,-104.83 5840.31,-100.46 5854.11,-96.41"/>
<polygon fill="#63b8ff" stroke="#63b8ff" points="3385.94,-147.75 3375.95,-151.28 3385.97,-154.75 3385.94,-147.75"/>
</g>
<!-- Node577 -->
<g id="node49" class="node">
<title>Node577</title>
<g id="a_node49"><a xlink:href="OSContext_8c.html" target="_top" xlink:title=" ">
<polygon fill="white" stroke="#666666" points="6102.06,-96 5965.06,-96 5965.06,-77 6102.06,-77 6102.06,-96"/>
<text text-anchor="middle" x="6033.56" y="-84" font-family="Helvetica,sans-Serif" font-size="10.00">libs/dolphin/os/OSContext.c</text>
</a>
</g>
</g>
<!-- Node2&#45;&gt;Node577 -->
<g id="edge52" class="edge">
<title>Node2&#45;&gt;Node577</title>
<path fill="none" stroke="#63b8ff" d="M3385.63,-151.28C3780.46,-149.95 5695.74,-141.74 5956.56,-107 5972.82,-104.83 5990.6,-100.47 6004.98,-96.41"/>
<polygon fill="#63b8ff" stroke="#63b8ff" points="3385.89,-147.78 3375.9,-151.32 3385.92,-154.78 3385.89,-147.78"/>
</g>
<!-- Node2&#45;&gt;Node582 -->
<g id="edge53" class="edge">
<title>Node2&#45;&gt;Node582</title>
<path fill="none" stroke="#63b8ff" d="M3385.65,-151.37C3812.17,-150.46 6023.02,-143.96 6322.56,-107 6340.04,-104.84 6359.2,-100.48 6374.71,-96.42"/>
<polygon fill="#63b8ff" stroke="#63b8ff" points="3385.94,-147.87 3375.95,-151.39 3385.96,-154.87 3385.94,-147.87"/>
</g>
<!-- Node3&#45;&gt;Node522 -->
<g id="edge3" class="edge">
<title>Node3&#45;&gt;Node522</title>
<path fill="none" stroke="#63b8ff" d="M6124.67,-68.44C6120.26,-67.49 6115.85,-66.66 6111.56,-66 5817.91,-21.04 4880,-16.43 4623.77,-16.02"/>
<polygon fill="#63b8ff" stroke="#63b8ff" points="6123.57,-71.78 6134.11,-70.67 6125.18,-64.97 6123.57,-71.78"/>
</g>
<!-- Node3&#45;&gt;Node526 -->
<g id="edge4" class="edge">
<title>Node3&#45;&gt;Node526</title>
<path fill="none" stroke="#63b8ff" d="M6181.56,-59.76C6181.56,-49.83 6181.56,-38.86 6181.56,-30.38"/>
<polygon fill="#63b8ff" stroke="#63b8ff" points="6178.06,-59.59 6181.56,-69.59 6185.06,-59.59 6178.06,-59.59"/>
</g>
<!-- Node3&#45;&gt;Node529 -->
<g id="edge5" class="edge">
<title>Node3&#45;&gt;Node529</title>
<path fill="none" stroke="#63b8ff" d="M6217.83,-65.65C6238.39,-54.4 6263.64,-40.58 6282.27,-30.38"/>
<polygon fill="#63b8ff" stroke="#63b8ff" points="6216.29,-62.5 6209.2,-70.37 6219.65,-68.64 6216.29,-62.5"/>
</g>
<!-- Node3&#45;&gt;Node536 -->
<g id="edge6" class="edge">
<title>Node3&#45;&gt;Node536</title>
<path fill="none" stroke="#63b8ff" d="M6125.5,-68.51C6120.81,-67.51 6116.12,-66.65 6111.56,-66 5871.87,-31.93 2006.03,-17.86 1504.93,-16.17"/>
<polygon fill="#63b8ff" stroke="#63b8ff" points="6124.35,-71.84 6134.89,-70.71 6125.95,-65.02 6124.35,-71.84"/>
</g>
</g>
</svg>
