<?xml version="1.0" encoding="UTF-8" standalone="no"?>
<!DOCTYPE svg PUBLIC "-//W3C//DTD SVG 1.1//EN"
 "http://www.w3.org/Graphics/SVG/1.1/DTD/svg11.dtd">
<!-- Generated by graphviz version 7.0.5 (20221223.1930)
 -->
<!-- Title: libs/dolphin/os/OSReboot.c Pages: 1 -->
<svg width="554pt" height="203pt"
 viewBox="0.00 0.00 553.50 203.00" xmlns="http://www.w3.org/2000/svg" xmlns:xlink="http://www.w3.org/1999/xlink">
<g id="graph0" class="graph" transform="scale(1 1) rotate(0) translate(4 199)">
<title>libs/dolphin/os/OSReboot.c</title>
<!-- Node1 -->
<g id="node1" class="node">
<title>Node1</title>
<g id="a_node1"><a xlink:title=" ">
<polygon fill="#999999" stroke="#666666" points="295,-195 161,-195 161,-176 295,-176 295,-195"/>
<text text-anchor="middle" x="228" y="-183" font-family="Helvetica,sans-Serif" font-size="10.00">libs/dolphin/os/OSReboot.c</text>
</a>
</g>
</g>
<!-- Node2 -->
<g id="node2" class="node">
<title>Node2</title>
<g id="a_node2"><a xlink:href="OSReboot_8h.html" target="_top" xlink:title=" ">
<polygon fill="white" stroke="#666666" points="116,-140 0,-140 0,-121 116,-121 116,-140"/>
<text text-anchor="middle" x="58" y="-128" font-family="Helvetica,sans-Serif" font-size="10.00">dolphin/os/OSReboot.h</text>
</a>
</g>
</g>
<!-- Node1&#45;&gt;Node2 -->
<g id="edge1" class="edge">
<title>Node1&#45;&gt;Node2</title>
<path fill="none" stroke="#63b8ff" d="M199.16,-175.51C171.24,-166.8 128.67,-153.53 97.58,-143.84"/>
<polygon fill="#63b8ff" stroke="#63b8ff" points="98.73,-140.53 88.14,-140.9 96.65,-147.21 98.73,-140.53"/>
</g>
<!-- Node3 -->
<g id="node3" class="node">
<title>Node3</title>
<g id="a_node3"><a xlink:href="types_8h.html" target="_top" xlink:title=" ">
<polygon fill="white" stroke="#666666" points="268.5,-85 187.5,-85 187.5,-66 268.5,-66 268.5,-85"/>
<text text-anchor="middle" x="228" y="-73" font-family="Helvetica,sans-Serif" font-size="10.00">dolphin/types.h</text>
</a>
</g>
</g>
<!-- Node1&#45;&gt;Node3 -->
<g id="edge10" class="edge">
<title>Node1&#45;&gt;Node3</title>
<path fill="none" stroke="#63b8ff" d="M205.24,-175.65C190.27,-168.49 171.87,-156.82 163,-140 152.31,-119.73 174.67,-102.02 196.02,-90.49"/>
<polygon fill="#63b8ff" stroke="#63b8ff" points="197.55,-93.64 204.92,-86.02 194.41,-87.39 197.55,-93.64"/>
</g>
<!-- Node5 -->
<g id="node5" class="node">
<title>Node5</title>
<g id="a_node5"><a xlink:href="OSArena_8h.html" target="_top" xlink:title=" ">
<polygon fill="white" stroke="#666666" points="283.5,-140 172.5,-140 172.5,-121 283.5,-121 283.5,-140"/>
<text text-anchor="middle" x="228" y="-128" font-family="Helvetica,sans-Serif" font-size="10.00">dolphin/os/OSArena.h</text>
</a>
</g>
</g>
<!-- Node1&#45;&gt;Node5 -->
<g id="edge4" class="edge">
<title>Node1&#45;&gt;Node5</title>
<path fill="none" stroke="#63b8ff" d="M228,-175.75C228,-169.27 228,-160.16 228,-151.9"/>
<polygon fill="#63b8ff" stroke="#63b8ff" points="231.5,-151.96 228,-141.96 224.5,-151.96 231.5,-151.96"/>
</g>
<!-- Node6 -->
<g id="node6" class="node">
<title>Node6</title>
<g id="a_node6"><a xlink:href="OSContext_8h.html" target="_top" xlink:title=" ">
<polygon fill="white" stroke="#666666" points="420.5,-140 301.5,-140 301.5,-121 420.5,-121 420.5,-140"/>
<text text-anchor="middle" x="361" y="-128" font-family="Helvetica,sans-Serif" font-size="10.00">dolphin/os/OSContext.h</text>
</a>
</g>
</g>
<!-- Node1&#45;&gt;Node6 -->
<g id="edge6" class="edge">
<title>Node1&#45;&gt;Node6</title>
<path fill="none" stroke="#63b8ff" d="M250.56,-175.51C271.9,-167.01 304.16,-154.15 328.31,-144.53"/>
<polygon fill="#63b8ff" stroke="#63b8ff" points="329.37,-147.87 337.37,-140.92 326.78,-141.37 329.37,-147.87"/>
</g>
<!-- Node7 -->
<g id="node7" class="node">
<title>Node7</title>
<g id="a_node7"><a xlink:href="OSExec_8h.html" target="_top" xlink:title=" ">
<polygon fill="white" stroke="#666666" points="545.5,-140 438.5,-140 438.5,-121 545.5,-121 545.5,-140"/>
<text text-anchor="middle" x="492" y="-128" font-family="Helvetica,sans-Serif" font-size="10.00">dolphin/os/OSExec.h</text>
</a>
</g>
</g>
<!-- Node1&#45;&gt;Node7 -->
<g id="edge8" class="edge">
<title>Node1&#45;&gt;Node7</title>
<path fill="none" stroke="#63b8ff" d="M272.78,-175.51C317.86,-166.46 387.51,-152.48 436.16,-142.71"/>
<polygon fill="#63b8ff" stroke="#63b8ff" points="436.84,-146.14 445.95,-140.74 435.46,-139.28 436.84,-146.14"/>
</g>
<!-- Node2&#45;&gt;Node3 -->
<g id="edge2" class="edge">
<title>Node2&#45;&gt;Node3</title>
<path fill="none" stroke="#63b8ff" d="M86.84,-120.51C114.76,-111.8 157.33,-98.53 188.42,-88.84"/>
<polygon fill="#63b8ff" stroke="#63b8ff" points="189.35,-92.21 197.86,-85.9 187.27,-85.53 189.35,-92.21"/>
</g>
<!-- Node4 -->
<g id="node4" class="node">
<title>Node4</title>
<g id="a_node4"><a xlink:href="stddef_8h.html" target="_top" xlink:title=" ">
<polygon fill="white" stroke="#666666" points="296,-30 160,-30 160,0 296,0 296,-30"/>
<text text-anchor="start" x="168" y="-18" font-family="Helvetica,sans-Serif" font-size="10.00">MSL_C/MSL_Common/Src</text>
<text text-anchor="middle" x="228" y="-7" font-family="Helvetica,sans-Serif" font-size="10.00">/stddef.h</text>
</a>
</g>
</g>
<!-- Node3&#45;&gt;Node4 -->
<g id="edge3" class="edge">
<title>Node3&#45;&gt;Node4</title>
<path fill="none" stroke="#63b8ff" d="M228,-65.87C228,-59.4 228,-50.2 228,-41.45"/>
<polygon fill="#63b8ff" stroke="#63b8ff" points="231.5,-41.63 228,-31.63 224.5,-41.63 231.5,-41.63"/>
</g>
<!-- Node5&#45;&gt;Node3 -->
<g id="edge5" class="edge">
<title>Node5&#45;&gt;Node3</title>
<path fill="none" stroke="#63b8ff" d="M228,-120.75C228,-114.27 228,-105.16 228,-96.9"/>
<polygon fill="#63b8ff" stroke="#63b8ff" points="231.5,-96.96 228,-86.96 224.5,-96.96 231.5,-96.96"/>
</g>
<!-- Node6&#45;&gt;Node3 -->
<g id="edge7" class="edge">
<title>Node6&#45;&gt;Node3</title>
<path fill="none" stroke="#63b8ff" d="M338.44,-120.51C317.1,-112.01 284.84,-99.15 260.69,-89.53"/>
<polygon fill="#63b8ff" stroke="#63b8ff" points="262.22,-86.37 251.63,-85.92 259.63,-92.87 262.22,-86.37"/>
</g>
<!-- Node7&#45;&gt;Node3 -->
<g id="edge9" class="edge">
<title>Node7&#45;&gt;Node3</title>
<path fill="none" stroke="#63b8ff" d="M447.22,-120.51C400.91,-111.21 328.69,-96.71 279.91,-86.92"/>
<polygon fill="#63b8ff" stroke="#63b8ff" points="280.64,-83.5 270.15,-84.96 279.26,-90.36 280.64,-83.5"/>
</g>
</g>
</svg>
