<?xml version="1.0" encoding="UTF-8" standalone="no"?>
<!DOCTYPE svg PUBLIC "-//W3C//DTD SVG 1.1//EN"
 "http://www.w3.org/Graphics/SVG/1.1/DTD/svg11.dtd">
<!-- Generated by graphviz version 7.0.5 (20221223.1930)
 -->
<!-- Title: include/MSL_C/MSL_Common/Src/printf.h Pages: 1 -->
<svg width="247pt" height="236pt"
 viewBox="0.00 0.00 247.00 236.00" xmlns="http://www.w3.org/2000/svg" xmlns:xlink="http://www.w3.org/1999/xlink">
<g id="graph0" class="graph" transform="scale(1 1) rotate(0) translate(4 232)">
<title>include/MSL_C/MSL_Common/Src/printf.h</title>
<!-- Node1 -->
<g id="node1" class="node">
<title>Node1</title>
<g id="a_node1"><a xlink:title=" ">
<polygon fill="#999999" stroke="#666666" points="207,-228 55,-228 55,-198 207,-198 207,-228"/>
<text text-anchor="start" x="63" y="-216" font-family="Helvetica,sans-Serif" font-size="10.00">include/MSL_C/MSL_Common</text>
<text text-anchor="middle" x="131" y="-205" font-family="Helvetica,sans-Serif" font-size="10.00">/Src/printf.h</text>
</a>
</g>
</g>
<!-- Node2 -->
<g id="node2" class="node">
<title>Node2</title>
<g id="a_node2"><a xlink:href="ansi__files_8h.html" target="_top" xlink:title=" ">
<polygon fill="white" stroke="#666666" points="136,-96 0,-96 0,-66 136,-66 136,-96"/>
<text text-anchor="start" x="8" y="-84" font-family="Helvetica,sans-Serif" font-size="10.00">MSL_C/MSL_Common/Src</text>
<text text-anchor="middle" x="68" y="-73" font-family="Helvetica,sans-Serif" font-size="10.00">/ansi_files.h</text>
</a>
</g>
</g>
<!-- Node1&#45;&gt;Node2 -->
<g id="edge1" class="edge">
<title>Node1&#45;&gt;Node2</title>
<path fill="none" stroke="#63b8ff" d="M124.02,-197.59C113.37,-175.63 92.96,-133.5 79.93,-106.62"/>
<polygon fill="#63b8ff" stroke="#63b8ff" points="83.18,-105.31 75.67,-97.84 76.89,-108.36 83.18,-105.31"/>
</g>
<!-- Node4 -->
<g id="node4" class="node">
<title>Node4</title>
<g id="a_node4"><a xlink:href="____va__arg_8h.html" target="_top" xlink:title=" ">
<polygon fill="white" stroke="#666666" points="239,-162 129,-162 129,-132 239,-132 239,-162"/>
<text text-anchor="start" x="137" y="-150" font-family="Helvetica,sans-Serif" font-size="10.00">Runtime.PPCEABI.H/</text>
<text text-anchor="middle" x="184" y="-139" font-family="Helvetica,sans-Serif" font-size="10.00">__va_arg.h</text>
</a>
</g>
</g>
<!-- Node1&#45;&gt;Node4 -->
<g id="edge3" class="edge">
<title>Node1&#45;&gt;Node4</title>
<path fill="none" stroke="#63b8ff" d="M142.76,-197.8C149.28,-189.92 157.54,-179.95 164.96,-170.99"/>
<polygon fill="#63b8ff" stroke="#63b8ff" points="167.62,-173.26 171.31,-163.33 162.23,-168.8 167.62,-173.26"/>
</g>
<!-- Node3 -->
<g id="node3" class="node">
<title>Node3</title>
<g id="a_node3"><a xlink:href="stddef_8h.html" target="_top" xlink:title=" ">
<polygon fill="white" stroke="#666666" points="199,-30 63,-30 63,0 199,0 199,-30"/>
<text text-anchor="start" x="71" y="-18" font-family="Helvetica,sans-Serif" font-size="10.00">MSL_C/MSL_Common/Src</text>
<text text-anchor="middle" x="131" y="-7" font-family="Helvetica,sans-Serif" font-size="10.00">/stddef.h</text>
</a>
</g>
</g>
<!-- Node2&#45;&gt;Node3 -->
<g id="edge2" class="edge">
<title>Node2&#45;&gt;Node3</title>
<path fill="none" stroke="#63b8ff" d="M81.98,-65.8C89.98,-57.68 100.17,-47.31 109.2,-38.15"/>
<polygon fill="#63b8ff" stroke="#63b8ff" points="111.47,-40.82 116,-31.24 106.49,-35.91 111.47,-40.82"/>
</g>
<!-- Node5 -->
<g id="node5" class="node">
<title>Node5</title>
<g id="a_node5"><a xlink:href="types_8h.html" target="_top" xlink:title=" ">
<polygon fill="white" stroke="#666666" points="235.5,-90.5 154.5,-90.5 154.5,-71.5 235.5,-71.5 235.5,-90.5"/>
<text text-anchor="middle" x="195" y="-78.5" font-family="Helvetica,sans-Serif" font-size="10.00">dolphin/types.h</text>
</a>
</g>
</g>
<!-- Node4&#45;&gt;Node5 -->
<g id="edge4" class="edge">
<title>Node4&#45;&gt;Node5</title>
<path fill="none" stroke="#63b8ff" d="M186.44,-131.8C187.94,-123.09 189.88,-111.81 191.53,-102.18"/>
<polygon fill="#63b8ff" stroke="#63b8ff" points="194.98,-102.78 193.22,-92.34 188.08,-101.6 194.98,-102.78"/>
</g>
<!-- Node5&#45;&gt;Node3 -->
<g id="edge5" class="edge">
<title>Node5&#45;&gt;Node3</title>
<path fill="none" stroke="#63b8ff" d="M186.1,-71.1C177.59,-62.59 164.41,-49.41 153.07,-38.07"/>
<polygon fill="#63b8ff" stroke="#63b8ff" points="155.85,-35.9 146.3,-31.3 150.9,-40.85 155.85,-35.9"/>
</g>
</g>
</svg>
