<?xml version="1.0" encoding="UTF-8" standalone="no"?>
<!DOCTYPE svg PUBLIC "-//W3C//DTD SVG 1.1//EN"
 "http://www.w3.org/Graphics/SVG/1.1/DTD/svg11.dtd">
<!-- Generated by graphviz version 7.0.5 (20221223.1930)
 -->
<!-- Title: libs/JSystem/JMessage/processor.cpp Pages: 1 -->
<!--zoomable 610 -->
<svg id="main" version="1.1" xmlns="http://www.w3.org/2000/svg" xmlns:xlink="http://www.w3.org/1999/xlink" xml:space="preserve" onload="init(evt)">
<style type="text/css"><![CDATA[
.edge:hover path { stroke: red; }
.edge:hover polygon { stroke: red; fill: red; }
]]></style>
<script type="text/javascript"><![CDATA[
var edges = document.getElementsByTagName('g');
if (edges && edges.length) {
  for (var i=0;i<edges.length;i++) {
    if (edges[i].id.substr(0,4)=='edge') {
      edges[i].setAttribute('class','edge');
    }
  }
}
]]></script>
        <defs>
                <circle id="rim" cx="0" cy="0" r="7"/>
                <circle id="rim2" cx="0" cy="0" r="3.5"/>
                <g id="zoomPlus">
                        <use xlink:href="#rim" fill="#404040">
                                <set attributeName="fill" to="#808080" begin="zoomplus.mouseover" end="zoomplus.mouseout"/>
                        </use>
                        <path d="M-4,0h8M0,-4v8" fill="none" stroke="white" stroke-width="1.5" pointer-events="none"/>
                </g>
                <g id="zoomMin">
                        <use xlink:href="#rim" fill="#404040">
                                <set attributeName="fill" to="#808080" begin="zoomminus.mouseover" end="zoomminus.mouseout"/>
                        </use>
                        <path d="M-4,0h8" fill="none" stroke="white" stroke-width="1.5" pointer-events="none"/>
                </g>
                <g id="dirArrow">
                        <path fill="none" stroke="white" stroke-width="1.5" d="M0,-3.0v7 M-2.5,-0.5L0,-3.0L2.5,-0.5"/>
                </g>
               <g id="resetDef">
                       <use xlink:href="#rim2" fill="#404040">
                               <set attributeName="fill" to="#808080" begin="reset.mouseover" end="reset.mouseout"/>
                       </use>
               </g>
        </defs>

<script type="text/javascript">
var viewWidth = 2372;
var viewHeight = 610;
var sectionId = 'dynsection-0';
</script>
<script xlink:href="svgpan.js"/>
<svg id="graph" class="graph">
<g id="viewport">
<title>libs/JSystem/JMessage/processor.cpp</title>
<!-- Node1 -->
<g id="node1" class="node">
<title>Node1</title>
<g id="a_node1"><a xlink:title=" ">
<polygon fill="#999999" stroke="#666666" points="710,-602 589,-602 589,-572 710,-572 710,-602"/>
<text text-anchor="start" x="597" y="-590" font-family="Helvetica,sans-Serif" font-size="10.00">libs/JSystem/JMessage</text>
<text text-anchor="middle" x="649.5" y="-579" font-family="Helvetica,sans-Serif" font-size="10.00">/processor.cpp</text>
</a>
</g>
</g>
<!-- Node2 -->
<g id="node2" class="node">
<title>Node2</title>
<g id="a_node2"><a xlink:href="processor_8h.html" target="_top" xlink:title=" ">
<polygon fill="white" stroke="#666666" points="523.5,-448 367.5,-448 367.5,-429 523.5,-429 523.5,-448"/>
<text text-anchor="middle" x="445.5" y="-436" font-family="Helvetica,sans-Serif" font-size="10.00">JSystem/JMessage/processor.h</text>
</a>
</g>
</g>
<!-- Node1&#45;&gt;Node2 -->
<g id="edge1" class="edge">
<title>Node1&#45;&gt;Node2</title>
<path fill="none" stroke="#63b8ff" d="M588.63,-584.47C549.17,-580.2 499.52,-568.14 468.5,-536 448.8,-515.58 444.93,-481.48 444.67,-459.76"/>
<polygon fill="#63b8ff" stroke="#63b8ff" points="448.17,-459.91 444.84,-449.85 441.17,-459.79 448.17,-459.91"/>
</g>
<!-- Node15 -->
<g id="node15" class="node">
<title>Node15</title>
<g id="a_node15"><a xlink:href="JMessage_2control_8h.html" target="_top" xlink:title=" ">
<polygon fill="white" stroke="#666666" points="621,-519.5 478,-519.5 478,-500.5 621,-500.5 621,-519.5"/>
<text text-anchor="middle" x="549.5" y="-507.5" font-family="Helvetica,sans-Serif" font-size="10.00">JSystem/JMessage/control.h</text>
</a>
</g>
</g>
<!-- Node1&#45;&gt;Node15 -->
<g id="edge18" class="edge">
<title>Node1&#45;&gt;Node15</title>
<path fill="none" stroke="#63b8ff" d="M630.22,-571.54C612.98,-558.61 587.79,-539.71 570.14,-526.48"/>
<polygon fill="#63b8ff" stroke="#63b8ff" points="572.53,-523.9 562.43,-520.7 568.33,-529.5 572.53,-523.9"/>
</g>
<!-- Node16 -->
<g id="node16" class="node">
<title>Node16</title>
<g id="a_node16"><a xlink:href="JUTAssert_8h.html" target="_top" xlink:title=" ">
<polygon fill="white" stroke="#666666" points="725.5,-393 579.5,-393 579.5,-374 725.5,-374 725.5,-393"/>
<text text-anchor="middle" x="652.5" y="-381" font-family="Helvetica,sans-Serif" font-size="10.00">JSystem/JUtility/JUTAssert.h</text>
</a>
</g>
</g>
<!-- Node1&#45;&gt;Node16 -->
<g id="edge21" class="edge">
<title>Node1&#45;&gt;Node16</title>
<path fill="none" stroke="#63b8ff" d="M649.72,-571.51C650.24,-536.17 651.59,-445.48 652.2,-404.79"/>
<polygon fill="#63b8ff" stroke="#63b8ff" points="655.69,-405.04 652.34,-394.98 648.7,-404.93 655.69,-405.04"/>
</g>
<!-- Node41 -->
<g id="node41" class="node">
<title>Node41</title>
<g id="a_node41"><a xlink:title=" ">
<polygon fill="#e0e0e0" stroke="#999999" points="883.5,-536 677.5,-536 677.5,-484 883.5,-484 883.5,-536"/>
<text text-anchor="start" x="685.5" y="-524" font-family="Helvetica,sans-Serif" font-size="10.00">asm/JSystem/JMessage</text>
<text text-anchor="start" x="685.5" y="-513" font-family="Helvetica,sans-Serif" font-size="10.00">/processor/toMessageCode</text>
<text text-anchor="start" x="685.5" y="-502" font-family="Helvetica,sans-Serif" font-size="10.00">_messageID__Q28JMessage10TProcessor</text>
<text text-anchor="middle" x="780.5" y="-491" font-family="Helvetica,sans-Serif" font-size="10.00">CFUlUlPb.s</text>
</a>
</g>
</g>
<!-- Node1&#45;&gt;Node41 -->
<g id="edge69" class="edge">
<title>Node1&#45;&gt;Node41</title>
<path fill="none" stroke="#63b8ff" d="M674.76,-571.54C689.44,-563.13 708.52,-552.21 726.43,-541.96"/>
<polygon fill="#63b8ff" stroke="#63b8ff" points="727.97,-545.11 734.9,-537.1 724.49,-539.04 727.97,-545.11"/>
</g>
<!-- Node42 -->
<g id="node42" class="node">
<title>Node42</title>
<g id="a_node42"><a xlink:title=" ">
<polygon fill="#e0e0e0" stroke="#999999" points="1123,-536 902,-536 902,-484 1123,-484 1123,-536"/>
<text text-anchor="start" x="910" y="-524" font-family="Helvetica,sans-Serif" font-size="10.00">asm/JSystem/JMessage</text>
<text text-anchor="start" x="910" y="-513" font-family="Helvetica,sans-Serif" font-size="10.00">/processor/process_setMessage</text>
<text text-anchor="start" x="910" y="-502" font-family="Helvetica,sans-Serif" font-size="10.00">Index_reserved___Q28JMessage18TSequence</text>
<text text-anchor="middle" x="1012.5" y="-491" font-family="Helvetica,sans-Serif" font-size="10.00">ProcessorFUs.s</text>
</a>
</g>
</g>
<!-- Node1&#45;&gt;Node42 -->
<g id="edge70" class="edge">
<title>Node1&#45;&gt;Node42</title>
<path fill="none" stroke="#63b8ff" d="M710.43,-573.51C756.99,-563.95 823.08,-550.36 890.42,-536.43"/>
<polygon fill="#63b8ff" stroke="#63b8ff" points="891.11,-539.86 900.2,-534.41 889.69,-533 891.11,-539.86"/>
</g>
<!-- Node3 -->
<g id="node3" class="node">
<title>Node3</title>
<g id="a_node3"><a xlink:href="resource_8h.html" target="_top" xlink:title=" ">
<polygon fill="white" stroke="#666666" points="378,-393 227,-393 227,-374 378,-374 378,-393"/>
<text text-anchor="middle" x="302.5" y="-381" font-family="Helvetica,sans-Serif" font-size="10.00">JSystem/JMessage/resource.h</text>
</a>
</g>
</g>
<!-- Node2&#45;&gt;Node3 -->
<g id="edge2" class="edge">
<title>Node2&#45;&gt;Node3</title>
<path fill="none" stroke="#63b8ff" d="M421.24,-428.51C398.09,-419.93 362.99,-406.92 336.94,-397.27"/>
<polygon fill="#63b8ff" stroke="#63b8ff" points="338.41,-394.08 327.82,-393.88 335.98,-400.64 338.41,-394.08"/>
</g>
<!-- Node4 -->
<g id="node4" class="node">
<title>Node4</title>
<g id="a_node4"><a xlink:href="linklist_8h.html" target="_top" xlink:title=" ">
<polygon fill="white" stroke="#666666" points="133,-145.5 0,-145.5 0,-126.5 133,-126.5 133,-145.5"/>
<text text-anchor="middle" x="66.5" y="-133.5" font-family="Helvetica,sans-Serif" font-size="10.00">JSystem/JGadget/linklist.h</text>
</a>
</g>
</g>
<!-- Node3&#45;&gt;Node4 -->
<g id="edge3" class="edge">
<title>Node3&#45;&gt;Node4</title>
<path fill="none" stroke="#63b8ff" d="M226.62,-377.1C169.79,-371.34 98.68,-359.9 79.5,-338 34.39,-286.49 50.68,-196.18 60.84,-156.57"/>
<polygon fill="#63b8ff" stroke="#63b8ff" points="64.18,-157.63 63.43,-147.06 57.42,-155.78 64.18,-157.63"/>
</g>
<!-- Node7 -->
<g id="node7" class="node">
<title>Node7</title>
<g id="a_node7"><a xlink:href="data_8h.html" target="_top" xlink:title=" ">
<polygon fill="white" stroke="#666666" points="220.5,-332.5 88.5,-332.5 88.5,-313.5 220.5,-313.5 220.5,-332.5"/>
<text text-anchor="middle" x="154.5" y="-320.5" font-family="Helvetica,sans-Serif" font-size="10.00">JSystem/JMessage/data.h</text>
</a>
</g>
</g>
<!-- Node3&#45;&gt;Node7 -->
<g id="edge6" class="edge">
<title>Node3&#45;&gt;Node7</title>
<path fill="none" stroke="#63b8ff" d="M280.02,-373.62C255.46,-363.91 215.88,-348.26 187.73,-337.14"/>
<polygon fill="#63b8ff" stroke="#63b8ff" points="189.18,-333.95 178.6,-333.52 186.61,-340.46 189.18,-333.95"/>
</g>
<!-- Node9 -->
<g id="node9" class="node">
<title>Node9</title>
<g id="a_node9"><a xlink:href="locale_8h.html" target="_top" xlink:title=" ">
<polygon fill="white" stroke="#666666" points="523,-332.5 384,-332.5 384,-313.5 523,-313.5 523,-332.5"/>
<text text-anchor="middle" x="453.5" y="-320.5" font-family="Helvetica,sans-Serif" font-size="10.00">JSystem/JMessage/locale.h</text>
</a>
</g>
</g>
<!-- Node3&#45;&gt;Node9 -->
<g id="edge9" class="edge">
<title>Node3&#45;&gt;Node9</title>
<path fill="none" stroke="#63b8ff" d="M325.43,-373.62C350.6,-363.87 391.23,-348.12 419.98,-336.99"/>
<polygon fill="#63b8ff" stroke="#63b8ff" points="420.88,-340.39 428.94,-333.52 418.35,-333.86 420.88,-340.39"/>
</g>
<!-- Node10 -->
<g id="node10" class="node">
<title>Node10</title>
<g id="a_node10"><a xlink:href="fvb-data_8h.html" target="_top" xlink:title=" ">
<polygon fill="white" stroke="#666666" points="366,-338 239,-338 239,-308 366,-308 366,-338"/>
<text text-anchor="start" x="247" y="-326" font-family="Helvetica,sans-Serif" font-size="10.00">JSystem/JStudio/JStudio</text>
<text text-anchor="middle" x="302.5" y="-315" font-family="Helvetica,sans-Serif" font-size="10.00">/fvb&#45;data.h</text>
</a>
</g>
</g>
<!-- Node3&#45;&gt;Node10 -->
<g id="edge10" class="edge">
<title>Node3&#45;&gt;Node10</title>
<path fill="none" stroke="#63b8ff" d="M302.5,-373.87C302.5,-367.4 302.5,-358.2 302.5,-349.45"/>
<polygon fill="#63b8ff" stroke="#63b8ff" points="306,-349.63 302.5,-339.63 299,-349.63 306,-349.63"/>
</g>
<!-- Node5 -->
<g id="node5" class="node">
<title>Node5</title>
<g id="a_node5"><a xlink:href="types_8h.html" target="_top" xlink:title=" ">
<polygon fill="white" stroke="#666666" points="1102,-85 1021,-85 1021,-66 1102,-66 1102,-85"/>
<text text-anchor="middle" x="1061.5" y="-73" font-family="Helvetica,sans-Serif" font-size="10.00">dolphin/types.h</text>
</a>
</g>
</g>
<!-- Node4&#45;&gt;Node5 -->
<g id="edge4" class="edge">
<title>Node4&#45;&gt;Node5</title>
<path fill="none" stroke="#63b8ff" d="M115.49,-126.05C127.55,-124.11 140.47,-122.27 152.5,-121 477.27,-86.73 870.16,-78.79 1009.46,-77"/>
<polygon fill="#63b8ff" stroke="#63b8ff" points="1009.13,-80.51 1019.09,-76.88 1009.05,-73.51 1009.13,-80.51"/>
</g>
<!-- Node6 -->
<g id="node6" class="node">
<title>Node6</title>
<g id="a_node6"><a xlink:href="stddef_8h.html" target="_top" xlink:title=" ">
<polygon fill="white" stroke="#666666" points="1129.5,-30 993.5,-30 993.5,0 1129.5,0 1129.5,-30"/>
<text text-anchor="start" x="1001.5" y="-18" font-family="Helvetica,sans-Serif" font-size="10.00">MSL_C/MSL_Common/Src</text>
<text text-anchor="middle" x="1061.5" y="-7" font-family="Helvetica,sans-Serif" font-size="10.00">/stddef.h</text>
</a>
</g>
</g>
<!-- Node5&#45;&gt;Node6 -->
<g id="edge5" class="edge">
<title>Node5&#45;&gt;Node6</title>
<path fill="none" stroke="#63b8ff" d="M1061.5,-65.87C1061.5,-59.4 1061.5,-50.2 1061.5,-41.45"/>
<polygon fill="#63b8ff" stroke="#63b8ff" points="1065,-41.63 1061.5,-31.63 1058,-41.63 1065,-41.63"/>
</g>
<!-- Node8 -->
<g id="node8" class="node">
<title>Node8</title>
<g id="a_node8"><a xlink:href="binary_8h.html" target="_top" xlink:title=" ">
<polygon fill="white" stroke="#666666" points="225,-266.5 94,-266.5 94,-247.5 225,-247.5 225,-266.5"/>
<text text-anchor="middle" x="159.5" y="-254.5" font-family="Helvetica,sans-Serif" font-size="10.00">JSystem/JGadget/binary.h</text>
</a>
</g>
</g>
<!-- Node7&#45;&gt;Node8 -->
<g id="edge7" class="edge">
<title>Node7&#45;&gt;Node8</title>
<path fill="none" stroke="#63b8ff" d="M155.2,-313.1C155.9,-304.12 157,-289.95 157.92,-278.22"/>
<polygon fill="#63b8ff" stroke="#63b8ff" points="161.4,-278.57 158.69,-268.33 154.42,-278.03 161.4,-278.57"/>
</g>
<!-- Node8&#45;&gt;Node5 -->
<g id="edge8" class="edge">
<title>Node8&#45;&gt;Node5</title>
<path fill="none" stroke="#63b8ff" d="M163.58,-247.28C175.84,-222.19 215.13,-149.79 272.5,-121 337.99,-88.14 843.59,-79.13 1009.18,-77.05"/>
<polygon fill="#63b8ff" stroke="#63b8ff" points="1009.04,-80.56 1018.99,-76.93 1008.95,-73.56 1009.04,-80.56"/>
</g>
<!-- Node10&#45;&gt;Node8 -->
<g id="edge11" class="edge">
<title>Node10&#45;&gt;Node8</title>
<path fill="none" stroke="#63b8ff" d="M270.41,-307.64C246.38,-296.88 213.72,-282.27 190.07,-271.68"/>
<polygon fill="#63b8ff" stroke="#63b8ff" points="191.52,-268.49 180.96,-267.6 188.66,-274.88 191.52,-268.49"/>
</g>
<!-- Node11 -->
<g id="node11" class="node">
<title>Node11</title>
<g id="a_node11"><a xlink:href="functionvalue_8h.html" target="_top" xlink:title=" ">
<polygon fill="white" stroke="#666666" points="370,-272 243,-272 243,-242 370,-242 370,-272"/>
<text text-anchor="start" x="251" y="-260" font-family="Helvetica,sans-Serif" font-size="10.00">JSystem/JStudio/JStudio</text>
<text text-anchor="middle" x="306.5" y="-249" font-family="Helvetica,sans-Serif" font-size="10.00">/functionvalue.h</text>
</a>
</g>
</g>
<!-- Node10&#45;&gt;Node11 -->
<g id="edge12" class="edge">
<title>Node10&#45;&gt;Node11</title>
<path fill="none" stroke="#63b8ff" d="M303.39,-307.8C303.83,-300.67 304.39,-291.82 304.9,-283.56"/>
<polygon fill="#63b8ff" stroke="#63b8ff" points="308.39,-283.87 305.52,-273.67 301.4,-283.44 308.39,-283.87"/>
</g>
<!-- Node12 -->
<g id="node12" class="node">
<title>Node12</title>
<g id="a_node12"><a xlink:href="search_8h.html" target="_top" xlink:title=" ">
<polygon fill="white" stroke="#666666" points="373.5,-206 239.5,-206 239.5,-187 373.5,-187 373.5,-206"/>
<text text-anchor="middle" x="306.5" y="-194" font-family="Helvetica,sans-Serif" font-size="10.00">JSystem/JGadget/search.h</text>
</a>
</g>
</g>
<!-- Node11&#45;&gt;Node12 -->
<g id="edge13" class="edge">
<title>Node11&#45;&gt;Node12</title>
<path fill="none" stroke="#63b8ff" d="M306.5,-241.54C306.5,-234.34 306.5,-225.53 306.5,-217.68"/>
<polygon fill="#63b8ff" stroke="#63b8ff" points="310,-217.69 306.5,-207.69 303,-217.69 310,-217.69"/>
</g>
<!-- Node13 -->
<g id="node13" class="node">
<title>Node13</title>
<g id="a_node13"><a xlink:href="global_8h.html" target="_top" xlink:title=" ">
<polygon fill="white" stroke="#666666" points="331.5,-145.5 281.5,-145.5 281.5,-126.5 331.5,-126.5 331.5,-145.5"/>
<text text-anchor="middle" x="306.5" y="-133.5" font-family="Helvetica,sans-Serif" font-size="10.00">global.h</text>
</a>
</g>
</g>
<!-- Node11&#45;&gt;Node13 -->
<g id="edge17" class="edge">
<title>Node11&#45;&gt;Node13</title>
<path fill="none" stroke="#63b8ff" d="M269.88,-241.54C244.79,-229.26 218.11,-209.98 230.5,-187 239.35,-170.58 256.22,-158.67 271.82,-150.6"/>
<polygon fill="#63b8ff" stroke="#63b8ff" points="272.9,-153.96 280.42,-146.49 269.89,-147.64 272.9,-153.96"/>
</g>
<!-- Node14 -->
<g id="node14" class="node">
<title>Node14</title>
<g id="a_node14"><a xlink:href="vector_8h.html" target="_top" xlink:title=" ">
<polygon fill="white" stroke="#666666" points="523.5,-206 391.5,-206 391.5,-187 523.5,-187 523.5,-206"/>
<text text-anchor="middle" x="457.5" y="-194" font-family="Helvetica,sans-Serif" font-size="10.00">JSystem/JGadget/vector.h</text>
</a>
</g>
</g>
<!-- Node11&#45;&gt;Node14 -->
<g id="edge16" class="edge">
<title>Node11&#45;&gt;Node14</title>
<path fill="none" stroke="#63b8ff" d="M343.83,-241.54C368.4,-232.02 400.31,-219.66 424.06,-210.46"/>
<polygon fill="#63b8ff" stroke="#63b8ff" points="425.19,-213.77 433.25,-206.89 422.67,-207.24 425.19,-213.77"/>
</g>
<!-- Node12&#45;&gt;Node13 -->
<g id="edge14" class="edge">
<title>Node12&#45;&gt;Node13</title>
<path fill="none" stroke="#63b8ff" d="M306.5,-186.87C306.5,-179 306.5,-167.1 306.5,-156.89"/>
<polygon fill="#63b8ff" stroke="#63b8ff" points="310,-157.18 306.5,-147.18 303,-157.18 310,-157.18"/>
</g>
<!-- Node13&#45;&gt;Node5 -->
<g id="edge15" class="edge">
<title>Node13&#45;&gt;Node5</title>
<path fill="none" stroke="#63b8ff" d="M331.62,-133.05C438.99,-124.73 860.65,-92.06 1009.29,-80.55"/>
<polygon fill="#63b8ff" stroke="#63b8ff" points="1009.55,-84.04 1019.25,-79.77 1009.01,-77.06 1009.55,-84.04"/>
</g>
<!-- Node15&#45;&gt;Node2 -->
<g id="edge19" class="edge">
<title>Node15&#45;&gt;Node2</title>
<path fill="none" stroke="#63b8ff" d="M536.33,-500.2C519.23,-488.77 489.12,-468.65 468.28,-454.72"/>
<polygon fill="#63b8ff" stroke="#63b8ff" points="470.41,-451.94 460.15,-449.29 466.52,-457.76 470.41,-451.94"/>
</g>
<!-- Node15&#45;&gt;Node5 -->
<g id="edge20" class="edge">
<title>Node15&#45;&gt;Node5</title>
<path fill="none" stroke="#63b8ff" d="M549.74,-500.25C550.27,-479.92 551.5,-427.95 551.5,-384.5 551.5,-384.5 551.5,-384.5 551.5,-195.5 551.5,-157.27 562.34,-141.67 594.5,-121 628.78,-98.97 894.86,-84.19 1009.37,-78.79"/>
<polygon fill="#63b8ff" stroke="#63b8ff" points="1009.28,-82.29 1019.11,-78.33 1008.96,-75.3 1009.28,-82.29"/>
</g>
<!-- Node16&#45;&gt;Node5 -->
<g id="edge22" class="edge">
<title>Node16&#45;&gt;Node5</title>
<path fill="none" stroke="#63b8ff" d="M644.26,-373.61C627.19,-354.21 589.5,-305.96 589.5,-258 589.5,-258 589.5,-258 589.5,-195.5 589.5,-158.73 595.38,-142.1 625.5,-121 686.25,-78.43 907.39,-74.89 1009.36,-75.62"/>
<polygon fill="#63b8ff" stroke="#63b8ff" points="1009.05,-79.12 1019.09,-75.71 1009.12,-72.12 1009.05,-79.12"/>
</g>
<!-- Node17 -->
<g id="node17" class="node">
<title>Node17</title>
<g id="a_node17"><a xlink:href="OS_8h.html" target="_top" xlink:title=" ">
<polygon fill="white" stroke="#666666" points="1421.5,-332.5 1335.5,-332.5 1335.5,-313.5 1421.5,-313.5 1421.5,-332.5"/>
<text text-anchor="middle" x="1378.5" y="-320.5" font-family="Helvetica,sans-Serif" font-size="10.00">dolphin/os/OS.h</text>
</a>
</g>
</g>
<!-- Node16&#45;&gt;Node17 -->
<g id="edge23" class="edge">
<title>Node16&#45;&gt;Node17</title>
<path fill="none" stroke="#63b8ff" d="M725.77,-376.6C871.68,-364.84 1195.56,-338.74 1324.25,-328.37"/>
<polygon fill="#63b8ff" stroke="#63b8ff" points="1324.17,-331.89 1333.85,-327.6 1323.6,-324.91 1324.17,-331.89"/>
</g>
<!-- Node18 -->
<g id="node18" class="node">
<title>Node18</title>
<g id="a_node18"><a xlink:href="____va__arg_8h.html" target="_top" xlink:title=" ">
<polygon fill="white" stroke="#666666" points="744.5,-151 634.5,-151 634.5,-121 744.5,-121 744.5,-151"/>
<text text-anchor="start" x="642.5" y="-139" font-family="Helvetica,sans-Serif" font-size="10.00">Runtime.PPCEABI.H/</text>
<text text-anchor="middle" x="689.5" y="-128" font-family="Helvetica,sans-Serif" font-size="10.00">__va_arg.h</text>
</a>
</g>
</g>
<!-- Node17&#45;&gt;Node18 -->
<g id="edge24" class="edge">
<title>Node17&#45;&gt;Node18</title>
<path fill="none" stroke="#63b8ff" d="M1335.21,-320.74C1214.45,-316.86 875.82,-303.4 769.5,-272 710,-254.43 678.35,-259.24 646.5,-206 637.08,-190.25 648.32,-172.7 661.66,-159.24"/>
<polygon fill="#63b8ff" stroke="#63b8ff" points="664.01,-161.84 668.97,-152.47 659.25,-156.7 664.01,-161.84"/>
</g>
<!-- Node19 -->
<g id="node19" class="node">
<title>Node19</title>
<g id="a_node19"><a xlink:href="dvd_8h.html" target="_top" xlink:title=" ">
<polygon fill="white" stroke="#666666" points="747.5,-206 655.5,-206 655.5,-187 747.5,-187 747.5,-206"/>
<text text-anchor="middle" x="701.5" y="-194" font-family="Helvetica,sans-Serif" font-size="10.00">dolphin/dvd/dvd.h</text>
</a>
</g>
</g>
<!-- Node17&#45;&gt;Node19 -->
<g id="edge26" class="edge">
<title>Node17&#45;&gt;Node19</title>
<path fill="none" stroke="#63b8ff" d="M1335.22,-320.17C1224.6,-315.14 933.78,-299.63 841.5,-272 796.79,-258.61 749.91,-230.29 723.34,-212.68"/>
<polygon fill="#63b8ff" stroke="#63b8ff" points="725.38,-209.84 715.13,-207.14 721.46,-215.64 725.38,-209.84"/>
</g>
<!-- Node20 -->
<g id="node20" class="node">
<title>Node20</title>
<g id="a_node20"><a xlink:href="OSAlarm_8h.html" target="_top" xlink:title=" ">
<polygon fill="white" stroke="#666666" points="999,-266.5 888,-266.5 888,-247.5 999,-247.5 999,-266.5"/>
<text text-anchor="middle" x="943.5" y="-254.5" font-family="Helvetica,sans-Serif" font-size="10.00">dolphin/os/OSAlarm.h</text>
</a>
</g>
</g>
<!-- Node17&#45;&gt;Node20 -->
<g id="edge28" class="edge">
<title>Node17&#45;&gt;Node20</title>
<path fill="none" stroke="#63b8ff" d="M1335.23,-316.88C1266.91,-308.62 1129.95,-291.29 1014.5,-272 1009.2,-271.11 1003.69,-270.13 998.19,-269.12"/>
<polygon fill="#63b8ff" stroke="#63b8ff" points="998.95,-265.7 988.47,-267.27 997.64,-272.57 998.95,-265.7"/>
</g>
<!-- Node21 -->
<g id="node21" class="node">
<title>Node21</title>
<g id="a_node21"><a xlink:href="OSError_8h.html" target="_top" xlink:title=" ">
<polygon fill="white" stroke="#666666" points="871.5,-206 765.5,-206 765.5,-187 871.5,-187 871.5,-206"/>
<text text-anchor="middle" x="818.5" y="-194" font-family="Helvetica,sans-Serif" font-size="10.00">dolphin/os/OSError.h</text>
</a>
</g>
</g>
<!-- Node17&#45;&gt;Node21 -->
<g id="edge42" class="edge">
<title>Node17&#45;&gt;Node21</title>
<path fill="none" stroke="#63b8ff" d="M1335.18,-321.85C1228.83,-320.82 957.86,-314.03 879.5,-272 856.19,-259.5 838.39,-233.98 828.19,-216.32"/>
<polygon fill="#63b8ff" stroke="#63b8ff" points="831.31,-214.73 823.45,-207.63 825.16,-218.08 831.31,-214.73"/>
</g>
<!-- Node22 -->
<g id="node22" class="node">
<title>Node22</title>
<g id="a_node22"><a xlink:href="OSTime_8h.html" target="_top" xlink:title=" ">
<polygon fill="white" stroke="#666666" points="997,-206 890,-206 890,-187 997,-187 997,-206"/>
<text text-anchor="middle" x="943.5" y="-194" font-family="Helvetica,sans-Serif" font-size="10.00">dolphin/os/OSTime.h</text>
</a>
</g>
</g>
<!-- Node17&#45;&gt;Node22 -->
<g id="edge68" class="edge">
<title>Node17&#45;&gt;Node22</title>
<path fill="none" stroke="#63b8ff" d="M1335.26,-320.07C1274.32,-316.23 1160.46,-304.91 1069.5,-272 1048.46,-264.39 996.75,-232 966.51,-212.52"/>
<polygon fill="#63b8ff" stroke="#63b8ff" points="968.73,-209.78 958.43,-207.28 964.92,-215.66 968.73,-209.78"/>
</g>
<!-- Node23 -->
<g id="node23" class="node">
<title>Node23</title>
<g id="a_node23"><a xlink:href="OSAlloc_8h.html" target="_top" xlink:title=" ">
<polygon fill="white" stroke="#666666" points="1122,-206 1015,-206 1015,-187 1122,-187 1122,-206"/>
<text text-anchor="middle" x="1068.5" y="-194" font-family="Helvetica,sans-Serif" font-size="10.00">dolphin/os/OSAlloc.h</text>
</a>
</g>
</g>
<!-- Node17&#45;&gt;Node23 -->
<g id="edge33" class="edge">
<title>Node17&#45;&gt;Node23</title>
<path fill="none" stroke="#63b8ff" d="M1335.21,-319.89C1264.14,-315.56 1127.04,-303.29 1091.5,-272 1076.12,-258.46 1070.89,-234.87 1069.18,-217.86"/>
<polygon fill="#63b8ff" stroke="#63b8ff" points="1072.67,-217.68 1068.55,-207.92 1065.69,-218.13 1072.67,-217.68"/>
</g>
<!-- Node24 -->
<g id="node24" class="node">
<title>Node24</title>
<g id="a_node24"><a xlink:href="OSArena_8h.html" target="_top" xlink:title=" ">
<polygon fill="white" stroke="#666666" points="1117,-145.5 1006,-145.5 1006,-126.5 1117,-126.5 1117,-145.5"/>
<text text-anchor="middle" x="1061.5" y="-133.5" font-family="Helvetica,sans-Serif" font-size="10.00">dolphin/os/OSArena.h</text>
</a>
</g>
</g>
<!-- Node17&#45;&gt;Node24 -->
<g id="edge35" class="edge">
<title>Node17&#45;&gt;Node24</title>
<path fill="none" stroke="#63b8ff" d="M1335.06,-318.48C1295.23,-313.46 1236.13,-301.31 1193.5,-272 1154.97,-245.51 1164.73,-219.9 1131.5,-187 1117.92,-173.56 1100.43,-161.06 1086.33,-151.92"/>
<polygon fill="#63b8ff" stroke="#63b8ff" points="1088.37,-149.07 1078.05,-146.71 1084.64,-155 1088.37,-149.07"/>
</g>
<!-- Node25 -->
<g id="node25" class="node">
<title>Node25</title>
<g id="a_node25"><a xlink:href="OSAudioSystem_8h.html" target="_top" xlink:title=" ">
<polygon fill="white" stroke="#666666" points="2239,-266.5 2096,-266.5 2096,-247.5 2239,-247.5 2239,-266.5"/>
<text text-anchor="middle" x="2167.5" y="-254.5" font-family="Helvetica,sans-Serif" font-size="10.00">dolphin/os/OSAudioSystem.h</text>
</a>
</g>
</g>
<!-- Node17&#45;&gt;Node25 -->
<g id="edge37" class="edge">
<title>Node17&#45;&gt;Node25</title>
<path fill="none" stroke="#63b8ff" d="M1421.83,-320.28C1532.17,-315.61 1832.66,-301.04 2081.5,-272 2089.45,-271.07 2097.8,-269.93 2106.02,-268.7"/>
<polygon fill="#63b8ff" stroke="#63b8ff" points="2106.29,-272.2 2115.63,-267.21 2105.22,-265.28 2106.29,-272.2"/>
</g>
<!-- Node26 -->
<g id="node26" class="node">
<title>Node26</title>
<g id="a_node26"><a xlink:href="OSCache_8h.html" target="_top" xlink:title=" ">
<polygon fill="white" stroke="#666666" points="1248,-145.5 1135,-145.5 1135,-126.5 1248,-126.5 1248,-145.5"/>
<text text-anchor="middle" x="1191.5" y="-133.5" font-family="Helvetica,sans-Serif" font-size="10.00">dolphin/os/OSCache.h</text>
</a>
</g>
</g>
<!-- Node17&#45;&gt;Node26 -->
<g id="edge38" class="edge">
<title>Node17&#45;&gt;Node26</title>
<path fill="none" stroke="#63b8ff" d="M1335.15,-320.7C1297.88,-317.15 1245.52,-305.91 1215.5,-272 1187.05,-239.86 1186.77,-186.02 1189.09,-156.99"/>
<polygon fill="#63b8ff" stroke="#63b8ff" points="1192.54,-157.7 1190.06,-147.39 1185.58,-156.99 1192.54,-157.7"/>
</g>
<!-- Node27 -->
<g id="node27" class="node">
<title>Node27</title>
<g id="a_node27"><a xlink:href="OSContext_8h.html" target="_top" xlink:title=" ">
<polygon fill="white" stroke="#666666" points="1385,-145.5 1266,-145.5 1266,-126.5 1385,-126.5 1385,-145.5"/>
<text text-anchor="middle" x="1325.5" y="-133.5" font-family="Helvetica,sans-Serif" font-size="10.00">dolphin/os/OSContext.h</text>
</a>
</g>
</g>
<!-- Node17&#45;&gt;Node27 -->
<g id="edge40" class="edge">
<title>Node17&#45;&gt;Node27</title>
<path fill="none" stroke="#63b8ff" d="M1335.31,-320.47C1300.45,-316.68 1253.4,-305.23 1229.5,-272 1206.65,-240.23 1227.8,-217.35 1252.5,-187 1264.55,-172.19 1282.12,-159.97 1296.99,-151.32"/>
<polygon fill="#63b8ff" stroke="#63b8ff" points="1298.38,-154.55 1305.44,-146.65 1294.99,-148.43 1298.38,-154.55"/>
</g>
<!-- Node28 -->
<g id="node28" class="node">
<title>Node28</title>
<g id="a_node28"><a xlink:href="OSExec_8h.html" target="_top" xlink:title=" ">
<polygon fill="white" stroke="#666666" points="1520,-145.5 1413,-145.5 1413,-126.5 1520,-126.5 1520,-145.5"/>
<text text-anchor="middle" x="1466.5" y="-133.5" font-family="Helvetica,sans-Serif" font-size="10.00">dolphin/os/OSExec.h</text>
</a>
</g>
</g>
<!-- Node17&#45;&gt;Node28 -->
<g id="edge43" class="edge">
<title>Node17&#45;&gt;Node28</title>
<path fill="none" stroke="#63b8ff" d="M1421.94,-318.42C1452.81,-313.35 1492.25,-301.17 1512.5,-272 1538.28,-234.86 1503.89,-182.03 1482.04,-154.78"/>
<polygon fill="#63b8ff" stroke="#63b8ff" points="1484.76,-152.57 1475.67,-147.14 1479.38,-157.06 1484.76,-152.57"/>
</g>
<!-- Node29 -->
<g id="node29" class="node">
<title>Node29</title>
<g id="a_node29"><a xlink:href="OSFont_8h.html" target="_top" xlink:title=" ">
<polygon fill="white" stroke="#666666" points="1665,-266.5 1560,-266.5 1560,-247.5 1665,-247.5 1665,-266.5"/>
<text text-anchor="middle" x="1612.5" y="-254.5" font-family="Helvetica,sans-Serif" font-size="10.00">dolphin/os/OSFont.h</text>
</a>
</g>
</g>
<!-- Node17&#45;&gt;Node29 -->
<g id="edge45" class="edge">
<title>Node17&#45;&gt;Node29</title>
<path fill="none" stroke="#63b8ff" d="M1411.04,-313.1C1452.13,-301.86 1523,-282.48 1568.8,-269.95"/>
<polygon fill="#63b8ff" stroke="#63b8ff" points="1569.68,-273.34 1578.4,-267.33 1567.83,-266.59 1569.68,-273.34"/>
</g>
<!-- Node30 -->
<g id="node30" class="node">
<title>Node30</title>
<g id="a_node30"><a xlink:href="OSInterrupt_8h.html" target="_top" xlink:title=" ">
<polygon fill="white" stroke="#666666" points="1711.5,-206 1589.5,-206 1589.5,-187 1711.5,-187 1711.5,-206"/>
<text text-anchor="middle" x="1650.5" y="-194" font-family="Helvetica,sans-Serif" font-size="10.00">dolphin/os/OSInterrupt.h</text>
</a>
</g>
</g>
<!-- Node17&#45;&gt;Node30 -->
<g id="edge47" class="edge">
<title>Node17&#45;&gt;Node30</title>
<path fill="none" stroke="#63b8ff" d="M1421.88,-321.26C1496.13,-318.97 1642.66,-309.66 1674.5,-272 1688.16,-255.84 1676.33,-231.78 1664.96,-215.41"/>
<polygon fill="#63b8ff" stroke="#63b8ff" points="1667.87,-213.46 1659.08,-207.56 1662.27,-217.66 1667.87,-213.46"/>
</g>
<!-- Node31 -->
<g id="node31" class="node">
<title>Node31</title>
<g id="a_node31"><a xlink:href="OSLink_8h.html" target="_top" xlink:title=" ">
<polygon fill="white" stroke="#666666" points="1833.5,-206 1729.5,-206 1729.5,-187 1833.5,-187 1833.5,-206"/>
<text text-anchor="middle" x="1781.5" y="-194" font-family="Helvetica,sans-Serif" font-size="10.00">dolphin/os/OSLink.h</text>
</a>
</g>
</g>
<!-- Node17&#45;&gt;Node31 -->
<g id="edge49" class="edge">
<title>Node17&#45;&gt;Node31</title>
<path fill="none" stroke="#63b8ff" d="M1421.83,-320.65C1533.08,-316.73 1822.08,-303.59 1850.5,-272 1859.42,-262.09 1856.88,-253.71 1850.5,-242 1843.18,-228.57 1829.87,-218.58 1816.88,-211.5"/>
<polygon fill="#63b8ff" stroke="#63b8ff" points="1818.53,-208.41 1808.01,-207.12 1815.42,-214.69 1818.53,-208.41"/>
</g>
<!-- Node32 -->
<g id="node32" class="node">
<title>Node32</title>
<g id="a_node32"><a xlink:href="OSMemory_8h.html" target="_top" xlink:title=" ">
<polygon fill="white" stroke="#666666" points="1841.5,-266.5 1721.5,-266.5 1721.5,-247.5 1841.5,-247.5 1841.5,-266.5"/>
<text text-anchor="middle" x="1781.5" y="-254.5" font-family="Helvetica,sans-Serif" font-size="10.00">dolphin/os/OSMemory.h</text>
</a>
</g>
</g>
<!-- Node17&#45;&gt;Node32 -->
<g id="edge51" class="edge">
<title>Node17&#45;&gt;Node32</title>
<path fill="none" stroke="#63b8ff" d="M1421.96,-315.91C1484.99,-306.95 1605.41,-289.41 1707.5,-272 1713,-271.06 1718.72,-270.05 1724.43,-269.01"/>
<polygon fill="#63b8ff" stroke="#63b8ff" points="1724.67,-272.53 1733.87,-267.27 1723.4,-265.64 1724.67,-272.53"/>
</g>
<!-- Node33 -->
<g id="node33" class="node">
<title>Node33</title>
<g id="a_node33"><a xlink:href="OSMessage_8h.html" target="_top" xlink:title=" ">
<polygon fill="white" stroke="#666666" points="1373,-266.5 1248,-266.5 1248,-247.5 1373,-247.5 1373,-266.5"/>
<text text-anchor="middle" x="1310.5" y="-254.5" font-family="Helvetica,sans-Serif" font-size="10.00">dolphin/os/OSMessage.h</text>
</a>
</g>
</g>
<!-- Node17&#45;&gt;Node33 -->
<g id="edge53" class="edge">
<title>Node17&#45;&gt;Node33</title>
<path fill="none" stroke="#63b8ff" d="M1369.04,-313.1C1358.49,-303.17 1341.18,-286.87 1328.11,-274.57"/>
<polygon fill="#63b8ff" stroke="#63b8ff" points="1330.66,-272.17 1320.98,-267.86 1325.86,-277.26 1330.66,-272.17"/>
</g>
<!-- Node34 -->
<g id="node34" class="node">
<title>Node34</title>
<g id="a_node34"><a xlink:href="OSThread_8h.html" target="_top" xlink:title=" ">
<polygon fill="white" stroke="#666666" points="1377.5,-206 1261.5,-206 1261.5,-187 1377.5,-187 1377.5,-206"/>
<text text-anchor="middle" x="1319.5" y="-194" font-family="Helvetica,sans-Serif" font-size="10.00">dolphin/os/OSThread.h</text>
</a>
</g>
</g>
<!-- Node17&#45;&gt;Node34 -->
<g id="edge67" class="edge">
<title>Node17&#45;&gt;Node34</title>
<path fill="none" stroke="#63b8ff" d="M1335.16,-319.16C1302.93,-314.5 1260.96,-302.53 1239.5,-272 1231.83,-261.09 1232.74,-253.49 1239.5,-242 1247.86,-227.78 1262.6,-217.77 1277.16,-210.9"/>
<polygon fill="#63b8ff" stroke="#63b8ff" points="1278.42,-214.17 1286.25,-207.03 1275.68,-207.73 1278.42,-214.17"/>
</g>
<!-- Node35 -->
<g id="node35" class="node">
<title>Node35</title>
<g id="a_node35"><a xlink:href="OSMutex_8h.html" target="_top" xlink:title=" ">
<polygon fill="white" stroke="#666666" points="1503.5,-266.5 1391.5,-266.5 1391.5,-247.5 1503.5,-247.5 1503.5,-266.5"/>
<text text-anchor="middle" x="1447.5" y="-254.5" font-family="Helvetica,sans-Serif" font-size="10.00">dolphin/os/OSMutex.h</text>
</a>
</g>
</g>
<!-- Node17&#45;&gt;Node35 -->
<g id="edge56" class="edge">
<title>Node17&#45;&gt;Node35</title>
<path fill="none" stroke="#63b8ff" d="M1388.09,-313.1C1398.81,-303.17 1416.37,-286.87 1429.63,-274.57"/>
<polygon fill="#63b8ff" stroke="#63b8ff" points="1431.93,-277.22 1436.88,-267.85 1427.17,-272.09 1431.93,-277.22"/>
</g>
<!-- Node36 -->
<g id="node36" class="node">
<title>Node36</title>
<g id="a_node36"><a xlink:href="OSReboot_8h.html" target="_top" xlink:title=" ">
<polygon fill="white" stroke="#666666" points="1810.5,-145.5 1694.5,-145.5 1694.5,-126.5 1810.5,-126.5 1810.5,-145.5"/>
<text text-anchor="middle" x="1752.5" y="-133.5" font-family="Helvetica,sans-Serif" font-size="10.00">dolphin/os/OSReboot.h</text>
</a>
</g>
</g>
<!-- Node17&#45;&gt;Node36 -->
<g id="edge58" class="edge">
<title>Node17&#45;&gt;Node36</title>
<path fill="none" stroke="#63b8ff" d="M1421.63,-320.81C1535.4,-317.24 1836.93,-304.75 1866.5,-272 1886.62,-249.71 1845.42,-190.22 1842.5,-187 1827.8,-170.82 1806.6,-158.69 1788.47,-150.43"/>
<polygon fill="#63b8ff" stroke="#63b8ff" points="1789.9,-147.23 1779.33,-146.5 1787.14,-153.66 1789.9,-147.23"/>
</g>
<!-- Node37 -->
<g id="node37" class="node">
<title>Node37</title>
<g id="a_node37"><a xlink:href="OSReset_8h.html" target="_top" xlink:title=" ">
<polygon fill="white" stroke="#666666" points="2001,-206 1890,-206 1890,-187 2001,-187 2001,-206"/>
<text text-anchor="middle" x="1945.5" y="-194" font-family="Helvetica,sans-Serif" font-size="10.00">dolphin/os/OSReset.h</text>
</a>
</g>
</g>
<!-- Node17&#45;&gt;Node37 -->
<g id="edge60" class="edge">
<title>Node17&#45;&gt;Node37</title>
<path fill="none" stroke="#63b8ff" d="M1421.91,-320.72C1543.79,-316.75 1882.81,-303 1921.5,-272 1937.72,-259 1943.13,-234.94 1944.85,-217.68"/>
<polygon fill="#63b8ff" stroke="#63b8ff" points="1948.33,-218.04 1945.47,-207.84 1941.35,-217.6 1948.33,-218.04"/>
</g>
<!-- Node38 -->
<g id="node38" class="node">
<title>Node38</title>
<g id="a_node38"><a xlink:href="OSResetSW_8h.html" target="_top" xlink:title=" ">
<polygon fill="white" stroke="#666666" points="1997,-145.5 1870,-145.5 1870,-126.5 1997,-126.5 1997,-145.5"/>
<text text-anchor="middle" x="1933.5" y="-133.5" font-family="Helvetica,sans-Serif" font-size="10.00">dolphin/os/OSResetSW.h</text>
</a>
</g>
</g>
<!-- Node17&#45;&gt;Node38 -->
<g id="edge62" class="edge">
<title>Node17&#45;&gt;Node38</title>
<path fill="none" stroke="#63b8ff" d="M1421.76,-321.96C1537.51,-321.25 1851.76,-315.29 1944.5,-272 1987.84,-251.77 2033.32,-229.03 2010.5,-187 2001.58,-170.57 1984.67,-158.7 1968.96,-150.66"/>
<polygon fill="#63b8ff" stroke="#63b8ff" points="1970.81,-147.66 1960.27,-146.56 1967.83,-153.99 1970.81,-147.66"/>
</g>
<!-- Node39 -->
<g id="node39" class="node">
<title>Node39</title>
<g id="a_node39"><a xlink:href="OSRtc_8h.html" target="_top" xlink:title=" ">
<polygon fill="white" stroke="#666666" points="2117,-145.5 2016,-145.5 2016,-126.5 2117,-126.5 2117,-145.5"/>
<text text-anchor="middle" x="2066.5" y="-133.5" font-family="Helvetica,sans-Serif" font-size="10.00">dolphin/os/OSRtc.h</text>
</a>
</g>
</g>
<!-- Node17&#45;&gt;Node39 -->
<g id="edge64" class="edge">
<title>Node17&#45;&gt;Node39</title>
<path fill="none" stroke="#63b8ff" d="M1421.81,-320.64C1552.45,-316.23 1936.6,-300.92 1984.5,-272 2027.62,-245.96 2051.08,-187.78 2060.89,-157"/>
<polygon fill="#63b8ff" stroke="#63b8ff" points="2064.24,-158.02 2063.75,-147.43 2057.53,-156.01 2064.24,-158.02"/>
</g>
<!-- Node40 -->
<g id="node40" class="node">
<title>Node40</title>
<g id="a_node40"><a xlink:href="OSSync_8h.html" target="_top" xlink:title=" ">
<polygon fill="white" stroke="#666666" points="2364,-266.5 2257,-266.5 2257,-247.5 2364,-247.5 2364,-266.5"/>
<text text-anchor="middle" x="2310.5" y="-254.5" font-family="Helvetica,sans-Serif" font-size="10.00">dolphin/os/OSSync.h</text>
</a>
</g>
</g>
<!-- Node17&#45;&gt;Node40 -->
<g id="edge66" class="edge">
<title>Node17&#45;&gt;Node40</title>
<path fill="none" stroke="#63b8ff" d="M1421.75,-322.03C1549.09,-321.56 1933.51,-316.31 2248.5,-272 2253.76,-271.26 2259.22,-270.31 2264.64,-269.24"/>
<polygon fill="#63b8ff" stroke="#63b8ff" points="2265.05,-272.73 2274.12,-267.25 2263.61,-265.88 2265.05,-272.73"/>
</g>
<!-- Node18&#45;&gt;Node5 -->
<g id="edge25" class="edge">
<title>Node18&#45;&gt;Node5</title>
<path fill="none" stroke="#63b8ff" d="M744.79,-126.31C816.21,-115.07 939.61,-95.67 1009.43,-84.69"/>
<polygon fill="#63b8ff" stroke="#63b8ff" points="1009.74,-88.18 1019.07,-83.17 1008.65,-81.27 1009.74,-88.18"/>
</g>
<!-- Node19&#45;&gt;Node5 -->
<g id="edge27" class="edge">
<title>Node19&#45;&gt;Node5</title>
<path fill="none" stroke="#63b8ff" d="M723.12,-186.55C759.13,-171.82 833.81,-142.01 898.5,-121 936.81,-108.56 980.92,-96.66 1013.58,-88.3"/>
<polygon fill="#63b8ff" stroke="#63b8ff" points="1014.33,-91.72 1023.16,-85.87 1012.61,-84.94 1014.33,-91.72"/>
</g>
<!-- Node20&#45;&gt;Node21 -->
<g id="edge29" class="edge">
<title>Node20&#45;&gt;Node21</title>
<path fill="none" stroke="#63b8ff" d="M924.52,-247.12C904.14,-237.58 871.52,-222.31 847.84,-211.23"/>
<polygon fill="#63b8ff" stroke="#63b8ff" points="849.58,-208.18 839.03,-207.11 846.61,-214.52 849.58,-208.18"/>
</g>
<!-- Node20&#45;&gt;Node22 -->
<g id="edge31" class="edge">
<title>Node20&#45;&gt;Node22</title>
<path fill="none" stroke="#63b8ff" d="M943.5,-247.37C943.5,-239.5 943.5,-227.6 943.5,-217.39"/>
<polygon fill="#63b8ff" stroke="#63b8ff" points="947,-217.68 943.5,-207.68 940,-217.68 947,-217.68"/>
</g>
<!-- Node21&#45;&gt;Node5 -->
<g id="edge30" class="edge">
<title>Node21&#45;&gt;Node5</title>
<path fill="none" stroke="#63b8ff" d="M834.76,-186.71C861.29,-172.47 915.61,-143.65 962.5,-121 985.02,-110.13 1010.79,-98.57 1030.39,-89.96"/>
<polygon fill="#63b8ff" stroke="#63b8ff" points="1031.72,-93.2 1039.48,-85.98 1028.92,-86.78 1031.72,-93.2"/>
</g>
<!-- Node22&#45;&gt;Node5 -->
<g id="edge32" class="edge">
<title>Node22&#45;&gt;Node5</title>
<path fill="none" stroke="#63b8ff" d="M947.1,-186.78C953.58,-171.87 968.45,-141.13 988.5,-121 1000.89,-108.56 1017.42,-98.12 1031.61,-90.48"/>
<polygon fill="#63b8ff" stroke="#63b8ff" points="1032.8,-93.8 1040.1,-86.12 1029.6,-87.58 1032.8,-93.8"/>
</g>
<!-- Node23&#45;&gt;Node5 -->
<g id="edge34" class="edge">
<title>Node23&#45;&gt;Node5</title>
<path fill="none" stroke="#63b8ff" d="M1042.28,-186.59C1026.23,-179.62 1007.01,-168.18 997.5,-151 991.04,-139.33 991.32,-132.82 997.5,-121 1004.31,-107.98 1016.86,-97.99 1029.05,-90.82"/>
<polygon fill="#63b8ff" stroke="#63b8ff" points="1030.58,-93.97 1037.74,-86.16 1027.27,-87.8 1030.58,-93.97"/>
</g>
<!-- Node24&#45;&gt;Node5 -->
<g id="edge36" class="edge">
<title>Node24&#45;&gt;Node5</title>
<path fill="none" stroke="#63b8ff" d="M1061.5,-126.37C1061.5,-118.5 1061.5,-106.6 1061.5,-96.39"/>
<polygon fill="#63b8ff" stroke="#63b8ff" points="1065,-96.68 1061.5,-86.68 1058,-96.68 1065,-96.68"/>
</g>
<!-- Node26&#45;&gt;Node5 -->
<g id="edge39" class="edge">
<title>Node26&#45;&gt;Node5</title>
<path fill="none" stroke="#63b8ff" d="M1171.76,-126.12C1150.47,-116.54 1116.33,-101.18 1091.68,-90.08"/>
<polygon fill="#63b8ff" stroke="#63b8ff" points="1093.37,-87 1082.81,-86.09 1090.49,-93.39 1093.37,-87"/>
</g>
<!-- Node27&#45;&gt;Node5 -->
<g id="edge41" class="edge">
<title>Node27&#45;&gt;Node5</title>
<path fill="none" stroke="#63b8ff" d="M1285.12,-126.05C1238.92,-115.82 1163.19,-99.03 1112.84,-87.88"/>
<polygon fill="#63b8ff" stroke="#63b8ff" points="1113.88,-84.52 1103.36,-85.78 1112.36,-91.36 1113.88,-84.52"/>
</g>
<!-- Node28&#45;&gt;Node5 -->
<g id="edge44" class="edge">
<title>Node28&#45;&gt;Node5</title>
<path fill="none" stroke="#63b8ff" d="M1422.79,-126.07C1413.47,-124.29 1403.67,-122.5 1394.5,-121 1295.54,-104.78 1179.31,-90.28 1113.64,-82.5"/>
<polygon fill="#63b8ff" stroke="#63b8ff" points="1114.21,-79.04 1103.87,-81.35 1113.39,-85.99 1114.21,-79.04"/>
</g>
<!-- Node29&#45;&gt;Node5 -->
<g id="edge46" class="edge">
<title>Node29&#45;&gt;Node5</title>
<path fill="none" stroke="#63b8ff" d="M1606.76,-247.2C1600.29,-237.25 1589.51,-220.54 1580.5,-206 1557.29,-168.55 1566.77,-144.5 1529.5,-121 1461.54,-78.15 1221.33,-74.89 1113.99,-75.67"/>
<polygon fill="#63b8ff" stroke="#63b8ff" points="1113.98,-72.17 1104.01,-75.76 1114.04,-79.17 1113.98,-72.17"/>
</g>
<!-- Node30&#45;&gt;Node5 -->
<g id="edge48" class="edge">
<title>Node30&#45;&gt;Node5</title>
<path fill="none" stroke="#63b8ff" d="M1644.78,-186.64C1633.67,-170.32 1607.47,-135.82 1575.5,-121 1494.47,-83.42 1227.72,-77.39 1113.81,-76.55"/>
<polygon fill="#63b8ff" stroke="#63b8ff" points="1113.84,-73.05 1103.82,-76.49 1113.8,-80.05 1113.84,-73.05"/>
</g>
<!-- Node31&#45;&gt;Node5 -->
<g id="edge50" class="edge">
<title>Node31&#45;&gt;Node5</title>
<path fill="none" stroke="#63b8ff" d="M1761.62,-186.51C1719.59,-167.55 1624.25,-124.92 1608.5,-121 1515.55,-97.87 1231.21,-83.62 1113.43,-78.57"/>
<polygon fill="#63b8ff" stroke="#63b8ff" points="1113.89,-75.09 1103.75,-78.16 1113.59,-82.08 1113.89,-75.09"/>
</g>
<!-- Node32&#45;&gt;Node30 -->
<g id="edge52" class="edge">
<title>Node32&#45;&gt;Node30</title>
<path fill="none" stroke="#63b8ff" d="M1761.6,-247.12C1740.16,-237.54 1705.76,-222.18 1680.91,-211.08"/>
<polygon fill="#63b8ff" stroke="#63b8ff" points="1682.52,-207.97 1671.97,-207.09 1679.67,-214.36 1682.52,-207.97"/>
</g>
<!-- Node33&#45;&gt;Node34 -->
<g id="edge54" class="edge">
<title>Node33&#45;&gt;Node34</title>
<path fill="none" stroke="#63b8ff" d="M1311.83,-247.37C1313.04,-239.5 1314.87,-227.6 1316.44,-217.39"/>
<polygon fill="#63b8ff" stroke="#63b8ff" points="1319.88,-218.08 1317.94,-207.66 1312.96,-217.01 1319.88,-218.08"/>
</g>
<!-- Node34&#45;&gt;Node27 -->
<g id="edge55" class="edge">
<title>Node34&#45;&gt;Node27</title>
<path fill="none" stroke="#63b8ff" d="M1320.39,-186.87C1321.19,-179 1322.41,-167.1 1323.46,-156.89"/>
<polygon fill="#63b8ff" stroke="#63b8ff" points="1326.92,-157.48 1324.46,-147.17 1319.95,-156.76 1326.92,-157.48"/>
</g>
<!-- Node35&#45;&gt;Node34 -->
<g id="edge57" class="edge">
<title>Node35&#45;&gt;Node34</title>
<path fill="none" stroke="#63b8ff" d="M1428.06,-247.12C1407.2,-237.58 1373.79,-222.31 1349.54,-211.23"/>
<polygon fill="#63b8ff" stroke="#63b8ff" points="1351.05,-208.07 1340.5,-207.1 1348.14,-214.44 1351.05,-208.07"/>
</g>
<!-- Node36&#45;&gt;Node5 -->
<g id="edge59" class="edge">
<title>Node36&#45;&gt;Node5</title>
<path fill="none" stroke="#63b8ff" d="M1708.42,-126.03C1697.99,-124.15 1686.88,-122.33 1676.5,-121 1468.99,-94.46 1219.91,-82.51 1113.65,-78.34"/>
<polygon fill="#63b8ff" stroke="#63b8ff" points="1113.95,-74.85 1103.83,-77.96 1113.68,-81.84 1113.95,-74.85"/>
</g>
<!-- Node37&#45;&gt;Node5 -->
<g id="edge61" class="edge">
<title>Node37&#45;&gt;Node5</title>
<path fill="none" stroke="#63b8ff" d="M1927.09,-186.63C1909.8,-178.1 1883.4,-164.54 1861.5,-151 1841.99,-138.94 1841.13,-128.64 1819.5,-121 1753.45,-97.68 1274.52,-82.41 1113.87,-77.89"/>
<polygon fill="#63b8ff" stroke="#63b8ff" points="1114.03,-74.4 1103.94,-77.62 1113.83,-81.39 1114.03,-74.4"/>
</g>
<!-- Node38&#45;&gt;Node5 -->
<g id="edge63" class="edge">
<title>Node38&#45;&gt;Node5</title>
<path fill="none" stroke="#63b8ff" d="M1888.52,-126.07C1877.43,-124.14 1865.57,-122.29 1854.5,-121 1576.24,-88.65 1240.21,-79.62 1113.35,-77.27"/>
<polygon fill="#63b8ff" stroke="#63b8ff" points="1113.66,-73.78 1103.6,-77.1 1113.53,-80.77 1113.66,-73.78"/>
</g>
<!-- Node39&#45;&gt;Node5 -->
<g id="edge65" class="edge">
<title>Node39&#45;&gt;Node5</title>
<path fill="none" stroke="#63b8ff" d="M2033.06,-126.06C2024.47,-124.08 2015.19,-122.21 2006.5,-121 1831.96,-96.73 1286.05,-81.88 1113.99,-77.71"/>
<polygon fill="#63b8ff" stroke="#63b8ff" points="1114.09,-74.21 1104.01,-77.47 1113.92,-81.21 1114.09,-74.21"/>
</g>
</g>
</svg>
        <g id="navigator" transform="translate(0 0)" fill="#404254">
                <rect fill="#f2f5e9" fill-opacity="0.5" stroke="#606060" stroke-width=".5" x="0" y="0" width="60" height="60"/>
                <use id="zoomplus" xlink:href="#zoomPlus" x="17" y="9" onmousedown="handleZoom(evt,'in')"/>
                <use id="zoomminus" xlink:href="#zoomMin" x="42" y="9" onmousedown="handleZoom(evt,'out')"/>
                <use id="reset" xlink:href="#resetDef" x="30" y="36" onmousedown="handleReset()"/>
                <g id="arrowUp" xlink:href="#dirArrow" transform="translate(30 24)" onmousedown="handlePan(0,-1)">
                  <use xlink:href="#rim" fill="#404040">
                        <set attributeName="fill" to="#808080" begin="arrowUp.mouseover" end="arrowUp.mouseout"/>
                  </use>
                  <path fill="none" stroke="white" stroke-width="1.5" d="M0,-3.0v7 M-2.5,-0.5L0,-3.0L2.5,-0.5"/>
                </g>
                <g id="arrowRight" xlink:href="#dirArrow" transform="rotate(90) translate(36 -43)" onmousedown="handlePan(1,0)">
                  <use xlink:href="#rim" fill="#404040">
                        <set attributeName="fill" to="#808080" begin="arrowRight.mouseover" end="arrowRight.mouseout"/>
                  </use>
                  <path fill="none" stroke="white" stroke-width="1.5" d="M0,-3.0v7 M-2.5,-0.5L0,-3.0L2.5,-0.5"/>
                </g>
                <g id="arrowDown" xlink:href="#dirArrow" transform="rotate(180) translate(-30 -48)" onmousedown="handlePan(0,1)">
                  <use xlink:href="#rim" fill="#404040">
                        <set attributeName="fill" to="#808080" begin="arrowDown.mouseover" end="arrowDown.mouseout"/>
                  </use>
                  <path fill="none" stroke="white" stroke-width="1.5" d="M0,-3.0v7 M-2.5,-0.5L0,-3.0L2.5,-0.5"/>
                </g>
                <g id="arrowLeft" xlink:href="#dirArrow" transform="rotate(270) translate(-36 17)" onmousedown="handlePan(-1,0)">
                  <use xlink:href="#rim" fill="#404040">
                        <set attributeName="fill" to="#808080" begin="arrowLeft.mouseover" end="arrowLeft.mouseout"/>
                  </use>
                  <path fill="none" stroke="white" stroke-width="1.5" d="M0,-3.0v7 M-2.5,-0.5L0,-3.0L2.5,-0.5"/>
                </g>
        </g>
        <svg viewBox="0 0 15 15" width="100%" height="30px" preserveAspectRatio="xMaxYMin meet">
         <g id="arrow_out" transform="scale(0.3 0.3)">
          <a xlink:href="processor_8cpp__incl_org.svg" target="_base">
           <rect id="button" ry="5" rx="5" y="6" x="6" height="38" width="38"
                fill="#f2f5e9" fill-opacity="0.5" stroke="#606060" stroke-width="1.0"/>
           <path id="arrow"
             d="M 11.500037,31.436501 C 11.940474,20.09759 22.043105,11.32322 32.158766,21.979434 L 37.068811,17.246167 C 37.068811,17.246167 37.088388,32 37.088388,32 L 22.160133,31.978069 C 22.160133,31.978069 26.997745,27.140456 26.997745,27.140456 C 18.528582,18.264221 13.291696,25.230495 11.500037,31.436501 z"
             style="fill:#404040;"/>
          </a>
         </g>
        </svg>
</svg>
