<?xml version="1.0" encoding="UTF-8" standalone="no"?>
<!DOCTYPE svg PUBLIC "-//W3C//DTD SVG 1.1//EN"
 "http://www.w3.org/Graphics/SVG/1.1/DTD/svg11.dtd">
<!-- Generated by graphviz version 7.0.5 (20221223.1930)
 -->
<!-- Title: include/dolphin/mtx/quat.h Pages: 1 -->
<!--zoomable 302 -->
<svg id="main" version="1.1" xmlns="http://www.w3.org/2000/svg" xmlns:xlink="http://www.w3.org/1999/xlink" xml:space="preserve" onload="init(evt)">
<style type="text/css"><![CDATA[
.edge:hover path { stroke: red; }
.edge:hover polygon { stroke: red; fill: red; }
]]></style>
<script type="text/javascript"><![CDATA[
var edges = document.getElementsByTagName('g');
if (edges && edges.length) {
  for (var i=0;i<edges.length;i++) {
    if (edges[i].id.substr(0,4)=='edge') {
      edges[i].setAttribute('class','edge');
    }
  }
}
]]></script>
        <defs>
                <circle id="rim" cx="0" cy="0" r="7"/>
                <circle id="rim2" cx="0" cy="0" r="3.5"/>
                <g id="zoomPlus">
                        <use xlink:href="#rim" fill="#404040">
                                <set attributeName="fill" to="#808080" begin="zoomplus.mouseover" end="zoomplus.mouseout"/>
                        </use>
                        <path d="M-4,0h8M0,-4v8" fill="none" stroke="white" stroke-width="1.5" pointer-events="none"/>
                </g>
                <g id="zoomMin">
                        <use xlink:href="#rim" fill="#404040">
                                <set attributeName="fill" to="#808080" begin="zoomminus.mouseover" end="zoomminus.mouseout"/>
                        </use>
                        <path d="M-4,0h8" fill="none" stroke="white" stroke-width="1.5" pointer-events="none"/>
                </g>
                <g id="dirArrow">
                        <path fill="none" stroke="white" stroke-width="1.5" d="M0,-3.0v7 M-2.5,-0.5L0,-3.0L2.5,-0.5"/>
                </g>
               <g id="resetDef">
                       <use xlink:href="#rim2" fill="#404040">
                               <set attributeName="fill" to="#808080" begin="reset.mouseover" end="reset.mouseout"/>
                       </use>
               </g>
        </defs>

<script type="text/javascript">
var viewWidth = 5015;
var viewHeight = 302;
var sectionId = 'dynsection-1';
</script>
<script xlink:href="svgpan.js"/>
<svg id="graph" class="graph">
<g id="viewport">
<title>include/dolphin/mtx/quat.h</title>
<!-- Node1 -->
<g id="node1" class="node">
<title>Node1</title>
<g id="a_node1"><a xlink:title=" ">
<polygon fill="#999999" stroke="#666666" points="3785,-294 3685,-294 3685,-264 3785,-264 3785,-294"/>
<text text-anchor="start" x="3693" y="-282" font-family="Helvetica,sans-Serif" font-size="10.00">include/dolphin/mtx</text>
<text text-anchor="middle" x="3735" y="-271" font-family="Helvetica,sans-Serif" font-size="10.00">/quat.h</text>
</a>
</g>
</g>
<!-- Node2 -->
<g id="node2" class="node">
<title>Node2</title>
<g id="a_node2"><a xlink:href="d__lib_8h.html" target="_top" xlink:title=" ">
<polygon fill="white" stroke="#666666" points="1270,-90.5 1184,-90.5 1184,-71.5 1270,-71.5 1270,-90.5"/>
<text text-anchor="middle" x="1227" y="-78.5" font-family="Helvetica,sans-Serif" font-size="10.00">include/d/d_lib.h</text>
</a>
</g>
</g>
<!-- Node1&#45;&gt;Node2 -->
<g id="edge1" class="edge">
<title>Node1&#45;&gt;Node2</title>
<path fill="none" stroke="#63b8ff" d="M3673.15,-273.17C3320.42,-245.6 1568.39,-108.68 1270.18,-85.37"/>
<polygon fill="#63b8ff" stroke="#63b8ff" points="3672.87,-276.65 3683.11,-273.94 3673.41,-269.68 3672.87,-276.65"/>
</g>
<!-- Node20 -->
<g id="node20" class="node">
<title>Node20</title>
<g id="a_node20"><a xlink:href="mtx_8h.html" target="_top" xlink:title=" ">
<polygon fill="white" stroke="#666666" points="3785,-228 3685,-228 3685,-198 3785,-198 3785,-228"/>
<text text-anchor="start" x="3693" y="-216" font-family="Helvetica,sans-Serif" font-size="10.00">include/dolphin/mtx</text>
<text text-anchor="middle" x="3735" y="-205" font-family="Helvetica,sans-Serif" font-size="10.00">/mtx.h</text>
</a>
</g>
</g>
<!-- Node1&#45;&gt;Node20 -->
<g id="edge19" class="edge">
<title>Node1&#45;&gt;Node20</title>
<path fill="none" stroke="#63b8ff" d="M3735,-252.39C3735,-244.13 3735,-235.28 3735,-228.16"/>
<polygon fill="#63b8ff" stroke="#63b8ff" points="3731.5,-252.28 3735,-262.28 3738.5,-252.28 3731.5,-252.28"/>
</g>
<!-- Node665 -->
<g id="node50" class="node">
<title>Node665</title>
<g id="a_node50"><a xlink:href="quat_8c.html" target="_top" xlink:title=" ">
<polygon fill="white" stroke="#666666" points="3916.5,-222.5 3803.5,-222.5 3803.5,-203.5 3916.5,-203.5 3916.5,-222.5"/>
<text text-anchor="middle" x="3860" y="-210.5" font-family="Helvetica,sans-Serif" font-size="10.00">libs/dolphin/mtx/quat.c</text>
</a>
</g>
</g>
<!-- Node1&#45;&gt;Node665 -->
<g id="edge62" class="edge">
<title>Node1&#45;&gt;Node665</title>
<path fill="none" stroke="#63b8ff" d="M3773.23,-258.43C3796.29,-246.62 3824.58,-232.14 3842.45,-222.99"/>
<polygon fill="#63b8ff" stroke="#63b8ff" points="3771.71,-255.27 3764.4,-262.95 3774.9,-261.51 3771.71,-255.27"/>
</g>
<!-- Node3 -->
<g id="node3" class="node">
<title>Node3</title>
<g id="a_node3"><a xlink:href="d__lib_8cpp.html" target="_top" xlink:title=" ">
<polygon fill="white" stroke="#666666" points="80,-24.5 0,-24.5 0,-5.5 80,-5.5 80,-24.5"/>
<text text-anchor="middle" x="40" y="-12.5" font-family="Helvetica,sans-Serif" font-size="10.00">src/d/d_lib.cpp</text>
</a>
</g>
</g>
<!-- Node2&#45;&gt;Node3 -->
<g id="edge2" class="edge">
<title>Node2&#45;&gt;Node3</title>
<path fill="none" stroke="#63b8ff" d="M1172.08,-79.29C974.64,-76.47 301.33,-64.51 89,-30 81.84,-28.84 74.24,-26.98 67.21,-25"/>
<polygon fill="#63b8ff" stroke="#63b8ff" points="1172.02,-82.79 1182.06,-79.43 1172.11,-75.79 1172.02,-82.79"/>
</g>
<!-- Node4 -->
<g id="node4" class="node">
<title>Node4</title>
<g id="a_node4"><a xlink:href="d__name_8cpp.html" target="_top" xlink:title=" ">
<polygon fill="white" stroke="#666666" points="192,-24.5 98,-24.5 98,-5.5 192,-5.5 192,-24.5"/>
<text text-anchor="middle" x="145" y="-12.5" font-family="Helvetica,sans-Serif" font-size="10.00">src/d/d_name.cpp</text>
</a>
</g>
</g>
<!-- Node2&#45;&gt;Node4 -->
<g id="edge3" class="edge">
<title>Node2&#45;&gt;Node4</title>
<path fill="none" stroke="#63b8ff" d="M1172.37,-78.75C988.21,-74.33 391.09,-58.11 201,-30 192.87,-28.8 184.2,-26.93 176.18,-24.94"/>
<polygon fill="#63b8ff" stroke="#63b8ff" points="1172.05,-82.25 1182.13,-78.99 1172.21,-75.25 1172.05,-82.25"/>
</g>
<!-- Node5 -->
<g id="node5" class="node">
<title>Node5</title>
<g id="a_node5"><a xlink:href="d__stage_8cpp.html" target="_top" xlink:title=" ">
<polygon fill="white" stroke="#666666" points="304,-24.5 210,-24.5 210,-5.5 304,-5.5 304,-24.5"/>
<text text-anchor="middle" x="257" y="-12.5" font-family="Helvetica,sans-Serif" font-size="10.00">src/d/d_stage.cpp</text>
</a>
</g>
</g>
<!-- Node2&#45;&gt;Node5 -->
<g id="edge4" class="edge">
<title>Node2&#45;&gt;Node5</title>
<path fill="none" stroke="#63b8ff" d="M1172.48,-80.62C1030.2,-81.46 636.26,-78.79 313,-30 304.97,-28.79 296.42,-26.94 288.48,-24.98"/>
<polygon fill="#63b8ff" stroke="#63b8ff" points="1172.39,-84.12 1182.36,-80.55 1172.34,-77.12 1172.39,-84.12"/>
</g>
<!-- Node6 -->
<g id="node6" class="node">
<title>Node6</title>
<g id="a_node6"><a xlink:href="d__timer_8cpp.html" target="_top" xlink:title=" ">
<polygon fill="white" stroke="#666666" points="414,-24.5 322,-24.5 322,-5.5 414,-5.5 414,-24.5"/>
<text text-anchor="middle" x="368" y="-12.5" font-family="Helvetica,sans-Serif" font-size="10.00">src/d/d_timer.cpp</text>
</a>
</g>
</g>
<!-- Node2&#45;&gt;Node6 -->
<g id="edge5" class="edge">
<title>Node2&#45;&gt;Node6</title>
<path fill="none" stroke="#63b8ff" d="M1172.31,-80.11C1041.83,-79.62 702.29,-73.84 423,-30 415.12,-28.76 406.71,-26.91 398.91,-24.95"/>
<polygon fill="#63b8ff" stroke="#63b8ff" points="1172.03,-83.61 1182.04,-80.14 1172.05,-76.61 1172.03,-83.61"/>
</g>
<!-- Node7 -->
<g id="node7" class="node">
<title>Node7</title>
<g id="a_node7"><a xlink:href="d__menu__dmap_8cpp.html" target="_top" xlink:title=" ">
<polygon fill="white" stroke="#666666" points="582,-24.5 432,-24.5 432,-5.5 582,-5.5 582,-24.5"/>
<text text-anchor="middle" x="507" y="-12.5" font-family="Helvetica,sans-Serif" font-size="10.00">src/d/menu/d_menu_dmap.cpp</text>
</a>
</g>
</g>
<!-- Node2&#45;&gt;Node7 -->
<g id="edge6" class="edge">
<title>Node2&#45;&gt;Node7</title>
<path fill="none" stroke="#63b8ff" d="M1172.22,-77.3C1061.91,-71.5 805.27,-56.23 591,-30 579.7,-28.62 567.6,-26.8 556.2,-24.93"/>
<polygon fill="#63b8ff" stroke="#63b8ff" points="1172.01,-80.79 1182.17,-77.81 1172.37,-73.8 1172.01,-80.79"/>
</g>
<!-- Node8 -->
<g id="node8" class="node">
<title>Node8</title>
<g id="a_node8"><a xlink:href="d__menu__insect_8cpp.html" target="_top" xlink:title=" ">
<polygon fill="white" stroke="#666666" points="1376,-24.5 1224,-24.5 1224,-5.5 1376,-5.5 1376,-24.5"/>
<text text-anchor="middle" x="1300" y="-12.5" font-family="Helvetica,sans-Serif" font-size="10.00">src/d/menu/d_menu_insect.cpp</text>
</a>
</g>
</g>
<!-- Node2&#45;&gt;Node8 -->
<g id="edge7" class="edge">
<title>Node2&#45;&gt;Node8</title>
<path fill="none" stroke="#63b8ff" d="M1245.61,-63.69C1259.7,-51.33 1278.53,-34.82 1289.94,-24.82"/>
<polygon fill="#63b8ff" stroke="#63b8ff" points="1243.5,-60.88 1238.29,-70.1 1248.12,-66.14 1243.5,-60.88"/>
</g>
<!-- Node9 -->
<g id="node9" class="node">
<title>Node9</title>
<g id="a_node9"><a xlink:href="d__menu__item__explain_8cpp.html" target="_top" xlink:title=" ">
<polygon fill="white" stroke="#666666" points="1521.5,-30 1394.5,-30 1394.5,0 1521.5,0 1521.5,-30"/>
<text text-anchor="start" x="1402.5" y="-18" font-family="Helvetica,sans-Serif" font-size="10.00">src/d/menu/d_menu_item</text>
<text text-anchor="middle" x="1458" y="-7" font-family="Helvetica,sans-Serif" font-size="10.00">_explain.cpp</text>
</a>
</g>
</g>
<!-- Node2&#45;&gt;Node9 -->
<g id="edge8" class="edge">
<title>Node2&#45;&gt;Node9</title>
<path fill="none" stroke="#63b8ff" d="M1269.93,-68.1C1308.34,-57.46 1364.73,-41.84 1405.74,-30.48"/>
<polygon fill="#63b8ff" stroke="#63b8ff" points="1269.28,-64.65 1260.58,-70.7 1271.15,-71.4 1269.28,-64.65"/>
</g>
<!-- Node10 -->
<g id="node10" class="node">
<title>Node10</title>
<g id="a_node10"><a xlink:href="d__menu__letter_8cpp.html" target="_top" xlink:title=" ">
<polygon fill="white" stroke="#666666" points="1688,-24.5 1540,-24.5 1540,-5.5 1688,-5.5 1688,-24.5"/>
<text text-anchor="middle" x="1614" y="-12.5" font-family="Helvetica,sans-Serif" font-size="10.00">src/d/menu/d_menu_letter.cpp</text>
</a>
</g>
</g>
<!-- Node2&#45;&gt;Node10 -->
<g id="edge9" class="edge">
<title>Node2&#45;&gt;Node10</title>
<path fill="none" stroke="#63b8ff" d="M1281.62,-71.01C1342.3,-61.03 1443.16,-44.4 1530,-30 1539.77,-28.38 1550.18,-26.65 1560.23,-24.98"/>
<polygon fill="#63b8ff" stroke="#63b8ff" points="1281.2,-67.54 1271.9,-72.61 1282.34,-74.44 1281.2,-67.54"/>
</g>
<!-- Node11 -->
<g id="node11" class="node">
<title>Node11</title>
<g id="a_node11"><a xlink:href="d__menu__option_8cpp.html" target="_top" xlink:title=" ">
<polygon fill="white" stroke="#666666" points="1858,-24.5 1706,-24.5 1706,-5.5 1858,-5.5 1858,-24.5"/>
<text text-anchor="middle" x="1782" y="-12.5" font-family="Helvetica,sans-Serif" font-size="10.00">src/d/menu/d_menu_option.cpp</text>
</a>
</g>
</g>
<!-- Node2&#45;&gt;Node11 -->
<g id="edge10" class="edge">
<title>Node2&#45;&gt;Node11</title>
<path fill="none" stroke="#63b8ff" d="M1281.45,-75.23C1369.13,-67.31 1547,-50.31 1697,-30 1707.82,-28.53 1719.38,-26.77 1730.38,-24.99"/>
<polygon fill="#63b8ff" stroke="#63b8ff" points="1281.35,-71.72 1271.7,-76.1 1281.97,-78.7 1281.35,-71.72"/>
</g>
<!-- Node12 -->
<g id="node12" class="node">
<title>Node12</title>
<g id="a_node12"><a xlink:href="d__menu__ring_8cpp.html" target="_top" xlink:title=" ">
<polygon fill="white" stroke="#666666" points="2345,-24.5 2203,-24.5 2203,-5.5 2345,-5.5 2345,-24.5"/>
<text text-anchor="middle" x="2274" y="-12.5" font-family="Helvetica,sans-Serif" font-size="10.00">src/d/menu/d_menu_ring.cpp</text>
</a>
</g>
</g>
<!-- Node2&#45;&gt;Node12 -->
<g id="edge11" class="edge">
<title>Node2&#45;&gt;Node12</title>
<path fill="none" stroke="#63b8ff" d="M1281.87,-79.45C1429.57,-77.48 1847.71,-68.64 2193,-30 2204.35,-28.73 2216.51,-26.89 2227.87,-24.95"/>
<polygon fill="#63b8ff" stroke="#63b8ff" points="1281.94,-75.95 1271.99,-79.58 1282.03,-82.95 1281.94,-75.95"/>
</g>
<!-- Node13 -->
<g id="node13" class="node">
<title>Node13</title>
<g id="a_node13"><a xlink:href="d__menu__save_8cpp.html" target="_top" xlink:title=" ">
<polygon fill="white" stroke="#666666" points="2023.5,-24.5 1876.5,-24.5 1876.5,-5.5 2023.5,-5.5 2023.5,-24.5"/>
<text text-anchor="middle" x="1950" y="-12.5" font-family="Helvetica,sans-Serif" font-size="10.00">src/d/menu/d_menu_save.cpp</text>
</a>
</g>
</g>
<!-- Node2&#45;&gt;Node13 -->
<g id="edge12" class="edge">
<title>Node2&#45;&gt;Node13</title>
<path fill="none" stroke="#63b8ff" d="M1281.38,-77.39C1391.98,-71.72 1650.93,-56.61 1867,-30 1878.17,-28.62 1890.13,-26.81 1901.39,-24.94"/>
<polygon fill="#63b8ff" stroke="#63b8ff" points="1281.53,-73.88 1271.72,-77.88 1281.88,-80.87 1281.53,-73.88"/>
</g>
<!-- Node14 -->
<g id="node14" class="node">
<title>Node14</title>
<g id="a_node14"><a xlink:href="d__menu__skill_8cpp.html" target="_top" xlink:title=" ">
<polygon fill="white" stroke="#666666" points="2184.5,-24.5 2041.5,-24.5 2041.5,-5.5 2184.5,-5.5 2184.5,-24.5"/>
<text text-anchor="middle" x="2113" y="-12.5" font-family="Helvetica,sans-Serif" font-size="10.00">src/d/menu/d_menu_skill.cpp</text>
</a>
</g>
</g>
<!-- Node2&#45;&gt;Node14 -->
<g id="edge13" class="edge">
<title>Node2&#45;&gt;Node14</title>
<path fill="none" stroke="#63b8ff" d="M1281.56,-78.66C1411.77,-75.03 1750.86,-62.93 2032,-30 2043.2,-28.69 2055.2,-26.85 2066.44,-24.94"/>
<polygon fill="#63b8ff" stroke="#63b8ff" points="1281.76,-75.16 1271.86,-78.93 1281.95,-82.15 1281.76,-75.16"/>
</g>
<!-- Node15 -->
<g id="node15" class="node">
<title>Node15</title>
<g id="a_node15"><a xlink:href="d__menu__window_8cpp.html" target="_top" xlink:title=" ">
<polygon fill="white" stroke="#666666" points="759.5,-24.5 600.5,-24.5 600.5,-5.5 759.5,-5.5 759.5,-24.5"/>
<text text-anchor="middle" x="680" y="-12.5" font-family="Helvetica,sans-Serif" font-size="10.00">src/d/menu/d_menu_window.cpp</text>
</a>
</g>
</g>
<!-- Node2&#45;&gt;Node15 -->
<g id="edge14" class="edge">
<title>Node2&#45;&gt;Node15</title>
<path fill="none" stroke="#63b8ff" d="M1172.36,-74.88C1086.39,-66.63 914.35,-49.36 769,-30 757.84,-28.51 745.91,-26.76 734.54,-25"/>
<polygon fill="#63b8ff" stroke="#63b8ff" points="1171.87,-78.35 1182.16,-75.81 1172.53,-71.38 1171.87,-78.35"/>
</g>
<!-- Node16 -->
<g id="node16" class="node">
<title>Node16</title>
<g id="a_node16"><a xlink:href="d__pane__class_8cpp.html" target="_top" xlink:title=" ">
<polygon fill="white" stroke="#666666" points="2506.5,-24.5 2363.5,-24.5 2363.5,-5.5 2506.5,-5.5 2506.5,-24.5"/>
<text text-anchor="middle" x="2435" y="-12.5" font-family="Helvetica,sans-Serif" font-size="10.00">src/d/pane/d_pane_class.cpp</text>
</a>
</g>
</g>
<!-- Node2&#45;&gt;Node16 -->
<g id="edge15" class="edge">
<title>Node2&#45;&gt;Node16</title>
<path fill="none" stroke="#63b8ff" d="M1281.57,-80.03C1444.82,-79.58 1943.51,-74.4 2354,-30 2365.49,-28.76 2377.82,-26.9 2389.31,-24.94"/>
<polygon fill="#63b8ff" stroke="#63b8ff" points="1281.91,-76.53 1271.92,-80.05 1281.92,-83.53 1281.91,-76.53"/>
</g>
<!-- Node17 -->
<g id="node17" class="node">
<title>Node17</title>
<g id="a_node17"><a xlink:href="d__shop__system_8cpp.html" target="_top" xlink:title=" ">
<polygon fill="white" stroke="#666666" points="930,-24.5 778,-24.5 778,-5.5 930,-5.5 930,-24.5"/>
<text text-anchor="middle" x="854" y="-12.5" font-family="Helvetica,sans-Serif" font-size="10.00">src/d/shop/d_shop_system.cpp</text>
</a>
</g>
</g>
<!-- Node2&#45;&gt;Node17 -->
<g id="edge16" class="edge">
<title>Node2&#45;&gt;Node17</title>
<path fill="none" stroke="#63b8ff" d="M1172.87,-70.71C1101.5,-58.47 976.77,-37.06 906.32,-24.98"/>
<polygon fill="#63b8ff" stroke="#63b8ff" points="1171.91,-74.1 1182.36,-72.34 1173.09,-67.2 1171.91,-74.1"/>
</g>
<!-- Node18 -->
<g id="node18" class="node">
<title>Node18</title>
<g id="a_node18"><a xlink:href="f__pc__manager_8cpp.html" target="_top" xlink:title=" ">
<polygon fill="white" stroke="#666666" points="1082,-24.5 948,-24.5 948,-5.5 1082,-5.5 1082,-24.5"/>
<text text-anchor="middle" x="1015" y="-12.5" font-family="Helvetica,sans-Serif" font-size="10.00">src/f_pc/f_pc_manager.cpp</text>
</a>
</g>
</g>
<!-- Node2&#45;&gt;Node18 -->
<g id="edge17" class="edge">
<title>Node2&#45;&gt;Node18</title>
<path fill="none" stroke="#63b8ff" d="M1186.71,-67.84C1145.24,-55.32 1081.61,-36.11 1044.57,-24.93"/>
<polygon fill="#63b8ff" stroke="#63b8ff" points="1185.49,-71.12 1196.07,-70.66 1187.51,-64.42 1185.49,-71.12"/>
</g>
<!-- Node19 -->
<g id="node19" class="node">
<title>Node19</title>
<g id="a_node19"><a xlink:href="d__msg__scrn__explain_8cpp.html" target="_top" xlink:title=" ">
<polygon fill="white" stroke="#666666" points="1206,-30 1100,-30 1100,0 1206,0 1206,-30"/>
<text text-anchor="start" x="1108" y="-18" font-family="Helvetica,sans-Serif" font-size="10.00">src/msg/scrn/d_msg</text>
<text text-anchor="middle" x="1153" y="-7" font-family="Helvetica,sans-Serif" font-size="10.00">_scrn_explain.cpp</text>
</a>
</g>
</g>
<!-- Node2&#45;&gt;Node19 -->
<g id="edge18" class="edge">
<title>Node2&#45;&gt;Node19</title>
<path fill="none" stroke="#63b8ff" d="M1208.05,-63.62C1196.22,-53.38 1181.13,-40.33 1169.74,-30.48"/>
<polygon fill="#63b8ff" stroke="#63b8ff" points="1205.71,-66.22 1215.57,-70.11 1210.29,-60.92 1205.71,-66.22"/>
</g>
<!-- Node21 -->
<g id="node21" class="node">
<title>Node21</title>
<g id="a_node21"><a xlink:href="J2DGrafContext_8h.html" target="_top" xlink:title=" ">
<polygon fill="#fff0f0" stroke="red" points="2766.5,-162 2631.5,-162 2631.5,-132 2766.5,-132 2766.5,-162"/>
<text text-anchor="start" x="2639.5" y="-150" font-family="Helvetica,sans-Serif" font-size="10.00">include/JSystem/J2DGraph</text>
<text text-anchor="middle" x="2699" y="-139" font-family="Helvetica,sans-Serif" font-size="10.00">/J2DGrafContext.h</text>
</a>
</g>
</g>
<!-- Node20&#45;&gt;Node21 -->
<g id="edge20" class="edge">
<title>Node20&#45;&gt;Node21</title>
<path fill="none" stroke="#63b8ff" d="M3673.57,-209.52C3528.2,-203.46 3151.77,-186.53 2838,-162 2814.79,-160.18 2789.44,-157.76 2766.82,-155.44"/>
<polygon fill="#63b8ff" stroke="#63b8ff" points="3673.21,-213.01 3683.35,-209.93 3673.5,-206.02 3673.21,-213.01"/>
</g>
<!-- Node40 -->
<g id="node31" class="node">
<title>Node40</title>
<g id="a_node31"><a xlink:href="J2DPane_8h.html" target="_top" xlink:title=" ">
<polygon fill="#fff0f0" stroke="red" points="2982.5,-162 2847.5,-162 2847.5,-132 2982.5,-132 2982.5,-162"/>
<text text-anchor="start" x="2855.5" y="-150" font-family="Helvetica,sans-Serif" font-size="10.00">include/JSystem/J2DGraph</text>
<text text-anchor="middle" x="2915" y="-139" font-family="Helvetica,sans-Serif" font-size="10.00">/J2DPane.h</text>
</a>
</g>
</g>
<!-- Node20&#45;&gt;Node40 -->
<g id="edge32" class="edge">
<title>Node20&#45;&gt;Node40</title>
<path fill="none" stroke="#63b8ff" d="M3673.35,-209.94C3546.41,-205.23 3246.79,-191.71 2997,-162 2992.41,-161.45 2987.69,-160.83 2982.94,-160.14"/>
<polygon fill="#63b8ff" stroke="#63b8ff" points="3673.09,-213.43 3683.21,-210.3 3673.35,-206.44 3673.09,-213.43"/>
</g>
<!-- Node318 -->
<g id="node32" class="node">
<title>Node318</title>
<g id="a_node32"><a xlink:href="J3DStruct_8h.html" target="_top" xlink:title=" ">
<polygon fill="#fff0f0" stroke="red" points="3174.5,-162 3039.5,-162 3039.5,-132 3174.5,-132 3174.5,-162"/>
<text text-anchor="start" x="3047.5" y="-150" font-family="Helvetica,sans-Serif" font-size="10.00">include/JSystem/J3DGraph</text>
<text text-anchor="middle" x="3107" y="-139" font-family="Helvetica,sans-Serif" font-size="10.00">Base/J3DStruct.h</text>
</a>
</g>
</g>
<!-- Node20&#45;&gt;Node318 -->
<g id="edge33" class="edge">
<title>Node20&#45;&gt;Node318</title>
<path fill="none" stroke="#63b8ff" d="M3673.26,-208.26C3571,-201.66 3360.17,-186.29 3183,-162 3180.34,-161.64 3177.63,-161.24 3174.9,-160.83"/>
<polygon fill="#63b8ff" stroke="#63b8ff" points="3672.88,-211.75 3683.08,-208.89 3673.33,-204.76 3672.88,-211.75"/>
</g>
<!-- Node334 -->
<g id="node33" class="node">
<title>Node334</title>
<g id="a_node33"><a xlink:href="J3DTexture_8h.html" target="_top" xlink:title=" ">
<polygon fill="#fff0f0" stroke="red" points="3382.5,-96 3247.5,-96 3247.5,-66 3382.5,-66 3382.5,-96"/>
<text text-anchor="start" x="3255.5" y="-84" font-family="Helvetica,sans-Serif" font-size="10.00">include/JSystem/J3DGraph</text>
<text text-anchor="middle" x="3315" y="-73" font-family="Helvetica,sans-Serif" font-size="10.00">Base/J3DTexture.h</text>
</a>
</g>
</g>
<!-- Node20&#45;&gt;Node334 -->
<g id="edge35" class="edge">
<title>Node20&#45;&gt;Node334</title>
<path fill="none" stroke="#63b8ff" d="M3673.39,-212.31C3509.7,-212.5 3073.39,-208.58 3030,-162 2922.88,-47.01 2774.7,-178.21 3238,-96 3241.08,-95.45 3244.22,-94.89 3247.4,-94.32"/>
<polygon fill="#63b8ff" stroke="#63b8ff" points="3673.19,-215.81 3683.19,-212.29 3673.18,-208.81 3673.19,-215.81"/>
</g>
<!-- Node482 -->
<g id="node34" class="node">
<title>Node482</title>
<g id="a_node34"><a xlink:href="J3DModelLoader_8h.html" target="_top" xlink:title=" ">
<polygon fill="#fff0f0" stroke="red" points="3327.5,-162 3192.5,-162 3192.5,-132 3327.5,-132 3327.5,-162"/>
<text text-anchor="start" x="3200.5" y="-150" font-family="Helvetica,sans-Serif" font-size="10.00">include/JSystem/J3DGraph</text>
<text text-anchor="middle" x="3260" y="-139" font-family="Helvetica,sans-Serif" font-size="10.00">Loader/J3DModelLoader.h</text>
</a>
</g>
</g>
<!-- Node20&#45;&gt;Node482 -->
<g id="edge36" class="edge">
<title>Node20&#45;&gt;Node482</title>
<path fill="none" stroke="#63b8ff" d="M3673.68,-205.02C3596.26,-196.01 3459.04,-179.43 3342,-162 3337.43,-161.32 3332.72,-160.59 3327.98,-159.84"/>
<polygon fill="#63b8ff" stroke="#63b8ff" points="3672.82,-208.44 3683.15,-206.12 3673.62,-201.49 3672.82,-208.44"/>
</g>
<!-- Node490 -->
<g id="node35" class="node">
<title>Node490</title>
<g id="a_node35"><a xlink:href="JMath_8h.html" target="_top" xlink:title=" ">
<polygon fill="#fff0f0" stroke="red" points="3503.5,-162 3384.5,-162 3384.5,-132 3503.5,-132 3503.5,-162"/>
<text text-anchor="start" x="3392.5" y="-150" font-family="Helvetica,sans-Serif" font-size="10.00">include/JSystem/JMath</text>
<text text-anchor="middle" x="3444" y="-139" font-family="Helvetica,sans-Serif" font-size="10.00">/JMath.h</text>
</a>
</g>
</g>
<!-- Node20&#45;&gt;Node490 -->
<g id="edge37" class="edge">
<title>Node20&#45;&gt;Node490</title>
<path fill="none" stroke="#63b8ff" d="M3673.66,-198.51C3623.63,-187.51 3553.38,-172.06 3503.78,-161.15"/>
<polygon fill="#63b8ff" stroke="#63b8ff" points="3672.65,-201.87 3683.17,-200.6 3674.15,-195.03 3672.65,-201.87"/>
</g>
<!-- Node491 -->
<g id="node36" class="node">
<title>Node491</title>
<g id="a_node36"><a xlink:href="TPosition3_8hh.html" target="_top" xlink:title=" ">
<polygon fill="#fff0f0" stroke="red" points="3551.5,-90.5 3400.5,-90.5 3400.5,-71.5 3551.5,-71.5 3551.5,-90.5"/>
<text text-anchor="middle" x="3476" y="-78.5" font-family="Helvetica,sans-Serif" font-size="10.00">include/JSystem/TPosition3.hh</text>
</a>
</g>
</g>
<!-- Node20&#45;&gt;Node491 -->
<g id="edge41" class="edge">
<title>Node20&#45;&gt;Node491</title>
<path fill="none" stroke="#63b8ff" d="M3673.38,-212.74C3580.89,-212.4 3412.95,-205.58 3375,-162 3348.56,-131.63 3409.23,-104.42 3447.59,-90.94"/>
<polygon fill="#63b8ff" stroke="#63b8ff" points="3673.3,-216.24 3683.3,-212.75 3673.3,-209.24 3673.3,-216.24"/>
</g>
<!-- Node514 -->
<g id="node37" class="node">
<title>Node514</title>
<g id="a_node37"><a xlink:href="JPADrawInfo_8h.html" target="_top" xlink:title=" ">
<polygon fill="#fff0f0" stroke="red" points="3652,-162 3522,-162 3522,-132 3652,-132 3652,-162"/>
<text text-anchor="start" x="3530" y="-150" font-family="Helvetica,sans-Serif" font-size="10.00">include/JSystem/JParticle</text>
<text text-anchor="middle" x="3587" y="-139" font-family="Helvetica,sans-Serif" font-size="10.00">/JPADrawInfo.h</text>
</a>
</g>
</g>
<!-- Node20&#45;&gt;Node514 -->
<g id="edge39" class="edge">
<title>Node20&#45;&gt;Node514</title>
<path fill="none" stroke="#63b8ff" d="M3691.39,-193.14C3668.68,-183.32 3641.36,-171.51 3620.36,-162.43"/>
<polygon fill="#63b8ff" stroke="#63b8ff" points="3689.83,-196.28 3700.4,-197.04 3692.61,-189.85 3689.83,-196.28"/>
</g>
<!-- Node519 -->
<g id="node38" class="node">
<title>Node519</title>
<g id="a_node38"><a xlink:href="JPAMath_8h.html" target="_top" xlink:title=" ">
<polygon fill="#fff0f0" stroke="red" points="3800,-162 3670,-162 3670,-132 3800,-132 3800,-162"/>
<text text-anchor="start" x="3678" y="-150" font-family="Helvetica,sans-Serif" font-size="10.00">include/JSystem/JParticle</text>
<text text-anchor="middle" x="3735" y="-139" font-family="Helvetica,sans-Serif" font-size="10.00">/JPAMath.h</text>
</a>
</g>
</g>
<!-- Node20&#45;&gt;Node519 -->
<g id="edge40" class="edge">
<title>Node20&#45;&gt;Node519</title>
<path fill="none" stroke="#63b8ff" d="M3735,-186.39C3735,-178.13 3735,-169.28 3735,-162.16"/>
<polygon fill="#63b8ff" stroke="#63b8ff" points="3731.5,-186.28 3735,-196.28 3738.5,-186.28 3731.5,-186.28"/>
</g>
<!-- Node528 -->
<g id="node39" class="node">
<title>Node528</title>
<g id="a_node39"><a xlink:href="c__lib_8h.html" target="_top" xlink:title=" ">
<polygon fill="#fff0f0" stroke="red" points="3967.5,-162 3818.5,-162 3818.5,-132 3967.5,-132 3967.5,-162"/>
<text text-anchor="start" x="3826.5" y="-150" font-family="Helvetica,sans-Serif" font-size="10.00">include/SSystem/SComponent</text>
<text text-anchor="middle" x="3893" y="-139" font-family="Helvetica,sans-Serif" font-size="10.00">/c_lib.h</text>
</a>
</g>
</g>
<!-- Node20&#45;&gt;Node528 -->
<g id="edge42" class="edge">
<title>Node20&#45;&gt;Node528</title>
<path fill="none" stroke="#63b8ff" d="M3780.9,-193.41C3805.27,-183.54 3834.77,-171.59 3857.39,-162.43"/>
<polygon fill="#63b8ff" stroke="#63b8ff" points="3779.82,-190.07 3771.86,-197.07 3782.44,-196.56 3779.82,-190.07"/>
</g>
<!-- Node531 -->
<g id="node40" class="node">
<title>Node531</title>
<g id="a_node40"><a xlink:href="d__bg__w_8h.html" target="_top" xlink:title=" ">
<polygon fill="#fff0f0" stroke="red" points="4098.5,-156.5 3985.5,-156.5 3985.5,-137.5 4098.5,-137.5 4098.5,-156.5"/>
<text text-anchor="middle" x="4042" y="-144.5" font-family="Helvetica,sans-Serif" font-size="10.00">include/d/bg/d_bg_w.h</text>
</a>
</g>
</g>
<!-- Node20&#45;&gt;Node531 -->
<g id="edge43" class="edge">
<title>Node20&#45;&gt;Node531</title>
<path fill="none" stroke="#63b8ff" d="M3796.64,-197.7C3877.49,-180.43 3899.72,-177.96 3977,-162 3984.69,-160.41 3992.88,-158.68 4000.76,-156.99"/>
<polygon fill="#63b8ff" stroke="#63b8ff" points="3795.91,-194.27 3786.87,-199.79 3797.38,-201.12 3795.91,-194.27"/>
</g>
<!-- Node534 -->
<g id="node41" class="node">
<title>Node534</title>
<g id="a_node41"><a xlink:href="d__kankyo__rain_8h.html" target="_top" xlink:title=" ">
<polygon fill="#fff0f0" stroke="red" points="4215,-162 4117,-162 4117,-132 4215,-132 4215,-162"/>
<text text-anchor="start" x="4125" y="-150" font-family="Helvetica,sans-Serif" font-size="10.00">include/d/kankyo/d</text>
<text text-anchor="middle" x="4166" y="-139" font-family="Helvetica,sans-Serif" font-size="10.00">_kankyo_rain.h</text>
</a>
</g>
</g>
<!-- Node20&#45;&gt;Node534 -->
<g id="edge44" class="edge">
<title>Node20&#45;&gt;Node534</title>
<path fill="none" stroke="#63b8ff" d="M3796.36,-197.93C3934.92,-174.66 3973.63,-185.85 4108,-162 4110.86,-161.49 4113.78,-160.93 4116.73,-160.33"/>
<polygon fill="#63b8ff" stroke="#63b8ff" points="3796.09,-194.42 3786.82,-199.56 3797.27,-201.32 3796.09,-194.42"/>
</g>
<!-- Node535 -->
<g id="node42" class="node">
<title>Node535</title>
<g id="a_node42"><a xlink:href="GXInit_8h.html" target="_top" xlink:title=" ">
<polygon fill="#fff0f0" stroke="red" points="4327,-162 4233,-162 4233,-132 4327,-132 4327,-162"/>
<text text-anchor="start" x="4241" y="-150" font-family="Helvetica,sans-Serif" font-size="10.00">include/dolphin/gx</text>
<text text-anchor="middle" x="4280" y="-139" font-family="Helvetica,sans-Serif" font-size="10.00">/GXInit.h</text>
</a>
</g>
</g>
<!-- Node20&#45;&gt;Node535 -->
<g id="edge45" class="edge">
<title>Node20&#45;&gt;Node535</title>
<path fill="none" stroke="#63b8ff" d="M3796.5,-197.96C3986,-169.12 4038.84,-192.71 4224,-162 4226.87,-161.52 4229.8,-160.98 4232.76,-160.38"/>
<polygon fill="#63b8ff" stroke="#63b8ff" points="3796.15,-194.47 3786.81,-199.47 3797.22,-201.39 3796.15,-194.47"/>
</g>
<!-- Node627 -->
<g id="node43" class="node">
<title>Node627</title>
<g id="a_node43"><a xlink:href="GXTransform_8h.html" target="_top" xlink:title=" ">
<polygon fill="#fff0f0" stroke="red" points="4439,-162 4345,-162 4345,-132 4439,-132 4439,-162"/>
<text text-anchor="start" x="4353" y="-150" font-family="Helvetica,sans-Serif" font-size="10.00">include/dolphin/gx</text>
<text text-anchor="middle" x="4392" y="-139" font-family="Helvetica,sans-Serif" font-size="10.00">/GXTransform.h</text>
</a>
</g>
</g>
<!-- Node20&#45;&gt;Node627 -->
<g id="edge46" class="edge">
<title>Node20&#45;&gt;Node627</title>
<path fill="none" stroke="#63b8ff" d="M3796.44,-198C4035.34,-163.6 4101.54,-198.81 4336,-162 4338.87,-161.55 4341.81,-161.02 4344.77,-160.44"/>
<polygon fill="#63b8ff" stroke="#63b8ff" points="3796.18,-194.5 3786.8,-199.42 3797.2,-201.43 3796.18,-194.5"/>
</g>
<!-- Node628 -->
<g id="node44" class="node">
<title>Node628</title>
<g id="a_node44"><a xlink:href="mtxvec_8h.html" target="_top" xlink:title=" ">
<polygon fill="#fff0f0" stroke="red" points="4557,-162 4457,-162 4457,-132 4557,-132 4557,-162"/>
<text text-anchor="start" x="4465" y="-150" font-family="Helvetica,sans-Serif" font-size="10.00">include/dolphin/mtx</text>
<text text-anchor="middle" x="4507" y="-139" font-family="Helvetica,sans-Serif" font-size="10.00">/mtxvec.h</text>
</a>
</g>
</g>
<!-- Node20&#45;&gt;Node628 -->
<g id="edge47" class="edge">
<title>Node20&#45;&gt;Node628</title>
<path fill="none" stroke="#63b8ff" d="M3796.52,-198.01C4084.74,-158 4164,-203.19 4448,-162 4450.81,-161.59 4453.69,-161.11 4456.58,-160.59"/>
<polygon fill="#63b8ff" stroke="#63b8ff" points="3796.2,-194.52 3786.79,-199.38 3797.18,-201.45 3796.2,-194.52"/>
</g>
<!-- Node660 -->
<g id="node45" class="node">
<title>Node660</title>
<g id="a_node45"><a xlink:href="f__op__view_8h.html" target="_top" xlink:title=" ">
<polygon fill="#fff0f0" stroke="red" points="4699,-156.5 4575,-156.5 4575,-137.5 4699,-137.5 4699,-156.5"/>
<text text-anchor="middle" x="4637" y="-144.5" font-family="Helvetica,sans-Serif" font-size="10.00">include/f_op/f_op_view.h</text>
</a>
</g>
</g>
<!-- Node20&#45;&gt;Node660 -->
<g id="edge48" class="edge">
<title>Node20&#45;&gt;Node660</title>
<path fill="none" stroke="#63b8ff" d="M3796.46,-198.03C4136.76,-151.95 4229.11,-202.85 4566,-162 4576.1,-160.77 4586.92,-158.92 4596.99,-156.96"/>
<polygon fill="#63b8ff" stroke="#63b8ff" points="3796.22,-194.53 3786.79,-199.36 3797.17,-201.46 3796.22,-194.53"/>
</g>
<!-- Node663 -->
<g id="node46" class="node">
<title>Node663</title>
<g id="a_node46"><a xlink:href="m__Do__graphic_8h.html" target="_top" xlink:title=" ">
<polygon fill="#fff0f0" stroke="red" points="2024.5,-90.5 1875.5,-90.5 1875.5,-71.5 2024.5,-71.5 2024.5,-90.5"/>
<text text-anchor="middle" x="1950" y="-78.5" font-family="Helvetica,sans-Serif" font-size="10.00">include/m_Do/m_Do_graphic.h</text>
</a>
</g>
</g>
<!-- Node20&#45;&gt;Node663 -->
<g id="edge49" class="edge">
<title>Node20&#45;&gt;Node663</title>
<path fill="none" stroke="#63b8ff" d="M3673.38,-210.67C3504.84,-206.74 3022.13,-193.37 2622,-162 2359.39,-141.41 2293.86,-132.59 2033,-96 2022.44,-94.52 2011.15,-92.74 2000.41,-90.96"/>
<polygon fill="#63b8ff" stroke="#63b8ff" points="3673.14,-214.17 3683.22,-210.9 3673.3,-207.17 3673.14,-214.17"/>
</g>
<!-- Node235 -->
<g id="node47" class="node">
<title>Node235</title>
<g id="a_node47"><a xlink:href="d__resorce_8cpp.html" target="_top" xlink:title=" ">
<polygon fill="white" stroke="#666666" points="3718,-24.5 3616,-24.5 3616,-5.5 3718,-5.5 3718,-24.5"/>
<text text-anchor="middle" x="3667" y="-12.5" font-family="Helvetica,sans-Serif" font-size="10.00">src/d/d_resorce.cpp</text>
</a>
</g>
</g>
<!-- Node20&#45;&gt;Node235 -->
<g id="edge60" class="edge">
<title>Node20&#45;&gt;Node235</title>
<path fill="none" stroke="#63b8ff" d="M3796.44,-198.59C3911.85,-191.73 4674.26,-197.09 4708,-162 4717.24,-152.39 4716.89,-141.94 4708,-132 4641.23,-57.38 3918.8,-25.3 3718.33,-17.79"/>
<polygon fill="#63b8ff" stroke="#63b8ff" points="3796.46,-195.07 3786.79,-199.41 3797.06,-202.05 3796.46,-195.07"/>
</g>
<!-- Node664 -->
<g id="node48" class="node">
<title>Node664</title>
<g id="a_node48"><a xlink:href="mtx_8c.html" target="_top" xlink:title=" ">
<polygon fill="white" stroke="#666666" points="4865,-156.5 4755,-156.5 4755,-137.5 4865,-137.5 4865,-156.5"/>
<text text-anchor="middle" x="4810" y="-144.5" font-family="Helvetica,sans-Serif" font-size="10.00">libs/dolphin/mtx/mtx.c</text>
</a>
</g>
</g>
<!-- Node20&#45;&gt;Node664 -->
<g id="edge59" class="edge">
<title>Node20&#45;&gt;Node664</title>
<path fill="none" stroke="#63b8ff" d="M3796.46,-198.04C4213.98,-143.16 4326.9,-211.56 4741,-162 4750.95,-160.81 4761.61,-158.94 4771.5,-156.96"/>
<polygon fill="#63b8ff" stroke="#63b8ff" points="3796.24,-194.54 3786.79,-199.33 3797.16,-201.48 3796.24,-194.54"/>
</g>
<!-- Node261 -->
<g id="node49" class="node">
<title>Node261</title>
<g id="a_node49"><a xlink:href="m__Do__ext_8cpp.html" target="_top" xlink:title=" ">
<polygon fill="white" stroke="#666666" points="5006.5,-156.5 4883.5,-156.5 4883.5,-137.5 5006.5,-137.5 5006.5,-156.5"/>
<text text-anchor="middle" x="4945" y="-144.5" font-family="Helvetica,sans-Serif" font-size="10.00">src/m_Do/m_Do_ext.cpp</text>
</a>
</g>
</g>
<!-- Node20&#45;&gt;Node261 -->
<g id="edge61" class="edge">
<title>Node20&#45;&gt;Node261</title>
<path fill="none" stroke="#63b8ff" d="M3796.59,-198.03C4272.69,-136.45 4401.02,-216.16 4874,-162 4884.24,-160.83 4895.2,-158.97 4905.37,-156.99"/>
<polygon fill="#63b8ff" stroke="#63b8ff" points="3796.24,-194.55 3786.78,-199.32 3797.15,-201.49 3796.24,-194.55"/>
</g>
<!-- Node22 -->
<g id="node22" class="node">
<title>Node22</title>
<g id="a_node22"><a xlink:href="J2DOrthoGraph_8h.html" target="_top" xlink:title=" ">
<polygon fill="#fff0f0" stroke="red" points="2177.5,-96 2042.5,-96 2042.5,-66 2177.5,-66 2177.5,-96"/>
<text text-anchor="start" x="2050.5" y="-84" font-family="Helvetica,sans-Serif" font-size="10.00">include/JSystem/J2DGraph</text>
<text text-anchor="middle" x="2110" y="-73" font-family="Helvetica,sans-Serif" font-size="10.00">/J2DOrthoGraph.h</text>
</a>
</g>
</g>
<!-- Node21&#45;&gt;Node22 -->
<g id="edge21" class="edge">
<title>Node21&#45;&gt;Node22</title>
<path fill="none" stroke="#63b8ff" d="M2619.83,-140.38C2518.85,-132.74 2338.94,-117.5 2186,-96 2183.34,-95.63 2180.64,-95.23 2177.91,-94.8"/>
<polygon fill="#63b8ff" stroke="#63b8ff" points="2619.41,-143.86 2629.64,-141.12 2619.93,-136.88 2619.41,-143.86"/>
</g>
<!-- Node30 -->
<g id="node23" class="node">
<title>Node30</title>
<g id="a_node23"><a xlink:href="J2DGrafContext_8cpp.html" target="_top" xlink:title=" ">
<polygon fill="white" stroke="#666666" points="2314.5,-96 2195.5,-96 2195.5,-66 2314.5,-66 2314.5,-96"/>
<text text-anchor="start" x="2203.5" y="-84" font-family="Helvetica,sans-Serif" font-size="10.00">libs/JSystem/J2DGraph</text>
<text text-anchor="middle" x="2255" y="-73" font-family="Helvetica,sans-Serif" font-size="10.00">/J2DGrafContext.cpp</text>
</a>
</g>
</g>
<!-- Node21&#45;&gt;Node30 -->
<g id="edge24" class="edge">
<title>Node21&#45;&gt;Node30</title>
<path fill="none" stroke="#63b8ff" d="M2619.8,-137.12C2543.54,-128.18 2425.06,-113.27 2323,-96 2320.27,-95.54 2317.48,-95.05 2314.66,-94.53"/>
<polygon fill="#63b8ff" stroke="#63b8ff" points="2619.36,-140.59 2629.7,-138.27 2620.17,-133.64 2619.36,-140.59"/>
</g>
<!-- Node31 -->
<g id="node24" class="node">
<title>Node31</title>
<g id="a_node24"><a xlink:href="d__bright__check_8cpp.html" target="_top" xlink:title=" ">
<polygon fill="white" stroke="#666666" points="2457.5,-90.5 2332.5,-90.5 2332.5,-71.5 2457.5,-71.5 2457.5,-90.5"/>
<text text-anchor="middle" x="2395" y="-78.5" font-family="Helvetica,sans-Serif" font-size="10.00">src/d/d_bright_check.cpp</text>
</a>
</g>
</g>
<!-- Node21&#45;&gt;Node31 -->
<g id="edge25" class="edge">
<title>Node21&#45;&gt;Node31</title>
<path fill="none" stroke="#63b8ff" d="M2620.12,-129.39C2561.75,-117.11 2484.5,-100.84 2437.35,-90.92"/>
<polygon fill="#63b8ff" stroke="#63b8ff" points="2619.17,-132.77 2629.67,-131.4 2620.61,-125.92 2619.17,-132.77"/>
</g>
<!-- Node32 -->
<g id="node25" class="node">
<title>Node32</title>
<g id="a_node25"><a xlink:href="d__kantera__icon__meter_8cpp.html" target="_top" xlink:title=" ">
<polygon fill="white" stroke="#666666" points="2582.5,-96 2475.5,-96 2475.5,-66 2582.5,-66 2582.5,-96"/>
<text text-anchor="start" x="2483.5" y="-84" font-family="Helvetica,sans-Serif" font-size="10.00">src/d/d_kantera_icon</text>
<text text-anchor="middle" x="2529" y="-73" font-family="Helvetica,sans-Serif" font-size="10.00">_meter.cpp</text>
</a>
</g>
</g>
<!-- Node21&#45;&gt;Node32 -->
<g id="edge26" class="edge">
<title>Node21&#45;&gt;Node32</title>
<path fill="none" stroke="#63b8ff" d="M2650.32,-127.67C2623.96,-117.75 2591.87,-105.67 2567.32,-96.43"/>
<polygon fill="#63b8ff" stroke="#63b8ff" points="2648.84,-130.86 2659.43,-131.1 2651.31,-124.3 2648.84,-130.86"/>
</g>
<!-- Node33 -->
<g id="node26" class="node">
<title>Node33</title>
<g id="a_node26"><a xlink:href="d__map__path_8cpp.html" target="_top" xlink:title=" ">
<polygon fill="white" stroke="#666666" points="2735,-90.5 2601,-90.5 2601,-71.5 2735,-71.5 2735,-90.5"/>
<text text-anchor="middle" x="2668" y="-78.5" font-family="Helvetica,sans-Serif" font-size="10.00">src/d/map/d_map_path.cpp</text>
</a>
</g>
</g>
<!-- Node21&#45;&gt;Node33 -->
<g id="edge27" class="edge">
<title>Node21&#45;&gt;Node33</title>
<path fill="none" stroke="#63b8ff" d="M2687.18,-121.6C2681.95,-110.8 2676.13,-98.78 2672.28,-90.84"/>
<polygon fill="#63b8ff" stroke="#63b8ff" points="2683.95,-122.96 2691.46,-130.43 2690.25,-119.91 2683.95,-122.96"/>
</g>
<!-- Node34 -->
<g id="node27" class="node">
<title>Node34</title>
<g id="a_node27"><a xlink:href="d__meter__map_8cpp.html" target="_top" xlink:title=" ">
<polygon fill="white" stroke="#666666" points="2857,-96 2753,-96 2753,-66 2857,-66 2857,-96"/>
<text text-anchor="start" x="2761" y="-84" font-family="Helvetica,sans-Serif" font-size="10.00">src/d/meter/d_meter</text>
<text text-anchor="middle" x="2805" y="-73" font-family="Helvetica,sans-Serif" font-size="10.00">_map.cpp</text>
</a>
</g>
</g>
<!-- Node21&#45;&gt;Node34 -->
<g id="edge28" class="edge">
<title>Node21&#45;&gt;Node34</title>
<path fill="none" stroke="#63b8ff" d="M2732.27,-125.91C2748.18,-116.31 2766.85,-105.03 2781.29,-96.31"/>
<polygon fill="#63b8ff" stroke="#63b8ff" points="2730.84,-122.69 2724.08,-130.85 2734.45,-128.68 2730.84,-122.69"/>
</g>
<!-- Node35 -->
<g id="node28" class="node">
<title>Node35</title>
<g id="a_node28"><a xlink:href="d__msg__scrn__base_8cpp.html" target="_top" xlink:title=" ">
<polygon fill="white" stroke="#666666" points="2981,-96 2875,-96 2875,-66 2981,-66 2981,-96"/>
<text text-anchor="start" x="2883" y="-84" font-family="Helvetica,sans-Serif" font-size="10.00">src/msg/scrn/d_msg</text>
<text text-anchor="middle" x="2928" y="-73" font-family="Helvetica,sans-Serif" font-size="10.00">_scrn_base.cpp</text>
</a>
</g>
</g>
<!-- Node21&#45;&gt;Node35 -->
<g id="edge29" class="edge">
<title>Node21&#45;&gt;Node35</title>
<path fill="none" stroke="#63b8ff" d="M2761.58,-128.51C2797.66,-118.43 2842.48,-105.9 2876.51,-96.39"/>
<polygon fill="#63b8ff" stroke="#63b8ff" points="2760.82,-125.09 2752.14,-131.15 2762.71,-131.83 2760.82,-125.09"/>
</g>
<!-- Node36 -->
<g id="node29" class="node">
<title>Node36</title>
<g id="a_node29"><a xlink:href="d__msg__scrn__boss_8cpp.html" target="_top" xlink:title=" ">
<polygon fill="white" stroke="#666666" points="3105,-96 2999,-96 2999,-66 3105,-66 3105,-96"/>
<text text-anchor="start" x="3007" y="-84" font-family="Helvetica,sans-Serif" font-size="10.00">src/msg/scrn/d_msg</text>
<text text-anchor="middle" x="3052" y="-73" font-family="Helvetica,sans-Serif" font-size="10.00">_scrn_boss.cpp</text>
</a>
</g>
</g>
<!-- Node21&#45;&gt;Node36 -->
<g id="edge30" class="edge">
<title>Node21&#45;&gt;Node36</title>
<path fill="none" stroke="#63b8ff" d="M2777.85,-133.59C2836.5,-124.08 2918.44,-110.22 2990,-96 2992.81,-95.44 2995.7,-94.85 2998.6,-94.24"/>
<polygon fill="#63b8ff" stroke="#63b8ff" points="2777.61,-130.08 2768.3,-135.13 2778.73,-136.99 2777.61,-130.08"/>
</g>
<!-- Node37 -->
<g id="node30" class="node">
<title>Node37</title>
<g id="a_node30"><a xlink:href="d__msg__scrn__place_8cpp.html" target="_top" xlink:title=" ">
<polygon fill="white" stroke="#666666" points="3229,-96 3123,-96 3123,-66 3229,-66 3229,-96"/>
<text text-anchor="start" x="3131" y="-84" font-family="Helvetica,sans-Serif" font-size="10.00">src/msg/scrn/d_msg</text>
<text text-anchor="middle" x="3176" y="-73" font-family="Helvetica,sans-Serif" font-size="10.00">_scrn_place.cpp</text>
</a>
</g>
</g>
<!-- Node21&#45;&gt;Node37 -->
<g id="edge31" class="edge">
<title>Node21&#45;&gt;Node37</title>
<path fill="none" stroke="#63b8ff" d="M2777.82,-137.48C2879.65,-126.3 3051.28,-106.83 3114,-96 3116.83,-95.51 3119.72,-94.98 3122.64,-94.41"/>
<polygon fill="#63b8ff" stroke="#63b8ff" points="2777.73,-133.97 2768.17,-138.53 2778.5,-140.92 2777.73,-133.97"/>
</g>
<!-- Node22&#45;&gt;Node12 -->
<g id="edge22" class="edge">
<title>Node22&#45;&gt;Node12</title>
<path fill="none" stroke="#63b8ff" d="M2157.31,-61.54C2188.06,-49.54 2226.79,-34.43 2250.97,-24.99"/>
<polygon fill="#63b8ff" stroke="#63b8ff" points="2156.26,-58.19 2148.21,-65.09 2158.8,-64.71 2156.26,-58.19"/>
</g>
<!-- Node22&#45;&gt;Node16 -->
<g id="edge23" class="edge">
<title>Node22&#45;&gt;Node16</title>
<path fill="none" stroke="#63b8ff" d="M2188.79,-64.49C2251.59,-52.12 2337.35,-35.23 2389.31,-25"/>
<polygon fill="#63b8ff" stroke="#63b8ff" points="2188.36,-61 2179.22,-66.37 2189.71,-67.87 2188.36,-61"/>
</g>
<!-- Node318&#45;&gt;Node334 -->
<g id="edge34" class="edge">
<title>Node318&#45;&gt;Node334</title>
<path fill="none" stroke="#63b8ff" d="M3164.69,-128.25C3197.32,-118.21 3237.59,-105.82 3268.23,-96.39"/>
<polygon fill="#63b8ff" stroke="#63b8ff" points="3163.91,-124.83 3155.39,-131.11 3165.97,-131.52 3163.91,-124.83"/>
</g>
<!-- Node490&#45;&gt;Node491 -->
<g id="edge38" class="edge">
<title>Node490&#45;&gt;Node491</title>
<path fill="none" stroke="#63b8ff" d="M3456.2,-121.6C3461.6,-110.8 3467.61,-98.78 3471.58,-90.84"/>
<polygon fill="#63b8ff" stroke="#63b8ff" points="3453.12,-119.93 3451.78,-130.44 3459.38,-123.06 3453.12,-119.93"/>
</g>
<!-- Node663&#45;&gt;Node8 -->
<g id="edge51" class="edge">
<title>Node663&#45;&gt;Node8</title>
<path fill="none" stroke="#63b8ff" d="M1863.87,-74.39C1752.9,-66.71 1554.13,-51.38 1385,-30 1373.87,-28.59 1361.97,-26.81 1350.7,-24.99"/>
<polygon fill="#63b8ff" stroke="#63b8ff" points="1863.59,-77.88 1873.81,-75.08 1864.07,-70.9 1863.59,-77.88"/>
</g>
<!-- Node663&#45;&gt;Node9 -->
<g id="edge52" class="edge">
<title>Node663&#45;&gt;Node9</title>
<path fill="none" stroke="#63b8ff" d="M1863.84,-71.52C1778.96,-62.74 1645.71,-47.82 1531,-30 1527.94,-29.52 1524.81,-29.02 1521.66,-28.48"/>
<polygon fill="#63b8ff" stroke="#63b8ff" points="1863.42,-74.99 1873.72,-72.53 1864.13,-68.03 1863.42,-74.99"/>
</g>
<!-- Node663&#45;&gt;Node10 -->
<g id="edge53" class="edge">
<title>Node663&#45;&gt;Node10</title>
<path fill="none" stroke="#63b8ff" d="M1891.99,-68.95C1826.59,-56.49 1721.53,-36.48 1661.03,-24.96"/>
<polygon fill="#63b8ff" stroke="#63b8ff" points="1890.96,-72.32 1901.44,-70.75 1892.27,-65.44 1890.96,-72.32"/>
</g>
<!-- Node663&#45;&gt;Node11 -->
<g id="edge54" class="edge">
<title>Node663&#45;&gt;Node11</title>
<path fill="none" stroke="#63b8ff" d="M1916.16,-67.11C1883.28,-54.58 1834.22,-35.89 1805.43,-24.93"/>
<polygon fill="#63b8ff" stroke="#63b8ff" points="1914.64,-70.27 1925.23,-70.56 1917.13,-63.73 1914.64,-70.27"/>
</g>
<!-- Node663&#45;&gt;Node12 -->
<g id="edge55" class="edge">
<title>Node663&#45;&gt;Node12</title>
<path fill="none" stroke="#63b8ff" d="M2006.33,-68.87C2069.42,-56.41 2170.43,-36.46 2228.65,-24.96"/>
<polygon fill="#63b8ff" stroke="#63b8ff" points="2006.01,-65.37 1996.88,-70.74 2007.37,-72.24 2006.01,-65.37"/>
</g>
<!-- Node663&#45;&gt;Node13 -->
<g id="edge56" class="edge">
<title>Node663&#45;&gt;Node13</title>
<path fill="none" stroke="#63b8ff" d="M1950,-59.68C1950,-47.94 1950,-33.77 1950,-24.82"/>
<polygon fill="#63b8ff" stroke="#63b8ff" points="1946.5,-59.59 1950,-69.59 1953.5,-59.59 1946.5,-59.59"/>
</g>
<!-- Node663&#45;&gt;Node14 -->
<g id="edge57" class="edge">
<title>Node663&#45;&gt;Node14</title>
<path fill="none" stroke="#63b8ff" d="M1983.25,-66.95C2015.15,-54.42 2062.45,-35.85 2090.27,-24.93"/>
<polygon fill="#63b8ff" stroke="#63b8ff" points="1982.1,-63.64 1974.07,-70.55 1984.66,-70.15 1982.1,-63.64"/>
</g>
<!-- Node663&#45;&gt;Node16 -->
<g id="edge58" class="edge">
<title>Node663&#45;&gt;Node16</title>
<path fill="none" stroke="#63b8ff" d="M2011.63,-69.22C2018.82,-68.07 2026.07,-66.97 2033,-66 2175.17,-46.05 2211.87,-50.23 2354,-30 2364.31,-28.53 2375.33,-26.76 2385.81,-24.98"/>
<polygon fill="#63b8ff" stroke="#63b8ff" points="2011.21,-65.74 2001.9,-70.8 2012.33,-72.65 2011.21,-65.74"/>
</g>
<!-- Node663&#45;&gt;Node235 -->
<g id="edge50" class="edge">
<title>Node663&#45;&gt;Node235</title>
<path fill="none" stroke="#63b8ff" d="M2007.74,-69.22C2016.19,-67.95 2024.8,-66.81 2033,-66 2351.08,-34.46 3374.45,-19.71 3615.71,-16.63"/>
<polygon fill="#63b8ff" stroke="#63b8ff" points="2007.2,-65.76 1997.88,-70.79 2008.3,-72.68 2007.2,-65.76"/>
</g>
</g>
</svg>
        <g id="navigator" transform="translate(0 0)" fill="#404254">
                <rect fill="#f2f5e9" fill-opacity="0.5" stroke="#606060" stroke-width=".5" x="0" y="0" width="60" height="60"/>
                <use id="zoomplus" xlink:href="#zoomPlus" x="17" y="9" onmousedown="handleZoom(evt,'in')"/>
                <use id="zoomminus" xlink:href="#zoomMin" x="42" y="9" onmousedown="handleZoom(evt,'out')"/>
                <use id="reset" xlink:href="#resetDef" x="30" y="36" onmousedown="handleReset()"/>
                <g id="arrowUp" xlink:href="#dirArrow" transform="translate(30 24)" onmousedown="handlePan(0,-1)">
                  <use xlink:href="#rim" fill="#404040">
                        <set attributeName="fill" to="#808080" begin="arrowUp.mouseover" end="arrowUp.mouseout"/>
                  </use>
                  <path fill="none" stroke="white" stroke-width="1.5" d="M0,-3.0v7 M-2.5,-0.5L0,-3.0L2.5,-0.5"/>
                </g>
                <g id="arrowRight" xlink:href="#dirArrow" transform="rotate(90) translate(36 -43)" onmousedown="handlePan(1,0)">
                  <use xlink:href="#rim" fill="#404040">
                        <set attributeName="fill" to="#808080" begin="arrowRight.mouseover" end="arrowRight.mouseout"/>
                  </use>
                  <path fill="none" stroke="white" stroke-width="1.5" d="M0,-3.0v7 M-2.5,-0.5L0,-3.0L2.5,-0.5"/>
                </g>
                <g id="arrowDown" xlink:href="#dirArrow" transform="rotate(180) translate(-30 -48)" onmousedown="handlePan(0,1)">
                  <use xlink:href="#rim" fill="#404040">
                        <set attributeName="fill" to="#808080" begin="arrowDown.mouseover" end="arrowDown.mouseout"/>
                  </use>
                  <path fill="none" stroke="white" stroke-width="1.5" d="M0,-3.0v7 M-2.5,-0.5L0,-3.0L2.5,-0.5"/>
                </g>
                <g id="arrowLeft" xlink:href="#dirArrow" transform="rotate(270) translate(-36 17)" onmousedown="handlePan(-1,0)">
                  <use xlink:href="#rim" fill="#404040">
                        <set attributeName="fill" to="#808080" begin="arrowLeft.mouseover" end="arrowLeft.mouseout"/>
                  </use>
                  <path fill="none" stroke="white" stroke-width="1.5" d="M0,-3.0v7 M-2.5,-0.5L0,-3.0L2.5,-0.5"/>
                </g>
        </g>
        <svg viewBox="0 0 15 15" width="100%" height="30px" preserveAspectRatio="xMaxYMin meet">
         <g id="arrow_out" transform="scale(0.3 0.3)">
          <a xlink:href="quat_8h__dep__incl_org.svg" target="_base">
           <rect id="button" ry="5" rx="5" y="6" x="6" height="38" width="38"
                fill="#f2f5e9" fill-opacity="0.5" stroke="#606060" stroke-width="1.0"/>
           <path id="arrow"
             d="M 11.500037,31.436501 C 11.940474,20.09759 22.043105,11.32322 32.158766,21.979434 L 37.068811,17.246167 C 37.068811,17.246167 37.088388,32 37.088388,32 L 22.160133,31.978069 C 22.160133,31.978069 26.997745,27.140456 26.997745,27.140456 C 18.528582,18.264221 13.291696,25.230495 11.500037,31.436501 z"
             style="fill:#404040;"/>
          </a>
         </g>
        </svg>
</svg>
