<?xml version="1.0" encoding="UTF-8" standalone="no"?>
<!DOCTYPE svg PUBLIC "-//W3C//DTD SVG 1.1//EN"
 "http://www.w3.org/Graphics/SVG/1.1/DTD/svg11.dtd">
<!-- Generated by graphviz version 7.0.5 (20221223.1930)
 -->
<!-- Title: libs/TRK_MINNOW_DOLPHIN/MetroTRK/Portable/serpoll.c Pages: 1 -->
<svg width="926pt" height="236pt"
 viewBox="0.00 0.00 926.00 236.00" xmlns="http://www.w3.org/2000/svg" xmlns:xlink="http://www.w3.org/1999/xlink">
<g id="graph0" class="graph" transform="scale(1 1) rotate(0) translate(4 232)">
<title>libs/TRK_MINNOW_DOLPHIN/MetroTRK/Portable/serpoll.c</title>
<!-- Node1 -->
<g id="node1" class="node">
<title>Node1</title>
<g id="a_node1"><a xlink:title=" ">
<polygon fill="#999999" stroke="#666666" points="481,-228 329,-228 329,-198 481,-198 481,-228"/>
<text text-anchor="start" x="337" y="-216" font-family="Helvetica,sans-Serif" font-size="10.00">libs/TRK_MINNOW_DOLPHIN</text>
<text text-anchor="middle" x="405" y="-205" font-family="Helvetica,sans-Serif" font-size="10.00">/MetroTRK/Portable/serpoll.c</text>
</a>
</g>
</g>
<!-- Node2 -->
<g id="node2" class="node">
<title>Node2</title>
<g id="a_node2"><a xlink:href="serpoll_8h.html" target="_top" xlink:title=" ">
<polygon fill="white" stroke="#666666" points="142,-156.5 0,-156.5 0,-126.5 142,-126.5 142,-156.5"/>
<text text-anchor="start" x="8" y="-144.5" font-family="Helvetica,sans-Serif" font-size="10.00">TRK_MINNOW_DOLPHIN</text>
<text text-anchor="middle" x="71" y="-133.5" font-family="Helvetica,sans-Serif" font-size="10.00">/MetroTRK/Portable/serpoll.h</text>
</a>
</g>
</g>
<!-- Node1&#45;&gt;Node2 -->
<g id="edge1" class="edge">
<title>Node1&#45;&gt;Node2</title>
<path fill="none" stroke="#63b8ff" d="M328.72,-197.77C278.42,-188.18 211.15,-174.96 152,-162 148.4,-161.21 144.71,-160.39 140.99,-159.54"/>
<polygon fill="#63b8ff" stroke="#63b8ff" points="141.78,-156.13 131.25,-157.29 140.21,-162.95 141.78,-156.13"/>
</g>
<!-- Node5 -->
<g id="node5" class="node">
<title>Node5</title>
<g id="a_node5"><a xlink:href="dol2asm_8h.html" target="_top" xlink:title=" ">
<polygon fill="white" stroke="#666666" points="221.5,-151 160.5,-151 160.5,-132 221.5,-132 221.5,-151"/>
<text text-anchor="middle" x="191" y="-139" font-family="Helvetica,sans-Serif" font-size="10.00">dol2asm.h</text>
</a>
</g>
</g>
<!-- Node1&#45;&gt;Node5 -->
<g id="edge4" class="edge">
<title>Node1&#45;&gt;Node5</title>
<path fill="none" stroke="#63b8ff" d="M344.96,-197.5C311.04,-188.63 268.12,-176.26 231,-162 226.66,-160.33 222.15,-158.37 217.79,-156.35"/>
<polygon fill="#63b8ff" stroke="#63b8ff" points="219.33,-153.21 208.81,-151.98 216.27,-159.5 219.33,-153.21"/>
</g>
<!-- Node6 -->
<g id="node6" class="node">
<title>Node6</title>
<g id="a_node6"><a xlink:title=" ">
<polygon fill="#e0e0e0" stroke="#999999" points="396,-162 240,-162 240,-121 396,-121 396,-162"/>
<text text-anchor="start" x="248" y="-150" font-family="Helvetica,sans-Serif" font-size="10.00">asm/TRK_MINNOW_DOLPHIN</text>
<text text-anchor="start" x="248" y="-139" font-family="Helvetica,sans-Serif" font-size="10.00">/MetroTRK/Portable/serpoll</text>
<text text-anchor="middle" x="318" y="-128" font-family="Helvetica,sans-Serif" font-size="10.00">/TRKInitializeSerialHandler.s</text>
</a>
</g>
</g>
<!-- Node1&#45;&gt;Node6 -->
<g id="edge5" class="edge">
<title>Node1&#45;&gt;Node6</title>
<path fill="none" stroke="#63b8ff" d="M386.97,-197.6C376.82,-189.49 363.81,-179.09 351.83,-169.52"/>
<polygon fill="#63b8ff" stroke="#63b8ff" points="354.11,-166.87 344.11,-163.36 349.74,-172.34 354.11,-166.87"/>
</g>
<!-- Node7 -->
<g id="node7" class="node">
<title>Node7</title>
<g id="a_node7"><a xlink:title=" ">
<polygon fill="#e0e0e0" stroke="#999999" points="570,-162 414,-162 414,-121 570,-121 570,-162"/>
<text text-anchor="start" x="422" y="-150" font-family="Helvetica,sans-Serif" font-size="10.00">asm/TRK_MINNOW_DOLPHIN</text>
<text text-anchor="start" x="422" y="-139" font-family="Helvetica,sans-Serif" font-size="10.00">/MetroTRK/Portable/serpoll</text>
<text text-anchor="middle" x="492" y="-128" font-family="Helvetica,sans-Serif" font-size="10.00">/TRKProcessInput.s</text>
</a>
</g>
</g>
<!-- Node1&#45;&gt;Node7 -->
<g id="edge6" class="edge">
<title>Node1&#45;&gt;Node7</title>
<path fill="none" stroke="#63b8ff" d="M423.03,-197.6C433.18,-189.49 446.19,-179.09 458.17,-169.52"/>
<polygon fill="#63b8ff" stroke="#63b8ff" points="460.26,-172.34 465.89,-163.36 455.89,-166.87 460.26,-172.34"/>
</g>
<!-- Node8 -->
<g id="node8" class="node">
<title>Node8</title>
<g id="a_node8"><a xlink:title=" ">
<polygon fill="#e0e0e0" stroke="#999999" points="744,-162 588,-162 588,-121 744,-121 744,-162"/>
<text text-anchor="start" x="596" y="-150" font-family="Helvetica,sans-Serif" font-size="10.00">asm/TRK_MINNOW_DOLPHIN</text>
<text text-anchor="start" x="596" y="-139" font-family="Helvetica,sans-Serif" font-size="10.00">/MetroTRK/Portable/serpoll</text>
<text text-anchor="middle" x="666" y="-128" font-family="Helvetica,sans-Serif" font-size="10.00">/TRKGetInput.s</text>
</a>
</g>
</g>
<!-- Node1&#45;&gt;Node8 -->
<g id="edge7" class="edge">
<title>Node1&#45;&gt;Node8</title>
<path fill="none" stroke="#63b8ff" d="M459.4,-197.52C494.36,-188.21 540.51,-175.91 580.33,-165.31"/>
<polygon fill="#63b8ff" stroke="#63b8ff" points="581.16,-168.71 589.92,-162.76 579.36,-161.95 581.16,-168.71"/>
</g>
<!-- Node9 -->
<g id="node9" class="node">
<title>Node9</title>
<g id="a_node9"><a xlink:title=" ">
<polygon fill="#e0e0e0" stroke="#999999" points="918,-162 762,-162 762,-121 918,-121 918,-162"/>
<text text-anchor="start" x="770" y="-150" font-family="Helvetica,sans-Serif" font-size="10.00">asm/TRK_MINNOW_DOLPHIN</text>
<text text-anchor="start" x="770" y="-139" font-family="Helvetica,sans-Serif" font-size="10.00">/MetroTRK/Portable/serpoll</text>
<text text-anchor="middle" x="840" y="-128" font-family="Helvetica,sans-Serif" font-size="10.00">/TRKTestForPacket.s</text>
</a>
</g>
</g>
<!-- Node1&#45;&gt;Node9 -->
<g id="edge8" class="edge">
<title>Node1&#45;&gt;Node9</title>
<path fill="none" stroke="#63b8ff" d="M481.31,-202.77C549.45,-194.14 652.2,-180.14 750.74,-162.35"/>
<polygon fill="#63b8ff" stroke="#63b8ff" points="751.11,-165.84 760.32,-160.6 749.85,-158.95 751.11,-165.84"/>
</g>
<!-- Node3 -->
<g id="node3" class="node">
<title>Node3</title>
<g id="a_node3"><a xlink:href="types_8h.html" target="_top" xlink:title=" ">
<polygon fill="white" stroke="#666666" points="111.5,-85 30.5,-85 30.5,-66 111.5,-66 111.5,-85"/>
<text text-anchor="middle" x="71" y="-73" font-family="Helvetica,sans-Serif" font-size="10.00">dolphin/types.h</text>
</a>
</g>
</g>
<!-- Node2&#45;&gt;Node3 -->
<g id="edge2" class="edge">
<title>Node2&#45;&gt;Node3</title>
<path fill="none" stroke="#63b8ff" d="M71,-126.3C71,-117.59 71,-106.31 71,-96.68"/>
<polygon fill="#63b8ff" stroke="#63b8ff" points="74.5,-96.86 71,-86.86 67.5,-96.86 74.5,-96.86"/>
</g>
<!-- Node4 -->
<g id="node4" class="node">
<title>Node4</title>
<g id="a_node4"><a xlink:href="stddef_8h.html" target="_top" xlink:title=" ">
<polygon fill="white" stroke="#666666" points="139,-30 3,-30 3,0 139,0 139,-30"/>
<text text-anchor="start" x="11" y="-18" font-family="Helvetica,sans-Serif" font-size="10.00">MSL_C/MSL_Common/Src</text>
<text text-anchor="middle" x="71" y="-7" font-family="Helvetica,sans-Serif" font-size="10.00">/stddef.h</text>
</a>
</g>
</g>
<!-- Node3&#45;&gt;Node4 -->
<g id="edge3" class="edge">
<title>Node3&#45;&gt;Node4</title>
<path fill="none" stroke="#63b8ff" d="M71,-65.87C71,-59.4 71,-50.2 71,-41.45"/>
<polygon fill="#63b8ff" stroke="#63b8ff" points="74.5,-41.63 71,-31.63 67.5,-41.63 74.5,-41.63"/>
</g>
</g>
</svg>
