<?xml version="1.0" encoding="UTF-8" standalone="no"?>
<!DOCTYPE svg PUBLIC "-//W3C//DTD SVG 1.1//EN"
 "http://www.w3.org/Graphics/SVG/1.1/DTD/svg11.dtd">
<!-- Generated by graphviz version 7.0.5 (20221223.1930)
 -->
<!-- Title: JAISoundParamsMove Pages: 1 -->
<svg width="260pt" height="214pt"
 viewBox="0.00 0.00 259.50 214.00" xmlns="http://www.w3.org/2000/svg" xmlns:xlink="http://www.w3.org/1999/xlink">
<g id="graph0" class="graph" transform="scale(1 1) rotate(0) translate(4 210)">
<title>JAISoundParamsMove</title>
<!-- Node1 -->
<g id="node1" class="node">
<title>Node1</title>
<g id="a_node1"><a xlink:title=" ">
<polygon fill="#999999" stroke="#666666" points="141,-19 24,-19 24,0 141,0 141,-19"/>
<text text-anchor="middle" x="82.5" y="-7" font-family="Helvetica,sans-Serif" font-size="10.00">JAISoundParamsMove</text>
</a>
</g>
</g>
<!-- Node2 -->
<g id="node2" class="node">
<title>Node2</title>
<g id="a_node2"><a xlink:href="structJASSoundParams.html" target="_top" xlink:title=" ">
<polygon fill="white" stroke="#666666" points="97,-85 0,-85 0,-66 97,-66 97,-85"/>
<text text-anchor="middle" x="48.5" y="-73" font-family="Helvetica,sans-Serif" font-size="10.00">JASSoundParams</text>
</a>
</g>
</g>
<!-- Node2&#45;&gt;Node1 -->
<g id="edge1" class="edge">
<title>Node2&#45;&gt;Node1</title>
<path fill="none" stroke="#9a32cd" stroke-dasharray="5,2" d="M58.51,-55.66C64.89,-43.66 72.86,-28.65 77.81,-19.32"/>
<polygon fill="#9a32cd" stroke="#9a32cd" points="55.54,-53.79 53.94,-64.26 61.72,-57.08 55.54,-53.79"/>
<text text-anchor="middle" x="91" y="-40" font-family="Helvetica,sans-Serif" font-size="10.00"> mParams</text>
</g>
<!-- Node3 -->
<g id="node3" class="node">
<title>Node3</title>
<g id="a_node3"><a xlink:href="structJAISoundParamsTransition.html" target="_top" xlink:title=" ">
<polygon fill="white" stroke="#666666" points="251.5,-85 115.5,-85 115.5,-66 251.5,-66 251.5,-85"/>
<text text-anchor="middle" x="183.5" y="-73" font-family="Helvetica,sans-Serif" font-size="10.00">JAISoundParamsTransition</text>
</a>
</g>
</g>
<!-- Node3&#45;&gt;Node1 -->
<g id="edge2" class="edge">
<title>Node3&#45;&gt;Node1</title>
<path fill="none" stroke="#9a32cd" stroke-dasharray="5,2" d="M159.96,-59.58C140.25,-47.1 112.8,-29.7 96.42,-19.32"/>
<polygon fill="#9a32cd" stroke="#9a32cd" points="157.86,-62.39 168.18,-64.79 161.6,-56.48 157.86,-62.39"/>
<text text-anchor="middle" x="165.5" y="-40" font-family="Helvetica,sans-Serif" font-size="10.00"> mTransition</text>
</g>
<!-- Node4 -->
<g id="node4" class="node">
<title>Node4</title>
<g id="a_node4"><a xlink:href="structJAISoundParamsTransition_1_1TTransition.html" target="_top" xlink:title=" ">
<polygon fill="white" stroke="#666666" points="251.5,-206 115.5,-206 115.5,-176 251.5,-176 251.5,-206"/>
<text text-anchor="start" x="123.5" y="-194" font-family="Helvetica,sans-Serif" font-size="10.00">JAISoundParamsTransition</text>
<text text-anchor="middle" x="183.5" y="-183" font-family="Helvetica,sans-Serif" font-size="10.00">::TTransition</text>
</a>
</g>
</g>
<!-- Node4&#45;&gt;Node3 -->
<g id="edge3" class="edge">
<title>Node4&#45;&gt;Node3</title>
<path fill="none" stroke="#9a32cd" stroke-dasharray="5,2" d="M183.5,-164.32C183.5,-139.07 183.5,-101.95 183.5,-85.23"/>
<polygon fill="#9a32cd" stroke="#9a32cd" points="180,-164.11 183.5,-174.11 187,-164.11 180,-164.11"/>
<text text-anchor="middle" x="204.5" y="-150" font-family="Helvetica,sans-Serif" font-size="10.00"> mDolby</text>
<text text-anchor="middle" x="204.5" y="-139" font-family="Helvetica,sans-Serif" font-size="10.00">mFxMix</text>
<text text-anchor="middle" x="204.5" y="-128" font-family="Helvetica,sans-Serif" font-size="10.00">mPan</text>
<text text-anchor="middle" x="204.5" y="-117" font-family="Helvetica,sans-Serif" font-size="10.00">mPitch</text>
<text text-anchor="middle" x="204.5" y="-106" font-family="Helvetica,sans-Serif" font-size="10.00">mVolume</text>
</g>
</g>
</svg>
