<?xml version="1.0" encoding="UTF-8" standalone="no"?>
<!DOCTYPE svg PUBLIC "-//W3C//DTD SVG 1.1//EN"
 "http://www.w3.org/Graphics/SVG/1.1/DTD/svg11.dtd">
<!-- Generated by graphviz version 7.0.5 (20221223.1930)
 -->
<!-- Title: Z2EnvSeBase Pages: 1 -->
<svg width="188pt" height="82pt"
 viewBox="0.00 0.00 188.00 82.00" xmlns="http://www.w3.org/2000/svg" xmlns:xlink="http://www.w3.org/1999/xlink">
<g id="graph0" class="graph" transform="scale(1 1) rotate(0) translate(4 78)">
<title>Z2EnvSeBase</title>
<!-- Node1 -->
<g id="node1" class="node">
<title>Node1</title>
<g id="a_node1"><a xlink:title=" ">
<polygon fill="#999999" stroke="#666666" points="135.5,-74 56.5,-74 56.5,-55 135.5,-55 135.5,-74"/>
<text text-anchor="middle" x="96" y="-62" font-family="Helvetica,sans-Serif" font-size="10.00">Z2EnvSeBase</text>
</a>
</g>
</g>
<!-- Node2 -->
<g id="node2" class="node">
<title>Node2</title>
<g id="a_node2"><a xlink:href="structZ2EnvSeAutoPan.html" target="_top" xlink:title=" ">
<polygon fill="white" stroke="#666666" points="94,-19 0,-19 0,0 94,0 94,-19"/>
<text text-anchor="middle" x="47" y="-7" font-family="Helvetica,sans-Serif" font-size="10.00">Z2EnvSeAutoPan</text>
</a>
</g>
</g>
<!-- Node1&#45;&gt;Node2 -->
<g id="edge1" class="edge">
<title>Node1&#45;&gt;Node2</title>
<path fill="none" stroke="#63b8ff" d="M80.28,-46.5C71.96,-37.5 62.09,-26.82 55.27,-19.44"/>
<polygon fill="#63b8ff" stroke="#63b8ff" points="77.52,-48.67 86.88,-53.64 82.66,-43.92 77.52,-48.67"/>
</g>
<!-- Node3 -->
<g id="node3" class="node">
<title>Node3</title>
<g id="a_node3"><a xlink:href="structZ2EnvSeDir.html" target="_top" xlink:title=" ">
<polygon fill="white" stroke="#666666" points="180,-19 112,-19 112,0 180,0 180,-19"/>
<text text-anchor="middle" x="146" y="-7" font-family="Helvetica,sans-Serif" font-size="10.00">Z2EnvSeDir</text>
</a>
</g>
</g>
<!-- Node1&#45;&gt;Node3 -->
<g id="edge2" class="edge">
<title>Node1&#45;&gt;Node3</title>
<path fill="none" stroke="#63b8ff" d="M112.04,-46.5C120.53,-37.5 130.6,-26.82 137.56,-19.44"/>
<polygon fill="#63b8ff" stroke="#63b8ff" points="109.61,-43.97 105.3,-53.65 114.7,-48.78 109.61,-43.97"/>
</g>
</g>
</svg>
