<?xml version="1.0" encoding="UTF-8" standalone="no"?>
<!DOCTYPE svg PUBLIC "-//W3C//DTD SVG 1.1//EN"
 "http://www.w3.org/Graphics/SVG/1.1/DTD/svg11.dtd">
<!-- Generated by graphviz version 7.0.5 (20221223.1930)
 -->
<!-- Title: JMessage::data::TParse_TBlock Pages: 1 -->
<svg width="638pt" height="134pt"
 viewBox="0.00 0.00 638.00 134.00" xmlns="http://www.w3.org/2000/svg" xmlns:xlink="http://www.w3.org/1999/xlink">
<g id="graph0" class="graph" transform="scale(1 1) rotate(0) translate(4 130)">
<title>JMessage::data::TParse_TBlock</title>
<!-- Node1 -->
<g id="node1" class="node">
<title>Node1</title>
<g id="a_node1"><a xlink:title=" ">
<polygon fill="#999999" stroke="#666666" points="473,-78 352,-78 352,-48 473,-48 473,-78"/>
<text text-anchor="start" x="360" y="-66" font-family="Helvetica,sans-Serif" font-size="10.00">JMessage::data::TParse</text>
<text text-anchor="middle" x="412.5" y="-55" font-family="Helvetica,sans-Serif" font-size="10.00">_TBlock</text>
</a>
</g>
</g>
<!-- Node4 -->
<g id="node4" class="node">
<title>Node4</title>
<g id="a_node4"><a xlink:href="structJMessage_1_1data_1_1TParse__TBlock__color.html" target="_top" xlink:title=" ">
<polygon fill="white" stroke="#666666" points="630,-126 509,-126 509,-96 630,-96 630,-126"/>
<text text-anchor="start" x="517" y="-114" font-family="Helvetica,sans-Serif" font-size="10.00">JMessage::data::TParse</text>
<text text-anchor="middle" x="569.5" y="-103" font-family="Helvetica,sans-Serif" font-size="10.00">_TBlock_color</text>
</a>
</g>
</g>
<!-- Node1&#45;&gt;Node4 -->
<g id="edge3" class="edge">
<title>Node1&#45;&gt;Node4</title>
<path fill="none" stroke="#63b8ff" d="M473.99,-81.73C488.79,-86.32 504.46,-91.17 518.7,-95.58"/>
<polygon fill="#63b8ff" stroke="#63b8ff" points="475.43,-78.51 464.84,-78.9 473.36,-85.2 475.43,-78.51"/>
</g>
<!-- Node5 -->
<g id="node5" class="node">
<title>Node5</title>
<g id="a_node5"><a xlink:href="structJMessage_1_1data_1_1TParse__TBlock__info.html" target="_top" xlink:title=" ">
<polygon fill="white" stroke="#666666" points="630,-78 509,-78 509,-48 630,-48 630,-78"/>
<text text-anchor="start" x="517" y="-66" font-family="Helvetica,sans-Serif" font-size="10.00">JMessage::data::TParse</text>
<text text-anchor="middle" x="569.5" y="-55" font-family="Helvetica,sans-Serif" font-size="10.00">_TBlock_info</text>
</a>
</g>
</g>
<!-- Node1&#45;&gt;Node5 -->
<g id="edge4" class="edge">
<title>Node1&#45;&gt;Node5</title>
<path fill="none" stroke="#63b8ff" d="M484.69,-63C492.73,-63 500.86,-63 508.73,-63"/>
<polygon fill="#63b8ff" stroke="#63b8ff" points="484.94,-59.5 474.94,-63 484.94,-66.5 484.94,-59.5"/>
</g>
<!-- Node6 -->
<g id="node6" class="node">
<title>Node6</title>
<g id="a_node6"><a xlink:href="structJMessage_1_1data_1_1TParse__TBlock__messageID.html" target="_top" xlink:title=" ">
<polygon fill="white" stroke="#666666" points="630,-30 509,-30 509,0 630,0 630,-30"/>
<text text-anchor="start" x="517" y="-18" font-family="Helvetica,sans-Serif" font-size="10.00">JMessage::data::TParse</text>
<text text-anchor="middle" x="569.5" y="-7" font-family="Helvetica,sans-Serif" font-size="10.00">_TBlock_messageID</text>
</a>
</g>
</g>
<!-- Node1&#45;&gt;Node6 -->
<g id="edge5" class="edge">
<title>Node1&#45;&gt;Node6</title>
<path fill="none" stroke="#63b8ff" d="M473.99,-44.27C488.79,-39.68 504.46,-34.83 518.7,-30.42"/>
<polygon fill="#63b8ff" stroke="#63b8ff" points="473.36,-40.8 464.84,-47.1 475.43,-47.49 473.36,-40.8"/>
</g>
<!-- Node2 -->
<g id="node2" class="node">
<title>Node2</title>
<g id="a_node2"><a xlink:href="structJGadget_1_1binary_1_1TParseData__aligned.html" target="_top" xlink:title=" ">
<polygon fill="white" stroke="#666666" points="316,-78 176,-78 176,-48 316,-48 316,-78"/>
<text text-anchor="start" x="184" y="-66" font-family="Helvetica,sans-Serif" font-size="10.00">JGadget::binary::TParseData</text>
<text text-anchor="middle" x="246" y="-55" font-family="Helvetica,sans-Serif" font-size="10.00">_aligned&lt; 4 &gt;</text>
</a>
</g>
</g>
<!-- Node2&#45;&gt;Node1 -->
<g id="edge1" class="edge">
<title>Node2&#45;&gt;Node1</title>
<path fill="none" stroke="#63b8ff" d="M327.67,-63C335.76,-63 343.86,-63 351.68,-63"/>
<polygon fill="#63b8ff" stroke="#63b8ff" points="327.8,-59.5 317.8,-63 327.8,-66.5 327.8,-59.5"/>
</g>
<!-- Node3 -->
<g id="node3" class="node">
<title>Node3</title>
<g id="a_node3"><a xlink:href="structJGadget_1_1binary_1_1TParseData.html" target="_top" xlink:title=" ">
<polygon fill="white" stroke="#666666" points="140,-72.5 0,-72.5 0,-53.5 140,-53.5 140,-72.5"/>
<text text-anchor="middle" x="70" y="-60.5" font-family="Helvetica,sans-Serif" font-size="10.00">JGadget::binary::TParseData</text>
</a>
</g>
</g>
<!-- Node3&#45;&gt;Node2 -->
<g id="edge2" class="edge">
<title>Node3&#45;&gt;Node2</title>
<path fill="none" stroke="#63b8ff" d="M151.58,-63C159.63,-63 167.76,-63 175.68,-63"/>
<polygon fill="#63b8ff" stroke="#63b8ff" points="151.78,-59.5 141.78,-63 151.78,-66.5 151.78,-59.5"/>
</g>
</g>
</svg>
