<?xml version="1.0" encoding="UTF-8" standalone="no"?>
<!DOCTYPE svg PUBLIC "-//W3C//DTD SVG 1.1//EN"
 "http://www.w3.org/Graphics/SVG/1.1/DTD/svg11.dtd">
<!-- Generated by graphviz version 7.0.5 (20221223.1930)
 -->
<!-- Title: J3DShapeFactory Pages: 1 -->
<svg width="476pt" height="170pt"
 viewBox="0.00 0.00 475.50 170.00" xmlns="http://www.w3.org/2000/svg" xmlns:xlink="http://www.w3.org/1999/xlink">
<g id="graph0" class="graph" transform="scale(1 1) rotate(0) translate(4 166)">
<title>J3DShapeFactory</title>
<!-- Node1 -->
<g id="node1" class="node">
<title>Node1</title>
<g id="a_node1"><a xlink:title=" ">
<polygon fill="#999999" stroke="#666666" points="263.5,-19 169.5,-19 169.5,0 263.5,0 263.5,-19"/>
<text text-anchor="middle" x="216.5" y="-7" font-family="Helvetica,sans-Serif" font-size="10.00">J3DShapeFactory</text>
</a>
</g>
</g>
<!-- Node2 -->
<g id="node2" class="node">
<title>Node2</title>
<g id="a_node2"><a xlink:href="structJ3DShapeInitData.html" target="_top" xlink:title=" ">
<polygon fill="white" stroke="#666666" points="95,-85 0,-85 0,-66 95,-66 95,-85"/>
<text text-anchor="middle" x="47.5" y="-73" font-family="Helvetica,sans-Serif" font-size="10.00">J3DShapeInitData</text>
</a>
</g>
</g>
<!-- Node2&#45;&gt;Node1 -->
<g id="edge1" class="edge">
<title>Node2&#45;&gt;Node1</title>
<path fill="none" stroke="#9a32cd" stroke-dasharray="5,2" d="M66.82,-58.71C76.92,-51.16 89.8,-42.57 102.5,-37 123.53,-27.78 148.2,-21.53 169.21,-17.43"/>
<polygon fill="#9a32cd" stroke="#9a32cd" points="64.69,-55.93 58.95,-64.84 68.99,-61.46 64.69,-55.93"/>
<text text-anchor="middle" x="139" y="-40" font-family="Helvetica,sans-Serif" font-size="10.00"> mShapeInitData</text>
</g>
<!-- Node3 -->
<g id="node3" class="node">
<title>Node3</title>
<g id="a_node3"><a xlink:href="structVec.html" target="_top" xlink:title=" ">
<polygon fill="white" stroke="#666666" points="64.5,-162 30.5,-162 30.5,-143 64.5,-143 64.5,-162"/>
<text text-anchor="middle" x="47.5" y="-150" font-family="Helvetica,sans-Serif" font-size="10.00">Vec</text>
</a>
</g>
</g>
<!-- Node3&#45;&gt;Node2 -->
<g id="edge2" class="edge">
<title>Node3&#45;&gt;Node2</title>
<path fill="none" stroke="#9a32cd" stroke-dasharray="5,2" d="M47.5,-131.42C47.5,-116.43 47.5,-96.66 47.5,-85.39"/>
<polygon fill="#9a32cd" stroke="#9a32cd" points="44,-131.09 47.5,-141.09 51,-131.09 44,-131.09"/>
<text text-anchor="middle" x="62" y="-117" font-family="Helvetica,sans-Serif" font-size="10.00"> mMax</text>
<text text-anchor="middle" x="62" y="-106" font-family="Helvetica,sans-Serif" font-size="10.00">mMin</text>
</g>
<!-- Node4 -->
<g id="node4" class="node">
<title>Node4</title>
<g id="a_node4"><a xlink:href="struct__GXVtxDescList.html" target="_top" xlink:title=" ">
<polygon fill="white" stroke="#666666" points="202,-85 113,-85 113,-66 202,-66 202,-85"/>
<text text-anchor="middle" x="157.5" y="-73" font-family="Helvetica,sans-Serif" font-size="10.00">_GXVtxDescList</text>
</a>
</g>
</g>
<!-- Node4&#45;&gt;Node1 -->
<g id="edge3" class="edge">
<title>Node4&#45;&gt;Node1</title>
<path fill="none" stroke="#9a32cd" stroke-dasharray="5,2" d="M171.82,-57.07C177.24,-50.65 183.54,-43.39 189.5,-37 195.14,-30.95 201.77,-24.43 207.05,-19.38"/>
<polygon fill="#9a32cd" stroke="#9a32cd" points="169.34,-54.58 165.63,-64.51 174.72,-59.06 169.34,-54.58"/>
<text text-anchor="middle" x="221.5" y="-40" font-family="Helvetica,sans-Serif" font-size="10.00"> mVtxDescList</text>
</g>
<!-- Node5 -->
<g id="node5" class="node">
<title>Node5</title>
<g id="a_node5"><a xlink:href="structJ3DShapeMtxInitData.html" target="_top" xlink:title=" ">
<polygon fill="white" stroke="#666666" points="331,-85 220,-85 220,-66 331,-66 331,-85"/>
<text text-anchor="middle" x="275.5" y="-73" font-family="Helvetica,sans-Serif" font-size="10.00">J3DShapeMtxInitData</text>
</a>
</g>
</g>
<!-- Node5&#45;&gt;Node1 -->
<g id="edge4" class="edge">
<title>Node5&#45;&gt;Node1</title>
<path fill="none" stroke="#9a32cd" stroke-dasharray="5,2" d="M266.61,-55.89C263.05,-49.51 258.59,-42.57 253.5,-37 247.21,-30.11 238.86,-23.95 231.68,-19.3"/>
<polygon fill="#9a32cd" stroke="#9a32cd" points="263.32,-57.14 271,-64.44 269.54,-53.94 263.32,-57.14"/>
<text text-anchor="middle" x="291" y="-40" font-family="Helvetica,sans-Serif" font-size="10.00"> mMtxInitData</text>
</g>
<!-- Node6 -->
<g id="node6" class="node">
<title>Node6</title>
<g id="a_node6"><a xlink:href="structJ3DShapeDrawInitData.html" target="_top" xlink:title=" ">
<polygon fill="white" stroke="#666666" points="467.5,-85 349.5,-85 349.5,-66 467.5,-66 467.5,-85"/>
<text text-anchor="middle" x="408.5" y="-73" font-family="Helvetica,sans-Serif" font-size="10.00">J3DShapeDrawInitData</text>
</a>
</g>
</g>
<!-- Node6&#45;&gt;Node1 -->
<g id="edge5" class="edge">
<title>Node6&#45;&gt;Node1</title>
<path fill="none" stroke="#9a32cd" stroke-dasharray="5,2" d="M381.19,-60.61C365.25,-52.9 344.57,-43.56 325.5,-37 304.88,-29.9 281.43,-23.94 261.59,-19.48"/>
<polygon fill="#9a32cd" stroke="#9a32cd" points="379.52,-63.69 390.04,-64.97 382.61,-57.41 379.52,-63.69"/>
<text text-anchor="middle" x="386" y="-40" font-family="Helvetica,sans-Serif" font-size="10.00"> mDrawInitData</text>
</g>
</g>
</svg>
