<?xml version="1.0" encoding="UTF-8" standalone="no"?>
<!DOCTYPE svg PUBLIC "-//W3C//DTD SVG 1.1//EN"
 "http://www.w3.org/Graphics/SVG/1.1/DTD/svg11.dtd">
<!-- Generated by graphviz version 7.0.5 (20221223.1930)
 -->
<!-- Title: JGadget::TLinkList_factory&lt; T, I &gt; Pages: 1 -->
<svg width="179pt" height="230pt"
 viewBox="0.00 0.00 179.00 230.00" xmlns="http://www.w3.org/2000/svg" xmlns:xlink="http://www.w3.org/1999/xlink">
<g id="graph0" class="graph" transform="scale(1 1) rotate(0) translate(4 226)">
<title>JGadget::TLinkList_factory&lt; T, I &gt;</title>
<!-- Node1 -->
<g id="node1" class="node">
<title>Node1</title>
<g id="a_node1"><a xlink:title=" ">
<polygon fill="#999999" stroke="#666666" points="110.5,-30 11.5,-30 11.5,0 110.5,0 110.5,-30"/>
<text text-anchor="start" x="19.5" y="-18" font-family="Helvetica,sans-Serif" font-size="10.00">JGadget::TLinkList</text>
<text text-anchor="middle" x="61" y="-7" font-family="Helvetica,sans-Serif" font-size="10.00">_factory&lt; T, I &gt;</text>
</a>
</g>
</g>
<!-- Node2 -->
<g id="node2" class="node">
<title>Node2</title>
<g id="a_node2"><a xlink:href="structJGadget_1_1TLinkList.html" target="_top" xlink:title=" ">
<polygon fill="white" stroke="#666666" points="110.5,-97 11.5,-97 11.5,-67 110.5,-67 110.5,-97"/>
<text text-anchor="start" x="19.5" y="-85" font-family="Helvetica,sans-Serif" font-size="10.00">JGadget::TLinkList</text>
<text text-anchor="middle" x="61" y="-74" font-family="Helvetica,sans-Serif" font-size="10.00">&lt; T, I &gt;</text>
</a>
</g>
</g>
<!-- Node2&#45;&gt;Node1 -->
<g id="edge1" class="edge">
<title>Node2&#45;&gt;Node1</title>
<path fill="none" stroke="#63b8ff" d="M61,-55.28C61,-46.81 61,-37.7 61,-30.39"/>
<polygon fill="#63b8ff" stroke="#63b8ff" points="57.5,-55.06 61,-65.06 64.5,-55.06 57.5,-55.06"/>
</g>
<!-- Node3 -->
<g id="node3" class="node">
<title>Node3</title>
<g id="a_node3"><a xlink:href="structJGadget_1_1TNodeLinkList.html" target="_top" xlink:title=" ">
<polygon fill="white" stroke="#666666" points="122,-153 0,-153 0,-134 122,-134 122,-153"/>
<text text-anchor="middle" x="61" y="-141" font-family="Helvetica,sans-Serif" font-size="10.00">JGadget::TNodeLinkList</text>
</a>
</g>
</g>
<!-- Node3&#45;&gt;Node2 -->
<g id="edge2" class="edge">
<title>Node3&#45;&gt;Node2</title>
<path fill="none" stroke="#63b8ff" d="M61,-122.46C61,-114.23 61,-104.89 61,-97.36"/>
<polygon fill="#63b8ff" stroke="#63b8ff" points="57.5,-122.21 61,-132.21 64.5,-122.21 57.5,-122.21"/>
</g>
<!-- Node4 -->
<g id="node4" class="node">
<title>Node4</title>
<g id="a_node4"><a xlink:href="structJGadget_1_1TLinkListNode.html" target="_top" xlink:title=" ">
<polygon fill="white" stroke="#666666" points="122,-220.5 0,-220.5 0,-201.5 122,-201.5 122,-220.5"/>
<text text-anchor="middle" x="61" y="-208.5" font-family="Helvetica,sans-Serif" font-size="10.00">JGadget::TLinkListNode</text>
</a>
</g>
</g>
<!-- Node4&#45;&gt;Node3 -->
<g id="edge3" class="edge">
<title>Node4&#45;&gt;Node3</title>
<path fill="none" stroke="#9a32cd" stroke-dasharray="5,2" d="M61,-189.74C61,-177.48 61,-162.47 61,-153.19"/>
<polygon fill="#9a32cd" stroke="#9a32cd" points="57.5,-189.65 61,-199.65 64.5,-189.65 57.5,-189.65"/>
<text text-anchor="middle" x="84.5" y="-174" font-family="Helvetica,sans-Serif" font-size="10.00"> ocObject_</text>
</g>
<!-- Node4&#45;&gt;Node4 -->
<g id="edge4" class="edge">
<title>Node4&#45;&gt;Node4</title>
<path fill="none" stroke="#9a32cd" stroke-dasharray="5,2" d="M133.51,-215.36C137.58,-214.3 140,-212.85 140,-211 140,-207.8 132.75,-205.79 122.28,-204.96"/>
<polygon fill="#9a32cd" stroke="#9a32cd" points="133.15,-211.87 123.78,-216.82 134.18,-218.8 133.15,-211.87"/>
<text text-anchor="middle" x="155.5" y="-214" font-family="Helvetica,sans-Serif" font-size="10.00"> mNext</text>
<text text-anchor="middle" x="155.5" y="-203" font-family="Helvetica,sans-Serif" font-size="10.00">mPrev</text>
</g>
</g>
</svg>
