<?xml version="1.0" encoding="UTF-8" standalone="no"?>
<!DOCTYPE svg PUBLIC "-//W3C//DTD SVG 1.1//EN"
 "http://www.w3.org/Graphics/SVG/1.1/DTD/svg11.dtd">
<!-- Generated by graphviz version 7.0.5 (20221223.1930)
 -->
<!-- Title: dSv_info_c Pages: 1 -->
<svg width="966pt" height="827pt"
 viewBox="0.00 0.00 966.00 826.55" xmlns="http://www.w3.org/2000/svg" xmlns:xlink="http://www.w3.org/1999/xlink">
<g id="graph0" class="graph" transform="scale(1 1) rotate(0) translate(4 822.55)">
<title>dSv_info_c</title>
<!-- Node1 -->
<g id="node1" class="node">
<title>Node1</title>
<g id="a_node1"><a xlink:title=" ">
<polygon fill="#999999" stroke="#666666" points="958,-474.05 893,-474.05 893,-455.05 958,-455.05 958,-474.05"/>
<text text-anchor="middle" x="925.5" y="-462.05" font-family="Helvetica,sans-Serif" font-size="10.00">dSv_info_c</text>
</a>
</g>
</g>
<!-- Node2 -->
<g id="node2" class="node">
<title>Node2</title>
<g id="a_node2"><a xlink:href="classdSv__save__c.html" target="_top" xlink:title=" ">
<polygon fill="white" stroke="#666666" points="802,-474.05 731,-474.05 731,-455.05 802,-455.05 802,-474.05"/>
<text text-anchor="middle" x="766.5" y="-462.05" font-family="Helvetica,sans-Serif" font-size="10.00">dSv_save_c</text>
</a>
</g>
</g>
<!-- Node2&#45;&gt;Node1 -->
<g id="edge1" class="edge">
<title>Node2&#45;&gt;Node1</title>
<path fill="none" stroke="#9a32cd" stroke-dasharray="5,2" d="M813.59,-464.55C839.02,-464.55 869.96,-464.55 892.69,-464.55"/>
<polygon fill="#9a32cd" stroke="#9a32cd" points="813.86,-461.05 803.86,-464.55 813.86,-468.05 813.86,-461.05"/>
<text text-anchor="middle" x="849" y="-467.55" font-family="Helvetica,sans-Serif" font-size="10.00"> mSavedata</text>
</g>
<!-- Node3 -->
<g id="node3" class="node">
<title>Node3</title>
<g id="a_node3"><a xlink:href="classdSv__player__c.html" target="_top" xlink:title=" ">
<polygon fill="white" stroke="#666666" points="625.5,-381.05 550.5,-381.05 550.5,-362.05 625.5,-362.05 625.5,-381.05"/>
<text text-anchor="middle" x="588" y="-369.05" font-family="Helvetica,sans-Serif" font-size="10.00">dSv_player_c</text>
</a>
</g>
</g>
<!-- Node3&#45;&gt;Node2 -->
<g id="edge2" class="edge">
<title>Node3&#45;&gt;Node2</title>
<path fill="none" stroke="#9a32cd" stroke-dasharray="5,2" d="M618.95,-386.52C643.53,-398.9 679.18,-417.06 710,-433.55 722.84,-440.43 737.2,-448.45 748.09,-454.62"/>
<polygon fill="#9a32cd" stroke="#9a32cd" points="620.67,-383.47 610.17,-382.11 617.53,-389.73 620.67,-383.47"/>
<text text-anchor="middle" x="682.5" y="-436.55" font-family="Helvetica,sans-Serif" font-size="10.00"> mPlayer</text>
</g>
<!-- Node4 -->
<g id="node4" class="node">
<title>Node4</title>
<g id="a_node4"><a xlink:href="classdSv__player__status__a__c.html" target="_top" xlink:title=" ">
<polygon fill="white" stroke="#666666" points="379.5,-645.05 261.5,-645.05 261.5,-626.05 379.5,-626.05 379.5,-645.05"/>
<text text-anchor="middle" x="320.5" y="-633.05" font-family="Helvetica,sans-Serif" font-size="10.00">dSv_player_status_a_c</text>
</a>
</g>
</g>
<!-- Node4&#45;&gt;Node3 -->
<g id="edge3" class="edge">
<title>Node4&#45;&gt;Node3</title>
<path fill="none" stroke="#9a32cd" stroke-dasharray="5,2" d="M391.34,-635.76C441.53,-634.32 503.33,-628.71 521,-610.55 549.65,-581.11 522.72,-464.27 539,-426.55 546.94,-408.17 563.36,-391.53 574.77,-381.48"/>
<polygon fill="#9a32cd" stroke="#9a32cd" points="391.28,-632.26 381.37,-635.99 391.44,-639.26 391.28,-632.26"/>
<text text-anchor="middle" x="463.5" y="-637.55" font-family="Helvetica,sans-Serif" font-size="10.00"> mPlayerStatusA</text>
</g>
<!-- Node5 -->
<g id="node5" class="node">
<title>Node5</title>
<g id="a_node5"><a xlink:href="classdSv__player__status__b__c.html" target="_top" xlink:title=" ">
<polygon fill="white" stroke="#666666" points="379.5,-608.05 261.5,-608.05 261.5,-589.05 379.5,-589.05 379.5,-608.05"/>
<text text-anchor="middle" x="320.5" y="-596.05" font-family="Helvetica,sans-Serif" font-size="10.00">dSv_player_status_b_c</text>
</a>
</g>
</g>
<!-- Node5&#45;&gt;Node3 -->
<g id="edge4" class="edge">
<title>Node5&#45;&gt;Node3</title>
<path fill="none" stroke="#9a32cd" stroke-dasharray="5,2" d="M391.27,-597.15C441.43,-594.58 503.21,-587.69 521,-569.55 543.43,-546.69 525.9,-455.78 539,-426.55 547.19,-408.28 563.55,-391.61 574.88,-381.53"/>
<polygon fill="#9a32cd" stroke="#9a32cd" points="391.14,-593.65 381.31,-597.61 391.45,-600.65 391.14,-593.65"/>
<text text-anchor="middle" x="463.5" y="-598.55" font-family="Helvetica,sans-Serif" font-size="10.00"> mPlayerStatusB</text>
</g>
<!-- Node6 -->
<g id="node6" class="node">
<title>Node6</title>
<g id="a_node6"><a xlink:href="classdSv__horse__place__c.html" target="_top" xlink:title=" ">
<polygon fill="white" stroke="#666666" points="371.5,-571.05 269.5,-571.05 269.5,-552.05 371.5,-552.05 371.5,-571.05"/>
<text text-anchor="middle" x="320.5" y="-559.05" font-family="Helvetica,sans-Serif" font-size="10.00">dSv_horse_place_c</text>
</a>
</g>
</g>
<!-- Node6&#45;&gt;Node3 -->
<g id="edge5" class="edge">
<title>Node6&#45;&gt;Node3</title>
<path fill="none" stroke="#9a32cd" stroke-dasharray="5,2" d="M383.21,-557.99C434.47,-553.71 501.96,-544.57 521,-525.55 552.64,-493.95 519.6,-466.85 539,-426.55 547.8,-408.28 564.35,-391.37 575.52,-381.25"/>
<polygon fill="#9a32cd" stroke="#9a32cd" points="383.09,-554.49 373.4,-558.76 383.64,-561.47 383.09,-554.49"/>
<text text-anchor="middle" x="463.5" y="-557.55" font-family="Helvetica,sans-Serif" font-size="10.00"> mHorsePlace</text>
</g>
<!-- Node7 -->
<g id="node7" class="node">
<title>Node7</title>
<g id="a_node7"><a xlink:href="structcXyz.html" target="_top" xlink:title=" ">
<polygon fill="white" stroke="#666666" points="134,-688.05 96,-688.05 96,-669.05 134,-669.05 134,-688.05"/>
<text text-anchor="middle" x="115" y="-676.05" font-family="Helvetica,sans-Serif" font-size="10.00">cXyz</text>
</a>
</g>
</g>
<!-- Node7&#45;&gt;Node6 -->
<g id="edge6" class="edge">
<title>Node7&#45;&gt;Node6</title>
<path fill="none" stroke="#9a32cd" stroke-dasharray="5,2" d="M135.54,-661.23C160.94,-639.53 207.46,-602.53 253,-580.55 260.35,-577 268.49,-574 276.48,-571.5"/>
<polygon fill="#9a32cd" stroke="#9a32cd" points="133.29,-658.55 128.02,-667.74 137.87,-663.83 133.29,-658.55"/>
<text text-anchor="middle" x="206" y="-628.55" font-family="Helvetica,sans-Serif" font-size="10.00"> mPos</text>
</g>
<!-- Node7&#45;&gt;Node7 -->
<g id="edge8" class="edge">
<title>Node7&#45;&gt;Node7</title>
<path fill="none" stroke="#9a32cd" stroke-dasharray="5,2" d="M104.03,-699.81C105.51,-703.49 109.16,-706.05 115,-706.05 125.99,-706.05 129.25,-696.99 124.78,-688.42"/>
<polygon fill="#9a32cd" stroke="#9a32cd" points="107.51,-700.23 105.06,-689.93 100.54,-699.51 107.51,-700.23"/>
<text text-anchor="middle" x="115" y="-786.05" font-family="Helvetica,sans-Serif" font-size="10.00"> BaseX</text>
<text text-anchor="middle" x="115" y="-775.05" font-family="Helvetica,sans-Serif" font-size="10.00">BaseXY</text>
<text text-anchor="middle" x="115" y="-764.05" font-family="Helvetica,sans-Serif" font-size="10.00">BaseXYZ</text>
<text text-anchor="middle" x="115" y="-753.05" font-family="Helvetica,sans-Serif" font-size="10.00">BaseXZ</text>
<text text-anchor="middle" x="115" y="-742.05" font-family="Helvetica,sans-Serif" font-size="10.00">BaseY</text>
<text text-anchor="middle" x="115" y="-731.05" font-family="Helvetica,sans-Serif" font-size="10.00">BaseYZ</text>
<text text-anchor="middle" x="115" y="-720.05" font-family="Helvetica,sans-Serif" font-size="10.00">BaseZ</text>
<text text-anchor="middle" x="115" y="-709.05" font-family="Helvetica,sans-Serif" font-size="10.00">Zero</text>
</g>
<!-- Node10 -->
<g id="node10" class="node">
<title>Node10</title>
<g id="a_node10"><a xlink:href="structdSv__player__field__last__stay__info__c.html" target="_top" xlink:title=" ">
<polygon fill="white" stroke="#666666" points="374.5,-533.55 266.5,-533.55 266.5,-503.55 374.5,-503.55 374.5,-533.55"/>
<text text-anchor="start" x="274.5" y="-521.55" font-family="Helvetica,sans-Serif" font-size="10.00">dSv_player_field_last</text>
<text text-anchor="middle" x="320.5" y="-510.55" font-family="Helvetica,sans-Serif" font-size="10.00">_stay_info_c</text>
</a>
</g>
</g>
<!-- Node7&#45;&gt;Node10 -->
<g id="edge11" class="edge">
<title>Node7&#45;&gt;Node10</title>
<path fill="none" stroke="#9a32cd" stroke-dasharray="5,2" d="M123.52,-658.1C132.88,-635.21 150.86,-598.35 177,-575.55 202.3,-553.48 237.22,-539.33 266.15,-530.65"/>
<polygon fill="#9a32cd" stroke="#9a32cd" points="120.33,-656.64 119.97,-667.23 126.86,-659.18 120.33,-656.64"/>
<text text-anchor="middle" x="206" y="-578.55" font-family="Helvetica,sans-Serif" font-size="10.00"> mPos</text>
</g>
<!-- Node11 -->
<g id="node11" class="node">
<title>Node11</title>
<g id="a_node11"><a xlink:href="classdSv__player__last__mark__info__c.html" target="_top" xlink:title=" ">
<polygon fill="white" stroke="#666666" points="377,-485.55 264,-485.55 264,-455.55 377,-455.55 377,-485.55"/>
<text text-anchor="start" x="272" y="-473.55" font-family="Helvetica,sans-Serif" font-size="10.00">dSv_player_last_mark</text>
<text text-anchor="middle" x="320.5" y="-462.55" font-family="Helvetica,sans-Serif" font-size="10.00">_info_c</text>
</a>
</g>
</g>
<!-- Node7&#45;&gt;Node11 -->
<g id="edge13" class="edge">
<title>Node7&#45;&gt;Node11</title>
<path fill="none" stroke="#9a32cd" stroke-dasharray="5,2" d="M119.18,-657.44C125.07,-625.21 140.57,-563.6 177,-526.55 200.2,-502.95 234.54,-489.06 263.69,-481.02"/>
<polygon fill="#9a32cd" stroke="#9a32cd" points="115.76,-656.66 117.56,-667.1 122.66,-657.81 115.76,-656.66"/>
<text text-anchor="middle" x="206" y="-529.55" font-family="Helvetica,sans-Serif" font-size="10.00"> mPos</text>
</g>
<!-- Node33 -->
<g id="node33" class="node">
<title>Node33</title>
<g id="a_node33"><a xlink:href="classdSv__restart__c.html" target="_top" xlink:title=" ">
<polygon fill="white" stroke="#666666" points="502,-804.05 425,-804.05 425,-785.05 502,-785.05 502,-804.05"/>
<text text-anchor="middle" x="463.5" y="-792.05" font-family="Helvetica,sans-Serif" font-size="10.00">dSv_restart_c</text>
</a>
</g>
</g>
<!-- Node7&#45;&gt;Node33 -->
<g id="edge37" class="edge">
<title>Node7&#45;&gt;Node33</title>
<path fill="none" stroke="#9a32cd" stroke-dasharray="5,2" d="M121.23,-699.48C128.81,-724.86 145.52,-766.59 177,-785.55 254.53,-832.25 366.61,-816.94 424.58,-804.3"/>
<polygon fill="#9a32cd" stroke="#9a32cd" points="124.64,-698.68 118.62,-689.96 117.89,-700.53 124.64,-698.68"/>
<text text-anchor="middle" x="206" y="-810.55" font-family="Helvetica,sans-Serif" font-size="10.00"> mRoomPos</text>
</g>
<!-- Node34 -->
<g id="node34" class="node">
<title>Node34</title>
<g id="a_node34"><a xlink:href="classdSv__turnRestart__c.html" target="_top" xlink:title=" ">
<polygon fill="white" stroke="#666666" points="637,-728.05 539,-728.05 539,-709.05 637,-709.05 637,-728.05"/>
<text text-anchor="middle" x="588" y="-716.05" font-family="Helvetica,sans-Serif" font-size="10.00">dSv_turnRestart_c</text>
</a>
</g>
</g>
<!-- Node7&#45;&gt;Node34 -->
<g id="edge40" class="edge">
<title>Node7&#45;&gt;Node34</title>
<path fill="none" stroke="#9a32cd" stroke-dasharray="5,2" d="M145.43,-681.46C173.16,-684.18 215.89,-688.29 253,-691.55 354.56,-700.48 473.6,-709.83 538.58,-714.85"/>
<polygon fill="#9a32cd" stroke="#9a32cd" points="145.97,-678 135.67,-680.51 145.28,-684.97 145.97,-678"/>
<text text-anchor="middle" x="320.5" y="-705.55" font-family="Helvetica,sans-Serif" font-size="10.00"> mPosition</text>
</g>
<!-- Node35 -->
<g id="node35" class="node">
<title>Node35</title>
<g id="a_node35"><a xlink:href="classdSv__turnRestart__c_1_1dSv__turnRestart__camera__c.html" target="_top" xlink:title=" ">
<polygon fill="white" stroke="#666666" points="388,-777.55 253,-777.55 253,-747.55 388,-747.55 388,-777.55"/>
<text text-anchor="start" x="261" y="-765.55" font-family="Helvetica,sans-Serif" font-size="10.00">dSv_turnRestart_c::</text>
<text text-anchor="middle" x="320.5" y="-754.55" font-family="Helvetica,sans-Serif" font-size="10.00">dSv_turnRestart_camera_c</text>
</a>
</g>
</g>
<!-- Node7&#45;&gt;Node35 -->
<g id="edge42" class="edge">
<title>Node7&#45;&gt;Node35</title>
<path fill="none" stroke="#9a32cd" stroke-dasharray="5,2" d="M132.7,-696.28C144.16,-707.42 160.26,-721.22 177,-729.55 200.41,-741.21 228.06,-748.83 252.73,-753.77"/>
<polygon fill="#9a32cd" stroke="#9a32cd" points="135.5,-694.13 125.98,-689.49 130.52,-699.06 135.5,-694.13"/>
<text text-anchor="middle" x="206" y="-773.55" font-family="Helvetica,sans-Serif" font-size="10.00"> mCameraCtr</text>
<text text-anchor="middle" x="206" y="-762.55" font-family="Helvetica,sans-Serif" font-size="10.00">mCameraEye</text>
<text text-anchor="middle" x="206" y="-751.55" font-family="Helvetica,sans-Serif" font-size="10.00">mCameraUp</text>
</g>
<!-- Node8 -->
<g id="node8" class="node">
<title>Node8</title>
<g id="a_node8"><a xlink:href="structVec.html" target="_top" xlink:title=" ">
<polygon fill="white" stroke="#666666" points="34,-688.05 0,-688.05 0,-669.05 34,-669.05 34,-688.05"/>
<text text-anchor="middle" x="17" y="-676.05" font-family="Helvetica,sans-Serif" font-size="10.00">Vec</text>
</a>
</g>
</g>
<!-- Node8&#45;&gt;Node7 -->
<g id="edge7" class="edge">
<title>Node8&#45;&gt;Node7</title>
<path fill="none" stroke="#63b8ff" d="M45.69,-678.55C61.75,-678.55 81.53,-678.55 95.67,-678.55"/>
<polygon fill="#63b8ff" stroke="#63b8ff" points="45.8,-675.05 35.8,-678.55 45.8,-682.05 45.8,-675.05"/>
</g>
<!-- Node9 -->
<g id="node9" class="node">
<title>Node9</title>
<g id="a_node9"><a xlink:href="classdSv__player__return__place__c.html" target="_top" xlink:title=" ">
<polygon fill="white" stroke="#666666" points="387.5,-326.05 253.5,-326.05 253.5,-307.05 387.5,-307.05 387.5,-326.05"/>
<text text-anchor="middle" x="320.5" y="-314.05" font-family="Helvetica,sans-Serif" font-size="10.00">dSv_player_return_place_c</text>
</a>
</g>
</g>
<!-- Node9&#45;&gt;Node3 -->
<g id="edge9" class="edge">
<title>Node9&#45;&gt;Node3</title>
<path fill="none" stroke="#9a32cd" stroke-dasharray="5,2" d="M398.72,-312.81C437.04,-313.75 483.1,-319.25 521,-336.55 531.01,-341.12 529.66,-347.73 539,-353.55 543.91,-356.61 549.42,-359.28 554.91,-361.56"/>
<polygon fill="#9a32cd" stroke="#9a32cd" points="399.18,-309.31 389.13,-312.67 399.08,-316.31 399.18,-309.31"/>
<text text-anchor="middle" x="463.5" y="-339.55" font-family="Helvetica,sans-Serif" font-size="10.00"> mPlayerReturnPlace</text>
</g>
<!-- Node10&#45;&gt;Node3 -->
<g id="edge10" class="edge">
<title>Node10&#45;&gt;Node3</title>
<path fill="none" stroke="#9a32cd" stroke-dasharray="5,2" d="M385.87,-513.32C436.3,-507.97 501.14,-497.92 521,-480.55 540.04,-463.9 526.44,-448.51 539,-426.55 549.07,-408.95 565.3,-391.87 576.06,-381.53"/>
<polygon fill="#9a32cd" stroke="#9a32cd" points="385.8,-509.81 376.21,-514.3 386.51,-516.78 385.8,-509.81"/>
<text text-anchor="middle" x="463.5" y="-513.55" font-family="Helvetica,sans-Serif" font-size="10.00"> mPlayerFieldLastStayInfo</text>
</g>
<!-- Node11&#45;&gt;Node3 -->
<g id="edge12" class="edge">
<title>Node11&#45;&gt;Node3</title>
<path fill="none" stroke="#9a32cd" stroke-dasharray="5,2" d="M388.45,-468.12C428.71,-464.37 479.94,-455.43 521,-434.55 546.42,-421.63 568.72,-395.73 579.72,-381.5"/>
<polygon fill="#9a32cd" stroke="#9a32cd" points="388.32,-464.62 378.65,-468.94 388.9,-471.59 388.32,-464.62"/>
<text text-anchor="middle" x="463.5" y="-468.55" font-family="Helvetica,sans-Serif" font-size="10.00"> mPlayerLastMarkInfo</text>
</g>
<!-- Node12 -->
<g id="node12" class="node">
<title>Node12</title>
<g id="a_node12"><a xlink:href="structdSv__player__item__c.html" target="_top" xlink:title=" ">
<polygon fill="white" stroke="#666666" points="370,-289.05 271,-289.05 271,-270.05 370,-270.05 370,-289.05"/>
<text text-anchor="middle" x="320.5" y="-277.05" font-family="Helvetica,sans-Serif" font-size="10.00">dSv_player_item_c</text>
</a>
</g>
</g>
<!-- Node12&#45;&gt;Node3 -->
<g id="edge14" class="edge">
<title>Node12&#45;&gt;Node3</title>
<path fill="none" stroke="#9a32cd" stroke-dasharray="5,2" d="M381.33,-268.79C424.68,-264.51 482.24,-266.54 521,-297.55 541.41,-313.89 520.96,-334.63 539,-353.55 542.19,-356.9 546.07,-359.63 550.22,-361.86"/>
<polygon fill="#9a32cd" stroke="#9a32cd" points="381.12,-265.29 371.58,-269.9 381.91,-272.25 381.12,-265.29"/>
<text text-anchor="middle" x="463.5" y="-300.55" font-family="Helvetica,sans-Serif" font-size="10.00"> mItem</text>
</g>
<!-- Node13 -->
<g id="node13" class="node">
<title>Node13</title>
<g id="a_node13"><a xlink:href="classdSv__player__get__item__c.html" target="_top" xlink:title=" ">
<polygon fill="white" stroke="#666666" points="379.5,-252.05 261.5,-252.05 261.5,-233.05 379.5,-233.05 379.5,-252.05"/>
<text text-anchor="middle" x="320.5" y="-240.05" font-family="Helvetica,sans-Serif" font-size="10.00">dSv_player_get_item_c</text>
</a>
</g>
</g>
<!-- Node13&#45;&gt;Node3 -->
<g id="edge15" class="edge">
<title>Node13&#45;&gt;Node3</title>
<path fill="none" stroke="#9a32cd" stroke-dasharray="5,2" d="M367.39,-230.17C412.18,-221.11 479.47,-215.96 521,-252.55 555.21,-282.7 509.83,-318.51 539,-353.55 542.07,-357.25 545.99,-360.18 550.25,-362.52"/>
<polygon fill="#9a32cd" stroke="#9a32cd" points="366.74,-226.73 357.72,-232.28 368.23,-233.57 366.74,-226.73"/>
<text text-anchor="middle" x="463.5" y="-255.55" font-family="Helvetica,sans-Serif" font-size="10.00"> mGetItem</text>
</g>
<!-- Node14 -->
<g id="node14" class="node">
<title>Node14</title>
<g id="a_node14"><a xlink:href="classdSv__player__item__record__c.html" target="_top" xlink:title=" ">
<polygon fill="white" stroke="#666666" points="386,-215.05 255,-215.05 255,-196.05 386,-196.05 386,-215.05"/>
<text text-anchor="middle" x="320.5" y="-203.05" font-family="Helvetica,sans-Serif" font-size="10.00">dSv_player_item_record_c</text>
</a>
</g>
</g>
<!-- Node14&#45;&gt;Node3 -->
<g id="edge16" class="edge">
<title>Node14&#45;&gt;Node3</title>
<path fill="none" stroke="#9a32cd" stroke-dasharray="5,2" d="M397.84,-197.15C446.32,-193.64 503.19,-193.51 521,-209.55 568.92,-252.72 499.04,-302.93 539,-353.55 541.98,-357.32 545.83,-360.31 550.07,-362.66"/>
<polygon fill="#9a32cd" stroke="#9a32cd" points="397.57,-193.66 387.87,-197.94 398.12,-200.64 397.57,-193.66"/>
<text text-anchor="middle" x="463.5" y="-212.55" font-family="Helvetica,sans-Serif" font-size="10.00"> mItemRecord</text>
</g>
<!-- Node15 -->
<g id="node15" class="node">
<title>Node15</title>
<g id="a_node15"><a xlink:href="classdSv__player__item__max__c.html" target="_top" xlink:title=" ">
<polygon fill="white" stroke="#666666" points="381.5,-178.05 259.5,-178.05 259.5,-159.05 381.5,-159.05 381.5,-178.05"/>
<text text-anchor="middle" x="320.5" y="-166.05" font-family="Helvetica,sans-Serif" font-size="10.00">dSv_player_item_max_c</text>
</a>
</g>
</g>
<!-- Node15&#45;&gt;Node3 -->
<g id="edge17" class="edge">
<title>Node15&#45;&gt;Node3</title>
<path fill="none" stroke="#9a32cd" stroke-dasharray="5,2" d="M367.36,-156.22C412.65,-147.1 480.8,-142.06 521,-180.55 548.92,-207.28 515.37,-322.97 539,-353.55 542.05,-357.5 546.06,-360.58 550.47,-362.98"/>
<polygon fill="#9a32cd" stroke="#9a32cd" points="366.88,-152.75 357.85,-158.29 368.36,-159.59 366.88,-152.75"/>
<text text-anchor="middle" x="463.5" y="-183.55" font-family="Helvetica,sans-Serif" font-size="10.00"> mItemMax</text>
</g>
<!-- Node16 -->
<g id="node16" class="node">
<title>Node16</title>
<g id="a_node16"><a xlink:href="classdSv__player__collect__c.html" target="_top" xlink:title=" ">
<polygon fill="white" stroke="#666666" points="375,-141.05 266,-141.05 266,-122.05 375,-122.05 375,-141.05"/>
<text text-anchor="middle" x="320.5" y="-129.05" font-family="Helvetica,sans-Serif" font-size="10.00">dSv_player_collect_c</text>
</a>
</g>
</g>
<!-- Node16&#45;&gt;Node3 -->
<g id="edge18" class="edge">
<title>Node16&#45;&gt;Node3</title>
<path fill="none" stroke="#9a32cd" stroke-dasharray="5,2" d="M386.37,-123.86C437.1,-119.44 502.1,-117.8 521,-135.55 556.43,-168.84 509.69,-314.77 539,-353.55 542.01,-357.53 545.99,-360.63 550.39,-363.04"/>
<polygon fill="#9a32cd" stroke="#9a32cd" points="386.27,-120.36 376.64,-124.77 386.92,-127.33 386.27,-120.36"/>
<text text-anchor="middle" x="463.5" y="-138.55" font-family="Helvetica,sans-Serif" font-size="10.00"> mCollect</text>
</g>
<!-- Node17 -->
<g id="node17" class="node">
<title>Node17</title>
<g id="a_node17"><a xlink:href="classdSv__player__wolf__c.html" target="_top" xlink:title=" ">
<polygon fill="white" stroke="#666666" points="369.5,-104.05 271.5,-104.05 271.5,-85.05 369.5,-85.05 369.5,-104.05"/>
<text text-anchor="middle" x="320.5" y="-92.05" font-family="Helvetica,sans-Serif" font-size="10.00">dSv_player_wolf_c</text>
</a>
</g>
</g>
<!-- Node17&#45;&gt;Node3 -->
<g id="edge19" class="edge">
<title>Node17&#45;&gt;Node3</title>
<path fill="none" stroke="#9a32cd" stroke-dasharray="5,2" d="M366.83,-82.13C412.31,-72.7 481.17,-67.22 521,-106.55 560.16,-145.22 506.03,-309.49 539,-353.55 541.99,-357.54 545.96,-360.65 550.35,-363.07"/>
<polygon fill="#9a32cd" stroke="#9a32cd" points="366.28,-78.66 357.28,-84.25 367.8,-85.49 366.28,-78.66"/>
<text text-anchor="middle" x="463.5" y="-109.55" font-family="Helvetica,sans-Serif" font-size="10.00"> mWolf</text>
</g>
<!-- Node18 -->
<g id="node18" class="node">
<title>Node18</title>
<g id="a_node18"><a xlink:href="classdSv__light__drop__c.html" target="_top" xlink:title=" ">
<polygon fill="white" stroke="#666666" points="366.5,-67.05 274.5,-67.05 274.5,-48.05 366.5,-48.05 366.5,-67.05"/>
<text text-anchor="middle" x="320.5" y="-55.05" font-family="Helvetica,sans-Serif" font-size="10.00">dSv_light_drop_c</text>
</a>
</g>
</g>
<!-- Node18&#45;&gt;Node3 -->
<g id="edge20" class="edge">
<title>Node18&#45;&gt;Node3</title>
<path fill="none" stroke="#9a32cd" stroke-dasharray="5,2" d="M378.08,-50.23C429.81,-44.94 501.2,-41.65 521,-60.55 568.18,-105.6 500.22,-301.1 539,-353.55 541.96,-357.56 545.93,-360.68 550.31,-363.1"/>
<polygon fill="#9a32cd" stroke="#9a32cd" points="377.78,-46.74 368.21,-51.29 378.53,-53.7 377.78,-46.74"/>
<text text-anchor="middle" x="463.5" y="-63.55" font-family="Helvetica,sans-Serif" font-size="10.00"> mLightDrop</text>
</g>
<!-- Node19 -->
<g id="node19" class="node">
<title>Node19</title>
<g id="a_node19"><a xlink:href="classdSv__letter__info__c.html" target="_top" xlink:title=" ">
<polygon fill="white" stroke="#666666" points="366.5,-30.05 274.5,-30.05 274.5,-11.05 366.5,-11.05 366.5,-30.05"/>
<text text-anchor="middle" x="320.5" y="-18.05" font-family="Helvetica,sans-Serif" font-size="10.00">dSv_letter_info_c</text>
</a>
</g>
</g>
<!-- Node19&#45;&gt;Node3 -->
<g id="edge21" class="edge">
<title>Node19&#45;&gt;Node3</title>
<path fill="none" stroke="#9a32cd" stroke-dasharray="5,2" d="M365.76,-7.98C411.31,1.97 481.07,8.34 521,-31.55 546.35,-56.88 517.78,-324.68 539,-353.55 541.95,-357.57 545.91,-360.69 550.29,-363.11"/>
<polygon fill="#9a32cd" stroke="#9a32cd" points="365.15,-4.53 356.21,-10.21 366.75,-11.34 365.15,-4.53"/>
<text text-anchor="middle" x="463.5" y="-34.55" font-family="Helvetica,sans-Serif" font-size="10.00"> mLetterInfo</text>
</g>
<!-- Node20 -->
<g id="node20" class="node">
<title>Node20</title>
<g id="a_node20"><a xlink:href="classdSv__fishing__info__c.html" target="_top" xlink:title=" ">
<polygon fill="white" stroke="#666666" points="369.5,-437.05 271.5,-437.05 271.5,-418.05 369.5,-418.05 369.5,-437.05"/>
<text text-anchor="middle" x="320.5" y="-425.05" font-family="Helvetica,sans-Serif" font-size="10.00">dSv_fishing_info_c</text>
</a>
</g>
</g>
<!-- Node20&#45;&gt;Node3 -->
<g id="edge22" class="edge">
<title>Node20&#45;&gt;Node3</title>
<path fill="none" stroke="#9a32cd" stroke-dasharray="5,2" d="M381.18,-422.72C421.23,-418.54 474.9,-411.13 521,-398.55 536.65,-394.28 553.56,-387.31 566.35,-381.52"/>
<polygon fill="#9a32cd" stroke="#9a32cd" points="380.84,-419.23 371.24,-423.71 381.54,-426.2 380.84,-419.23"/>
<text text-anchor="middle" x="463.5" y="-422.55" font-family="Helvetica,sans-Serif" font-size="10.00"> mFishingInfo</text>
</g>
<!-- Node21 -->
<g id="node21" class="node">
<title>Node21</title>
<g id="a_node21"><a xlink:href="classdSv__player__info__c.html" target="_top" xlink:title=" ">
<polygon fill="white" stroke="#666666" points="368.5,-400.05 272.5,-400.05 272.5,-381.05 368.5,-381.05 368.5,-400.05"/>
<text text-anchor="middle" x="320.5" y="-388.05" font-family="Helvetica,sans-Serif" font-size="10.00">dSv_player_info_c</text>
</a>
</g>
</g>
<!-- Node21&#45;&gt;Node3 -->
<g id="edge23" class="edge">
<title>Node21&#45;&gt;Node3</title>
<path fill="none" stroke="#9a32cd" stroke-dasharray="5,2" d="M380.34,-386.34C432.24,-382.63 506.27,-377.33 550.2,-374.19"/>
<polygon fill="#9a32cd" stroke="#9a32cd" points="380.2,-382.84 370.48,-387.05 380.7,-389.82 380.2,-382.84"/>
<text text-anchor="middle" x="463.5" y="-386.55" font-family="Helvetica,sans-Serif" font-size="10.00"> mPlayerInfo</text>
</g>
<!-- Node22 -->
<g id="node22" class="node">
<title>Node22</title>
<g id="a_node22"><a xlink:href="classdSv__player__config__c.html" target="_top" xlink:title=" ">
<polygon fill="white" stroke="#666666" points="373.5,-363.05 267.5,-363.05 267.5,-344.05 373.5,-344.05 373.5,-363.05"/>
<text text-anchor="middle" x="320.5" y="-351.05" font-family="Helvetica,sans-Serif" font-size="10.00">dSv_player_config_c</text>
</a>
</g>
</g>
<!-- Node22&#45;&gt;Node3 -->
<g id="edge24" class="edge">
<title>Node22&#45;&gt;Node3</title>
<path fill="none" stroke="#9a32cd" stroke-dasharray="5,2" d="M385.03,-351.78C424.33,-351.43 475.74,-352.35 521,-357.55 530.54,-358.65 540.74,-360.48 550.2,-362.46"/>
<polygon fill="#9a32cd" stroke="#9a32cd" points="385.24,-348.27 375.28,-351.89 385.32,-355.27 385.24,-348.27"/>
<text text-anchor="middle" x="463.5" y="-360.55" font-family="Helvetica,sans-Serif" font-size="10.00"> mConfig</text>
</g>
<!-- Node23 -->
<g id="node23" class="node">
<title>Node23</title>
<g id="a_node23"><a xlink:href="classdSv__memory__c.html" target="_top" xlink:title=" ">
<polygon fill="white" stroke="#666666" points="630,-586.05 546,-586.05 546,-567.05 630,-567.05 630,-586.05"/>
<text text-anchor="middle" x="588" y="-574.05" font-family="Helvetica,sans-Serif" font-size="10.00">dSv_memory_c</text>
</a>
</g>
</g>
<!-- Node23&#45;&gt;Node1 -->
<g id="edge31" class="edge">
<title>Node23&#45;&gt;Node1</title>
<path fill="none" stroke="#9a32cd" stroke-dasharray="5,2" d="M641.46,-574.08C662.99,-572.14 687.98,-568.69 710,-562.55 787.5,-540.95 872.4,-494.77 907.68,-474.47"/>
<polygon fill="#9a32cd" stroke="#9a32cd" points="641.42,-570.57 631.73,-574.86 641.98,-577.55 641.42,-570.57"/>
<text text-anchor="middle" x="766.5" y="-558.55" font-family="Helvetica,sans-Serif" font-size="10.00"> mMemory</text>
</g>
<!-- Node23&#45;&gt;Node2 -->
<g id="edge25" class="edge">
<title>Node23&#45;&gt;Node2</title>
<path fill="none" stroke="#9a32cd" stroke-dasharray="5,2" d="M626.29,-562.39C651.13,-552.09 683.87,-536.79 710,-518.55 728.74,-505.47 747.07,-485.95 757.26,-474.31"/>
<polygon fill="#9a32cd" stroke="#9a32cd" points="625.19,-559.06 617.24,-566.06 627.82,-565.55 625.19,-559.06"/>
<text text-anchor="middle" x="682.5" y="-551.55" font-family="Helvetica,sans-Serif" font-size="10.00"> mSave</text>
</g>
<!-- Node24 -->
<g id="node24" class="node">
<title>Node24</title>
<g id="a_node24"><a xlink:href="structdSv__memBit__c.html" target="_top" xlink:title=" ">
<polygon fill="white" stroke="#666666" points="362,-682.05 279,-682.05 279,-663.05 362,-663.05 362,-682.05"/>
<text text-anchor="middle" x="320.5" y="-670.05" font-family="Helvetica,sans-Serif" font-size="10.00">dSv_memBit_c</text>
</a>
</g>
</g>
<!-- Node24&#45;&gt;Node23 -->
<g id="edge26" class="edge">
<title>Node24&#45;&gt;Node23</title>
<path fill="none" stroke="#9a32cd" stroke-dasharray="5,2" d="M373.52,-676.73C415.59,-677.85 475.14,-674.2 521,-650.55 549.76,-635.72 571.87,-602.76 581.59,-586.3"/>
<polygon fill="#9a32cd" stroke="#9a32cd" points="373.79,-673.24 363.66,-676.36 373.52,-680.23 373.79,-673.24"/>
<text text-anchor="middle" x="463.5" y="-678.55" font-family="Helvetica,sans-Serif" font-size="10.00"> mBit</text>
</g>
<!-- Node25 -->
<g id="node25" class="node">
<title>Node25</title>
<g id="a_node25"><a xlink:href="classdSv__memory2__c.html" target="_top" xlink:title=" ">
<polygon fill="white" stroke="#666666" points="632.5,-491.05 543.5,-491.05 543.5,-472.05 632.5,-472.05 632.5,-491.05"/>
<text text-anchor="middle" x="588" y="-479.05" font-family="Helvetica,sans-Serif" font-size="10.00">dSv_memory2_c</text>
</a>
</g>
</g>
<!-- Node25&#45;&gt;Node2 -->
<g id="edge27" class="edge">
<title>Node25&#45;&gt;Node2</title>
<path fill="none" stroke="#9a32cd" stroke-dasharray="5,2" d="M643.99,-476.26C672.29,-473.53 705.94,-470.29 730.64,-467.91"/>
<polygon fill="#9a32cd" stroke="#9a32cd" points="643.75,-472.76 634.14,-477.21 644.43,-479.73 643.75,-472.76"/>
<text text-anchor="middle" x="682.5" y="-477.55" font-family="Helvetica,sans-Serif" font-size="10.00"> mSave2</text>
</g>
<!-- Node26 -->
<g id="node26" class="node">
<title>Node26</title>
<g id="a_node26"><a xlink:href="structdSv__event__c.html" target="_top" xlink:title=" ">
<polygon fill="white" stroke="#666666" points="625,-344.05 551,-344.05 551,-325.05 625,-325.05 625,-344.05"/>
<text text-anchor="middle" x="588" y="-332.05" font-family="Helvetica,sans-Serif" font-size="10.00">dSv_event_c</text>
</a>
</g>
</g>
<!-- Node26&#45;&gt;Node1 -->
<g id="edge38" class="edge">
<title>Node26&#45;&gt;Node1</title>
<path fill="none" stroke="#9a32cd" stroke-dasharray="5,2" d="M636.39,-342.01C659.02,-346.26 686.28,-352.39 710,-360.55 786.89,-387.02 872.12,-434.13 907.59,-454.6"/>
<polygon fill="#9a32cd" stroke="#9a32cd" points="637.31,-338.62 626.84,-340.29 636.06,-345.51 637.31,-338.62"/>
<text text-anchor="middle" x="766.5" y="-402.55" font-family="Helvetica,sans-Serif" font-size="10.00"> mTmp</text>
</g>
<!-- Node26&#45;&gt;Node2 -->
<g id="edge28" class="edge">
<title>Node26&#45;&gt;Node2</title>
<path fill="none" stroke="#9a32cd" stroke-dasharray="5,2" d="M625.88,-348.75C629.66,-350.32 633.42,-351.94 637,-353.55 670.17,-368.48 682.14,-367.17 710,-390.55 732.63,-409.55 751.4,-439.47 760.17,-454.79"/>
<polygon fill="#9a32cd" stroke="#9a32cd" points="627.33,-345.56 616.74,-345.04 624.69,-352.05 627.33,-345.56"/>
<text text-anchor="middle" x="682.5" y="-393.55" font-family="Helvetica,sans-Serif" font-size="10.00"> mEvent</text>
</g>
<!-- Node27 -->
<g id="node27" class="node">
<title>Node27</title>
<g id="a_node27"><a xlink:href="classdSv__reserve__c.html" target="_top" xlink:title=" ">
<polygon fill="white" stroke="#666666" points="629,-454.05 547,-454.05 547,-435.05 629,-435.05 629,-454.05"/>
<text text-anchor="middle" x="588" y="-442.05" font-family="Helvetica,sans-Serif" font-size="10.00">dSv_reserve_c</text>
</a>
</g>
</g>
<!-- Node27&#45;&gt;Node2 -->
<g id="edge29" class="edge">
<title>Node27&#45;&gt;Node2</title>
<path fill="none" stroke="#9a32cd" stroke-dasharray="5,2" d="M640.63,-447.73C662.13,-449.33 687.32,-451.58 710,-454.55 716.7,-455.43 723.82,-456.56 730.64,-457.75"/>
<polygon fill="#9a32cd" stroke="#9a32cd" points="641.17,-444.25 630.95,-447.03 640.67,-451.24 641.17,-444.25"/>
<text text-anchor="middle" x="682.5" y="-457.55" font-family="Helvetica,sans-Serif" font-size="10.00"> reserve</text>
</g>
<!-- Node28 -->
<g id="node28" class="node">
<title>Node28</title>
<g id="a_node28"><a xlink:href="classdSv__MiniGame__c.html" target="_top" xlink:title=" ">
<polygon fill="white" stroke="#666666" points="635,-528.05 541,-528.05 541,-509.05 635,-509.05 635,-528.05"/>
<text text-anchor="middle" x="588" y="-516.05" font-family="Helvetica,sans-Serif" font-size="10.00">dSv_MiniGame_c</text>
</a>
</g>
</g>
<!-- Node28&#45;&gt;Node2 -->
<g id="edge30" class="edge">
<title>Node28&#45;&gt;Node2</title>
<path fill="none" stroke="#9a32cd" stroke-dasharray="5,2" d="M646.27,-507.15C666.63,-502.49 689.56,-496.54 710,-489.55 722.2,-485.38 735.38,-479.51 745.83,-474.5"/>
<polygon fill="#9a32cd" stroke="#9a32cd" points="645.73,-503.68 636.74,-509.27 647.26,-510.52 645.73,-503.68"/>
<text text-anchor="middle" x="682.5" y="-506.55" font-family="Helvetica,sans-Serif" font-size="10.00"> mMiniGame</text>
</g>
<!-- Node29 -->
<g id="node29" class="node">
<title>Node29</title>
<g id="a_node29"><a xlink:href="structdSv__danBit__c.html" target="_top" xlink:title=" ">
<polygon fill="white" stroke="#666666" points="805,-310.05 728,-310.05 728,-291.05 805,-291.05 805,-310.05"/>
<text text-anchor="middle" x="766.5" y="-298.05" font-family="Helvetica,sans-Serif" font-size="10.00">dSv_danBit_c</text>
</a>
</g>
</g>
<!-- Node29&#45;&gt;Node1 -->
<g id="edge32" class="edge">
<title>Node29&#45;&gt;Node1</title>
<path fill="none" stroke="#9a32cd" stroke-dasharray="5,2" d="M816.64,-299.82C836.79,-301.94 859.09,-307.73 875,-321.55 916.06,-357.22 923.08,-428.7 924.27,-454.76"/>
<polygon fill="#9a32cd" stroke="#9a32cd" points="817.14,-296.35 806.9,-299.09 816.61,-303.33 817.14,-296.35"/>
<text text-anchor="middle" x="849" y="-324.55" font-family="Helvetica,sans-Serif" font-size="10.00"> mDan</text>
</g>
<!-- Node30 -->
<g id="node30" class="node">
<title>Node30</title>
<g id="a_node30"><a xlink:href="classdSv__zone__c.html" target="_top" xlink:title=" ">
<polygon fill="white" stroke="#666666" points="801.5,-273.05 731.5,-273.05 731.5,-254.05 801.5,-254.05 801.5,-273.05"/>
<text text-anchor="middle" x="766.5" y="-261.05" font-family="Helvetica,sans-Serif" font-size="10.00">dSv_zone_c</text>
</a>
</g>
</g>
<!-- Node30&#45;&gt;Node1 -->
<g id="edge33" class="edge">
<title>Node30&#45;&gt;Node1</title>
<path fill="none" stroke="#9a32cd" stroke-dasharray="5,2" d="M813.38,-262.47C834.57,-264.36 858.62,-270.25 875,-285.55 924.95,-332.22 926.12,-424.35 925.04,-454.64"/>
<polygon fill="#9a32cd" stroke="#9a32cd" points="813.66,-258.99 803.47,-261.89 813.25,-265.97 813.66,-258.99"/>
<text text-anchor="middle" x="849" y="-288.55" font-family="Helvetica,sans-Serif" font-size="10.00"> mZone</text>
</g>
<!-- Node31 -->
<g id="node31" class="node">
<title>Node31</title>
<g id="a_node31"><a xlink:href="classdSv__zoneBit__c.html" target="_top" xlink:title=" ">
<polygon fill="white" stroke="#666666" points="629,-284.05 547,-284.05 547,-265.05 629,-265.05 629,-284.05"/>
<text text-anchor="middle" x="588" y="-272.05" font-family="Helvetica,sans-Serif" font-size="10.00">dSv_zoneBit_c</text>
</a>
</g>
</g>
<!-- Node31&#45;&gt;Node30 -->
<g id="edge34" class="edge">
<title>Node31&#45;&gt;Node30</title>
<path fill="none" stroke="#9a32cd" stroke-dasharray="5,2" d="M640.72,-271.33C669.85,-269.51 705.44,-267.3 731.14,-265.69"/>
<polygon fill="#9a32cd" stroke="#9a32cd" points="640.77,-267.82 631,-271.93 641.2,-274.81 640.77,-267.82"/>
<text text-anchor="middle" x="682.5" y="-273.55" font-family="Helvetica,sans-Serif" font-size="10.00"> mBit</text>
</g>
<!-- Node32 -->
<g id="node32" class="node">
<title>Node32</title>
<g id="a_node32"><a xlink:href="classdSv__zoneActor__c.html" target="_top" xlink:title=" ">
<polygon fill="white" stroke="#666666" points="634.5,-247.05 541.5,-247.05 541.5,-228.05 634.5,-228.05 634.5,-247.05"/>
<text text-anchor="middle" x="588" y="-235.05" font-family="Helvetica,sans-Serif" font-size="10.00">dSv_zoneActor_c</text>
</a>
</g>
</g>
<!-- Node32&#45;&gt;Node30 -->
<g id="edge35" class="edge">
<title>Node32&#45;&gt;Node30</title>
<path fill="none" stroke="#9a32cd" stroke-dasharray="5,2" d="M646.04,-243.76C666.29,-246.2 689.2,-249.21 710,-252.55 716.89,-253.66 724.22,-255 731.23,-256.36"/>
<polygon fill="#9a32cd" stroke="#9a32cd" points="646.63,-240.31 636.29,-242.62 645.81,-247.26 646.63,-240.31"/>
<text text-anchor="middle" x="682.5" y="-255.55" font-family="Helvetica,sans-Serif" font-size="10.00"> mActor</text>
</g>
<!-- Node33&#45;&gt;Node1 -->
<g id="edge36" class="edge">
<title>Node33&#45;&gt;Node1</title>
<path fill="none" stroke="#9a32cd" stroke-dasharray="5,2" d="M513.33,-783.22C584.3,-764.73 717.03,-722.32 805,-646.55 865.72,-594.26 907.82,-503.76 920.5,-474.2"/>
<polygon fill="#9a32cd" stroke="#9a32cd" points="512.78,-779.75 503.96,-785.61 514.51,-786.53 512.78,-779.75"/>
<text text-anchor="middle" x="682.5" y="-737.55" font-family="Helvetica,sans-Serif" font-size="10.00"> mRestart</text>
</g>
<!-- Node34&#45;&gt;Node1 -->
<g id="edge39" class="edge">
<title>Node34&#45;&gt;Node1</title>
<path fill="none" stroke="#9a32cd" stroke-dasharray="5,2" d="M615.81,-703.05C668.47,-671.95 787.82,-598.17 875,-519.55 891.03,-505.1 907.34,-485.93 916.66,-474.46"/>
<polygon fill="#9a32cd" stroke="#9a32cd" points="614.36,-699.84 607.51,-707.92 617.9,-705.88 614.36,-699.84"/>
<text text-anchor="middle" x="766.5" y="-634.55" font-family="Helvetica,sans-Serif" font-size="10.00"> mTurnRestart</text>
</g>
<!-- Node35&#45;&gt;Node34 -->
<g id="edge41" class="edge">
<title>Node35&#45;&gt;Node34</title>
<path fill="none" stroke="#9a32cd" stroke-dasharray="5,2" d="M399.37,-751.94C436.31,-746.63 481.02,-739.79 521,-732.55 527.68,-731.34 534.73,-729.96 541.63,-728.55"/>
<polygon fill="#9a32cd" stroke="#9a32cd" points="399.07,-748.45 389.66,-753.33 400.06,-755.38 399.07,-748.45"/>
<text text-anchor="middle" x="463.5" y="-753.55" font-family="Helvetica,sans-Serif" font-size="10.00"> mCamera</text>
</g>
</g>
</svg>
