<?xml version="1.0" encoding="UTF-8" standalone="no"?>
<!DOCTYPE svg PUBLIC "-//W3C//DTD SVG 1.1//EN"
 "http://www.w3.org/Graphics/SVG/1.1/DTD/svg11.dtd">
<!-- Generated by graphviz version 7.0.5 (20221223.1930)
 -->
<!-- Title: JUTGamePadLongPress Pages: 1 -->
<svg width="323pt" height="173pt"
 viewBox="0.00 0.00 322.50 173.00" xmlns="http://www.w3.org/2000/svg" xmlns:xlink="http://www.w3.org/1999/xlink">
<g id="graph0" class="graph" transform="scale(1 1) rotate(0) translate(4 169)">
<title>JUTGamePadLongPress</title>
<!-- Node1 -->
<g id="node1" class="node">
<title>Node1</title>
<g id="a_node1"><a xlink:title=" ">
<polygon fill="#999999" stroke="#666666" points="152.5,-19 26.5,-19 26.5,0 152.5,0 152.5,-19"/>
<text text-anchor="middle" x="89.5" y="-7" font-family="Helvetica,sans-Serif" font-size="10.00">JUTGamePadLongPress</text>
</a>
</g>
</g>
<!-- Node2 -->
<g id="node2" class="node">
<title>Node2</title>
<g id="a_node2"><a xlink:href="classJSUList.html" target="_top" xlink:title=" ">
<polygon fill="white" stroke="#666666" points="179,-86.5 0,-86.5 0,-67.5 179,-67.5 179,-86.5"/>
<text text-anchor="middle" x="89.5" y="-74.5" font-family="Helvetica,sans-Serif" font-size="10.00">JSUList&lt; JUTGamePadLongPress &gt;</text>
</a>
</g>
</g>
<!-- Node2&#45;&gt;Node1 -->
<g id="edge1" class="edge">
<title>Node2&#45;&gt;Node1</title>
<path fill="none" stroke="#9a32cd" stroke-dasharray="5,2" d="M89.5,-55.74C89.5,-43.48 89.5,-28.47 89.5,-19.19"/>
<polygon fill="#9a32cd" stroke="#9a32cd" points="86,-55.65 89.5,-65.65 93,-55.65 86,-55.65"/>
<text text-anchor="middle" x="117.5" y="-40" font-family="Helvetica,sans-Serif" font-size="10.00"> sPatternList</text>
</g>
<!-- Node3 -->
<g id="node3" class="node">
<title>Node3</title>
<g id="a_node3"><a xlink:href="structJSUPtrList.html" target="_top" xlink:title=" ">
<polygon fill="white" stroke="#666666" points="213,-165 148,-165 148,-146 213,-146 213,-165"/>
<text text-anchor="middle" x="180.5" y="-153" font-family="Helvetica,sans-Serif" font-size="10.00">JSUPtrList</text>
</a>
</g>
</g>
<!-- Node3&#45;&gt;Node2 -->
<g id="edge2" class="edge">
<title>Node3&#45;&gt;Node2</title>
<path fill="none" stroke="#63b8ff" d="M161.5,-138.53C142.86,-122.86 115.12,-99.54 100.1,-86.91"/>
<polygon fill="#63b8ff" stroke="#63b8ff" points="159,-140.99 168.9,-144.75 163.5,-135.64 159,-140.99"/>
</g>
<!-- Node4 -->
<g id="node4" class="node">
<title>Node4</title>
<g id="a_node4"><a xlink:href="structJSUPtrLink.html" target="_top" xlink:title=" ">
<polygon fill="white" stroke="#666666" points="265.5,-86.5 197.5,-86.5 197.5,-67.5 265.5,-67.5 265.5,-86.5"/>
<text text-anchor="middle" x="231.5" y="-74.5" font-family="Helvetica,sans-Serif" font-size="10.00">JSUPtrLink</text>
</a>
</g>
</g>
<!-- Node3&#45;&gt;Node4 -->
<g id="edge4" class="edge">
<title>Node3&#45;&gt;Node4</title>
<path fill="none" stroke="#9a32cd" stroke-dasharray="5,2" d="M174.26,-134.55C172.56,-125.25 172.38,-114.42 177.5,-106 182.77,-97.34 191.68,-91.23 200.76,-86.99"/>
<polygon fill="#9a32cd" stroke="#9a32cd" points="170.83,-135.25 176.7,-144.07 177.61,-133.52 170.83,-135.25"/>
<text text-anchor="middle" x="191.5" y="-114.5" font-family="Helvetica,sans-Serif" font-size="10.00"> mList</text>
</g>
<!-- Node4&#45;&gt;Node3 -->
<g id="edge3" class="edge">
<title>Node4&#45;&gt;Node3</title>
<path fill="none" stroke="#9a32cd" stroke-dasharray="5,2" d="M225.17,-97.3C221.46,-107.02 216.18,-118.69 209.5,-128 204.73,-134.65 198.06,-140.89 192.32,-145.64"/>
<polygon fill="#9a32cd" stroke="#9a32cd" points="228.38,-98.72 228.4,-88.13 221.78,-96.4 228.38,-98.72"/>
<text text-anchor="middle" x="237.5" y="-120" font-family="Helvetica,sans-Serif" font-size="10.00"> mHead</text>
<text text-anchor="middle" x="237.5" y="-109" font-family="Helvetica,sans-Serif" font-size="10.00">mTail</text>
</g>
<!-- Node4&#45;&gt;Node4 -->
<g id="edge5" class="edge">
<title>Node4&#45;&gt;Node4</title>
<path fill="none" stroke="#9a32cd" stroke-dasharray="5,2" d="M276.69,-82.16C280.87,-81.1 283.5,-79.38 283.5,-77 283.5,-72.89 275.63,-70.74 265.51,-70.55"/>
<polygon fill="#9a32cd" stroke="#9a32cd" points="276.55,-78.66 267.01,-83.28 277.35,-85.61 276.55,-78.66"/>
<text text-anchor="middle" x="299" y="-80" font-family="Helvetica,sans-Serif" font-size="10.00"> mNext</text>
<text text-anchor="middle" x="299" y="-69" font-family="Helvetica,sans-Serif" font-size="10.00">mPrev</text>
</g>
</g>
</svg>
