<?xml version="1.0" encoding="UTF-8" standalone="no"?>
<!DOCTYPE svg PUBLIC "-//W3C//DTD SVG 1.1//EN"
 "http://www.w3.org/Graphics/SVG/1.1/DTD/svg11.dtd">
<!-- Generated by graphviz version 7.0.5 (20221223.1930)
 -->
<!-- Title: node_process_profile_definition Pages: 1 -->
<svg width="239pt" height="170pt"
 viewBox="0.00 0.00 239.00 170.00" xmlns="http://www.w3.org/2000/svg" xmlns:xlink="http://www.w3.org/1999/xlink">
<g id="graph0" class="graph" transform="scale(1 1) rotate(0) translate(4 166)">
<title>node_process_profile_definition</title>
<!-- Node1 -->
<g id="node1" class="node">
<title>Node1</title>
<g id="a_node1"><a xlink:title=" ">
<polygon fill="#999999" stroke="#666666" points="135.5,-30 27.5,-30 27.5,0 135.5,0 135.5,-30"/>
<text text-anchor="start" x="35.5" y="-18" font-family="Helvetica,sans-Serif" font-size="10.00">node_process_profile</text>
<text text-anchor="middle" x="81.5" y="-7" font-family="Helvetica,sans-Serif" font-size="10.00">_definition</text>
</a>
</g>
</g>
<!-- Node2 -->
<g id="node2" class="node">
<title>Node2</title>
<g id="a_node2"><a xlink:href="structprocess__profile__definition.html" target="_top" xlink:title=" ">
<polygon fill="white" stroke="#666666" points="231,-96 106,-96 106,-77 231,-77 231,-96"/>
<text text-anchor="middle" x="168.5" y="-84" font-family="Helvetica,sans-Serif" font-size="10.00">process_profile_definition</text>
</a>
</g>
</g>
<!-- Node2&#45;&gt;Node1 -->
<g id="edge1" class="edge">
<title>Node2&#45;&gt;Node1</title>
<path fill="none" stroke="#9a32cd" stroke-dasharray="5,2" d="M148.61,-69.61C133.77,-57.76 113.69,-41.72 99.37,-30.27"/>
<polygon fill="#9a32cd" stroke="#9a32cd" points="146.3,-72.25 156.3,-75.75 150.67,-66.78 146.3,-72.25"/>
<text text-anchor="middle" x="149.5" y="-51" font-family="Helvetica,sans-Serif" font-size="10.00"> mBase</text>
</g>
<!-- Node3 -->
<g id="node3" class="node">
<title>Node3</title>
<g id="a_node3"><a xlink:href="structprocess__method__class.html" target="_top" xlink:title=" ">
<polygon fill="white" stroke="#666666" points="117,-162 0,-162 0,-143 117,-143 117,-162"/>
<text text-anchor="middle" x="58.5" y="-150" font-family="Helvetica,sans-Serif" font-size="10.00">process_method_class</text>
</a>
</g>
</g>
<!-- Node3&#45;&gt;Node1 -->
<g id="edge3" class="edge">
<title>Node3&#45;&gt;Node1</title>
<path fill="none" stroke="#9a32cd" stroke-dasharray="5,2" d="M53.68,-131.59C50.79,-116.45 48.39,-95.2 52.5,-77 56.32,-60.07 65.42,-42.33 72.41,-30.37"/>
<polygon fill="#9a32cd" stroke="#9a32cd" points="50.23,-132.16 55.77,-141.18 57.07,-130.67 50.23,-132.16"/>
<text text-anchor="middle" x="75" y="-84" font-family="Helvetica,sans-Serif" font-size="10.00"> mSubMtd</text>
</g>
<!-- Node3&#45;&gt;Node2 -->
<g id="edge2" class="edge">
<title>Node3&#45;&gt;Node2</title>
<path fill="none" stroke="#9a32cd" stroke-dasharray="5,2" d="M83.55,-136.92C105.05,-124.42 135.33,-106.8 153.33,-96.32"/>
<polygon fill="#9a32cd" stroke="#9a32cd" points="81.99,-133.79 75.1,-141.84 85.51,-139.84 81.99,-133.79"/>
<text text-anchor="middle" x="142" y="-117" font-family="Helvetica,sans-Serif" font-size="10.00"> mSubMtd</text>
</g>
</g>
</svg>
