<?xml version="1.0" encoding="UTF-8" standalone="no"?>
<!DOCTYPE svg PUBLIC "-//W3C//DTD SVG 1.1//EN"
 "http://www.w3.org/Graphics/SVG/1.1/DTD/svg11.dtd">
<!-- Generated by graphviz version 7.0.5 (20221223.1930)
 -->
<!-- Title: JMessage::TSequenceProcessor Pages: 1 -->
<svg width="322pt" height="148pt"
 viewBox="0.00 0.00 321.50 148.00" xmlns="http://www.w3.org/2000/svg" xmlns:xlink="http://www.w3.org/1999/xlink">
<g id="graph0" class="graph" transform="scale(1 1) rotate(0) translate(4 144)">
<title>JMessage::TSequenceProcessor</title>
<!-- Node1 -->
<g id="node1" class="node">
<title>Node1</title>
<g id="a_node1"><a xlink:title=" ">
<polygon fill="#999999" stroke="#666666" points="233,-85 73,-85 73,-66 233,-66 233,-85"/>
<text text-anchor="middle" x="153" y="-73" font-family="Helvetica,sans-Serif" font-size="10.00">JMessage::TSequenceProcessor</text>
</a>
</g>
</g>
<!-- Node3 -->
<g id="node3" class="node">
<title>Node3</title>
<g id="a_node3"><a xlink:href="structjmessage__string__tSequenceProcessor.html" target="_top" xlink:title=" ">
<polygon fill="white" stroke="#666666" points="140,-30 0,-30 0,0 140,0 140,-30"/>
<text text-anchor="start" x="8" y="-18" font-family="Helvetica,sans-Serif" font-size="10.00">jmessage_string_tSequence</text>
<text text-anchor="middle" x="70" y="-7" font-family="Helvetica,sans-Serif" font-size="10.00">Processor</text>
</a>
</g>
</g>
<!-- Node1&#45;&gt;Node3 -->
<g id="edge2" class="edge">
<title>Node1&#45;&gt;Node3</title>
<path fill="none" stroke="#63b8ff" d="M131.1,-59.06C118.52,-50.2 102.82,-39.13 90.49,-30.44"/>
<polygon fill="#63b8ff" stroke="#63b8ff" points="128.97,-61.84 139.16,-64.74 133,-56.12 128.97,-61.84"/>
</g>
<!-- Node4 -->
<g id="node4" class="node">
<title>Node4</title>
<g id="a_node4"><a xlink:href="structjmessage__tSequenceProcessor.html" target="_top" xlink:title=" ">
<polygon fill="white" stroke="#666666" points="313.5,-24.5 158.5,-24.5 158.5,-5.5 313.5,-5.5 313.5,-24.5"/>
<text text-anchor="middle" x="236" y="-12.5" font-family="Helvetica,sans-Serif" font-size="10.00">jmessage_tSequenceProcessor</text>
</a>
</g>
</g>
<!-- Node1&#45;&gt;Node4 -->
<g id="edge3" class="edge">
<title>Node1&#45;&gt;Node4</title>
<path fill="none" stroke="#63b8ff" d="M174.94,-59.04C190.35,-48.17 210.43,-34.02 223.28,-24.97"/>
<polygon fill="#63b8ff" stroke="#63b8ff" points="173,-56.12 166.84,-64.74 177.03,-61.84 173,-56.12"/>
</g>
<!-- Node2 -->
<g id="node2" class="node">
<title>Node2</title>
<g id="a_node2"><a xlink:href="structJMessage_1_1TProcessor.html" target="_top" xlink:title=" ">
<polygon fill="white" stroke="#666666" points="211,-140 95,-140 95,-121 211,-121 211,-140"/>
<text text-anchor="middle" x="153" y="-128" font-family="Helvetica,sans-Serif" font-size="10.00">JMessage::TProcessor</text>
</a>
</g>
</g>
<!-- Node2&#45;&gt;Node1 -->
<g id="edge1" class="edge">
<title>Node2&#45;&gt;Node1</title>
<path fill="none" stroke="#63b8ff" d="M153,-109.35C153,-101.1 153,-91.97 153,-85.44"/>
<polygon fill="#63b8ff" stroke="#63b8ff" points="149.5,-109.23 153,-119.23 156.5,-109.23 149.5,-109.23"/>
</g>
</g>
</svg>
