<?xml version="1.0" encoding="UTF-8" standalone="no"?>
<!DOCTYPE svg PUBLIC "-//W3C//DTD SVG 1.1//EN"
 "http://www.w3.org/Graphics/SVG/1.1/DTD/svg11.dtd">
<!-- Generated by graphviz version 7.0.5 (20221223.1930)
 -->
<!-- Title: J3DDeformer Pages: 1 -->
<svg width="310pt" height="281pt"
 viewBox="0.00 0.00 309.50 281.00" xmlns="http://www.w3.org/2000/svg" xmlns:xlink="http://www.w3.org/1999/xlink">
<g id="graph0" class="graph" transform="scale(1 1) rotate(0) translate(4 277)">
<title>J3DDeformer</title>
<!-- Node1 -->
<g id="node1" class="node">
<title>Node1</title>
<g id="a_node1"><a xlink:title=" ">
<polygon fill="#999999" stroke="#666666" points="233.5,-151 159.5,-151 159.5,-132 233.5,-132 233.5,-151"/>
<text text-anchor="middle" x="196.5" y="-139" font-family="Helvetica,sans-Serif" font-size="10.00">J3DDeformer</text>
</a>
</g>
</g>
<!-- Node3 -->
<g id="node3" class="node">
<title>Node3</title>
<g id="a_node3"><a xlink:href="structJ3DCluster.html" target="_top" xlink:title=" ">
<polygon fill="white" stroke="#666666" points="190,-85 125,-85 125,-66 190,-66 190,-85"/>
<text text-anchor="middle" x="157.5" y="-73" font-family="Helvetica,sans-Serif" font-size="10.00">J3DCluster</text>
</a>
</g>
</g>
<!-- Node1&#45;&gt;Node3 -->
<g id="edge3" class="edge">
<title>Node1&#45;&gt;Node3</title>
<path fill="none" stroke="#9a32cd" stroke-dasharray="5,2" d="M181.5,-122.66C179.38,-119.84 177.31,-116.89 175.5,-114 169.68,-104.69 164.43,-93.22 161.12,-85.43"/>
<polygon fill="#9a32cd" stroke="#9a32cd" points="178.67,-124.73 187.64,-130.37 184.14,-120.37 178.67,-124.73"/>
<text text-anchor="middle" x="201" y="-106" font-family="Helvetica,sans-Serif" font-size="10.00"> mDeformer</text>
</g>
<!-- Node2 -->
<g id="node2" class="node">
<title>Node2</title>
<g id="a_node2"><a xlink:href="structJ3DDeformData.html" target="_top" xlink:title=" ">
<polygon fill="white" stroke="#666666" points="195.5,-19 109.5,-19 109.5,0 195.5,0 195.5,-19"/>
<text text-anchor="middle" x="152.5" y="-7" font-family="Helvetica,sans-Serif" font-size="10.00">J3DDeformData</text>
</a>
</g>
</g>
<!-- Node2&#45;&gt;Node1 -->
<g id="edge1" class="edge">
<title>Node2&#45;&gt;Node1</title>
<path fill="none" stroke="#9a32cd" stroke-dasharray="5,2" d="M206.46,-20.81C214.34,-24.64 221.47,-29.86 226.5,-37 246.2,-64.98 240.57,-82.8 226.5,-114 223.3,-121.1 217.16,-127.05 211.26,-131.51"/>
<polygon fill="#9a32cd" stroke="#9a32cd" points="207.79,-17.57 197.2,-17.12 205.19,-24.08 207.79,-17.57"/>
<text text-anchor="middle" x="270" y="-73" font-family="Helvetica,sans-Serif" font-size="10.00"> mDeformData</text>
</g>
<!-- Node3&#45;&gt;Node2 -->
<g id="edge2" class="edge">
<title>Node3&#45;&gt;Node2</title>
<path fill="none" stroke="#9a32cd" stroke-dasharray="5,2" d="M154.22,-54.56C153.94,-52.35 153.69,-50.13 153.5,-48 152.64,-38.27 152.44,-27.07 152.43,-19.46"/>
<polygon fill="#9a32cd" stroke="#9a32cd" points="150.72,-54.83 155.67,-64.2 157.65,-53.79 150.72,-54.83"/>
<text text-anchor="middle" x="190" y="-40" font-family="Helvetica,sans-Serif" font-size="10.00"> mClusterPointer</text>
</g>
<!-- Node4 -->
<g id="node4" class="node">
<title>Node4</title>
<g id="a_node4"><a xlink:href="structJ3DClusterKey.html" target="_top" xlink:title=" ">
<polygon fill="white" stroke="#666666" points="81,-85 0,-85 0,-66 81,-66 81,-85"/>
<text text-anchor="middle" x="40.5" y="-73" font-family="Helvetica,sans-Serif" font-size="10.00">J3DClusterKey</text>
</a>
</g>
</g>
<!-- Node4&#45;&gt;Node2 -->
<g id="edge4" class="edge">
<title>Node4&#45;&gt;Node2</title>
<path fill="none" stroke="#9a32cd" stroke-dasharray="5,2" d="M46.58,-55.36C49.53,-48.72 53.73,-41.76 59.5,-37 73.49,-25.46 92.22,-18.94 109.22,-15.26"/>
<polygon fill="#9a32cd" stroke="#9a32cd" points="43.44,-53.76 43.24,-64.35 50,-56.19 43.44,-53.76"/>
<text text-anchor="middle" x="104" y="-40" font-family="Helvetica,sans-Serif" font-size="10.00"> mClusterKeyPointer</text>
</g>
<!-- Node5 -->
<g id="node5" class="node">
<title>Node5</title>
<g id="a_node5"><a xlink:href="structJ3DAnmCluster.html" target="_top" xlink:title=" ">
<polygon fill="white" stroke="#666666" points="239,-217 154,-217 154,-198 239,-198 239,-217"/>
<text text-anchor="middle" x="196.5" y="-205" font-family="Helvetica,sans-Serif" font-size="10.00">J3DAnmCluster</text>
</a>
</g>
</g>
<!-- Node5&#45;&gt;Node1 -->
<g id="edge5" class="edge">
<title>Node5&#45;&gt;Node1</title>
<path fill="none" stroke="#9a32cd" stroke-dasharray="5,2" d="M196.5,-186.18C196.5,-174.44 196.5,-160.27 196.5,-151.32"/>
<polygon fill="#9a32cd" stroke="#9a32cd" points="193,-186.09 196.5,-196.09 200,-186.09 193,-186.09"/>
<text text-anchor="middle" x="227.5" y="-172" font-family="Helvetica,sans-Serif" font-size="10.00"> mAnmCluster</text>
</g>
<!-- Node6 -->
<g id="node6" class="node">
<title>Node6</title>
<g id="a_node6"><a xlink:href="classJ3DAnmBase.html" target="_top" xlink:title=" ">
<polygon fill="white" stroke="#666666" points="235,-273 158,-273 158,-254 235,-254 235,-273"/>
<text text-anchor="middle" x="196.5" y="-261" font-family="Helvetica,sans-Serif" font-size="10.00">J3DAnmBase</text>
</a>
</g>
</g>
<!-- Node6&#45;&gt;Node5 -->
<g id="edge6" class="edge">
<title>Node6&#45;&gt;Node5</title>
<path fill="none" stroke="#63b8ff" d="M196.5,-242.11C196.5,-233.52 196.5,-223.97 196.5,-217.25"/>
<polygon fill="#63b8ff" stroke="#63b8ff" points="193,-242.07 196.5,-252.07 200,-242.07 193,-242.07"/>
</g>
</g>
</svg>
