<?xml version="1.0" encoding="UTF-8" standalone="no"?>
<!DOCTYPE svg PUBLIC "-//W3C//DTD SVG 1.1//EN"
 "http://www.w3.org/Graphics/SVG/1.1/DTD/svg11.dtd">
<!-- Generated by graphviz version 7.0.5 (20221223.1930)
 -->
<!-- Title: renderingPlusDoor_c Pages: 1 -->
<svg width="166pt" height="522pt"
 viewBox="0.00 0.00 166.00 522.00" xmlns="http://www.w3.org/2000/svg" xmlns:xlink="http://www.w3.org/1999/xlink">
<g id="graph0" class="graph" transform="scale(1 1) rotate(0) translate(4 518)">
<title>renderingPlusDoor_c</title>
<!-- Node1 -->
<g id="node1" class="node">
<title>Node1</title>
<g id="a_node1"><a xlink:title=" ">
<polygon fill="#999999" stroke="#666666" points="132.5,-184 25.5,-184 25.5,-165 132.5,-165 132.5,-184"/>
<text text-anchor="middle" x="79" y="-172" font-family="Helvetica,sans-Serif" font-size="10.00">renderingPlusDoor_c</text>
</a>
</g>
</g>
<!-- Node8 -->
<g id="node8" class="node">
<title>Node8</title>
<g id="a_node8"><a xlink:href="structrenderingPlusDoorAndCursor__c.html" target="_top" xlink:title=" ">
<polygon fill="white" stroke="#666666" points="155,-129 3,-129 3,-110 155,-110 155,-129"/>
<text text-anchor="middle" x="79" y="-117" font-family="Helvetica,sans-Serif" font-size="10.00">renderingPlusDoorAndCursor_c</text>
</a>
</g>
</g>
<!-- Node1&#45;&gt;Node8 -->
<g id="edge7" class="edge">
<title>Node1&#45;&gt;Node8</title>
<path fill="none" stroke="#63b8ff" d="M79,-153.35C79,-145.1 79,-135.97 79,-129.44"/>
<polygon fill="#63b8ff" stroke="#63b8ff" points="75.5,-153.23 79,-163.23 82.5,-153.23 75.5,-153.23"/>
</g>
<!-- Node2 -->
<g id="node2" class="node">
<title>Node2</title>
<g id="a_node2"><a xlink:href="structrenderingDAmap__c.html" target="_top" xlink:title=" ">
<polygon fill="white" stroke="#666666" points="128.5,-239 29.5,-239 29.5,-220 128.5,-220 128.5,-239"/>
<text text-anchor="middle" x="79" y="-227" font-family="Helvetica,sans-Serif" font-size="10.00">renderingDAmap_c</text>
</a>
</g>
</g>
<!-- Node2&#45;&gt;Node1 -->
<g id="edge1" class="edge">
<title>Node2&#45;&gt;Node1</title>
<path fill="none" stroke="#63b8ff" d="M79,-208.35C79,-200.1 79,-190.97 79,-184.44"/>
<polygon fill="#63b8ff" stroke="#63b8ff" points="75.5,-208.23 79,-218.23 82.5,-208.23 75.5,-208.23"/>
</g>
<!-- Node3 -->
<g id="node3" class="node">
<title>Node3</title>
<g id="a_node3"><a xlink:href="structdRenderingFDAmap__c.html" target="_top" xlink:title=" ">
<polygon fill="white" stroke="#666666" points="136,-294 22,-294 22,-275 136,-275 136,-294"/>
<text text-anchor="middle" x="79" y="-282" font-family="Helvetica,sans-Serif" font-size="10.00">dRenderingFDAmap_c</text>
</a>
</g>
</g>
<!-- Node3&#45;&gt;Node2 -->
<g id="edge2" class="edge">
<title>Node3&#45;&gt;Node2</title>
<path fill="none" stroke="#63b8ff" d="M79,-263.35C79,-255.1 79,-245.97 79,-239.44"/>
<polygon fill="#63b8ff" stroke="#63b8ff" points="75.5,-263.23 79,-273.23 82.5,-263.23 75.5,-263.23"/>
</g>
<!-- Node4 -->
<g id="node4" class="node">
<title>Node4</title>
<g id="a_node4"><a xlink:href="structdRenderingMap__c.html" target="_top" xlink:title=" ">
<polygon fill="white" stroke="#666666" points="126.5,-349 31.5,-349 31.5,-330 126.5,-330 126.5,-349"/>
<text text-anchor="middle" x="79" y="-337" font-family="Helvetica,sans-Serif" font-size="10.00">dRenderingMap_c</text>
</a>
</g>
</g>
<!-- Node4&#45;&gt;Node3 -->
<g id="edge3" class="edge">
<title>Node4&#45;&gt;Node3</title>
<path fill="none" stroke="#63b8ff" d="M79,-318.35C79,-310.1 79,-300.97 79,-294.44"/>
<polygon fill="#63b8ff" stroke="#63b8ff" points="75.5,-318.23 79,-328.23 82.5,-318.23 75.5,-318.23"/>
</g>
<!-- Node5 -->
<g id="node5" class="node">
<title>Node5</title>
<g id="a_node5"><a xlink:href="structdDrawPathWithNormalPattern__c.html" target="_top" xlink:title=" ">
<polygon fill="white" stroke="#666666" points="158,-404 0,-404 0,-385 158,-385 158,-404"/>
<text text-anchor="middle" x="79" y="-392" font-family="Helvetica,sans-Serif" font-size="10.00">dDrawPathWithNormalPattern_c</text>
</a>
</g>
</g>
<!-- Node5&#45;&gt;Node4 -->
<g id="edge4" class="edge">
<title>Node5&#45;&gt;Node4</title>
<path fill="none" stroke="#63b8ff" d="M79,-373.35C79,-365.1 79,-355.97 79,-349.44"/>
<polygon fill="#63b8ff" stroke="#63b8ff" points="75.5,-373.23 79,-383.23 82.5,-373.23 75.5,-373.23"/>
</g>
<!-- Node6 -->
<g id="node6" class="node">
<title>Node6</title>
<g id="a_node6"><a xlink:href="structdDrawPath__c.html" target="_top" xlink:title=" ">
<polygon fill="white" stroke="#666666" points="116.5,-459 41.5,-459 41.5,-440 116.5,-440 116.5,-459"/>
<text text-anchor="middle" x="79" y="-447" font-family="Helvetica,sans-Serif" font-size="10.00">dDrawPath_c</text>
</a>
</g>
</g>
<!-- Node6&#45;&gt;Node5 -->
<g id="edge5" class="edge">
<title>Node6&#45;&gt;Node5</title>
<path fill="none" stroke="#63b8ff" d="M79,-428.35C79,-420.1 79,-410.97 79,-404.44"/>
<polygon fill="#63b8ff" stroke="#63b8ff" points="75.5,-428.23 79,-438.23 82.5,-428.23 75.5,-428.23"/>
</g>
<!-- Node7 -->
<g id="node7" class="node">
<title>Node7</title>
<g id="a_node7"><a xlink:href="structdDlst__base__c.html" target="_top" xlink:title=" ">
<polygon fill="white" stroke="#666666" points="117,-514 41,-514 41,-495 117,-495 117,-514"/>
<text text-anchor="middle" x="79" y="-502" font-family="Helvetica,sans-Serif" font-size="10.00">dDlst_base_c</text>
</a>
</g>
</g>
<!-- Node7&#45;&gt;Node6 -->
<g id="edge6" class="edge">
<title>Node7&#45;&gt;Node6</title>
<path fill="none" stroke="#63b8ff" d="M79,-483.35C79,-475.1 79,-465.97 79,-459.44"/>
<polygon fill="#63b8ff" stroke="#63b8ff" points="75.5,-483.23 79,-493.23 82.5,-483.23 75.5,-483.23"/>
</g>
<!-- Node9 -->
<g id="node9" class="node">
<title>Node9</title>
<g id="a_node9"><a xlink:href="structrenderingAmap__c.html" target="_top" xlink:title=" ">
<polygon fill="white" stroke="#666666" points="125,-74 33,-74 33,-55 125,-55 125,-74"/>
<text text-anchor="middle" x="79" y="-62" font-family="Helvetica,sans-Serif" font-size="10.00">renderingAmap_c</text>
</a>
</g>
</g>
<!-- Node8&#45;&gt;Node9 -->
<g id="edge8" class="edge">
<title>Node8&#45;&gt;Node9</title>
<path fill="none" stroke="#63b8ff" d="M79,-98.35C79,-90.1 79,-80.97 79,-74.44"/>
<polygon fill="#63b8ff" stroke="#63b8ff" points="75.5,-98.23 79,-108.23 82.5,-98.23 75.5,-98.23"/>
</g>
<!-- Node10 -->
<g id="node10" class="node">
<title>Node10</title>
<g id="a_node10"><a xlink:href="structdMap__c.html" target="_top" xlink:title=" ">
<polygon fill="white" stroke="#666666" points="104.5,-19 53.5,-19 53.5,0 104.5,0 104.5,-19"/>
<text text-anchor="middle" x="79" y="-7" font-family="Helvetica,sans-Serif" font-size="10.00">dMap_c</text>
</a>
</g>
</g>
<!-- Node9&#45;&gt;Node10 -->
<g id="edge9" class="edge">
<title>Node9&#45;&gt;Node10</title>
<path fill="none" stroke="#63b8ff" d="M79,-43.35C79,-35.1 79,-25.97 79,-19.44"/>
<polygon fill="#63b8ff" stroke="#63b8ff" points="75.5,-43.23 79,-53.23 82.5,-43.23 75.5,-43.23"/>
</g>
</g>
</svg>
