<?xml version="1.0" encoding="UTF-8" standalone="no"?>
<!DOCTYPE svg PUBLIC "-//W3C//DTD SVG 1.1//EN"
 "http://www.w3.org/Graphics/SVG/1.1/DTD/svg11.dtd">
<!-- Generated by graphviz version 7.0.5 (20221223.1930)
 -->
<!-- Title: JASMutexLock Pages: 1 -->
<svg width="560pt" height="247pt"
 viewBox="0.00 0.00 559.50 247.00" xmlns="http://www.w3.org/2000/svg" xmlns:xlink="http://www.w3.org/1999/xlink">
<g id="graph0" class="graph" transform="scale(1 1) rotate(0) translate(4 243)">
<title>JASMutexLock</title>
<!-- Node1 -->
<g id="node1" class="node">
<title>Node1</title>
<g id="a_node1"><a xlink:title=" ">
<polygon fill="#999999" stroke="#666666" points="83,-162 0,-162 0,-143 83,-143 83,-162"/>
<text text-anchor="middle" x="41.5" y="-150" font-family="Helvetica,sans-Serif" font-size="10.00">JASMutexLock</text>
</a>
</g>
</g>
<!-- Node2 -->
<g id="node2" class="node">
<title>Node2</title>
<g id="a_node2"><a xlink:href="structOSMutex.html" target="_top" xlink:title=" ">
<polygon fill="white" stroke="#666666" points="296,-239 239,-239 239,-220 296,-220 296,-239"/>
<text text-anchor="middle" x="267.5" y="-227" font-family="Helvetica,sans-Serif" font-size="10.00">OSMutex</text>
</a>
</g>
</g>
<!-- Node2&#45;&gt;Node1 -->
<g id="edge1" class="edge">
<title>Node2&#45;&gt;Node1</title>
<path fill="none" stroke="#9a32cd" stroke-dasharray="5,2" d="M227.44,-225.08C197.73,-221.61 156.64,-214.86 122.5,-202 95.96,-192.01 68.3,-173.37 53.15,-162.34"/>
<polygon fill="#9a32cd" stroke="#9a32cd" points="226.8,-228.53 237.12,-226.12 227.55,-221.57 226.8,-228.53"/>
<text text-anchor="middle" x="141" y="-188.5" font-family="Helvetica,sans-Serif" font-size="10.00"> mMutex</text>
</g>
<!-- Node4 -->
<g id="node4" class="node">
<title>Node4</title>
<g id="a_node4"><a xlink:href="structOSThread.html" target="_top" xlink:title=" ">
<polygon fill="white" stroke="#666666" points="405,-96 344,-96 344,-77 405,-77 405,-96"/>
<text text-anchor="middle" x="374.5" y="-84" font-family="Helvetica,sans-Serif" font-size="10.00">OSThread</text>
</a>
</g>
</g>
<!-- Node2&#45;&gt;Node4 -->
<g id="edge8" class="edge">
<title>Node2&#45;&gt;Node4</title>
<path fill="none" stroke="#9a32cd" stroke-dasharray="5,2" d="M251.06,-211.28C235.9,-193.23 217.79,-164.54 232.5,-143 257.35,-106.6 309.94,-94.07 343.68,-89.76"/>
<polygon fill="#9a32cd" stroke="#9a32cd" points="248.26,-213.39 257.53,-218.53 253.48,-208.73 248.26,-213.39"/>
<text text-anchor="middle" x="247" y="-150" font-family="Helvetica,sans-Serif" font-size="10.00"> mutex</text>
</g>
<!-- Node7 -->
<g id="node7" class="node">
<title>Node7</title>
<g id="a_node7"><a xlink:href="structOSMutexQueue.html" target="_top" xlink:title=" ">
<polygon fill="white" stroke="#666666" points="187.5,-162 101.5,-162 101.5,-143 187.5,-143 187.5,-162"/>
<text text-anchor="middle" x="144.5" y="-150" font-family="Helvetica,sans-Serif" font-size="10.00">OSMutexQueue</text>
</a>
</g>
</g>
<!-- Node2&#45;&gt;Node7 -->
<g id="edge10" class="edge">
<title>Node2&#45;&gt;Node7</title>
<path fill="none" stroke="#9a32cd" stroke-dasharray="5,2" d="M227.85,-220.47C213.7,-216.41 198.15,-210.48 185.5,-202 169.75,-191.44 156.66,-173.17 149.76,-162.33"/>
<polygon fill="#9a32cd" stroke="#9a32cd" points="226.79,-223.81 237.35,-222.96 228.56,-217.04 226.79,-223.81"/>
<text text-anchor="middle" x="197.5" y="-194" font-family="Helvetica,sans-Serif" font-size="10.00"> head</text>
<text text-anchor="middle" x="197.5" y="-183" font-family="Helvetica,sans-Serif" font-size="10.00">tail</text>
</g>
<!-- Node8 -->
<g id="node8" class="node">
<title>Node8</title>
<g id="a_node8"><a xlink:href="structOSMutexLink.html" target="_top" xlink:title=" ">
<polygon fill="white" stroke="#666666" points="346.5,-162 270.5,-162 270.5,-143 346.5,-143 346.5,-162"/>
<text text-anchor="middle" x="308.5" y="-150" font-family="Helvetica,sans-Serif" font-size="10.00">OSMutexLink</text>
</a>
</g>
</g>
<!-- Node2&#45;&gt;Node8 -->
<g id="edge13" class="edge">
<title>Node2&#45;&gt;Node8</title>
<path fill="none" stroke="#9a32cd" stroke-dasharray="5,2" d="M280.87,-210.86C282.85,-207.96 284.8,-204.94 286.5,-202 294.18,-188.71 301.15,-172.26 305.1,-162.34"/>
<polygon fill="#9a32cd" stroke="#9a32cd" points="278.2,-208.58 275.17,-218.73 283.87,-212.68 278.2,-208.58"/>
<text text-anchor="middle" x="308" y="-194" font-family="Helvetica,sans-Serif" font-size="10.00"> next</text>
<text text-anchor="middle" x="308" y="-183" font-family="Helvetica,sans-Serif" font-size="10.00">prev</text>
</g>
<!-- Node3 -->
<g id="node3" class="node">
<title>Node3</title>
<g id="a_node3"><a xlink:href="structOSThreadQueue.html" target="_top" xlink:title=" ">
<polygon fill="white" stroke="#666666" points="528,-19 439,-19 439,0 528,0 528,-19"/>
<text text-anchor="middle" x="483.5" y="-7" font-family="Helvetica,sans-Serif" font-size="10.00">OSThreadQueue</text>
</a>
</g>
</g>
<!-- Node3&#45;&gt;Node2 -->
<g id="edge2" class="edge">
<title>Node3&#45;&gt;Node2</title>
<path fill="none" stroke="#9a32cd" stroke-dasharray="5,2" d="M499.32,-28.39C501.03,-31.12 502.5,-34.03 503.5,-37 521.15,-89.68 537.04,-117.71 503.5,-162 478.32,-195.26 353.36,-216.57 296.16,-224.73"/>
<polygon fill="#9a32cd" stroke="#9a32cd" points="502.3,-26.53 493.49,-20.65 496.71,-30.74 502.3,-26.53"/>
<text text-anchor="middle" x="537" y="-117" font-family="Helvetica,sans-Serif" font-size="10.00"> queue</text>
</g>
<!-- Node3&#45;&gt;Node4 -->
<g id="edge5" class="edge">
<title>Node3&#45;&gt;Node4</title>
<path fill="none" stroke="#9a32cd" stroke-dasharray="5,2" d="M433.2,-23.38C424.47,-26.95 415.85,-31.42 408.5,-37 394.41,-47.7 383.91,-65.91 378.53,-76.72"/>
<polygon fill="#9a32cd" stroke="#9a32cd" points="434.23,-26.73 442.41,-20 431.82,-20.16 434.23,-26.73"/>
<text text-anchor="middle" x="433" y="-51" font-family="Helvetica,sans-Serif" font-size="10.00"> join_queue</text>
<text text-anchor="middle" x="433" y="-40" font-family="Helvetica,sans-Serif" font-size="10.00">queue</text>
</g>
<!-- Node4&#45;&gt;Node2 -->
<g id="edge11" class="edge">
<title>Node4&#45;&gt;Node2</title>
<path fill="none" stroke="#9a32cd" stroke-dasharray="5,2" d="M371.84,-107.54C369.21,-123.04 364.28,-144.7 355.5,-162 345.07,-182.55 340.64,-187.78 322.5,-202 313.24,-209.26 301.67,-215.21 291.54,-219.61"/>
<polygon fill="#9a32cd" stroke="#9a32cd" points="375.29,-108.1 373.31,-97.7 368.37,-107.07 375.29,-108.1"/>
<text text-anchor="middle" x="377.5" y="-150" font-family="Helvetica,sans-Serif" font-size="10.00"> thread</text>
</g>
<!-- Node4&#45;&gt;Node3 -->
<g id="edge3" class="edge">
<title>Node4&#45;&gt;Node3</title>
<path fill="none" stroke="#9a32cd" stroke-dasharray="5,2" d="M416.41,-80.18C432.03,-76.41 448.99,-69.98 461.5,-59 473.45,-48.51 479.28,-30.22 481.81,-19.35"/>
<polygon fill="#9a32cd" stroke="#9a32cd" points="415.91,-76.7 406.83,-82.17 417.34,-83.56 415.91,-76.7"/>
<text text-anchor="middle" x="487.5" y="-51" font-family="Helvetica,sans-Serif" font-size="10.00"> head</text>
<text text-anchor="middle" x="487.5" y="-40" font-family="Helvetica,sans-Serif" font-size="10.00">tail</text>
</g>
<!-- Node6 -->
<g id="node6" class="node">
<title>Node6</title>
<g id="a_node6"><a xlink:href="structOSThreadLink.html" target="_top" xlink:title=" ">
<polygon fill="white" stroke="#666666" points="352.5,-19 272.5,-19 272.5,0 352.5,0 352.5,-19"/>
<text text-anchor="middle" x="312.5" y="-7" font-family="Helvetica,sans-Serif" font-size="10.00">OSThreadLink</text>
</a>
</g>
</g>
<!-- Node4&#45;&gt;Node6 -->
<g id="edge7" class="edge">
<title>Node4&#45;&gt;Node6</title>
<path fill="none" stroke="#9a32cd" stroke-dasharray="5,2" d="M365.28,-66.67C360.17,-57.23 353.28,-45.93 345.5,-37 339.71,-30.35 332.1,-24.11 325.64,-19.36"/>
<polygon fill="#9a32cd" stroke="#9a32cd" points="362.04,-68.01 369.72,-75.31 368.26,-64.81 362.04,-68.01"/>
<text text-anchor="middle" x="371" y="-51" font-family="Helvetica,sans-Serif" font-size="10.00"> next</text>
<text text-anchor="middle" x="371" y="-40" font-family="Helvetica,sans-Serif" font-size="10.00">prev</text>
</g>
<!-- Node5 -->
<g id="node5" class="node">
<title>Node5</title>
<g id="a_node5"><a xlink:href="structOSContext.html" target="_top" xlink:title=" ">
<polygon fill="white" stroke="#666666" points="494.5,-162 430.5,-162 430.5,-143 494.5,-143 494.5,-162"/>
<text text-anchor="middle" x="462.5" y="-150" font-family="Helvetica,sans-Serif" font-size="10.00">OSContext</text>
</a>
</g>
</g>
<!-- Node5&#45;&gt;Node4 -->
<g id="edge4" class="edge">
<title>Node5&#45;&gt;Node4</title>
<path fill="none" stroke="#9a32cd" stroke-dasharray="5,2" d="M441.04,-135.89C423.95,-123.46 400.64,-106.51 386.63,-96.32"/>
<polygon fill="#9a32cd" stroke="#9a32cd" points="438.89,-138.66 449.04,-141.71 443.01,-133 438.89,-138.66"/>
<text text-anchor="middle" x="440.5" y="-117" font-family="Helvetica,sans-Serif" font-size="10.00"> context</text>
</g>
<!-- Node6&#45;&gt;Node4 -->
<g id="edge6" class="edge">
<title>Node6&#45;&gt;Node4</title>
<path fill="none" stroke="#9a32cd" stroke-dasharray="5,2" d="M270.12,-25.12C265.52,-28.35 261.45,-32.26 258.5,-37 253.33,-45.3 252.4,-51.35 258.5,-59 268.96,-72.12 312.88,-79.26 343.57,-82.73"/>
<polygon fill="#9a32cd" stroke="#9a32cd" points="271.84,-28.17 278.79,-20.17 268.37,-22.09 271.84,-28.17"/>
<text text-anchor="middle" x="302" y="-51" font-family="Helvetica,sans-Serif" font-size="10.00"> active_threads_link</text>
<text text-anchor="middle" x="302" y="-40" font-family="Helvetica,sans-Serif" font-size="10.00">link</text>
</g>
<!-- Node7&#45;&gt;Node4 -->
<g id="edge9" class="edge">
<title>Node7&#45;&gt;Node4</title>
<path fill="none" stroke="#9a32cd" stroke-dasharray="5,2" d="M134.34,-132.46C132.32,-125.93 132.01,-119.02 136.5,-114 150.08,-98.82 282.38,-91.35 343.65,-88.68"/>
<polygon fill="#9a32cd" stroke="#9a32cd" points="130.98,-133.52 138.19,-141.28 137.39,-130.72 130.98,-133.52"/>
<text text-anchor="middle" x="173" y="-117" font-family="Helvetica,sans-Serif" font-size="10.00"> owned_mutexes</text>
</g>
<!-- Node8&#45;&gt;Node2 -->
<g id="edge12" class="edge">
<title>Node8&#45;&gt;Node2</title>
<path fill="none" stroke="#9a32cd" stroke-dasharray="5,2" d="M278.01,-168.86C274.21,-172.03 270.85,-175.73 268.5,-180 261.68,-192.4 263.38,-209.41 265.35,-219.64"/>
<polygon fill="#9a32cd" stroke="#9a32cd" points="279.87,-171.83 286.11,-163.27 275.89,-166.06 279.87,-171.83"/>
<text text-anchor="middle" x="277.5" y="-188.5" font-family="Helvetica,sans-Serif" font-size="10.00"> link</text>
</g>
</g>
</svg>
