<?xml version="1.0" encoding="UTF-8" standalone="no"?>
<!DOCTYPE svg PUBLIC "-//W3C//DTD SVG 1.1//EN"
 "http://www.w3.org/Graphics/SVG/1.1/DTD/svg11.dtd">
<!-- Generated by graphviz version 7.0.5 (20221223.1930)
 -->
<!-- Title: cBgS_PolyInfo Pages: 1 -->
<svg width="687pt" height="397pt"
 viewBox="0.00 0.00 687.00 397.00" xmlns="http://www.w3.org/2000/svg" xmlns:xlink="http://www.w3.org/1999/xlink">
<g id="graph0" class="graph" transform="scale(1 1) rotate(0) translate(4 393)">
<title>cBgS_PolyInfo</title>
<!-- Node1 -->
<g id="node1" class="node">
<title>Node1</title>
<g id="a_node1"><a xlink:title=" ">
<polygon fill="#999999" stroke="#666666" points="81,-130 0,-130 0,-111 81,-111 81,-130"/>
<text text-anchor="middle" x="40.5" y="-118" font-family="Helvetica,sans-Serif" font-size="10.00">cBgS_PolyInfo</text>
</a>
</g>
</g>
<!-- Node2 -->
<g id="node2" class="node">
<title>Node2</title>
<g id="a_node2"><a xlink:href="classcBgS__GndChk.html" target="_top" xlink:title=" ">
<polygon fill="white" stroke="#666666" points="204,-287 123,-287 123,-268 204,-268 204,-287"/>
<text text-anchor="middle" x="163.5" y="-275" font-family="Helvetica,sans-Serif" font-size="10.00">cBgS_GndChk</text>
</a>
</g>
</g>
<!-- Node1&#45;&gt;Node2 -->
<g id="edge1" class="edge">
<title>Node1&#45;&gt;Node2</title>
<path fill="none" stroke="#63b8ff" d="M55.85,-139.12C81.68,-172.64 135.16,-242.02 154.93,-267.68"/>
<polygon fill="#63b8ff" stroke="#63b8ff" points="58.87,-137.3 49.99,-131.52 53.33,-141.58 58.87,-137.3"/>
</g>
<!-- Node11 -->
<g id="node11" class="node">
<title>Node11</title>
<g id="a_node11"><a xlink:href="classcBgS__LinChk.html" target="_top" xlink:title=" ">
<polygon fill="white" stroke="#666666" points="202,-186 125,-186 125,-167 202,-167 202,-186"/>
<text text-anchor="middle" x="163.5" y="-174" font-family="Helvetica,sans-Serif" font-size="10.00">cBgS_LinChk</text>
</a>
</g>
</g>
<!-- Node1&#45;&gt;Node11 -->
<g id="edge10" class="edge">
<title>Node1&#45;&gt;Node11</title>
<path fill="none" stroke="#63b8ff" d="M70.87,-135.4C84.76,-142.32 101.64,-150.54 117,-157.5 123.71,-160.54 131.04,-163.68 137.83,-166.51"/>
<polygon fill="#63b8ff" stroke="#63b8ff" points="72.76,-132.44 62.25,-131.09 69.63,-138.69 72.76,-132.44"/>
</g>
<!-- Node22 -->
<g id="node22" class="node">
<title>Node22</title>
<g id="a_node22"><a xlink:href="classdBgS__AcchCir.html" target="_top" xlink:title=" ">
<polygon fill="white" stroke="#666666" points="203.5,-149 123.5,-149 123.5,-130 203.5,-130 203.5,-149"/>
<text text-anchor="middle" x="163.5" y="-137" font-family="Helvetica,sans-Serif" font-size="10.00">dBgS_AcchCir</text>
</a>
</g>
</g>
<!-- Node1&#45;&gt;Node22 -->
<g id="edge21" class="edge">
<title>Node1&#45;&gt;Node22</title>
<path fill="none" stroke="#63b8ff" d="M92.81,-128.56C103.05,-130.17 113.66,-131.83 123.41,-133.36"/>
<polygon fill="#63b8ff" stroke="#63b8ff" points="93.37,-125.1 82.95,-127.01 92.29,-132.02 93.37,-125.1"/>
</g>
<!-- Node23 -->
<g id="node23" class="node">
<title>Node23</title>
<g id="a_node23"><a xlink:href="classdBgS__RoofChk.html" target="_top" xlink:title=" ">
<polygon fill="white" stroke="#666666" points="205,-112 122,-112 122,-93 205,-93 205,-112"/>
<text text-anchor="middle" x="163.5" y="-100" font-family="Helvetica,sans-Serif" font-size="10.00">dBgS_RoofChk</text>
</a>
</g>
</g>
<!-- Node1&#45;&gt;Node23 -->
<g id="edge22" class="edge">
<title>Node1&#45;&gt;Node23</title>
<path fill="none" stroke="#63b8ff" d="M92.65,-112.89C102.37,-111.45 112.42,-109.95 121.76,-108.56"/>
<polygon fill="#63b8ff" stroke="#63b8ff" points="92.33,-109.4 82.95,-114.33 93.36,-116.32 92.33,-109.4"/>
</g>
<!-- Node25 -->
<g id="node25" class="node">
<title>Node25</title>
<g id="a_node25"><a xlink:href="classdBgS__SphChk.html" target="_top" xlink:title=" ">
<polygon fill="white" stroke="#666666" points="203.5,-75 123.5,-75 123.5,-56 203.5,-56 203.5,-75"/>
<text text-anchor="middle" x="163.5" y="-63" font-family="Helvetica,sans-Serif" font-size="10.00">dBgS_SphChk</text>
</a>
</g>
</g>
<!-- Node1&#45;&gt;Node25 -->
<g id="edge24" class="edge">
<title>Node1&#45;&gt;Node25</title>
<path fill="none" stroke="#63b8ff" d="M70.52,-105.61C84.46,-98.63 101.47,-90.37 117,-83.5 123.22,-80.75 129.99,-77.96 136.37,-75.43"/>
<polygon fill="#63b8ff" stroke="#63b8ff" points="69.24,-102.34 61.89,-109.97 72.4,-108.58 69.24,-102.34"/>
</g>
<!-- Node26 -->
<g id="node26" class="node">
<title>Node26</title>
<g id="a_node26"><a xlink:href="classdBgS__SplGrpChk.html" target="_top" xlink:title=" ">
<polygon fill="white" stroke="#666666" points="210,-38 117,-38 117,-19 210,-19 210,-38"/>
<text text-anchor="middle" x="163.5" y="-26" font-family="Helvetica,sans-Serif" font-size="10.00">dBgS_SplGrpChk</text>
</a>
</g>
</g>
<!-- Node1&#45;&gt;Node26 -->
<g id="edge25" class="edge">
<title>Node1&#45;&gt;Node26</title>
<path fill="none" stroke="#63b8ff" d="M56.67,-101.89C70.84,-85.49 93.33,-61.88 117,-46.5 121.7,-43.45 127,-40.77 132.28,-38.48"/>
<polygon fill="#63b8ff" stroke="#63b8ff" points="54.08,-99.54 50.31,-109.44 59.43,-104.05 54.08,-99.54"/>
</g>
<!-- Node3 -->
<g id="node3" class="node">
<title>Node3</title>
<g id="a_node3"><a xlink:href="classdBgS__GndChk.html" target="_top" xlink:title=" ">
<polygon fill="white" stroke="#666666" points="337.5,-333 256.5,-333 256.5,-314 337.5,-314 337.5,-333"/>
<text text-anchor="middle" x="297" y="-321" font-family="Helvetica,sans-Serif" font-size="10.00">dBgS_GndChk</text>
</a>
</g>
</g>
<!-- Node2&#45;&gt;Node3 -->
<g id="edge2" class="edge">
<title>Node2&#45;&gt;Node3</title>
<path fill="none" stroke="#63b8ff" d="M203.64,-291.19C224.16,-298.37 248.84,-307 267.52,-313.54"/>
<polygon fill="#63b8ff" stroke="#63b8ff" points="205.06,-287.98 194.46,-287.98 202.75,-294.59 205.06,-287.98"/>
</g>
<!-- Node4 -->
<g id="node4" class="node">
<title>Node4</title>
<g id="a_node4"><a xlink:href="classdBgS__CamGndChk.html" target="_top" xlink:title=" ">
<polygon fill="white" stroke="#666666" points="497.5,-389 396.5,-389 396.5,-370 497.5,-370 497.5,-389"/>
<text text-anchor="middle" x="447" y="-377" font-family="Helvetica,sans-Serif" font-size="10.00">dBgS_CamGndChk</text>
</a>
</g>
</g>
<!-- Node3&#45;&gt;Node4 -->
<g id="edge3" class="edge">
<title>Node3&#45;&gt;Node4</title>
<path fill="none" stroke="#63b8ff" d="M328.22,-338.04C344.53,-345.58 365.13,-354.63 384,-361.5 391.9,-364.38 400.49,-367.11 408.69,-369.54"/>
<polygon fill="#63b8ff" stroke="#63b8ff" points="330.1,-335.05 319.56,-333.98 327.13,-341.39 330.1,-335.05"/>
</g>
<!-- Node6 -->
<g id="node6" class="node">
<title>Node6</title>
<g id="a_node6"><a xlink:href="classdBgS__LinkGndChk.html" target="_top" xlink:title=" ">
<polygon fill="white" stroke="#666666" points="497,-352 397,-352 397,-333 497,-333 497,-352"/>
<text text-anchor="middle" x="447" y="-340" font-family="Helvetica,sans-Serif" font-size="10.00">dBgS_LinkGndChk</text>
</a>
</g>
</g>
<!-- Node3&#45;&gt;Node6 -->
<g id="edge5" class="edge">
<title>Node3&#45;&gt;Node6</title>
<path fill="none" stroke="#63b8ff" d="M348.66,-330C364.19,-332 381.26,-334.19 396.7,-336.17"/>
<polygon fill="#63b8ff" stroke="#63b8ff" points="349.53,-326.59 339.16,-328.78 348.64,-333.53 349.53,-326.59"/>
</g>
<!-- Node7 -->
<g id="node7" class="node">
<title>Node7</title>
<g id="a_node7"><a xlink:href="classdBgS__ObjGndChk.html" target="_top" xlink:title=" ">
<polygon fill="white" stroke="#666666" points="495,-315 399,-315 399,-296 495,-296 495,-315"/>
<text text-anchor="middle" x="447" y="-303" font-family="Helvetica,sans-Serif" font-size="10.00">dBgS_ObjGndChk</text>
</a>
</g>
</g>
<!-- Node3&#45;&gt;Node7 -->
<g id="edge6" class="edge">
<title>Node3&#45;&gt;Node7</title>
<path fill="none" stroke="#63b8ff" d="M349.03,-317.29C365.1,-315.34 382.78,-313.19 398.59,-311.27"/>
<polygon fill="#63b8ff" stroke="#63b8ff" points="348.67,-313.81 339.16,-318.49 349.51,-320.76 348.67,-313.81"/>
</g>
<!-- Node5 -->
<g id="node5" class="node">
<title>Node5</title>
<g id="a_node5"><a xlink:href="classdBgS__CamGndChk__Wtr.html" target="_top" xlink:title=" ">
<polygon fill="white" stroke="#666666" points="673.5,-389 551.5,-389 551.5,-370 673.5,-370 673.5,-389"/>
<text text-anchor="middle" x="612.5" y="-377" font-family="Helvetica,sans-Serif" font-size="10.00">dBgS_CamGndChk_Wtr</text>
</a>
</g>
</g>
<!-- Node4&#45;&gt;Node5 -->
<g id="edge4" class="edge">
<title>Node4&#45;&gt;Node5</title>
<path fill="none" stroke="#63b8ff" d="M509.24,-379.5C522.97,-379.5 537.52,-379.5 551.21,-379.5"/>
<polygon fill="#63b8ff" stroke="#63b8ff" points="509.46,-376 499.46,-379.5 509.46,-383 509.46,-376"/>
</g>
<!-- Node8 -->
<g id="node8" class="node">
<title>Node8</title>
<g id="a_node8"><a xlink:href="classdBgS__ObjGndChk__All.html" target="_top" xlink:title=" ">
<polygon fill="white" stroke="#666666" points="669,-352 556,-352 556,-333 669,-333 669,-352"/>
<text text-anchor="middle" x="612.5" y="-340" font-family="Helvetica,sans-Serif" font-size="10.00">dBgS_ObjGndChk_All</text>
</a>
</g>
</g>
<!-- Node7&#45;&gt;Node8 -->
<g id="edge7" class="edge">
<title>Node7&#45;&gt;Node8</title>
<path fill="none" stroke="#63b8ff" d="M502.87,-317.92C523.93,-322.68 547.66,-328.05 567.56,-332.56"/>
<polygon fill="#63b8ff" stroke="#63b8ff" points="503.82,-314.54 493.29,-315.75 502.27,-321.37 503.82,-314.54"/>
</g>
<!-- Node9 -->
<g id="node9" class="node">
<title>Node9</title>
<g id="a_node9"><a xlink:href="classdBgS__ObjGndChk__Spl.html" target="_top" xlink:title=" ">
<polygon fill="white" stroke="#666666" points="670.5,-315 554.5,-315 554.5,-296 670.5,-296 670.5,-315"/>
<text text-anchor="middle" x="612.5" y="-303" font-family="Helvetica,sans-Serif" font-size="10.00">dBgS_ObjGndChk_Spl</text>
</a>
</g>
</g>
<!-- Node7&#45;&gt;Node9 -->
<g id="edge8" class="edge">
<title>Node7&#45;&gt;Node9</title>
<path fill="none" stroke="#63b8ff" d="M506.36,-305.5C521.9,-305.5 538.68,-305.5 554.17,-305.5"/>
<polygon fill="#63b8ff" stroke="#63b8ff" points="506.8,-302 496.8,-305.5 506.8,-309 506.8,-302"/>
</g>
<!-- Node10 -->
<g id="node10" class="node">
<title>Node10</title>
<g id="a_node10"><a xlink:href="classdBgS__ObjGndChk__Wtr.html" target="_top" xlink:title=" ">
<polygon fill="white" stroke="#666666" points="670.5,-278 554.5,-278 554.5,-259 670.5,-259 670.5,-278"/>
<text text-anchor="middle" x="612.5" y="-266" font-family="Helvetica,sans-Serif" font-size="10.00">dBgS_ObjGndChk_Wtr</text>
</a>
</g>
</g>
<!-- Node7&#45;&gt;Node10 -->
<g id="edge9" class="edge">
<title>Node7&#45;&gt;Node10</title>
<path fill="none" stroke="#63b8ff" d="M502.87,-293.08C523.93,-288.32 547.66,-282.95 567.56,-278.44"/>
<polygon fill="#63b8ff" stroke="#63b8ff" points="502.27,-289.63 493.29,-295.25 503.82,-296.46 502.27,-289.63"/>
</g>
<!-- Node12 -->
<g id="node12" class="node">
<title>Node12</title>
<g id="a_node12"><a xlink:href="classdBgS__LinChk.html" target="_top" xlink:title=" ">
<polygon fill="white" stroke="#666666" points="335.5,-167 258.5,-167 258.5,-148 335.5,-148 335.5,-167"/>
<text text-anchor="middle" x="297" y="-155" font-family="Helvetica,sans-Serif" font-size="10.00">dBgS_LinChk</text>
</a>
</g>
</g>
<!-- Node11&#45;&gt;Node12 -->
<g id="edge11" class="edge">
<title>Node11&#45;&gt;Node12</title>
<path fill="none" stroke="#63b8ff" d="M213.27,-169.45C228.15,-167.3 244.28,-164.97 258.31,-162.95"/>
<polygon fill="#63b8ff" stroke="#63b8ff" points="213.08,-165.94 203.68,-170.84 214.08,-172.87 213.08,-165.94"/>
</g>
<!-- Node13 -->
<g id="node13" class="node">
<title>Node13</title>
<g id="a_node13"><a xlink:href="classdBgS__ArrowLinChk.html" target="_top" xlink:title=" ">
<polygon fill="white" stroke="#666666" points="498,-278 396,-278 396,-259 498,-259 498,-278"/>
<text text-anchor="middle" x="447" y="-266" font-family="Helvetica,sans-Serif" font-size="10.00">dBgS_ArrowLinChk</text>
</a>
</g>
</g>
<!-- Node12&#45;&gt;Node13 -->
<g id="edge12" class="edge">
<title>Node12&#45;&gt;Node13</title>
<path fill="none" stroke="#63b8ff" d="M310.7,-176.51C325.77,-197.61 352.81,-231.23 384,-250.5 389.15,-253.68 394.88,-256.32 400.73,-258.51"/>
<polygon fill="#63b8ff" stroke="#63b8ff" points="313.74,-174.75 305.17,-168.52 307.98,-178.73 313.74,-174.75"/>
</g>
<!-- Node14 -->
<g id="node14" class="node">
<title>Node14</title>
<g id="a_node14"><a xlink:href="classdBgS__BombLinChk.html" target="_top" xlink:title=" ">
<polygon fill="white" stroke="#666666" points="498,-241 396,-241 396,-222 498,-222 498,-241"/>
<text text-anchor="middle" x="447" y="-229" font-family="Helvetica,sans-Serif" font-size="10.00">dBgS_BombLinChk</text>
</a>
</g>
</g>
<!-- Node12&#45;&gt;Node14 -->
<g id="edge13" class="edge">
<title>Node12&#45;&gt;Node14</title>
<path fill="none" stroke="#63b8ff" d="M319.37,-173.98C336.17,-186.28 360.58,-202.76 384,-213.5 390.72,-216.58 398.1,-219.27 405.35,-221.57"/>
<polygon fill="#63b8ff" stroke="#63b8ff" points="321.74,-171.38 311.63,-168.2 317.55,-176.99 321.74,-171.38"/>
</g>
<!-- Node15 -->
<g id="node15" class="node">
<title>Node15</title>
<g id="a_node15"><a xlink:href="classdBgS__BoomerangLinChk.html" target="_top" xlink:title=" ">
<polygon fill="white" stroke="#666666" points="510,-204 384,-204 384,-185 510,-185 510,-204"/>
<text text-anchor="middle" x="447" y="-192" font-family="Helvetica,sans-Serif" font-size="10.00">dBgS_BoomerangLinChk</text>
</a>
</g>
</g>
<!-- Node12&#45;&gt;Node15 -->
<g id="edge14" class="edge">
<title>Node12&#45;&gt;Node15</title>
<path fill="none" stroke="#63b8ff" d="M346.7,-169.68C365.92,-174.48 387.73,-179.93 406.01,-184.5"/>
<polygon fill="#63b8ff" stroke="#63b8ff" points="347.75,-166.33 337.2,-167.3 346.05,-173.12 347.75,-166.33"/>
</g>
<!-- Node16 -->
<g id="node16" class="node">
<title>Node16</title>
<g id="a_node16"><a xlink:href="classdBgS__CamLinChk.html" target="_top" xlink:title=" ">
<polygon fill="white" stroke="#666666" points="495.5,-167 398.5,-167 398.5,-148 495.5,-148 495.5,-167"/>
<text text-anchor="middle" x="447" y="-155" font-family="Helvetica,sans-Serif" font-size="10.00">dBgS_CamLinChk</text>
</a>
</g>
</g>
<!-- Node12&#45;&gt;Node16 -->
<g id="edge15" class="edge">
<title>Node12&#45;&gt;Node16</title>
<path fill="none" stroke="#63b8ff" d="M346.82,-157.5C363.36,-157.5 381.79,-157.5 398.24,-157.5"/>
<polygon fill="#63b8ff" stroke="#63b8ff" points="347.24,-154 337.24,-157.5 347.24,-161 347.24,-154"/>
</g>
<!-- Node18 -->
<g id="node18" class="node">
<title>Node18</title>
<g id="a_node18"><a xlink:href="classdBgS__HorseLinChk.html" target="_top" xlink:title=" ">
<polygon fill="white" stroke="#666666" points="498.5,-130 395.5,-130 395.5,-111 498.5,-111 498.5,-130"/>
<text text-anchor="middle" x="447" y="-118" font-family="Helvetica,sans-Serif" font-size="10.00">dBgS_HorseLinChk</text>
</a>
</g>
</g>
<!-- Node12&#45;&gt;Node18 -->
<g id="edge17" class="edge">
<title>Node12&#45;&gt;Node18</title>
<path fill="none" stroke="#63b8ff" d="M346.7,-145.32C365.92,-140.52 387.73,-135.07 406.01,-130.5"/>
<polygon fill="#63b8ff" stroke="#63b8ff" points="346.05,-141.88 337.2,-147.7 347.75,-148.67 346.05,-141.88"/>
</g>
<!-- Node19 -->
<g id="node19" class="node">
<title>Node19</title>
<g id="a_node19"><a xlink:href="classdBgS__LinkLinChk.html" target="_top" xlink:title=" ">
<polygon fill="white" stroke="#666666" points="494.5,-93 399.5,-93 399.5,-74 494.5,-74 494.5,-93"/>
<text text-anchor="middle" x="447" y="-81" font-family="Helvetica,sans-Serif" font-size="10.00">dBgS_LinkLinChk</text>
</a>
</g>
</g>
<!-- Node12&#45;&gt;Node19 -->
<g id="edge18" class="edge">
<title>Node12&#45;&gt;Node19</title>
<path fill="none" stroke="#63b8ff" d="M319.37,-141.02C336.17,-128.72 360.58,-112.24 384,-101.5 390.72,-98.42 398.1,-95.73 405.35,-93.43"/>
<polygon fill="#63b8ff" stroke="#63b8ff" points="317.55,-138.01 311.63,-146.8 321.74,-143.62 317.55,-138.01"/>
</g>
<!-- Node20 -->
<g id="node20" class="node">
<title>Node20</title>
<g id="a_node20"><a xlink:href="classdBgS__ObjLinChk.html" target="_top" xlink:title=" ">
<polygon fill="white" stroke="#666666" points="493,-56 401,-56 401,-37 493,-37 493,-56"/>
<text text-anchor="middle" x="447" y="-44" font-family="Helvetica,sans-Serif" font-size="10.00">dBgS_ObjLinChk</text>
</a>
</g>
</g>
<!-- Node12&#45;&gt;Node20 -->
<g id="edge19" class="edge">
<title>Node12&#45;&gt;Node20</title>
<path fill="none" stroke="#63b8ff" d="M323.43,-141.4C331.79,-135.42 340.79,-128.21 348,-120.5 368.22,-98.9 360.29,-82.19 384,-64.5 389.03,-60.75 394.83,-57.77 400.81,-55.42"/>
<polygon fill="#63b8ff" stroke="#63b8ff" points="321.58,-138.42 315.29,-146.95 325.53,-144.2 321.58,-138.42"/>
</g>
<!-- Node21 -->
<g id="node21" class="node">
<title>Node21</title>
<g id="a_node21"><a xlink:href="classdBgS__RopeLinChk.html" target="_top" xlink:title=" ">
<polygon fill="white" stroke="#666666" points="496.5,-19 397.5,-19 397.5,0 496.5,0 496.5,-19"/>
<text text-anchor="middle" x="447" y="-7" font-family="Helvetica,sans-Serif" font-size="10.00">dBgS_RopeLinChk</text>
</a>
</g>
</g>
<!-- Node12&#45;&gt;Node21 -->
<g id="edge20" class="edge">
<title>Node12&#45;&gt;Node21</title>
<path fill="none" stroke="#63b8ff" d="M325.74,-141.21C333.75,-135.46 341.95,-128.44 348,-120.5 374.88,-85.26 351.33,-57.45 384,-27.5 387.88,-23.94 392.43,-21.08 397.27,-18.78"/>
<polygon fill="#63b8ff" stroke="#63b8ff" points="323.87,-138.25 317.49,-146.71 327.75,-144.07 323.87,-138.25"/>
</g>
<!-- Node17 -->
<g id="node17" class="node">
<title>Node17</title>
<g id="a_node17"><a xlink:href="classdBgS__CamLinChk__NorWtr.html" target="_top" xlink:title=" ">
<polygon fill="white" stroke="#666666" points="679,-167 546,-167 546,-148 679,-148 679,-167"/>
<text text-anchor="middle" x="612.5" y="-155" font-family="Helvetica,sans-Serif" font-size="10.00">dBgS_CamLinChk_NorWtr</text>
</a>
</g>
</g>
<!-- Node16&#45;&gt;Node17 -->
<g id="edge16" class="edge">
<title>Node16&#45;&gt;Node17</title>
<path fill="none" stroke="#63b8ff" d="M507.03,-157.5C519.61,-157.5 532.97,-157.5 545.78,-157.5"/>
<polygon fill="#63b8ff" stroke="#63b8ff" points="507.24,-154 497.24,-157.5 507.24,-161 507.24,-154"/>
</g>
<!-- Node24 -->
<g id="node24" class="node">
<title>Node24</title>
<g id="a_node24"><a xlink:href="classdBgS__LinkRoofChk.html" target="_top" xlink:title=" ">
<polygon fill="white" stroke="#666666" points="348,-112 246,-112 246,-93 348,-93 348,-112"/>
<text text-anchor="middle" x="297" y="-100" font-family="Helvetica,sans-Serif" font-size="10.00">dBgS_LinkRoofChk</text>
</a>
</g>
</g>
<!-- Node23&#45;&gt;Node24 -->
<g id="edge23" class="edge">
<title>Node23&#45;&gt;Node24</title>
<path fill="none" stroke="#63b8ff" d="M216.81,-102.5C226.39,-102.5 236.37,-102.5 245.88,-102.5"/>
<polygon fill="#63b8ff" stroke="#63b8ff" points="216.9,-99 206.9,-102.5 216.9,-106 216.9,-99"/>
</g>
<!-- Node27 -->
<g id="node27" class="node">
<title>Node27</title>
<g id="a_node27"><a xlink:href="classdBgS__WtrChk.html" target="_top" xlink:title=" ">
<polygon fill="white" stroke="#666666" points="336,-38 258,-38 258,-19 336,-19 336,-38"/>
<text text-anchor="middle" x="297" y="-26" font-family="Helvetica,sans-Serif" font-size="10.00">dBgS_WtrChk</text>
</a>
</g>
</g>
<!-- Node26&#45;&gt;Node27 -->
<g id="edge26" class="edge">
<title>Node26&#45;&gt;Node27</title>
<path fill="none" stroke="#63b8ff" d="M221.91,-28.5C234,-28.5 246.47,-28.5 257.66,-28.5"/>
<polygon fill="#63b8ff" stroke="#63b8ff" points="222.01,-25 212.01,-28.5 222.01,-32 222.01,-25"/>
</g>
</g>
</svg>
