<?xml version="1.0" encoding="UTF-8" standalone="no"?>
<!DOCTYPE svg PUBLIC "-//W3C//DTD SVG 1.1//EN"
 "http://www.w3.org/Graphics/SVG/1.1/DTD/svg11.dtd">
<!-- Generated by graphviz version 7.0.5 (20221223.1930)
 -->
<!-- Title: cCcD_SphAttr Pages: 1 -->
<svg width="222pt" height="359pt"
 viewBox="0.00 0.00 221.68 359.00" xmlns="http://www.w3.org/2000/svg" xmlns:xlink="http://www.w3.org/1999/xlink">
<g id="graph0" class="graph" transform="scale(1 1) rotate(0) translate(4 355)">
<title>cCcD_SphAttr</title>
<!-- Node1 -->
<g id="node1" class="node">
<title>Node1</title>
<g id="a_node1"><a xlink:title=" ">
<polygon fill="#999999" stroke="#666666" points="183.68,-19 104.68,-19 104.68,0 183.68,0 183.68,-19"/>
<text text-anchor="middle" x="144.18" y="-7" font-family="Helvetica,sans-Serif" font-size="10.00">cCcD_SphAttr</text>
</a>
</g>
</g>
<!-- Node2 -->
<g id="node2" class="node">
<title>Node2</title>
<g id="a_node2"><a xlink:href="structcCcD__ShapeAttr.html" target="_top" xlink:title=" ">
<polygon fill="white" stroke="#666666" points="152.68,-75 63.68,-75 63.68,-56 152.68,-56 152.68,-75"/>
<text text-anchor="middle" x="108.18" y="-63" font-family="Helvetica,sans-Serif" font-size="10.00">cCcD_ShapeAttr</text>
</a>
</g>
</g>
<!-- Node2&#45;&gt;Node1 -->
<g id="edge1" class="edge">
<title>Node2&#45;&gt;Node1</title>
<path fill="none" stroke="#63b8ff" d="M120.39,-46.19C126.45,-37.09 133.5,-26.51 138.35,-19.25"/>
<polygon fill="#63b8ff" stroke="#63b8ff" points="117.6,-44.06 114.97,-54.32 123.42,-47.94 117.6,-44.06"/>
</g>
<!-- Node3 -->
<g id="node3" class="node">
<title>Node3</title>
<g id="a_node3"><a xlink:href="structcXyz.html" target="_top" xlink:title=" ">
<polygon fill="white" stroke="#666666" points="139.18,-260.5 101.18,-260.5 101.18,-241.5 139.18,-241.5 139.18,-260.5"/>
<text text-anchor="middle" x="120.18" y="-248.5" font-family="Helvetica,sans-Serif" font-size="10.00">cXyz</text>
</a>
</g>
</g>
<!-- Node3&#45;&gt;Node2 -->
<g id="edge2" class="edge">
<title>Node3&#45;&gt;Node2</title>
<path fill="none" stroke="#9a32cd" stroke-dasharray="5,2" d="M92.74,-235.71C64.3,-219.16 21.49,-188.98 3.18,-149 -13.51,-112.53 40.31,-87.68 76.96,-75.39"/>
<polygon fill="#9a32cd" stroke="#9a32cd" points="90.75,-238.6 101.18,-240.44 94.17,-232.5 90.75,-238.6"/>
<text text-anchor="middle" x="40.68" y="-137" font-family="Helvetica,sans-Serif" font-size="10.00"> m_virtual_center</text>
</g>
<!-- Node3&#45;&gt;Node3 -->
<g id="edge4" class="edge">
<title>Node3&#45;&gt;Node3</title>
<path fill="none" stroke="#9a32cd" stroke-dasharray="5,2" d="M144.8,-262.67C151.8,-262.19 157.18,-258.3 157.18,-251 157.18,-240.14 145.26,-236.83 133.84,-241.07"/>
<polygon fill="#9a32cd" stroke="#9a32cd" points="145.76,-259.28 135.34,-261.17 144.67,-266.19 145.76,-259.28"/>
<text text-anchor="middle" x="178.68" y="-287" font-family="Helvetica,sans-Serif" font-size="10.00"> BaseX</text>
<text text-anchor="middle" x="178.68" y="-276" font-family="Helvetica,sans-Serif" font-size="10.00">BaseXY</text>
<text text-anchor="middle" x="178.68" y="-265" font-family="Helvetica,sans-Serif" font-size="10.00">BaseXYZ</text>
<text text-anchor="middle" x="178.68" y="-254" font-family="Helvetica,sans-Serif" font-size="10.00">BaseXZ</text>
<text text-anchor="middle" x="178.68" y="-243" font-family="Helvetica,sans-Serif" font-size="10.00">BaseY</text>
<text text-anchor="middle" x="178.68" y="-232" font-family="Helvetica,sans-Serif" font-size="10.00">BaseYZ</text>
<text text-anchor="middle" x="178.68" y="-221" font-family="Helvetica,sans-Serif" font-size="10.00">BaseZ</text>
<text text-anchor="middle" x="178.68" y="-210" font-family="Helvetica,sans-Serif" font-size="10.00">Zero</text>
</g>
<!-- Node5 -->
<g id="node5" class="node">
<title>Node5</title>
<g id="a_node5"><a xlink:href="classcM3dGAab.html" target="_top" xlink:title=" ">
<polygon fill="white" stroke="#666666" points="152.68,-149 87.68,-149 87.68,-130 152.68,-130 152.68,-149"/>
<text text-anchor="middle" x="120.18" y="-137" font-family="Helvetica,sans-Serif" font-size="10.00">cM3dGAab</text>
</a>
</g>
</g>
<!-- Node3&#45;&gt;Node5 -->
<g id="edge6" class="edge">
<title>Node3&#45;&gt;Node5</title>
<path fill="none" stroke="#9a32cd" stroke-dasharray="5,2" d="M120.18,-229.73C120.18,-205.67 120.18,-166.62 120.18,-149.28"/>
<polygon fill="#9a32cd" stroke="#9a32cd" points="116.68,-229.53 120.18,-239.53 123.68,-229.53 116.68,-229.53"/>
<text text-anchor="middle" x="134.68" y="-181" font-family="Helvetica,sans-Serif" font-size="10.00"> mMax</text>
<text text-anchor="middle" x="134.68" y="-170" font-family="Helvetica,sans-Serif" font-size="10.00">mMin</text>
</g>
<!-- Node6 -->
<g id="node6" class="node">
<title>Node6</title>
<g id="a_node6"><a xlink:href="structcM3dGSph.html" target="_top" xlink:title=" ">
<polygon fill="white" stroke="#666666" points="213.68,-112 148.68,-112 148.68,-93 213.68,-93 213.68,-112"/>
<text text-anchor="middle" x="181.18" y="-100" font-family="Helvetica,sans-Serif" font-size="10.00">cM3dGSph</text>
</a>
</g>
</g>
<!-- Node3&#45;&gt;Node6 -->
<g id="edge8" class="edge">
<title>Node3&#45;&gt;Node6</title>
<path fill="none" stroke="#9a32cd" stroke-dasharray="5,2" d="M131.3,-231.53C138.17,-219.65 146.84,-203.74 153.18,-189 164.84,-161.88 174.55,-128.2 178.83,-112.43"/>
<polygon fill="#9a32cd" stroke="#9a32cd" points="128.46,-229.46 126.39,-239.85 134.49,-233.02 128.46,-229.46"/>
<text text-anchor="middle" x="181.18" y="-175.5" font-family="Helvetica,sans-Serif" font-size="10.00"> mCenter</text>
</g>
<!-- Node4 -->
<g id="node4" class="node">
<title>Node4</title>
<g id="a_node4"><a xlink:href="structVec.html" target="_top" xlink:title=" ">
<polygon fill="white" stroke="#666666" points="137.18,-351 103.18,-351 103.18,-332 137.18,-332 137.18,-351"/>
<text text-anchor="middle" x="120.18" y="-339" font-family="Helvetica,sans-Serif" font-size="10.00">Vec</text>
</a>
</g>
</g>
<!-- Node4&#45;&gt;Node3 -->
<g id="edge3" class="edge">
<title>Node4&#45;&gt;Node3</title>
<path fill="none" stroke="#63b8ff" d="M120.18,-320.3C120.18,-301.55 120.18,-274.53 120.18,-260.77"/>
<polygon fill="#63b8ff" stroke="#63b8ff" points="116.68,-320.18 120.18,-330.18 123.68,-320.18 116.68,-320.18"/>
</g>
<!-- Node5&#45;&gt;Node2 -->
<g id="edge5" class="edge">
<title>Node5&#45;&gt;Node2</title>
<path fill="none" stroke="#9a32cd" stroke-dasharray="5,2" d="M112.91,-118.98C112.24,-116.65 111.64,-114.29 111.18,-112 108.68,-99.42 108.14,-84.54 108.08,-75.31"/>
<polygon fill="#9a32cd" stroke="#9a32cd" points="109.58,-120.04 116.11,-128.39 116.21,-117.8 109.58,-120.04"/>
<text text-anchor="middle" x="125.18" y="-100" font-family="Helvetica,sans-Serif" font-size="10.00"> mAab</text>
</g>
<!-- Node6&#45;&gt;Node1 -->
<g id="edge7" class="edge">
<title>Node6&#45;&gt;Node1</title>
<path fill="none" stroke="#63b8ff" d="M173.32,-82.16C165.43,-62.76 153.64,-33.77 147.77,-19.33"/>
<polygon fill="#63b8ff" stroke="#63b8ff" points="170.05,-83.43 177.06,-91.37 176.54,-80.79 170.05,-83.43"/>
</g>
</g>
</svg>
