<?xml version="1.0" encoding="UTF-8" standalone="no"?>
<!DOCTYPE svg PUBLIC "-//W3C//DTD SVG 1.1//EN"
 "http://www.w3.org/Graphics/SVG/1.1/DTD/svg11.dtd">
<!-- Generated by graphviz version 7.0.5 (20221223.1930)
 -->
<!-- Title: CallbackArgs Pages: 1 -->
<svg width="1419pt" height="552pt"
 viewBox="0.00 0.00 1419.00 552.09" xmlns="http://www.w3.org/2000/svg" xmlns:xlink="http://www.w3.org/1999/xlink">
<g id="graph0" class="graph" transform="scale(1 1) rotate(0) translate(4 548.09)">
<title>CallbackArgs</title>
<!-- Node1 -->
<g id="node1" class="node">
<title>Node1</title>
<g id="a_node1"><a xlink:title=" ">
<polygon fill="#999999" stroke="#666666" points="1411,-294.19 1337,-294.19 1337,-275.19 1411,-275.19 1411,-294.19"/>
<text text-anchor="middle" x="1374" y="-282.19" font-family="Helvetica,sans-Serif" font-size="10.00">CallbackArgs</text>
</a>
</g>
</g>
<!-- Node2 -->
<g id="node2" class="node">
<title>Node2</title>
<g id="a_node2"><a xlink:href="structJKRArchive.html" target="_top" xlink:title=" ">
<polygon fill="white" stroke="#666666" points="1241.5,-343.19 1173.5,-343.19 1173.5,-324.19 1241.5,-324.19 1241.5,-343.19"/>
<text text-anchor="middle" x="1207.5" y="-331.19" font-family="Helvetica,sans-Serif" font-size="10.00">JKRArchive</text>
</a>
</g>
</g>
<!-- Node2&#45;&gt;Node1 -->
<g id="edge1" class="edge">
<title>Node2&#45;&gt;Node1</title>
<path fill="none" stroke="#9a32cd" stroke-dasharray="5,2" d="M1252.62,-320.54C1279.92,-312.41 1314.42,-302.14 1339.48,-294.67"/>
<polygon fill="#9a32cd" stroke="#9a32cd" points="1251.82,-317.13 1243.24,-323.34 1253.82,-323.84 1251.82,-317.13"/>
<text text-anchor="middle" x="1297" y="-316.69" font-family="Helvetica,sans-Serif" font-size="10.00"> mArchive</text>
</g>
<!-- Node3 -->
<g id="node3" class="node">
<title>Node3</title>
<g id="a_node3"><a xlink:href="structJKRFileLoader.html" target="_top" xlink:title=" ">
<polygon fill="white" stroke="#666666" points="1014.5,-468.19 933.5,-468.19 933.5,-449.19 1014.5,-449.19 1014.5,-468.19"/>
<text text-anchor="middle" x="974" y="-456.19" font-family="Helvetica,sans-Serif" font-size="10.00">JKRFileLoader</text>
</a>
</g>
</g>
<!-- Node3&#45;&gt;Node2 -->
<g id="edge2" class="edge">
<title>Node3&#45;&gt;Node2</title>
<path fill="none" stroke="#63b8ff" d="M1025.71,-448.09C1032.65,-445.99 1039.59,-443.53 1046,-440.69 1106.6,-413.76 1169.47,-364.48 1194.85,-343.53"/>
<polygon fill="#63b8ff" stroke="#63b8ff" points="1025.02,-444.65 1016.32,-450.7 1026.89,-451.39 1025.02,-444.65"/>
</g>
<!-- Node3&#45;&gt;Node3 -->
<g id="edge34" class="edge">
<title>Node3&#45;&gt;Node3</title>
<path fill="none" stroke="#9a32cd" stroke-dasharray="5,2" d="M951.28,-479.62C954.12,-483.48 961.7,-486.19 974,-486.19 996.5,-486.19 1003.18,-477.12 994.04,-468.55"/>
<polygon fill="#9a32cd" stroke="#9a32cd" points="954.65,-480.57 953.6,-470.03 947.85,-478.92 954.65,-480.57"/>
<text text-anchor="middle" x="974" y="-489.19" font-family="Helvetica,sans-Serif" font-size="10.00"> sCurrentVolume</text>
</g>
<!-- Node4 -->
<g id="node4" class="node">
<title>Node4</title>
<g id="a_node4"><a xlink:href="classJKRDisposer.html" target="_top" xlink:title=" ">
<polygon fill="white" stroke="#666666" points="759,-437.19 685,-437.19 685,-418.19 759,-418.19 759,-437.19"/>
<text text-anchor="middle" x="722" y="-425.19" font-family="Helvetica,sans-Serif" font-size="10.00">JKRDisposer</text>
</a>
</g>
</g>
<!-- Node4&#45;&gt;Node3 -->
<g id="edge3" class="edge">
<title>Node4&#45;&gt;Node3</title>
<path fill="none" stroke="#63b8ff" d="M770.73,-434.25C779.47,-435.42 788.51,-436.61 797,-437.69 843.71,-443.63 897.45,-449.97 933.14,-454.11"/>
<polygon fill="#63b8ff" stroke="#63b8ff" points="771.37,-430.8 760.99,-432.94 770.44,-437.74 771.37,-430.8"/>
</g>
<!-- Node5 -->
<g id="node5" class="node">
<title>Node5</title>
<g id="a_node5"><a xlink:href="structJKRHeap.html" target="_top" xlink:title=" ">
<polygon fill="white" stroke="#666666" points="1003.5,-380.19 944.5,-380.19 944.5,-361.19 1003.5,-361.19 1003.5,-380.19"/>
<text text-anchor="middle" x="974" y="-368.19" font-family="Helvetica,sans-Serif" font-size="10.00">JKRHeap</text>
</a>
</g>
</g>
<!-- Node4&#45;&gt;Node5 -->
<g id="edge5" class="edge">
<title>Node4&#45;&gt;Node5</title>
<path fill="none" stroke="#63b8ff" d="M766.85,-414.66C776.73,-411.89 787.2,-409.08 797,-406.69 848.51,-394.13 909.22,-382.37 944.2,-375.89"/>
<polygon fill="#63b8ff" stroke="#63b8ff" points="766.13,-411.23 757.47,-417.33 768.05,-417.96 766.13,-411.23"/>
</g>
<!-- Node5&#45;&gt;Node2 -->
<g id="edge37" class="edge">
<title>Node5&#45;&gt;Node2</title>
<path fill="none" stroke="#9a32cd" stroke-dasharray="5,2" d="M1014.87,-365.91C1048.36,-361.71 1097.44,-355.12 1140,-347.69 1150.81,-345.8 1162.54,-343.43 1173.1,-341.19"/>
<polygon fill="#9a32cd" stroke="#9a32cd" points="1014.71,-362.41 1005.21,-367.11 1015.57,-369.35 1014.71,-362.41"/>
<text text-anchor="middle" x="1102" y="-361.69" font-family="Helvetica,sans-Serif" font-size="10.00"> mHeap</text>
</g>
<!-- Node5&#45;&gt;Node4 -->
<g id="edge4" class="edge">
<title>Node5&#45;&gt;Node4</title>
<path fill="none" stroke="#9a32cd" stroke-dasharray="5,2" d="M940.11,-384.74C923.54,-391.34 902.98,-398.81 884,-403.69 841.85,-414.52 792.15,-421 759.24,-424.45"/>
<polygon fill="#9a32cd" stroke="#9a32cd" points="941.02,-388.15 948.96,-381.14 938.38,-381.66 941.02,-388.15"/>
<text text-anchor="middle" x="840.5" y="-422.69" font-family="Helvetica,sans-Serif" font-size="10.00"> mHeap</text>
</g>
<!-- Node5&#45;&gt;Node5 -->
<g id="edge6" class="edge">
<title>Node5&#45;&gt;Node5</title>
<path fill="none" stroke="#9a32cd" stroke-dasharray="5,2" d="M951.28,-391.62C954.12,-395.48 961.7,-398.19 974,-398.19 996.5,-398.19 1003.18,-389.12 994.04,-380.55"/>
<polygon fill="#9a32cd" stroke="#9a32cd" points="954.65,-392.57 953.6,-382.03 947.85,-390.92 954.65,-392.57"/>
<text text-anchor="middle" x="974" y="-423.19" font-family="Helvetica,sans-Serif" font-size="10.00"> sCurrentHeap</text>
<text text-anchor="middle" x="974" y="-412.19" font-family="Helvetica,sans-Serif" font-size="10.00">sRootHeap</text>
<text text-anchor="middle" x="974" y="-401.19" font-family="Helvetica,sans-Serif" font-size="10.00">sSystemHeap</text>
</g>
<!-- Node6 -->
<g id="node6" class="node">
<title>Node6</title>
<g id="a_node6"><a xlink:href="structOSMutex.html" target="_top" xlink:title=" ">
<polygon fill="white" stroke="#666666" points="197.5,-178.19 140.5,-178.19 140.5,-159.19 197.5,-159.19 197.5,-178.19"/>
<text text-anchor="middle" x="169" y="-166.19" font-family="Helvetica,sans-Serif" font-size="10.00">OSMutex</text>
</a>
</g>
</g>
<!-- Node6&#45;&gt;Node5 -->
<g id="edge7" class="edge">
<title>Node6&#45;&gt;Node5</title>
<path fill="none" stroke="#9a32cd" stroke-dasharray="5,2" d="M178,-189.04C186.1,-206.88 200.39,-232.02 221,-245.69 278.36,-283.73 498.45,-276.47 779,-310.69 825.86,-316.4 843.73,-302.05 884,-326.69 895.68,-333.83 890.73,-343.91 902,-351.69 914.39,-360.24 930.44,-364.94 944.15,-367.53"/>
<polygon fill="#9a32cd" stroke="#9a32cd" points="181.28,-187.81 174.16,-179.97 174.84,-190.54 181.28,-187.81"/>
<text text-anchor="middle" x="579" y="-299.69" font-family="Helvetica,sans-Serif" font-size="10.00"> mMutex</text>
</g>
<!-- Node8 -->
<g id="node8" class="node">
<title>Node8</title>
<g id="a_node8"><a xlink:href="structOSThread.html" target="_top" xlink:title=" ">
<polygon fill="white" stroke="#666666" points="752.5,-159.19 691.5,-159.19 691.5,-140.19 752.5,-140.19 752.5,-159.19"/>
<text text-anchor="middle" x="722" y="-147.19" font-family="Helvetica,sans-Serif" font-size="10.00">OSThread</text>
</a>
</g>
</g>
<!-- Node6&#45;&gt;Node8 -->
<g id="edge14" class="edge">
<title>Node6&#45;&gt;Node8</title>
<path fill="none" stroke="#9a32cd" stroke-dasharray="5,2" d="M201.69,-154.14C239.59,-137.61 305.39,-111.64 365,-101.69 489.07,-80.97 524.64,-96.51 647,-125.69 662.77,-129.45 680.01,-134.95 693.88,-139.75"/>
<polygon fill="#9a32cd" stroke="#9a32cd" points="200.43,-150.87 192.7,-158.12 203.26,-157.27 200.43,-150.87"/>
<text text-anchor="middle" x="429" y="-104.69" font-family="Helvetica,sans-Serif" font-size="10.00"> mutex</text>
</g>
<!-- Node11 -->
<g id="node11" class="node">
<title>Node11</title>
<g id="a_node11"><a xlink:href="structOSMutexQueue.html" target="_top" xlink:title=" ">
<polygon fill="white" stroke="#666666" points="472,-178.19 386,-178.19 386,-159.19 472,-159.19 472,-178.19"/>
<text text-anchor="middle" x="429" y="-166.19" font-family="Helvetica,sans-Serif" font-size="10.00">OSMutexQueue</text>
</a>
</g>
</g>
<!-- Node6&#45;&gt;Node11 -->
<g id="edge16" class="edge">
<title>Node6&#45;&gt;Node11</title>
<path fill="none" stroke="#9a32cd" stroke-dasharray="5,2" d="M208.96,-168.69C256.52,-168.69 336.66,-168.69 385.69,-168.69"/>
<polygon fill="#9a32cd" stroke="#9a32cd" points="209.12,-165.19 199.12,-168.69 209.12,-172.19 209.12,-165.19"/>
<text text-anchor="middle" x="284" y="-182.69" font-family="Helvetica,sans-Serif" font-size="10.00"> head</text>
<text text-anchor="middle" x="284" y="-171.69" font-family="Helvetica,sans-Serif" font-size="10.00">tail</text>
</g>
<!-- Node12 -->
<g id="node12" class="node">
<title>Node12</title>
<g id="a_node12"><a xlink:href="structOSMutexLink.html" target="_top" xlink:title=" ">
<polygon fill="white" stroke="#666666" points="467,-44.19 391,-44.19 391,-25.19 467,-25.19 467,-44.19"/>
<text text-anchor="middle" x="429" y="-32.19" font-family="Helvetica,sans-Serif" font-size="10.00">OSMutexLink</text>
</a>
</g>
</g>
<!-- Node6&#45;&gt;Node12 -->
<g id="edge19" class="edge">
<title>Node6&#45;&gt;Node12</title>
<path fill="none" stroke="#9a32cd" stroke-dasharray="5,2" d="M170.14,-147.76C171.63,-114.39 179.99,-49.93 221,-20.69 277.01,19.26 364.67,-8.2 405.58,-24.71"/>
<polygon fill="#9a32cd" stroke="#9a32cd" points="166.65,-147.29 169.89,-157.37 173.65,-147.47 166.65,-147.29"/>
<text text-anchor="middle" x="284" y="-34.69" font-family="Helvetica,sans-Serif" font-size="10.00"> next</text>
<text text-anchor="middle" x="284" y="-23.69" font-family="Helvetica,sans-Serif" font-size="10.00">prev</text>
</g>
<!-- Node7 -->
<g id="node7" class="node">
<title>Node7</title>
<g id="a_node7"><a xlink:href="structOSThreadQueue.html" target="_top" xlink:title=" ">
<polygon fill="white" stroke="#666666" points="1018.5,-226.19 929.5,-226.19 929.5,-207.19 1018.5,-207.19 1018.5,-226.19"/>
<text text-anchor="middle" x="974" y="-214.19" font-family="Helvetica,sans-Serif" font-size="10.00">OSThreadQueue</text>
</a>
</g>
</g>
<!-- Node7&#45;&gt;Node6 -->
<g id="edge8" class="edge">
<title>Node7&#45;&gt;Node6</title>
<path fill="none" stroke="#9a32cd" stroke-dasharray="5,2" d="M929.7,-229.62C915.3,-233.32 899.09,-236.85 884,-238.69 845.62,-243.36 835.66,-239.56 797,-238.69 540.8,-232.91 459.12,-307.38 221,-212.69 202.96,-205.51 186.87,-189.14 177.79,-178.52"/>
<polygon fill="#9a32cd" stroke="#9a32cd" points="930.59,-233.01 939.34,-227.04 928.78,-226.25 930.59,-233.01"/>
<text text-anchor="middle" x="579" y="-261.69" font-family="Helvetica,sans-Serif" font-size="10.00"> queue</text>
</g>
<!-- Node7&#45;&gt;Node8 -->
<g id="edge11" class="edge">
<title>Node7&#45;&gt;Node8</title>
<path fill="none" stroke="#9a32cd" stroke-dasharray="5,2" d="M949.34,-200.71C932.01,-189.84 907.51,-176.11 884,-168.69 839.72,-154.69 785.64,-150.85 752.78,-149.88"/>
<polygon fill="#9a32cd" stroke="#9a32cd" points="947.08,-203.42 957.38,-205.9 950.87,-197.54 947.08,-203.42"/>
<text text-anchor="middle" x="840.5" y="-182.69" font-family="Helvetica,sans-Serif" font-size="10.00"> join_queue</text>
<text text-anchor="middle" x="840.5" y="-171.69" font-family="Helvetica,sans-Serif" font-size="10.00">queue</text>
</g>
<!-- Node26 -->
<g id="node26" class="node">
<title>Node26</title>
<g id="a_node26"><a xlink:href="structOSMessageQueue.html" target="_top" xlink:title=" ">
<polygon fill="white" stroke="#666666" points="1257,-266.19 1158,-266.19 1158,-247.19 1257,-247.19 1257,-266.19"/>
<text text-anchor="middle" x="1207.5" y="-254.19" font-family="Helvetica,sans-Serif" font-size="10.00">OSMessageQueue</text>
</a>
</g>
</g>
<!-- Node7&#45;&gt;Node26 -->
<g id="edge43" class="edge">
<title>Node7&#45;&gt;Node26</title>
<path fill="none" stroke="#9a32cd" stroke-dasharray="5,2" d="M1030.03,-209.96C1062.58,-207.71 1104.3,-207.87 1140,-217.69 1160.65,-223.36 1181.46,-237.18 1194.17,-246.74"/>
<polygon fill="#9a32cd" stroke="#9a32cd" points="1030.12,-206.44 1020.43,-210.73 1030.68,-213.42 1030.12,-206.44"/>
<text text-anchor="middle" x="1102" y="-231.69" font-family="Helvetica,sans-Serif" font-size="10.00"> receiving_queue</text>
<text text-anchor="middle" x="1102" y="-220.69" font-family="Helvetica,sans-Serif" font-size="10.00">sending_queue</text>
</g>
<!-- Node8&#45;&gt;Node6 -->
<g id="edge17" class="edge">
<title>Node8&#45;&gt;Node6</title>
<path fill="none" stroke="#9a32cd" stroke-dasharray="5,2" d="M690.5,-164.18C677.4,-169.73 661.75,-175.49 647,-178.69 561.95,-197.12 295.64,-212.61 221,-194.69 208.05,-191.58 194.68,-184.6 184.89,-178.65"/>
<polygon fill="#9a32cd" stroke="#9a32cd" points="691.69,-167.48 699.43,-160.24 688.87,-161.08 691.69,-167.48"/>
<text text-anchor="middle" x="429" y="-205.69" font-family="Helvetica,sans-Serif" font-size="10.00"> thread</text>
</g>
<!-- Node8&#45;&gt;Node7 -->
<g id="edge9" class="edge">
<title>Node8&#45;&gt;Node7</title>
<path fill="none" stroke="#9a32cd" stroke-dasharray="5,2" d="M744.83,-166.36C758.95,-176.26 778.15,-188.12 797,-194.69 840.33,-209.79 892.84,-214.76 929.17,-216.28"/>
<polygon fill="#9a32cd" stroke="#9a32cd" points="746.9,-163.54 736.75,-160.5 742.78,-169.2 746.9,-163.54"/>
<text text-anchor="middle" x="840.5" y="-226.69" font-family="Helvetica,sans-Serif" font-size="10.00"> head</text>
<text text-anchor="middle" x="840.5" y="-215.69" font-family="Helvetica,sans-Serif" font-size="10.00">tail</text>
</g>
<!-- Node10 -->
<g id="node10" class="node">
<title>Node10</title>
<g id="a_node10"><a xlink:href="structOSThreadLink.html" target="_top" xlink:title=" ">
<polygon fill="white" stroke="#666666" points="1014,-114.19 934,-114.19 934,-95.19 1014,-95.19 1014,-114.19"/>
<text text-anchor="middle" x="974" y="-102.19" font-family="Helvetica,sans-Serif" font-size="10.00">OSThreadLink</text>
</a>
</g>
</g>
<!-- Node8&#45;&gt;Node10 -->
<g id="edge13" class="edge">
<title>Node8&#45;&gt;Node10</title>
<path fill="none" stroke="#9a32cd" stroke-dasharray="5,2" d="M738.21,-131.23C751.82,-116.28 773.26,-96.32 797,-87.69 846.91,-69.54 909.74,-83.68 945.23,-94.76"/>
<polygon fill="#9a32cd" stroke="#9a32cd" points="735.71,-128.77 731.78,-138.61 740.99,-133.37 735.71,-128.77"/>
<text text-anchor="middle" x="840.5" y="-101.69" font-family="Helvetica,sans-Serif" font-size="10.00"> next</text>
<text text-anchor="middle" x="840.5" y="-90.69" font-family="Helvetica,sans-Serif" font-size="10.00">prev</text>
</g>
<!-- Node9 -->
<g id="node9" class="node">
<title>Node9</title>
<g id="a_node9"><a xlink:href="structOSContext.html" target="_top" xlink:title=" ">
<polygon fill="white" stroke="#666666" points="461,-141.19 397,-141.19 397,-122.19 461,-122.19 461,-141.19"/>
<text text-anchor="middle" x="429" y="-129.19" font-family="Helvetica,sans-Serif" font-size="10.00">OSContext</text>
</a>
</g>
</g>
<!-- Node9&#45;&gt;Node8 -->
<g id="edge10" class="edge">
<title>Node9&#45;&gt;Node8</title>
<path fill="none" stroke="#9a32cd" stroke-dasharray="5,2" d="M472.75,-129.94C516.62,-128.69 586.78,-128.22 647,-134.69 661.73,-136.27 677.87,-139.37 691.31,-142.35"/>
<polygon fill="#9a32cd" stroke="#9a32cd" points="472.77,-126.44 462.89,-130.25 472.99,-133.43 472.77,-126.44"/>
<text text-anchor="middle" x="579" y="-137.69" font-family="Helvetica,sans-Serif" font-size="10.00"> context</text>
</g>
<!-- Node10&#45;&gt;Node8 -->
<g id="edge12" class="edge">
<title>Node10&#45;&gt;Node8</title>
<path fill="none" stroke="#9a32cd" stroke-dasharray="5,2" d="M922.54,-109.13C887.16,-112.77 838.89,-118.78 797,-127.69 782.19,-130.84 766.03,-135.49 752.61,-139.71"/>
<polygon fill="#9a32cd" stroke="#9a32cd" points="922.44,-112.66 932.04,-108.18 921.75,-105.69 922.44,-112.66"/>
<text text-anchor="middle" x="840.5" y="-141.69" font-family="Helvetica,sans-Serif" font-size="10.00"> active_threads_link</text>
<text text-anchor="middle" x="840.5" y="-130.69" font-family="Helvetica,sans-Serif" font-size="10.00">link</text>
</g>
<!-- Node11&#45;&gt;Node8 -->
<g id="edge15" class="edge">
<title>Node11&#45;&gt;Node8</title>
<path fill="none" stroke="#9a32cd" stroke-dasharray="5,2" d="M483.64,-165.18C544.67,-161.2 642.2,-154.83 691.06,-151.64"/>
<polygon fill="#9a32cd" stroke="#9a32cd" points="483.57,-161.68 473.82,-165.82 484.03,-168.67 483.57,-161.68"/>
<text text-anchor="middle" x="579" y="-166.69" font-family="Helvetica,sans-Serif" font-size="10.00"> owned_mutexes</text>
</g>
<!-- Node12&#45;&gt;Node6 -->
<g id="edge18" class="edge">
<title>Node12&#45;&gt;Node6</title>
<path fill="none" stroke="#9a32cd" stroke-dasharray="5,2" d="M379.28,-41.32C320.12,-49.54 227.37,-63.03 221,-67.69 189.75,-90.5 176.39,-138.01 171.9,-158.7"/>
<polygon fill="#9a32cd" stroke="#9a32cd" points="379.71,-44.79 389.13,-39.96 378.75,-37.86 379.71,-44.79"/>
<text text-anchor="middle" x="284" y="-70.69" font-family="Helvetica,sans-Serif" font-size="10.00"> link</text>
</g>
<!-- Node13 -->
<g id="node13" class="node">
<title>Node13</title>
<g id="a_node13"><a xlink:href="classJSUTree.html" target="_top" xlink:title=" ">
<polygon fill="white" stroke="#666666" points="779,-339.19 665,-339.19 665,-320.19 779,-320.19 779,-339.19"/>
<text text-anchor="middle" x="722" y="-327.19" font-family="Helvetica,sans-Serif" font-size="10.00">JSUTree&lt; JKRHeap &gt;</text>
</a>
</g>
</g>
<!-- Node13&#45;&gt;Node5 -->
<g id="edge20" class="edge">
<title>Node13&#45;&gt;Node5</title>
<path fill="none" stroke="#9a32cd" stroke-dasharray="5,2" d="M790.75,-329.43C819.9,-330.78 854.07,-334.34 884,-342.69 892.62,-345.09 893.64,-348.51 902,-351.69 915.6,-356.85 931.17,-361.18 944.25,-364.4"/>
<polygon fill="#9a32cd" stroke="#9a32cd" points="791.07,-325.94 780.94,-329.06 790.81,-332.93 791.07,-325.94"/>
<text text-anchor="middle" x="840.5" y="-345.69" font-family="Helvetica,sans-Serif" font-size="10.00"> mChildTree</text>
</g>
<!-- Node14 -->
<g id="node14" class="node">
<title>Node14</title>
<g id="a_node14"><a xlink:href="classJSUList.html" target="_top" xlink:title=" ">
<polygon fill="white" stroke="#666666" points="321.5,-339.19 246.5,-339.19 246.5,-320.19 321.5,-320.19 321.5,-339.19"/>
<text text-anchor="middle" x="284" y="-327.19" font-family="Helvetica,sans-Serif" font-size="10.00">JSUList&lt; T &gt;</text>
</a>
</g>
</g>
<!-- Node14&#45;&gt;Node13 -->
<g id="edge21" class="edge">
<title>Node14&#45;&gt;Node13</title>
<path fill="none" stroke="#63b8ff" d="M333.16,-329.69C414.36,-329.69 578.08,-329.69 664.54,-329.69"/>
<polygon fill="#63b8ff" stroke="#63b8ff" points="333.31,-326.19 323.31,-329.69 333.31,-333.19 333.31,-326.19"/>
</g>
<!-- Node15 -->
<g id="node15" class="node">
<title>Node15</title>
<g id="a_node15"><a xlink:href="structJSUPtrList.html" target="_top" xlink:title=" ">
<polygon fill="white" stroke="#666666" points="65,-410.19 0,-410.19 0,-391.19 65,-391.19 65,-410.19"/>
<text text-anchor="middle" x="32.5" y="-398.19" font-family="Helvetica,sans-Serif" font-size="10.00">JSUPtrList</text>
</a>
</g>
</g>
<!-- Node15&#45;&gt;Node14 -->
<g id="edge22" class="edge">
<title>Node15&#45;&gt;Node14</title>
<path fill="none" stroke="#63b8ff" d="M70.1,-386.96C74.43,-385.46 78.8,-384 83,-382.69 139.38,-365 205.89,-348.16 246.22,-338.38"/>
<polygon fill="#63b8ff" stroke="#63b8ff" points="69.23,-383.56 60.98,-390.21 71.57,-390.15 69.23,-383.56"/>
</g>
<!-- Node16 -->
<g id="node16" class="node">
<title>Node16</title>
<g id="a_node16"><a xlink:href="structJSUPtrLink.html" target="_top" xlink:title=" ">
<polygon fill="white" stroke="#666666" points="203,-452.19 135,-452.19 135,-433.19 203,-433.19 203,-452.19"/>
<text text-anchor="middle" x="169" y="-440.19" font-family="Helvetica,sans-Serif" font-size="10.00">JSUPtrLink</text>
</a>
</g>
</g>
<!-- Node15&#45;&gt;Node16 -->
<g id="edge24" class="edge">
<title>Node15&#45;&gt;Node16</title>
<path fill="none" stroke="#9a32cd" stroke-dasharray="5,2" d="M62.36,-415.36C69.02,-418.39 76.17,-421.37 83,-423.69 99.75,-429.38 118.95,-433.83 134.85,-437"/>
<polygon fill="#9a32cd" stroke="#9a32cd" points="64.28,-412.4 53.75,-411.28 61.28,-418.72 64.28,-412.4"/>
<text text-anchor="middle" x="100" y="-435.69" font-family="Helvetica,sans-Serif" font-size="10.00"> mList</text>
</g>
<!-- Node18 -->
<g id="node18" class="node">
<title>Node18</title>
<g id="a_node18"><a xlink:href="classJSUList.html" target="_top" xlink:title=" ">
<polygon fill="white" stroke="#666666" points="347,-377.19 221,-377.19 221,-358.19 347,-358.19 347,-377.19"/>
<text text-anchor="middle" x="284" y="-365.19" font-family="Helvetica,sans-Serif" font-size="10.00">JSUList&lt; JKRDisposer &gt;</text>
</a>
</g>
</g>
<!-- Node15&#45;&gt;Node18 -->
<g id="edge29" class="edge">
<title>Node15&#45;&gt;Node18</title>
<path fill="none" stroke="#63b8ff" d="M76.74,-392.67C78.86,-392.32 80.95,-392 83,-391.69 128.99,-384.75 181.18,-378.55 220.71,-374.18"/>
<polygon fill="#63b8ff" stroke="#63b8ff" points="76.17,-389.21 66.9,-394.34 77.34,-396.11 76.17,-389.21"/>
</g>
<!-- Node21 -->
<g id="node21" class="node">
<title>Node21</title>
<g id="a_node21"><a xlink:href="classJSUList.html" target="_top" xlink:title=" ">
<polygon fill="white" stroke="#666666" points="646,-532.19 512,-532.19 512,-513.19 646,-513.19 646,-532.19"/>
<text text-anchor="middle" x="579" y="-520.19" font-family="Helvetica,sans-Serif" font-size="10.00">JSUList&lt; JKRFileLoader &gt;</text>
</a>
</g>
</g>
<!-- Node15&#45;&gt;Node21 -->
<g id="edge36" class="edge">
<title>Node15&#45;&gt;Node21</title>
<path fill="none" stroke="#63b8ff" d="M46.08,-420.04C63,-444.15 95.57,-484.31 135,-501.69 263.05,-558.13 432.57,-545.01 520.13,-532.66"/>
<polygon fill="#63b8ff" stroke="#63b8ff" points="48.98,-418.08 40.47,-411.76 43.18,-422.01 48.98,-418.08"/>
</g>
<!-- Node16&#45;&gt;Node15 -->
<g id="edge23" class="edge">
<title>Node16&#45;&gt;Node15</title>
<path fill="none" stroke="#9a32cd" stroke-dasharray="5,2" d="M151.94,-425.08C142.7,-416.26 130.29,-406.46 117,-401.69 100.63,-395.81 81.25,-395.22 65.29,-396.26"/>
<polygon fill="#9a32cd" stroke="#9a32cd" points="149.2,-427.29 158.71,-431.97 154.2,-422.38 149.2,-427.29"/>
<text text-anchor="middle" x="100" y="-415.69" font-family="Helvetica,sans-Serif" font-size="10.00"> mHead</text>
<text text-anchor="middle" x="100" y="-404.69" font-family="Helvetica,sans-Serif" font-size="10.00">mTail</text>
</g>
<!-- Node16&#45;&gt;Node16 -->
<g id="edge25" class="edge">
<title>Node16&#45;&gt;Node16</title>
<path fill="none" stroke="#9a32cd" stroke-dasharray="5,2" d="M156.89,-463.95C158.52,-467.63 162.56,-470.19 169,-470.19 181.13,-470.19 184.73,-461.12 179.8,-452.55"/>
<polygon fill="#9a32cd" stroke="#9a32cd" points="160.36,-464.39 158.03,-454.06 153.41,-463.59 160.36,-464.39"/>
<text text-anchor="middle" x="169" y="-484.19" font-family="Helvetica,sans-Serif" font-size="10.00"> mNext</text>
<text text-anchor="middle" x="169" y="-473.19" font-family="Helvetica,sans-Serif" font-size="10.00">mPrev</text>
</g>
<!-- Node17 -->
<g id="node17" class="node">
<title>Node17</title>
<g id="a_node17"><a xlink:href="classJSULink.html" target="_top" xlink:title=" ">
<polygon fill="white" stroke="#666666" points="467.5,-415.19 390.5,-415.19 390.5,-396.19 467.5,-396.19 467.5,-415.19"/>
<text text-anchor="middle" x="429" y="-403.19" font-family="Helvetica,sans-Serif" font-size="10.00">JSULink&lt; T &gt;</text>
</a>
</g>
</g>
<!-- Node16&#45;&gt;Node17 -->
<g id="edge27" class="edge">
<title>Node16&#45;&gt;Node17</title>
<path fill="none" stroke="#63b8ff" d="M214.82,-436.26C264.52,-429.13 343.82,-417.76 390.41,-411.08"/>
<polygon fill="#63b8ff" stroke="#63b8ff" points="214.36,-432.79 204.96,-437.67 215.36,-439.72 214.36,-432.79"/>
</g>
<!-- Node19 -->
<g id="node19" class="node">
<title>Node19</title>
<g id="a_node19"><a xlink:href="classJSULink.html" target="_top" xlink:title=" ">
<polygon fill="white" stroke="#666666" points="493,-452.19 365,-452.19 365,-433.19 493,-433.19 493,-452.19"/>
<text text-anchor="middle" x="429" y="-440.19" font-family="Helvetica,sans-Serif" font-size="10.00">JSULink&lt; JKRDisposer &gt;</text>
</a>
</g>
</g>
<!-- Node16&#45;&gt;Node19 -->
<g id="edge31" class="edge">
<title>Node16&#45;&gt;Node19</title>
<path fill="none" stroke="#63b8ff" d="M214.83,-442.69C256.25,-442.69 318.2,-442.69 364.66,-442.69"/>
<polygon fill="#63b8ff" stroke="#63b8ff" points="214.98,-439.19 204.98,-442.69 214.98,-446.19 214.98,-439.19"/>
</g>
<!-- Node20 -->
<g id="node20" class="node">
<title>Node20</title>
<g id="a_node20"><a xlink:href="classJSULink.html" target="_top" xlink:title=" ">
<polygon fill="white" stroke="#666666" points="647,-488.19 511,-488.19 511,-469.19 647,-469.19 647,-488.19"/>
<text text-anchor="middle" x="579" y="-476.19" font-family="Helvetica,sans-Serif" font-size="10.00">JSULink&lt; JKRFileLoader &gt;</text>
</a>
</g>
</g>
<!-- Node16&#45;&gt;Node20 -->
<g id="edge33" class="edge">
<title>Node16&#45;&gt;Node20</title>
<path fill="none" stroke="#63b8ff" d="M213.49,-455.26C216.02,-455.8 218.53,-456.28 221,-456.69 321,-473.31 438.64,-477.68 510.75,-478.66"/>
<polygon fill="#63b8ff" stroke="#63b8ff" points="214.43,-451.89 203.9,-453.01 212.83,-458.7 214.43,-451.89"/>
</g>
<!-- Node17&#45;&gt;Node13 -->
<g id="edge26" class="edge">
<title>Node17&#45;&gt;Node13</title>
<path fill="none" stroke="#63b8ff" d="M479.04,-407.52C524.14,-407.6 592.11,-403.57 647,-382.69 672.7,-372.91 697.65,-351.94 711,-339.51"/>
<polygon fill="#63b8ff" stroke="#63b8ff" points="479.36,-404.02 469.33,-407.43 479.29,-411.02 479.36,-404.02"/>
</g>
<!-- Node18&#45;&gt;Node5 -->
<g id="edge28" class="edge">
<title>Node18&#45;&gt;Node5</title>
<path fill="none" stroke="#9a32cd" stroke-dasharray="5,2" d="M358.61,-368.01C508.63,-368.66 844.03,-370.12 944.21,-370.56"/>
<polygon fill="#9a32cd" stroke="#9a32cd" points="358.8,-364.51 348.78,-367.96 358.77,-371.51 358.8,-364.51"/>
<text text-anchor="middle" x="579" y="-371.69" font-family="Helvetica,sans-Serif" font-size="10.00"> mDisposerList</text>
</g>
<!-- Node19&#45;&gt;Node4 -->
<g id="edge30" class="edge">
<title>Node19&#45;&gt;Node4</title>
<path fill="none" stroke="#9a32cd" stroke-dasharray="5,2" d="M504.41,-438.85C562.13,-435.88 639.64,-431.88 684.57,-429.56"/>
<polygon fill="#9a32cd" stroke="#9a32cd" points="504.46,-435.34 494.65,-439.35 504.82,-442.33 504.46,-435.34"/>
<text text-anchor="middle" x="579" y="-440.69" font-family="Helvetica,sans-Serif" font-size="10.00"> mLink</text>
</g>
<!-- Node20&#45;&gt;Node3 -->
<g id="edge32" class="edge">
<title>Node20&#45;&gt;Node3</title>
<path fill="none" stroke="#9a32cd" stroke-dasharray="5,2" d="M658.51,-474.69C741.46,-470.47 868.95,-463.98 933.15,-460.71"/>
<polygon fill="#9a32cd" stroke="#9a32cd" points="658.43,-471.19 648.62,-475.19 658.79,-478.18 658.43,-471.19"/>
<text text-anchor="middle" x="722" y="-476.69" font-family="Helvetica,sans-Serif" font-size="10.00"> mFileLoaderLink</text>
</g>
<!-- Node21&#45;&gt;Node3 -->
<g id="edge35" class="edge">
<title>Node21&#45;&gt;Node3</title>
<path fill="none" stroke="#9a32cd" stroke-dasharray="5,2" d="M657.54,-513.14C719.14,-505.16 807.35,-492.82 884,-478.69 900.2,-475.7 917.92,-471.84 933.26,-468.31"/>
<polygon fill="#9a32cd" stroke="#9a32cd" points="657.34,-509.64 647.86,-514.39 658.23,-516.58 657.34,-509.64"/>
<text text-anchor="middle" x="722" y="-514.69" font-family="Helvetica,sans-Serif" font-size="10.00"> sVolumeList</text>
</g>
<!-- Node22 -->
<g id="node22" class="node">
<title>Node22</title>
<g id="a_node22"><a xlink:href="structSArcDataInfo.html" target="_top" xlink:title=" ">
<polygon fill="white" stroke="#666666" points="1011.5,-343.19 936.5,-343.19 936.5,-324.19 1011.5,-324.19 1011.5,-343.19"/>
<text text-anchor="middle" x="974" y="-331.19" font-family="Helvetica,sans-Serif" font-size="10.00">SArcDataInfo</text>
</a>
</g>
</g>
<!-- Node22&#45;&gt;Node2 -->
<g id="edge38" class="edge">
<title>Node22&#45;&gt;Node2</title>
<path fill="none" stroke="#9a32cd" stroke-dasharray="5,2" d="M1023.43,-333.69C1068.28,-333.69 1133.79,-333.69 1173.08,-333.69"/>
<polygon fill="#9a32cd" stroke="#9a32cd" points="1023.45,-330.19 1013.45,-333.69 1023.45,-337.19 1023.45,-330.19"/>
<text text-anchor="middle" x="1102" y="-336.69" font-family="Helvetica,sans-Serif" font-size="10.00"> mArcInfoBlock</text>
</g>
<!-- Node23 -->
<g id="node23" class="node">
<title>Node23</title>
<g id="a_node23"><a xlink:href="structJKRArchive_1_1SDIDirEntry.html" target="_top" xlink:title=" ">
<polygon fill="white" stroke="#666666" points="1035.5,-306.19 912.5,-306.19 912.5,-287.19 1035.5,-287.19 1035.5,-306.19"/>
<text text-anchor="middle" x="974" y="-294.19" font-family="Helvetica,sans-Serif" font-size="10.00">JKRArchive::SDIDirEntry</text>
</a>
</g>
</g>
<!-- Node23&#45;&gt;Node2 -->
<g id="edge39" class="edge">
<title>Node23&#45;&gt;Node2</title>
<path fill="none" stroke="#9a32cd" stroke-dasharray="5,2" d="M1047.19,-304.89C1076.14,-308.55 1109.74,-313.27 1140,-318.69 1150.83,-320.63 1162.57,-323.14 1173.13,-325.55"/>
<polygon fill="#9a32cd" stroke="#9a32cd" points="1047.79,-301.44 1037.43,-303.68 1046.93,-308.39 1047.79,-301.44"/>
<text text-anchor="middle" x="1102" y="-321.69" font-family="Helvetica,sans-Serif" font-size="10.00"> mNodes</text>
</g>
<!-- Node24 -->
<g id="node24" class="node">
<title>Node24</title>
<g id="a_node24"><a xlink:href="structJKRArchive_1_1SDIFileEntry.html" target="_top" xlink:title=" ">
<polygon fill="white" stroke="#666666" points="1037.5,-269.19 910.5,-269.19 910.5,-250.19 1037.5,-250.19 1037.5,-269.19"/>
<text text-anchor="middle" x="974" y="-257.19" font-family="Helvetica,sans-Serif" font-size="10.00">JKRArchive::SDIFileEntry</text>
</a>
</g>
</g>
<!-- Node24&#45;&gt;Node2 -->
<g id="edge40" class="edge">
<title>Node24&#45;&gt;Node2</title>
<path fill="none" stroke="#9a32cd" stroke-dasharray="5,2" d="M1049.3,-268.79C1078.26,-273.81 1111.32,-281.4 1140,-292.69 1159.94,-300.53 1180.6,-314.31 1193.49,-323.71"/>
<polygon fill="#9a32cd" stroke="#9a32cd" points="1049.93,-265.35 1039.49,-267.17 1048.79,-272.25 1049.93,-265.35"/>
<text text-anchor="middle" x="1102" y="-295.69" font-family="Helvetica,sans-Serif" font-size="10.00"> mFiles</text>
</g>
<!-- Node25 -->
<g id="node25" class="node">
<title>Node25</title>
<g id="a_node25"><a xlink:href="structJKRArchive_1_1EMountDirection.html" target="_top" xlink:title=" ">
<polygon fill="white" stroke="#666666" points="1046,-534.19 902,-534.19 902,-515.19 1046,-515.19 1046,-534.19"/>
<text text-anchor="middle" x="974" y="-522.19" font-family="Helvetica,sans-Serif" font-size="10.00">JKRArchive::EMountDirection</text>
</a>
</g>
</g>
<!-- Node25&#45;&gt;Node2 -->
<g id="edge41" class="edge">
<title>Node25&#45;&gt;Node2</title>
<path fill="none" stroke="#9a32cd" stroke-dasharray="5,2" d="M1037.12,-510.84C1040.18,-509.57 1043.15,-508.19 1046,-506.69 1122.81,-466.13 1182.47,-374.1 1200.71,-343.67"/>
<polygon fill="#9a32cd" stroke="#9a32cd" points="1036.11,-507.48 1027.93,-514.22 1038.53,-514.05 1036.11,-507.48"/>
<text text-anchor="middle" x="1102" y="-495.69" font-family="Helvetica,sans-Serif" font-size="10.00"> mMountDirection</text>
</g>
<!-- Node26&#45;&gt;Node1 -->
<g id="edge42" class="edge">
<title>Node26&#45;&gt;Node1</title>
<path fill="none" stroke="#9a32cd" stroke-dasharray="5,2" d="M1268.7,-266.93C1291.45,-270.81 1316.64,-275.09 1336.56,-278.48"/>
<polygon fill="#9a32cd" stroke="#9a32cd" points="1269.35,-263.49 1258.9,-265.27 1268.17,-270.39 1269.35,-263.49"/>
<text text-anchor="middle" x="1297" y="-278.69" font-family="Helvetica,sans-Serif" font-size="10.00"> mQueue</text>
</g>
</g>
</svg>
