<?xml version="1.0" encoding="UTF-8" standalone="no"?>
<!DOCTYPE svg PUBLIC "-//W3C//DTD SVG 1.1//EN"
 "http://www.w3.org/Graphics/SVG/1.1/DTD/svg11.dtd">
<!-- Generated by graphviz version 7.0.5 (20221223.1930)
 -->
<!-- Title: J3DVtxColorCalc Pages: 1 -->
<svg width="107pt" height="149pt"
 viewBox="0.00 0.00 106.50 149.00" xmlns="http://www.w3.org/2000/svg" xmlns:xlink="http://www.w3.org/1999/xlink">
<g id="graph0" class="graph" transform="scale(1 1) rotate(0) translate(4 145)">
<title>J3DVtxColorCalc</title>
<!-- Node1 -->
<g id="node1" class="node">
<title>Node1</title>
<g id="a_node1"><a xlink:title=" ">
<polygon fill="#999999" stroke="#666666" points="90.5,-19 0.5,-19 0.5,0 90.5,0 90.5,-19"/>
<text text-anchor="middle" x="45.5" y="-7" font-family="Helvetica,sans-Serif" font-size="10.00">J3DVtxColorCalc</text>
</a>
</g>
</g>
<!-- Node2 -->
<g id="node2" class="node">
<title>Node2</title>
<g id="a_node2"><a xlink:href="classJ3DAnmVtxColor.html" target="_top" xlink:title=" ">
<polygon fill="white" stroke="#666666" points="91,-85 0,-85 0,-66 91,-66 91,-85"/>
<text text-anchor="middle" x="45.5" y="-73" font-family="Helvetica,sans-Serif" font-size="10.00">J3DAnmVtxColor</text>
</a>
</g>
</g>
<!-- Node2&#45;&gt;Node1 -->
<g id="edge1" class="edge">
<title>Node2&#45;&gt;Node1</title>
<path fill="none" stroke="#9a32cd" stroke-dasharray="5,2" d="M45.5,-54.18C45.5,-42.44 45.5,-28.27 45.5,-19.32"/>
<polygon fill="#9a32cd" stroke="#9a32cd" points="42,-54.09 45.5,-64.09 49,-54.09 42,-54.09"/>
<text text-anchor="middle" x="72" y="-40" font-family="Helvetica,sans-Serif" font-size="10.00"> mpVtxColor</text>
</g>
<!-- Node3 -->
<g id="node3" class="node">
<title>Node3</title>
<g id="a_node3"><a xlink:href="classJ3DAnmBase.html" target="_top" xlink:title=" ">
<polygon fill="white" stroke="#666666" points="84,-141 7,-141 7,-122 84,-122 84,-141"/>
<text text-anchor="middle" x="45.5" y="-129" font-family="Helvetica,sans-Serif" font-size="10.00">J3DAnmBase</text>
</a>
</g>
</g>
<!-- Node3&#45;&gt;Node2 -->
<g id="edge2" class="edge">
<title>Node3&#45;&gt;Node2</title>
<path fill="none" stroke="#63b8ff" d="M45.5,-110.11C45.5,-101.52 45.5,-91.97 45.5,-85.25"/>
<polygon fill="#63b8ff" stroke="#63b8ff" points="42,-110.07 45.5,-120.07 49,-110.07 42,-110.07"/>
</g>
</g>
</svg>
