<?xml version="1.0" encoding="UTF-8" standalone="no"?>
<!DOCTYPE svg PUBLIC "-//W3C//DTD SVG 1.1//EN"
 "http://www.w3.org/Graphics/SVG/1.1/DTD/svg11.dtd">
<!-- Generated by graphviz version 7.0.5 (20221223.1930)
 -->
<!-- Title: Z2EnvSeDir Pages: 1 -->
<svg width="1064pt" height="404pt"
 viewBox="0.00 0.00 1064.00 404.00" xmlns="http://www.w3.org/2000/svg" xmlns:xlink="http://www.w3.org/1999/xlink">
<g id="graph0" class="graph" transform="scale(1 1) rotate(0) translate(4 400)">
<title>Z2EnvSeDir</title>
<!-- Node1 -->
<g id="node1" class="node">
<title>Node1</title>
<g id="a_node1"><a xlink:title=" ">
<polygon fill="#999999" stroke="#666666" points="1056,-386 988,-386 988,-367 1056,-367 1056,-386"/>
<text text-anchor="middle" x="1022" y="-374" font-family="Helvetica,sans-Serif" font-size="10.00">Z2EnvSeDir</text>
</a>
</g>
</g>
<!-- Node2 -->
<g id="node2" class="node">
<title>Node2</title>
<g id="a_node2"><a xlink:href="structZ2EnvSeBase.html" target="_top" xlink:title=" ">
<polygon fill="white" stroke="#666666" points="951,-363 872,-363 872,-344 951,-344 951,-363"/>
<text text-anchor="middle" x="911.5" y="-351" font-family="Helvetica,sans-Serif" font-size="10.00">Z2EnvSeBase</text>
</a>
</g>
</g>
<!-- Node2&#45;&gt;Node1 -->
<g id="edge1" class="edge">
<title>Node2&#45;&gt;Node1</title>
<path fill="none" stroke="#63b8ff" d="M962.49,-364.1C971.06,-365.91 979.79,-367.76 987.79,-369.46"/>
<polygon fill="#63b8ff" stroke="#63b8ff" points="963.35,-360.7 952.85,-362.05 961.9,-367.55 963.35,-360.7"/>
</g>
<!-- Node3 -->
<g id="node3" class="node">
<title>Node3</title>
<g id="a_node3"><a xlink:href="structVec.html" target="_top" xlink:title=" ">
<polygon fill="white" stroke="#666666" points="759.5,-396 725.5,-396 725.5,-377 759.5,-377 759.5,-396"/>
<text text-anchor="middle" x="742.5" y="-384" font-family="Helvetica,sans-Serif" font-size="10.00">Vec</text>
</a>
</g>
</g>
<!-- Node3&#45;&gt;Node1 -->
<g id="edge19" class="edge">
<title>Node3&#45;&gt;Node1</title>
<path fill="none" stroke="#9a32cd" stroke-dasharray="5,2" d="M771.29,-386.58C793.64,-386.56 825.85,-386.36 854,-385.5 905.6,-383.93 918.45,-382.35 970,-379.5 975.67,-379.19 981.69,-378.84 987.53,-378.5"/>
<polygon fill="#9a32cd" stroke="#9a32cd" points="771.49,-383.08 761.49,-386.57 771.49,-390.08 771.49,-383.08"/>
<text text-anchor="middle" x="911.5" y="-387.5" font-family="Helvetica,sans-Serif" font-size="10.00"> mPanDir</text>
</g>
<!-- Node3&#45;&gt;Node2 -->
<g id="edge2" class="edge">
<title>Node3&#45;&gt;Node2</title>
<path fill="none" stroke="#9a32cd" stroke-dasharray="5,2" d="M770.91,-381.08C798.3,-375.67 840.67,-367.3 871.55,-361.2"/>
<polygon fill="#9a32cd" stroke="#9a32cd" points="770.43,-377.61 761.3,-382.98 771.79,-384.48 770.43,-377.61"/>
<text text-anchor="middle" x="830.5" y="-376.5" font-family="Helvetica,sans-Serif" font-size="10.00"> mPos</text>
</g>
<!-- Node4 -->
<g id="node4" class="node">
<title>Node4</title>
<g id="a_node4"><a xlink:href="structJAISoundHandle.html" target="_top" xlink:title=" ">
<polygon fill="white" stroke="#666666" points="787.5,-315 697.5,-315 697.5,-296 787.5,-296 787.5,-315"/>
<text text-anchor="middle" x="742.5" y="-303" font-family="Helvetica,sans-Serif" font-size="10.00">JAISoundHandle</text>
</a>
</g>
</g>
<!-- Node4&#45;&gt;Node2 -->
<g id="edge3" class="edge">
<title>Node4&#45;&gt;Node2</title>
<path fill="none" stroke="#9a32cd" stroke-dasharray="5,2" d="M788.99,-318.58C816.41,-326.45 850.76,-336.33 875.94,-343.57"/>
<polygon fill="#9a32cd" stroke="#9a32cd" points="790.13,-315.26 779.56,-315.86 788.2,-321.99 790.13,-315.26"/>
<text text-anchor="middle" x="830.5" y="-339.5" font-family="Helvetica,sans-Serif" font-size="10.00"> mHandle</text>
</g>
<!-- Node5 -->
<g id="node5" class="node">
<title>Node5</title>
<g id="a_node5"><a xlink:href="classJAISound.html" target="_top" xlink:title=" ">
<polygon fill="white" stroke="#666666" points="941,-196 882,-196 882,-177 941,-177 941,-196"/>
<text text-anchor="middle" x="911.5" y="-184" font-family="Helvetica,sans-Serif" font-size="10.00">JAISound</text>
</a>
</g>
</g>
<!-- Node4&#45;&gt;Node5 -->
<g id="edge5" class="edge">
<title>Node4&#45;&gt;Node5</title>
<path fill="none" stroke="#9a32cd" stroke-dasharray="5,2" d="M798.94,-303.59C817.8,-300.69 838.1,-294.85 854,-283.5 885.09,-261.31 901.69,-216.24 907.77,-196.33"/>
<polygon fill="#9a32cd" stroke="#9a32cd" points="798.73,-300.09 789.25,-304.83 799.61,-307.04 798.73,-300.09"/>
<text text-anchor="middle" x="830.5" y="-304.5" font-family="Helvetica,sans-Serif" font-size="10.00"> handle_</text>
</g>
<!-- Node5&#45;&gt;Node4 -->
<g id="edge4" class="edge">
<title>Node5&#45;&gt;Node4</title>
<path fill="none" stroke="#9a32cd" stroke-dasharray="5,2" d="M894.31,-204.87C883.56,-216.46 868.75,-231.29 854,-242.5 838.08,-254.59 789.44,-281.08 762.3,-295.56"/>
<polygon fill="#9a32cd" stroke="#9a32cd" points="896.84,-207.29 900.97,-197.53 891.66,-202.58 896.84,-207.29"/>
<text text-anchor="middle" x="830.5" y="-272.5" font-family="Helvetica,sans-Serif" font-size="10.00"> sound_</text>
</g>
<!-- Node6 -->
<g id="node6" class="node">
<title>Node6</title>
<g id="a_node6"><a xlink:href="classJAIAudible.html" target="_top" xlink:title=" ">
<polygon fill="white" stroke="#666666" points="774.5,-253 710.5,-253 710.5,-234 774.5,-234 774.5,-253"/>
<text text-anchor="middle" x="742.5" y="-241" font-family="Helvetica,sans-Serif" font-size="10.00">JAIAudible</text>
</a>
</g>
</g>
<!-- Node6&#45;&gt;Node5 -->
<g id="edge6" class="edge">
<title>Node6&#45;&gt;Node5</title>
<path fill="none" stroke="#9a32cd" stroke-dasharray="5,2" d="M785.98,-233.88C806.76,-228.69 831.99,-221.67 854,-213.5 866.94,-208.7 880.95,-202.01 891.78,-196.5"/>
<polygon fill="#9a32cd" stroke="#9a32cd" points="785.29,-230.44 776.4,-236.21 786.95,-237.24 785.29,-230.44"/>
<text text-anchor="middle" x="830.5" y="-230.5" font-family="Helvetica,sans-Serif" font-size="10.00"> audible_</text>
</g>
<!-- Node7 -->
<g id="node7" class="node">
<title>Node7</title>
<g id="a_node7"><a xlink:href="structJGeometry_1_1TVec3.html" target="_top" xlink:title=" ">
<polygon fill="white" stroke="#666666" points="613,-253 482,-253 482,-234 613,-234 613,-253"/>
<text text-anchor="middle" x="547.5" y="-241" font-family="Helvetica,sans-Serif" font-size="10.00">JGeometry::TVec3&lt; float &gt;</text>
</a>
</g>
</g>
<!-- Node7&#45;&gt;Node6 -->
<g id="edge7" class="edge">
<title>Node7&#45;&gt;Node6</title>
<path fill="none" stroke="#9a32cd" stroke-dasharray="5,2" d="M624.58,-243.5C654.41,-243.5 686.97,-243.5 710.14,-243.5"/>
<polygon fill="#9a32cd" stroke="#9a32cd" points="624.82,-240 614.82,-243.5 624.82,-247 624.82,-240"/>
<text text-anchor="middle" x="654.5" y="-246.5" font-family="Helvetica,sans-Serif" font-size="10.00"> mPos</text>
</g>
<!-- Node8 -->
<g id="node8" class="node">
<title>Node8</title>
<g id="a_node8"><a xlink:href="structJAIAudience.html" target="_top" xlink:title=" ">
<polygon fill="white" stroke="#666666" points="778.5,-216 706.5,-216 706.5,-197 778.5,-197 778.5,-216"/>
<text text-anchor="middle" x="742.5" y="-204" font-family="Helvetica,sans-Serif" font-size="10.00">JAIAudience</text>
</a>
</g>
</g>
<!-- Node8&#45;&gt;Node5 -->
<g id="edge8" class="edge">
<title>Node8&#45;&gt;Node5</title>
<path fill="none" stroke="#9a32cd" stroke-dasharray="5,2" d="M790.15,-200.91C819.46,-197.4 856.36,-192.98 881.52,-189.97"/>
<polygon fill="#9a32cd" stroke="#9a32cd" points="789.93,-197.41 780.42,-202.08 790.76,-204.36 789.93,-197.41"/>
<text text-anchor="middle" x="830.5" y="-201.5" font-family="Helvetica,sans-Serif" font-size="10.00"> audience_</text>
</g>
<!-- Node9 -->
<g id="node9" class="node">
<title>Node9</title>
<g id="a_node9"><a xlink:href="structJAISoundID.html" target="_top" xlink:title=" ">
<polygon fill="white" stroke="#666666" points="777,-179 708,-179 708,-160 777,-160 777,-179"/>
<text text-anchor="middle" x="742.5" y="-167" font-family="Helvetica,sans-Serif" font-size="10.00">JAISoundID</text>
</a>
</g>
</g>
<!-- Node9&#45;&gt;Node5 -->
<g id="edge9" class="edge">
<title>Node9&#45;&gt;Node5</title>
<path fill="none" stroke="#9a32cd" stroke-dasharray="5,2" d="M788.41,-167.2C808.56,-166.87 832.57,-167.43 854,-170.5 863.18,-171.82 872.98,-174.22 881.79,-176.77"/>
<polygon fill="#9a32cd" stroke="#9a32cd" points="788.46,-163.7 778.55,-167.46 788.64,-170.7 788.46,-163.7"/>
<text text-anchor="middle" x="830.5" y="-173.5" font-family="Helvetica,sans-Serif" font-size="10.00"> soundID</text>
</g>
<!-- Node10 -->
<g id="node10" class="node">
<title>Node10</title>
<g id="a_node10"><a xlink:href="structJAISoundStatus__.html" target="_top" xlink:title=" ">
<polygon fill="white" stroke="#666666" points="789,-142 696,-142 696,-123 789,-123 789,-142"/>
<text text-anchor="middle" x="742.5" y="-130" font-family="Helvetica,sans-Serif" font-size="10.00">JAISoundStatus_</text>
</a>
</g>
</g>
<!-- Node10&#45;&gt;Node5 -->
<g id="edge10" class="edge">
<title>Node10&#45;&gt;Node5</title>
<path fill="none" stroke="#9a32cd" stroke-dasharray="5,2" d="M800.67,-138.06C818.16,-140.88 837.2,-145.13 854,-151.5 870.18,-157.64 886.8,-168.6 897.79,-176.62"/>
<polygon fill="#9a32cd" stroke="#9a32cd" points="801.34,-134.62 790.93,-136.62 800.31,-141.54 801.34,-134.62"/>
<text text-anchor="middle" x="830.5" y="-154.5" font-family="Helvetica,sans-Serif" font-size="10.00"> status_</text>
</g>
<!-- Node11 -->
<g id="node11" class="node">
<title>Node11</title>
<g id="a_node11"><a xlink:href="structJAISoundFader.html" target="_top" xlink:title=" ">
<polygon fill="white" stroke="#666666" points="464,-109 380,-109 380,-90 464,-90 464,-109"/>
<text text-anchor="middle" x="422" y="-97" font-family="Helvetica,sans-Serif" font-size="10.00">JAISoundFader</text>
</a>
</g>
</g>
<!-- Node11&#45;&gt;Node5 -->
<g id="edge11" class="edge">
<title>Node11&#45;&gt;Node5</title>
<path fill="none" stroke="#9a32cd" stroke-dasharray="5,2" d="M475.66,-97.21C547.21,-95.11 678.84,-94.83 789,-114.5 818.89,-119.84 827.7,-120.33 854,-135.5 873.46,-146.73 891.99,-165.53 902.24,-176.9"/>
<polygon fill="#9a32cd" stroke="#9a32cd" points="475.68,-93.71 465.8,-97.53 475.91,-100.71 475.68,-93.71"/>
<text text-anchor="middle" x="654.5" y="-103.5" font-family="Helvetica,sans-Serif" font-size="10.00"> fader</text>
</g>
<!-- Node12 -->
<g id="node12" class="node">
<title>Node12</title>
<g id="a_node12"><a xlink:href="structJAISoundParamsTransition_1_1TTransition.html" target="_top" xlink:title=" ">
<polygon fill="white" stroke="#666666" points="136,-80.5 0,-80.5 0,-50.5 136,-50.5 136,-80.5"/>
<text text-anchor="start" x="8" y="-68.5" font-family="Helvetica,sans-Serif" font-size="10.00">JAISoundParamsTransition</text>
<text text-anchor="middle" x="68" y="-57.5" font-family="Helvetica,sans-Serif" font-size="10.00">::TTransition</text>
</a>
</g>
</g>
<!-- Node12&#45;&gt;Node11 -->
<g id="edge12" class="edge">
<title>Node12&#45;&gt;Node11</title>
<path fill="none" stroke="#9a32cd" stroke-dasharray="5,2" d="M147.38,-81.58C149.61,-81.9 151.82,-82.21 154,-82.5 233.44,-92.93 327.05,-97.02 379.67,-98.58"/>
<polygon fill="#9a32cd" stroke="#9a32cd" points="148.06,-78.14 137.63,-80.03 146.96,-85.05 148.06,-78.14"/>
<text text-anchor="middle" x="181" y="-90.5" font-family="Helvetica,sans-Serif" font-size="10.00"> mTransition</text>
</g>
<!-- Node17 -->
<g id="node17" class="node">
<title>Node17</title>
<g id="a_node17"><a xlink:href="structJAISoundParamsTransition.html" target="_top" xlink:title=" ">
<polygon fill="white" stroke="#666666" points="362,-56 226,-56 226,-37 362,-37 362,-56"/>
<text text-anchor="middle" x="294" y="-44" font-family="Helvetica,sans-Serif" font-size="10.00">JAISoundParamsTransition</text>
</a>
</g>
</g>
<!-- Node12&#45;&gt;Node17 -->
<g id="edge18" class="edge">
<title>Node12&#45;&gt;Node17</title>
<path fill="none" stroke="#9a32cd" stroke-dasharray="5,2" d="M105.67,-45.05C120.25,-38.02 137.46,-31.03 154,-27.5 177.47,-22.49 184.14,-24.87 208,-27.5 224.23,-29.29 241.9,-32.95 256.9,-36.59"/>
<polygon fill="#9a32cd" stroke="#9a32cd" points="104.28,-41.83 96.92,-49.45 107.43,-48.09 104.28,-41.83"/>
<text text-anchor="middle" x="181" y="-74.5" font-family="Helvetica,sans-Serif" font-size="10.00"> mDolby</text>
<text text-anchor="middle" x="181" y="-63.5" font-family="Helvetica,sans-Serif" font-size="10.00">mFxMix</text>
<text text-anchor="middle" x="181" y="-52.5" font-family="Helvetica,sans-Serif" font-size="10.00">mPan</text>
<text text-anchor="middle" x="181" y="-41.5" font-family="Helvetica,sans-Serif" font-size="10.00">mPitch</text>
<text text-anchor="middle" x="181" y="-30.5" font-family="Helvetica,sans-Serif" font-size="10.00">mVolume</text>
</g>
<!-- Node13 -->
<g id="node13" class="node">
<title>Node13</title>
<g id="a_node13"><a xlink:href="structJAISoundParams.html" target="_top" xlink:title=" ">
<polygon fill="white" stroke="#666666" points="789,-56 696,-56 696,-37 789,-37 789,-56"/>
<text text-anchor="middle" x="742.5" y="-44" font-family="Helvetica,sans-Serif" font-size="10.00">JAISoundParams</text>
</a>
</g>
</g>
<!-- Node13&#45;&gt;Node5 -->
<g id="edge13" class="edge">
<title>Node13&#45;&gt;Node5</title>
<path fill="none" stroke="#9a32cd" stroke-dasharray="5,2" d="M800.68,-48.49C819.24,-51.57 838.91,-57.71 854,-69.5 889.91,-97.55 904.33,-154.18 908.81,-176.82"/>
<polygon fill="#9a32cd" stroke="#9a32cd" points="801.21,-45.03 790.82,-47.14 800.26,-51.96 801.21,-45.03"/>
<text text-anchor="middle" x="830.5" y="-72.5" font-family="Helvetica,sans-Serif" font-size="10.00"> params</text>
</g>
<!-- Node14 -->
<g id="node14" class="node">
<title>Node14</title>
<g id="a_node14"><a xlink:href="structJAISoundParamsProperty.html" target="_top" xlink:title=" ">
<polygon fill="white" stroke="#666666" points="612,-19 483,-19 483,0 612,0 612,-19"/>
<text text-anchor="middle" x="547.5" y="-7" font-family="Helvetica,sans-Serif" font-size="10.00">JAISoundParamsProperty</text>
</a>
</g>
</g>
<!-- Node14&#45;&gt;Node13 -->
<g id="edge14" class="edge">
<title>Node14&#45;&gt;Node13</title>
<path fill="none" stroke="#9a32cd" stroke-dasharray="5,2" d="M623.49,-21.41C641.39,-24.48 660.41,-27.93 678,-31.5 685.44,-33.01 693.33,-34.76 700.93,-36.51"/>
<polygon fill="#9a32cd" stroke="#9a32cd" points="624.15,-17.97 613.7,-19.75 622.98,-24.87 624.15,-17.97"/>
<text text-anchor="middle" x="654.5" y="-34.5" font-family="Helvetica,sans-Serif" font-size="10.00"> mProperty</text>
</g>
<!-- Node15 -->
<g id="node15" class="node">
<title>Node15</title>
<g id="a_node15"><a xlink:href="structJAISoundParamsMove.html" target="_top" xlink:title=" ">
<polygon fill="white" stroke="#666666" points="606,-56 489,-56 489,-37 606,-37 606,-56"/>
<text text-anchor="middle" x="547.5" y="-44" font-family="Helvetica,sans-Serif" font-size="10.00">JAISoundParamsMove</text>
</a>
</g>
</g>
<!-- Node15&#45;&gt;Node13 -->
<g id="edge15" class="edge">
<title>Node15&#45;&gt;Node13</title>
<path fill="none" stroke="#9a32cd" stroke-dasharray="5,2" d="M617.68,-46.5C643.57,-46.5 672.31,-46.5 695.58,-46.5"/>
<polygon fill="#9a32cd" stroke="#9a32cd" points="617.92,-43 607.92,-46.5 617.92,-50 617.92,-43"/>
<text text-anchor="middle" x="654.5" y="-49.5" font-family="Helvetica,sans-Serif" font-size="10.00"> mMove</text>
</g>
<!-- Node16 -->
<g id="node16" class="node">
<title>Node16</title>
<g id="a_node16"><a xlink:href="structJASSoundParams.html" target="_top" xlink:title=" ">
<polygon fill="white" stroke="#666666" points="342.5,-19 245.5,-19 245.5,0 342.5,0 342.5,-19"/>
<text text-anchor="middle" x="294" y="-7" font-family="Helvetica,sans-Serif" font-size="10.00">JASSoundParams</text>
</a>
</g>
</g>
<!-- Node16&#45;&gt;Node15 -->
<g id="edge16" class="edge">
<title>Node16&#45;&gt;Node15</title>
<path fill="none" stroke="#9a32cd" stroke-dasharray="5,2" d="M353.93,-16.43C386.45,-20.44 427.52,-25.81 464,-31.5 473.64,-33 483.88,-34.75 493.75,-36.5"/>
<polygon fill="#9a32cd" stroke="#9a32cd" points="354.66,-13 344.31,-15.26 353.81,-19.94 354.66,-13"/>
<text text-anchor="middle" x="422" y="-34.5" font-family="Helvetica,sans-Serif" font-size="10.00"> mParams</text>
</g>
<!-- Node17&#45;&gt;Node15 -->
<g id="edge17" class="edge">
<title>Node17&#45;&gt;Node15</title>
<path fill="none" stroke="#9a32cd" stroke-dasharray="5,2" d="M373.73,-46.5C410.96,-46.5 454.62,-46.5 488.74,-46.5"/>
<polygon fill="#9a32cd" stroke="#9a32cd" points="373.91,-43 363.91,-46.5 373.91,-50 373.91,-43"/>
<text text-anchor="middle" x="422" y="-49.5" font-family="Helvetica,sans-Serif" font-size="10.00"> mTransition</text>
</g>
</g>
</svg>
