<?xml version="1.0" encoding="UTF-8" standalone="no"?>
<!DOCTYPE svg PUBLIC "-//W3C//DTD SVG 1.1//EN"
 "http://www.w3.org/Graphics/SVG/1.1/DTD/svg11.dtd">
<!-- Generated by graphviz version 7.0.5 (20221223.1930)
 -->
<!-- Title: dSv_player_field_last_stay_info_c Pages: 1 -->
<svg width="142pt" height="229pt"
 viewBox="0.00 0.00 142.00 229.00" xmlns="http://www.w3.org/2000/svg" xmlns:xlink="http://www.w3.org/1999/xlink">
<g id="graph0" class="graph" transform="scale(1 1) rotate(0) translate(4 225)">
<title>dSv_player_field_last_stay_info_c</title>
<!-- Node1 -->
<g id="node1" class="node">
<title>Node1</title>
<g id="a_node1"><a xlink:title=" ">
<polygon fill="#999999" stroke="#666666" points="108,-30 0,-30 0,0 108,0 108,-30"/>
<text text-anchor="start" x="8" y="-18" font-family="Helvetica,sans-Serif" font-size="10.00">dSv_player_field_last</text>
<text text-anchor="middle" x="54" y="-7" font-family="Helvetica,sans-Serif" font-size="10.00">_stay_info_c</text>
</a>
</g>
</g>
<!-- Node2 -->
<g id="node2" class="node">
<title>Node2</title>
<g id="a_node2"><a xlink:href="structcXyz.html" target="_top" xlink:title=" ">
<polygon fill="white" stroke="#666666" points="73,-130.5 35,-130.5 35,-111.5 73,-111.5 73,-130.5"/>
<text text-anchor="middle" x="54" y="-118.5" font-family="Helvetica,sans-Serif" font-size="10.00">cXyz</text>
</a>
</g>
</g>
<!-- Node2&#45;&gt;Node1 -->
<g id="edge1" class="edge">
<title>Node2&#45;&gt;Node1</title>
<path fill="none" stroke="#9a32cd" stroke-dasharray="5,2" d="M54,-99.76C54,-79.37 54,-48.42 54,-30.41"/>
<polygon fill="#9a32cd" stroke="#9a32cd" points="50.5,-99.62 54,-109.62 57.5,-99.62 50.5,-99.62"/>
<text text-anchor="middle" x="68" y="-51" font-family="Helvetica,sans-Serif" font-size="10.00"> mPos</text>
</g>
<!-- Node2&#45;&gt;Node2 -->
<g id="edge3" class="edge">
<title>Node2&#45;&gt;Node2</title>
<path fill="none" stroke="#9a32cd" stroke-dasharray="5,2" d="M78.62,-132.67C85.62,-132.19 91,-128.3 91,-121 91,-110.14 79.07,-106.83 67.66,-111.07"/>
<polygon fill="#9a32cd" stroke="#9a32cd" points="79.58,-129.28 69.16,-131.17 78.49,-136.19 79.58,-129.28"/>
<text text-anchor="middle" x="112.5" y="-157" font-family="Helvetica,sans-Serif" font-size="10.00"> BaseX</text>
<text text-anchor="middle" x="112.5" y="-146" font-family="Helvetica,sans-Serif" font-size="10.00">BaseXY</text>
<text text-anchor="middle" x="112.5" y="-135" font-family="Helvetica,sans-Serif" font-size="10.00">BaseXYZ</text>
<text text-anchor="middle" x="112.5" y="-124" font-family="Helvetica,sans-Serif" font-size="10.00">BaseXZ</text>
<text text-anchor="middle" x="112.5" y="-113" font-family="Helvetica,sans-Serif" font-size="10.00">BaseY</text>
<text text-anchor="middle" x="112.5" y="-102" font-family="Helvetica,sans-Serif" font-size="10.00">BaseYZ</text>
<text text-anchor="middle" x="112.5" y="-91" font-family="Helvetica,sans-Serif" font-size="10.00">BaseZ</text>
<text text-anchor="middle" x="112.5" y="-80" font-family="Helvetica,sans-Serif" font-size="10.00">Zero</text>
</g>
<!-- Node3 -->
<g id="node3" class="node">
<title>Node3</title>
<g id="a_node3"><a xlink:href="structVec.html" target="_top" xlink:title=" ">
<polygon fill="white" stroke="#666666" points="71,-221 37,-221 37,-202 71,-202 71,-221"/>
<text text-anchor="middle" x="54" y="-209" font-family="Helvetica,sans-Serif" font-size="10.00">Vec</text>
</a>
</g>
</g>
<!-- Node3&#45;&gt;Node2 -->
<g id="edge2" class="edge">
<title>Node3&#45;&gt;Node2</title>
<path fill="none" stroke="#63b8ff" d="M54,-190.3C54,-171.55 54,-144.53 54,-130.77"/>
<polygon fill="#63b8ff" stroke="#63b8ff" points="50.5,-190.18 54,-200.18 57.5,-190.18 50.5,-190.18"/>
</g>
</g>
</svg>
