<?xml version="1.0" encoding="UTF-8" standalone="no"?>
<!DOCTYPE svg PUBLIC "-//W3C//DTD SVG 1.1//EN"
 "http://www.w3.org/Graphics/SVG/1.1/DTD/svg11.dtd">
<!-- Generated by graphviz version 7.0.5 (20221223.1930)
 -->
<!-- Title: J3DDeformData Pages: 1 -->
<svg width="281pt" height="225pt"
 viewBox="0.00 0.00 280.50 225.00" xmlns="http://www.w3.org/2000/svg" xmlns:xlink="http://www.w3.org/1999/xlink">
<g id="graph0" class="graph" transform="scale(1 1) rotate(0) translate(4 221)">
<title>J3DDeformData</title>
<!-- Node1 -->
<g id="node1" class="node">
<title>Node1</title>
<g id="a_node1"><a xlink:title=" ">
<polygon fill="#999999" stroke="#666666" points="218.5,-151 132.5,-151 132.5,-132 218.5,-132 218.5,-151"/>
<text text-anchor="middle" x="175.5" y="-139" font-family="Helvetica,sans-Serif" font-size="10.00">J3DDeformData</text>
</a>
</g>
</g>
<!-- Node3 -->
<g id="node3" class="node">
<title>Node3</title>
<g id="a_node3"><a xlink:href="structJ3DDeformer.html" target="_top" xlink:title=" ">
<polygon fill="white" stroke="#666666" points="164.5,-85 90.5,-85 90.5,-66 164.5,-66 164.5,-85"/>
<text text-anchor="middle" x="127.5" y="-73" font-family="Helvetica,sans-Serif" font-size="10.00">J3DDeformer</text>
</a>
</g>
</g>
<!-- Node1&#45;&gt;Node3 -->
<g id="edge3" class="edge">
<title>Node1&#45;&gt;Node3</title>
<path fill="none" stroke="#9a32cd" stroke-dasharray="5,2" d="M139.72,-125.85C135.27,-122.59 131.31,-118.67 128.5,-114 123.26,-105.3 124.03,-93.28 125.44,-85.21"/>
<polygon fill="#9a32cd" stroke="#9a32cd" points="137.64,-128.68 148.01,-130.88 141.27,-122.7 137.64,-128.68"/>
<text text-anchor="middle" x="160" y="-106" font-family="Helvetica,sans-Serif" font-size="10.00"> mDeformData</text>
</g>
<!-- Node2 -->
<g id="node2" class="node">
<title>Node2</title>
<g id="a_node2"><a xlink:href="structJ3DCluster.html" target="_top" xlink:title=" ">
<polygon fill="white" stroke="#666666" points="199,-19 134,-19 134,0 199,0 199,-19"/>
<text text-anchor="middle" x="166.5" y="-7" font-family="Helvetica,sans-Serif" font-size="10.00">J3DCluster</text>
</a>
</g>
</g>
<!-- Node2&#45;&gt;Node1 -->
<g id="edge1" class="edge">
<title>Node2&#45;&gt;Node1</title>
<path fill="none" stroke="#9a32cd" stroke-dasharray="5,2" d="M186.02,-27.69C188.25,-30.57 190.19,-33.7 191.5,-37 204.13,-68.8 200.68,-81.03 191.5,-114 189.71,-120.42 185.9,-126.84 182.45,-131.75"/>
<polygon fill="#9a32cd" stroke="#9a32cd" points="188.75,-25.49 179.36,-20.59 183.65,-30.28 188.75,-25.49"/>
<text text-anchor="middle" x="236" y="-73" font-family="Helvetica,sans-Serif" font-size="10.00"> mClusterPointer</text>
</g>
<!-- Node3&#45;&gt;Node2 -->
<g id="edge2" class="edge">
<title>Node3&#45;&gt;Node2</title>
<path fill="none" stroke="#9a32cd" stroke-dasharray="5,2" d="M132.44,-55.04C134.44,-49 137.09,-42.5 140.5,-37 144.57,-30.43 150.54,-24.19 155.73,-19.42"/>
<polygon fill="#9a32cd" stroke="#9a32cd" points="129.2,-53.65 129.8,-64.23 135.93,-55.58 129.2,-53.65"/>
<text text-anchor="middle" x="166" y="-40" font-family="Helvetica,sans-Serif" font-size="10.00"> mDeformer</text>
</g>
<!-- Node4 -->
<g id="node4" class="node">
<title>Node4</title>
<g id="a_node4"><a xlink:href="structJ3DAnmCluster.html" target="_top" xlink:title=" ">
<polygon fill="white" stroke="#666666" points="85,-151 0,-151 0,-132 85,-132 85,-151"/>
<text text-anchor="middle" x="42.5" y="-139" font-family="Helvetica,sans-Serif" font-size="10.00">J3DAnmCluster</text>
</a>
</g>
</g>
<!-- Node4&#45;&gt;Node3 -->
<g id="edge4" class="edge">
<title>Node4&#45;&gt;Node3</title>
<path fill="none" stroke="#9a32cd" stroke-dasharray="5,2" d="M48.06,-120.93C50.68,-114.54 54.38,-107.85 59.5,-103 68.05,-94.9 79.37,-89.18 90.31,-85.19"/>
<polygon fill="#9a32cd" stroke="#9a32cd" points="44.81,-119.61 44.94,-130.2 51.45,-121.84 44.81,-119.61"/>
<text text-anchor="middle" x="90.5" y="-106" font-family="Helvetica,sans-Serif" font-size="10.00"> mAnmCluster</text>
</g>
<!-- Node5 -->
<g id="node5" class="node">
<title>Node5</title>
<g id="a_node5"><a xlink:href="classJ3DAnmBase.html" target="_top" xlink:title=" ">
<polygon fill="white" stroke="#666666" points="81,-217 4,-217 4,-198 81,-198 81,-217"/>
<text text-anchor="middle" x="42.5" y="-205" font-family="Helvetica,sans-Serif" font-size="10.00">J3DAnmBase</text>
</a>
</g>
</g>
<!-- Node5&#45;&gt;Node4 -->
<g id="edge5" class="edge">
<title>Node5&#45;&gt;Node4</title>
<path fill="none" stroke="#63b8ff" d="M42.5,-186.18C42.5,-174.44 42.5,-160.27 42.5,-151.32"/>
<polygon fill="#63b8ff" stroke="#63b8ff" points="39,-186.09 42.5,-196.09 46,-186.09 39,-186.09"/>
</g>
<!-- Node6 -->
<g id="node6" class="node">
<title>Node6</title>
<g id="a_node6"><a xlink:href="structJ3DClusterKey.html" target="_top" xlink:title=" ">
<polygon fill="white" stroke="#666666" points="216,-217 135,-217 135,-198 216,-198 216,-217"/>
<text text-anchor="middle" x="175.5" y="-205" font-family="Helvetica,sans-Serif" font-size="10.00">J3DClusterKey</text>
</a>
</g>
</g>
<!-- Node6&#45;&gt;Node1 -->
<g id="edge6" class="edge">
<title>Node6&#45;&gt;Node1</title>
<path fill="none" stroke="#9a32cd" stroke-dasharray="5,2" d="M175.5,-186.18C175.5,-174.44 175.5,-160.27 175.5,-151.32"/>
<polygon fill="#9a32cd" stroke="#9a32cd" points="172,-186.09 175.5,-196.09 179,-186.09 172,-186.09"/>
<text text-anchor="middle" x="220" y="-172" font-family="Helvetica,sans-Serif" font-size="10.00"> mClusterKeyPointer</text>
</g>
</g>
</svg>
