<?xml version="1.0" encoding="UTF-8" standalone="no"?>
<!DOCTYPE svg PUBLIC "-//W3C//DTD SVG 1.1//EN"
 "http://www.w3.org/Graphics/SVG/1.1/DTD/svg11.dtd">
<!-- Generated by graphviz version 7.0.5 (20221223.1930)
 -->
<!-- Title: JUTCacheFont Pages: 1 -->
<svg width="825pt" height="385pt"
 viewBox="0.00 0.00 825.00 385.07" xmlns="http://www.w3.org/2000/svg" xmlns:xlink="http://www.w3.org/1999/xlink">
<g id="graph0" class="graph" transform="scale(1 1) rotate(0) translate(4 381.07)">
<title>JUTCacheFont</title>
<!-- Node1 -->
<g id="node1" class="node">
<title>Node1</title>
<g id="a_node1"><a xlink:title=" ">
<polygon fill="#999999" stroke="#666666" points="817,-145.57 734,-145.57 734,-126.57 817,-126.57 817,-145.57"/>
<text text-anchor="middle" x="775.5" y="-133.57" font-family="Helvetica,sans-Serif" font-size="10.00">JUTCacheFont</text>
</a>
</g>
</g>
<!-- Node2 -->
<g id="node2" class="node">
<title>Node2</title>
<g id="a_node2"><a xlink:href="structJUTResFont.html" target="_top" xlink:title=" ">
<polygon fill="white" stroke="#666666" points="607,-226.57 535,-226.57 535,-207.57 607,-207.57 607,-226.57"/>
<text text-anchor="middle" x="571" y="-214.57" font-family="Helvetica,sans-Serif" font-size="10.00">JUTResFont</text>
</a>
</g>
</g>
<!-- Node2&#45;&gt;Node1 -->
<g id="edge1" class="edge">
<title>Node2&#45;&gt;Node1</title>
<path fill="none" stroke="#63b8ff" d="M618.45,-206.68C647.34,-199.31 684.79,-188.05 716,-173.07 732.25,-165.27 749.54,-153.91 761.08,-145.84"/>
<polygon fill="#63b8ff" stroke="#63b8ff" points="617.77,-203.25 608.91,-209.05 619.46,-210.04 617.77,-203.25"/>
</g>
<!-- Node3 -->
<g id="node3" class="node">
<title>Node3</title>
<g id="a_node3"><a xlink:href="structJUTFont.html" target="_top" xlink:title=" ">
<polygon fill="white" stroke="#666666" points="341.5,-342.57 286.5,-342.57 286.5,-323.57 341.5,-323.57 341.5,-342.57"/>
<text text-anchor="middle" x="314" y="-330.57" font-family="Helvetica,sans-Serif" font-size="10.00">JUTFont</text>
</a>
</g>
</g>
<!-- Node3&#45;&gt;Node2 -->
<g id="edge2" class="edge">
<title>Node3&#45;&gt;Node2</title>
<path fill="none" stroke="#63b8ff" d="M353.34,-327.81C386.1,-322.28 433.85,-311.72 472,-293.07 507.98,-275.49 543.41,-243.34 560.1,-227.07"/>
<polygon fill="#63b8ff" stroke="#63b8ff" points="352.81,-324.35 343.48,-329.39 353.91,-331.27 352.81,-324.35"/>
</g>
<!-- Node4 -->
<g id="node4" class="node">
<title>Node4</title>
<g id="a_node4"><a xlink:href="structJUtility_1_1TColor.html" target="_top" xlink:title=" ">
<polygon fill="white" stroke="#666666" points="170,-342.57 90,-342.57 90,-323.57 170,-323.57 170,-342.57"/>
<text text-anchor="middle" x="130" y="-330.57" font-family="Helvetica,sans-Serif" font-size="10.00">JUtility::TColor</text>
</a>
</g>
</g>
<!-- Node4&#45;&gt;Node3 -->
<g id="edge3" class="edge">
<title>Node4&#45;&gt;Node3</title>
<path fill="none" stroke="#9a32cd" stroke-dasharray="5,2" d="M181.6,-333.07C215.51,-333.07 258.82,-333.07 286.24,-333.07"/>
<polygon fill="#9a32cd" stroke="#9a32cd" points="182,-329.57 172,-333.07 182,-336.57 182,-329.57"/>
<text text-anchor="middle" x="207.5" y="-369.07" font-family="Helvetica,sans-Serif" font-size="10.00"> mColor1</text>
<text text-anchor="middle" x="207.5" y="-358.07" font-family="Helvetica,sans-Serif" font-size="10.00">mColor2</text>
<text text-anchor="middle" x="207.5" y="-347.07" font-family="Helvetica,sans-Serif" font-size="10.00">mColor3</text>
<text text-anchor="middle" x="207.5" y="-336.07" font-family="Helvetica,sans-Serif" font-size="10.00">mColor4</text>
</g>
<!-- Node5 -->
<g id="node5" class="node">
<title>Node5</title>
<g id="a_node5"><a xlink:href="struct__GXColor.html" target="_top" xlink:title=" ">
<polygon fill="white" stroke="#666666" points="53,-342.57 0,-342.57 0,-323.57 53,-323.57 53,-342.57"/>
<text text-anchor="middle" x="26.5" y="-330.57" font-family="Helvetica,sans-Serif" font-size="10.00">GXColor</text>
</a>
</g>
</g>
<!-- Node5&#45;&gt;Node4 -->
<g id="edge4" class="edge">
<title>Node5&#45;&gt;Node4</title>
<path fill="none" stroke="#63b8ff" d="M64.81,-333.07C72.93,-333.07 81.55,-333.07 89.74,-333.07"/>
<polygon fill="#63b8ff" stroke="#63b8ff" points="64.89,-329.57 54.89,-333.07 64.89,-336.57 64.89,-329.57"/>
</g>
<!-- Node6 -->
<g id="node6" class="node">
<title>Node6</title>
<g id="a_node6"><a xlink:href="struct__GXTexObj.html" target="_top" xlink:title=" ">
<polygon fill="white" stroke="#666666" points="347.5,-305.57 280.5,-305.57 280.5,-286.57 347.5,-286.57 347.5,-305.57"/>
<text text-anchor="middle" x="314" y="-293.57" font-family="Helvetica,sans-Serif" font-size="10.00">_GXTexObj</text>
</a>
</g>
</g>
<!-- Node6&#45;&gt;Node2 -->
<g id="edge5" class="edge">
<title>Node6&#45;&gt;Node2</title>
<path fill="none" stroke="#9a32cd" stroke-dasharray="5,2" d="M359.11,-288.27C390.91,-282.08 434.64,-272.43 472,-260.07 500.05,-250.8 531.06,-236.46 550.53,-226.92"/>
<polygon fill="#9a32cd" stroke="#9a32cd" points="358.62,-284.8 349.45,-290.1 359.93,-291.67 358.62,-284.8"/>
<text text-anchor="middle" x="436.5" y="-281.07" font-family="Helvetica,sans-Serif" font-size="10.00"> mTexObj</text>
</g>
<!-- Node7 -->
<g id="node7" class="node">
<title>Node7</title>
<g id="a_node7"><a xlink:href="structResFONT.html" target="_top" xlink:title=" ">
<polygon fill="white" stroke="#666666" points="344.5,-268.57 283.5,-268.57 283.5,-249.57 344.5,-249.57 344.5,-268.57"/>
<text text-anchor="middle" x="314" y="-256.57" font-family="Helvetica,sans-Serif" font-size="10.00">ResFONT</text>
</a>
</g>
</g>
<!-- Node7&#45;&gt;Node2 -->
<g id="edge6" class="edge">
<title>Node7&#45;&gt;Node2</title>
<path fill="none" stroke="#9a32cd" stroke-dasharray="5,2" d="M355.9,-253.16C387.61,-248.5 432.65,-241.69 472,-235.07 492.81,-231.57 516.04,-227.32 534.66,-223.83"/>
<polygon fill="#9a32cd" stroke="#9a32cd" points="355.73,-249.65 346.35,-254.56 356.75,-256.58 355.73,-249.65"/>
<text text-anchor="middle" x="436.5" y="-248.07" font-family="Helvetica,sans-Serif" font-size="10.00"> mResFont</text>
</g>
<!-- Node8 -->
<g id="node8" class="node">
<title>Node8</title>
<g id="a_node8"><a xlink:href="structResFONT_1_1INF1.html" target="_top" xlink:title=" ">
<polygon fill="white" stroke="#666666" points="357.5,-231.57 270.5,-231.57 270.5,-212.57 357.5,-212.57 357.5,-231.57"/>
<text text-anchor="middle" x="314" y="-219.57" font-family="Helvetica,sans-Serif" font-size="10.00">ResFONT::INF1</text>
</a>
</g>
</g>
<!-- Node8&#45;&gt;Node2 -->
<g id="edge7" class="edge">
<title>Node8&#45;&gt;Node2</title>
<path fill="none" stroke="#9a32cd" stroke-dasharray="5,2" d="M369.2,-221.01C419.15,-220.03 491.83,-218.61 534.67,-217.77"/>
<polygon fill="#9a32cd" stroke="#9a32cd" points="369.41,-217.51 359.48,-221.2 369.55,-224.5 369.41,-217.51"/>
<text text-anchor="middle" x="436.5" y="-223.07" font-family="Helvetica,sans-Serif" font-size="10.00"> mInf1Ptr</text>
</g>
<!-- Node9 -->
<g id="node9" class="node">
<title>Node9</title>
<g id="a_node9"><a xlink:href="structResFONT_1_1WID1.html" target="_top" xlink:title=" ">
<polygon fill="white" stroke="#666666" points="358.5,-194.57 269.5,-194.57 269.5,-175.57 358.5,-175.57 358.5,-194.57"/>
<text text-anchor="middle" x="314" y="-182.57" font-family="Helvetica,sans-Serif" font-size="10.00">ResFONT::WID1</text>
</a>
</g>
</g>
<!-- Node9&#45;&gt;Node2 -->
<g id="edge8" class="edge">
<title>Node9&#45;&gt;Node2</title>
<path fill="none" stroke="#9a32cd" stroke-dasharray="5,2" d="M369.81,-191.55C399.98,-195.15 438.07,-199.77 472,-204.07 492.77,-206.71 516,-209.78 534.63,-212.28"/>
<polygon fill="#9a32cd" stroke="#9a32cd" points="370.51,-188.11 360.17,-190.4 369.69,-195.06 370.51,-188.11"/>
<text text-anchor="middle" x="436.5" y="-207.07" font-family="Helvetica,sans-Serif" font-size="10.00"> mpWidthBlocks</text>
</g>
<!-- Node10 -->
<g id="node10" class="node">
<title>Node10</title>
<g id="a_node10"><a xlink:href="structResFONT_1_1GLY1.html" target="_top" xlink:title=" ">
<polygon fill="white" stroke="#666666" points="359.5,-157.57 268.5,-157.57 268.5,-138.57 359.5,-138.57 359.5,-157.57"/>
<text text-anchor="middle" x="314" y="-145.57" font-family="Helvetica,sans-Serif" font-size="10.00">ResFONT::GLY1</text>
</a>
</g>
</g>
<!-- Node10&#45;&gt;Node2 -->
<g id="edge9" class="edge">
<title>Node10&#45;&gt;Node2</title>
<path fill="none" stroke="#9a32cd" stroke-dasharray="5,2" d="M370.88,-152.7C401.87,-156.9 440.4,-164.89 472,-180.07 481.39,-184.58 480.77,-190.25 490,-195.07 503.79,-202.28 520.18,-207.32 534.53,-210.74"/>
<polygon fill="#9a32cd" stroke="#9a32cd" points="371.69,-149.28 361.34,-151.51 370.82,-156.22 371.69,-149.28"/>
<text text-anchor="middle" x="436.5" y="-183.07" font-family="Helvetica,sans-Serif" font-size="10.00"> mpGlyphBlocks</text>
</g>
<!-- Node11 -->
<g id="node11" class="node">
<title>Node11</title>
<g id="a_node11"><a xlink:href="structResFONT_1_1MAP1.html" target="_top" xlink:title=" ">
<polygon fill="white" stroke="#666666" points="360,-120.57 268,-120.57 268,-101.57 360,-101.57 360,-120.57"/>
<text text-anchor="middle" x="314" y="-108.57" font-family="Helvetica,sans-Serif" font-size="10.00">ResFONT::MAP1</text>
</a>
</g>
</g>
<!-- Node11&#45;&gt;Node2 -->
<g id="edge10" class="edge">
<title>Node11&#45;&gt;Node2</title>
<path fill="none" stroke="#9a32cd" stroke-dasharray="5,2" d="M371.46,-108.89C404.39,-110.59 444.7,-118.17 472,-142.07 490.72,-158.46 471.9,-178.01 490,-195.07 502.05,-206.44 519.42,-212.03 534.9,-214.74"/>
<polygon fill="#9a32cd" stroke="#9a32cd" points="371.77,-105.4 361.66,-108.57 371.54,-112.4 371.77,-105.4"/>
<text text-anchor="middle" x="436.5" y="-145.07" font-family="Helvetica,sans-Serif" font-size="10.00"> mpMapBlocks</text>
</g>
<!-- Node12 -->
<g id="node12" class="node">
<title>Node12</title>
<g id="a_node12"><a xlink:href="structJUTCacheFont_1_1TGlyphCacheInfo.html" target="_top" xlink:title=" ">
<polygon fill="white" stroke="#666666" points="652,-145.57 490,-145.57 490,-126.57 652,-126.57 652,-145.57"/>
<text text-anchor="middle" x="571" y="-133.57" font-family="Helvetica,sans-Serif" font-size="10.00">JUTCacheFont::TGlyphCacheInfo</text>
</a>
</g>
</g>
<!-- Node12&#45;&gt;Node1 -->
<g id="edge11" class="edge">
<title>Node12&#45;&gt;Node1</title>
<path fill="none" stroke="#9a32cd" stroke-dasharray="5,2" d="M663.51,-136.07C688.01,-136.07 713.28,-136.07 733.51,-136.07"/>
<polygon fill="#9a32cd" stroke="#9a32cd" points="663.84,-132.57 653.84,-136.07 663.84,-139.57 663.84,-132.57"/>
<text text-anchor="middle" x="693" y="-161.07" font-family="Helvetica,sans-Serif" font-size="10.00"> field_0x9c</text>
<text text-anchor="middle" x="693" y="-150.07" font-family="Helvetica,sans-Serif" font-size="10.00">field_0xa0</text>
<text text-anchor="middle" x="693" y="-139.07" font-family="Helvetica,sans-Serif" font-size="10.00">field_0xa4</text>
</g>
<!-- Node12&#45;&gt;Node12 -->
<g id="edge12" class="edge">
<title>Node12&#45;&gt;Node12</title>
<path fill="none" stroke="#9a32cd" stroke-dasharray="5,2" d="M549.35,-157C552.05,-160.86 559.27,-163.57 571,-163.57 592.45,-163.57 598.81,-154.51 590.1,-145.94"/>
<polygon fill="#9a32cd" stroke="#9a32cd" points="552.72,-157.95 551.56,-147.42 545.9,-156.37 552.72,-157.95"/>
<text text-anchor="middle" x="571" y="-177.57" font-family="Helvetica,sans-Serif" font-size="10.00"> mNext</text>
<text text-anchor="middle" x="571" y="-166.57" font-family="Helvetica,sans-Serif" font-size="10.00">mPrev</text>
</g>
<!-- Node13 -->
<g id="node13" class="node">
<title>Node13</title>
<g id="a_node13"><a xlink:href="classJKRAramBlock.html" target="_top" xlink:title=" ">
<polygon fill="white" stroke="#666666" points="612.5,-100.57 529.5,-100.57 529.5,-81.57 612.5,-81.57 612.5,-100.57"/>
<text text-anchor="middle" x="571" y="-88.57" font-family="Helvetica,sans-Serif" font-size="10.00">JKRAramBlock</text>
</a>
</g>
</g>
<!-- Node13&#45;&gt;Node1 -->
<g id="edge13" class="edge">
<title>Node13&#45;&gt;Node1</title>
<path fill="none" stroke="#9a32cd" stroke-dasharray="5,2" d="M623.71,-101.25C651.19,-106.81 685.5,-113.99 716,-121.07 722.74,-122.64 729.89,-124.39 736.8,-126.14"/>
<polygon fill="#9a32cd" stroke="#9a32cd" points="624.74,-97.89 614.25,-99.35 623.36,-104.75 624.74,-97.89"/>
<text text-anchor="middle" x="693" y="-124.07" font-family="Helvetica,sans-Serif" font-size="10.00"> field_0xac</text>
</g>
<!-- Node14 -->
<g id="node14" class="node">
<title>Node14</title>
<g id="a_node14"><a xlink:href="classJSULink.html" target="_top" xlink:title=" ">
<polygon fill="white" stroke="#666666" points="383,-83.57 245,-83.57 245,-64.57 383,-64.57 383,-83.57"/>
<text text-anchor="middle" x="314" y="-71.57" font-family="Helvetica,sans-Serif" font-size="10.00">JSULink&lt; JKRAramBlock &gt;</text>
</a>
</g>
</g>
<!-- Node14&#45;&gt;Node13 -->
<g id="edge14" class="edge">
<title>Node14&#45;&gt;Node13</title>
<path fill="none" stroke="#9a32cd" stroke-dasharray="5,2" d="M394.67,-74.46C419.47,-75.02 446.9,-76.09 472,-78.07 490.82,-79.56 511.56,-82.17 529.1,-84.66"/>
<polygon fill="#9a32cd" stroke="#9a32cd" points="395.06,-70.97 384.99,-74.27 394.92,-77.97 395.06,-70.97"/>
<text text-anchor="middle" x="436.5" y="-81.07" font-family="Helvetica,sans-Serif" font-size="10.00"> mBlockLink</text>
</g>
<!-- Node15 -->
<g id="node15" class="node">
<title>Node15</title>
<g id="a_node15"><a xlink:href="structJSUPtrLink.html" target="_top" xlink:title=" ">
<polygon fill="white" stroke="#666666" points="164,-46.57 96,-46.57 96,-27.57 164,-27.57 164,-46.57"/>
<text text-anchor="middle" x="130" y="-34.57" font-family="Helvetica,sans-Serif" font-size="10.00">JSUPtrLink</text>
</a>
</g>
</g>
<!-- Node15&#45;&gt;Node14 -->
<g id="edge15" class="edge">
<title>Node15&#45;&gt;Node14</title>
<path fill="none" stroke="#63b8ff" d="M164.8,-50.95C172.33,-53.64 180.36,-56.2 188,-58.07 206.17,-62.52 226.15,-65.78 244.69,-68.16"/>
<polygon fill="#63b8ff" stroke="#63b8ff" points="166.21,-47.74 155.62,-47.5 163.75,-54.29 166.21,-47.74"/>
</g>
<!-- Node15&#45;&gt;Node15 -->
<g id="edge18" class="edge">
<title>Node15&#45;&gt;Node15</title>
<path fill="none" stroke="#9a32cd" stroke-dasharray="5,2" d="M119.73,-58.33C121.11,-62.02 124.54,-64.57 130,-64.57 140.28,-64.57 143.34,-55.51 139.16,-46.94"/>
<polygon fill="#9a32cd" stroke="#9a32cd" points="123.21,-58.74 120.69,-48.45 116.24,-58.06 123.21,-58.74"/>
<text text-anchor="middle" x="130" y="-78.57" font-family="Helvetica,sans-Serif" font-size="10.00"> mNext</text>
<text text-anchor="middle" x="130" y="-67.57" font-family="Helvetica,sans-Serif" font-size="10.00">mPrev</text>
</g>
<!-- Node16 -->
<g id="node16" class="node">
<title>Node16</title>
<g id="a_node16"><a xlink:href="structJSUPtrList.html" target="_top" xlink:title=" ">
<polygon fill="white" stroke="#666666" points="346.5,-29.57 281.5,-29.57 281.5,-10.57 346.5,-10.57 346.5,-29.57"/>
<text text-anchor="middle" x="314" y="-17.57" font-family="Helvetica,sans-Serif" font-size="10.00">JSUPtrList</text>
</a>
</g>
</g>
<!-- Node15&#45;&gt;Node16 -->
<g id="edge17" class="edge">
<title>Node15&#45;&gt;Node16</title>
<path fill="none" stroke="#9a32cd" stroke-dasharray="5,2" d="M175.44,-32.92C208.12,-29.87 251.77,-25.79 281.05,-23.06"/>
<polygon fill="#9a32cd" stroke="#9a32cd" points="175.52,-29.4 165.89,-33.81 176.17,-36.37 175.52,-29.4"/>
<text text-anchor="middle" x="207.5" y="-46.07" font-family="Helvetica,sans-Serif" font-size="10.00"> mHead</text>
<text text-anchor="middle" x="207.5" y="-35.07" font-family="Helvetica,sans-Serif" font-size="10.00">mTail</text>
</g>
<!-- Node16&#45;&gt;Node15 -->
<g id="edge16" class="edge">
<title>Node16&#45;&gt;Node15</title>
<path fill="none" stroke="#9a32cd" stroke-dasharray="5,2" d="M273.2,-7.21C248.37,-1.09 215.94,3.43 188,-4.07 171.44,-8.52 154.71,-19.09 143.7,-27.07"/>
<polygon fill="#9a32cd" stroke="#9a32cd" points="272,-10.51 282.56,-9.71 273.8,-3.75 272,-10.51"/>
<text text-anchor="middle" x="207.5" y="-7.07" font-family="Helvetica,sans-Serif" font-size="10.00"> mList</text>
</g>
</g>
</svg>
