<?xml version="1.0" encoding="UTF-8" standalone="no"?>
<!DOCTYPE svg PUBLIC "-//W3C//DTD SVG 1.1//EN"
 "http://www.w3.org/Graphics/SVG/1.1/DTD/svg11.dtd">
<!-- Generated by graphviz version 7.0.5 (20221223.1930)
 -->
<!-- Title: mDoLib_clipper Pages: 1 -->
<svg width="92pt" height="192pt"
 viewBox="0.00 0.00 92.00 192.00" xmlns="http://www.w3.org/2000/svg" xmlns:xlink="http://www.w3.org/1999/xlink">
<g id="graph0" class="graph" transform="scale(1 1) rotate(0) translate(4 188)">
<title>mDoLib_clipper</title>
<!-- Node1 -->
<g id="node1" class="node">
<title>Node1</title>
<g id="a_node1"><a xlink:title=" ">
<polygon fill="#999999" stroke="#666666" points="84,-19 0,-19 0,0 84,0 84,-19"/>
<text text-anchor="middle" x="42" y="-7" font-family="Helvetica,sans-Serif" font-size="10.00">mDoLib_clipper</text>
</a>
</g>
</g>
<!-- Node2 -->
<g id="node2" class="node">
<title>Node2</title>
<g id="a_node2"><a xlink:href="classJ3DUClipper.html" target="_top" xlink:title=" ">
<polygon fill="white" stroke="#666666" points="77.5,-85 6.5,-85 6.5,-66 77.5,-66 77.5,-85"/>
<text text-anchor="middle" x="42" y="-73" font-family="Helvetica,sans-Serif" font-size="10.00">J3DUClipper</text>
</a>
</g>
</g>
<!-- Node2&#45;&gt;Node1 -->
<g id="edge1" class="edge">
<title>Node2&#45;&gt;Node1</title>
<path fill="none" stroke="#9a32cd" stroke-dasharray="5,2" d="M42,-54.18C42,-42.44 42,-28.27 42,-19.32"/>
<polygon fill="#9a32cd" stroke="#9a32cd" points="38.5,-54.09 42,-64.09 45.5,-54.09 38.5,-54.09"/>
<text text-anchor="middle" x="62.5" y="-40" font-family="Helvetica,sans-Serif" font-size="10.00"> mClipper</text>
</g>
<!-- Node3 -->
<g id="node3" class="node">
<title>Node3</title>
<g id="a_node3"><a xlink:href="structVec.html" target="_top" xlink:title=" ">
<polygon fill="white" stroke="#666666" points="59,-184 25,-184 25,-165 59,-165 59,-184"/>
<text text-anchor="middle" x="42" y="-172" font-family="Helvetica,sans-Serif" font-size="10.00">Vec</text>
</a>
</g>
</g>
<!-- Node3&#45;&gt;Node2 -->
<g id="edge2" class="edge">
<title>Node3&#45;&gt;Node2</title>
<path fill="none" stroke="#9a32cd" stroke-dasharray="5,2" d="M42,-153.16C42,-132.27 42,-100.72 42,-85.43"/>
<polygon fill="#9a32cd" stroke="#9a32cd" points="38.5,-153.03 42,-163.03 45.5,-153.03 38.5,-153.03"/>
<text text-anchor="middle" x="51.5" y="-139" font-family="Helvetica,sans-Serif" font-size="10.00"> _04</text>
<text text-anchor="middle" x="51.5" y="-128" font-family="Helvetica,sans-Serif" font-size="10.00">_10</text>
<text text-anchor="middle" x="51.5" y="-117" font-family="Helvetica,sans-Serif" font-size="10.00">_1C</text>
<text text-anchor="middle" x="51.5" y="-106" font-family="Helvetica,sans-Serif" font-size="10.00">_28</text>
</g>
</g>
</svg>
