<?xml version="1.0" encoding="UTF-8" standalone="no"?>
<!DOCTYPE svg PUBLIC "-//W3C//DTD SVG 1.1//EN"
 "http://www.w3.org/Graphics/SVG/1.1/DTD/svg11.dtd">
<!-- Generated by graphviz version 7.0.5 (20221223.1930)
 -->
<!-- Title: JAISoundInfo Pages: 1 -->
<svg width="115pt" height="104pt"
 viewBox="0.00 0.00 115.00 104.00" xmlns="http://www.w3.org/2000/svg" xmlns:xlink="http://www.w3.org/1999/xlink">
<g id="graph0" class="graph" transform="scale(1 1) rotate(0) translate(4 100)">
<title>JAISoundInfo</title>
<!-- Node1 -->
<g id="node1" class="node">
<title>Node1</title>
<g id="a_node1"><a xlink:title=" ">
<polygon fill="#999999" stroke="#666666" points="91.5,-96 15.5,-96 15.5,-77 91.5,-77 91.5,-96"/>
<text text-anchor="middle" x="53.5" y="-84" font-family="Helvetica,sans-Serif" font-size="10.00">JAISoundInfo</text>
</a>
</g>
</g>
<!-- Node2 -->
<g id="node2" class="node">
<title>Node2</title>
<g id="a_node2"><a xlink:href="classJASGlobalInstance.html" target="_top" xlink:title=" ">
<polygon fill="white" stroke="#666666" points="107,-30 0,-30 0,0 107,0 107,-30"/>
<text text-anchor="start" x="8" y="-18" font-family="Helvetica,sans-Serif" font-size="10.00">JASGlobalInstance&lt;</text>
<text text-anchor="middle" x="53.5" y="-7" font-family="Helvetica,sans-Serif" font-size="10.00"> JAISoundInfo &gt;</text>
</a>
</g>
</g>
<!-- Node1&#45;&gt;Node2 -->
<g id="edge2" class="edge">
<title>Node1&#45;&gt;Node2</title>
<path fill="none" stroke="#9a32cd" stroke-dasharray="5,2" d="M27.88,-69.56C21.4,-63.43 17.13,-55.97 20.5,-48 23.36,-41.24 28.43,-35.2 33.75,-30.25"/>
<polygon fill="#9a32cd" stroke="#9a32cd" points="25.61,-72.24 35.65,-75.63 29.92,-66.72 25.61,-72.24"/>
<text text-anchor="middle" x="43.5" y="-51" font-family="Helvetica,sans-Serif" font-size="10.00"> sInstance</text>
</g>
<!-- Node2&#45;&gt;Node1 -->
<g id="edge1" class="edge">
<title>Node2&#45;&gt;Node1</title>
<path fill="none" stroke="#63b8ff" d="M69.22,-40.57C71.35,-46.53 72.28,-52.93 70.5,-59 68.59,-65.5 64.55,-71.92 60.88,-76.82"/>
<polygon fill="#63b8ff" stroke="#63b8ff" points="72.53,-39.37 65.05,-31.86 66.21,-42.39 72.53,-39.37"/>
</g>
</g>
</svg>
