<?xml version="1.0" encoding="UTF-8" standalone="no"?>
<!DOCTYPE svg PUBLIC "-//W3C//DTD SVG 1.1//EN"
 "http://www.w3.org/Graphics/SVG/1.1/DTD/svg11.dtd">
<!-- Generated by graphviz version 7.0.5 (20221223.1930)
 -->
<!-- Title: dRes_control_c Pages: 1 -->
<svg width="2061pt" height="607pt"
 viewBox="0.00 0.00 2061.00 606.53" xmlns="http://www.w3.org/2000/svg" xmlns:xlink="http://www.w3.org/1999/xlink">
<g id="graph0" class="graph" transform="scale(1 1) rotate(0) translate(4 602.53)">
<title>dRes_control_c</title>
<!-- Node1 -->
<g id="node1" class="node">
<title>Node1</title>
<g id="a_node1"><a xlink:title=" ">
<polygon fill="#999999" stroke="#666666" points="2053,-345.03 1969,-345.03 1969,-326.03 2053,-326.03 2053,-345.03"/>
<text text-anchor="middle" x="2011" y="-333.03" font-family="Helvetica,sans-Serif" font-size="10.00">dRes_control_c</text>
</a>
</g>
</g>
<!-- Node2 -->
<g id="node2" class="node">
<title>Node2</title>
<g id="a_node2"><a xlink:href="structdRes__info__c.html" target="_top" xlink:title=" ">
<polygon fill="white" stroke="#666666" points="1877,-345.03 1806,-345.03 1806,-326.03 1877,-326.03 1877,-345.03"/>
<text text-anchor="middle" x="1841.5" y="-333.03" font-family="Helvetica,sans-Serif" font-size="10.00">dRes_info_c</text>
</a>
</g>
</g>
<!-- Node2&#45;&gt;Node1 -->
<g id="edge1" class="edge">
<title>Node2&#45;&gt;Node1</title>
<path fill="none" stroke="#9a32cd" stroke-dasharray="5,2" d="M1888.61,-335.53C1913.62,-335.53 1944.28,-335.53 1968.53,-335.53"/>
<polygon fill="#9a32cd" stroke="#9a32cd" points="1888.72,-332.03 1878.72,-335.53 1888.72,-339.03 1888.72,-332.03"/>
<text text-anchor="middle" x="1923" y="-349.53" font-family="Helvetica,sans-Serif" font-size="10.00"> mObjectInfo</text>
<text text-anchor="middle" x="1923" y="-338.53" font-family="Helvetica,sans-Serif" font-size="10.00">mStageInfo</text>
</g>
<!-- Node3 -->
<g id="node3" class="node">
<title>Node3</title>
<g id="a_node3"><a xlink:href="structmDoDvdThd__mountArchive__c.html" target="_top" xlink:title=" ">
<polygon fill="white" stroke="#666666" points="1700,-419.03 1554,-419.03 1554,-400.03 1700,-400.03 1700,-419.03"/>
<text text-anchor="middle" x="1627" y="-407.03" font-family="Helvetica,sans-Serif" font-size="10.00">mDoDvdThd_mountArchive_c</text>
</a>
</g>
</g>
<!-- Node3&#45;&gt;Node2 -->
<g id="edge2" class="edge">
<title>Node3&#45;&gt;Node2</title>
<path fill="none" stroke="#9a32cd" stroke-dasharray="5,2" d="M1701.67,-397.2C1729.44,-391.11 1760.85,-382.45 1788,-370.53 1802.85,-364.02 1818.07,-353.34 1828.28,-345.49"/>
<polygon fill="#9a32cd" stroke="#9a32cd" points="1700.97,-393.77 1691.91,-399.26 1702.41,-400.62 1700.97,-393.77"/>
<text text-anchor="middle" x="1753" y="-396.53" font-family="Helvetica,sans-Serif" font-size="10.00"> mDMCommand</text>
</g>
<!-- Node4 -->
<g id="node4" class="node">
<title>Node4</title>
<g id="a_node4"><a xlink:href="classmDoDvdThd__command__c.html" target="_top" xlink:title=" ">
<polygon fill="white" stroke="#666666" points="1463,-484.03 1334,-484.03 1334,-465.03 1463,-465.03 1463,-484.03"/>
<text text-anchor="middle" x="1398.5" y="-472.03" font-family="Helvetica,sans-Serif" font-size="10.00">mDoDvdThd_command_c</text>
</a>
</g>
</g>
<!-- Node4&#45;&gt;Node3 -->
<g id="edge3" class="edge">
<title>Node4&#45;&gt;Node3</title>
<path fill="none" stroke="#63b8ff" d="M1448.93,-461.6C1474.91,-454.69 1507.25,-445.9 1536,-437.53 1555.8,-431.77 1577.91,-424.9 1595.26,-419.4"/>
<polygon fill="#63b8ff" stroke="#63b8ff" points="1448.08,-458.21 1439.31,-464.15 1449.88,-464.97 1448.08,-458.21"/>
</g>
<!-- Node5 -->
<g id="node5" class="node">
<title>Node5</title>
<g id="a_node5"><a xlink:href="structnode__class.html" target="_top" xlink:title=" ">
<polygon fill="white" stroke="#666666" points="1204,-507.03 1138,-507.03 1138,-488.03 1204,-488.03 1204,-507.03"/>
<text text-anchor="middle" x="1171" y="-495.03" font-family="Helvetica,sans-Serif" font-size="10.00">node_class</text>
</a>
</g>
</g>
<!-- Node5&#45;&gt;Node4 -->
<g id="edge4" class="edge">
<title>Node5&#45;&gt;Node4</title>
<path fill="none" stroke="#63b8ff" d="M1215.57,-493.09C1249.08,-489.67 1295.88,-484.9 1333.63,-481.05"/>
<polygon fill="#63b8ff" stroke="#63b8ff" points="1215.41,-489.59 1205.81,-494.08 1216.12,-496.55 1215.41,-489.59"/>
</g>
<!-- Node5&#45;&gt;Node5 -->
<g id="edge5" class="edge">
<title>Node5&#45;&gt;Node5</title>
<path fill="none" stroke="#9a32cd" stroke-dasharray="5,2" d="M1153.96,-518.46C1156.09,-522.32 1161.77,-525.03 1171,-525.03 1187.88,-525.03 1192.88,-515.97 1186.03,-507.4"/>
<polygon fill="#9a32cd" stroke="#9a32cd" points="1157.36,-519.35 1155.7,-508.89 1150.47,-518.1 1157.36,-519.35"/>
<text text-anchor="middle" x="1171" y="-539.03" font-family="Helvetica,sans-Serif" font-size="10.00"> mpNextNode</text>
<text text-anchor="middle" x="1171" y="-528.03" font-family="Helvetica,sans-Serif" font-size="10.00">mpPrevNode</text>
</g>
<!-- Node6 -->
<g id="node6" class="node">
<title>Node6</title>
<g id="a_node6"><a xlink:href="classJKRMemArchive.html" target="_top" xlink:title=" ">
<polygon fill="white" stroke="#666666" points="1443.5,-439.03 1353.5,-439.03 1353.5,-420.03 1443.5,-420.03 1443.5,-439.03"/>
<text text-anchor="middle" x="1398.5" y="-427.03" font-family="Helvetica,sans-Serif" font-size="10.00">JKRMemArchive</text>
</a>
</g>
</g>
<!-- Node6&#45;&gt;Node3 -->
<g id="edge6" class="edge">
<title>Node6&#45;&gt;Node3</title>
<path fill="none" stroke="#9a32cd" stroke-dasharray="5,2" d="M1455.37,-424.6C1485,-421.98 1521.75,-418.74 1553.54,-415.93"/>
<polygon fill="#9a32cd" stroke="#9a32cd" points="1455.14,-421.11 1445.49,-425.47 1455.76,-428.08 1455.14,-421.11"/>
<text text-anchor="middle" x="1508.5" y="-425.53" font-family="Helvetica,sans-Serif" font-size="10.00"> mArchive</text>
</g>
<!-- Node7 -->
<g id="node7" class="node">
<title>Node7</title>
<g id="a_node7"><a xlink:href="structJKRArchive.html" target="_top" xlink:title=" ">
<polygon fill="white" stroke="#666666" points="1205,-433.03 1137,-433.03 1137,-414.03 1205,-414.03 1205,-433.03"/>
<text text-anchor="middle" x="1171" y="-421.03" font-family="Helvetica,sans-Serif" font-size="10.00">JKRArchive</text>
</a>
</g>
</g>
<!-- Node7&#45;&gt;Node2 -->
<g id="edge50" class="edge">
<title>Node7&#45;&gt;Node2</title>
<path fill="none" stroke="#9a32cd" stroke-dasharray="5,2" d="M1216.51,-417.67C1341.38,-401.23 1693.2,-354.92 1805.55,-340.13"/>
<polygon fill="#9a32cd" stroke="#9a32cd" points="1216.11,-414.2 1206.65,-418.97 1217.02,-421.14 1216.11,-414.2"/>
<text text-anchor="middle" x="1508.5" y="-386.53" font-family="Helvetica,sans-Serif" font-size="10.00"> mArchive</text>
</g>
<!-- Node7&#45;&gt;Node6 -->
<g id="edge7" class="edge">
<title>Node7&#45;&gt;Node6</title>
<path fill="none" stroke="#63b8ff" d="M1216.69,-424.72C1256.28,-425.77 1313.75,-427.3 1353.22,-428.35"/>
<polygon fill="#63b8ff" stroke="#63b8ff" points="1216.88,-421.23 1206.79,-424.46 1216.69,-428.22 1216.88,-421.23"/>
</g>
<!-- Node8 -->
<g id="node8" class="node">
<title>Node8</title>
<g id="a_node8"><a xlink:href="structJKRFileLoader.html" target="_top" xlink:title=" ">
<polygon fill="white" stroke="#666666" points="987.5,-456.03 906.5,-456.03 906.5,-437.03 987.5,-437.03 987.5,-456.03"/>
<text text-anchor="middle" x="947" y="-444.03" font-family="Helvetica,sans-Serif" font-size="10.00">JKRFileLoader</text>
</a>
</g>
</g>
<!-- Node8&#45;&gt;Node7 -->
<g id="edge8" class="edge">
<title>Node8&#45;&gt;Node7</title>
<path fill="none" stroke="#63b8ff" d="M998.84,-443.17C1031.51,-440.77 1074.83,-437.16 1113,-432.53 1120.66,-431.6 1128.87,-430.42 1136.6,-429.22"/>
<polygon fill="#63b8ff" stroke="#63b8ff" points="998.99,-439.65 989.27,-443.86 999.49,-446.63 998.99,-439.65"/>
</g>
<!-- Node8&#45;&gt;Node8 -->
<g id="edge40" class="edge">
<title>Node8&#45;&gt;Node8</title>
<path fill="none" stroke="#9a32cd" stroke-dasharray="5,2" d="M926.41,-467.46C928.99,-471.32 935.85,-474.03 947,-474.03 967.39,-474.03 973.44,-464.97 965.16,-456.4"/>
<polygon fill="#9a32cd" stroke="#9a32cd" points="929.79,-468.4 928.51,-457.88 922.95,-466.9 929.79,-468.4"/>
<text text-anchor="middle" x="947" y="-477.03" font-family="Helvetica,sans-Serif" font-size="10.00"> sCurrentVolume</text>
</g>
<!-- Node9 -->
<g id="node9" class="node">
<title>Node9</title>
<g id="a_node9"><a xlink:href="classJKRDisposer.html" target="_top" xlink:title=" ">
<polygon fill="white" stroke="#666666" points="767,-392.03 693,-392.03 693,-373.03 767,-373.03 767,-392.03"/>
<text text-anchor="middle" x="730" y="-380.03" font-family="Helvetica,sans-Serif" font-size="10.00">JKRDisposer</text>
</a>
</g>
</g>
<!-- Node9&#45;&gt;Node8 -->
<g id="edge9" class="edge">
<title>Node9&#45;&gt;Node8</title>
<path fill="none" stroke="#63b8ff" d="M778.16,-394.78C802.03,-401.38 831.32,-410.1 857,-419.53 865.22,-422.55 866.75,-424.61 875,-427.53 884.99,-431.06 895.96,-434.3 906.23,-437.07"/>
<polygon fill="#63b8ff" stroke="#63b8ff" points="779.29,-391.46 768.72,-392.21 777.44,-398.21 779.29,-391.46"/>
</g>
<!-- Node10 -->
<g id="node10" class="node">
<title>Node10</title>
<g id="a_node10"><a xlink:href="structJKRHeap.html" target="_top" xlink:title=" ">
<polygon fill="white" stroke="#666666" points="976.5,-331.03 917.5,-331.03 917.5,-312.03 976.5,-312.03 976.5,-331.03"/>
<text text-anchor="middle" x="947" y="-319.03" font-family="Helvetica,sans-Serif" font-size="10.00">JKRHeap</text>
</a>
</g>
</g>
<!-- Node9&#45;&gt;Node10 -->
<g id="edge11" class="edge">
<title>Node9&#45;&gt;Node10</title>
<path fill="none" stroke="#63b8ff" d="M778.55,-380.34C802.49,-378.27 831.72,-374.27 857,-366.53 884.32,-358.17 913.39,-341.89 930.61,-331.38"/>
<polygon fill="#63b8ff" stroke="#63b8ff" points="778.47,-376.83 768.77,-381.09 779.01,-383.81 778.47,-376.83"/>
</g>
<!-- Node10&#45;&gt;Node2 -->
<g id="edge51" class="edge">
<title>Node10&#45;&gt;Node2</title>
<path fill="none" stroke="#9a32cd" stroke-dasharray="5,2" d="M988.19,-319.5C1032.65,-317.44 1106.42,-314.53 1170,-314.53 1170,-314.53 1170,-314.53 1628,-314.53 1690.84,-314.53 1763.62,-323.74 1805.63,-329.96"/>
<polygon fill="#9a32cd" stroke="#9a32cd" points="988.06,-316.01 978.24,-319.98 988.4,-323 988.06,-316.01"/>
<text text-anchor="middle" x="1398.5" y="-317.53" font-family="Helvetica,sans-Serif" font-size="10.00"> heap</text>
</g>
<!-- Node10&#45;&gt;Node3 -->
<g id="edge49" class="edge">
<title>Node10&#45;&gt;Node3</title>
<path fill="none" stroke="#9a32cd" stroke-dasharray="5,2" d="M988,-326.72C1098.87,-341.11 1411.32,-381.67 1553.7,-400.15"/>
<polygon fill="#9a32cd" stroke="#9a32cd" points="988.57,-323.27 978.2,-325.45 987.67,-330.21 988.57,-323.27"/>
<text text-anchor="middle" x="1272.5" y="-372.53" font-family="Helvetica,sans-Serif" font-size="10.00"> mHeap</text>
</g>
<!-- Node10&#45;&gt;Node7 -->
<g id="edge43" class="edge">
<title>Node10&#45;&gt;Node7</title>
<path fill="none" stroke="#9a32cd" stroke-dasharray="5,2" d="M978.08,-336.37C995.27,-344.77 1017.27,-355.39 1037,-364.53 1075.51,-382.37 1120.75,-402.2 1147.31,-413.73"/>
<polygon fill="#9a32cd" stroke="#9a32cd" points="979.94,-333.38 969.42,-332.12 976.86,-339.66 979.94,-333.38"/>
<text text-anchor="middle" x="1075" y="-402.53" font-family="Helvetica,sans-Serif" font-size="10.00"> mHeap</text>
</g>
<!-- Node10&#45;&gt;Node9 -->
<g id="edge10" class="edge">
<title>Node10&#45;&gt;Node9</title>
<path fill="none" stroke="#9a32cd" stroke-dasharray="5,2" d="M906.02,-329.91C877.61,-336.16 838.69,-345.36 805,-355.53 788.5,-360.51 770.32,-367.13 756.11,-372.57"/>
<polygon fill="#9a32cd" stroke="#9a32cd" points="906.61,-333.36 915.64,-327.81 905.12,-326.52 906.61,-333.36"/>
<text text-anchor="middle" x="831" y="-358.53" font-family="Helvetica,sans-Serif" font-size="10.00"> mHeap</text>
</g>
<!-- Node10&#45;&gt;Node10 -->
<g id="edge12" class="edge">
<title>Node10&#45;&gt;Node10</title>
<path fill="none" stroke="#9a32cd" stroke-dasharray="5,2" d="M926.41,-342.46C928.99,-346.32 935.85,-349.03 947,-349.03 967.39,-349.03 973.44,-339.97 965.16,-331.4"/>
<polygon fill="#9a32cd" stroke="#9a32cd" points="929.79,-343.4 928.51,-332.88 922.95,-341.9 929.79,-343.4"/>
<text text-anchor="middle" x="947" y="-374.03" font-family="Helvetica,sans-Serif" font-size="10.00"> sCurrentHeap</text>
<text text-anchor="middle" x="947" y="-363.03" font-family="Helvetica,sans-Serif" font-size="10.00">sRootHeap</text>
<text text-anchor="middle" x="947" y="-352.03" font-family="Helvetica,sans-Serif" font-size="10.00">sSystemHeap</text>
</g>
<!-- Node32 -->
<g id="node32" class="node">
<title>Node32</title>
<g id="a_node32"><a xlink:href="classJKRSolidHeap.html" target="_top" xlink:title=" ">
<polygon fill="white" stroke="#666666" points="1211,-278.03 1131,-278.03 1131,-259.03 1211,-259.03 1211,-278.03"/>
<text text-anchor="middle" x="1171" y="-266.03" font-family="Helvetica,sans-Serif" font-size="10.00">JKRSolidHeap</text>
</a>
</g>
</g>
<!-- Node10&#45;&gt;Node32 -->
<g id="edge53" class="edge">
<title>Node10&#45;&gt;Node32</title>
<path fill="none" stroke="#63b8ff" d="M987.6,-312.08C1028.02,-302.43 1090.39,-287.54 1130.7,-277.92"/>
<polygon fill="#63b8ff" stroke="#63b8ff" points="986.95,-308.63 978.04,-314.36 988.58,-315.44 986.95,-308.63"/>
</g>
<!-- Node11 -->
<g id="node11" class="node">
<title>Node11</title>
<g id="a_node11"><a xlink:href="structOSMutex.html" target="_top" xlink:title=" ">
<polygon fill="white" stroke="#666666" points="758.5,-141.03 701.5,-141.03 701.5,-122.03 758.5,-122.03 758.5,-141.03"/>
<text text-anchor="middle" x="730" y="-129.03" font-family="Helvetica,sans-Serif" font-size="10.00">OSMutex</text>
</a>
</g>
</g>
<!-- Node11&#45;&gt;Node10 -->
<g id="edge13" class="edge">
<title>Node11&#45;&gt;Node10</title>
<path fill="none" stroke="#9a32cd" stroke-dasharray="5,2" d="M742.92,-150.78C756.48,-171.87 780.02,-206.08 805,-231.53 825.42,-252.34 837.76,-249.62 857,-271.53 867.51,-283.5 862.35,-292.85 875,-302.53 887.06,-311.76 903.25,-316.51 917.12,-318.96"/>
<polygon fill="#9a32cd" stroke="#9a32cd" points="746.05,-149.18 737.74,-142.59 740.13,-152.92 746.05,-149.18"/>
<text text-anchor="middle" x="831" y="-274.53" font-family="Helvetica,sans-Serif" font-size="10.00"> mMutex</text>
</g>
<!-- Node13 -->
<g id="node13" class="node">
<title>Node13</title>
<g id="a_node13"><a xlink:href="structOSThread.html" target="_top" xlink:title=" ">
<polygon fill="white" stroke="#666666" points="1201.5,-120.03 1140.5,-120.03 1140.5,-101.03 1201.5,-101.03 1201.5,-120.03"/>
<text text-anchor="middle" x="1171" y="-108.03" font-family="Helvetica,sans-Serif" font-size="10.00">OSThread</text>
</a>
</g>
</g>
<!-- Node11&#45;&gt;Node13 -->
<g id="edge20" class="edge">
<title>Node11&#45;&gt;Node13</title>
<path fill="none" stroke="#9a32cd" stroke-dasharray="5,2" d="M769.48,-140.71C839.47,-155.72 991.59,-180.53 1113,-145.53 1130.18,-140.58 1147.32,-128.92 1158.25,-120.41"/>
<polygon fill="#9a32cd" stroke="#9a32cd" points="770.57,-137.37 760.05,-138.64 769.06,-144.21 770.57,-137.37"/>
<text text-anchor="middle" x="947" y="-166.53" font-family="Helvetica,sans-Serif" font-size="10.00"> mutex</text>
</g>
<!-- Node16 -->
<g id="node16" class="node">
<title>Node16</title>
<g id="a_node16"><a xlink:href="structOSMutexQueue.html" target="_top" xlink:title=" ">
<polygon fill="white" stroke="#666666" points="990,-58.03 904,-58.03 904,-39.03 990,-39.03 990,-58.03"/>
<text text-anchor="middle" x="947" y="-46.03" font-family="Helvetica,sans-Serif" font-size="10.00">OSMutexQueue</text>
</a>
</g>
</g>
<!-- Node11&#45;&gt;Node16 -->
<g id="edge22" class="edge">
<title>Node11&#45;&gt;Node16</title>
<path fill="none" stroke="#9a32cd" stroke-dasharray="5,2" d="M759.68,-116.45C788.24,-101.94 833.68,-80.25 875,-66.53 884.17,-63.49 894.16,-60.66 903.66,-58.2"/>
<polygon fill="#9a32cd" stroke="#9a32cd" points="758.24,-113.25 750.95,-120.94 761.44,-119.48 758.24,-113.25"/>
<text text-anchor="middle" x="831" y="-108.53" font-family="Helvetica,sans-Serif" font-size="10.00"> head</text>
<text text-anchor="middle" x="831" y="-97.53" font-family="Helvetica,sans-Serif" font-size="10.00">tail</text>
</g>
<!-- Node17 -->
<g id="node17" class="node">
<title>Node17</title>
<g id="a_node17"><a xlink:href="structOSMutexLink.html" target="_top" xlink:title=" ">
<polygon fill="white" stroke="#666666" points="985,-21.03 909,-21.03 909,-2.03 985,-2.03 985,-21.03"/>
<text text-anchor="middle" x="947" y="-9.03" font-family="Helvetica,sans-Serif" font-size="10.00">OSMutexLink</text>
</a>
</g>
</g>
<!-- Node11&#45;&gt;Node17 -->
<g id="edge25" class="edge">
<title>Node11&#45;&gt;Node17</title>
<path fill="none" stroke="#9a32cd" stroke-dasharray="5,2" d="M743.25,-112.24C756.3,-93.25 778.68,-64.81 805,-48.53 822.22,-37.88 872.99,-26.09 908.65,-18.75"/>
<polygon fill="#9a32cd" stroke="#9a32cd" points="740.44,-110.14 737.84,-120.41 746.28,-114.01 740.44,-110.14"/>
<text text-anchor="middle" x="831" y="-62.53" font-family="Helvetica,sans-Serif" font-size="10.00"> next</text>
<text text-anchor="middle" x="831" y="-51.53" font-family="Helvetica,sans-Serif" font-size="10.00">prev</text>
</g>
<!-- Node12 -->
<g id="node12" class="node">
<title>Node12</title>
<g id="a_node12"><a xlink:href="structOSThreadQueue.html" target="_top" xlink:title=" ">
<polygon fill="white" stroke="#666666" points="1443,-190.03 1354,-190.03 1354,-171.03 1443,-171.03 1443,-190.03"/>
<text text-anchor="middle" x="1398.5" y="-178.03" font-family="Helvetica,sans-Serif" font-size="10.00">OSThreadQueue</text>
</a>
</g>
</g>
<!-- Node12&#45;&gt;Node11 -->
<g id="edge14" class="edge">
<title>Node12&#45;&gt;Node11</title>
<path fill="none" stroke="#9a32cd" stroke-dasharray="5,2" d="M1358.85,-193.79C1345.45,-197.75 1330.22,-201.56 1316,-203.53 1277.7,-208.83 1267.64,-204.9 1229,-203.53 1071.37,-197.97 1031.59,-197.44 875,-178.53 843.66,-174.75 835.1,-176.03 805,-166.53 784.81,-160.16 763.05,-149.35 748.39,-141.42"/>
<polygon fill="#9a32cd" stroke="#9a32cd" points="1359.65,-197.2 1368.17,-190.9 1357.58,-190.51 1359.65,-197.2"/>
<text text-anchor="middle" x="1075" y="-202.53" font-family="Helvetica,sans-Serif" font-size="10.00"> queue</text>
</g>
<!-- Node12&#45;&gt;Node13 -->
<g id="edge17" class="edge">
<title>Node12&#45;&gt;Node13</title>
<path fill="none" stroke="#9a32cd" stroke-dasharray="5,2" d="M1375.06,-164.14C1359.3,-153.45 1337.32,-140.12 1316,-132.53 1278,-119.01 1231.45,-113.8 1201.76,-111.79"/>
<polygon fill="#9a32cd" stroke="#9a32cd" points="1373,-166.97 1383.2,-169.83 1377.01,-161.23 1373,-166.97"/>
<text text-anchor="middle" x="1272.5" y="-146.53" font-family="Helvetica,sans-Serif" font-size="10.00"> join_queue</text>
<text text-anchor="middle" x="1272.5" y="-135.53" font-family="Helvetica,sans-Serif" font-size="10.00">queue</text>
</g>
<!-- Node13&#45;&gt;Node11 -->
<g id="edge23" class="edge">
<title>Node13&#45;&gt;Node11</title>
<path fill="none" stroke="#9a32cd" stroke-dasharray="5,2" d="M1128.78,-116.02C1123.47,-116.6 1118.11,-117.13 1113,-117.53 980.69,-128.06 821.96,-130.68 758.85,-131.33"/>
<polygon fill="#9a32cd" stroke="#9a32cd" points="1129.14,-119.5 1138.67,-114.86 1128.33,-112.55 1129.14,-119.5"/>
<text text-anchor="middle" x="947" y="-132.53" font-family="Helvetica,sans-Serif" font-size="10.00"> thread</text>
</g>
<!-- Node13&#45;&gt;Node12 -->
<g id="edge15" class="edge">
<title>Node13&#45;&gt;Node12</title>
<path fill="none" stroke="#9a32cd" stroke-dasharray="5,2" d="M1187.97,-128.37C1198.52,-138.95 1213.28,-151.61 1229,-158.53 1268.82,-176.07 1318.69,-180.7 1353.81,-181.48"/>
<polygon fill="#9a32cd" stroke="#9a32cd" points="1190.63,-126.08 1181.2,-121.24 1185.55,-130.9 1190.63,-126.08"/>
<text text-anchor="middle" x="1272.5" y="-193.53" font-family="Helvetica,sans-Serif" font-size="10.00"> head</text>
<text text-anchor="middle" x="1272.5" y="-182.53" font-family="Helvetica,sans-Serif" font-size="10.00">tail</text>
</g>
<!-- Node15 -->
<g id="node15" class="node">
<title>Node15</title>
<g id="a_node15"><a xlink:href="structOSThreadLink.html" target="_top" xlink:title=" ">
<polygon fill="white" stroke="#666666" points="1438.5,-78.03 1358.5,-78.03 1358.5,-59.03 1438.5,-59.03 1438.5,-78.03"/>
<text text-anchor="middle" x="1398.5" y="-66.03" font-family="Helvetica,sans-Serif" font-size="10.00">OSThreadLink</text>
</a>
</g>
</g>
<!-- Node13&#45;&gt;Node15 -->
<g id="edge19" class="edge">
<title>Node13&#45;&gt;Node15</title>
<path fill="none" stroke="#9a32cd" stroke-dasharray="5,2" d="M1209.1,-97.06C1215.67,-94.99 1222.49,-93.05 1229,-91.53 1272.71,-81.36 1323.92,-75.16 1358.31,-71.8"/>
<polygon fill="#9a32cd" stroke="#9a32cd" points="1208.22,-93.67 1199.82,-100.12 1210.41,-100.31 1208.22,-93.67"/>
<text text-anchor="middle" x="1272.5" y="-105.53" font-family="Helvetica,sans-Serif" font-size="10.00"> next</text>
<text text-anchor="middle" x="1272.5" y="-94.53" font-family="Helvetica,sans-Serif" font-size="10.00">prev</text>
</g>
<!-- Node14 -->
<g id="node14" class="node">
<title>Node14</title>
<g id="a_node14"><a xlink:href="structOSContext.html" target="_top" xlink:title=" ">
<polygon fill="white" stroke="#666666" points="979,-95.03 915,-95.03 915,-76.03 979,-76.03 979,-95.03"/>
<text text-anchor="middle" x="947" y="-83.03" font-family="Helvetica,sans-Serif" font-size="10.00">OSContext</text>
</a>
</g>
</g>
<!-- Node14&#45;&gt;Node13 -->
<g id="edge16" class="edge">
<title>Node14&#45;&gt;Node13</title>
<path fill="none" stroke="#9a32cd" stroke-dasharray="5,2" d="M990.5,-90.32C1034.39,-95.26 1101.73,-102.84 1140.24,-107.18"/>
<polygon fill="#9a32cd" stroke="#9a32cd" points="991.17,-86.87 980.84,-89.23 990.39,-93.83 991.17,-86.87"/>
<text text-anchor="middle" x="1075" y="-107.53" font-family="Helvetica,sans-Serif" font-size="10.00"> context</text>
</g>
<!-- Node15&#45;&gt;Node13 -->
<g id="edge18" class="edge">
<title>Node15&#45;&gt;Node13</title>
<path fill="none" stroke="#9a32cd" stroke-dasharray="5,2" d="M1365.11,-54.43C1330.04,-41.37 1273.21,-26.71 1229,-46.53 1204.16,-57.67 1185.7,-85.59 1177.2,-100.61"/>
<polygon fill="#9a32cd" stroke="#9a32cd" points="1363.69,-57.64 1374.27,-58.02 1366.24,-51.12 1363.69,-57.64"/>
<text text-anchor="middle" x="1272.5" y="-60.53" font-family="Helvetica,sans-Serif" font-size="10.00"> active_threads_link</text>
<text text-anchor="middle" x="1272.5" y="-49.53" font-family="Helvetica,sans-Serif" font-size="10.00">link</text>
</g>
<!-- Node16&#45;&gt;Node13 -->
<g id="edge21" class="edge">
<title>Node16&#45;&gt;Node13</title>
<path fill="none" stroke="#9a32cd" stroke-dasharray="5,2" d="M1001.37,-55.42C1034.17,-60.58 1076.71,-68.94 1113,-81.53 1127.27,-86.48 1142.46,-94.36 1153.57,-100.65"/>
<polygon fill="#9a32cd" stroke="#9a32cd" points="1002.11,-51.99 991.7,-53.96 1001.06,-58.91 1002.11,-51.99"/>
<text text-anchor="middle" x="1075" y="-84.53" font-family="Helvetica,sans-Serif" font-size="10.00"> owned_mutexes</text>
</g>
<!-- Node17&#45;&gt;Node11 -->
<g id="edge24" class="edge">
<title>Node17&#45;&gt;Node11</title>
<path fill="none" stroke="#9a32cd" stroke-dasharray="5,2" d="M897.33,-2.08C868.67,0.95 832.71,0.18 805,-15.53 762.81,-39.44 741,-98.37 733.78,-121.75"/>
<polygon fill="#9a32cd" stroke="#9a32cd" points="896.86,-5.55 907.22,-3.33 897.74,1.39 896.86,-5.55"/>
<text text-anchor="middle" x="831" y="-18.53" font-family="Helvetica,sans-Serif" font-size="10.00"> link</text>
</g>
<!-- Node18 -->
<g id="node18" class="node">
<title>Node18</title>
<g id="a_node18"><a xlink:href="classJSUTree.html" target="_top" xlink:title=" ">
<polygon fill="white" stroke="#666666" points="787,-285.03 673,-285.03 673,-266.03 787,-266.03 787,-285.03"/>
<text text-anchor="middle" x="730" y="-273.03" font-family="Helvetica,sans-Serif" font-size="10.00">JSUTree&lt; JKRHeap &gt;</text>
</a>
</g>
</g>
<!-- Node18&#45;&gt;Node10 -->
<g id="edge26" class="edge">
<title>Node18&#45;&gt;Node10</title>
<path fill="none" stroke="#9a32cd" stroke-dasharray="5,2" d="M798.52,-284.78C817.55,-287.93 838.2,-291.86 857,-296.53 865.18,-298.56 866.92,-300.11 875,-302.53 888.81,-306.68 904.26,-310.87 917.22,-314.25"/>
<polygon fill="#9a32cd" stroke="#9a32cd" points="799.13,-281.34 788.7,-283.21 798.02,-288.25 799.13,-281.34"/>
<text text-anchor="middle" x="831" y="-299.53" font-family="Helvetica,sans-Serif" font-size="10.00"> mChildTree</text>
</g>
<!-- Node19 -->
<g id="node19" class="node">
<title>Node19</title>
<g id="a_node19"><a xlink:href="classJSUList.html" target="_top" xlink:title=" ">
<polygon fill="white" stroke="#666666" points="325.5,-283.03 250.5,-283.03 250.5,-264.03 325.5,-264.03 325.5,-283.03"/>
<text text-anchor="middle" x="288" y="-271.03" font-family="Helvetica,sans-Serif" font-size="10.00">JSUList&lt; T &gt;</text>
</a>
</g>
</g>
<!-- Node19&#45;&gt;Node18 -->
<g id="edge27" class="edge">
<title>Node19&#45;&gt;Node18</title>
<path fill="none" stroke="#63b8ff" d="M337.23,-273.75C419.23,-274.12 585.41,-274.88 672.64,-275.28"/>
<polygon fill="#63b8ff" stroke="#63b8ff" points="337.29,-270.25 327.27,-273.71 337.25,-277.25 337.29,-270.25"/>
</g>
<!-- Node20 -->
<g id="node20" class="node">
<title>Node20</title>
<g id="a_node20"><a xlink:href="structJSUPtrList.html" target="_top" xlink:title=" ">
<polygon fill="white" stroke="#666666" points="65,-358.03 0,-358.03 0,-339.03 65,-339.03 65,-358.03"/>
<text text-anchor="middle" x="32.5" y="-346.03" font-family="Helvetica,sans-Serif" font-size="10.00">JSUPtrList</text>
</a>
</g>
</g>
<!-- Node20&#45;&gt;Node19 -->
<g id="edge28" class="edge">
<title>Node20&#45;&gt;Node19</title>
<path fill="none" stroke="#63b8ff" d="M47.87,-330.11C56.83,-319.97 69.26,-308.13 83,-301.53 136.97,-275.6 207.65,-271.61 250.07,-271.96"/>
<polygon fill="#63b8ff" stroke="#63b8ff" points="45.35,-327.66 41.63,-337.58 50.73,-332.14 45.35,-327.66"/>
</g>
<!-- Node21 -->
<g id="node21" class="node">
<title>Node21</title>
<g id="a_node21"><a xlink:href="structJSUPtrLink.html" target="_top" xlink:title=" ">
<polygon fill="white" stroke="#666666" points="203,-400.03 135,-400.03 135,-381.03 203,-381.03 203,-400.03"/>
<text text-anchor="middle" x="169" y="-388.03" font-family="Helvetica,sans-Serif" font-size="10.00">JSUPtrLink</text>
</a>
</g>
</g>
<!-- Node20&#45;&gt;Node21 -->
<g id="edge30" class="edge">
<title>Node20&#45;&gt;Node21</title>
<path fill="none" stroke="#9a32cd" stroke-dasharray="5,2" d="M62.36,-363.2C69.02,-366.24 76.17,-369.21 83,-371.53 99.75,-377.22 118.95,-381.68 134.85,-384.84"/>
<polygon fill="#9a32cd" stroke="#9a32cd" points="64.28,-360.25 53.75,-359.12 61.28,-366.57 64.28,-360.25"/>
<text text-anchor="middle" x="100" y="-384.53" font-family="Helvetica,sans-Serif" font-size="10.00"> mList</text>
</g>
<!-- Node23 -->
<g id="node23" class="node">
<title>Node23</title>
<g id="a_node23"><a xlink:href="classJSUList.html" target="_top" xlink:title=" ">
<polygon fill="white" stroke="#666666" points="650,-331.03 524,-331.03 524,-312.03 650,-312.03 650,-331.03"/>
<text text-anchor="middle" x="587" y="-319.03" font-family="Helvetica,sans-Serif" font-size="10.00">JSUList&lt; JKRDisposer &gt;</text>
</a>
</g>
</g>
<!-- Node20&#45;&gt;Node23 -->
<g id="edge35" class="edge">
<title>Node20&#45;&gt;Node23</title>
<path fill="none" stroke="#63b8ff" d="M76.73,-341.23C78.85,-340.97 80.95,-340.74 83,-340.53 241.27,-324.81 428.73,-321.84 523.88,-321.44"/>
<polygon fill="#63b8ff" stroke="#63b8ff" points="76.31,-337.75 66.88,-342.59 77.26,-344.69 76.31,-337.75"/>
</g>
<!-- Node26 -->
<g id="node26" class="node">
<title>Node26</title>
<g id="a_node26"><a xlink:href="classJSUList.html" target="_top" xlink:title=" ">
<polygon fill="white" stroke="#666666" points="355,-478.03 221,-478.03 221,-459.03 355,-459.03 355,-478.03"/>
<text text-anchor="middle" x="288" y="-466.03" font-family="Helvetica,sans-Serif" font-size="10.00">JSUList&lt; JKRFileLoader &gt;</text>
</a>
</g>
</g>
<!-- Node20&#45;&gt;Node26 -->
<g id="edge42" class="edge">
<title>Node20&#45;&gt;Node26</title>
<path fill="none" stroke="#63b8ff" d="M46.62,-367.54C63.91,-390.92 96.66,-429.81 135,-448.53 161.31,-461.38 193.07,-466.88 220.74,-468.98"/>
<polygon fill="#63b8ff" stroke="#63b8ff" points="49.55,-365.61 40.87,-359.53 43.86,-369.69 49.55,-365.61"/>
</g>
<!-- Node21&#45;&gt;Node20 -->
<g id="edge29" class="edge">
<title>Node21&#45;&gt;Node20</title>
<path fill="none" stroke="#9a32cd" stroke-dasharray="5,2" d="M151.94,-372.93C142.7,-364.1 130.29,-354.3 117,-349.53 100.63,-343.66 81.25,-343.07 65.29,-344.1"/>
<polygon fill="#9a32cd" stroke="#9a32cd" points="149.2,-375.13 158.71,-379.81 154.2,-370.23 149.2,-375.13"/>
<text text-anchor="middle" x="100" y="-363.53" font-family="Helvetica,sans-Serif" font-size="10.00"> mHead</text>
<text text-anchor="middle" x="100" y="-352.53" font-family="Helvetica,sans-Serif" font-size="10.00">mTail</text>
</g>
<!-- Node21&#45;&gt;Node21 -->
<g id="edge31" class="edge">
<title>Node21&#45;&gt;Node21</title>
<path fill="none" stroke="#9a32cd" stroke-dasharray="5,2" d="M156.89,-411.79C158.52,-415.47 162.56,-418.03 169,-418.03 181.13,-418.03 184.73,-408.97 179.8,-400.4"/>
<polygon fill="#9a32cd" stroke="#9a32cd" points="160.36,-412.24 158.03,-401.9 153.41,-411.44 160.36,-412.24"/>
<text text-anchor="middle" x="169" y="-432.03" font-family="Helvetica,sans-Serif" font-size="10.00"> mNext</text>
<text text-anchor="middle" x="169" y="-421.03" font-family="Helvetica,sans-Serif" font-size="10.00">mPrev</text>
</g>
<!-- Node22 -->
<g id="node22" class="node">
<title>Node22</title>
<g id="a_node22"><a xlink:href="classJSULink.html" target="_top" xlink:title=" ">
<polygon fill="white" stroke="#666666" points="475.5,-363.03 398.5,-363.03 398.5,-344.03 475.5,-344.03 475.5,-363.03"/>
<text text-anchor="middle" x="437" y="-351.03" font-family="Helvetica,sans-Serif" font-size="10.00">JSULink&lt; T &gt;</text>
</a>
</g>
</g>
<!-- Node21&#45;&gt;Node22 -->
<g id="edge33" class="edge">
<title>Node21&#45;&gt;Node22</title>
<path fill="none" stroke="#63b8ff" d="M214.51,-384.34C265.98,-377.18 349.8,-365.52 398.22,-358.79"/>
<polygon fill="#63b8ff" stroke="#63b8ff" points="214.34,-380.83 204.92,-385.68 215.31,-387.76 214.34,-380.83"/>
</g>
<!-- Node24 -->
<g id="node24" class="node">
<title>Node24</title>
<g id="a_node24"><a xlink:href="classJSULink.html" target="_top" xlink:title=" ">
<polygon fill="white" stroke="#666666" points="501,-400.03 373,-400.03 373,-381.03 501,-381.03 501,-400.03"/>
<text text-anchor="middle" x="437" y="-388.03" font-family="Helvetica,sans-Serif" font-size="10.00">JSULink&lt; JKRDisposer &gt;</text>
</a>
</g>
</g>
<!-- Node21&#45;&gt;Node24 -->
<g id="edge37" class="edge">
<title>Node21&#45;&gt;Node24</title>
<path fill="none" stroke="#63b8ff" d="M214.71,-390.53C257.93,-390.53 323.85,-390.53 372.51,-390.53"/>
<polygon fill="#63b8ff" stroke="#63b8ff" points="214.93,-387.03 204.93,-390.53 214.93,-394.03 214.93,-387.03"/>
</g>
<!-- Node25 -->
<g id="node25" class="node">
<title>Node25</title>
<g id="a_node25"><a xlink:href="classJSULink.html" target="_top" xlink:title=" ">
<polygon fill="white" stroke="#666666" points="655,-440.03 519,-440.03 519,-421.03 655,-421.03 655,-440.03"/>
<text text-anchor="middle" x="587" y="-428.03" font-family="Helvetica,sans-Serif" font-size="10.00">JSULink&lt; JKRFileLoader &gt;</text>
</a>
</g>
</g>
<!-- Node21&#45;&gt;Node25 -->
<g id="edge39" class="edge">
<title>Node21&#45;&gt;Node25</title>
<path fill="none" stroke="#63b8ff" d="M213.89,-403.17C216.29,-403.67 218.67,-404.13 221,-404.53 323.85,-422.14 444.98,-427.85 518.59,-429.69"/>
<polygon fill="#63b8ff" stroke="#63b8ff" points="214.72,-399.76 204.18,-400.88 213.11,-406.58 214.72,-399.76"/>
</g>
<!-- Node22&#45;&gt;Node18 -->
<g id="edge32" class="edge">
<title>Node22&#45;&gt;Node18</title>
<path fill="none" stroke="#63b8ff" d="M462.57,-337.8C478.16,-328.51 499.08,-317.28 519,-310.53 546.74,-301.13 620.63,-289.96 672.89,-282.81"/>
<polygon fill="#63b8ff" stroke="#63b8ff" points="461.15,-334.56 454.45,-342.77 464.8,-340.54 461.15,-334.56"/>
</g>
<!-- Node23&#45;&gt;Node10 -->
<g id="edge34" class="edge">
<title>Node23&#45;&gt;Node10</title>
<path fill="none" stroke="#9a32cd" stroke-dasharray="5,2" d="M661.71,-321.53C740.82,-321.53 862.5,-321.53 917.39,-321.53"/>
<polygon fill="#9a32cd" stroke="#9a32cd" points="661.87,-318.03 651.87,-321.53 661.87,-325.03 661.87,-318.03"/>
<text text-anchor="middle" x="730" y="-324.53" font-family="Helvetica,sans-Serif" font-size="10.00"> mDisposerList</text>
</g>
<!-- Node24&#45;&gt;Node9 -->
<g id="edge36" class="edge">
<title>Node24&#45;&gt;Node9</title>
<path fill="none" stroke="#9a32cd" stroke-dasharray="5,2" d="M512.41,-388.49C570.13,-386.9 647.64,-384.77 692.57,-383.53"/>
<polygon fill="#9a32cd" stroke="#9a32cd" points="512.56,-384.98 502.66,-388.75 512.75,-391.98 512.56,-384.98"/>
<text text-anchor="middle" x="587" y="-391.53" font-family="Helvetica,sans-Serif" font-size="10.00"> mLink</text>
</g>
<!-- Node25&#45;&gt;Node8 -->
<g id="edge38" class="edge">
<title>Node25&#45;&gt;Node8</title>
<path fill="none" stroke="#9a32cd" stroke-dasharray="5,2" d="M666.46,-434.04C740.49,-437.35 848.47,-442.17 906.16,-444.75"/>
<polygon fill="#9a32cd" stroke="#9a32cd" points="667,-430.56 656.85,-433.61 666.68,-437.55 667,-430.56"/>
<text text-anchor="middle" x="730" y="-442.53" font-family="Helvetica,sans-Serif" font-size="10.00"> mFileLoaderLink</text>
</g>
<!-- Node26&#45;&gt;Node8 -->
<g id="edge41" class="edge">
<title>Node26&#45;&gt;Node8</title>
<path fill="none" stroke="#9a32cd" stroke-dasharray="5,2" d="M366.34,-468.67C475.72,-468.43 681.81,-466.38 857,-455.53 873.12,-454.53 890.83,-452.86 906.18,-451.23"/>
<polygon fill="#9a32cd" stroke="#9a32cd" points="366.61,-465.17 356.61,-468.69 366.62,-472.17 366.61,-465.17"/>
<text text-anchor="middle" x="587" y="-470.53" font-family="Helvetica,sans-Serif" font-size="10.00"> sVolumeList</text>
</g>
<!-- Node27 -->
<g id="node27" class="node">
<title>Node27</title>
<g id="a_node27"><a xlink:href="structSArcDataInfo.html" target="_top" xlink:title=" ">
<polygon fill="white" stroke="#666666" points="984.5,-419.03 909.5,-419.03 909.5,-400.03 984.5,-400.03 984.5,-419.03"/>
<text text-anchor="middle" x="947" y="-407.03" font-family="Helvetica,sans-Serif" font-size="10.00">SArcDataInfo</text>
</a>
</g>
</g>
<!-- Node27&#45;&gt;Node7 -->
<g id="edge44" class="edge">
<title>Node27&#45;&gt;Node7</title>
<path fill="none" stroke="#9a32cd" stroke-dasharray="5,2" d="M996.36,-412.58C1038.8,-415.26 1099.4,-419.08 1136.64,-421.43"/>
<polygon fill="#9a32cd" stroke="#9a32cd" points="996.62,-409.09 986.42,-411.96 996.18,-416.08 996.62,-409.09"/>
<text text-anchor="middle" x="1075" y="-423.53" font-family="Helvetica,sans-Serif" font-size="10.00"> mArcInfoBlock</text>
</g>
<!-- Node28 -->
<g id="node28" class="node">
<title>Node28</title>
<g id="a_node28"><a xlink:href="structJKRArchive_1_1SDIDirEntry.html" target="_top" xlink:title=" ">
<polygon fill="white" stroke="#666666" points="1008.5,-596.03 885.5,-596.03 885.5,-577.03 1008.5,-577.03 1008.5,-596.03"/>
<text text-anchor="middle" x="947" y="-584.03" font-family="Helvetica,sans-Serif" font-size="10.00">JKRArchive::SDIDirEntry</text>
</a>
</g>
</g>
<!-- Node28&#45;&gt;Node7 -->
<g id="edge45" class="edge">
<title>Node28&#45;&gt;Node7</title>
<path fill="none" stroke="#9a32cd" stroke-dasharray="5,2" d="M1020.34,-590.17C1052.93,-587.83 1089.32,-579.02 1113,-554.53 1148.35,-517.97 1100.3,-482.07 1131,-441.53 1133.43,-438.32 1136.57,-435.67 1140.01,-433.47"/>
<polygon fill="#9a32cd" stroke="#9a32cd" points="1020.32,-586.66 1010.51,-590.66 1020.67,-593.65 1020.32,-586.66"/>
<text text-anchor="middle" x="1075" y="-590.53" font-family="Helvetica,sans-Serif" font-size="10.00"> mNodes</text>
</g>
<!-- Node29 -->
<g id="node29" class="node">
<title>Node29</title>
<g id="a_node29"><a xlink:href="structJKRArchive_1_1SDIFileEntry.html" target="_top" xlink:title=" ">
<polygon fill="white" stroke="#666666" points="1010.5,-559.03 883.5,-559.03 883.5,-540.03 1010.5,-540.03 1010.5,-559.03"/>
<text text-anchor="middle" x="947" y="-547.03" font-family="Helvetica,sans-Serif" font-size="10.00">JKRArchive::SDIFileEntry</text>
</a>
</g>
</g>
<!-- Node29&#45;&gt;Node7 -->
<g id="edge46" class="edge">
<title>Node29&#45;&gt;Node7</title>
<path fill="none" stroke="#9a32cd" stroke-dasharray="5,2" d="M1021.91,-544.5C1053.78,-538.66 1089.13,-526.7 1113,-502.53 1132.86,-482.42 1112.52,-462.92 1131,-441.53 1133.83,-438.26 1137.38,-435.55 1141.17,-433.31"/>
<polygon fill="#9a32cd" stroke="#9a32cd" points="1021.61,-541 1012.3,-546.07 1022.74,-547.91 1021.61,-541"/>
<text text-anchor="middle" x="1075" y="-542.53" font-family="Helvetica,sans-Serif" font-size="10.00"> mFiles</text>
</g>
<!-- Node30 -->
<g id="node30" class="node">
<title>Node30</title>
<g id="a_node30"><a xlink:href="structJKRArchive_1_1EMountDirection.html" target="_top" xlink:title=" ">
<polygon fill="white" stroke="#666666" points="1019,-522.03 875,-522.03 875,-503.03 1019,-503.03 1019,-522.03"/>
<text text-anchor="middle" x="947" y="-510.03" font-family="Helvetica,sans-Serif" font-size="10.00">JKRArchive::EMountDirection</text>
</a>
</g>
</g>
<!-- Node30&#45;&gt;Node7 -->
<g id="edge47" class="edge">
<title>Node30&#45;&gt;Node7</title>
<path fill="none" stroke="#9a32cd" stroke-dasharray="5,2" d="M1003.52,-499.54C1008.79,-497.98 1014.02,-496.31 1019,-494.53 1062.44,-479.02 1071.48,-470.63 1113,-450.53 1121.05,-446.64 1122.94,-445.41 1131,-441.53 1136.51,-438.88 1142.49,-436.08 1148.08,-433.5"/>
<polygon fill="#9a32cd" stroke="#9a32cd" points="1002.84,-496.1 994.16,-502.17 1004.73,-502.84 1002.84,-496.1"/>
<text text-anchor="middle" x="1075" y="-490.53" font-family="Helvetica,sans-Serif" font-size="10.00"> mMountDirection</text>
</g>
<!-- Node31 -->
<g id="node31" class="node">
<title>Node31</title>
<g id="a_node31"><a xlink:href="structSArcHeader.html" target="_top" xlink:title=" ">
<polygon fill="white" stroke="#666666" points="1206,-470.03 1136,-470.03 1136,-451.03 1206,-451.03 1206,-470.03"/>
<text text-anchor="middle" x="1171" y="-458.03" font-family="Helvetica,sans-Serif" font-size="10.00">SArcHeader</text>
</a>
</g>
</g>
<!-- Node31&#45;&gt;Node6 -->
<g id="edge48" class="edge">
<title>Node31&#45;&gt;Node6</title>
<path fill="none" stroke="#9a32cd" stroke-dasharray="5,2" d="M1217.42,-454.29C1256.98,-448.85 1313.99,-441.01 1353.22,-435.62"/>
<polygon fill="#9a32cd" stroke="#9a32cd" points="1217.18,-450.79 1207.75,-455.62 1218.13,-457.72 1217.18,-450.79"/>
<text text-anchor="middle" x="1272.5" y="-455.53" font-family="Helvetica,sans-Serif" font-size="10.00"> mArcHeader</text>
</g>
<!-- Node32&#45;&gt;Node2 -->
<g id="edge52" class="edge">
<title>Node32&#45;&gt;Node2</title>
<path fill="none" stroke="#9a32cd" stroke-dasharray="5,2" d="M1222.59,-262.34C1329.99,-251.06 1587.38,-234.06 1788,-300.53 1804.01,-305.84 1819.76,-317.43 1829.76,-325.82"/>
<polygon fill="#9a32cd" stroke="#9a32cd" points="1222.22,-258.85 1212.66,-263.41 1222.98,-265.81 1222.22,-258.85"/>
<text text-anchor="middle" x="1508.5" y="-258.53" font-family="Helvetica,sans-Serif" font-size="10.00"> mDataHeap</text>
</g>
<!-- Node33 -->
<g id="node33" class="node">
<title>Node33</title>
<g id="a_node33"><a xlink:href="structJKRSolidHeap_1_1Unknown.html" target="_top" xlink:title=" ">
<polygon fill="white" stroke="#666666" points="1010,-265.03 884,-265.03 884,-246.03 1010,-246.03 1010,-265.03"/>
<text text-anchor="middle" x="947" y="-253.03" font-family="Helvetica,sans-Serif" font-size="10.00">JKRSolidHeap::Unknown</text>
</a>
</g>
</g>
<!-- Node33&#45;&gt;Node32 -->
<g id="edge54" class="edge">
<title>Node33&#45;&gt;Node32</title>
<path fill="none" stroke="#9a32cd" stroke-dasharray="5,2" d="M1021.52,-256.04C1050.12,-256.69 1083.13,-257.99 1113,-260.53 1118.68,-261.02 1124.65,-261.68 1130.51,-262.42"/>
<polygon fill="#9a32cd" stroke="#9a32cd" points="1021.96,-252.55 1011.89,-255.85 1021.82,-259.55 1021.96,-252.55"/>
<text text-anchor="middle" x="1075" y="-263.53" font-family="Helvetica,sans-Serif" font-size="10.00"> field_0x78</text>
</g>
<!-- Node33&#45;&gt;Node33 -->
<g id="edge55" class="edge">
<title>Node33&#45;&gt;Node33</title>
<path fill="none" stroke="#9a32cd" stroke-dasharray="5,2" d="M926.41,-276.46C928.99,-280.32 935.85,-283.03 947,-283.03 967.39,-283.03 973.44,-273.97 965.16,-265.4"/>
<polygon fill="#9a32cd" stroke="#9a32cd" points="929.79,-277.4 928.51,-266.88 922.95,-275.9 929.79,-277.4"/>
<text text-anchor="middle" x="947" y="-286.03" font-family="Helvetica,sans-Serif" font-size="10.00"> mNext</text>
</g>
</g>
</svg>
