<?xml version="1.0" encoding="UTF-8" standalone="no"?>
<!DOCTYPE svg PUBLIC "-//W3C//DTD SVG 1.1//EN"
 "http://www.w3.org/Graphics/SVG/1.1/DTD/svg11.dtd">
<!-- Generated by graphviz version 7.0.5 (20221223.1930)
 -->
<!-- Title: JStudio::TParse Pages: 1 -->
<svg width="127pt" height="148pt"
 viewBox="0.00 0.00 127.00 148.00" xmlns="http://www.w3.org/2000/svg" xmlns:xlink="http://www.w3.org/1999/xlink">
<g id="graph0" class="graph" transform="scale(1 1) rotate(0) translate(4 144)">
<title>JStudio::TParse</title>
<!-- Node1 -->
<g id="node1" class="node">
<title>Node1</title>
<g id="a_node1"><a xlink:title=" ">
<polygon fill="#999999" stroke="#666666" points="102.5,-19 16.5,-19 16.5,0 102.5,0 102.5,-19"/>
<text text-anchor="middle" x="59.5" y="-7" font-family="Helvetica,sans-Serif" font-size="10.00">JStudio::TParse</text>
</a>
</g>
</g>
<!-- Node2 -->
<g id="node2" class="node">
<title>Node2</title>
<g id="a_node2"><a xlink:href="classJStudio_1_1stb_1_1TParse.html" target="_top" xlink:title=" ">
<polygon fill="white" stroke="#666666" points="111.5,-74 7.5,-74 7.5,-55 111.5,-55 111.5,-74"/>
<text text-anchor="middle" x="59.5" y="-62" font-family="Helvetica,sans-Serif" font-size="10.00">JStudio::stb::TParse</text>
</a>
</g>
</g>
<!-- Node2&#45;&gt;Node1 -->
<g id="edge1" class="edge">
<title>Node2&#45;&gt;Node1</title>
<path fill="none" stroke="#63b8ff" d="M59.5,-43.35C59.5,-35.1 59.5,-25.97 59.5,-19.44"/>
<polygon fill="#63b8ff" stroke="#63b8ff" points="56,-43.23 59.5,-53.23 63,-43.23 56,-43.23"/>
</g>
<!-- Node3 -->
<g id="node3" class="node">
<title>Node3</title>
<g id="a_node3"><a xlink:href="structJGadget_1_1binary_1_1TParse__header__block.html" target="_top" xlink:title=" ">
<polygon fill="white" stroke="#666666" points="119,-140 0,-140 0,-110 119,-110 119,-140"/>
<text text-anchor="start" x="8" y="-128" font-family="Helvetica,sans-Serif" font-size="10.00">JGadget::binary::TParse</text>
<text text-anchor="middle" x="59.5" y="-117" font-family="Helvetica,sans-Serif" font-size="10.00">_header_block</text>
</a>
</g>
</g>
<!-- Node3&#45;&gt;Node2 -->
<g id="edge2" class="edge">
<title>Node3&#45;&gt;Node2</title>
<path fill="none" stroke="#63b8ff" d="M59.5,-98.3C59.5,-89.65 59.5,-80.58 59.5,-74.18"/>
<polygon fill="#63b8ff" stroke="#63b8ff" points="56,-98.03 59.5,-108.03 63,-98.03 56,-98.03"/>
</g>
</g>
</svg>
