<?xml version="1.0" encoding="UTF-8" standalone="no"?>
<!DOCTYPE svg PUBLIC "-//W3C//DTD SVG 1.1//EN"
 "http://www.w3.org/Graphics/SVG/1.1/DTD/svg11.dtd">
<!-- Generated by graphviz version 7.0.5 (20221223.1930)
 -->
<!-- Title: J2DAnmBase Pages: 1 -->
<svg width="394pt" height="285pt"
 viewBox="0.00 0.00 394.00 285.00" xmlns="http://www.w3.org/2000/svg" xmlns:xlink="http://www.w3.org/1999/xlink">
<g id="graph0" class="graph" transform="scale(1 1) rotate(0) translate(4 281)">
<title>J2DAnmBase</title>
<!-- Node1 -->
<g id="node1" class="node">
<title>Node1</title>
<g id="a_node1"><a xlink:title=" ">
<polygon fill="#999999" stroke="#666666" points="77,-148 0,-148 0,-129 77,-129 77,-148"/>
<text text-anchor="middle" x="38.5" y="-136" font-family="Helvetica,sans-Serif" font-size="10.00">J2DAnmBase</text>
</a>
</g>
</g>
<!-- Node2 -->
<g id="node2" class="node">
<title>Node2</title>
<g id="a_node2"><a xlink:href="structJ2DAnmColor.html" target="_top" xlink:title=" ">
<polygon fill="white" stroke="#666666" points="212.5,-259 135.5,-259 135.5,-240 212.5,-240 212.5,-259"/>
<text text-anchor="middle" x="174" y="-247" font-family="Helvetica,sans-Serif" font-size="10.00">J2DAnmColor</text>
</a>
</g>
</g>
<!-- Node1&#45;&gt;Node2 -->
<g id="edge1" class="edge">
<title>Node1&#45;&gt;Node2</title>
<path fill="none" stroke="#63b8ff" d="M50.07,-158.09C62.44,-179.22 84.88,-212.4 113,-231.5 119.66,-236.02 127.48,-239.43 135.24,-242"/>
<polygon fill="#63b8ff" stroke="#63b8ff" points="53.24,-156.59 45.28,-149.59 47.14,-160.02 53.24,-156.59"/>
</g>
<!-- Node5 -->
<g id="node5" class="node">
<title>Node5</title>
<g id="a_node5"><a xlink:href="structJ2DAnmTevRegKey.html" target="_top" xlink:title=" ">
<polygon fill="white" stroke="#666666" points="226,-222 122,-222 122,-203 226,-203 226,-222"/>
<text text-anchor="middle" x="174" y="-210" font-family="Helvetica,sans-Serif" font-size="10.00">J2DAnmTevRegKey</text>
</a>
</g>
</g>
<!-- Node1&#45;&gt;Node5 -->
<g id="edge4" class="edge">
<title>Node1&#45;&gt;Node5</title>
<path fill="none" stroke="#63b8ff" d="M57.95,-155.58C72.1,-167.89 92.6,-184.1 113,-194.5 119.1,-197.61 125.84,-200.28 132.52,-202.54"/>
<polygon fill="#63b8ff" stroke="#63b8ff" points="60.56,-153.21 50.77,-149.16 55.89,-158.44 60.56,-153.21"/>
</g>
<!-- Node6 -->
<g id="node6" class="node">
<title>Node6</title>
<g id="a_node6"><a xlink:href="structJ2DAnmTexPattern.html" target="_top" xlink:title=" ">
<polygon fill="white" stroke="#666666" points="224.5,-185 123.5,-185 123.5,-166 224.5,-166 224.5,-185"/>
<text text-anchor="middle" x="174" y="-173" font-family="Helvetica,sans-Serif" font-size="10.00">J2DAnmTexPattern</text>
</a>
</g>
</g>
<!-- Node1&#45;&gt;Node6 -->
<g id="edge5" class="edge">
<title>Node1&#45;&gt;Node6</title>
<path fill="none" stroke="#63b8ff" d="M85.97,-151.38C102.74,-156.03 121.4,-161.2 137.13,-165.56"/>
<polygon fill="#63b8ff" stroke="#63b8ff" points="87.31,-148.12 76.73,-148.82 85.44,-154.86 87.31,-148.12"/>
</g>
<!-- Node7 -->
<g id="node7" class="node">
<title>Node7</title>
<g id="a_node7"><a xlink:href="structJ2DAnmTextureSRTKey.html" target="_top" xlink:title=" ">
<polygon fill="white" stroke="#666666" points="235,-148 113,-148 113,-129 235,-129 235,-148"/>
<text text-anchor="middle" x="174" y="-136" font-family="Helvetica,sans-Serif" font-size="10.00">J2DAnmTextureSRTKey</text>
</a>
</g>
</g>
<!-- Node1&#45;&gt;Node7 -->
<g id="edge6" class="edge">
<title>Node1&#45;&gt;Node7</title>
<path fill="none" stroke="#63b8ff" d="M88.81,-138.5C96.53,-138.5 104.59,-138.5 112.53,-138.5"/>
<polygon fill="#63b8ff" stroke="#63b8ff" points="88.91,-135 78.91,-138.5 88.91,-142 88.91,-135"/>
</g>
<!-- Node8 -->
<g id="node8" class="node">
<title>Node8</title>
<g id="a_node8"><a xlink:href="structJ2DAnmTransform.html" target="_top" xlink:title=" ">
<polygon fill="white" stroke="#666666" points="223,-111 125,-111 125,-92 223,-92 223,-111"/>
<text text-anchor="middle" x="174" y="-99" font-family="Helvetica,sans-Serif" font-size="10.00">J2DAnmTransform</text>
</a>
</g>
</g>
<!-- Node1&#45;&gt;Node8 -->
<g id="edge7" class="edge">
<title>Node1&#45;&gt;Node8</title>
<path fill="none" stroke="#63b8ff" d="M85.97,-125.62C102.74,-120.97 121.4,-115.8 137.13,-111.44"/>
<polygon fill="#63b8ff" stroke="#63b8ff" points="85.44,-122.14 76.73,-128.18 87.31,-128.88 85.44,-122.14"/>
</g>
<!-- Node11 -->
<g id="node11" class="node">
<title>Node11</title>
<g id="a_node11"><a xlink:href="structJ2DAnmVisibilityFull.html" target="_top" xlink:title=" ">
<polygon fill="white" stroke="#666666" points="227,-74 121,-74 121,-55 227,-55 227,-74"/>
<text text-anchor="middle" x="174" y="-62" font-family="Helvetica,sans-Serif" font-size="10.00">J2DAnmVisibilityFull</text>
</a>
</g>
</g>
<!-- Node1&#45;&gt;Node11 -->
<g id="edge10" class="edge">
<title>Node1&#45;&gt;Node11</title>
<path fill="none" stroke="#63b8ff" d="M58.54,-121.42C72.72,-109.43 93,-93.77 113,-83.5 119.8,-80.01 127.37,-77 134.78,-74.48"/>
<polygon fill="#63b8ff" stroke="#63b8ff" points="56.58,-118.48 51.32,-127.68 61.17,-123.77 56.58,-118.48"/>
</g>
<!-- Node12 -->
<g id="node12" class="node">
<title>Node12</title>
<g id="a_node12"><a xlink:href="structJ2DAnmVtxColor.html" target="_top" xlink:title=" ">
<polygon fill="white" stroke="#666666" points="219.5,-37 128.5,-37 128.5,-18 219.5,-18 219.5,-37"/>
<text text-anchor="middle" x="174" y="-25" font-family="Helvetica,sans-Serif" font-size="10.00">J2DAnmVtxColor</text>
</a>
</g>
</g>
<!-- Node1&#45;&gt;Node12 -->
<g id="edge11" class="edge">
<title>Node1&#45;&gt;Node12</title>
<path fill="none" stroke="#63b8ff" d="M50.37,-118.88C62.87,-98.04 85.3,-65.52 113,-46.5 118.31,-42.85 124.37,-39.87 130.53,-37.45"/>
<polygon fill="#63b8ff" stroke="#63b8ff" points="47.49,-116.87 45.51,-127.27 53.55,-120.37 47.49,-116.87"/>
</g>
<!-- Node3 -->
<g id="node3" class="node">
<title>Node3</title>
<g id="a_node3"><a xlink:href="structJ2DAnmColorFull.html" target="_top" xlink:title=" ">
<polygon fill="white" stroke="#666666" points="374.5,-277 282.5,-277 282.5,-258 374.5,-258 374.5,-277"/>
<text text-anchor="middle" x="328.5" y="-265" font-family="Helvetica,sans-Serif" font-size="10.00">J2DAnmColorFull</text>
</a>
</g>
</g>
<!-- Node2&#45;&gt;Node3 -->
<g id="edge2" class="edge">
<title>Node2&#45;&gt;Node3</title>
<path fill="none" stroke="#63b8ff" d="M223.94,-255.28C242.6,-257.48 263.77,-259.98 282.09,-262.14"/>
<polygon fill="#63b8ff" stroke="#63b8ff" points="224.54,-251.82 214.2,-254.13 223.72,-258.78 224.54,-251.82"/>
</g>
<!-- Node4 -->
<g id="node4" class="node">
<title>Node4</title>
<g id="a_node4"><a xlink:href="structJ2DAnmColorKey.html" target="_top" xlink:title=" ">
<polygon fill="white" stroke="#666666" points="375,-240 282,-240 282,-221 375,-221 375,-240"/>
<text text-anchor="middle" x="328.5" y="-228" font-family="Helvetica,sans-Serif" font-size="10.00">J2DAnmColorKey</text>
</a>
</g>
</g>
<!-- Node2&#45;&gt;Node4 -->
<g id="edge3" class="edge">
<title>Node2&#45;&gt;Node4</title>
<path fill="none" stroke="#63b8ff" d="M224.11,-243.38C242.54,-241.09 263.4,-238.49 281.53,-236.23"/>
<polygon fill="#63b8ff" stroke="#63b8ff" points="223.69,-239.91 214.2,-244.62 224.55,-246.85 223.69,-239.91"/>
</g>
<!-- Node9 -->
<g id="node9" class="node">
<title>Node9</title>
<g id="a_node9"><a xlink:href="structJ2DAnmTransformFull.html" target="_top" xlink:title=" ">
<polygon fill="white" stroke="#666666" points="385.5,-139 271.5,-139 271.5,-120 385.5,-120 385.5,-139"/>
<text text-anchor="middle" x="328.5" y="-127" font-family="Helvetica,sans-Serif" font-size="10.00">J2DAnmTransformFull</text>
</a>
</g>
</g>
<!-- Node8&#45;&gt;Node9 -->
<g id="edge8" class="edge">
<title>Node8&#45;&gt;Node9</title>
<path fill="none" stroke="#63b8ff" d="M234.3,-112.39C247.11,-114.74 260.59,-117.21 273.2,-119.53"/>
<polygon fill="#63b8ff" stroke="#63b8ff" points="235.21,-109 224.74,-110.63 233.94,-115.88 235.21,-109"/>
</g>
<!-- Node10 -->
<g id="node10" class="node">
<title>Node10</title>
<g id="a_node10"><a xlink:href="structJ2DAnmTransformKey.html" target="_top" xlink:title=" ">
<polygon fill="white" stroke="#666666" points="386,-102 271,-102 271,-83 386,-83 386,-102"/>
<text text-anchor="middle" x="328.5" y="-90" font-family="Helvetica,sans-Serif" font-size="10.00">J2DAnmTransformKey</text>
</a>
</g>
</g>
<!-- Node8&#45;&gt;Node10 -->
<g id="edge9" class="edge">
<title>Node8&#45;&gt;Node10</title>
<path fill="none" stroke="#63b8ff" d="M234.48,-97.99C246.42,-97.29 258.93,-96.55 270.77,-95.85"/>
<polygon fill="#63b8ff" stroke="#63b8ff" points="234.54,-94.48 224.76,-98.56 234.95,-101.47 234.54,-94.48"/>
</g>
<!-- Node13 -->
<g id="node13" class="node">
<title>Node13</title>
<g id="a_node13"><a xlink:href="structJ2DAnmVtxColorFull.html" target="_top" xlink:title=" ">
<polygon fill="white" stroke="#666666" points="382,-56 275,-56 275,-37 382,-37 382,-56"/>
<text text-anchor="middle" x="328.5" y="-44" font-family="Helvetica,sans-Serif" font-size="10.00">J2DAnmVtxColorFull</text>
</a>
</g>
</g>
<!-- Node12&#45;&gt;Node13 -->
<g id="edge12" class="edge">
<title>Node12&#45;&gt;Node13</title>
<path fill="none" stroke="#63b8ff" d="M231.07,-34.49C245.28,-36.26 260.51,-38.15 274.56,-39.9"/>
<polygon fill="#63b8ff" stroke="#63b8ff" points="231.79,-31.05 221.43,-33.28 230.92,-37.99 231.79,-31.05"/>
</g>
<!-- Node14 -->
<g id="node14" class="node">
<title>Node14</title>
<g id="a_node14"><a xlink:href="structJ2DAnmVtxColorKey.html" target="_top" xlink:title=" ">
<polygon fill="white" stroke="#666666" points="382,-19 275,-19 275,0 382,0 382,-19"/>
<text text-anchor="middle" x="328.5" y="-7" font-family="Helvetica,sans-Serif" font-size="10.00">J2DAnmVtxColorKey</text>
</a>
</g>
</g>
<!-- Node12&#45;&gt;Node14 -->
<g id="edge13" class="edge">
<title>Node12&#45;&gt;Node14</title>
<path fill="none" stroke="#63b8ff" d="M231.07,-20.88C245.28,-19.2 260.51,-17.41 274.56,-15.75"/>
<polygon fill="#63b8ff" stroke="#63b8ff" points="230.95,-17.37 221.43,-22.02 231.77,-24.32 230.95,-17.37"/>
</g>
</g>
</svg>
