<?xml version="1.0" encoding="UTF-8" standalone="no"?>
<!DOCTYPE svg PUBLIC "-//W3C//DTD SVG 1.1//EN"
 "http://www.w3.org/Graphics/SVG/1.1/DTD/svg11.dtd">
<!-- Generated by graphviz version 7.0.5 (20221223.1930)
 -->
<!-- Title: _files Pages: 1 -->
<svg width="162pt" height="192pt"
 viewBox="0.00 0.00 161.50 192.00" xmlns="http://www.w3.org/2000/svg" xmlns:xlink="http://www.w3.org/1999/xlink">
<g id="graph0" class="graph" transform="scale(1 1) rotate(0) translate(4 188)">
<title>_files</title>
<!-- Node1 -->
<g id="node1" class="node">
<title>Node1</title>
<g id="a_node1"><a xlink:title=" ">
<polygon fill="#999999" stroke="#666666" points="95.5,-19 56.5,-19 56.5,0 95.5,0 95.5,-19"/>
<text text-anchor="middle" x="76" y="-7" font-family="Helvetica,sans-Serif" font-size="10.00">_files</text>
</a>
</g>
</g>
<!-- Node2 -->
<g id="node2" class="node">
<title>Node2</title>
<g id="a_node2"><a xlink:href="struct__FILE.html" target="_top" xlink:title=" ">
<polygon fill="white" stroke="#666666" points="97.5,-118 54.5,-118 54.5,-99 97.5,-99 97.5,-118"/>
<text text-anchor="middle" x="76" y="-106" font-family="Helvetica,sans-Serif" font-size="10.00">_FILE</text>
</a>
</g>
</g>
<!-- Node2&#45;&gt;Node1 -->
<g id="edge1" class="edge">
<title>Node2&#45;&gt;Node1</title>
<path fill="none" stroke="#9a32cd" stroke-dasharray="5,2" d="M76,-87.16C76,-66.27 76,-34.72 76,-19.43"/>
<polygon fill="#9a32cd" stroke="#9a32cd" points="72.5,-87.03 76,-97.03 79.5,-87.03 72.5,-87.03"/>
<text text-anchor="middle" x="92.5" y="-73" font-family="Helvetica,sans-Serif" font-size="10.00"> _stderr</text>
<text text-anchor="middle" x="92.5" y="-62" font-family="Helvetica,sans-Serif" font-size="10.00">_stdin</text>
<text text-anchor="middle" x="92.5" y="-51" font-family="Helvetica,sans-Serif" font-size="10.00">_stdout</text>
<text text-anchor="middle" x="92.5" y="-40" font-family="Helvetica,sans-Serif" font-size="10.00">empty</text>
</g>
<!-- Node2&#45;&gt;Node2 -->
<g id="edge4" class="edge">
<title>Node2&#45;&gt;Node2</title>
<path fill="none" stroke="#9a32cd" stroke-dasharray="5,2" d="M109.33,-113.73C113.08,-112.75 115.5,-111 115.5,-108.5 115.5,-103.92 107.4,-101.89 97.93,-102.39"/>
<polygon fill="#9a32cd" stroke="#9a32cd" points="109.14,-110.23 99.44,-114.5 109.68,-117.21 109.14,-110.23"/>
<text text-anchor="middle" x="134.5" y="-106" font-family="Helvetica,sans-Serif" font-size="10.00"> next_file</text>
</g>
<!-- Node3 -->
<g id="node3" class="node">
<title>Node3</title>
<g id="a_node3"><a xlink:href="struct__file__modes.html" target="_top" xlink:title=" ">
<polygon fill="white" stroke="#666666" points="68,-184 0,-184 0,-165 68,-165 68,-184"/>
<text text-anchor="middle" x="34" y="-172" font-family="Helvetica,sans-Serif" font-size="10.00">_file_modes</text>
</a>
</g>
</g>
<!-- Node3&#45;&gt;Node2 -->
<g id="edge2" class="edge">
<title>Node3&#45;&gt;Node2</title>
<path fill="none" stroke="#9a32cd" stroke-dasharray="5,2" d="M42.5,-154.49C45.52,-148.4 49.13,-141.75 53,-136 57.21,-129.73 62.74,-123.32 67.32,-118.37"/>
<polygon fill="#9a32cd" stroke="#9a32cd" points="39.52,-152.61 38.44,-163.15 45.85,-155.58 39.52,-152.61"/>
<text text-anchor="middle" x="75" y="-139" font-family="Helvetica,sans-Serif" font-size="10.00"> file_mode</text>
</g>
<!-- Node4 -->
<g id="node4" class="node">
<title>Node4</title>
<g id="a_node4"><a xlink:href="struct__file__states.html" target="_top" xlink:title=" ">
<polygon fill="white" stroke="#666666" points="152,-184 86,-184 86,-165 152,-165 152,-184"/>
<text text-anchor="middle" x="119" y="-172" font-family="Helvetica,sans-Serif" font-size="10.00">_file_states</text>
</a>
</g>
</g>
<!-- Node4&#45;&gt;Node2 -->
<g id="edge3" class="edge">
<title>Node4&#45;&gt;Node2</title>
<path fill="none" stroke="#9a32cd" stroke-dasharray="5,2" d="M108.65,-154.68C105.12,-148.61 101.05,-141.92 97,-136 92.76,-129.8 87.51,-123.18 83.32,-118.1"/>
<polygon fill="#9a32cd" stroke="#9a32cd" points="105.56,-156.34 113.52,-163.33 111.66,-152.9 105.56,-156.34"/>
<text text-anchor="middle" x="124" y="-139" font-family="Helvetica,sans-Serif" font-size="10.00"> file_state</text>
</g>
</g>
</svg>
