<?xml version="1.0" encoding="UTF-8" standalone="no"?>
<!DOCTYPE svg PUBLIC "-//W3C//DTD SVG 1.1//EN"
 "http://www.w3.org/Graphics/SVG/1.1/DTD/svg11.dtd">
<!-- Generated by graphviz version 7.0.5 (20221223.1930)
 -->
<!-- Title: JStudio_JAudio2::TAdaptor_sound Pages: 1 -->
<svg width="1143pt" height="821pt"
 viewBox="0.00 0.00 1143.00 821.00" xmlns="http://www.w3.org/2000/svg" xmlns:xlink="http://www.w3.org/1999/xlink">
<g id="graph0" class="graph" transform="scale(1 1) rotate(0) translate(4 817)">
<title>JStudio_JAudio2::TAdaptor_sound</title>
<!-- Node1 -->
<g id="node1" class="node">
<title>Node1</title>
<g id="a_node1"><a xlink:title=" ">
<polygon fill="#999999" stroke="#666666" points="1135,-394.5 1001,-394.5 1001,-364.5 1135,-364.5 1135,-394.5"/>
<text text-anchor="start" x="1009" y="-382.5" font-family="Helvetica,sans-Serif" font-size="10.00">JStudio_JAudio2::TAdaptor</text>
<text text-anchor="middle" x="1068" y="-371.5" font-family="Helvetica,sans-Serif" font-size="10.00">_sound</text>
</a>
</g>
</g>
<!-- Node2 -->
<g id="node2" class="node">
<title>Node2</title>
<g id="a_node2"><a xlink:href="structJStudio_1_1TAdaptor__sound.html" target="_top" xlink:title=" ">
<polygon fill="white" stroke="#666666" points="866,-408 741,-408 741,-389 866,-389 866,-408"/>
<text text-anchor="middle" x="803.5" y="-396" font-family="Helvetica,sans-Serif" font-size="10.00">JStudio::TAdaptor_sound</text>
</a>
</g>
</g>
<!-- Node2&#45;&gt;Node1 -->
<g id="edge1" class="edge">
<title>Node2&#45;&gt;Node1</title>
<path fill="none" stroke="#63b8ff" d="M877.57,-393.21C916.24,-390.41 963.38,-387 1000.95,-384.28"/>
<polygon fill="#63b8ff" stroke="#63b8ff" points="877.61,-389.7 867.89,-393.91 878.11,-396.68 877.61,-389.7"/>
</g>
<!-- Node3 -->
<g id="node3" class="node">
<title>Node3</title>
<g id="a_node3"><a xlink:href="structJStudio_1_1TAdaptor.html" target="_top" xlink:title=" ">
<polygon fill="white" stroke="#666666" points="594.5,-435 500.5,-435 500.5,-416 594.5,-416 594.5,-435"/>
<text text-anchor="middle" x="547.5" y="-423" font-family="Helvetica,sans-Serif" font-size="10.00">JStudio::TAdaptor</text>
</a>
</g>
</g>
<!-- Node3&#45;&gt;Node2 -->
<g id="edge2" class="edge">
<title>Node3&#45;&gt;Node2</title>
<path fill="none" stroke="#63b8ff" d="M605.95,-415.88C614.34,-414.64 622.88,-413.47 631,-412.5 667.34,-408.16 708.17,-404.77 740.87,-402.41"/>
<polygon fill="#63b8ff" stroke="#63b8ff" points="605.52,-412.41 596.16,-417.37 606.58,-419.33 605.52,-412.41"/>
</g>
<!-- Node4 -->
<g id="node4" class="node">
<title>Node4</title>
<g id="a_node4"><a xlink:href="classJStudio_1_1TObject.html" target="_top" xlink:title=" ">
<polygon fill="white" stroke="#666666" points="848,-475 759,-475 759,-456 848,-456 848,-475"/>
<text text-anchor="middle" x="803.5" y="-463" font-family="Helvetica,sans-Serif" font-size="10.00">JStudio::TObject</text>
</a>
</g>
</g>
<!-- Node3&#45;&gt;Node4 -->
<g id="edge16" class="edge">
<title>Node3&#45;&gt;Node4</title>
<path fill="none" stroke="#9a32cd" stroke-dasharray="5,2" d="M601.88,-437.86C611.55,-439.89 621.55,-441.87 631,-443.5 674.19,-450.97 723.89,-457.07 758.64,-460.94"/>
<polygon fill="#9a32cd" stroke="#9a32cd" points="602.75,-434.46 592.23,-435.78 601.27,-441.31 602.75,-434.46"/>
<text text-anchor="middle" x="673.5" y="-458.5" font-family="Helvetica,sans-Serif" font-size="10.00"> mpAdaptor</text>
</g>
<!-- Node4&#45;&gt;Node3 -->
<g id="edge3" class="edge">
<title>Node4&#45;&gt;Node3</title>
<path fill="none" stroke="#9a32cd" stroke-dasharray="5,2" d="M771.62,-450.93C755.44,-444.02 735.06,-436.43 716,-432.5 675.66,-424.19 628.74,-422.93 594.84,-423.46"/>
<polygon fill="#9a32cd" stroke="#9a32cd" points="770.15,-454.11 780.71,-454.94 772.97,-447.7 770.15,-454.11"/>
<text text-anchor="middle" x="673.5" y="-435.5" font-family="Helvetica,sans-Serif" font-size="10.00"> pObject_</text>
</g>
<!-- Node5 -->
<g id="node5" class="node">
<title>Node5</title>
<g id="a_node5"><a xlink:href="classJStudio_1_1stb_1_1TObject.html" target="_top" xlink:title=" ">
<polygon fill="white" stroke="#666666" points="601,-678 494,-678 494,-659 601,-659 601,-678"/>
<text text-anchor="middle" x="547.5" y="-666" font-family="Helvetica,sans-Serif" font-size="10.00">JStudio::stb::TObject</text>
</a>
</g>
</g>
<!-- Node5&#45;&gt;Node4 -->
<g id="edge4" class="edge">
<title>Node5&#45;&gt;Node4</title>
<path fill="none" stroke="#63b8ff" d="M612.04,-660.8C647.9,-653.07 690.51,-637.57 716,-606.5 748.26,-567.19 702.41,-533.35 734,-493.5 740.47,-485.35 749.7,-479.55 759.3,-475.43"/>
<polygon fill="#63b8ff" stroke="#63b8ff" points="611.77,-657.29 602.64,-662.67 613.13,-664.15 611.77,-657.29"/>
</g>
<!-- Node13 -->
<g id="node13" class="node">
<title>Node13</title>
<g id="a_node13"><a xlink:href="classJStudio_1_1stb_1_1TObject__control.html" target="_top" xlink:title=" ">
<polygon fill="white" stroke="#666666" points="857,-727.5 750,-727.5 750,-697.5 857,-697.5 857,-727.5"/>
<text text-anchor="start" x="758" y="-715.5" font-family="Helvetica,sans-Serif" font-size="10.00">JStudio::stb::TObject</text>
<text text-anchor="middle" x="803.5" y="-704.5" font-family="Helvetica,sans-Serif" font-size="10.00">_control</text>
</a>
</g>
</g>
<!-- Node5&#45;&gt;Node13 -->
<g id="edge15" class="edge">
<title>Node5&#45;&gt;Node13</title>
<path fill="none" stroke="#63b8ff" d="M612.75,-679.63C655.07,-686.96 709.83,-696.45 749.63,-703.34"/>
<polygon fill="#63b8ff" stroke="#63b8ff" points="613.38,-676.19 602.93,-677.93 612.18,-683.08 613.38,-676.19"/>
</g>
<!-- Node6 -->
<g id="node6" class="node">
<title>Node6</title>
<g id="a_node6"><a xlink:href="structJStudio_1_1object_1_1TObject__ID.html" target="_top" xlink:title=" ">
<polygon fill="white" stroke="#666666" points="361,-613 227,-613 227,-594 361,-594 361,-613"/>
<text text-anchor="middle" x="294" y="-601" font-family="Helvetica,sans-Serif" font-size="10.00">JStudio::object::TObject_ID</text>
</a>
</g>
</g>
<!-- Node6&#45;&gt;Node5 -->
<g id="edge5" class="edge">
<title>Node6&#45;&gt;Node5</title>
<path fill="none" stroke="#63b8ff" d="M372.83,-602.35C402.03,-603.87 435.12,-607.99 464,-617.5 491.51,-626.56 519.29,-646.47 534.57,-658.56"/>
<polygon fill="#63b8ff" stroke="#63b8ff" points="373.08,-598.85 362.94,-601.93 372.79,-605.85 373.08,-598.85"/>
</g>
<!-- Node7 -->
<g id="node7" class="node">
<title>Node7</title>
<g id="a_node7"><a xlink:href="structJStudio_1_1object_1_1TIDData.html" target="_top" xlink:title=" ">
<polygon fill="white" stroke="#666666" points="128.5,-613 7.5,-613 7.5,-594 128.5,-594 128.5,-613"/>
<text text-anchor="middle" x="68" y="-601" font-family="Helvetica,sans-Serif" font-size="10.00">JStudio::object::TIDData</text>
</a>
</g>
</g>
<!-- Node7&#45;&gt;Node6 -->
<g id="edge6" class="edge">
<title>Node7&#45;&gt;Node6</title>
<path fill="none" stroke="#63b8ff" d="M139.97,-603.5C167.74,-603.5 199.42,-603.5 226.73,-603.5"/>
<polygon fill="#63b8ff" stroke="#63b8ff" points="140.25,-600 130.25,-603.5 140.25,-607 140.25,-600"/>
</g>
<!-- Node8 -->
<g id="node8" class="node">
<title>Node8</title>
<g id="a_node8"><a xlink:href="structJGadget_1_1TLinkListNode.html" target="_top" xlink:title=" ">
<polygon fill="white" stroke="#666666" points="355,-680 233,-680 233,-661 355,-661 355,-680"/>
<text text-anchor="middle" x="294" y="-668" font-family="Helvetica,sans-Serif" font-size="10.00">JGadget::TLinkListNode</text>
</a>
</g>
</g>
<!-- Node8&#45;&gt;Node5 -->
<g id="edge7" class="edge">
<title>Node8&#45;&gt;Node5</title>
<path fill="none" stroke="#9a32cd" stroke-dasharray="5,2" d="M366.65,-669.93C407.07,-669.61 456.7,-669.21 493.58,-668.92"/>
<polygon fill="#9a32cd" stroke="#9a32cd" points="366.73,-666.43 356.75,-670.01 366.78,-673.43 366.73,-666.43"/>
<text text-anchor="middle" x="422" y="-672.5" font-family="Helvetica,sans-Serif" font-size="10.00"> ocObject_</text>
</g>
<!-- Node8&#45;&gt;Node8 -->
<g id="edge8" class="edge">
<title>Node8&#45;&gt;Node8</title>
<path fill="none" stroke="#9a32cd" stroke-dasharray="5,2" d="M273.94,-691.43C276.45,-695.29 283.14,-698 294,-698 313.86,-698 319.76,-688.94 311.69,-680.37"/>
<polygon fill="#9a32cd" stroke="#9a32cd" points="277.32,-692.36 275.99,-681.85 270.48,-690.89 277.32,-692.36"/>
<text text-anchor="middle" x="294" y="-712" font-family="Helvetica,sans-Serif" font-size="10.00"> mNext</text>
<text text-anchor="middle" x="294" y="-701" font-family="Helvetica,sans-Serif" font-size="10.00">mPrev</text>
</g>
<!-- Node12 -->
<g id="node12" class="node">
<title>Node12</title>
<g id="a_node12"><a xlink:href="structJGadget_1_1TNodeLinkList.html" target="_top" xlink:title=" ">
<polygon fill="white" stroke="#666666" points="608.5,-721 486.5,-721 486.5,-702 608.5,-702 608.5,-721"/>
<text text-anchor="middle" x="547.5" y="-709" font-family="Helvetica,sans-Serif" font-size="10.00">JGadget::TNodeLinkList</text>
</a>
</g>
</g>
<!-- Node8&#45;&gt;Node12 -->
<g id="edge13" class="edge">
<title>Node8&#45;&gt;Node12</title>
<path fill="none" stroke="#9a32cd" stroke-dasharray="5,2" d="M366.63,-682.31C371.16,-683.05 375.64,-683.79 380,-684.5 415.26,-690.26 454.73,-696.66 486.38,-701.79"/>
<polygon fill="#9a32cd" stroke="#9a32cd" points="367.29,-678.87 356.86,-680.71 366.16,-685.78 367.29,-678.87"/>
<text text-anchor="middle" x="422" y="-700.5" font-family="Helvetica,sans-Serif" font-size="10.00"> ocObject_</text>
</g>
<!-- Node18 -->
<g id="node18" class="node">
<title>Node18</title>
<g id="a_node18"><a xlink:href="structJStudio_1_1TCreateObject.html" target="_top" xlink:title=" ">
<polygon fill="white" stroke="#666666" points="606,-556 489,-556 489,-537 606,-537 606,-556"/>
<text text-anchor="middle" x="547.5" y="-544" font-family="Helvetica,sans-Serif" font-size="10.00">JStudio::TCreateObject</text>
</a>
</g>
</g>
<!-- Node8&#45;&gt;Node18 -->
<g id="edge23" class="edge">
<title>Node8&#45;&gt;Node18</title>
<path fill="none" stroke="#9a32cd" stroke-dasharray="5,2" d="M323.27,-655.26C359.65,-635.82 424.95,-601.49 482,-574.5 495.35,-568.18 510.49,-561.58 522.75,-556.38"/>
<polygon fill="#9a32cd" stroke="#9a32cd" points="321.88,-652.04 314.72,-659.85 325.18,-658.21 321.88,-652.04"/>
<text text-anchor="middle" x="422" y="-625.5" font-family="Helvetica,sans-Serif" font-size="10.00"> mNode</text>
</g>
<!-- Node9 -->
<g id="node9" class="node">
<title>Node9</title>
<g id="a_node9"><a xlink:href="classJStudio_1_1stb_1_1TControl.html" target="_top" xlink:title=" ">
<polygon fill="white" stroke="#666666" points="1122.5,-744 1013.5,-744 1013.5,-725 1122.5,-725 1122.5,-744"/>
<text text-anchor="middle" x="1068" y="-732" font-family="Helvetica,sans-Serif" font-size="10.00">JStudio::stb::TControl</text>
</a>
</g>
</g>
<!-- Node9&#45;&gt;Node5 -->
<g id="edge9" class="edge">
<title>Node9&#45;&gt;Node5</title>
<path fill="none" stroke="#9a32cd" stroke-dasharray="5,2" d="M1022.96,-721.34C1010.08,-717.5 995.98,-713.32 983,-709.5 934.16,-695.13 923.3,-685.38 873,-677.5 778.21,-662.65 665.98,-663.57 601.43,-665.85"/>
<polygon fill="#9a32cd" stroke="#9a32cd" points="1021.87,-724.66 1032.45,-724.17 1023.87,-717.95 1021.87,-724.66"/>
<text text-anchor="middle" x="803.5" y="-680.5" font-family="Helvetica,sans-Serif" font-size="10.00"> pControl</text>
</g>
<!-- Node10 -->
<g id="node10" class="node">
<title>Node10</title>
<g id="a_node10"><a xlink:href="classJStudio_1_1stb_1_1TFactory.html" target="_top" xlink:title=" ">
<polygon fill="white" stroke="#666666" points="858.5,-813 748.5,-813 748.5,-794 858.5,-794 858.5,-813"/>
<text text-anchor="middle" x="803.5" y="-801" font-family="Helvetica,sans-Serif" font-size="10.00">JStudio::stb::TFactory</text>
</a>
</g>
</g>
<!-- Node10&#45;&gt;Node9 -->
<g id="edge10" class="edge">
<title>Node10&#45;&gt;Node9</title>
<path fill="none" stroke="#9a32cd" stroke-dasharray="5,2" d="M870.1,-791.88C904.08,-785.27 946.08,-776.18 983,-765.5 1003.61,-759.54 1026.41,-751 1043.05,-744.39"/>
<polygon fill="#9a32cd" stroke="#9a32cd" points="869.55,-788.42 860.38,-793.74 870.86,-795.3 869.55,-788.42"/>
<text text-anchor="middle" x="937" y="-790.5" font-family="Helvetica,sans-Serif" font-size="10.00"> pFactory</text>
</g>
<!-- Node11 -->
<g id="node11" class="node">
<title>Node11</title>
<g id="a_node11"><a xlink:href="structJGadget_1_1TLinkList.html" target="_top" xlink:title=" ">
<polygon fill="white" stroke="#666666" points="873,-775.5 734,-775.5 734,-745.5 873,-745.5 873,-775.5"/>
<text text-anchor="start" x="742" y="-763.5" font-family="Helvetica,sans-Serif" font-size="10.00">JGadget::TLinkList</text>
<text text-anchor="middle" x="803.5" y="-752.5" font-family="Helvetica,sans-Serif" font-size="10.00">&lt; JStudio::stb::TObject, 12 &gt;</text>
</a>
</g>
</g>
<!-- Node11&#45;&gt;Node9 -->
<g id="edge11" class="edge">
<title>Node11&#45;&gt;Node9</title>
<path fill="none" stroke="#9a32cd" stroke-dasharray="5,2" d="M884.73,-752.55C926.48,-748.42 976.38,-743.48 1013.4,-739.81"/>
<polygon fill="#9a32cd" stroke="#9a32cd" points="884.58,-749.05 874.97,-753.52 885.27,-756.02 884.58,-749.05"/>
<text text-anchor="middle" x="937" y="-753.5" font-family="Helvetica,sans-Serif" font-size="10.00"> mObjectContainer</text>
</g>
<!-- Node12&#45;&gt;Node11 -->
<g id="edge12" class="edge">
<title>Node12&#45;&gt;Node11</title>
<path fill="none" stroke="#63b8ff" d="M611.38,-723.63C648.46,-730.78 695.43,-739.84 733.52,-747.19"/>
<polygon fill="#63b8ff" stroke="#63b8ff" points="612.17,-720.22 601.69,-721.76 610.85,-727.09 612.17,-720.22"/>
</g>
<!-- Node13&#45;&gt;Node9 -->
<g id="edge14" class="edge">
<title>Node13&#45;&gt;Node9</title>
<path fill="none" stroke="#9a32cd" stroke-dasharray="5,2" d="M868.55,-713.51C902.62,-714.51 945.17,-716.51 983,-720.5 992.85,-721.54 1003.3,-722.99 1013.36,-724.57"/>
<polygon fill="#9a32cd" stroke="#9a32cd" points="868.95,-710.02 858.86,-713.24 868.76,-717.01 868.95,-710.02"/>
<text text-anchor="middle" x="937" y="-723.5" font-family="Helvetica,sans-Serif" font-size="10.00"> mObject_control</text>
</g>
<!-- Node14 -->
<g id="node14" class="node">
<title>Node14</title>
<g id="a_node14"><a xlink:href="structJStudio_1_1TVariableValue.html" target="_top" xlink:title=" ">
<polygon fill="white" stroke="#666666" points="354,-394 234,-394 234,-375 354,-375 354,-394"/>
<text text-anchor="middle" x="294" y="-382" font-family="Helvetica,sans-Serif" font-size="10.00">JStudio::TVariableValue</text>
</a>
</g>
</g>
<!-- Node14&#45;&gt;Node2 -->
<g id="edge20" class="edge">
<title>Node14&#45;&gt;Node2</title>
<path fill="none" stroke="#9a32cd" stroke-dasharray="5,2" d="M365.66,-386.45C465.37,-389.2 645.74,-394.18 740.5,-396.79"/>
<polygon fill="#9a32cd" stroke="#9a32cd" points="365.82,-382.95 355.72,-386.18 365.62,-389.95 365.82,-382.95"/>
<text text-anchor="middle" x="547.5" y="-395.5" font-family="Helvetica,sans-Serif" font-size="10.00"> mValue</text>
</g>
<!-- Node14&#45;&gt;Node3 -->
<g id="edge17" class="edge">
<title>Node14&#45;&gt;Node3</title>
<path fill="none" stroke="#9a32cd" stroke-dasharray="5,2" d="M365.55,-396C408.62,-403.02 462.46,-411.8 500.17,-417.95"/>
<polygon fill="#9a32cd" stroke="#9a32cd" points="366.21,-392.56 355.78,-394.41 365.08,-399.47 366.21,-392.56"/>
<text text-anchor="middle" x="422" y="-413.5" font-family="Helvetica,sans-Serif" font-size="10.00"> pValue_</text>
</g>
<!-- Node15 -->
<g id="node15" class="node">
<title>Node15</title>
<g id="a_node15"><a xlink:href="classJStudio_1_1TFunctionValue.html" target="_top" xlink:title=" ">
<polygon fill="white" stroke="#666666" points="129,-372 7,-372 7,-353 129,-353 129,-372"/>
<text text-anchor="middle" x="68" y="-360" font-family="Helvetica,sans-Serif" font-size="10.00">JStudio::TFunctionValue</text>
</a>
</g>
</g>
<!-- Node15&#45;&gt;Node14 -->
<g id="edge18" class="edge">
<title>Node15&#45;&gt;Node14</title>
<path fill="none" stroke="#9a32cd" stroke-dasharray="5,2" d="M140.59,-369.53C170.63,-372.48 205.15,-375.87 233.73,-378.68"/>
<polygon fill="#9a32cd" stroke="#9a32cd" points="141.12,-366.07 130.83,-368.57 140.44,-373.03 141.12,-366.07"/>
<text text-anchor="middle" x="181" y="-378.5" font-family="Helvetica,sans-Serif" font-size="10.00"> field_0xc</text>
</g>
<!-- Node16 -->
<g id="node16" class="node">
<title>Node16</title>
<g id="a_node16"><a xlink:href="structJStudio_1_1TVariableValue_1_1TOutput.html" target="_top" xlink:title=" ">
<polygon fill="white" stroke="#666666" points="128,-420.5 8,-420.5 8,-390.5 128,-390.5 128,-420.5"/>
<text text-anchor="start" x="16" y="-408.5" font-family="Helvetica,sans-Serif" font-size="10.00">JStudio::TVariableValue</text>
<text text-anchor="middle" x="68" y="-397.5" font-family="Helvetica,sans-Serif" font-size="10.00">::TOutput</text>
</a>
</g>
</g>
<!-- Node16&#45;&gt;Node14 -->
<g id="edge19" class="edge">
<title>Node16&#45;&gt;Node14</title>
<path fill="none" stroke="#9a32cd" stroke-dasharray="5,2" d="M139.77,-398.87C169.98,-396.03 204.84,-392.77 233.67,-390.06"/>
<polygon fill="#9a32cd" stroke="#9a32cd" points="139.58,-395.37 129.95,-399.79 140.23,-402.34 139.58,-395.37"/>
<text text-anchor="middle" x="181" y="-399.5" font-family="Helvetica,sans-Serif" font-size="10.00"> pOutput_</text>
</g>
<!-- Node17 -->
<g id="node17" class="node">
<title>Node17</title>
<g id="a_node17"><a xlink:href="structJStudio__JAudio2_1_1TCreateObject.html" target="_top" xlink:title=" ">
<polygon fill="white" stroke="#666666" points="868,-532.5 739,-532.5 739,-502.5 868,-502.5 868,-532.5"/>
<text text-anchor="start" x="747" y="-520.5" font-family="Helvetica,sans-Serif" font-size="10.00">JStudio_JAudio2::TCreate</text>
<text text-anchor="middle" x="803.5" y="-509.5" font-family="Helvetica,sans-Serif" font-size="10.00">Object</text>
</a>
</g>
</g>
<!-- Node17&#45;&gt;Node1 -->
<g id="edge21" class="edge">
<title>Node17&#45;&gt;Node1</title>
<path fill="none" stroke="#9a32cd" stroke-dasharray="5,2" d="M847.53,-497.15C856.01,-493.04 864.81,-488.69 873,-484.5 933.02,-453.82 1002.21,-415.7 1039.59,-394.87"/>
<polygon fill="#9a32cd" stroke="#9a32cd" points="846.26,-493.88 838.77,-501.38 849.3,-500.19 846.26,-493.88"/>
<text text-anchor="middle" x="937" y="-476.5" font-family="Helvetica,sans-Serif" font-size="10.00"> pCreateObject_</text>
</g>
<!-- Node18&#45;&gt;Node17 -->
<g id="edge22" class="edge">
<title>Node18&#45;&gt;Node17</title>
<path fill="none" stroke="#63b8ff" d="M617.85,-538.58C655.51,-534.28 701.76,-529 738.55,-524.8"/>
<polygon fill="#63b8ff" stroke="#63b8ff" points="617.5,-535.1 607.96,-539.71 618.29,-542.05 617.5,-535.1"/>
</g>
<!-- Node19 -->
<g id="node19" class="node">
<title>Node19</title>
<g id="a_node19"><a xlink:href="structJAISoundStarter.html" target="_top" xlink:title=" ">
<polygon fill="white" stroke="#666666" points="592,-602 503,-602 503,-583 592,-583 592,-602"/>
<text text-anchor="middle" x="547.5" y="-590" font-family="Helvetica,sans-Serif" font-size="10.00">JAISoundStarter</text>
</a>
</g>
</g>
<!-- Node19&#45;&gt;Node17 -->
<g id="edge24" class="edge">
<title>Node19&#45;&gt;Node17</title>
<path fill="none" stroke="#9a32cd" stroke-dasharray="5,2" d="M593.12,-579.33C636.93,-566.39 703.75,-546.66 750.08,-532.98"/>
<polygon fill="#9a32cd" stroke="#9a32cd" points="592.28,-575.92 583.68,-582.11 594.26,-582.64 592.28,-575.92"/>
<text text-anchor="middle" x="673.5" y="-568.5" font-family="Helvetica,sans-Serif" font-size="10.00"> pJAISoundStarter_</text>
</g>
<!-- Node20 -->
<g id="node20" class="node">
<title>Node20</title>
<g id="a_node20"><a xlink:href="classJASGlobalInstance.html" target="_top" xlink:title=" ">
<polygon fill="white" stroke="#666666" points="857,-620.5 750,-620.5 750,-590.5 857,-590.5 857,-620.5"/>
<text text-anchor="start" x="758" y="-608.5" font-family="Helvetica,sans-Serif" font-size="10.00">JASGlobalInstance&lt;</text>
<text text-anchor="middle" x="803.5" y="-597.5" font-family="Helvetica,sans-Serif" font-size="10.00"> JAISoundStarter &gt;</text>
</a>
</g>
</g>
<!-- Node19&#45;&gt;Node20 -->
<g id="edge26" class="edge">
<title>Node19&#45;&gt;Node20</title>
<path fill="none" stroke="#9a32cd" stroke-dasharray="5,2" d="M603.58,-591.74C612.74,-591.64 622.14,-591.55 631,-591.5 668.78,-591.27 678.34,-588.47 716,-591.5 726.92,-592.38 738.54,-593.87 749.6,-595.56"/>
<polygon fill="#9a32cd" stroke="#9a32cd" points="603.64,-588.24 593.68,-591.85 603.72,-595.24 603.64,-588.24"/>
<text text-anchor="middle" x="673.5" y="-594.5" font-family="Helvetica,sans-Serif" font-size="10.00"> sInstance</text>
</g>
<!-- Node20&#45;&gt;Node19 -->
<g id="edge25" class="edge">
<title>Node20&#45;&gt;Node19</title>
<path fill="none" stroke="#63b8ff" d="M737.99,-607.23C705.81,-607.56 666.3,-607.16 631,-604.5 618.44,-603.55 604.89,-601.87 592.47,-600.05"/>
<polygon fill="#63b8ff" stroke="#63b8ff" points="738.04,-610.73 747.99,-607.1 737.94,-603.73 738.04,-610.73"/>
</g>
<!-- Node21 -->
<g id="node21" class="node">
<title>Node21</title>
<g id="a_node21"><a xlink:href="structJStage_1_1TSystem.html" target="_top" xlink:title=" ">
<polygon fill="white" stroke="#666666" points="593,-509 502,-509 502,-490 593,-490 593,-509"/>
<text text-anchor="middle" x="547.5" y="-497" font-family="Helvetica,sans-Serif" font-size="10.00">JStage::TSystem</text>
</a>
</g>
</g>
<!-- Node21&#45;&gt;Node17 -->
<g id="edge27" class="edge">
<title>Node21&#45;&gt;Node17</title>
<path fill="none" stroke="#9a32cd" stroke-dasharray="5,2" d="M604.54,-497.21C637.14,-496.53 678.99,-496.79 716,-500.5 723.46,-501.25 731.24,-502.33 738.93,-503.6"/>
<polygon fill="#9a32cd" stroke="#9a32cd" points="604.83,-493.7 594.92,-497.45 605.01,-500.7 604.83,-493.7"/>
<text text-anchor="middle" x="673.5" y="-503.5" font-family="Helvetica,sans-Serif" font-size="10.00"> pJSGSystem_</text>
</g>
<!-- Node22 -->
<g id="node22" class="node">
<title>Node22</title>
<g id="a_node22"><a xlink:href="structJStage_1_1TObject.html" target="_top" xlink:title=" ">
<polygon fill="white" stroke="#666666" points="337,-509 251,-509 251,-490 337,-490 337,-509"/>
<text text-anchor="middle" x="294" y="-497" font-family="Helvetica,sans-Serif" font-size="10.00">JStage::TObject</text>
</a>
</g>
</g>
<!-- Node22&#45;&gt;Node21 -->
<g id="edge28" class="edge">
<title>Node22&#45;&gt;Node21</title>
<path fill="none" stroke="#63b8ff" d="M348.83,-499.5C394.43,-499.5 459.04,-499.5 501.83,-499.5"/>
<polygon fill="#63b8ff" stroke="#63b8ff" points="348.89,-496 338.89,-499.5 348.89,-503 348.89,-496"/>
</g>
<!-- Node23 -->
<g id="node23" class="node">
<title>Node23</title>
<g id="a_node23"><a xlink:href="structJAISoundHandle.html" target="_top" xlink:title=" ">
<polygon fill="white" stroke="#666666" points="848.5,-306 758.5,-306 758.5,-287 848.5,-287 848.5,-306"/>
<text text-anchor="middle" x="803.5" y="-294" font-family="Helvetica,sans-Serif" font-size="10.00">JAISoundHandle</text>
</a>
</g>
</g>
<!-- Node23&#45;&gt;Node1 -->
<g id="edge29" class="edge">
<title>Node23&#45;&gt;Node1</title>
<path fill="none" stroke="#9a32cd" stroke-dasharray="5,2" d="M850.94,-309.54C887.1,-319.87 938.44,-334.94 983,-349.5 996.84,-354.02 1011.84,-359.27 1025.28,-364.1"/>
<polygon fill="#9a32cd" stroke="#9a32cd" points="852.27,-306.28 841.69,-306.91 850.35,-313.01 852.27,-306.28"/>
<text text-anchor="middle" x="937" y="-352.5" font-family="Helvetica,sans-Serif" font-size="10.00"> opJAISoundHandle_</text>
</g>
<!-- Node24 -->
<g id="node24" class="node">
<title>Node24</title>
<g id="a_node24"><a xlink:href="classJAISound.html" target="_top" xlink:title=" ">
<polygon fill="white" stroke="#666666" points="1097.5,-187 1038.5,-187 1038.5,-168 1097.5,-168 1097.5,-187"/>
<text text-anchor="middle" x="1068" y="-175" font-family="Helvetica,sans-Serif" font-size="10.00">JAISound</text>
</a>
</g>
</g>
<!-- Node23&#45;&gt;Node24 -->
<g id="edge31" class="edge">
<title>Node23&#45;&gt;Node24</title>
<path fill="none" stroke="#9a32cd" stroke-dasharray="5,2" d="M860.01,-299.7C896.9,-299.5 945.3,-294.6 983,-274.5 1021.72,-253.85 1050.59,-207.54 1061.84,-187.29"/>
<polygon fill="#9a32cd" stroke="#9a32cd" points="860.49,-296.21 850.47,-299.64 860.45,-303.21 860.49,-296.21"/>
<text text-anchor="middle" x="937" y="-300.5" font-family="Helvetica,sans-Serif" font-size="10.00"> handle_</text>
</g>
<!-- Node24&#45;&gt;Node23 -->
<g id="edge30" class="edge">
<title>Node24&#45;&gt;Node23</title>
<path fill="none" stroke="#9a32cd" stroke-dasharray="5,2" d="M1047.24,-194.63C1030.96,-207.97 1006.77,-226.08 983,-237.5 944.7,-255.9 931.33,-250.14 891,-263.5 869.79,-270.53 846.11,-279.65 828.9,-286.52"/>
<polygon fill="#9a32cd" stroke="#9a32cd" points="1049.27,-197.49 1054.69,-188.39 1044.78,-192.13 1049.27,-197.49"/>
<text text-anchor="middle" x="937" y="-266.5" font-family="Helvetica,sans-Serif" font-size="10.00"> sound_</text>
</g>
<!-- Node25 -->
<g id="node25" class="node">
<title>Node25</title>
<g id="a_node25"><a xlink:href="classJAIAudible.html" target="_top" xlink:title=" ">
<polygon fill="white" stroke="#666666" points="835.5,-244 771.5,-244 771.5,-225 835.5,-225 835.5,-244"/>
<text text-anchor="middle" x="803.5" y="-232" font-family="Helvetica,sans-Serif" font-size="10.00">JAIAudible</text>
</a>
</g>
</g>
<!-- Node25&#45;&gt;Node24 -->
<g id="edge32" class="edge">
<title>Node25&#45;&gt;Node24</title>
<path fill="none" stroke="#9a32cd" stroke-dasharray="5,2" d="M846.91,-229.13C883.3,-224.11 936.99,-215.7 983,-204.5 1002.2,-199.83 1023.38,-193.01 1039.67,-187.39"/>
<polygon fill="#9a32cd" stroke="#9a32cd" points="846.67,-225.63 837.23,-230.44 847.61,-232.57 846.67,-225.63"/>
<text text-anchor="middle" x="937" y="-225.5" font-family="Helvetica,sans-Serif" font-size="10.00"> audible_</text>
</g>
<!-- Node26 -->
<g id="node26" class="node">
<title>Node26</title>
<g id="a_node26"><a xlink:href="structJGeometry_1_1TVec3.html" target="_top" xlink:title=" ">
<polygon fill="white" stroke="#666666" points="613,-244 482,-244 482,-225 613,-225 613,-244"/>
<text text-anchor="middle" x="547.5" y="-232" font-family="Helvetica,sans-Serif" font-size="10.00">JGeometry::TVec3&lt; float &gt;</text>
</a>
</g>
</g>
<!-- Node26&#45;&gt;Node25 -->
<g id="edge33" class="edge">
<title>Node26&#45;&gt;Node25</title>
<path fill="none" stroke="#9a32cd" stroke-dasharray="5,2" d="M624.47,-234.5C673.5,-234.5 734.7,-234.5 771.08,-234.5"/>
<polygon fill="#9a32cd" stroke="#9a32cd" points="624.77,-231 614.77,-234.5 624.77,-238 624.77,-231"/>
<text text-anchor="middle" x="673.5" y="-237.5" font-family="Helvetica,sans-Serif" font-size="10.00"> mPos</text>
</g>
<!-- Node27 -->
<g id="node27" class="node">
<title>Node27</title>
<g id="a_node27"><a xlink:href="structJAIAudience.html" target="_top" xlink:title=" ">
<polygon fill="white" stroke="#666666" points="839.5,-207 767.5,-207 767.5,-188 839.5,-188 839.5,-207"/>
<text text-anchor="middle" x="803.5" y="-195" font-family="Helvetica,sans-Serif" font-size="10.00">JAIAudience</text>
</a>
</g>
</g>
<!-- Node27&#45;&gt;Node24 -->
<g id="edge34" class="edge">
<title>Node27&#45;&gt;Node24</title>
<path fill="none" stroke="#9a32cd" stroke-dasharray="5,2" d="M851.26,-193.94C905.47,-189.81 993.12,-183.13 1038.19,-179.69"/>
<polygon fill="#9a32cd" stroke="#9a32cd" points="851.12,-190.44 841.41,-194.69 851.65,-197.42 851.12,-190.44"/>
<text text-anchor="middle" x="937" y="-192.5" font-family="Helvetica,sans-Serif" font-size="10.00"> audience_</text>
</g>
<!-- Node28 -->
<g id="node28" class="node">
<title>Node28</title>
<g id="a_node28"><a xlink:href="structJAISoundID.html" target="_top" xlink:title=" ">
<polygon fill="white" stroke="#666666" points="838,-170 769,-170 769,-151 838,-151 838,-170"/>
<text text-anchor="middle" x="803.5" y="-158" font-family="Helvetica,sans-Serif" font-size="10.00">JAISoundID</text>
</a>
</g>
</g>
<!-- Node28&#45;&gt;Node24 -->
<g id="edge35" class="edge">
<title>Node28&#45;&gt;Node24</title>
<path fill="none" stroke="#9a32cd" stroke-dasharray="5,2" d="M849.64,-158.48C885.79,-157.42 937.77,-157.1 983,-161.5 1001.47,-163.3 1021.93,-167.15 1038.03,-170.63"/>
<polygon fill="#9a32cd" stroke="#9a32cd" points="849.87,-154.97 839.99,-158.8 850.1,-161.97 849.87,-154.97"/>
<text text-anchor="middle" x="937" y="-164.5" font-family="Helvetica,sans-Serif" font-size="10.00"> soundID</text>
</g>
<!-- Node29 -->
<g id="node29" class="node">
<title>Node29</title>
<g id="a_node29"><a xlink:href="structJAISoundStatus__.html" target="_top" xlink:title=" ">
<polygon fill="white" stroke="#666666" points="850,-133 757,-133 757,-114 850,-114 850,-133"/>
<text text-anchor="middle" x="803.5" y="-121" font-family="Helvetica,sans-Serif" font-size="10.00">JAISoundStatus_</text>
</a>
</g>
</g>
<!-- Node29&#45;&gt;Node24 -->
<g id="edge36" class="edge">
<title>Node29&#45;&gt;Node24</title>
<path fill="none" stroke="#9a32cd" stroke-dasharray="5,2" d="M861.36,-125.37C896.8,-127.56 943.09,-132.29 983,-142.5 1006.11,-148.41 1031.18,-159.53 1047.86,-167.65"/>
<polygon fill="#9a32cd" stroke="#9a32cd" points="861.95,-121.9 851.77,-124.83 861.56,-128.89 861.95,-121.9"/>
<text text-anchor="middle" x="937" y="-145.5" font-family="Helvetica,sans-Serif" font-size="10.00"> status_</text>
</g>
<!-- Node30 -->
<g id="node30" class="node">
<title>Node30</title>
<g id="a_node30"><a xlink:href="structJAISoundFader.html" target="_top" xlink:title=" ">
<polygon fill="white" stroke="#666666" points="464,-95 380,-95 380,-76 464,-76 464,-95"/>
<text text-anchor="middle" x="422" y="-83" font-family="Helvetica,sans-Serif" font-size="10.00">JAISoundFader</text>
</a>
</g>
</g>
<!-- Node30&#45;&gt;Node24 -->
<g id="edge37" class="edge">
<title>Node30&#45;&gt;Node24</title>
<path fill="none" stroke="#9a32cd" stroke-dasharray="5,2" d="M475.35,-79.11C577.16,-68.81 807.24,-56.05 983,-124.5 1010.64,-135.26 1039.06,-155.49 1054.73,-167.6"/>
<polygon fill="#9a32cd" stroke="#9a32cd" points="475.25,-75.6 465.67,-80.13 475.98,-82.56 475.25,-75.6"/>
<text text-anchor="middle" x="673.5" y="-76.5" font-family="Helvetica,sans-Serif" font-size="10.00"> fader</text>
</g>
<!-- Node31 -->
<g id="node31" class="node">
<title>Node31</title>
<g id="a_node31"><a xlink:href="structJAISoundParamsTransition_1_1TTransition.html" target="_top" xlink:title=" ">
<polygon fill="white" stroke="#666666" points="136,-62.5 0,-62.5 0,-32.5 136,-32.5 136,-62.5"/>
<text text-anchor="start" x="8" y="-50.5" font-family="Helvetica,sans-Serif" font-size="10.00">JAISoundParamsTransition</text>
<text text-anchor="middle" x="68" y="-39.5" font-family="Helvetica,sans-Serif" font-size="10.00">::TTransition</text>
</a>
</g>
</g>
<!-- Node31&#45;&gt;Node30 -->
<g id="edge38" class="edge">
<title>Node31&#45;&gt;Node30</title>
<path fill="none" stroke="#9a32cd" stroke-dasharray="5,2" d="M147.39,-63.53C149.61,-63.87 151.82,-64.2 154,-64.5 233.45,-75.53 327.06,-81.23 379.67,-83.78"/>
<polygon fill="#9a32cd" stroke="#9a32cd" points="148.08,-60.1 137.65,-61.94 146.95,-67.01 148.08,-60.1"/>
<text text-anchor="middle" x="181" y="-74.5" font-family="Helvetica,sans-Serif" font-size="10.00"> mTransition</text>
</g>
<!-- Node36 -->
<g id="node36" class="node">
<title>Node36</title>
<g id="a_node36"><a xlink:href="structJAISoundParamsTransition.html" target="_top" xlink:title=" ">
<polygon fill="white" stroke="#666666" points="362,-19 226,-19 226,0 362,0 362,-19"/>
<text text-anchor="middle" x="294" y="-7" font-family="Helvetica,sans-Serif" font-size="10.00">JAISoundParamsTransition</text>
</a>
</g>
</g>
<!-- Node31&#45;&gt;Node36 -->
<g id="edge44" class="edge">
<title>Node31&#45;&gt;Node36</title>
<path fill="none" stroke="#9a32cd" stroke-dasharray="5,2" d="M105.67,-27.05C120.25,-20.02 137.46,-13.03 154,-9.5 177.01,-4.59 202.66,-3.42 225.59,-3.85"/>
<polygon fill="#9a32cd" stroke="#9a32cd" points="104.28,-23.83 96.92,-31.45 107.43,-30.09 104.28,-23.83"/>
<text text-anchor="middle" x="181" y="-56.5" font-family="Helvetica,sans-Serif" font-size="10.00"> mDolby</text>
<text text-anchor="middle" x="181" y="-45.5" font-family="Helvetica,sans-Serif" font-size="10.00">mFxMix</text>
<text text-anchor="middle" x="181" y="-34.5" font-family="Helvetica,sans-Serif" font-size="10.00">mPan</text>
<text text-anchor="middle" x="181" y="-23.5" font-family="Helvetica,sans-Serif" font-size="10.00">mPitch</text>
<text text-anchor="middle" x="181" y="-12.5" font-family="Helvetica,sans-Serif" font-size="10.00">mVolume</text>
</g>
<!-- Node32 -->
<g id="node32" class="node">
<title>Node32</title>
<g id="a_node32"><a xlink:href="structJAISoundParams.html" target="_top" xlink:title=" ">
<polygon fill="white" stroke="#666666" points="850,-57 757,-57 757,-38 850,-38 850,-57"/>
<text text-anchor="middle" x="803.5" y="-45" font-family="Helvetica,sans-Serif" font-size="10.00">JAISoundParams</text>
</a>
</g>
</g>
<!-- Node32&#45;&gt;Node24 -->
<g id="edge39" class="edge">
<title>Node32&#45;&gt;Node24</title>
<path fill="none" stroke="#9a32cd" stroke-dasharray="5,2" d="M861.51,-39.76C898.42,-37.5 946.27,-39.93 983,-60.5 1027.29,-85.3 1054.16,-144.34 1063.38,-167.72"/>
<polygon fill="#9a32cd" stroke="#9a32cd" points="861.65,-36.24 851.94,-40.48 862.18,-43.22 861.65,-36.24"/>
<text text-anchor="middle" x="937" y="-63.5" font-family="Helvetica,sans-Serif" font-size="10.00"> params</text>
</g>
<!-- Node33 -->
<g id="node33" class="node">
<title>Node33</title>
<g id="a_node33"><a xlink:href="structJAISoundParamsProperty.html" target="_top" xlink:title=" ">
<polygon fill="white" stroke="#666666" points="612,-20 483,-20 483,-1 612,-1 612,-20"/>
<text text-anchor="middle" x="547.5" y="-8" font-family="Helvetica,sans-Serif" font-size="10.00">JAISoundParamsProperty</text>
</a>
</g>
</g>
<!-- Node33&#45;&gt;Node32 -->
<g id="edge40" class="edge">
<title>Node33&#45;&gt;Node32</title>
<path fill="none" stroke="#9a32cd" stroke-dasharray="5,2" d="M623.49,-19.68C652.44,-23.4 685.8,-27.9 716,-32.5 729.26,-34.52 743.62,-36.92 756.77,-39.21"/>
<polygon fill="#9a32cd" stroke="#9a32cd" points="624.08,-16.23 613.72,-18.43 623.2,-23.17 624.08,-16.23"/>
<text text-anchor="middle" x="673.5" y="-35.5" font-family="Helvetica,sans-Serif" font-size="10.00"> mProperty</text>
</g>
<!-- Node34 -->
<g id="node34" class="node">
<title>Node34</title>
<g id="a_node34"><a xlink:href="structJAISoundParamsMove.html" target="_top" xlink:title=" ">
<polygon fill="white" stroke="#666666" points="606,-57 489,-57 489,-38 606,-38 606,-57"/>
<text text-anchor="middle" x="547.5" y="-45" font-family="Helvetica,sans-Serif" font-size="10.00">JAISoundParamsMove</text>
</a>
</g>
</g>
<!-- Node34&#45;&gt;Node32 -->
<g id="edge41" class="edge">
<title>Node34&#45;&gt;Node32</title>
<path fill="none" stroke="#9a32cd" stroke-dasharray="5,2" d="M617.7,-47.5C661.88,-47.5 717.91,-47.5 756.63,-47.5"/>
<polygon fill="#9a32cd" stroke="#9a32cd" points="617.97,-44 607.97,-47.5 617.97,-51 617.97,-44"/>
<text text-anchor="middle" x="673.5" y="-50.5" font-family="Helvetica,sans-Serif" font-size="10.00"> mMove</text>
</g>
<!-- Node35 -->
<g id="node35" class="node">
<title>Node35</title>
<g id="a_node35"><a xlink:href="structJASSoundParams.html" target="_top" xlink:title=" ">
<polygon fill="white" stroke="#666666" points="342.5,-57 245.5,-57 245.5,-38 342.5,-38 342.5,-57"/>
<text text-anchor="middle" x="294" y="-45" font-family="Helvetica,sans-Serif" font-size="10.00">JASSoundParams</text>
</a>
</g>
</g>
<!-- Node35&#45;&gt;Node34 -->
<g id="edge42" class="edge">
<title>Node35&#45;&gt;Node34</title>
<path fill="none" stroke="#9a32cd" stroke-dasharray="5,2" d="M354.24,-47.5C394.81,-47.5 448.35,-47.5 488.63,-47.5"/>
<polygon fill="#9a32cd" stroke="#9a32cd" points="354.41,-44 344.41,-47.5 354.41,-51 354.41,-44"/>
<text text-anchor="middle" x="422" y="-50.5" font-family="Helvetica,sans-Serif" font-size="10.00"> mParams</text>
</g>
<!-- Node36&#45;&gt;Node34 -->
<g id="edge43" class="edge">
<title>Node36&#45;&gt;Node34</title>
<path fill="none" stroke="#9a32cd" stroke-dasharray="5,2" d="M373.29,-19.41C401.87,-23.23 434.44,-27.8 464,-32.5 473.63,-34.03 483.87,-35.79 493.75,-37.55"/>
<polygon fill="#9a32cd" stroke="#9a32cd" points="374,-15.98 363.63,-18.14 373.08,-22.92 374,-15.98"/>
<text text-anchor="middle" x="422" y="-35.5" font-family="Helvetica,sans-Serif" font-size="10.00"> mTransition</text>
</g>
<!-- Node37 -->
<g id="node37" class="node">
<title>Node37</title>
<g id="a_node37"><a xlink:href="structJGeometry_1_1TVec3_3_01f32_01_4.html" target="_top" xlink:title=" ">
<polygon fill="white" stroke="#666666" points="867,-371 740,-371 740,-352 867,-352 867,-371"/>
<text text-anchor="middle" x="803.5" y="-359" font-family="Helvetica,sans-Serif" font-size="10.00">JGeometry::TVec3&lt; f32 &gt;</text>
</a>
</g>
</g>
<!-- Node37&#45;&gt;Node1 -->
<g id="edge45" class="edge">
<title>Node37&#45;&gt;Node1</title>
<path fill="none" stroke="#9a32cd" stroke-dasharray="5,2" d="M878.45,-364.29C910.6,-365.75 948.69,-367.8 983,-370.5 988.7,-370.95 994.62,-371.47 1000.55,-372.03"/>
<polygon fill="#9a32cd" stroke="#9a32cd" points="878.99,-360.81 868.85,-363.87 878.69,-367.81 878.99,-360.81"/>
<text text-anchor="middle" x="937" y="-373.5" font-family="Helvetica,sans-Serif" font-size="10.00"> field_0x130</text>
</g>
</g>
</svg>
