<?xml version="1.0" encoding="UTF-8" standalone="no"?>
<!DOCTYPE svg PUBLIC "-//W3C//DTD SVG 1.1//EN"
 "http://www.w3.org/Graphics/SVG/1.1/DTD/svg11.dtd">
<!-- Generated by graphviz version 7.0.5 (20221223.1930)
 -->
<!-- Title: DVDFileInfo Pages: 1 -->
<svg width="171pt" height="173pt"
 viewBox="0.00 0.00 171.00 173.00" xmlns="http://www.w3.org/2000/svg" xmlns:xlink="http://www.w3.org/1999/xlink">
<g id="graph0" class="graph" transform="scale(1 1) rotate(0) translate(4 169)">
<title>DVDFileInfo</title>
<!-- Node1 -->
<g id="node1" class="node">
<title>Node1</title>
<g id="a_node1"><a xlink:title=" ">
<polygon fill="#999999" stroke="#666666" points="87.5,-19 18.5,-19 18.5,0 87.5,0 87.5,-19"/>
<text text-anchor="middle" x="53" y="-7" font-family="Helvetica,sans-Serif" font-size="10.00">DVDFileInfo</text>
</a>
</g>
</g>
<!-- Node1&#45;&gt;Node1 -->
<g id="edge4" class="edge">
<title>Node1&#45;&gt;Node1</title>
<path fill="none" stroke="#9a32cd" stroke-dasharray="5,2" d="M99.16,-14.31C103.07,-13.28 105.5,-11.68 105.5,-9.5 105.5,-5.63 97.81,-3.58 87.84,-3.34"/>
<polygon fill="#9a32cd" stroke="#9a32cd" points="98.85,-10.82 89.34,-15.48 99.68,-17.77 98.85,-10.82"/>
<text text-anchor="middle" x="125" y="-7" font-family="Helvetica,sans-Serif" font-size="10.00"> callback</text>
</g>
<!-- Node2 -->
<g id="node2" class="node">
<title>Node2</title>
<g id="a_node2"><a xlink:href="structDVDCommandBlock.html" target="_top" xlink:title=" ">
<polygon fill="white" stroke="#666666" points="106,-92 0,-92 0,-73 106,-73 106,-92"/>
<text text-anchor="middle" x="53" y="-80" font-family="Helvetica,sans-Serif" font-size="10.00">DVDCommandBlock</text>
</a>
</g>
</g>
<!-- Node2&#45;&gt;Node1 -->
<g id="edge1" class="edge">
<title>Node2&#45;&gt;Node1</title>
<path fill="none" stroke="#9a32cd" stroke-dasharray="5,2" d="M53,-61.15C53,-47.26 53,-29.57 53,-19.2"/>
<polygon fill="#9a32cd" stroke="#9a32cd" points="49.5,-60.99 53,-70.99 56.5,-60.99 49.5,-60.99"/>
<text text-anchor="middle" x="66" y="-40" font-family="Helvetica,sans-Serif" font-size="10.00"> block</text>
</g>
<!-- Node2&#45;&gt;Node2 -->
<g id="edge2" class="edge">
<title>Node2&#45;&gt;Node2</title>
<path fill="none" stroke="#9a32cd" stroke-dasharray="5,2" d="M117.46,-87.78C121.54,-86.54 124,-84.78 124,-82.5 124,-78.55 116.63,-76.17 106.26,-75.33"/>
<polygon fill="#9a32cd" stroke="#9a32cd" points="117.03,-84.3 107.75,-89.42 118.19,-91.21 117.03,-84.3"/>
<text text-anchor="middle" x="143.5" y="-91" font-family="Helvetica,sans-Serif" font-size="10.00"> callback</text>
<text text-anchor="middle" x="143.5" y="-80" font-family="Helvetica,sans-Serif" font-size="10.00">next</text>
<text text-anchor="middle" x="143.5" y="-69" font-family="Helvetica,sans-Serif" font-size="10.00">prev</text>
</g>
<!-- Node3 -->
<g id="node3" class="node">
<title>Node3</title>
<g id="a_node3"><a xlink:href="structDVDDiskID.html" target="_top" xlink:title=" ">
<polygon fill="white" stroke="#666666" points="86,-165 20,-165 20,-146 86,-146 86,-165"/>
<text text-anchor="middle" x="53" y="-153" font-family="Helvetica,sans-Serif" font-size="10.00">DVDDiskID</text>
</a>
</g>
</g>
<!-- Node3&#45;&gt;Node2 -->
<g id="edge3" class="edge">
<title>Node3&#45;&gt;Node2</title>
<path fill="none" stroke="#9a32cd" stroke-dasharray="5,2" d="M53,-134.15C53,-120.26 53,-102.57 53,-92.2"/>
<polygon fill="#9a32cd" stroke="#9a32cd" points="49.5,-133.99 53,-143.99 56.5,-133.99 49.5,-133.99"/>
<text text-anchor="middle" x="70" y="-120" font-family="Helvetica,sans-Serif" font-size="10.00"> disk_id</text>
</g>
</g>
</svg>
