<?xml version="1.0" encoding="UTF-8" standalone="no"?>
<!DOCTYPE svg PUBLIC "-//W3C//DTD SVG 1.1//EN"
 "http://www.w3.org/Graphics/SVG/1.1/DTD/svg11.dtd">
<!-- Generated by graphviz version 7.0.5 (20221223.1930)
 -->
<!-- Title: Z2SoundMgr Pages: 1 -->
<!--zoomable 667 -->
<svg id="main" version="1.1" xmlns="http://www.w3.org/2000/svg" xmlns:xlink="http://www.w3.org/1999/xlink" xml:space="preserve" onload="init(evt)">
<style type="text/css"><![CDATA[
.edge:hover path { stroke: red; }
.edge:hover polygon { stroke: red; fill: red; }
]]></style>
<script type="text/javascript"><![CDATA[
var edges = document.getElementsByTagName('g');
if (edges && edges.length) {
  for (var i=0;i<edges.length;i++) {
    if (edges[i].id.substr(0,4)=='edge') {
      edges[i].setAttribute('class','edge');
    }
  }
}
]]></script>
        <defs>
                <circle id="rim" cx="0" cy="0" r="7"/>
                <circle id="rim2" cx="0" cy="0" r="3.5"/>
                <g id="zoomPlus">
                        <use xlink:href="#rim" fill="#404040">
                                <set attributeName="fill" to="#808080" begin="zoomplus.mouseover" end="zoomplus.mouseout"/>
                        </use>
                        <path d="M-4,0h8M0,-4v8" fill="none" stroke="white" stroke-width="1.5" pointer-events="none"/>
                </g>
                <g id="zoomMin">
                        <use xlink:href="#rim" fill="#404040">
                                <set attributeName="fill" to="#808080" begin="zoomminus.mouseover" end="zoomminus.mouseout"/>
                        </use>
                        <path d="M-4,0h8" fill="none" stroke="white" stroke-width="1.5" pointer-events="none"/>
                </g>
                <g id="dirArrow">
                        <path fill="none" stroke="white" stroke-width="1.5" d="M0,-3.0v7 M-2.5,-0.5L0,-3.0L2.5,-0.5"/>
                </g>
               <g id="resetDef">
                       <use xlink:href="#rim2" fill="#404040">
                               <set attributeName="fill" to="#808080" begin="reset.mouseover" end="reset.mouseout"/>
                       </use>
               </g>
        </defs>

<script type="text/javascript">
var viewWidth = 1378;
var viewHeight = 667;
var sectionId = 'dynsection-1';
</script>
<script xlink:href="svgpan.js"/>
<svg id="graph" class="graph">
<g id="viewport">
<title>Z2SoundMgr</title>
<!-- Node1 -->
<g id="node1" class="node">
<title>Node1</title>
<g id="a_node1"><a xlink:title=" ">
<polygon fill="#999999" stroke="#666666" points="1163.5,-266 1091.5,-266 1091.5,-247 1163.5,-247 1163.5,-266"/>
<text text-anchor="middle" x="1127.5" y="-254" font-family="Helvetica,sans-Serif" font-size="10.00">Z2SoundMgr</text>
</a>
</g>
</g>
<!-- Node2 -->
<g id="node2" class="node">
<title>Node2</title>
<g id="a_node2"><a xlink:href="classJASGlobalInstance.html" target="_top" xlink:title=" ">
<polygon fill="white" stroke="#666666" points="1370,-271.5 1263,-271.5 1263,-241.5 1370,-241.5 1370,-271.5"/>
<text text-anchor="start" x="1271" y="-259.5" font-family="Helvetica,sans-Serif" font-size="10.00">JASGlobalInstance&lt;</text>
<text text-anchor="middle" x="1316.5" y="-248.5" font-family="Helvetica,sans-Serif" font-size="10.00"> Z2SoundMgr &gt;</text>
</a>
</g>
</g>
<!-- Node1&#45;&gt;Node2 -->
<g id="edge2" class="edge">
<title>Node1&#45;&gt;Node2</title>
<path fill="none" stroke="#9a32cd" stroke-dasharray="5,2" d="M1175.01,-256.5C1201.66,-256.5 1235.18,-256.5 1262.8,-256.5"/>
<polygon fill="#9a32cd" stroke="#9a32cd" points="1175.19,-253 1165.19,-256.5 1175.19,-260 1175.19,-253"/>
<text text-anchor="middle" x="1222" y="-259.5" font-family="Helvetica,sans-Serif" font-size="10.00"> sInstance</text>
</g>
<!-- Node2&#45;&gt;Node1 -->
<g id="edge1" class="edge">
<title>Node2&#45;&gt;Node1</title>
<path fill="none" stroke="#63b8ff" d="M1251.29,-254.6C1249.17,-254.56 1247.07,-254.53 1245,-254.5 1224.56,-254.21 1219.44,-254.21 1199,-254.5 1187.61,-254.66 1175.2,-254.97 1164,-255.3"/>
<polygon fill="#63b8ff" stroke="#63b8ff" points="1251.18,-258.1 1261.25,-254.81 1251.32,-251.1 1251.18,-258.1"/>
</g>
<!-- Node3 -->
<g id="node3" class="node">
<title>Node3</title>
<g id="a_node3"><a xlink:href="classJAISeMgr.html" target="_top" xlink:title=" ">
<polygon fill="white" stroke="#666666" points="963.5,-437 903.5,-437 903.5,-418 963.5,-418 963.5,-437"/>
<text text-anchor="middle" x="933.5" y="-425" font-family="Helvetica,sans-Serif" font-size="10.00">JAISeMgr</text>
</a>
</g>
</g>
<!-- Node3&#45;&gt;Node1 -->
<g id="edge3" class="edge">
<title>Node3&#45;&gt;Node1</title>
<path fill="none" stroke="#9a32cd" stroke-dasharray="5,2" d="M954.02,-410.11C993.94,-374.56 1083.8,-294.53 1115.32,-266.46"/>
<polygon fill="#9a32cd" stroke="#9a32cd" points="951.92,-407.3 946.78,-416.56 956.58,-412.52 951.92,-407.3"/>
<text text-anchor="middle" x="1030.5" y="-364.5" font-family="Helvetica,sans-Serif" font-size="10.00"> mSeMgr</text>
</g>
<!-- Node4 -->
<g id="node4" class="node">
<title>Node4</title>
<g id="a_node4"><a xlink:href="classJASGlobalInstance.html" target="_top" xlink:title=" ">
<polygon fill="white" stroke="#666666" points="1181,-442.5 1074,-442.5 1074,-412.5 1181,-412.5 1181,-442.5"/>
<text text-anchor="start" x="1082" y="-430.5" font-family="Helvetica,sans-Serif" font-size="10.00">JASGlobalInstance&lt;</text>
<text text-anchor="middle" x="1127.5" y="-419.5" font-family="Helvetica,sans-Serif" font-size="10.00"> JAISeMgr &gt;</text>
</a>
</g>
</g>
<!-- Node3&#45;&gt;Node4 -->
<g id="edge5" class="edge">
<title>Node3&#45;&gt;Node4</title>
<path fill="none" stroke="#9a32cd" stroke-dasharray="5,2" d="M974.91,-418.06C984.7,-416.17 995.18,-414.47 1005,-413.5 1027.56,-411.28 1033.44,-411.28 1056,-413.5 1061.71,-414.06 1067.65,-414.87 1073.54,-415.83"/>
<polygon fill="#9a32cd" stroke="#9a32cd" points="974.38,-414.6 965.29,-420.04 975.79,-421.46 974.38,-414.6"/>
<text text-anchor="middle" x="1030.5" y="-416.5" font-family="Helvetica,sans-Serif" font-size="10.00"> sInstance</text>
</g>
<!-- Node4&#45;&gt;Node3 -->
<g id="edge4" class="edge">
<title>Node4&#45;&gt;Node3</title>
<path fill="none" stroke="#63b8ff" d="M1062.73,-427.5C1029.25,-427.5 989.86,-427.5 963.66,-427.5"/>
<polygon fill="#63b8ff" stroke="#63b8ff" points="1062.31,-431 1072.31,-427.5 1062.31,-424 1062.31,-431"/>
</g>
<!-- Node5 -->
<g id="node5" class="node">
<title>Node5</title>
<g id="a_node5"><a xlink:href="structJAISeqDataUser.html" target="_top" xlink:title=" ">
<polygon fill="white" stroke="#666666" points="543.5,-659 453.5,-659 453.5,-640 543.5,-640 543.5,-659"/>
<text text-anchor="middle" x="498.5" y="-647" font-family="Helvetica,sans-Serif" font-size="10.00">JAISeqDataUser</text>
</a>
</g>
</g>
<!-- Node5&#45;&gt;Node3 -->
<g id="edge6" class="edge">
<title>Node5&#45;&gt;Node3</title>
<path fill="none" stroke="#63b8ff" d="M555,-651.26C633.38,-650.67 776.46,-637.91 862,-559.5 901.07,-523.69 922.64,-461.13 929.79,-437.19"/>
<polygon fill="#63b8ff" stroke="#63b8ff" points="555.43,-647.76 545.43,-651.26 555.44,-654.76 555.43,-647.76"/>
</g>
<!-- Node9 -->
<g id="node9" class="node">
<title>Node9</title>
<g id="a_node9"><a xlink:href="structJAISeCategoryMgr.html" target="_top" xlink:title=" ">
<polygon fill="white" stroke="#666666" points="773,-588 675,-588 675,-569 773,-569 773,-588"/>
<text text-anchor="middle" x="724" y="-576" font-family="Helvetica,sans-Serif" font-size="10.00">JAISeCategoryMgr</text>
</a>
</g>
</g>
<!-- Node5&#45;&gt;Node9 -->
<g id="edge11" class="edge">
<title>Node5&#45;&gt;Node9</title>
<path fill="none" stroke="#63b8ff" d="M555.1,-642.83C585.84,-638 624.32,-630.06 657,-617.5 676.38,-610.05 696.65,-597.2 709.53,-588.29"/>
<polygon fill="#63b8ff" stroke="#63b8ff" points="554.59,-639.36 545.22,-644.3 555.63,-646.29 554.59,-639.36"/>
</g>
<!-- Node18 -->
<g id="node18" class="node">
<title>Node18</title>
<g id="a_node18"><a xlink:href="structJAISeqMgr.html" target="_top" xlink:title=" ">
<polygon fill="white" stroke="#666666" points="756.5,-298 691.5,-298 691.5,-279 756.5,-279 756.5,-298"/>
<text text-anchor="middle" x="724" y="-286" font-family="Helvetica,sans-Serif" font-size="10.00">JAISeqMgr</text>
</a>
</g>
</g>
<!-- Node5&#45;&gt;Node18 -->
<g id="edge24" class="edge">
<title>Node5&#45;&gt;Node18</title>
<path fill="none" stroke="#63b8ff" d="M553.32,-635.14C554.63,-634.02 555.86,-632.8 557,-631.5 588.43,-595.51 549.71,-566.05 575,-525.5 598.76,-487.4 634.24,-505.2 657,-466.5 691.94,-407.1 635.42,-368.91 675,-312.5 679.28,-306.4 685.57,-301.77 692.2,-298.28"/>
<polygon fill="#63b8ff" stroke="#63b8ff" points="551.49,-632.16 545.02,-640.55 555.31,-638.02 551.49,-632.16"/>
</g>
<!-- Node6 -->
<g id="node6" class="node">
<title>Node6</title>
<g id="a_node6"><a xlink:href="classJAISoundActivity.html" target="_top" xlink:title=" ">
<polygon fill="white" stroke="#666666" points="544.5,-217 452.5,-217 452.5,-198 544.5,-198 544.5,-217"/>
<text text-anchor="middle" x="498.5" y="-205" font-family="Helvetica,sans-Serif" font-size="10.00">JAISoundActivity</text>
</a>
</g>
</g>
<!-- Node6&#45;&gt;Node3 -->
<g id="edge7" class="edge">
<title>Node6&#45;&gt;Node3</title>
<path fill="none" stroke="#63b8ff" d="M555.88,-199.45C634.7,-191.59 777.6,-190.16 862,-266.5 881.07,-283.75 870.27,-297.69 880,-321.5 894.92,-358 916.99,-399.37 927.09,-417.78"/>
<polygon fill="#63b8ff" stroke="#63b8ff" points="555.81,-195.94 546.24,-200.49 556.55,-202.9 555.81,-195.94"/>
</g>
<!-- Node6&#45;&gt;Node18 -->
<g id="edge27" class="edge">
<title>Node6&#45;&gt;Node18</title>
<path fill="none" stroke="#9a32cd" stroke-dasharray="5,2" d="M555.88,-219.19C586.44,-226.44 624.49,-236.97 657,-250.5 675.55,-258.22 695.34,-270.17 708.36,-278.61"/>
<polygon fill="#9a32cd" stroke="#9a32cd" points="556.99,-215.86 546.46,-217.01 555.41,-222.68 556.99,-215.86"/>
<text text-anchor="middle" x="616" y="-253.5" font-family="Helvetica,sans-Serif" font-size="10.00"> mActivity</text>
</g>
<!-- Node21 -->
<g id="node21" class="node">
<title>Node21</title>
<g id="a_node21"><a xlink:href="structJAIStreamMgr.html" target="_top" xlink:title=" ">
<polygon fill="white" stroke="#666666" points="764,-150 684,-150 684,-131 764,-131 764,-150"/>
<text text-anchor="middle" x="724" y="-138" font-family="Helvetica,sans-Serif" font-size="10.00">JAIStreamMgr</text>
</a>
</g>
</g>
<!-- Node6&#45;&gt;Node21 -->
<g id="edge36" class="edge">
<title>Node6&#45;&gt;Node21</title>
<path fill="none" stroke="#9a32cd" stroke-dasharray="5,2" d="M539.1,-194.01C550.64,-190.18 563.29,-186.08 575,-182.5 611.2,-171.44 620.59,-169.85 657,-159.5 667.32,-156.57 678.54,-153.35 688.76,-150.41"/>
<polygon fill="#9a32cd" stroke="#9a32cd" points="538.25,-190.6 529.88,-197.09 540.47,-197.24 538.25,-190.6"/>
<text text-anchor="middle" x="616" y="-185.5" font-family="Helvetica,sans-Serif" font-size="10.00"> mActivity</text>
</g>
<!-- Node7 -->
<g id="node7" class="node">
<title>Node7</title>
<g id="a_node7"><a xlink:href="structJAIAudience.html" target="_top" xlink:title=" ">
<polygon fill="white" stroke="#666666" points="534.5,-424 462.5,-424 462.5,-405 534.5,-405 534.5,-424"/>
<text text-anchor="middle" x="498.5" y="-412" font-family="Helvetica,sans-Serif" font-size="10.00">JAIAudience</text>
</a>
</g>
</g>
<!-- Node7&#45;&gt;Node3 -->
<g id="edge8" class="edge">
<title>Node7&#45;&gt;Node3</title>
<path fill="none" stroke="#9a32cd" stroke-dasharray="5,2" d="M546.35,-415.91C635.94,-418.6 829.19,-424.4 903.01,-426.61"/>
<polygon fill="#9a32cd" stroke="#9a32cd" points="546.55,-412.41 536.45,-415.61 546.34,-419.41 546.55,-412.41"/>
<text text-anchor="middle" x="724" y="-425.5" font-family="Helvetica,sans-Serif" font-size="10.00"> mAudience</text>
</g>
<!-- Node7&#45;&gt;Node18 -->
<g id="edge28" class="edge">
<title>Node7&#45;&gt;Node18</title>
<path fill="none" stroke="#9a32cd" stroke-dasharray="5,2" d="M546.14,-406.65C589.61,-398.94 648.92,-387.23 657,-379.5 679.27,-358.18 655.5,-336.38 675,-312.5 679.83,-306.58 686.49,-301.99 693.32,-298.49"/>
<polygon fill="#9a32cd" stroke="#9a32cd" points="545.65,-403.19 536.41,-408.36 546.86,-410.08 545.65,-403.19"/>
<text text-anchor="middle" x="616" y="-403.5" font-family="Helvetica,sans-Serif" font-size="10.00"> mAudience</text>
</g>
<!-- Node8 -->
<g id="node8" class="node">
<title>Node8</title>
<g id="a_node8"><a xlink:href="structJAISeqDataMgr.html" target="_top" xlink:title=" ">
<polygon fill="white" stroke="#666666" points="541.5,-331 455.5,-331 455.5,-312 541.5,-312 541.5,-331"/>
<text text-anchor="middle" x="498.5" y="-319" font-family="Helvetica,sans-Serif" font-size="10.00">JAISeqDataMgr</text>
</a>
</g>
</g>
<!-- Node8&#45;&gt;Node3 -->
<g id="edge9" class="edge">
<title>Node8&#45;&gt;Node3</title>
<path fill="none" stroke="#9a32cd" stroke-dasharray="5,2" d="M553.15,-329.21C583.74,-333.97 622.71,-340.67 657,-348.5 747.71,-369.22 852.9,-401.82 903.02,-417.89"/>
<polygon fill="#9a32cd" stroke="#9a32cd" points="553.77,-325.76 543.36,-327.7 552.71,-332.68 553.77,-325.76"/>
<text text-anchor="middle" x="724" y="-380.5" font-family="Helvetica,sans-Serif" font-size="10.00"> mSeqDataMgr</text>
</g>
<!-- Node8&#45;&gt;Node18 -->
<g id="edge29" class="edge">
<title>Node8&#45;&gt;Node18</title>
<path fill="none" stroke="#9a32cd" stroke-dasharray="5,2" d="M553.18,-312.86C560.51,-311.71 567.94,-310.56 575,-309.5 615.03,-303.48 661.23,-297 691.22,-292.85"/>
<polygon fill="#9a32cd" stroke="#9a32cd" points="552.64,-309.4 543.3,-314.41 553.73,-316.31 552.64,-309.4"/>
<text text-anchor="middle" x="616" y="-312.5" font-family="Helvetica,sans-Serif" font-size="10.00"> seqDataMgr_</text>
</g>
<!-- Node9&#45;&gt;Node3 -->
<g id="edge10" class="edge">
<title>Node9&#45;&gt;Node3</title>
<path fill="none" stroke="#9a32cd" stroke-dasharray="5,2" d="M756.9,-563.61C785.73,-549.41 828.65,-526.4 862,-500.5 887.33,-480.83 912.28,-452.23 924.58,-437.34"/>
<polygon fill="#9a32cd" stroke="#9a32cd" points="755.42,-560.44 747.95,-567.95 758.47,-566.74 755.42,-560.44"/>
<text text-anchor="middle" x="826.5" y="-547.5" font-family="Helvetica,sans-Serif" font-size="10.00"> mCategoryMgrs</text>
</g>
<!-- Node10 -->
<g id="node10" class="node">
<title>Node10</title>
<g id="a_node10"><a xlink:href="structJASNonCopyable.html" target="_top" xlink:title=" ">
<polygon fill="white" stroke="#666666" points="545,-622 452,-622 452,-603 545,-603 545,-622"/>
<text text-anchor="middle" x="498.5" y="-610" font-family="Helvetica,sans-Serif" font-size="10.00">JASNonCopyable</text>
</a>
</g>
</g>
<!-- Node10&#45;&gt;Node9 -->
<g id="edge12" class="edge">
<title>Node10&#45;&gt;Node9</title>
<path fill="none" stroke="#9a32cd" stroke-dasharray="5,2" d="M556.5,-605.11C586.46,-601.08 623.76,-595.84 657,-590.5 662.75,-589.58 668.77,-588.56 674.74,-587.51"/>
<polygon fill="#9a32cd" stroke="#9a32cd" points="556.35,-601.6 546.91,-606.39 557.28,-608.54 556.35,-601.6"/>
<text text-anchor="middle" x="616" y="-605.5" font-family="Helvetica,sans-Serif" font-size="10.00"> field_0x4</text>
</g>
<!-- Node11 -->
<g id="node11" class="node">
<title>Node11</title>
<g id="a_node11"><a xlink:href="structJAISoundParamsMove.html" target="_top" xlink:title=" ">
<polygon fill="white" stroke="#666666" points="557,-482 440,-482 440,-463 557,-463 557,-482"/>
<text text-anchor="middle" x="498.5" y="-470" font-family="Helvetica,sans-Serif" font-size="10.00">JAISoundParamsMove</text>
</a>
</g>
</g>
<!-- Node11&#45;&gt;Node3 -->
<g id="edge22" class="edge">
<title>Node11&#45;&gt;Node3</title>
<path fill="none" stroke="#9a32cd" stroke-dasharray="5,2" d="M568.69,-471.4C596.22,-470.56 628.14,-469.08 657,-466.5 748.65,-458.29 770.89,-450.41 862,-437.5 875.46,-435.59 890.37,-433.48 903,-431.69"/>
<polygon fill="#9a32cd" stroke="#9a32cd" points="568.6,-467.9 558.7,-471.68 568.8,-474.89 568.6,-467.9"/>
<text text-anchor="middle" x="724" y="-467.5" font-family="Helvetica,sans-Serif" font-size="10.00"> mParams</text>
</g>
<!-- Node11&#45;&gt;Node9 -->
<g id="edge13" class="edge">
<title>Node11&#45;&gt;Node9</title>
<path fill="none" stroke="#9a32cd" stroke-dasharray="5,2" d="M532.83,-486.79C564.91,-500.71 614.65,-522.75 657,-543.5 673.42,-551.55 691.78,-561.35 704.95,-568.53"/>
<polygon fill="#9a32cd" stroke="#9a32cd" points="534.63,-483.75 524.06,-482.99 531.85,-490.17 534.63,-483.75"/>
<text text-anchor="middle" x="616" y="-546.5" font-family="Helvetica,sans-Serif" font-size="10.00"> mParams</text>
</g>
<!-- Node11&#45;&gt;Node18 -->
<g id="edge30" class="edge">
<title>Node11&#45;&gt;Node18</title>
<path fill="none" stroke="#9a32cd" stroke-dasharray="5,2" d="M551.75,-459.65C592.01,-448.68 643.07,-432.09 657,-415.5 686.88,-379.91 647.24,-349.77 675,-312.5 679.45,-306.52 685.81,-301.94 692.45,-298.46"/>
<polygon fill="#9a32cd" stroke="#9a32cd" points="550.95,-456.24 542.19,-462.2 552.75,-463 550.95,-456.24"/>
<text text-anchor="middle" x="616" y="-454.5" font-family="Helvetica,sans-Serif" font-size="10.00"> mMove</text>
</g>
<!-- Node11&#45;&gt;Node21 -->
<g id="edge37" class="edge">
<title>Node11&#45;&gt;Node21</title>
<path fill="none" stroke="#9a32cd" stroke-dasharray="5,2" d="M531.01,-456.85C540.57,-450.73 550.3,-442.91 557,-433.5 574.88,-408.38 555.61,-390.48 575,-366.5 600.75,-334.66 630.32,-355.56 657,-324.5 673.48,-305.31 666.62,-294.37 675,-270.5 690.86,-225.33 711.07,-171.83 719.28,-150.25"/>
<polygon fill="#9a32cd" stroke="#9a32cd" points="529.4,-453.73 522.56,-461.82 532.95,-459.77 529.4,-453.73"/>
<text text-anchor="middle" x="616" y="-369.5" font-family="Helvetica,sans-Serif" font-size="10.00"> mParams</text>
</g>
<!-- Node12 -->
<g id="node12" class="node">
<title>Node12</title>
<g id="a_node12"><a xlink:href="structJASSoundParams.html" target="_top" xlink:title=" ">
<polygon fill="white" stroke="#666666" points="330.5,-488 233.5,-488 233.5,-469 330.5,-469 330.5,-488"/>
<text text-anchor="middle" x="282" y="-476" font-family="Helvetica,sans-Serif" font-size="10.00">JASSoundParams</text>
</a>
</g>
</g>
<!-- Node12&#45;&gt;Node11 -->
<g id="edge14" class="edge">
<title>Node12&#45;&gt;Node11</title>
<path fill="none" stroke="#9a32cd" stroke-dasharray="5,2" d="M342.2,-476.84C372.65,-475.99 409.63,-474.96 439.86,-474.11"/>
<polygon fill="#9a32cd" stroke="#9a32cd" points="342.28,-473.34 332.38,-477.12 342.48,-480.34 342.28,-473.34"/>
<text text-anchor="middle" x="395" y="-478.5" font-family="Helvetica,sans-Serif" font-size="10.00"> mParams</text>
</g>
<!-- Node13 -->
<g id="node13" class="node">
<title>Node13</title>
<g id="a_node13"><a xlink:href="structJAISoundParamsTransition.html" target="_top" xlink:title=" ">
<polygon fill="white" stroke="#666666" points="350,-451 214,-451 214,-432 350,-432 350,-451"/>
<text text-anchor="middle" x="282" y="-439" font-family="Helvetica,sans-Serif" font-size="10.00">JAISoundParamsTransition</text>
</a>
</g>
</g>
<!-- Node13&#45;&gt;Node11 -->
<g id="edge15" class="edge">
<title>Node13&#45;&gt;Node11</title>
<path fill="none" stroke="#9a32cd" stroke-dasharray="5,2" d="M361.4,-451.07C381.2,-453.65 402.4,-456.54 422,-459.5 428.18,-460.43 434.64,-461.46 441.06,-462.52"/>
<polygon fill="#9a32cd" stroke="#9a32cd" points="362.11,-447.63 351.75,-449.83 361.22,-454.58 362.11,-447.63"/>
<text text-anchor="middle" x="395" y="-462.5" font-family="Helvetica,sans-Serif" font-size="10.00"> mTransition</text>
</g>
<!-- Node14 -->
<g id="node14" class="node">
<title>Node14</title>
<g id="a_node14"><a xlink:href="structJAISoundParamsTransition_1_1TTransition.html" target="_top" xlink:title=" ">
<polygon fill="white" stroke="#666666" points="136,-456.5 0,-456.5 0,-426.5 136,-426.5 136,-456.5"/>
<text text-anchor="start" x="8" y="-444.5" font-family="Helvetica,sans-Serif" font-size="10.00">JAISoundParamsTransition</text>
<text text-anchor="middle" x="68" y="-433.5" font-family="Helvetica,sans-Serif" font-size="10.00">::TTransition</text>
</a>
</g>
</g>
<!-- Node14&#45;&gt;Node13 -->
<g id="edge16" class="edge">
<title>Node14&#45;&gt;Node13</title>
<path fill="none" stroke="#9a32cd" stroke-dasharray="5,2" d="M147.88,-441.5C169.55,-441.5 192.85,-441.5 213.81,-441.5"/>
<polygon fill="#9a32cd" stroke="#9a32cd" points="147.88,-438 137.88,-441.5 147.88,-445 147.88,-438"/>
<text text-anchor="middle" x="175" y="-488.5" font-family="Helvetica,sans-Serif" font-size="10.00"> mDolby</text>
<text text-anchor="middle" x="175" y="-477.5" font-family="Helvetica,sans-Serif" font-size="10.00">mFxMix</text>
<text text-anchor="middle" x="175" y="-466.5" font-family="Helvetica,sans-Serif" font-size="10.00">mPan</text>
<text text-anchor="middle" x="175" y="-455.5" font-family="Helvetica,sans-Serif" font-size="10.00">mPitch</text>
<text text-anchor="middle" x="175" y="-444.5" font-family="Helvetica,sans-Serif" font-size="10.00">mVolume</text>
</g>
<!-- Node15 -->
<g id="node15" class="node">
<title>Node15</title>
<g id="a_node15"><a xlink:href="classJSUList.html" target="_top" xlink:title=" ">
<polygon fill="white" stroke="#666666" points="546.5,-546 450.5,-546 450.5,-527 546.5,-527 546.5,-546"/>
<text text-anchor="middle" x="498.5" y="-534" font-family="Helvetica,sans-Serif" font-size="10.00">JSUList&lt; JAISe &gt;</text>
</a>
</g>
</g>
<!-- Node15&#45;&gt;Node9 -->
<g id="edge17" class="edge">
<title>Node15&#45;&gt;Node9</title>
<path fill="none" stroke="#9a32cd" stroke-dasharray="5,2" d="M544.78,-549.37C554.69,-551.94 565.16,-554.47 575,-556.5 608.07,-563.32 645.72,-568.88 674.77,-572.71"/>
<polygon fill="#9a32cd" stroke="#9a32cd" points="545.91,-546.05 535.35,-546.86 544.11,-552.82 545.91,-546.05"/>
<text text-anchor="middle" x="616" y="-572.5" font-family="Helvetica,sans-Serif" font-size="10.00"> mSeList</text>
</g>
<!-- Node16 -->
<g id="node16" class="node">
<title>Node16</title>
<g id="a_node16"><a xlink:href="structJSUPtrList.html" target="_top" xlink:title=" ">
<polygon fill="white" stroke="#666666" points="314.5,-170 249.5,-170 249.5,-151 314.5,-151 314.5,-170"/>
<text text-anchor="middle" x="282" y="-158" font-family="Helvetica,sans-Serif" font-size="10.00">JSUPtrList</text>
</a>
</g>
</g>
<!-- Node16&#45;&gt;Node15 -->
<g id="edge18" class="edge">
<title>Node16&#45;&gt;Node15</title>
<path fill="none" stroke="#63b8ff" d="M288.24,-181.09C306.54,-253.05 366.65,-489.02 368,-490.5 389.09,-513.56 422.51,-525.07 450.11,-530.81"/>
<polygon fill="#63b8ff" stroke="#63b8ff" points="291.73,-180.62 285.87,-171.79 284.94,-182.35 291.73,-180.62"/>
</g>
<!-- Node17 -->
<g id="node17" class="node">
<title>Node17</title>
<g id="a_node17"><a xlink:href="structJSUPtrLink.html" target="_top" xlink:title=" ">
<polygon fill="white" stroke="#666666" points="532.5,-56 464.5,-56 464.5,-37 532.5,-37 532.5,-56"/>
<text text-anchor="middle" x="498.5" y="-44" font-family="Helvetica,sans-Serif" font-size="10.00">JSUPtrLink</text>
</a>
</g>
</g>
<!-- Node16&#45;&gt;Node17 -->
<g id="edge20" class="edge">
<title>Node16&#45;&gt;Node17</title>
<path fill="none" stroke="#9a32cd" stroke-dasharray="5,2" d="M295.9,-141.46C310.79,-121.05 337.23,-89.33 368,-72.5 397.98,-56.11 436.93,-49.99 464.25,-47.74"/>
<polygon fill="#9a32cd" stroke="#9a32cd" points="293.15,-139.28 290.25,-149.47 298.87,-143.32 293.15,-139.28"/>
<text text-anchor="middle" x="395" y="-75.5" font-family="Helvetica,sans-Serif" font-size="10.00"> mList</text>
</g>
<!-- Node20 -->
<g id="node20" class="node">
<title>Node20</title>
<g id="a_node20"><a xlink:href="classJSUList.html" target="_top" xlink:title=" ">
<polygon fill="white" stroke="#666666" points="549,-269 448,-269 448,-250 549,-250 549,-269"/>
<text text-anchor="middle" x="498.5" y="-257" font-family="Helvetica,sans-Serif" font-size="10.00">JSUList&lt; JAISeq &gt;</text>
</a>
</g>
</g>
<!-- Node16&#45;&gt;Node20 -->
<g id="edge32" class="edge">
<title>Node16&#45;&gt;Node20</title>
<path fill="none" stroke="#63b8ff" d="M314.8,-175.18C359.03,-195.59 437.94,-232.01 475.92,-249.54"/>
<polygon fill="#63b8ff" stroke="#63b8ff" points="316.27,-172 305.73,-170.99 313.34,-178.36 316.27,-172"/>
</g>
<!-- Node23 -->
<g id="node23" class="node">
<title>Node23</title>
<g id="a_node23"><a xlink:href="classJSUList.html" target="_top" xlink:title=" ">
<polygon fill="white" stroke="#666666" points="556.5,-170 440.5,-170 440.5,-151 556.5,-151 556.5,-170"/>
<text text-anchor="middle" x="498.5" y="-158" font-family="Helvetica,sans-Serif" font-size="10.00">JSUList&lt; JAIStream &gt;</text>
</a>
</g>
</g>
<!-- Node16&#45;&gt;Node23 -->
<g id="edge39" class="edge">
<title>Node16&#45;&gt;Node23</title>
<path fill="none" stroke="#63b8ff" d="M326.13,-160.5C358.94,-160.5 404.42,-160.5 440.28,-160.5"/>
<polygon fill="#63b8ff" stroke="#63b8ff" points="326.16,-157 316.16,-160.5 326.16,-164 326.16,-157"/>
</g>
<!-- Node17&#45;&gt;Node16 -->
<g id="edge19" class="edge">
<title>Node17&#45;&gt;Node16</title>
<path fill="none" stroke="#9a32cd" stroke-dasharray="5,2" d="M468.81,-61.75C424.14,-85.49 339.22,-130.62 301.66,-150.58"/>
<polygon fill="#9a32cd" stroke="#9a32cd" points="470.21,-64.97 477.39,-57.19 466.92,-58.79 470.21,-64.97"/>
<text text-anchor="middle" x="395" y="-128.5" font-family="Helvetica,sans-Serif" font-size="10.00"> mHead</text>
<text text-anchor="middle" x="395" y="-117.5" font-family="Helvetica,sans-Serif" font-size="10.00">mTail</text>
</g>
<!-- Node17&#45;&gt;Node17 -->
<g id="edge21" class="edge">
<title>Node17&#45;&gt;Node17</title>
<path fill="none" stroke="#9a32cd" stroke-dasharray="5,2" d="M480.13,-67.43C482.43,-71.29 488.55,-74 498.5,-74 516.69,-74 522.09,-64.94 514.7,-56.37"/>
<polygon fill="#9a32cd" stroke="#9a32cd" points="483.52,-68.34 482.01,-57.85 476.65,-66.99 483.52,-68.34"/>
<text text-anchor="middle" x="498.5" y="-88" font-family="Helvetica,sans-Serif" font-size="10.00"> mNext</text>
<text text-anchor="middle" x="498.5" y="-77" font-family="Helvetica,sans-Serif" font-size="10.00">mPrev</text>
</g>
<!-- Node18&#45;&gt;Node1 -->
<g id="edge23" class="edge">
<title>Node18&#45;&gt;Node1</title>
<path fill="none" stroke="#9a32cd" stroke-dasharray="5,2" d="M752.18,-273.35C782.34,-257.49 832.96,-233.65 880,-224.5 957.73,-209.37 1050.68,-232.37 1097.09,-246.61"/>
<polygon fill="#9a32cd" stroke="#9a32cd" points="750.9,-270.06 743.74,-277.87 754.21,-276.23 750.9,-270.06"/>
<text text-anchor="middle" x="933.5" y="-227.5" font-family="Helvetica,sans-Serif" font-size="10.00"> mSeqMgr</text>
</g>
<!-- Node19 -->
<g id="node19" class="node">
<title>Node19</title>
<g id="a_node19"><a xlink:href="classJASGlobalInstance.html" target="_top" xlink:title=" ">
<polygon fill="white" stroke="#666666" points="987,-274.5 880,-274.5 880,-244.5 987,-244.5 987,-274.5"/>
<text text-anchor="start" x="888" y="-262.5" font-family="Helvetica,sans-Serif" font-size="10.00">JASGlobalInstance&lt;</text>
<text text-anchor="middle" x="933.5" y="-251.5" font-family="Helvetica,sans-Serif" font-size="10.00"> JAISeqMgr &gt;</text>
</a>
</g>
</g>
<!-- Node18&#45;&gt;Node19 -->
<g id="edge26" class="edge">
<title>Node18&#45;&gt;Node19</title>
<path fill="none" stroke="#9a32cd" stroke-dasharray="5,2" d="M768.25,-283.09C795.23,-279.65 830.66,-275 862,-270.5 867.76,-269.67 873.79,-268.78 879.78,-267.87"/>
<polygon fill="#9a32cd" stroke="#9a32cd" points="767.85,-279.61 758.37,-284.34 768.73,-286.56 767.85,-279.61"/>
<text text-anchor="middle" x="826.5" y="-282.5" font-family="Helvetica,sans-Serif" font-size="10.00"> sInstance</text>
</g>
<!-- Node19&#45;&gt;Node18 -->
<g id="edge25" class="edge">
<title>Node19&#45;&gt;Node18</title>
<path fill="none" stroke="#63b8ff" d="M868.29,-264.15C843.99,-266.35 816.14,-269.42 791,-273.5 779.75,-275.33 767.55,-277.92 756.73,-280.44"/>
<polygon fill="#63b8ff" stroke="#63b8ff" points="868.38,-267.65 878.04,-263.29 867.77,-260.68 868.38,-267.65"/>
</g>
<!-- Node20&#45;&gt;Node18 -->
<g id="edge31" class="edge">
<title>Node20&#45;&gt;Node18</title>
<path fill="none" stroke="#9a32cd" stroke-dasharray="5,2" d="M560.6,-264.37C589.85,-267.04 625.32,-270.78 657,-275.5 668.2,-277.17 680.39,-279.44 691.21,-281.62"/>
<polygon fill="#9a32cd" stroke="#9a32cd" points="561.08,-260.9 550.81,-263.5 560.46,-267.87 561.08,-260.9"/>
<text text-anchor="middle" x="616" y="-278.5" font-family="Helvetica,sans-Serif" font-size="10.00"> mSeqList</text>
</g>
<!-- Node21&#45;&gt;Node1 -->
<g id="edge33" class="edge">
<title>Node21&#45;&gt;Node1</title>
<path fill="none" stroke="#9a32cd" stroke-dasharray="5,2" d="M775.58,-149.27C841.4,-161.5 959.42,-186.2 1056,-221.5 1074.87,-228.4 1095.31,-238.91 1109.3,-246.62"/>
<polygon fill="#9a32cd" stroke="#9a32cd" points="776.26,-145.84 765.79,-147.48 775,-152.72 776.26,-145.84"/>
<text text-anchor="middle" x="933.5" y="-200.5" font-family="Helvetica,sans-Serif" font-size="10.00"> mStreamMgr</text>
</g>
<!-- Node22 -->
<g id="node22" class="node">
<title>Node22</title>
<g id="a_node22"><a xlink:href="classJASGlobalInstance.html" target="_top" xlink:title=" ">
<polygon fill="white" stroke="#666666" points="987,-126.5 880,-126.5 880,-96.5 987,-96.5 987,-126.5"/>
<text text-anchor="start" x="888" y="-114.5" font-family="Helvetica,sans-Serif" font-size="10.00">JASGlobalInstance&lt;</text>
<text text-anchor="middle" x="933.5" y="-103.5" font-family="Helvetica,sans-Serif" font-size="10.00"> JAIStreamMgr &gt;</text>
</a>
</g>
</g>
<!-- Node21&#45;&gt;Node22 -->
<g id="edge35" class="edge">
<title>Node21&#45;&gt;Node22</title>
<path fill="none" stroke="#9a32cd" stroke-dasharray="5,2" d="M751.63,-125.26C763.32,-119.41 777.44,-113.44 791,-110.5 819.81,-104.26 852.7,-104.09 879.52,-105.67"/>
<polygon fill="#9a32cd" stroke="#9a32cd" points="750.23,-122.04 743.01,-129.8 753.49,-128.23 750.23,-122.04"/>
<text text-anchor="middle" x="826.5" y="-113.5" font-family="Helvetica,sans-Serif" font-size="10.00"> sInstance</text>
</g>
<!-- Node22&#45;&gt;Node21 -->
<g id="edge34" class="edge">
<title>Node22&#45;&gt;Node21</title>
<path fill="none" stroke="#63b8ff" d="M868.59,-122.51C866.37,-122.85 864.16,-123.18 862,-123.5 829.16,-128.33 791.75,-132.91 764.33,-136.1"/>
<polygon fill="#63b8ff" stroke="#63b8ff" points="868.97,-125.99 878.31,-120.97 867.88,-119.08 868.97,-125.99"/>
</g>
<!-- Node23&#45;&gt;Node21 -->
<g id="edge38" class="edge">
<title>Node23&#45;&gt;Node21</title>
<path fill="none" stroke="#9a32cd" stroke-dasharray="5,2" d="M567.94,-149.3C570.32,-149.02 572.68,-148.75 575,-148.5 611.72,-144.6 653.78,-142.56 683.65,-141.52"/>
<polygon fill="#9a32cd" stroke="#9a32cd" points="567.68,-145.81 558.22,-150.57 568.59,-152.75 567.68,-145.81"/>
<text text-anchor="middle" x="616" y="-151.5" font-family="Helvetica,sans-Serif" font-size="10.00"> mStreamList</text>
</g>
<!-- Node24 -->
<g id="node24" class="node">
<title>Node24</title>
<g id="a_node24"><a xlink:href="structJAIStreamDataMgr.html" target="_top" xlink:title=" ">
<polygon fill="white" stroke="#666666" points="548.5,-19 448.5,-19 448.5,0 548.5,0 548.5,-19"/>
<text text-anchor="middle" x="498.5" y="-7" font-family="Helvetica,sans-Serif" font-size="10.00">JAIStreamDataMgr</text>
</a>
</g>
</g>
<!-- Node24&#45;&gt;Node21 -->
<g id="edge40" class="edge">
<title>Node24&#45;&gt;Node21</title>
<path fill="none" stroke="#9a32cd" stroke-dasharray="5,2" d="M547.47,-23.33C550.74,-24.63 553.94,-26.02 557,-27.5 619.46,-57.69 685.12,-109.23 711.27,-130.68"/>
<polygon fill="#9a32cd" stroke="#9a32cd" points="548.94,-20.14 538.35,-19.98 546.53,-26.71 548.94,-20.14"/>
<text text-anchor="middle" x="616" y="-90.5" font-family="Helvetica,sans-Serif" font-size="10.00"> mStreamDataMgr</text>
</g>
<!-- Node25 -->
<g id="node25" class="node">
<title>Node25</title>
<g id="a_node25"><a xlink:href="structJAIStreamAramMgr.html" target="_top" xlink:title=" ">
<polygon fill="white" stroke="#666666" points="550,-133 447,-133 447,-114 550,-114 550,-133"/>
<text text-anchor="middle" x="498.5" y="-121" font-family="Helvetica,sans-Serif" font-size="10.00">JAIStreamAramMgr</text>
</a>
</g>
</g>
<!-- Node25&#45;&gt;Node21 -->
<g id="edge41" class="edge">
<title>Node25&#45;&gt;Node21</title>
<path fill="none" stroke="#9a32cd" stroke-dasharray="5,2" d="M561.55,-113.02C590.74,-109.86 625.88,-108.59 657,-114.5 673.21,-117.58 690.54,-124.56 703.37,-130.51"/>
<polygon fill="#9a32cd" stroke="#9a32cd" points="561.29,-109.53 551.77,-114.19 562.12,-116.48 561.29,-109.53"/>
<text text-anchor="middle" x="616" y="-117.5" font-family="Helvetica,sans-Serif" font-size="10.00"> mStreamAramMgr</text>
</g>
<!-- Node26 -->
<g id="node26" class="node">
<title>Node26</title>
<g id="a_node26"><a xlink:href="structJAISoundID.html" target="_top" xlink:title=" ">
<polygon fill="white" stroke="#666666" points="968,-312 899,-312 899,-293 968,-293 968,-312"/>
<text text-anchor="middle" x="933.5" y="-300" font-family="Helvetica,sans-Serif" font-size="10.00">JAISoundID</text>
</a>
</g>
</g>
<!-- Node26&#45;&gt;Node1 -->
<g id="edge42" class="edge">
<title>Node26&#45;&gt;Node1</title>
<path fill="none" stroke="#9a32cd" stroke-dasharray="5,2" d="M979.42,-291.74C1013.44,-283.59 1059.54,-272.54 1091,-265"/>
<polygon fill="#9a32cd" stroke="#9a32cd" points="978.76,-288.3 969.86,-294.03 980.4,-295.1 978.76,-288.3"/>
<text text-anchor="middle" x="1030.5" y="-287.5" font-family="Helvetica,sans-Serif" font-size="10.00"> field_0x80c</text>
</g>
</g>
</svg>
        <g id="navigator" transform="translate(0 0)" fill="#404254">
                <rect fill="#f2f5e9" fill-opacity="0.5" stroke="#606060" stroke-width=".5" x="0" y="0" width="60" height="60"/>
                <use id="zoomplus" xlink:href="#zoomPlus" x="17" y="9" onmousedown="handleZoom(evt,'in')"/>
                <use id="zoomminus" xlink:href="#zoomMin" x="42" y="9" onmousedown="handleZoom(evt,'out')"/>
                <use id="reset" xlink:href="#resetDef" x="30" y="36" onmousedown="handleReset()"/>
                <g id="arrowUp" xlink:href="#dirArrow" transform="translate(30 24)" onmousedown="handlePan(0,-1)">
                  <use xlink:href="#rim" fill="#404040">
                        <set attributeName="fill" to="#808080" begin="arrowUp.mouseover" end="arrowUp.mouseout"/>
                  </use>
                  <path fill="none" stroke="white" stroke-width="1.5" d="M0,-3.0v7 M-2.5,-0.5L0,-3.0L2.5,-0.5"/>
                </g>
                <g id="arrowRight" xlink:href="#dirArrow" transform="rotate(90) translate(36 -43)" onmousedown="handlePan(1,0)">
                  <use xlink:href="#rim" fill="#404040">
                        <set attributeName="fill" to="#808080" begin="arrowRight.mouseover" end="arrowRight.mouseout"/>
                  </use>
                  <path fill="none" stroke="white" stroke-width="1.5" d="M0,-3.0v7 M-2.5,-0.5L0,-3.0L2.5,-0.5"/>
                </g>
                <g id="arrowDown" xlink:href="#dirArrow" transform="rotate(180) translate(-30 -48)" onmousedown="handlePan(0,1)">
                  <use xlink:href="#rim" fill="#404040">
                        <set attributeName="fill" to="#808080" begin="arrowDown.mouseover" end="arrowDown.mouseout"/>
                  </use>
                  <path fill="none" stroke="white" stroke-width="1.5" d="M0,-3.0v7 M-2.5,-0.5L0,-3.0L2.5,-0.5"/>
                </g>
                <g id="arrowLeft" xlink:href="#dirArrow" transform="rotate(270) translate(-36 17)" onmousedown="handlePan(-1,0)">
                  <use xlink:href="#rim" fill="#404040">
                        <set attributeName="fill" to="#808080" begin="arrowLeft.mouseover" end="arrowLeft.mouseout"/>
                  </use>
                  <path fill="none" stroke="white" stroke-width="1.5" d="M0,-3.0v7 M-2.5,-0.5L0,-3.0L2.5,-0.5"/>
                </g>
        </g>
        <svg viewBox="0 0 15 15" width="100%" height="30px" preserveAspectRatio="xMaxYMin meet">
         <g id="arrow_out" transform="scale(0.3 0.3)">
          <a xlink:href="structZ2SoundMgr__coll__graph_org.svg" target="_base">
           <rect id="button" ry="5" rx="5" y="6" x="6" height="38" width="38"
                fill="#f2f5e9" fill-opacity="0.5" stroke="#606060" stroke-width="1.0"/>
           <path id="arrow"
             d="M 11.500037,31.436501 C 11.940474,20.09759 22.043105,11.32322 32.158766,21.979434 L 37.068811,17.246167 C 37.068811,17.246167 37.088388,32 37.088388,32 L 22.160133,31.978069 C 22.160133,31.978069 26.997745,27.140456 26.997745,27.140456 C 18.528582,18.264221 13.291696,25.230495 11.500037,31.436501 z"
             style="fill:#404040;"/>
          </a>
         </g>
        </svg>
</svg>
