<?xml version="1.0" encoding="UTF-8" standalone="no"?>
<!DOCTYPE svg PUBLIC "-//W3C//DTD SVG 1.1//EN"
 "http://www.w3.org/Graphics/SVG/1.1/DTD/svg11.dtd">
<!-- Generated by graphviz version 7.0.5 (20221223.1930)
 -->
<!-- Title: _GXColorS10 Pages: 1 -->
<svg width="202pt" height="82pt"
 viewBox="0.00 0.00 202.00 82.00" xmlns="http://www.w3.org/2000/svg" xmlns:xlink="http://www.w3.org/1999/xlink">
<g id="graph0" class="graph" transform="scale(1 1) rotate(0) translate(4 78)">
<title>_GXColorS10</title>
<!-- Node1 -->
<g id="node1" class="node">
<title>Node1</title>
<g id="a_node1"><a xlink:title=" ">
<polygon fill="#999999" stroke="#666666" points="135,-74 59,-74 59,-55 135,-55 135,-74"/>
<text text-anchor="middle" x="97" y="-62" font-family="Helvetica,sans-Serif" font-size="10.00">_GXColorS10</text>
</a>
</g>
</g>
<!-- Node2 -->
<g id="node2" class="node">
<title>Node2</title>
<g id="a_node2"><a xlink:href="structJ2DGXColorS10.html" target="_top" xlink:title=" ">
<polygon fill="white" stroke="#666666" points="88,-19 0,-19 0,0 88,0 88,-19"/>
<text text-anchor="middle" x="44" y="-7" font-family="Helvetica,sans-Serif" font-size="10.00">J2DGXColorS10</text>
</a>
</g>
</g>
<!-- Node1&#45;&gt;Node2 -->
<g id="edge1" class="edge">
<title>Node1&#45;&gt;Node2</title>
<path fill="none" stroke="#63b8ff" d="M80.28,-46.78C71.22,-37.72 60.4,-26.9 52.94,-19.44"/>
<polygon fill="#63b8ff" stroke="#63b8ff" points="77.63,-49.08 87.18,-53.68 82.58,-44.13 77.63,-49.08"/>
</g>
<!-- Node3 -->
<g id="node3" class="node">
<title>Node3</title>
<g id="a_node3"><a xlink:href="structJ3DGXColorS10.html" target="_top" xlink:title=" ">
<polygon fill="white" stroke="#666666" points="194,-19 106,-19 106,0 194,0 194,-19"/>
<text text-anchor="middle" x="150" y="-7" font-family="Helvetica,sans-Serif" font-size="10.00">J3DGXColorS10</text>
</a>
</g>
</g>
<!-- Node1&#45;&gt;Node3 -->
<g id="edge2" class="edge">
<title>Node1&#45;&gt;Node3</title>
<path fill="none" stroke="#63b8ff" d="M113.72,-46.78C122.78,-37.72 133.6,-26.9 141.06,-19.44"/>
<polygon fill="#63b8ff" stroke="#63b8ff" points="111.42,-44.13 106.82,-53.68 116.37,-49.08 111.42,-44.13"/>
</g>
</g>
</svg>
