<?xml version="1.0" encoding="UTF-8" standalone="no"?>
<!DOCTYPE svg PUBLIC "-//W3C//DTD SVG 1.1//EN"
 "http://www.w3.org/Graphics/SVG/1.1/DTD/svg11.dtd">
<!-- Generated by graphviz version 7.0.5 (20221223.1930)
 -->
<!-- Title: dTres_c::type_group_list Pages: 1 -->
<svg width="209pt" height="226pt"
 viewBox="0.00 0.00 209.00 226.00" xmlns="http://www.w3.org/2000/svg" xmlns:xlink="http://www.w3.org/1999/xlink">
<g id="graph0" class="graph" transform="scale(1 1) rotate(0) translate(4 222)">
<title>dTres_c::type_group_list</title>
<!-- Node1 -->
<g id="node1" class="node">
<title>Node1</title>
<g id="a_node1"><a xlink:title=" ">
<polygon fill="#999999" stroke="#666666" points="126.5,-19 4.5,-19 4.5,0 126.5,0 126.5,-19"/>
<text text-anchor="middle" x="65.5" y="-7" font-family="Helvetica,sans-Serif" font-size="10.00">dTres_c::type_group_list</text>
</a>
</g>
</g>
<!-- Node2 -->
<g id="node2" class="node">
<title>Node2</title>
<g id="a_node2"><a xlink:href="structdTres__c_1_1typeGroupData__c.html" target="_top" xlink:title=" ">
<polygon fill="white" stroke="#666666" points="131,-96 0,-96 0,-77 131,-77 131,-96"/>
<text text-anchor="middle" x="65.5" y="-84" font-family="Helvetica,sans-Serif" font-size="10.00">dTres_c::typeGroupData_c</text>
</a>
</g>
</g>
<!-- Node2&#45;&gt;Node1 -->
<g id="edge1" class="edge">
<title>Node2&#45;&gt;Node1</title>
<path fill="none" stroke="#9a32cd" stroke-dasharray="5,2" d="M65.5,-65.42C65.5,-50.43 65.5,-30.66 65.5,-19.39"/>
<polygon fill="#9a32cd" stroke="#9a32cd" points="62,-65.09 65.5,-75.09 69,-65.09 62,-65.09"/>
<text text-anchor="middle" x="85.5" y="-51" font-family="Helvetica,sans-Serif" font-size="10.00"> field_0x0</text>
<text text-anchor="middle" x="85.5" y="-40" font-family="Helvetica,sans-Serif" font-size="10.00">field_0x4</text>
</g>
<!-- Node2&#45;&gt;Node2 -->
<g id="edge4" class="edge">
<title>Node2&#45;&gt;Node2</title>
<path fill="none" stroke="#9a32cd" stroke-dasharray="5,2" d="M142.54,-89.96C146.6,-89.11 149,-87.95 149,-86.5 149,-83.98 141.81,-82.37 131.31,-81.67"/>
<polygon fill="#9a32cd" stroke="#9a32cd" points="142.31,-86.46 132.81,-91.15 143.16,-93.41 142.31,-86.46"/>
<text text-anchor="middle" x="175" y="-84" font-family="Helvetica,sans-Serif" font-size="10.00"> mNextData</text>
</g>
<!-- Node3 -->
<g id="node3" class="node">
<title>Node3</title>
<g id="a_node3"><a xlink:href="structdTres__c_1_1data__s.html" target="_top" xlink:title=" ">
<polygon fill="white" stroke="#666666" points="108.5,-152 22.5,-152 22.5,-133 108.5,-133 108.5,-152"/>
<text text-anchor="middle" x="65.5" y="-140" font-family="Helvetica,sans-Serif" font-size="10.00">dTres_c::data_s</text>
</a>
</g>
</g>
<!-- Node3&#45;&gt;Node2 -->
<g id="edge2" class="edge">
<title>Node3&#45;&gt;Node2</title>
<path fill="none" stroke="#63b8ff" d="M65.5,-121.11C65.5,-112.52 65.5,-102.97 65.5,-96.25"/>
<polygon fill="#63b8ff" stroke="#63b8ff" points="62,-121.07 65.5,-131.07 69,-121.07 62,-121.07"/>
</g>
<!-- Node4 -->
<g id="node4" class="node">
<title>Node4</title>
<g id="a_node4"><a xlink:href="structVec.html" target="_top" xlink:title=" ">
<polygon fill="white" stroke="#666666" points="82.5,-218 48.5,-218 48.5,-199 82.5,-199 82.5,-218"/>
<text text-anchor="middle" x="65.5" y="-206" font-family="Helvetica,sans-Serif" font-size="10.00">Vec</text>
</a>
</g>
</g>
<!-- Node4&#45;&gt;Node3 -->
<g id="edge3" class="edge">
<title>Node4&#45;&gt;Node3</title>
<path fill="none" stroke="#9a32cd" stroke-dasharray="5,2" d="M65.5,-187.18C65.5,-175.44 65.5,-161.27 65.5,-152.32"/>
<polygon fill="#9a32cd" stroke="#9a32cd" points="62,-187.09 65.5,-197.09 69,-187.09 62,-187.09"/>
<text text-anchor="middle" x="79.5" y="-173" font-family="Helvetica,sans-Serif" font-size="10.00"> mPos</text>
</g>
</g>
</svg>
