<?xml version="1.0" encoding="UTF-8" standalone="no"?>
<!DOCTYPE svg PUBLIC "-//W3C//DTD SVG 1.1//EN"
 "http://www.w3.org/Graphics/SVG/1.1/DTD/svg11.dtd">
<!-- Generated by graphviz version 7.0.5 (20221223.1930)
 -->
<!-- Title: OSHeapCell Pages: 1 -->
<svg width="132pt" height="107pt"
 viewBox="0.00 0.00 131.50 107.00" xmlns="http://www.w3.org/2000/svg" xmlns:xlink="http://www.w3.org/1999/xlink">
<g id="graph0" class="graph" transform="scale(1 1) rotate(0) translate(4 103)">
<title>OSHeapCell</title>
<!-- Node1 -->
<g id="node1" class="node">
<title>Node1</title>
<g id="a_node1"><a xlink:title=" ">
<polygon fill="#999999" stroke="#666666" points="84.5,-97.5 13.5,-97.5 13.5,-78.5 84.5,-78.5 84.5,-97.5"/>
<text text-anchor="middle" x="49" y="-85.5" font-family="Helvetica,sans-Serif" font-size="10.00">OSHeapCell</text>
</a>
</g>
</g>
<!-- Node1&#45;&gt;Node1 -->
<g id="edge1" class="edge">
<title>Node1&#45;&gt;Node1</title>
<path fill="none" stroke="#9a32cd" stroke-dasharray="5,2" d="M96.14,-93.79C100.06,-92.55 102.5,-90.61 102.5,-88 102.5,-83.35 94.79,-80.86 84.75,-80.54"/>
<polygon fill="#9a32cd" stroke="#9a32cd" points="95.64,-90.33 86.25,-95.24 96.65,-97.26 95.64,-90.33"/>
<text text-anchor="middle" x="113" y="-91" font-family="Helvetica,sans-Serif" font-size="10.00"> next</text>
<text text-anchor="middle" x="113" y="-80" font-family="Helvetica,sans-Serif" font-size="10.00">prev</text>
</g>
<!-- Node2 -->
<g id="node2" class="node">
<title>Node2</title>
<g id="a_node2"><a xlink:href="structOSHeapDescriptor.html" target="_top" xlink:title=" ">
<polygon fill="white" stroke="#666666" points="98,-19 0,-19 0,0 98,0 98,-19"/>
<text text-anchor="middle" x="49" y="-7" font-family="Helvetica,sans-Serif" font-size="10.00">OSHeapDescriptor</text>
</a>
</g>
</g>
<!-- Node1&#45;&gt;Node2 -->
<g id="edge3" class="edge">
<title>Node1&#45;&gt;Node2</title>
<path fill="none" stroke="#9a32cd" stroke-dasharray="5,2" d="M24.77,-70.94C21.21,-67.45 18.06,-63.45 16,-59 11.89,-50.13 11.77,-45.82 16,-37 19.49,-29.71 26.08,-23.79 32.45,-19.42"/>
<polygon fill="#9a32cd" stroke="#9a32cd" points="22.37,-73.5 32.31,-77.17 26.83,-68.1 22.37,-73.5"/>
<text text-anchor="middle" x="35" y="-51" font-family="Helvetica,sans-Serif" font-size="10.00"> freeList</text>
<text text-anchor="middle" x="35" y="-40" font-family="Helvetica,sans-Serif" font-size="10.00">usedList</text>
</g>
<!-- Node2&#45;&gt;Node1 -->
<g id="edge2" class="edge">
<title>Node2&#45;&gt;Node1</title>
<path fill="none" stroke="#9a32cd" stroke-dasharray="5,2" d="M56.42,-30C57.07,-32.33 57.62,-34.7 58,-37 59.59,-46.65 59.51,-49.34 58,-59 56.96,-65.66 54.6,-72.89 52.55,-78.34"/>
<polygon fill="#9a32cd" stroke="#9a32cd" points="59.75,-28.93 53.23,-20.58 53.12,-31.18 59.75,-28.93"/>
<text text-anchor="middle" x="65.5" y="-45.5" font-family="Helvetica,sans-Serif" font-size="10.00"> hd</text>
</g>
</g>
</svg>
