<?xml version="1.0" encoding="UTF-8" standalone="no"?>
<!DOCTYPE svg PUBLIC "-//W3C//DTD SVG 1.1//EN"
 "http://www.w3.org/Graphics/SVG/1.1/DTD/svg11.dtd">
<!-- Generated by graphviz version 7.0.5 (20221223.1930)
 -->
<!-- Title: JMessage::TResourceContainer Pages: 1 -->
<!--zoomable 170 -->
<svg id="main" version="1.1" xmlns="http://www.w3.org/2000/svg" xmlns:xlink="http://www.w3.org/1999/xlink" xml:space="preserve" onload="init(evt)">
<style type="text/css"><![CDATA[
.edge:hover path { stroke: red; }
.edge:hover polygon { stroke: red; fill: red; }
]]></style>
<script type="text/javascript"><![CDATA[
var edges = document.getElementsByTagName('g');
if (edges && edges.length) {
  for (var i=0;i<edges.length;i++) {
    if (edges[i].id.substr(0,4)=='edge') {
      edges[i].setAttribute('class','edge');
    }
  }
}
]]></script>
        <defs>
                <circle id="rim" cx="0" cy="0" r="7"/>
                <circle id="rim2" cx="0" cy="0" r="3.5"/>
                <g id="zoomPlus">
                        <use xlink:href="#rim" fill="#404040">
                                <set attributeName="fill" to="#808080" begin="zoomplus.mouseover" end="zoomplus.mouseout"/>
                        </use>
                        <path d="M-4,0h8M0,-4v8" fill="none" stroke="white" stroke-width="1.5" pointer-events="none"/>
                </g>
                <g id="zoomMin">
                        <use xlink:href="#rim" fill="#404040">
                                <set attributeName="fill" to="#808080" begin="zoomminus.mouseover" end="zoomminus.mouseout"/>
                        </use>
                        <path d="M-4,0h8" fill="none" stroke="white" stroke-width="1.5" pointer-events="none"/>
                </g>
                <g id="dirArrow">
                        <path fill="none" stroke="white" stroke-width="1.5" d="M0,-3.0v7 M-2.5,-0.5L0,-3.0L2.5,-0.5"/>
                </g>
               <g id="resetDef">
                       <use xlink:href="#rim2" fill="#404040">
                               <set attributeName="fill" to="#808080" begin="reset.mouseover" end="reset.mouseout"/>
                       </use>
               </g>
        </defs>

<script type="text/javascript">
var viewWidth = 1296;
var viewHeight = 170;
var sectionId = 'dynsection-0';
</script>
<script xlink:href="svgpan.js"/>
<svg id="graph" class="graph">
<g id="viewport">
<title>JMessage::TResourceContainer</title>
<!-- Node1 -->
<g id="node1" class="node">
<title>Node1</title>
<g id="a_node1"><a xlink:title=" ">
<polygon fill="#999999" stroke="#666666" points="1288,-97.5 1133,-97.5 1133,-78.5 1288,-78.5 1288,-97.5"/>
<text text-anchor="middle" x="1210.5" y="-85.5" font-family="Helvetica,sans-Serif" font-size="10.00">JMessage::TResourceContainer</text>
</a>
</g>
</g>
<!-- Node2 -->
<g id="node2" class="node">
<title>Node2</title>
<g id="a_node2"><a xlink:href="structJMessage_1_1TResourceContainer_1_1TCResource.html" target="_top" xlink:title=" ">
<polygon fill="white" stroke="#666666" points="1034,-127 879,-127 879,-97 1034,-97 1034,-127"/>
<text text-anchor="start" x="887" y="-115" font-family="Helvetica,sans-Serif" font-size="10.00">JMessage::TResourceContainer</text>
<text text-anchor="middle" x="956.5" y="-104" font-family="Helvetica,sans-Serif" font-size="10.00">::TCResource</text>
</a>
</g>
</g>
<!-- Node2&#45;&gt;Node1 -->
<g id="edge1" class="edge">
<title>Node2&#45;&gt;Node1</title>
<path fill="none" stroke="#9a32cd" stroke-dasharray="5,2" d="M1045.6,-103.61C1073.93,-100.91 1105.09,-97.94 1132.56,-95.33"/>
<polygon fill="#9a32cd" stroke="#9a32cd" points="1045.61,-100.09 1035.98,-104.53 1046.27,-107.06 1045.61,-100.09"/>
<text text-anchor="middle" x="1083.5" y="-105" font-family="Helvetica,sans-Serif" font-size="10.00"> resContainer_</text>
</g>
<!-- Node3 -->
<g id="node3" class="node">
<title>Node3</title>
<g id="a_node3"><a xlink:href="structJGadget_1_1TLinkList__factory.html" target="_top" xlink:title=" ">
<polygon fill="white" stroke="#666666" points="803,-127 678,-127 678,-97 803,-97 803,-127"/>
<text text-anchor="start" x="686" y="-115" font-family="Helvetica,sans-Serif" font-size="10.00">JGadget::TLinkList</text>
<text text-anchor="middle" x="740.5" y="-104" font-family="Helvetica,sans-Serif" font-size="10.00">_factory&lt; TResource, 0 &gt;</text>
</a>
</g>
</g>
<!-- Node3&#45;&gt;Node2 -->
<g id="edge2" class="edge">
<title>Node3&#45;&gt;Node2</title>
<path fill="none" stroke="#63b8ff" d="M814.63,-112C835.23,-112 857.7,-112 878.52,-112"/>
<polygon fill="#63b8ff" stroke="#63b8ff" points="814.91,-108.5 804.91,-112 814.91,-115.5 814.91,-108.5"/>
</g>
<!-- Node4 -->
<g id="node4" class="node">
<title>Node4</title>
<g id="a_node4"><a xlink:href="structJGadget_1_1TLinkList.html" target="_top" xlink:title=" ">
<polygon fill="white" stroke="#666666" points="510,-127 411,-127 411,-97 510,-97 510,-127"/>
<text text-anchor="start" x="419" y="-115" font-family="Helvetica,sans-Serif" font-size="10.00">JGadget::TLinkList</text>
<text text-anchor="middle" x="460.5" y="-104" font-family="Helvetica,sans-Serif" font-size="10.00">&lt; T, I &gt;</text>
</a>
</g>
</g>
<!-- Node4&#45;&gt;Node3 -->
<g id="edge3" class="edge">
<title>Node4&#45;&gt;Node3</title>
<path fill="none" stroke="#63b8ff" d="M521.57,-112C567.68,-112 631.11,-112 677.66,-112"/>
<polygon fill="#63b8ff" stroke="#63b8ff" points="521.76,-108.5 511.76,-112 521.76,-115.5 521.76,-108.5"/>
</g>
<!-- Node5 -->
<g id="node5" class="node">
<title>Node5</title>
<g id="a_node5"><a xlink:href="structJGadget_1_1TNodeLinkList.html" target="_top" xlink:title=" ">
<polygon fill="white" stroke="#666666" points="354,-121.5 232,-121.5 232,-102.5 354,-102.5 354,-121.5"/>
<text text-anchor="middle" x="293" y="-109.5" font-family="Helvetica,sans-Serif" font-size="10.00">JGadget::TNodeLinkList</text>
</a>
</g>
</g>
<!-- Node5&#45;&gt;Node4 -->
<g id="edge4" class="edge">
<title>Node5&#45;&gt;Node4</title>
<path fill="none" stroke="#63b8ff" d="M365.71,-112C380.9,-112 396.61,-112 410.72,-112"/>
<polygon fill="#63b8ff" stroke="#63b8ff" points="365.73,-108.5 355.73,-112 365.73,-115.5 365.73,-108.5"/>
</g>
<!-- Node6 -->
<g id="node6" class="node">
<title>Node6</title>
<g id="a_node6"><a xlink:href="structJGadget_1_1TLinkListNode.html" target="_top" xlink:title=" ">
<polygon fill="white" stroke="#666666" points="131,-121.5 9,-121.5 9,-102.5 131,-102.5 131,-121.5"/>
<text text-anchor="middle" x="70" y="-109.5" font-family="Helvetica,sans-Serif" font-size="10.00">JGadget::TLinkListNode</text>
</a>
</g>
</g>
<!-- Node6&#45;&gt;Node5 -->
<g id="edge5" class="edge">
<title>Node6&#45;&gt;Node5</title>
<path fill="none" stroke="#9a32cd" stroke-dasharray="5,2" d="M142.61,-112C171.37,-112 204.16,-112 231.68,-112"/>
<polygon fill="#9a32cd" stroke="#9a32cd" points="142.9,-108.5 132.9,-112 142.9,-115.5 142.9,-108.5"/>
<text text-anchor="middle" x="181.5" y="-115" font-family="Helvetica,sans-Serif" font-size="10.00"> ocObject_</text>
</g>
<!-- Node6&#45;&gt;Node6 -->
<g id="edge6" class="edge">
<title>Node6&#45;&gt;Node6</title>
<path fill="none" stroke="#9a32cd" stroke-dasharray="5,2" d="M50.21,-132.93C52.68,-136.79 59.28,-139.5 70,-139.5 89.6,-139.5 95.42,-130.44 87.46,-121.87"/>
<polygon fill="#9a32cd" stroke="#9a32cd" points="53.59,-133.86 52.23,-123.35 46.74,-132.41 53.59,-133.86"/>
<text text-anchor="middle" x="70" y="-153.5" font-family="Helvetica,sans-Serif" font-size="10.00"> mNext</text>
<text text-anchor="middle" x="70" y="-142.5" font-family="Helvetica,sans-Serif" font-size="10.00">mPrev</text>
</g>
<!-- Node7 -->
<g id="node7" class="node">
<title>Node7</title>
<g id="a_node7"><a xlink:href="structJMessage_1_1TResource__color.html" target="_top" xlink:title=" ">
<polygon fill="white" stroke="#666666" points="1013,-79 900,-79 900,-49 1013,-49 1013,-79"/>
<text text-anchor="start" x="908" y="-67" font-family="Helvetica,sans-Serif" font-size="10.00">JMessage::TResource</text>
<text text-anchor="middle" x="956.5" y="-56" font-family="Helvetica,sans-Serif" font-size="10.00">_color</text>
</a>
</g>
</g>
<!-- Node7&#45;&gt;Node1 -->
<g id="edge7" class="edge">
<title>Node7&#45;&gt;Node1</title>
<path fill="none" stroke="#9a32cd" stroke-dasharray="5,2" d="M1024.86,-70.42C1058.08,-73.58 1098.3,-77.41 1132.7,-80.69"/>
<polygon fill="#9a32cd" stroke="#9a32cd" points="1025.22,-66.93 1014.93,-69.47 1024.56,-73.9 1025.22,-66.93"/>
<text text-anchor="middle" x="1083.5" y="-81" font-family="Helvetica,sans-Serif" font-size="10.00"> resColor_</text>
</g>
<!-- Node8 -->
<g id="node8" class="node">
<title>Node8</title>
<g id="a_node8"><a xlink:href="structJMessage_1_1data_1_1TParse__THeader.html" target="_top" xlink:title=" ">
<polygon fill="white" stroke="#666666" points="660,-77 539,-77 539,-47 660,-47 660,-77"/>
<text text-anchor="start" x="547" y="-65" font-family="Helvetica,sans-Serif" font-size="10.00">JMessage::data::TParse</text>
<text text-anchor="middle" x="599.5" y="-54" font-family="Helvetica,sans-Serif" font-size="10.00">_THeader</text>
</a>
</g>
</g>
<!-- Node8&#45;&gt;Node7 -->
<g id="edge8" class="edge">
<title>Node8&#45;&gt;Node7</title>
<path fill="none" stroke="#9a32cd" stroke-dasharray="5,2" d="M671.63,-62.4C738.71,-62.78 837.92,-63.34 899.54,-63.68"/>
<polygon fill="#9a32cd" stroke="#9a32cd" points="671.85,-58.9 661.83,-62.35 671.81,-65.9 671.85,-58.9"/>
<text text-anchor="middle" x="740.5" y="-67" font-family="Helvetica,sans-Serif" font-size="10.00"> field_0x0</text>
</g>
<!-- Node9 -->
<g id="node9" class="node">
<title>Node9</title>
<g id="a_node9"><a xlink:href="structJGadget_1_1binary_1_1TParseData__aligned.html" target="_top" xlink:title=" ">
<polygon fill="white" stroke="#666666" points="363,-65 223,-65 223,-35 363,-35 363,-65"/>
<text text-anchor="start" x="231" y="-53" font-family="Helvetica,sans-Serif" font-size="10.00">JGadget::binary::TParseData</text>
<text text-anchor="middle" x="293" y="-42" font-family="Helvetica,sans-Serif" font-size="10.00">_aligned&lt; 4 &gt;</text>
</a>
</g>
</g>
<!-- Node9&#45;&gt;Node8 -->
<g id="edge9" class="edge">
<title>Node9&#45;&gt;Node8</title>
<path fill="none" stroke="#63b8ff" d="M374.89,-53.19C426.32,-55.21 491.79,-57.79 538.57,-59.64"/>
<polygon fill="#63b8ff" stroke="#63b8ff" points="375.12,-49.69 364.99,-52.8 374.84,-56.69 375.12,-49.69"/>
</g>
<!-- Node12 -->
<g id="node12" class="node">
<title>Node12</title>
<g id="a_node12"><a xlink:href="structJMessage_1_1data_1_1TParse__TBlock.html" target="_top" xlink:title=" ">
<polygon fill="white" stroke="#666666" points="521,-33 400,-33 400,-3 521,-3 521,-33"/>
<text text-anchor="start" x="408" y="-21" font-family="Helvetica,sans-Serif" font-size="10.00">JMessage::data::TParse</text>
<text text-anchor="middle" x="460.5" y="-10" font-family="Helvetica,sans-Serif" font-size="10.00">_TBlock</text>
</a>
</g>
</g>
<!-- Node9&#45;&gt;Node12 -->
<g id="edge13" class="edge">
<title>Node9&#45;&gt;Node12</title>
<path fill="none" stroke="#63b8ff" d="M374.4,-34.45C382.94,-32.8 391.51,-31.15 399.75,-29.55"/>
<polygon fill="#63b8ff" stroke="#63b8ff" points="373.87,-30.99 364.71,-36.33 375.2,-37.87 373.87,-30.99"/>
</g>
<!-- Node10 -->
<g id="node10" class="node">
<title>Node10</title>
<g id="a_node10"><a xlink:href="structJGadget_1_1binary_1_1TParseData.html" target="_top" xlink:title=" ">
<polygon fill="white" stroke="#666666" points="140,-59.5 0,-59.5 0,-40.5 140,-40.5 140,-59.5"/>
<text text-anchor="middle" x="70" y="-47.5" font-family="Helvetica,sans-Serif" font-size="10.00">JGadget::binary::TParseData</text>
</a>
</g>
</g>
<!-- Node10&#45;&gt;Node9 -->
<g id="edge10" class="edge">
<title>Node10&#45;&gt;Node9</title>
<path fill="none" stroke="#63b8ff" d="M151.57,-50C174.84,-50 200.02,-50 222.55,-50"/>
<polygon fill="#63b8ff" stroke="#63b8ff" points="151.83,-46.5 141.83,-50 151.83,-53.5 151.83,-46.5"/>
</g>
<!-- Node11 -->
<g id="node11" class="node">
<title>Node11</title>
<g id="a_node11"><a xlink:href="structJMessage_1_1data_1_1TParse__TBlock__color.html" target="_top" xlink:title=" ">
<polygon fill="white" stroke="#666666" points="801,-30 680,-30 680,0 801,0 801,-30"/>
<text text-anchor="start" x="688" y="-18" font-family="Helvetica,sans-Serif" font-size="10.00">JMessage::data::TParse</text>
<text text-anchor="middle" x="740.5" y="-7" font-family="Helvetica,sans-Serif" font-size="10.00">_TBlock_color</text>
</a>
</g>
</g>
<!-- Node11&#45;&gt;Node7 -->
<g id="edge11" class="edge">
<title>Node11&#45;&gt;Node7</title>
<path fill="none" stroke="#9a32cd" stroke-dasharray="5,2" d="M812.36,-30.12C828.37,-33.62 845.28,-37.38 861,-41 873.51,-43.88 886.91,-47.08 899.59,-50.15"/>
<polygon fill="#9a32cd" stroke="#9a32cd" points="813.43,-26.77 802.92,-28.06 811.94,-33.61 813.43,-26.77"/>
<text text-anchor="middle" x="841" y="-44" font-family="Helvetica,sans-Serif" font-size="10.00"> field_0x4</text>
</g>
<!-- Node12&#45;&gt;Node11 -->
<g id="edge12" class="edge">
<title>Node12&#45;&gt;Node11</title>
<path fill="none" stroke="#63b8ff" d="M532.75,-17.23C578.24,-16.74 636.54,-16.11 679.63,-15.65"/>
<polygon fill="#63b8ff" stroke="#63b8ff" points="532.95,-13.73 522.99,-17.34 533.03,-20.73 532.95,-13.73"/>
</g>
</g>
</svg>
        <g id="navigator" transform="translate(0 0)" fill="#404254">
                <rect fill="#f2f5e9" fill-opacity="0.5" stroke="#606060" stroke-width=".5" x="0" y="0" width="60" height="60"/>
                <use id="zoomplus" xlink:href="#zoomPlus" x="17" y="9" onmousedown="handleZoom(evt,'in')"/>
                <use id="zoomminus" xlink:href="#zoomMin" x="42" y="9" onmousedown="handleZoom(evt,'out')"/>
                <use id="reset" xlink:href="#resetDef" x="30" y="36" onmousedown="handleReset()"/>
                <g id="arrowUp" xlink:href="#dirArrow" transform="translate(30 24)" onmousedown="handlePan(0,-1)">
                  <use xlink:href="#rim" fill="#404040">
                        <set attributeName="fill" to="#808080" begin="arrowUp.mouseover" end="arrowUp.mouseout"/>
                  </use>
                  <path fill="none" stroke="white" stroke-width="1.5" d="M0,-3.0v7 M-2.5,-0.5L0,-3.0L2.5,-0.5"/>
                </g>
                <g id="arrowRight" xlink:href="#dirArrow" transform="rotate(90) translate(36 -43)" onmousedown="handlePan(1,0)">
                  <use xlink:href="#rim" fill="#404040">
                        <set attributeName="fill" to="#808080" begin="arrowRight.mouseover" end="arrowRight.mouseout"/>
                  </use>
                  <path fill="none" stroke="white" stroke-width="1.5" d="M0,-3.0v7 M-2.5,-0.5L0,-3.0L2.5,-0.5"/>
                </g>
                <g id="arrowDown" xlink:href="#dirArrow" transform="rotate(180) translate(-30 -48)" onmousedown="handlePan(0,1)">
                  <use xlink:href="#rim" fill="#404040">
                        <set attributeName="fill" to="#808080" begin="arrowDown.mouseover" end="arrowDown.mouseout"/>
                  </use>
                  <path fill="none" stroke="white" stroke-width="1.5" d="M0,-3.0v7 M-2.5,-0.5L0,-3.0L2.5,-0.5"/>
                </g>
                <g id="arrowLeft" xlink:href="#dirArrow" transform="rotate(270) translate(-36 17)" onmousedown="handlePan(-1,0)">
                  <use xlink:href="#rim" fill="#404040">
                        <set attributeName="fill" to="#808080" begin="arrowLeft.mouseover" end="arrowLeft.mouseout"/>
                  </use>
                  <path fill="none" stroke="white" stroke-width="1.5" d="M0,-3.0v7 M-2.5,-0.5L0,-3.0L2.5,-0.5"/>
                </g>
        </g>
        <svg viewBox="0 0 15 15" width="100%" height="30px" preserveAspectRatio="xMaxYMin meet">
         <g id="arrow_out" transform="scale(0.3 0.3)">
          <a xlink:href="structJMessage_1_1TResourceContainer__coll__graph_org.svg" target="_base">
           <rect id="button" ry="5" rx="5" y="6" x="6" height="38" width="38"
                fill="#f2f5e9" fill-opacity="0.5" stroke="#606060" stroke-width="1.0"/>
           <path id="arrow"
             d="M 11.500037,31.436501 C 11.940474,20.09759 22.043105,11.32322 32.158766,21.979434 L 37.068811,17.246167 C 37.068811,17.246167 37.088388,32 37.088388,32 L 22.160133,31.978069 C 22.160133,31.978069 26.997745,27.140456 26.997745,27.140456 C 18.528582,18.264221 13.291696,25.230495 11.500037,31.436501 z"
             style="fill:#404040;"/>
          </a>
         </g>
        </svg>
</svg>
