<?xml version="1.0" encoding="UTF-8" standalone="no"?>
<!DOCTYPE svg PUBLIC "-//W3C//DTD SVG 1.1//EN"
 "http://www.w3.org/Graphics/SVG/1.1/DTD/svg11.dtd">
<!-- Generated by graphviz version 7.0.5 (20221223.1930)
 -->
<!-- Title: JKRHeap Pages: 1 -->
<svg width="286pt" height="137pt"
 viewBox="0.00 0.00 285.50 137.00" xmlns="http://www.w3.org/2000/svg" xmlns:xlink="http://www.w3.org/1999/xlink">
<g id="graph0" class="graph" transform="scale(1 1) rotate(0) translate(4 133)">
<title>JKRHeap</title>
<!-- Node1 -->
<g id="node1" class="node">
<title>Node1</title>
<g id="a_node1"><a xlink:title=" ">
<polygon fill="#999999" stroke="#666666" points="172,-74 113,-74 113,-55 172,-55 172,-74"/>
<text text-anchor="middle" x="142.5" y="-62" font-family="Helvetica,sans-Serif" font-size="10.00">JKRHeap</text>
</a>
</g>
</g>
<!-- Node3 -->
<g id="node3" class="node">
<title>Node3</title>
<g id="a_node3"><a xlink:href="classJKRAssertHeap.html" target="_top" xlink:title=" ">
<polygon fill="white" stroke="#666666" points="87,-19 0,-19 0,0 87,0 87,-19"/>
<text text-anchor="middle" x="43.5" y="-7" font-family="Helvetica,sans-Serif" font-size="10.00">JKRAssertHeap</text>
</a>
</g>
</g>
<!-- Node1&#45;&gt;Node3 -->
<g id="edge2" class="edge">
<title>Node1&#45;&gt;Node3</title>
<path fill="none" stroke="#63b8ff" d="M115.66,-49.13C97.91,-39.63 75.2,-27.47 60.05,-19.36"/>
<polygon fill="#63b8ff" stroke="#63b8ff" points="113.9,-52.16 124.37,-53.79 117.21,-45.99 113.9,-52.16"/>
</g>
<!-- Node4 -->
<g id="node4" class="node">
<title>Node4</title>
<g id="a_node4"><a xlink:href="structJKRExpHeap.html" target="_top" xlink:title=" ">
<polygon fill="white" stroke="#666666" points="179.5,-19 105.5,-19 105.5,0 179.5,0 179.5,-19"/>
<text text-anchor="middle" x="142.5" y="-7" font-family="Helvetica,sans-Serif" font-size="10.00">JKRExpHeap</text>
</a>
</g>
</g>
<!-- Node1&#45;&gt;Node4 -->
<g id="edge3" class="edge">
<title>Node1&#45;&gt;Node4</title>
<path fill="none" stroke="#63b8ff" d="M142.5,-43.35C142.5,-35.1 142.5,-25.97 142.5,-19.44"/>
<polygon fill="#63b8ff" stroke="#63b8ff" points="139,-43.23 142.5,-53.23 146,-43.23 139,-43.23"/>
</g>
<!-- Node5 -->
<g id="node5" class="node">
<title>Node5</title>
<g id="a_node5"><a xlink:href="classJKRSolidHeap.html" target="_top" xlink:title=" ">
<polygon fill="white" stroke="#666666" points="277.5,-19 197.5,-19 197.5,0 277.5,0 277.5,-19"/>
<text text-anchor="middle" x="237.5" y="-7" font-family="Helvetica,sans-Serif" font-size="10.00">JKRSolidHeap</text>
</a>
</g>
</g>
<!-- Node1&#45;&gt;Node5 -->
<g id="edge4" class="edge">
<title>Node1&#45;&gt;Node5</title>
<path fill="none" stroke="#63b8ff" d="M168.49,-49C185.49,-39.52 207.15,-27.43 221.62,-19.36"/>
<polygon fill="#63b8ff" stroke="#63b8ff" points="166.96,-45.84 159.94,-53.77 170.38,-51.96 166.96,-45.84"/>
</g>
<!-- Node2 -->
<g id="node2" class="node">
<title>Node2</title>
<g id="a_node2"><a xlink:href="classJKRDisposer.html" target="_top" xlink:title=" ">
<polygon fill="white" stroke="#666666" points="179.5,-129 105.5,-129 105.5,-110 179.5,-110 179.5,-129"/>
<text text-anchor="middle" x="142.5" y="-117" font-family="Helvetica,sans-Serif" font-size="10.00">JKRDisposer</text>
</a>
</g>
</g>
<!-- Node2&#45;&gt;Node1 -->
<g id="edge1" class="edge">
<title>Node2&#45;&gt;Node1</title>
<path fill="none" stroke="#63b8ff" d="M142.5,-98.35C142.5,-90.1 142.5,-80.97 142.5,-74.44"/>
<polygon fill="#63b8ff" stroke="#63b8ff" points="139,-98.23 142.5,-108.23 146,-98.23 139,-98.23"/>
</g>
</g>
</svg>
