<?xml version="1.0" encoding="UTF-8" standalone="no"?>
<!DOCTYPE svg PUBLIC "-//W3C//DTD SVG 1.1//EN"
 "http://www.w3.org/Graphics/SVG/1.1/DTD/svg11.dtd">
<!-- Generated by graphviz version 7.0.5 (20221223.1930)
 -->
<!-- Title: Z2CreatureOI Pages: 1 -->
<svg width="1494pt" height="339pt"
 viewBox="0.00 0.00 1494.00 339.07" xmlns="http://www.w3.org/2000/svg" xmlns:xlink="http://www.w3.org/1999/xlink">
<g id="graph0" class="graph" transform="scale(1 1) rotate(0) translate(4 335.07)">
<title>Z2CreatureOI</title>
<!-- Node1 -->
<g id="node1" class="node">
<title>Node1</title>
<g id="a_node1"><a xlink:title=" ">
<polygon fill="#999999" stroke="#666666" points="1486,-213.07 1411,-213.07 1411,-194.07 1486,-194.07 1486,-213.07"/>
<text text-anchor="middle" x="1448.5" y="-201.07" font-family="Helvetica,sans-Serif" font-size="10.00">Z2CreatureOI</text>
</a>
</g>
</g>
<!-- Node2 -->
<g id="node2" class="node">
<title>Node2</title>
<g id="a_node2"><a xlink:href="classZ2CreatureEnemy.html" target="_top" xlink:title=" ">
<polygon fill="white" stroke="#666666" points="1374,-194.07 1280,-194.07 1280,-175.07 1374,-175.07 1374,-194.07"/>
<text text-anchor="middle" x="1327" y="-182.07" font-family="Helvetica,sans-Serif" font-size="10.00">Z2CreatureEnemy</text>
</a>
</g>
</g>
<!-- Node2&#45;&gt;Node1 -->
<g id="edge1" class="edge">
<title>Node2&#45;&gt;Node1</title>
<path fill="none" stroke="#63b8ff" d="M1385.41,-193.7C1394,-195.07 1402.66,-196.45 1410.68,-197.72"/>
<polygon fill="#63b8ff" stroke="#63b8ff" points="1386.12,-190.27 1375.7,-192.16 1385.02,-197.19 1386.12,-190.27"/>
</g>
<!-- Node3 -->
<g id="node3" class="node">
<title>Node3</title>
<g id="a_node3"><a xlink:href="classZ2Creature.html" target="_top" xlink:title=" ">
<polygon fill="white" stroke="#666666" points="1193,-169.07 1128,-169.07 1128,-150.07 1193,-150.07 1193,-169.07"/>
<text text-anchor="middle" x="1160.5" y="-157.07" font-family="Helvetica,sans-Serif" font-size="10.00">Z2Creature</text>
</a>
</g>
</g>
<!-- Node3&#45;&gt;Node2 -->
<g id="edge2" class="edge">
<title>Node3&#45;&gt;Node2</title>
<path fill="none" stroke="#63b8ff" d="M1204.43,-166.1C1227.56,-169.61 1256.13,-173.96 1279.75,-177.55"/>
<polygon fill="#63b8ff" stroke="#63b8ff" points="1205.13,-162.66 1194.71,-164.62 1204.07,-169.59 1205.13,-162.66"/>
</g>
<!-- Node4 -->
<g id="node4" class="node">
<title>Node4</title>
<g id="a_node4"><a xlink:href="structVec.html" target="_top" xlink:title=" ">
<polygon fill="white" stroke="#666666" points="969.5,-126.07 935.5,-126.07 935.5,-107.07 969.5,-107.07 969.5,-126.07"/>
<text text-anchor="middle" x="952.5" y="-114.07" font-family="Helvetica,sans-Serif" font-size="10.00">Vec</text>
</a>
</g>
</g>
<!-- Node4&#45;&gt;Node3 -->
<g id="edge3" class="edge">
<title>Node4&#45;&gt;Node3</title>
<path fill="none" stroke="#9a32cd" stroke-dasharray="5,2" d="M981.24,-117.55C1012.94,-119.25 1066.09,-123.9 1110,-136.57 1120.93,-139.73 1132.48,-144.98 1141.68,-149.67"/>
<polygon fill="#9a32cd" stroke="#9a32cd" points="981.49,-114.06 971.34,-117.09 981.17,-121.05 981.49,-114.06"/>
<text text-anchor="middle" x="1065.5" y="-139.57" font-family="Helvetica,sans-Serif" font-size="10.00"> mpPos</text>
</g>
<!-- Node5 -->
<g id="node5" class="node">
<title>Node5</title>
<g id="a_node5"><a xlink:href="classZ2SoundObjAnime.html" target="_top" xlink:title=" ">
<polygon fill="white" stroke="#666666" points="1001.5,-163.07 903.5,-163.07 903.5,-144.07 1001.5,-144.07 1001.5,-163.07"/>
<text text-anchor="middle" x="952.5" y="-151.07" font-family="Helvetica,sans-Serif" font-size="10.00">Z2SoundObjAnime</text>
</a>
</g>
</g>
<!-- Node5&#45;&gt;Node3 -->
<g id="edge4" class="edge">
<title>Node5&#45;&gt;Node3</title>
<path fill="none" stroke="#9a32cd" stroke-dasharray="5,2" d="M1013.13,-151.05C1042.36,-150.36 1078.06,-150.33 1110,-152.57 1115.71,-152.98 1121.77,-153.64 1127.62,-154.39"/>
<polygon fill="#9a32cd" stroke="#9a32cd" points="1013.27,-147.55 1003.37,-151.32 1013.46,-154.54 1013.27,-147.55"/>
<text text-anchor="middle" x="1065.5" y="-155.57" font-family="Helvetica,sans-Serif" font-size="10.00"> mSoundObjAnime</text>
</g>
<!-- Node6 -->
<g id="node6" class="node">
<title>Node6</title>
<g id="a_node6"><a xlink:href="classZ2SoundObjBase.html" target="_top" xlink:title=" ">
<polygon fill="white" stroke="#666666" points="799,-213.07 706,-213.07 706,-194.07 799,-194.07 799,-213.07"/>
<text text-anchor="middle" x="752.5" y="-201.07" font-family="Helvetica,sans-Serif" font-size="10.00">Z2SoundObjBase</text>
</a>
</g>
</g>
<!-- Node6&#45;&gt;Node5 -->
<g id="edge5" class="edge">
<title>Node6&#45;&gt;Node5</title>
<path fill="none" stroke="#63b8ff" d="M804.06,-190.81C837.59,-182.34 880.97,-171.39 911.98,-163.56"/>
<polygon fill="#63b8ff" stroke="#63b8ff" points="803.4,-187.36 794.56,-193.21 805.11,-194.15 803.4,-187.36"/>
</g>
<!-- Node20 -->
<g id="node20" class="node">
<title>Node20</title>
<g id="a_node20"><a xlink:href="classZ2SoundObjSimple.html" target="_top" xlink:title=" ">
<polygon fill="white" stroke="#666666" points="1003,-213.07 902,-213.07 902,-194.07 1003,-194.07 1003,-213.07"/>
<text text-anchor="middle" x="952.5" y="-201.07" font-family="Helvetica,sans-Serif" font-size="10.00">Z2SoundObjSimple</text>
</a>
</g>
</g>
<!-- Node6&#45;&gt;Node20 -->
<g id="edge24" class="edge">
<title>Node6&#45;&gt;Node20</title>
<path fill="none" stroke="#63b8ff" d="M810.94,-203.57C839.65,-203.57 874.07,-203.57 901.66,-203.57"/>
<polygon fill="#63b8ff" stroke="#63b8ff" points="810.94,-200.07 800.94,-203.57 810.94,-207.07 810.94,-200.07"/>
</g>
<!-- Node7 -->
<g id="node7" class="node">
<title>Node7</title>
<g id="a_node7"><a xlink:href="classZ2SoundHandles.html" target="_top" xlink:title=" ">
<polygon fill="white" stroke="#666666" points="491,-213.07 399,-213.07 399,-194.07 491,-194.07 491,-213.07"/>
<text text-anchor="middle" x="445" y="-201.07" font-family="Helvetica,sans-Serif" font-size="10.00">Z2SoundHandles</text>
</a>
</g>
</g>
<!-- Node7&#45;&gt;Node6 -->
<g id="edge6" class="edge">
<title>Node7&#45;&gt;Node6</title>
<path fill="none" stroke="darkgreen" d="M502.67,-203.57C561.19,-203.57 651.38,-203.57 705.59,-203.57"/>
<polygon fill="darkgreen" stroke="darkgreen" points="502.92,-200.07 492.92,-203.57 502.92,-207.07 502.92,-200.07"/>
</g>
<!-- Node8 -->
<g id="node8" class="node">
<title>Node8</title>
<g id="a_node8"><a xlink:href="classJSUList.html" target="_top" xlink:title=" ">
<polygon fill="white" stroke="#666666" points="293,-213.07 135,-213.07 135,-194.07 293,-194.07 293,-213.07"/>
<text text-anchor="middle" x="214" y="-201.07" font-family="Helvetica,sans-Serif" font-size="10.00">JSUList&lt; Z2SoundHandlePool &gt;</text>
</a>
</g>
</g>
<!-- Node8&#45;&gt;Node7 -->
<g id="edge7" class="edge">
<title>Node8&#45;&gt;Node7</title>
<path fill="none" stroke="darkgreen" d="M304.74,-203.57C336.92,-203.57 371.85,-203.57 398.67,-203.57"/>
<polygon fill="darkgreen" stroke="darkgreen" points="305,-200.07 295,-203.57 305,-207.07 305,-200.07"/>
</g>
<!-- Node9 -->
<g id="node9" class="node">
<title>Node9</title>
<g id="a_node9"><a xlink:href="structJSUPtrList.html" target="_top" xlink:title=" ">
<polygon fill="white" stroke="#666666" points="65,-246.07 0,-246.07 0,-227.07 65,-227.07 65,-246.07"/>
<text text-anchor="middle" x="32.5" y="-234.07" font-family="Helvetica,sans-Serif" font-size="10.00">JSUPtrList</text>
</a>
</g>
</g>
<!-- Node9&#45;&gt;Node8 -->
<g id="edge8" class="edge">
<title>Node9&#45;&gt;Node8</title>
<path fill="none" stroke="#63b8ff" d="M66.52,-222.55C71.96,-220.64 77.58,-218.88 83,-217.57 99.55,-213.58 117.56,-210.72 134.76,-208.68"/>
<polygon fill="#63b8ff" stroke="#63b8ff" points="65.31,-219.27 57.19,-226.08 67.79,-225.81 65.31,-219.27"/>
</g>
<!-- Node10 -->
<g id="node10" class="node">
<title>Node10</title>
<g id="a_node10"><a xlink:href="structJSUPtrLink.html" target="_top" xlink:title=" ">
<polygon fill="white" stroke="#666666" points="248,-291.07 180,-291.07 180,-272.07 248,-272.07 248,-291.07"/>
<text text-anchor="middle" x="214" y="-279.07" font-family="Helvetica,sans-Serif" font-size="10.00">JSUPtrLink</text>
</a>
</g>
</g>
<!-- Node9&#45;&gt;Node10 -->
<g id="edge10" class="edge">
<title>Node9&#45;&gt;Node10</title>
<path fill="none" stroke="#9a32cd" stroke-dasharray="5,2" d="M61.92,-251.36C68.7,-254.43 75.99,-257.4 83,-259.57 115.02,-269.53 152.97,-275.29 179.57,-278.41"/>
<polygon fill="#9a32cd" stroke="#9a32cd" points="63.73,-248.34 53.2,-247.18 60.71,-254.65 63.73,-248.34"/>
<text text-anchor="middle" x="100" y="-270.57" font-family="Helvetica,sans-Serif" font-size="10.00"> mList</text>
</g>
<!-- Node10&#45;&gt;Node9 -->
<g id="edge9" class="edge">
<title>Node10&#45;&gt;Node9</title>
<path fill="none" stroke="#9a32cd" stroke-dasharray="5,2" d="M187.26,-266.18C168.5,-255.88 142.09,-243.21 117,-237.57 100.17,-233.8 80.94,-233.31 65.18,-233.88"/>
<polygon fill="#9a32cd" stroke="#9a32cd" points="185.35,-269.12 195.77,-271 188.8,-263.03 185.35,-269.12"/>
<text text-anchor="middle" x="100" y="-251.57" font-family="Helvetica,sans-Serif" font-size="10.00"> mHead</text>
<text text-anchor="middle" x="100" y="-240.57" font-family="Helvetica,sans-Serif" font-size="10.00">mTail</text>
</g>
<!-- Node10&#45;&gt;Node10 -->
<g id="edge11" class="edge">
<title>Node10&#45;&gt;Node10</title>
<path fill="none" stroke="#9a32cd" stroke-dasharray="5,2" d="M193.77,-302.51C196.3,-306.36 203.04,-309.07 214,-309.07 234.04,-309.07 239.99,-300.01 231.85,-291.44"/>
<polygon fill="#9a32cd" stroke="#9a32cd" points="197.15,-303.44 195.83,-292.92 190.3,-301.96 197.15,-303.44"/>
<text text-anchor="middle" x="214" y="-323.07" font-family="Helvetica,sans-Serif" font-size="10.00"> mNext</text>
<text text-anchor="middle" x="214" y="-312.07" font-family="Helvetica,sans-Serif" font-size="10.00">mPrev</text>
</g>
<!-- Node21 -->
<g id="node21" class="node">
<title>Node21</title>
<g id="a_node21"><a xlink:href="classJSULink.html" target="_top" xlink:title=" ">
<polygon fill="white" stroke="#666666" points="681,-291.07 532,-291.07 532,-272.07 681,-272.07 681,-291.07"/>
<text text-anchor="middle" x="606.5" y="-279.07" font-family="Helvetica,sans-Serif" font-size="10.00">JSULink&lt; Z2CreatureEnemy &gt;</text>
</a>
</g>
</g>
<!-- Node10&#45;&gt;Node21 -->
<g id="edge26" class="edge">
<title>Node10&#45;&gt;Node21</title>
<path fill="none" stroke="#63b8ff" d="M259.59,-281.57C325.97,-281.57 451.56,-281.57 531.75,-281.57"/>
<polygon fill="#63b8ff" stroke="#63b8ff" points="259.81,-278.07 249.81,-281.57 259.81,-285.07 259.81,-278.07"/>
</g>
<!-- Node11 -->
<g id="node11" class="node">
<title>Node11</title>
<g id="a_node11"><a xlink:href="structZ2SoundStarter.html" target="_top" xlink:title=" ">
<polygon fill="white" stroke="#666666" points="487.5,-28.07 402.5,-28.07 402.5,-9.07 487.5,-9.07 487.5,-28.07"/>
<text text-anchor="middle" x="445" y="-16.07" font-family="Helvetica,sans-Serif" font-size="10.00">Z2SoundStarter</text>
</a>
</g>
</g>
<!-- Node11&#45;&gt;Node6 -->
<g id="edge12" class="edge">
<title>Node11&#45;&gt;Node6</title>
<path fill="none" stroke="#9a32cd" stroke-dasharray="5,2" d="M498.6,-26.87C504.34,-29.54 509.67,-33.03 514,-37.57 538.84,-63.65 505.81,-91.86 532,-116.57 580.83,-162.66 625.23,-104.17 681,-141.57 693.6,-150.02 688.3,-159.82 699,-170.57 708.34,-179.96 720.82,-187.95 731.27,-193.71"/>
<polygon fill="#9a32cd" stroke="#9a32cd" points="499.94,-23.63 489.35,-23.42 497.5,-30.19 499.94,-23.63"/>
<text text-anchor="middle" x="606.5" y="-144.57" font-family="Helvetica,sans-Serif" font-size="10.00"> mSoundStarter</text>
</g>
<!-- Node14 -->
<g id="node14" class="node">
<title>Node14</title>
<g id="a_node14"><a xlink:href="classJASGlobalInstance.html" target="_top" xlink:title=" ">
<polygon fill="white" stroke="#666666" points="806,-33.57 699,-33.57 699,-3.57 806,-3.57 806,-33.57"/>
<text text-anchor="start" x="707" y="-21.57" font-family="Helvetica,sans-Serif" font-size="10.00">JASGlobalInstance&lt;</text>
<text text-anchor="middle" x="752.5" y="-10.57" font-family="Helvetica,sans-Serif" font-size="10.00"> Z2SoundStarter &gt;</text>
</a>
</g>
</g>
<!-- Node11&#45;&gt;Node14 -->
<g id="edge17" class="edge">
<title>Node11&#45;&gt;Node14</title>
<path fill="none" stroke="#9a32cd" stroke-dasharray="5,2" d="M498.94,-8.58C509.83,-6.91 521.26,-5.44 532,-4.57 598.01,0.76 615.1,1.91 681,-4.57 686.71,-5.14 692.65,-5.95 698.54,-6.9"/>
<polygon fill="#9a32cd" stroke="#9a32cd" points="498.63,-5.09 489.32,-10.13 499.75,-12 498.63,-5.09"/>
<text text-anchor="middle" x="606.5" y="-7.57" font-family="Helvetica,sans-Serif" font-size="10.00"> sInstance</text>
</g>
<!-- Node12 -->
<g id="node12" class="node">
<title>Node12</title>
<g id="a_node12"><a xlink:href="structJAISoundStarter.html" target="_top" xlink:title=" ">
<polygon fill="white" stroke="#666666" points="258.5,-61.07 169.5,-61.07 169.5,-42.07 258.5,-42.07 258.5,-61.07"/>
<text text-anchor="middle" x="214" y="-49.07" font-family="Helvetica,sans-Serif" font-size="10.00">JAISoundStarter</text>
</a>
</g>
</g>
<!-- Node12&#45;&gt;Node11 -->
<g id="edge13" class="edge">
<title>Node12&#45;&gt;Node11</title>
<path fill="none" stroke="#63b8ff" d="M270.21,-43.62C310.82,-37.77 365.16,-29.94 402.2,-24.6"/>
<polygon fill="#63b8ff" stroke="#63b8ff" points="269.78,-40.14 260.38,-45.04 270.78,-47.07 269.78,-40.14"/>
</g>
<!-- Node13 -->
<g id="node13" class="node">
<title>Node13</title>
<g id="a_node13"><a xlink:href="classJASGlobalInstance.html" target="_top" xlink:title=" ">
<polygon fill="white" stroke="#666666" points="498.5,-76.57 391.5,-76.57 391.5,-46.57 498.5,-46.57 498.5,-76.57"/>
<text text-anchor="start" x="399.5" y="-64.57" font-family="Helvetica,sans-Serif" font-size="10.00">JASGlobalInstance&lt;</text>
<text text-anchor="middle" x="445" y="-53.57" font-family="Helvetica,sans-Serif" font-size="10.00"> JAISoundStarter &gt;</text>
</a>
</g>
</g>
<!-- Node12&#45;&gt;Node13 -->
<g id="edge15" class="edge">
<title>Node12&#45;&gt;Node13</title>
<path fill="none" stroke="#9a32cd" stroke-dasharray="5,2" d="M270.24,-49.37C296.8,-48.78 329.08,-48.73 358,-50.57 368.82,-51.26 380.35,-52.43 391.34,-53.76"/>
<polygon fill="#9a32cd" stroke="#9a32cd" points="270.27,-45.87 260.37,-49.63 270.46,-52.87 270.27,-45.87"/>
<text text-anchor="middle" x="334.5" y="-53.57" font-family="Helvetica,sans-Serif" font-size="10.00"> sInstance</text>
</g>
<!-- Node13&#45;&gt;Node12 -->
<g id="edge14" class="edge">
<title>Node13&#45;&gt;Node12</title>
<path fill="none" stroke="#63b8ff" d="M379.78,-63.23C372.44,-63.37 365.06,-63.49 358,-63.57 337.11,-63.82 331.85,-64.87 311,-63.57 293.9,-62.51 275.19,-60.39 258.86,-58.22"/>
<polygon fill="#63b8ff" stroke="#63b8ff" points="379.81,-66.73 389.73,-63.03 379.66,-59.73 379.81,-66.73"/>
</g>
<!-- Node14&#45;&gt;Node11 -->
<g id="edge16" class="edge">
<title>Node14&#45;&gt;Node11</title>
<path fill="none" stroke="#63b8ff" d="M687.41,-18.57C627.35,-18.57 539.34,-18.57 487.84,-18.57"/>
<polygon fill="#63b8ff" stroke="#63b8ff" points="687.14,-22.07 697.14,-18.57 687.14,-15.07 687.14,-22.07"/>
</g>
<!-- Node15 -->
<g id="node15" class="node">
<title>Node15</title>
<g id="a_node15"><a xlink:href="structJGeometry_1_1TVec3_3_01f32_01_4.html" target="_top" xlink:title=" ">
<polygon fill="white" stroke="#666666" points="508.5,-250.07 381.5,-250.07 381.5,-231.07 508.5,-231.07 508.5,-250.07"/>
<text text-anchor="middle" x="445" y="-238.07" font-family="Helvetica,sans-Serif" font-size="10.00">JGeometry::TVec3&lt; f32 &gt;</text>
</a>
</g>
</g>
<!-- Node15&#45;&gt;Node6 -->
<g id="edge18" class="edge">
<title>Node15&#45;&gt;Node6</title>
<path fill="none" stroke="#9a32cd" stroke-dasharray="5,2" d="M520.01,-235.21C566.4,-231.38 627.35,-225.51 681,-217.57 689.02,-216.39 697.52,-214.9 705.73,-213.34"/>
<polygon fill="#9a32cd" stroke="#9a32cd" points="519.74,-231.72 510.06,-236.02 520.31,-238.7 519.74,-231.72"/>
<text text-anchor="middle" x="606.5" y="-236.57" font-family="Helvetica,sans-Serif" font-size="10.00"> mSoundPos</text>
</g>
<!-- Node16 -->
<g id="node16" class="node">
<title>Node16</title>
<g id="a_node16"><a xlink:href="classJAUSoundAnimation.html" target="_top" xlink:title=" ">
<polygon fill="white" stroke="#666666" points="806,-162.07 699,-162.07 699,-143.07 806,-143.07 806,-162.07"/>
<text text-anchor="middle" x="752.5" y="-150.07" font-family="Helvetica,sans-Serif" font-size="10.00">JAUSoundAnimation</text>
</a>
</g>
</g>
<!-- Node16&#45;&gt;Node5 -->
<g id="edge19" class="edge">
<title>Node16&#45;&gt;Node5</title>
<path fill="none" stroke="#9a32cd" stroke-dasharray="5,2" d="M817.54,-152.9C845.39,-153.04 877.47,-153.2 903.26,-153.33"/>
<polygon fill="#9a32cd" stroke="#9a32cd" points="817.83,-149.4 807.81,-152.85 817.8,-156.4 817.83,-149.4"/>
<text text-anchor="middle" x="854" y="-156.57" font-family="Helvetica,sans-Serif" font-size="10.00"> mpAnimation</text>
</g>
<!-- Node17 -->
<g id="node17" class="node">
<title>Node17</title>
<g id="a_node17"><a xlink:href="classJAUSoundAnimationControl.html" target="_top" xlink:title=" ">
<polygon fill="white" stroke="#666666" points="514,-114.07 376,-114.07 376,-95.07 514,-95.07 514,-114.07"/>
<text text-anchor="middle" x="445" y="-102.07" font-family="Helvetica,sans-Serif" font-size="10.00">JAUSoundAnimationControl</text>
</a>
</g>
</g>
<!-- Node17&#45;&gt;Node16 -->
<g id="edge20" class="edge">
<title>Node17&#45;&gt;Node16</title>
<path fill="none" stroke="#9a32cd" stroke-dasharray="5,2" d="M525.59,-93.68C571.92,-90.08 630.89,-90.29 681,-105.57 704.92,-112.87 728.16,-131.2 741.07,-142.7"/>
<polygon fill="#9a32cd" stroke="#9a32cd" points="525.57,-90.17 515.91,-94.51 526.17,-97.14 525.57,-90.17"/>
<text text-anchor="middle" x="606.5" y="-108.57" font-family="Helvetica,sans-Serif" font-size="10.00"> mControl</text>
</g>
<!-- Node18 -->
<g id="node18" class="node">
<title>Node18</title>
<g id="a_node18"><a xlink:href="classJAUSoundAnimationSound.html" target="_top" xlink:title=" ">
<polygon fill="white" stroke="#666666" points="512.5,-176.07 377.5,-176.07 377.5,-157.07 512.5,-157.07 512.5,-176.07"/>
<text text-anchor="middle" x="445" y="-164.07" font-family="Helvetica,sans-Serif" font-size="10.00">JAUSoundAnimationSound</text>
</a>
</g>
</g>
<!-- Node18&#45;&gt;Node16 -->
<g id="edge21" class="edge">
<title>Node18&#45;&gt;Node16</title>
<path fill="none" stroke="#9a32cd" stroke-dasharray="5,2" d="M524.07,-163C578.82,-160.49 650.53,-157.2 698.66,-155"/>
<polygon fill="#9a32cd" stroke="#9a32cd" points="524.01,-159.5 514.18,-163.45 524.33,-166.49 524.01,-159.5"/>
<text text-anchor="middle" x="606.5" y="-165.57" font-family="Helvetica,sans-Serif" font-size="10.00"> mSounds</text>
</g>
<!-- Node19 -->
<g id="node19" class="node">
<title>Node19</title>
<g id="a_node19"><a xlink:href="structJAISoundID.html" target="_top" xlink:title=" ">
<polygon fill="white" stroke="#666666" points="248.5,-176.07 179.5,-176.07 179.5,-157.07 248.5,-157.07 248.5,-176.07"/>
<text text-anchor="middle" x="214" y="-164.07" font-family="Helvetica,sans-Serif" font-size="10.00">JAISoundID</text>
</a>
</g>
</g>
<!-- Node19&#45;&gt;Node18 -->
<g id="edge22" class="edge">
<title>Node19&#45;&gt;Node18</title>
<path fill="none" stroke="#9a32cd" stroke-dasharray="5,2" d="M260.06,-166.57C293.51,-166.57 339.67,-166.57 377.37,-166.57"/>
<polygon fill="#9a32cd" stroke="#9a32cd" points="260.3,-163.07 250.3,-166.57 260.3,-170.07 260.3,-163.07"/>
<text text-anchor="middle" x="334.5" y="-169.57" font-family="Helvetica,sans-Serif" font-size="10.00"> mSoundId</text>
</g>
<!-- Node20&#45;&gt;Node1 -->
<g id="edge27" class="edge">
<title>Node20&#45;&gt;Node1</title>
<path fill="none" stroke="#9a32cd" stroke-dasharray="5,2" d="M1014.71,-208.31C1016.83,-208.41 1018.93,-208.5 1021,-208.57 1186.22,-214.69 1227.84,-216.13 1393,-208.57 1398.69,-208.31 1404.71,-207.9 1410.59,-207.42"/>
<polygon fill="#9a32cd" stroke="#9a32cd" points="1014.93,-204.82 1004.75,-207.76 1014.55,-211.8 1014.93,-204.82"/>
<text text-anchor="middle" x="1236.5" y="-250.57" font-family="Helvetica,sans-Serif" font-size="10.00"> field_0x104</text>
<text text-anchor="middle" x="1236.5" y="-239.57" font-family="Helvetica,sans-Serif" font-size="10.00">field_0xa4</text>
<text text-anchor="middle" x="1236.5" y="-228.57" font-family="Helvetica,sans-Serif" font-size="10.00">field_0xc4</text>
<text text-anchor="middle" x="1236.5" y="-217.57" font-family="Helvetica,sans-Serif" font-size="10.00">field_0xe4</text>
</g>
<!-- Node20&#45;&gt;Node3 -->
<g id="edge23" class="edge">
<title>Node20&#45;&gt;Node3</title>
<path fill="none" stroke="#9a32cd" stroke-dasharray="5,2" d="M1002.6,-190.88C1008.78,-189.38 1015.03,-187.91 1021,-186.57 1057.46,-178.44 1099.63,-170.41 1127.77,-165.25"/>
<polygon fill="#9a32cd" stroke="#9a32cd" points="1001.95,-187.43 993.08,-193.23 1003.63,-194.23 1001.95,-187.43"/>
<text text-anchor="middle" x="1065.5" y="-200.57" font-family="Helvetica,sans-Serif" font-size="10.00"> mSoundObjSimple1</text>
<text text-anchor="middle" x="1065.5" y="-189.57" font-family="Helvetica,sans-Serif" font-size="10.00">mSoundObjSimple2</text>
</g>
<!-- Node21&#45;&gt;Node2 -->
<g id="edge25" class="edge">
<title>Node21&#45;&gt;Node2</title>
<path fill="none" stroke="#9a32cd" stroke-dasharray="5,2" d="M692.77,-281.57C739.99,-281.57 799.75,-281.57 853,-281.57 853,-281.57 853,-281.57 1161.5,-281.57 1206.96,-281.57 1222.9,-285.76 1262,-262.57 1290.48,-245.69 1311.79,-211.22 1320.99,-194.34"/>
<polygon fill="#9a32cd" stroke="#9a32cd" points="692.87,-278.07 682.87,-281.57 692.87,-285.07 692.87,-278.07"/>
<text text-anchor="middle" x="952.5" y="-284.57" font-family="Helvetica,sans-Serif" font-size="10.00"> mLink</text>
</g>
</g>
</svg>
