<?xml version="1.0" encoding="UTF-8" standalone="no"?>
<!DOCTYPE svg PUBLIC "-//W3C//DTD SVG 1.1//EN"
 "http://www.w3.org/Graphics/SVG/1.1/DTD/svg11.dtd">
<!-- Generated by graphviz version 7.0.5 (20221223.1930)
 -->
<!-- Title: J3DDrawBuffer Pages: 1 -->
<svg width="165pt" height="107pt"
 viewBox="0.00 0.00 164.50 107.00" xmlns="http://www.w3.org/2000/svg" xmlns:xlink="http://www.w3.org/1999/xlink">
<g id="graph0" class="graph" transform="scale(1 1) rotate(0) translate(4 103)">
<title>J3DDrawBuffer</title>
<!-- Node1 -->
<g id="node1" class="node">
<title>Node1</title>
<g id="a_node1"><a xlink:title=" ">
<polygon fill="#999999" stroke="#666666" points="82,-19 0,-19 0,0 82,0 82,-19"/>
<text text-anchor="middle" x="41" y="-7" font-family="Helvetica,sans-Serif" font-size="10.00">J3DDrawBuffer</text>
</a>
</g>
</g>
<!-- Node2 -->
<g id="node2" class="node">
<title>Node2</title>
<g id="a_node2"><a xlink:href="classJ3DPacket.html" target="_top" xlink:title=" ">
<polygon fill="white" stroke="#666666" points="73.5,-97.5 8.5,-97.5 8.5,-78.5 73.5,-78.5 73.5,-97.5"/>
<text text-anchor="middle" x="41" y="-85.5" font-family="Helvetica,sans-Serif" font-size="10.00">J3DPacket</text>
</a>
</g>
</g>
<!-- Node2&#45;&gt;Node1 -->
<g id="edge1" class="edge">
<title>Node2&#45;&gt;Node1</title>
<path fill="none" stroke="#9a32cd" stroke-dasharray="5,2" d="M41,-66.72C41,-51.23 41,-30.65 41,-19.17"/>
<polygon fill="#9a32cd" stroke="#9a32cd" points="37.5,-66.71 41,-76.71 44.5,-66.71 37.5,-66.71"/>
<text text-anchor="middle" x="83" y="-51" font-family="Helvetica,sans-Serif" font-size="10.00"> mpBuf</text>
<text text-anchor="middle" x="83" y="-40" font-family="Helvetica,sans-Serif" font-size="10.00">mpCallBackPacket</text>
</g>
<!-- Node2&#45;&gt;Node2 -->
<g id="edge2" class="edge">
<title>Node2&#45;&gt;Node2</title>
<path fill="none" stroke="#9a32cd" stroke-dasharray="5,2" d="M84.69,-94.05C88.86,-92.82 91.5,-90.8 91.5,-88 91.5,-83.16 83.6,-80.66 73.54,-80.51"/>
<polygon fill="#9a32cd" stroke="#9a32cd" points="84.51,-90.54 75.04,-95.3 85.41,-97.48 84.51,-90.54"/>
<text text-anchor="middle" x="124" y="-91" font-family="Helvetica,sans-Serif" font-size="10.00"> mpFirstChild</text>
<text text-anchor="middle" x="124" y="-80" font-family="Helvetica,sans-Serif" font-size="10.00">mpNextPacket</text>
</g>
</g>
</svg>
