<?xml version="1.0" encoding="UTF-8" standalone="no"?>
<!DOCTYPE svg PUBLIC "-//W3C//DTD SVG 1.1//EN"
 "http://www.w3.org/Graphics/SVG/1.1/DTD/svg11.dtd">
<!-- Generated by graphviz version 7.0.5 (20221223.1930)
 -->
<!-- Title: JASChannel Pages: 1 -->
<svg width="726pt" height="540pt"
 viewBox="0.00 0.00 726.00 539.82" xmlns="http://www.w3.org/2000/svg" xmlns:xlink="http://www.w3.org/1999/xlink">
<g id="graph0" class="graph" transform="scale(1 1) rotate(0) translate(4 535.82)">
<title>JASChannel</title>
<!-- Node1 -->
<g id="node1" class="node">
<title>Node1</title>
<g id="a_node1"><a xlink:title=" ">
<polygon fill="#999999" stroke="#666666" points="567.5,-371.32 496.5,-371.32 496.5,-352.32 567.5,-352.32 567.5,-371.32"/>
<text text-anchor="middle" x="532" y="-359.32" font-family="Helvetica,sans-Serif" font-size="10.00">JASChannel</text>
</a>
</g>
</g>
<!-- Node2 -->
<g id="node2" class="node">
<title>Node2</title>
<g id="a_node2"><a xlink:href="classJASPoolAllocObject__MultiThreaded.html" target="_top" xlink:title=" ">
<polygon fill="white" stroke="#666666" points="364,-278.82 210,-278.82 210,-248.82 364,-248.82 364,-278.82"/>
<text text-anchor="start" x="218" y="-266.82" font-family="Helvetica,sans-Serif" font-size="10.00">JASPoolAllocObject</text>
<text text-anchor="middle" x="287" y="-255.82" font-family="Helvetica,sans-Serif" font-size="10.00">_MultiThreaded&lt; JASChannel &gt;</text>
</a>
</g>
</g>
<!-- Node2&#45;&gt;Node1 -->
<g id="edge1" class="edge">
<title>Node2&#45;&gt;Node1</title>
<path fill="none" stroke="#63b8ff" d="M375.59,-272.66C407.96,-278.56 444.04,-288.41 474,-304.82 495.6,-316.65 514.44,-339.16 524.11,-352.07"/>
<polygon fill="#63b8ff" stroke="#63b8ff" points="376.25,-269.22 365.8,-270.99 375.07,-276.12 376.25,-269.22"/>
</g>
<!-- Node3 -->
<g id="node3" class="node">
<title>Node3</title>
<g id="a_node3"><a xlink:href="structJASDSPChannel.html" target="_top" xlink:title=" ">
<polygon fill="white" stroke="#666666" points="332.5,-230.32 241.5,-230.32 241.5,-211.32 332.5,-211.32 332.5,-230.32"/>
<text text-anchor="middle" x="287" y="-218.32" font-family="Helvetica,sans-Serif" font-size="10.00">JASDSPChannel</text>
</a>
</g>
</g>
<!-- Node3&#45;&gt;Node1 -->
<g id="edge2" class="edge">
<title>Node3&#45;&gt;Node1</title>
<path fill="none" stroke="#9a32cd" stroke-dasharray="5,2" d="M344.14,-220.28C383.87,-222.57 436.52,-231.3 474,-258.82 506.62,-282.77 522.88,-331.29 528.57,-352.04"/>
<polygon fill="#9a32cd" stroke="#9a32cd" points="344.44,-216.79 334.3,-219.84 344.13,-223.78 344.44,-216.79"/>
<text text-anchor="middle" x="428" y="-261.82" font-family="Helvetica,sans-Serif" font-size="10.00"> mDspCh</text>
</g>
<!-- Node4 -->
<g id="node4" class="node">
<title>Node4</title>
<g id="a_node4"><a xlink:href="structJASOscillator.html" target="_top" xlink:title=" ">
<polygon fill="white" stroke="#666666" points="325.5,-530.32 248.5,-530.32 248.5,-511.32 325.5,-511.32 325.5,-530.32"/>
<text text-anchor="middle" x="287" y="-518.32" font-family="Helvetica,sans-Serif" font-size="10.00">JASOscillator</text>
</a>
</g>
</g>
<!-- Node4&#45;&gt;Node1 -->
<g id="edge3" class="edge">
<title>Node4&#45;&gt;Node1</title>
<path fill="none" stroke="#9a32cd" stroke-dasharray="5,2" d="M337.21,-519.76C377.89,-516.49 435.08,-506.07 474,-474.82 508.27,-447.31 523.78,-393.81 528.93,-371.73"/>
<polygon fill="#9a32cd" stroke="#9a32cd" points="337.2,-516.25 327.46,-520.42 337.67,-523.24 337.2,-516.25"/>
<text text-anchor="middle" x="428" y="-515.82" font-family="Helvetica,sans-Serif" font-size="10.00"> field_0x1c</text>
</g>
<!-- Node5 -->
<g id="node5" class="node">
<title>Node5</title>
<g id="a_node5"><a xlink:href="structJASOscillator_1_1Data.html" target="_top" xlink:title=" ">
<polygon fill="white" stroke="#666666" points="101,-530.32 0,-530.32 0,-511.32 101,-511.32 101,-530.32"/>
<text text-anchor="middle" x="50.5" y="-518.32" font-family="Helvetica,sans-Serif" font-size="10.00">JASOscillator::Data</text>
</a>
</g>
</g>
<!-- Node5&#45;&gt;Node4 -->
<g id="edge4" class="edge">
<title>Node5&#45;&gt;Node4</title>
<path fill="none" stroke="#9a32cd" stroke-dasharray="5,2" d="M112.69,-520.82C155.64,-520.82 211.72,-520.82 248.28,-520.82"/>
<polygon fill="#9a32cd" stroke="#9a32cd" points="112.74,-517.32 102.74,-520.82 112.74,-524.32 112.74,-517.32"/>
<text text-anchor="middle" x="155.5" y="-523.82" font-family="Helvetica,sans-Serif" font-size="10.00"> mData</text>
</g>
<!-- Node6 -->
<g id="node6" class="node">
<title>Node6</title>
<g id="a_node6"><a xlink:href="structJASLfo.html" target="_top" xlink:title=" ">
<polygon fill="white" stroke="#666666" points="312,-464.32 262,-464.32 262,-445.32 312,-445.32 312,-464.32"/>
<text text-anchor="middle" x="287" y="-452.32" font-family="Helvetica,sans-Serif" font-size="10.00">JASLfo</text>
</a>
</g>
</g>
<!-- Node6&#45;&gt;Node1 -->
<g id="edge5" class="edge">
<title>Node6&#45;&gt;Node1</title>
<path fill="none" stroke="#9a32cd" stroke-dasharray="5,2" d="M323.78,-454.99C362.9,-453.74 426.36,-447.44 474,-421.82 496.53,-409.71 515.28,-385.43 524.62,-371.76"/>
<polygon fill="#9a32cd" stroke="#9a32cd" points="323.9,-451.48 313.97,-455.2 324.05,-458.48 323.9,-451.48"/>
<text text-anchor="middle" x="428" y="-462.82" font-family="Helvetica,sans-Serif" font-size="10.00"> mTremolo</text>
<text text-anchor="middle" x="428" y="-451.82" font-family="Helvetica,sans-Serif" font-size="10.00">mVibrate</text>
</g>
<!-- Node6&#45;&gt;Node6 -->
<g id="edge6" class="edge">
<title>Node6&#45;&gt;Node6</title>
<path fill="none" stroke="#9a32cd" stroke-dasharray="5,2" d="M263.66,-475.75C266.58,-479.61 274.36,-482.32 287,-482.32 310.12,-482.32 316.98,-473.26 307.59,-464.69"/>
<polygon fill="#9a32cd" stroke="#9a32cd" points="267.03,-476.71 266.05,-466.16 260.24,-475.02 267.03,-476.71"/>
<text text-anchor="middle" x="287" y="-485.32" font-family="Helvetica,sans-Serif" font-size="10.00"> sFreeRunLfo</text>
</g>
<!-- Node7 -->
<g id="node7" class="node">
<title>Node7</title>
<g id="a_node7"><a xlink:href="classJASChannelParams.html" target="_top" xlink:title=" ">
<polygon fill="white" stroke="#666666" points="339,-427.32 235,-427.32 235,-408.32 339,-408.32 339,-427.32"/>
<text text-anchor="middle" x="287" y="-415.32" font-family="Helvetica,sans-Serif" font-size="10.00">JASChannelParams</text>
</a>
</g>
</g>
<!-- Node7&#45;&gt;Node1 -->
<g id="edge7" class="edge">
<title>Node7&#45;&gt;Node1</title>
<path fill="none" stroke="#9a32cd" stroke-dasharray="5,2" d="M350.36,-411.99C386.93,-407.53 433.71,-400.02 474,-387.82 487.33,-383.79 501.58,-377.29 512.49,-371.8"/>
<polygon fill="#9a32cd" stroke="#9a32cd" points="350.39,-408.46 340.86,-413.1 351.2,-415.42 350.39,-408.46"/>
<text text-anchor="middle" x="428" y="-409.82" font-family="Helvetica,sans-Serif" font-size="10.00"> mParams</text>
</g>
<!-- Node8 -->
<g id="node8" class="node">
<title>Node8</title>
<g id="a_node8"><a xlink:href="structJASSoundParams.html" target="_top" xlink:title=" ">
<polygon fill="white" stroke="#666666" points="335.5,-390.32 238.5,-390.32 238.5,-371.32 335.5,-371.32 335.5,-390.32"/>
<text text-anchor="middle" x="287" y="-378.32" font-family="Helvetica,sans-Serif" font-size="10.00">JASSoundParams</text>
</a>
</g>
</g>
<!-- Node8&#45;&gt;Node1 -->
<g id="edge8" class="edge">
<title>Node8&#45;&gt;Node1</title>
<path fill="none" stroke="#9a32cd" stroke-dasharray="5,2" d="M346.92,-376.21C393.68,-372.56 457.45,-367.57 496.34,-364.53"/>
<polygon fill="#9a32cd" stroke="#9a32cd" points="346.92,-372.7 337.23,-376.97 347.47,-379.68 346.92,-372.7"/>
<text text-anchor="middle" x="428" y="-375.82" font-family="Helvetica,sans-Serif" font-size="10.00"> field_0xb4</text>
</g>
<!-- Node9 -->
<g id="node9" class="node">
<title>Node9</title>
<g id="a_node9"><a xlink:href="structJASWaveInfo.html" target="_top" xlink:title=" ">
<polygon fill="white" stroke="#666666" points="325.5,-353.32 248.5,-353.32 248.5,-334.32 325.5,-334.32 325.5,-353.32"/>
<text text-anchor="middle" x="287" y="-341.32" font-family="Helvetica,sans-Serif" font-size="10.00">JASWaveInfo</text>
</a>
</g>
</g>
<!-- Node9&#45;&gt;Node1 -->
<g id="edge9" class="edge">
<title>Node9&#45;&gt;Node1</title>
<path fill="none" stroke="#9a32cd" stroke-dasharray="5,2" d="M337.1,-341.96C374.73,-341.23 427.86,-341.73 474,-347.82 481.27,-348.78 488.96,-350.31 496.26,-352.01"/>
<polygon fill="#9a32cd" stroke="#9a32cd" points="337.38,-338.45 327.46,-342.18 337.54,-345.45 337.38,-338.45"/>
<text text-anchor="middle" x="428" y="-350.82" font-family="Helvetica,sans-Serif" font-size="10.00"> field_0x4</text>
</g>
<!-- Node10 -->
<g id="node10" class="node">
<title>Node10</title>
<g id="a_node10"><a xlink:href="structOSMessageQueue.html" target="_top" xlink:title=" ">
<polygon fill="white" stroke="#666666" points="336.5,-316.32 237.5,-316.32 237.5,-297.32 336.5,-297.32 336.5,-316.32"/>
<text text-anchor="middle" x="287" y="-304.32" font-family="Helvetica,sans-Serif" font-size="10.00">OSMessageQueue</text>
</a>
</g>
</g>
<!-- Node10&#45;&gt;Node1 -->
<g id="edge10" class="edge">
<title>Node10&#45;&gt;Node1</title>
<path fill="none" stroke="#9a32cd" stroke-dasharray="5,2" d="M347.82,-306.59C385.02,-308.07 433.33,-312.94 474,-326.82 490.7,-332.52 507.67,-343.79 518.69,-352.01"/>
<polygon fill="#9a32cd" stroke="#9a32cd" points="348.27,-303.11 338.17,-306.29 348.05,-310.1 348.27,-303.11"/>
<text text-anchor="middle" x="428" y="-329.82" font-family="Helvetica,sans-Serif" font-size="10.00"> sBankDisposeMsgQ</text>
</g>
<!-- Node11 -->
<g id="node11" class="node">
<title>Node11</title>
<g id="a_node11"><a xlink:href="structOSThreadQueue.html" target="_top" xlink:title=" ">
<polygon fill="white" stroke="#666666" points="95,-172.32 6,-172.32 6,-153.32 95,-153.32 95,-172.32"/>
<text text-anchor="middle" x="50.5" y="-160.32" font-family="Helvetica,sans-Serif" font-size="10.00">OSThreadQueue</text>
</a>
</g>
</g>
<!-- Node11&#45;&gt;Node10 -->
<g id="edge11" class="edge">
<title>Node11&#45;&gt;Node10</title>
<path fill="none" stroke="#9a32cd" stroke-dasharray="5,2" d="M68.69,-180.54C96.07,-207.73 152.38,-259.53 210,-287.82 218.42,-291.96 227.83,-295.24 237.07,-297.84"/>
<polygon fill="#9a32cd" stroke="#9a32cd" points="71.45,-178.35 61.92,-173.72 66.48,-183.28 71.45,-178.35"/>
<text text-anchor="middle" x="155.5" y="-290.82" font-family="Helvetica,sans-Serif" font-size="10.00"> receiving_queue</text>
<text text-anchor="middle" x="155.5" y="-279.82" font-family="Helvetica,sans-Serif" font-size="10.00">sending_queue</text>
</g>
<!-- Node12 -->
<g id="node12" class="node">
<title>Node12</title>
<g id="a_node12"><a xlink:href="structOSThread.html" target="_top" xlink:title=" ">
<polygon fill="white" stroke="#666666" points="317.5,-103.32 256.5,-103.32 256.5,-84.32 317.5,-84.32 317.5,-103.32"/>
<text text-anchor="middle" x="287" y="-91.32" font-family="Helvetica,sans-Serif" font-size="10.00">OSThread</text>
</a>
</g>
</g>
<!-- Node11&#45;&gt;Node12 -->
<g id="edge14" class="edge">
<title>Node11&#45;&gt;Node12</title>
<path fill="none" stroke="#9a32cd" stroke-dasharray="5,2" d="M64.4,-143.87C76.43,-128 95.96,-106.46 119,-96.82 163.94,-78.03 221.82,-82.61 256.3,-87.98"/>
<polygon fill="#9a32cd" stroke="#9a32cd" points="61.81,-141.47 58.8,-151.63 67.49,-145.57 61.81,-141.47"/>
<text text-anchor="middle" x="155.5" y="-110.82" font-family="Helvetica,sans-Serif" font-size="10.00"> join_queue</text>
<text text-anchor="middle" x="155.5" y="-99.82" font-family="Helvetica,sans-Serif" font-size="10.00">queue</text>
</g>
<!-- Node15 -->
<g id="node15" class="node">
<title>Node15</title>
<g id="a_node15"><a xlink:href="structOSMutex.html" target="_top" xlink:title=" ">
<polygon fill="white" stroke="#666666" points="560.5,-170.32 503.5,-170.32 503.5,-151.32 560.5,-151.32 560.5,-170.32"/>
<text text-anchor="middle" x="532" y="-158.32" font-family="Helvetica,sans-Serif" font-size="10.00">OSMutex</text>
</a>
</g>
</g>
<!-- Node11&#45;&gt;Node15 -->
<g id="edge18" class="edge">
<title>Node11&#45;&gt;Node15</title>
<path fill="none" stroke="#9a32cd" stroke-dasharray="5,2" d="M106.54,-167.24C110.76,-167.47 114.95,-167.67 119,-167.82 276.67,-173.65 316.52,-177.45 474,-167.82 483.55,-167.24 493.96,-166.11 503.23,-164.92"/>
<polygon fill="#9a32cd" stroke="#9a32cd" points="107.12,-163.76 96.92,-166.64 106.68,-170.75 107.12,-163.76"/>
<text text-anchor="middle" x="287" y="-175.82" font-family="Helvetica,sans-Serif" font-size="10.00"> queue</text>
</g>
<!-- Node12&#45;&gt;Node11 -->
<g id="edge12" class="edge">
<title>Node12&#45;&gt;Node11</title>
<path fill="none" stroke="#9a32cd" stroke-dasharray="5,2" d="M245.46,-106.54C228.91,-111.68 209.56,-117.61 192,-122.82 156.5,-133.35 115.79,-144.88 87.37,-152.84"/>
<polygon fill="#9a32cd" stroke="#9a32cd" points="246.46,-109.89 254.97,-103.58 244.38,-103.21 246.46,-109.89"/>
<text text-anchor="middle" x="155.5" y="-158.82" font-family="Helvetica,sans-Serif" font-size="10.00"> head</text>
<text text-anchor="middle" x="155.5" y="-147.82" font-family="Helvetica,sans-Serif" font-size="10.00">tail</text>
</g>
<!-- Node14 -->
<g id="node14" class="node">
<title>Node14</title>
<g id="a_node14"><a xlink:href="structOSThreadLink.html" target="_top" xlink:title=" ">
<polygon fill="white" stroke="#666666" points="572,-34.32 492,-34.32 492,-15.32 572,-15.32 572,-34.32"/>
<text text-anchor="middle" x="532" y="-22.32" font-family="Helvetica,sans-Serif" font-size="10.00">OSThreadLink</text>
</a>
</g>
</g>
<!-- Node12&#45;&gt;Node14 -->
<g id="edge16" class="edge">
<title>Node12&#45;&gt;Node14</title>
<path fill="none" stroke="#9a32cd" stroke-dasharray="5,2" d="M317.56,-78.87C335.75,-70.2 359.77,-59.66 382,-52.82 418.35,-41.63 461.14,-34.16 491.51,-29.76"/>
<polygon fill="#9a32cd" stroke="#9a32cd" points="316.14,-75.67 308.68,-83.19 319.2,-81.97 316.14,-75.67"/>
<text text-anchor="middle" x="428" y="-66.82" font-family="Helvetica,sans-Serif" font-size="10.00"> next</text>
<text text-anchor="middle" x="428" y="-55.82" font-family="Helvetica,sans-Serif" font-size="10.00">prev</text>
</g>
<!-- Node12&#45;&gt;Node15 -->
<g id="edge19" class="edge">
<title>Node12&#45;&gt;Node15</title>
<path fill="none" stroke="#9a32cd" stroke-dasharray="5,2" d="M317.93,-108.59C336.09,-117.03 359.95,-127.22 382,-133.82 423.3,-146.18 472.84,-153.79 503.1,-157.66"/>
<polygon fill="#9a32cd" stroke="#9a32cd" points="319.59,-105.5 309.06,-104.38 316.59,-111.83 319.59,-105.5"/>
<text text-anchor="middle" x="428" y="-155.82" font-family="Helvetica,sans-Serif" font-size="10.00"> thread</text>
</g>
<!-- Node13 -->
<g id="node13" class="node">
<title>Node13</title>
<g id="a_node13"><a xlink:href="structOSContext.html" target="_top" xlink:title=" ">
<polygon fill="white" stroke="#666666" points="82.5,-75.32 18.5,-75.32 18.5,-56.32 82.5,-56.32 82.5,-75.32"/>
<text text-anchor="middle" x="50.5" y="-63.32" font-family="Helvetica,sans-Serif" font-size="10.00">OSContext</text>
</a>
</g>
</g>
<!-- Node13&#45;&gt;Node12 -->
<g id="edge13" class="edge">
<title>Node13&#45;&gt;Node12</title>
<path fill="none" stroke="#9a32cd" stroke-dasharray="5,2" d="M94.3,-63.12C122.26,-62.09 159.47,-62.12 192,-66.82 215.02,-70.15 240.32,-77.64 258.87,-83.9"/>
<polygon fill="#9a32cd" stroke="#9a32cd" points="94.28,-59.62 84.45,-63.55 94.59,-66.61 94.28,-59.62"/>
<text text-anchor="middle" x="155.5" y="-69.82" font-family="Helvetica,sans-Serif" font-size="10.00"> context</text>
</g>
<!-- Node14&#45;&gt;Node12 -->
<g id="edge15" class="edge">
<title>Node14&#45;&gt;Node12</title>
<path fill="none" stroke="#9a32cd" stroke-dasharray="5,2" d="M494.83,-11.4C463.88,-2.05 418.64,6.41 382,-7.82 342,-23.36 308.64,-64.73 294.83,-83.86"/>
<polygon fill="#9a32cd" stroke="#9a32cd" points="493.52,-14.65 504.11,-14.37 495.66,-7.98 493.52,-14.65"/>
<text text-anchor="middle" x="428" y="-21.82" font-family="Helvetica,sans-Serif" font-size="10.00"> active_threads_link</text>
<text text-anchor="middle" x="428" y="-10.82" font-family="Helvetica,sans-Serif" font-size="10.00">link</text>
</g>
<!-- Node15&#45;&gt;Node12 -->
<g id="edge17" class="edge">
<title>Node15&#45;&gt;Node12</title>
<path fill="none" stroke="#9a32cd" stroke-dasharray="5,2" d="M510.63,-144.08C500.26,-136.42 487.1,-127.92 474,-122.82 421.47,-102.36 355.28,-96.31 317.69,-94.53"/>
<polygon fill="#9a32cd" stroke="#9a32cd" points="508.37,-146.76 518.42,-150.11 512.65,-141.22 508.37,-146.76"/>
<text text-anchor="middle" x="428" y="-125.82" font-family="Helvetica,sans-Serif" font-size="10.00"> mutex</text>
</g>
<!-- Node16 -->
<g id="node16" class="node">
<title>Node16</title>
<g id="a_node16"><a xlink:href="structOSMutexLink.html" target="_top" xlink:title=" ">
<polygon fill="white" stroke="#666666" points="713,-193.32 637,-193.32 637,-174.32 713,-174.32 713,-193.32"/>
<text text-anchor="middle" x="675" y="-181.32" font-family="Helvetica,sans-Serif" font-size="10.00">OSMutexLink</text>
</a>
</g>
</g>
<!-- Node15&#45;&gt;Node16 -->
<g id="edge21" class="edge">
<title>Node15&#45;&gt;Node16</title>
<path fill="none" stroke="#9a32cd" stroke-dasharray="5,2" d="M570.45,-174.08C576.9,-175.95 583.59,-177.64 590,-178.82 605.08,-181.61 621.93,-182.95 636.55,-183.56"/>
<polygon fill="#9a32cd" stroke="#9a32cd" points="571.94,-170.88 561.35,-171.26 569.87,-177.57 571.94,-170.88"/>
<text text-anchor="middle" x="602" y="-195.82" font-family="Helvetica,sans-Serif" font-size="10.00"> next</text>
<text text-anchor="middle" x="602" y="-184.82" font-family="Helvetica,sans-Serif" font-size="10.00">prev</text>
</g>
<!-- Node17 -->
<g id="node17" class="node">
<title>Node17</title>
<g id="a_node17"><a xlink:href="structOSMutexQueue.html" target="_top" xlink:title=" ">
<polygon fill="white" stroke="#666666" points="718,-115.32 632,-115.32 632,-96.32 718,-96.32 718,-115.32"/>
<text text-anchor="middle" x="675" y="-103.32" font-family="Helvetica,sans-Serif" font-size="10.00">OSMutexQueue</text>
</a>
</g>
</g>
<!-- Node15&#45;&gt;Node17 -->
<g id="edge23" class="edge">
<title>Node15&#45;&gt;Node17</title>
<path fill="none" stroke="#9a32cd" stroke-dasharray="5,2" d="M568.01,-146.57C575.27,-143.65 582.88,-140.61 590,-137.82 609.18,-130.3 630.91,-122.03 647.47,-115.78"/>
<polygon fill="#9a32cd" stroke="#9a32cd" points="566.73,-143.31 558.77,-150.3 569.35,-149.8 566.73,-143.31"/>
<text text-anchor="middle" x="602" y="-151.82" font-family="Helvetica,sans-Serif" font-size="10.00"> head</text>
<text text-anchor="middle" x="602" y="-140.82" font-family="Helvetica,sans-Serif" font-size="10.00">tail</text>
</g>
<!-- Node16&#45;&gt;Node15 -->
<g id="edge20" class="edge">
<title>Node16&#45;&gt;Node15</title>
<path fill="none" stroke="#9a32cd" stroke-dasharray="5,2" d="M630.05,-171.16C624.68,-169.89 619.23,-168.74 614,-167.82 596.48,-164.75 576.59,-163.01 560.9,-162.03"/>
<polygon fill="#9a32cd" stroke="#9a32cd" points="628.89,-174.48 639.44,-173.52 630.59,-167.69 628.89,-174.48"/>
<text text-anchor="middle" x="602" y="-170.82" font-family="Helvetica,sans-Serif" font-size="10.00"> link</text>
</g>
<!-- Node17&#45;&gt;Node12 -->
<g id="edge22" class="edge">
<title>Node17&#45;&gt;Node12</title>
<path fill="none" stroke="#9a32cd" stroke-dasharray="5,2" d="M620.37,-104.15C537.99,-101.59 383.03,-96.77 317.97,-94.75"/>
<polygon fill="#9a32cd" stroke="#9a32cd" points="620.12,-107.65 630.23,-104.46 620.34,-100.65 620.12,-107.65"/>
<text text-anchor="middle" x="532" y="-105.82" font-family="Helvetica,sans-Serif" font-size="10.00"> owned_mutexes</text>
</g>
</g>
</svg>
