<?xml version="1.0" encoding="UTF-8" standalone="no"?>
<!DOCTYPE svg PUBLIC "-//W3C//DTD SVG 1.1//EN"
 "http://www.w3.org/Graphics/SVG/1.1/DTD/svg11.dtd">
<!-- Generated by graphviz version 7.0.5 (20221223.1930)
 -->
<!-- Title: ProcessorState_PPC_6xx_7xx Pages: 1 -->
<svg width="452pt" height="104pt"
 viewBox="0.00 0.00 451.50 104.00" xmlns="http://www.w3.org/2000/svg" xmlns:xlink="http://www.w3.org/1999/xlink">
<g id="graph0" class="graph" transform="scale(1 1) rotate(0) translate(4 100)">
<title>ProcessorState_PPC_6xx_7xx</title>
<!-- Node1 -->
<g id="node1" class="node">
<title>Node1</title>
<g id="a_node1"><a xlink:title=" ">
<polygon fill="#999999" stroke="#666666" points="234.5,-30 124.5,-30 124.5,0 234.5,0 234.5,-30"/>
<text text-anchor="start" x="132.5" y="-18" font-family="Helvetica,sans-Serif" font-size="10.00">ProcessorState_PPC</text>
<text text-anchor="middle" x="179.5" y="-7" font-family="Helvetica,sans-Serif" font-size="10.00">_6xx_7xx</text>
</a>
</g>
</g>
<!-- Node2 -->
<g id="node2" class="node">
<title>Node2</title>
<g id="a_node2"><a xlink:href="structDefault__PPC.html" target="_top" xlink:title=" ">
<polygon fill="white" stroke="#666666" points="73,-96 0,-96 0,-77 73,-77 73,-96"/>
<text text-anchor="middle" x="36.5" y="-84" font-family="Helvetica,sans-Serif" font-size="10.00">Default_PPC</text>
</a>
</g>
</g>
<!-- Node2&#45;&gt;Node1 -->
<g id="edge1" class="edge">
<title>Node2&#45;&gt;Node1</title>
<path fill="none" stroke="#9a32cd" stroke-dasharray="5,2" d="M63.01,-71.24C76.53,-64.08 93.29,-55.38 108.5,-48 120.79,-42.04 134.43,-35.8 146.45,-30.43"/>
<polygon fill="#9a32cd" stroke="#9a32cd" points="61.47,-68.09 54.29,-75.88 64.76,-74.27 61.47,-68.09"/>
<text text-anchor="middle" x="125.5" y="-51" font-family="Helvetica,sans-Serif" font-size="10.00"> Default</text>
</g>
<!-- Node3 -->
<g id="node3" class="node">
<title>Node3</title>
<g id="a_node3"><a xlink:href="structFloat__PPC.html" target="_top" xlink:title=" ">
<polygon fill="white" stroke="#666666" points="155.5,-96 91.5,-96 91.5,-77 155.5,-77 155.5,-96"/>
<text text-anchor="middle" x="123.5" y="-84" font-family="Helvetica,sans-Serif" font-size="10.00">Float_PPC</text>
</a>
</g>
</g>
<!-- Node3&#45;&gt;Node1 -->
<g id="edge2" class="edge">
<title>Node3&#45;&gt;Node1</title>
<path fill="none" stroke="#9a32cd" stroke-dasharray="5,2" d="M137.69,-67.89C147.07,-56.24 159.22,-41.17 168,-30.27"/>
<polygon fill="#9a32cd" stroke="#9a32cd" points="135.09,-65.54 131.54,-75.52 140.54,-69.93 135.09,-65.54"/>
<text text-anchor="middle" x="166" y="-51" font-family="Helvetica,sans-Serif" font-size="10.00"> Float</text>
</g>
<!-- Node4 -->
<g id="node4" class="node">
<title>Node4</title>
<g id="a_node4"><a xlink:href="structExtended1__PPC__6xx__7xx.html" target="_top" xlink:title=" ">
<polygon fill="white" stroke="#666666" points="299.5,-96 173.5,-96 173.5,-77 299.5,-77 299.5,-96"/>
<text text-anchor="middle" x="236.5" y="-84" font-family="Helvetica,sans-Serif" font-size="10.00">Extended1_PPC_6xx_7xx</text>
</a>
</g>
</g>
<!-- Node4&#45;&gt;Node1 -->
<g id="edge3" class="edge">
<title>Node4&#45;&gt;Node1</title>
<path fill="none" stroke="#9a32cd" stroke-dasharray="5,2" d="M222.06,-67.89C212.5,-56.24 200.14,-41.17 191.21,-30.27"/>
<polygon fill="#9a32cd" stroke="#9a32cd" points="219.27,-70.01 228.32,-75.53 224.69,-65.58 219.27,-70.01"/>
<text text-anchor="middle" x="236.5" y="-51" font-family="Helvetica,sans-Serif" font-size="10.00"> Extended1</text>
</g>
<!-- Node5 -->
<g id="node5" class="node">
<title>Node5</title>
<g id="a_node5"><a xlink:href="structExtended2__PPC__6xx__7xx.html" target="_top" xlink:title=" ">
<polygon fill="white" stroke="#666666" points="443.5,-96 317.5,-96 317.5,-77 443.5,-77 443.5,-96"/>
<text text-anchor="middle" x="380.5" y="-84" font-family="Helvetica,sans-Serif" font-size="10.00">Extended2_PPC_6xx_7xx</text>
</a>
</g>
</g>
<!-- Node5&#45;&gt;Node1 -->
<g id="edge4" class="edge">
<title>Node5&#45;&gt;Node1</title>
<path fill="none" stroke="#9a32cd" stroke-dasharray="5,2" d="M344.06,-72.9C309.5,-60.95 257.6,-43.01 221.36,-30.47"/>
<polygon fill="#9a32cd" stroke="#9a32cd" points="342.61,-76.1 353.2,-76.06 344.9,-69.49 342.61,-76.1"/>
<text text-anchor="middle" x="321.5" y="-51" font-family="Helvetica,sans-Serif" font-size="10.00"> Extended2</text>
</g>
</g>
</svg>
