<?xml version="1.0" encoding="UTF-8" standalone="no"?>
<!DOCTYPE svg PUBLIC "-//W3C//DTD SVG 1.1//EN"
 "http://www.w3.org/Graphics/SVG/1.1/DTD/svg11.dtd">
<!-- Generated by graphviz version 7.0.5 (20221223.1930)
 -->
<!-- Title: Z2SeqMgr Pages: 1 -->
<!--zoomable 574 -->
<svg id="main" version="1.1" xmlns="http://www.w3.org/2000/svg" xmlns:xlink="http://www.w3.org/1999/xlink" xml:space="preserve" onload="init(evt)">
<style type="text/css"><![CDATA[
.edge:hover path { stroke: red; }
.edge:hover polygon { stroke: red; fill: red; }
]]></style>
<script type="text/javascript"><![CDATA[
var edges = document.getElementsByTagName('g');
if (edges && edges.length) {
  for (var i=0;i<edges.length;i++) {
    if (edges[i].id.substr(0,4)=='edge') {
      edges[i].setAttribute('class','edge');
    }
  }
}
]]></script>
        <defs>
                <circle id="rim" cx="0" cy="0" r="7"/>
                <circle id="rim2" cx="0" cy="0" r="3.5"/>
                <g id="zoomPlus">
                        <use xlink:href="#rim" fill="#404040">
                                <set attributeName="fill" to="#808080" begin="zoomplus.mouseover" end="zoomplus.mouseout"/>
                        </use>
                        <path d="M-4,0h8M0,-4v8" fill="none" stroke="white" stroke-width="1.5" pointer-events="none"/>
                </g>
                <g id="zoomMin">
                        <use xlink:href="#rim" fill="#404040">
                                <set attributeName="fill" to="#808080" begin="zoomminus.mouseover" end="zoomminus.mouseout"/>
                        </use>
                        <path d="M-4,0h8" fill="none" stroke="white" stroke-width="1.5" pointer-events="none"/>
                </g>
                <g id="dirArrow">
                        <path fill="none" stroke="white" stroke-width="1.5" d="M0,-3.0v7 M-2.5,-0.5L0,-3.0L2.5,-0.5"/>
                </g>
               <g id="resetDef">
                       <use xlink:href="#rim2" fill="#404040">
                               <set attributeName="fill" to="#808080" begin="reset.mouseover" end="reset.mouseout"/>
                       </use>
               </g>
        </defs>

<script type="text/javascript">
var viewWidth = 984;
var viewHeight = 574;
var sectionId = 'dynsection-1';
</script>
<script xlink:href="svgpan.js"/>
<svg id="graph" class="graph">
<g id="viewport">
<title>Z2SeqMgr</title>
<!-- Node1 -->
<g id="node1" class="node">
<title>Node1</title>
<g id="a_node1"><a xlink:title=" ">
<polygon fill="#999999" stroke="#666666" points="899,-96 837,-96 837,-77 899,-77 899,-96"/>
<text text-anchor="middle" x="868" y="-84" font-family="Helvetica,sans-Serif" font-size="10.00">Z2SeqMgr</text>
</a>
</g>
</g>
<!-- Node2 -->
<g id="node2" class="node">
<title>Node2</title>
<g id="a_node2"><a xlink:href="classJASGlobalInstance.html" target="_top" xlink:title=" ">
<polygon fill="white" stroke="#666666" points="920.5,-30 813.5,-30 813.5,0 920.5,0 920.5,-30"/>
<text text-anchor="start" x="821.5" y="-18" font-family="Helvetica,sans-Serif" font-size="10.00">JASGlobalInstance&lt;</text>
<text text-anchor="middle" x="867" y="-7" font-family="Helvetica,sans-Serif" font-size="10.00"> Z2SeqMgr &gt;</text>
</a>
</g>
</g>
<!-- Node1&#45;&gt;Node2 -->
<g id="edge2" class="edge">
<title>Node1&#45;&gt;Node2</title>
<path fill="none" stroke="#9a32cd" stroke-dasharray="5,2" d="M842.22,-69.8C838.9,-66.65 835.98,-63.05 834,-59 828.88,-48.52 836.46,-38.1 845.64,-30.14"/>
<polygon fill="#9a32cd" stroke="#9a32cd" points="839.75,-72.32 849.77,-75.75 844.08,-66.82 839.75,-72.32"/>
<text text-anchor="middle" x="857" y="-51" font-family="Helvetica,sans-Serif" font-size="10.00"> sInstance</text>
</g>
<!-- Node2&#45;&gt;Node1 -->
<g id="edge1" class="edge">
<title>Node2&#45;&gt;Node1</title>
<path fill="none" stroke="#63b8ff" d="M881.54,-40.57C882.53,-43.02 883.38,-45.52 884,-48 885.18,-52.74 885.31,-54.29 884,-59 882.21,-65.42 878.4,-71.84 874.95,-76.75"/>
<polygon fill="#63b8ff" stroke="#63b8ff" points="884.75,-39.17 877.22,-31.73 878.46,-42.25 884.75,-39.17"/>
</g>
<!-- Node3 -->
<g id="node3" class="node">
<title>Node3</title>
<g id="a_node3"><a xlink:href="structJAISoundHandle.html" target="_top" xlink:title=" ">
<polygon fill="white" stroke="#666666" points="713,-195 623,-195 623,-176 713,-176 713,-195"/>
<text text-anchor="middle" x="668" y="-183" font-family="Helvetica,sans-Serif" font-size="10.00">JAISoundHandle</text>
</a>
</g>
</g>
<!-- Node3&#45;&gt;Node1 -->
<g id="edge3" class="edge">
<title>Node3&#45;&gt;Node1</title>
<path fill="none" stroke="#9a32cd" stroke-dasharray="5,2" d="M721.8,-171.26C729.16,-167.8 736.18,-163.46 742,-158 757.53,-143.43 744.75,-127.77 761,-114 782.02,-96.18 813.25,-90.03 836.55,-88.05"/>
<polygon fill="#9a32cd" stroke="#9a32cd" points="720.57,-167.99 712.64,-175.01 723.22,-174.46 720.57,-167.99"/>
<text text-anchor="middle" x="801.5" y="-150" font-family="Helvetica,sans-Serif" font-size="10.00"> field_0x08</text>
<text text-anchor="middle" x="801.5" y="-139" font-family="Helvetica,sans-Serif" font-size="10.00">field_0x0c</text>
<text text-anchor="middle" x="801.5" y="-128" font-family="Helvetica,sans-Serif" font-size="10.00">mMainBgmHandle</text>
<text text-anchor="middle" x="801.5" y="-117" font-family="Helvetica,sans-Serif" font-size="10.00">mSubBgmHandle</text>
</g>
<!-- Node4 -->
<g id="node4" class="node">
<title>Node4</title>
<g id="a_node4"><a xlink:href="classJAISound.html" target="_top" xlink:title=" ">
<polygon fill="white" stroke="#666666" points="521.5,-96 462.5,-96 462.5,-77 521.5,-77 521.5,-96"/>
<text text-anchor="middle" x="492" y="-84" font-family="Helvetica,sans-Serif" font-size="10.00">JAISound</text>
</a>
</g>
</g>
<!-- Node3&#45;&gt;Node4 -->
<g id="edge5" class="edge">
<title>Node3&#45;&gt;Node4</title>
<path fill="none" stroke="#9a32cd" stroke-dasharray="5,2" d="M650.61,-167.41C647.91,-164.4 645.28,-161.19 643,-158 630.2,-140.03 637.61,-127.3 620,-114 591.56,-92.53 549.86,-87.43 521.86,-86.69"/>
<polygon fill="#9a32cd" stroke="#9a32cd" points="648.06,-169.81 657.5,-174.63 653.12,-164.98 648.06,-169.81"/>
<text text-anchor="middle" x="661.5" y="-133.5" font-family="Helvetica,sans-Serif" font-size="10.00"> handle_</text>
</g>
<!-- Node4&#45;&gt;Node3 -->
<g id="edge4" class="edge">
<title>Node4&#45;&gt;Node3</title>
<path fill="none" stroke="#9a32cd" stroke-dasharray="5,2" d="M532.48,-96.89C543.28,-100.84 554.34,-106.36 563,-114 579.54,-128.6 569.14,-143.77 586,-158 596.41,-166.78 609.77,-172.67 622.69,-176.61"/>
<polygon fill="#9a32cd" stroke="#9a32cd" points="533.89,-93.67 523.3,-93.91 531.73,-100.33 533.89,-93.67"/>
<text text-anchor="middle" x="603" y="-133.5" font-family="Helvetica,sans-Serif" font-size="10.00"> sound_</text>
</g>
<!-- Node5 -->
<g id="node5" class="node">
<title>Node5</title>
<g id="a_node5"><a xlink:href="classJAIAudible.html" target="_top" xlink:title=" ">
<polygon fill="white" stroke="#666666" points="403,-195 339,-195 339,-176 403,-176 403,-195"/>
<text text-anchor="middle" x="371" y="-183" font-family="Helvetica,sans-Serif" font-size="10.00">JAIAudible</text>
</a>
</g>
</g>
<!-- Node5&#45;&gt;Node4 -->
<g id="edge6" class="edge">
<title>Node5&#45;&gt;Node4</title>
<path fill="none" stroke="#9a32cd" stroke-dasharray="5,2" d="M376.92,-165.04C382.69,-149.18 392.97,-127.3 409,-114 424.02,-101.54 444.97,-94.91 462.07,-91.39"/>
<polygon fill="#9a32cd" stroke="#9a32cd" points="373.67,-163.72 373.84,-174.32 380.31,-165.93 373.67,-163.72"/>
<text text-anchor="middle" x="428.5" y="-133.5" font-family="Helvetica,sans-Serif" font-size="10.00"> audible_</text>
</g>
<!-- Node6 -->
<g id="node6" class="node">
<title>Node6</title>
<g id="a_node6"><a xlink:href="structJGeometry_1_1TVec3.html" target="_top" xlink:title=" ">
<polygon fill="white" stroke="#666666" points="461.5,-371 330.5,-371 330.5,-352 461.5,-352 461.5,-371"/>
<text text-anchor="middle" x="396" y="-359" font-family="Helvetica,sans-Serif" font-size="10.00">JGeometry::TVec3&lt; float &gt;</text>
</a>
</g>
</g>
<!-- Node6&#45;&gt;Node5 -->
<g id="edge7" class="edge">
<title>Node6&#45;&gt;Node5</title>
<path fill="none" stroke="#9a32cd" stroke-dasharray="5,2" d="M393.14,-340.58C387.7,-302.71 376.06,-221.72 372.24,-195.14"/>
<polygon fill="#9a32cd" stroke="#9a32cd" points="389.62,-340.73 394.51,-350.13 396.55,-339.74 389.62,-340.73"/>
<text text-anchor="middle" x="406" y="-271" font-family="Helvetica,sans-Serif" font-size="10.00"> mPos</text>
</g>
<!-- Node7 -->
<g id="node7" class="node">
<title>Node7</title>
<g id="a_node7"><a xlink:href="structJAIAudience.html" target="_top" xlink:title=" ">
<polygon fill="white" stroke="#666666" points="493,-195 421,-195 421,-176 493,-176 493,-195"/>
<text text-anchor="middle" x="457" y="-183" font-family="Helvetica,sans-Serif" font-size="10.00">JAIAudience</text>
</a>
</g>
</g>
<!-- Node7&#45;&gt;Node4 -->
<g id="edge8" class="edge">
<title>Node7&#45;&gt;Node4</title>
<path fill="none" stroke="#9a32cd" stroke-dasharray="5,2" d="M452.83,-164.37C450.8,-149.64 450.24,-129.6 458,-114 461.67,-106.63 468.46,-100.7 475.01,-96.33"/>
<polygon fill="#9a32cd" stroke="#9a32cd" points="449.38,-164.96 454.55,-174.2 456.27,-163.75 449.38,-164.96"/>
<text text-anchor="middle" x="481.5" y="-133.5" font-family="Helvetica,sans-Serif" font-size="10.00"> audience_</text>
</g>
<!-- Node8 -->
<g id="node8" class="node">
<title>Node8</title>
<g id="a_node8"><a xlink:href="structJAISoundID.html" target="_top" xlink:title=" ">
<polygon fill="white" stroke="#666666" points="850.5,-195 781.5,-195 781.5,-176 850.5,-176 850.5,-195"/>
<text text-anchor="middle" x="816" y="-183" font-family="Helvetica,sans-Serif" font-size="10.00">JAISoundID</text>
</a>
</g>
</g>
<!-- Node8&#45;&gt;Node1 -->
<g id="edge19" class="edge">
<title>Node8&#45;&gt;Node1</title>
<path fill="none" stroke="#9a32cd" stroke-dasharray="5,2" d="M837.43,-168.24C840.62,-165.11 843.63,-161.66 846,-158 858.83,-138.2 864.58,-110.44 866.8,-96.39"/>
<polygon fill="#9a32cd" stroke="#9a32cd" points="835.25,-165.5 830.01,-174.71 839.85,-170.78 835.25,-165.5"/>
<text text-anchor="middle" x="887" y="-133.5" font-family="Helvetica,sans-Serif" font-size="10.00"> field_0x10</text>
</g>
<!-- Node8&#45;&gt;Node4 -->
<g id="edge9" class="edge">
<title>Node8&#45;&gt;Node4</title>
<path fill="none" stroke="#9a32cd" stroke-dasharray="5,2" d="M769.97,-183.72C746.44,-181.11 718.69,-174.35 699,-158 682.61,-144.39 696.94,-126.92 680,-114 655.76,-95.51 568.37,-89.9 521.77,-88.22"/>
<polygon fill="#9a32cd" stroke="#9a32cd" points="769.36,-187.18 779.62,-184.56 769.96,-180.2 769.36,-187.18"/>
<text text-anchor="middle" x="718.5" y="-133.5" font-family="Helvetica,sans-Serif" font-size="10.00"> soundID</text>
</g>
<!-- Node9 -->
<g id="node9" class="node">
<title>Node9</title>
<g id="a_node9"><a xlink:href="structJAISoundStatus__.html" target="_top" xlink:title=" ">
<polygon fill="white" stroke="#666666" points="604.5,-195 511.5,-195 511.5,-176 604.5,-176 604.5,-195"/>
<text text-anchor="middle" x="558" y="-183" font-family="Helvetica,sans-Serif" font-size="10.00">JAISoundStatus_</text>
</a>
</g>
</g>
<!-- Node9&#45;&gt;Node4 -->
<g id="edge10" class="edge">
<title>Node9&#45;&gt;Node4</title>
<path fill="none" stroke="#9a32cd" stroke-dasharray="5,2" d="M537.25,-168.03C533.94,-164.9 530.72,-161.5 528,-158 525.92,-155.31 505.52,-114.61 496.39,-96.3"/>
<polygon fill="#9a32cd" stroke="#9a32cd" points="534.94,-170.67 544.78,-174.59 539.54,-165.39 534.94,-170.67"/>
<text text-anchor="middle" x="545.5" y="-133.5" font-family="Helvetica,sans-Serif" font-size="10.00"> status_</text>
</g>
<!-- Node10 -->
<g id="node10" class="node">
<title>Node10</title>
<g id="a_node10"><a xlink:href="structJAISoundFader.html" target="_top" xlink:title=" ">
<polygon fill="white" stroke="#666666" points="344,-283 260,-283 260,-264 344,-264 344,-283"/>
<text text-anchor="middle" x="302" y="-271" font-family="Helvetica,sans-Serif" font-size="10.00">JAISoundFader</text>
</a>
</g>
</g>
<!-- Node10&#45;&gt;Node4 -->
<g id="edge11" class="edge">
<title>Node10&#45;&gt;Node4</title>
<path fill="none" stroke="#9a32cd" stroke-dasharray="5,2" d="M298.15,-252.47C295.24,-232.16 293.48,-200.35 305,-176 333.19,-116.43 417.05,-96.79 462.28,-90.44"/>
<polygon fill="#9a32cd" stroke="#9a32cd" points="294.68,-252.94 299.8,-262.21 301.58,-251.77 294.68,-252.94"/>
<text text-anchor="middle" x="317.5" y="-183" font-family="Helvetica,sans-Serif" font-size="10.00"> fader</text>
</g>
<!-- Node11 -->
<g id="node11" class="node">
<title>Node11</title>
<g id="a_node11"><a xlink:href="structJAISoundParamsTransition_1_1TTransition.html" target="_top" xlink:title=" ">
<polygon fill="white" stroke="#666666" points="370,-566 234,-566 234,-536 370,-536 370,-566"/>
<text text-anchor="start" x="242" y="-554" font-family="Helvetica,sans-Serif" font-size="10.00">JAISoundParamsTransition</text>
<text text-anchor="middle" x="302" y="-543" font-family="Helvetica,sans-Serif" font-size="10.00">::TTransition</text>
</a>
</g>
</g>
<!-- Node11&#45;&gt;Node10 -->
<g id="edge12" class="edge">
<title>Node11&#45;&gt;Node10</title>
<path fill="none" stroke="#9a32cd" stroke-dasharray="5,2" d="M302,-524.27C302,-464.91 302,-320.64 302,-283.39"/>
<polygon fill="#9a32cd" stroke="#9a32cd" points="298.5,-524.06 302,-534.06 305.5,-524.06 298.5,-524.06"/>
<text text-anchor="middle" x="329" y="-433" font-family="Helvetica,sans-Serif" font-size="10.00"> mTransition</text>
</g>
<!-- Node16 -->
<g id="node16" class="node">
<title>Node16</title>
<g id="a_node16"><a xlink:href="structJAISoundParamsTransition.html" target="_top" xlink:title=" ">
<polygon fill="white" stroke="#666666" points="136,-445 0,-445 0,-426 136,-426 136,-445"/>
<text text-anchor="middle" x="68" y="-433" font-family="Helvetica,sans-Serif" font-size="10.00">JAISoundParamsTransition</text>
</a>
</g>
</g>
<!-- Node11&#45;&gt;Node16 -->
<g id="edge18" class="edge">
<title>Node11&#45;&gt;Node16</title>
<path fill="none" stroke="#9a32cd" stroke-dasharray="5,2" d="M262.31,-530.75C211.06,-505.89 124,-463.66 86.3,-445.38"/>
<polygon fill="#9a32cd" stroke="#9a32cd" points="260.48,-533.75 271,-534.96 263.53,-527.45 260.48,-533.75"/>
<text text-anchor="middle" x="254" y="-510" font-family="Helvetica,sans-Serif" font-size="10.00"> mDolby</text>
<text text-anchor="middle" x="254" y="-499" font-family="Helvetica,sans-Serif" font-size="10.00">mFxMix</text>
<text text-anchor="middle" x="254" y="-488" font-family="Helvetica,sans-Serif" font-size="10.00">mPan</text>
<text text-anchor="middle" x="254" y="-477" font-family="Helvetica,sans-Serif" font-size="10.00">mPitch</text>
<text text-anchor="middle" x="254" y="-466" font-family="Helvetica,sans-Serif" font-size="10.00">mVolume</text>
</g>
<!-- Node17 -->
<g id="node17" class="node">
<title>Node17</title>
<g id="a_node17"><a xlink:href="structZ2SoundFader.html" target="_top" xlink:title=" ">
<polygon fill="white" stroke="#666666" points="831,-408 751,-408 751,-389 831,-389 831,-408"/>
<text text-anchor="middle" x="791" y="-396" font-family="Helvetica,sans-Serif" font-size="10.00">Z2SoundFader</text>
</a>
</g>
</g>
<!-- Node11&#45;&gt;Node17 -->
<g id="edge21" class="edge">
<title>Node11&#45;&gt;Node17</title>
<path fill="none" stroke="#9a32cd" stroke-dasharray="5,2" d="M359.58,-532.28C464.46,-500 683.04,-432.73 761.87,-408.47"/>
<polygon fill="#9a32cd" stroke="#9a32cd" points="358.86,-528.84 350.33,-535.12 360.92,-535.53 358.86,-528.84"/>
<text text-anchor="middle" x="605" y="-488" font-family="Helvetica,sans-Serif" font-size="10.00"> mTransition</text>
</g>
<!-- Node12 -->
<g id="node12" class="node">
<title>Node12</title>
<g id="a_node12"><a xlink:href="structJAISoundParams.html" target="_top" xlink:title=" ">
<polygon fill="white" stroke="#666666" points="254.5,-195 161.5,-195 161.5,-176 254.5,-176 254.5,-195"/>
<text text-anchor="middle" x="208" y="-183" font-family="Helvetica,sans-Serif" font-size="10.00">JAISoundParams</text>
</a>
</g>
</g>
<!-- Node12&#45;&gt;Node4 -->
<g id="edge13" class="edge">
<title>Node12&#45;&gt;Node4</title>
<path fill="none" stroke="#9a32cd" stroke-dasharray="5,2" d="M213.22,-165.16C218.74,-148.68 229.19,-125.84 247,-114 281.65,-90.97 405.07,-87.64 462.37,-87.37"/>
<polygon fill="#9a32cd" stroke="#9a32cd" points="209.98,-163.76 210.46,-174.34 216.69,-165.77 209.98,-163.76"/>
<text text-anchor="middle" x="264.5" y="-133.5" font-family="Helvetica,sans-Serif" font-size="10.00"> params</text>
</g>
<!-- Node13 -->
<g id="node13" class="node">
<title>Node13</title>
<g id="a_node13"><a xlink:href="structJAISoundParamsProperty.html" target="_top" xlink:title=" ">
<polygon fill="white" stroke="#666666" points="273.5,-371 144.5,-371 144.5,-352 273.5,-352 273.5,-371"/>
<text text-anchor="middle" x="209" y="-359" font-family="Helvetica,sans-Serif" font-size="10.00">JAISoundParamsProperty</text>
</a>
</g>
</g>
<!-- Node13&#45;&gt;Node12 -->
<g id="edge14" class="edge">
<title>Node13&#45;&gt;Node12</title>
<path fill="none" stroke="#9a32cd" stroke-dasharray="5,2" d="M204.83,-340.59C204.49,-338.37 204.2,-336.14 204,-334 198.99,-280.46 199.98,-266.63 204,-213 204.45,-207.06 205.45,-200.44 206.33,-195.3"/>
<polygon fill="#9a32cd" stroke="#9a32cd" points="201.36,-341.05 206.64,-350.24 208.24,-339.76 201.36,-341.05"/>
<text text-anchor="middle" x="227.5" y="-271" font-family="Helvetica,sans-Serif" font-size="10.00"> mProperty</text>
</g>
<!-- Node14 -->
<g id="node14" class="node">
<title>Node14</title>
<g id="a_node14"><a xlink:href="structJAISoundParamsMove.html" target="_top" xlink:title=" ">
<polygon fill="white" stroke="#666666" points="126.5,-371 9.5,-371 9.5,-352 126.5,-352 126.5,-371"/>
<text text-anchor="middle" x="68" y="-359" font-family="Helvetica,sans-Serif" font-size="10.00">JAISoundParamsMove</text>
</a>
</g>
</g>
<!-- Node14&#45;&gt;Node12 -->
<g id="edge15" class="edge">
<title>Node14&#45;&gt;Node12</title>
<path fill="none" stroke="#9a32cd" stroke-dasharray="5,2" d="M76.42,-341.47C90.55,-311.25 121.51,-251.72 162,-213 169.46,-205.87 179.2,-199.9 187.79,-195.45"/>
<polygon fill="#9a32cd" stroke="#9a32cd" points="73.29,-339.92 72.33,-350.47 79.66,-342.82 73.29,-339.92"/>
<text text-anchor="middle" x="179.5" y="-271" font-family="Helvetica,sans-Serif" font-size="10.00"> mMove</text>
</g>
<!-- Node15 -->
<g id="node15" class="node">
<title>Node15</title>
<g id="a_node15"><a xlink:href="structJASSoundParams.html" target="_top" xlink:title=" ">
<polygon fill="white" stroke="#666666" points="251.5,-445 154.5,-445 154.5,-426 251.5,-426 251.5,-445"/>
<text text-anchor="middle" x="203" y="-433" font-family="Helvetica,sans-Serif" font-size="10.00">JASSoundParams</text>
</a>
</g>
</g>
<!-- Node15&#45;&gt;Node14 -->
<g id="edge16" class="edge">
<title>Node15&#45;&gt;Node14</title>
<path fill="none" stroke="#9a32cd" stroke-dasharray="5,2" d="M179.52,-419.75C164.45,-410.51 144.34,-398.58 126,-389 113.93,-382.7 100.07,-376.33 88.92,-371.42"/>
<polygon fill="#9a32cd" stroke="#9a32cd" points="177.43,-422.58 187.77,-424.86 181.11,-416.62 177.43,-422.58"/>
<text text-anchor="middle" x="181.5" y="-396" font-family="Helvetica,sans-Serif" font-size="10.00"> mParams</text>
</g>
<!-- Node16&#45;&gt;Node14 -->
<g id="edge17" class="edge">
<title>Node16&#45;&gt;Node14</title>
<path fill="none" stroke="#9a32cd" stroke-dasharray="5,2" d="M68,-414.18C68,-400.09 68,-382.01 68,-371.4"/>
<polygon fill="#9a32cd" stroke="#9a32cd" points="64.5,-414.16 68,-424.16 71.5,-414.16 64.5,-414.16"/>
<text text-anchor="middle" x="95" y="-396" font-family="Helvetica,sans-Serif" font-size="10.00"> mTransition</text>
</g>
<!-- Node17&#45;&gt;Node1 -->
<g id="edge20" class="edge">
<title>Node17&#45;&gt;Node1</title>
<path fill="none" stroke="#9a32cd" stroke-dasharray="5,2" d="M803.99,-379.67C830.96,-341.43 892.32,-247.67 914,-158 918.6,-138.99 923.79,-130.93 914,-114 909.48,-106.18 901.68,-100.46 893.77,-96.39"/>
<polygon fill="#9a32cd" stroke="#9a32cd" points="801.49,-377.15 798.52,-387.32 807.18,-381.23 801.49,-377.15"/>
<text text-anchor="middle" x="936" y="-326" font-family="Helvetica,sans-Serif" font-size="10.00"> field_0x44</text>
<text text-anchor="middle" x="936" y="-315" font-family="Helvetica,sans-Serif" font-size="10.00">field_0x64</text>
<text text-anchor="middle" x="936" y="-304" font-family="Helvetica,sans-Serif" font-size="10.00">field_0x84</text>
<text text-anchor="middle" x="936" y="-293" font-family="Helvetica,sans-Serif" font-size="10.00">field_0xa4</text>
<text text-anchor="middle" x="936" y="-282" font-family="Helvetica,sans-Serif" font-size="10.00">mAllBgmMaster</text>
<text text-anchor="middle" x="936" y="-271" font-family="Helvetica,sans-Serif" font-size="10.00">mBgmPause</text>
<text text-anchor="middle" x="936" y="-260" font-family="Helvetica,sans-Serif" font-size="10.00">mFanfareMute</text>
<text text-anchor="middle" x="936" y="-249" font-family="Helvetica,sans-Serif" font-size="10.00">mMainBgmMaster</text>
<text text-anchor="middle" x="936" y="-238" font-family="Helvetica,sans-Serif" font-size="10.00">mSubBgmMaster</text>
<text text-anchor="middle" x="936" y="-227" font-family="Helvetica,sans-Serif" font-size="10.00">mWindStone</text>
<text text-anchor="middle" x="936" y="-216" font-family="Helvetica,sans-Serif" font-size="10.00">...</text>
</g>
</g>
</svg>
        <g id="navigator" transform="translate(0 0)" fill="#404254">
                <rect fill="#f2f5e9" fill-opacity="0.5" stroke="#606060" stroke-width=".5" x="0" y="0" width="60" height="60"/>
                <use id="zoomplus" xlink:href="#zoomPlus" x="17" y="9" onmousedown="handleZoom(evt,'in')"/>
                <use id="zoomminus" xlink:href="#zoomMin" x="42" y="9" onmousedown="handleZoom(evt,'out')"/>
                <use id="reset" xlink:href="#resetDef" x="30" y="36" onmousedown="handleReset()"/>
                <g id="arrowUp" xlink:href="#dirArrow" transform="translate(30 24)" onmousedown="handlePan(0,-1)">
                  <use xlink:href="#rim" fill="#404040">
                        <set attributeName="fill" to="#808080" begin="arrowUp.mouseover" end="arrowUp.mouseout"/>
                  </use>
                  <path fill="none" stroke="white" stroke-width="1.5" d="M0,-3.0v7 M-2.5,-0.5L0,-3.0L2.5,-0.5"/>
                </g>
                <g id="arrowRight" xlink:href="#dirArrow" transform="rotate(90) translate(36 -43)" onmousedown="handlePan(1,0)">
                  <use xlink:href="#rim" fill="#404040">
                        <set attributeName="fill" to="#808080" begin="arrowRight.mouseover" end="arrowRight.mouseout"/>
                  </use>
                  <path fill="none" stroke="white" stroke-width="1.5" d="M0,-3.0v7 M-2.5,-0.5L0,-3.0L2.5,-0.5"/>
                </g>
                <g id="arrowDown" xlink:href="#dirArrow" transform="rotate(180) translate(-30 -48)" onmousedown="handlePan(0,1)">
                  <use xlink:href="#rim" fill="#404040">
                        <set attributeName="fill" to="#808080" begin="arrowDown.mouseover" end="arrowDown.mouseout"/>
                  </use>
                  <path fill="none" stroke="white" stroke-width="1.5" d="M0,-3.0v7 M-2.5,-0.5L0,-3.0L2.5,-0.5"/>
                </g>
                <g id="arrowLeft" xlink:href="#dirArrow" transform="rotate(270) translate(-36 17)" onmousedown="handlePan(-1,0)">
                  <use xlink:href="#rim" fill="#404040">
                        <set attributeName="fill" to="#808080" begin="arrowLeft.mouseover" end="arrowLeft.mouseout"/>
                  </use>
                  <path fill="none" stroke="white" stroke-width="1.5" d="M0,-3.0v7 M-2.5,-0.5L0,-3.0L2.5,-0.5"/>
                </g>
        </g>
        <svg viewBox="0 0 15 15" width="100%" height="30px" preserveAspectRatio="xMaxYMin meet">
         <g id="arrow_out" transform="scale(0.3 0.3)">
          <a xlink:href="structZ2SeqMgr__coll__graph_org.svg" target="_base">
           <rect id="button" ry="5" rx="5" y="6" x="6" height="38" width="38"
                fill="#f2f5e9" fill-opacity="0.5" stroke="#606060" stroke-width="1.0"/>
           <path id="arrow"
             d="M 11.500037,31.436501 C 11.940474,20.09759 22.043105,11.32322 32.158766,21.979434 L 37.068811,17.246167 C 37.068811,17.246167 37.088388,32 37.088388,32 L 22.160133,31.978069 C 22.160133,31.978069 26.997745,27.140456 26.997745,27.140456 C 18.528582,18.264221 13.291696,25.230495 11.500037,31.436501 z"
             style="fill:#404040;"/>
          </a>
         </g>
        </svg>
</svg>
