<?xml version="1.0" encoding="UTF-8" standalone="no"?>
<!DOCTYPE svg PUBLIC "-//W3C//DTD SVG 1.1//EN"
 "http://www.w3.org/Graphics/SVG/1.1/DTD/svg11.dtd">
<!-- Generated by graphviz version 7.0.5 (20221223.1930)
 -->
<!-- Title: GLOBAL_MEMORY Pages: 1 -->
<svg width="747pt" height="324pt"
 viewBox="0.00 0.00 747.00 324.00" xmlns="http://www.w3.org/2000/svg" xmlns:xlink="http://www.w3.org/1999/xlink">
<g id="graph0" class="graph" transform="scale(1 1) rotate(0) translate(4 320)">
<title>GLOBAL_MEMORY</title>
<!-- Node1 -->
<g id="node1" class="node">
<title>Node1</title>
<g id="a_node1"><a xlink:title=" ">
<polygon fill="#999999" stroke="#666666" points="215,-162 109,-162 109,-143 215,-143 215,-162"/>
<text text-anchor="middle" x="162" y="-150" font-family="Helvetica,sans-Serif" font-size="10.00">GLOBAL_MEMORY</text>
</a>
</g>
</g>
<!-- Node2 -->
<g id="node2" class="node">
<title>Node2</title>
<g id="a_node2"><a xlink:href="structDVDDiskID.html" target="_top" xlink:title=" ">
<polygon fill="white" stroke="#666666" points="250,-250 184,-250 184,-231 250,-231 250,-250"/>
<text text-anchor="middle" x="217" y="-238" font-family="Helvetica,sans-Serif" font-size="10.00">DVDDiskID</text>
</a>
</g>
</g>
<!-- Node2&#45;&gt;Node1 -->
<g id="edge1" class="edge">
<title>Node2&#45;&gt;Node1</title>
<path fill="none" stroke="#9a32cd" stroke-dasharray="5,2" d="M205.28,-221.17C193.73,-203.11 176.57,-176.29 167.73,-162.46"/>
<polygon fill="#9a32cd" stroke="#9a32cd" points="202.17,-222.81 210.51,-229.35 208.07,-219.04 202.17,-222.81"/>
<text text-anchor="middle" x="209.5" y="-194" font-family="Helvetica,sans-Serif" font-size="10.00"> disk</text>
</g>
<!-- Node3 -->
<g id="node3" class="node">
<title>Node3</title>
<g id="a_node3"><a xlink:href="structOSContext.html" target="_top" xlink:title=" ">
<polygon fill="white" stroke="#666666" points="64,-316 0,-316 0,-297 64,-297 64,-316"/>
<text text-anchor="middle" x="32" y="-304" font-family="Helvetica,sans-Serif" font-size="10.00">OSContext</text>
</a>
</g>
</g>
<!-- Node3&#45;&gt;Node1 -->
<g id="edge2" class="edge">
<title>Node3&#45;&gt;Node1</title>
<path fill="none" stroke="#9a32cd" stroke-dasharray="5,2" d="M24.19,-285.86C19.22,-270 15.35,-247.66 25,-231 46.65,-193.64 93.76,-172.88 126.66,-162.45"/>
<polygon fill="#9a32cd" stroke="#9a32cd" points="20.83,-286.86 27.49,-295.1 27.42,-284.51 20.83,-286.86"/>
<text text-anchor="middle" x="48" y="-238" font-family="Helvetica,sans-Serif" font-size="10.00"> field_0xd8</text>
</g>
<!-- Node4 -->
<g id="node4" class="node">
<title>Node4</title>
<g id="a_node4"><a xlink:href="structOSThread.html" target="_top" xlink:title=" ">
<polygon fill="white" stroke="#666666" points="489.5,-250 428.5,-250 428.5,-231 489.5,-231 489.5,-250"/>
<text text-anchor="middle" x="459" y="-238" font-family="Helvetica,sans-Serif" font-size="10.00">OSThread</text>
</a>
</g>
</g>
<!-- Node3&#45;&gt;Node4 -->
<g id="edge4" class="edge">
<title>Node3&#45;&gt;Node4</title>
<path fill="none" stroke="#9a32cd" stroke-dasharray="5,2" d="M75.68,-298.95C162.15,-285.99 353.19,-257.36 428.05,-246.14"/>
<polygon fill="#9a32cd" stroke="#9a32cd" points="75.31,-295.47 65.94,-300.41 76.35,-302.39 75.31,-295.47"/>
<text text-anchor="middle" x="288" y="-271" font-family="Helvetica,sans-Serif" font-size="10.00"> context</text>
</g>
<!-- Node4&#45;&gt;Node1 -->
<g id="edge3" class="edge">
<title>Node4&#45;&gt;Node1</title>
<path fill="none" stroke="#9a32cd" stroke-dasharray="5,2" d="M416.81,-236.92C366.39,-233.33 285.37,-225.77 258,-213 238.33,-203.82 240.17,-191.88 222,-180 211.23,-172.96 198.28,-166.97 187.17,-162.48"/>
<polygon fill="#9a32cd" stroke="#9a32cd" points="416.28,-240.39 426.49,-237.59 416.76,-233.41 416.28,-240.39"/>
<text text-anchor="middle" x="281" y="-205" font-family="Helvetica,sans-Serif" font-size="10.00"> field_0xdc</text>
<text text-anchor="middle" x="281" y="-194" font-family="Helvetica,sans-Serif" font-size="10.00">field_0xe0</text>
<text text-anchor="middle" x="281" y="-183" font-family="Helvetica,sans-Serif" font-size="10.00">field_0xe4</text>
</g>
<!-- Node5 -->
<g id="node5" class="node">
<title>Node5</title>
<g id="a_node5"><a xlink:href="structOSThreadQueue.html" target="_top" xlink:title=" ">
<polygon fill="white" stroke="#666666" points="641.5,-162 552.5,-162 552.5,-143 641.5,-143 641.5,-162"/>
<text text-anchor="middle" x="597" y="-150" font-family="Helvetica,sans-Serif" font-size="10.00">OSThreadQueue</text>
</a>
</g>
</g>
<!-- Node4&#45;&gt;Node5 -->
<g id="edge6" class="edge">
<title>Node4&#45;&gt;Node5</title>
<path fill="none" stroke="#9a32cd" stroke-dasharray="5,2" d="M497.17,-226.01C504.52,-222.44 511.83,-218.11 518,-213 531.76,-201.59 527.35,-191.54 541,-180 549.79,-172.57 561.01,-166.72 571.1,-162.43"/>
<polygon fill="#9a32cd" stroke="#9a32cd" points="496,-222.7 488.27,-229.96 498.84,-229.1 496,-222.7"/>
<text text-anchor="middle" x="553" y="-199.5" font-family="Helvetica,sans-Serif" font-size="10.00"> head</text>
<text text-anchor="middle" x="553" y="-188.5" font-family="Helvetica,sans-Serif" font-size="10.00">tail</text>
</g>
<!-- Node6 -->
<g id="node6" class="node">
<title>Node6</title>
<g id="a_node6"><a xlink:href="structOSThreadLink.html" target="_top" xlink:title=" ">
<polygon fill="white" stroke="#666666" points="378,-162 298,-162 298,-143 378,-143 378,-162"/>
<text text-anchor="middle" x="338" y="-150" font-family="Helvetica,sans-Serif" font-size="10.00">OSThreadLink</text>
</a>
</g>
</g>
<!-- Node4&#45;&gt;Node6 -->
<g id="edge8" class="edge">
<title>Node4&#45;&gt;Node6</title>
<path fill="none" stroke="#9a32cd" stroke-dasharray="5,2" d="M436.16,-223.86C431.91,-220.5 427.66,-216.81 424,-213 411.61,-200.11 414.9,-191.24 401,-180 391.59,-172.39 379.68,-166.64 368.75,-162.47"/>
<polygon fill="#9a32cd" stroke="#9a32cd" points="433.9,-226.54 444.01,-229.69 438.07,-220.92 433.9,-226.54"/>
<text text-anchor="middle" x="434.5" y="-199.5" font-family="Helvetica,sans-Serif" font-size="10.00"> next</text>
<text text-anchor="middle" x="434.5" y="-188.5" font-family="Helvetica,sans-Serif" font-size="10.00">prev</text>
</g>
<!-- Node7 -->
<g id="node7" class="node">
<title>Node7</title>
<g id="a_node7"><a xlink:href="structOSMutex.html" target="_top" xlink:title=" ">
<polygon fill="white" stroke="#666666" points="539.5,-96 482.5,-96 482.5,-77 539.5,-77 539.5,-96"/>
<text text-anchor="middle" x="511" y="-84" font-family="Helvetica,sans-Serif" font-size="10.00">OSMutex</text>
</a>
</g>
</g>
<!-- Node4&#45;&gt;Node7 -->
<g id="edge11" class="edge">
<title>Node4&#45;&gt;Node7</title>
<path fill="none" stroke="#9a32cd" stroke-dasharray="5,2" d="M465.55,-220.35C476.89,-187.22 499.73,-120.45 507.96,-96.39"/>
<polygon fill="#9a32cd" stroke="#9a32cd" points="462.36,-218.87 462.43,-229.46 468.98,-221.13 462.36,-218.87"/>
<text text-anchor="middle" x="506" y="-150" font-family="Helvetica,sans-Serif" font-size="10.00"> thread</text>
</g>
<!-- Node5&#45;&gt;Node4 -->
<g id="edge5" class="edge">
<title>Node5&#45;&gt;Node4</title>
<path fill="none" stroke="#9a32cd" stroke-dasharray="5,2" d="M592.54,-173.05C588.54,-186.21 581.33,-202.95 569,-213 546.61,-231.24 513.67,-237.27 489.67,-239.1"/>
<polygon fill="#9a32cd" stroke="#9a32cd" points="595.83,-174.28 594.99,-163.71 589.06,-172.5 595.83,-174.28"/>
<text text-anchor="middle" x="613.5" y="-199.5" font-family="Helvetica,sans-Serif" font-size="10.00"> join_queue</text>
<text text-anchor="middle" x="613.5" y="-188.5" font-family="Helvetica,sans-Serif" font-size="10.00">queue</text>
</g>
<!-- Node5&#45;&gt;Node7 -->
<g id="edge10" class="edge">
<title>Node5&#45;&gt;Node7</title>
<path fill="none" stroke="#9a32cd" stroke-dasharray="5,2" d="M576.02,-135.89C559.32,-123.46 536.55,-106.51 522.86,-96.32"/>
<polygon fill="#9a32cd" stroke="#9a32cd" points="573.72,-138.54 583.83,-141.7 577.9,-132.92 573.72,-138.54"/>
<text text-anchor="middle" x="573.5" y="-117" font-family="Helvetica,sans-Serif" font-size="10.00"> queue</text>
</g>
<!-- Node6&#45;&gt;Node4 -->
<g id="edge7" class="edge">
<title>Node6&#45;&gt;Node4</title>
<path fill="none" stroke="#9a32cd" stroke-dasharray="5,2" d="M319.36,-170.64C317.18,-173.54 315.28,-176.69 314,-180 308.72,-193.68 304.61,-201.74 314,-213 328.26,-230.1 390.12,-236.2 428.29,-238.35"/>
<polygon fill="#9a32cd" stroke="#9a32cd" points="321.75,-173.22 325.88,-163.46 316.56,-168.51 321.75,-173.22"/>
<text text-anchor="middle" x="357.5" y="-199.5" font-family="Helvetica,sans-Serif" font-size="10.00"> active_threads_link</text>
<text text-anchor="middle" x="357.5" y="-188.5" font-family="Helvetica,sans-Serif" font-size="10.00">link</text>
</g>
<!-- Node7&#45;&gt;Node4 -->
<g id="edge9" class="edge">
<title>Node7&#45;&gt;Node4</title>
<path fill="none" stroke="#9a32cd" stroke-dasharray="5,2" d="M487.11,-103.06C474.39,-112.83 459.98,-126.66 453,-143 440.21,-172.95 450.25,-212.92 455.86,-230.53"/>
<polygon fill="#9a32cd" stroke="#9a32cd" points="489.05,-105.98 495.12,-97.29 484.96,-100.3 489.05,-105.98"/>
<text text-anchor="middle" x="467.5" y="-150" font-family="Helvetica,sans-Serif" font-size="10.00"> mutex</text>
</g>
<!-- Node8 -->
<g id="node8" class="node">
<title>Node8</title>
<g id="a_node8"><a xlink:href="structOSMutexLink.html" target="_top" xlink:title=" ">
<polygon fill="white" stroke="#666666" points="551,-19 475,-19 475,0 551,0 551,-19"/>
<text text-anchor="middle" x="513" y="-7" font-family="Helvetica,sans-Serif" font-size="10.00">OSMutexLink</text>
</a>
</g>
</g>
<!-- Node7&#45;&gt;Node8 -->
<g id="edge13" class="edge">
<title>Node7&#45;&gt;Node8</title>
<path fill="none" stroke="#9a32cd" stroke-dasharray="5,2" d="M521.67,-66.26C522.62,-63.87 523.44,-61.42 524,-59 526.21,-49.48 525.91,-46.59 524,-37 522.75,-30.75 520,-24.12 517.57,-19.06"/>
<polygon fill="#9a32cd" stroke="#9a32cd" points="518.55,-64.68 517.32,-75.21 524.84,-67.74 518.55,-64.68"/>
<text text-anchor="middle" x="535.5" y="-51" font-family="Helvetica,sans-Serif" font-size="10.00"> next</text>
<text text-anchor="middle" x="535.5" y="-40" font-family="Helvetica,sans-Serif" font-size="10.00">prev</text>
</g>
<!-- Node9 -->
<g id="node9" class="node">
<title>Node9</title>
<g id="a_node9"><a xlink:href="structOSMutexQueue.html" target="_top" xlink:title=" ">
<polygon fill="white" stroke="#666666" points="672,-19 586,-19 586,0 672,0 672,-19"/>
<text text-anchor="middle" x="629" y="-7" font-family="Helvetica,sans-Serif" font-size="10.00">OSMutexQueue</text>
</a>
</g>
</g>
<!-- Node7&#45;&gt;Node9 -->
<g id="edge15" class="edge">
<title>Node7&#45;&gt;Node9</title>
<path fill="none" stroke="#9a32cd" stroke-dasharray="5,2" d="M534.46,-70.59C558.52,-55.3 595.16,-32.01 615.02,-19.39"/>
<polygon fill="#9a32cd" stroke="#9a32cd" points="532.84,-67.47 526.28,-75.79 536.59,-73.38 532.84,-67.47"/>
<text text-anchor="middle" x="596" y="-51" font-family="Helvetica,sans-Serif" font-size="10.00"> head</text>
<text text-anchor="middle" x="596" y="-40" font-family="Helvetica,sans-Serif" font-size="10.00">tail</text>
</g>
<!-- Node8&#45;&gt;Node7 -->
<g id="edge12" class="edge">
<title>Node8&#45;&gt;Node7</title>
<path fill="none" stroke="#9a32cd" stroke-dasharray="5,2" d="M507.23,-30.07C506.72,-32.39 506.29,-34.73 506,-37 504.74,-46.7 505.09,-49.26 506,-59 506.56,-64.97 507.81,-71.59 508.92,-76.73"/>
<polygon fill="#9a32cd" stroke="#9a32cd" points="510.54,-31.25 509.7,-20.68 503.77,-29.46 510.54,-31.25"/>
<text text-anchor="middle" x="515" y="-45.5" font-family="Helvetica,sans-Serif" font-size="10.00"> link</text>
</g>
<!-- Node9&#45;&gt;Node4 -->
<g id="edge14" class="edge">
<title>Node9&#45;&gt;Node4</title>
<path fill="none" stroke="#9a32cd" stroke-dasharray="5,2" d="M638.55,-29.8C657.09,-70.34 691.95,-164.57 642,-213 620.85,-233.5 536,-238.23 489.63,-239.26"/>
<polygon fill="#9a32cd" stroke="#9a32cd" points="641.74,-28.36 634.28,-20.83 635.42,-31.36 641.74,-28.36"/>
<text text-anchor="middle" x="702.5" y="-117" font-family="Helvetica,sans-Serif" font-size="10.00"> owned_mutexes</text>
</g>
<!-- Node10 -->
<g id="node10" class="node">
<title>Node10</title>
<g id="a_node10"><a xlink:href="structOSExecParams.html" target="_top" xlink:title=" ">
<polygon fill="white" stroke="#666666" points="166,-250 80,-250 80,-231 166,-231 166,-250"/>
<text text-anchor="middle" x="123" y="-238" font-family="Helvetica,sans-Serif" font-size="10.00">OSExecParams</text>
</a>
</g>
</g>
<!-- Node10&#45;&gt;Node1 -->
<g id="edge16" class="edge">
<title>Node10&#45;&gt;Node1</title>
<path fill="none" stroke="#9a32cd" stroke-dasharray="5,2" d="M118.97,-219.65C117.52,-207.51 117.58,-192.05 124,-180 128.01,-172.47 135.21,-166.64 142.28,-162.38"/>
<polygon fill="#9a32cd" stroke="#9a32cd" points="115.48,-220.03 120.57,-229.32 122.39,-218.89 115.48,-220.03"/>
<text text-anchor="middle" x="151" y="-194" font-family="Helvetica,sans-Serif" font-size="10.00"> field_0x30f0</text>
</g>
</g>
</svg>
