<?xml version="1.0" encoding="UTF-8" standalone="no"?>
<!DOCTYPE svg PUBLIC "-//W3C//DTD SVG 1.1//EN"
 "http://www.w3.org/Graphics/SVG/1.1/DTD/svg11.dtd">
<!-- Generated by graphviz version 7.0.5 (20221223.1930)
 -->
<!-- Title: dDrawPath_c::floor_class Pages: 1 -->
<svg width="274pt" height="181pt"
 viewBox="0.00 0.00 274.00 181.00" xmlns="http://www.w3.org/2000/svg" xmlns:xlink="http://www.w3.org/1999/xlink">
<g id="graph0" class="graph" transform="scale(1 1) rotate(0) translate(4 177)">
<title>dDrawPath_c::floor_class</title>
<!-- Node1 -->
<g id="node1" class="node">
<title>Node1</title>
<g id="a_node1"><a xlink:title=" ">
<polygon fill="#999999" stroke="#666666" points="181.5,-30 83.5,-30 83.5,0 181.5,0 181.5,-30"/>
<text text-anchor="start" x="91.5" y="-18" font-family="Helvetica,sans-Serif" font-size="10.00">dDrawPath_c::floor</text>
<text text-anchor="middle" x="132.5" y="-7" font-family="Helvetica,sans-Serif" font-size="10.00">_class</text>
</a>
</g>
</g>
<!-- Node2 -->
<g id="node2" class="node">
<title>Node2</title>
<g id="a_node2"><a xlink:href="structdDrawPath__c_1_1group__class.html" target="_top" xlink:title=" ">
<polygon fill="white" stroke="#666666" points="184.5,-107 80.5,-107 80.5,-77 184.5,-77 184.5,-107"/>
<text text-anchor="start" x="88.5" y="-95" font-family="Helvetica,sans-Serif" font-size="10.00">dDrawPath_c::group</text>
<text text-anchor="middle" x="132.5" y="-84" font-family="Helvetica,sans-Serif" font-size="10.00">_class</text>
</a>
</g>
</g>
<!-- Node2&#45;&gt;Node1 -->
<g id="edge1" class="edge">
<title>Node2&#45;&gt;Node1</title>
<path fill="none" stroke="#9a32cd" stroke-dasharray="5,2" d="M132.5,-65.23C132.5,-53.58 132.5,-40.26 132.5,-30.42"/>
<polygon fill="#9a32cd" stroke="#9a32cd" points="129,-65.03 132.5,-75.03 136,-65.03 129,-65.03"/>
<text text-anchor="middle" x="154" y="-51" font-family="Helvetica,sans-Serif" font-size="10.00"> mpGroup</text>
</g>
<!-- Node3 -->
<g id="node3" class="node">
<title>Node3</title>
<g id="a_node3"><a xlink:href="structdDrawPath__c_1_1line__class.html" target="_top" xlink:title=" ">
<polygon fill="white" stroke="#666666" points="123,-173 0,-173 0,-154 123,-154 123,-173"/>
<text text-anchor="middle" x="61.5" y="-161" font-family="Helvetica,sans-Serif" font-size="10.00">dDrawPath_c::line_class</text>
</a>
</g>
</g>
<!-- Node3&#45;&gt;Node2 -->
<g id="edge2" class="edge">
<title>Node3&#45;&gt;Node2</title>
<path fill="none" stroke="#9a32cd" stroke-dasharray="5,2" d="M78.43,-145.93C90.46,-134.15 106.45,-118.5 117.92,-107.27"/>
<polygon fill="#9a32cd" stroke="#9a32cd" points="76.27,-143.14 71.57,-152.64 81.17,-148.14 76.27,-143.14"/>
<text text-anchor="middle" x="117" y="-128" font-family="Helvetica,sans-Serif" font-size="10.00"> mpLine</text>
</g>
<!-- Node4 -->
<g id="node4" class="node">
<title>Node4</title>
<g id="a_node4"><a xlink:href="structdDrawPath__c_1_1poly__class.html" target="_top" xlink:title=" ">
<polygon fill="white" stroke="#666666" points="266,-173 141,-173 141,-154 266,-154 266,-173"/>
<text text-anchor="middle" x="203.5" y="-161" font-family="Helvetica,sans-Serif" font-size="10.00">dDrawPath_c::poly_class</text>
</a>
</g>
</g>
<!-- Node4&#45;&gt;Node2 -->
<g id="edge3" class="edge">
<title>Node4&#45;&gt;Node2</title>
<path fill="none" stroke="#9a32cd" stroke-dasharray="5,2" d="M186.57,-145.93C174.54,-134.15 158.55,-118.5 147.08,-107.27"/>
<polygon fill="#9a32cd" stroke="#9a32cd" points="183.83,-148.14 193.43,-152.64 188.73,-143.14 183.83,-148.14"/>
<text text-anchor="middle" x="191" y="-128" font-family="Helvetica,sans-Serif" font-size="10.00"> mpPoly</text>
</g>
</g>
</svg>
