<?xml version="1.0" encoding="UTF-8" standalone="no"?>
<!DOCTYPE svg PUBLIC "-//W3C//DTD SVG 1.1//EN"
 "http://www.w3.org/Graphics/SVG/1.1/DTD/svg11.dtd">
<!-- Generated by graphviz version 7.0.5 (20221223.1930)
 -->
<!-- Title: dMenu_Fmap_world_data_c Pages: 1 -->
<svg width="1679pt" height="255pt"
 viewBox="0.00 0.00 1679.00 255.00" xmlns="http://www.w3.org/2000/svg" xmlns:xlink="http://www.w3.org/1999/xlink">
<g id="graph0" class="graph" transform="scale(1 1) rotate(0) translate(4 251)">
<title>dMenu_Fmap_world_data_c</title>
<!-- Node1 -->
<g id="node1" class="node">
<title>Node1</title>
<g id="a_node1"><a xlink:title=" ">
<polygon fill="#999999" stroke="#666666" points="1671,-19 1532,-19 1532,0 1671,0 1671,-19"/>
<text text-anchor="middle" x="1601.5" y="-7" font-family="Helvetica,sans-Serif" font-size="10.00">dMenu_Fmap_world_data_c</text>
</a>
</g>
</g>
<!-- Node2 -->
<g id="node2" class="node">
<title>Node2</title>
<g id="a_node2"><a xlink:href="structdMenu__Fmap__region__data__c.html" target="_top" xlink:title=" ">
<polygon fill="white" stroke="#666666" points="1402,-19 1260,-19 1260,0 1402,0 1402,-19"/>
<text text-anchor="middle" x="1331" y="-7" font-family="Helvetica,sans-Serif" font-size="10.00">dMenu_Fmap_region_data_c</text>
</a>
</g>
</g>
<!-- Node2&#45;&gt;Node1 -->
<g id="edge1" class="edge">
<title>Node2&#45;&gt;Node1</title>
<path fill="none" stroke="#9a32cd" stroke-dasharray="5,2" d="M1413.67,-9.5C1451.38,-9.5 1495.66,-9.5 1531.64,-9.5"/>
<polygon fill="#9a32cd" stroke="#9a32cd" points="1413.71,-6 1403.71,-9.5 1413.71,-13 1413.71,-6"/>
<text text-anchor="middle" x="1467" y="-12.5" font-family="Helvetica,sans-Serif" font-size="10.00"> mp_fmapRegionData</text>
</g>
<!-- Node2&#45;&gt;Node2 -->
<g id="edge25" class="edge">
<title>Node2&#45;&gt;Node2</title>
<path fill="none" stroke="#9a32cd" stroke-dasharray="5,2" d="M1306.86,-30.43C1309.88,-34.29 1317.93,-37 1331,-37 1354.91,-37 1362,-27.94 1352.29,-19.37"/>
<polygon fill="#9a32cd" stroke="#9a32cd" points="1310.23,-31.39 1309.33,-20.83 1303.45,-29.65 1310.23,-31.39"/>
<text text-anchor="middle" x="1331" y="-40" font-family="Helvetica,sans-Serif" font-size="10.00"> mpNextData</text>
</g>
<!-- Node3 -->
<g id="node3" class="node">
<title>Node3</title>
<g id="a_node3"><a xlink:href="structdMenu__Fmap__stage__data__c.html" target="_top" xlink:title=" ">
<polygon fill="white" stroke="#666666" points="1071,-47 931,-47 931,-28 1071,-28 1071,-47"/>
<text text-anchor="middle" x="1001" y="-35" font-family="Helvetica,sans-Serif" font-size="10.00">dMenu_Fmap_stage_data_c</text>
</a>
</g>
</g>
<!-- Node3&#45;&gt;Node2 -->
<g id="edge2" class="edge">
<title>Node3&#45;&gt;Node2</title>
<path fill="none" stroke="#9a32cd" stroke-dasharray="5,2" d="M1037.74,-23.79C1053.24,-18.52 1071.77,-13.15 1089,-10.5 1145.97,-1.74 1211.41,-2.12 1259.71,-4.34"/>
<polygon fill="#9a32cd" stroke="#9a32cd" points="1036.73,-20.43 1028.47,-27.05 1039.06,-27.03 1036.73,-20.43"/>
<text text-anchor="middle" x="1165.5" y="-13.5" font-family="Helvetica,sans-Serif" font-size="10.00"> mpMenuFmapStageDataTop</text>
</g>
<!-- Node3&#45;&gt;Node3 -->
<g id="edge24" class="edge">
<title>Node3&#45;&gt;Node3</title>
<path fill="none" stroke="#9a32cd" stroke-dasharray="5,2" d="M977.93,-58.43C980.81,-62.29 988.5,-65 1001,-65 1023.85,-65 1030.64,-55.94 1021.35,-47.37"/>
<polygon fill="#9a32cd" stroke="#9a32cd" points="981.29,-59.38 980.29,-48.84 974.5,-57.71 981.29,-59.38"/>
<text text-anchor="middle" x="1001" y="-68" font-family="Helvetica,sans-Serif" font-size="10.00"> mpNextData</text>
</g>
<!-- Node5 -->
<g id="node5" class="node">
<title>Node5</title>
<g id="a_node5"><a xlink:href="structdMenu__Fmap__room__data__c.html" target="_top" xlink:title=" ">
<polygon fill="white" stroke="#666666" points="1399.5,-104 1262.5,-104 1262.5,-85 1399.5,-85 1399.5,-104"/>
<text text-anchor="middle" x="1331" y="-92" font-family="Helvetica,sans-Serif" font-size="10.00">dMenu_Fmap_room_data_c</text>
</a>
</g>
</g>
<!-- Node3&#45;&gt;Node5 -->
<g id="edge23" class="edge">
<title>Node3&#45;&gt;Node5</title>
<path fill="none" stroke="#9a32cd" stroke-dasharray="5,2" d="M1082.51,-26.75C1130.22,-23.38 1191.09,-24.44 1242,-42.5 1251.55,-45.89 1251.52,-50.95 1260,-56.5 1276.09,-67.02 1295.34,-77.32 1309.58,-84.54"/>
<polygon fill="#9a32cd" stroke="#9a32cd" points="1082.51,-23.23 1072.81,-27.51 1083.06,-30.21 1082.51,-23.23"/>
<text text-anchor="middle" x="1165.5" y="-45.5" font-family="Helvetica,sans-Serif" font-size="10.00"> mp_parentStage</text>
</g>
<!-- Node4 -->
<g id="node4" class="node">
<title>Node4</title>
<g id="a_node4"><a xlink:href="classdMenu__Fmap__stage__arc__data__c.html" target="_top" xlink:title=" ">
<polygon fill="white" stroke="#666666" points="799.5,-46.5 675.5,-46.5 675.5,-16.5 799.5,-16.5 799.5,-46.5"/>
<text text-anchor="start" x="683.5" y="-34.5" font-family="Helvetica,sans-Serif" font-size="10.00">dMenu_Fmap_stage_arc</text>
<text text-anchor="middle" x="737.5" y="-23.5" font-family="Helvetica,sans-Serif" font-size="10.00">_data_c</text>
</a>
</g>
</g>
<!-- Node4&#45;&gt;Node3 -->
<g id="edge3" class="edge">
<title>Node4&#45;&gt;Node3</title>
<path fill="none" stroke="#9a32cd" stroke-dasharray="5,2" d="M811.14,-33.17C848.53,-34.02 893.89,-35.07 930.78,-35.91"/>
<polygon fill="#9a32cd" stroke="#9a32cd" points="811.4,-29.67 801.32,-32.94 811.24,-36.67 811.4,-29.67"/>
<text text-anchor="middle" x="871" y="-38.5" font-family="Helvetica,sans-Serif" font-size="10.00"> mpStageArc</text>
</g>
<!-- Node5&#45;&gt;Node3 -->
<g id="edge4" class="edge">
<title>Node5&#45;&gt;Node3</title>
<path fill="none" stroke="#9a32cd" stroke-dasharray="5,2" d="M1252.29,-82.8C1204.99,-75.47 1143.41,-65.53 1089,-55.5 1075.8,-53.07 1061.53,-50.21 1048.43,-47.5"/>
<polygon fill="#9a32cd" stroke="#9a32cd" points="1251.46,-86.22 1261.88,-84.29 1252.53,-79.3 1251.46,-86.22"/>
<text text-anchor="middle" x="1165.5" y="-83.5" font-family="Helvetica,sans-Serif" font-size="10.00"> mp_roomTop</text>
</g>
<!-- Node5&#45;&gt;Node5 -->
<g id="edge22" class="edge">
<title>Node5&#45;&gt;Node5</title>
<path fill="none" stroke="#9a32cd" stroke-dasharray="5,2" d="M1306.86,-115.43C1309.88,-119.29 1317.93,-122 1331,-122 1354.91,-122 1362,-112.94 1352.29,-104.37"/>
<polygon fill="#9a32cd" stroke="#9a32cd" points="1310.23,-116.39 1309.33,-105.83 1303.45,-114.65 1310.23,-116.39"/>
<text text-anchor="middle" x="1331" y="-125" font-family="Helvetica,sans-Serif" font-size="10.00"> mp_nextData</text>
</g>
<!-- Node6 -->
<g id="node6" class="node">
<title>Node6</title>
<g id="a_node6"><a xlink:href="classdMenu__Fmap__data__c.html" target="_top" xlink:title=" ">
<polygon fill="white" stroke="#666666" points="1056,-121 946,-121 946,-102 1056,-102 1056,-121"/>
<text text-anchor="middle" x="1001" y="-109" font-family="Helvetica,sans-Serif" font-size="10.00">dMenu_Fmap_data_c</text>
</a>
</g>
</g>
<!-- Node6&#45;&gt;Node5 -->
<g id="edge5" class="edge">
<title>Node6&#45;&gt;Node5</title>
<path fill="none" stroke="#9a32cd" stroke-dasharray="5,2" d="M1067.45,-108.11C1123.86,-105.18 1204.99,-100.98 1262.1,-98.02"/>
<polygon fill="#9a32cd" stroke="#9a32cd" points="1067.48,-104.6 1057.67,-108.61 1067.84,-111.59 1067.48,-104.6"/>
<text text-anchor="middle" x="1165.5" y="-109.5" font-family="Helvetica,sans-Serif" font-size="10.00"> mp_fmapData</text>
</g>
<!-- Node7 -->
<g id="node7" class="node">
<title>Node7</title>
<g id="a_node7"><a xlink:href="structdTres__c_1_1list__class.html" target="_top" xlink:title=" ">
<polygon fill="white" stroke="#666666" points="786.5,-158 688.5,-158 688.5,-139 786.5,-139 786.5,-158"/>
<text text-anchor="middle" x="737.5" y="-146" font-family="Helvetica,sans-Serif" font-size="10.00">dTres_c::list_class</text>
</a>
</g>
</g>
<!-- Node7&#45;&gt;Node6 -->
<g id="edge6" class="edge">
<title>Node7&#45;&gt;Node6</title>
<path fill="none" stroke="#9a32cd" stroke-dasharray="5,2" d="M797.74,-140.53C831.53,-135.94 874.65,-130 913,-124.5 923.58,-122.98 934.88,-121.32 945.72,-119.71"/>
<polygon fill="#9a32cd" stroke="#9a32cd" points="797.6,-137.01 788.16,-141.83 798.54,-143.95 797.6,-137.01"/>
<text text-anchor="middle" x="871" y="-138.5" font-family="Helvetica,sans-Serif" font-size="10.00"> mp_tresure</text>
</g>
<!-- Node8 -->
<g id="node8" class="node">
<title>Node8</title>
<g id="a_node8"><a xlink:href="structdTres__c_1_1typeGroupData__c.html" target="_top" xlink:title=" ">
<polygon fill="white" stroke="#666666" points="523,-152 392,-152 392,-133 523,-133 523,-152"/>
<text text-anchor="middle" x="457.5" y="-140" font-family="Helvetica,sans-Serif" font-size="10.00">dTres_c::typeGroupData_c</text>
</a>
</g>
</g>
<!-- Node8&#45;&gt;Node7 -->
<g id="edge7" class="edge">
<title>Node8&#45;&gt;Node7</title>
<path fill="none" stroke="#9a32cd" stroke-dasharray="5,2" d="M534.83,-144.15C583.79,-145.2 645.86,-146.54 688.12,-147.46"/>
<polygon fill="#9a32cd" stroke="#9a32cd" points="534.91,-140.65 524.84,-143.93 534.76,-147.65 534.91,-140.65"/>
<text text-anchor="middle" x="593.5" y="-148.5" font-family="Helvetica,sans-Serif" font-size="10.00"> field_0x4</text>
</g>
<!-- Node8&#45;&gt;Node8 -->
<g id="edge10" class="edge">
<title>Node8&#45;&gt;Node8</title>
<path fill="none" stroke="#9a32cd" stroke-dasharray="5,2" d="M437.71,-163.43C440.18,-167.29 446.78,-170 457.5,-170 477.1,-170 482.92,-160.94 474.96,-152.37"/>
<polygon fill="#9a32cd" stroke="#9a32cd" points="441.09,-164.36 439.73,-153.85 434.24,-162.91 441.09,-164.36"/>
<text text-anchor="middle" x="457.5" y="-173" font-family="Helvetica,sans-Serif" font-size="10.00"> mNextData</text>
</g>
<!-- Node9 -->
<g id="node9" class="node">
<title>Node9</title>
<g id="a_node9"><a xlink:href="structdTres__c_1_1data__s.html" target="_top" xlink:title=" ">
<polygon fill="white" stroke="#666666" points="291,-168 205,-168 205,-149 291,-149 291,-168"/>
<text text-anchor="middle" x="248" y="-156" font-family="Helvetica,sans-Serif" font-size="10.00">dTres_c::data_s</text>
</a>
</g>
</g>
<!-- Node9&#45;&gt;Node8 -->
<g id="edge8" class="edge">
<title>Node9&#45;&gt;Node8</title>
<path fill="none" stroke="#63b8ff" d="M302.73,-154.36C329.87,-152.26 363.02,-149.71 391.58,-147.51"/>
<polygon fill="#63b8ff" stroke="#63b8ff" points="302.7,-150.85 293,-155.11 303.24,-157.83 302.7,-150.85"/>
</g>
<!-- Node19 -->
<g id="node19" class="node">
<title>Node19</title>
<g id="a_node19"><a xlink:href="classfmpTresTypeGroupData__c.html" target="_top" xlink:title=" ">
<polygon fill="white" stroke="#666666" points="523,-218 392,-218 392,-199 523,-199 523,-218"/>
<text text-anchor="middle" x="457.5" y="-206" font-family="Helvetica,sans-Serif" font-size="10.00">fmpTresTypeGroupData_c</text>
</a>
</g>
</g>
<!-- Node9&#45;&gt;Node19 -->
<g id="edge20" class="edge">
<title>Node9&#45;&gt;Node19</title>
<path fill="none" stroke="#9a32cd" stroke-dasharray="5,2" d="M301.52,-171.16C336.73,-179.64 382.44,-190.65 415.08,-198.52"/>
<polygon fill="#9a32cd" stroke="#9a32cd" points="302.51,-167.79 291.96,-168.85 300.87,-174.6 302.51,-167.79"/>
<text text-anchor="middle" x="346" y="-190.5" font-family="Helvetica,sans-Serif" font-size="10.00"> mpTresData</text>
</g>
<!-- Node10 -->
<g id="node10" class="node">
<title>Node10</title>
<g id="a_node10"><a xlink:href="structVec.html" target="_top" xlink:title=" ">
<polygon fill="white" stroke="#666666" points="79.5,-168 45.5,-168 45.5,-149 79.5,-149 79.5,-168"/>
<text text-anchor="middle" x="62.5" y="-156" font-family="Helvetica,sans-Serif" font-size="10.00">Vec</text>
</a>
</g>
</g>
<!-- Node10&#45;&gt;Node9 -->
<g id="edge9" class="edge">
<title>Node10&#45;&gt;Node9</title>
<path fill="none" stroke="#9a32cd" stroke-dasharray="5,2" d="M91.11,-158.5C121.25,-158.5 169.88,-158.5 204.81,-158.5"/>
<polygon fill="#9a32cd" stroke="#9a32cd" points="91.3,-155 81.3,-158.5 91.3,-162 91.3,-155"/>
<text text-anchor="middle" x="160.5" y="-161.5" font-family="Helvetica,sans-Serif" font-size="10.00"> mPos</text>
</g>
<!-- Node11 -->
<g id="node11" class="node">
<title>Node11</title>
<g id="a_node11"><a xlink:href="classdStage__FileList2__dt__c.html" target="_top" xlink:title=" ">
<polygon fill="white" stroke="#666666" points="794.5,-121 680.5,-121 680.5,-102 794.5,-102 794.5,-121"/>
<text text-anchor="middle" x="737.5" y="-109" font-family="Helvetica,sans-Serif" font-size="10.00">dStage_FileList2_dt_c</text>
</a>
</g>
</g>
<!-- Node11&#45;&gt;Node6 -->
<g id="edge11" class="edge">
<title>Node11&#45;&gt;Node6</title>
<path fill="none" stroke="#9a32cd" stroke-dasharray="5,2" d="M806.26,-111.5C849.74,-111.5 905.41,-111.5 945.92,-111.5"/>
<polygon fill="#9a32cd" stroke="#9a32cd" points="806.43,-108 796.43,-111.5 806.43,-115 806.43,-108"/>
<text text-anchor="middle" x="871" y="-114.5" font-family="Helvetica,sans-Serif" font-size="10.00"> m_fileList2</text>
</g>
<!-- Node12 -->
<g id="node12" class="node">
<title>Node12</title>
<g id="a_node12"><a xlink:href="structdDrawPath__c_1_1room__class.html" target="_top" xlink:title=" ">
<polygon fill="white" stroke="#666666" points="802.5,-84 672.5,-84 672.5,-65 802.5,-65 802.5,-84"/>
<text text-anchor="middle" x="737.5" y="-72" font-family="Helvetica,sans-Serif" font-size="10.00">dDrawPath_c::room_class</text>
</a>
</g>
</g>
<!-- Node12&#45;&gt;Node6 -->
<g id="edge12" class="edge">
<title>Node12&#45;&gt;Node6</title>
<path fill="none" stroke="#9a32cd" stroke-dasharray="5,2" d="M813.91,-83.25C844.68,-87.02 880.59,-91.67 913,-96.5 923.61,-98.08 934.92,-99.92 945.76,-101.76"/>
<polygon fill="#9a32cd" stroke="#9a32cd" points="814.68,-79.82 804.33,-82.09 813.83,-86.77 814.68,-79.82"/>
<text text-anchor="middle" x="871" y="-99.5" font-family="Helvetica,sans-Serif" font-size="10.00"> mp_mapPath</text>
</g>
<!-- Node13 -->
<g id="node13" class="node">
<title>Node13</title>
<g id="a_node13"><a xlink:href="structdDrawPath__c_1_1floor__class.html" target="_top" xlink:title=" ">
<polygon fill="white" stroke="#666666" points="506.5,-89.5 408.5,-89.5 408.5,-59.5 506.5,-59.5 506.5,-89.5"/>
<text text-anchor="start" x="416.5" y="-77.5" font-family="Helvetica,sans-Serif" font-size="10.00">dDrawPath_c::floor</text>
<text text-anchor="middle" x="457.5" y="-66.5" font-family="Helvetica,sans-Serif" font-size="10.00">_class</text>
</a>
</g>
</g>
<!-- Node13&#45;&gt;Node12 -->
<g id="edge13" class="edge">
<title>Node13&#45;&gt;Node12</title>
<path fill="none" stroke="#9a32cd" stroke-dasharray="5,2" d="M518.36,-74.5C563.68,-74.5 625.84,-74.5 672.21,-74.5"/>
<polygon fill="#9a32cd" stroke="#9a32cd" points="518.44,-71 508.44,-74.5 518.44,-78 518.44,-71"/>
<text text-anchor="middle" x="593.5" y="-77.5" font-family="Helvetica,sans-Serif" font-size="10.00"> mpFloor</text>
</g>
<!-- Node14 -->
<g id="node14" class="node">
<title>Node14</title>
<g id="a_node14"><a xlink:href="structdDrawPath__c_1_1group__class.html" target="_top" xlink:title=" ">
<polygon fill="white" stroke="#666666" points="300,-89.5 196,-89.5 196,-59.5 300,-59.5 300,-89.5"/>
<text text-anchor="start" x="204" y="-77.5" font-family="Helvetica,sans-Serif" font-size="10.00">dDrawPath_c::group</text>
<text text-anchor="middle" x="248" y="-66.5" font-family="Helvetica,sans-Serif" font-size="10.00">_class</text>
</a>
</g>
</g>
<!-- Node14&#45;&gt;Node13 -->
<g id="edge14" class="edge">
<title>Node14&#45;&gt;Node13</title>
<path fill="none" stroke="#9a32cd" stroke-dasharray="5,2" d="M311.44,-74.5C342.5,-74.5 379.45,-74.5 408.29,-74.5"/>
<polygon fill="#9a32cd" stroke="#9a32cd" points="311.81,-71 301.81,-74.5 311.81,-78 311.81,-71"/>
<text text-anchor="middle" x="346" y="-77.5" font-family="Helvetica,sans-Serif" font-size="10.00"> mpGroup</text>
</g>
<!-- Node15 -->
<g id="node15" class="node">
<title>Node15</title>
<g id="a_node15"><a xlink:href="structdDrawPath__c_1_1line__class.html" target="_top" xlink:title=" ">
<polygon fill="white" stroke="#666666" points="124,-113 1,-113 1,-94 124,-94 124,-113"/>
<text text-anchor="middle" x="62.5" y="-101" font-family="Helvetica,sans-Serif" font-size="10.00">dDrawPath_c::line_class</text>
</a>
</g>
</g>
<!-- Node15&#45;&gt;Node14 -->
<g id="edge15" class="edge">
<title>Node15&#45;&gt;Node14</title>
<path fill="none" stroke="#9a32cd" stroke-dasharray="5,2" d="M135.62,-92.1C155.63,-88.94 176.95,-85.57 195.52,-82.64"/>
<polygon fill="#9a32cd" stroke="#9a32cd" points="135.17,-88.63 125.84,-93.65 136.27,-95.54 135.17,-88.63"/>
<text text-anchor="middle" x="160.5" y="-93.5" font-family="Helvetica,sans-Serif" font-size="10.00"> mpLine</text>
</g>
<!-- Node16 -->
<g id="node16" class="node">
<title>Node16</title>
<g id="a_node16"><a xlink:href="structdDrawPath__c_1_1poly__class.html" target="_top" xlink:title=" ">
<polygon fill="white" stroke="#666666" points="125,-76 0,-76 0,-57 125,-57 125,-76"/>
<text text-anchor="middle" x="62.5" y="-64" font-family="Helvetica,sans-Serif" font-size="10.00">dDrawPath_c::poly_class</text>
</a>
</g>
</g>
<!-- Node16&#45;&gt;Node14 -->
<g id="edge16" class="edge">
<title>Node16&#45;&gt;Node14</title>
<path fill="none" stroke="#9a32cd" stroke-dasharray="5,2" d="M136.69,-68.81C150.42,-69.31 164.65,-69.88 178,-70.5 183.75,-70.77 189.78,-71.07 195.76,-71.4"/>
<polygon fill="#9a32cd" stroke="#9a32cd" points="136.94,-65.31 126.82,-68.45 136.69,-72.31 136.94,-65.31"/>
<text text-anchor="middle" x="160.5" y="-73.5" font-family="Helvetica,sans-Serif" font-size="10.00"> mpPoly</text>
</g>
<!-- Node17 -->
<g id="node17" class="node">
<title>Node17</title>
<g id="a_node17"><a xlink:href="classfmpTresTypeGroupDataListAll__c.html" target="_top" xlink:title=" ">
<polygon fill="white" stroke="#666666" points="1069.5,-181.5 932.5,-181.5 932.5,-151.5 1069.5,-151.5 1069.5,-181.5"/>
<text text-anchor="start" x="940.5" y="-169.5" font-family="Helvetica,sans-Serif" font-size="10.00">fmpTresTypeGroupDataList</text>
<text text-anchor="middle" x="1001" y="-158.5" font-family="Helvetica,sans-Serif" font-size="10.00">All_c</text>
</a>
</g>
</g>
<!-- Node17&#45;&gt;Node5 -->
<g id="edge17" class="edge">
<title>Node17&#45;&gt;Node5</title>
<path fill="none" stroke="#9a32cd" stroke-dasharray="5,2" d="M1081.27,-153.94C1128.28,-145.92 1188.86,-134.59 1242,-121.5 1261.71,-116.65 1283.52,-109.96 1300.5,-104.46"/>
<polygon fill="#9a32cd" stroke="#9a32cd" points="1080.71,-150.49 1071.43,-155.6 1081.87,-157.39 1080.71,-150.49"/>
<text text-anchor="middle" x="1165.5" y="-154.5" font-family="Helvetica,sans-Serif" font-size="10.00"> mp_fmpTresTypeGroupDataListAll</text>
</g>
<!-- Node18 -->
<g id="node18" class="node">
<title>Node18</title>
<g id="a_node18"><a xlink:href="structfmpTresTypeGroupDataList__c.html" target="_top" xlink:title=" ">
<polygon fill="white" stroke="#666666" points="811,-209 664,-209 664,-190 811,-190 811,-209"/>
<text text-anchor="middle" x="737.5" y="-197" font-family="Helvetica,sans-Serif" font-size="10.00">fmpTresTypeGroupDataList_c</text>
</a>
</g>
</g>
<!-- Node18&#45;&gt;Node17 -->
<g id="edge18" class="edge">
<title>Node18&#45;&gt;Node17</title>
<path fill="none" stroke="#9a32cd" stroke-dasharray="5,2" d="M822.63,-188.88C858,-184.42 898.61,-179.3 932.04,-175.08"/>
<polygon fill="#9a32cd" stroke="#9a32cd" points="822.33,-185.39 812.84,-190.12 823.2,-192.34 822.33,-185.39"/>
<text text-anchor="middle" x="871" y="-190.5" font-family="Helvetica,sans-Serif" font-size="10.00"> mpTypeGroupData</text>
</g>
<!-- Node19&#45;&gt;Node18 -->
<g id="edge19" class="edge">
<title>Node19&#45;&gt;Node18</title>
<path fill="none" stroke="#9a32cd" stroke-dasharray="5,2" d="M534.69,-206.03C574.92,-204.73 624.02,-203.14 663.73,-201.86"/>
<polygon fill="#9a32cd" stroke="#9a32cd" points="534.72,-202.53 524.84,-206.35 534.95,-209.53 534.72,-202.53"/>
<text text-anchor="middle" x="593.5" y="-219.5" font-family="Helvetica,sans-Serif" font-size="10.00"> mpNextData</text>
<text text-anchor="middle" x="593.5" y="-208.5" font-family="Helvetica,sans-Serif" font-size="10.00">mpTypeGroupDataHead</text>
</g>
<!-- Node19&#45;&gt;Node19 -->
<g id="edge21" class="edge">
<title>Node19&#45;&gt;Node19</title>
<path fill="none" stroke="#9a32cd" stroke-dasharray="5,2" d="M437.71,-229.43C440.18,-233.29 446.78,-236 457.5,-236 477.1,-236 482.92,-226.94 474.96,-218.37"/>
<polygon fill="#9a32cd" stroke="#9a32cd" points="441.09,-230.36 439.73,-219.85 434.24,-228.91 441.09,-230.36"/>
<text text-anchor="middle" x="457.5" y="-239" font-family="Helvetica,sans-Serif" font-size="10.00"> mpNext</text>
</g>
</g>
</svg>
