<?xml version="1.0" encoding="UTF-8" standalone="no"?>
<!DOCTYPE svg PUBLIC "-//W3C//DTD SVG 1.1//EN"
 "http://www.w3.org/Graphics/SVG/1.1/DTD/svg11.dtd">
<!-- Generated by graphviz version 7.0.5 (20221223.1930)
 -->
<!-- Title: JASThreadingModel::ObjectLevelLockable::Lock Pages: 1 -->
<!--zoomable 258 -->
<svg id="main" version="1.1" xmlns="http://www.w3.org/2000/svg" xmlns:xlink="http://www.w3.org/1999/xlink" xml:space="preserve" onload="init(evt)">
<style type="text/css"><![CDATA[
.edge:hover path { stroke: red; }
.edge:hover polygon { stroke: red; fill: red; }
]]></style>
<script type="text/javascript"><![CDATA[
var edges = document.getElementsByTagName('g');
if (edges && edges.length) {
  for (var i=0;i<edges.length;i++) {
    if (edges[i].id.substr(0,4)=='edge') {
      edges[i].setAttribute('class','edge');
    }
  }
}
]]></script>
        <defs>
                <circle id="rim" cx="0" cy="0" r="7"/>
                <circle id="rim2" cx="0" cy="0" r="3.5"/>
                <g id="zoomPlus">
                        <use xlink:href="#rim" fill="#404040">
                                <set attributeName="fill" to="#808080" begin="zoomplus.mouseover" end="zoomplus.mouseout"/>
                        </use>
                        <path d="M-4,0h8M0,-4v8" fill="none" stroke="white" stroke-width="1.5" pointer-events="none"/>
                </g>
                <g id="zoomMin">
                        <use xlink:href="#rim" fill="#404040">
                                <set attributeName="fill" to="#808080" begin="zoomminus.mouseover" end="zoomminus.mouseout"/>
                        </use>
                        <path d="M-4,0h8" fill="none" stroke="white" stroke-width="1.5" pointer-events="none"/>
                </g>
                <g id="dirArrow">
                        <path fill="none" stroke="white" stroke-width="1.5" d="M0,-3.0v7 M-2.5,-0.5L0,-3.0L2.5,-0.5"/>
                </g>
               <g id="resetDef">
                       <use xlink:href="#rim2" fill="#404040">
                               <set attributeName="fill" to="#808080" begin="reset.mouseover" end="reset.mouseout"/>
                       </use>
               </g>
        </defs>

<script type="text/javascript">
var viewWidth = 614;
var viewHeight = 258;
var sectionId = 'dynsection-0';
</script>
<script xlink:href="svgpan.js"/>
<svg id="graph" class="graph">
<g id="viewport">
<title>JASThreadingModel::ObjectLevelLockable::Lock</title>
<!-- Node1 -->
<g id="node1" class="node">
<title>Node1</title>
<g id="a_node1"><a xlink:title=" ">
<polygon fill="#999999" stroke="#666666" points="135,-173 0,-173 0,-143 135,-143 135,-173"/>
<text text-anchor="start" x="8" y="-161" font-family="Helvetica,sans-Serif" font-size="10.00">JASThreadingModel::</text>
<text text-anchor="middle" x="67.5" y="-150" font-family="Helvetica,sans-Serif" font-size="10.00">ObjectLevelLockable::Lock</text>
</a>
</g>
</g>
<!-- Node2 -->
<g id="node2" class="node">
<title>Node2</title>
<g id="a_node2"><a xlink:href="structOSMutex.html" target="_top" xlink:title=" ">
<polygon fill="white" stroke="#666666" points="348,-250 291,-250 291,-231 348,-231 348,-250"/>
<text text-anchor="middle" x="319.5" y="-238" font-family="Helvetica,sans-Serif" font-size="10.00">OSMutex</text>
</a>
</g>
</g>
<!-- Node2&#45;&gt;Node1 -->
<g id="edge1" class="edge">
<title>Node2&#45;&gt;Node1</title>
<path fill="none" stroke="#9a32cd" stroke-dasharray="5,2" d="M279.34,-235.08C250.26,-231.16 210.29,-224.26 176.5,-213 146.05,-202.85 113.33,-185.72 91.77,-173.47"/>
<polygon fill="#9a32cd" stroke="#9a32cd" points="278.83,-238.54 289.2,-236.34 279.72,-231.6 278.83,-238.54"/>
<text text-anchor="middle" x="195" y="-199.5" font-family="Helvetica,sans-Serif" font-size="10.00"> mMutex</text>
</g>
<!-- Node4 -->
<g id="node4" class="node">
<title>Node4</title>
<g id="a_node4"><a xlink:href="structOSThread.html" target="_top" xlink:title=" ">
<polygon fill="white" stroke="#666666" points="457,-96 396,-96 396,-77 457,-77 457,-96"/>
<text text-anchor="middle" x="426.5" y="-84" font-family="Helvetica,sans-Serif" font-size="10.00">OSThread</text>
</a>
</g>
</g>
<!-- Node2&#45;&gt;Node4 -->
<g id="edge8" class="edge">
<title>Node2&#45;&gt;Node4</title>
<path fill="none" stroke="#9a32cd" stroke-dasharray="5,2" d="M303.83,-221.74C287.86,-201.39 267.66,-167.66 284.5,-143 309.35,-106.6 361.94,-94.07 395.68,-89.76"/>
<polygon fill="#9a32cd" stroke="#9a32cd" points="301.1,-223.94 310.18,-229.4 306.49,-219.47 301.1,-223.94"/>
<text text-anchor="middle" x="299" y="-155.5" font-family="Helvetica,sans-Serif" font-size="10.00"> mutex</text>
</g>
<!-- Node7 -->
<g id="node7" class="node">
<title>Node7</title>
<g id="a_node7"><a xlink:href="structOSMutexQueue.html" target="_top" xlink:title=" ">
<polygon fill="white" stroke="#666666" points="239.5,-167.5 153.5,-167.5 153.5,-148.5 239.5,-148.5 239.5,-167.5"/>
<text text-anchor="middle" x="196.5" y="-155.5" font-family="Helvetica,sans-Serif" font-size="10.00">OSMutexQueue</text>
</a>
</g>
</g>
<!-- Node2&#45;&gt;Node7 -->
<g id="edge10" class="edge">
<title>Node2&#45;&gt;Node7</title>
<path fill="none" stroke="#9a32cd" stroke-dasharray="5,2" d="M279.6,-231.83C265.43,-227.8 249.92,-221.81 237.5,-213 220.41,-200.88 207.26,-179.51 200.84,-167.61"/>
<polygon fill="#9a32cd" stroke="#9a32cd" points="278.58,-235.18 289.14,-234.27 280.32,-228.4 278.58,-235.18"/>
<text text-anchor="middle" x="249.5" y="-205" font-family="Helvetica,sans-Serif" font-size="10.00"> head</text>
<text text-anchor="middle" x="249.5" y="-194" font-family="Helvetica,sans-Serif" font-size="10.00">tail</text>
</g>
<!-- Node8 -->
<g id="node8" class="node">
<title>Node8</title>
<g id="a_node8"><a xlink:href="structOSMutexLink.html" target="_top" xlink:title=" ">
<polygon fill="white" stroke="#666666" points="398.5,-167.5 322.5,-167.5 322.5,-148.5 398.5,-148.5 398.5,-167.5"/>
<text text-anchor="middle" x="360.5" y="-155.5" font-family="Helvetica,sans-Serif" font-size="10.00">OSMutexLink</text>
</a>
</g>
</g>
<!-- Node2&#45;&gt;Node8 -->
<g id="edge13" class="edge">
<title>Node2&#45;&gt;Node8</title>
<path fill="none" stroke="#9a32cd" stroke-dasharray="5,2" d="M333.35,-221.36C335.18,-218.62 336.96,-215.78 338.5,-213 346.92,-197.76 353.95,-178.62 357.67,-167.7"/>
<polygon fill="#9a32cd" stroke="#9a32cd" points="330.63,-219.14 327.62,-229.3 336.31,-223.23 330.63,-219.14"/>
<text text-anchor="middle" x="360" y="-205" font-family="Helvetica,sans-Serif" font-size="10.00"> next</text>
<text text-anchor="middle" x="360" y="-194" font-family="Helvetica,sans-Serif" font-size="10.00">prev</text>
</g>
<!-- Node3 -->
<g id="node3" class="node">
<title>Node3</title>
<g id="a_node3"><a xlink:href="structOSThreadQueue.html" target="_top" xlink:title=" ">
<polygon fill="white" stroke="#666666" points="580,-19 491,-19 491,0 580,0 580,-19"/>
<text text-anchor="middle" x="535.5" y="-7" font-family="Helvetica,sans-Serif" font-size="10.00">OSThreadQueue</text>
</a>
</g>
</g>
<!-- Node3&#45;&gt;Node2 -->
<g id="edge2" class="edge">
<title>Node3&#45;&gt;Node2</title>
<path fill="none" stroke="#9a32cd" stroke-dasharray="5,2" d="M551.32,-28.39C553.03,-31.12 554.5,-34.03 555.5,-37 574.7,-94.31 591.99,-124.81 555.5,-173 530.32,-206.26 405.36,-227.57 348.16,-235.73"/>
<polygon fill="#9a32cd" stroke="#9a32cd" points="554.3,-26.53 545.49,-20.65 548.71,-30.74 554.3,-26.53"/>
<text text-anchor="middle" x="591" y="-117" font-family="Helvetica,sans-Serif" font-size="10.00"> queue</text>
</g>
<!-- Node3&#45;&gt;Node4 -->
<g id="edge5" class="edge">
<title>Node3&#45;&gt;Node4</title>
<path fill="none" stroke="#9a32cd" stroke-dasharray="5,2" d="M485.2,-23.38C476.47,-26.95 467.85,-31.42 460.5,-37 446.41,-47.7 435.91,-65.91 430.53,-76.72"/>
<polygon fill="#9a32cd" stroke="#9a32cd" points="486.23,-26.73 494.41,-20 483.82,-20.16 486.23,-26.73"/>
<text text-anchor="middle" x="485" y="-51" font-family="Helvetica,sans-Serif" font-size="10.00"> join_queue</text>
<text text-anchor="middle" x="485" y="-40" font-family="Helvetica,sans-Serif" font-size="10.00">queue</text>
</g>
<!-- Node4&#45;&gt;Node2 -->
<g id="edge11" class="edge">
<title>Node4&#45;&gt;Node2</title>
<path fill="none" stroke="#9a32cd" stroke-dasharray="5,2" d="M424.7,-107.77C422.49,-125.68 417.7,-152.11 407.5,-173 397.39,-193.71 392.64,-198.78 374.5,-213 365.24,-220.26 353.67,-226.21 343.54,-230.61"/>
<polygon fill="#9a32cd" stroke="#9a32cd" points="428.17,-108.26 425.73,-97.95 421.21,-107.53 428.17,-108.26"/>
<text text-anchor="middle" x="432.5" y="-155.5" font-family="Helvetica,sans-Serif" font-size="10.00"> thread</text>
</g>
<!-- Node4&#45;&gt;Node3 -->
<g id="edge3" class="edge">
<title>Node4&#45;&gt;Node3</title>
<path fill="none" stroke="#9a32cd" stroke-dasharray="5,2" d="M468.41,-80.18C484.03,-76.41 500.99,-69.98 513.5,-59 525.45,-48.51 531.28,-30.22 533.81,-19.35"/>
<polygon fill="#9a32cd" stroke="#9a32cd" points="467.91,-76.7 458.83,-82.17 469.34,-83.56 467.91,-76.7"/>
<text text-anchor="middle" x="539.5" y="-51" font-family="Helvetica,sans-Serif" font-size="10.00"> head</text>
<text text-anchor="middle" x="539.5" y="-40" font-family="Helvetica,sans-Serif" font-size="10.00">tail</text>
</g>
<!-- Node6 -->
<g id="node6" class="node">
<title>Node6</title>
<g id="a_node6"><a xlink:href="structOSThreadLink.html" target="_top" xlink:title=" ">
<polygon fill="white" stroke="#666666" points="404.5,-19 324.5,-19 324.5,0 404.5,0 404.5,-19"/>
<text text-anchor="middle" x="364.5" y="-7" font-family="Helvetica,sans-Serif" font-size="10.00">OSThreadLink</text>
</a>
</g>
</g>
<!-- Node4&#45;&gt;Node6 -->
<g id="edge7" class="edge">
<title>Node4&#45;&gt;Node6</title>
<path fill="none" stroke="#9a32cd" stroke-dasharray="5,2" d="M417.28,-66.67C412.17,-57.23 405.28,-45.93 397.5,-37 391.71,-30.35 384.1,-24.11 377.64,-19.36"/>
<polygon fill="#9a32cd" stroke="#9a32cd" points="414.04,-68.01 421.72,-75.31 420.26,-64.81 414.04,-68.01"/>
<text text-anchor="middle" x="423" y="-51" font-family="Helvetica,sans-Serif" font-size="10.00"> next</text>
<text text-anchor="middle" x="423" y="-40" font-family="Helvetica,sans-Serif" font-size="10.00">prev</text>
</g>
<!-- Node5 -->
<g id="node5" class="node">
<title>Node5</title>
<g id="a_node5"><a xlink:href="structOSContext.html" target="_top" xlink:title=" ">
<polygon fill="white" stroke="#666666" points="546.5,-167.5 482.5,-167.5 482.5,-148.5 546.5,-148.5 546.5,-167.5"/>
<text text-anchor="middle" x="514.5" y="-155.5" font-family="Helvetica,sans-Serif" font-size="10.00">OSContext</text>
</a>
</g>
</g>
<!-- Node5&#45;&gt;Node4 -->
<g id="edge4" class="edge">
<title>Node5&#45;&gt;Node4</title>
<path fill="none" stroke="#9a32cd" stroke-dasharray="5,2" d="M494.48,-141.19C476.96,-127.35 452.13,-107.74 437.83,-96.45"/>
<polygon fill="#9a32cd" stroke="#9a32cd" points="492.15,-143.81 502.17,-147.26 496.49,-138.32 492.15,-143.81"/>
<text text-anchor="middle" x="489.5" y="-117" font-family="Helvetica,sans-Serif" font-size="10.00"> context</text>
</g>
<!-- Node6&#45;&gt;Node4 -->
<g id="edge6" class="edge">
<title>Node6&#45;&gt;Node4</title>
<path fill="none" stroke="#9a32cd" stroke-dasharray="5,2" d="M322.12,-25.12C317.52,-28.35 313.45,-32.26 310.5,-37 305.33,-45.3 304.4,-51.35 310.5,-59 320.96,-72.12 364.88,-79.26 395.57,-82.73"/>
<polygon fill="#9a32cd" stroke="#9a32cd" points="323.84,-28.17 330.79,-20.17 320.37,-22.09 323.84,-28.17"/>
<text text-anchor="middle" x="354" y="-51" font-family="Helvetica,sans-Serif" font-size="10.00"> active_threads_link</text>
<text text-anchor="middle" x="354" y="-40" font-family="Helvetica,sans-Serif" font-size="10.00">link</text>
</g>
<!-- Node7&#45;&gt;Node4 -->
<g id="edge9" class="edge">
<title>Node7&#45;&gt;Node4</title>
<path fill="none" stroke="#9a32cd" stroke-dasharray="5,2" d="M186.53,-137.97C183.68,-129.7 182.72,-120.46 188.5,-114 202.08,-98.82 334.38,-91.35 395.65,-88.68"/>
<polygon fill="#9a32cd" stroke="#9a32cd" points="183.24,-139.18 190.5,-146.89 189.63,-136.33 183.24,-139.18"/>
<text text-anchor="middle" x="225" y="-117" font-family="Helvetica,sans-Serif" font-size="10.00"> owned_mutexes</text>
</g>
<!-- Node8&#45;&gt;Node2 -->
<g id="edge12" class="edge">
<title>Node8&#45;&gt;Node2</title>
<path fill="none" stroke="#9a32cd" stroke-dasharray="5,2" d="M334.53,-174.3C328.91,-178.91 323.7,-184.51 320.5,-191 314.24,-203.69 315.77,-220.61 317.55,-230.75"/>
<polygon fill="#9a32cd" stroke="#9a32cd" points="336.16,-177.43 342.23,-168.75 332.07,-171.75 336.16,-177.43"/>
<text text-anchor="middle" x="329.5" y="-199.5" font-family="Helvetica,sans-Serif" font-size="10.00"> link</text>
</g>
</g>
</svg>
        <g id="navigator" transform="translate(0 0)" fill="#404254">
                <rect fill="#f2f5e9" fill-opacity="0.5" stroke="#606060" stroke-width=".5" x="0" y="0" width="60" height="60"/>
                <use id="zoomplus" xlink:href="#zoomPlus" x="17" y="9" onmousedown="handleZoom(evt,'in')"/>
                <use id="zoomminus" xlink:href="#zoomMin" x="42" y="9" onmousedown="handleZoom(evt,'out')"/>
                <use id="reset" xlink:href="#resetDef" x="30" y="36" onmousedown="handleReset()"/>
                <g id="arrowUp" xlink:href="#dirArrow" transform="translate(30 24)" onmousedown="handlePan(0,-1)">
                  <use xlink:href="#rim" fill="#404040">
                        <set attributeName="fill" to="#808080" begin="arrowUp.mouseover" end="arrowUp.mouseout"/>
                  </use>
                  <path fill="none" stroke="white" stroke-width="1.5" d="M0,-3.0v7 M-2.5,-0.5L0,-3.0L2.5,-0.5"/>
                </g>
                <g id="arrowRight" xlink:href="#dirArrow" transform="rotate(90) translate(36 -43)" onmousedown="handlePan(1,0)">
                  <use xlink:href="#rim" fill="#404040">
                        <set attributeName="fill" to="#808080" begin="arrowRight.mouseover" end="arrowRight.mouseout"/>
                  </use>
                  <path fill="none" stroke="white" stroke-width="1.5" d="M0,-3.0v7 M-2.5,-0.5L0,-3.0L2.5,-0.5"/>
                </g>
                <g id="arrowDown" xlink:href="#dirArrow" transform="rotate(180) translate(-30 -48)" onmousedown="handlePan(0,1)">
                  <use xlink:href="#rim" fill="#404040">
                        <set attributeName="fill" to="#808080" begin="arrowDown.mouseover" end="arrowDown.mouseout"/>
                  </use>
                  <path fill="none" stroke="white" stroke-width="1.5" d="M0,-3.0v7 M-2.5,-0.5L0,-3.0L2.5,-0.5"/>
                </g>
                <g id="arrowLeft" xlink:href="#dirArrow" transform="rotate(270) translate(-36 17)" onmousedown="handlePan(-1,0)">
                  <use xlink:href="#rim" fill="#404040">
                        <set attributeName="fill" to="#808080" begin="arrowLeft.mouseover" end="arrowLeft.mouseout"/>
                  </use>
                  <path fill="none" stroke="white" stroke-width="1.5" d="M0,-3.0v7 M-2.5,-0.5L0,-3.0L2.5,-0.5"/>
                </g>
        </g>
        <svg viewBox="0 0 15 15" width="100%" height="30px" preserveAspectRatio="xMaxYMin meet">
         <g id="arrow_out" transform="scale(0.3 0.3)">
          <a xlink:href="structJASThreadingModel_1_1ObjectLevelLockable_1_1Lock__coll__graph_org.svg" target="_base">
           <rect id="button" ry="5" rx="5" y="6" x="6" height="38" width="38"
                fill="#f2f5e9" fill-opacity="0.5" stroke="#606060" stroke-width="1.0"/>
           <path id="arrow"
             d="M 11.500037,31.436501 C 11.940474,20.09759 22.043105,11.32322 32.158766,21.979434 L 37.068811,17.246167 C 37.068811,17.246167 37.088388,32 37.088388,32 L 22.160133,31.978069 C 22.160133,31.978069 26.997745,27.140456 26.997745,27.140456 C 18.528582,18.264221 13.291696,25.230495 11.500037,31.436501 z"
             style="fill:#404040;"/>
          </a>
         </g>
        </svg>
</svg>
