<?xml version="1.0" encoding="UTF-8" standalone="no"?>
<!DOCTYPE svg PUBLIC "-//W3C//DTD SVG 1.1//EN"
 "http://www.w3.org/Graphics/SVG/1.1/DTD/svg11.dtd">
<!-- Generated by graphviz version 7.0.5 (20221223.1930)
 -->
<!-- Title: Z2RideSoundStarter Pages: 1 -->
<svg width="1241pt" height="261pt"
 viewBox="0.00 0.00 1241.00 260.50" xmlns="http://www.w3.org/2000/svg" xmlns:xlink="http://www.w3.org/1999/xlink">
<g id="graph0" class="graph" transform="scale(1 1) rotate(0) translate(4 256.5)">
<title>Z2RideSoundStarter</title>
<!-- Node1 -->
<g id="node1" class="node">
<title>Node1</title>
<g id="a_node1"><a xlink:title=" ">
<polygon fill="#999999" stroke="#666666" points="723.5,-239 619.5,-239 619.5,-220 723.5,-220 723.5,-239"/>
<text text-anchor="middle" x="671.5" y="-227" font-family="Helvetica,sans-Serif" font-size="10.00">Z2RideSoundStarter</text>
</a>
</g>
</g>
<!-- Node6 -->
<g id="node6" class="node">
<title>Node6</title>
<g id="a_node6"><a xlink:href="classZ2CreatureRide.html" target="_top" xlink:title=" ">
<polygon fill="white" stroke="#666666" points="1233,-202 1149,-202 1149,-183 1233,-183 1233,-202"/>
<text text-anchor="middle" x="1191" y="-190" font-family="Helvetica,sans-Serif" font-size="10.00">Z2CreatureRide</text>
</a>
</g>
</g>
<!-- Node1&#45;&gt;Node6 -->
<g id="edge26" class="edge">
<title>Node1&#45;&gt;Node6</title>
<path fill="none" stroke="#63b8ff" d="M734.79,-225.05C841.83,-217.39 1057.88,-201.95 1148.5,-195.47"/>
<polygon fill="#63b8ff" stroke="#63b8ff" points="734.77,-221.54 725.05,-225.74 735.27,-228.52 734.77,-221.54"/>
</g>
<!-- Node2 -->
<g id="node2" class="node">
<title>Node2</title>
<g id="a_node2"><a xlink:href="structZ2SoundStarter.html" target="_top" xlink:title=" ">
<polygon fill="white" stroke="#666666" points="487.5,-196 402.5,-196 402.5,-177 487.5,-177 487.5,-196"/>
<text text-anchor="middle" x="445" y="-184" font-family="Helvetica,sans-Serif" font-size="10.00">Z2SoundStarter</text>
</a>
</g>
</g>
<!-- Node2&#45;&gt;Node1 -->
<g id="edge1" class="edge">
<title>Node2&#45;&gt;Node1</title>
<path fill="none" stroke="#63b8ff" d="M498.85,-196.62C535.22,-203.59 583.28,-212.79 619.29,-219.69"/>
<polygon fill="#63b8ff" stroke="#63b8ff" points="499.93,-193.27 489.45,-194.82 498.61,-200.14 499.93,-193.27"/>
</g>
<!-- Node5 -->
<g id="node5" class="node">
<title>Node5</title>
<g id="a_node5"><a xlink:href="classJASGlobalInstance.html" target="_top" xlink:title=" ">
<polygon fill="white" stroke="#666666" points="725,-193.5 618,-193.5 618,-163.5 725,-163.5 725,-193.5"/>
<text text-anchor="start" x="626" y="-181.5" font-family="Helvetica,sans-Serif" font-size="10.00">JASGlobalInstance&lt;</text>
<text text-anchor="middle" x="671.5" y="-170.5" font-family="Helvetica,sans-Serif" font-size="10.00"> Z2SoundStarter &gt;</text>
</a>
</g>
</g>
<!-- Node2&#45;&gt;Node5 -->
<g id="edge6" class="edge">
<title>Node2&#45;&gt;Node5</title>
<path fill="none" stroke="#9a32cd" stroke-dasharray="5,2" d="M499.2,-184.9C528.87,-183.98 566.49,-182.76 600,-181.5 605.75,-181.28 611.77,-181.05 617.76,-180.8"/>
<polygon fill="#9a32cd" stroke="#9a32cd" points="499.24,-181.4 489.35,-185.21 499.45,-188.4 499.24,-181.4"/>
<text text-anchor="middle" x="566" y="-186.5" font-family="Helvetica,sans-Serif" font-size="10.00"> sInstance</text>
</g>
<!-- Node10 -->
<g id="node10" class="node">
<title>Node10</title>
<g id="a_node10"><a xlink:href="classZ2SoundObjBase.html" target="_top" xlink:title=" ">
<polygon fill="white" stroke="#666666" points="718,-120 625,-120 625,-101 718,-101 718,-120"/>
<text text-anchor="middle" x="671.5" y="-108" font-family="Helvetica,sans-Serif" font-size="10.00">Z2SoundObjBase</text>
</a>
</g>
</g>
<!-- Node2&#45;&gt;Node10 -->
<g id="edge18" class="edge">
<title>Node2&#45;&gt;Node10</title>
<path fill="none" stroke="#9a32cd" stroke-dasharray="5,2" d="M486.07,-172.93C530.61,-157.86 601.48,-133.87 641.14,-120.44"/>
<polygon fill="#9a32cd" stroke="#9a32cd" points="485.13,-169.56 476.78,-176.08 487.38,-176.19 485.13,-169.56"/>
<text text-anchor="middle" x="566" y="-157.5" font-family="Helvetica,sans-Serif" font-size="10.00"> mSoundStarter</text>
</g>
<!-- Node3 -->
<g id="node3" class="node">
<title>Node3</title>
<g id="a_node3"><a xlink:href="structJAISoundStarter.html" target="_top" xlink:title=" ">
<polygon fill="white" stroke="#666666" points="258.5,-229 169.5,-229 169.5,-210 258.5,-210 258.5,-229"/>
<text text-anchor="middle" x="214" y="-217" font-family="Helvetica,sans-Serif" font-size="10.00">JAISoundStarter</text>
</a>
</g>
</g>
<!-- Node3&#45;&gt;Node2 -->
<g id="edge2" class="edge">
<title>Node3&#45;&gt;Node2</title>
<path fill="none" stroke="#63b8ff" d="M270.21,-211.54C310.82,-205.69 365.16,-197.86 402.2,-192.52"/>
<polygon fill="#63b8ff" stroke="#63b8ff" points="269.78,-208.07 260.38,-212.96 270.78,-215 269.78,-208.07"/>
</g>
<!-- Node4 -->
<g id="node4" class="node">
<title>Node4</title>
<g id="a_node4"><a xlink:href="classJASGlobalInstance.html" target="_top" xlink:title=" ">
<polygon fill="white" stroke="#666666" points="498.5,-252.5 391.5,-252.5 391.5,-222.5 498.5,-222.5 498.5,-252.5"/>
<text text-anchor="start" x="399.5" y="-240.5" font-family="Helvetica,sans-Serif" font-size="10.00">JASGlobalInstance&lt;</text>
<text text-anchor="middle" x="445" y="-229.5" font-family="Helvetica,sans-Serif" font-size="10.00"> JAISoundStarter &gt;</text>
</a>
</g>
</g>
<!-- Node3&#45;&gt;Node4 -->
<g id="edge4" class="edge">
<title>Node3&#45;&gt;Node4</title>
<path fill="none" stroke="#9a32cd" stroke-dasharray="5,2" d="M270.34,-216.14C296.92,-215.29 329.19,-215.36 358,-218.5 368.79,-219.68 380.21,-221.66 391.08,-223.92"/>
<polygon fill="#9a32cd" stroke="#9a32cd" points="270.32,-212.64 260.46,-216.52 270.58,-219.64 270.32,-212.64"/>
<text text-anchor="middle" x="334.5" y="-221.5" font-family="Helvetica,sans-Serif" font-size="10.00"> sInstance</text>
</g>
<!-- Node4&#45;&gt;Node3 -->
<g id="edge3" class="edge">
<title>Node4&#45;&gt;Node3</title>
<path fill="none" stroke="#63b8ff" d="M379.71,-235.63C357.87,-234.72 333.35,-233.4 311,-231.5 293.93,-230.05 275.22,-227.85 258.89,-225.73"/>
<polygon fill="#63b8ff" stroke="#63b8ff" points="379.55,-239.12 389.68,-236.02 379.82,-232.13 379.55,-239.12"/>
</g>
<!-- Node5&#45;&gt;Node2 -->
<g id="edge5" class="edge">
<title>Node5&#45;&gt;Node2</title>
<path fill="none" stroke="#63b8ff" d="M606.18,-180.79C568.2,-182.15 521.2,-183.82 487.96,-185"/>
<polygon fill="#63b8ff" stroke="#63b8ff" points="606.27,-184.29 616.14,-180.44 606.02,-177.3 606.27,-184.29"/>
</g>
<!-- Node6&#45;&gt;Node1 -->
<g id="edge7" class="edge">
<title>Node6&#45;&gt;Node1</title>
<path fill="none" stroke="#9a32cd" stroke-dasharray="5,2" d="M1141.34,-204.78C1137.86,-205.43 1134.38,-206.02 1131,-206.5 984.24,-227.41 808.7,-230.08 723.68,-229.97"/>
<polygon fill="#9a32cd" stroke="#9a32cd" points="1141.86,-208.25 1150.94,-202.8 1140.44,-201.39 1141.86,-208.25"/>
<text text-anchor="middle" x="984.5" y="-226.5" font-family="Helvetica,sans-Serif" font-size="10.00"> mRide</text>
</g>
<!-- Node7 -->
<g id="node7" class="node">
<title>Node7</title>
<g id="a_node7"><a xlink:href="classZ2Creature.html" target="_top" xlink:title=" ">
<polygon fill="white" stroke="#666666" points="1112,-142 1047,-142 1047,-123 1112,-123 1112,-142"/>
<text text-anchor="middle" x="1079.5" y="-130" font-family="Helvetica,sans-Serif" font-size="10.00">Z2Creature</text>
</a>
</g>
</g>
<!-- Node7&#45;&gt;Node6 -->
<g id="edge8" class="edge">
<title>Node7&#45;&gt;Node6</title>
<path fill="none" stroke="#63b8ff" d="M1108.63,-147.91C1128.55,-158.83 1154.68,-173.15 1171.89,-182.58"/>
<polygon fill="#63b8ff" stroke="#63b8ff" points="1110.36,-144.87 1099.91,-143.14 1107,-151.01 1110.36,-144.87"/>
</g>
<!-- Node8 -->
<g id="node8" class="node">
<title>Node8</title>
<g id="a_node8"><a xlink:href="structVec.html" target="_top" xlink:title=" ">
<polygon fill="white" stroke="#666666" points="888.5,-164 854.5,-164 854.5,-145 888.5,-145 888.5,-164"/>
<text text-anchor="middle" x="871.5" y="-152" font-family="Helvetica,sans-Serif" font-size="10.00">Vec</text>
</a>
</g>
</g>
<!-- Node8&#45;&gt;Node7 -->
<g id="edge9" class="edge">
<title>Node8&#45;&gt;Node7</title>
<path fill="none" stroke="#9a32cd" stroke-dasharray="5,2" d="M899.83,-151.58C937.77,-147.53 1006.26,-140.21 1046.52,-135.91"/>
<polygon fill="#9a32cd" stroke="#9a32cd" points="899.74,-148.07 890.17,-152.61 900.48,-155.03 899.74,-148.07"/>
<text text-anchor="middle" x="984.5" y="-149.5" font-family="Helvetica,sans-Serif" font-size="10.00"> mpPos</text>
</g>
<!-- Node9 -->
<g id="node9" class="node">
<title>Node9</title>
<g id="a_node9"><a xlink:href="classZ2SoundObjAnime.html" target="_top" xlink:title=" ">
<polygon fill="white" stroke="#666666" points="920.5,-83 822.5,-83 822.5,-64 920.5,-64 920.5,-83"/>
<text text-anchor="middle" x="871.5" y="-71" font-family="Helvetica,sans-Serif" font-size="10.00">Z2SoundObjAnime</text>
</a>
</g>
</g>
<!-- Node9&#45;&gt;Node7 -->
<g id="edge10" class="edge">
<title>Node9&#45;&gt;Node7</title>
<path fill="none" stroke="#9a32cd" stroke-dasharray="5,2" d="M932.17,-71.21C962.3,-72.11 998.77,-76.41 1029,-89.5 1046.13,-96.92 1061.63,-112.48 1070.55,-122.7"/>
<polygon fill="#9a32cd" stroke="#9a32cd" points="932.52,-67.72 922.47,-71.05 932.41,-74.72 932.52,-67.72"/>
<text text-anchor="middle" x="984.5" y="-92.5" font-family="Helvetica,sans-Serif" font-size="10.00"> mSoundObjAnime</text>
</g>
<!-- Node10&#45;&gt;Node9 -->
<g id="edge11" class="edge">
<title>Node10&#45;&gt;Node9</title>
<path fill="none" stroke="#63b8ff" d="M729.72,-99.81C758.97,-94.34 794.18,-87.76 822.06,-82.55"/>
<polygon fill="#63b8ff" stroke="#63b8ff" points="729.1,-96.36 719.91,-101.64 730.38,-103.24 729.1,-96.36"/>
</g>
<!-- Node20 -->
<g id="node20" class="node">
<title>Node20</title>
<g id="a_node20"><a xlink:href="classZ2SoundObjSimple.html" target="_top" xlink:title=" ">
<polygon fill="white" stroke="#666666" points="922,-120 821,-120 821,-101 922,-101 922,-120"/>
<text text-anchor="middle" x="871.5" y="-108" font-family="Helvetica,sans-Serif" font-size="10.00">Z2SoundObjSimple</text>
</a>
</g>
</g>
<!-- Node10&#45;&gt;Node20 -->
<g id="edge25" class="edge">
<title>Node10&#45;&gt;Node20</title>
<path fill="none" stroke="#63b8ff" d="M729.94,-110.5C758.65,-110.5 793.07,-110.5 820.66,-110.5"/>
<polygon fill="#63b8ff" stroke="#63b8ff" points="729.94,-107 719.94,-110.5 729.94,-114 729.94,-107"/>
</g>
<!-- Node11 -->
<g id="node11" class="node">
<title>Node11</title>
<g id="a_node11"><a xlink:href="classZ2SoundHandles.html" target="_top" xlink:title=" ">
<polygon fill="white" stroke="#666666" points="491,-133 399,-133 399,-114 491,-114 491,-133"/>
<text text-anchor="middle" x="445" y="-121" font-family="Helvetica,sans-Serif" font-size="10.00">Z2SoundHandles</text>
</a>
</g>
</g>
<!-- Node11&#45;&gt;Node10 -->
<g id="edge12" class="edge">
<title>Node11&#45;&gt;Node10</title>
<path fill="none" stroke="darkgreen" d="M502.76,-120.21C540.53,-118.03 589.49,-115.19 624.75,-113.15"/>
<polygon fill="darkgreen" stroke="darkgreen" points="502.72,-116.71 492.94,-120.78 503.13,-123.7 502.72,-116.71"/>
</g>
<!-- Node12 -->
<g id="node12" class="node">
<title>Node12</title>
<g id="a_node12"><a xlink:href="classJSUList.html" target="_top" xlink:title=" ">
<polygon fill="white" stroke="#666666" points="293,-133 135,-133 135,-114 293,-114 293,-133"/>
<text text-anchor="middle" x="214" y="-121" font-family="Helvetica,sans-Serif" font-size="10.00">JSUList&lt; Z2SoundHandlePool &gt;</text>
</a>
</g>
</g>
<!-- Node12&#45;&gt;Node11 -->
<g id="edge13" class="edge">
<title>Node12&#45;&gt;Node11</title>
<path fill="none" stroke="darkgreen" d="M304.74,-123.5C336.92,-123.5 371.85,-123.5 398.67,-123.5"/>
<polygon fill="darkgreen" stroke="darkgreen" points="305,-120 295,-123.5 305,-127 305,-120"/>
</g>
<!-- Node13 -->
<g id="node13" class="node">
<title>Node13</title>
<g id="a_node13"><a xlink:href="structJSUPtrList.html" target="_top" xlink:title=" ">
<polygon fill="white" stroke="#666666" points="65,-90 0,-90 0,-71 65,-71 65,-90"/>
<text text-anchor="middle" x="32.5" y="-78" font-family="Helvetica,sans-Serif" font-size="10.00">JSUPtrList</text>
</a>
</g>
</g>
<!-- Node13&#45;&gt;Node12 -->
<g id="edge14" class="edge">
<title>Node13&#45;&gt;Node12</title>
<path fill="none" stroke="#63b8ff" d="M76.05,-93.64C78.4,-94.29 80.72,-94.91 83,-95.5 108.93,-102.21 138.05,-108.59 162.15,-113.56"/>
<polygon fill="#63b8ff" stroke="#63b8ff" points="77.11,-90.3 66.53,-90.91 75.18,-97.03 77.11,-90.3"/>
</g>
<!-- Node14 -->
<g id="node14" class="node">
<title>Node14</title>
<g id="a_node14"><a xlink:href="structJSUPtrLink.html" target="_top" xlink:title=" ">
<polygon fill="white" stroke="#666666" points="248,-56 180,-56 180,-37 248,-37 248,-56"/>
<text text-anchor="middle" x="214" y="-44" font-family="Helvetica,sans-Serif" font-size="10.00">JSUPtrLink</text>
</a>
</g>
</g>
<!-- Node13&#45;&gt;Node14 -->
<g id="edge16" class="edge">
<title>Node13&#45;&gt;Node14</title>
<path fill="none" stroke="#9a32cd" stroke-dasharray="5,2" d="M54.93,-64.21C63.24,-58.8 73.14,-53.42 83,-50.5 114.83,-41.08 152.97,-41.16 179.68,-42.93"/>
<polygon fill="#9a32cd" stroke="#9a32cd" points="53.12,-61.21 46.91,-69.79 57.12,-66.95 53.12,-61.21"/>
<text text-anchor="middle" x="100" y="-53.5" font-family="Helvetica,sans-Serif" font-size="10.00"> mList</text>
</g>
<!-- Node14&#45;&gt;Node13 -->
<g id="edge15" class="edge">
<title>Node14&#45;&gt;Node13</title>
<path fill="none" stroke="#9a32cd" stroke-dasharray="5,2" d="M168.21,-54.98C136.15,-61.06 93.77,-69.08 65.18,-74.5"/>
<polygon fill="#9a32cd" stroke="#9a32cd" points="168.85,-58.43 178.02,-53.13 167.54,-51.55 168.85,-58.43"/>
<text text-anchor="middle" x="100" y="-83.5" font-family="Helvetica,sans-Serif" font-size="10.00"> mHead</text>
<text text-anchor="middle" x="100" y="-72.5" font-family="Helvetica,sans-Serif" font-size="10.00">mTail</text>
</g>
<!-- Node14&#45;&gt;Node14 -->
<g id="edge17" class="edge">
<title>Node14&#45;&gt;Node14</title>
<path fill="none" stroke="#9a32cd" stroke-dasharray="5,2" d="M193.77,-67.43C196.3,-71.29 203.04,-74 214,-74 234.04,-74 239.99,-64.94 231.85,-56.37"/>
<polygon fill="#9a32cd" stroke="#9a32cd" points="197.15,-68.36 195.83,-57.85 190.3,-66.88 197.15,-68.36"/>
<text text-anchor="middle" x="214" y="-88" font-family="Helvetica,sans-Serif" font-size="10.00"> mNext</text>
<text text-anchor="middle" x="214" y="-77" font-family="Helvetica,sans-Serif" font-size="10.00">mPrev</text>
</g>
<!-- Node15 -->
<g id="node15" class="node">
<title>Node15</title>
<g id="a_node15"><a xlink:href="structJGeometry_1_1TVec3_3_01f32_01_4.html" target="_top" xlink:title=" ">
<polygon fill="white" stroke="#666666" points="508.5,-95 381.5,-95 381.5,-76 508.5,-76 508.5,-95"/>
<text text-anchor="middle" x="445" y="-83" font-family="Helvetica,sans-Serif" font-size="10.00">JGeometry::TVec3&lt; f32 &gt;</text>
</a>
</g>
</g>
<!-- Node15&#45;&gt;Node10 -->
<g id="edge19" class="edge">
<title>Node15&#45;&gt;Node10</title>
<path fill="none" stroke="#9a32cd" stroke-dasharray="5,2" d="M520.08,-91.27C545.46,-93.5 574.01,-96.29 600,-99.5 607.99,-100.49 616.47,-101.68 624.67,-102.91"/>
<polygon fill="#9a32cd" stroke="#9a32cd" points="520.43,-87.78 510.17,-90.41 519.83,-94.76 520.43,-87.78"/>
<text text-anchor="middle" x="566" y="-102.5" font-family="Helvetica,sans-Serif" font-size="10.00"> mSoundPos</text>
</g>
<!-- Node16 -->
<g id="node16" class="node">
<title>Node16</title>
<g id="a_node16"><a xlink:href="classJAUSoundAnimation.html" target="_top" xlink:title=" ">
<polygon fill="white" stroke="#666666" points="725,-58 618,-58 618,-39 725,-39 725,-58"/>
<text text-anchor="middle" x="671.5" y="-46" font-family="Helvetica,sans-Serif" font-size="10.00">JAUSoundAnimation</text>
</a>
</g>
</g>
<!-- Node16&#45;&gt;Node9 -->
<g id="edge20" class="edge">
<title>Node16&#45;&gt;Node9</title>
<path fill="none" stroke="#9a32cd" stroke-dasharray="5,2" d="M736.93,-49.31C758.08,-50.28 781.63,-52.12 803,-55.5 814.74,-57.36 827.38,-60.43 838.52,-63.52"/>
<polygon fill="#9a32cd" stroke="#9a32cd" points="737.11,-45.82 726.98,-48.92 736.83,-52.81 737.11,-45.82"/>
<text text-anchor="middle" x="773" y="-58.5" font-family="Helvetica,sans-Serif" font-size="10.00"> mpAnimation</text>
</g>
<!-- Node17 -->
<g id="node17" class="node">
<title>Node17</title>
<g id="a_node17"><a xlink:href="classJAUSoundAnimationControl.html" target="_top" xlink:title=" ">
<polygon fill="white" stroke="#666666" points="514,-58 376,-58 376,-39 514,-39 514,-58"/>
<text text-anchor="middle" x="445" y="-46" font-family="Helvetica,sans-Serif" font-size="10.00">JAUSoundAnimationControl</text>
</a>
</g>
</g>
<!-- Node17&#45;&gt;Node16 -->
<g id="edge21" class="edge">
<title>Node17&#45;&gt;Node16</title>
<path fill="none" stroke="#9a32cd" stroke-dasharray="5,2" d="M525.75,-48.5C556.21,-48.5 590.15,-48.5 617.51,-48.5"/>
<polygon fill="#9a32cd" stroke="#9a32cd" points="525.79,-45 515.79,-48.5 525.79,-52 525.79,-45"/>
<text text-anchor="middle" x="566" y="-51.5" font-family="Helvetica,sans-Serif" font-size="10.00"> mControl</text>
</g>
<!-- Node18 -->
<g id="node18" class="node">
<title>Node18</title>
<g id="a_node18"><a xlink:href="classJAUSoundAnimationSound.html" target="_top" xlink:title=" ">
<polygon fill="white" stroke="#666666" points="512.5,-20 377.5,-20 377.5,-1 512.5,-1 512.5,-20"/>
<text text-anchor="middle" x="445" y="-8" font-family="Helvetica,sans-Serif" font-size="10.00">JAUSoundAnimationSound</text>
</a>
</g>
</g>
<!-- Node18&#45;&gt;Node16 -->
<g id="edge22" class="edge">
<title>Node18&#45;&gt;Node16</title>
<path fill="none" stroke="#9a32cd" stroke-dasharray="5,2" d="M524.2,-21.23C548.54,-24.82 575.43,-29.06 600,-33.5 608.37,-35.01 617.27,-36.78 625.83,-38.56"/>
<polygon fill="#9a32cd" stroke="#9a32cd" points="524.75,-17.77 514.35,-19.79 523.74,-24.7 524.75,-17.77"/>
<text text-anchor="middle" x="566" y="-36.5" font-family="Helvetica,sans-Serif" font-size="10.00"> mSounds</text>
</g>
<!-- Node19 -->
<g id="node19" class="node">
<title>Node19</title>
<g id="a_node19"><a xlink:href="structJAISoundID.html" target="_top" xlink:title=" ">
<polygon fill="white" stroke="#666666" points="248.5,-19 179.5,-19 179.5,0 248.5,0 248.5,-19"/>
<text text-anchor="middle" x="214" y="-7" font-family="Helvetica,sans-Serif" font-size="10.00">JAISoundID</text>
</a>
</g>
</g>
<!-- Node19&#45;&gt;Node18 -->
<g id="edge23" class="edge">
<title>Node19&#45;&gt;Node18</title>
<path fill="none" stroke="#9a32cd" stroke-dasharray="5,2" d="M260.06,-9.7C293.51,-9.84 339.67,-10.04 377.37,-10.21"/>
<polygon fill="#9a32cd" stroke="#9a32cd" points="260.32,-6.2 250.3,-9.65 260.29,-13.2 260.32,-6.2"/>
<text text-anchor="middle" x="334.5" y="-13.5" font-family="Helvetica,sans-Serif" font-size="10.00"> mSoundId</text>
</g>
<!-- Node20&#45;&gt;Node7 -->
<g id="edge24" class="edge">
<title>Node20&#45;&gt;Node7</title>
<path fill="none" stroke="#9a32cd" stroke-dasharray="5,2" d="M933.63,-105.36C962.79,-104.31 997.99,-105.09 1029,-111.5 1039.79,-113.73 1051.15,-118.37 1060.26,-122.72"/>
<polygon fill="#9a32cd" stroke="#9a32cd" points="933.71,-101.85 923.87,-105.8 934.02,-108.85 933.71,-101.85"/>
<text text-anchor="middle" x="984.5" y="-125.5" font-family="Helvetica,sans-Serif" font-size="10.00"> mSoundObjSimple1</text>
<text text-anchor="middle" x="984.5" y="-114.5" font-family="Helvetica,sans-Serif" font-size="10.00">mSoundObjSimple2</text>
</g>
</g>
</svg>
