<?xml version="1.0" encoding="UTF-8" standalone="no"?>
<!DOCTYPE svg PUBLIC "-//W3C//DTD SVG 1.1//EN"
 "http://www.w3.org/Graphics/SVG/1.1/DTD/svg11.dtd">
<!-- Generated by graphviz version 7.0.5 (20221223.1930)
 -->
<!-- Title: jmessage_tMeasureProcessor Pages: 1 -->
<!--zoomable 296 -->
<svg id="main" version="1.1" xmlns="http://www.w3.org/2000/svg" xmlns:xlink="http://www.w3.org/1999/xlink" xml:space="preserve" onload="init(evt)">
<style type="text/css"><![CDATA[
.edge:hover path { stroke: red; }
.edge:hover polygon { stroke: red; fill: red; }
]]></style>
<script type="text/javascript"><![CDATA[
var edges = document.getElementsByTagName('g');
if (edges && edges.length) {
  for (var i=0;i<edges.length;i++) {
    if (edges[i].id.substr(0,4)=='edge') {
      edges[i].setAttribute('class','edge');
    }
  }
}
]]></script>
        <defs>
                <circle id="rim" cx="0" cy="0" r="7"/>
                <circle id="rim2" cx="0" cy="0" r="3.5"/>
                <g id="zoomPlus">
                        <use xlink:href="#rim" fill="#404040">
                                <set attributeName="fill" to="#808080" begin="zoomplus.mouseover" end="zoomplus.mouseout"/>
                        </use>
                        <path d="M-4,0h8M0,-4v8" fill="none" stroke="white" stroke-width="1.5" pointer-events="none"/>
                </g>
                <g id="zoomMin">
                        <use xlink:href="#rim" fill="#404040">
                                <set attributeName="fill" to="#808080" begin="zoomminus.mouseover" end="zoomminus.mouseout"/>
                        </use>
                        <path d="M-4,0h8" fill="none" stroke="white" stroke-width="1.5" pointer-events="none"/>
                </g>
                <g id="dirArrow">
                        <path fill="none" stroke="white" stroke-width="1.5" d="M0,-3.0v7 M-2.5,-0.5L0,-3.0L2.5,-0.5"/>
                </g>
               <g id="resetDef">
                       <use xlink:href="#rim2" fill="#404040">
                               <set attributeName="fill" to="#808080" begin="reset.mouseover" end="reset.mouseout"/>
                       </use>
               </g>
        </defs>

<script type="text/javascript">
var viewWidth = 2124;
var viewHeight = 296;
var sectionId = 'dynsection-1';
</script>
<script xlink:href="svgpan.js"/>
<svg id="graph" class="graph">
<g id="viewport">
<title>jmessage_tMeasureProcessor</title>
<!-- Node1 -->
<g id="node1" class="node">
<title>Node1</title>
<g id="a_node1"><a xlink:title=" ">
<polygon fill="#999999" stroke="#666666" points="2116,-206.5 1967,-206.5 1967,-187.5 2116,-187.5 2116,-206.5"/>
<text text-anchor="middle" x="2041.5" y="-194.5" font-family="Helvetica,sans-Serif" font-size="10.00">jmessage_tMeasureProcessor</text>
</a>
</g>
</g>
<!-- Node2 -->
<g id="node2" class="node">
<title>Node2</title>
<g id="a_node2"><a xlink:href="structJMessage_1_1TRenderingProcessor.html" target="_top" xlink:title=" ">
<polygon fill="white" stroke="#666666" points="1930,-206.5 1770,-206.5 1770,-187.5 1930,-187.5 1930,-206.5"/>
<text text-anchor="middle" x="1850" y="-194.5" font-family="Helvetica,sans-Serif" font-size="10.00">JMessage::TRenderingProcessor</text>
</a>
</g>
</g>
<!-- Node2&#45;&gt;Node1 -->
<g id="edge1" class="edge">
<title>Node2&#45;&gt;Node1</title>
<path fill="none" stroke="#63b8ff" d="M1941.66,-197C1950.05,-197 1958.48,-197 1966.7,-197"/>
<polygon fill="#63b8ff" stroke="#63b8ff" points="1941.78,-193.5 1931.78,-197 1941.78,-200.5 1941.78,-193.5"/>
</g>
<!-- Node3 -->
<g id="node3" class="node">
<title>Node3</title>
<g id="a_node3"><a xlink:href="structJMessage_1_1TProcessor.html" target="_top" xlink:title=" ">
<polygon fill="white" stroke="#666666" points="1618,-180.5 1502,-180.5 1502,-161.5 1618,-161.5 1618,-180.5"/>
<text text-anchor="middle" x="1560" y="-168.5" font-family="Helvetica,sans-Serif" font-size="10.00">JMessage::TProcessor</text>
</a>
</g>
</g>
<!-- Node3&#45;&gt;Node2 -->
<g id="edge2" class="edge">
<title>Node3&#45;&gt;Node2</title>
<path fill="none" stroke="#63b8ff" d="M1629.73,-179.36C1631.84,-179.58 1633.94,-179.79 1636,-180 1680.11,-184.41 1729.45,-188.4 1769.53,-191.41"/>
<polygon fill="#63b8ff" stroke="#63b8ff" points="1630.13,-175.88 1619.81,-178.28 1629.37,-182.84 1630.13,-175.88"/>
</g>
<!-- Node21 -->
<g id="node21" class="node">
<title>Node21</title>
<g id="a_node21"><a xlink:href="structJMessage_1_1TProcessor_1_1TProcess__.html" target="_top" xlink:title=" ">
<polygon fill="white" stroke="#666666" points="1908,-161 1792,-161 1792,-131 1908,-131 1908,-161"/>
<text text-anchor="start" x="1800" y="-149" font-family="Helvetica,sans-Serif" font-size="10.00">JMessage::TProcessor</text>
<text text-anchor="middle" x="1850" y="-138" font-family="Helvetica,sans-Serif" font-size="10.00">::TProcess_</text>
</a>
</g>
</g>
<!-- Node3&#45;&gt;Node21 -->
<g id="edge27" class="edge">
<title>Node3&#45;&gt;Node21</title>
<path fill="none" stroke="#9a32cd" stroke-dasharray="5,2" d="M1589.38,-156.18C1603.07,-149.84 1619.97,-143.18 1636,-140 1688.07,-129.66 1748.69,-132.8 1791.92,-137.55"/>
<polygon fill="#9a32cd" stroke="#9a32cd" points="1588.01,-152.96 1580.53,-160.46 1591.05,-159.26 1588.01,-152.96"/>
<text text-anchor="middle" x="1694" y="-143" font-family="Helvetica,sans-Serif" font-size="10.00"> pfnProcess_CharacterEnd</text>
</g>
<!-- Node4 -->
<g id="node4" class="node">
<title>Node4</title>
<g id="a_node4"><a xlink:href="structJMessage_1_1TReference.html" target="_top" xlink:title=" ">
<polygon fill="white" stroke="#666666" points="1408,-218.5 1292,-218.5 1292,-199.5 1408,-199.5 1408,-218.5"/>
<text text-anchor="middle" x="1350" y="-206.5" font-family="Helvetica,sans-Serif" font-size="10.00">JMessage::TReference</text>
</a>
</g>
</g>
<!-- Node4&#45;&gt;Node3 -->
<g id="edge3" class="edge">
<title>Node4&#45;&gt;Node3</title>
<path fill="none" stroke="#9a32cd" stroke-dasharray="5,2" d="M1416.63,-197.01C1444.86,-191.85 1477.47,-185.89 1504.35,-180.98"/>
<polygon fill="#9a32cd" stroke="#9a32cd" points="1416.35,-193.5 1407.14,-198.74 1417.6,-200.39 1416.35,-193.5"/>
<text text-anchor="middle" x="1455" y="-197" font-family="Helvetica,sans-Serif" font-size="10.00"> pReference_</text>
</g>
<!-- Node5 -->
<g id="node5" class="node">
<title>Node5</title>
<g id="a_node5"><a xlink:href="structJMessage_1_1TResourceContainer.html" target="_top" xlink:title=" ">
<polygon fill="white" stroke="#666666" points="1174,-228.5 1019,-228.5 1019,-209.5 1174,-209.5 1174,-228.5"/>
<text text-anchor="middle" x="1096.5" y="-216.5" font-family="Helvetica,sans-Serif" font-size="10.00">JMessage::TResourceContainer</text>
</a>
</g>
</g>
<!-- Node5&#45;&gt;Node4 -->
<g id="edge4" class="edge">
<title>Node5&#45;&gt;Node4</title>
<path fill="none" stroke="#9a32cd" stroke-dasharray="5,2" d="M1185.6,-215.5C1220.84,-214.1 1260.42,-212.52 1291.8,-211.27"/>
<polygon fill="#9a32cd" stroke="#9a32cd" points="1185.69,-211.99 1175.84,-215.89 1185.97,-218.99 1185.69,-211.99"/>
<text text-anchor="middle" x="1233" y="-218" font-family="Helvetica,sans-Serif" font-size="10.00"> pcResource_</text>
</g>
<!-- Node6 -->
<g id="node6" class="node">
<title>Node6</title>
<g id="a_node6"><a xlink:href="structJMessage_1_1TResourceContainer_1_1TCResource.html" target="_top" xlink:title=" ">
<polygon fill="white" stroke="#666666" points="920,-288 765,-288 765,-258 920,-258 920,-288"/>
<text text-anchor="start" x="773" y="-276" font-family="Helvetica,sans-Serif" font-size="10.00">JMessage::TResourceContainer</text>
<text text-anchor="middle" x="842.5" y="-265" font-family="Helvetica,sans-Serif" font-size="10.00">::TCResource</text>
</a>
</g>
</g>
<!-- Node6&#45;&gt;Node5 -->
<g id="edge5" class="edge">
<title>Node6&#45;&gt;Node5</title>
<path fill="none" stroke="#9a32cd" stroke-dasharray="5,2" d="M926.72,-255.17C967.43,-246.44 1014.9,-236.27 1049.11,-228.94"/>
<polygon fill="#9a32cd" stroke="#9a32cd" points="926.24,-251.69 917.19,-257.21 927.7,-258.54 926.24,-251.69"/>
<text text-anchor="middle" x="969.5" y="-255" font-family="Helvetica,sans-Serif" font-size="10.00"> resContainer_</text>
</g>
<!-- Node7 -->
<g id="node7" class="node">
<title>Node7</title>
<g id="a_node7"><a xlink:href="structJGadget_1_1TLinkList__factory.html" target="_top" xlink:title=" ">
<polygon fill="white" stroke="#666666" points="683,-287 558,-287 558,-257 683,-257 683,-287"/>
<text text-anchor="start" x="566" y="-275" font-family="Helvetica,sans-Serif" font-size="10.00">JGadget::TLinkList</text>
<text text-anchor="middle" x="620.5" y="-264" font-family="Helvetica,sans-Serif" font-size="10.00">_factory&lt; TResource, 0 &gt;</text>
</a>
</g>
</g>
<!-- Node7&#45;&gt;Node6 -->
<g id="edge6" class="edge">
<title>Node7&#45;&gt;Node6</title>
<path fill="none" stroke="#63b8ff" d="M694.58,-272.33C717.13,-272.43 742.03,-272.55 764.82,-272.65"/>
<polygon fill="#63b8ff" stroke="#63b8ff" points="694.9,-268.83 684.88,-272.29 694.87,-275.83 694.9,-268.83"/>
</g>
<!-- Node8 -->
<g id="node8" class="node">
<title>Node8</title>
<g id="a_node8"><a xlink:href="structJGadget_1_1TLinkList.html" target="_top" xlink:title=" ">
<polygon fill="white" stroke="#666666" points="510,-269 411,-269 411,-239 510,-239 510,-269"/>
<text text-anchor="start" x="419" y="-257" font-family="Helvetica,sans-Serif" font-size="10.00">JGadget::TLinkList</text>
<text text-anchor="middle" x="460.5" y="-246" font-family="Helvetica,sans-Serif" font-size="10.00">&lt; T, I &gt;</text>
</a>
</g>
</g>
<!-- Node8&#45;&gt;Node7 -->
<g id="edge7" class="edge">
<title>Node8&#45;&gt;Node7</title>
<path fill="none" stroke="#63b8ff" d="M521.33,-260.82C533.17,-262.17 545.63,-263.58 557.55,-264.94"/>
<polygon fill="#63b8ff" stroke="#63b8ff" points="522.03,-257.37 511.7,-259.72 521.24,-264.33 522.03,-257.37"/>
</g>
<!-- Node9 -->
<g id="node9" class="node">
<title>Node9</title>
<g id="a_node9"><a xlink:href="structJGadget_1_1TNodeLinkList.html" target="_top" xlink:title=" ">
<polygon fill="white" stroke="#666666" points="354,-256.5 232,-256.5 232,-237.5 354,-237.5 354,-256.5"/>
<text text-anchor="middle" x="293" y="-244.5" font-family="Helvetica,sans-Serif" font-size="10.00">JGadget::TNodeLinkList</text>
</a>
</g>
</g>
<!-- Node9&#45;&gt;Node8 -->
<g id="edge8" class="edge">
<title>Node9&#45;&gt;Node8</title>
<path fill="none" stroke="#63b8ff" d="M365.71,-250.03C380.9,-250.68 396.61,-251.34 410.72,-251.94"/>
<polygon fill="#63b8ff" stroke="#63b8ff" points="365.87,-246.54 355.73,-249.61 365.57,-253.53 365.87,-246.54"/>
</g>
<!-- Node10 -->
<g id="node10" class="node">
<title>Node10</title>
<g id="a_node10"><a xlink:href="structJGadget_1_1TLinkListNode.html" target="_top" xlink:title=" ">
<polygon fill="white" stroke="#666666" points="131,-227.5 9,-227.5 9,-208.5 131,-208.5 131,-227.5"/>
<text text-anchor="middle" x="70" y="-215.5" font-family="Helvetica,sans-Serif" font-size="10.00">JGadget::TLinkListNode</text>
</a>
</g>
</g>
<!-- Node10&#45;&gt;Node9 -->
<g id="edge9" class="edge">
<title>Node10&#45;&gt;Node9</title>
<path fill="none" stroke="#9a32cd" stroke-dasharray="5,2" d="M142.61,-227.4C171.37,-231.17 204.16,-235.47 231.68,-239.09"/>
<polygon fill="#9a32cd" stroke="#9a32cd" points="143.26,-223.95 132.89,-226.12 142.35,-230.89 143.26,-223.95"/>
<text text-anchor="middle" x="181.5" y="-238" font-family="Helvetica,sans-Serif" font-size="10.00"> ocObject_</text>
</g>
<!-- Node10&#45;&gt;Node10 -->
<g id="edge10" class="edge">
<title>Node10&#45;&gt;Node10</title>
<path fill="none" stroke="#9a32cd" stroke-dasharray="5,2" d="M50.21,-238.93C52.68,-242.79 59.28,-245.5 70,-245.5 89.6,-245.5 95.42,-236.44 87.46,-227.87"/>
<polygon fill="#9a32cd" stroke="#9a32cd" points="53.59,-239.86 52.23,-229.35 46.74,-238.41 53.59,-239.86"/>
<text text-anchor="middle" x="70" y="-259.5" font-family="Helvetica,sans-Serif" font-size="10.00"> mNext</text>
<text text-anchor="middle" x="70" y="-248.5" font-family="Helvetica,sans-Serif" font-size="10.00">mPrev</text>
</g>
<!-- Node17 -->
<g id="node17" class="node">
<title>Node17</title>
<g id="a_node17"><a xlink:href="structJMessage_1_1TResource.html" target="_top" xlink:title=" ">
<polygon fill="white" stroke="#666666" points="899,-166.5 786,-166.5 786,-147.5 899,-147.5 899,-166.5"/>
<text text-anchor="middle" x="842.5" y="-154.5" font-family="Helvetica,sans-Serif" font-size="10.00">JMessage::TResource</text>
</a>
</g>
</g>
<!-- Node10&#45;&gt;Node17 -->
<g id="edge19" class="edge">
<title>Node10&#45;&gt;Node17</title>
<path fill="none" stroke="#9a32cd" stroke-dasharray="5,2" d="M142.67,-210.18C185.88,-206.12 242.03,-202 292,-202 292,-202 292,-202 540,-202 634.2,-202 743.17,-180.24 800.82,-166.99"/>
<polygon fill="#9a32cd" stroke="#9a32cd" points="142.54,-206.67 132.92,-211.12 143.21,-213.64 142.54,-206.67"/>
<text text-anchor="middle" x="460.5" y="-205" font-family="Helvetica,sans-Serif" font-size="10.00"> ocObject_</text>
</g>
<!-- Node11 -->
<g id="node11" class="node">
<title>Node11</title>
<g id="a_node11"><a xlink:href="structJMessage_1_1TResource__color.html" target="_top" xlink:title=" ">
<polygon fill="white" stroke="#666666" points="899,-234 786,-234 786,-204 899,-204 899,-234"/>
<text text-anchor="start" x="794" y="-222" font-family="Helvetica,sans-Serif" font-size="10.00">JMessage::TResource</text>
<text text-anchor="middle" x="842.5" y="-211" font-family="Helvetica,sans-Serif" font-size="10.00">_color</text>
</a>
</g>
</g>
<!-- Node11&#45;&gt;Node5 -->
<g id="edge11" class="edge">
<title>Node11&#45;&gt;Node5</title>
<path fill="none" stroke="#9a32cd" stroke-dasharray="5,2" d="M910.86,-219C944.08,-219 984.3,-219 1018.7,-219"/>
<polygon fill="#9a32cd" stroke="#9a32cd" points="910.94,-215.5 900.94,-219 910.94,-222.5 910.94,-215.5"/>
<text text-anchor="middle" x="969.5" y="-222" font-family="Helvetica,sans-Serif" font-size="10.00"> resColor_</text>
</g>
<!-- Node12 -->
<g id="node12" class="node">
<title>Node12</title>
<g id="a_node12"><a xlink:href="structJMessage_1_1data_1_1TParse__THeader.html" target="_top" xlink:title=" ">
<polygon fill="white" stroke="#666666" points="681,-174 560,-174 560,-144 681,-144 681,-174"/>
<text text-anchor="start" x="568" y="-162" font-family="Helvetica,sans-Serif" font-size="10.00">JMessage::data::TParse</text>
<text text-anchor="middle" x="620.5" y="-151" font-family="Helvetica,sans-Serif" font-size="10.00">_THeader</text>
</a>
</g>
</g>
<!-- Node12&#45;&gt;Node11 -->
<g id="edge12" class="edge">
<title>Node12&#45;&gt;Node11</title>
<path fill="none" stroke="#9a32cd" stroke-dasharray="5,2" d="M640.63,-182.84C655.22,-199 676.88,-218.99 701,-228 727.68,-237.96 759.17,-236.99 785.57,-232.98"/>
<polygon fill="#9a32cd" stroke="#9a32cd" points="643.46,-180.76 634.27,-175.49 638.17,-185.34 643.46,-180.76"/>
<text text-anchor="middle" x="724" y="-238" font-family="Helvetica,sans-Serif" font-size="10.00"> field_0x0</text>
</g>
<!-- Node12&#45;&gt;Node17 -->
<g id="edge20" class="edge">
<title>Node12&#45;&gt;Node17</title>
<path fill="none" stroke="#9a32cd" stroke-dasharray="5,2" d="M692.84,-158.08C695.59,-158.05 698.32,-158.03 701,-158 728.93,-157.72 759.98,-157.5 785.78,-157.33"/>
<polygon fill="#9a32cd" stroke="#9a32cd" points="692.88,-154.58 682.92,-158.19 692.96,-161.58 692.88,-154.58"/>
<text text-anchor="middle" x="724" y="-161" font-family="Helvetica,sans-Serif" font-size="10.00"> field_0x8</text>
</g>
<!-- Node13 -->
<g id="node13" class="node">
<title>Node13</title>
<g id="a_node13"><a xlink:href="structJGadget_1_1binary_1_1TParseData__aligned.html" target="_top" xlink:title=" ">
<polygon fill="white" stroke="#666666" points="363,-135 223,-135 223,-105 363,-105 363,-135"/>
<text text-anchor="start" x="231" y="-123" font-family="Helvetica,sans-Serif" font-size="10.00">JGadget::binary::TParseData</text>
<text text-anchor="middle" x="293" y="-112" font-family="Helvetica,sans-Serif" font-size="10.00">_aligned&lt; 4 &gt;</text>
</a>
</g>
</g>
<!-- Node13&#45;&gt;Node12 -->
<g id="edge13" class="edge">
<title>Node13&#45;&gt;Node12</title>
<path fill="none" stroke="#63b8ff" d="M374.64,-129.66C431.98,-136.53 507.76,-145.61 559.74,-151.84"/>
<polygon fill="#63b8ff" stroke="#63b8ff" points="375.28,-126.21 364.93,-128.5 374.44,-133.16 375.28,-126.21"/>
</g>
<!-- Node16 -->
<g id="node16" class="node">
<title>Node16</title>
<g id="a_node16"><a xlink:href="structJMessage_1_1data_1_1TParse__TBlock.html" target="_top" xlink:title=" ">
<polygon fill="white" stroke="#666666" points="521,-97 400,-97 400,-67 521,-67 521,-97"/>
<text text-anchor="start" x="408" y="-85" font-family="Helvetica,sans-Serif" font-size="10.00">JMessage::data::TParse</text>
<text text-anchor="middle" x="460.5" y="-74" font-family="Helvetica,sans-Serif" font-size="10.00">_TBlock</text>
</a>
</g>
</g>
<!-- Node13&#45;&gt;Node16 -->
<g id="edge17" class="edge">
<title>Node13&#45;&gt;Node16</title>
<path fill="none" stroke="#63b8ff" d="M372.43,-101.99C381.6,-99.89 390.84,-97.77 399.69,-95.73"/>
<polygon fill="#63b8ff" stroke="#63b8ff" points="371.75,-98.56 362.79,-104.21 373.32,-105.38 371.75,-98.56"/>
</g>
<!-- Node14 -->
<g id="node14" class="node">
<title>Node14</title>
<g id="a_node14"><a xlink:href="structJGadget_1_1binary_1_1TParseData.html" target="_top" xlink:title=" ">
<polygon fill="white" stroke="#666666" points="140,-129.5 0,-129.5 0,-110.5 140,-110.5 140,-129.5"/>
<text text-anchor="middle" x="70" y="-117.5" font-family="Helvetica,sans-Serif" font-size="10.00">JGadget::binary::TParseData</text>
</a>
</g>
</g>
<!-- Node14&#45;&gt;Node13 -->
<g id="edge14" class="edge">
<title>Node14&#45;&gt;Node13</title>
<path fill="none" stroke="#63b8ff" d="M151.57,-120C174.84,-120 200.02,-120 222.55,-120"/>
<polygon fill="#63b8ff" stroke="#63b8ff" points="151.83,-116.5 141.83,-120 151.83,-123.5 151.83,-116.5"/>
</g>
<!-- Node15 -->
<g id="node15" class="node">
<title>Node15</title>
<g id="a_node15"><a xlink:href="structJMessage_1_1data_1_1TParse__TBlock__color.html" target="_top" xlink:title=" ">
<polygon fill="white" stroke="#666666" points="681,-126 560,-126 560,-96 681,-96 681,-126"/>
<text text-anchor="start" x="568" y="-114" font-family="Helvetica,sans-Serif" font-size="10.00">JMessage::data::TParse</text>
<text text-anchor="middle" x="620.5" y="-103" font-family="Helvetica,sans-Serif" font-size="10.00">_TBlock_color</text>
</a>
</g>
</g>
<!-- Node15&#45;&gt;Node11 -->
<g id="edge15" class="edge">
<title>Node15&#45;&gt;Node11</title>
<path fill="none" stroke="#9a32cd" stroke-dasharray="5,2" d="M680.62,-132.91C681.44,-133.58 682.23,-134.28 683,-135 696.67,-147.74 686.98,-160.64 701,-173 724.49,-193.7 757.5,-205.12 785.62,-211.4"/>
<polygon fill="#9a32cd" stroke="#9a32cd" points="682.66,-130.06 672.44,-127.25 678.68,-135.82 682.66,-130.06"/>
<text text-anchor="middle" x="724" y="-202" font-family="Helvetica,sans-Serif" font-size="10.00"> field_0x4</text>
</g>
<!-- Node16&#45;&gt;Node15 -->
<g id="edge16" class="edge">
<title>Node16&#45;&gt;Node15</title>
<path fill="none" stroke="#63b8ff" d="M532.29,-94.99C541.44,-96.67 550.73,-98.38 559.68,-100.02"/>
<polygon fill="#63b8ff" stroke="#63b8ff" points="533.19,-91.6 522.72,-93.24 531.93,-98.48 533.19,-91.6"/>
</g>
<!-- Node18 -->
<g id="node18" class="node">
<title>Node18</title>
<g id="a_node18"><a xlink:href="structJMessage_1_1data_1_1TParse__TBlock__info.html" target="_top" xlink:title=" ">
<polygon fill="white" stroke="#666666" points="681,-30 560,-30 560,0 681,0 681,-30"/>
<text text-anchor="start" x="568" y="-18" font-family="Helvetica,sans-Serif" font-size="10.00">JMessage::data::TParse</text>
<text text-anchor="middle" x="620.5" y="-7" font-family="Helvetica,sans-Serif" font-size="10.00">_TBlock_info</text>
</a>
</g>
</g>
<!-- Node16&#45;&gt;Node18 -->
<g id="edge22" class="edge">
<title>Node16&#45;&gt;Node18</title>
<path fill="none" stroke="#63b8ff" d="M505.25,-61.98C521.71,-54.59 540.65,-46.25 558,-39 564.77,-36.17 572,-33.26 579.03,-30.48"/>
<polygon fill="#63b8ff" stroke="#63b8ff" points="503.88,-58.76 496.21,-66.06 506.76,-65.14 503.88,-58.76"/>
</g>
<!-- Node19 -->
<g id="node19" class="node">
<title>Node19</title>
<g id="a_node19"><a xlink:href="structJMessage_1_1data_1_1TParse__TBlock__messageID.html" target="_top" xlink:title=" ">
<polygon fill="white" stroke="#666666" points="681,-78 560,-78 560,-48 681,-48 681,-78"/>
<text text-anchor="start" x="568" y="-66" font-family="Helvetica,sans-Serif" font-size="10.00">JMessage::data::TParse</text>
<text text-anchor="middle" x="620.5" y="-55" font-family="Helvetica,sans-Serif" font-size="10.00">_TBlock_messageID</text>
</a>
</g>
</g>
<!-- Node16&#45;&gt;Node19 -->
<g id="edge24" class="edge">
<title>Node16&#45;&gt;Node19</title>
<path fill="none" stroke="#63b8ff" d="M532.59,-73.45C541.64,-72.36 550.83,-71.26 559.68,-70.19"/>
<polygon fill="#63b8ff" stroke="#63b8ff" points="532.25,-69.97 522.74,-74.64 533.08,-76.92 532.25,-69.97"/>
</g>
<!-- Node17&#45;&gt;Node3 -->
<g id="edge18" class="edge">
<title>Node17&#45;&gt;Node3</title>
<path fill="none" stroke="#9a32cd" stroke-dasharray="5,2" d="M910.7,-158.31C1050.53,-161.05 1370.62,-167.31 1501.57,-169.88"/>
<polygon fill="#9a32cd" stroke="#9a32cd" points="910.93,-154.82 900.86,-158.12 910.79,-161.82 910.93,-154.82"/>
<text text-anchor="middle" x="1233" y="-169" font-family="Helvetica,sans-Serif" font-size="10.00"> pResourceCache_</text>
</g>
<!-- Node18&#45;&gt;Node17 -->
<g id="edge21" class="edge">
<title>Node18&#45;&gt;Node17</title>
<path fill="none" stroke="#9a32cd" stroke-dasharray="5,2" d="M675.17,-35.12C677.84,-36.38 680.47,-37.68 683,-39 743.8,-70.79 806.34,-124.93 830.79,-147.1"/>
<polygon fill="#9a32cd" stroke="#9a32cd" points="676.66,-31.95 666.1,-31.09 673.81,-38.35 676.66,-31.95"/>
<text text-anchor="middle" x="724" y="-80" font-family="Helvetica,sans-Serif" font-size="10.00"> field_0xc</text>
</g>
<!-- Node19&#45;&gt;Node17 -->
<g id="edge23" class="edge">
<title>Node19&#45;&gt;Node17</title>
<path fill="none" stroke="#9a32cd" stroke-dasharray="5,2" d="M672.58,-82.74C676.11,-84.16 679.61,-85.59 683,-87 732.3,-107.5 789.44,-133.22 819.84,-147.07"/>
<polygon fill="#9a32cd" stroke="#9a32cd" points="673.95,-79.51 663.37,-79.06 671.36,-86.02 673.95,-79.51"/>
<text text-anchor="middle" x="724" y="-117" font-family="Helvetica,sans-Serif" font-size="10.00"> field_0x18</text>
</g>
<!-- Node20 -->
<g id="node20" class="node">
<title>Node20</title>
<g id="a_node20"><a xlink:href="structJMessage_1_1TProcessor_1_1TStack__.html" target="_top" xlink:title=" ">
<polygon fill="white" stroke="#666666" points="1408,-143 1292,-143 1292,-113 1408,-113 1408,-143"/>
<text text-anchor="start" x="1300" y="-131" font-family="Helvetica,sans-Serif" font-size="10.00">JMessage::TProcessor</text>
<text text-anchor="middle" x="1350" y="-120" font-family="Helvetica,sans-Serif" font-size="10.00">::TStack_</text>
</a>
</g>
</g>
<!-- Node20&#45;&gt;Node3 -->
<g id="edge25" class="edge">
<title>Node20&#45;&gt;Node3</title>
<path fill="none" stroke="#9a32cd" stroke-dasharray="5,2" d="M1419.7,-134.81C1440.51,-137.53 1463.32,-141.2 1484,-146 1500.71,-149.88 1518.99,-155.93 1533.31,-161.11"/>
<polygon fill="#9a32cd" stroke="#9a32cd" points="1420.24,-131.35 1409.88,-133.57 1419.37,-138.29 1420.24,-131.35"/>
<text text-anchor="middle" x="1455" y="-149" font-family="Helvetica,sans-Serif" font-size="10.00"> oStack_</text>
</g>
<!-- Node21&#45;&gt;Node3 -->
<g id="edge26" class="edge">
<title>Node21&#45;&gt;Node3</title>
<path fill="none" stroke="#9a32cd" stroke-dasharray="5,2" d="M1780.62,-151.94C1731.11,-156.23 1664.97,-161.98 1618.24,-166.03"/>
<polygon fill="#9a32cd" stroke="#9a32cd" points="1780.7,-155.44 1790.36,-151.09 1780.09,-148.47 1780.7,-155.44"/>
<text text-anchor="middle" x="1694" y="-168" font-family="Helvetica,sans-Serif" font-size="10.00"> oProcess_</text>
</g>
</g>
</svg>
        <g id="navigator" transform="translate(0 0)" fill="#404254">
                <rect fill="#f2f5e9" fill-opacity="0.5" stroke="#606060" stroke-width=".5" x="0" y="0" width="60" height="60"/>
                <use id="zoomplus" xlink:href="#zoomPlus" x="17" y="9" onmousedown="handleZoom(evt,'in')"/>
                <use id="zoomminus" xlink:href="#zoomMin" x="42" y="9" onmousedown="handleZoom(evt,'out')"/>
                <use id="reset" xlink:href="#resetDef" x="30" y="36" onmousedown="handleReset()"/>
                <g id="arrowUp" xlink:href="#dirArrow" transform="translate(30 24)" onmousedown="handlePan(0,-1)">
                  <use xlink:href="#rim" fill="#404040">
                        <set attributeName="fill" to="#808080" begin="arrowUp.mouseover" end="arrowUp.mouseout"/>
                  </use>
                  <path fill="none" stroke="white" stroke-width="1.5" d="M0,-3.0v7 M-2.5,-0.5L0,-3.0L2.5,-0.5"/>
                </g>
                <g id="arrowRight" xlink:href="#dirArrow" transform="rotate(90) translate(36 -43)" onmousedown="handlePan(1,0)">
                  <use xlink:href="#rim" fill="#404040">
                        <set attributeName="fill" to="#808080" begin="arrowRight.mouseover" end="arrowRight.mouseout"/>
                  </use>
                  <path fill="none" stroke="white" stroke-width="1.5" d="M0,-3.0v7 M-2.5,-0.5L0,-3.0L2.5,-0.5"/>
                </g>
                <g id="arrowDown" xlink:href="#dirArrow" transform="rotate(180) translate(-30 -48)" onmousedown="handlePan(0,1)">
                  <use xlink:href="#rim" fill="#404040">
                        <set attributeName="fill" to="#808080" begin="arrowDown.mouseover" end="arrowDown.mouseout"/>
                  </use>
                  <path fill="none" stroke="white" stroke-width="1.5" d="M0,-3.0v7 M-2.5,-0.5L0,-3.0L2.5,-0.5"/>
                </g>
                <g id="arrowLeft" xlink:href="#dirArrow" transform="rotate(270) translate(-36 17)" onmousedown="handlePan(-1,0)">
                  <use xlink:href="#rim" fill="#404040">
                        <set attributeName="fill" to="#808080" begin="arrowLeft.mouseover" end="arrowLeft.mouseout"/>
                  </use>
                  <path fill="none" stroke="white" stroke-width="1.5" d="M0,-3.0v7 M-2.5,-0.5L0,-3.0L2.5,-0.5"/>
                </g>
        </g>
        <svg viewBox="0 0 15 15" width="100%" height="30px" preserveAspectRatio="xMaxYMin meet">
         <g id="arrow_out" transform="scale(0.3 0.3)">
          <a xlink:href="structjmessage__tMeasureProcessor__coll__graph_org.svg" target="_base">
           <rect id="button" ry="5" rx="5" y="6" x="6" height="38" width="38"
                fill="#f2f5e9" fill-opacity="0.5" stroke="#606060" stroke-width="1.0"/>
           <path id="arrow"
             d="M 11.500037,31.436501 C 11.940474,20.09759 22.043105,11.32322 32.158766,21.979434 L 37.068811,17.246167 C 37.068811,17.246167 37.088388,32 37.088388,32 L 22.160133,31.978069 C 22.160133,31.978069 26.997745,27.140456 26.997745,27.140456 C 18.528582,18.264221 13.291696,25.230495 11.500037,31.436501 z"
             style="fill:#404040;"/>
          </a>
         </g>
        </svg>
</svg>
