<?xml version="1.0" encoding="UTF-8" standalone="no"?>
<!DOCTYPE svg PUBLIC "-//W3C//DTD SVG 1.1//EN"
 "http://www.w3.org/Graphics/SVG/1.1/DTD/svg11.dtd">
<!-- Generated by graphviz version 7.0.5 (20221223.1930)
 -->
<!-- Title: JMessage::TControl Pages: 1 -->
<svg width="2762pt" height="268pt"
 viewBox="0.00 0.00 2762.00 268.00" xmlns="http://www.w3.org/2000/svg" xmlns:xlink="http://www.w3.org/1999/xlink">
<g id="graph0" class="graph" transform="scale(1 1) rotate(0) translate(4 264)">
<title>JMessage::TControl</title>
<!-- Node1 -->
<g id="node1" class="node">
<title>Node1</title>
<g id="a_node1"><a xlink:title=" ">
<polygon fill="#999999" stroke="#666666" points="2206,-115.5 2103,-115.5 2103,-96.5 2206,-96.5 2206,-115.5"/>
<text text-anchor="middle" x="2154.5" y="-103.5" font-family="Helvetica,sans-Serif" font-size="10.00">JMessage::TControl</text>
</a>
</g>
</g>
<!-- Node2 -->
<g id="node2" class="node">
<title>Node2</title>
<g id="a_node2"><a xlink:href="structJMessage_1_1TSequenceProcessor.html" target="_top" xlink:title=" ">
<polygon fill="white" stroke="#666666" points="2503,-81.5 2343,-81.5 2343,-62.5 2503,-62.5 2503,-81.5"/>
<text text-anchor="middle" x="2423" y="-69.5" font-family="Helvetica,sans-Serif" font-size="10.00">JMessage::TSequenceProcessor</text>
</a>
</g>
</g>
<!-- Node1&#45;&gt;Node2 -->
<g id="edge28" class="edge">
<title>Node1&#45;&gt;Node2</title>
<path fill="none" stroke="#9a32cd" stroke-dasharray="5,2" d="M2179.67,-90.09C2192.31,-82.72 2208.38,-74.76 2224,-71 2262.43,-61.75 2306.29,-61.01 2342.95,-63.01"/>
<polygon fill="#9a32cd" stroke="#9a32cd" points="2177.93,-87.05 2171.23,-95.26 2181.58,-93.02 2177.93,-87.05"/>
<text text-anchor="middle" x="2274.5" y="-74" font-family="Helvetica,sans-Serif" font-size="10.00"> pControl_</text>
</g>
<!-- Node2&#45;&gt;Node1 -->
<g id="edge1" class="edge">
<title>Node2&#45;&gt;Node1</title>
<path fill="none" stroke="#9a32cd" stroke-dasharray="5,2" d="M2332.27,-83.45C2290.28,-88.81 2241.81,-94.99 2206.25,-99.52"/>
<polygon fill="#9a32cd" stroke="#9a32cd" points="2332.66,-86.93 2342.14,-82.19 2331.78,-79.98 2332.66,-86.93"/>
<text text-anchor="middle" x="2274.5" y="-100" font-family="Helvetica,sans-Serif" font-size="10.00"> pSequenceProcessor_</text>
</g>
<!-- Node22 -->
<g id="node22" class="node">
<title>Node22</title>
<g id="a_node22"><a xlink:href="structJMessage_1_1TSequenceProcessor_1_1TProcess__.html" target="_top" xlink:title=" ">
<polygon fill="white" stroke="#666666" points="2754,-87 2594,-87 2594,-57 2754,-57 2754,-87"/>
<text text-anchor="start" x="2602" y="-75" font-family="Helvetica,sans-Serif" font-size="10.00">JMessage::TSequenceProcessor</text>
<text text-anchor="middle" x="2674" y="-64" font-family="Helvetica,sans-Serif" font-size="10.00">::TProcess_</text>
</a>
</g>
</g>
<!-- Node2&#45;&gt;Node22 -->
<g id="edge30" class="edge">
<title>Node2&#45;&gt;Node22</title>
<path fill="none" stroke="#9a32cd" stroke-dasharray="5,2" d="M2514.81,-72C2540.71,-72 2568.71,-72 2593.86,-72"/>
<polygon fill="#9a32cd" stroke="#9a32cd" points="2514.98,-68.5 2504.98,-72 2514.98,-75.5 2514.98,-68.5"/>
<text text-anchor="middle" x="2548.5" y="-86" font-family="Helvetica,sans-Serif" font-size="10.00"> branchFn</text>
<text text-anchor="middle" x="2548.5" y="-75" font-family="Helvetica,sans-Serif" font-size="10.00">jumpFn</text>
</g>
<!-- Node3 -->
<g id="node3" class="node">
<title>Node3</title>
<g id="a_node3"><a xlink:href="structJMessage_1_1TProcessor.html" target="_top" xlink:title=" ">
<polygon fill="white" stroke="#666666" points="1642,-90.5 1526,-90.5 1526,-71.5 1642,-71.5 1642,-90.5"/>
<text text-anchor="middle" x="1584" y="-78.5" font-family="Helvetica,sans-Serif" font-size="10.00">JMessage::TProcessor</text>
</a>
</g>
</g>
<!-- Node3&#45;&gt;Node2 -->
<g id="edge2" class="edge">
<title>Node3&#45;&gt;Node2</title>
<path fill="none" stroke="#63b8ff" d="M1616.86,-66.78C1629.97,-61.55 1645.46,-56.14 1660,-53 1723.57,-39.26 1741,-45.22 1806,-43 2036.64,-35.11 2095.13,-38.51 2325,-59 2334.14,-59.81 2343.74,-60.86 2353.2,-62.01"/>
<polygon fill="#63b8ff" stroke="#63b8ff" points="1615.78,-63.44 1607.89,-70.5 1618.46,-69.91 1615.78,-63.44"/>
</g>
<!-- Node21 -->
<g id="node21" class="node">
<title>Node21</title>
<g id="a_node21"><a xlink:href="structJMessage_1_1TProcessor_1_1TProcess__.html" target="_top" xlink:title=" ">
<polygon fill="white" stroke="#666666" points="1944,-121 1828,-121 1828,-91 1944,-91 1944,-121"/>
<text text-anchor="start" x="1836" y="-109" font-family="Helvetica,sans-Serif" font-size="10.00">JMessage::TProcessor</text>
<text text-anchor="middle" x="1886" y="-98" font-family="Helvetica,sans-Serif" font-size="10.00">::TProcess_</text>
</a>
</g>
</g>
<!-- Node3&#45;&gt;Node21 -->
<g id="edge27" class="edge">
<title>Node3&#45;&gt;Node21</title>
<path fill="none" stroke="#9a32cd" stroke-dasharray="5,2" d="M1653.43,-92.24C1655.64,-92.51 1657.84,-92.77 1660,-93 1716.79,-99.17 1781.99,-102.53 1827.53,-104.28"/>
<polygon fill="#9a32cd" stroke="#9a32cd" points="1654.12,-88.8 1643.75,-90.97 1653.21,-95.74 1654.12,-88.8"/>
<text text-anchor="middle" x="1724" y="-106" font-family="Helvetica,sans-Serif" font-size="10.00"> pfnProcess_CharacterEnd</text>
</g>
<!-- Node23 -->
<g id="node23" class="node">
<title>Node23</title>
<g id="a_node23"><a xlink:href="structJMessage_1_1TRenderingProcessor.html" target="_top" xlink:title=" ">
<polygon fill="white" stroke="#666666" points="1966,-71.5 1806,-71.5 1806,-52.5 1966,-52.5 1966,-71.5"/>
<text text-anchor="middle" x="1886" y="-59.5" font-family="Helvetica,sans-Serif" font-size="10.00">JMessage::TRenderingProcessor</text>
</a>
</g>
</g>
<!-- Node3&#45;&gt;Node23 -->
<g id="edge32" class="edge">
<title>Node3&#45;&gt;Node23</title>
<path fill="none" stroke="#63b8ff" d="M1627.76,-68.22C1638.21,-65.64 1649.43,-63.32 1660,-62 1708.07,-56.01 1762.36,-55.82 1805.57,-57.22"/>
<polygon fill="#63b8ff" stroke="#63b8ff" points="1627.04,-64.79 1618.25,-70.71 1628.81,-71.57 1627.04,-64.79"/>
</g>
<!-- Node4 -->
<g id="node4" class="node">
<title>Node4</title>
<g id="a_node4"><a xlink:href="structJMessage_1_1TReference.html" target="_top" xlink:title=" ">
<polygon fill="white" stroke="#666666" points="1408,-61.5 1292,-61.5 1292,-42.5 1408,-42.5 1408,-61.5"/>
<text text-anchor="middle" x="1350" y="-49.5" font-family="Helvetica,sans-Serif" font-size="10.00">JMessage::TReference</text>
</a>
</g>
</g>
<!-- Node4&#45;&gt;Node3 -->
<g id="edge3" class="edge">
<title>Node4&#45;&gt;Node3</title>
<path fill="none" stroke="#9a32cd" stroke-dasharray="5,2" d="M1419.39,-55.76C1447,-57.77 1479.11,-60.74 1508,-65 1518.8,-66.59 1530.38,-68.81 1541.12,-71.08"/>
<polygon fill="#9a32cd" stroke="#9a32cd" points="1419.98,-52.29 1409.76,-55.09 1419.49,-59.27 1419.98,-52.29"/>
<text text-anchor="middle" x="1467" y="-68" font-family="Helvetica,sans-Serif" font-size="10.00"> pReference_</text>
</g>
<!-- Node5 -->
<g id="node5" class="node">
<title>Node5</title>
<g id="a_node5"><a xlink:href="structJMessage_1_1TResourceContainer.html" target="_top" xlink:title=" ">
<polygon fill="white" stroke="#666666" points="1174,-61.5 1019,-61.5 1019,-42.5 1174,-42.5 1174,-61.5"/>
<text text-anchor="middle" x="1096.5" y="-49.5" font-family="Helvetica,sans-Serif" font-size="10.00">JMessage::TResourceContainer</text>
</a>
</g>
</g>
<!-- Node5&#45;&gt;Node4 -->
<g id="edge4" class="edge">
<title>Node5&#45;&gt;Node4</title>
<path fill="none" stroke="#9a32cd" stroke-dasharray="5,2" d="M1185.6,-52C1220.84,-52 1260.42,-52 1291.8,-52"/>
<polygon fill="#9a32cd" stroke="#9a32cd" points="1185.84,-48.5 1175.84,-52 1185.84,-55.5 1185.84,-48.5"/>
<text text-anchor="middle" x="1233" y="-55" font-family="Helvetica,sans-Serif" font-size="10.00"> pcResource_</text>
</g>
<!-- Node6 -->
<g id="node6" class="node">
<title>Node6</title>
<g id="a_node6"><a xlink:href="structJMessage_1_1TResourceContainer_1_1TCResource.html" target="_top" xlink:title=" ">
<polygon fill="white" stroke="#666666" points="920,-30 765,-30 765,0 920,0 920,-30"/>
<text text-anchor="start" x="773" y="-18" font-family="Helvetica,sans-Serif" font-size="10.00">JMessage::TResourceContainer</text>
<text text-anchor="middle" x="842.5" y="-7" font-family="Helvetica,sans-Serif" font-size="10.00">::TCResource</text>
</a>
</g>
</g>
<!-- Node6&#45;&gt;Node5 -->
<g id="edge5" class="edge">
<title>Node6&#45;&gt;Node5</title>
<path fill="none" stroke="#9a32cd" stroke-dasharray="5,2" d="M931.46,-27.91C962.97,-32.54 997.98,-37.68 1027.53,-42.02"/>
<polygon fill="#9a32cd" stroke="#9a32cd" points="932.38,-24.51 921.98,-26.52 931.36,-31.44 932.38,-24.51"/>
<text text-anchor="middle" x="969.5" y="-41" font-family="Helvetica,sans-Serif" font-size="10.00"> resContainer_</text>
</g>
<!-- Node7 -->
<g id="node7" class="node">
<title>Node7</title>
<g id="a_node7"><a xlink:href="structJGadget_1_1TLinkList__factory.html" target="_top" xlink:title=" ">
<polygon fill="white" stroke="#666666" points="683,-30 558,-30 558,0 683,0 683,-30"/>
<text text-anchor="start" x="566" y="-18" font-family="Helvetica,sans-Serif" font-size="10.00">JGadget::TLinkList</text>
<text text-anchor="middle" x="620.5" y="-7" font-family="Helvetica,sans-Serif" font-size="10.00">_factory&lt; TResource, 0 &gt;</text>
</a>
</g>
</g>
<!-- Node7&#45;&gt;Node6 -->
<g id="edge6" class="edge">
<title>Node7&#45;&gt;Node6</title>
<path fill="none" stroke="#63b8ff" d="M694.58,-15C717.13,-15 742.03,-15 764.82,-15"/>
<polygon fill="#63b8ff" stroke="#63b8ff" points="694.88,-11.5 684.88,-15 694.88,-18.5 694.88,-11.5"/>
</g>
<!-- Node8 -->
<g id="node8" class="node">
<title>Node8</title>
<g id="a_node8"><a xlink:href="structJGadget_1_1TLinkList.html" target="_top" xlink:title=" ">
<polygon fill="white" stroke="#666666" points="510,-62 411,-62 411,-32 510,-32 510,-62"/>
<text text-anchor="start" x="419" y="-50" font-family="Helvetica,sans-Serif" font-size="10.00">JGadget::TLinkList</text>
<text text-anchor="middle" x="460.5" y="-39" font-family="Helvetica,sans-Serif" font-size="10.00">&lt; T, I &gt;</text>
</a>
</g>
</g>
<!-- Node8&#45;&gt;Node7 -->
<g id="edge7" class="edge">
<title>Node8&#45;&gt;Node7</title>
<path fill="none" stroke="#63b8ff" d="M521.33,-34.88C533.17,-32.48 545.63,-29.96 557.55,-27.55"/>
<polygon fill="#63b8ff" stroke="#63b8ff" points="520.78,-31.42 511.68,-36.84 522.17,-38.28 520.78,-31.42"/>
</g>
<!-- Node9 -->
<g id="node9" class="node">
<title>Node9</title>
<g id="a_node9"><a xlink:href="structJGadget_1_1TNodeLinkList.html" target="_top" xlink:title=" ">
<polygon fill="white" stroke="#666666" points="354,-109.5 232,-109.5 232,-90.5 354,-90.5 354,-109.5"/>
<text text-anchor="middle" x="293" y="-97.5" font-family="Helvetica,sans-Serif" font-size="10.00">JGadget::TNodeLinkList</text>
</a>
</g>
</g>
<!-- Node9&#45;&gt;Node8 -->
<g id="edge8" class="edge">
<title>Node9&#45;&gt;Node8</title>
<path fill="none" stroke="#63b8ff" d="M335.9,-86.58C358.85,-79.23 387.39,-70.09 411.26,-62.45"/>
<polygon fill="#63b8ff" stroke="#63b8ff" points="335.03,-83.19 326.57,-89.57 337.16,-89.85 335.03,-83.19"/>
</g>
<!-- Node10 -->
<g id="node10" class="node">
<title>Node10</title>
<g id="a_node10"><a xlink:href="structJGadget_1_1TLinkListNode.html" target="_top" xlink:title=" ">
<polygon fill="white" stroke="#666666" points="131,-131.5 9,-131.5 9,-112.5 131,-112.5 131,-131.5"/>
<text text-anchor="middle" x="70" y="-119.5" font-family="Helvetica,sans-Serif" font-size="10.00">JGadget::TLinkListNode</text>
</a>
</g>
</g>
<!-- Node10&#45;&gt;Node9 -->
<g id="edge9" class="edge">
<title>Node10&#45;&gt;Node9</title>
<path fill="none" stroke="#9a32cd" stroke-dasharray="5,2" d="M142.61,-114.87C171.37,-112.01 204.16,-108.74 231.68,-106"/>
<polygon fill="#9a32cd" stroke="#9a32cd" points="142.5,-111.37 132.9,-115.84 143.19,-118.33 142.5,-111.37"/>
<text text-anchor="middle" x="181.5" y="-116" font-family="Helvetica,sans-Serif" font-size="10.00"> ocObject_</text>
</g>
<!-- Node10&#45;&gt;Node10 -->
<g id="edge10" class="edge">
<title>Node10&#45;&gt;Node10</title>
<path fill="none" stroke="#9a32cd" stroke-dasharray="5,2" d="M50.21,-142.93C52.68,-146.79 59.28,-149.5 70,-149.5 89.6,-149.5 95.42,-140.44 87.46,-131.87"/>
<polygon fill="#9a32cd" stroke="#9a32cd" points="53.59,-143.86 52.23,-133.35 46.74,-142.41 53.59,-143.86"/>
<text text-anchor="middle" x="70" y="-163.5" font-family="Helvetica,sans-Serif" font-size="10.00"> mNext</text>
<text text-anchor="middle" x="70" y="-152.5" font-family="Helvetica,sans-Serif" font-size="10.00">mPrev</text>
</g>
<!-- Node17 -->
<g id="node17" class="node">
<title>Node17</title>
<g id="a_node17"><a xlink:href="structJMessage_1_1TResource.html" target="_top" xlink:title=" ">
<polygon fill="white" stroke="#666666" points="899,-180.5 786,-180.5 786,-161.5 899,-161.5 899,-180.5"/>
<text text-anchor="middle" x="842.5" y="-168.5" font-family="Helvetica,sans-Serif" font-size="10.00">JMessage::TResource</text>
</a>
</g>
</g>
<!-- Node10&#45;&gt;Node17 -->
<g id="edge19" class="edge">
<title>Node10&#45;&gt;Node17</title>
<path fill="none" stroke="#9a32cd" stroke-dasharray="5,2" d="M125.08,-134.26C169.63,-143.29 234.58,-154 292,-154 292,-154 292,-154 621.5,-154 677.43,-154 741.12,-159.53 785.53,-164.28"/>
<polygon fill="#9a32cd" stroke="#9a32cd" points="125.91,-130.86 115.41,-132.26 124.49,-137.71 125.91,-130.86"/>
<text text-anchor="middle" x="460.5" y="-157" font-family="Helvetica,sans-Serif" font-size="10.00"> ocObject_</text>
</g>
<!-- Node11 -->
<g id="node11" class="node">
<title>Node11</title>
<g id="a_node11"><a xlink:href="structJMessage_1_1TResource__color.html" target="_top" xlink:title=" ">
<polygon fill="white" stroke="#666666" points="899,-78 786,-78 786,-48 899,-48 899,-78"/>
<text text-anchor="start" x="794" y="-66" font-family="Helvetica,sans-Serif" font-size="10.00">JMessage::TResource</text>
<text text-anchor="middle" x="842.5" y="-55" font-family="Helvetica,sans-Serif" font-size="10.00">_color</text>
</a>
</g>
</g>
<!-- Node11&#45;&gt;Node5 -->
<g id="edge11" class="edge">
<title>Node11&#45;&gt;Node5</title>
<path fill="none" stroke="#9a32cd" stroke-dasharray="5,2" d="M910.86,-60.06C944.08,-58.61 984.3,-56.85 1018.7,-55.35"/>
<polygon fill="#9a32cd" stroke="#9a32cd" points="910.78,-56.56 900.94,-60.49 911.08,-63.55 910.78,-56.56"/>
<text text-anchor="middle" x="969.5" y="-62" font-family="Helvetica,sans-Serif" font-size="10.00"> resColor_</text>
</g>
<!-- Node12 -->
<g id="node12" class="node">
<title>Node12</title>
<g id="a_node12"><a xlink:href="structJMessage_1_1data_1_1TParse__THeader.html" target="_top" xlink:title=" ">
<polygon fill="white" stroke="#666666" points="681,-78 560,-78 560,-48 681,-48 681,-78"/>
<text text-anchor="start" x="568" y="-66" font-family="Helvetica,sans-Serif" font-size="10.00">JMessage::data::TParse</text>
<text text-anchor="middle" x="620.5" y="-55" font-family="Helvetica,sans-Serif" font-size="10.00">_THeader</text>
</a>
</g>
</g>
<!-- Node12&#45;&gt;Node11 -->
<g id="edge12" class="edge">
<title>Node12&#45;&gt;Node11</title>
<path fill="none" stroke="#9a32cd" stroke-dasharray="5,2" d="M692.83,-61.12C695.59,-61.07 698.32,-61.03 701,-61 728.93,-60.65 759.98,-61.01 785.78,-61.52"/>
<polygon fill="#9a32cd" stroke="#9a32cd" points="692.85,-57.62 682.92,-61.3 692.98,-64.62 692.85,-57.62"/>
<text text-anchor="middle" x="724" y="-64" font-family="Helvetica,sans-Serif" font-size="10.00"> field_0x0</text>
</g>
<!-- Node12&#45;&gt;Node17 -->
<g id="edge20" class="edge">
<title>Node12&#45;&gt;Node17</title>
<path fill="none" stroke="#9a32cd" stroke-dasharray="5,2" d="M677.46,-83.54C679.37,-84.65 681.22,-85.8 683,-87 692.65,-93.49 691.55,-99.21 701,-106 711.23,-113.35 781.85,-144.8 818.9,-161.11"/>
<polygon fill="#9a32cd" stroke="#9a32cd" points="679.47,-80.64 668.98,-79.1 676.22,-86.84 679.47,-80.64"/>
<text text-anchor="middle" x="724" y="-130" font-family="Helvetica,sans-Serif" font-size="10.00"> field_0x8</text>
</g>
<!-- Node13 -->
<g id="node13" class="node">
<title>Node13</title>
<g id="a_node13"><a xlink:href="structJGadget_1_1binary_1_1TParseData__aligned.html" target="_top" xlink:title=" ">
<polygon fill="white" stroke="#666666" points="363,-215 223,-215 223,-185 363,-185 363,-215"/>
<text text-anchor="start" x="231" y="-203" font-family="Helvetica,sans-Serif" font-size="10.00">JGadget::binary::TParseData</text>
<text text-anchor="middle" x="293" y="-192" font-family="Helvetica,sans-Serif" font-size="10.00">_aligned&lt; 4 &gt;</text>
</a>
</g>
</g>
<!-- Node13&#45;&gt;Node12 -->
<g id="edge13" class="edge">
<title>Node13&#45;&gt;Node12</title>
<path fill="none" stroke="#63b8ff" d="M323.33,-178.16C343.95,-163.58 372.64,-144.79 400,-132 451.92,-107.71 514.61,-88.98 559.67,-77.19"/>
<polygon fill="#63b8ff" stroke="#63b8ff" points="321.48,-175.18 315.4,-183.85 325.56,-180.86 321.48,-175.18"/>
</g>
<!-- Node16 -->
<g id="node16" class="node">
<title>Node16</title>
<g id="a_node16"><a xlink:href="structJMessage_1_1data_1_1TParse__TBlock.html" target="_top" xlink:title=" ">
<polygon fill="white" stroke="#666666" points="521,-217 400,-217 400,-187 521,-187 521,-217"/>
<text text-anchor="start" x="408" y="-205" font-family="Helvetica,sans-Serif" font-size="10.00">JMessage::data::TParse</text>
<text text-anchor="middle" x="460.5" y="-194" font-family="Helvetica,sans-Serif" font-size="10.00">_TBlock</text>
</a>
</g>
</g>
<!-- Node13&#45;&gt;Node16 -->
<g id="edge17" class="edge">
<title>Node13&#45;&gt;Node16</title>
<path fill="none" stroke="#63b8ff" d="M374.69,-200.98C383.13,-201.08 391.6,-201.18 399.75,-201.28"/>
<polygon fill="#63b8ff" stroke="#63b8ff" points="374.78,-197.48 364.74,-200.85 374.7,-204.48 374.78,-197.48"/>
</g>
<!-- Node14 -->
<g id="node14" class="node">
<title>Node14</title>
<g id="a_node14"><a xlink:href="structJGadget_1_1binary_1_1TParseData.html" target="_top" xlink:title=" ">
<polygon fill="white" stroke="#666666" points="140,-209.5 0,-209.5 0,-190.5 140,-190.5 140,-209.5"/>
<text text-anchor="middle" x="70" y="-197.5" font-family="Helvetica,sans-Serif" font-size="10.00">JGadget::binary::TParseData</text>
</a>
</g>
</g>
<!-- Node14&#45;&gt;Node13 -->
<g id="edge14" class="edge">
<title>Node14&#45;&gt;Node13</title>
<path fill="none" stroke="#63b8ff" d="M151.57,-200C174.84,-200 200.02,-200 222.55,-200"/>
<polygon fill="#63b8ff" stroke="#63b8ff" points="151.83,-196.5 141.83,-200 151.83,-203.5 151.83,-196.5"/>
</g>
<!-- Node15 -->
<g id="node15" class="node">
<title>Node15</title>
<g id="a_node15"><a xlink:href="structJMessage_1_1data_1_1TParse__TBlock__color.html" target="_top" xlink:title=" ">
<polygon fill="white" stroke="#666666" points="681,-126 560,-126 560,-96 681,-96 681,-126"/>
<text text-anchor="start" x="568" y="-114" font-family="Helvetica,sans-Serif" font-size="10.00">JMessage::data::TParse</text>
<text text-anchor="middle" x="620.5" y="-103" font-family="Helvetica,sans-Serif" font-size="10.00">_TBlock_color</text>
</a>
</g>
</g>
<!-- Node15&#45;&gt;Node11 -->
<g id="edge15" class="edge">
<title>Node15&#45;&gt;Node11</title>
<path fill="none" stroke="#9a32cd" stroke-dasharray="5,2" d="M692.26,-95.56C722.56,-88.95 757.43,-81.34 785.84,-75.14"/>
<polygon fill="#9a32cd" stroke="#9a32cd" points="691.83,-92.07 682.8,-97.62 693.32,-98.91 691.83,-92.07"/>
<text text-anchor="middle" x="724" y="-96" font-family="Helvetica,sans-Serif" font-size="10.00"> field_0x4</text>
</g>
<!-- Node16&#45;&gt;Node15 -->
<g id="edge16" class="edge">
<title>Node16&#45;&gt;Node15</title>
<path fill="none" stroke="#63b8ff" d="M499.33,-181.21C506.55,-177.19 514.02,-172.99 521,-169 545.81,-154.82 573.87,-138.24 593.68,-126.45"/>
<polygon fill="#63b8ff" stroke="#63b8ff" points="498.1,-177.89 491.06,-185.8 501.5,-184.01 498.1,-177.89"/>
</g>
<!-- Node18 -->
<g id="node18" class="node">
<title>Node18</title>
<g id="a_node18"><a xlink:href="structJMessage_1_1data_1_1TParse__TBlock__info.html" target="_top" xlink:title=" ">
<polygon fill="white" stroke="#666666" points="681,-260 560,-260 560,-230 681,-230 681,-260"/>
<text text-anchor="start" x="568" y="-248" font-family="Helvetica,sans-Serif" font-size="10.00">JMessage::data::TParse</text>
<text text-anchor="middle" x="620.5" y="-237" font-family="Helvetica,sans-Serif" font-size="10.00">_TBlock_info</text>
</a>
</g>
</g>
<!-- Node16&#45;&gt;Node18 -->
<g id="edge22" class="edge">
<title>Node16&#45;&gt;Node18</title>
<path fill="none" stroke="#63b8ff" d="M529.16,-220.41C540.36,-223.46 551.87,-226.59 562.77,-229.56"/>
<polygon fill="#63b8ff" stroke="#63b8ff" points="530.12,-217.05 519.56,-217.8 528.29,-223.8 530.12,-217.05"/>
</g>
<!-- Node19 -->
<g id="node19" class="node">
<title>Node19</title>
<g id="a_node19"><a xlink:href="structJMessage_1_1data_1_1TParse__TBlock__messageID.html" target="_top" xlink:title=" ">
<polygon fill="white" stroke="#666666" points="681,-212 560,-212 560,-182 681,-182 681,-212"/>
<text text-anchor="start" x="568" y="-200" font-family="Helvetica,sans-Serif" font-size="10.00">JMessage::data::TParse</text>
<text text-anchor="middle" x="620.5" y="-189" font-family="Helvetica,sans-Serif" font-size="10.00">_TBlock_messageID</text>
</a>
</g>
</g>
<!-- Node16&#45;&gt;Node19 -->
<g id="edge24" class="edge">
<title>Node16&#45;&gt;Node19</title>
<path fill="none" stroke="#63b8ff" d="M532.59,-199.75C541.64,-199.46 550.83,-199.17 559.68,-198.89"/>
<polygon fill="#63b8ff" stroke="#63b8ff" points="532.63,-196.25 522.75,-200.06 532.85,-203.24 532.63,-196.25"/>
</g>
<!-- Node17&#45;&gt;Node1 -->
<g id="edge33" class="edge">
<title>Node17&#45;&gt;Node1</title>
<path fill="none" stroke="#9a32cd" stroke-dasharray="5,2" d="M910.95,-177.61C961.66,-182.02 1032.87,-187 1095.5,-187 1095.5,-187 1095.5,-187 1887,-187 1983.71,-187 2091.97,-137.56 2134.71,-115.93"/>
<polygon fill="#9a32cd" stroke="#9a32cd" points="911.26,-174.13 900.99,-176.73 910.64,-181.1 911.26,-174.13"/>
<text text-anchor="middle" x="1467" y="-190" font-family="Helvetica,sans-Serif" font-size="10.00"> pResourceCache_</text>
</g>
<!-- Node17&#45;&gt;Node3 -->
<g id="edge18" class="edge">
<title>Node17&#45;&gt;Node3</title>
<path fill="none" stroke="#9a32cd" stroke-dasharray="5,2" d="M910.8,-162.43C998.51,-151.3 1156.68,-131.35 1292,-115 1373.05,-105.21 1466.85,-94.33 1525.56,-87.58"/>
<polygon fill="#9a32cd" stroke="#9a32cd" points="910.4,-158.95 900.92,-163.68 911.28,-165.9 910.4,-158.95"/>
<text text-anchor="middle" x="1233" y="-130" font-family="Helvetica,sans-Serif" font-size="10.00"> pResourceCache_</text>
</g>
<!-- Node18&#45;&gt;Node17 -->
<g id="edge21" class="edge">
<title>Node18&#45;&gt;Node17</title>
<path fill="none" stroke="#9a32cd" stroke-dasharray="5,2" d="M678.16,-225.94C720.87,-211.58 777.74,-192.45 811.87,-180.97"/>
<polygon fill="#9a32cd" stroke="#9a32cd" points="677.15,-222.59 668.79,-229.09 679.38,-229.22 677.15,-222.59"/>
<text text-anchor="middle" x="724" y="-219" font-family="Helvetica,sans-Serif" font-size="10.00"> field_0xc</text>
</g>
<!-- Node19&#45;&gt;Node17 -->
<g id="edge23" class="edge">
<title>Node19&#45;&gt;Node17</title>
<path fill="none" stroke="#9a32cd" stroke-dasharray="5,2" d="M692.66,-188.59C722.87,-185.02 757.56,-180.92 785.84,-177.58"/>
<polygon fill="#9a32cd" stroke="#9a32cd" points="692.35,-185.1 682.83,-189.75 693.17,-192.05 692.35,-185.1"/>
<text text-anchor="middle" x="724" y="-190" font-family="Helvetica,sans-Serif" font-size="10.00"> field_0x18</text>
</g>
<!-- Node20 -->
<g id="node20" class="node">
<title>Node20</title>
<g id="a_node20"><a xlink:href="structJMessage_1_1TProcessor_1_1TStack__.html" target="_top" xlink:title=" ">
<polygon fill="white" stroke="#666666" points="1408,-154 1292,-154 1292,-124 1408,-124 1408,-154"/>
<text text-anchor="start" x="1300" y="-142" font-family="Helvetica,sans-Serif" font-size="10.00">JMessage::TProcessor</text>
<text text-anchor="middle" x="1350" y="-131" font-family="Helvetica,sans-Serif" font-size="10.00">::TStack_</text>
</a>
</g>
</g>
<!-- Node20&#45;&gt;Node1 -->
<g id="edge34" class="edge">
<title>Node20&#45;&gt;Node1</title>
<path fill="none" stroke="#9a32cd" stroke-dasharray="5,2" d="M1419.61,-140.51C1533.34,-142.46 1768.03,-144.07 1966,-130 2012.48,-126.7 2065.09,-119.67 2102.72,-114.07"/>
<polygon fill="#9a32cd" stroke="#9a32cd" points="1419.9,-137.02 1409.84,-140.34 1419.77,-144.02 1419.9,-137.02"/>
<text text-anchor="middle" x="1724" y="-144" font-family="Helvetica,sans-Serif" font-size="10.00"> oStack_renderingProcessor_</text>
</g>
<!-- Node20&#45;&gt;Node3 -->
<g id="edge25" class="edge">
<title>Node20&#45;&gt;Node3</title>
<path fill="none" stroke="#9a32cd" stroke-dasharray="5,2" d="M1419.6,-122.76C1447.11,-116.15 1479.1,-108.35 1508,-101 1520.54,-97.81 1534.22,-94.2 1546.42,-90.94"/>
<polygon fill="#9a32cd" stroke="#9a32cd" points="1418.88,-119.33 1409.97,-125.07 1420.51,-126.14 1418.88,-119.33"/>
<text text-anchor="middle" x="1467" y="-125" font-family="Helvetica,sans-Serif" font-size="10.00"> oStack_</text>
</g>
<!-- Node21&#45;&gt;Node3 -->
<g id="edge26" class="edge">
<title>Node21&#45;&gt;Node3</title>
<path fill="none" stroke="#9a32cd" stroke-dasharray="5,2" d="M1821.42,-87.99C1810.36,-85.51 1798.91,-83.36 1788,-82 1739.04,-75.91 1682.92,-76.18 1642.11,-77.68"/>
<polygon fill="#9a32cd" stroke="#9a32cd" points="1820.3,-91.32 1830.84,-90.21 1821.91,-84.51 1820.3,-91.32"/>
<text text-anchor="middle" x="1724" y="-85" font-family="Helvetica,sans-Serif" font-size="10.00"> oProcess_</text>
</g>
<!-- Node22&#45;&gt;Node2 -->
<g id="edge29" class="edge">
<title>Node22&#45;&gt;Node2</title>
<path fill="none" stroke="#9a32cd" stroke-dasharray="5,2" d="M2582.3,-56.57C2580.18,-56.36 2578.08,-56.17 2576,-56 2551.64,-54 2545.36,-54 2521,-56 2505.86,-57.24 2489.52,-59.55 2474.65,-62.04"/>
<polygon fill="#9a32cd" stroke="#9a32cd" points="2581.9,-60.05 2592.22,-57.67 2582.67,-53.09 2581.9,-60.05"/>
<text text-anchor="middle" x="2548.5" y="-59" font-family="Helvetica,sans-Serif" font-size="10.00"> oProcess2_</text>
</g>
<!-- Node23&#45;&gt;Node1 -->
<g id="edge31" class="edge">
<title>Node23&#45;&gt;Node1</title>
<path fill="none" stroke="#9a32cd" stroke-dasharray="5,2" d="M1958.75,-73.85C2004.21,-81.35 2061.91,-90.88 2102.67,-97.61"/>
<polygon fill="#9a32cd" stroke="#9a32cd" points="1959.4,-70.41 1948.97,-72.23 1958.26,-77.31 1959.4,-70.41"/>
<text text-anchor="middle" x="2034.5" y="-98" font-family="Helvetica,sans-Serif" font-size="10.00"> pRenderingProcessor_</text>
</g>
</g>
</svg>
