<?xml version="1.0" encoding="UTF-8" standalone="no"?>
<!DOCTYPE svg PUBLIC "-//W3C//DTD SVG 1.1//EN"
 "http://www.w3.org/Graphics/SVG/1.1/DTD/svg11.dtd">
<!-- Generated by graphviz version 7.0.5 (20221223.1930)
 -->
<!-- Title: JStudio::TObject_particle Pages: 1 -->
<!--zoomable 302 -->
<svg id="main" version="1.1" xmlns="http://www.w3.org/2000/svg" xmlns:xlink="http://www.w3.org/1999/xlink" xml:space="preserve" onload="init(evt)">
<style type="text/css"><![CDATA[
.edge:hover path { stroke: red; }
.edge:hover polygon { stroke: red; fill: red; }
]]></style>
<script type="text/javascript"><![CDATA[
var edges = document.getElementsByTagName('g');
if (edges && edges.length) {
  for (var i=0;i<edges.length;i++) {
    if (edges[i].id.substr(0,4)=='edge') {
      edges[i].setAttribute('class','edge');
    }
  }
}
]]></script>
        <defs>
                <circle id="rim" cx="0" cy="0" r="7"/>
                <circle id="rim2" cx="0" cy="0" r="3.5"/>
                <g id="zoomPlus">
                        <use xlink:href="#rim" fill="#404040">
                                <set attributeName="fill" to="#808080" begin="zoomplus.mouseover" end="zoomplus.mouseout"/>
                        </use>
                        <path d="M-4,0h8M0,-4v8" fill="none" stroke="white" stroke-width="1.5" pointer-events="none"/>
                </g>
                <g id="zoomMin">
                        <use xlink:href="#rim" fill="#404040">
                                <set attributeName="fill" to="#808080" begin="zoomminus.mouseover" end="zoomminus.mouseout"/>
                        </use>
                        <path d="M-4,0h8" fill="none" stroke="white" stroke-width="1.5" pointer-events="none"/>
                </g>
                <g id="dirArrow">
                        <path fill="none" stroke="white" stroke-width="1.5" d="M0,-3.0v7 M-2.5,-0.5L0,-3.0L2.5,-0.5"/>
                </g>
               <g id="resetDef">
                       <use xlink:href="#rim2" fill="#404040">
                               <set attributeName="fill" to="#808080" begin="reset.mouseover" end="reset.mouseout"/>
                       </use>
               </g>
        </defs>

<script type="text/javascript">
var viewWidth = 965;
var viewHeight = 302;
var sectionId = 'dynsection-1';
</script>
<script xlink:href="svgpan.js"/>
<svg id="graph" class="graph">
<g id="viewport">
<title>JStudio::TObject_particle</title>
<!-- Node1 -->
<g id="node1" class="node">
<title>Node1</title>
<g id="a_node1"><a xlink:title=" ">
<polygon fill="#999999" stroke="#666666" points="957,-134 832,-134 832,-115 957,-115 957,-134"/>
<text text-anchor="middle" x="894.5" y="-122" font-family="Helvetica,sans-Serif" font-size="10.00">JStudio::TObject_particle</text>
</a>
</g>
</g>
<!-- Node2 -->
<g id="node2" class="node">
<title>Node2</title>
<g id="a_node2"><a xlink:href="classJStudio_1_1TObject.html" target="_top" xlink:title=" ">
<polygon fill="white" stroke="#666666" points="690,-110 601,-110 601,-91 690,-91 690,-110"/>
<text text-anchor="middle" x="645.5" y="-98" font-family="Helvetica,sans-Serif" font-size="10.00">JStudio::TObject</text>
</a>
</g>
</g>
<!-- Node2&#45;&gt;Node1 -->
<g id="edge1" class="edge">
<title>Node2&#45;&gt;Node1</title>
<path fill="none" stroke="#63b8ff" d="M701.59,-107.1C712.02,-108.29 722.84,-109.47 733,-110.5 765.56,-113.8 801.88,-117.01 831.73,-119.52"/>
<polygon fill="#63b8ff" stroke="#63b8ff" points="702.32,-103.66 691.98,-106 701.52,-110.62 702.32,-103.66"/>
</g>
<!-- Node12 -->
<g id="node12" class="node">
<title>Node12</title>
<g id="a_node12"><a xlink:href="structJStudio_1_1TAdaptor.html" target="_top" xlink:title=" ">
<polygon fill="white" stroke="#666666" points="941.5,-74 847.5,-74 847.5,-55 941.5,-55 941.5,-74"/>
<text text-anchor="middle" x="894.5" y="-62" font-family="Helvetica,sans-Serif" font-size="10.00">JStudio::TAdaptor</text>
</a>
</g>
</g>
<!-- Node2&#45;&gt;Node12 -->
<g id="edge15" class="edge">
<title>Node2&#45;&gt;Node12</title>
<path fill="none" stroke="#9a32cd" stroke-dasharray="5,2" d="M673.77,-85.46C690.35,-77.18 712.26,-67.75 733,-63.5 770.94,-55.73 815,-56.69 847.35,-59.19"/>
<polygon fill="#9a32cd" stroke="#9a32cd" points="672.33,-82.26 665.05,-89.97 675.54,-88.48 672.33,-82.26"/>
<text text-anchor="middle" x="773.5" y="-66.5" font-family="Helvetica,sans-Serif" font-size="10.00"> pObject_</text>
</g>
<!-- Node3 -->
<g id="node3" class="node">
<title>Node3</title>
<g id="a_node3"><a xlink:href="classJStudio_1_1stb_1_1TObject.html" target="_top" xlink:title=" ">
<polygon fill="white" stroke="#666666" points="489.5,-159 382.5,-159 382.5,-140 489.5,-140 489.5,-159"/>
<text text-anchor="middle" x="436" y="-147" font-family="Helvetica,sans-Serif" font-size="10.00">JStudio::stb::TObject</text>
</a>
</g>
</g>
<!-- Node3&#45;&gt;Node2 -->
<g id="edge2" class="edge">
<title>Node3&#45;&gt;Node2</title>
<path fill="none" stroke="#63b8ff" d="M490.17,-136.94C525.02,-128.72 569.94,-118.11 602.32,-110.46"/>
<polygon fill="#63b8ff" stroke="#63b8ff" points="489.64,-133.47 480.71,-139.18 491.25,-140.29 489.64,-133.47"/>
</g>
<!-- Node11 -->
<g id="node11" class="node">
<title>Node11</title>
<g id="a_node11"><a xlink:href="classJStudio_1_1stb_1_1TObject__control.html" target="_top" xlink:title=" ">
<polygon fill="white" stroke="#666666" points="699,-208.5 592,-208.5 592,-178.5 699,-178.5 699,-208.5"/>
<text text-anchor="start" x="600" y="-196.5" font-family="Helvetica,sans-Serif" font-size="10.00">JStudio::stb::TObject</text>
<text text-anchor="middle" x="645.5" y="-185.5" font-family="Helvetica,sans-Serif" font-size="10.00">_control</text>
</a>
</g>
</g>
<!-- Node3&#45;&gt;Node11 -->
<g id="edge13" class="edge">
<title>Node3&#45;&gt;Node11</title>
<path fill="none" stroke="#63b8ff" d="M495.35,-161.87C525.63,-168.29 562.34,-176.08 591.76,-182.32"/>
<polygon fill="#63b8ff" stroke="#63b8ff" points="496.07,-158.45 485.57,-159.8 494.62,-165.3 496.07,-158.45"/>
</g>
<!-- Node4 -->
<g id="node4" class="node">
<title>Node4</title>
<g id="a_node4"><a xlink:href="structJStudio_1_1object_1_1TObject__ID.html" target="_top" xlink:title=" ">
<polygon fill="white" stroke="#666666" points="292,-159 158,-159 158,-140 292,-140 292,-159"/>
<text text-anchor="middle" x="225" y="-147" font-family="Helvetica,sans-Serif" font-size="10.00">JStudio::object::TObject_ID</text>
</a>
</g>
</g>
<!-- Node4&#45;&gt;Node3 -->
<g id="edge3" class="edge">
<title>Node4&#45;&gt;Node3</title>
<path fill="none" stroke="#63b8ff" d="M303.85,-149.5C330.02,-149.5 358.57,-149.5 382.33,-149.5"/>
<polygon fill="#63b8ff" stroke="#63b8ff" points="303.93,-146 293.93,-149.5 303.93,-153 303.93,-146"/>
</g>
<!-- Node5 -->
<g id="node5" class="node">
<title>Node5</title>
<g id="a_node5"><a xlink:href="structJStudio_1_1object_1_1TIDData.html" target="_top" xlink:title=" ">
<polygon fill="white" stroke="#666666" points="121,-159 0,-159 0,-140 121,-140 121,-159"/>
<text text-anchor="middle" x="60.5" y="-147" font-family="Helvetica,sans-Serif" font-size="10.00">JStudio::object::TIDData</text>
</a>
</g>
</g>
<!-- Node5&#45;&gt;Node4 -->
<g id="edge4" class="edge">
<title>Node5&#45;&gt;Node4</title>
<path fill="none" stroke="#63b8ff" d="M132.37,-149.5C140.74,-149.5 149.26,-149.5 157.56,-149.5"/>
<polygon fill="#63b8ff" stroke="#63b8ff" points="132.6,-146 122.6,-149.5 132.6,-153 132.6,-146"/>
</g>
<!-- Node6 -->
<g id="node6" class="node">
<title>Node6</title>
<g id="a_node6"><a xlink:href="structJGadget_1_1TLinkListNode.html" target="_top" xlink:title=" ">
<polygon fill="white" stroke="#666666" points="286,-211 164,-211 164,-192 286,-192 286,-211"/>
<text text-anchor="middle" x="225" y="-199" font-family="Helvetica,sans-Serif" font-size="10.00">JGadget::TLinkListNode</text>
</a>
</g>
</g>
<!-- Node6&#45;&gt;Node3 -->
<g id="edge5" class="edge">
<title>Node6&#45;&gt;Node3</title>
<path fill="none" stroke="#9a32cd" stroke-dasharray="5,2" d="M276.67,-188.89C313.03,-179.85 361.33,-167.83 394.99,-159.45"/>
<polygon fill="#9a32cd" stroke="#9a32cd" points="276.13,-185.42 267.27,-191.23 277.82,-192.21 276.13,-185.42"/>
<text text-anchor="middle" x="333.5" y="-183.5" font-family="Helvetica,sans-Serif" font-size="10.00"> ocObject_</text>
</g>
<!-- Node6&#45;&gt;Node6 -->
<g id="edge6" class="edge">
<title>Node6&#45;&gt;Node6</title>
<path fill="none" stroke="#9a32cd" stroke-dasharray="5,2" d="M209.99,-222.76C212.01,-226.44 217.02,-229 225,-229 240.03,-229 244.49,-219.94 238.39,-211.37"/>
<polygon fill="#9a32cd" stroke="#9a32cd" points="213.46,-223.26 211.4,-212.87 206.53,-222.27 213.46,-223.26"/>
<text text-anchor="middle" x="225" y="-243" font-family="Helvetica,sans-Serif" font-size="10.00"> mNext</text>
<text text-anchor="middle" x="225" y="-232" font-family="Helvetica,sans-Serif" font-size="10.00">mPrev</text>
</g>
<!-- Node10 -->
<g id="node10" class="node">
<title>Node10</title>
<g id="a_node10"><a xlink:href="structJGadget_1_1TNodeLinkList.html" target="_top" xlink:title=" ">
<polygon fill="white" stroke="#666666" points="497,-232 375,-232 375,-213 497,-213 497,-232"/>
<text text-anchor="middle" x="436" y="-220" font-family="Helvetica,sans-Serif" font-size="10.00">JGadget::TNodeLinkList</text>
</a>
</g>
</g>
<!-- Node6&#45;&gt;Node10 -->
<g id="edge11" class="edge">
<title>Node6&#45;&gt;Node10</title>
<path fill="none" stroke="#9a32cd" stroke-dasharray="5,2" d="M297.74,-208.71C322.8,-211.23 350.65,-214.02 374.68,-216.44"/>
<polygon fill="#9a32cd" stroke="#9a32cd" points="298.26,-205.24 287.96,-207.73 297.56,-212.21 298.26,-205.24"/>
<text text-anchor="middle" x="333.5" y="-217.5" font-family="Helvetica,sans-Serif" font-size="10.00"> ocObject_</text>
</g>
<!-- Node7 -->
<g id="node7" class="node">
<title>Node7</title>
<g id="a_node7"><a xlink:href="classJStudio_1_1stb_1_1TControl.html" target="_top" xlink:title=" ">
<polygon fill="white" stroke="#666666" points="949,-230 840,-230 840,-211 949,-211 949,-230"/>
<text text-anchor="middle" x="894.5" y="-218" font-family="Helvetica,sans-Serif" font-size="10.00">JStudio::stb::TControl</text>
</a>
</g>
</g>
<!-- Node7&#45;&gt;Node3 -->
<g id="edge7" class="edge">
<title>Node7&#45;&gt;Node3</title>
<path fill="none" stroke="#9a32cd" stroke-dasharray="5,2" d="M861.72,-206.17C826.62,-191.13 768.06,-168.34 715,-158.5 637.61,-144.15 546.07,-144.43 489.77,-146.52"/>
<polygon fill="#9a32cd" stroke="#9a32cd" points="859.87,-209.18 870.43,-209.96 862.66,-202.76 859.87,-209.18"/>
<text text-anchor="middle" x="645.5" y="-161.5" font-family="Helvetica,sans-Serif" font-size="10.00"> pControl</text>
</g>
<!-- Node8 -->
<g id="node8" class="node">
<title>Node8</title>
<g id="a_node8"><a xlink:href="classJStudio_1_1stb_1_1TFactory.html" target="_top" xlink:title=" ">
<polygon fill="white" stroke="#666666" points="700.5,-294 590.5,-294 590.5,-275 700.5,-275 700.5,-294"/>
<text text-anchor="middle" x="645.5" y="-282" font-family="Helvetica,sans-Serif" font-size="10.00">JStudio::stb::TFactory</text>
</a>
</g>
</g>
<!-- Node8&#45;&gt;Node7 -->
<g id="edge8" class="edge">
<title>Node8&#45;&gt;Node7</title>
<path fill="none" stroke="#9a32cd" stroke-dasharray="5,2" d="M712.02,-272.42C743.14,-266.18 780.73,-257.89 814,-248.5 832.31,-243.33 852.52,-236.19 867.99,-230.42"/>
<polygon fill="#9a32cd" stroke="#9a32cd" points="711.48,-268.96 702.35,-274.34 712.84,-275.83 711.48,-268.96"/>
<text text-anchor="middle" x="773.5" y="-269.5" font-family="Helvetica,sans-Serif" font-size="10.00"> pFactory</text>
</g>
<!-- Node9 -->
<g id="node9" class="node">
<title>Node9</title>
<g id="a_node9"><a xlink:href="structJGadget_1_1TLinkList.html" target="_top" xlink:title=" ">
<polygon fill="white" stroke="#666666" points="715,-256.5 576,-256.5 576,-226.5 715,-226.5 715,-256.5"/>
<text text-anchor="start" x="584" y="-244.5" font-family="Helvetica,sans-Serif" font-size="10.00">JGadget::TLinkList</text>
<text text-anchor="middle" x="645.5" y="-233.5" font-family="Helvetica,sans-Serif" font-size="10.00">&lt; JStudio::stb::TObject, 12 &gt;</text>
</a>
</g>
</g>
<!-- Node9&#45;&gt;Node7 -->
<g id="edge9" class="edge">
<title>Node9&#45;&gt;Node7</title>
<path fill="none" stroke="#9a32cd" stroke-dasharray="5,2" d="M726.57,-234.69C763.55,-231.55 806.47,-227.9 839.54,-225.09"/>
<polygon fill="#9a32cd" stroke="#9a32cd" points="726.48,-231.19 716.81,-235.52 727.07,-238.16 726.48,-231.19"/>
<text text-anchor="middle" x="773.5" y="-236.5" font-family="Helvetica,sans-Serif" font-size="10.00"> mObjectContainer</text>
</g>
<!-- Node10&#45;&gt;Node9 -->
<g id="edge10" class="edge">
<title>Node10&#45;&gt;Node9</title>
<path fill="none" stroke="#63b8ff" d="M508.76,-229.07C530.43,-231.06 554.17,-233.23 575.65,-235.2"/>
<polygon fill="#63b8ff" stroke="#63b8ff" points="509.08,-225.59 498.8,-228.16 508.44,-232.56 509.08,-225.59"/>
</g>
<!-- Node11&#45;&gt;Node7 -->
<g id="edge12" class="edge">
<title>Node11&#45;&gt;Node7</title>
<path fill="none" stroke="#9a32cd" stroke-dasharray="5,2" d="M710.49,-200.29C741.71,-203.63 779.82,-207.73 814,-211.5 822.28,-212.41 831.05,-213.39 839.62,-214.36"/>
<polygon fill="#9a32cd" stroke="#9a32cd" points="711.14,-196.84 700.82,-199.26 710.39,-203.8 711.14,-196.84"/>
<text text-anchor="middle" x="773.5" y="-214.5" font-family="Helvetica,sans-Serif" font-size="10.00"> mObject_control</text>
</g>
<!-- Node12&#45;&gt;Node2 -->
<g id="edge14" class="edge">
<title>Node12&#45;&gt;Node2</title>
<path fill="none" stroke="#9a32cd" stroke-dasharray="5,2" d="M836.1,-73.22C828.67,-74.33 821.15,-75.45 814,-76.5 772,-82.68 724.05,-89.53 690.24,-94.32"/>
<polygon fill="#9a32cd" stroke="#9a32cd" points="836.4,-76.71 845.77,-71.76 835.36,-69.79 836.4,-76.71"/>
<text text-anchor="middle" x="773.5" y="-91.5" font-family="Helvetica,sans-Serif" font-size="10.00"> mpAdaptor</text>
</g>
<!-- Node13 -->
<g id="node13" class="node">
<title>Node13</title>
<g id="a_node13"><a xlink:href="structJStudio_1_1TVariableValue.html" target="_top" xlink:title=" ">
<polygon fill="white" stroke="#666666" points="705.5,-40 585.5,-40 585.5,-21 705.5,-21 705.5,-40"/>
<text text-anchor="middle" x="645.5" y="-28" font-family="Helvetica,sans-Serif" font-size="10.00">JStudio::TVariableValue</text>
</a>
</g>
</g>
<!-- Node13&#45;&gt;Node12 -->
<g id="edge16" class="edge">
<title>Node13&#45;&gt;Node12</title>
<path fill="none" stroke="#9a32cd" stroke-dasharray="5,2" d="M717.25,-24.91C747.34,-24.08 782.66,-25.16 814,-31.5 836.12,-35.98 859.8,-46.65 875.51,-54.66"/>
<polygon fill="#9a32cd" stroke="#9a32cd" points="717.36,-21.4 707.5,-25.26 717.62,-28.4 717.36,-21.4"/>
<text text-anchor="middle" x="773.5" y="-34.5" font-family="Helvetica,sans-Serif" font-size="10.00"> pValue_</text>
</g>
<!-- Node14 -->
<g id="node14" class="node">
<title>Node14</title>
<g id="a_node14"><a xlink:href="classJStudio_1_1TFunctionValue.html" target="_top" xlink:title=" ">
<polygon fill="white" stroke="#666666" points="497,-19 375,-19 375,0 497,0 497,-19"/>
<text text-anchor="middle" x="436" y="-7" font-family="Helvetica,sans-Serif" font-size="10.00">JStudio::TFunctionValue</text>
</a>
</g>
</g>
<!-- Node14&#45;&gt;Node13 -->
<g id="edge17" class="edge">
<title>Node14&#45;&gt;Node13</title>
<path fill="none" stroke="#9a32cd" stroke-dasharray="5,2" d="M508.47,-14.88C524.76,-16.25 541.99,-17.82 558,-19.5 566.88,-20.43 576.27,-21.52 585.45,-22.64"/>
<polygon fill="#9a32cd" stroke="#9a32cd" points="509.13,-11.42 498.87,-14.09 508.55,-18.4 509.13,-11.42"/>
<text text-anchor="middle" x="536.5" y="-22.5" font-family="Helvetica,sans-Serif" font-size="10.00"> field_0xc</text>
</g>
<!-- Node15 -->
<g id="node15" class="node">
<title>Node15</title>
<g id="a_node15"><a xlink:href="structJStudio_1_1TVariableValue_1_1TOutput.html" target="_top" xlink:title=" ">
<polygon fill="white" stroke="#666666" points="496,-67.5 376,-67.5 376,-37.5 496,-37.5 496,-67.5"/>
<text text-anchor="start" x="384" y="-55.5" font-family="Helvetica,sans-Serif" font-size="10.00">JStudio::TVariableValue</text>
<text text-anchor="middle" x="436" y="-44.5" font-family="Helvetica,sans-Serif" font-size="10.00">::TOutput</text>
</a>
</g>
</g>
<!-- Node15&#45;&gt;Node13 -->
<g id="edge18" class="edge">
<title>Node15&#45;&gt;Node13</title>
<path fill="none" stroke="#9a32cd" stroke-dasharray="5,2" d="M507.78,-45C532.92,-42.33 560.94,-39.36 585.03,-36.81"/>
<polygon fill="#9a32cd" stroke="#9a32cd" points="507.54,-41.5 497.97,-46.04 508.28,-48.46 507.54,-41.5"/>
<text text-anchor="middle" x="536.5" y="-47.5" font-family="Helvetica,sans-Serif" font-size="10.00"> pOutput_</text>
</g>
</g>
</svg>
        <g id="navigator" transform="translate(0 0)" fill="#404254">
                <rect fill="#f2f5e9" fill-opacity="0.5" stroke="#606060" stroke-width=".5" x="0" y="0" width="60" height="60"/>
                <use id="zoomplus" xlink:href="#zoomPlus" x="17" y="9" onmousedown="handleZoom(evt,'in')"/>
                <use id="zoomminus" xlink:href="#zoomMin" x="42" y="9" onmousedown="handleZoom(evt,'out')"/>
                <use id="reset" xlink:href="#resetDef" x="30" y="36" onmousedown="handleReset()"/>
                <g id="arrowUp" xlink:href="#dirArrow" transform="translate(30 24)" onmousedown="handlePan(0,-1)">
                  <use xlink:href="#rim" fill="#404040">
                        <set attributeName="fill" to="#808080" begin="arrowUp.mouseover" end="arrowUp.mouseout"/>
                  </use>
                  <path fill="none" stroke="white" stroke-width="1.5" d="M0,-3.0v7 M-2.5,-0.5L0,-3.0L2.5,-0.5"/>
                </g>
                <g id="arrowRight" xlink:href="#dirArrow" transform="rotate(90) translate(36 -43)" onmousedown="handlePan(1,0)">
                  <use xlink:href="#rim" fill="#404040">
                        <set attributeName="fill" to="#808080" begin="arrowRight.mouseover" end="arrowRight.mouseout"/>
                  </use>
                  <path fill="none" stroke="white" stroke-width="1.5" d="M0,-3.0v7 M-2.5,-0.5L0,-3.0L2.5,-0.5"/>
                </g>
                <g id="arrowDown" xlink:href="#dirArrow" transform="rotate(180) translate(-30 -48)" onmousedown="handlePan(0,1)">
                  <use xlink:href="#rim" fill="#404040">
                        <set attributeName="fill" to="#808080" begin="arrowDown.mouseover" end="arrowDown.mouseout"/>
                  </use>
                  <path fill="none" stroke="white" stroke-width="1.5" d="M0,-3.0v7 M-2.5,-0.5L0,-3.0L2.5,-0.5"/>
                </g>
                <g id="arrowLeft" xlink:href="#dirArrow" transform="rotate(270) translate(-36 17)" onmousedown="handlePan(-1,0)">
                  <use xlink:href="#rim" fill="#404040">
                        <set attributeName="fill" to="#808080" begin="arrowLeft.mouseover" end="arrowLeft.mouseout"/>
                  </use>
                  <path fill="none" stroke="white" stroke-width="1.5" d="M0,-3.0v7 M-2.5,-0.5L0,-3.0L2.5,-0.5"/>
                </g>
        </g>
        <svg viewBox="0 0 15 15" width="100%" height="30px" preserveAspectRatio="xMaxYMin meet">
         <g id="arrow_out" transform="scale(0.3 0.3)">
          <a xlink:href="structJStudio_1_1TObject__particle__coll__graph_org.svg" target="_base">
           <rect id="button" ry="5" rx="5" y="6" x="6" height="38" width="38"
                fill="#f2f5e9" fill-opacity="0.5" stroke="#606060" stroke-width="1.0"/>
           <path id="arrow"
             d="M 11.500037,31.436501 C 11.940474,20.09759 22.043105,11.32322 32.158766,21.979434 L 37.068811,17.246167 C 37.068811,17.246167 37.088388,32 37.088388,32 L 22.160133,31.978069 C 22.160133,31.978069 26.997745,27.140456 26.997745,27.140456 C 18.528582,18.264221 13.291696,25.230495 11.500037,31.436501 z"
             style="fill:#404040;"/>
          </a>
         </g>
        </svg>
</svg>
