<?xml version="1.0" encoding="UTF-8" standalone="no"?>
<!DOCTYPE svg PUBLIC "-//W3C//DTD SVG 1.1//EN"
 "http://www.w3.org/Graphics/SVG/1.1/DTD/svg11.dtd">
<!-- Generated by graphviz version 7.0.5 (20221223.1930)
 -->
<!-- Title: node_lists_tree_class Pages: 1 -->
<svg width="175pt" height="173pt"
 viewBox="0.00 0.00 174.50 173.00" xmlns="http://www.w3.org/2000/svg" xmlns:xlink="http://www.w3.org/1999/xlink">
<g id="graph0" class="graph" transform="scale(1 1) rotate(0) translate(4 169)">
<title>node_lists_tree_class</title>
<!-- Node1 -->
<g id="node1" class="node">
<title>Node1</title>
<g id="a_node1"><a xlink:title=" ">
<polygon fill="#999999" stroke="#666666" points="111,-19 0,-19 0,0 111,0 111,-19"/>
<text text-anchor="middle" x="55.5" y="-7" font-family="Helvetica,sans-Serif" font-size="10.00">node_lists_tree_class</text>
</a>
</g>
</g>
<!-- Node2 -->
<g id="node2" class="node">
<title>Node2</title>
<g id="a_node2"><a xlink:href="structnode__list__class.html" target="_top" xlink:title=" ">
<polygon fill="white" stroke="#666666" points="97.5,-85 13.5,-85 13.5,-66 97.5,-66 97.5,-85"/>
<text text-anchor="middle" x="55.5" y="-73" font-family="Helvetica,sans-Serif" font-size="10.00">node_list_class</text>
</a>
</g>
</g>
<!-- Node2&#45;&gt;Node1 -->
<g id="edge1" class="edge">
<title>Node2&#45;&gt;Node1</title>
<path fill="none" stroke="#9a32cd" stroke-dasharray="5,2" d="M55.5,-54.18C55.5,-42.44 55.5,-28.27 55.5,-19.32"/>
<polygon fill="#9a32cd" stroke="#9a32cd" points="52,-54.09 55.5,-64.09 59,-54.09 52,-54.09"/>
<text text-anchor="middle" x="74.5" y="-40" font-family="Helvetica,sans-Serif" font-size="10.00"> mpLists</text>
</g>
<!-- Node3 -->
<g id="node3" class="node">
<title>Node3</title>
<g id="a_node3"><a xlink:href="structnode__class.html" target="_top" xlink:title=" ">
<polygon fill="white" stroke="#666666" points="88.5,-163.5 22.5,-163.5 22.5,-144.5 88.5,-144.5 88.5,-163.5"/>
<text text-anchor="middle" x="55.5" y="-151.5" font-family="Helvetica,sans-Serif" font-size="10.00">node_class</text>
</a>
</g>
</g>
<!-- Node3&#45;&gt;Node2 -->
<g id="edge2" class="edge">
<title>Node3&#45;&gt;Node2</title>
<path fill="none" stroke="#9a32cd" stroke-dasharray="5,2" d="M55.5,-132.72C55.5,-117.23 55.5,-96.65 55.5,-85.17"/>
<polygon fill="#9a32cd" stroke="#9a32cd" points="52,-132.71 55.5,-142.71 59,-132.71 52,-132.71"/>
<text text-anchor="middle" x="75.5" y="-117" font-family="Helvetica,sans-Serif" font-size="10.00"> mpHead</text>
<text text-anchor="middle" x="75.5" y="-106" font-family="Helvetica,sans-Serif" font-size="10.00">mpTail</text>
</g>
<!-- Node3&#45;&gt;Node3 -->
<g id="edge3" class="edge">
<title>Node3&#45;&gt;Node3</title>
<path fill="none" stroke="#9a32cd" stroke-dasharray="5,2" d="M100.15,-159.89C104.06,-158.64 106.5,-156.68 106.5,-154 106.5,-149.23 98.78,-146.74 88.85,-146.52"/>
<polygon fill="#9a32cd" stroke="#9a32cd" points="99.76,-156.41 90.35,-161.27 100.74,-163.34 99.76,-156.41"/>
<text text-anchor="middle" x="136.5" y="-157" font-family="Helvetica,sans-Serif" font-size="10.00"> mpNextNode</text>
<text text-anchor="middle" x="136.5" y="-146" font-family="Helvetica,sans-Serif" font-size="10.00">mpPrevNode</text>
</g>
</g>
</svg>
