<?xml version="1.0" encoding="UTF-8" standalone="no"?>
<!DOCTYPE svg PUBLIC "-//W3C//DTD SVG 1.1//EN"
 "http://www.w3.org/Graphics/SVG/1.1/DTD/svg11.dtd">
<!-- Generated by graphviz version 7.0.5 (20221223.1930)
 -->
<!-- Title: JKRTask Pages: 1 -->
<svg width="253pt" height="173pt"
 viewBox="0.00 0.00 253.00 173.00" xmlns="http://www.w3.org/2000/svg" xmlns:xlink="http://www.w3.org/1999/xlink">
<g id="graph0" class="graph" transform="scale(1 1) rotate(0) translate(4 169)">
<title>JKRTask</title>
<!-- Node1 -->
<g id="node1" class="node">
<title>Node1</title>
<g id="a_node1"><a xlink:title=" ">
<polygon fill="#999999" stroke="#666666" points="83.5,-19 26.5,-19 26.5,0 83.5,0 83.5,-19"/>
<text text-anchor="middle" x="55" y="-7" font-family="Helvetica,sans-Serif" font-size="10.00">JKRTask</text>
</a>
</g>
</g>
<!-- Node2 -->
<g id="node2" class="node">
<title>Node2</title>
<g id="a_node2"><a xlink:href="classJSUList.html" target="_top" xlink:title=" ">
<polygon fill="white" stroke="#666666" points="110,-86.5 0,-86.5 0,-67.5 110,-67.5 110,-86.5"/>
<text text-anchor="middle" x="55" y="-74.5" font-family="Helvetica,sans-Serif" font-size="10.00">JSUList&lt; JKRTask &gt;</text>
</a>
</g>
</g>
<!-- Node2&#45;&gt;Node1 -->
<g id="edge1" class="edge">
<title>Node2&#45;&gt;Node1</title>
<path fill="none" stroke="#9a32cd" stroke-dasharray="5,2" d="M55,-55.74C55,-43.48 55,-28.47 55,-19.19"/>
<polygon fill="#9a32cd" stroke="#9a32cd" points="51.5,-55.65 55,-65.65 58.5,-55.65 51.5,-55.65"/>
<text text-anchor="middle" x="78" y="-40" font-family="Helvetica,sans-Serif" font-size="10.00"> sTaskList</text>
</g>
<!-- Node3 -->
<g id="node3" class="node">
<title>Node3</title>
<g id="a_node3"><a xlink:href="structJSUPtrList.html" target="_top" xlink:title=" ">
<polygon fill="white" stroke="#666666" points="143.5,-165 78.5,-165 78.5,-146 143.5,-146 143.5,-165"/>
<text text-anchor="middle" x="111" y="-153" font-family="Helvetica,sans-Serif" font-size="10.00">JSUPtrList</text>
</a>
</g>
</g>
<!-- Node3&#45;&gt;Node2 -->
<g id="edge2" class="edge">
<title>Node3&#45;&gt;Node2</title>
<path fill="none" stroke="#63b8ff" d="M97.83,-136.5C86.34,-120.81 70.17,-98.72 61.35,-86.67"/>
<polygon fill="#63b8ff" stroke="#63b8ff" points="94.95,-138.5 103.68,-144.5 100.6,-134.37 94.95,-138.5"/>
</g>
<!-- Node4 -->
<g id="node4" class="node">
<title>Node4</title>
<g id="a_node4"><a xlink:href="structJSUPtrLink.html" target="_top" xlink:title=" ">
<polygon fill="white" stroke="#666666" points="196,-86.5 128,-86.5 128,-67.5 196,-67.5 196,-86.5"/>
<text text-anchor="middle" x="162" y="-74.5" font-family="Helvetica,sans-Serif" font-size="10.00">JSUPtrLink</text>
</a>
</g>
</g>
<!-- Node3&#45;&gt;Node4 -->
<g id="edge4" class="edge">
<title>Node3&#45;&gt;Node4</title>
<path fill="none" stroke="#9a32cd" stroke-dasharray="5,2" d="M104.76,-134.55C103.06,-125.25 102.88,-114.42 108,-106 113.27,-97.34 122.18,-91.23 131.26,-86.99"/>
<polygon fill="#9a32cd" stroke="#9a32cd" points="101.33,-135.25 107.2,-144.07 108.11,-133.52 101.33,-135.25"/>
<text text-anchor="middle" x="122" y="-114.5" font-family="Helvetica,sans-Serif" font-size="10.00"> mList</text>
</g>
<!-- Node4&#45;&gt;Node3 -->
<g id="edge3" class="edge">
<title>Node4&#45;&gt;Node3</title>
<path fill="none" stroke="#9a32cd" stroke-dasharray="5,2" d="M155.67,-97.3C151.96,-107.02 146.68,-118.69 140,-128 135.23,-134.65 128.56,-140.89 122.82,-145.64"/>
<polygon fill="#9a32cd" stroke="#9a32cd" points="158.88,-98.72 158.9,-88.13 152.28,-96.4 158.88,-98.72"/>
<text text-anchor="middle" x="168" y="-120" font-family="Helvetica,sans-Serif" font-size="10.00"> mHead</text>
<text text-anchor="middle" x="168" y="-109" font-family="Helvetica,sans-Serif" font-size="10.00">mTail</text>
</g>
<!-- Node4&#45;&gt;Node4 -->
<g id="edge5" class="edge">
<title>Node4&#45;&gt;Node4</title>
<path fill="none" stroke="#9a32cd" stroke-dasharray="5,2" d="M207.19,-82.16C211.37,-81.1 214,-79.38 214,-77 214,-72.89 206.13,-70.74 196.01,-70.55"/>
<polygon fill="#9a32cd" stroke="#9a32cd" points="207.05,-78.66 197.51,-83.28 207.85,-85.61 207.05,-78.66"/>
<text text-anchor="middle" x="229.5" y="-80" font-family="Helvetica,sans-Serif" font-size="10.00"> mNext</text>
<text text-anchor="middle" x="229.5" y="-69" font-family="Helvetica,sans-Serif" font-size="10.00">mPrev</text>
</g>
</g>
</svg>
