<?xml version="1.0" encoding="UTF-8" standalone="no"?>
<!DOCTYPE svg PUBLIC "-//W3C//DTD SVG 1.1//EN"
 "http://www.w3.org/Graphics/SVG/1.1/DTD/svg11.dtd">
<!-- Generated by graphviz version 7.0.5 (20221223.1930)
 -->
<!-- Title: cCcD_TriAttr Pages: 1 -->
<svg width="176pt" height="192pt"
 viewBox="0.00 0.00 175.50 192.00" xmlns="http://www.w3.org/2000/svg" xmlns:xlink="http://www.w3.org/1999/xlink">
<g id="graph0" class="graph" transform="scale(1 1) rotate(0) translate(4 188)">
<title>cCcD_TriAttr</title>
<!-- Node1 -->
<g id="node1" class="node">
<title>Node1</title>
<g id="a_node1"><a xlink:title=" ">
<polygon fill="#999999" stroke="#666666" points="127,-74 54,-74 54,-55 127,-55 127,-74"/>
<text text-anchor="middle" x="90.5" y="-62" font-family="Helvetica,sans-Serif" font-size="10.00">cCcD_TriAttr</text>
</a>
</g>
</g>
<!-- Node5 -->
<g id="node5" class="node">
<title>Node5</title>
<g id="a_node5"><a xlink:href="structdCcD__Tri.html" target="_top" xlink:title=" ">
<polygon fill="white" stroke="#666666" points="119,-19 62,-19 62,0 119,0 119,-19"/>
<text text-anchor="middle" x="90.5" y="-7" font-family="Helvetica,sans-Serif" font-size="10.00">dCcD_Tri</text>
</a>
</g>
</g>
<!-- Node1&#45;&gt;Node5 -->
<g id="edge4" class="edge">
<title>Node1&#45;&gt;Node5</title>
<path fill="none" stroke="#63b8ff" d="M90.5,-43.35C90.5,-35.1 90.5,-25.97 90.5,-19.44"/>
<polygon fill="#63b8ff" stroke="#63b8ff" points="87,-43.23 90.5,-53.23 94,-43.23 87,-43.23"/>
</g>
<!-- Node2 -->
<g id="node2" class="node">
<title>Node2</title>
<g id="a_node2"><a xlink:href="structcCcD__ShapeAttr.html" target="_top" xlink:title=" ">
<polygon fill="white" stroke="#666666" points="89,-129 0,-129 0,-110 89,-110 89,-129"/>
<text text-anchor="middle" x="44.5" y="-117" font-family="Helvetica,sans-Serif" font-size="10.00">cCcD_ShapeAttr</text>
</a>
</g>
</g>
<!-- Node2&#45;&gt;Node1 -->
<g id="edge1" class="edge">
<title>Node2&#45;&gt;Node1</title>
<path fill="none" stroke="#63b8ff" d="M59.5,-101.22C67.26,-92.28 76.4,-81.74 82.74,-74.44"/>
<polygon fill="#63b8ff" stroke="#63b8ff" points="57,-98.76 53.09,-108.61 62.29,-103.35 57,-98.76"/>
</g>
<!-- Node3 -->
<g id="node3" class="node">
<title>Node3</title>
<g id="a_node3"><a xlink:href="classcM3dGTri.html" target="_top" xlink:title=" ">
<polygon fill="white" stroke="#666666" points="166,-129 107,-129 107,-110 166,-110 166,-129"/>
<text text-anchor="middle" x="136.5" y="-117" font-family="Helvetica,sans-Serif" font-size="10.00">cM3dGTri</text>
</a>
</g>
</g>
<!-- Node3&#45;&gt;Node1 -->
<g id="edge2" class="edge">
<title>Node3&#45;&gt;Node1</title>
<path fill="none" stroke="#63b8ff" d="M121.5,-101.22C113.74,-92.28 104.6,-81.74 98.26,-74.44"/>
<polygon fill="#63b8ff" stroke="#63b8ff" points="118.71,-103.35 127.91,-108.61 124,-98.76 118.71,-103.35"/>
</g>
<!-- Node4 -->
<g id="node4" class="node">
<title>Node4</title>
<g id="a_node4"><a xlink:href="classcM3dGPla.html" target="_top" xlink:title=" ">
<polygon fill="white" stroke="#666666" points="167.5,-184 105.5,-184 105.5,-165 167.5,-165 167.5,-184"/>
<text text-anchor="middle" x="136.5" y="-172" font-family="Helvetica,sans-Serif" font-size="10.00">cM3dGPla</text>
</a>
</g>
</g>
<!-- Node4&#45;&gt;Node3 -->
<g id="edge3" class="edge">
<title>Node4&#45;&gt;Node3</title>
<path fill="none" stroke="#63b8ff" d="M136.5,-153.35C136.5,-145.1 136.5,-135.97 136.5,-129.44"/>
<polygon fill="#63b8ff" stroke="#63b8ff" points="133,-153.23 136.5,-163.23 140,-153.23 133,-153.23"/>
</g>
</g>
</svg>
