<?xml version="1.0" encoding="UTF-8" standalone="no"?>
<!DOCTYPE svg PUBLIC "-//W3C//DTD SVG 1.1//EN"
 "http://www.w3.org/Graphics/SVG/1.1/DTD/svg11.dtd">
<!-- Generated by graphviz version 7.0.5 (20221223.1930)
 -->
<!-- Title: Z2EnvSeMgr Pages: 1 -->
<!--zoomable 503 -->
<svg id="main" version="1.1" xmlns="http://www.w3.org/2000/svg" xmlns:xlink="http://www.w3.org/1999/xlink" xml:space="preserve" onload="init(evt)">
<style type="text/css"><![CDATA[
.edge:hover path { stroke: red; }
.edge:hover polygon { stroke: red; fill: red; }
]]></style>
<script type="text/javascript"><![CDATA[
var edges = document.getElementsByTagName('g');
if (edges && edges.length) {
  for (var i=0;i<edges.length;i++) {
    if (edges[i].id.substr(0,4)=='edge') {
      edges[i].setAttribute('class','edge');
    }
  }
}
]]></script>
        <defs>
                <circle id="rim" cx="0" cy="0" r="7"/>
                <circle id="rim2" cx="0" cy="0" r="3.5"/>
                <g id="zoomPlus">
                        <use xlink:href="#rim" fill="#404040">
                                <set attributeName="fill" to="#808080" begin="zoomplus.mouseover" end="zoomplus.mouseout"/>
                        </use>
                        <path d="M-4,0h8M0,-4v8" fill="none" stroke="white" stroke-width="1.5" pointer-events="none"/>
                </g>
                <g id="zoomMin">
                        <use xlink:href="#rim" fill="#404040">
                                <set attributeName="fill" to="#808080" begin="zoomminus.mouseover" end="zoomminus.mouseout"/>
                        </use>
                        <path d="M-4,0h8" fill="none" stroke="white" stroke-width="1.5" pointer-events="none"/>
                </g>
                <g id="dirArrow">
                        <path fill="none" stroke="white" stroke-width="1.5" d="M0,-3.0v7 M-2.5,-0.5L0,-3.0L2.5,-0.5"/>
                </g>
               <g id="resetDef">
                       <use xlink:href="#rim2" fill="#404040">
                               <set attributeName="fill" to="#808080" begin="reset.mouseover" end="reset.mouseout"/>
                       </use>
               </g>
        </defs>

<script type="text/javascript">
var viewWidth = 1439;
var viewHeight = 503;
var sectionId = 'dynsection-1';
</script>
<script xlink:href="svgpan.js"/>
<svg id="graph" class="graph">
<g id="viewport">
<title>Z2EnvSeMgr</title>
<!-- Node1 -->
<g id="node1" class="node">
<title>Node1</title>
<g id="a_node1"><a xlink:title=" ">
<polygon fill="#999999" stroke="#666666" points="1242,-248 1169,-248 1169,-229 1242,-229 1242,-248"/>
<text text-anchor="middle" x="1205.5" y="-236" font-family="Helvetica,sans-Serif" font-size="10.00">Z2EnvSeMgr</text>
</a>
</g>
</g>
<!-- Node2 -->
<g id="node2" class="node">
<title>Node2</title>
<g id="a_node2"><a xlink:href="classJASGlobalInstance.html" target="_top" xlink:title=" ">
<polygon fill="white" stroke="#666666" points="1431,-253.5 1324,-253.5 1324,-223.5 1431,-223.5 1431,-253.5"/>
<text text-anchor="start" x="1332" y="-241.5" font-family="Helvetica,sans-Serif" font-size="10.00">JASGlobalInstance&lt;</text>
<text text-anchor="middle" x="1377.5" y="-230.5" font-family="Helvetica,sans-Serif" font-size="10.00"> Z2EnvSeMgr &gt;</text>
</a>
</g>
</g>
<!-- Node1&#45;&gt;Node2 -->
<g id="edge2" class="edge">
<title>Node1&#45;&gt;Node2</title>
<path fill="none" stroke="#9a32cd" stroke-dasharray="5,2" d="M1253.45,-238.5C1275.27,-238.5 1301.31,-238.5 1323.8,-238.5"/>
<polygon fill="#9a32cd" stroke="#9a32cd" points="1253.65,-235 1243.65,-238.5 1253.65,-242 1253.65,-235"/>
<text text-anchor="middle" x="1283" y="-241.5" font-family="Helvetica,sans-Serif" font-size="10.00"> sInstance</text>
</g>
<!-- Node2&#45;&gt;Node1 -->
<g id="edge1" class="edge">
<title>Node2&#45;&gt;Node1</title>
<path fill="none" stroke="#63b8ff" d="M1312.22,-236.57C1295.24,-236.29 1276.93,-236.18 1260,-236.5 1254.33,-236.61 1248.33,-236.77 1242.47,-236.97"/>
<polygon fill="#63b8ff" stroke="#63b8ff" points="1312.15,-240.07 1322.21,-236.76 1312.28,-233.07 1312.15,-240.07"/>
</g>
<!-- Node3 -->
<g id="node3" class="node">
<title>Node3</title>
<g id="a_node3"><a xlink:href="structZ2EnvSeAutoPan.html" target="_top" xlink:title=" ">
<polygon fill="white" stroke="#666666" points="1082,-63 988,-63 988,-44 1082,-44 1082,-63"/>
<text text-anchor="middle" x="1035" y="-51" font-family="Helvetica,sans-Serif" font-size="10.00">Z2EnvSeAutoPan</text>
</a>
</g>
</g>
<!-- Node3&#45;&gt;Node1 -->
<g id="edge3" class="edge">
<title>Node3&#45;&gt;Node1</title>
<path fill="none" stroke="#9a32cd" stroke-dasharray="5,2" d="M1093.64,-48.35C1113.76,-49.48 1135.23,-54.37 1151,-67.5 1201.68,-109.7 1205.11,-199.28 1204.79,-228.82"/>
<polygon fill="#9a32cd" stroke="#9a32cd" points="1093.92,-44.86 1083.84,-48.12 1093.75,-51.85 1093.92,-44.86"/>
<text text-anchor="middle" x="1125.5" y="-81.5" font-family="Helvetica,sans-Serif" font-size="10.00"> field_0x0</text>
<text text-anchor="middle" x="1125.5" y="-70.5" font-family="Helvetica,sans-Serif" font-size="10.00">field_0x1c</text>
</g>
<!-- Node4 -->
<g id="node4" class="node">
<title>Node4</title>
<g id="a_node4"><a xlink:href="structZ2EnvSeBase.html" target="_top" xlink:title=" ">
<polygon fill="white" stroke="#666666" points="951,-342 872,-342 872,-323 951,-323 951,-342"/>
<text text-anchor="middle" x="911.5" y="-330" font-family="Helvetica,sans-Serif" font-size="10.00">Z2EnvSeBase</text>
</a>
</g>
</g>
<!-- Node4&#45;&gt;Node1 -->
<g id="edge23" class="edge">
<title>Node4&#45;&gt;Node1</title>
<path fill="none" stroke="#9a32cd" stroke-dasharray="5,2" d="M944.53,-346.85C993.27,-366.31 1087.11,-394.24 1151,-353.5 1188.5,-329.58 1200.13,-271.81 1203.37,-248.5"/>
<polygon fill="#9a32cd" stroke="#9a32cd" points="945.98,-343.66 935.4,-343.07 943.3,-350.13 945.98,-343.66"/>
<text text-anchor="middle" x="1035" y="-486.5" font-family="Helvetica,sans-Serif" font-size="10.00"> field_0x110</text>
<text text-anchor="middle" x="1035" y="-475.5" font-family="Helvetica,sans-Serif" font-size="10.00">field_0x118</text>
<text text-anchor="middle" x="1035" y="-464.5" font-family="Helvetica,sans-Serif" font-size="10.00">field_0x180</text>
<text text-anchor="middle" x="1035" y="-453.5" font-family="Helvetica,sans-Serif" font-size="10.00">field_0x1d8</text>
<text text-anchor="middle" x="1035" y="-442.5" font-family="Helvetica,sans-Serif" font-size="10.00">field_0x20c</text>
<text text-anchor="middle" x="1035" y="-431.5" font-family="Helvetica,sans-Serif" font-size="10.00">field_0x240</text>
<text text-anchor="middle" x="1035" y="-420.5" font-family="Helvetica,sans-Serif" font-size="10.00">field_0x274</text>
<text text-anchor="middle" x="1035" y="-409.5" font-family="Helvetica,sans-Serif" font-size="10.00">field_0x2a8</text>
<text text-anchor="middle" x="1035" y="-398.5" font-family="Helvetica,sans-Serif" font-size="10.00">field_0x2dc</text>
<text text-anchor="middle" x="1035" y="-387.5" font-family="Helvetica,sans-Serif" font-size="10.00">field_0x80</text>
<text text-anchor="middle" x="1035" y="-376.5" font-family="Helvetica,sans-Serif" font-size="10.00">...</text>
</g>
<!-- Node4&#45;&gt;Node3 -->
<g id="edge4" class="edge">
<title>Node4&#45;&gt;Node3</title>
<path fill="none" stroke="#63b8ff" d="M918.51,-311.74C936.04,-251.18 986.04,-78.84 988,-76.5 992.59,-71.02 998.8,-66.72 1005.17,-63.4"/>
<polygon fill="#63b8ff" stroke="#63b8ff" points="915.21,-310.54 915.79,-321.12 921.93,-312.48 915.21,-310.54"/>
</g>
<!-- Node22 -->
<g id="node22" class="node">
<title>Node22</title>
<g id="a_node22"><a xlink:href="structZ2EnvSeDir.html" target="_top" xlink:title=" ">
<polygon fill="white" stroke="#666666" points="1069,-339 1001,-339 1001,-320 1069,-320 1069,-339"/>
<text text-anchor="middle" x="1035" y="-327" font-family="Helvetica,sans-Serif" font-size="10.00">Z2EnvSeDir</text>
</a>
</g>
</g>
<!-- Node4&#45;&gt;Node22 -->
<g id="edge26" class="edge">
<title>Node4&#45;&gt;Node22</title>
<path fill="none" stroke="#63b8ff" d="M962.43,-331.27C975.4,-330.95 989.04,-330.61 1000.9,-330.32"/>
<polygon fill="#63b8ff" stroke="#63b8ff" points="962.7,-327.76 952.79,-331.51 962.87,-334.76 962.7,-327.76"/>
</g>
<!-- Node5 -->
<g id="node5" class="node">
<title>Node5</title>
<g id="a_node5"><a xlink:href="structVec.html" target="_top" xlink:title=" ">
<polygon fill="white" stroke="#666666" points="759.5,-395 725.5,-395 725.5,-376 759.5,-376 759.5,-395"/>
<text text-anchor="middle" x="742.5" y="-383" font-family="Helvetica,sans-Serif" font-size="10.00">Vec</text>
</a>
</g>
</g>
<!-- Node5&#45;&gt;Node4 -->
<g id="edge5" class="edge">
<title>Node5&#45;&gt;Node4</title>
<path fill="none" stroke="#9a32cd" stroke-dasharray="5,2" d="M770.61,-376.89C800.3,-367.47 847.82,-352.39 879.1,-342.47"/>
<polygon fill="#9a32cd" stroke="#9a32cd" points="769.73,-373.5 761.26,-379.86 771.85,-380.17 769.73,-373.5"/>
<text text-anchor="middle" x="830.5" y="-367.5" font-family="Helvetica,sans-Serif" font-size="10.00"> mPos</text>
</g>
<!-- Node5&#45;&gt;Node22 -->
<g id="edge27" class="edge">
<title>Node5&#45;&gt;Node22</title>
<path fill="none" stroke="#9a32cd" stroke-dasharray="5,2" d="M771.08,-385.65C793.54,-385.38 826.01,-384.09 854,-379.5 908.73,-370.52 970.66,-351.23 1005.75,-339.41"/>
<polygon fill="#9a32cd" stroke="#9a32cd" points="771.22,-382.15 761.24,-385.7 771.25,-389.15 771.22,-382.15"/>
<text text-anchor="middle" x="911.5" y="-378.5" font-family="Helvetica,sans-Serif" font-size="10.00"> mPanDir</text>
</g>
<!-- Node6 -->
<g id="node6" class="node">
<title>Node6</title>
<g id="a_node6"><a xlink:href="structJAISoundHandle.html" target="_top" xlink:title=" ">
<polygon fill="white" stroke="#666666" points="787.5,-308 697.5,-308 697.5,-289 787.5,-289 787.5,-308"/>
<text text-anchor="middle" x="742.5" y="-296" font-family="Helvetica,sans-Serif" font-size="10.00">JAISoundHandle</text>
</a>
</g>
</g>
<!-- Node6&#45;&gt;Node4 -->
<g id="edge6" class="edge">
<title>Node6&#45;&gt;Node4</title>
<path fill="none" stroke="#9a32cd" stroke-dasharray="5,2" d="M798.85,-309.77C822.7,-314.62 850.02,-320.19 871.67,-324.59"/>
<polygon fill="#9a32cd" stroke="#9a32cd" points="799.79,-306.39 789.3,-307.82 798.4,-313.25 799.79,-306.39"/>
<text text-anchor="middle" x="830.5" y="-323.5" font-family="Helvetica,sans-Serif" font-size="10.00"> mHandle</text>
</g>
<!-- Node7 -->
<g id="node7" class="node">
<title>Node7</title>
<g id="a_node7"><a xlink:href="classJAISound.html" target="_top" xlink:title=" ">
<polygon fill="white" stroke="#666666" points="941,-189 882,-189 882,-170 941,-170 941,-189"/>
<text text-anchor="middle" x="911.5" y="-177" font-family="Helvetica,sans-Serif" font-size="10.00">JAISound</text>
</a>
</g>
</g>
<!-- Node6&#45;&gt;Node7 -->
<g id="edge8" class="edge">
<title>Node6&#45;&gt;Node7</title>
<path fill="none" stroke="#9a32cd" stroke-dasharray="5,2" d="M798.94,-296.59C817.8,-293.69 838.1,-287.85 854,-276.5 885.09,-254.31 901.69,-209.24 907.77,-189.33"/>
<polygon fill="#9a32cd" stroke="#9a32cd" points="798.73,-293.09 789.25,-297.83 799.61,-300.04 798.73,-293.09"/>
<text text-anchor="middle" x="830.5" y="-297.5" font-family="Helvetica,sans-Serif" font-size="10.00"> handle_</text>
</g>
<!-- Node7&#45;&gt;Node6 -->
<g id="edge7" class="edge">
<title>Node7&#45;&gt;Node6</title>
<path fill="none" stroke="#9a32cd" stroke-dasharray="5,2" d="M894.31,-197.87C883.56,-209.46 868.75,-224.29 854,-235.5 838.08,-247.59 789.44,-274.08 762.3,-288.56"/>
<polygon fill="#9a32cd" stroke="#9a32cd" points="896.84,-200.29 900.97,-190.53 891.66,-195.58 896.84,-200.29"/>
<text text-anchor="middle" x="830.5" y="-265.5" font-family="Helvetica,sans-Serif" font-size="10.00"> sound_</text>
</g>
<!-- Node8 -->
<g id="node8" class="node">
<title>Node8</title>
<g id="a_node8"><a xlink:href="classJAIAudible.html" target="_top" xlink:title=" ">
<polygon fill="white" stroke="#666666" points="774.5,-246 710.5,-246 710.5,-227 774.5,-227 774.5,-246"/>
<text text-anchor="middle" x="742.5" y="-234" font-family="Helvetica,sans-Serif" font-size="10.00">JAIAudible</text>
</a>
</g>
</g>
<!-- Node8&#45;&gt;Node7 -->
<g id="edge9" class="edge">
<title>Node8&#45;&gt;Node7</title>
<path fill="none" stroke="#9a32cd" stroke-dasharray="5,2" d="M785.98,-226.88C806.76,-221.69 831.99,-214.67 854,-206.5 866.94,-201.7 880.95,-195.01 891.78,-189.5"/>
<polygon fill="#9a32cd" stroke="#9a32cd" points="785.29,-223.44 776.4,-229.21 786.95,-230.24 785.29,-223.44"/>
<text text-anchor="middle" x="830.5" y="-223.5" font-family="Helvetica,sans-Serif" font-size="10.00"> audible_</text>
</g>
<!-- Node9 -->
<g id="node9" class="node">
<title>Node9</title>
<g id="a_node9"><a xlink:href="structJGeometry_1_1TVec3.html" target="_top" xlink:title=" ">
<polygon fill="white" stroke="#666666" points="613,-246 482,-246 482,-227 613,-227 613,-246"/>
<text text-anchor="middle" x="547.5" y="-234" font-family="Helvetica,sans-Serif" font-size="10.00">JGeometry::TVec3&lt; float &gt;</text>
</a>
</g>
</g>
<!-- Node9&#45;&gt;Node8 -->
<g id="edge10" class="edge">
<title>Node9&#45;&gt;Node8</title>
<path fill="none" stroke="#9a32cd" stroke-dasharray="5,2" d="M624.58,-236.5C654.41,-236.5 686.97,-236.5 710.14,-236.5"/>
<polygon fill="#9a32cd" stroke="#9a32cd" points="624.82,-233 614.82,-236.5 624.82,-240 624.82,-233"/>
<text text-anchor="middle" x="654.5" y="-239.5" font-family="Helvetica,sans-Serif" font-size="10.00"> mPos</text>
</g>
<!-- Node10 -->
<g id="node10" class="node">
<title>Node10</title>
<g id="a_node10"><a xlink:href="structJAIAudience.html" target="_top" xlink:title=" ">
<polygon fill="white" stroke="#666666" points="778.5,-209 706.5,-209 706.5,-190 778.5,-190 778.5,-209"/>
<text text-anchor="middle" x="742.5" y="-197" font-family="Helvetica,sans-Serif" font-size="10.00">JAIAudience</text>
</a>
</g>
</g>
<!-- Node10&#45;&gt;Node7 -->
<g id="edge11" class="edge">
<title>Node10&#45;&gt;Node7</title>
<path fill="none" stroke="#9a32cd" stroke-dasharray="5,2" d="M790.15,-193.91C819.46,-190.4 856.36,-185.98 881.52,-182.97"/>
<polygon fill="#9a32cd" stroke="#9a32cd" points="789.93,-190.41 780.42,-195.08 790.76,-197.36 789.93,-190.41"/>
<text text-anchor="middle" x="830.5" y="-194.5" font-family="Helvetica,sans-Serif" font-size="10.00"> audience_</text>
</g>
<!-- Node11 -->
<g id="node11" class="node">
<title>Node11</title>
<g id="a_node11"><a xlink:href="structJAISoundID.html" target="_top" xlink:title=" ">
<polygon fill="white" stroke="#666666" points="777,-172 708,-172 708,-153 777,-153 777,-172"/>
<text text-anchor="middle" x="742.5" y="-160" font-family="Helvetica,sans-Serif" font-size="10.00">JAISoundID</text>
</a>
</g>
</g>
<!-- Node11&#45;&gt;Node7 -->
<g id="edge12" class="edge">
<title>Node11&#45;&gt;Node7</title>
<path fill="none" stroke="#9a32cd" stroke-dasharray="5,2" d="M788.41,-160.2C808.56,-159.87 832.57,-160.43 854,-163.5 863.18,-164.82 872.98,-167.22 881.79,-169.77"/>
<polygon fill="#9a32cd" stroke="#9a32cd" points="788.46,-156.7 778.55,-160.46 788.64,-163.7 788.46,-156.7"/>
<text text-anchor="middle" x="830.5" y="-166.5" font-family="Helvetica,sans-Serif" font-size="10.00"> soundID</text>
</g>
<!-- Node12 -->
<g id="node12" class="node">
<title>Node12</title>
<g id="a_node12"><a xlink:href="structJAISoundStatus__.html" target="_top" xlink:title=" ">
<polygon fill="white" stroke="#666666" points="789,-135 696,-135 696,-116 789,-116 789,-135"/>
<text text-anchor="middle" x="742.5" y="-123" font-family="Helvetica,sans-Serif" font-size="10.00">JAISoundStatus_</text>
</a>
</g>
</g>
<!-- Node12&#45;&gt;Node7 -->
<g id="edge13" class="edge">
<title>Node12&#45;&gt;Node7</title>
<path fill="none" stroke="#9a32cd" stroke-dasharray="5,2" d="M800.67,-131.06C818.16,-133.88 837.2,-138.13 854,-144.5 870.18,-150.64 886.8,-161.6 897.79,-169.62"/>
<polygon fill="#9a32cd" stroke="#9a32cd" points="801.34,-127.62 790.93,-129.62 800.31,-134.54 801.34,-127.62"/>
<text text-anchor="middle" x="830.5" y="-147.5" font-family="Helvetica,sans-Serif" font-size="10.00"> status_</text>
</g>
<!-- Node13 -->
<g id="node13" class="node">
<title>Node13</title>
<g id="a_node13"><a xlink:href="structJAISoundFader.html" target="_top" xlink:title=" ">
<polygon fill="white" stroke="#666666" points="464,-97 380,-97 380,-78 464,-78 464,-97"/>
<text text-anchor="middle" x="422" y="-85" font-family="Helvetica,sans-Serif" font-size="10.00">JAISoundFader</text>
</a>
</g>
</g>
<!-- Node13&#45;&gt;Node7 -->
<g id="edge14" class="edge">
<title>Node13&#45;&gt;Node7</title>
<path fill="none" stroke="#9a32cd" stroke-dasharray="5,2" d="M475.68,-86.15C547.25,-85.27 678.91,-87.06 789,-107.5 818.85,-113.04 827.7,-113.33 854,-128.5 873.46,-139.73 891.99,-158.53 902.24,-169.9"/>
<polygon fill="#9a32cd" stroke="#9a32cd" points="475.76,-82.65 465.81,-86.3 475.87,-89.65 475.76,-82.65"/>
<text text-anchor="middle" x="654.5" y="-95.5" font-family="Helvetica,sans-Serif" font-size="10.00"> fader</text>
</g>
<!-- Node14 -->
<g id="node14" class="node">
<title>Node14</title>
<g id="a_node14"><a xlink:href="structJAISoundParamsTransition_1_1TTransition.html" target="_top" xlink:title=" ">
<polygon fill="white" stroke="#666666" points="136,-63.5 0,-63.5 0,-33.5 136,-33.5 136,-63.5"/>
<text text-anchor="start" x="8" y="-51.5" font-family="Helvetica,sans-Serif" font-size="10.00">JAISoundParamsTransition</text>
<text text-anchor="middle" x="68" y="-40.5" font-family="Helvetica,sans-Serif" font-size="10.00">::TTransition</text>
</a>
</g>
</g>
<!-- Node14&#45;&gt;Node13 -->
<g id="edge15" class="edge">
<title>Node14&#45;&gt;Node13</title>
<path fill="none" stroke="#9a32cd" stroke-dasharray="5,2" d="M147.39,-64.52C149.61,-64.87 151.82,-65.19 154,-65.5 233.45,-76.68 327.06,-82.78 379.67,-85.57"/>
<polygon fill="#9a32cd" stroke="#9a32cd" points="148.08,-61.09 137.65,-62.92 146.95,-68 148.08,-61.09"/>
<text text-anchor="middle" x="181" y="-74.5" font-family="Helvetica,sans-Serif" font-size="10.00"> mTransition</text>
</g>
<!-- Node19 -->
<g id="node19" class="node">
<title>Node19</title>
<g id="a_node19"><a xlink:href="structJAISoundParamsTransition.html" target="_top" xlink:title=" ">
<polygon fill="white" stroke="#666666" points="362,-19 226,-19 226,0 362,0 362,-19"/>
<text text-anchor="middle" x="294" y="-7" font-family="Helvetica,sans-Serif" font-size="10.00">JAISoundParamsTransition</text>
</a>
</g>
</g>
<!-- Node14&#45;&gt;Node19 -->
<g id="edge21" class="edge">
<title>Node14&#45;&gt;Node19</title>
<path fill="none" stroke="#9a32cd" stroke-dasharray="5,2" d="M105.68,-28.11C120.26,-21.09 137.48,-14.09 154,-10.5 176.99,-5.51 202.63,-4.17 225.57,-4.43"/>
<polygon fill="#9a32cd" stroke="#9a32cd" points="104.3,-24.89 96.93,-32.51 107.44,-31.15 104.3,-24.89"/>
<text text-anchor="middle" x="181" y="-57.5" font-family="Helvetica,sans-Serif" font-size="10.00"> mDolby</text>
<text text-anchor="middle" x="181" y="-46.5" font-family="Helvetica,sans-Serif" font-size="10.00">mFxMix</text>
<text text-anchor="middle" x="181" y="-35.5" font-family="Helvetica,sans-Serif" font-size="10.00">mPan</text>
<text text-anchor="middle" x="181" y="-24.5" font-family="Helvetica,sans-Serif" font-size="10.00">mPitch</text>
<text text-anchor="middle" x="181" y="-13.5" font-family="Helvetica,sans-Serif" font-size="10.00">mVolume</text>
</g>
<!-- Node15 -->
<g id="node15" class="node">
<title>Node15</title>
<g id="a_node15"><a xlink:href="structJAISoundParams.html" target="_top" xlink:title=" ">
<polygon fill="white" stroke="#666666" points="789,-59 696,-59 696,-40 789,-40 789,-59"/>
<text text-anchor="middle" x="742.5" y="-47" font-family="Helvetica,sans-Serif" font-size="10.00">JAISoundParams</text>
</a>
</g>
</g>
<!-- Node15&#45;&gt;Node7 -->
<g id="edge16" class="edge">
<title>Node15&#45;&gt;Node7</title>
<path fill="none" stroke="#9a32cd" stroke-dasharray="5,2" d="M800.6,-45.72C819.06,-47.1 838.69,-51.59 854,-62.5 891.11,-88.94 904.83,-146.5 908.97,-169.61"/>
<polygon fill="#9a32cd" stroke="#9a32cd" points="800.95,-42.23 790.81,-45.3 800.65,-49.23 800.95,-42.23"/>
<text text-anchor="middle" x="830.5" y="-65.5" font-family="Helvetica,sans-Serif" font-size="10.00"> params</text>
</g>
<!-- Node16 -->
<g id="node16" class="node">
<title>Node16</title>
<g id="a_node16"><a xlink:href="structJAISoundParamsProperty.html" target="_top" xlink:title=" ">
<polygon fill="white" stroke="#666666" points="612,-59 483,-59 483,-40 612,-40 612,-59"/>
<text text-anchor="middle" x="547.5" y="-47" font-family="Helvetica,sans-Serif" font-size="10.00">JAISoundParamsProperty</text>
</a>
</g>
</g>
<!-- Node16&#45;&gt;Node15 -->
<g id="edge17" class="edge">
<title>Node16&#45;&gt;Node15</title>
<path fill="none" stroke="#9a32cd" stroke-dasharray="5,2" d="M623.85,-49.5C648.1,-49.5 674.23,-49.5 695.68,-49.5"/>
<polygon fill="#9a32cd" stroke="#9a32cd" points="624.01,-46 614.01,-49.5 624.01,-53 624.01,-46"/>
<text text-anchor="middle" x="654.5" y="-52.5" font-family="Helvetica,sans-Serif" font-size="10.00"> mProperty</text>
</g>
<!-- Node17 -->
<g id="node17" class="node">
<title>Node17</title>
<g id="a_node17"><a xlink:href="structJAISoundParamsMove.html" target="_top" xlink:title=" ">
<polygon fill="white" stroke="#666666" points="606,-22 489,-22 489,-3 606,-3 606,-22"/>
<text text-anchor="middle" x="547.5" y="-10" font-family="Helvetica,sans-Serif" font-size="10.00">JAISoundParamsMove</text>
</a>
</g>
</g>
<!-- Node17&#45;&gt;Node15 -->
<g id="edge18" class="edge">
<title>Node17&#45;&gt;Node15</title>
<path fill="none" stroke="#9a32cd" stroke-dasharray="5,2" d="M617.64,-23.41C637.2,-26.72 658.48,-30.54 678,-34.5 685.44,-36.01 693.33,-37.76 700.93,-39.51"/>
<polygon fill="#9a32cd" stroke="#9a32cd" points="618.28,-19.97 607.84,-21.77 617.12,-26.87 618.28,-19.97"/>
<text text-anchor="middle" x="654.5" y="-37.5" font-family="Helvetica,sans-Serif" font-size="10.00"> mMove</text>
</g>
<!-- Node18 -->
<g id="node18" class="node">
<title>Node18</title>
<g id="a_node18"><a xlink:href="structJASSoundParams.html" target="_top" xlink:title=" ">
<polygon fill="white" stroke="#666666" points="342.5,-56 245.5,-56 245.5,-37 342.5,-37 342.5,-56"/>
<text text-anchor="middle" x="294" y="-44" font-family="Helvetica,sans-Serif" font-size="10.00">JASSoundParams</text>
</a>
</g>
</g>
<!-- Node18&#45;&gt;Node17 -->
<g id="edge19" class="edge">
<title>Node18&#45;&gt;Node17</title>
<path fill="none" stroke="#9a32cd" stroke-dasharray="5,2" d="M353.85,-39.06C386.35,-34.89 427.42,-29.54 464,-24.5 472.03,-23.39 480.49,-22.2 488.82,-21"/>
<polygon fill="#9a32cd" stroke="#9a32cd" points="353.72,-35.55 344.24,-40.29 354.6,-42.49 353.72,-35.55"/>
<text text-anchor="middle" x="422" y="-39.5" font-family="Helvetica,sans-Serif" font-size="10.00"> mParams</text>
</g>
<!-- Node19&#45;&gt;Node17 -->
<g id="edge20" class="edge">
<title>Node19&#45;&gt;Node17</title>
<path fill="none" stroke="#9a32cd" stroke-dasharray="5,2" d="M373.73,-10.44C410.96,-10.88 454.62,-11.4 488.74,-11.81"/>
<polygon fill="#9a32cd" stroke="#9a32cd" points="373.95,-6.94 363.91,-10.32 373.87,-13.94 373.95,-6.94"/>
<text text-anchor="middle" x="422" y="-14.5" font-family="Helvetica,sans-Serif" font-size="10.00"> mTransition</text>
</g>
<!-- Node20 -->
<g id="node20" class="node">
<title>Node20</title>
<g id="a_node20"><a xlink:href="structZ2MultiSeMgr.html" target="_top" xlink:title=" ">
<polygon fill="white" stroke="#666666" points="1073.5,-248 996.5,-248 996.5,-229 1073.5,-229 1073.5,-248"/>
<text text-anchor="middle" x="1035" y="-236" font-family="Helvetica,sans-Serif" font-size="10.00">Z2MultiSeMgr</text>
</a>
</g>
</g>
<!-- Node20&#45;&gt;Node1 -->
<g id="edge22" class="edge">
<title>Node20&#45;&gt;Node1</title>
<path fill="none" stroke="#9a32cd" stroke-dasharray="5,2" d="M1085.23,-238.5C1111.9,-238.5 1144.26,-238.5 1168.54,-238.5"/>
<polygon fill="#9a32cd" stroke="#9a32cd" points="1085.33,-235 1075.33,-238.5 1085.33,-242 1085.33,-235"/>
<text text-anchor="middle" x="1125.5" y="-318.5" font-family="Helvetica,sans-Serif" font-size="10.00"> field_0x164</text>
<text text-anchor="middle" x="1125.5" y="-307.5" font-family="Helvetica,sans-Serif" font-size="10.00">field_0x1bc</text>
<text text-anchor="middle" x="1125.5" y="-296.5" font-family="Helvetica,sans-Serif" font-size="10.00">field_0x1f0</text>
<text text-anchor="middle" x="1125.5" y="-285.5" font-family="Helvetica,sans-Serif" font-size="10.00">field_0x224</text>
<text text-anchor="middle" x="1125.5" y="-274.5" font-family="Helvetica,sans-Serif" font-size="10.00">field_0x258</text>
<text text-anchor="middle" x="1125.5" y="-263.5" font-family="Helvetica,sans-Serif" font-size="10.00">field_0x28c</text>
<text text-anchor="middle" x="1125.5" y="-252.5" font-family="Helvetica,sans-Serif" font-size="10.00">field_0x2c0</text>
<text text-anchor="middle" x="1125.5" y="-241.5" font-family="Helvetica,sans-Serif" font-size="10.00">field_0x64</text>
</g>
<!-- Node21 -->
<g id="node21" class="node">
<title>Node21</title>
<g id="a_node21"><a xlink:href="structZ2Calc_1_1FNoise1f.html" target="_top" xlink:title=" ">
<polygon fill="white" stroke="#666666" points="1081,-104 989,-104 989,-85 1081,-85 1081,-104"/>
<text text-anchor="middle" x="1035" y="-92" font-family="Helvetica,sans-Serif" font-size="10.00">Z2Calc::FNoise1f</text>
</a>
</g>
</g>
<!-- Node21&#45;&gt;Node1 -->
<g id="edge24" class="edge">
<title>Node21&#45;&gt;Node1</title>
<path fill="none" stroke="#9a32cd" stroke-dasharray="5,2" d="M1092.63,-92.97C1112.83,-95.06 1134.62,-100.65 1151,-113.5 1188.89,-143.22 1200.37,-204.95 1203.46,-228.8"/>
<polygon fill="#9a32cd" stroke="#9a32cd" points="1093.03,-89.49 1082.8,-92.24 1092.51,-96.47 1093.03,-89.49"/>
<text text-anchor="middle" x="1125.5" y="-226.5" font-family="Helvetica,sans-Serif" font-size="10.00"> field_0x100</text>
<text text-anchor="middle" x="1125.5" y="-215.5" font-family="Helvetica,sans-Serif" font-size="10.00">field_0x120</text>
<text text-anchor="middle" x="1125.5" y="-204.5" font-family="Helvetica,sans-Serif" font-size="10.00">field_0x130</text>
<text text-anchor="middle" x="1125.5" y="-193.5" font-family="Helvetica,sans-Serif" font-size="10.00">field_0x18c</text>
<text text-anchor="middle" x="1125.5" y="-182.5" font-family="Helvetica,sans-Serif" font-size="10.00">field_0x19c</text>
<text text-anchor="middle" x="1125.5" y="-171.5" font-family="Helvetica,sans-Serif" font-size="10.00">field_0x2e8</text>
<text text-anchor="middle" x="1125.5" y="-160.5" font-family="Helvetica,sans-Serif" font-size="10.00">field_0x2f8</text>
<text text-anchor="middle" x="1125.5" y="-149.5" font-family="Helvetica,sans-Serif" font-size="10.00">field_0x90</text>
<text text-anchor="middle" x="1125.5" y="-138.5" font-family="Helvetica,sans-Serif" font-size="10.00">field_0xa0</text>
<text text-anchor="middle" x="1125.5" y="-127.5" font-family="Helvetica,sans-Serif" font-size="10.00">field_0xb0</text>
<text text-anchor="middle" x="1125.5" y="-116.5" font-family="Helvetica,sans-Serif" font-size="10.00">...</text>
</g>
<!-- Node22&#45;&gt;Node1 -->
<g id="edge25" class="edge">
<title>Node22&#45;&gt;Node1</title>
<path fill="none" stroke="#9a32cd" stroke-dasharray="5,2" d="M1080.8,-338.5C1103.27,-340.68 1130.09,-339.57 1151,-327.5 1181.45,-309.93 1196.55,-267.49 1202.02,-248.26"/>
<polygon fill="#9a32cd" stroke="#9a32cd" points="1081.35,-335.04 1071,-337.28 1080.49,-341.99 1081.35,-335.04"/>
<text text-anchor="middle" x="1125.5" y="-341.5" font-family="Helvetica,sans-Serif" font-size="10.00"> field_0x144</text>
</g>
</g>
</svg>
        <g id="navigator" transform="translate(0 0)" fill="#404254">
                <rect fill="#f2f5e9" fill-opacity="0.5" stroke="#606060" stroke-width=".5" x="0" y="0" width="60" height="60"/>
                <use id="zoomplus" xlink:href="#zoomPlus" x="17" y="9" onmousedown="handleZoom(evt,'in')"/>
                <use id="zoomminus" xlink:href="#zoomMin" x="42" y="9" onmousedown="handleZoom(evt,'out')"/>
                <use id="reset" xlink:href="#resetDef" x="30" y="36" onmousedown="handleReset()"/>
                <g id="arrowUp" xlink:href="#dirArrow" transform="translate(30 24)" onmousedown="handlePan(0,-1)">
                  <use xlink:href="#rim" fill="#404040">
                        <set attributeName="fill" to="#808080" begin="arrowUp.mouseover" end="arrowUp.mouseout"/>
                  </use>
                  <path fill="none" stroke="white" stroke-width="1.5" d="M0,-3.0v7 M-2.5,-0.5L0,-3.0L2.5,-0.5"/>
                </g>
                <g id="arrowRight" xlink:href="#dirArrow" transform="rotate(90) translate(36 -43)" onmousedown="handlePan(1,0)">
                  <use xlink:href="#rim" fill="#404040">
                        <set attributeName="fill" to="#808080" begin="arrowRight.mouseover" end="arrowRight.mouseout"/>
                  </use>
                  <path fill="none" stroke="white" stroke-width="1.5" d="M0,-3.0v7 M-2.5,-0.5L0,-3.0L2.5,-0.5"/>
                </g>
                <g id="arrowDown" xlink:href="#dirArrow" transform="rotate(180) translate(-30 -48)" onmousedown="handlePan(0,1)">
                  <use xlink:href="#rim" fill="#404040">
                        <set attributeName="fill" to="#808080" begin="arrowDown.mouseover" end="arrowDown.mouseout"/>
                  </use>
                  <path fill="none" stroke="white" stroke-width="1.5" d="M0,-3.0v7 M-2.5,-0.5L0,-3.0L2.5,-0.5"/>
                </g>
                <g id="arrowLeft" xlink:href="#dirArrow" transform="rotate(270) translate(-36 17)" onmousedown="handlePan(-1,0)">
                  <use xlink:href="#rim" fill="#404040">
                        <set attributeName="fill" to="#808080" begin="arrowLeft.mouseover" end="arrowLeft.mouseout"/>
                  </use>
                  <path fill="none" stroke="white" stroke-width="1.5" d="M0,-3.0v7 M-2.5,-0.5L0,-3.0L2.5,-0.5"/>
                </g>
        </g>
        <svg viewBox="0 0 15 15" width="100%" height="30px" preserveAspectRatio="xMaxYMin meet">
         <g id="arrow_out" transform="scale(0.3 0.3)">
          <a xlink:href="structZ2EnvSeMgr__coll__graph_org.svg" target="_base">
           <rect id="button" ry="5" rx="5" y="6" x="6" height="38" width="38"
                fill="#f2f5e9" fill-opacity="0.5" stroke="#606060" stroke-width="1.0"/>
           <path id="arrow"
             d="M 11.500037,31.436501 C 11.940474,20.09759 22.043105,11.32322 32.158766,21.979434 L 37.068811,17.246167 C 37.068811,17.246167 37.088388,32 37.088388,32 L 22.160133,31.978069 C 22.160133,31.978069 26.997745,27.140456 26.997745,27.140456 C 18.528582,18.264221 13.291696,25.230495 11.500037,31.436501 z"
             style="fill:#404040;"/>
          </a>
         </g>
        </svg>
</svg>
