<?xml version="1.0" encoding="UTF-8" standalone="no"?>
<!DOCTYPE svg PUBLIC "-//W3C//DTD SVG 1.1//EN"
 "http://www.w3.org/Graphics/SVG/1.1/DTD/svg11.dtd">
<!-- Generated by graphviz version 7.0.5 (20221223.1930)
 -->
<!-- Title: base_process_class Pages: 1 -->
<svg width="1620pt" height="514pt"
 viewBox="0.00 0.00 1620.00 514.00" xmlns="http://www.w3.org/2000/svg" xmlns:xlink="http://www.w3.org/1999/xlink">
<g id="graph0" class="graph" transform="scale(1 1) rotate(0) translate(4 510)">
<title>base_process_class</title>
<!-- Node1 -->
<g id="node1" class="node">
<title>Node1</title>
<g id="a_node1"><a xlink:title=" ">
<polygon fill="#999999" stroke="#666666" points="952,-309.5 846,-309.5 846,-290.5 952,-290.5 952,-309.5"/>
<text text-anchor="middle" x="899" y="-297.5" font-family="Helvetica,sans-Serif" font-size="10.00">base_process_class</text>
</a>
</g>
</g>
<!-- Node4 -->
<g id="node4" class="node">
<title>Node4</title>
<g id="a_node4"><a xlink:href="structcreate__request.html" target="_top" xlink:title=" ">
<polygon fill="white" stroke="#666666" points="1594,-409.5 1513,-409.5 1513,-390.5 1594,-390.5 1594,-409.5"/>
<text text-anchor="middle" x="1553.5" y="-397.5" font-family="Helvetica,sans-Serif" font-size="10.00">create_request</text>
</a>
</g>
</g>
<!-- Node1&#45;&gt;Node4 -->
<g id="edge11" class="edge">
<title>Node1&#45;&gt;Node4</title>
<path fill="none" stroke="#9a32cd" stroke-dasharray="5,2" d="M927.5,-314.99C940.14,-321.34 955.51,-328.34 970,-333 1012.16,-346.56 1024.42,-343.11 1068,-351 1224.29,-379.29 1263.4,-391.34 1422,-400 1452.43,-401.66 1486.9,-401.58 1512.78,-401.12"/>
<polygon fill="#9a32cd" stroke="#9a32cd" points="929.44,-312.05 918.95,-310.56 926.22,-318.27 929.44,-312.05"/>
<text text-anchor="middle" x="1232" y="-389" font-family="Helvetica,sans-Serif" font-size="10.00"> mpRes</text>
</g>
<!-- Node13 -->
<g id="node13" class="node">
<title>Node13</title>
<g id="a_node13"><a xlink:href="structprocess__node__class.html" target="_top" xlink:title=" ">
<polygon fill="white" stroke="#666666" points="1176.5,-135.5 1070.5,-135.5 1070.5,-116.5 1176.5,-116.5 1176.5,-135.5"/>
<text text-anchor="middle" x="1123.5" y="-123.5" font-family="Helvetica,sans-Serif" font-size="10.00">process_node_class</text>
</a>
</g>
</g>
<!-- Node1&#45;&gt;Node13 -->
<g id="edge18" class="edge">
<title>Node1&#45;&gt;Node13</title>
<path fill="none" stroke="#9a32cd" stroke-dasharray="5,2" d="M915.99,-281.51C929.58,-266.31 950.03,-244.63 970,-228 1015.77,-189.88 1076.04,-153.03 1105.21,-135.93"/>
<polygon fill="#9a32cd" stroke="#9a32cd" points="913.46,-279.09 909.47,-288.91 918.71,-283.72 913.46,-279.09"/>
<text text-anchor="middle" x="1010" y="-231" font-family="Helvetica,sans-Serif" font-size="10.00"> mBase</text>
</g>
<!-- Node2 -->
<g id="node2" class="node">
<title>Node2</title>
<g id="a_node2"><a xlink:href="structprocess__profile__definition.html" target="_top" xlink:title=" ">
<polygon fill="white" stroke="#666666" points="685,-263.5 560,-263.5 560,-244.5 685,-244.5 685,-263.5"/>
<text text-anchor="middle" x="622.5" y="-251.5" font-family="Helvetica,sans-Serif" font-size="10.00">process_profile_definition</text>
</a>
</g>
</g>
<!-- Node2&#45;&gt;Node1 -->
<g id="edge1" class="edge">
<title>Node2&#45;&gt;Node1</title>
<path fill="none" stroke="#9a32cd" stroke-dasharray="5,2" d="M696.76,-257.24C736.04,-260.05 785.07,-265.28 828,-275 843.98,-278.62 861.34,-284.8 874.77,-290.11"/>
<polygon fill="#9a32cd" stroke="#9a32cd" points="697.15,-253.76 686.93,-256.58 696.68,-260.74 697.15,-253.76"/>
<text text-anchor="middle" x="765.5" y="-278" font-family="Helvetica,sans-Serif" font-size="10.00"> mpProf</text>
</g>
<!-- Node3 -->
<g id="node3" class="node">
<title>Node3</title>
<g id="a_node3"><a xlink:href="structprocess__method__class.html" target="_top" xlink:title=" ">
<polygon fill="white" stroke="#666666" points="452,-263.5 335,-263.5 335,-244.5 452,-244.5 452,-263.5"/>
<text text-anchor="middle" x="393.5" y="-251.5" font-family="Helvetica,sans-Serif" font-size="10.00">process_method_class</text>
</a>
</g>
</g>
<!-- Node3&#45;&gt;Node1 -->
<g id="edge36" class="edge">
<title>Node3&#45;&gt;Node1</title>
<path fill="none" stroke="#9a32cd" stroke-dasharray="5,2" d="M457.67,-265.8C465.18,-266.99 472.75,-268.09 480,-269 611.05,-285.45 766.38,-294.16 845.7,-297.83"/>
<polygon fill="#9a32cd" stroke="#9a32cd" points="458.3,-262.35 447.87,-264.18 457.17,-269.26 458.3,-262.35"/>
<text text-anchor="middle" x="622.5" y="-291" font-family="Helvetica,sans-Serif" font-size="10.00"> mpPcMtd</text>
</g>
<!-- Node3&#45;&gt;Node2 -->
<g id="edge2" class="edge">
<title>Node3&#45;&gt;Node2</title>
<path fill="none" stroke="#9a32cd" stroke-dasharray="5,2" d="M463.82,-254C494.42,-254 530.09,-254 559.76,-254"/>
<polygon fill="#9a32cd" stroke="#9a32cd" points="463.88,-250.5 453.88,-254 463.88,-257.5 463.88,-250.5"/>
<text text-anchor="middle" x="511" y="-257" font-family="Helvetica,sans-Serif" font-size="10.00"> mSubMtd</text>
</g>
<!-- Node14 -->
<g id="node14" class="node">
<title>Node14</title>
<g id="a_node14"><a xlink:href="structnodedraw__method__class.html" target="_top" xlink:title=" ">
<polygon fill="white" stroke="#666666" points="828,-222.5 703,-222.5 703,-203.5 828,-203.5 828,-222.5"/>
<text text-anchor="middle" x="765.5" y="-210.5" font-family="Helvetica,sans-Serif" font-size="10.00">nodedraw_method_class</text>
</a>
</g>
</g>
<!-- Node3&#45;&gt;Node14 -->
<g id="edge20" class="edge">
<title>Node3&#45;&gt;Node14</title>
<path fill="none" stroke="#9a32cd" stroke-dasharray="5,2" d="M458.56,-242.17C465.78,-241.01 473.04,-239.93 480,-239 556.45,-228.82 644.99,-221.41 702.73,-217.17"/>
<polygon fill="#9a32cd" stroke="#9a32cd" points="458.09,-238.7 448.79,-243.79 459.23,-245.61 458.09,-238.7"/>
<text text-anchor="middle" x="511" y="-242" font-family="Helvetica,sans-Serif" font-size="10.00"> mBase</text>
</g>
<!-- Node4&#45;&gt;Node1 -->
<g id="edge3" class="edge">
<title>Node4&#45;&gt;Node1</title>
<path fill="none" stroke="#9a32cd" stroke-dasharray="5,2" d="M1501.37,-393.09C1399.87,-379.21 1165.81,-346.4 970,-313 964.27,-312.02 958.29,-310.97 952.34,-309.89"/>
<polygon fill="#9a32cd" stroke="#9a32cd" points="1500.63,-396.52 1511.01,-394.4 1501.57,-389.58 1500.63,-396.52"/>
<text text-anchor="middle" x="1232" y="-362" font-family="Helvetica,sans-Serif" font-size="10.00"> mpCtRq</text>
</g>
<!-- Node5 -->
<g id="node5" class="node">
<title>Node5</title>
<g id="a_node5"><a xlink:href="structcreate__tag.html" target="_top" xlink:title=" ">
<polygon fill="white" stroke="#666666" points="542,-497.5 480,-497.5 480,-478.5 542,-478.5 542,-497.5"/>
<text text-anchor="middle" x="511" y="-485.5" font-family="Helvetica,sans-Serif" font-size="10.00">create_tag</text>
</a>
</g>
</g>
<!-- Node5&#45;&gt;Node4 -->
<g id="edge4" class="edge">
<title>Node5&#45;&gt;Node4</title>
<path fill="none" stroke="#9a32cd" stroke-dasharray="5,2" d="M553.62,-489.86C603.66,-491.93 690.2,-495 764.5,-495 764.5,-495 764.5,-495 1345.5,-495 1404.91,-495 1423.97,-497.78 1477,-471 1506.87,-455.91 1533.19,-425.27 1545.35,-409.64"/>
<polygon fill="#9a32cd" stroke="#9a32cd" points="553.96,-486.37 543.82,-489.45 553.66,-493.37 553.96,-486.37"/>
<text text-anchor="middle" x="1010" y="-498" font-family="Helvetica,sans-Serif" font-size="10.00"> mBase</text>
</g>
<!-- Node6 -->
<g id="node6" class="node">
<title>Node6</title>
<g id="a_node6"><a xlink:href="structcreate__tag__class.html" target="_top" xlink:title=" ">
<polygon fill="white" stroke="#666666" points="233,-313.5 142,-313.5 142,-294.5 233,-294.5 233,-313.5"/>
<text text-anchor="middle" x="187.5" y="-301.5" font-family="Helvetica,sans-Serif" font-size="10.00">create_tag_class</text>
</a>
</g>
</g>
<!-- Node6&#45;&gt;Node5 -->
<g id="edge5" class="edge">
<title>Node6&#45;&gt;Node5</title>
<path fill="none" stroke="#9a32cd" stroke-dasharray="5,2" d="M196.23,-324.59C206.02,-348.45 224.82,-387.83 251,-414 313.84,-476.81 426.07,-487.15 479.76,-488.31"/>
<polygon fill="#9a32cd" stroke="#9a32cd" points="199.53,-323.39 192.61,-315.37 193.01,-325.96 199.53,-323.39"/>
<text text-anchor="middle" x="279" y="-454" font-family="Helvetica,sans-Serif" font-size="10.00"> mBase</text>
</g>
<!-- Node8 -->
<g id="node8" class="node">
<title>Node8</title>
<g id="a_node8"><a xlink:href="structprocess__method__tag__class.html" target="_top" xlink:title=" ">
<polygon fill="white" stroke="#666666" points="447,-447 340,-447 340,-417 447,-417 447,-447"/>
<text text-anchor="start" x="348" y="-435" font-family="Helvetica,sans-Serif" font-size="10.00">process_method_tag</text>
<text text-anchor="middle" x="393.5" y="-424" font-family="Helvetica,sans-Serif" font-size="10.00">_class</text>
</a>
</g>
</g>
<!-- Node6&#45;&gt;Node8 -->
<g id="edge9" class="edge">
<title>Node6&#45;&gt;Node8</title>
<path fill="none" stroke="#9a32cd" stroke-dasharray="5,2" d="M205.04,-321.93C217.12,-334.49 234.24,-351.24 251,-364 281.44,-387.18 290.37,-391.74 325,-408 331.42,-411.01 338.32,-413.87 345.18,-416.5"/>
<polygon fill="#9a32cd" stroke="#9a32cd" points="207.67,-319.61 198.26,-314.75 202.58,-324.42 207.67,-319.61"/>
<text text-anchor="middle" x="279" y="-402" font-family="Helvetica,sans-Serif" font-size="10.00"> mCreateTag</text>
</g>
<!-- Node15 -->
<g id="node15" class="node">
<title>Node15</title>
<g id="a_node15"><a xlink:href="structlayer__management__tag__class.html" target="_top" xlink:title=" ">
<polygon fill="white" stroke="#666666" points="1612,-276 1495,-276 1495,-246 1612,-246 1612,-276"/>
<text text-anchor="start" x="1503" y="-264" font-family="Helvetica,sans-Serif" font-size="10.00">layer_management_tag</text>
<text text-anchor="middle" x="1553.5" y="-253" font-family="Helvetica,sans-Serif" font-size="10.00">_class</text>
</a>
</g>
</g>
<!-- Node6&#45;&gt;Node15 -->
<g id="edge25" class="edge">
<title>Node6&#45;&gt;Node15</title>
<path fill="none" stroke="#9a32cd" stroke-dasharray="5,2" d="M213.33,-288.22C239.86,-272.18 283.71,-248.04 325,-236 540.29,-173.2 604.07,-183.9 828,-196 992.72,-204.9 1032.69,-221.32 1197,-236 1301.76,-245.36 1424.16,-253.31 1494.57,-257.6"/>
<polygon fill="#9a32cd" stroke="#9a32cd" points="211.69,-285.11 205.01,-293.33 215.36,-291.07 211.69,-285.11"/>
<text text-anchor="middle" x="899" y="-210" font-family="Helvetica,sans-Serif" font-size="10.00"> mCreateTag</text>
</g>
<!-- Node16 -->
<g id="node16" class="node">
<title>Node16</title>
<g id="a_node16"><a xlink:href="structline__tag.html" target="_top" xlink:title=" ">
<polygon fill="white" stroke="#666666" points="536,-334.5 486,-334.5 486,-315.5 536,-315.5 536,-334.5"/>
<text text-anchor="middle" x="511" y="-322.5" font-family="Helvetica,sans-Serif" font-size="10.00">line_tag</text>
</a>
</g>
</g>
<!-- Node6&#45;&gt;Node16 -->
<g id="edge28" class="edge">
<title>Node6&#45;&gt;Node16</title>
<path fill="none" stroke="#9a32cd" stroke-dasharray="5,2" d="M244.58,-307.66C315.51,-312.3 434.53,-320.07 485.56,-323.4"/>
<polygon fill="#9a32cd" stroke="#9a32cd" points="244.92,-304.18 234.71,-307.02 244.46,-311.16 244.92,-304.18"/>
<text text-anchor="middle" x="279" y="-314" font-family="Helvetica,sans-Serif" font-size="10.00"> mBase</text>
</g>
<!-- Node17 -->
<g id="node17" class="node">
<title>Node17</title>
<g id="a_node17"><a xlink:href="structdelete__tag__class.html" target="_top" xlink:title=" ">
<polygon fill="white" stroke="#666666" points="1598.5,-186.5 1508.5,-186.5 1508.5,-167.5 1598.5,-167.5 1598.5,-186.5"/>
<text text-anchor="middle" x="1553.5" y="-174.5" font-family="Helvetica,sans-Serif" font-size="10.00">delete_tag_class</text>
</a>
</g>
</g>
<!-- Node6&#45;&gt;Node17 -->
<g id="edge30" class="edge">
<title>Node6&#45;&gt;Node17</title>
<path fill="none" stroke="#9a32cd" stroke-dasharray="5,2" d="M198.44,-284.19C223.76,-236.83 295.6,-121 392.5,-121 392.5,-121 392.5,-121 766.5,-121 849.47,-121 881.88,-97.65 952,-142 964.82,-150.11 956.78,-163.56 970,-171 1061.65,-222.6 1388.91,-194.31 1508.41,-181.89"/>
<polygon fill="#9a32cd" stroke="#9a32cd" points="195.46,-282.33 193.96,-292.82 201.67,-285.56 195.46,-282.33"/>
<text text-anchor="middle" x="899" y="-145" font-family="Helvetica,sans-Serif" font-size="10.00"> mBase</text>
</g>
<!-- Node18 -->
<g id="node18" class="node">
<title>Node18</title>
<g id="a_node18"><a xlink:href="structprocess__priority__class.html" target="_top" xlink:title=" ">
<polygon fill="white" stroke="#666666" points="679,-395.5 566,-395.5 566,-376.5 679,-376.5 679,-395.5"/>
<text text-anchor="middle" x="622.5" y="-383.5" font-family="Helvetica,sans-Serif" font-size="10.00">process_priority_class</text>
</a>
</g>
</g>
<!-- Node6&#45;&gt;Node18 -->
<g id="edge33" class="edge">
<title>Node6&#45;&gt;Node18</title>
<path fill="none" stroke="#9a32cd" stroke-dasharray="5,2" d="M224.04,-317.74C232.76,-320.77 242.14,-323.75 251,-326 343.06,-349.42 368.24,-344.8 462,-360 496.48,-365.59 535.15,-371.89 565.77,-376.89"/>
<polygon fill="#9a32cd" stroke="#9a32cd" points="225.44,-314.53 214.85,-314.44 223.07,-321.12 225.44,-314.53"/>
<text text-anchor="middle" x="393.5" y="-363" font-family="Helvetica,sans-Serif" font-size="10.00"> mBase</text>
</g>
<!-- Node7 -->
<g id="node7" class="node">
<title>Node7</title>
<g id="a_node7"><a xlink:href="structnode__class.html" target="_top" xlink:title=" ">
<polygon fill="white" stroke="#666666" points="66,-76.5 0,-76.5 0,-57.5 66,-57.5 66,-76.5"/>
<text text-anchor="middle" x="33" y="-64.5" font-family="Helvetica,sans-Serif" font-size="10.00">node_class</text>
</a>
</g>
</g>
<!-- Node7&#45;&gt;Node6 -->
<g id="edge6" class="edge">
<title>Node7&#45;&gt;Node6</title>
<path fill="none" stroke="#9a32cd" stroke-dasharray="5,2" d="M46.51,-86.45C77.51,-134.62 157.01,-258.17 180.11,-294.08"/>
<polygon fill="#9a32cd" stroke="#9a32cd" points="49.53,-84.67 41.18,-78.15 43.65,-88.46 49.53,-84.67"/>
<text text-anchor="middle" x="104" y="-210" font-family="Helvetica,sans-Serif" font-size="10.00"> mpNode</text>
</g>
<!-- Node7&#45;&gt;Node7 -->
<g id="edge7" class="edge">
<title>Node7&#45;&gt;Node7</title>
<path fill="none" stroke="#9a32cd" stroke-dasharray="5,2" d="M20.54,-88.26C22.22,-91.94 26.37,-94.5 33,-94.5 45.48,-94.5 49.19,-85.44 44.12,-76.87"/>
<polygon fill="#9a32cd" stroke="#9a32cd" points="24.01,-88.71 21.71,-78.37 17.06,-87.89 24.01,-88.71"/>
<text text-anchor="middle" x="33" y="-108.5" font-family="Helvetica,sans-Serif" font-size="10.00"> mpNextNode</text>
<text text-anchor="middle" x="33" y="-97.5" font-family="Helvetica,sans-Serif" font-size="10.00">mpPrevNode</text>
</g>
<!-- Node10 -->
<g id="node10" class="node">
<title>Node10</title>
<g id="a_node10"><a xlink:href="structlayer__class.html" target="_top" xlink:title=" ">
<polygon fill="white" stroke="#666666" points="1377,-137.5 1312,-137.5 1312,-118.5 1377,-118.5 1377,-137.5"/>
<text text-anchor="middle" x="1344.5" y="-125.5" font-family="Helvetica,sans-Serif" font-size="10.00">layer_class</text>
</a>
</g>
</g>
<!-- Node7&#45;&gt;Node10 -->
<g id="edge13" class="edge">
<title>Node7&#45;&gt;Node10</title>
<path fill="none" stroke="#9a32cd" stroke-dasharray="5,2" d="M55.65,-50.62C84.09,-30.79 136.32,0 186.5,0 186.5,0 186.5,0 1124.5,0 1189.93,0 1211.66,-2.08 1267,-37 1300.69,-58.26 1327.06,-99.18 1338,-118.04"/>
<polygon fill="#9a32cd" stroke="#9a32cd" points="53.93,-47.55 47.86,-56.23 58.02,-53.23 53.93,-47.55"/>
<text text-anchor="middle" x="622.5" y="-3" font-family="Helvetica,sans-Serif" font-size="10.00"> mNode</text>
</g>
<!-- Node12 -->
<g id="node12" class="node">
<title>Node12</title>
<g id="a_node12"><a xlink:href="structnode__list__class.html" target="_top" xlink:title=" ">
<polygon fill="white" stroke="#666666" points="941,-76.5 857,-76.5 857,-57.5 941,-57.5 941,-76.5"/>
<text text-anchor="middle" x="899" y="-64.5" font-family="Helvetica,sans-Serif" font-size="10.00">node_list_class</text>
</a>
</g>
</g>
<!-- Node7&#45;&gt;Node12 -->
<g id="edge16" class="edge">
<title>Node7&#45;&gt;Node12</title>
<path fill="none" stroke="#9a32cd" stroke-dasharray="5,2" d="M77.94,-67C108.41,-67 149.92,-67 186.5,-67 186.5,-67 186.5,-67 623.5,-67 706.18,-67 802.88,-67 856.61,-67"/>
<polygon fill="#9a32cd" stroke="#9a32cd" points="77.94,-63.5 67.94,-67 77.94,-70.5 77.94,-63.5"/>
<text text-anchor="middle" x="393.5" y="-81" font-family="Helvetica,sans-Serif" font-size="10.00"> mpHead</text>
<text text-anchor="middle" x="393.5" y="-70" font-family="Helvetica,sans-Serif" font-size="10.00">mpTail</text>
</g>
<!-- Node8&#45;&gt;Node4 -->
<g id="edge8" class="edge">
<title>Node8&#45;&gt;Node4</title>
<path fill="none" stroke="#9a32cd" stroke-dasharray="5,2" d="M458.22,-442.8C503.61,-449.56 566.13,-457 621.5,-457 621.5,-457 621.5,-457 1345.5,-457 1415.58,-457 1494.36,-426.26 1531.28,-409.93"/>
<polygon fill="#9a32cd" stroke="#9a32cd" points="458.98,-439.37 448.56,-441.32 457.92,-446.29 458.98,-439.37"/>
<text text-anchor="middle" x="1010" y="-460" font-family="Helvetica,sans-Serif" font-size="10.00"> mMtdTg</text>
</g>
<!-- Node8&#45;&gt;Node18 -->
<g id="edge34" class="edge">
<title>Node8&#45;&gt;Node18</title>
<path fill="none" stroke="#9a32cd" stroke-dasharray="5,2" d="M458.62,-423.81C484.63,-420.02 514.89,-415.01 542,-409 558.13,-405.42 575.81,-400.42 590.4,-395.99"/>
<polygon fill="#9a32cd" stroke="#9a32cd" points="458.27,-420.32 448.87,-425.2 459.26,-427.25 458.27,-420.32"/>
<text text-anchor="middle" x="511" y="-423" font-family="Helvetica,sans-Serif" font-size="10.00"> mMtdTag</text>
</g>
<!-- Node9 -->
<g id="node9" class="node">
<title>Node9</title>
<g id="a_node9"><a xlink:href="structcreate__request__method__class.html" target="_top" xlink:title=" ">
<polygon fill="white" stroke="#666666" points="1404,-353 1285,-353 1285,-323 1404,-323 1404,-353"/>
<text text-anchor="start" x="1293" y="-341" font-family="Helvetica,sans-Serif" font-size="10.00">create_request_method</text>
<text text-anchor="middle" x="1344.5" y="-330" font-family="Helvetica,sans-Serif" font-size="10.00">_class</text>
</a>
</g>
</g>
<!-- Node9&#45;&gt;Node4 -->
<g id="edge10" class="edge">
<title>Node9&#45;&gt;Node4</title>
<path fill="none" stroke="#9a32cd" stroke-dasharray="5,2" d="M1415.6,-342.45C1435.8,-345.11 1457.61,-349.32 1477,-356 1500.52,-364.11 1524.89,-379.88 1539.37,-390.18"/>
<polygon fill="#9a32cd" stroke="#9a32cd" points="1416.1,-338.99 1405.75,-341.28 1415.27,-345.94 1416.1,-338.99"/>
<text text-anchor="middle" x="1449.5" y="-359" font-family="Helvetica,sans-Serif" font-size="10.00"> mpCtRqMtd</text>
</g>
<!-- Node10&#45;&gt;Node4 -->
<g id="edge12" class="edge">
<title>Node10&#45;&gt;Node4</title>
<path fill="none" stroke="#9a32cd" stroke-dasharray="5,2" d="M1359.71,-146.67C1400.1,-199.74 1514.59,-350.19 1545,-390.15"/>
<polygon fill="#9a32cd" stroke="#9a32cd" points="1362.63,-144.72 1353.78,-138.89 1357.05,-148.96 1362.63,-144.72"/>
<text text-anchor="middle" x="1449.5" y="-299" font-family="Helvetica,sans-Serif" font-size="10.00"> mpLayer</text>
</g>
<!-- Node10&#45;&gt;Node13 -->
<g id="edge21" class="edge">
<title>Node10&#45;&gt;Node13</title>
<path fill="none" stroke="#9a32cd" stroke-dasharray="5,2" d="M1300.33,-128.92C1271.15,-129.39 1231.75,-129.72 1197,-129 1190.45,-128.86 1183.57,-128.66 1176.76,-128.42"/>
<polygon fill="#9a32cd" stroke="#9a32cd" points="1300.32,-132.42 1310.26,-128.75 1300.2,-125.42 1300.32,-132.42"/>
<text text-anchor="middle" x="1232" y="-133" font-family="Helvetica,sans-Serif" font-size="10.00"> mLayer</text>
</g>
<!-- Node10&#45;&gt;Node15 -->
<g id="edge26" class="edge">
<title>Node10&#45;&gt;Node15</title>
<path fill="none" stroke="#9a32cd" stroke-dasharray="5,2" d="M1370.66,-144.16C1410.92,-170.03 1489.29,-220.39 1528.69,-245.7"/>
<polygon fill="#9a32cd" stroke="#9a32cd" points="1372.64,-141.28 1362.33,-138.81 1368.85,-147.16 1372.64,-141.28"/>
<text text-anchor="middle" x="1449.5" y="-214" font-family="Helvetica,sans-Serif" font-size="10.00"> mpLayer</text>
</g>
<!-- Node10&#45;&gt;Node17 -->
<g id="edge31" class="edge">
<title>Node10&#45;&gt;Node17</title>
<path fill="none" stroke="#9a32cd" stroke-dasharray="5,2" d="M1388.68,-134.33C1414.5,-138.49 1447.85,-144.55 1477,-152 1493.32,-156.17 1511.23,-162.04 1525.51,-167.05"/>
<polygon fill="#9a32cd" stroke="#9a32cd" points="1389.31,-130.88 1378.88,-132.78 1388.22,-137.8 1389.31,-130.88"/>
<text text-anchor="middle" x="1449.5" y="-155" font-family="Helvetica,sans-Serif" font-size="10.00"> mpLayer</text>
</g>
<!-- Node11 -->
<g id="node11" class="node">
<title>Node11</title>
<g id="a_node11"><a xlink:href="structnode__lists__tree__class.html" target="_top" xlink:title=" ">
<polygon fill="white" stroke="#666666" points="1179,-47.5 1068,-47.5 1068,-28.5 1179,-28.5 1179,-47.5"/>
<text text-anchor="middle" x="1123.5" y="-35.5" font-family="Helvetica,sans-Serif" font-size="10.00">node_lists_tree_class</text>
</a>
</g>
</g>
<!-- Node11&#45;&gt;Node10 -->
<g id="edge14" class="edge">
<title>Node11&#45;&gt;Node10</title>
<path fill="none" stroke="#9a32cd" stroke-dasharray="5,2" d="M1190.62,-39.7C1215.51,-42.37 1243.46,-47.91 1267,-59 1296.77,-73.02 1323.27,-102.53 1335.82,-118.02"/>
<polygon fill="#9a32cd" stroke="#9a32cd" points="1191.22,-36.24 1180.94,-38.8 1190.58,-43.21 1191.22,-36.24"/>
<text text-anchor="middle" x="1232" y="-62" font-family="Helvetica,sans-Serif" font-size="10.00"> mNodeListTree</text>
</g>
<!-- Node12&#45;&gt;Node10 -->
<g id="edge23" class="edge">
<title>Node12&#45;&gt;Node10</title>
<path fill="none" stroke="#9a32cd" stroke-dasharray="5,2" d="M952.84,-71.64C981.59,-74.23 1017.76,-77.62 1050,-81 1107.41,-87.02 1121.96,-87.19 1179,-96 1218.37,-102.08 1227.9,-105.39 1267,-113 1281.75,-115.87 1298.09,-119.07 1311.87,-121.78"/>
<polygon fill="#9a32cd" stroke="#9a32cd" points="953.19,-68.15 942.92,-70.75 952.56,-75.13 953.19,-68.15"/>
<text text-anchor="middle" x="1123.5" y="-99" font-family="Helvetica,sans-Serif" font-size="10.00"> mCancelList</text>
</g>
<!-- Node12&#45;&gt;Node11 -->
<g id="edge15" class="edge">
<title>Node12&#45;&gt;Node11</title>
<path fill="none" stroke="#9a32cd" stroke-dasharray="5,2" d="M932.69,-52.91C944.26,-48.57 957.5,-44.33 970,-42 1002.02,-36.02 1038.48,-34.86 1067.71,-35.27"/>
<polygon fill="#9a32cd" stroke="#9a32cd" points="931.63,-49.56 923.6,-56.48 934.19,-56.08 931.63,-49.56"/>
<text text-anchor="middle" x="1010" y="-45" font-family="Helvetica,sans-Serif" font-size="10.00"> mpLists</text>
</g>
<!-- Node12&#45;&gt;Node13 -->
<g id="edge22" class="edge">
<title>Node12&#45;&gt;Node13</title>
<path fill="none" stroke="#9a32cd" stroke-dasharray="5,2" d="M952.48,-77.43C981.43,-83.55 1017.92,-91.86 1050,-101 1065.37,-105.38 1082.26,-111.14 1095.87,-116.04"/>
<polygon fill="#9a32cd" stroke="#9a32cd" points="953.36,-74.04 942.85,-75.42 951.93,-80.89 953.36,-74.04"/>
<text text-anchor="middle" x="1010" y="-104" font-family="Helvetica,sans-Serif" font-size="10.00"> mLayerNodeLists</text>
</g>
<!-- Node13&#45;&gt;Node10 -->
<g id="edge17" class="edge">
<title>Node13&#45;&gt;Node10</title>
<path fill="none" stroke="#9a32cd" stroke-dasharray="5,2" d="M1187.9,-118.6C1190.98,-118.37 1194.02,-118.16 1197,-118 1228.06,-116.29 1235.95,-115.98 1267,-118 1281.7,-118.96 1297.89,-120.94 1311.58,-122.89"/>
<polygon fill="#9a32cd" stroke="#9a32cd" points="1187.89,-115.08 1178.22,-119.42 1188.48,-122.06 1187.89,-115.08"/>
<text text-anchor="middle" x="1232" y="-121" font-family="Helvetica,sans-Serif" font-size="10.00"> mpPcNode</text>
</g>
<!-- Node14&#45;&gt;Node13 -->
<g id="edge19" class="edge">
<title>Node14&#45;&gt;Node13</title>
<path fill="none" stroke="#9a32cd" stroke-dasharray="5,2" d="M799.03,-198.86C813.25,-193.05 830.26,-186.63 846,-182 922.71,-159.46 1014.03,-142.89 1070.12,-133.85"/>
<polygon fill="#9a32cd" stroke="#9a32cd" points="798.04,-195.47 790.16,-202.55 800.73,-201.94 798.04,-195.47"/>
<text text-anchor="middle" x="899" y="-185" font-family="Helvetica,sans-Serif" font-size="10.00"> mpNodeMtd</text>
</g>
<!-- Node15&#45;&gt;Node1 -->
<g id="edge24" class="edge">
<title>Node15&#45;&gt;Node1</title>
<path fill="none" stroke="#9a32cd" stroke-dasharray="5,2" d="M1483.63,-273.23C1481.4,-273.5 1479.18,-273.76 1477,-274 1284.34,-294.84 1053.75,-299.03 952.28,-299.84"/>
<polygon fill="#9a32cd" stroke="#9a32cd" points="1483.96,-276.71 1493.4,-271.89 1483.01,-269.78 1483.96,-276.71"/>
<text text-anchor="middle" x="1232" y="-296" font-family="Helvetica,sans-Serif" font-size="10.00"> mLyTg</text>
</g>
<!-- Node16&#45;&gt;Node1 -->
<g id="edge27" class="edge">
<title>Node16&#45;&gt;Node1</title>
<path fill="none" stroke="#9a32cd" stroke-dasharray="5,2" d="M547.49,-325.64C606.11,-326.27 726.74,-325.81 828,-314 836.37,-313.02 845.23,-311.58 853.74,-309.98"/>
<polygon fill="#9a32cd" stroke="#9a32cd" points="547.84,-322.14 537.8,-325.51 547.75,-329.14 547.84,-322.14"/>
<text text-anchor="middle" x="622.5" y="-328" font-family="Helvetica,sans-Serif" font-size="10.00"> mLnTg</text>
</g>
<!-- Node17&#45;&gt;Node1 -->
<g id="edge29" class="edge">
<title>Node17&#45;&gt;Node1</title>
<path fill="none" stroke="#9a32cd" stroke-dasharray="5,2" d="M1497.18,-187.43C1373.02,-210.83 1073.56,-267.28 952.29,-290.14"/>
<polygon fill="#9a32cd" stroke="#9a32cd" points="1497.62,-190.91 1506.8,-185.61 1496.33,-184.03 1497.62,-190.91"/>
<text text-anchor="middle" x="1232" y="-245" font-family="Helvetica,sans-Serif" font-size="10.00"> mDtTg</text>
</g>
<!-- Node18&#45;&gt;Node1 -->
<g id="edge32" class="edge">
<title>Node18&#45;&gt;Node1</title>
<path fill="none" stroke="#9a32cd" stroke-dasharray="5,2" d="M690.53,-387.62C731.79,-386.27 784.85,-380.23 828,-361 854.5,-349.19 878.34,-323.83 890.16,-309.81"/>
<polygon fill="#9a32cd" stroke="#9a32cd" points="690.65,-384.11 680.73,-387.84 690.81,-391.11 690.65,-384.11"/>
<text text-anchor="middle" x="765.5" y="-390" font-family="Helvetica,sans-Serif" font-size="10.00"> mPi</text>
</g>
<!-- Node19 -->
<g id="node19" class="node">
<title>Node19</title>
<g id="a_node19"><a xlink:href="structprocess__priority__queue__info.html" target="_top" xlink:title=" ">
<polygon fill="white" stroke="#666666" points="462,-398.5 325,-398.5 325,-379.5 462,-379.5 462,-398.5"/>
<text text-anchor="middle" x="393.5" y="-386.5" font-family="Helvetica,sans-Serif" font-size="10.00">process_priority_queue_info</text>
</a>
</g>
</g>
<!-- Node19&#45;&gt;Node18 -->
<g id="edge35" class="edge">
<title>Node19&#45;&gt;Node18</title>
<path fill="none" stroke="#9a32cd" stroke-dasharray="5,2" d="M473.68,-387.1C475.81,-387.07 477.92,-387.03 480,-387 508.25,-386.57 539.67,-386.32 565.72,-386.18"/>
<polygon fill="#9a32cd" stroke="#9a32cd" points="473.62,-383.6 463.68,-387.29 473.75,-390.6 473.62,-383.6"/>
<text text-anchor="middle" x="511" y="-401" font-family="Helvetica,sans-Serif" font-size="10.00"> mInfoCurr</text>
<text text-anchor="middle" x="511" y="-390" font-family="Helvetica,sans-Serif" font-size="10.00">mInfoQ</text>
</g>
</g>
</svg>
