<?xml version="1.0" encoding="UTF-8" standalone="no"?>
<!DOCTYPE svg PUBLIC "-//W3C//DTD SVG 1.1//EN"
 "http://www.w3.org/Graphics/SVG/1.1/DTD/svg11.dtd">
<!-- Generated by graphviz version 7.0.5 (20221223.1930)
 -->
<!-- Title: Z2SoundObjMgr Pages: 1 -->
<svg width="280pt" height="258pt"
 viewBox="0.00 0.00 279.50 258.00" xmlns="http://www.w3.org/2000/svg" xmlns:xlink="http://www.w3.org/1999/xlink">
<g id="graph0" class="graph" transform="scale(1 1) rotate(0) translate(4 254)">
<title>Z2SoundObjMgr</title>
<!-- Node1 -->
<g id="node1" class="node">
<title>Node1</title>
<g id="a_node1"><a xlink:title=" ">
<polygon fill="#999999" stroke="#666666" points="169,-129 82,-129 82,-110 169,-110 169,-129"/>
<text text-anchor="middle" x="125.5" y="-117" font-family="Helvetica,sans-Serif" font-size="10.00">Z2SoundObjMgr</text>
</a>
</g>
</g>
<!-- Node5 -->
<g id="node5" class="node">
<title>Node5</title>
<g id="a_node5"><a xlink:href="structZ2AudioMgr.html" target="_top" xlink:title=" ">
<polygon fill="white" stroke="#666666" points="160,-74 91,-74 91,-55 160,-55 160,-74"/>
<text text-anchor="middle" x="125.5" y="-62" font-family="Helvetica,sans-Serif" font-size="10.00">Z2AudioMgr</text>
</a>
</g>
</g>
<!-- Node1&#45;&gt;Node5 -->
<g id="edge4" class="edge">
<title>Node1&#45;&gt;Node5</title>
<path fill="none" stroke="#63b8ff" d="M125.5,-98.35C125.5,-90.1 125.5,-80.97 125.5,-74.44"/>
<polygon fill="#63b8ff" stroke="#63b8ff" points="122,-98.23 125.5,-108.23 129,-98.23 122,-98.23"/>
</g>
<!-- Node2 -->
<g id="node2" class="node">
<title>Node2</title>
<g id="a_node2"><a xlink:href="classJASGlobalInstance.html" target="_top" xlink:title=" ">
<polygon fill="white" stroke="#666666" points="107,-195 0,-195 0,-165 107,-165 107,-195"/>
<text text-anchor="start" x="8" y="-183" font-family="Helvetica,sans-Serif" font-size="10.00">JASGlobalInstance&lt;</text>
<text text-anchor="middle" x="53.5" y="-172" font-family="Helvetica,sans-Serif" font-size="10.00"> Z2SoundObjMgr &gt;</text>
</a>
</g>
</g>
<!-- Node2&#45;&gt;Node1 -->
<g id="edge1" class="edge">
<title>Node2&#45;&gt;Node1</title>
<path fill="none" stroke="#63b8ff" d="M80.11,-157.38C92.15,-147.6 105.69,-136.6 114.82,-129.18"/>
<polygon fill="#63b8ff" stroke="#63b8ff" points="78.03,-154.56 72.47,-163.58 82.44,-160 78.03,-154.56"/>
</g>
<!-- Node3 -->
<g id="node3" class="node">
<title>Node3</title>
<g id="a_node3"><a xlink:href="classJSUList.html" target="_top" xlink:title=" ">
<polygon fill="white" stroke="#666666" points="271.5,-189.5 125.5,-189.5 125.5,-170.5 271.5,-170.5 271.5,-189.5"/>
<text text-anchor="middle" x="198.5" y="-177.5" font-family="Helvetica,sans-Serif" font-size="10.00">JSUList&lt; Z2CreatureEnemy &gt;</text>
</a>
</g>
</g>
<!-- Node3&#45;&gt;Node1 -->
<g id="edge2" class="edge">
<title>Node3&#45;&gt;Node1</title>
<path fill="none" stroke="darkgreen" d="M178.82,-163.23C165.31,-152.4 147.88,-138.43 136.69,-129.47"/>
<polygon fill="darkgreen" stroke="darkgreen" points="176.24,-165.65 186.23,-169.17 180.62,-160.18 176.24,-165.65"/>
</g>
<!-- Node4 -->
<g id="node4" class="node">
<title>Node4</title>
<g id="a_node4"><a xlink:href="structJSUPtrList.html" target="_top" xlink:title=" ">
<polygon fill="white" stroke="#666666" points="231,-250 166,-250 166,-231 231,-231 231,-250"/>
<text text-anchor="middle" x="198.5" y="-238" font-family="Helvetica,sans-Serif" font-size="10.00">JSUPtrList</text>
</a>
</g>
</g>
<!-- Node4&#45;&gt;Node3 -->
<g id="edge3" class="edge">
<title>Node4&#45;&gt;Node3</title>
<path fill="none" stroke="#63b8ff" d="M198.5,-219.66C198.5,-209.45 198.5,-197.54 198.5,-189.67"/>
<polygon fill="#63b8ff" stroke="#63b8ff" points="195,-219.35 198.5,-229.35 202,-219.35 195,-219.35"/>
</g>
<!-- Node6 -->
<g id="node6" class="node">
<title>Node6</title>
<g id="a_node6"><a xlink:href="classmDoAud__zelAudio__c.html" target="_top" xlink:title=" ">
<polygon fill="white" stroke="#666666" points="179,-19 72,-19 72,0 179,0 179,-19"/>
<text text-anchor="middle" x="125.5" y="-7" font-family="Helvetica,sans-Serif" font-size="10.00">mDoAud_zelAudio_c</text>
</a>
</g>
</g>
<!-- Node5&#45;&gt;Node6 -->
<g id="edge5" class="edge">
<title>Node5&#45;&gt;Node6</title>
<path fill="none" stroke="#63b8ff" d="M125.5,-43.35C125.5,-35.1 125.5,-25.97 125.5,-19.44"/>
<polygon fill="#63b8ff" stroke="#63b8ff" points="122,-43.23 125.5,-53.23 129,-43.23 122,-43.23"/>
</g>
</g>
</svg>
