<?xml version="1.0" encoding="UTF-8" standalone="no"?>
<!DOCTYPE svg PUBLIC "-//W3C//DTD SVG 1.1//EN"
 "http://www.w3.org/Graphics/SVG/1.1/DTD/svg11.dtd">
<!-- Generated by graphviz version 7.0.5 (20221223.1930)
 -->
<!-- Title: JStudio::TAdaptor_camera Pages: 1 -->
<svg width="999pt" height="309pt"
 viewBox="0.00 0.00 999.00 308.50" xmlns="http://www.w3.org/2000/svg" xmlns:xlink="http://www.w3.org/1999/xlink">
<g id="graph0" class="graph" transform="scale(1 1) rotate(0) translate(4 304.5)">
<title>JStudio::TAdaptor_camera</title>
<!-- Node1 -->
<g id="node1" class="node">
<title>Node1</title>
<g id="a_node1"><a xlink:title=" ">
<polygon fill="#999999" stroke="#666666" points="761,-35.5 630,-35.5 630,-16.5 761,-16.5 761,-35.5"/>
<text text-anchor="middle" x="695.5" y="-23.5" font-family="Helvetica,sans-Serif" font-size="10.00">JStudio::TAdaptor_camera</text>
</a>
</g>
</g>
<!-- Node2 -->
<g id="node2" class="node">
<title>Node2</title>
<g id="a_node2"><a xlink:href="structJStudio_1_1TAdaptor.html" target="_top" xlink:title=" ">
<polygon fill="white" stroke="#666666" points="526,-74.5 432,-74.5 432,-55.5 526,-55.5 526,-74.5"/>
<text text-anchor="middle" x="479" y="-62.5" font-family="Helvetica,sans-Serif" font-size="10.00">JStudio::TAdaptor</text>
</a>
</g>
</g>
<!-- Node2&#45;&gt;Node1 -->
<g id="edge1" class="edge">
<title>Node2&#45;&gt;Node1</title>
<path fill="none" stroke="#63b8ff" d="M537.58,-54.53C569.25,-48.77 608.33,-41.67 639.57,-35.99"/>
<polygon fill="#63b8ff" stroke="#63b8ff" points="536.98,-51.08 527.77,-56.31 538.23,-57.97 536.98,-51.08"/>
</g>
<!-- Node3 -->
<g id="node3" class="node">
<title>Node3</title>
<g id="a_node3"><a xlink:href="classJStudio_1_1TObject.html" target="_top" xlink:title=" ">
<polygon fill="white" stroke="#666666" points="740,-114.5 651,-114.5 651,-95.5 740,-95.5 740,-114.5"/>
<text text-anchor="middle" x="695.5" y="-102.5" font-family="Helvetica,sans-Serif" font-size="10.00">JStudio::TObject</text>
</a>
</g>
</g>
<!-- Node2&#45;&gt;Node3 -->
<g id="edge15" class="edge">
<title>Node2&#45;&gt;Node3</title>
<path fill="none" stroke="#9a32cd" stroke-dasharray="5,2" d="M537.67,-63.05C559.87,-63.39 585.32,-65.12 608,-70 632.23,-75.21 658.4,-86.69 675.53,-95.09"/>
<polygon fill="#9a32cd" stroke="#9a32cd" points="537.93,-59.55 527.91,-63 537.89,-66.55 537.93,-59.55"/>
<text text-anchor="middle" x="583" y="-73" font-family="Helvetica,sans-Serif" font-size="10.00"> mpAdaptor</text>
</g>
<!-- Node3&#45;&gt;Node2 -->
<g id="edge2" class="edge">
<title>Node3&#45;&gt;Node2</title>
<path fill="none" stroke="#9a32cd" stroke-dasharray="5,2" d="M639.62,-97.01C614.65,-93.16 584.76,-88.24 558,-83 545.86,-80.62 532.74,-77.72 520.78,-74.95"/>
<polygon fill="#9a32cd" stroke="#9a32cd" points="638.81,-100.43 649.23,-98.48 639.87,-93.51 638.81,-100.43"/>
<text text-anchor="middle" x="583" y="-94" font-family="Helvetica,sans-Serif" font-size="10.00"> pObject_</text>
</g>
<!-- Node4 -->
<g id="node4" class="node">
<title>Node4</title>
<g id="a_node4"><a xlink:href="classJStudio_1_1stb_1_1TObject.html" target="_top" xlink:title=" ">
<polygon fill="white" stroke="#666666" points="532.5,-168.5 425.5,-168.5 425.5,-149.5 532.5,-149.5 532.5,-168.5"/>
<text text-anchor="middle" x="479" y="-156.5" font-family="Helvetica,sans-Serif" font-size="10.00">JStudio::stb::TObject</text>
</a>
</g>
</g>
<!-- Node4&#45;&gt;Node3 -->
<g id="edge3" class="edge">
<title>Node4&#45;&gt;Node3</title>
<path fill="none" stroke="#63b8ff" d="M530.45,-146.3C568.54,-136.71 620.06,-123.74 655.14,-114.91"/>
<polygon fill="#63b8ff" stroke="#63b8ff" points="529.9,-142.83 521.06,-148.66 531.61,-149.62 529.9,-142.83"/>
</g>
<!-- Node12 -->
<g id="node12" class="node">
<title>Node12</title>
<g id="a_node12"><a xlink:href="classJStudio_1_1stb_1_1TObject__control.html" target="_top" xlink:title=" ">
<polygon fill="white" stroke="#666666" points="749,-215 642,-215 642,-185 749,-185 749,-215"/>
<text text-anchor="start" x="650" y="-203" font-family="Helvetica,sans-Serif" font-size="10.00">JStudio::stb::TObject</text>
<text text-anchor="middle" x="695.5" y="-192" font-family="Helvetica,sans-Serif" font-size="10.00">_control</text>
</a>
</g>
</g>
<!-- Node4&#45;&gt;Node12 -->
<g id="edge14" class="edge">
<title>Node4&#45;&gt;Node12</title>
<path fill="none" stroke="#63b8ff" d="M543.43,-171.12C574.71,-177.1 611.99,-184.23 641.69,-189.91"/>
<polygon fill="#63b8ff" stroke="#63b8ff" points="544.16,-167.7 533.68,-169.26 542.85,-174.58 544.16,-167.7"/>
</g>
<!-- Node5 -->
<g id="node5" class="node">
<title>Node5</title>
<g id="a_node5"><a xlink:href="structJStudio_1_1object_1_1TObject__ID.html" target="_top" xlink:title=" ">
<polygon fill="white" stroke="#666666" points="335,-168.5 201,-168.5 201,-149.5 335,-149.5 335,-168.5"/>
<text text-anchor="middle" x="268" y="-156.5" font-family="Helvetica,sans-Serif" font-size="10.00">JStudio::object::TObject_ID</text>
</a>
</g>
</g>
<!-- Node5&#45;&gt;Node4 -->
<g id="edge4" class="edge">
<title>Node5&#45;&gt;Node4</title>
<path fill="none" stroke="#63b8ff" d="M346.85,-159C373.02,-159 401.57,-159 425.33,-159"/>
<polygon fill="#63b8ff" stroke="#63b8ff" points="346.93,-155.5 336.93,-159 346.93,-162.5 346.93,-155.5"/>
</g>
<!-- Node6 -->
<g id="node6" class="node">
<title>Node6</title>
<g id="a_node6"><a xlink:href="structJStudio_1_1object_1_1TIDData.html" target="_top" xlink:title=" ">
<polygon fill="white" stroke="#666666" points="121.5,-168.5 0.5,-168.5 0.5,-149.5 121.5,-149.5 121.5,-168.5"/>
<text text-anchor="middle" x="61" y="-156.5" font-family="Helvetica,sans-Serif" font-size="10.00">JStudio::object::TIDData</text>
</a>
</g>
</g>
<!-- Node6&#45;&gt;Node5 -->
<g id="edge5" class="edge">
<title>Node6&#45;&gt;Node5</title>
<path fill="none" stroke="#63b8ff" d="M133.09,-159C155,-159 179.03,-159 200.61,-159"/>
<polygon fill="#63b8ff" stroke="#63b8ff" points="133.36,-155.5 123.36,-159 133.36,-162.5 133.36,-155.5"/>
</g>
<!-- Node7 -->
<g id="node7" class="node">
<title>Node7</title>
<g id="a_node7"><a xlink:href="structJGadget_1_1TLinkListNode.html" target="_top" xlink:title=" ">
<polygon fill="white" stroke="#666666" points="329,-210.5 207,-210.5 207,-191.5 329,-191.5 329,-210.5"/>
<text text-anchor="middle" x="268" y="-198.5" font-family="Helvetica,sans-Serif" font-size="10.00">JGadget::TLinkListNode</text>
</a>
</g>
</g>
<!-- Node7&#45;&gt;Node4 -->
<g id="edge6" class="edge">
<title>Node7&#45;&gt;Node4</title>
<path fill="none" stroke="#9a32cd" stroke-dasharray="5,2" d="M329.77,-188.79C361.13,-182.49 398.9,-174.9 428.46,-168.95"/>
<polygon fill="#9a32cd" stroke="#9a32cd" points="329.13,-185.35 320.01,-190.75 330.51,-192.21 329.13,-185.35"/>
<text text-anchor="middle" x="376.5" y="-186" font-family="Helvetica,sans-Serif" font-size="10.00"> ocObject_</text>
</g>
<!-- Node7&#45;&gt;Node7 -->
<g id="edge7" class="edge">
<title>Node7&#45;&gt;Node7</title>
<path fill="none" stroke="#9a32cd" stroke-dasharray="5,2" d="M249.1,-221.93C251.46,-225.79 257.76,-228.5 268,-228.5 286.72,-228.5 292.28,-219.44 284.67,-210.87"/>
<polygon fill="#9a32cd" stroke="#9a32cd" points="252.48,-222.85 251.03,-212.35 245.62,-221.46 252.48,-222.85"/>
<text text-anchor="middle" x="268" y="-242.5" font-family="Helvetica,sans-Serif" font-size="10.00"> mNext</text>
<text text-anchor="middle" x="268" y="-231.5" font-family="Helvetica,sans-Serif" font-size="10.00">mPrev</text>
</g>
<!-- Node11 -->
<g id="node11" class="node">
<title>Node11</title>
<g id="a_node11"><a xlink:href="structJGadget_1_1TNodeLinkList.html" target="_top" xlink:title=" ">
<polygon fill="white" stroke="#666666" points="540,-251.5 418,-251.5 418,-232.5 540,-232.5 540,-251.5"/>
<text text-anchor="middle" x="479" y="-239.5" font-family="Helvetica,sans-Serif" font-size="10.00">JGadget::TNodeLinkList</text>
</a>
</g>
</g>
<!-- Node7&#45;&gt;Node11 -->
<g id="edge12" class="edge">
<title>Node7&#45;&gt;Node11</title>
<path fill="none" stroke="#9a32cd" stroke-dasharray="5,2" d="M330.88,-213.14C361.6,-219.17 398.24,-226.35 427.27,-232.05"/>
<polygon fill="#9a32cd" stroke="#9a32cd" points="331.83,-209.76 321.35,-211.27 330.48,-216.63 331.83,-209.76"/>
<text text-anchor="middle" x="376.5" y="-229" font-family="Helvetica,sans-Serif" font-size="10.00"> ocObject_</text>
</g>
<!-- Node8 -->
<g id="node8" class="node">
<title>Node8</title>
<g id="a_node8"><a xlink:href="classJStudio_1_1stb_1_1TControl.html" target="_top" xlink:title=" ">
<polygon fill="white" stroke="#666666" points="991,-236.5 882,-236.5 882,-217.5 991,-217.5 991,-236.5"/>
<text text-anchor="middle" x="936.5" y="-224.5" font-family="Helvetica,sans-Serif" font-size="10.00">JStudio::stb::TControl</text>
</a>
</g>
</g>
<!-- Node8&#45;&gt;Node4 -->
<g id="edge8" class="edge">
<title>Node8&#45;&gt;Node4</title>
<path fill="none" stroke="#9a32cd" stroke-dasharray="5,2" d="M905.08,-212.48C871.62,-197.33 815.84,-174.51 765,-165 685.1,-150.05 590.41,-151.82 532.79,-155"/>
<polygon fill="#9a32cd" stroke="#9a32cd" points="903.2,-215.46 913.75,-216.46 906.12,-209.1 903.2,-215.46"/>
<text text-anchor="middle" x="695.5" y="-168" font-family="Helvetica,sans-Serif" font-size="10.00"> pControl</text>
</g>
<!-- Node9 -->
<g id="node9" class="node">
<title>Node9</title>
<g id="a_node9"><a xlink:href="classJStudio_1_1stb_1_1TFactory.html" target="_top" xlink:title=" ">
<polygon fill="white" stroke="#666666" points="750.5,-300.5 640.5,-300.5 640.5,-281.5 750.5,-281.5 750.5,-300.5"/>
<text text-anchor="middle" x="695.5" y="-288.5" font-family="Helvetica,sans-Serif" font-size="10.00">JStudio::stb::TFactory</text>
</a>
</g>
</g>
<!-- Node9&#45;&gt;Node8 -->
<g id="edge9" class="edge">
<title>Node9&#45;&gt;Node8</title>
<path fill="none" stroke="#9a32cd" stroke-dasharray="5,2" d="M762.1,-278.78C793.25,-272.41 830.82,-263.87 864,-254 880.15,-249.19 897.87,-242.51 911.63,-237"/>
<polygon fill="#9a32cd" stroke="#9a32cd" points="761.53,-275.33 752.42,-280.73 762.92,-282.19 761.53,-275.33"/>
<text text-anchor="middle" x="823.5" y="-276" font-family="Helvetica,sans-Serif" font-size="10.00"> pFactory</text>
</g>
<!-- Node10 -->
<g id="node10" class="node">
<title>Node10</title>
<g id="a_node10"><a xlink:href="structJGadget_1_1TLinkList.html" target="_top" xlink:title=" ">
<polygon fill="white" stroke="#666666" points="765,-263 626,-263 626,-233 765,-233 765,-263"/>
<text text-anchor="start" x="634" y="-251" font-family="Helvetica,sans-Serif" font-size="10.00">JGadget::TLinkList</text>
<text text-anchor="middle" x="695.5" y="-240" font-family="Helvetica,sans-Serif" font-size="10.00">&lt; JStudio::stb::TObject, 12 &gt;</text>
</a>
</g>
</g>
<!-- Node10&#45;&gt;Node8 -->
<g id="edge10" class="edge">
<title>Node10&#45;&gt;Node8</title>
<path fill="none" stroke="#9a32cd" stroke-dasharray="5,2" d="M776.35,-240.98C810.93,-237.95 850.52,-234.47 881.56,-231.74"/>
<polygon fill="#9a32cd" stroke="#9a32cd" points="776.47,-237.46 766.82,-241.82 777.08,-244.43 776.47,-237.46"/>
<text text-anchor="middle" x="823.5" y="-242" font-family="Helvetica,sans-Serif" font-size="10.00"> mObjectContainer</text>
</g>
<!-- Node11&#45;&gt;Node10 -->
<g id="edge11" class="edge">
<title>Node11&#45;&gt;Node10</title>
<path fill="none" stroke="#63b8ff" d="M551.77,-244.01C575.56,-244.67 601.98,-245.41 625.56,-246.07"/>
<polygon fill="#63b8ff" stroke="#63b8ff" points="551.93,-240.51 541.83,-243.73 551.73,-247.51 551.93,-240.51"/>
</g>
<!-- Node12&#45;&gt;Node8 -->
<g id="edge13" class="edge">
<title>Node12&#45;&gt;Node8</title>
<path fill="none" stroke="#9a32cd" stroke-dasharray="5,2" d="M760.51,-206.6C791.74,-209.89 829.85,-214.02 864,-218 869.72,-218.67 875.69,-219.38 881.64,-220.11"/>
<polygon fill="#9a32cd" stroke="#9a32cd" points="761.15,-203.15 750.84,-205.59 760.42,-210.11 761.15,-203.15"/>
<text text-anchor="middle" x="823.5" y="-221" font-family="Helvetica,sans-Serif" font-size="10.00"> mObject_control</text>
</g>
<!-- Node13 -->
<g id="node13" class="node">
<title>Node13</title>
<g id="a_node13"><a xlink:href="structJStudio_1_1TVariableValue.html" target="_top" xlink:title=" ">
<polygon fill="white" stroke="#666666" points="328,-45.5 208,-45.5 208,-26.5 328,-26.5 328,-45.5"/>
<text text-anchor="middle" x="268" y="-33.5" font-family="Helvetica,sans-Serif" font-size="10.00">JStudio::TVariableValue</text>
</a>
</g>
</g>
<!-- Node13&#45;&gt;Node1 -->
<g id="edge19" class="edge">
<title>Node13&#45;&gt;Node1</title>
<path fill="none" stroke="#9a32cd" stroke-dasharray="5,2" d="M339.2,-34.35C419.87,-32.45 551.19,-29.37 629.57,-27.53"/>
<polygon fill="#9a32cd" stroke="#9a32cd" points="339.59,-30.84 329.68,-34.57 339.76,-37.84 339.59,-30.84"/>
<text text-anchor="middle" x="479" y="-36" font-family="Helvetica,sans-Serif" font-size="10.00"> mValue</text>
</g>
<!-- Node13&#45;&gt;Node2 -->
<g id="edge16" class="edge">
<title>Node13&#45;&gt;Node2</title>
<path fill="none" stroke="#9a32cd" stroke-dasharray="5,2" d="M339.34,-45.76C369.83,-49.99 404.68,-54.83 431.81,-58.59"/>
<polygon fill="#9a32cd" stroke="#9a32cd" points="340.22,-42.35 329.83,-44.44 339.26,-49.28 340.22,-42.35"/>
<text text-anchor="middle" x="376.5" y="-56" font-family="Helvetica,sans-Serif" font-size="10.00"> pValue_</text>
</g>
<!-- Node14 -->
<g id="node14" class="node">
<title>Node14</title>
<g id="a_node14"><a xlink:href="classJStudio_1_1TFunctionValue.html" target="_top" xlink:title=" ">
<polygon fill="white" stroke="#666666" points="122,-67.5 0,-67.5 0,-48.5 122,-48.5 122,-67.5"/>
<text text-anchor="middle" x="61" y="-55.5" font-family="Helvetica,sans-Serif" font-size="10.00">JStudio::TFunctionValue</text>
</a>
</g>
</g>
<!-- Node14&#45;&gt;Node13 -->
<g id="edge17" class="edge">
<title>Node14&#45;&gt;Node13</title>
<path fill="none" stroke="#9a32cd" stroke-dasharray="5,2" d="M133.68,-50.31C157.88,-47.71 184.61,-44.84 207.74,-42.36"/>
<polygon fill="#9a32cd" stroke="#9a32cd" points="133.47,-46.81 123.9,-51.36 134.22,-53.77 133.47,-46.81"/>
<text text-anchor="middle" x="161.5" y="-52" font-family="Helvetica,sans-Serif" font-size="10.00"> field_0xc</text>
</g>
<!-- Node15 -->
<g id="node15" class="node">
<title>Node15</title>
<g id="a_node15"><a xlink:href="structJStudio_1_1TVariableValue_1_1TOutput.html" target="_top" xlink:title=" ">
<polygon fill="white" stroke="#666666" points="121,-30 1,-30 1,0 121,0 121,-30"/>
<text text-anchor="start" x="9" y="-18" font-family="Helvetica,sans-Serif" font-size="10.00">JStudio::TVariableValue</text>
<text text-anchor="middle" x="61" y="-7" font-family="Helvetica,sans-Serif" font-size="10.00">::TOutput</text>
</a>
</g>
</g>
<!-- Node15&#45;&gt;Node13 -->
<g id="edge18" class="edge">
<title>Node15&#45;&gt;Node13</title>
<path fill="none" stroke="#9a32cd" stroke-dasharray="5,2" d="M132.69,-20.27C149.22,-21.66 166.74,-23.26 183,-25 191.04,-25.86 199.51,-26.86 207.84,-27.89"/>
<polygon fill="#9a32cd" stroke="#9a32cd" points="133.21,-16.8 122.95,-19.47 132.63,-23.78 133.21,-16.8"/>
<text text-anchor="middle" x="161.5" y="-28" font-family="Helvetica,sans-Serif" font-size="10.00"> pOutput_</text>
</g>
</g>
</svg>
