<?xml version="1.0" encoding="UTF-8" standalone="no"?>
<!DOCTYPE svg PUBLIC "-//W3C//DTD SVG 1.1//EN"
 "http://www.w3.org/Graphics/SVG/1.1/DTD/svg11.dtd">
<!-- Generated by graphviz version 7.0.5 (20221223.1930)
 -->
<!-- Title: libs/dolphin/mtx/vec.c Pages: 1 -->
<!--zoomable 214 -->
<svg id="main" version="1.1" xmlns="http://www.w3.org/2000/svg" xmlns:xlink="http://www.w3.org/1999/xlink" xml:space="preserve" onload="init(evt)">
<style type="text/css"><![CDATA[
.edge:hover path { stroke: red; }
.edge:hover polygon { stroke: red; fill: red; }
]]></style>
<script type="text/javascript"><![CDATA[
var edges = document.getElementsByTagName('g');
if (edges && edges.length) {
  for (var i=0;i<edges.length;i++) {
    if (edges[i].id.substr(0,4)=='edge') {
      edges[i].setAttribute('class','edge');
    }
  }
}
]]></script>
        <defs>
                <circle id="rim" cx="0" cy="0" r="7"/>
                <circle id="rim2" cx="0" cy="0" r="3.5"/>
                <g id="zoomPlus">
                        <use xlink:href="#rim" fill="#404040">
                                <set attributeName="fill" to="#808080" begin="zoomplus.mouseover" end="zoomplus.mouseout"/>
                        </use>
                        <path d="M-4,0h8M0,-4v8" fill="none" stroke="white" stroke-width="1.5" pointer-events="none"/>
                </g>
                <g id="zoomMin">
                        <use xlink:href="#rim" fill="#404040">
                                <set attributeName="fill" to="#808080" begin="zoomminus.mouseover" end="zoomminus.mouseout"/>
                        </use>
                        <path d="M-4,0h8" fill="none" stroke="white" stroke-width="1.5" pointer-events="none"/>
                </g>
                <g id="dirArrow">
                        <path fill="none" stroke="white" stroke-width="1.5" d="M0,-3.0v7 M-2.5,-0.5L0,-3.0L2.5,-0.5"/>
                </g>
               <g id="resetDef">
                       <use xlink:href="#rim2" fill="#404040">
                               <set attributeName="fill" to="#808080" begin="reset.mouseover" end="reset.mouseout"/>
                       </use>
               </g>
        </defs>

<script type="text/javascript">
var viewWidth = 1742;
var viewHeight = 214;
var sectionId = 'dynsection-0';
</script>
<script xlink:href="svgpan.js"/>
<svg id="graph" class="graph">
<g id="viewport">
<title>libs/dolphin/mtx/vec.c</title>
<!-- Node1 -->
<g id="node1" class="node">
<title>Node1</title>
<g id="a_node1"><a xlink:title=" ">
<polygon fill="#999999" stroke="#666666" points="885,-206 775,-206 775,-187 885,-187 885,-206"/>
<text text-anchor="middle" x="830" y="-194" font-family="Helvetica,sans-Serif" font-size="10.00">libs/dolphin/mtx/vec.c</text>
</a>
</g>
</g>
<!-- Node2 -->
<g id="node2" class="node">
<title>Node2</title>
<g id="a_node2"><a xlink:href="vec_8h.html" target="_top" xlink:title=" ">
<polygon fill="white" stroke="#666666" points="114,-145.5 22,-145.5 22,-126.5 114,-126.5 114,-145.5"/>
<text text-anchor="middle" x="68" y="-133.5" font-family="Helvetica,sans-Serif" font-size="10.00">dolphin/mtx/vec.h</text>
</a>
</g>
</g>
<!-- Node1&#45;&gt;Node2 -->
<g id="edge1" class="edge">
<title>Node1&#45;&gt;Node2</title>
<path fill="none" stroke="#63b8ff" d="M774.71,-195.42C655.22,-194.52 364.29,-188.29 124,-151 119.61,-150.32 115.07,-149.45 110.55,-148.49"/>
<polygon fill="#63b8ff" stroke="#63b8ff" points="111.49,-145.12 100.96,-146.28 109.92,-151.94 111.49,-145.12"/>
</g>
<!-- Node5 -->
<g id="node5" class="node">
<title>Node5</title>
<g id="a_node5"><a xlink:href="dol2asm_8h.html" target="_top" xlink:title=" ">
<polygon fill="white" stroke="#666666" points="193.5,-145.5 132.5,-145.5 132.5,-126.5 193.5,-126.5 193.5,-145.5"/>
<text text-anchor="middle" x="163" y="-133.5" font-family="Helvetica,sans-Serif" font-size="10.00">dol2asm.h</text>
</a>
</g>
</g>
<!-- Node1&#45;&gt;Node5 -->
<g id="edge4" class="edge">
<title>Node1&#45;&gt;Node5</title>
<path fill="none" stroke="#63b8ff" d="M774.94,-193.47C642.99,-188.3 311.61,-173.44 203,-151 200.69,-150.52 198.34,-149.95 195.98,-149.3"/>
<polygon fill="#63b8ff" stroke="#63b8ff" points="197.16,-146.01 186.57,-146.37 195.08,-152.69 197.16,-146.01"/>
</g>
<!-- Node6 -->
<g id="node6" class="node">
<title>Node6</title>
<g id="a_node6"><a xlink:title=" ">
<polygon fill="#e0e0e0" stroke="#999999" points="318.5,-151 211.5,-151 211.5,-121 318.5,-121 318.5,-151"/>
<text text-anchor="start" x="219.5" y="-139" font-family="Helvetica,sans-Serif" font-size="10.00">asm/dolphin/mtx/vec</text>
<text text-anchor="middle" x="265" y="-128" font-family="Helvetica,sans-Serif" font-size="10.00">/PSVECAdd.s</text>
</a>
</g>
</g>
<!-- Node1&#45;&gt;Node6 -->
<g id="edge5" class="edge">
<title>Node1&#45;&gt;Node6</title>
<path fill="none" stroke="#63b8ff" d="M774.75,-192.96C684.03,-188.27 497.68,-176.49 330.13,-151.18"/>
<polygon fill="#63b8ff" stroke="#63b8ff" points="330.78,-147.74 320.36,-149.68 329.72,-154.66 330.78,-147.74"/>
</g>
<!-- Node7 -->
<g id="node7" class="node">
<title>Node7</title>
<g id="a_node7"><a xlink:title=" ">
<polygon fill="#e0e0e0" stroke="#999999" points="443.5,-151 336.5,-151 336.5,-121 443.5,-121 443.5,-151"/>
<text text-anchor="start" x="344.5" y="-139" font-family="Helvetica,sans-Serif" font-size="10.00">asm/dolphin/mtx/vec</text>
<text text-anchor="middle" x="390" y="-128" font-family="Helvetica,sans-Serif" font-size="10.00">/PSVECSubtract.s</text>
</a>
</g>
</g>
<!-- Node1&#45;&gt;Node7 -->
<g id="edge6" class="edge">
<title>Node1&#45;&gt;Node7</title>
<path fill="none" stroke="#63b8ff" d="M774.81,-190.75C703.36,-184.21 574.79,-171.12 455.07,-151.23"/>
<polygon fill="#63b8ff" stroke="#63b8ff" points="455.82,-147.81 445.38,-149.6 454.66,-154.71 455.82,-147.81"/>
</g>
<!-- Node8 -->
<g id="node8" class="node">
<title>Node8</title>
<g id="a_node8"><a xlink:title=" ">
<polygon fill="#e0e0e0" stroke="#999999" points="568.5,-151 461.5,-151 461.5,-121 568.5,-121 568.5,-151"/>
<text text-anchor="start" x="469.5" y="-139" font-family="Helvetica,sans-Serif" font-size="10.00">asm/dolphin/mtx/vec</text>
<text text-anchor="middle" x="515" y="-128" font-family="Helvetica,sans-Serif" font-size="10.00">/PSVECScale.s</text>
</a>
</g>
</g>
<!-- Node1&#45;&gt;Node8 -->
<g id="edge7" class="edge">
<title>Node1&#45;&gt;Node8</title>
<path fill="none" stroke="#63b8ff" d="M775.31,-186.55C726.67,-178.44 653.34,-165.81 580.19,-151.38"/>
<polygon fill="#63b8ff" stroke="#63b8ff" points="580.9,-147.96 570.41,-149.44 579.53,-154.82 580.9,-147.96"/>
</g>
<!-- Node9 -->
<g id="node9" class="node">
<title>Node9</title>
<g id="a_node9"><a xlink:title=" ">
<polygon fill="#e0e0e0" stroke="#999999" points="693.5,-151 586.5,-151 586.5,-121 693.5,-121 693.5,-151"/>
<text text-anchor="start" x="594.5" y="-139" font-family="Helvetica,sans-Serif" font-size="10.00">asm/dolphin/mtx/vec</text>
<text text-anchor="middle" x="640" y="-128" font-family="Helvetica,sans-Serif" font-size="10.00">/PSVECNormalize.s</text>
</a>
</g>
</g>
<!-- Node1&#45;&gt;Node9 -->
<g id="edge8" class="edge">
<title>Node1&#45;&gt;Node9</title>
<path fill="none" stroke="#63b8ff" d="M801.14,-186.62C773.79,-178.19 731.91,-165.3 697.71,-154.77"/>
<polygon fill="#63b8ff" stroke="#63b8ff" points="698.93,-151.48 688.34,-151.88 696.87,-158.17 698.93,-151.48"/>
</g>
<!-- Node10 -->
<g id="node10" class="node">
<title>Node10</title>
<g id="a_node10"><a xlink:title=" ">
<polygon fill="#e0e0e0" stroke="#999999" points="822,-151 712,-151 712,-121 822,-121 822,-151"/>
<text text-anchor="start" x="720" y="-139" font-family="Helvetica,sans-Serif" font-size="10.00">asm/dolphin/mtx/vec</text>
<text text-anchor="middle" x="767" y="-128" font-family="Helvetica,sans-Serif" font-size="10.00">/PSVECSquareMag.s</text>
</a>
</g>
</g>
<!-- Node1&#45;&gt;Node10 -->
<g id="edge9" class="edge">
<title>Node1&#45;&gt;Node10</title>
<path fill="none" stroke="#63b8ff" d="M820.43,-186.62C812.58,-179.32 801.12,-168.68 790.82,-159.12"/>
<polygon fill="#63b8ff" stroke="#63b8ff" points="793.37,-156.71 783.66,-152.47 788.61,-161.84 793.37,-156.71"/>
</g>
<!-- Node11 -->
<g id="node11" class="node">
<title>Node11</title>
<g id="a_node11"><a xlink:title=" ">
<polygon fill="#e0e0e0" stroke="#999999" points="947.5,-151 840.5,-151 840.5,-121 947.5,-121 947.5,-151"/>
<text text-anchor="start" x="848.5" y="-139" font-family="Helvetica,sans-Serif" font-size="10.00">asm/dolphin/mtx/vec</text>
<text text-anchor="middle" x="894" y="-128" font-family="Helvetica,sans-Serif" font-size="10.00">/PSVECMag.s</text>
</a>
</g>
</g>
<!-- Node1&#45;&gt;Node11 -->
<g id="edge10" class="edge">
<title>Node1&#45;&gt;Node11</title>
<path fill="none" stroke="#63b8ff" d="M839.72,-186.62C847.7,-179.32 859.34,-168.68 869.8,-159.12"/>
<polygon fill="#63b8ff" stroke="#63b8ff" points="872.07,-161.79 877.09,-152.46 867.34,-156.62 872.07,-161.79"/>
</g>
<!-- Node12 -->
<g id="node12" class="node">
<title>Node12</title>
<g id="a_node12"><a xlink:title=" ">
<polygon fill="#e0e0e0" stroke="#999999" points="1074.5,-151 965.5,-151 965.5,-121 1074.5,-121 1074.5,-151"/>
<text text-anchor="start" x="973.5" y="-139" font-family="Helvetica,sans-Serif" font-size="10.00">asm/dolphin/mtx/vec</text>
<text text-anchor="middle" x="1020" y="-128" font-family="Helvetica,sans-Serif" font-size="10.00">/PSVECDotProduct.s</text>
</a>
</g>
</g>
<!-- Node1&#45;&gt;Node12 -->
<g id="edge11" class="edge">
<title>Node1&#45;&gt;Node12</title>
<path fill="none" stroke="#63b8ff" d="M858.86,-186.62C886.21,-178.19 928.09,-165.3 962.29,-154.77"/>
<polygon fill="#63b8ff" stroke="#63b8ff" points="963.13,-158.17 971.66,-151.88 961.07,-151.48 963.13,-158.17"/>
</g>
<!-- Node13 -->
<g id="node13" class="node">
<title>Node13</title>
<g id="a_node13"><a xlink:title=" ">
<polygon fill="#e0e0e0" stroke="#999999" points="1211.5,-151 1092.5,-151 1092.5,-121 1211.5,-121 1211.5,-151"/>
<text text-anchor="start" x="1100.5" y="-139" font-family="Helvetica,sans-Serif" font-size="10.00">asm/dolphin/mtx/vec</text>
<text text-anchor="middle" x="1152" y="-128" font-family="Helvetica,sans-Serif" font-size="10.00">/PSVECCrossProduct.s</text>
</a>
</g>
</g>
<!-- Node1&#45;&gt;Node13 -->
<g id="edge12" class="edge">
<title>Node1&#45;&gt;Node13</title>
<path fill="none" stroke="#63b8ff" d="M884.09,-186.5C933.16,-178.23 1007.77,-165.39 1081.45,-151.45"/>
<polygon fill="#63b8ff" stroke="#63b8ff" points="1081.66,-154.98 1090.83,-149.67 1080.35,-148.1 1081.66,-154.98"/>
</g>
<!-- Node14 -->
<g id="node14" class="node">
<title>Node14</title>
<g id="a_node14"><a xlink:title=" ">
<polygon fill="#e0e0e0" stroke="#999999" points="1336.5,-151 1229.5,-151 1229.5,-121 1336.5,-121 1336.5,-151"/>
<text text-anchor="start" x="1237.5" y="-139" font-family="Helvetica,sans-Serif" font-size="10.00">asm/dolphin/mtx/vec</text>
<text text-anchor="middle" x="1283" y="-128" font-family="Helvetica,sans-Serif" font-size="10.00">/C_VECHalfAngle.s</text>
</a>
</g>
</g>
<!-- Node1&#45;&gt;Node14 -->
<g id="edge13" class="edge">
<title>Node1&#45;&gt;Node14</title>
<path fill="none" stroke="#63b8ff" d="M885.31,-191.11C959.07,-184.84 1093.91,-171.91 1218.09,-151.38"/>
<polygon fill="#63b8ff" stroke="#63b8ff" points="1218.53,-154.86 1227.81,-149.75 1217.37,-147.95 1218.53,-154.86"/>
</g>
<!-- Node15 -->
<g id="node15" class="node">
<title>Node15</title>
<g id="a_node15"><a xlink:title=" ">
<polygon fill="#e0e0e0" stroke="#999999" points="1461.5,-151 1354.5,-151 1354.5,-121 1461.5,-121 1461.5,-151"/>
<text text-anchor="start" x="1362.5" y="-139" font-family="Helvetica,sans-Serif" font-size="10.00">asm/dolphin/mtx/vec</text>
<text text-anchor="middle" x="1408" y="-128" font-family="Helvetica,sans-Serif" font-size="10.00">/C_VECReflect.s</text>
</a>
</g>
</g>
<!-- Node1&#45;&gt;Node15 -->
<g id="edge14" class="edge">
<title>Node1&#45;&gt;Node15</title>
<path fill="none" stroke="#63b8ff" d="M885.28,-193.2C978.01,-188.81 1170.89,-177.38 1343.01,-151.33"/>
<polygon fill="#63b8ff" stroke="#63b8ff" points="1343.47,-154.8 1352.82,-149.82 1342.41,-147.88 1343.47,-154.8"/>
</g>
<!-- Node16 -->
<g id="node16" class="node">
<title>Node16</title>
<g id="a_node16"><a xlink:title=" ">
<polygon fill="#e0e0e0" stroke="#999999" points="1608.5,-151 1479.5,-151 1479.5,-121 1608.5,-121 1608.5,-151"/>
<text text-anchor="start" x="1487.5" y="-139" font-family="Helvetica,sans-Serif" font-size="10.00">asm/dolphin/mtx/vec</text>
<text text-anchor="middle" x="1544" y="-128" font-family="Helvetica,sans-Serif" font-size="10.00">/PSVECSquareDistance.s</text>
</a>
</g>
</g>
<!-- Node1&#45;&gt;Node16 -->
<g id="edge15" class="edge">
<title>Node1&#45;&gt;Node16</title>
<path fill="none" stroke="#63b8ff" d="M885.1,-193.91C994.44,-190.26 1246.73,-179.44 1468.01,-151.29"/>
<polygon fill="#63b8ff" stroke="#63b8ff" points="1468.21,-154.79 1477.69,-150.04 1467.32,-147.85 1468.21,-154.79"/>
</g>
<!-- Node17 -->
<g id="node17" class="node">
<title>Node17</title>
<g id="a_node17"><a xlink:title=" ">
<polygon fill="#e0e0e0" stroke="#999999" points="1733.5,-151 1626.5,-151 1626.5,-121 1733.5,-121 1733.5,-151"/>
<text text-anchor="start" x="1634.5" y="-139" font-family="Helvetica,sans-Serif" font-size="10.00">asm/dolphin/mtx/vec</text>
<text text-anchor="middle" x="1680" y="-128" font-family="Helvetica,sans-Serif" font-size="10.00">/PSVECDistance.s</text>
</a>
</g>
</g>
<!-- Node1&#45;&gt;Node17 -->
<g id="edge16" class="edge">
<title>Node1&#45;&gt;Node17</title>
<path fill="none" stroke="#63b8ff" d="M885.24,-195.52C1012.5,-194.88 1336.22,-189.42 1615.18,-151.24"/>
<polygon fill="#63b8ff" stroke="#63b8ff" points="1615.41,-154.74 1624.83,-149.9 1614.45,-147.81 1615.41,-154.74"/>
</g>
<!-- Node3 -->
<g id="node3" class="node">
<title>Node3</title>
<g id="a_node3"><a xlink:href="types_8h.html" target="_top" xlink:title=" ">
<polygon fill="white" stroke="#666666" points="108.5,-85 27.5,-85 27.5,-66 108.5,-66 108.5,-85"/>
<text text-anchor="middle" x="68" y="-73" font-family="Helvetica,sans-Serif" font-size="10.00">dolphin/types.h</text>
</a>
</g>
</g>
<!-- Node2&#45;&gt;Node3 -->
<g id="edge2" class="edge">
<title>Node2&#45;&gt;Node3</title>
<path fill="none" stroke="#63b8ff" d="M68,-126.37C68,-118.5 68,-106.6 68,-96.39"/>
<polygon fill="#63b8ff" stroke="#63b8ff" points="71.5,-96.68 68,-86.68 64.5,-96.68 71.5,-96.68"/>
</g>
<!-- Node4 -->
<g id="node4" class="node">
<title>Node4</title>
<g id="a_node4"><a xlink:href="stddef_8h.html" target="_top" xlink:title=" ">
<polygon fill="white" stroke="#666666" points="136,-30 0,-30 0,0 136,0 136,-30"/>
<text text-anchor="start" x="8" y="-18" font-family="Helvetica,sans-Serif" font-size="10.00">MSL_C/MSL_Common/Src</text>
<text text-anchor="middle" x="68" y="-7" font-family="Helvetica,sans-Serif" font-size="10.00">/stddef.h</text>
</a>
</g>
</g>
<!-- Node3&#45;&gt;Node4 -->
<g id="edge3" class="edge">
<title>Node3&#45;&gt;Node4</title>
<path fill="none" stroke="#63b8ff" d="M68,-65.87C68,-59.4 68,-50.2 68,-41.45"/>
<polygon fill="#63b8ff" stroke="#63b8ff" points="71.5,-41.63 68,-31.63 64.5,-41.63 71.5,-41.63"/>
</g>
</g>
</svg>
        <g id="navigator" transform="translate(0 0)" fill="#404254">
                <rect fill="#f2f5e9" fill-opacity="0.5" stroke="#606060" stroke-width=".5" x="0" y="0" width="60" height="60"/>
                <use id="zoomplus" xlink:href="#zoomPlus" x="17" y="9" onmousedown="handleZoom(evt,'in')"/>
                <use id="zoomminus" xlink:href="#zoomMin" x="42" y="9" onmousedown="handleZoom(evt,'out')"/>
                <use id="reset" xlink:href="#resetDef" x="30" y="36" onmousedown="handleReset()"/>
                <g id="arrowUp" xlink:href="#dirArrow" transform="translate(30 24)" onmousedown="handlePan(0,-1)">
                  <use xlink:href="#rim" fill="#404040">
                        <set attributeName="fill" to="#808080" begin="arrowUp.mouseover" end="arrowUp.mouseout"/>
                  </use>
                  <path fill="none" stroke="white" stroke-width="1.5" d="M0,-3.0v7 M-2.5,-0.5L0,-3.0L2.5,-0.5"/>
                </g>
                <g id="arrowRight" xlink:href="#dirArrow" transform="rotate(90) translate(36 -43)" onmousedown="handlePan(1,0)">
                  <use xlink:href="#rim" fill="#404040">
                        <set attributeName="fill" to="#808080" begin="arrowRight.mouseover" end="arrowRight.mouseout"/>
                  </use>
                  <path fill="none" stroke="white" stroke-width="1.5" d="M0,-3.0v7 M-2.5,-0.5L0,-3.0L2.5,-0.5"/>
                </g>
                <g id="arrowDown" xlink:href="#dirArrow" transform="rotate(180) translate(-30 -48)" onmousedown="handlePan(0,1)">
                  <use xlink:href="#rim" fill="#404040">
                        <set attributeName="fill" to="#808080" begin="arrowDown.mouseover" end="arrowDown.mouseout"/>
                  </use>
                  <path fill="none" stroke="white" stroke-width="1.5" d="M0,-3.0v7 M-2.5,-0.5L0,-3.0L2.5,-0.5"/>
                </g>
                <g id="arrowLeft" xlink:href="#dirArrow" transform="rotate(270) translate(-36 17)" onmousedown="handlePan(-1,0)">
                  <use xlink:href="#rim" fill="#404040">
                        <set attributeName="fill" to="#808080" begin="arrowLeft.mouseover" end="arrowLeft.mouseout"/>
                  </use>
                  <path fill="none" stroke="white" stroke-width="1.5" d="M0,-3.0v7 M-2.5,-0.5L0,-3.0L2.5,-0.5"/>
                </g>
        </g>
        <svg viewBox="0 0 15 15" width="100%" height="30px" preserveAspectRatio="xMaxYMin meet">
         <g id="arrow_out" transform="scale(0.3 0.3)">
          <a xlink:href="vec_8c__incl_org.svg" target="_base">
           <rect id="button" ry="5" rx="5" y="6" x="6" height="38" width="38"
                fill="#f2f5e9" fill-opacity="0.5" stroke="#606060" stroke-width="1.0"/>
           <path id="arrow"
             d="M 11.500037,31.436501 C 11.940474,20.09759 22.043105,11.32322 32.158766,21.979434 L 37.068811,17.246167 C 37.068811,17.246167 37.088388,32 37.088388,32 L 22.160133,31.978069 C 22.160133,31.978069 26.997745,27.140456 26.997745,27.140456 C 18.528582,18.264221 13.291696,25.230495 11.500037,31.436501 z"
             style="fill:#404040;"/>
          </a>
         </g>
        </svg>
</svg>
