<?xml version="1.0" encoding="UTF-8" standalone="no"?>
<!DOCTYPE svg PUBLIC "-//W3C//DTD SVG 1.1//EN"
 "http://www.w3.org/Graphics/SVG/1.1/DTD/svg11.dtd">
<!-- Generated by graphviz version 7.0.5 (20221223.1930)
 -->
<!-- Title: libs/MSL_C/MSL_Common/Src/wchar_io.c Pages: 1 -->
<svg width="144pt" height="236pt"
 viewBox="0.00 0.00 144.00 236.00" xmlns="http://www.w3.org/2000/svg" xmlns:xlink="http://www.w3.org/1999/xlink">
<g id="graph0" class="graph" transform="scale(1 1) rotate(0) translate(4 232)">
<title>libs/MSL_C/MSL_Common/Src/wchar_io.c</title>
<!-- Node1 -->
<g id="node1" class="node">
<title>Node1</title>
<g id="a_node1"><a xlink:title=" ">
<polygon fill="#999999" stroke="#666666" points="136,-228 0,-228 0,-198 136,-198 136,-228"/>
<text text-anchor="start" x="8" y="-216" font-family="Helvetica,sans-Serif" font-size="10.00">libs/MSL_C/MSL_Common</text>
<text text-anchor="middle" x="68" y="-205" font-family="Helvetica,sans-Serif" font-size="10.00">/Src/wchar_io.c</text>
</a>
</g>
</g>
<!-- Node2 -->
<g id="node2" class="node">
<title>Node2</title>
<g id="a_node2"><a xlink:href="wchar__io_8h.html" target="_top" xlink:title=" ">
<polygon fill="white" stroke="#666666" points="136,-162 0,-162 0,-132 136,-132 136,-162"/>
<text text-anchor="start" x="8" y="-150" font-family="Helvetica,sans-Serif" font-size="10.00">MSL_C/MSL_Common/Src</text>
<text text-anchor="middle" x="68" y="-139" font-family="Helvetica,sans-Serif" font-size="10.00">/wchar_io.h</text>
</a>
</g>
</g>
<!-- Node1&#45;&gt;Node2 -->
<g id="edge1" class="edge">
<title>Node1&#45;&gt;Node2</title>
<path fill="none" stroke="#63b8ff" d="M68,-197.8C68,-190.67 68,-181.82 68,-173.56"/>
<polygon fill="#63b8ff" stroke="#63b8ff" points="71.5,-173.68 68,-163.68 64.5,-173.68 71.5,-173.68"/>
</g>
<!-- Node3 -->
<g id="node3" class="node">
<title>Node3</title>
<g id="a_node3"><a xlink:href="ansi__files_8h.html" target="_top" xlink:title=" ">
<polygon fill="white" stroke="#666666" points="136,-96 0,-96 0,-66 136,-66 136,-96"/>
<text text-anchor="start" x="8" y="-84" font-family="Helvetica,sans-Serif" font-size="10.00">MSL_C/MSL_Common/Src</text>
<text text-anchor="middle" x="68" y="-73" font-family="Helvetica,sans-Serif" font-size="10.00">/ansi_files.h</text>
</a>
</g>
</g>
<!-- Node2&#45;&gt;Node3 -->
<g id="edge2" class="edge">
<title>Node2&#45;&gt;Node3</title>
<path fill="none" stroke="#63b8ff" d="M68,-131.8C68,-124.67 68,-115.82 68,-107.56"/>
<polygon fill="#63b8ff" stroke="#63b8ff" points="71.5,-107.68 68,-97.68 64.5,-107.68 71.5,-107.68"/>
</g>
<!-- Node4 -->
<g id="node4" class="node">
<title>Node4</title>
<g id="a_node4"><a xlink:href="stddef_8h.html" target="_top" xlink:title=" ">
<polygon fill="white" stroke="#666666" points="136,-30 0,-30 0,0 136,0 136,-30"/>
<text text-anchor="start" x="8" y="-18" font-family="Helvetica,sans-Serif" font-size="10.00">MSL_C/MSL_Common/Src</text>
<text text-anchor="middle" x="68" y="-7" font-family="Helvetica,sans-Serif" font-size="10.00">/stddef.h</text>
</a>
</g>
</g>
<!-- Node3&#45;&gt;Node4 -->
<g id="edge3" class="edge">
<title>Node3&#45;&gt;Node4</title>
<path fill="none" stroke="#63b8ff" d="M68,-65.8C68,-58.67 68,-49.82 68,-41.56"/>
<polygon fill="#63b8ff" stroke="#63b8ff" points="71.5,-41.68 68,-31.68 64.5,-41.68 71.5,-41.68"/>
</g>
</g>
</svg>
