<?xml version="1.0" encoding="UTF-8" standalone="no"?>
<!DOCTYPE svg PUBLIC "-//W3C//DTD SVG 1.1//EN"
 "http://www.w3.org/Graphics/SVG/1.1/DTD/svg11.dtd">
<!-- Generated by graphviz version 7.0.5 (20221223.1930)
 -->
<!-- Title: libs/Z2AudioLib/Z2LinkMgr.cpp Pages: 1 -->
<svg width="5372pt" height="236pt"
 viewBox="0.00 0.00 5372.01 236.00" xmlns="http://www.w3.org/2000/svg" xmlns:xlink="http://www.w3.org/1999/xlink">
<g id="graph0" class="graph" transform="scale(1 1) rotate(0) translate(4 232)">
<title>libs/Z2AudioLib/Z2LinkMgr.cpp</title>
<!-- Node1 -->
<g id="node1" class="node">
<title>Node1</title>
<g id="a_node1"><a xlink:title=" ">
<polygon fill="#999999" stroke="#666666" points="3221.01,-228 3069.01,-228 3069.01,-209 3221.01,-209 3221.01,-228"/>
<text text-anchor="middle" x="3145.01" y="-216" font-family="Helvetica,sans-Serif" font-size="10.00">libs/Z2AudioLib/Z2LinkMgr.cpp</text>
</a>
</g>
</g>
<!-- Node2 -->
<g id="node2" class="node">
<title>Node2</title>
<g id="a_node2"><a xlink:href="Z2LinkMgr_8h.html" target="_top" xlink:title=" ">
<polygon fill="white" stroke="#666666" points="176.51,-162 53.51,-162 53.51,-143 176.51,-143 176.51,-162"/>
<text text-anchor="middle" x="115.01" y="-150" font-family="Helvetica,sans-Serif" font-size="10.00">Z2AudioLib/Z2LinkMgr.h</text>
</a>
</g>
</g>
<!-- Node1&#45;&gt;Node2 -->
<g id="edge1" class="edge">
<title>Node1&#45;&gt;Node2</title>
<path fill="none" stroke="#63b8ff" d="M3068.67,-217.52C2633.7,-217.5 477.5,-215.22 185.01,-173 174.1,-171.42 162.48,-168.65 151.91,-165.68"/>
<polygon fill="#63b8ff" stroke="#63b8ff" points="152.96,-162.35 142.38,-162.86 150.98,-169.06 152.96,-162.35"/>
</g>
<!-- Node3 -->
<g id="node3" class="node">
<title>Node3</title>
<g id="a_node3"><a xlink:href="Z2Creature_8h.html" target="_top" xlink:title=" ">
<polygon fill="white" stroke="#666666" points="319.51,-162 194.51,-162 194.51,-143 319.51,-143 319.51,-162"/>
<text text-anchor="middle" x="257.01" y="-150" font-family="Helvetica,sans-Serif" font-size="10.00">Z2AudioLib/Z2Creature.h</text>
</a>
</g>
</g>
<!-- Node1&#45;&gt;Node3 -->
<g id="edge2" class="edge">
<title>Node1&#45;&gt;Node3</title>
<path fill="none" stroke="#63b8ff" d="M3068.88,-216.32C2782.37,-211.8 1741.59,-194.77 884.01,-173 684.08,-167.92 448.36,-160.1 331.06,-156.08"/>
<polygon fill="#63b8ff" stroke="#63b8ff" points="331.37,-152.59 321.26,-155.74 331.13,-159.58 331.37,-152.59"/>
</g>
<!-- Node56 -->
<g id="node7" class="node">
<title>Node56</title>
<g id="a_node7"><a xlink:href="d__com__inf__game_8h.html" target="_top" xlink:title=" ">
<polygon fill="white" stroke="#666666" points="1021.01,-162 893.01,-162 893.01,-143 1021.01,-143 1021.01,-162"/>
<text text-anchor="middle" x="957.01" y="-150" font-family="Helvetica,sans-Serif" font-size="10.00">d/com/d_com_inf_game.h</text>
</a>
</g>
</g>
<!-- Node1&#45;&gt;Node56 -->
<g id="edge6" class="edge">
<title>Node1&#45;&gt;Node56</title>
<path fill="none" stroke="#63b8ff" d="M3068.54,-216.05C2825.12,-211.31 2046.38,-195.34 1402.01,-173 1272.26,-168.5 1121.3,-161.52 1032.75,-157.24"/>
<polygon fill="#63b8ff" stroke="#63b8ff" points="1033.15,-153.76 1022.99,-156.77 1032.81,-160.75 1033.15,-153.76"/>
</g>
<!-- Node20 -->
<g id="node9" class="node">
<title>Node20</title>
<g id="a_node9"><a xlink:href="global_8h.html" target="_top" xlink:title=" ">
<polygon fill="#fff0f0" stroke="red" points="1238.01,-24.5 1188.01,-24.5 1188.01,-5.5 1238.01,-5.5 1238.01,-24.5"/>
<text text-anchor="middle" x="1213.01" y="-12.5" font-family="Helvetica,sans-Serif" font-size="10.00">global.h</text>
</a>
</g>
</g>
<!-- Node1&#45;&gt;Node20 -->
<g id="edge38" class="edge">
<title>Node1&#45;&gt;Node20</title>
<path fill="none" stroke="#63b8ff" d="M3068.72,-216.68C2823.02,-213.76 2053.95,-202.44 1807.01,-173 1639.36,-153.01 1588.04,-167.33 1435.01,-96 1415.51,-86.91 1416.23,-75.68 1397.01,-66 1348.92,-41.77 1287.65,-28.14 1249.37,-21.43"/>
<polygon fill="#63b8ff" stroke="#63b8ff" points="1250.2,-18.02 1239.76,-19.81 1249.04,-24.92 1250.2,-18.02"/>
</g>
<!-- Node221 -->
<g id="node18" class="node">
<title>Node221</title>
<g id="a_node18"><a xlink:href="dol2asm_8h.html" target="_top" xlink:title=" ">
<polygon fill="white" stroke="#666666" points="1876.51,-162 1815.51,-162 1815.51,-143 1876.51,-143 1876.51,-162"/>
<text text-anchor="middle" x="1846.01" y="-150" font-family="Helvetica,sans-Serif" font-size="10.00">dol2asm.h</text>
</a>
</g>
</g>
<!-- Node1&#45;&gt;Node221 -->
<g id="edge22" class="edge">
<title>Node1&#45;&gt;Node221</title>
<path fill="none" stroke="#63b8ff" d="M3068.59,-216.65C2813.4,-213.54 2000.27,-201.5 1886.01,-173 1880.9,-171.72 1875.67,-169.74 1870.75,-167.52"/>
<polygon fill="#63b8ff" stroke="#63b8ff" points="1872.5,-164.49 1861.99,-163.14 1869.37,-170.75 1872.5,-164.49"/>
</g>
<!-- Node22 -->
<g id="node19" class="node">
<title>Node22</title>
<g id="a_node19"><a xlink:href="OS_8h.html" target="_top" xlink:title=" ">
<polygon fill="#fff0f0" stroke="red" points="1981.01,-162 1895.01,-162 1895.01,-143 1981.01,-143 1981.01,-162"/>
<text text-anchor="middle" x="1938.01" y="-150" font-family="Helvetica,sans-Serif" font-size="10.00">dolphin/os/OS.h</text>
</a>
</g>
</g>
<!-- Node1&#45;&gt;Node22 -->
<g id="edge23" class="edge">
<title>Node1&#45;&gt;Node22</title>
<path fill="none" stroke="#63b8ff" d="M3068.62,-217.67C2845.6,-217.67 2198.13,-214.03 1991.01,-173 1983.47,-171.51 1975.59,-169.1 1968.27,-166.48"/>
<polygon fill="#63b8ff" stroke="#63b8ff" points="1969.72,-163.29 1959.13,-162.97 1967.21,-169.82 1969.72,-163.29"/>
</g>
<!-- Node222 -->
<g id="node33" class="node">
<title>Node222</title>
<g id="a_node33"><a xlink:title=" ">
<polygon fill="#e0e0e0" stroke="#999999" points="2164.51,-167.5 1999.51,-167.5 1999.51,-137.5 2164.51,-137.5 2164.51,-167.5"/>
<text text-anchor="start" x="2007.51" y="-155.5" font-family="Helvetica,sans-Serif" font-size="10.00">asm/Z2AudioLib/Z2LinkMgr</text>
<text text-anchor="middle" x="2082.01" y="-144.5" font-family="Helvetica,sans-Serif" font-size="10.00">/__dt__18Z2LinkSoundStarterFv.s</text>
</a>
</g>
</g>
<!-- Node1&#45;&gt;Node222 -->
<g id="edge39" class="edge">
<title>Node1&#45;&gt;Node222</title>
<path fill="none" stroke="#63b8ff" d="M3068.79,-218.22C2904.54,-218.84 2505.23,-215.4 2174.01,-173 2167.58,-172.18 2160.93,-171.14 2154.28,-169.97"/>
<polygon fill="#63b8ff" stroke="#63b8ff" points="2155.1,-166.57 2144.62,-168.18 2153.82,-173.45 2155.1,-166.57"/>
</g>
<!-- Node223 -->
<g id="node34" class="node">
<title>Node223</title>
<g id="a_node34"><a xlink:title=" ">
<polygon fill="#e0e0e0" stroke="#999999" points="2327.51,-167.5 2182.51,-167.5 2182.51,-137.5 2327.51,-137.5 2327.51,-167.5"/>
<text text-anchor="start" x="2190.51" y="-155.5" font-family="Helvetica,sans-Serif" font-size="10.00">asm/Z2AudioLib/Z2LinkMgr</text>
<text text-anchor="middle" x="2255.01" y="-144.5" font-family="Helvetica,sans-Serif" font-size="10.00">/__dt__14Z2CreatureLinkFv.s</text>
</a>
</g>
</g>
<!-- Node1&#45;&gt;Node223 -->
<g id="edge40" class="edge">
<title>Node1&#45;&gt;Node223</title>
<path fill="none" stroke="#63b8ff" d="M3068.53,-217.82C2924.56,-217.41 2603.78,-211.75 2337.01,-173 2331.77,-172.24 2326.36,-171.3 2320.95,-170.25"/>
<polygon fill="#63b8ff" stroke="#63b8ff" points="2321.87,-166.87 2311.37,-168.28 2320.46,-173.73 2321.87,-166.87"/>
</g>
<!-- Node224 -->
<g id="node35" class="node">
<title>Node224</title>
<g id="a_node35"><a xlink:title=" ">
<polygon fill="#e0e0e0" stroke="#999999" points="2534.01,-167.5 2346.01,-167.5 2346.01,-137.5 2534.01,-137.5 2534.01,-167.5"/>
<text text-anchor="start" x="2354.01" y="-155.5" font-family="Helvetica,sans-Serif" font-size="10.00">asm/Z2AudioLib/Z2LinkMgr</text>
<text text-anchor="middle" x="2440.01" y="-144.5" font-family="Helvetica,sans-Serif" font-size="10.00">/framework__14Z2CreatureLinkFUlSc.s</text>
</a>
</g>
</g>
<!-- Node1&#45;&gt;Node224 -->
<g id="edge41" class="edge">
<title>Node1&#45;&gt;Node224</title>
<path fill="none" stroke="#63b8ff" d="M3068.7,-214.63C2954.15,-209.7 2731.08,-197.67 2543.01,-173 2536.14,-172.1 2529.04,-171.03 2521.92,-169.88"/>
<polygon fill="#63b8ff" stroke="#63b8ff" points="2522.7,-166.46 2512.25,-168.24 2521.53,-173.36 2522.7,-166.46"/>
</g>
<!-- Node225 -->
<g id="node36" class="node">
<title>Node225</title>
<g id="a_node36"><a xlink:title=" ">
<polygon fill="#e0e0e0" stroke="#999999" points="2750.01,-167.5 2552.01,-167.5 2552.01,-137.5 2750.01,-137.5 2750.01,-167.5"/>
<text text-anchor="start" x="2560.01" y="-155.5" font-family="Helvetica,sans-Serif" font-size="10.00">asm/Z2AudioLib/Z2LinkMgr</text>
<text text-anchor="middle" x="2651.01" y="-144.5" font-family="Helvetica,sans-Serif" font-size="10.00">/setWolfEyeOpen__14Z2CreatureLinkFb.s</text>
</a>
</g>
</g>
<!-- Node1&#45;&gt;Node225 -->
<g id="edge42" class="edge">
<title>Node1&#45;&gt;Node225</title>
<path fill="none" stroke="#63b8ff" d="M3068.86,-210.1C2991.06,-202.22 2866.85,-188.72 2760.01,-173 2753.33,-172.02 2746.44,-170.94 2739.51,-169.81"/>
<polygon fill="#63b8ff" stroke="#63b8ff" points="2740.55,-166.43 2730.11,-168.24 2739.4,-173.34 2740.55,-166.43"/>
</g>
<!-- Node226 -->
<g id="node37" class="node">
<title>Node226</title>
<g id="a_node37"><a xlink:title=" ">
<polygon fill="#e0e0e0" stroke="#999999" points="2941.51,-173 2768.51,-173 2768.51,-132 2941.51,-132 2941.51,-173"/>
<text text-anchor="start" x="2776.51" y="-161" font-family="Helvetica,sans-Serif" font-size="10.00">asm/Z2AudioLib/Z2LinkMgr</text>
<text text-anchor="start" x="2776.51" y="-150" font-family="Helvetica,sans-Serif" font-size="10.00">/startLinkSound__14Z2CreatureLink</text>
<text text-anchor="middle" x="2855.01" y="-139" font-family="Helvetica,sans-Serif" font-size="10.00">F10JAISoundIDUlSc.s</text>
</a>
</g>
</g>
<!-- Node1&#45;&gt;Node226 -->
<g id="edge43" class="edge">
<title>Node1&#45;&gt;Node226</title>
<path fill="none" stroke="#63b8ff" d="M3104.38,-208.53C3065.32,-199.91 3004.75,-186.55 2953.09,-175.14"/>
<polygon fill="#63b8ff" stroke="#63b8ff" points="2953.87,-171.73 2943.35,-173 2952.36,-178.57 2953.87,-171.73"/>
</g>
<!-- Node227 -->
<g id="node38" class="node">
<title>Node227</title>
<g id="a_node38"><a xlink:title=" ">
<polygon fill="#e0e0e0" stroke="#999999" points="3138.51,-173 2959.51,-173 2959.51,-132 3138.51,-132 3138.51,-173"/>
<text text-anchor="start" x="2967.51" y="-161" font-family="Helvetica,sans-Serif" font-size="10.00">asm/Z2AudioLib/Z2LinkMgr</text>
<text text-anchor="start" x="2967.51" y="-150" font-family="Helvetica,sans-Serif" font-size="10.00">/startLinkSoundLevel__14Z2Creature</text>
<text text-anchor="middle" x="3049.01" y="-139" font-family="Helvetica,sans-Serif" font-size="10.00">LinkF10JAISoundIDUlSc.s</text>
</a>
</g>
</g>
<!-- Node1&#45;&gt;Node227 -->
<g id="edge44" class="edge">
<title>Node1&#45;&gt;Node227</title>
<path fill="none" stroke="#63b8ff" d="M3131.66,-208.6C3120.4,-201.09 3103.68,-189.95 3088.23,-179.64"/>
<polygon fill="#63b8ff" stroke="#63b8ff" points="3090.35,-176.85 3080.09,-174.22 3086.46,-182.68 3090.35,-176.85"/>
</g>
<!-- Node228 -->
<g id="node39" class="node">
<title>Node228</title>
<g id="a_node39"><a xlink:title=" ">
<polygon fill="#e0e0e0" stroke="#999999" points="3327.01,-173 3157.01,-173 3157.01,-132 3327.01,-132 3327.01,-173"/>
<text text-anchor="start" x="3165.01" y="-161" font-family="Helvetica,sans-Serif" font-size="10.00">asm/Z2AudioLib/Z2LinkMgr</text>
<text text-anchor="start" x="3165.01" y="-150" font-family="Helvetica,sans-Serif" font-size="10.00">/startLinkVoice__14Z2CreatureLink</text>
<text text-anchor="middle" x="3242.01" y="-139" font-family="Helvetica,sans-Serif" font-size="10.00">F10JAISoundIDSc.s</text>
</a>
</g>
</g>
<!-- Node1&#45;&gt;Node228 -->
<g id="edge45" class="edge">
<title>Node1&#45;&gt;Node228</title>
<path fill="none" stroke="#63b8ff" d="M3158.5,-208.6C3169.88,-201.09 3186.77,-189.95 3202.38,-179.64"/>
<polygon fill="#63b8ff" stroke="#63b8ff" points="3204.2,-182.64 3210.62,-174.21 3200.35,-176.8 3204.2,-182.64"/>
</g>
<!-- Node229 -->
<g id="node40" class="node">
<title>Node229</title>
<g id="a_node40"><a xlink:title=" ">
<polygon fill="#e0e0e0" stroke="#999999" points="3521.01,-173 3345.01,-173 3345.01,-132 3521.01,-132 3521.01,-173"/>
<text text-anchor="start" x="3353.01" y="-161" font-family="Helvetica,sans-Serif" font-size="10.00">asm/Z2AudioLib/Z2LinkMgr</text>
<text text-anchor="start" x="3353.01" y="-150" font-family="Helvetica,sans-Serif" font-size="10.00">/startLinkVoiceLevel__14Z2Creature</text>
<text text-anchor="middle" x="3433.01" y="-139" font-family="Helvetica,sans-Serif" font-size="10.00">LinkF10JAISoundIDSc.s</text>
</a>
</g>
</g>
<!-- Node1&#45;&gt;Node229 -->
<g id="edge46" class="edge">
<title>Node1&#45;&gt;Node229</title>
<path fill="none" stroke="#63b8ff" d="M3185.36,-208.53C3223.65,-200.02 3282.74,-186.89 3333.6,-175.59"/>
<polygon fill="#63b8ff" stroke="#63b8ff" points="3334.17,-179.05 3343.18,-173.46 3332.66,-172.22 3334.17,-179.05"/>
</g>
<!-- Node230 -->
<g id="node41" class="node">
<title>Node230</title>
<g id="a_node41"><a xlink:title=" ">
<polygon fill="#e0e0e0" stroke="#999999" points="3711.01,-173 3539.01,-173 3539.01,-132 3711.01,-132 3711.01,-173"/>
<text text-anchor="start" x="3547.01" y="-161" font-family="Helvetica,sans-Serif" font-size="10.00">asm/Z2AudioLib/Z2LinkMgr</text>
<text text-anchor="start" x="3547.01" y="-150" font-family="Helvetica,sans-Serif" font-size="10.00">/startHitItemSE__14Z2CreatureLink</text>
<text text-anchor="middle" x="3625.01" y="-139" font-family="Helvetica,sans-Serif" font-size="10.00">FUlUlP14Z2SoundObjBasef.s</text>
</a>
</g>
</g>
<!-- Node1&#45;&gt;Node230 -->
<g id="edge47" class="edge">
<title>Node1&#45;&gt;Node230</title>
<path fill="none" stroke="#63b8ff" d="M3221.25,-210.67C3296.61,-203.47 3415.41,-190.92 3527.44,-173.34"/>
<polygon fill="#63b8ff" stroke="#63b8ff" points="3527.78,-176.83 3537.11,-171.81 3526.68,-169.92 3527.78,-176.83"/>
</g>
<!-- Node231 -->
<g id="node42" class="node">
<title>Node231</title>
<g id="a_node42"><a xlink:title=" ">
<polygon fill="#e0e0e0" stroke="#999999" points="3866.51,-167.5 3729.51,-167.5 3729.51,-137.5 3866.51,-137.5 3866.51,-167.5"/>
<text text-anchor="start" x="3737.51" y="-155.5" font-family="Helvetica,sans-Serif" font-size="10.00">asm/Z2AudioLib/Z2LinkMgr</text>
<text text-anchor="middle" x="3798.01" y="-144.5" font-family="Helvetica,sans-Serif" font-size="10.00">/func_802C4928.s</text>
</a>
</g>
</g>
<!-- Node1&#45;&gt;Node231 -->
<g id="edge48" class="edge">
<title>Node1&#45;&gt;Node231</title>
<path fill="none" stroke="#63b8ff" d="M3221.3,-215.66C3331.88,-212.08 3542.86,-201.79 3720.01,-173 3724.66,-172.24 3729.44,-171.35 3734.23,-170.36"/>
<polygon fill="#63b8ff" stroke="#63b8ff" points="3734.89,-173.8 3743.91,-168.25 3733.4,-166.96 3734.89,-173.8"/>
</g>
<!-- Node232 -->
<g id="node43" class="node">
<title>Node232</title>
<g id="a_node43"><a xlink:title=" ">
<polygon fill="#e0e0e0" stroke="#999999" points="4051.01,-167.5 3885.01,-167.5 3885.01,-137.5 4051.01,-137.5 4051.01,-167.5"/>
<text text-anchor="start" x="3893.01" y="-155.5" font-family="Helvetica,sans-Serif" font-size="10.00">asm/Z2AudioLib/Z2LinkMgr</text>
<text text-anchor="middle" x="3968.01" y="-144.5" font-family="Helvetica,sans-Serif" font-size="10.00">/__dt__18Z2RideSoundStarterFv.s</text>
</a>
</g>
</g>
<!-- Node1&#45;&gt;Node232 -->
<g id="edge49" class="edge">
<title>Node1&#45;&gt;Node232</title>
<path fill="none" stroke="#63b8ff" d="M3221.41,-216.56C3354.81,-214.1 3638.68,-205.2 3876.01,-173 3882.08,-172.18 3888.34,-171.18 3894.61,-170.07"/>
<polygon fill="#63b8ff" stroke="#63b8ff" points="3895.19,-173.52 3904.39,-168.25 3893.91,-166.64 3895.19,-173.52"/>
</g>
<!-- Node233 -->
<g id="node44" class="node">
<title>Node233</title>
<g id="a_node44"><a xlink:title=" ">
<polygon fill="#e0e0e0" stroke="#999999" points="4215.01,-167.5 4069.01,-167.5 4069.01,-137.5 4215.01,-137.5 4215.01,-167.5"/>
<text text-anchor="start" x="4077.01" y="-155.5" font-family="Helvetica,sans-Serif" font-size="10.00">asm/Z2AudioLib/Z2LinkMgr</text>
<text text-anchor="middle" x="4142.01" y="-144.5" font-family="Helvetica,sans-Serif" font-size="10.00">/__dt__14Z2CreatureRideFv.s</text>
</a>
</g>
</g>
<!-- Node1&#45;&gt;Node233 -->
<g id="edge50" class="edge">
<title>Node1&#45;&gt;Node233</title>
<path fill="none" stroke="#63b8ff" d="M3221.31,-215.61C3410.75,-210.61 3898.91,-195.87 4060.01,-173 4065.34,-172.24 4070.84,-171.3 4076.34,-170.24"/>
<polygon fill="#63b8ff" stroke="#63b8ff" points="4077.01,-173.68 4086.1,-168.23 4075.6,-166.82 4077.01,-173.68"/>
</g>
<!-- Node234 -->
<g id="node45" class="node">
<title>Node234</title>
<g id="a_node45"><a xlink:title=" ">
<polygon fill="#e0e0e0" stroke="#999999" points="4370.51,-167.5 4233.51,-167.5 4233.51,-137.5 4370.51,-137.5 4370.51,-167.5"/>
<text text-anchor="start" x="4241.51" y="-155.5" font-family="Helvetica,sans-Serif" font-size="10.00">asm/Z2AudioLib/Z2LinkMgr</text>
<text text-anchor="middle" x="4302.01" y="-144.5" font-family="Helvetica,sans-Serif" font-size="10.00">/func_802C5284.s</text>
</a>
</g>
</g>
<!-- Node1&#45;&gt;Node234 -->
<g id="edge51" class="edge">
<title>Node1&#45;&gt;Node234</title>
<path fill="none" stroke="#63b8ff" d="M3221.16,-216.38C3433.63,-212.92 4030.09,-200.94 4224.01,-173 4228.96,-172.29 4234.06,-171.39 4239.16,-170.38"/>
<polygon fill="#63b8ff" stroke="#63b8ff" points="4239.75,-173.83 4248.8,-168.31 4238.29,-166.98 4239.75,-173.83"/>
</g>
<!-- Node235 -->
<g id="node46" class="node">
<title>Node235</title>
<g id="a_node46"><a xlink:title=" ">
<polygon fill="#e0e0e0" stroke="#999999" points="4549.01,-167.5 4389.01,-167.5 4389.01,-137.5 4549.01,-137.5 4549.01,-167.5"/>
<text text-anchor="start" x="4397.01" y="-155.5" font-family="Helvetica,sans-Serif" font-size="10.00">asm/Z2AudioLib/Z2LinkMgr</text>
<text text-anchor="middle" x="4469.01" y="-144.5" font-family="Helvetica,sans-Serif" font-size="10.00">/__ct__15Z2SoundObjCoachFv.s</text>
</a>
</g>
</g>
<!-- Node1&#45;&gt;Node235 -->
<g id="edge52" class="edge">
<title>Node1&#45;&gt;Node235</title>
<path fill="none" stroke="#63b8ff" d="M3221.1,-216.55C3453.85,-213.36 4154.12,-201.58 4380.01,-173 4386.34,-172.2 4392.89,-171.17 4399.43,-169.99"/>
<polygon fill="#63b8ff" stroke="#63b8ff" points="4399.73,-173.5 4408.9,-168.19 4398.42,-166.62 4399.73,-173.5"/>
</g>
<!-- Node236 -->
<g id="node47" class="node">
<title>Node236</title>
<g id="a_node47"><a xlink:title=" ">
<polygon fill="#e0e0e0" stroke="#999999" points="4758.51,-167.5 4567.51,-167.5 4567.51,-137.5 4758.51,-137.5 4758.51,-167.5"/>
<text text-anchor="start" x="4575.51" y="-155.5" font-family="Helvetica,sans-Serif" font-size="10.00">asm/Z2AudioLib/Z2LinkMgr</text>
<text text-anchor="middle" x="4663.01" y="-144.5" font-family="Helvetica,sans-Serif" font-size="10.00">/init__15Z2SoundObjCoachFP3VecUc.s</text>
</a>
</g>
</g>
<!-- Node1&#45;&gt;Node236 -->
<g id="edge53" class="edge">
<title>Node1&#45;&gt;Node236</title>
<path fill="none" stroke="#63b8ff" d="M3221.5,-216.63C3476.39,-213.47 4295.54,-201.34 4558.01,-173 4565.78,-172.16 4573.83,-171.07 4581.87,-169.83"/>
<polygon fill="#63b8ff" stroke="#63b8ff" points="4582.39,-173.29 4591.7,-168.24 4581.27,-166.39 4582.39,-173.29"/>
</g>
<!-- Node237 -->
<g id="node48" class="node">
<title>Node237</title>
<g id="a_node48"><a xlink:title=" ">
<polygon fill="#e0e0e0" stroke="#999999" points="4945.51,-173 4776.51,-173 4776.51,-132 4945.51,-132 4945.51,-173"/>
<text text-anchor="start" x="4784.51" y="-161" font-family="Helvetica,sans-Serif" font-size="10.00">asm/Z2AudioLib/Z2LinkMgr</text>
<text text-anchor="start" x="4784.51" y="-150" font-family="Helvetica,sans-Serif" font-size="10.00">/startWheelSound__15Z2SoundObj</text>
<text text-anchor="middle" x="4861.01" y="-139" font-family="Helvetica,sans-Serif" font-size="10.00">CoachFf.s</text>
</a>
</g>
</g>
<!-- Node1&#45;&gt;Node237 -->
<g id="edge54" class="edge">
<title>Node1&#45;&gt;Node237</title>
<path fill="none" stroke="#63b8ff" d="M3221.51,-217.22C3497.22,-215.94 4440.4,-209.04 4764.94,-173.22"/>
<polygon fill="#63b8ff" stroke="#63b8ff" points="4765.18,-176.71 4774.71,-172.1 4764.38,-169.76 4765.18,-176.71"/>
</g>
<!-- Node238 -->
<g id="node49" class="node">
<title>Node238</title>
<g id="a_node49"><a xlink:title=" ">
<polygon fill="#e0e0e0" stroke="#999999" points="5176.01,-167.5 4964.01,-167.5 4964.01,-137.5 5176.01,-137.5 5176.01,-167.5"/>
<text text-anchor="start" x="4972.01" y="-155.5" font-family="Helvetica,sans-Serif" font-size="10.00">asm/Z2AudioLib/Z2LinkMgr</text>
<text text-anchor="middle" x="5070.01" y="-144.5" font-family="Helvetica,sans-Serif" font-size="10.00">/startFireSound__15Z2SoundObjCoachFUs.s</text>
</a>
</g>
</g>
<!-- Node1&#45;&gt;Node238 -->
<g id="edge55" class="edge">
<title>Node1&#45;&gt;Node238</title>
<path fill="none" stroke="#63b8ff" d="M3221.4,-217.08C3520.25,-215.22 4610.65,-206.26 4955.01,-173 4963.97,-172.14 4973.28,-170.98 4982.55,-169.67"/>
<polygon fill="#63b8ff" stroke="#63b8ff" points="4982.95,-173.15 4992.32,-168.22 4981.92,-166.23 4982.95,-173.15"/>
</g>
<!-- Node239 -->
<g id="node50" class="node">
<title>Node239</title>
<g id="a_node50"><a xlink:title=" ">
<polygon fill="#e0e0e0" stroke="#999999" points="5364.01,-173 5194.01,-173 5194.01,-132 5364.01,-132 5364.01,-173"/>
<text text-anchor="start" x="5202.01" y="-161" font-family="Helvetica,sans-Serif" font-size="10.00">asm/Z2AudioLib/Z2LinkMgr</text>
<text text-anchor="start" x="5202.01" y="-150" font-family="Helvetica,sans-Serif" font-size="10.00">/startSound__15Z2SoundObjCoach</text>
<text text-anchor="middle" x="5279.01" y="-139" font-family="Helvetica,sans-Serif" font-size="10.00">F10JAISoundIDUlSc.s</text>
</a>
</g>
</g>
<!-- Node1&#45;&gt;Node239 -->
<g id="edge56" class="edge">
<title>Node1&#45;&gt;Node239</title>
<path fill="none" stroke="#63b8ff" d="M3221.36,-217.7C3540.62,-218.26 4770.64,-217.49 5182.21,-173.17"/>
<polygon fill="#63b8ff" stroke="#63b8ff" points="5182.5,-176.66 5192.06,-172.08 5181.73,-169.71 5182.5,-176.66"/>
</g>
<!-- Node4 -->
<g id="node4" class="node">
<title>Node4</title>
<g id="a_node4"><a xlink:href="c__xyz_8h.html" target="_top" xlink:title=" ">
<polygon fill="#fff0f0" stroke="red" points="474.01,-30 358.01,-30 358.01,0 474.01,0 474.01,-30"/>
<text text-anchor="start" x="366.01" y="-18" font-family="Helvetica,sans-Serif" font-size="10.00">SSystem/SComponent</text>
<text text-anchor="middle" x="416.01" y="-7" font-family="Helvetica,sans-Serif" font-size="10.00">/c_xyz.h</text>
</a>
</g>
</g>
<!-- Node3&#45;&gt;Node4 -->
<g id="edge3" class="edge">
<title>Node3&#45;&gt;Node4</title>
<path fill="none" stroke="#63b8ff" d="M225.57,-142.55C213,-139.09 198.36,-135.19 185.01,-132 104.97,-112.85 -42.49,-127.66 12.01,-66 33.74,-41.42 236.48,-26.19 346.22,-19.68"/>
<polygon fill="#63b8ff" stroke="#63b8ff" points="346.22,-23.19 356,-19.11 345.82,-16.2 346.22,-23.19"/>
</g>
<!-- Node11 -->
<g id="node5" class="node">
<title>Node11</title>
<g id="a_node5"><a xlink:href="Z2SoundObject_8h.html" target="_top" xlink:title=" ">
<polygon fill="#fff0f0" stroke="red" points="329.01,-90.5 185.01,-90.5 185.01,-71.5 329.01,-71.5 329.01,-90.5"/>
<text text-anchor="middle" x="257.01" y="-78.5" font-family="Helvetica,sans-Serif" font-size="10.00">Z2AudioLib/Z2SoundObject.h</text>
</a>
</g>
</g>
<!-- Node3&#45;&gt;Node11 -->
<g id="edge4" class="edge">
<title>Node3&#45;&gt;Node11</title>
<path fill="none" stroke="#63b8ff" d="M257.01,-142.7C257.01,-132.62 257.01,-115.79 257.01,-102.4"/>
<polygon fill="#63b8ff" stroke="#63b8ff" points="260.51,-102.46 257.01,-92.46 253.51,-102.46 260.51,-102.46"/>
</g>
<!-- Node49 -->
<g id="node6" class="node">
<title>Node49</title>
<g id="a_node6"><a xlink:href="Z2SoundStarter_8h.html" target="_top" xlink:title=" ">
<polygon fill="#fff0f0" stroke="red" points="166.51,-90.5 21.51,-90.5 21.51,-71.5 166.51,-71.5 166.51,-90.5"/>
<text text-anchor="middle" x="94.01" y="-78.5" font-family="Helvetica,sans-Serif" font-size="10.00">Z2AudioLib/Z2SoundStarter.h</text>
</a>
</g>
</g>
<!-- Node3&#45;&gt;Node49 -->
<g id="edge5" class="edge">
<title>Node3&#45;&gt;Node49</title>
<path fill="none" stroke="#63b8ff" d="M236.03,-142.56C207.92,-130.57 157.77,-109.19 125.22,-95.31"/>
<polygon fill="#63b8ff" stroke="#63b8ff" points="126.87,-92.21 116.3,-91.5 124.12,-98.64 126.87,-92.21"/>
</g>
<!-- Node57 -->
<g id="node8" class="node">
<title>Node57</title>
<g id="a_node8"><a xlink:href="d__bg__s_8h.html" target="_top" xlink:title=" ">
<polygon fill="#fff0f0" stroke="red" points="1251.51,-90.5 1174.51,-90.5 1174.51,-71.5 1251.51,-71.5 1251.51,-90.5"/>
<text text-anchor="middle" x="1213.01" y="-78.5" font-family="Helvetica,sans-Serif" font-size="10.00">d/bg/d_bg_s.h</text>
</a>
</g>
</g>
<!-- Node56&#45;&gt;Node57 -->
<g id="edge7" class="edge">
<title>Node56&#45;&gt;Node57</title>
<path fill="none" stroke="#63b8ff" d="M991.67,-142.51C1033.01,-131.73 1104.17,-112.99 1165.01,-96 1167.14,-95.4 1169.33,-94.79 1171.53,-94.16"/>
<polygon fill="#63b8ff" stroke="#63b8ff" points="1172.47,-97.53 1181.11,-91.41 1170.54,-90.81 1172.47,-97.53"/>
</g>
<!-- Node56&#45;&gt;Node20 -->
<g id="edge21" class="edge">
<title>Node56&#45;&gt;Node20</title>
<path fill="none" stroke="#63b8ff" d="M1021.19,-149.07C1100.95,-144.54 1230.22,-131.74 1260.01,-96 1276.84,-75.81 1253.12,-48.86 1233.71,-31.97"/>
<polygon fill="#63b8ff" stroke="#63b8ff" points="1236.1,-29.4 1226.16,-25.73 1231.64,-34.8 1236.1,-29.4"/>
</g>
<!-- Node63 -->
<g id="node10" class="node">
<title>Node63</title>
<g id="a_node10"><a xlink:href="d__cc__s_8h.html" target="_top" xlink:title=" ">
<polygon fill="#fff0f0" stroke="red" points="771.51,-90.5 694.51,-90.5 694.51,-71.5 771.51,-71.5 771.51,-90.5"/>
<text text-anchor="middle" x="733.01" y="-78.5" font-family="Helvetica,sans-Serif" font-size="10.00">d/cc/d_cc_s.h</text>
</a>
</g>
</g>
<!-- Node56&#45;&gt;Node63 -->
<g id="edge9" class="edge">
<title>Node56&#45;&gt;Node63</title>
<path fill="none" stroke="#63b8ff" d="M928.18,-142.56C888.53,-130.25 817.02,-108.07 772.44,-94.23"/>
<polygon fill="#63b8ff" stroke="#63b8ff" points="773.76,-90.98 763.17,-91.36 771.68,-97.66 773.76,-90.98"/>
</g>
<!-- Node73 -->
<g id="node11" class="node">
<title>Node73</title>
<g id="a_node11"><a xlink:href="d__attention_8h.html" target="_top" xlink:title=" ">
<polygon fill="#fff0f0" stroke="red" points="1388.01,-90.5 1308.01,-90.5 1308.01,-71.5 1388.01,-71.5 1388.01,-90.5"/>
<text text-anchor="middle" x="1348.01" y="-78.5" font-family="Helvetica,sans-Serif" font-size="10.00">d/d_attention.h</text>
</a>
</g>
</g>
<!-- Node56&#45;&gt;Node73 -->
<g id="edge11" class="edge">
<title>Node56&#45;&gt;Node73</title>
<path fill="none" stroke="#63b8ff" d="M1021.31,-142.68C1089.36,-132.93 1199.74,-115.94 1294.01,-96 1297.36,-95.29 1300.82,-94.51 1304.28,-93.69"/>
<polygon fill="#63b8ff" stroke="#63b8ff" points="1304.94,-97.14 1313.81,-91.35 1303.27,-90.34 1304.94,-97.14"/>
</g>
<!-- Node152 -->
<g id="node12" class="node">
<title>Node152</title>
<g id="a_node12"><a xlink:href="d__resorce_8h.html" target="_top" xlink:title=" ">
<polygon fill="#fff0f0" stroke="red" points="577.51,-90.5 502.51,-90.5 502.51,-71.5 577.51,-71.5 577.51,-90.5"/>
<text text-anchor="middle" x="540.01" y="-78.5" font-family="Helvetica,sans-Serif" font-size="10.00">d/d_resorce.h</text>
</a>
</g>
</g>
<!-- Node56&#45;&gt;Node152 -->
<g id="edge12" class="edge">
<title>Node56&#45;&gt;Node152</title>
<path fill="none" stroke="#63b8ff" d="M892.67,-144.63C818.46,-136.07 693.05,-119.62 587.01,-96 584.25,-95.38 581.41,-94.69 578.56,-93.95"/>
<polygon fill="#63b8ff" stroke="#63b8ff" points="579.71,-90.64 569.13,-91.35 577.84,-97.39 579.71,-90.64"/>
</g>
<!-- Node172 -->
<g id="node13" class="node">
<title>Node172</title>
<g id="a_node13"><a xlink:href="d__vibration_8h.html" target="_top" xlink:title=" ">
<polygon fill="#fff0f0" stroke="red" points="676.01,-90.5 596.01,-90.5 596.01,-71.5 676.01,-71.5 676.01,-90.5"/>
<text text-anchor="middle" x="636.01" y="-78.5" font-family="Helvetica,sans-Serif" font-size="10.00">d/d_vibration.h</text>
</a>
</g>
</g>
<!-- Node56&#45;&gt;Node172 -->
<g id="edge13" class="edge">
<title>Node56&#45;&gt;Node172</title>
<path fill="none" stroke="#63b8ff" d="M907.12,-142.51C852.37,-132.38 762.02,-114.83 685.01,-96 682.4,-95.36 679.72,-94.68 677.02,-93.97"/>
<polygon fill="#63b8ff" stroke="#63b8ff" points="678,-90.61 667.43,-91.35 676.16,-97.36 678,-90.61"/>
</g>
<!-- Node174 -->
<g id="node14" class="node">
<title>Node174</title>
<g id="a_node14"><a xlink:href="d__event_8h.html" target="_top" xlink:title=" ">
<polygon fill="#fff0f0" stroke="red" points="884.01,-90.5 790.01,-90.5 790.01,-71.5 884.01,-71.5 884.01,-90.5"/>
<text text-anchor="middle" x="837.01" y="-78.5" font-family="Helvetica,sans-Serif" font-size="10.00">d/event/d_event.h</text>
</a>
</g>
</g>
<!-- Node56&#45;&gt;Node174 -->
<g id="edge15" class="edge">
<title>Node56&#45;&gt;Node174</title>
<path fill="none" stroke="#63b8ff" d="M941.81,-142.7C921.82,-131.12 886.39,-110.6 862.32,-96.66"/>
<polygon fill="#63b8ff" stroke="#63b8ff" points="864.18,-93.69 853.77,-91.71 860.67,-99.75 864.18,-93.69"/>
</g>
<!-- Node195 -->
<g id="node15" class="node">
<title>Node195</title>
<g id="a_node15"><a xlink:href="d__event__manager_8h.html" target="_top" xlink:title=" ">
<polygon fill="#fff0f0" stroke="red" points="484.51,-90.5 347.51,-90.5 347.51,-71.5 484.51,-71.5 484.51,-90.5"/>
<text text-anchor="middle" x="416.01" y="-78.5" font-family="Helvetica,sans-Serif" font-size="10.00">d/event/d_event_manager.h</text>
</a>
</g>
</g>
<!-- Node56&#45;&gt;Node195 -->
<g id="edge17" class="edge">
<title>Node56&#45;&gt;Node195</title>
<path fill="none" stroke="#63b8ff" d="M892.67,-145.05C802.94,-135.78 635.21,-117.41 493.01,-96 486.73,-95.05 480.17,-93.99 473.65,-92.87"/>
<polygon fill="#63b8ff" stroke="#63b8ff" points="474.71,-89.5 464.25,-91.23 473.5,-96.4 474.71,-89.5"/>
</g>
<!-- Node197 -->
<g id="node16" class="node">
<title>Node197</title>
<g id="a_node16"><a xlink:href="d__particle_8h.html" target="_top" xlink:title=" ">
<polygon fill="#fff0f0" stroke="red" points="1011.51,-90.5 902.51,-90.5 902.51,-71.5 1011.51,-71.5 1011.51,-90.5"/>
<text text-anchor="middle" x="957.01" y="-78.5" font-family="Helvetica,sans-Serif" font-size="10.00">d/particle/d_particle.h</text>
</a>
</g>
</g>
<!-- Node56&#45;&gt;Node197 -->
<g id="edge19" class="edge">
<title>Node56&#45;&gt;Node197</title>
<path fill="none" stroke="#63b8ff" d="M957.01,-142.7C957.01,-132.62 957.01,-115.79 957.01,-102.4"/>
<polygon fill="#63b8ff" stroke="#63b8ff" points="960.51,-102.46 957.01,-92.46 953.51,-102.46 960.51,-102.46"/>
</g>
<!-- Node205 -->
<g id="node17" class="node">
<title>Node205</title>
<g id="a_node17"><a xlink:href="f__op__camera__mng_8h.html" target="_top" xlink:title=" ">
<polygon fill="#fff0f0" stroke="red" points="1156.01,-90.5 1030.01,-90.5 1030.01,-71.5 1156.01,-71.5 1156.01,-90.5"/>
<text text-anchor="middle" x="1093.01" y="-78.5" font-family="Helvetica,sans-Serif" font-size="10.00">f_op/f_op_camera_mng.h</text>
</a>
</g>
</g>
<!-- Node56&#45;&gt;Node205 -->
<g id="edge20" class="edge">
<title>Node56&#45;&gt;Node205</title>
<path fill="none" stroke="#63b8ff" d="M974.51,-142.56C997.57,-130.78 1038.36,-109.93 1065.54,-96.04"/>
<polygon fill="#63b8ff" stroke="#63b8ff" points="1066.92,-99.27 1074.23,-91.6 1063.73,-93.03 1066.92,-99.27"/>
</g>
<!-- Node57&#45;&gt;Node20 -->
<g id="edge8" class="edge">
<title>Node57&#45;&gt;Node20</title>
<path fill="none" stroke="#63b8ff" d="M1213.01,-71.1C1213.01,-62.12 1213.01,-47.95 1213.01,-36.22"/>
<polygon fill="#63b8ff" stroke="#63b8ff" points="1216.51,-36.34 1213.01,-26.34 1209.51,-36.34 1216.51,-36.34"/>
</g>
<!-- Node63&#45;&gt;Node20 -->
<g id="edge10" class="edge">
<title>Node63&#45;&gt;Node20</title>
<path fill="none" stroke="#63b8ff" d="M760.73,-71.05C767.33,-69.17 774.37,-67.34 781.01,-66 926.07,-36.67 1102.26,-22.94 1176.86,-18.12"/>
<polygon fill="#63b8ff" stroke="#63b8ff" points="1176.67,-21.64 1186.43,-17.51 1176.23,-14.65 1176.67,-21.64"/>
</g>
<!-- Node172&#45;&gt;Node4 -->
<g id="edge14" class="edge">
<title>Node172&#45;&gt;Node4</title>
<path fill="none" stroke="#63b8ff" d="M605.42,-71.1C572.26,-61.45 518.47,-45.81 476.67,-33.65"/>
<polygon fill="#63b8ff" stroke="#63b8ff" points="477.81,-30.33 467.23,-30.9 475.85,-37.05 477.81,-30.33"/>
</g>
<!-- Node174&#45;&gt;Node20 -->
<g id="edge16" class="edge">
<title>Node174&#45;&gt;Node20</title>
<path fill="none" stroke="#63b8ff" d="M870.66,-71.07C878,-69.26 885.74,-67.47 893.01,-66 995.05,-45.32 1116.88,-28.4 1176.5,-20.62"/>
<polygon fill="#63b8ff" stroke="#63b8ff" points="1176.6,-24.13 1186.07,-19.38 1175.7,-17.19 1176.6,-24.13"/>
</g>
<!-- Node195&#45;&gt;Node4 -->
<g id="edge18" class="edge">
<title>Node195&#45;&gt;Node4</title>
<path fill="none" stroke="#63b8ff" d="M416.01,-71.1C416.01,-63.41 416.01,-51.92 416.01,-41.42"/>
<polygon fill="#63b8ff" stroke="#63b8ff" points="419.51,-41.75 416.01,-31.75 412.51,-41.75 419.51,-41.75"/>
</g>
<!-- Node23 -->
<g id="node20" class="node">
<title>Node23</title>
<g id="a_node20"><a xlink:href="____va__arg_8h.html" target="_top" xlink:title=" ">
<polygon fill="#fff0f0" stroke="red" points="2916.01,-96 2806.01,-96 2806.01,-66 2916.01,-66 2916.01,-96"/>
<text text-anchor="start" x="2814.01" y="-84" font-family="Helvetica,sans-Serif" font-size="10.00">Runtime.PPCEABI.H/</text>
<text text-anchor="middle" x="2861.01" y="-73" font-family="Helvetica,sans-Serif" font-size="10.00">__va_arg.h</text>
</a>
</g>
</g>
<!-- Node22&#45;&gt;Node23 -->
<g id="edge24" class="edge">
<title>Node22&#45;&gt;Node23</title>
<path fill="none" stroke="#63b8ff" d="M1957.72,-142.6C1967.52,-138.6 1979.67,-134.28 1991.01,-132 2338.85,-62 2439.35,-140.79 2794.23,-96.19"/>
<polygon fill="#63b8ff" stroke="#63b8ff" points="2794.64,-99.66 2804.11,-94.92 2793.74,-92.72 2794.64,-99.66"/>
</g>
<!-- Node24 -->
<g id="node21" class="node">
<title>Node24</title>
<g id="a_node21"><a xlink:href="dvd_8h.html" target="_top" xlink:title=" ">
<polygon fill="#fff0f0" stroke="red" points="3026.01,-90.5 2934.01,-90.5 2934.01,-71.5 3026.01,-71.5 3026.01,-90.5"/>
<text text-anchor="middle" x="2980.01" y="-78.5" font-family="Helvetica,sans-Serif" font-size="10.00">dolphin/dvd/dvd.h</text>
</a>
</g>
</g>
<!-- Node22&#45;&gt;Node24 -->
<g id="edge25" class="edge">
<title>Node22&#45;&gt;Node24</title>
<path fill="none" stroke="#63b8ff" d="M1957.72,-142.57C1967.51,-138.57 1979.66,-134.25 1991.01,-132 2398.51,-51.29 2513.88,-155.57 2925.01,-96 2929.44,-95.36 2934.02,-94.5 2938.57,-93.53"/>
<polygon fill="#63b8ff" stroke="#63b8ff" points="2939.28,-96.96 2948.22,-91.28 2937.69,-90.15 2939.28,-96.96"/>
</g>
<!-- Node25 -->
<g id="node22" class="node">
<title>Node25</title>
<g id="a_node22"><a xlink:href="OSAlarm_8h.html" target="_top" xlink:title=" ">
<polygon fill="#fff0f0" stroke="red" points="1555.51,-90.5 1444.51,-90.5 1444.51,-71.5 1555.51,-71.5 1555.51,-90.5"/>
<text text-anchor="middle" x="1500.01" y="-78.5" font-family="Helvetica,sans-Serif" font-size="10.00">dolphin/os/OSAlarm.h</text>
</a>
</g>
</g>
<!-- Node22&#45;&gt;Node25 -->
<g id="edge26" class="edge">
<title>Node22&#45;&gt;Node25</title>
<path fill="none" stroke="#63b8ff" d="M1917.63,-142.53C1908.18,-138.72 1896.7,-134.57 1886.01,-132 1748.58,-98.94 1709.66,-117.88 1570.01,-96 1564.41,-95.12 1558.59,-94.11 1552.79,-93.05"/>
<polygon fill="#63b8ff" stroke="#63b8ff" points="1553.7,-89.66 1543.22,-91.22 1552.39,-96.53 1553.7,-89.66"/>
</g>
<!-- Node26 -->
<g id="node23" class="node">
<title>Node26</title>
<g id="a_node23"><a xlink:href="OSError_8h.html" target="_top" xlink:title=" ">
<polygon fill="#fff0f0" stroke="red" points="1595.01,-24.5 1489.01,-24.5 1489.01,-5.5 1595.01,-5.5 1595.01,-24.5"/>
<text text-anchor="middle" x="1542.01" y="-12.5" font-family="Helvetica,sans-Serif" font-size="10.00">dolphin/os/OSError.h</text>
</a>
</g>
</g>
<!-- Node22&#45;&gt;Node26 -->
<g id="edge33" class="edge">
<title>Node22&#45;&gt;Node26</title>
<path fill="none" stroke="#63b8ff" d="M1917.61,-142.6C1908.16,-138.8 1896.68,-134.64 1886.01,-132 1763.37,-101.61 1713.71,-158.7 1604.01,-96 1579.39,-81.93 1561.16,-53.8 1551.06,-34.93"/>
<polygon fill="#63b8ff" stroke="#63b8ff" points="1554.27,-33.52 1546.63,-26.18 1548.03,-36.68 1554.27,-33.52"/>
</g>
<!-- Node28 -->
<g id="node24" class="node">
<title>Node28</title>
<g id="a_node24"><a xlink:href="OSAlloc_8h.html" target="_top" xlink:title=" ">
<polygon fill="#fff0f0" stroke="red" points="1719.51,-90.5 1612.51,-90.5 1612.51,-71.5 1719.51,-71.5 1719.51,-90.5"/>
<text text-anchor="middle" x="1666.01" y="-78.5" font-family="Helvetica,sans-Serif" font-size="10.00">dolphin/os/OSAlloc.h</text>
</a>
</g>
</g>
<!-- Node22&#45;&gt;Node28 -->
<g id="edge28" class="edge">
<title>Node22&#45;&gt;Node28</title>
<path fill="none" stroke="#63b8ff" d="M1916.22,-142.58C1907,-139 1896.08,-135.02 1886.01,-132 1877.86,-129.56 1779.5,-107.41 1717.09,-93.43"/>
<polygon fill="#63b8ff" stroke="#63b8ff" points="1717.88,-90.02 1707.36,-91.25 1716.35,-96.85 1717.88,-90.02"/>
</g>
<!-- Node29 -->
<g id="node25" class="node">
<title>Node29</title>
<g id="a_node25"><a xlink:href="OSArena_8h.html" target="_top" xlink:title=" ">
<polygon fill="#fff0f0" stroke="red" points="1848.51,-90.5 1737.51,-90.5 1737.51,-71.5 1848.51,-71.5 1848.51,-90.5"/>
<text text-anchor="middle" x="1793.01" y="-78.5" font-family="Helvetica,sans-Serif" font-size="10.00">dolphin/os/OSArena.h</text>
</a>
</g>
</g>
<!-- Node22&#45;&gt;Node29 -->
<g id="edge29" class="edge">
<title>Node22&#45;&gt;Node29</title>
<path fill="none" stroke="#63b8ff" d="M1919.35,-142.56C1894.66,-130.72 1850.89,-109.74 1821.91,-95.85"/>
<polygon fill="#63b8ff" stroke="#63b8ff" points="1823.49,-92.73 1812.96,-91.56 1820.47,-99.04 1823.49,-92.73"/>
</g>
<!-- Node30 -->
<g id="node26" class="node">
<title>Node30</title>
<g id="a_node26"><a xlink:href="OSAudioSystem_8h.html" target="_top" xlink:title=" ">
<polygon fill="white" stroke="#666666" points="2009.51,-90.5 1866.51,-90.5 1866.51,-71.5 2009.51,-71.5 2009.51,-90.5"/>
<text text-anchor="middle" x="1938.01" y="-78.5" font-family="Helvetica,sans-Serif" font-size="10.00">dolphin/os/OSAudioSystem.h</text>
</a>
</g>
</g>
<!-- Node22&#45;&gt;Node30 -->
<g id="edge30" class="edge">
<title>Node22&#45;&gt;Node30</title>
<path fill="none" stroke="#63b8ff" d="M1938.01,-142.7C1938.01,-132.62 1938.01,-115.79 1938.01,-102.4"/>
<polygon fill="#63b8ff" stroke="#63b8ff" points="1941.51,-102.46 1938.01,-92.46 1934.51,-102.46 1941.51,-102.46"/>
</g>
<!-- Node31 -->
<g id="node27" class="node">
<title>Node31</title>
<g id="a_node27"><a xlink:href="OSCache_8h.html" target="_top" xlink:title=" ">
<polygon fill="#fff0f0" stroke="red" points="2140.51,-90.5 2027.51,-90.5 2027.51,-71.5 2140.51,-71.5 2140.51,-90.5"/>
<text text-anchor="middle" x="2084.01" y="-78.5" font-family="Helvetica,sans-Serif" font-size="10.00">dolphin/os/OSCache.h</text>
</a>
</g>
</g>
<!-- Node22&#45;&gt;Node31 -->
<g id="edge31" class="edge">
<title>Node22&#45;&gt;Node31</title>
<path fill="none" stroke="#63b8ff" d="M1956.8,-142.56C1981.66,-130.72 2025.73,-109.74 2054.91,-95.85"/>
<polygon fill="#63b8ff" stroke="#63b8ff" points="2056.4,-99.02 2063.93,-91.56 2053.39,-92.7 2056.4,-99.02"/>
</g>
<!-- Node32 -->
<g id="node28" class="node">
<title>Node32</title>
<g id="a_node28"><a xlink:href="OSContext_8h.html" target="_top" xlink:title=" ">
<polygon fill="#fff0f0" stroke="red" points="2277.51,-90.5 2158.51,-90.5 2158.51,-71.5 2277.51,-71.5 2277.51,-90.5"/>
<text text-anchor="middle" x="2218.01" y="-78.5" font-family="Helvetica,sans-Serif" font-size="10.00">dolphin/os/OSContext.h</text>
</a>
</g>
</g>
<!-- Node22&#45;&gt;Node32 -->
<g id="edge32" class="edge">
<title>Node22&#45;&gt;Node32</title>
<path fill="none" stroke="#63b8ff" d="M1960.22,-142.56C1969.62,-138.98 1980.75,-135 1991.01,-132 2007.53,-127.17 2102.87,-106.56 2164.63,-93.36"/>
<polygon fill="#63b8ff" stroke="#63b8ff" points="2165.21,-96.81 2174.26,-91.3 2163.75,-89.97 2165.21,-96.81"/>
</g>
<!-- Node33 -->
<g id="node29" class="node">
<title>Node33</title>
<g id="a_node29"><a xlink:href="OSExec_8h.html" target="_top" xlink:title=" ">
<polygon fill="#fff0f0" stroke="red" points="2402.51,-90.5 2295.51,-90.5 2295.51,-71.5 2402.51,-71.5 2402.51,-90.5"/>
<text text-anchor="middle" x="2349.01" y="-78.5" font-family="Helvetica,sans-Serif" font-size="10.00">dolphin/os/OSExec.h</text>
</a>
</g>
</g>
<!-- Node22&#45;&gt;Node33 -->
<g id="edge34" class="edge">
<title>Node22&#45;&gt;Node33</title>
<path fill="none" stroke="#63b8ff" d="M1958.81,-142.58C1968.45,-138.78 1980.15,-134.62 1991.01,-132 2119.84,-100.91 2156.43,-118.62 2287.01,-96 2291.6,-95.21 2296.36,-94.29 2301.11,-93.32"/>
<polygon fill="#63b8ff" stroke="#63b8ff" points="2301.56,-96.8 2310.61,-91.3 2300.1,-89.96 2301.56,-96.8"/>
</g>
<!-- Node34 -->
<g id="node30" class="node">
<title>Node34</title>
<g id="a_node30"><a xlink:href="OSFont_8h.html" target="_top" xlink:title=" ">
<polygon fill="#fff0f0" stroke="red" points="2525.51,-90.5 2420.51,-90.5 2420.51,-71.5 2525.51,-71.5 2525.51,-90.5"/>
<text text-anchor="middle" x="2473.01" y="-78.5" font-family="Helvetica,sans-Serif" font-size="10.00">dolphin/os/OSFont.h</text>
</a>
</g>
</g>
<!-- Node22&#45;&gt;Node34 -->
<g id="edge35" class="edge">
<title>Node22&#45;&gt;Node34</title>
<path fill="none" stroke="#63b8ff" d="M1958.27,-142.6C1967.99,-138.71 1979.91,-134.47 1991.01,-132 2174.32,-91.21 2226.48,-125.08 2412.01,-96 2416.72,-95.26 2421.61,-94.37 2426.47,-93.39"/>
<polygon fill="#63b8ff" stroke="#63b8ff" points="2427.16,-96.82 2436.21,-91.31 2425.7,-89.97 2427.16,-96.82"/>
</g>
<!-- Node35 -->
<g id="node31" class="node">
<title>Node35</title>
<g id="a_node31"><a xlink:href="OSInterrupt_8h.html" target="_top" xlink:title=" ">
<polygon fill="#fff0f0" stroke="red" points="2666.01,-90.5 2544.01,-90.5 2544.01,-71.5 2666.01,-71.5 2666.01,-90.5"/>
<text text-anchor="middle" x="2605.01" y="-78.5" font-family="Helvetica,sans-Serif" font-size="10.00">dolphin/os/OSInterrupt.h</text>
</a>
</g>
</g>
<!-- Node22&#45;&gt;Node35 -->
<g id="edge36" class="edge">
<title>Node22&#45;&gt;Node35</title>
<path fill="none" stroke="#63b8ff" d="M1958.24,-142.5C1967.96,-138.59 1979.89,-134.36 1991.01,-132 2228.03,-81.65 2294.8,-127.83 2535.01,-96 2541.08,-95.2 2547.41,-94.18 2553.67,-93.07"/>
<polygon fill="#63b8ff" stroke="#63b8ff" points="2554.14,-96.54 2563.33,-91.26 2552.85,-89.66 2554.14,-96.54"/>
</g>
<!-- Node36 -->
<g id="node32" class="node">
<title>Node36</title>
<g id="a_node32"><a xlink:href="OSLink_8h.html" target="_top" xlink:title=" ">
<polygon fill="#fff0f0" stroke="red" points="2788.01,-90.5 2684.01,-90.5 2684.01,-71.5 2788.01,-71.5 2788.01,-90.5"/>
<text text-anchor="middle" x="2736.01" y="-78.5" font-family="Helvetica,sans-Serif" font-size="10.00">dolphin/os/OSLink.h</text>
</a>
</g>
</g>
<!-- Node22&#45;&gt;Node36 -->
<g id="edge37" class="edge">
<title>Node22&#45;&gt;Node36</title>
<path fill="none" stroke="#63b8ff" d="M1957.98,-142.54C1967.74,-138.58 1979.77,-134.31 1991.01,-132 2289.21,-70.75 2373.53,-138.21 2675.01,-96 2680.05,-95.29 2685.29,-94.38 2690.48,-93.35"/>
<polygon fill="#63b8ff" stroke="#63b8ff" points="2691.15,-96.79 2700.21,-91.29 2689.7,-89.94 2691.15,-96.79"/>
</g>
<!-- Node25&#45;&gt;Node26 -->
<g id="edge27" class="edge">
<title>Node25&#45;&gt;Node26</title>
<path fill="none" stroke="#63b8ff" d="M1505.85,-71.1C1512.06,-61.64 1522.05,-46.42 1529.95,-34.37"/>
<polygon fill="#63b8ff" stroke="#63b8ff" points="1532.83,-36.37 1535.39,-26.09 1526.98,-32.53 1532.83,-36.37"/>
</g>
</g>
</svg>
