<?xml version="1.0" encoding="UTF-8" standalone="no"?>
<!DOCTYPE svg PUBLIC "-//W3C//DTD SVG 1.1//EN"
 "http://www.w3.org/Graphics/SVG/1.1/DTD/svg11.dtd">
<!-- Generated by graphviz version 7.0.5 (20221223.1930)
 -->
<!-- Title: libs/Z2AudioLib/Z2SoundStarter.cpp Pages: 1 -->
<svg width="2273pt" height="654pt"
 viewBox="0.00 0.00 2273.07 654.00" xmlns="http://www.w3.org/2000/svg" xmlns:xlink="http://www.w3.org/1999/xlink">
<g id="graph0" class="graph" transform="scale(1 1) rotate(0) translate(4 650)">
<title>libs/Z2AudioLib/Z2SoundStarter.cpp</title>
<!-- Node1 -->
<g id="node1" class="node">
<title>Node1</title>
<g id="a_node1"><a xlink:title=" ">
<polygon fill="#999999" stroke="#666666" points="1269.5,-646 1096.5,-646 1096.5,-627 1269.5,-627 1269.5,-646"/>
<text text-anchor="middle" x="1183" y="-634" font-family="Helvetica,sans-Serif" font-size="10.00">libs/Z2AudioLib/Z2SoundStarter.cpp</text>
</a>
</g>
</g>
<!-- Node2 -->
<g id="node2" class="node">
<title>Node2</title>
<g id="a_node2"><a xlink:href="Z2SoundStarter_8h.html" target="_top" xlink:title=" ">
<polygon fill="white" stroke="#666666" points="741.5,-580 596.5,-580 596.5,-561 741.5,-561 741.5,-580"/>
<text text-anchor="middle" x="669" y="-568" font-family="Helvetica,sans-Serif" font-size="10.00">Z2AudioLib/Z2SoundStarter.h</text>
</a>
</g>
</g>
<!-- Node1&#45;&gt;Node2 -->
<g id="edge1" class="edge">
<title>Node1&#45;&gt;Node2</title>
<path fill="none" stroke="#63b8ff" d="M1096.28,-630.02C1008.53,-623.66 869.18,-611.38 750,-591 737.9,-588.93 724.92,-586.09 712.97,-583.22"/>
<polygon fill="#63b8ff" stroke="#63b8ff" points="713.91,-579.85 703.37,-580.84 712.23,-586.64 713.91,-579.85"/>
</g>
<!-- Node47 -->
<g id="node44" class="node">
<title>Node47</title>
<g id="a_node44"><a xlink:href="dol2asm_8h.html" target="_top" xlink:title=" ">
<polygon fill="white" stroke="#666666" points="820.5,-580 759.5,-580 759.5,-561 820.5,-561 820.5,-580"/>
<text text-anchor="middle" x="790" y="-568" font-family="Helvetica,sans-Serif" font-size="10.00">dol2asm.h</text>
</a>
</g>
</g>
<!-- Node1&#45;&gt;Node47 -->
<g id="edge71" class="edge">
<title>Node1&#45;&gt;Node47</title>
<path fill="none" stroke="#63b8ff" d="M1096.19,-632.75C1023.46,-628.53 917.62,-617.87 829,-591 824.27,-589.57 819.42,-587.6 814.82,-585.46"/>
<polygon fill="#63b8ff" stroke="#63b8ff" points="816.55,-582.41 806.04,-581.02 813.38,-588.66 816.55,-582.41"/>
</g>
<!-- Node48 -->
<g id="node45" class="node">
<title>Node48</title>
<g id="a_node45"><a xlink:title=" ">
<polygon fill="#e0e0e0" stroke="#999999" points="997.5,-585.5 838.5,-585.5 838.5,-555.5 997.5,-555.5 997.5,-585.5"/>
<text text-anchor="start" x="846.5" y="-573.5" font-family="Helvetica,sans-Serif" font-size="10.00">asm/Z2AudioLib/Z2SoundStarter</text>
<text text-anchor="middle" x="918" y="-562.5" font-family="Helvetica,sans-Serif" font-size="10.00">/__ct__14Z2SoundStarterFb.s</text>
</a>
</g>
</g>
<!-- Node1&#45;&gt;Node48 -->
<g id="edge72" class="edge">
<title>Node1&#45;&gt;Node48</title>
<path fill="none" stroke="#63b8ff" d="M1145.87,-626.53C1105.35,-616.75 1039.51,-600.85 988.99,-588.65"/>
<polygon fill="#63b8ff" stroke="#63b8ff" points="989.83,-585.25 979.28,-586.3 988.18,-592.05 989.83,-585.25"/>
</g>
<!-- Node49 -->
<g id="node46" class="node">
<title>Node49</title>
<g id="a_node46"><a xlink:title=" ">
<polygon fill="#e0e0e0" stroke="#999999" points="1174.5,-585.5 1015.5,-585.5 1015.5,-555.5 1174.5,-555.5 1174.5,-585.5"/>
<text text-anchor="start" x="1023.5" y="-573.5" font-family="Helvetica,sans-Serif" font-size="10.00">asm/Z2AudioLib/Z2SoundStarter</text>
<text text-anchor="middle" x="1095" y="-562.5" font-family="Helvetica,sans-Serif" font-size="10.00">/func_802AABF4.s</text>
</a>
</g>
</g>
<!-- Node1&#45;&gt;Node49 -->
<g id="edge73" class="edge">
<title>Node1&#45;&gt;Node49</title>
<path fill="none" stroke="#63b8ff" d="M1170.76,-626.6C1158.68,-617.82 1139.76,-604.05 1123.85,-592.48"/>
<polygon fill="#63b8ff" stroke="#63b8ff" points="1126.28,-589.92 1116.13,-586.87 1122.16,-595.58 1126.28,-589.92"/>
</g>
<!-- Node50 -->
<g id="node47" class="node">
<title>Node50</title>
<g id="a_node47"><a xlink:title=" ">
<polygon fill="#e0e0e0" stroke="#999999" points="1351.5,-585.5 1192.5,-585.5 1192.5,-555.5 1351.5,-555.5 1351.5,-585.5"/>
<text text-anchor="start" x="1200.5" y="-573.5" font-family="Helvetica,sans-Serif" font-size="10.00">asm/Z2AudioLib/Z2SoundStarter</text>
<text text-anchor="middle" x="1272" y="-562.5" font-family="Helvetica,sans-Serif" font-size="10.00">/func_802AAC3C.s</text>
</a>
</g>
</g>
<!-- Node1&#45;&gt;Node50 -->
<g id="edge74" class="edge">
<title>Node1&#45;&gt;Node50</title>
<path fill="none" stroke="#63b8ff" d="M1195.38,-626.6C1207.59,-617.82 1226.73,-604.05 1242.82,-592.48"/>
<polygon fill="#63b8ff" stroke="#63b8ff" points="1244.56,-595.54 1250.64,-586.86 1240.48,-589.86 1244.56,-595.54"/>
</g>
<!-- Node51 -->
<g id="node48" class="node">
<title>Node51</title>
<g id="a_node48"><a xlink:title=" ">
<polygon fill="#e0e0e0" stroke="#999999" points="1554,-591 1370,-591 1370,-550 1554,-550 1554,-591"/>
<text text-anchor="start" x="1378" y="-579" font-family="Helvetica,sans-Serif" font-size="10.00">asm/Z2AudioLib/Z2SoundStarter</text>
<text text-anchor="start" x="1378" y="-568" font-family="Helvetica,sans-Serif" font-size="10.00">/setPortData__14Z2SoundStarterFP14</text>
<text text-anchor="middle" x="1462" y="-557" font-family="Helvetica,sans-Serif" font-size="10.00">JAISoundHandleUlUsSc.s</text>
</a>
</g>
</g>
<!-- Node1&#45;&gt;Node51 -->
<g id="edge75" class="edge">
<title>Node1&#45;&gt;Node51</title>
<path fill="none" stroke="#63b8ff" d="M1222.09,-626.53C1258.76,-618.12 1315.12,-605.19 1364,-593.98"/>
<polygon fill="#63b8ff" stroke="#63b8ff" points="1364.51,-597.45 1373.47,-591.81 1362.94,-590.63 1364.51,-597.45"/>
</g>
<!-- Node52 -->
<g id="node49" class="node">
<title>Node52</title>
<g id="a_node49"><a xlink:title=" ">
<polygon fill="#e0e0e0" stroke="#999999" points="1756,-591 1572,-591 1572,-550 1756,-550 1756,-591"/>
<text text-anchor="start" x="1580" y="-579" font-family="Helvetica,sans-Serif" font-size="10.00">asm/Z2AudioLib/Z2SoundStarter</text>
<text text-anchor="start" x="1580" y="-568" font-family="Helvetica,sans-Serif" font-size="10.00">/getPortData__14Z2SoundStarterFP14</text>
<text text-anchor="middle" x="1664" y="-557" font-family="Helvetica,sans-Serif" font-size="10.00">JAISoundHandleUlSc.s</text>
</a>
</g>
</g>
<!-- Node1&#45;&gt;Node52 -->
<g id="edge76" class="edge">
<title>Node1&#45;&gt;Node52</title>
<path fill="none" stroke="#63b8ff" d="M1269.65,-627.2C1344.19,-619.64 1454.86,-607.4 1560.4,-591.35"/>
<polygon fill="#63b8ff" stroke="#63b8ff" points="1560.73,-594.84 1570.08,-589.86 1559.67,-587.92 1560.73,-594.84"/>
</g>
<!-- Node53 -->
<g id="node50" class="node">
<title>Node53</title>
<g id="a_node50"><a xlink:title=" ">
<polygon fill="#e0e0e0" stroke="#999999" points="1933.5,-585.5 1774.5,-585.5 1774.5,-555.5 1933.5,-555.5 1933.5,-585.5"/>
<text text-anchor="start" x="1782.5" y="-573.5" font-family="Helvetica,sans-Serif" font-size="10.00">asm/Z2AudioLib/Z2SoundStarter</text>
<text text-anchor="middle" x="1854" y="-562.5" font-family="Helvetica,sans-Serif" font-size="10.00">/__dt__14Z2SoundStarterFv.s</text>
</a>
</g>
</g>
<!-- Node1&#45;&gt;Node53 -->
<g id="edge77" class="edge">
<title>Node1&#45;&gt;Node53</title>
<path fill="none" stroke="#63b8ff" d="M1269.7,-632.64C1383.78,-628.02 1590.3,-616.69 1765,-591 1770.63,-590.17 1776.43,-589.19 1782.24,-588.12"/>
<polygon fill="#63b8ff" stroke="#63b8ff" points="1782.77,-591.58 1791.92,-586.25 1781.44,-584.71 1782.77,-591.58"/>
</g>
<!-- Node3 -->
<g id="node3" class="node">
<title>Node3</title>
<g id="a_node3"><a xlink:href="JAISoundStarter_8h.html" target="_top" xlink:title=" ">
<polygon fill="white" stroke="#666666" points="787.5,-514 648.5,-514 648.5,-484 787.5,-484 787.5,-514"/>
<text text-anchor="start" x="656.5" y="-502" font-family="Helvetica,sans-Serif" font-size="10.00">JSystem/JAudio2/JAISound</text>
<text text-anchor="middle" x="718" y="-491" font-family="Helvetica,sans-Serif" font-size="10.00">Starter.h</text>
</a>
</g>
</g>
<!-- Node2&#45;&gt;Node3 -->
<g id="edge2" class="edge">
<title>Node2&#45;&gt;Node3</title>
<path fill="none" stroke="#63b8ff" d="M675.21,-560.7C681.77,-551.38 692.41,-536.29 701.44,-523.49"/>
<polygon fill="#63b8ff" stroke="#63b8ff" points="704.16,-525.7 707.06,-515.51 698.44,-521.67 704.16,-525.7"/>
</g>
<!-- Node17 -->
<g id="node14" class="node">
<title>Node17</title>
<g id="a_node14"><a xlink:href="JASGadget_8h.html" target="_top" xlink:title=" ">
<polygon fill="white" stroke="#666666" points="697,-448 543,-448 543,-429 697,-429 697,-448"/>
<text text-anchor="middle" x="620" y="-436" font-family="Helvetica,sans-Serif" font-size="10.00">JSystem/JAudio2/JASGadget.h</text>
</a>
</g>
</g>
<!-- Node2&#45;&gt;Node17 -->
<g id="edge70" class="edge">
<title>Node2&#45;&gt;Node17</title>
<path fill="none" stroke="#63b8ff" d="M663.41,-560.79C656.78,-550.13 645.78,-531.34 639,-514 632.01,-496.13 626.88,-474.84 623.73,-459.6"/>
<polygon fill="#63b8ff" stroke="#63b8ff" points="627.19,-459.06 621.83,-449.92 620.32,-460.41 627.19,-459.06"/>
</g>
<!-- Node4 -->
<g id="node4" class="node">
<title>Node4</title>
<g id="a_node4"><a xlink:href="JAISound_8h.html" target="_top" xlink:title=" ">
<polygon fill="white" stroke="#666666" points="2165,-338 2019,-338 2019,-319 2165,-319 2165,-338"/>
<text text-anchor="middle" x="2092" y="-326" font-family="Helvetica,sans-Serif" font-size="10.00">JSystem/JAudio2/JAISound.h</text>
</a>
</g>
</g>
<!-- Node3&#45;&gt;Node4 -->
<g id="edge3" class="edge">
<title>Node3&#45;&gt;Node4</title>
<path fill="none" stroke="#63b8ff" d="M787.55,-489.47C1018.04,-461.2 1756.41,-370.65 2007.5,-339.86"/>
<polygon fill="#63b8ff" stroke="#63b8ff" points="2007.72,-343.36 2017.22,-338.67 2006.87,-336.41 2007.72,-343.36"/>
</g>
<!-- Node3&#45;&gt;Node17 -->
<g id="edge15" class="edge">
<title>Node3&#45;&gt;Node17</title>
<path fill="none" stroke="#63b8ff" d="M693.78,-483.54C678.76,-474.58 659.54,-463.1 644.48,-454.11"/>
<polygon fill="#63b8ff" stroke="#63b8ff" points="646.5,-451.24 636.12,-449.12 642.91,-457.25 646.5,-451.24"/>
</g>
<!-- Node5 -->
<g id="node5" class="node">
<title>Node5</title>
<g id="a_node5"><a xlink:href="JAISoundParams_8h.html" target="_top" xlink:title=" ">
<polygon fill="white" stroke="#666666" points="2080.5,-283 1941.5,-283 1941.5,-253 2080.5,-253 2080.5,-283"/>
<text text-anchor="start" x="1949.5" y="-271" font-family="Helvetica,sans-Serif" font-size="10.00">JSystem/JAudio2/JAISound</text>
<text text-anchor="middle" x="2011" y="-260" font-family="Helvetica,sans-Serif" font-size="10.00">Params.h</text>
</a>
</g>
</g>
<!-- Node4&#45;&gt;Node5 -->
<g id="edge4" class="edge">
<title>Node4&#45;&gt;Node5</title>
<path fill="none" stroke="#63b8ff" d="M2079.7,-318.62C2069.2,-311.03 2053.68,-299.82 2040.05,-289.98"/>
<polygon fill="#63b8ff" stroke="#63b8ff" points="2042.38,-287.34 2032.22,-284.33 2038.28,-293.02 2042.38,-287.34"/>
</g>
<!-- Node9 -->
<g id="node9" class="node">
<title>Node9</title>
<g id="a_node9"><a xlink:href="JAIAudible_8h.html" target="_top" xlink:title=" ">
<polygon fill="white" stroke="#666666" points="2249.5,-277.5 2098.5,-277.5 2098.5,-258.5 2249.5,-258.5 2249.5,-277.5"/>
<text text-anchor="middle" x="2174" y="-265.5" font-family="Helvetica,sans-Serif" font-size="10.00">JSystem/JAudio2/JAIAudible.h</text>
</a>
</g>
</g>
<!-- Node4&#45;&gt;Node9 -->
<g id="edge8" class="edge">
<title>Node4&#45;&gt;Node9</title>
<path fill="none" stroke="#63b8ff" d="M2104.45,-318.62C2117.1,-309.6 2136.93,-295.45 2152.19,-284.56"/>
<polygon fill="#63b8ff" stroke="#63b8ff" points="2154.09,-287.5 2160.2,-278.85 2150.02,-281.81 2154.09,-287.5"/>
</g>
<!-- Node16 -->
<g id="node13" class="node">
<title>Node16</title>
<g id="a_node13"><a xlink:href="global_8h.html" target="_top" xlink:title=" ">
<polygon fill="white" stroke="#666666" points="2261,-217 2211,-217 2211,-198 2261,-198 2261,-217"/>
<text text-anchor="middle" x="2236" y="-205" font-family="Helvetica,sans-Serif" font-size="10.00">global.h</text>
</a>
</g>
</g>
<!-- Node4&#45;&gt;Node16 -->
<g id="edge13" class="edge">
<title>Node4&#45;&gt;Node16</title>
<path fill="none" stroke="#63b8ff" d="M2156.35,-318.55C2197.8,-311.32 2246.25,-299.59 2259,-283 2271.84,-266.29 2260.56,-242.35 2249.74,-226.15"/>
<polygon fill="#63b8ff" stroke="#63b8ff" points="2252.86,-224.5 2244.17,-218.43 2247.18,-228.59 2252.86,-224.5"/>
</g>
<!-- Node6 -->
<g id="node6" class="node">
<title>Node6</title>
<g id="a_node6"><a xlink:href="JASSoundParams_8h.html" target="_top" xlink:title=" ">
<polygon fill="white" stroke="#666666" points="1934.5,-162 1791.5,-162 1791.5,-132 1934.5,-132 1934.5,-162"/>
<text text-anchor="start" x="1799.5" y="-150" font-family="Helvetica,sans-Serif" font-size="10.00">JSystem/JAudio2/JASSound</text>
<text text-anchor="middle" x="1863" y="-139" font-family="Helvetica,sans-Serif" font-size="10.00">Params.h</text>
</a>
</g>
</g>
<!-- Node5&#45;&gt;Node6 -->
<g id="edge5" class="edge">
<title>Node5&#45;&gt;Node6</title>
<path fill="none" stroke="#63b8ff" d="M2006.65,-252.55C2001.37,-237.23 1991.14,-213.18 1975,-198 1960.74,-184.59 1942.28,-174.36 1924.47,-166.76"/>
<polygon fill="#63b8ff" stroke="#63b8ff" points="1925.79,-163.52 1915.21,-163.03 1923.18,-170.01 1925.79,-163.52"/>
</g>
<!-- Node7 -->
<g id="node7" class="node">
<title>Node7</title>
<g id="a_node7"><a xlink:href="types_8h.html" target="_top" xlink:title=" ">
<polygon fill="white" stroke="#666666" points="1232.5,-90.5 1151.5,-90.5 1151.5,-71.5 1232.5,-71.5 1232.5,-90.5"/>
<text text-anchor="middle" x="1192" y="-78.5" font-family="Helvetica,sans-Serif" font-size="10.00">dolphin/types.h</text>
</a>
</g>
</g>
<!-- Node6&#45;&gt;Node7 -->
<g id="edge6" class="edge">
<title>Node6&#45;&gt;Node7</title>
<path fill="none" stroke="#63b8ff" d="M1791.26,-133.9C1786.44,-133.22 1781.65,-132.58 1777,-132 1580.97,-107.7 1346.52,-91.54 1244.13,-85.12"/>
<polygon fill="#63b8ff" stroke="#63b8ff" points="1244.6,-81.64 1234.4,-84.51 1244.17,-88.63 1244.6,-81.64"/>
</g>
<!-- Node8 -->
<g id="node8" class="node">
<title>Node8</title>
<g id="a_node8"><a xlink:href="stddef_8h.html" target="_top" xlink:title=" ">
<polygon fill="white" stroke="#666666" points="444,-30 308,-30 308,0 444,0 444,-30"/>
<text text-anchor="start" x="316" y="-18" font-family="Helvetica,sans-Serif" font-size="10.00">MSL_C/MSL_Common/Src</text>
<text text-anchor="middle" x="376" y="-7" font-family="Helvetica,sans-Serif" font-size="10.00">/stddef.h</text>
</a>
</g>
</g>
<!-- Node7&#45;&gt;Node8 -->
<g id="edge7" class="edge">
<title>Node7&#45;&gt;Node8</title>
<path fill="none" stroke="#63b8ff" d="M1151.26,-76.8C1023.15,-66.76 626.92,-35.68 455.92,-22.27"/>
<polygon fill="#63b8ff" stroke="#63b8ff" points="456.24,-18.78 446,-21.49 455.7,-25.76 456.24,-18.78"/>
</g>
<!-- Node10 -->
<g id="node10" class="node">
<title>Node10</title>
<g id="a_node10"><a xlink:href="JGeometry_8h.html" target="_top" xlink:title=" ">
<polygon fill="#fff0f0" stroke="red" points="2151.5,-217 2038.5,-217 2038.5,-198 2151.5,-198 2151.5,-217"/>
<text text-anchor="middle" x="2095" y="-205" font-family="Helvetica,sans-Serif" font-size="10.00">JSystem/JGeometry.h</text>
</a>
</g>
</g>
<!-- Node9&#45;&gt;Node10 -->
<g id="edge9" class="edge">
<title>Node9&#45;&gt;Node10</title>
<path fill="none" stroke="#63b8ff" d="M2162,-258.12C2149.82,-249.1 2130.71,-234.95 2116.02,-224.06"/>
<polygon fill="#63b8ff" stroke="#63b8ff" points="2118.45,-221.51 2108.33,-218.37 2114.28,-227.13 2118.45,-221.51"/>
</g>
<!-- Node11 -->
<g id="node11" class="node">
<title>Node11</title>
<g id="a_node11"><a xlink:href="vec_8h.html" target="_top" xlink:title=" ">
<polygon fill="white" stroke="#666666" points="2141,-156.5 2049,-156.5 2049,-137.5 2141,-137.5 2141,-156.5"/>
<text text-anchor="middle" x="2095" y="-144.5" font-family="Helvetica,sans-Serif" font-size="10.00">dolphin/mtx/vec.h</text>
</a>
</g>
</g>
<!-- Node10&#45;&gt;Node11 -->
<g id="edge10" class="edge">
<title>Node10&#45;&gt;Node11</title>
<path fill="none" stroke="#63b8ff" d="M2095,-197.87C2095,-190 2095,-178.1 2095,-167.89"/>
<polygon fill="#63b8ff" stroke="#63b8ff" points="2098.5,-168.18 2095,-158.18 2091.5,-168.18 2098.5,-168.18"/>
</g>
<!-- Node12 -->
<g id="node12" class="node">
<title>Node12</title>
<g id="a_node12"><a xlink:href="float_8h.html" target="_top" xlink:title=" ">
<polygon fill="#fff0f0" stroke="red" points="2031,-156.5 1953,-156.5 1953,-137.5 2031,-137.5 2031,-156.5"/>
<text text-anchor="middle" x="1992" y="-144.5" font-family="Helvetica,sans-Serif" font-size="10.00">MSL_C/float.h</text>
</a>
</g>
</g>
<!-- Node10&#45;&gt;Node12 -->
<g id="edge12" class="edge">
<title>Node10&#45;&gt;Node12</title>
<path fill="none" stroke="#63b8ff" d="M2079.36,-197.62C2063.02,-188.34 2037.13,-173.63 2017.77,-162.64"/>
<polygon fill="#63b8ff" stroke="#63b8ff" points="2019.53,-159.61 2009.11,-157.72 2016.07,-165.7 2019.53,-159.61"/>
</g>
<!-- Node11&#45;&gt;Node7 -->
<g id="edge11" class="edge">
<title>Node11&#45;&gt;Node7</title>
<path fill="none" stroke="#63b8ff" d="M2064.09,-137.03C2056.29,-135.08 2047.89,-133.22 2040,-132 1741.52,-85.64 1377.83,-81.46 1244.34,-81.64"/>
<polygon fill="#63b8ff" stroke="#63b8ff" points="1244.4,-78.14 1234.41,-81.66 1244.41,-85.14 1244.4,-78.14"/>
</g>
<!-- Node16&#45;&gt;Node7 -->
<g id="edge14" class="edge">
<title>Node16&#45;&gt;Node7</title>
<path fill="none" stroke="#63b8ff" d="M2229.16,-197.52C2215.96,-180.99 2185.18,-146.17 2150,-132 2065.92,-98.12 1432.02,-85.71 1244.25,-82.75"/>
<polygon fill="#63b8ff" stroke="#63b8ff" points="1244.36,-79.25 1234.31,-82.59 1244.25,-86.25 1244.36,-79.25"/>
</g>
<!-- Node18 -->
<g id="node15" class="node">
<title>Node18</title>
<g id="a_node15"><a xlink:href="JUTAssert_8h.html" target="_top" xlink:title=" ">
<polygon fill="white" stroke="#666666" points="693,-393 547,-393 547,-374 693,-374 693,-393"/>
<text text-anchor="middle" x="620" y="-381" font-family="Helvetica,sans-Serif" font-size="10.00">JSystem/JUtility/JUTAssert.h</text>
</a>
</g>
</g>
<!-- Node17&#45;&gt;Node18 -->
<g id="edge16" class="edge">
<title>Node17&#45;&gt;Node18</title>
<path fill="none" stroke="#63b8ff" d="M620,-428.75C620,-422.27 620,-413.16 620,-404.9"/>
<polygon fill="#63b8ff" stroke="#63b8ff" points="623.5,-404.96 620,-394.96 616.5,-404.96 623.5,-404.96"/>
</g>
<!-- Node43 -->
<g id="node40" class="node">
<title>Node43</title>
<g id="a_node40"><a xlink:href="string_8h.html" target="_top" xlink:title=" ">
<polygon fill="white" stroke="#666666" points="187,-156.5 103,-156.5 103,-137.5 187,-137.5 187,-156.5"/>
<text text-anchor="middle" x="145" y="-144.5" font-family="Helvetica,sans-Serif" font-size="10.00">MSL_C/string.h</text>
</a>
</g>
</g>
<!-- Node17&#45;&gt;Node43 -->
<g id="edge64" class="edge">
<title>Node17&#45;&gt;Node43</title>
<path fill="none" stroke="#63b8ff" d="M542.66,-435.1C411.84,-428.92 161,-406.96 161,-329.5 161,-329.5 161,-329.5 161,-267 161,-232 154.12,-191.72 149.38,-168.14"/>
<polygon fill="#63b8ff" stroke="#63b8ff" points="152.81,-167.45 147.34,-158.38 145.96,-168.89 152.81,-167.45"/>
</g>
<!-- Node18&#45;&gt;Node7 -->
<g id="edge17" class="edge">
<title>Node18&#45;&gt;Node7</title>
<path fill="none" stroke="#63b8ff" d="M546.66,-377C429.95,-366.21 215,-337.09 215,-269 215,-269 215,-269 215,-206.5 215,-167.35 228.24,-151.82 262,-132 337.76,-87.52 955.2,-82.53 1139.96,-82.03"/>
<polygon fill="#63b8ff" stroke="#63b8ff" points="1139.73,-85.53 1149.73,-82.01 1139.72,-78.53 1139.73,-85.53"/>
</g>
<!-- Node19 -->
<g id="node16" class="node">
<title>Node19</title>
<g id="a_node16"><a xlink:href="OS_8h.html" target="_top" xlink:title=" ">
<polygon fill="white" stroke="#666666" points="1065,-338 979,-338 979,-319 1065,-319 1065,-338"/>
<text text-anchor="middle" x="1022" y="-326" font-family="Helvetica,sans-Serif" font-size="10.00">dolphin/os/OS.h</text>
</a>
</g>
</g>
<!-- Node18&#45;&gt;Node19 -->
<g id="edge18" class="edge">
<title>Node18&#45;&gt;Node19</title>
<path fill="none" stroke="#63b8ff" d="M688.19,-373.51C766.97,-363.12 895.02,-346.24 967.49,-336.69"/>
<polygon fill="#63b8ff" stroke="#63b8ff" points="967.67,-340.19 977.12,-335.42 966.75,-333.25 967.67,-340.19"/>
</g>
<!-- Node20 -->
<g id="node17" class="node">
<title>Node20</title>
<g id="a_node17"><a xlink:href="____va__arg_8h.html" target="_top" xlink:title=" ">
<polygon fill="white" stroke="#666666" points="1581,-162 1471,-162 1471,-132 1581,-132 1581,-162"/>
<text text-anchor="start" x="1479" y="-150" font-family="Helvetica,sans-Serif" font-size="10.00">Runtime.PPCEABI.H/</text>
<text text-anchor="middle" x="1526" y="-139" font-family="Helvetica,sans-Serif" font-size="10.00">__va_arg.h</text>
</a>
</g>
</g>
<!-- Node19&#45;&gt;Node20 -->
<g id="edge19" class="edge">
<title>Node19&#45;&gt;Node20</title>
<path fill="none" stroke="#63b8ff" d="M1065.23,-326.5C1177.76,-323.49 1473.28,-312.8 1505,-283 1534.61,-255.19 1534,-204.17 1530.35,-173.44"/>
<polygon fill="#63b8ff" stroke="#63b8ff" points="1533.87,-173.29 1529.01,-163.87 1526.93,-174.26 1533.87,-173.29"/>
</g>
<!-- Node21 -->
<g id="node18" class="node">
<title>Node21</title>
<g id="a_node18"><a xlink:href="dvd_8h.html" target="_top" xlink:title=" ">
<polygon fill="white" stroke="#666666" points="1694,-156.5 1602,-156.5 1602,-137.5 1694,-137.5 1694,-156.5"/>
<text text-anchor="middle" x="1648" y="-144.5" font-family="Helvetica,sans-Serif" font-size="10.00">dolphin/dvd/dvd.h</text>
</a>
</g>
</g>
<!-- Node19&#45;&gt;Node21 -->
<g id="edge21" class="edge">
<title>Node19&#45;&gt;Node21</title>
<path fill="none" stroke="#63b8ff" d="M1065.42,-327.94C1206.39,-328.93 1644.61,-328.32 1687,-283 1717.86,-250.01 1683.67,-194.11 1662.39,-165.71"/>
<polygon fill="#63b8ff" stroke="#63b8ff" points="1665.36,-163.83 1656.46,-158.09 1659.84,-168.13 1665.36,-163.83"/>
</g>
<!-- Node22 -->
<g id="node19" class="node">
<title>Node22</title>
<g id="a_node19"><a xlink:href="OSAlarm_8h.html" target="_top" xlink:title=" ">
<polygon fill="white" stroke="#666666" points="1884.5,-277.5 1773.5,-277.5 1773.5,-258.5 1884.5,-258.5 1884.5,-277.5"/>
<text text-anchor="middle" x="1829" y="-265.5" font-family="Helvetica,sans-Serif" font-size="10.00">dolphin/os/OSAlarm.h</text>
</a>
</g>
</g>
<!-- Node19&#45;&gt;Node22 -->
<g id="edge23" class="edge">
<title>Node19&#45;&gt;Node22</title>
<path fill="none" stroke="#63b8ff" d="M1065.39,-326.95C1179.48,-325.07 1497.13,-316.93 1759,-283 1765.15,-282.2 1771.56,-281.18 1777.91,-280.06"/>
<polygon fill="#63b8ff" stroke="#63b8ff" points="1778.51,-283.51 1787.69,-278.23 1777.22,-276.63 1778.51,-283.51"/>
</g>
<!-- Node23 -->
<g id="node20" class="node">
<title>Node23</title>
<g id="a_node20"><a xlink:href="OSError_8h.html" target="_top" xlink:title=" ">
<polygon fill="white" stroke="#666666" points="1841,-217 1735,-217 1735,-198 1841,-198 1841,-217"/>
<text text-anchor="middle" x="1788" y="-205" font-family="Helvetica,sans-Serif" font-size="10.00">dolphin/os/OSError.h</text>
</a>
</g>
</g>
<!-- Node19&#45;&gt;Node23 -->
<g id="edge37" class="edge">
<title>Node19&#45;&gt;Node23</title>
<path fill="none" stroke="#63b8ff" d="M1065.02,-326.64C1208.07,-323.54 1662.11,-311.52 1721,-283 1746.01,-270.89 1765.9,-244.88 1777.32,-227.04"/>
<polygon fill="#63b8ff" stroke="#63b8ff" points="1780.18,-229.07 1782.38,-218.7 1774.2,-225.43 1780.18,-229.07"/>
</g>
<!-- Node24 -->
<g id="node21" class="node">
<title>Node24</title>
<g id="a_node21"><a xlink:href="OSTime_8h.html" target="_top" xlink:title=" ">
<polygon fill="white" stroke="#666666" points="1966.5,-217 1859.5,-217 1859.5,-198 1966.5,-198 1966.5,-217"/>
<text text-anchor="middle" x="1913" y="-205" font-family="Helvetica,sans-Serif" font-size="10.00">dolphin/os/OSTime.h</text>
</a>
</g>
</g>
<!-- Node19&#45;&gt;Node24 -->
<g id="edge63" class="edge">
<title>Node19&#45;&gt;Node24</title>
<path fill="none" stroke="#63b8ff" d="M1065.44,-326.69C1237.11,-323.31 1860.53,-309.25 1893,-283 1908.93,-270.12 1912.96,-246.04 1913.63,-228.74"/>
<polygon fill="#63b8ff" stroke="#63b8ff" points="1917.13,-228.87 1913.63,-218.87 1910.13,-228.87 1917.13,-228.87"/>
</g>
<!-- Node25 -->
<g id="node22" class="node">
<title>Node25</title>
<g id="a_node22"><a xlink:href="OSAlloc_8h.html" target="_top" xlink:title=" ">
<polygon fill="white" stroke="#666666" points="378.5,-156.5 271.5,-156.5 271.5,-137.5 378.5,-137.5 378.5,-156.5"/>
<text text-anchor="middle" x="325" y="-144.5" font-family="Helvetica,sans-Serif" font-size="10.00">dolphin/os/OSAlloc.h</text>
</a>
</g>
</g>
<!-- Node19&#45;&gt;Node25 -->
<g id="edge28" class="edge">
<title>Node19&#45;&gt;Node25</title>
<path fill="none" stroke="#63b8ff" d="M978.77,-326.37C838.26,-322.45 400.17,-308.33 342,-283 302.8,-265.93 288.94,-256.26 272,-217 263.03,-196.21 282.73,-176.12 300.6,-163.03"/>
<polygon fill="#63b8ff" stroke="#63b8ff" points="302.1,-166.24 308.37,-157.71 298.14,-160.47 302.1,-166.24"/>
</g>
<!-- Node26 -->
<g id="node23" class="node">
<title>Node26</title>
<g id="a_node23"><a xlink:href="OSArena_8h.html" target="_top" xlink:title=" ">
<polygon fill="white" stroke="#666666" points="392.5,-217 281.5,-217 281.5,-198 392.5,-198 392.5,-217"/>
<text text-anchor="middle" x="337" y="-205" font-family="Helvetica,sans-Serif" font-size="10.00">dolphin/os/OSArena.h</text>
</a>
</g>
</g>
<!-- Node19&#45;&gt;Node26 -->
<g id="edge30" class="edge">
<title>Node19&#45;&gt;Node26</title>
<path fill="none" stroke="#63b8ff" d="M978.8,-327.22C840.56,-325.96 415.21,-319.16 366,-283 348.81,-270.37 341.81,-246.05 338.96,-228.63"/>
<polygon fill="#63b8ff" stroke="#63b8ff" points="342.46,-228.41 337.72,-218.94 335.51,-229.3 342.46,-228.41"/>
</g>
<!-- Node27 -->
<g id="node24" class="node">
<title>Node27</title>
<g id="a_node24"><a xlink:href="OSAudioSystem_8h.html" target="_top" xlink:title=" ">
<polygon fill="white" stroke="#666666" points="561.5,-277.5 418.5,-277.5 418.5,-258.5 561.5,-258.5 561.5,-277.5"/>
<text text-anchor="middle" x="490" y="-265.5" font-family="Helvetica,sans-Serif" font-size="10.00">dolphin/os/OSAudioSystem.h</text>
</a>
</g>
</g>
<!-- Node19&#45;&gt;Node27 -->
<g id="edge32" class="edge">
<title>Node19&#45;&gt;Node27</title>
<path fill="none" stroke="#63b8ff" d="M978.53,-324.06C898.64,-317.55 723.17,-302.3 576,-283 568.54,-282.02 560.74,-280.9 553,-279.72"/>
<polygon fill="#63b8ff" stroke="#63b8ff" points="553.68,-276.28 543.26,-278.19 552.6,-283.2 553.68,-276.28"/>
</g>
<!-- Node28 -->
<g id="node25" class="node">
<title>Node28</title>
<g id="a_node25"><a xlink:href="OSCache_8h.html" target="_top" xlink:title=" ">
<polygon fill="white" stroke="#666666" points="523.5,-217 410.5,-217 410.5,-198 523.5,-198 523.5,-217"/>
<text text-anchor="middle" x="467" y="-205" font-family="Helvetica,sans-Serif" font-size="10.00">dolphin/os/OSCache.h</text>
</a>
</g>
</g>
<!-- Node19&#45;&gt;Node28 -->
<g id="edge33" class="edge">
<title>Node19&#45;&gt;Node28</title>
<path fill="none" stroke="#63b8ff" d="M978.86,-327.85C840.89,-328.52 417.04,-326.97 376,-283 366.9,-273.25 368.94,-264.31 376,-253 385.32,-238.07 401.26,-228.01 417.22,-221.3"/>
<polygon fill="#63b8ff" stroke="#63b8ff" points="418.11,-224.7 426.23,-217.89 415.63,-218.16 418.11,-224.7"/>
</g>
<!-- Node29 -->
<g id="node26" class="node">
<title>Node29</title>
<g id="a_node26"><a xlink:href="OSContext_8h.html" target="_top" xlink:title=" ">
<polygon fill="white" stroke="#666666" points="903.5,-156.5 784.5,-156.5 784.5,-137.5 903.5,-137.5 903.5,-156.5"/>
<text text-anchor="middle" x="844" y="-144.5" font-family="Helvetica,sans-Serif" font-size="10.00">dolphin/os/OSContext.h</text>
</a>
</g>
</g>
<!-- Node19&#45;&gt;Node29 -->
<g id="edge35" class="edge">
<title>Node19&#45;&gt;Node29</title>
<path fill="none" stroke="#63b8ff" d="M978.79,-325.54C884.87,-320.85 668.74,-307.48 647,-283 638.14,-273.03 640.14,-264.43 647,-253 656.52,-237.14 761.41,-186.54 814.12,-161.83"/>
<polygon fill="#63b8ff" stroke="#63b8ff" points="815.58,-165.02 823.16,-157.62 812.61,-158.67 815.58,-165.02"/>
</g>
<!-- Node30 -->
<g id="node27" class="node">
<title>Node30</title>
<g id="a_node27"><a xlink:href="OSExec_8h.html" target="_top" xlink:title=" ">
<polygon fill="white" stroke="#666666" points="713.5,-156.5 606.5,-156.5 606.5,-137.5 713.5,-137.5 713.5,-156.5"/>
<text text-anchor="middle" x="660" y="-144.5" font-family="Helvetica,sans-Serif" font-size="10.00">dolphin/os/OSExec.h</text>
</a>
</g>
</g>
<!-- Node19&#45;&gt;Node30 -->
<g id="edge38" class="edge">
<title>Node19&#45;&gt;Node30</title>
<path fill="none" stroke="#63b8ff" d="M978.73,-327.68C845.43,-327.78 447.65,-324.56 409,-283 399.92,-273.24 401,-263.67 409,-253 443.15,-207.42 479.31,-238.63 532,-217 552.25,-208.69 603.79,-179.98 634.95,-162.32"/>
<polygon fill="#63b8ff" stroke="#63b8ff" points="636.38,-165.53 643.34,-157.55 632.92,-159.45 636.38,-165.53"/>
</g>
<!-- Node31 -->
<g id="node28" class="node">
<title>Node31</title>
<g id="a_node28"><a xlink:href="OSFont_8h.html" target="_top" xlink:title=" ">
<polygon fill="white" stroke="#666666" points="685.5,-217 580.5,-217 580.5,-198 685.5,-198 685.5,-217"/>
<text text-anchor="middle" x="633" y="-205" font-family="Helvetica,sans-Serif" font-size="10.00">dolphin/os/OSFont.h</text>
</a>
</g>
</g>
<!-- Node19&#45;&gt;Node31 -->
<g id="edge40" class="edge">
<title>Node19&#45;&gt;Node31</title>
<path fill="none" stroke="#63b8ff" d="M978.78,-325.99C878.76,-322.04 638.05,-309.82 614,-283 599.98,-267.36 610.37,-242.81 620.46,-226.2"/>
<polygon fill="#63b8ff" stroke="#63b8ff" points="623.08,-228.58 625.65,-218.3 617.24,-224.73 623.08,-228.58"/>
</g>
<!-- Node32 -->
<g id="node29" class="node">
<title>Node32</title>
<g id="a_node29"><a xlink:href="OSInterrupt_8h.html" target="_top" xlink:title=" ">
<polygon fill="white" stroke="#666666" points="1042,-217 920,-217 920,-198 1042,-198 1042,-217"/>
<text text-anchor="middle" x="981" y="-205" font-family="Helvetica,sans-Serif" font-size="10.00">dolphin/os/OSInterrupt.h</text>
</a>
</g>
</g>
<!-- Node19&#45;&gt;Node32 -->
<g id="edge42" class="edge">
<title>Node19&#45;&gt;Node32</title>
<path fill="none" stroke="#63b8ff" d="M1015.99,-318.69C1010.32,-309.98 1001.95,-296.1 997,-283 990.27,-265.21 986.05,-243.91 983.65,-228.65"/>
<polygon fill="#63b8ff" stroke="#63b8ff" points="987.14,-228.36 982.26,-218.96 980.22,-229.36 987.14,-228.36"/>
</g>
<!-- Node33 -->
<g id="node30" class="node">
<title>Node33</title>
<g id="a_node30"><a xlink:href="OSLink_8h.html" target="_top" xlink:title=" ">
<polygon fill="white" stroke="#666666" points="1164,-217 1060,-217 1060,-198 1164,-198 1164,-217"/>
<text text-anchor="middle" x="1112" y="-205" font-family="Helvetica,sans-Serif" font-size="10.00">dolphin/os/OSLink.h</text>
</a>
</g>
</g>
<!-- Node19&#45;&gt;Node33 -->
<g id="edge44" class="edge">
<title>Node19&#45;&gt;Node33</title>
<path fill="none" stroke="#63b8ff" d="M1065.39,-322.36C1090.23,-316.95 1119.45,-305.83 1135,-283 1146.62,-265.93 1136.22,-242.74 1125.92,-226.79"/>
<polygon fill="#63b8ff" stroke="#63b8ff" points="1128.87,-224.91 1120.27,-218.74 1123.14,-228.93 1128.87,-224.91"/>
</g>
<!-- Node34 -->
<g id="node31" class="node">
<title>Node34</title>
<g id="a_node31"><a xlink:href="OSMemory_8h.html" target="_top" xlink:title=" ">
<polygon fill="white" stroke="#666666" points="1126,-277.5 1006,-277.5 1006,-258.5 1126,-258.5 1126,-277.5"/>
<text text-anchor="middle" x="1066" y="-265.5" font-family="Helvetica,sans-Serif" font-size="10.00">dolphin/os/OSMemory.h</text>
</a>
</g>
</g>
<!-- Node19&#45;&gt;Node34 -->
<g id="edge46" class="edge">
<title>Node19&#45;&gt;Node34</title>
<path fill="none" stroke="#63b8ff" d="M1028.49,-318.87C1034.86,-310.4 1044.76,-297.24 1052.79,-286.57"/>
<polygon fill="#63b8ff" stroke="#63b8ff" points="1055.36,-288.97 1058.57,-278.88 1049.76,-284.76 1055.36,-288.97"/>
</g>
<!-- Node35 -->
<g id="node32" class="node">
<title>Node35</title>
<g id="a_node32"><a xlink:href="OSMessage_8h.html" target="_top" xlink:title=" ">
<polygon fill="white" stroke="#666666" points="911.5,-277.5 786.5,-277.5 786.5,-258.5 911.5,-258.5 911.5,-277.5"/>
<text text-anchor="middle" x="849" y="-265.5" font-family="Helvetica,sans-Serif" font-size="10.00">dolphin/os/OSMessage.h</text>
</a>
</g>
</g>
<!-- Node19&#45;&gt;Node35 -->
<g id="edge48" class="edge">
<title>Node19&#45;&gt;Node35</title>
<path fill="none" stroke="#63b8ff" d="M995.73,-318.62C966.51,-308.74 919.1,-292.71 886.11,-281.55"/>
<polygon fill="#63b8ff" stroke="#63b8ff" points="887.55,-278.34 876.96,-278.45 885.31,-284.97 887.55,-278.34"/>
</g>
<!-- Node36 -->
<g id="node33" class="node">
<title>Node36</title>
<g id="a_node33"><a xlink:href="OSThread_8h.html" target="_top" xlink:title=" ">
<polygon fill="white" stroke="#666666" points="902,-217 786,-217 786,-198 902,-198 902,-217"/>
<text text-anchor="middle" x="844" y="-205" font-family="Helvetica,sans-Serif" font-size="10.00">dolphin/os/OSThread.h</text>
</a>
</g>
</g>
<!-- Node19&#45;&gt;Node36 -->
<g id="edge62" class="edge">
<title>Node19&#45;&gt;Node36</title>
<path fill="none" stroke="#63b8ff" d="M1010.64,-318.62C992.09,-304.24 953.93,-275.24 920,-253 903.85,-242.41 885.13,-231.43 870.31,-223.03"/>
<polygon fill="#63b8ff" stroke="#63b8ff" points="872.05,-220 861.62,-218.15 868.63,-226.1 872.05,-220"/>
</g>
<!-- Node37 -->
<g id="node34" class="node">
<title>Node37</title>
<g id="a_node34"><a xlink:href="OSMutex_8h.html" target="_top" xlink:title=" ">
<polygon fill="white" stroke="#666666" points="768,-277.5 656,-277.5 656,-258.5 768,-258.5 768,-277.5"/>
<text text-anchor="middle" x="712" y="-265.5" font-family="Helvetica,sans-Serif" font-size="10.00">dolphin/os/OSMutex.h</text>
</a>
</g>
</g>
<!-- Node19&#45;&gt;Node37 -->
<g id="edge51" class="edge">
<title>Node19&#45;&gt;Node37</title>
<path fill="none" stroke="#63b8ff" d="M978.55,-320.05C929.51,-311.53 847.39,-296.97 777,-283 772.67,-282.14 768.17,-281.22 763.67,-280.29"/>
<polygon fill="#63b8ff" stroke="#63b8ff" points="764.51,-276.89 754.01,-278.25 763.07,-283.74 764.51,-276.89"/>
</g>
<!-- Node38 -->
<g id="node35" class="node">
<title>Node38</title>
<g id="a_node35"><a xlink:href="OSReboot_8h.html" target="_top" xlink:title=" ">
<polygon fill="white" stroke="#666666" points="1250,-156.5 1134,-156.5 1134,-137.5 1250,-137.5 1250,-156.5"/>
<text text-anchor="middle" x="1192" y="-144.5" font-family="Helvetica,sans-Serif" font-size="10.00">dolphin/os/OSReboot.h</text>
</a>
</g>
</g>
<!-- Node19&#45;&gt;Node38 -->
<g id="edge53" class="edge">
<title>Node19&#45;&gt;Node38</title>
<path fill="none" stroke="#63b8ff" d="M1065.34,-322.74C1093.52,-317.46 1129.14,-306.36 1152,-283 1182.83,-251.5 1190.07,-197.4 1191.66,-168.16"/>
<polygon fill="#63b8ff" stroke="#63b8ff" points="1195.15,-168.6 1192,-158.48 1188.15,-168.35 1195.15,-168.6"/>
</g>
<!-- Node39 -->
<g id="node36" class="node">
<title>Node39</title>
<g id="a_node36"><a xlink:href="OSReset_8h.html" target="_top" xlink:title=" ">
<polygon fill="white" stroke="#666666" points="1331.5,-277.5 1220.5,-277.5 1220.5,-258.5 1331.5,-258.5 1331.5,-277.5"/>
<text text-anchor="middle" x="1276" y="-265.5" font-family="Helvetica,sans-Serif" font-size="10.00">dolphin/os/OSReset.h</text>
</a>
</g>
</g>
<!-- Node19&#45;&gt;Node39 -->
<g id="edge55" class="edge">
<title>Node19&#45;&gt;Node39</title>
<path fill="none" stroke="#63b8ff" d="M1060.85,-318.55C1105.11,-308.36 1177.55,-291.67 1225.99,-280.52"/>
<polygon fill="#63b8ff" stroke="#63b8ff" points="1226.72,-283.94 1235.68,-278.29 1225.15,-277.12 1226.72,-283.94"/>
</g>
<!-- Node40 -->
<g id="node37" class="node">
<title>Node40</title>
<g id="a_node37"><a xlink:href="OSResetSW_8h.html" target="_top" xlink:title=" ">
<polygon fill="white" stroke="#666666" points="1476.5,-277.5 1349.5,-277.5 1349.5,-258.5 1476.5,-258.5 1476.5,-277.5"/>
<text text-anchor="middle" x="1413" y="-265.5" font-family="Helvetica,sans-Serif" font-size="10.00">dolphin/os/OSResetSW.h</text>
</a>
</g>
</g>
<!-- Node19&#45;&gt;Node40 -->
<g id="edge57" class="edge">
<title>Node19&#45;&gt;Node40</title>
<path fill="none" stroke="#63b8ff" d="M1065.31,-322.14C1126.61,-314.4 1242.11,-299.23 1340,-283 1345.59,-282.07 1351.4,-281.05 1357.2,-280"/>
<polygon fill="#63b8ff" stroke="#63b8ff" points="1357.6,-283.49 1366.79,-278.22 1356.32,-276.6 1357.6,-283.49"/>
</g>
<!-- Node41 -->
<g id="node38" class="node">
<title>Node41</title>
<g id="a_node38"><a xlink:href="OSRtc_8h.html" target="_top" xlink:title=" ">
<polygon fill="white" stroke="#666666" points="1445.5,-156.5 1344.5,-156.5 1344.5,-137.5 1445.5,-137.5 1445.5,-156.5"/>
<text text-anchor="middle" x="1395" y="-144.5" font-family="Helvetica,sans-Serif" font-size="10.00">dolphin/os/OSRtc.h</text>
</a>
</g>
</g>
<!-- Node19&#45;&gt;Node41 -->
<g id="edge59" class="edge">
<title>Node19&#45;&gt;Node41</title>
<path fill="none" stroke="#63b8ff" d="M1065.29,-326.58C1174.96,-323.81 1457.07,-313.74 1485,-283 1520.64,-243.77 1455.25,-189.26 1418.11,-163.14"/>
<polygon fill="#63b8ff" stroke="#63b8ff" points="1420.39,-160.47 1410.16,-157.71 1416.44,-166.24 1420.39,-160.47"/>
</g>
<!-- Node42 -->
<g id="node39" class="node">
<title>Node42</title>
<g id="a_node39"><a xlink:href="OSSync_8h.html" target="_top" xlink:title=" ">
<polygon fill="white" stroke="#666666" points="1678.5,-277.5 1571.5,-277.5 1571.5,-258.5 1678.5,-258.5 1678.5,-277.5"/>
<text text-anchor="middle" x="1625" y="-265.5" font-family="Helvetica,sans-Serif" font-size="10.00">dolphin/os/OSSync.h</text>
</a>
</g>
</g>
<!-- Node19&#45;&gt;Node42 -->
<g id="edge61" class="edge">
<title>Node19&#45;&gt;Node42</title>
<path fill="none" stroke="#63b8ff" d="M1065.19,-325.67C1156.42,-321.41 1375.27,-309.17 1557,-283 1562.67,-282.18 1568.58,-281.19 1574.44,-280.11"/>
<polygon fill="#63b8ff" stroke="#63b8ff" points="1574.95,-283.57 1584.1,-278.24 1573.62,-276.7 1574.95,-283.57"/>
</g>
<!-- Node20&#45;&gt;Node7 -->
<g id="edge20" class="edge">
<title>Node20&#45;&gt;Node7</title>
<path fill="none" stroke="#63b8ff" d="M1470.58,-135.2C1464.98,-134.12 1459.38,-133.04 1454,-132 1381.14,-117.96 1296.84,-101.91 1243.97,-91.86"/>
<polygon fill="#63b8ff" stroke="#63b8ff" points="1244.82,-88.46 1234.34,-90.03 1243.51,-95.34 1244.82,-88.46"/>
</g>
<!-- Node21&#45;&gt;Node7 -->
<g id="edge22" class="edge">
<title>Node21&#45;&gt;Node7</title>
<path fill="none" stroke="#63b8ff" d="M1613.79,-137.07C1606,-135.23 1597.74,-133.42 1590,-132 1466.85,-109.47 1320.39,-93.93 1244.09,-86.67"/>
<polygon fill="#63b8ff" stroke="#63b8ff" points="1244.7,-83.21 1234.42,-85.76 1244.04,-90.18 1244.7,-83.21"/>
</g>
<!-- Node22&#45;&gt;Node23 -->
<g id="edge24" class="edge">
<title>Node22&#45;&gt;Node23</title>
<path fill="none" stroke="#63b8ff" d="M1822.95,-258.37C1817.08,-249.99 1807.98,-237.01 1800.54,-226.39"/>
<polygon fill="#63b8ff" stroke="#63b8ff" points="1803.55,-224.59 1794.94,-218.41 1797.82,-228.6 1803.55,-224.59"/>
</g>
<!-- Node22&#45;&gt;Node24 -->
<g id="edge26" class="edge">
<title>Node22&#45;&gt;Node24</title>
<path fill="none" stroke="#63b8ff" d="M1841.76,-258.12C1854.83,-249.01 1875.41,-234.68 1891.1,-223.75"/>
<polygon fill="#63b8ff" stroke="#63b8ff" points="1892.67,-226.92 1898.88,-218.33 1888.67,-221.18 1892.67,-226.92"/>
</g>
<!-- Node23&#45;&gt;Node7 -->
<g id="edge25" class="edge">
<title>Node23&#45;&gt;Node7</title>
<path fill="none" stroke="#63b8ff" d="M1781.2,-197.67C1768.1,-181.39 1737.57,-146.97 1703,-132 1621.53,-96.72 1357.45,-86.07 1244.27,-83.08"/>
<polygon fill="#63b8ff" stroke="#63b8ff" points="1244.44,-79.59 1234.35,-82.83 1244.26,-86.58 1244.44,-79.59"/>
</g>
<!-- Node24&#45;&gt;Node7 -->
<g id="edge27" class="edge">
<title>Node24&#45;&gt;Node7</title>
<path fill="none" stroke="#63b8ff" d="M1878,-197.52C1850.98,-189.91 1813.08,-177.72 1782,-162 1761.21,-151.48 1760.89,-139.99 1739,-132 1648.84,-99.07 1362.26,-87.01 1243.91,-83.36"/>
<polygon fill="#63b8ff" stroke="#63b8ff" points="1244.27,-79.87 1234.17,-83.07 1244.06,-86.87 1244.27,-79.87"/>
</g>
<!-- Node25&#45;&gt;Node7 -->
<g id="edge29" class="edge">
<title>Node25&#45;&gt;Node7</title>
<path fill="none" stroke="#63b8ff" d="M378.99,-140.39C406,-137.68 439.21,-134.48 469,-132 720.19,-111.11 1020.99,-92.3 1139.93,-85.1"/>
<polygon fill="#63b8ff" stroke="#63b8ff" points="1139.92,-88.61 1149.69,-84.51 1139.5,-81.62 1139.92,-88.61"/>
</g>
<!-- Node26&#45;&gt;Node7 -->
<g id="edge31" class="edge">
<title>Node26&#45;&gt;Node7</title>
<path fill="none" stroke="#63b8ff" d="M354.8,-197.58C388.19,-181.32 462.91,-147.14 530,-132 645.94,-105.84 1004.73,-89.38 1139.83,-83.97"/>
<polygon fill="#63b8ff" stroke="#63b8ff" points="1139.69,-87.48 1149.55,-83.58 1139.42,-80.48 1139.69,-87.48"/>
</g>
<!-- Node28&#45;&gt;Node7 -->
<g id="edge34" class="edge">
<title>Node28&#45;&gt;Node7</title>
<path fill="none" stroke="#63b8ff" d="M478.37,-197.65C500.03,-181.34 549.32,-146.86 597,-132 697.77,-100.59 1014.73,-87.51 1140.16,-83.48"/>
<polygon fill="#63b8ff" stroke="#63b8ff" points="1139.94,-86.99 1149.82,-83.17 1139.72,-79.99 1139.94,-86.99"/>
</g>
<!-- Node29&#45;&gt;Node7 -->
<g id="edge36" class="edge">
<title>Node29&#45;&gt;Node7</title>
<path fill="none" stroke="#63b8ff" d="M892.75,-137.03C958,-125.03 1073.24,-103.84 1140.07,-91.55"/>
<polygon fill="#63b8ff" stroke="#63b8ff" points="1140.47,-95.04 1149.67,-89.78 1139.21,-88.15 1140.47,-95.04"/>
</g>
<!-- Node30&#45;&gt;Node7 -->
<g id="edge39" class="edge">
<title>Node30&#45;&gt;Node7</title>
<path fill="none" stroke="#63b8ff" d="M706.33,-137.03C716.42,-135.23 727.05,-133.45 737,-132 882.33,-110.83 1054.95,-94.17 1139.72,-86.54"/>
<polygon fill="#63b8ff" stroke="#63b8ff" points="1139.94,-90.03 1149.58,-85.66 1139.31,-83.06 1139.94,-90.03"/>
</g>
<!-- Node31&#45;&gt;Node7 -->
<g id="edge41" class="edge">
<title>Node31&#45;&gt;Node7</title>
<path fill="none" stroke="#63b8ff" d="M651.55,-197.57C669.65,-188.77 697.91,-174.83 722,-162 745.89,-149.28 749.28,-140.44 775,-132 901.45,-90.49 1059.56,-82.75 1139.91,-81.73"/>
<polygon fill="#63b8ff" stroke="#63b8ff" points="1139.71,-85.24 1149.68,-81.64 1139.64,-78.24 1139.71,-85.24"/>
</g>
<!-- Node32&#45;&gt;Node7 -->
<g id="edge43" class="edge">
<title>Node32&#45;&gt;Node7</title>
<path fill="none" stroke="#63b8ff" d="M996.17,-197.55C1032.22,-176.28 1123.24,-122.57 1167.32,-96.56"/>
<polygon fill="#63b8ff" stroke="#63b8ff" points="1168.83,-99.74 1175.66,-91.64 1165.27,-93.71 1168.83,-99.74"/>
</g>
<!-- Node33&#45;&gt;Node7 -->
<g id="edge45" class="edge">
<title>Node33&#45;&gt;Node7</title>
<path fill="none" stroke="#63b8ff" d="M1111.52,-197.5C1111.14,-182.71 1112.21,-152.8 1125,-132 1134.24,-116.98 1149.8,-104.95 1163.6,-96.46"/>
<polygon fill="#63b8ff" stroke="#63b8ff" points="1165,-99.7 1171.91,-91.67 1161.5,-93.63 1165,-99.7"/>
</g>
<!-- Node34&#45;&gt;Node32 -->
<g id="edge47" class="edge">
<title>Node34&#45;&gt;Node32</title>
<path fill="none" stroke="#63b8ff" d="M1053.09,-258.12C1039.86,-249.01 1019.03,-234.68 1003.16,-223.75"/>
<polygon fill="#63b8ff" stroke="#63b8ff" points="1005.5,-221.11 995.28,-218.33 1001.53,-226.88 1005.5,-221.11"/>
</g>
<!-- Node35&#45;&gt;Node36 -->
<g id="edge49" class="edge">
<title>Node35&#45;&gt;Node36</title>
<path fill="none" stroke="#63b8ff" d="M848.26,-258.37C847.59,-250.5 846.57,-238.6 845.7,-228.39"/>
<polygon fill="#63b8ff" stroke="#63b8ff" points="849.21,-228.34 844.87,-218.68 842.23,-228.94 849.21,-228.34"/>
</g>
<!-- Node36&#45;&gt;Node29 -->
<g id="edge50" class="edge">
<title>Node36&#45;&gt;Node29</title>
<path fill="none" stroke="#63b8ff" d="M844,-197.87C844,-190 844,-178.1 844,-167.89"/>
<polygon fill="#63b8ff" stroke="#63b8ff" points="847.5,-168.18 844,-158.18 840.5,-168.18 847.5,-168.18"/>
</g>
<!-- Node37&#45;&gt;Node36 -->
<g id="edge52" class="edge">
<title>Node37&#45;&gt;Node36</title>
<path fill="none" stroke="#63b8ff" d="M732.05,-258.12C753.66,-248.54 788.32,-233.18 813.36,-222.08"/>
<polygon fill="#63b8ff" stroke="#63b8ff" points="814.66,-225.33 822.38,-218.08 811.82,-218.93 814.66,-225.33"/>
</g>
<!-- Node38&#45;&gt;Node7 -->
<g id="edge54" class="edge">
<title>Node38&#45;&gt;Node7</title>
<path fill="none" stroke="#63b8ff" d="M1192,-137.1C1192,-128.12 1192,-113.95 1192,-102.22"/>
<polygon fill="#63b8ff" stroke="#63b8ff" points="1195.5,-102.34 1192,-92.34 1188.5,-102.34 1195.5,-102.34"/>
</g>
<!-- Node39&#45;&gt;Node7 -->
<g id="edge56" class="edge">
<title>Node39&#45;&gt;Node7</title>
<path fill="none" stroke="#63b8ff" d="M1277.15,-258.04C1279.61,-235.24 1283.38,-173.84 1259,-132 1250.18,-116.86 1234.78,-104.88 1220.97,-96.45"/>
<polygon fill="#63b8ff" stroke="#63b8ff" points="1223.05,-93.61 1212.63,-91.69 1219.58,-99.69 1223.05,-93.61"/>
</g>
<!-- Node40&#45;&gt;Node7 -->
<g id="edge58" class="edge">
<title>Node40&#45;&gt;Node7</title>
<path fill="none" stroke="#63b8ff" d="M1405.91,-258.29C1387.12,-235.54 1333.76,-173.27 1280,-132 1261.68,-117.93 1238.97,-105.13 1221.21,-96"/>
<polygon fill="#63b8ff" stroke="#63b8ff" points="1222.99,-92.98 1212.49,-91.62 1219.85,-99.23 1222.99,-92.98"/>
</g>
<!-- Node41&#45;&gt;Node7 -->
<g id="edge60" class="edge">
<title>Node41&#45;&gt;Node7</title>
<path fill="none" stroke="#63b8ff" d="M1366.77,-137.1C1331.5,-125.98 1270.94,-106.89 1231.18,-94.35"/>
<polygon fill="#63b8ff" stroke="#63b8ff" points="1232.35,-91.05 1221.76,-91.38 1230.24,-97.73 1232.35,-91.05"/>
</g>
<!-- Node44 -->
<g id="node41" class="node">
<title>Node44</title>
<g id="a_node41"><a xlink:href="extras_8h.html" target="_top" xlink:title=" ">
<polygon fill="white" stroke="#666666" points="136,-96 0,-96 0,-66 136,-66 136,-96"/>
<text text-anchor="start" x="8" y="-84" font-family="Helvetica,sans-Serif" font-size="10.00">MSL_C/MSL_Common/Src</text>
<text text-anchor="middle" x="68" y="-73" font-family="Helvetica,sans-Serif" font-size="10.00">/extras.h</text>
</a>
</g>
</g>
<!-- Node43&#45;&gt;Node44 -->
<g id="edge65" class="edge">
<title>Node43&#45;&gt;Node44</title>
<path fill="none" stroke="#63b8ff" d="M134.29,-137.1C123.92,-128.48 107.78,-115.07 94.03,-103.63"/>
<polygon fill="#63b8ff" stroke="#63b8ff" points="96.51,-101.15 86.58,-97.45 92.04,-106.53 96.51,-101.15"/>
</g>
<!-- Node45 -->
<g id="node42" class="node">
<title>Node45</title>
<g id="a_node42"><a xlink:href="mem_8h.html" target="_top" xlink:title=" ">
<polygon fill="white" stroke="#666666" points="444,-96 308,-96 308,-66 444,-66 444,-96"/>
<text text-anchor="start" x="316" y="-84" font-family="Helvetica,sans-Serif" font-size="10.00">MSL_C/MSL_Common/Src</text>
<text text-anchor="middle" x="376" y="-73" font-family="Helvetica,sans-Serif" font-size="10.00">/mem.h</text>
</a>
</g>
</g>
<!-- Node43&#45;&gt;Node45 -->
<g id="edge66" class="edge">
<title>Node43&#45;&gt;Node45</title>
<path fill="none" stroke="#63b8ff" d="M177.12,-137.1C212.09,-127.41 268.9,-111.67 312.86,-99.49"/>
<polygon fill="#63b8ff" stroke="#63b8ff" points="313.58,-102.92 322.29,-96.88 311.71,-96.18 313.58,-102.92"/>
</g>
<!-- Node46 -->
<g id="node43" class="node">
<title>Node46</title>
<g id="a_node43"><a xlink:href="MSL__Common_2Src_2string_8h.html" target="_top" xlink:title=" ">
<polygon fill="white" stroke="#666666" points="290,-96 154,-96 154,-66 290,-66 290,-96"/>
<text text-anchor="start" x="162" y="-84" font-family="Helvetica,sans-Serif" font-size="10.00">MSL_C/MSL_Common/Src</text>
<text text-anchor="middle" x="222" y="-73" font-family="Helvetica,sans-Serif" font-size="10.00">/string.h</text>
</a>
</g>
</g>
<!-- Node43&#45;&gt;Node46 -->
<g id="edge68" class="edge">
<title>Node43&#45;&gt;Node46</title>
<path fill="none" stroke="#63b8ff" d="M155.71,-137.1C166.08,-128.48 182.22,-115.07 195.97,-103.63"/>
<polygon fill="#63b8ff" stroke="#63b8ff" points="197.96,-106.53 203.42,-97.45 193.49,-101.15 197.96,-106.53"/>
</g>
<!-- Node45&#45;&gt;Node8 -->
<g id="edge67" class="edge">
<title>Node45&#45;&gt;Node8</title>
<path fill="none" stroke="#63b8ff" d="M376,-65.8C376,-58.67 376,-49.82 376,-41.56"/>
<polygon fill="#63b8ff" stroke="#63b8ff" points="379.5,-41.68 376,-31.68 372.5,-41.68 379.5,-41.68"/>
</g>
<!-- Node46&#45;&gt;Node8 -->
<g id="edge69" class="edge">
<title>Node46&#45;&gt;Node8</title>
<path fill="none" stroke="#63b8ff" d="M256.56,-65.64C278.48,-56.53 307.07,-44.65 330.78,-34.79"/>
<polygon fill="#63b8ff" stroke="#63b8ff" points="332,-38.08 339.89,-31.01 329.31,-31.61 332,-38.08"/>
</g>
</g>
</svg>
