<?xml version="1.0" encoding="UTF-8" standalone="no"?>
<!DOCTYPE svg PUBLIC "-//W3C//DTD SVG 1.1//EN"
 "http://www.w3.org/Graphics/SVG/1.1/DTD/svg11.dtd">
<!-- Generated by graphviz version 7.0.5 (20221223.1930)
 -->
<!-- Title: libs/Z2AudioLib/Z2SpeechMgr2.cpp Pages: 1 -->
<svg width="3711pt" height="665pt"
 viewBox="0.00 0.00 3710.50 665.00" xmlns="http://www.w3.org/2000/svg" xmlns:xlink="http://www.w3.org/1999/xlink">
<g id="graph0" class="graph" transform="scale(1 1) rotate(0) translate(4 661)">
<title>libs/Z2AudioLib/Z2SpeechMgr2.cpp</title>
<!-- Node1 -->
<g id="node1" class="node">
<title>Node1</title>
<g id="a_node1"><a xlink:title=" ">
<polygon fill="#999999" stroke="#666666" points="2355.5,-657 2224.5,-657 2224.5,-627 2355.5,-627 2355.5,-657"/>
<text text-anchor="start" x="2232.5" y="-645" font-family="Helvetica,sans-Serif" font-size="10.00">libs/Z2AudioLib/Z2Speech</text>
<text text-anchor="middle" x="2290" y="-634" font-family="Helvetica,sans-Serif" font-size="10.00">Mgr2.cpp</text>
</a>
</g>
</g>
<!-- Node2 -->
<g id="node2" class="node">
<title>Node2</title>
<g id="a_node2"><a xlink:href="Z2SpeechMgr2_8h.html" target="_top" xlink:title=" ">
<polygon fill="white" stroke="#666666" points="1140.5,-580 997.5,-580 997.5,-561 1140.5,-561 1140.5,-580"/>
<text text-anchor="middle" x="1069" y="-568" font-family="Helvetica,sans-Serif" font-size="10.00">Z2AudioLib/Z2SpeechMgr2.h</text>
</a>
</g>
</g>
<!-- Node1&#45;&gt;Node2 -->
<g id="edge1" class="edge">
<title>Node1&#45;&gt;Node2</title>
<path fill="none" stroke="#63b8ff" d="M2224.17,-639.8C2013.71,-635.72 1358.8,-620.87 1149,-591 1136.32,-589.19 1122.72,-586.27 1110.4,-583.22"/>
<polygon fill="#63b8ff" stroke="#63b8ff" points="1111.52,-579.89 1100.96,-580.8 1109.78,-586.67 1111.52,-579.89"/>
</g>
<!-- Node50 -->
<g id="node37" class="node">
<title>Node50</title>
<g id="a_node37"><a xlink:href="dol2asm_8h.html" target="_top" xlink:title=" ">
<polygon fill="white" stroke="#666666" points="1219.5,-580 1158.5,-580 1158.5,-561 1219.5,-561 1219.5,-580"/>
<text text-anchor="middle" x="1189" y="-568" font-family="Helvetica,sans-Serif" font-size="10.00">dol2asm.h</text>
</a>
</g>
</g>
<!-- Node1&#45;&gt;Node50 -->
<g id="edge58" class="edge">
<title>Node1&#45;&gt;Node50</title>
<path fill="none" stroke="#63b8ff" d="M2224.24,-641.37C2023.15,-641.94 1418.6,-639.48 1229,-591 1223.89,-589.69 1218.67,-587.7 1213.75,-585.48"/>
<polygon fill="#63b8ff" stroke="#63b8ff" points="1215.5,-582.44 1204.99,-581.1 1212.37,-588.7 1215.5,-582.44"/>
</g>
<!-- Node51 -->
<g id="node38" class="node">
<title>Node51</title>
<g id="a_node38"><a xlink:title=" ">
<polygon fill="#e0e0e0" stroke="#999999" points="1394.5,-585.5 1237.5,-585.5 1237.5,-555.5 1394.5,-555.5 1394.5,-585.5"/>
<text text-anchor="start" x="1245.5" y="-573.5" font-family="Helvetica,sans-Serif" font-size="10.00">asm/Z2AudioLib/Z2SpeechMgr2</text>
<text text-anchor="middle" x="1316" y="-562.5" font-family="Helvetica,sans-Serif" font-size="10.00">/__ct__12Z2SpeechMgr2Fv.s</text>
</a>
</g>
</g>
<!-- Node1&#45;&gt;Node51 -->
<g id="edge59" class="edge">
<title>Node1&#45;&gt;Node51</title>
<path fill="none" stroke="#63b8ff" d="M2224.07,-640.91C2076.47,-639.92 1708.47,-633.04 1404,-591 1398.09,-590.18 1391.99,-589.18 1385.88,-588.06"/>
<polygon fill="#63b8ff" stroke="#63b8ff" points="1386.9,-584.69 1376.42,-586.22 1385.57,-591.56 1386.9,-584.69"/>
</g>
<!-- Node52 -->
<g id="node39" class="node">
<title>Node52</title>
<g id="a_node39"><a xlink:title=" ">
<polygon fill="#e0e0e0" stroke="#999999" points="1569.5,-585.5 1412.5,-585.5 1412.5,-555.5 1569.5,-555.5 1569.5,-585.5"/>
<text text-anchor="start" x="1420.5" y="-573.5" font-family="Helvetica,sans-Serif" font-size="10.00">asm/Z2AudioLib/Z2SpeechMgr2</text>
<text text-anchor="middle" x="1491" y="-562.5" font-family="Helvetica,sans-Serif" font-size="10.00">/__dt__15Z2SpeechStarterFv.s</text>
</a>
</g>
</g>
<!-- Node1&#45;&gt;Node52 -->
<g id="edge60" class="edge">
<title>Node1&#45;&gt;Node52</title>
<path fill="none" stroke="#63b8ff" d="M2224.47,-639.63C2098.71,-636.27 1815.04,-625.26 1579,-591 1573.34,-590.18 1567.5,-589.19 1561.65,-588.11"/>
<polygon fill="#63b8ff" stroke="#63b8ff" points="1562.4,-584.69 1551.91,-586.21 1561.05,-591.56 1562.4,-584.69"/>
</g>
<!-- Node53 -->
<g id="node40" class="node">
<title>Node53</title>
<g id="a_node40"><a xlink:title=" ">
<polygon fill="#e0e0e0" stroke="#999999" points="1770.5,-591 1587.5,-591 1587.5,-550 1770.5,-550 1770.5,-591"/>
<text text-anchor="start" x="1595.5" y="-579" font-family="Helvetica,sans-Serif" font-size="10.00">asm/Z2AudioLib/Z2SpeechMgr2</text>
<text text-anchor="start" x="1595.5" y="-568" font-family="Helvetica,sans-Serif" font-size="10.00">/setString__12Z2SpeechMgr2FPCUss</text>
<text text-anchor="middle" x="1679" y="-557" font-family="Helvetica,sans-Serif" font-size="10.00">UcUs.s</text>
</a>
</g>
</g>
<!-- Node1&#45;&gt;Node53 -->
<g id="edge61" class="edge">
<title>Node1&#45;&gt;Node53</title>
<path fill="none" stroke="#63b8ff" d="M2224.15,-636.51C2128.94,-629.59 1947.1,-614.73 1782.21,-591.25"/>
<polygon fill="#63b8ff" stroke="#63b8ff" points="1782.76,-587.79 1772.37,-589.83 1781.76,-594.72 1782.76,-587.79"/>
</g>
<!-- Node54 -->
<g id="node41" class="node">
<title>Node54</title>
<g id="a_node41"><a xlink:title=" ">
<polygon fill="#e0e0e0" stroke="#999999" points="1971.5,-585.5 1788.5,-585.5 1788.5,-555.5 1971.5,-555.5 1971.5,-585.5"/>
<text text-anchor="start" x="1796.5" y="-573.5" font-family="Helvetica,sans-Serif" font-size="10.00">asm/Z2AudioLib/Z2SpeechMgr2</text>
<text text-anchor="middle" x="1880" y="-562.5" font-family="Helvetica,sans-Serif" font-size="10.00">/setTextCount__12Z2SpeechMgr2Fs.s</text>
</a>
</g>
</g>
<!-- Node1&#45;&gt;Node54 -->
<g id="edge62" class="edge">
<title>Node1&#45;&gt;Node54</title>
<path fill="none" stroke="#63b8ff" d="M2224.2,-630.94C2161.58,-621.23 2064.74,-605.86 1981,-591 1975.73,-590.06 1970.3,-589.08 1964.84,-588.07"/>
<polygon fill="#63b8ff" stroke="#63b8ff" points="1965.55,-584.65 1955.08,-586.25 1964.27,-591.53 1965.55,-584.65"/>
</g>
<!-- Node55 -->
<g id="node42" class="node">
<title>Node55</title>
<g id="a_node42"><a xlink:title=" ">
<polygon fill="#e0e0e0" stroke="#999999" points="2182,-585.5 1990,-585.5 1990,-555.5 2182,-555.5 2182,-585.5"/>
<text text-anchor="start" x="1998" y="-573.5" font-family="Helvetica,sans-Serif" font-size="10.00">asm/Z2AudioLib/Z2SpeechMgr2</text>
<text text-anchor="middle" x="2086" y="-562.5" font-family="Helvetica,sans-Serif" font-size="10.00">/speakOneWord__12Z2SpeechMgr2Fb.s</text>
</a>
</g>
</g>
<!-- Node1&#45;&gt;Node55 -->
<g id="edge63" class="edge">
<title>Node1&#45;&gt;Node55</title>
<path fill="none" stroke="#63b8ff" d="M2247.73,-626.6C2216.14,-615.84 2172.74,-601.05 2138.86,-589.51"/>
<polygon fill="#63b8ff" stroke="#63b8ff" points="2140.24,-586.28 2129.65,-586.37 2137.98,-592.91 2140.24,-586.28"/>
</g>
<!-- Node56 -->
<g id="node43" class="node">
<title>Node56</title>
<g id="a_node43"><a xlink:title=" ">
<polygon fill="#e0e0e0" stroke="#999999" points="2379.5,-585.5 2200.5,-585.5 2200.5,-555.5 2379.5,-555.5 2379.5,-585.5"/>
<text text-anchor="start" x="2208.5" y="-573.5" font-family="Helvetica,sans-Serif" font-size="10.00">asm/Z2AudioLib/Z2SpeechMgr2</text>
<text text-anchor="middle" x="2290" y="-562.5" font-family="Helvetica,sans-Serif" font-size="10.00">/isNonVerbal__12Z2SpeechMgr2Fv.s</text>
</a>
</g>
</g>
<!-- Node1&#45;&gt;Node56 -->
<g id="edge64" class="edge">
<title>Node1&#45;&gt;Node56</title>
<path fill="none" stroke="#63b8ff" d="M2290,-626.6C2290,-618.12 2290,-607.14 2290,-597.22"/>
<polygon fill="#63b8ff" stroke="#63b8ff" points="2293.5,-597.4 2290,-587.4 2286.5,-597.4 2293.5,-597.4"/>
</g>
<!-- Node57 -->
<g id="node44" class="node">
<title>Node57</title>
<g id="a_node44"><a xlink:title=" ">
<polygon fill="#e0e0e0" stroke="#999999" points="2568,-585.5 2398,-585.5 2398,-555.5 2568,-555.5 2568,-585.5"/>
<text text-anchor="start" x="2406" y="-573.5" font-family="Helvetica,sans-Serif" font-size="10.00">asm/Z2AudioLib/Z2SpeechMgr2</text>
<text text-anchor="middle" x="2483" y="-562.5" font-family="Helvetica,sans-Serif" font-size="10.00">/selectUnit__12Z2SpeechMgr2Fb.s</text>
</a>
</g>
</g>
<!-- Node1&#45;&gt;Node57 -->
<g id="edge65" class="edge">
<title>Node1&#45;&gt;Node57</title>
<path fill="none" stroke="#63b8ff" d="M2329.99,-626.6C2359.75,-615.88 2400.58,-601.18 2432.58,-589.66"/>
<polygon fill="#63b8ff" stroke="#63b8ff" points="2433.41,-593.08 2441.64,-586.39 2431.04,-586.49 2433.41,-593.08"/>
</g>
<!-- Node58 -->
<g id="node45" class="node">
<title>Node58</title>
<g id="a_node45"><a xlink:title=" ">
<polygon fill="#e0e0e0" stroke="#999999" points="2753.5,-585.5 2586.5,-585.5 2586.5,-555.5 2753.5,-555.5 2753.5,-585.5"/>
<text text-anchor="start" x="2594.5" y="-573.5" font-family="Helvetica,sans-Serif" font-size="10.00">asm/Z2AudioLib/Z2SpeechMgr2</text>
<text text-anchor="middle" x="2670" y="-562.5" font-family="Helvetica,sans-Serif" font-size="10.00">/selectTail__12Z2SpeechMgr2Fv.s</text>
</a>
</g>
</g>
<!-- Node1&#45;&gt;Node58 -->
<g id="edge66" class="edge">
<title>Node1&#45;&gt;Node58</title>
<path fill="none" stroke="#63b8ff" d="M2355.95,-630.17C2414.19,-620.45 2501.38,-605.51 2577,-591 2581.6,-590.12 2586.33,-589.19 2591.09,-588.24"/>
<polygon fill="#63b8ff" stroke="#63b8ff" points="2591.65,-591.7 2600.76,-586.29 2590.27,-584.84 2591.65,-591.7"/>
</g>
<!-- Node59 -->
<g id="node46" class="node">
<title>Node59</title>
<g id="a_node46"><a xlink:title=" ">
<polygon fill="#e0e0e0" stroke="#999999" points="2942.5,-585.5 2771.5,-585.5 2771.5,-555.5 2942.5,-555.5 2942.5,-585.5"/>
<text text-anchor="start" x="2779.5" y="-573.5" font-family="Helvetica,sans-Serif" font-size="10.00">asm/Z2AudioLib/Z2SpeechMgr2</text>
<text text-anchor="middle" x="2857" y="-562.5" font-family="Helvetica,sans-Serif" font-size="10.00">/framework__12Z2SpeechMgr2Fv.s</text>
</a>
</g>
</g>
<!-- Node1&#45;&gt;Node59 -->
<g id="edge67" class="edge">
<title>Node1&#45;&gt;Node59</title>
<path fill="none" stroke="#63b8ff" d="M2355.69,-636.13C2447.28,-628.87 2618.39,-613.59 2763,-591 2768.62,-590.12 2774.41,-589.13 2780.23,-588.08"/>
<polygon fill="#63b8ff" stroke="#63b8ff" points="2780.74,-591.54 2789.92,-586.25 2779.45,-584.66 2780.74,-591.54"/>
</g>
<!-- Node60 -->
<g id="node47" class="node">
<title>Node60</title>
<g id="a_node47"><a xlink:title=" ">
<polygon fill="#e0e0e0" stroke="#999999" points="3147.5,-591 2960.5,-591 2960.5,-550 3147.5,-550 3147.5,-591"/>
<text text-anchor="start" x="2968.5" y="-579" font-family="Helvetica,sans-Serif" font-size="10.00">asm/Z2AudioLib/Z2SpeechMgr2</text>
<text text-anchor="start" x="2968.5" y="-568" font-family="Helvetica,sans-Serif" font-size="10.00">/playOneShotVoice__12Z2SpeechMgr2</text>
<text text-anchor="middle" x="3054" y="-557" font-family="Helvetica,sans-Serif" font-size="10.00">FUcUsP3VecSc.s</text>
</a>
</g>
</g>
<!-- Node1&#45;&gt;Node60 -->
<g id="edge68" class="edge">
<title>Node1&#45;&gt;Node60</title>
<path fill="none" stroke="#63b8ff" d="M2355.56,-638.52C2472.75,-633.54 2726.04,-620.34 2948.88,-591.34"/>
<polygon fill="#63b8ff" stroke="#63b8ff" points="2949.18,-594.83 2958.64,-590.06 2948.27,-587.89 2949.18,-594.83"/>
</g>
<!-- Node61 -->
<g id="node48" class="node">
<title>Node61</title>
<g id="a_node48"><a xlink:title=" ">
<polygon fill="#e0e0e0" stroke="#999999" points="3352.5,-585.5 3165.5,-585.5 3165.5,-555.5 3352.5,-555.5 3352.5,-585.5"/>
<text text-anchor="start" x="3173.5" y="-573.5" font-family="Helvetica,sans-Serif" font-size="10.00">asm/Z2AudioLib/Z2SpeechMgr2</text>
<text text-anchor="middle" x="3259" y="-562.5" font-family="Helvetica,sans-Serif" font-size="10.00">/isMidnaSpeak__12Z2SpeechMgr2Fv.s</text>
</a>
</g>
</g>
<!-- Node1&#45;&gt;Node61 -->
<g id="edge69" class="edge">
<title>Node1&#45;&gt;Node61</title>
<path fill="none" stroke="#63b8ff" d="M2355.79,-640.15C2500.96,-637.63 2859.43,-627.86 3157,-591 3163.99,-590.13 3171.21,-589.08 3178.45,-587.91"/>
<polygon fill="#63b8ff" stroke="#63b8ff" points="3179.02,-591.37 3188.29,-586.25 3177.85,-584.46 3179.02,-591.37"/>
</g>
<!-- Node62 -->
<g id="node49" class="node">
<title>Node62</title>
<g id="a_node49"><a xlink:title=" ">
<polygon fill="#e0e0e0" stroke="#999999" points="3527.5,-585.5 3370.5,-585.5 3370.5,-555.5 3527.5,-555.5 3527.5,-585.5"/>
<text text-anchor="start" x="3378.5" y="-573.5" font-family="Helvetica,sans-Serif" font-size="10.00">asm/Z2AudioLib/Z2SpeechMgr2</text>
<text text-anchor="middle" x="3449" y="-562.5" font-family="Helvetica,sans-Serif" font-size="10.00">/__ct__15Z2SpeechStarterFv.s</text>
</a>
</g>
</g>
<!-- Node1&#45;&gt;Node62 -->
<g id="edge70" class="edge">
<title>Node1&#45;&gt;Node62</title>
<path fill="none" stroke="#63b8ff" d="M2355.7,-639.43C2557.4,-634.39 3165.92,-617.34 3362,-591 3367.94,-590.2 3374.08,-589.2 3380.22,-588.07"/>
<polygon fill="#63b8ff" stroke="#63b8ff" points="3380.59,-591.56 3389.74,-586.21 3379.25,-584.69 3380.59,-591.56"/>
</g>
<!-- Node63 -->
<g id="node50" class="node">
<title>Node63</title>
<g id="a_node50"><a xlink:title=" ">
<polygon fill="#e0e0e0" stroke="#999999" points="3702.5,-585.5 3545.5,-585.5 3545.5,-555.5 3702.5,-555.5 3702.5,-585.5"/>
<text text-anchor="start" x="3553.5" y="-573.5" font-family="Helvetica,sans-Serif" font-size="10.00">asm/Z2AudioLib/Z2SpeechMgr2</text>
<text text-anchor="middle" x="3624" y="-562.5" font-family="Helvetica,sans-Serif" font-size="10.00">/func_802CCFF8.s</text>
</a>
</g>
</g>
<!-- Node1&#45;&gt;Node63 -->
<g id="edge71" class="edge">
<title>Node1&#45;&gt;Node63</title>
<path fill="none" stroke="#63b8ff" d="M2355.99,-639.93C2579.26,-636.04 3305.39,-621.35 3537,-591 3542.95,-590.22 3549.09,-589.23 3555.23,-588.11"/>
<polygon fill="#63b8ff" stroke="#63b8ff" points="3555.6,-591.6 3564.75,-586.26 3554.26,-584.73 3555.6,-591.6"/>
</g>
<!-- Node3 -->
<g id="node3" class="node">
<title>Node3</title>
<g id="a_node3"><a xlink:href="JAISoundHandles_8h.html" target="_top" xlink:title=" ">
<polygon fill="white" stroke="#666666" points="1196.5,-459 1057.5,-459 1057.5,-429 1196.5,-429 1196.5,-459"/>
<text text-anchor="start" x="1065.5" y="-447" font-family="Helvetica,sans-Serif" font-size="10.00">JSystem/JAudio2/JAISound</text>
<text text-anchor="middle" x="1127" y="-436" font-family="Helvetica,sans-Serif" font-size="10.00">Handles.h</text>
</a>
</g>
</g>
<!-- Node2&#45;&gt;Node3 -->
<g id="edge2" class="edge">
<title>Node2&#45;&gt;Node3</title>
<path fill="none" stroke="#63b8ff" d="M1073.17,-560.55C1081.93,-541.74 1102.5,-497.58 1115.53,-469.62"/>
<polygon fill="#63b8ff" stroke="#63b8ff" points="1118.58,-471.36 1119.63,-460.82 1112.24,-468.4 1118.58,-471.36"/>
</g>
<!-- Node16 -->
<g id="node11" class="node">
<title>Node16</title>
<g id="a_node11"><a xlink:href="global_8h.html" target="_top" xlink:title=" ">
<polygon fill="white" stroke="#666666" points="1041,-332.5 991,-332.5 991,-313.5 1041,-313.5 1041,-332.5"/>
<text text-anchor="middle" x="1016" y="-320.5" font-family="Helvetica,sans-Serif" font-size="10.00">global.h</text>
</a>
</g>
</g>
<!-- Node2&#45;&gt;Node16 -->
<g id="edge57" class="edge">
<title>Node2&#45;&gt;Node16</title>
<path fill="none" stroke="#63b8ff" d="M1067.11,-560.76C1059.53,-525.64 1031.17,-394.25 1020.29,-343.85"/>
<polygon fill="#63b8ff" stroke="#63b8ff" points="1023.77,-343.4 1018.24,-334.37 1016.93,-344.88 1023.77,-343.4"/>
</g>
<!-- Node42 -->
<g id="node32" class="node">
<title>Node42</title>
<g id="a_node32"><a xlink:href="random_8h.html" target="_top" xlink:title=" ">
<polygon fill="white" stroke="#666666" points="674,-514 546,-514 546,-495 674,-495 674,-514"/>
<text text-anchor="middle" x="610" y="-502" font-family="Helvetica,sans-Serif" font-size="10.00">JSystem/JMath/random.h</text>
</a>
</g>
</g>
<!-- Node2&#45;&gt;Node42 -->
<g id="edge48" class="edge">
<title>Node2&#45;&gt;Node42</title>
<path fill="none" stroke="#63b8ff" d="M1004.69,-560.53C920.9,-548.85 774.61,-528.45 685.6,-516.04"/>
<polygon fill="#63b8ff" stroke="#63b8ff" points="686.13,-512.58 675.74,-514.67 685.16,-519.51 686.13,-512.58"/>
</g>
<!-- Node43 -->
<g id="node33" class="node">
<title>Node43</title>
<g id="a_node33"><a xlink:href="Z2SoundStarter_8h.html" target="_top" xlink:title=" ">
<polygon fill="white" stroke="#666666" points="1363.5,-514 1218.5,-514 1218.5,-495 1363.5,-495 1363.5,-514"/>
<text text-anchor="middle" x="1291" y="-502" font-family="Helvetica,sans-Serif" font-size="10.00">Z2AudioLib/Z2SoundStarter.h</text>
</a>
</g>
</g>
<!-- Node2&#45;&gt;Node43 -->
<g id="edge50" class="edge">
<title>Node2&#45;&gt;Node43</title>
<path fill="none" stroke="#63b8ff" d="M1099.87,-560.6C1138.69,-549.41 1205.52,-530.14 1248.98,-517.61"/>
<polygon fill="#63b8ff" stroke="#63b8ff" points="1249.94,-520.98 1258.58,-514.85 1248,-514.25 1249.94,-520.98"/>
</g>
<!-- Node4 -->
<g id="node4" class="node">
<title>Node4</title>
<g id="a_node4"><a xlink:href="JAISound_8h.html" target="_top" xlink:title=" ">
<polygon fill="white" stroke="#666666" points="1301,-393 1155,-393 1155,-374 1301,-374 1301,-393"/>
<text text-anchor="middle" x="1228" y="-381" font-family="Helvetica,sans-Serif" font-size="10.00">JSystem/JAudio2/JAISound.h</text>
</a>
</g>
</g>
<!-- Node3&#45;&gt;Node4 -->
<g id="edge3" class="edge">
<title>Node3&#45;&gt;Node4</title>
<path fill="none" stroke="#63b8ff" d="M1151.97,-428.54C1167.44,-419.58 1187.25,-408.1 1202.77,-399.11"/>
<polygon fill="#63b8ff" stroke="#63b8ff" points="1204.52,-402.15 1211.42,-394.1 1201.01,-396.09 1204.52,-402.15"/>
</g>
<!-- Node17 -->
<g id="node12" class="node">
<title>Node17</title>
<g id="a_node12"><a xlink:href="JUTAssert_8h.html" target="_top" xlink:title=" ">
<polygon fill="white" stroke="#666666" points="1205,-332.5 1059,-332.5 1059,-313.5 1205,-313.5 1205,-332.5"/>
<text text-anchor="middle" x="1132" y="-320.5" font-family="Helvetica,sans-Serif" font-size="10.00">JSystem/JUtility/JUTAssert.h</text>
</a>
</g>
</g>
<!-- Node3&#45;&gt;Node17 -->
<g id="edge12" class="edge">
<title>Node3&#45;&gt;Node17</title>
<path fill="none" stroke="#63b8ff" d="M1127.59,-428.88C1128.48,-407.8 1130.15,-368 1131.16,-343.95"/>
<polygon fill="#63b8ff" stroke="#63b8ff" points="1134.65,-344.36 1131.57,-334.22 1127.65,-344.07 1134.65,-344.36"/>
</g>
<!-- Node5 -->
<g id="node5" class="node">
<title>Node5</title>
<g id="a_node5"><a xlink:href="JAISoundParams_8h.html" target="_top" xlink:title=" ">
<polygon fill="white" stroke="#666666" points="1362.5,-338 1223.5,-338 1223.5,-308 1362.5,-308 1362.5,-338"/>
<text text-anchor="start" x="1231.5" y="-326" font-family="Helvetica,sans-Serif" font-size="10.00">JSystem/JAudio2/JAISound</text>
<text text-anchor="middle" x="1293" y="-315" font-family="Helvetica,sans-Serif" font-size="10.00">Params.h</text>
</a>
</g>
</g>
<!-- Node4&#45;&gt;Node5 -->
<g id="edge4" class="edge">
<title>Node4&#45;&gt;Node5</title>
<path fill="none" stroke="#63b8ff" d="M1237.87,-373.62C1245.97,-366.32 1257.8,-355.68 1268.42,-346.12"/>
<polygon fill="#63b8ff" stroke="#63b8ff" points="1270.74,-348.74 1275.83,-339.45 1266.06,-343.54 1270.74,-348.74"/>
</g>
<!-- Node9 -->
<g id="node9" class="node">
<title>Node9</title>
<g id="a_node9"><a xlink:href="JAIAudible_8h.html" target="_top" xlink:title=" ">
<polygon fill="white" stroke="#666666" points="1531.5,-332.5 1380.5,-332.5 1380.5,-313.5 1531.5,-313.5 1531.5,-332.5"/>
<text text-anchor="middle" x="1456" y="-320.5" font-family="Helvetica,sans-Serif" font-size="10.00">JSystem/JAudio2/JAIAudible.h</text>
</a>
</g>
</g>
<!-- Node4&#45;&gt;Node9 -->
<g id="edge8" class="edge">
<title>Node4&#45;&gt;Node9</title>
<path fill="none" stroke="#63b8ff" d="M1262.63,-373.62C1301.97,-363.52 1366.34,-347.01 1409.9,-335.83"/>
<polygon fill="#63b8ff" stroke="#63b8ff" points="1410.76,-339.22 1419.58,-333.34 1409.02,-332.44 1410.76,-339.22"/>
</g>
<!-- Node4&#45;&gt;Node16 -->
<g id="edge10" class="edge">
<title>Node4&#45;&gt;Node16</title>
<path fill="none" stroke="#63b8ff" d="M1184.7,-373.53C1148.34,-365.56 1095.24,-352.88 1050,-338 1049.02,-337.68 1048.02,-337.34 1047.03,-336.99"/>
<polygon fill="#63b8ff" stroke="#63b8ff" points="1048.32,-333.74 1037.73,-333.47 1045.84,-340.28 1048.32,-333.74"/>
</g>
<!-- Node6 -->
<g id="node6" class="node">
<title>Node6</title>
<g id="a_node6"><a xlink:href="JASSoundParams_8h.html" target="_top" xlink:title=" ">
<polygon fill="white" stroke="#666666" points="1791.5,-151 1648.5,-151 1648.5,-121 1791.5,-121 1791.5,-151"/>
<text text-anchor="start" x="1656.5" y="-139" font-family="Helvetica,sans-Serif" font-size="10.00">JSystem/JAudio2/JASSound</text>
<text text-anchor="middle" x="1720" y="-128" font-family="Helvetica,sans-Serif" font-size="10.00">Params.h</text>
</a>
</g>
</g>
<!-- Node5&#45;&gt;Node6 -->
<g id="edge5" class="edge">
<title>Node5&#45;&gt;Node6</title>
<path fill="none" stroke="#63b8ff" d="M1362.76,-309.49C1365.88,-308.97 1368.97,-308.48 1372,-308 1488.11,-289.74 1535.05,-335.43 1634,-272 1674.63,-245.95 1699.71,-193.12 1711.64,-161.82"/>
<polygon fill="#63b8ff" stroke="#63b8ff" points="1714.8,-163.38 1714.93,-152.78 1708.22,-160.99 1714.8,-163.38"/>
</g>
<!-- Node7 -->
<g id="node7" class="node">
<title>Node7</title>
<g id="a_node7"><a xlink:href="types_8h.html" target="_top" xlink:title=" ">
<polygon fill="white" stroke="#666666" points="930.5,-85 849.5,-85 849.5,-66 930.5,-66 930.5,-85"/>
<text text-anchor="middle" x="890" y="-73" font-family="Helvetica,sans-Serif" font-size="10.00">dolphin/types.h</text>
</a>
</g>
</g>
<!-- Node6&#45;&gt;Node7 -->
<g id="edge6" class="edge">
<title>Node6&#45;&gt;Node7</title>
<path fill="none" stroke="#63b8ff" d="M1648.28,-122.77C1643.45,-122.11 1638.66,-121.52 1634,-121 1375.17,-92.27 1063.47,-81.21 942,-77.79"/>
<polygon fill="#63b8ff" stroke="#63b8ff" points="942.46,-74.3 932.36,-77.53 942.26,-81.3 942.46,-74.3"/>
</g>
<!-- Node8 -->
<g id="node8" class="node">
<title>Node8</title>
<g id="a_node8"><a xlink:href="stddef_8h.html" target="_top" xlink:title=" ">
<polygon fill="white" stroke="#666666" points="958,-30 822,-30 822,0 958,0 958,-30"/>
<text text-anchor="start" x="830" y="-18" font-family="Helvetica,sans-Serif" font-size="10.00">MSL_C/MSL_Common/Src</text>
<text text-anchor="middle" x="890" y="-7" font-family="Helvetica,sans-Serif" font-size="10.00">/stddef.h</text>
</a>
</g>
</g>
<!-- Node7&#45;&gt;Node8 -->
<g id="edge7" class="edge">
<title>Node7&#45;&gt;Node8</title>
<path fill="none" stroke="#63b8ff" d="M890,-65.87C890,-59.4 890,-50.2 890,-41.45"/>
<polygon fill="#63b8ff" stroke="#63b8ff" points="893.5,-41.63 890,-31.63 886.5,-41.63 893.5,-41.63"/>
</g>
<!-- Node10 -->
<g id="node10" class="node">
<title>Node10</title>
<g id="a_node10"><a xlink:href="JGeometry_8h.html" target="_top" xlink:title=" ">
<polygon fill="#fff0f0" stroke="red" points="1799.5,-272 1686.5,-272 1686.5,-253 1799.5,-253 1799.5,-272"/>
<text text-anchor="middle" x="1743" y="-260" font-family="Helvetica,sans-Serif" font-size="10.00">JSystem/JGeometry.h</text>
</a>
</g>
</g>
<!-- Node9&#45;&gt;Node10 -->
<g id="edge9" class="edge">
<title>Node9&#45;&gt;Node10</title>
<path fill="none" stroke="#63b8ff" d="M1499.9,-313.05C1550.33,-302.77 1633.14,-285.89 1687.87,-274.74"/>
<polygon fill="#63b8ff" stroke="#63b8ff" points="1688.52,-278.18 1697.62,-272.75 1687.12,-271.32 1688.52,-278.18"/>
</g>
<!-- Node16&#45;&gt;Node7 -->
<g id="edge11" class="edge">
<title>Node16&#45;&gt;Node7</title>
<path fill="none" stroke="#63b8ff" d="M990.9,-321.18C863.24,-316.66 285.92,-292.35 126,-217 87.61,-198.91 73.67,-190.02 57,-151 51.76,-138.74 47.83,-130.68 57,-121 83.92,-92.6 659.2,-80.44 837.67,-77.34"/>
<polygon fill="#63b8ff" stroke="#63b8ff" points="837.64,-80.84 847.58,-77.17 837.52,-73.84 837.64,-80.84"/>
</g>
<!-- Node17&#45;&gt;Node7 -->
<g id="edge13" class="edge">
<title>Node17&#45;&gt;Node7</title>
<path fill="none" stroke="#63b8ff" d="M1179.26,-313.06C1295.64,-290.84 1587.65,-233.67 1601,-217 1609.33,-206.59 1607.24,-198.79 1601,-187 1576.61,-140.91 1553.25,-138.14 1504,-121 1400.86,-85.1 1071.08,-78.16 942.26,-76.82"/>
<polygon fill="#63b8ff" stroke="#63b8ff" points="942.35,-73.32 932.31,-76.72 942.28,-80.32 942.35,-73.32"/>
</g>
<!-- Node18 -->
<g id="node13" class="node">
<title>Node18</title>
<g id="a_node13"><a xlink:href="OS_8h.html" target="_top" xlink:title=" ">
<polygon fill="#fff0f0" stroke="red" points="888,-272 802,-272 802,-253 888,-253 888,-272"/>
<text text-anchor="middle" x="845" y="-260" font-family="Helvetica,sans-Serif" font-size="10.00">dolphin/os/OS.h</text>
</a>
</g>
</g>
<!-- Node17&#45;&gt;Node18 -->
<g id="edge14" class="edge">
<title>Node17&#45;&gt;Node18</title>
<path fill="none" stroke="#63b8ff" d="M1088.1,-313.05C1037.52,-302.74 954.37,-285.79 899.65,-274.64"/>
<polygon fill="#63b8ff" stroke="#63b8ff" points="900.41,-271.22 889.91,-272.65 899.01,-278.08 900.41,-271.22"/>
</g>
<!-- Node19 -->
<g id="node14" class="node">
<title>Node19</title>
<g id="a_node14"><a xlink:href="____va__arg_8h.html" target="_top" xlink:title=" ">
<polygon fill="white" stroke="#666666" points="900,-217 790,-217 790,-187 900,-187 900,-217"/>
<text text-anchor="start" x="798" y="-205" font-family="Helvetica,sans-Serif" font-size="10.00">Runtime.PPCEABI.H/</text>
<text text-anchor="middle" x="845" y="-194" font-family="Helvetica,sans-Serif" font-size="10.00">__va_arg.h</text>
</a>
</g>
</g>
<!-- Node18&#45;&gt;Node19 -->
<g id="edge15" class="edge">
<title>Node18&#45;&gt;Node19</title>
<path fill="none" stroke="#63b8ff" d="M845,-252.87C845,-246.4 845,-237.2 845,-228.45"/>
<polygon fill="#63b8ff" stroke="#63b8ff" points="848.5,-228.63 845,-218.63 841.5,-228.63 848.5,-228.63"/>
</g>
<!-- Node20 -->
<g id="node15" class="node">
<title>Node20</title>
<g id="a_node15"><a xlink:href="dvd_8h.html" target="_top" xlink:title=" ">
<polygon fill="white" stroke="#666666" points="1010,-211.5 918,-211.5 918,-192.5 1010,-192.5 1010,-211.5"/>
<text text-anchor="middle" x="964" y="-199.5" font-family="Helvetica,sans-Serif" font-size="10.00">dolphin/dvd/dvd.h</text>
</a>
</g>
</g>
<!-- Node18&#45;&gt;Node20 -->
<g id="edge17" class="edge">
<title>Node18&#45;&gt;Node20</title>
<path fill="none" stroke="#63b8ff" d="M863.07,-252.62C882.29,-243.17 912.97,-228.09 935.46,-217.03"/>
<polygon fill="#63b8ff" stroke="#63b8ff" points="936.97,-220.19 944.4,-212.64 933.88,-213.91 936.97,-220.19"/>
</g>
<!-- Node21 -->
<g id="node16" class="node">
<title>Node21</title>
<g id="a_node16"><a xlink:href="OSAlarm_8h.html" target="_top" xlink:title=" ">
<polygon fill="#fff0f0" stroke="red" points="1139.5,-211.5 1028.5,-211.5 1028.5,-192.5 1139.5,-192.5 1139.5,-211.5"/>
<text text-anchor="middle" x="1084" y="-199.5" font-family="Helvetica,sans-Serif" font-size="10.00">dolphin/os/OSAlarm.h</text>
</a>
</g>
</g>
<!-- Node18&#45;&gt;Node21 -->
<g id="edge19" class="edge">
<title>Node18&#45;&gt;Node21</title>
<path fill="none" stroke="#63b8ff" d="M881.56,-252.55C923.03,-242.4 990.79,-225.81 1036.37,-214.66"/>
<polygon fill="#63b8ff" stroke="#63b8ff" points="1037.09,-218.08 1045.97,-212.31 1035.43,-211.29 1037.09,-218.08"/>
</g>
<!-- Node22 -->
<g id="node17" class="node">
<title>Node22</title>
<g id="a_node17"><a xlink:href="OSError_8h.html" target="_top" xlink:title=" ">
<polygon fill="white" stroke="#666666" points="1062,-145.5 956,-145.5 956,-126.5 1062,-126.5 1062,-145.5"/>
<text text-anchor="middle" x="1009" y="-133.5" font-family="Helvetica,sans-Serif" font-size="10.00">dolphin/os/OSError.h</text>
</a>
</g>
</g>
<!-- Node18&#45;&gt;Node22 -->
<g id="edge31" class="edge">
<title>Node18&#45;&gt;Node22</title>
<path fill="none" stroke="#63b8ff" d="M888.45,-261.77C964.07,-261.22 1114.98,-255.22 1148,-217 1156.72,-206.91 1155.67,-197.91 1148,-187 1137.45,-172 1095.31,-158.15 1060.16,-148.85"/>
<polygon fill="#63b8ff" stroke="#63b8ff" points="1061.07,-145.47 1050.51,-146.37 1059.32,-152.25 1061.07,-145.47"/>
</g>
<!-- Node24 -->
<g id="node18" class="node">
<title>Node24</title>
<g id="a_node18"><a xlink:href="OSAlloc_8h.html" target="_top" xlink:title=" ">
<polygon fill="white" stroke="#666666" points="1187.5,-145.5 1080.5,-145.5 1080.5,-126.5 1187.5,-126.5 1187.5,-145.5"/>
<text text-anchor="middle" x="1134" y="-133.5" font-family="Helvetica,sans-Serif" font-size="10.00">dolphin/os/OSAlloc.h</text>
</a>
</g>
</g>
<!-- Node18&#45;&gt;Node24 -->
<g id="edge22" class="edge">
<title>Node18&#45;&gt;Node24</title>
<path fill="none" stroke="#63b8ff" d="M888.2,-262.18C967.28,-262.41 1130.48,-257.78 1166,-217 1181.9,-198.75 1164.92,-171.61 1150.27,-154.11"/>
<polygon fill="#63b8ff" stroke="#63b8ff" points="1153.27,-152.22 1144.01,-147.07 1148.04,-156.87 1153.27,-152.22"/>
</g>
<!-- Node25 -->
<g id="node19" class="node">
<title>Node25</title>
<g id="a_node19"><a xlink:href="OSArena_8h.html" target="_top" xlink:title=" ">
<polygon fill="white" stroke="#666666" points="1316.5,-145.5 1205.5,-145.5 1205.5,-126.5 1316.5,-126.5 1316.5,-145.5"/>
<text text-anchor="middle" x="1261" y="-133.5" font-family="Helvetica,sans-Serif" font-size="10.00">dolphin/os/OSArena.h</text>
</a>
</g>
</g>
<!-- Node18&#45;&gt;Node25 -->
<g id="edge24" class="edge">
<title>Node18&#45;&gt;Node25</title>
<path fill="none" stroke="#63b8ff" d="M888.29,-259.32C967.48,-254.76 1132.2,-242.45 1183,-217 1211.39,-202.78 1235.36,-174.04 1248.96,-155.16"/>
<polygon fill="#63b8ff" stroke="#63b8ff" points="1251.74,-157.3 1254.55,-147.08 1245.98,-153.31 1251.74,-157.3"/>
</g>
<!-- Node26 -->
<g id="node20" class="node">
<title>Node26</title>
<g id="a_node20"><a xlink:href="OSAudioSystem_8h.html" target="_top" xlink:title=" ">
<polygon fill="white" stroke="#666666" points="1415.5,-211.5 1272.5,-211.5 1272.5,-192.5 1415.5,-192.5 1415.5,-211.5"/>
<text text-anchor="middle" x="1344" y="-199.5" font-family="Helvetica,sans-Serif" font-size="10.00">dolphin/os/OSAudioSystem.h</text>
</a>
</g>
</g>
<!-- Node18&#45;&gt;Node26 -->
<g id="edge26" class="edge">
<title>Node18&#45;&gt;Node26</title>
<path fill="none" stroke="#63b8ff" d="M888.5,-257.59C963.89,-250.65 1123.64,-235.16 1258,-217 1265.27,-216.02 1272.87,-214.91 1280.41,-213.75"/>
<polygon fill="#63b8ff" stroke="#63b8ff" points="1280.93,-217.21 1290.27,-212.2 1279.85,-210.29 1280.93,-217.21"/>
</g>
<!-- Node27 -->
<g id="node21" class="node">
<title>Node27</title>
<g id="a_node21"><a xlink:href="OSCache_8h.html" target="_top" xlink:title=" ">
<polygon fill="white" stroke="#666666" points="1465.5,-145.5 1352.5,-145.5 1352.5,-126.5 1465.5,-126.5 1465.5,-145.5"/>
<text text-anchor="middle" x="1409" y="-133.5" font-family="Helvetica,sans-Serif" font-size="10.00">dolphin/os/OSCache.h</text>
</a>
</g>
</g>
<!-- Node18&#45;&gt;Node27 -->
<g id="edge27" class="edge">
<title>Node18&#45;&gt;Node27</title>
<path fill="none" stroke="#63b8ff" d="M888.19,-261.48C1016.5,-260.99 1388.71,-256.18 1425,-217 1440.3,-200.48 1430.42,-173.62 1420.74,-155.64"/>
<polygon fill="#63b8ff" stroke="#63b8ff" points="1423.8,-153.93 1415.73,-147.07 1417.76,-157.46 1423.8,-153.93"/>
</g>
<!-- Node28 -->
<g id="node22" class="node">
<title>Node28</title>
<g id="a_node22"><a xlink:href="OSContext_8h.html" target="_top" xlink:title=" ">
<polygon fill="white" stroke="#666666" points="1591.5,-211.5 1472.5,-211.5 1472.5,-192.5 1591.5,-192.5 1591.5,-211.5"/>
<text text-anchor="middle" x="1532" y="-199.5" font-family="Helvetica,sans-Serif" font-size="10.00">dolphin/os/OSContext.h</text>
</a>
</g>
</g>
<!-- Node18&#45;&gt;Node28 -->
<g id="edge29" class="edge">
<title>Node18&#45;&gt;Node28</title>
<path fill="none" stroke="#63b8ff" d="M888.28,-260.06C988.72,-256.35 1245.33,-244.74 1458,-217 1464.48,-216.15 1471.25,-215.11 1477.95,-213.97"/>
<polygon fill="#63b8ff" stroke="#63b8ff" points="1478.37,-217.45 1487.6,-212.25 1477.14,-210.55 1478.37,-217.45"/>
</g>
<!-- Node29 -->
<g id="node23" class="node">
<title>Node29</title>
<g id="a_node23"><a xlink:href="OSExec_8h.html" target="_top" xlink:title=" ">
<polygon fill="white" stroke="#666666" points="173.5,-145.5 66.5,-145.5 66.5,-126.5 173.5,-126.5 173.5,-145.5"/>
<text text-anchor="middle" x="120" y="-133.5" font-family="Helvetica,sans-Serif" font-size="10.00">dolphin/os/OSExec.h</text>
</a>
</g>
</g>
<!-- Node18&#45;&gt;Node29 -->
<g id="edge32" class="edge">
<title>Node18&#45;&gt;Node29</title>
<path fill="none" stroke="#63b8ff" d="M801.83,-261.4C658.32,-260.69 203.4,-255.41 151,-217 132.06,-203.12 124.69,-176 121.83,-157.21"/>
<polygon fill="#63b8ff" stroke="#63b8ff" points="125.3,-156.82 120.65,-147.3 118.35,-157.64 125.3,-156.82"/>
</g>
<!-- Node30 -->
<g id="node24" class="node">
<title>Node30</title>
<g id="a_node24"><a xlink:href="OSFont_8h.html" target="_top" xlink:title=" ">
<polygon fill="white" stroke="#666666" points="296.5,-145.5 191.5,-145.5 191.5,-126.5 296.5,-126.5 296.5,-145.5"/>
<text text-anchor="middle" x="244" y="-133.5" font-family="Helvetica,sans-Serif" font-size="10.00">dolphin/os/OSFont.h</text>
</a>
</g>
</g>
<!-- Node18&#45;&gt;Node30 -->
<g id="edge34" class="edge">
<title>Node18&#45;&gt;Node30</title>
<path fill="none" stroke="#63b8ff" d="M801.85,-262.03C658.51,-263.34 204.79,-263.73 161,-217 138.32,-192.79 179.81,-166.39 211.88,-150.79"/>
<polygon fill="#63b8ff" stroke="#63b8ff" points="213.33,-153.97 220.91,-146.57 210.37,-147.63 213.33,-153.97"/>
</g>
<!-- Node31 -->
<g id="node25" class="node">
<title>Node31</title>
<g id="a_node25"><a xlink:href="OSInterrupt_8h.html" target="_top" xlink:title=" ">
<polygon fill="white" stroke="#666666" points="437,-145.5 315,-145.5 315,-126.5 437,-126.5 437,-145.5"/>
<text text-anchor="middle" x="376" y="-133.5" font-family="Helvetica,sans-Serif" font-size="10.00">dolphin/os/OSInterrupt.h</text>
</a>
</g>
</g>
<!-- Node18&#45;&gt;Node31 -->
<g id="edge36" class="edge">
<title>Node18&#45;&gt;Node31</title>
<path fill="none" stroke="#63b8ff" d="M801.99,-261.98C660.2,-263.13 214.08,-263.02 171,-217 161.89,-207.27 162.76,-197.49 171,-187 175.77,-180.93 263.21,-161.16 322.33,-148.37"/>
<polygon fill="#63b8ff" stroke="#63b8ff" points="322.86,-151.84 331.9,-146.31 321.39,-145 322.86,-151.84"/>
</g>
<!-- Node32 -->
<g id="node26" class="node">
<title>Node32</title>
<g id="a_node26"><a xlink:href="OSLink_8h.html" target="_top" xlink:title=" ">
<polygon fill="white" stroke="#666666" points="422,-211.5 318,-211.5 318,-192.5 422,-192.5 422,-211.5"/>
<text text-anchor="middle" x="370" y="-199.5" font-family="Helvetica,sans-Serif" font-size="10.00">dolphin/os/OSLink.h</text>
</a>
</g>
</g>
<!-- Node18&#45;&gt;Node32 -->
<g id="edge38" class="edge">
<title>Node18&#45;&gt;Node32</title>
<path fill="none" stroke="#63b8ff" d="M801.56,-258.53C725.9,-252.99 565.21,-239.53 431,-217 426.36,-216.22 421.54,-215.3 416.74,-214.32"/>
<polygon fill="#63b8ff" stroke="#63b8ff" points="417.65,-210.94 407.14,-212.25 416.18,-217.78 417.65,-210.94"/>
</g>
<!-- Node33 -->
<g id="node27" class="node">
<title>Node33</title>
<g id="a_node27"><a xlink:href="OSMemory_8h.html" target="_top" xlink:title=" ">
<polygon fill="white" stroke="#666666" points="300,-211.5 180,-211.5 180,-192.5 300,-192.5 300,-211.5"/>
<text text-anchor="middle" x="240" y="-199.5" font-family="Helvetica,sans-Serif" font-size="10.00">dolphin/os/OSMemory.h</text>
</a>
</g>
</g>
<!-- Node18&#45;&gt;Node33 -->
<g id="edge40" class="edge">
<title>Node18&#45;&gt;Node33</title>
<path fill="none" stroke="#63b8ff" d="M801.73,-259.63C710.35,-255.31 491.11,-242.94 309,-217 303.25,-216.18 297.25,-215.18 291.3,-214.1"/>
<polygon fill="#63b8ff" stroke="#63b8ff" points="291.96,-210.66 281.48,-212.23 290.65,-217.54 291.96,-210.66"/>
</g>
<!-- Node34 -->
<g id="node28" class="node">
<title>Node34</title>
<g id="a_node28"><a xlink:href="OSMessage_8h.html" target="_top" xlink:title=" ">
<polygon fill="#fff0f0" stroke="red" points="565.5,-211.5 440.5,-211.5 440.5,-192.5 565.5,-192.5 565.5,-211.5"/>
<text text-anchor="middle" x="503" y="-199.5" font-family="Helvetica,sans-Serif" font-size="10.00">dolphin/os/OSMessage.h</text>
</a>
</g>
</g>
<!-- Node18&#45;&gt;Node34 -->
<g id="edge42" class="edge">
<title>Node18&#45;&gt;Node34</title>
<path fill="none" stroke="#63b8ff" d="M801.91,-254.79C748.57,-246.39 654.96,-231.36 575,-217 569.79,-216.06 564.38,-215.06 558.96,-214.04"/>
<polygon fill="#63b8ff" stroke="#63b8ff" points="559.86,-210.65 549.39,-212.22 558.55,-217.53 559.86,-210.65"/>
</g>
<!-- Node36 -->
<g id="node29" class="node">
<title>Node36</title>
<g id="a_node29"><a xlink:href="OSMutex_8h.html" target="_top" xlink:title=" ">
<polygon fill="#fff0f0" stroke="red" points="696,-211.5 584,-211.5 584,-192.5 696,-192.5 696,-211.5"/>
<text text-anchor="middle" x="640" y="-199.5" font-family="Helvetica,sans-Serif" font-size="10.00">dolphin/os/OSMutex.h</text>
</a>
</g>
</g>
<!-- Node18&#45;&gt;Node36 -->
<g id="edge43" class="edge">
<title>Node18&#45;&gt;Node36</title>
<path fill="none" stroke="#63b8ff" d="M813.86,-252.62C778.8,-242.61 721.6,-226.29 682.45,-215.12"/>
<polygon fill="#63b8ff" stroke="#63b8ff" points="683.46,-211.76 672.88,-212.38 681.54,-218.49 683.46,-211.76"/>
</g>
<!-- Node37 -->
<g id="node30" class="node">
<title>Node37</title>
<g id="a_node30"><a xlink:href="OSReboot_8h.html" target="_top" xlink:title=" ">
<polygon fill="white" stroke="#666666" points="732,-145.5 616,-145.5 616,-126.5 732,-126.5 732,-145.5"/>
<text text-anchor="middle" x="674" y="-133.5" font-family="Helvetica,sans-Serif" font-size="10.00">dolphin/os/OSReboot.h</text>
</a>
</g>
</g>
<!-- Node18&#45;&gt;Node37 -->
<g id="edge44" class="edge">
<title>Node18&#45;&gt;Node37</title>
<path fill="none" stroke="#63b8ff" d="M829.19,-252.5C814.35,-243.88 791.7,-230.26 773,-217 743.87,-196.35 712.08,-169.9 692.59,-153.2"/>
<polygon fill="#63b8ff" stroke="#63b8ff" points="695.07,-150.72 685.22,-146.84 690.5,-156.02 695.07,-150.72"/>
</g>
<!-- Node38 -->
<g id="node31" class="node">
<title>Node38</title>
<g id="a_node31"><a xlink:href="OSReset_8h.html" target="_top" xlink:title=" ">
<polygon fill="white" stroke="#666666" points="861.5,-145.5 750.5,-145.5 750.5,-126.5 861.5,-126.5 861.5,-145.5"/>
<text text-anchor="middle" x="806" y="-133.5" font-family="Helvetica,sans-Serif" font-size="10.00">dolphin/os/OSReset.h</text>
</a>
</g>
</g>
<!-- Node18&#45;&gt;Node38 -->
<g id="edge46" class="edge">
<title>Node18&#45;&gt;Node38</title>
<path fill="none" stroke="#63b8ff" d="M822.57,-252.56C807.83,-245.36 789.71,-233.67 781,-217 770.51,-196.92 782.02,-171.68 792.66,-154.98"/>
<polygon fill="#63b8ff" stroke="#63b8ff" points="795.33,-157.27 798.11,-147.05 789.56,-153.31 795.33,-157.27"/>
</g>
<!-- Node19&#45;&gt;Node7 -->
<g id="edge16" class="edge">
<title>Node19&#45;&gt;Node7</title>
<path fill="none" stroke="#63b8ff" d="M853.01,-186.9C858.35,-177.07 865.24,-163.52 870,-151 876.83,-133 882.3,-111.73 885.78,-96.53"/>
<polygon fill="#63b8ff" stroke="#63b8ff" points="889.17,-97.39 887.9,-86.88 882.33,-95.89 889.17,-97.39"/>
</g>
<!-- Node20&#45;&gt;Node7 -->
<g id="edge18" class="edge">
<title>Node20&#45;&gt;Node7</title>
<path fill="none" stroke="#63b8ff" d="M958.68,-192.05C946.68,-171.86 917.3,-122.43 901.13,-95.22"/>
<polygon fill="#63b8ff" stroke="#63b8ff" points="904.17,-93.48 896.05,-86.67 898.15,-97.06 904.17,-93.48"/>
</g>
<!-- Node21&#45;&gt;Node22 -->
<g id="edge20" class="edge">
<title>Node21&#45;&gt;Node22</title>
<path fill="none" stroke="#63b8ff" d="M1073.57,-192.1C1061.82,-182.07 1042.46,-165.56 1028.01,-153.22"/>
<polygon fill="#63b8ff" stroke="#63b8ff" points="1030.37,-150.63 1020.49,-146.81 1025.83,-155.96 1030.37,-150.63"/>
</g>
<!-- Node22&#45;&gt;Node7 -->
<g id="edge21" class="edge">
<title>Node22&#45;&gt;Node7</title>
<path fill="none" stroke="#63b8ff" d="M990.93,-126.12C971.71,-116.67 941.03,-101.59 918.54,-90.53"/>
<polygon fill="#63b8ff" stroke="#63b8ff" points="920.12,-87.41 909.6,-86.14 917.03,-93.69 920.12,-87.41"/>
</g>
<!-- Node24&#45;&gt;Node7 -->
<g id="edge23" class="edge">
<title>Node24&#45;&gt;Node7</title>
<path fill="none" stroke="#63b8ff" d="M1096.68,-126.05C1054.25,-115.88 984.87,-99.24 938.34,-88.09"/>
<polygon fill="#63b8ff" stroke="#63b8ff" points="939.33,-84.73 928.79,-85.8 937.7,-91.54 939.33,-84.73"/>
</g>
<!-- Node25&#45;&gt;Node7 -->
<g id="edge25" class="edge">
<title>Node25&#45;&gt;Node7</title>
<path fill="none" stroke="#63b8ff" d="M1222.17,-126.04C1213.88,-124.26 1205.17,-122.48 1197,-121 1107.89,-104.82 1003.38,-90.69 942.15,-82.91"/>
<polygon fill="#63b8ff" stroke="#63b8ff" points="942.73,-79.45 932.37,-81.67 941.86,-86.4 942.73,-79.45"/>
</g>
<!-- Node27&#45;&gt;Node7 -->
<g id="edge28" class="edge">
<title>Node27&#45;&gt;Node7</title>
<path fill="none" stroke="#63b8ff" d="M1359.05,-126.03C1348.17,-124.23 1336.72,-122.45 1326,-121 1187.87,-102.32 1024.17,-87.59 942.23,-80.72"/>
<polygon fill="#63b8ff" stroke="#63b8ff" points="942.74,-77.25 932.49,-79.91 942.16,-84.23 942.74,-77.25"/>
</g>
<!-- Node28&#45;&gt;Node7 -->
<g id="edge30" class="edge">
<title>Node28&#45;&gt;Node7</title>
<path fill="none" stroke="#63b8ff" d="M1528.66,-192.06C1521.69,-174.82 1503.81,-137.26 1475,-121 1429.21,-95.16 1076.71,-82.05 942.06,-77.95"/>
<polygon fill="#63b8ff" stroke="#63b8ff" points="942.46,-74.46 932.36,-77.66 942.25,-81.46 942.46,-74.46"/>
</g>
<!-- Node29&#45;&gt;Node7 -->
<g id="edge33" class="edge">
<title>Node29&#45;&gt;Node7</title>
<path fill="none" stroke="#63b8ff" d="M155.23,-126.02C163.93,-124.09 173.26,-122.25 182,-121 425.39,-86.1 719.75,-78.57 837.56,-76.95"/>
<polygon fill="#63b8ff" stroke="#63b8ff" points="837.59,-80.45 847.55,-76.82 837.5,-73.45 837.59,-80.45"/>
</g>
<!-- Node30&#45;&gt;Node7 -->
<g id="edge35" class="edge">
<title>Node30&#45;&gt;Node7</title>
<path fill="none" stroke="#63b8ff" d="M279.57,-126.03C288.17,-124.12 297.38,-122.29 306,-121 500.86,-91.74 735.34,-81.28 837.81,-77.92"/>
<polygon fill="#63b8ff" stroke="#63b8ff" points="837.66,-81.43 847.55,-77.61 837.44,-74.43 837.66,-81.43"/>
</g>
<!-- Node31&#45;&gt;Node7 -->
<g id="edge37" class="edge">
<title>Node31&#45;&gt;Node7</title>
<path fill="none" stroke="#63b8ff" d="M437.49,-128C539.55,-116.39 742.16,-93.33 837.75,-82.45"/>
<polygon fill="#63b8ff" stroke="#63b8ff" points="838.1,-85.93 847.64,-81.32 837.31,-78.97 838.1,-85.93"/>
</g>
<!-- Node32&#45;&gt;Node7 -->
<g id="edge39" class="edge">
<title>Node32&#45;&gt;Node7</title>
<path fill="none" stroke="#63b8ff" d="M392.17,-192.1C433.68,-175.76 526.24,-140.83 607,-121 686.53,-101.47 780.83,-88.66 838,-82"/>
<polygon fill="#63b8ff" stroke="#63b8ff" points="838.23,-85.49 847.76,-80.88 837.43,-78.54 838.23,-85.49"/>
</g>
<!-- Node33&#45;&gt;Node31 -->
<g id="edge41" class="edge">
<title>Node33&#45;&gt;Node31</title>
<path fill="none" stroke="#63b8ff" d="M258.91,-192.1C281.75,-181.35 320.4,-163.16 347.01,-150.64"/>
<polygon fill="#63b8ff" stroke="#63b8ff" points="348.32,-153.89 355.88,-146.47 345.34,-147.56 348.32,-153.89"/>
</g>
<!-- Node37&#45;&gt;Node7 -->
<g id="edge45" class="edge">
<title>Node37&#45;&gt;Node7</title>
<path fill="none" stroke="#63b8ff" d="M706.81,-126.12C743.92,-116.06 804.54,-99.65 845.8,-88.47"/>
<polygon fill="#63b8ff" stroke="#63b8ff" points="846.69,-91.86 855.42,-85.86 844.86,-85.1 846.69,-91.86"/>
</g>
<!-- Node38&#45;&gt;Node7 -->
<g id="edge47" class="edge">
<title>Node38&#45;&gt;Node7</title>
<path fill="none" stroke="#63b8ff" d="M818.76,-126.12C831.83,-117.01 852.41,-102.68 868.1,-91.75"/>
<polygon fill="#63b8ff" stroke="#63b8ff" points="869.67,-94.92 875.88,-86.33 865.67,-89.18 869.67,-94.92"/>
</g>
<!-- Node42&#45;&gt;Node7 -->
<g id="edge49" class="edge">
<title>Node42&#45;&gt;Node7</title>
<path fill="none" stroke="#63b8ff" d="M545.58,-504.39C388.78,-504.81 0,-494.76 0,-384.5 0,-384.5 0,-384.5 0,-201 0,-159.54 12.47,-142.37 48,-121 115.48,-80.41 664.41,-76.61 837.75,-76.44"/>
<polygon fill="#63b8ff" stroke="#63b8ff" points="837.58,-79.94 847.58,-76.43 837.58,-72.94 837.58,-79.94"/>
</g>
<!-- Node44 -->
<g id="node34" class="node">
<title>Node44</title>
<g id="a_node34"><a xlink:href="JAISoundStarter_8h.html" target="_top" xlink:title=" ">
<polygon fill="white" stroke="#666666" points="1360.5,-459 1221.5,-459 1221.5,-429 1360.5,-429 1360.5,-459"/>
<text text-anchor="start" x="1229.5" y="-447" font-family="Helvetica,sans-Serif" font-size="10.00">JSystem/JAudio2/JAISound</text>
<text text-anchor="middle" x="1291" y="-436" font-family="Helvetica,sans-Serif" font-size="10.00">Starter.h</text>
</a>
</g>
</g>
<!-- Node43&#45;&gt;Node44 -->
<g id="edge51" class="edge">
<title>Node43&#45;&gt;Node44</title>
<path fill="none" stroke="#63b8ff" d="M1291,-494.87C1291,-488.4 1291,-479.2 1291,-470.45"/>
<polygon fill="#63b8ff" stroke="#63b8ff" points="1294.5,-470.63 1291,-460.63 1287.5,-470.63 1294.5,-470.63"/>
</g>
<!-- Node45 -->
<g id="node35" class="node">
<title>Node45</title>
<g id="a_node35"><a xlink:href="JASGadget_8h.html" target="_top" xlink:title=" ">
<polygon fill="white" stroke="#666666" points="1473,-393 1319,-393 1319,-374 1473,-374 1473,-393"/>
<text text-anchor="middle" x="1396" y="-381" font-family="Helvetica,sans-Serif" font-size="10.00">JSystem/JAudio2/JASGadget.h</text>
</a>
</g>
</g>
<!-- Node43&#45;&gt;Node45 -->
<g id="edge56" class="edge">
<title>Node43&#45;&gt;Node45</title>
<path fill="none" stroke="#63b8ff" d="M1316.62,-494.63C1333.87,-487.46 1355.96,-475.78 1370,-459 1383.17,-443.26 1389.83,-420.43 1393.09,-404.2"/>
<polygon fill="#63b8ff" stroke="#63b8ff" points="1396.46,-405.24 1394.71,-394.79 1389.56,-404.05 1396.46,-405.24"/>
</g>
<!-- Node44&#45;&gt;Node4 -->
<g id="edge52" class="edge">
<title>Node44&#45;&gt;Node4</title>
<path fill="none" stroke="#63b8ff" d="M1275.43,-428.54C1266.37,-420.13 1254.93,-409.51 1245.55,-400.8"/>
<polygon fill="#63b8ff" stroke="#63b8ff" points="1248.16,-398.44 1238.45,-394.21 1243.4,-403.57 1248.16,-398.44"/>
</g>
<!-- Node44&#45;&gt;Node45 -->
<g id="edge53" class="edge">
<title>Node44&#45;&gt;Node45</title>
<path fill="none" stroke="#63b8ff" d="M1316.96,-428.54C1333.2,-419.49 1354.03,-407.88 1370.24,-398.85"/>
<polygon fill="#63b8ff" stroke="#63b8ff" points="1371.77,-402.01 1378.8,-394.08 1368.36,-395.89 1371.77,-402.01"/>
</g>
<!-- Node45&#45;&gt;Node17 -->
<g id="edge54" class="edge">
<title>Node45&#45;&gt;Node17</title>
<path fill="none" stroke="#63b8ff" d="M1355.62,-373.55C1309.42,-363.32 1233.69,-346.53 1183.34,-335.38"/>
<polygon fill="#63b8ff" stroke="#63b8ff" points="1184.38,-332.02 1173.86,-333.28 1182.86,-338.86 1184.38,-332.02"/>
</g>
<!-- Node46 -->
<g id="node36" class="node">
<title>Node46</title>
<g id="a_node36"><a xlink:href="string_8h.html" target="_top" xlink:title=" ">
<polygon fill="#fff0f0" stroke="red" points="1634,-332.5 1550,-332.5 1550,-313.5 1634,-313.5 1634,-332.5"/>
<text text-anchor="middle" x="1592" y="-320.5" font-family="Helvetica,sans-Serif" font-size="10.00">MSL_C/string.h</text>
</a>
</g>
</g>
<!-- Node45&#45;&gt;Node46 -->
<g id="edge55" class="edge">
<title>Node45&#45;&gt;Node46</title>
<path fill="none" stroke="#63b8ff" d="M1425.77,-373.62C1459.15,-363.65 1513.51,-347.43 1550.93,-336.26"/>
<polygon fill="#63b8ff" stroke="#63b8ff" points="1551.92,-339.62 1560.5,-333.4 1549.92,-332.91 1551.92,-339.62"/>
</g>
</g>
</svg>
