<?xml version="1.0" encoding="UTF-8" standalone="no"?>
<!DOCTYPE svg PUBLIC "-//W3C//DTD SVG 1.1//EN"
 "http://www.w3.org/Graphics/SVG/1.1/DTD/svg11.dtd">
<!-- Generated by graphviz version 7.0.5 (20221223.1930)
 -->
<!-- Title: include/Z2AudioLib/Z2WolfHowlMgr.h Pages: 1 -->
<!--zoomable 544 -->
<svg id="main" version="1.1" xmlns="http://www.w3.org/2000/svg" xmlns:xlink="http://www.w3.org/1999/xlink" xml:space="preserve" onload="init(evt)">
<style type="text/css"><![CDATA[
.edge:hover path { stroke: red; }
.edge:hover polygon { stroke: red; fill: red; }
]]></style>
<script type="text/javascript"><![CDATA[
var edges = document.getElementsByTagName('g');
if (edges && edges.length) {
  for (var i=0;i<edges.length;i++) {
    if (edges[i].id.substr(0,4)=='edge') {
      edges[i].setAttribute('class','edge');
    }
  }
}
]]></script>
        <defs>
                <circle id="rim" cx="0" cy="0" r="7"/>
                <circle id="rim2" cx="0" cy="0" r="3.5"/>
                <g id="zoomPlus">
                        <use xlink:href="#rim" fill="#404040">
                                <set attributeName="fill" to="#808080" begin="zoomplus.mouseover" end="zoomplus.mouseout"/>
                        </use>
                        <path d="M-4,0h8M0,-4v8" fill="none" stroke="white" stroke-width="1.5" pointer-events="none"/>
                </g>
                <g id="zoomMin">
                        <use xlink:href="#rim" fill="#404040">
                                <set attributeName="fill" to="#808080" begin="zoomminus.mouseover" end="zoomminus.mouseout"/>
                        </use>
                        <path d="M-4,0h8" fill="none" stroke="white" stroke-width="1.5" pointer-events="none"/>
                </g>
                <g id="dirArrow">
                        <path fill="none" stroke="white" stroke-width="1.5" d="M0,-3.0v7 M-2.5,-0.5L0,-3.0L2.5,-0.5"/>
                </g>
               <g id="resetDef">
                       <use xlink:href="#rim2" fill="#404040">
                               <set attributeName="fill" to="#808080" begin="reset.mouseover" end="reset.mouseout"/>
                       </use>
               </g>
        </defs>

<script type="text/javascript">
var viewWidth = 2361;
var viewHeight = 544;
var sectionId = 'dynsection-0';
</script>
<script xlink:href="svgpan.js"/>
<svg id="graph" class="graph">
<g id="viewport">
<title>include/Z2AudioLib/Z2WolfHowlMgr.h</title>
<!-- Node1 -->
<g id="node1" class="node">
<title>Node1</title>
<g id="a_node1"><a xlink:title=" ">
<polygon fill="#999999" stroke="#666666" points="1849,-536 1749,-536 1749,-506 1849,-506 1849,-536"/>
<text text-anchor="start" x="1757" y="-524" font-family="Helvetica,sans-Serif" font-size="10.00">include/Z2AudioLib</text>
<text text-anchor="middle" x="1799" y="-513" font-family="Helvetica,sans-Serif" font-size="10.00">/Z2WolfHowlMgr.h</text>
</a>
</g>
</g>
<!-- Node2 -->
<g id="node2" class="node">
<title>Node2</title>
<g id="a_node2"><a xlink:href="JASGadget_8h.html" target="_top" xlink:title=" ">
<polygon fill="white" stroke="#666666" points="1959,-464.5 1805,-464.5 1805,-445.5 1959,-445.5 1959,-464.5"/>
<text text-anchor="middle" x="1882" y="-452.5" font-family="Helvetica,sans-Serif" font-size="10.00">JSystem/JAudio2/JASGadget.h</text>
</a>
</g>
</g>
<!-- Node1&#45;&gt;Node2 -->
<g id="edge1" class="edge">
<title>Node1&#45;&gt;Node2</title>
<path fill="none" stroke="#63b8ff" d="M1817.42,-505.8C1830.49,-495.72 1848.03,-482.19 1861.53,-471.78"/>
<polygon fill="#63b8ff" stroke="#63b8ff" points="1863.55,-474.65 1869.33,-465.77 1859.28,-469.1 1863.55,-474.65"/>
</g>
<!-- Node34 -->
<g id="node34" class="node">
<title>Node34</title>
<g id="a_node34"><a xlink:href="JAISoundHandles_8h.html" target="_top" xlink:title=" ">
<polygon fill="white" stroke="#666666" points="1786.5,-470 1647.5,-470 1647.5,-440 1786.5,-440 1786.5,-470"/>
<text text-anchor="start" x="1655.5" y="-458" font-family="Helvetica,sans-Serif" font-size="10.00">JSystem/JAudio2/JAISound</text>
<text text-anchor="middle" x="1717" y="-447" font-family="Helvetica,sans-Serif" font-size="10.00">Handles.h</text>
</a>
</g>
</g>
<!-- Node1&#45;&gt;Node34 -->
<g id="edge57" class="edge">
<title>Node1&#45;&gt;Node34</title>
<path fill="none" stroke="#63b8ff" d="M1780.8,-505.8C1770.05,-497.4 1756.23,-486.62 1744.2,-477.23"/>
<polygon fill="#63b8ff" stroke="#63b8ff" points="1746.66,-474.71 1736.62,-471.32 1742.35,-480.23 1746.66,-474.71"/>
</g>
<!-- Node3 -->
<g id="node3" class="node">
<title>Node3</title>
<g id="a_node3"><a xlink:href="JUTAssert_8h.html" target="_top" xlink:title=" ">
<polygon fill="white" stroke="#666666" points="1873,-404 1727,-404 1727,-385 1873,-385 1873,-404"/>
<text text-anchor="middle" x="1800" y="-392" font-family="Helvetica,sans-Serif" font-size="10.00">JSystem/JUtility/JUTAssert.h</text>
</a>
</g>
</g>
<!-- Node2&#45;&gt;Node3 -->
<g id="edge2" class="edge">
<title>Node2&#45;&gt;Node3</title>
<path fill="none" stroke="#63b8ff" d="M1869.55,-445.12C1856.9,-436.1 1837.07,-421.95 1821.81,-411.06"/>
<polygon fill="#63b8ff" stroke="#63b8ff" points="1823.98,-408.31 1813.8,-405.35 1819.91,-414 1823.98,-408.31"/>
</g>
<!-- Node30 -->
<g id="node30" class="node">
<title>Node30</title>
<g id="a_node30"><a xlink:href="string_8h.html" target="_top" xlink:title=" ">
<polygon fill="white" stroke="#666666" points="2250,-156.5 2166,-156.5 2166,-137.5 2250,-137.5 2250,-156.5"/>
<text text-anchor="middle" x="2208" y="-144.5" font-family="Helvetica,sans-Serif" font-size="10.00">MSL_C/string.h</text>
</a>
</g>
</g>
<!-- Node2&#45;&gt;Node30 -->
<g id="edge51" class="edge">
<title>Node2&#45;&gt;Node30</title>
<path fill="none" stroke="#63b8ff" d="M1939.58,-445.01C2029.23,-429.37 2192,-393.66 2192,-340.5 2192,-340.5 2192,-340.5 2192,-278 2192,-238.7 2199.29,-193.23 2204.03,-167.81"/>
<polygon fill="#63b8ff" stroke="#63b8ff" points="2207.41,-168.75 2205.88,-158.27 2200.54,-167.42 2207.41,-168.75"/>
</g>
<!-- Node4 -->
<g id="node4" class="node">
<title>Node4</title>
<g id="a_node4"><a xlink:href="types_8h.html" target="_top" xlink:title=" ">
<polygon fill="white" stroke="#666666" points="1365.5,-90.5 1284.5,-90.5 1284.5,-71.5 1365.5,-71.5 1365.5,-90.5"/>
<text text-anchor="middle" x="1325" y="-78.5" font-family="Helvetica,sans-Serif" font-size="10.00">dolphin/types.h</text>
</a>
</g>
</g>
<!-- Node3&#45;&gt;Node4 -->
<g id="edge3" class="edge">
<title>Node3&#45;&gt;Node4</title>
<path fill="none" stroke="#63b8ff" d="M1869.21,-384.53C1968.1,-369.75 2138,-336.17 2138,-280 2138,-280 2138,-280 2138,-212 2138,-173.01 2134.04,-154.21 2102,-132 2042.7,-90.9 1541.88,-83.58 1377.23,-82.28"/>
<polygon fill="#63b8ff" stroke="#63b8ff" points="1377.51,-78.78 1367.48,-82.21 1377.45,-85.78 1377.51,-78.78"/>
</g>
<!-- Node6 -->
<g id="node6" class="node">
<title>Node6</title>
<g id="a_node6"><a xlink:href="OS_8h.html" target="_top" xlink:title=" ">
<polygon fill="white" stroke="#666666" points="1472,-349 1386,-349 1386,-330 1472,-330 1472,-349"/>
<text text-anchor="middle" x="1429" y="-337" font-family="Helvetica,sans-Serif" font-size="10.00">dolphin/os/OS.h</text>
</a>
</g>
</g>
<!-- Node3&#45;&gt;Node6 -->
<g id="edge5" class="edge">
<title>Node3&#45;&gt;Node6</title>
<path fill="none" stroke="#63b8ff" d="M1737.06,-384.51C1665.93,-374.35 1551.27,-357.97 1483.71,-348.32"/>
<polygon fill="#63b8ff" stroke="#63b8ff" points="1484.37,-344.87 1473.98,-346.93 1483.38,-351.8 1484.37,-344.87"/>
</g>
<!-- Node5 -->
<g id="node5" class="node">
<title>Node5</title>
<g id="a_node5"><a xlink:href="stddef_8h.html" target="_top" xlink:title=" ">
<polygon fill="white" stroke="#666666" points="2045,-30 1909,-30 1909,0 2045,0 2045,-30"/>
<text text-anchor="start" x="1917" y="-18" font-family="Helvetica,sans-Serif" font-size="10.00">MSL_C/MSL_Common/Src</text>
<text text-anchor="middle" x="1977" y="-7" font-family="Helvetica,sans-Serif" font-size="10.00">/stddef.h</text>
</a>
</g>
</g>
<!-- Node4&#45;&gt;Node5 -->
<g id="edge4" class="edge">
<title>Node4&#45;&gt;Node5</title>
<path fill="none" stroke="#63b8ff" d="M1365.79,-76C1471.85,-65.59 1757.76,-37.52 1897.69,-23.79"/>
<polygon fill="#63b8ff" stroke="#63b8ff" points="1897.61,-27.31 1907.22,-22.85 1896.93,-20.34 1897.61,-27.31"/>
</g>
<!-- Node7 -->
<g id="node7" class="node">
<title>Node7</title>
<g id="a_node7"><a xlink:href="____va__arg_8h.html" target="_top" xlink:title=" ">
<polygon fill="white" stroke="#666666" points="1776,-162 1666,-162 1666,-132 1776,-132 1776,-162"/>
<text text-anchor="start" x="1674" y="-150" font-family="Helvetica,sans-Serif" font-size="10.00">Runtime.PPCEABI.H/</text>
<text text-anchor="middle" x="1721" y="-139" font-family="Helvetica,sans-Serif" font-size="10.00">__va_arg.h</text>
</a>
</g>
</g>
<!-- Node6&#45;&gt;Node7 -->
<g id="edge6" class="edge">
<title>Node6&#45;&gt;Node7</title>
<path fill="none" stroke="#63b8ff" d="M1472.49,-334.18C1528.45,-327.88 1621.72,-314.62 1649,-294 1688.55,-264.1 1707.71,-206.6 1715.85,-173.38"/>
<polygon fill="#63b8ff" stroke="#63b8ff" points="1719.22,-174.34 1718.03,-163.82 1712.4,-172.79 1719.22,-174.34"/>
</g>
<!-- Node8 -->
<g id="node8" class="node">
<title>Node8</title>
<g id="a_node8"><a xlink:href="dvd_8h.html" target="_top" xlink:title=" ">
<polygon fill="white" stroke="#666666" points="1822,-222.5 1730,-222.5 1730,-203.5 1822,-203.5 1822,-222.5"/>
<text text-anchor="middle" x="1776" y="-210.5" font-family="Helvetica,sans-Serif" font-size="10.00">dolphin/dvd/dvd.h</text>
</a>
</g>
</g>
<!-- Node6&#45;&gt;Node8 -->
<g id="edge8" class="edge">
<title>Node6&#45;&gt;Node8</title>
<path fill="none" stroke="#63b8ff" d="M1472.45,-335.19C1540.26,-329.42 1667.57,-316 1707,-294 1732.98,-279.51 1753.73,-251.27 1765.46,-232.52"/>
<polygon fill="#63b8ff" stroke="#63b8ff" points="1768.39,-234.43 1770.51,-224.05 1762.38,-230.85 1768.39,-234.43"/>
</g>
<!-- Node9 -->
<g id="node9" class="node">
<title>Node9</title>
<g id="a_node9"><a xlink:href="OSAlarm_8h.html" target="_top" xlink:title=" ">
<polygon fill="white" stroke="#666666" points="2033.5,-288.5 1922.5,-288.5 1922.5,-269.5 2033.5,-269.5 2033.5,-288.5"/>
<text text-anchor="middle" x="1978" y="-276.5" font-family="Helvetica,sans-Serif" font-size="10.00">dolphin/os/OSAlarm.h</text>
</a>
</g>
</g>
<!-- Node6&#45;&gt;Node9 -->
<g id="edge10" class="edge">
<title>Node6&#45;&gt;Node9</title>
<path fill="none" stroke="#63b8ff" d="M1472.37,-336.33C1557.45,-331.67 1752.1,-319.04 1914,-294 1919,-293.23 1924.2,-292.3 1929.38,-291.29"/>
<polygon fill="#63b8ff" stroke="#63b8ff" points="1930,-294.74 1939.1,-289.3 1928.6,-287.88 1930,-294.74"/>
</g>
<!-- Node10 -->
<g id="node10" class="node">
<title>Node10</title>
<g id="a_node10"><a xlink:href="OSError_8h.html" target="_top" xlink:title=" ">
<polygon fill="white" stroke="#666666" points="1946,-222.5 1840,-222.5 1840,-203.5 1946,-203.5 1946,-222.5"/>
<text text-anchor="middle" x="1893" y="-210.5" font-family="Helvetica,sans-Serif" font-size="10.00">dolphin/os/OSError.h</text>
</a>
</g>
</g>
<!-- Node6&#45;&gt;Node10 -->
<g id="edge24" class="edge">
<title>Node6&#45;&gt;Node10</title>
<path fill="none" stroke="#63b8ff" d="M1472.48,-337.51C1533.46,-334.95 1647.09,-325.89 1738,-294 1762.81,-285.3 1765.8,-276.37 1789,-264 1813.54,-250.91 1842.04,-237.32 1863,-227.61"/>
<polygon fill="#63b8ff" stroke="#63b8ff" points="1864.21,-230.91 1871.83,-223.55 1861.28,-224.55 1864.21,-230.91"/>
</g>
<!-- Node11 -->
<g id="node11" class="node">
<title>Node11</title>
<g id="a_node11"><a xlink:href="OSTime_8h.html" target="_top" xlink:title=" ">
<polygon fill="white" stroke="#666666" points="2071.5,-222.5 1964.5,-222.5 1964.5,-203.5 2071.5,-203.5 2071.5,-222.5"/>
<text text-anchor="middle" x="2018" y="-210.5" font-family="Helvetica,sans-Serif" font-size="10.00">dolphin/os/OSTime.h</text>
</a>
</g>
</g>
<!-- Node6&#45;&gt;Node11 -->
<g id="edge50" class="edge">
<title>Node6&#45;&gt;Node11</title>
<path fill="none" stroke="#63b8ff" d="M1472.34,-338.68C1605.86,-338.8 2004.28,-335.62 2043,-294 2058.9,-276.91 2045.06,-249.83 2032.5,-231.98"/>
<polygon fill="#63b8ff" stroke="#63b8ff" points="2035.4,-230.01 2026.59,-224.13 2029.81,-234.22 2035.4,-230.01"/>
</g>
<!-- Node12 -->
<g id="node12" class="node">
<title>Node12</title>
<g id="a_node12"><a xlink:href="OSAlloc_8h.html" target="_top" xlink:title=" ">
<polygon fill="white" stroke="#666666" points="2092.5,-156.5 1985.5,-156.5 1985.5,-137.5 2092.5,-137.5 2092.5,-156.5"/>
<text text-anchor="middle" x="2039" y="-144.5" font-family="Helvetica,sans-Serif" font-size="10.00">dolphin/os/OSAlloc.h</text>
</a>
</g>
</g>
<!-- Node6&#45;&gt;Node12 -->
<g id="edge15" class="edge">
<title>Node6&#45;&gt;Node12</title>
<path fill="none" stroke="#63b8ff" d="M1472.06,-338.22C1606.78,-336.97 2013.98,-330.2 2060,-294 2094.33,-267 2095.95,-239.04 2081,-198 2076.4,-185.38 2067.06,-173.73 2058.35,-164.85"/>
<polygon fill="#63b8ff" stroke="#63b8ff" points="2060.82,-162.36 2051.15,-158.02 2055.99,-167.44 2060.82,-162.36"/>
</g>
<!-- Node13 -->
<g id="node13" class="node">
<title>Node13</title>
<g id="a_node13"><a xlink:href="OSArena_8h.html" target="_top" xlink:title=" ">
<polygon fill="white" stroke="#666666" points="505.5,-222.5 394.5,-222.5 394.5,-203.5 505.5,-203.5 505.5,-222.5"/>
<text text-anchor="middle" x="450" y="-210.5" font-family="Helvetica,sans-Serif" font-size="10.00">dolphin/os/OSArena.h</text>
</a>
</g>
</g>
<!-- Node6&#45;&gt;Node13 -->
<g id="edge17" class="edge">
<title>Node6&#45;&gt;Node13</title>
<path fill="none" stroke="#63b8ff" d="M1385.55,-338.59C1213.51,-338.66 585.66,-336.01 508,-294 483.63,-280.82 466.93,-252.43 457.92,-233.27"/>
<polygon fill="#63b8ff" stroke="#63b8ff" points="461.13,-231.89 453.91,-224.14 454.72,-234.7 461.13,-231.89"/>
</g>
<!-- Node14 -->
<g id="node14" class="node">
<title>Node14</title>
<g id="a_node14"><a xlink:href="OSAudioSystem_8h.html" target="_top" xlink:title=" ">
<polygon fill="white" stroke="#666666" points="769.5,-288.5 626.5,-288.5 626.5,-269.5 769.5,-269.5 769.5,-288.5"/>
<text text-anchor="middle" x="698" y="-276.5" font-family="Helvetica,sans-Serif" font-size="10.00">dolphin/os/OSAudioSystem.h</text>
</a>
</g>
</g>
<!-- Node6&#45;&gt;Node14 -->
<g id="edge19" class="edge">
<title>Node6&#45;&gt;Node14</title>
<path fill="none" stroke="#63b8ff" d="M1385.81,-337.12C1281.2,-333.42 1006.01,-321.67 778,-294 770.75,-293.12 763.16,-292.02 755.66,-290.83"/>
<polygon fill="#63b8ff" stroke="#63b8ff" points="756.34,-287.4 745.9,-289.22 755.2,-294.3 756.34,-287.4"/>
</g>
<!-- Node15 -->
<g id="node15" class="node">
<title>Node15</title>
<g id="a_node15"><a xlink:href="OSCache_8h.html" target="_top" xlink:title=" ">
<polygon fill="white" stroke="#666666" points="853.5,-156.5 740.5,-156.5 740.5,-137.5 853.5,-137.5 853.5,-156.5"/>
<text text-anchor="middle" x="797" y="-144.5" font-family="Helvetica,sans-Serif" font-size="10.00">dolphin/os/OSCache.h</text>
</a>
</g>
</g>
<!-- Node6&#45;&gt;Node15 -->
<g id="edge20" class="edge">
<title>Node6&#45;&gt;Node15</title>
<path fill="none" stroke="#63b8ff" d="M1385.53,-337.6C1215.92,-333.92 606.39,-319 574,-294 539.43,-267.31 525.39,-231.84 553,-198 564.18,-184.29 660.77,-167.68 729,-157.48"/>
<polygon fill="#63b8ff" stroke="#63b8ff" points="729.24,-160.98 738.62,-156.05 728.22,-154.05 729.24,-160.98"/>
</g>
<!-- Node16 -->
<g id="node16" class="node">
<title>Node16</title>
<g id="a_node16"><a xlink:href="OSContext_8h.html" target="_top" xlink:title=" ">
<polygon fill="white" stroke="#666666" points="1168.5,-156.5 1049.5,-156.5 1049.5,-137.5 1168.5,-137.5 1168.5,-156.5"/>
<text text-anchor="middle" x="1109" y="-144.5" font-family="Helvetica,sans-Serif" font-size="10.00">dolphin/os/OSContext.h</text>
</a>
</g>
</g>
<!-- Node6&#45;&gt;Node16 -->
<g id="edge22" class="edge">
<title>Node6&#45;&gt;Node16</title>
<path fill="none" stroke="#63b8ff" d="M1385.72,-338.28C1311.16,-336.93 1163.08,-329.7 1128,-294 1094.93,-260.35 1099.67,-199.33 1104.89,-167.9"/>
<polygon fill="#63b8ff" stroke="#63b8ff" points="1108.3,-168.7 1106.7,-158.23 1101.42,-167.41 1108.3,-168.7"/>
</g>
<!-- Node17 -->
<g id="node17" class="node">
<title>Node17</title>
<g id="a_node17"><a xlink:href="OSExec_8h.html" target="_top" xlink:title=" ">
<polygon fill="white" stroke="#666666" points="669.5,-222.5 562.5,-222.5 562.5,-203.5 669.5,-203.5 669.5,-222.5"/>
<text text-anchor="middle" x="616" y="-210.5" font-family="Helvetica,sans-Serif" font-size="10.00">dolphin/os/OSExec.h</text>
</a>
</g>
</g>
<!-- Node6&#45;&gt;Node17 -->
<g id="edge25" class="edge">
<title>Node6&#45;&gt;Node17</title>
<path fill="none" stroke="#63b8ff" d="M1385.51,-337.85C1216.56,-335.12 611.82,-323.32 584,-294 567.25,-276.35 584.7,-248.83 599.66,-231.11"/>
<polygon fill="#63b8ff" stroke="#63b8ff" points="601.99,-233.76 606.05,-223.97 596.77,-229.09 601.99,-233.76"/>
</g>
<!-- Node18 -->
<g id="node18" class="node">
<title>Node18</title>
<g id="a_node18"><a xlink:href="OSFont_8h.html" target="_top" xlink:title=" ">
<polygon fill="white" stroke="#666666" points="1029.5,-156.5 924.5,-156.5 924.5,-137.5 1029.5,-137.5 1029.5,-156.5"/>
<text text-anchor="middle" x="977" y="-144.5" font-family="Helvetica,sans-Serif" font-size="10.00">dolphin/os/OSFont.h</text>
</a>
</g>
</g>
<!-- Node6&#45;&gt;Node18 -->
<g id="edge27" class="edge">
<title>Node6&#45;&gt;Node18</title>
<path fill="none" stroke="#63b8ff" d="M1385.53,-337.75C1220.9,-334.72 643.62,-322.11 617,-294 607.83,-284.32 609.15,-274.78 617,-264 635.95,-237.98 837.05,-183.77 930.17,-159.82"/>
<polygon fill="#63b8ff" stroke="#63b8ff" points="930.95,-163.23 939.77,-157.36 929.21,-156.45 930.95,-163.23"/>
</g>
<!-- Node19 -->
<g id="node19" class="node">
<title>Node19</title>
<g id="a_node19"><a xlink:href="OSInterrupt_8h.html" target="_top" xlink:title=" ">
<polygon fill="white" stroke="#666666" points="1259,-222.5 1137,-222.5 1137,-203.5 1259,-203.5 1259,-222.5"/>
<text text-anchor="middle" x="1198" y="-210.5" font-family="Helvetica,sans-Serif" font-size="10.00">dolphin/os/OSInterrupt.h</text>
</a>
</g>
</g>
<!-- Node6&#45;&gt;Node19 -->
<g id="edge29" class="edge">
<title>Node6&#45;&gt;Node19</title>
<path fill="none" stroke="#63b8ff" d="M1394.56,-329.54C1368.7,-322.04 1332.93,-310 1304,-294 1285.17,-283.59 1283.11,-277.04 1266,-264 1250.43,-252.14 1232.6,-239.04 1219.1,-229.23"/>
<polygon fill="#63b8ff" stroke="#63b8ff" points="1221.51,-226.65 1211.36,-223.62 1217.4,-232.32 1221.51,-226.65"/>
</g>
<!-- Node20 -->
<g id="node20" class="node">
<title>Node20</title>
<g id="a_node20"><a xlink:href="OSLink_8h.html" target="_top" xlink:title=" ">
<polygon fill="white" stroke="#666666" points="1417,-288.5 1313,-288.5 1313,-269.5 1417,-269.5 1417,-288.5"/>
<text text-anchor="middle" x="1365" y="-276.5" font-family="Helvetica,sans-Serif" font-size="10.00">dolphin/os/OSLink.h</text>
</a>
</g>
</g>
<!-- Node6&#45;&gt;Node20 -->
<g id="edge31" class="edge">
<title>Node6&#45;&gt;Node20</title>
<path fill="none" stroke="#63b8ff" d="M1419.28,-329.62C1409.69,-320.85 1394.81,-307.25 1383.06,-296.5"/>
<polygon fill="#63b8ff" stroke="#63b8ff" points="1385.67,-294.15 1375.93,-289.99 1380.95,-299.32 1385.67,-294.15"/>
</g>
<!-- Node21 -->
<g id="node21" class="node">
<title>Node21</title>
<g id="a_node21"><a xlink:href="OSMemory_8h.html" target="_top" xlink:title=" ">
<polygon fill="white" stroke="#666666" points="1257,-288.5 1137,-288.5 1137,-269.5 1257,-269.5 1257,-288.5"/>
<text text-anchor="middle" x="1197" y="-276.5" font-family="Helvetica,sans-Serif" font-size="10.00">dolphin/os/OSMemory.h</text>
</a>
</g>
</g>
<!-- Node6&#45;&gt;Node21 -->
<g id="edge33" class="edge">
<title>Node6&#45;&gt;Node21</title>
<path fill="none" stroke="#63b8ff" d="M1393.51,-329.55C1353.34,-319.42 1287.76,-302.89 1243.52,-291.73"/>
<polygon fill="#63b8ff" stroke="#63b8ff" points="1244.5,-288.37 1233.95,-289.32 1242.79,-295.16 1244.5,-288.37"/>
</g>
<!-- Node22 -->
<g id="node22" class="node">
<title>Node22</title>
<g id="a_node22"><a xlink:href="OSMessage_8h.html" target="_top" xlink:title=" ">
<polygon fill="white" stroke="#666666" points="912.5,-288.5 787.5,-288.5 787.5,-269.5 912.5,-269.5 912.5,-288.5"/>
<text text-anchor="middle" x="850" y="-276.5" font-family="Helvetica,sans-Serif" font-size="10.00">dolphin/os/OSMessage.h</text>
</a>
</g>
</g>
<!-- Node6&#45;&gt;Node22 -->
<g id="edge35" class="edge">
<title>Node6&#45;&gt;Node22</title>
<path fill="none" stroke="#63b8ff" d="M1385.54,-335.99C1298.33,-330.66 1095.87,-316.79 927,-294 920.44,-293.12 913.6,-292.06 906.81,-290.93"/>
<polygon fill="#63b8ff" stroke="#63b8ff" points="907.43,-287.49 896.98,-289.24 906.24,-294.39 907.43,-287.49"/>
</g>
<!-- Node23 -->
<g id="node23" class="node">
<title>Node23</title>
<g id="a_node23"><a xlink:href="OSThread_8h.html" target="_top" xlink:title=" ">
<polygon fill="white" stroke="#666666" points="1040,-222.5 924,-222.5 924,-203.5 1040,-203.5 1040,-222.5"/>
<text text-anchor="middle" x="982" y="-210.5" font-family="Helvetica,sans-Serif" font-size="10.00">dolphin/os/OSThread.h</text>
</a>
</g>
</g>
<!-- Node6&#45;&gt;Node23 -->
<g id="edge49" class="edge">
<title>Node6&#45;&gt;Node23</title>
<path fill="none" stroke="#63b8ff" d="M1385.56,-337.64C1274.76,-334.99 988.34,-325.16 960,-294 944.52,-276.99 956.91,-250.08 968.42,-232.23"/>
<polygon fill="#63b8ff" stroke="#63b8ff" points="971.2,-234.37 974.02,-224.16 965.45,-230.38 971.2,-234.37"/>
</g>
<!-- Node24 -->
<g id="node24" class="node">
<title>Node24</title>
<g id="a_node24"><a xlink:href="OSMutex_8h.html" target="_top" xlink:title=" ">
<polygon fill="white" stroke="#666666" points="1081,-288.5 969,-288.5 969,-269.5 1081,-269.5 1081,-288.5"/>
<text text-anchor="middle" x="1025" y="-276.5" font-family="Helvetica,sans-Serif" font-size="10.00">dolphin/os/OSMutex.h</text>
</a>
</g>
</g>
<!-- Node6&#45;&gt;Node24 -->
<g id="edge38" class="edge">
<title>Node6&#45;&gt;Node24</title>
<path fill="none" stroke="#63b8ff" d="M1385.63,-333.63C1321.8,-326.26 1198.87,-311.29 1095,-294 1089.7,-293.12 1084.19,-292.13 1078.69,-291.11"/>
<polygon fill="#63b8ff" stroke="#63b8ff" points="1079.46,-287.69 1068.98,-289.24 1078.14,-294.56 1079.46,-287.69"/>
</g>
<!-- Node25 -->
<g id="node25" class="node">
<title>Node25</title>
<g id="a_node25"><a xlink:href="OSReboot_8h.html" target="_top" xlink:title=" ">
<polygon fill="white" stroke="#666666" points="1551,-288.5 1435,-288.5 1435,-269.5 1551,-269.5 1551,-288.5"/>
<text text-anchor="middle" x="1493" y="-276.5" font-family="Helvetica,sans-Serif" font-size="10.00">dolphin/os/OSReboot.h</text>
</a>
</g>
</g>
<!-- Node6&#45;&gt;Node25 -->
<g id="edge40" class="edge">
<title>Node6&#45;&gt;Node25</title>
<path fill="none" stroke="#63b8ff" d="M1438.72,-329.62C1448.31,-320.85 1463.19,-307.25 1474.94,-296.5"/>
<polygon fill="#63b8ff" stroke="#63b8ff" points="1477.05,-299.32 1482.07,-289.99 1472.33,-294.15 1477.05,-299.32"/>
</g>
<!-- Node26 -->
<g id="node26" class="node">
<title>Node26</title>
<g id="a_node26"><a xlink:href="OSReset_8h.html" target="_top" xlink:title=" ">
<polygon fill="white" stroke="#666666" points="1464.5,-156.5 1353.5,-156.5 1353.5,-137.5 1464.5,-137.5 1464.5,-156.5"/>
<text text-anchor="middle" x="1409" y="-144.5" font-family="Helvetica,sans-Serif" font-size="10.00">dolphin/os/OSReset.h</text>
</a>
</g>
</g>
<!-- Node6&#45;&gt;Node26 -->
<g id="edge42" class="edge">
<title>Node6&#45;&gt;Node26</title>
<path fill="none" stroke="#63b8ff" d="M1472.3,-336.34C1502.27,-332.31 1540.21,-321.63 1560,-294 1567.77,-283.16 1565.89,-275.96 1560,-264 1546.38,-236.37 1472.58,-187.5 1433.43,-162.95"/>
<polygon fill="#63b8ff" stroke="#63b8ff" points="1435.46,-160.09 1425.11,-157.79 1431.76,-166.04 1435.46,-160.09"/>
</g>
<!-- Node27 -->
<g id="node27" class="node">
<title>Node27</title>
<g id="a_node27"><a xlink:href="OSResetSW_8h.html" target="_top" xlink:title=" ">
<polygon fill="white" stroke="#666666" points="1609.5,-156.5 1482.5,-156.5 1482.5,-137.5 1609.5,-137.5 1609.5,-156.5"/>
<text text-anchor="middle" x="1546" y="-144.5" font-family="Helvetica,sans-Serif" font-size="10.00">dolphin/os/OSResetSW.h</text>
</a>
</g>
</g>
<!-- Node6&#45;&gt;Node27 -->
<g id="edge44" class="edge">
<title>Node6&#45;&gt;Node27</title>
<path fill="none" stroke="#63b8ff" d="M1472.17,-338.4C1506.41,-335.75 1552.32,-325.9 1576,-294 1583.95,-283.29 1578.14,-277.16 1576,-264 1573.3,-247.35 1568.52,-244.25 1564,-228 1558.34,-207.67 1553.2,-184.07 1549.88,-167.79"/>
<polygon fill="#63b8ff" stroke="#63b8ff" points="1553.4,-167.56 1548.01,-158.44 1546.53,-168.93 1553.4,-167.56"/>
</g>
<!-- Node28 -->
<g id="node28" class="node">
<title>Node28</title>
<g id="a_node28"><a xlink:href="OSRtc_8h.html" target="_top" xlink:title=" ">
<polygon fill="white" stroke="#666666" points="1673.5,-222.5 1572.5,-222.5 1572.5,-203.5 1673.5,-203.5 1673.5,-222.5"/>
<text text-anchor="middle" x="1623" y="-210.5" font-family="Helvetica,sans-Serif" font-size="10.00">dolphin/os/OSRtc.h</text>
</a>
</g>
</g>
<!-- Node6&#45;&gt;Node28 -->
<g id="edge46" class="edge">
<title>Node6&#45;&gt;Node28</title>
<path fill="none" stroke="#63b8ff" d="M1472.33,-335.18C1525.64,-330.09 1611.48,-318.28 1631,-294 1644.63,-277.03 1638.69,-251.06 1631.96,-233.34"/>
<polygon fill="#63b8ff" stroke="#63b8ff" points="1635.23,-232.07 1628.11,-224.23 1628.78,-234.8 1635.23,-232.07"/>
</g>
<!-- Node29 -->
<g id="node29" class="node">
<title>Node29</title>
<g id="a_node29"><a xlink:href="OSSync_8h.html" target="_top" xlink:title=" ">
<polygon fill="white" stroke="#666666" points="1904.5,-288.5 1797.5,-288.5 1797.5,-269.5 1904.5,-269.5 1904.5,-288.5"/>
<text text-anchor="middle" x="1851" y="-276.5" font-family="Helvetica,sans-Serif" font-size="10.00">dolphin/os/OSSync.h</text>
</a>
</g>
</g>
<!-- Node6&#45;&gt;Node29 -->
<g id="edge48" class="edge">
<title>Node6&#45;&gt;Node29</title>
<path fill="none" stroke="#63b8ff" d="M1472.48,-334.14C1539.41,-327.18 1671.63,-312.44 1783,-294 1788.22,-293.14 1793.66,-292.15 1799.08,-291.12"/>
<polygon fill="#63b8ff" stroke="#63b8ff" points="1799.48,-294.61 1808.62,-289.25 1798.13,-287.74 1799.48,-294.61"/>
</g>
<!-- Node7&#45;&gt;Node4 -->
<g id="edge7" class="edge">
<title>Node7&#45;&gt;Node4</title>
<path fill="none" stroke="#63b8ff" d="M1665.68,-134.53C1661.06,-133.65 1656.45,-132.79 1652,-132 1555.19,-114.79 1441.6,-98.23 1376.98,-89.16"/>
<polygon fill="#63b8ff" stroke="#63b8ff" points="1377.78,-85.73 1367.39,-87.81 1376.81,-92.66 1377.78,-85.73"/>
</g>
<!-- Node8&#45;&gt;Node4 -->
<g id="edge9" class="edge">
<title>Node8&#45;&gt;Node4</title>
<path fill="none" stroke="#63b8ff" d="M1780.77,-203.25C1788.9,-186.99 1802.92,-151.97 1785,-132 1758.13,-102.05 1491.52,-88.35 1376.92,-83.81"/>
<polygon fill="#63b8ff" stroke="#63b8ff" points="1377.31,-80.33 1367.18,-83.44 1377.04,-87.32 1377.31,-80.33"/>
</g>
<!-- Node9&#45;&gt;Node10 -->
<g id="edge11" class="edge">
<title>Node9&#45;&gt;Node10</title>
<path fill="none" stroke="#63b8ff" d="M1966.18,-269.1C1952.61,-258.88 1930.09,-241.93 1913.61,-229.52"/>
<polygon fill="#63b8ff" stroke="#63b8ff" points="1916.02,-226.95 1905.93,-223.73 1911.81,-232.54 1916.02,-226.95"/>
</g>
<!-- Node9&#45;&gt;Node11 -->
<g id="edge13" class="edge">
<title>Node9&#45;&gt;Node11</title>
<path fill="none" stroke="#63b8ff" d="M1983.56,-269.1C1989.47,-259.64 1998.99,-244.42 2006.52,-232.37"/>
<polygon fill="#63b8ff" stroke="#63b8ff" points="2009.35,-234.44 2011.68,-224.11 2003.42,-230.73 2009.35,-234.44"/>
</g>
<!-- Node10&#45;&gt;Node4 -->
<g id="edge12" class="edge">
<title>Node10&#45;&gt;Node4</title>
<path fill="none" stroke="#63b8ff" d="M1886.25,-203.08C1872.66,-185.87 1840.11,-148.37 1803,-132 1727.68,-98.78 1484.51,-87.07 1376.97,-83.44"/>
<polygon fill="#63b8ff" stroke="#63b8ff" points="1377.4,-79.95 1367.29,-83.13 1377.17,-86.95 1377.4,-79.95"/>
</g>
<!-- Node11&#45;&gt;Node4 -->
<g id="edge14" class="edge">
<title>Node11&#45;&gt;Node4</title>
<path fill="none" stroke="#63b8ff" d="M2002.73,-203.17C1972.44,-186.13 1902.15,-148.91 1838,-132 1673.7,-88.7 1470.9,-82.12 1377.11,-81.62"/>
<polygon fill="#63b8ff" stroke="#63b8ff" points="1377.21,-78.12 1367.2,-81.59 1377.19,-85.12 1377.21,-78.12"/>
</g>
<!-- Node12&#45;&gt;Node4 -->
<g id="edge16" class="edge">
<title>Node12&#45;&gt;Node4</title>
<path fill="none" stroke="#63b8ff" d="M1985.07,-138.04C1969.58,-135.9 1952.64,-133.71 1937,-132 1730.16,-109.37 1482.97,-92.18 1377.19,-85.29"/>
<polygon fill="#63b8ff" stroke="#63b8ff" points="1377.61,-81.81 1367.41,-84.66 1377.16,-88.8 1377.61,-81.81"/>
</g>
<!-- Node13&#45;&gt;Node4 -->
<g id="edge18" class="edge">
<title>Node13&#45;&gt;Node4</title>
<path fill="none" stroke="#63b8ff" d="M483.42,-203C519.79,-193.16 579.62,-176.8 631,-162 675.59,-149.15 685.41,-140.66 731,-132 928.76,-94.44 1168.91,-85.09 1272.87,-82.77"/>
<polygon fill="#63b8ff" stroke="#63b8ff" points="1272.84,-86.27 1282.76,-82.56 1272.69,-79.27 1272.84,-86.27"/>
</g>
<!-- Node15&#45;&gt;Node4 -->
<g id="edge21" class="edge">
<title>Node15&#45;&gt;Node4</title>
<path fill="none" stroke="#63b8ff" d="M845.57,-137C855.93,-135.22 866.81,-133.46 877,-132 1019.8,-111.56 1189.23,-94.63 1272.9,-86.76"/>
<polygon fill="#63b8ff" stroke="#63b8ff" points="1272.99,-90.26 1282.62,-85.85 1272.33,-83.29 1272.99,-90.26"/>
</g>
<!-- Node16&#45;&gt;Node4 -->
<g id="edge23" class="edge">
<title>Node16&#45;&gt;Node4</title>
<path fill="none" stroke="#63b8ff" d="M1139.03,-137.1C1176.73,-125.93 1241.56,-106.72 1283.85,-94.19"/>
<polygon fill="#63b8ff" stroke="#63b8ff" points="1284.83,-97.55 1293.42,-91.36 1282.84,-90.84 1284.83,-97.55"/>
</g>
<!-- Node17&#45;&gt;Node4 -->
<g id="edge26" class="edge">
<title>Node17&#45;&gt;Node4</title>
<path fill="none" stroke="#63b8ff" d="M659.52,-203.01C667.66,-201.34 676.09,-199.61 684,-198 763.52,-181.82 786.96,-190.34 863,-162 888.36,-152.55 890.29,-140.47 916,-132 1039.52,-91.29 1193.88,-83.19 1272.98,-81.91"/>
<polygon fill="#63b8ff" stroke="#63b8ff" points="1272.62,-85.41 1282.58,-81.78 1272.53,-78.41 1272.62,-85.41"/>
</g>
<!-- Node18&#45;&gt;Node4 -->
<g id="edge28" class="edge">
<title>Node18&#45;&gt;Node4</title>
<path fill="none" stroke="#63b8ff" d="M1016.89,-137.01C1024.86,-135.29 1033.19,-133.54 1041,-132 1121.87,-116.04 1216.2,-99.93 1273.22,-90.46"/>
<polygon fill="#63b8ff" stroke="#63b8ff" points="1273.67,-93.93 1282.96,-88.85 1272.53,-87.03 1273.67,-93.93"/>
</g>
<!-- Node19&#45;&gt;Node4 -->
<g id="edge30" class="edge">
<title>Node19&#45;&gt;Node4</title>
<path fill="none" stroke="#63b8ff" d="M1205.74,-203.46C1219.19,-188.67 1247.85,-157.47 1273,-132 1284.3,-120.56 1297.34,-108.02 1307.54,-98.36"/>
<polygon fill="#63b8ff" stroke="#63b8ff" points="1309.68,-101.15 1314.55,-91.75 1304.88,-96.06 1309.68,-101.15"/>
</g>
<!-- Node20&#45;&gt;Node4 -->
<g id="edge32" class="edge">
<title>Node20&#45;&gt;Node4</title>
<path fill="none" stroke="#63b8ff" d="M1349.87,-269.1C1336.82,-260.46 1318.88,-246.03 1311,-228 1292.53,-185.74 1307.21,-130.19 1317.37,-101.32"/>
<polygon fill="#63b8ff" stroke="#63b8ff" points="1320.59,-102.7 1320.81,-92.11 1314.03,-100.25 1320.59,-102.7"/>
</g>
<!-- Node21&#45;&gt;Node19 -->
<g id="edge34" class="edge">
<title>Node21&#45;&gt;Node19</title>
<path fill="none" stroke="#63b8ff" d="M1197.14,-269.1C1197.28,-260.12 1197.5,-245.95 1197.68,-234.22"/>
<polygon fill="#63b8ff" stroke="#63b8ff" points="1201.18,-234.39 1197.84,-224.34 1194.18,-234.28 1201.18,-234.39"/>
</g>
<!-- Node22&#45;&gt;Node23 -->
<g id="edge36" class="edge">
<title>Node22&#45;&gt;Node23</title>
<path fill="none" stroke="#63b8ff" d="M868.35,-269.1C890.42,-258.4 927.7,-240.33 953.52,-227.81"/>
<polygon fill="#63b8ff" stroke="#63b8ff" points="954.97,-231 962.44,-223.48 951.91,-224.7 954.97,-231"/>
</g>
<!-- Node23&#45;&gt;Node16 -->
<g id="edge37" class="edge">
<title>Node23&#45;&gt;Node16</title>
<path fill="none" stroke="#63b8ff" d="M999.66,-203.1C1020.79,-192.45 1056.44,-174.49 1081.26,-161.98"/>
<polygon fill="#63b8ff" stroke="#63b8ff" points="1082.78,-165.13 1090.14,-157.5 1079.63,-158.88 1082.78,-165.13"/>
</g>
<!-- Node24&#45;&gt;Node23 -->
<g id="edge39" class="edge">
<title>Node24&#45;&gt;Node23</title>
<path fill="none" stroke="#63b8ff" d="M1019.02,-269.1C1012.67,-259.64 1002.44,-244.42 994.34,-232.37"/>
<polygon fill="#63b8ff" stroke="#63b8ff" points="997.25,-230.43 988.77,-224.08 991.44,-234.33 997.25,-230.43"/>
</g>
<!-- Node25&#45;&gt;Node4 -->
<g id="edge41" class="edge">
<title>Node25&#45;&gt;Node4</title>
<path fill="none" stroke="#63b8ff" d="M1475.29,-269.22C1443.93,-252.73 1378.76,-214.04 1345,-162 1333.2,-143.82 1328.36,-119.16 1326.38,-102.04"/>
<polygon fill="#63b8ff" stroke="#63b8ff" points="1329.87,-101.81 1325.49,-92.17 1322.9,-102.44 1329.87,-101.81"/>
</g>
<!-- Node26&#45;&gt;Node4 -->
<g id="edge43" class="edge">
<title>Node26&#45;&gt;Node4</title>
<path fill="none" stroke="#63b8ff" d="M1397.32,-137.1C1383.9,-126.88 1361.65,-109.93 1345.37,-97.52"/>
<polygon fill="#63b8ff" stroke="#63b8ff" points="1347.86,-95.02 1337.78,-91.74 1343.62,-100.59 1347.86,-95.02"/>
</g>
<!-- Node27&#45;&gt;Node4 -->
<g id="edge45" class="edge">
<title>Node27&#45;&gt;Node4</title>
<path fill="none" stroke="#63b8ff" d="M1515.27,-137.1C1476.62,-125.91 1410.09,-106.64 1366.83,-94.11"/>
<polygon fill="#63b8ff" stroke="#63b8ff" points="1367.86,-90.77 1357.28,-91.35 1365.91,-97.49 1367.86,-90.77"/>
</g>
<!-- Node28&#45;&gt;Node4 -->
<g id="edge47" class="edge">
<title>Node28&#45;&gt;Node4</title>
<path fill="none" stroke="#63b8ff" d="M1625.7,-203.24C1630.11,-186.98 1636.73,-151.96 1619,-132 1587.77,-96.83 1452.8,-86.4 1377.06,-83.3"/>
<polygon fill="#63b8ff" stroke="#63b8ff" points="1377.52,-79.82 1367.4,-82.94 1377.26,-86.81 1377.52,-79.82"/>
</g>
<!-- Node31 -->
<g id="node31" class="node">
<title>Node31</title>
<g id="a_node31"><a xlink:href="extras_8h.html" target="_top" xlink:title=" ">
<polygon fill="white" stroke="#666666" points="2199,-96 2063,-96 2063,-66 2199,-66 2199,-96"/>
<text text-anchor="start" x="2071" y="-84" font-family="Helvetica,sans-Serif" font-size="10.00">MSL_C/MSL_Common/Src</text>
<text text-anchor="middle" x="2131" y="-73" font-family="Helvetica,sans-Serif" font-size="10.00">/extras.h</text>
</a>
</g>
</g>
<!-- Node30&#45;&gt;Node31 -->
<g id="edge52" class="edge">
<title>Node30&#45;&gt;Node31</title>
<path fill="none" stroke="#63b8ff" d="M2197.29,-137.1C2186.92,-128.48 2170.78,-115.07 2157.03,-103.63"/>
<polygon fill="#63b8ff" stroke="#63b8ff" points="2159.51,-101.15 2149.58,-97.45 2155.04,-106.53 2159.51,-101.15"/>
</g>
<!-- Node32 -->
<g id="node32" class="node">
<title>Node32</title>
<g id="a_node32"><a xlink:href="mem_8h.html" target="_top" xlink:title=" ">
<polygon fill="white" stroke="#666666" points="2045,-96 1909,-96 1909,-66 2045,-66 2045,-96"/>
<text text-anchor="start" x="1917" y="-84" font-family="Helvetica,sans-Serif" font-size="10.00">MSL_C/MSL_Common/Src</text>
<text text-anchor="middle" x="1977" y="-73" font-family="Helvetica,sans-Serif" font-size="10.00">/mem.h</text>
</a>
</g>
</g>
<!-- Node30&#45;&gt;Node32 -->
<g id="edge53" class="edge">
<title>Node30&#45;&gt;Node32</title>
<path fill="none" stroke="#63b8ff" d="M2175.88,-137.1C2140.91,-127.41 2084.1,-111.67 2040.14,-99.49"/>
<polygon fill="#63b8ff" stroke="#63b8ff" points="2041.29,-96.18 2030.71,-96.88 2039.42,-102.92 2041.29,-96.18"/>
</g>
<!-- Node33 -->
<g id="node33" class="node">
<title>Node33</title>
<g id="a_node33"><a xlink:href="MSL__Common_2Src_2string_8h.html" target="_top" xlink:title=" ">
<polygon fill="white" stroke="#666666" points="2353,-96 2217,-96 2217,-66 2353,-66 2353,-96"/>
<text text-anchor="start" x="2225" y="-84" font-family="Helvetica,sans-Serif" font-size="10.00">MSL_C/MSL_Common/Src</text>
<text text-anchor="middle" x="2285" y="-73" font-family="Helvetica,sans-Serif" font-size="10.00">/string.h</text>
</a>
</g>
</g>
<!-- Node30&#45;&gt;Node33 -->
<g id="edge55" class="edge">
<title>Node30&#45;&gt;Node33</title>
<path fill="none" stroke="#63b8ff" d="M2218.71,-137.1C2229.08,-128.48 2245.22,-115.07 2258.97,-103.63"/>
<polygon fill="#63b8ff" stroke="#63b8ff" points="2260.96,-106.53 2266.42,-97.45 2256.49,-101.15 2260.96,-106.53"/>
</g>
<!-- Node32&#45;&gt;Node5 -->
<g id="edge54" class="edge">
<title>Node32&#45;&gt;Node5</title>
<path fill="none" stroke="#63b8ff" d="M1977,-65.8C1977,-58.67 1977,-49.82 1977,-41.56"/>
<polygon fill="#63b8ff" stroke="#63b8ff" points="1980.5,-41.68 1977,-31.68 1973.5,-41.68 1980.5,-41.68"/>
</g>
<!-- Node33&#45;&gt;Node5 -->
<g id="edge56" class="edge">
<title>Node33&#45;&gt;Node5</title>
<path fill="none" stroke="#63b8ff" d="M2216.64,-65.8C2169.28,-55.95 2106.05,-42.82 2056.44,-32.51"/>
<polygon fill="#63b8ff" stroke="#63b8ff" points="2057.41,-29.13 2046.91,-30.53 2055.99,-35.99 2057.41,-29.13"/>
</g>
<!-- Node34&#45;&gt;Node3 -->
<g id="edge73" class="edge">
<title>Node34&#45;&gt;Node3</title>
<path fill="none" stroke="#63b8ff" d="M1737.52,-439.54C1749.94,-430.78 1765.77,-419.63 1778.39,-410.73"/>
<polygon fill="#63b8ff" stroke="#63b8ff" points="1780.3,-413.67 1786.45,-405.05 1776.26,-407.95 1780.3,-413.67"/>
</g>
<!-- Node35 -->
<g id="node35" class="node">
<title>Node35</title>
<g id="a_node35"><a xlink:href="JAISound_8h.html" target="_top" xlink:title=" ">
<polygon fill="white" stroke="#666666" points="325,-349 179,-349 179,-330 325,-330 325,-349"/>
<text text-anchor="middle" x="252" y="-337" font-family="Helvetica,sans-Serif" font-size="10.00">JSystem/JAudio2/JAISound.h</text>
</a>
</g>
</g>
<!-- Node34&#45;&gt;Node35 -->
<g id="edge58" class="edge">
<title>Node34&#45;&gt;Node35</title>
<path fill="none" stroke="#63b8ff" d="M1647.33,-448.6C1405.13,-429.84 600.31,-367.48 336.52,-347.05"/>
<polygon fill="#63b8ff" stroke="#63b8ff" points="336.87,-343.57 326.63,-346.28 336.33,-350.54 336.87,-343.57"/>
</g>
<!-- Node36 -->
<g id="node36" class="node">
<title>Node36</title>
<g id="a_node36"><a xlink:href="JAISoundParams_8h.html" target="_top" xlink:title=" ">
<polygon fill="white" stroke="#666666" points="371.5,-294 232.5,-294 232.5,-264 371.5,-264 371.5,-294"/>
<text text-anchor="start" x="240.5" y="-282" font-family="Helvetica,sans-Serif" font-size="10.00">JSystem/JAudio2/JAISound</text>
<text text-anchor="middle" x="302" y="-271" font-family="Helvetica,sans-Serif" font-size="10.00">Params.h</text>
</a>
</g>
</g>
<!-- Node35&#45;&gt;Node36 -->
<g id="edge59" class="edge">
<title>Node35&#45;&gt;Node36</title>
<path fill="none" stroke="#63b8ff" d="M259.38,-329.87C265.47,-322.74 274.41,-312.28 282.52,-302.79"/>
<polygon fill="#63b8ff" stroke="#63b8ff" points="285.12,-305.14 288.95,-295.27 279.8,-300.59 285.12,-305.14"/>
</g>
<!-- Node38 -->
<g id="node38" class="node">
<title>Node38</title>
<g id="a_node38"><a xlink:href="JAIAudible_8h.html" target="_top" xlink:title=" ">
<polygon fill="white" stroke="#666666" points="171.5,-288.5 20.5,-288.5 20.5,-269.5 171.5,-269.5 171.5,-288.5"/>
<text text-anchor="middle" x="96" y="-276.5" font-family="Helvetica,sans-Serif" font-size="10.00">JSystem/JAudio2/JAIAudible.h</text>
</a>
</g>
</g>
<!-- Node35&#45;&gt;Node38 -->
<g id="edge62" class="edge">
<title>Node35&#45;&gt;Node38</title>
<path fill="none" stroke="#63b8ff" d="M228.31,-329.62C202.31,-319.87 160.33,-304.12 130.64,-292.99"/>
<polygon fill="#63b8ff" stroke="#63b8ff" points="131.93,-289.73 121.33,-289.5 129.47,-296.29 131.93,-289.73"/>
</g>
<!-- Node45 -->
<g id="node45" class="node">
<title>Node45</title>
<g id="a_node45"><a xlink:href="global_8h.html" target="_top" xlink:title=" ">
<polygon fill="white" stroke="#666666" points="215,-222.5 165,-222.5 165,-203.5 215,-203.5 215,-222.5"/>
<text text-anchor="middle" x="190" y="-210.5" font-family="Helvetica,sans-Serif" font-size="10.00">global.h</text>
</a>
</g>
</g>
<!-- Node35&#45;&gt;Node45 -->
<g id="edge71" class="edge">
<title>Node35&#45;&gt;Node45</title>
<path fill="none" stroke="#63b8ff" d="M245.49,-329.6C239.24,-320.82 229.78,-306.89 223,-294 212.42,-273.89 202.82,-249.61 196.73,-233.11"/>
<polygon fill="#63b8ff" stroke="#63b8ff" points="200.16,-232.29 193.48,-224.07 193.57,-234.66 200.16,-232.29"/>
</g>
<!-- Node37 -->
<g id="node37" class="node">
<title>Node37</title>
<g id="a_node37"><a xlink:href="JASSoundParams_8h.html" target="_top" xlink:title=" ">
<polygon fill="white" stroke="#666666" points="376.5,-228 233.5,-228 233.5,-198 376.5,-198 376.5,-228"/>
<text text-anchor="start" x="241.5" y="-216" font-family="Helvetica,sans-Serif" font-size="10.00">JSystem/JAudio2/JASSound</text>
<text text-anchor="middle" x="305" y="-205" font-family="Helvetica,sans-Serif" font-size="10.00">Params.h</text>
</a>
</g>
</g>
<!-- Node36&#45;&gt;Node37 -->
<g id="edge60" class="edge">
<title>Node36&#45;&gt;Node37</title>
<path fill="none" stroke="#63b8ff" d="M302.67,-263.8C303,-256.67 303.41,-247.82 303.8,-239.56"/>
<polygon fill="#63b8ff" stroke="#63b8ff" points="307.29,-239.83 304.27,-229.68 300.3,-239.5 307.29,-239.83"/>
</g>
<!-- Node37&#45;&gt;Node4 -->
<g id="edge61" class="edge">
<title>Node37&#45;&gt;Node4</title>
<path fill="none" stroke="#63b8ff" d="M368.49,-197.6C410.9,-187.86 467.88,-174.53 518,-162 568.41,-149.39 579.75,-140.57 631,-132 868.29,-92.32 1156.4,-84.12 1272.65,-82.43"/>
<polygon fill="#63b8ff" stroke="#63b8ff" points="1272.54,-85.93 1282.49,-82.3 1272.45,-78.93 1272.54,-85.93"/>
</g>
<!-- Node39 -->
<g id="node39" class="node">
<title>Node39</title>
<g id="a_node39"><a xlink:href="JGeometry_8h.html" target="_top" xlink:title=" ">
<polygon fill="white" stroke="#666666" points="146.5,-222.5 33.5,-222.5 33.5,-203.5 146.5,-203.5 146.5,-222.5"/>
<text text-anchor="middle" x="90" y="-210.5" font-family="Helvetica,sans-Serif" font-size="10.00">JSystem/JGeometry.h</text>
</a>
</g>
</g>
<!-- Node38&#45;&gt;Node39 -->
<g id="edge63" class="edge">
<title>Node38&#45;&gt;Node39</title>
<path fill="none" stroke="#63b8ff" d="M95.17,-269.1C94.32,-260.12 92.99,-245.95 91.9,-234.22"/>
<polygon fill="#63b8ff" stroke="#63b8ff" points="95.39,-233.96 90.97,-224.33 88.42,-234.61 95.39,-233.96"/>
</g>
<!-- Node40 -->
<g id="node40" class="node">
<title>Node40</title>
<g id="a_node40"><a xlink:href="vec_8h.html" target="_top" xlink:title=" ">
<polygon fill="white" stroke="#666666" points="325,-156.5 233,-156.5 233,-137.5 325,-137.5 325,-156.5"/>
<text text-anchor="middle" x="279" y="-144.5" font-family="Helvetica,sans-Serif" font-size="10.00">dolphin/mtx/vec.h</text>
</a>
</g>
</g>
<!-- Node39&#45;&gt;Node40 -->
<g id="edge64" class="edge">
<title>Node39&#45;&gt;Node40</title>
<path fill="none" stroke="#63b8ff" d="M116.28,-203.1C148.91,-192.05 204.78,-173.13 241.8,-160.6"/>
<polygon fill="#63b8ff" stroke="#63b8ff" points="242.86,-163.93 251.21,-157.41 240.61,-157.3 242.86,-163.93"/>
</g>
<!-- Node41 -->
<g id="node41" class="node">
<title>Node41</title>
<g id="a_node41"><a xlink:href="float_8h.html" target="_top" xlink:title=" ">
<polygon fill="white" stroke="#666666" points="178,-156.5 100,-156.5 100,-137.5 178,-137.5 178,-156.5"/>
<text text-anchor="middle" x="139" y="-144.5" font-family="Helvetica,sans-Serif" font-size="10.00">MSL_C/float.h</text>
</a>
</g>
</g>
<!-- Node39&#45;&gt;Node41 -->
<g id="edge66" class="edge">
<title>Node39&#45;&gt;Node41</title>
<path fill="none" stroke="#63b8ff" d="M96.81,-203.1C104.2,-193.45 116.18,-177.81 125.49,-165.65"/>
<polygon fill="#63b8ff" stroke="#63b8ff" points="128.02,-168.09 131.32,-158.03 122.47,-163.84 128.02,-168.09"/>
</g>
<!-- Node44 -->
<g id="node44" class="node">
<title>Node44</title>
<g id="a_node44"><a xlink:href="math_8h.html" target="_top" xlink:title=" ">
<polygon fill="white" stroke="#666666" points="82,-156.5 0,-156.5 0,-137.5 82,-137.5 82,-156.5"/>
<text text-anchor="middle" x="41" y="-144.5" font-family="Helvetica,sans-Serif" font-size="10.00">MSL_C/math.h</text>
</a>
</g>
</g>
<!-- Node39&#45;&gt;Node44 -->
<g id="edge69" class="edge">
<title>Node39&#45;&gt;Node44</title>
<path fill="none" stroke="#63b8ff" d="M83.19,-203.1C75.8,-193.45 63.82,-177.81 54.51,-165.65"/>
<polygon fill="#63b8ff" stroke="#63b8ff" points="57.53,-163.84 48.68,-158.03 51.98,-168.09 57.53,-163.84"/>
</g>
<!-- Node40&#45;&gt;Node4 -->
<g id="edge65" class="edge">
<title>Node40&#45;&gt;Node4</title>
<path fill="none" stroke="#63b8ff" d="M325.09,-142.86C367.84,-139.96 433.21,-135.58 490,-132 786.15,-113.31 1141.51,-92.6 1272.88,-85"/>
<polygon fill="#63b8ff" stroke="#63b8ff" points="1272.87,-88.51 1282.65,-84.44 1272.46,-81.52 1272.87,-88.51"/>
</g>
<!-- Node42 -->
<g id="node42" class="node">
<title>Node42</title>
<g id="a_node42"><a xlink:href="MSL__Common_2Src_2float_8h.html" target="_top" xlink:title=" ">
<polygon fill="white" stroke="#666666" points="158,-96 22,-96 22,-66 158,-66 158,-96"/>
<text text-anchor="start" x="30" y="-84" font-family="Helvetica,sans-Serif" font-size="10.00">MSL_C/MSL_Common/Src</text>
<text text-anchor="middle" x="90" y="-73" font-family="Helvetica,sans-Serif" font-size="10.00">/float.h</text>
</a>
</g>
</g>
<!-- Node41&#45;&gt;Node42 -->
<g id="edge67" class="edge">
<title>Node41&#45;&gt;Node42</title>
<path fill="none" stroke="#63b8ff" d="M132.19,-137.1C125.86,-128.84 116.16,-116.17 107.66,-105.06"/>
<polygon fill="#63b8ff" stroke="#63b8ff" points="110.68,-103.25 101.82,-97.44 105.12,-107.5 110.68,-103.25"/>
</g>
<!-- Node43 -->
<g id="node43" class="node">
<title>Node43</title>
<g id="a_node43"><a xlink:href="fdlibm_8h.html" target="_top" xlink:title=" ">
<polygon fill="white" stroke="#666666" points="115,-24.5 65,-24.5 65,-5.5 115,-5.5 115,-24.5"/>
<text text-anchor="middle" x="90" y="-12.5" font-family="Helvetica,sans-Serif" font-size="10.00">fdlibm.h</text>
</a>
</g>
</g>
<!-- Node42&#45;&gt;Node43 -->
<g id="edge68" class="edge">
<title>Node42&#45;&gt;Node43</title>
<path fill="none" stroke="#63b8ff" d="M90,-65.8C90,-57.09 90,-45.81 90,-36.18"/>
<polygon fill="#63b8ff" stroke="#63b8ff" points="93.5,-36.36 90,-26.36 86.5,-36.36 93.5,-36.36"/>
</g>
<!-- Node44&#45;&gt;Node42 -->
<g id="edge70" class="edge">
<title>Node44&#45;&gt;Node42</title>
<path fill="none" stroke="#63b8ff" d="M47.81,-137.1C54.14,-128.84 63.84,-116.17 72.34,-105.06"/>
<polygon fill="#63b8ff" stroke="#63b8ff" points="74.88,-107.5 78.18,-97.44 69.32,-103.25 74.88,-107.5"/>
</g>
<!-- Node45&#45;&gt;Node4 -->
<g id="edge72" class="edge">
<title>Node45&#45;&gt;Node4</title>
<path fill="none" stroke="#63b8ff" d="M209.93,-203.13C214.5,-201.29 219.37,-199.46 224,-198 351.71,-157.69 385.42,-150.87 518,-132 800.67,-91.78 1143.6,-83.91 1272.59,-82.37"/>
<polygon fill="#63b8ff" stroke="#63b8ff" points="1272.57,-85.87 1282.53,-82.26 1272.49,-78.87 1272.57,-85.87"/>
</g>
</g>
</svg>
        <g id="navigator" transform="translate(0 0)" fill="#404254">
                <rect fill="#f2f5e9" fill-opacity="0.5" stroke="#606060" stroke-width=".5" x="0" y="0" width="60" height="60"/>
                <use id="zoomplus" xlink:href="#zoomPlus" x="17" y="9" onmousedown="handleZoom(evt,'in')"/>
                <use id="zoomminus" xlink:href="#zoomMin" x="42" y="9" onmousedown="handleZoom(evt,'out')"/>
                <use id="reset" xlink:href="#resetDef" x="30" y="36" onmousedown="handleReset()"/>
                <g id="arrowUp" xlink:href="#dirArrow" transform="translate(30 24)" onmousedown="handlePan(0,-1)">
                  <use xlink:href="#rim" fill="#404040">
                        <set attributeName="fill" to="#808080" begin="arrowUp.mouseover" end="arrowUp.mouseout"/>
                  </use>
                  <path fill="none" stroke="white" stroke-width="1.5" d="M0,-3.0v7 M-2.5,-0.5L0,-3.0L2.5,-0.5"/>
                </g>
                <g id="arrowRight" xlink:href="#dirArrow" transform="rotate(90) translate(36 -43)" onmousedown="handlePan(1,0)">
                  <use xlink:href="#rim" fill="#404040">
                        <set attributeName="fill" to="#808080" begin="arrowRight.mouseover" end="arrowRight.mouseout"/>
                  </use>
                  <path fill="none" stroke="white" stroke-width="1.5" d="M0,-3.0v7 M-2.5,-0.5L0,-3.0L2.5,-0.5"/>
                </g>
                <g id="arrowDown" xlink:href="#dirArrow" transform="rotate(180) translate(-30 -48)" onmousedown="handlePan(0,1)">
                  <use xlink:href="#rim" fill="#404040">
                        <set attributeName="fill" to="#808080" begin="arrowDown.mouseover" end="arrowDown.mouseout"/>
                  </use>
                  <path fill="none" stroke="white" stroke-width="1.5" d="M0,-3.0v7 M-2.5,-0.5L0,-3.0L2.5,-0.5"/>
                </g>
                <g id="arrowLeft" xlink:href="#dirArrow" transform="rotate(270) translate(-36 17)" onmousedown="handlePan(-1,0)">
                  <use xlink:href="#rim" fill="#404040">
                        <set attributeName="fill" to="#808080" begin="arrowLeft.mouseover" end="arrowLeft.mouseout"/>
                  </use>
                  <path fill="none" stroke="white" stroke-width="1.5" d="M0,-3.0v7 M-2.5,-0.5L0,-3.0L2.5,-0.5"/>
                </g>
        </g>
        <svg viewBox="0 0 15 15" width="100%" height="30px" preserveAspectRatio="xMaxYMin meet">
         <g id="arrow_out" transform="scale(0.3 0.3)">
          <a xlink:href="Z2WolfHowlMgr_8h__incl_org.svg" target="_base">
           <rect id="button" ry="5" rx="5" y="6" x="6" height="38" width="38"
                fill="#f2f5e9" fill-opacity="0.5" stroke="#606060" stroke-width="1.0"/>
           <path id="arrow"
             d="M 11.500037,31.436501 C 11.940474,20.09759 22.043105,11.32322 32.158766,21.979434 L 37.068811,17.246167 C 37.068811,17.246167 37.088388,32 37.088388,32 L 22.160133,31.978069 C 22.160133,31.978069 26.997745,27.140456 26.997745,27.140456 C 18.528582,18.264221 13.291696,25.230495 11.500037,31.436501 z"
             style="fill:#404040;"/>
          </a>
         </g>
        </svg>
</svg>
