<?xml version="1.0" encoding="UTF-8" standalone="no"?>
<!DOCTYPE svg PUBLIC "-//W3C//DTD SVG 1.1//EN"
 "http://www.w3.org/Graphics/SVG/1.1/DTD/svg11.dtd">
<!-- Generated by graphviz version 7.0.5 (20221223.1930)
 -->
<!-- Title: include/Z2AudioLib/Z2WolfHowlMgr.h Pages: 1 -->
<svg width="1348pt" height="170pt"
 viewBox="0.00 0.00 1348.00 170.00" xmlns="http://www.w3.org/2000/svg" xmlns:xlink="http://www.w3.org/1999/xlink">
<g id="graph0" class="graph" transform="scale(1 1) rotate(0) translate(4 166)">
<title>include/Z2AudioLib/Z2WolfHowlMgr.h</title>
<!-- Node1 -->
<g id="node1" class="node">
<title>Node1</title>
<g id="a_node1"><a xlink:title=" ">
<polygon fill="#999999" stroke="#666666" points="829.5,-162 729.5,-162 729.5,-132 829.5,-132 829.5,-162"/>
<text text-anchor="start" x="737.5" y="-150" font-family="Helvetica,sans-Serif" font-size="10.00">include/Z2AudioLib</text>
<text text-anchor="middle" x="779.5" y="-139" font-family="Helvetica,sans-Serif" font-size="10.00">/Z2WolfHowlMgr.h</text>
</a>
</g>
</g>
<!-- Node2 -->
<g id="node2" class="node">
<title>Node2</title>
<g id="a_node2"><a xlink:href="d__a__alink_8h.html" target="_top" xlink:title=" ">
<polygon fill="white" stroke="#666666" points="691.5,-90.5 575.5,-90.5 575.5,-71.5 691.5,-71.5 691.5,-90.5"/>
<text text-anchor="middle" x="633.5" y="-78.5" font-family="Helvetica,sans-Serif" font-size="10.00">include/d/a/d_a_alink.h</text>
</a>
</g>
</g>
<!-- Node1&#45;&gt;Node2 -->
<g id="edge1" class="edge">
<title>Node1&#45;&gt;Node2</title>
<path fill="none" stroke="#63b8ff" d="M736.3,-127.06C709.11,-115.14 675.25,-100.3 654,-90.99"/>
<polygon fill="#63b8ff" stroke="#63b8ff" points="734.78,-130.22 745.35,-131.03 737.6,-123.81 734.78,-130.22"/>
</g>
<!-- Node13 -->
<g id="node13" class="node">
<title>Node13</title>
<g id="a_node13"><a xlink:href="Z2WolfHowlMgr_8cpp.html" target="_top" xlink:title=" ">
<polygon fill="white" stroke="#666666" points="849.5,-96 709.5,-96 709.5,-66 849.5,-66 849.5,-96"/>
<text text-anchor="start" x="717.5" y="-84" font-family="Helvetica,sans-Serif" font-size="10.00">libs/Z2AudioLib/Z2WolfHowl</text>
<text text-anchor="middle" x="779.5" y="-73" font-family="Helvetica,sans-Serif" font-size="10.00">Mgr.cpp</text>
</a>
</g>
</g>
<!-- Node1&#45;&gt;Node13 -->
<g id="edge12" class="edge">
<title>Node1&#45;&gt;Node13</title>
<path fill="none" stroke="#63b8ff" d="M779.5,-120.39C779.5,-112.13 779.5,-103.28 779.5,-96.16"/>
<polygon fill="#63b8ff" stroke="#63b8ff" points="776,-120.28 779.5,-130.28 783,-120.28 776,-120.28"/>
</g>
<!-- Node14 -->
<g id="node14" class="node">
<title>Node14</title>
<g id="a_node14"><a xlink:href="m__Do__main_8cpp.html" target="_top" xlink:title=" ">
<polygon fill="white" stroke="#666666" points="999,-90.5 868,-90.5 868,-71.5 999,-71.5 999,-90.5"/>
<text text-anchor="middle" x="933.5" y="-78.5" font-family="Helvetica,sans-Serif" font-size="10.00">src/m_Do/m_Do_main.cpp</text>
</a>
</g>
</g>
<!-- Node1&#45;&gt;Node14 -->
<g id="edge13" class="edge">
<title>Node1&#45;&gt;Node14</title>
<path fill="none" stroke="#63b8ff" d="M824.68,-127.22C853.43,-115.27 889.36,-100.34 911.88,-90.99"/>
<polygon fill="#63b8ff" stroke="#63b8ff" points="823.35,-123.99 815.46,-131.06 826.04,-130.45 823.35,-123.99"/>
</g>
<!-- Node3 -->
<g id="node3" class="node">
<title>Node3</title>
<g id="a_node3"><a xlink:href="d__a__alink_8cpp.html" target="_top" xlink:title=" ">
<polygon fill="white" stroke="#666666" points="109,-24.5 0,-24.5 0,-5.5 109,-5.5 109,-24.5"/>
<text text-anchor="middle" x="54.5" y="-12.5" font-family="Helvetica,sans-Serif" font-size="10.00">src/d/a/d_a_alink.cpp</text>
</a>
</g>
</g>
<!-- Node2&#45;&gt;Node3 -->
<g id="edge2" class="edge">
<title>Node2&#45;&gt;Node3</title>
<path fill="none" stroke="#63b8ff" d="M563.92,-75.87C464.65,-69.39 276.84,-54.91 118.5,-30 109.85,-28.64 100.61,-26.83 91.92,-24.97"/>
<polygon fill="#63b8ff" stroke="#63b8ff" points="563.58,-79.36 573.78,-76.51 564.03,-72.37 563.58,-79.36"/>
</g>
<!-- Node4 -->
<g id="node4" class="node">
<title>Node4</title>
<g id="a_node4"><a xlink:href="d__a__player_8cpp.html" target="_top" xlink:title=" ">
<polygon fill="white" stroke="#666666" points="241.5,-24.5 127.5,-24.5 127.5,-5.5 241.5,-5.5 241.5,-24.5"/>
<text text-anchor="middle" x="184.5" y="-12.5" font-family="Helvetica,sans-Serif" font-size="10.00">src/d/a/d_a_player.cpp</text>
</a>
</g>
</g>
<!-- Node2&#45;&gt;Node4 -->
<g id="edge3" class="edge">
<title>Node2&#45;&gt;Node4</title>
<path fill="none" stroke="#63b8ff" d="M563.77,-72.58C486.82,-64 359.42,-48.63 250.5,-30 241.96,-28.54 232.84,-26.75 224.19,-24.95"/>
<polygon fill="#63b8ff" stroke="#63b8ff" points="563.38,-76.06 573.71,-73.68 564.15,-69.1 563.38,-76.06"/>
</g>
<!-- Node5 -->
<g id="node5" class="node">
<title>Node5</title>
<g id="a_node5"><a xlink:href="d__com__inf__game_8cpp.html" target="_top" xlink:title=" ">
<polygon fill="white" stroke="#666666" points="367.5,-30 259.5,-30 259.5,0 367.5,0 367.5,-30"/>
<text text-anchor="start" x="267.5" y="-18" font-family="Helvetica,sans-Serif" font-size="10.00">src/d/com/d_com_inf</text>
<text text-anchor="middle" x="313.5" y="-7" font-family="Helvetica,sans-Serif" font-size="10.00">_game.cpp</text>
</a>
</g>
</g>
<!-- Node2&#45;&gt;Node5 -->
<g id="edge4" class="edge">
<title>Node2&#45;&gt;Node5</title>
<path fill="none" stroke="#63b8ff" d="M574.54,-68.99C522.39,-59.14 444.28,-44.12 376.5,-30 373.65,-29.41 370.73,-28.79 367.78,-28.16"/>
<polygon fill="#63b8ff" stroke="#63b8ff" points="573.62,-72.38 584.1,-70.79 574.92,-65.5 573.62,-72.38"/>
</g>
<!-- Node6 -->
<g id="node6" class="node">
<title>Node6</title>
<g id="a_node6"><a xlink:href="d__camera_8cpp.html" target="_top" xlink:title=" ">
<polygon fill="white" stroke="#666666" points="487.5,-24.5 385.5,-24.5 385.5,-5.5 487.5,-5.5 487.5,-24.5"/>
<text text-anchor="middle" x="436.5" y="-12.5" font-family="Helvetica,sans-Serif" font-size="10.00">src/d/d_camera.cpp</text>
</a>
</g>
</g>
<!-- Node2&#45;&gt;Node6 -->
<g id="edge5" class="edge">
<title>Node2&#45;&gt;Node6</title>
<path fill="none" stroke="#63b8ff" d="M595.32,-67.6C556.77,-55.07 498.18,-36.04 463.98,-24.93"/>
<polygon fill="#63b8ff" stroke="#63b8ff" points="594.08,-70.87 604.67,-70.63 596.24,-64.21 594.08,-70.87"/>
</g>
<!-- Node7 -->
<g id="node7" class="node">
<title>Node7</title>
<g id="a_node7"><a xlink:href="d__ev__camera_8cpp.html" target="_top" xlink:title=" ">
<polygon fill="white" stroke="#666666" points="623.5,-24.5 505.5,-24.5 505.5,-5.5 623.5,-5.5 623.5,-24.5"/>
<text text-anchor="middle" x="564.5" y="-12.5" font-family="Helvetica,sans-Serif" font-size="10.00">src/d/d_ev_camera.cpp</text>
</a>
</g>
</g>
<!-- Node2&#45;&gt;Node7 -->
<g id="edge6" class="edge">
<title>Node2&#45;&gt;Node7</title>
<path fill="none" stroke="#63b8ff" d="M615.53,-63.33C602.25,-51.02 584.69,-34.73 574.01,-24.82"/>
<polygon fill="#63b8ff" stroke="#63b8ff" points="613.08,-65.84 622.8,-70.07 617.84,-60.71 613.08,-65.84"/>
</g>
<!-- Node8 -->
<g id="node8" class="node">
<title>Node8</title>
<g id="a_node8"><a xlink:href="d__event_8cpp.html" target="_top" xlink:title=" ">
<polygon fill="white" stroke="#666666" points="763,-24.5 642,-24.5 642,-5.5 763,-5.5 763,-24.5"/>
<text text-anchor="middle" x="702.5" y="-12.5" font-family="Helvetica,sans-Serif" font-size="10.00">src/d/event/d_event.cpp</text>
</a>
</g>
</g>
<!-- Node2&#45;&gt;Node8 -->
<g id="edge7" class="edge">
<title>Node2&#45;&gt;Node8</title>
<path fill="none" stroke="#63b8ff" d="M651.47,-63.33C664.75,-51.02 682.31,-34.73 692.99,-24.82"/>
<polygon fill="#63b8ff" stroke="#63b8ff" points="649.16,-60.71 644.2,-70.07 653.92,-65.84 649.16,-60.71"/>
</g>
<!-- Node9 -->
<g id="node9" class="node">
<title>Node9</title>
<g id="a_node9"><a xlink:href="d__menu__ring_8cpp.html" target="_top" xlink:title=" ">
<polygon fill="white" stroke="#666666" points="923.5,-24.5 781.5,-24.5 781.5,-5.5 923.5,-5.5 923.5,-24.5"/>
<text text-anchor="middle" x="852.5" y="-12.5" font-family="Helvetica,sans-Serif" font-size="10.00">src/d/menu/d_menu_ring.cpp</text>
</a>
</g>
</g>
<!-- Node2&#45;&gt;Node9 -->
<g id="edge8" class="edge">
<title>Node2&#45;&gt;Node9</title>
<path fill="none" stroke="#63b8ff" d="M674.84,-67.92C717.68,-55.4 783.61,-36.13 821.96,-24.93"/>
<polygon fill="#63b8ff" stroke="#63b8ff" points="674.02,-64.51 665.4,-70.68 675.98,-71.23 674.02,-64.51"/>
</g>
<!-- Node10 -->
<g id="node10" class="node">
<title>Node10</title>
<g id="a_node10"><a xlink:href="d__meter2__draw_8cpp.html" target="_top" xlink:title=" ">
<polygon fill="white" stroke="#666666" points="1051.5,-30 941.5,-30 941.5,0 1051.5,0 1051.5,-30"/>
<text text-anchor="start" x="949.5" y="-18" font-family="Helvetica,sans-Serif" font-size="10.00">src/d/meter/d_meter2</text>
<text text-anchor="middle" x="996.5" y="-7" font-family="Helvetica,sans-Serif" font-size="10.00">_draw.cpp</text>
</a>
</g>
</g>
<!-- Node2&#45;&gt;Node10 -->
<g id="edge9" class="edge">
<title>Node2&#45;&gt;Node10</title>
<path fill="none" stroke="#63b8ff" d="M685.52,-68.85C690.58,-67.85 695.63,-66.89 700.5,-66 803.16,-47.32 829.93,-49.16 932.5,-30 935.3,-29.48 938.15,-28.92 941.04,-28.35"/>
<polygon fill="#63b8ff" stroke="#63b8ff" points="685.13,-65.36 676.02,-70.77 686.51,-72.22 685.13,-65.36"/>
</g>
<!-- Node11 -->
<g id="node11" class="node">
<title>Node11</title>
<g id="a_node11"><a xlink:href="d__msg__flow_8cpp.html" target="_top" xlink:title=" ">
<polygon fill="white" stroke="#666666" points="1203,-24.5 1070,-24.5 1070,-5.5 1203,-5.5 1203,-24.5"/>
<text text-anchor="middle" x="1136.5" y="-12.5" font-family="Helvetica,sans-Serif" font-size="10.00">src/d/msg/d_msg_flow.cpp</text>
</a>
</g>
</g>
<!-- Node2&#45;&gt;Node11 -->
<g id="edge10" class="edge">
<title>Node2&#45;&gt;Node11</title>
<path fill="none" stroke="#63b8ff" d="M684.2,-68.81C689.69,-67.78 695.2,-66.82 700.5,-66 859.42,-41.52 901.3,-52.58 1060.5,-30 1070.46,-28.59 1081.11,-26.8 1091.19,-24.98"/>
<polygon fill="#63b8ff" stroke="#63b8ff" points="683.67,-65.35 674.54,-70.72 685.03,-72.22 683.67,-65.35"/>
</g>
<!-- Node12 -->
<g id="node12" class="node">
<title>Node12</title>
<g id="a_node12"><a xlink:href="f__op__actor_8cpp.html" target="_top" xlink:title=" ">
<polygon fill="white" stroke="#666666" points="1340,-24.5 1221,-24.5 1221,-5.5 1340,-5.5 1340,-24.5"/>
<text text-anchor="middle" x="1280.5" y="-12.5" font-family="Helvetica,sans-Serif" font-size="10.00">src/f_op/f_op_actor.cpp</text>
</a>
</g>
</g>
<!-- Node2&#45;&gt;Node12 -->
<g id="edge11" class="edge">
<title>Node2&#45;&gt;Node12</title>
<path fill="none" stroke="#63b8ff" d="M683.08,-68.86C688.93,-67.77 694.83,-66.79 700.5,-66 926.45,-34.6 986.51,-61.07 1212.5,-30 1221.93,-28.7 1232.02,-26.87 1241.46,-24.96"/>
<polygon fill="#63b8ff" stroke="#63b8ff" points="682.59,-65.39 673.45,-70.74 683.93,-72.26 682.59,-65.39"/>
</g>
</g>
</svg>
